<?xml version="1.0" encoding="UTF-8" standalone="no"?>
<!DOCTYPE svg PUBLIC "-//W3C//DTD SVG 1.1//EN"
 "http://www.w3.org/Graphics/SVG/1.1/DTD/svg11.dtd">
<!-- Generated by graphviz version 2.47.2 (0)
 -->
<!-- Title: /home/xenvre/robot&#45;code/bfl_robotology/src/BayesFilters/include/BayesFilters/AdditiveStateModel.h Pages: 1 -->
<svg width="1297pt" height="328pt"
 viewBox="0.00 0.00 1296.50 328.00" xmlns="http://www.w3.org/2000/svg" xmlns:xlink="http://www.w3.org/1999/xlink">
<g id="graph0" class="graph" transform="scale(1 1) rotate(0) translate(4 324)">
<title>/home/xenvre/robot&#45;code/bfl_robotology/src/BayesFilters/include/BayesFilters/AdditiveStateModel.h</title>
<polygon fill="white" stroke="transparent" points="-4,4 -4,-324 1292.5,-324 1292.5,4 -4,4"/>
<!-- Node1 -->
<g id="node1" class="node">
<title>Node1</title>
<g id="a_node1"><a xlink:title=" ">
<polygon fill="#bfbfbf" stroke="black" points="957,-267.5 957,-319.5 1127,-319.5 1127,-267.5 957,-267.5"/>
<text text-anchor="start" x="965" y="-307.5" font-family="Helvetica,sans-Serif" font-size="10.00">/home/xenvre/robot</text>
<text text-anchor="start" x="965" y="-296.5" font-family="Helvetica,sans-Serif" font-size="10.00">&#45;code/bfl_robotology</text>
<text text-anchor="start" x="965" y="-285.5" font-family="Helvetica,sans-Serif" font-size="10.00">/src/BayesFilters/include</text>
<text text-anchor="middle" x="1042" y="-274.5" font-family="Helvetica,sans-Serif" font-size="10.00">/BayesFilters/AdditiveStateModel.h</text>
</a>
</g>
</g>
<!-- Node2 -->
<g id="node2" class="node">
<title>Node2</title>
<g id="a_node2"><a xlink:href="LinearStateModel_8h.html" target="_top" xlink:title=" ">
<polygon fill="white" stroke="black" points="342.5,-178.5 342.5,-230.5 503.5,-230.5 503.5,-178.5 342.5,-178.5"/>
<text text-anchor="start" x="350.5" y="-218.5" font-family="Helvetica,sans-Serif" font-size="10.00">/home/xenvre/robot</text>
<text text-anchor="start" x="350.5" y="-207.5" font-family="Helvetica,sans-Serif" font-size="10.00">&#45;code/bfl_robotology</text>
<text text-anchor="start" x="350.5" y="-196.5" font-family="Helvetica,sans-Serif" font-size="10.00">/src/BayesFilters/include</text>
<text text-anchor="middle" x="423" y="-185.5" font-family="Helvetica,sans-Serif" font-size="10.00">/BayesFilters/LinearStateModel.h</text>
</a>
</g>
</g>
<!-- Node1&#45;&gt;Node2 -->
<g id="edge1" class="edge">
<title>Node1&#45;&gt;Node2</title>
<path fill="none" stroke="midnightblue" d="M946.88,-279.13C825.52,-262.07 617.71,-232.87 503.71,-216.84"/>
<polygon fill="midnightblue" stroke="midnightblue" points="946.51,-282.61 956.9,-280.54 947.49,-275.68 946.51,-282.61"/>
</g>
<!-- Node10 -->
<g id="node10" class="node">
<title>Node10</title>
<g id="a_node10"><a xlink:href="sigma__point_8h.html" target="_top" xlink:title=" ">
<polygon fill="white" stroke="black" points="925,-178.5 925,-230.5 1063,-230.5 1063,-178.5 925,-178.5"/>
<text text-anchor="start" x="933" y="-218.5" font-family="Helvetica,sans-Serif" font-size="10.00">/home/xenvre/robot</text>
<text text-anchor="start" x="933" y="-207.5" font-family="Helvetica,sans-Serif" font-size="10.00">&#45;code/bfl_robotology</text>
<text text-anchor="start" x="933" y="-196.5" font-family="Helvetica,sans-Serif" font-size="10.00">/src/BayesFilters/include</text>
<text text-anchor="middle" x="994" y="-185.5" font-family="Helvetica,sans-Serif" font-size="10.00">/BayesFilters/sigma_point.h</text>
</a>
</g>
</g>
<!-- Node1&#45;&gt;Node10 -->
<g id="edge9" class="edge">
<title>Node1&#45;&gt;Node10</title>
<path fill="none" stroke="midnightblue" d="M1023.16,-258.35C1018.06,-249.1 1012.63,-239.26 1007.85,-230.61"/>
<polygon fill="midnightblue" stroke="midnightblue" points="1020.22,-260.27 1028.12,-267.34 1026.35,-256.89 1020.22,-260.27"/>
</g>
<!-- Node15 -->
<g id="node15" class="node">
<title>Node15</title>
<g id="a_node15"><a xlink:href="UKFPrediction_8h.html" target="_top" xlink:title=" ">
<polygon fill="white" stroke="black" points="1139.5,-89.5 1139.5,-141.5 1288.5,-141.5 1288.5,-89.5 1139.5,-89.5"/>
<text text-anchor="start" x="1147.5" y="-129.5" font-family="Helvetica,sans-Serif" font-size="10.00">/home/xenvre/robot</text>
<text text-anchor="start" x="1147.5" y="-118.5" font-family="Helvetica,sans-Serif" font-size="10.00">&#45;code/bfl_robotology</text>
<text text-anchor="start" x="1147.5" y="-107.5" font-family="Helvetica,sans-Serif" font-size="10.00">/src/BayesFilters/include</text>
<text text-anchor="middle" x="1214" y="-96.5" font-family="Helvetica,sans-Serif" font-size="10.00">/BayesFilters/UKFPrediction.h</text>
</a>
</g>
</g>
<!-- Node1&#45;&gt;Node15 -->
<g id="edge17" class="edge">
<title>Node1&#45;&gt;Node15</title>
<path fill="none" stroke="midnightblue" d="M1059.83,-258.36C1075.39,-229.38 1097.41,-190.56 1110,-178 1124.4,-163.63 1142.82,-151.32 1160.14,-141.57"/>
<polygon fill="midnightblue" stroke="midnightblue" points="1056.64,-256.9 1055.02,-267.37 1062.81,-260.2 1056.64,-256.9"/>
</g>
<!-- Node18 -->
<g id="node18" class="node">
<title>Node18</title>
<g id="a_node18"><a xlink:href="AdditiveStateModel_8cpp.html" target="_top" xlink:title=" ">
<polygon fill="white" stroke="black" points="1119.5,-178.5 1119.5,-230.5 1242.5,-230.5 1242.5,-178.5 1119.5,-178.5"/>
<text text-anchor="start" x="1127.5" y="-218.5" font-family="Helvetica,sans-Serif" font-size="10.00">/home/xenvre/robot</text>
<text text-anchor="start" x="1127.5" y="-207.5" font-family="Helvetica,sans-Serif" font-size="10.00">&#45;code/bfl_robotology</text>
<text text-anchor="start" x="1127.5" y="-196.5" font-family="Helvetica,sans-Serif" font-size="10.00">/src/BayesFilters/src</text>
<text text-anchor="middle" x="1181" y="-185.5" font-family="Helvetica,sans-Serif" font-size="10.00">/AdditiveStateModel.cpp</text>
</a>
</g>
</g>
<!-- Node1&#45;&gt;Node18 -->
<g id="edge18" class="edge">
<title>Node1&#45;&gt;Node18</title>
<path fill="none" stroke="midnightblue" d="M1091.07,-261.79C1107.38,-251.58 1125.34,-240.34 1140.89,-230.61"/>
<polygon fill="midnightblue" stroke="midnightblue" points="1088.82,-259.06 1082.2,-267.34 1092.54,-265 1088.82,-259.06"/>
</g>
<!-- Node3 -->
<g id="node3" class="node">
<title>Node3</title>
<g id="a_node3"><a xlink:href="KFPrediction_8h.html" target="_top" xlink:title=" ">
<polygon fill="white" stroke="black" points="0,-89.5 0,-141.5 142,-141.5 142,-89.5 0,-89.5"/>
<text text-anchor="start" x="8" y="-129.5" font-family="Helvetica,sans-Serif" font-size="10.00">/home/xenvre/robot</text>
<text text-anchor="start" x="8" y="-118.5" font-family="Helvetica,sans-Serif" font-size="10.00">&#45;code/bfl_robotology</text>
<text text-anchor="start" x="8" y="-107.5" font-family="Helvetica,sans-Serif" font-size="10.00">/src/BayesFilters/include</text>
<text text-anchor="middle" x="71" y="-96.5" font-family="Helvetica,sans-Serif" font-size="10.00">/BayesFilters/KFPrediction.h</text>
</a>
</g>
</g>
<!-- Node2&#45;&gt;Node3 -->
<g id="edge2" class="edge">
<title>Node2&#45;&gt;Node3</title>
<path fill="none" stroke="midnightblue" d="M332.14,-185.01C279.05,-173.69 210.91,-158.29 151,-142 148.05,-141.2 145.04,-140.35 142.01,-139.48"/>
<polygon fill="midnightblue" stroke="midnightblue" points="331.7,-188.49 342.21,-187.14 333.16,-181.64 331.7,-188.49"/>
</g>
<!-- Node5 -->
<g id="node5" class="node">
<title>Node5</title>
<g id="a_node5"><a xlink:href="LTIStateModel_8h.html" target="_top" xlink:title=" ">
<polygon fill="white" stroke="black" points="160.5,-89.5 160.5,-141.5 309.5,-141.5 309.5,-89.5 160.5,-89.5"/>
<text text-anchor="start" x="168.5" y="-129.5" font-family="Helvetica,sans-Serif" font-size="10.00">/home/xenvre/robot</text>
<text text-anchor="start" x="168.5" y="-118.5" font-family="Helvetica,sans-Serif" font-size="10.00">&#45;code/bfl_robotology</text>
<text text-anchor="start" x="168.5" y="-107.5" font-family="Helvetica,sans-Serif" font-size="10.00">/src/BayesFilters/include</text>
<text text-anchor="middle" x="235" y="-96.5" font-family="Helvetica,sans-Serif" font-size="10.00">/BayesFilters/LTIStateModel.h</text>
</a>
</g>
</g>
<!-- Node2&#45;&gt;Node5 -->
<g id="edge4" class="edge">
<title>Node2&#45;&gt;Node5</title>
<path fill="none" stroke="midnightblue" d="M359.58,-174.15C336.69,-163.56 311.09,-151.71 289.07,-141.52"/>
<polygon fill="midnightblue" stroke="midnightblue" points="358.33,-177.43 368.87,-178.45 361.27,-171.08 358.33,-177.43"/>
</g>
<!-- Node7 -->
<g id="node7" class="node">
<title>Node7</title>
<g id="a_node7"><a xlink:href="WhiteNoiseAcceleration_8h.html" target="_top" xlink:title=" ">
<polygon fill="white" stroke="black" points="327.5,-89.5 327.5,-141.5 518.5,-141.5 518.5,-89.5 327.5,-89.5"/>
<text text-anchor="start" x="335.5" y="-129.5" font-family="Helvetica,sans-Serif" font-size="10.00">/home/xenvre/robot</text>
<text text-anchor="start" x="335.5" y="-118.5" font-family="Helvetica,sans-Serif" font-size="10.00">&#45;code/bfl_robotology</text>
<text text-anchor="start" x="335.5" y="-107.5" font-family="Helvetica,sans-Serif" font-size="10.00">/src/BayesFilters/include</text>
<text text-anchor="middle" x="423" y="-96.5" font-family="Helvetica,sans-Serif" font-size="10.00">/BayesFilters/WhiteNoiseAcceleration.h</text>
</a>
</g>
</g>
<!-- Node2&#45;&gt;Node7 -->
<g id="edge6" class="edge">
<title>Node2&#45;&gt;Node7</title>
<path fill="none" stroke="midnightblue" d="M423,-168.19C423,-159.28 423,-149.9 423,-141.61"/>
<polygon fill="midnightblue" stroke="midnightblue" points="419.5,-168.34 423,-178.34 426.5,-168.34 419.5,-168.34"/>
</g>
<!-- Node9 -->
<g id="node9" class="node">
<title>Node9</title>
<g id="a_node9"><a xlink:href="LinearStateModel_8cpp.html" target="_top" xlink:title=" ">
<polygon fill="white" stroke="black" points="537,-89.5 537,-141.5 651,-141.5 651,-89.5 537,-89.5"/>
<text text-anchor="start" x="545" y="-129.5" font-family="Helvetica,sans-Serif" font-size="10.00">/home/xenvre/robot</text>
<text text-anchor="start" x="545" y="-118.5" font-family="Helvetica,sans-Serif" font-size="10.00">&#45;code/bfl_robotology</text>
<text text-anchor="start" x="545" y="-107.5" font-family="Helvetica,sans-Serif" font-size="10.00">/src/BayesFilters/src</text>
<text text-anchor="middle" x="594" y="-96.5" font-family="Helvetica,sans-Serif" font-size="10.00">/LinearStateModel.cpp</text>
</a>
</g>
</g>
<!-- Node2&#45;&gt;Node9 -->
<g id="edge8" class="edge">
<title>Node2&#45;&gt;Node9</title>
<path fill="none" stroke="midnightblue" d="M481.42,-173.78C502,-163.31 524.9,-151.66 544.65,-141.61"/>
<polygon fill="midnightblue" stroke="midnightblue" points="479.79,-170.68 472.46,-178.34 482.96,-176.92 479.79,-170.68"/>
</g>
<!-- Node4 -->
<g id="node4" class="node">
<title>Node4</title>
<g id="a_node4"><a xlink:href="KFPrediction_8cpp.html" target="_top" xlink:title=" ">
<polygon fill="white" stroke="black" points="17.5,-0.5 17.5,-52.5 124.5,-52.5 124.5,-0.5 17.5,-0.5"/>
<text text-anchor="start" x="25.5" y="-40.5" font-family="Helvetica,sans-Serif" font-size="10.00">/home/xenvre/robot</text>
<text text-anchor="start" x="25.5" y="-29.5" font-family="Helvetica,sans-Serif" font-size="10.00">&#45;code/bfl_robotology</text>
<text text-anchor="start" x="25.5" y="-18.5" font-family="Helvetica,sans-Serif" font-size="10.00">/src/BayesFilters/src</text>
<text text-anchor="middle" x="71" y="-7.5" font-family="Helvetica,sans-Serif" font-size="10.00">/KFPrediction.cpp</text>
</a>
</g>
</g>
<!-- Node3&#45;&gt;Node4 -->
<g id="edge3" class="edge">
<title>Node3&#45;&gt;Node4</title>
<path fill="none" stroke="midnightblue" d="M71,-79.19C71,-70.28 71,-60.9 71,-52.61"/>
<polygon fill="midnightblue" stroke="midnightblue" points="67.5,-79.34 71,-89.34 74.5,-79.34 67.5,-79.34"/>
</g>
<!-- Node6 -->
<g id="node6" class="node">
<title>Node6</title>
<g id="a_node6"><a xlink:href="LTIStateModel_8cpp.html" target="_top" xlink:title=" ">
<polygon fill="white" stroke="black" points="181.5,-0.5 181.5,-52.5 288.5,-52.5 288.5,-0.5 181.5,-0.5"/>
<text text-anchor="start" x="189.5" y="-40.5" font-family="Helvetica,sans-Serif" font-size="10.00">/home/xenvre/robot</text>
<text text-anchor="start" x="189.5" y="-29.5" font-family="Helvetica,sans-Serif" font-size="10.00">&#45;code/bfl_robotology</text>
<text text-anchor="start" x="189.5" y="-18.5" font-family="Helvetica,sans-Serif" font-size="10.00">/src/BayesFilters/src</text>
<text text-anchor="middle" x="235" y="-7.5" font-family="Helvetica,sans-Serif" font-size="10.00">/LTIStateModel.cpp</text>
</a>
</g>
</g>
<!-- Node5&#45;&gt;Node6 -->
<g id="edge5" class="edge">
<title>Node5&#45;&gt;Node6</title>
<path fill="none" stroke="midnightblue" d="M235,-79.19C235,-70.28 235,-60.9 235,-52.61"/>
<polygon fill="midnightblue" stroke="midnightblue" points="231.5,-79.34 235,-89.34 238.5,-79.34 231.5,-79.34"/>
</g>
<!-- Node8 -->
<g id="node8" class="node">
<title>Node8</title>
<g id="a_node8"><a xlink:href="WhiteNoiseAcceleration_8cpp.html" target="_top" xlink:title=" ">
<polygon fill="white" stroke="black" points="351.5,-0.5 351.5,-52.5 494.5,-52.5 494.5,-0.5 351.5,-0.5"/>
<text text-anchor="start" x="359.5" y="-40.5" font-family="Helvetica,sans-Serif" font-size="10.00">/home/xenvre/robot</text>
<text text-anchor="start" x="359.5" y="-29.5" font-family="Helvetica,sans-Serif" font-size="10.00">&#45;code/bfl_robotology</text>
<text text-anchor="start" x="359.5" y="-18.5" font-family="Helvetica,sans-Serif" font-size="10.00">/src/BayesFilters/src</text>
<text text-anchor="middle" x="423" y="-7.5" font-family="Helvetica,sans-Serif" font-size="10.00">/WhiteNoiseAcceleration.cpp</text>
</a>
</g>
</g>
<!-- Node7&#45;&gt;Node8 -->
<g id="edge7" class="edge">
<title>Node7&#45;&gt;Node8</title>
<path fill="none" stroke="midnightblue" d="M423,-79.19C423,-70.28 423,-60.9 423,-52.61"/>
<polygon fill="midnightblue" stroke="midnightblue" points="419.5,-79.34 423,-89.34 426.5,-79.34 419.5,-79.34"/>
</g>
<!-- Node11 -->
<g id="node11" class="node">
<title>Node11</title>
<g id="a_node11"><a xlink:href="SUKFCorrection_8h.html" target="_top" xlink:title=" ">
<polygon fill="white" stroke="black" points="669,-89.5 669,-141.5 827,-141.5 827,-89.5 669,-89.5"/>
<text text-anchor="start" x="677" y="-129.5" font-family="Helvetica,sans-Serif" font-size="10.00">/home/xenvre/robot</text>
<text text-anchor="start" x="677" y="-118.5" font-family="Helvetica,sans-Serif" font-size="10.00">&#45;code/bfl_robotology</text>
<text text-anchor="start" x="677" y="-107.5" font-family="Helvetica,sans-Serif" font-size="10.00">/src/BayesFilters/include</text>
<text text-anchor="middle" x="748" y="-96.5" font-family="Helvetica,sans-Serif" font-size="10.00">/BayesFilters/SUKFCorrection.h</text>
</a>
</g>
</g>
<!-- Node10&#45;&gt;Node11 -->
<g id="edge10" class="edge">
<title>Node10&#45;&gt;Node11</title>
<path fill="none" stroke="midnightblue" d="M915.35,-175.68C884.34,-164.72 848.99,-152.22 818.8,-141.54"/>
<polygon fill="midnightblue" stroke="midnightblue" points="914.23,-179 924.82,-179.03 916.56,-172.4 914.23,-179"/>
</g>
<!-- Node13 -->
<g id="node13" class="node">
<title>Node13</title>
<g id="a_node13"><a xlink:href="UKFCorrection_8h.html" target="_top" xlink:title=" ">
<polygon fill="white" stroke="black" points="845.5,-89.5 845.5,-141.5 996.5,-141.5 996.5,-89.5 845.5,-89.5"/>
<text text-anchor="start" x="853.5" y="-129.5" font-family="Helvetica,sans-Serif" font-size="10.00">/home/xenvre/robot</text>
<text text-anchor="start" x="853.5" y="-118.5" font-family="Helvetica,sans-Serif" font-size="10.00">&#45;code/bfl_robotology</text>
<text text-anchor="start" x="853.5" y="-107.5" font-family="Helvetica,sans-Serif" font-size="10.00">/src/BayesFilters/include</text>
<text text-anchor="middle" x="921" y="-96.5" font-family="Helvetica,sans-Serif" font-size="10.00">/BayesFilters/UKFCorrection.h</text>
</a>
</g>
</g>
<!-- Node10&#45;&gt;Node13 -->
<g id="edge12" class="edge">
<title>Node10&#45;&gt;Node13</title>
<path fill="none" stroke="midnightblue" d="M966.31,-170.5C958.27,-160.92 949.63,-150.62 942.07,-141.61"/>
<polygon fill="midnightblue" stroke="midnightblue" points="963.78,-172.93 972.89,-178.34 969.14,-168.43 963.78,-172.93"/>
</g>
<!-- Node10&#45;&gt;Node15 -->
<g id="edge14" class="edge">
<title>Node10&#45;&gt;Node15</title>
<path fill="none" stroke="midnightblue" d="M1066.78,-174.72C1093.93,-163.98 1124.51,-151.89 1150.73,-141.52"/>
<polygon fill="midnightblue" stroke="midnightblue" points="1065.35,-171.52 1057.34,-178.45 1067.92,-178.03 1065.35,-171.52"/>
</g>
<!-- Node17 -->
<g id="node17" class="node">
<title>Node17</title>
<g id="a_node17"><a xlink:href="sigma__point_8cpp.html" target="_top" xlink:title=" ">
<polygon fill="white" stroke="black" points="1014.5,-89.5 1014.5,-141.5 1121.5,-141.5 1121.5,-89.5 1014.5,-89.5"/>
<text text-anchor="start" x="1022.5" y="-129.5" font-family="Helvetica,sans-Serif" font-size="10.00">/home/xenvre/robot</text>
<text text-anchor="start" x="1022.5" y="-118.5" font-family="Helvetica,sans-Serif" font-size="10.00">&#45;code/bfl_robotology</text>
<text text-anchor="start" x="1022.5" y="-107.5" font-family="Helvetica,sans-Serif" font-size="10.00">/src/BayesFilters/src</text>
<text text-anchor="middle" x="1068" y="-96.5" font-family="Helvetica,sans-Serif" font-size="10.00">/sigma_point.cpp</text>
</a>
</g>
</g>
<!-- Node10&#45;&gt;Node17 -->
<g id="edge16" class="edge">
<title>Node10&#45;&gt;Node17</title>
<path fill="none" stroke="midnightblue" d="M1022.07,-170.5C1030.22,-160.92 1038.98,-150.62 1046.64,-141.61"/>
<polygon fill="midnightblue" stroke="midnightblue" points="1019.22,-168.45 1015.4,-178.34 1024.55,-172.99 1019.22,-168.45"/>
</g>
<!-- Node12 -->
<g id="node12" class="node">
<title>Node12</title>
<g id="a_node12"><a xlink:href="SUKFCorrection_8cpp.html" target="_top" xlink:title=" ">
<polygon fill="white" stroke="black" points="693,-0.5 693,-52.5 803,-52.5 803,-0.5 693,-0.5"/>
<text text-anchor="start" x="701" y="-40.5" font-family="Helvetica,sans-Serif" font-size="10.00">/home/xenvre/robot</text>
<text text-anchor="start" x="701" y="-29.5" font-family="Helvetica,sans-Serif" font-size="10.00">&#45;code/bfl_robotology</text>
<text text-anchor="start" x="701" y="-18.5" font-family="Helvetica,sans-Serif" font-size="10.00">/src/BayesFilters/src</text>
<text text-anchor="middle" x="748" y="-7.5" font-family="Helvetica,sans-Serif" font-size="10.00">/SUKFCorrection.cpp</text>
</a>
</g>
</g>
<!-- Node11&#45;&gt;Node12 -->
<g id="edge11" class="edge">
<title>Node11&#45;&gt;Node12</title>
<path fill="none" stroke="midnightblue" d="M748,-79.19C748,-70.28 748,-60.9 748,-52.61"/>
<polygon fill="midnightblue" stroke="midnightblue" points="744.5,-79.34 748,-89.34 751.5,-79.34 744.5,-79.34"/>
</g>
<!-- Node14 -->
<g id="node14" class="node">
<title>Node14</title>
<g id="a_node14"><a xlink:href="UKFCorrection_8cpp.html" target="_top" xlink:title=" ">
<polygon fill="white" stroke="black" points="867.5,-0.5 867.5,-52.5 974.5,-52.5 974.5,-0.5 867.5,-0.5"/>
<text text-anchor="start" x="875.5" y="-40.5" font-family="Helvetica,sans-Serif" font-size="10.00">/home/xenvre/robot</text>
<text text-anchor="start" x="875.5" y="-29.5" font-family="Helvetica,sans-Serif" font-size="10.00">&#45;code/bfl_robotology</text>
<text text-anchor="start" x="875.5" y="-18.5" font-family="Helvetica,sans-Serif" font-size="10.00">/src/BayesFilters/src</text>
<text text-anchor="middle" x="921" y="-7.5" font-family="Helvetica,sans-Serif" font-size="10.00">/UKFCorrection.cpp</text>
</a>
</g>
</g>
<!-- Node13&#45;&gt;Node14 -->
<g id="edge13" class="edge">
<title>Node13&#45;&gt;Node14</title>
<path fill="none" stroke="midnightblue" d="M921,-79.19C921,-70.28 921,-60.9 921,-52.61"/>
<polygon fill="midnightblue" stroke="midnightblue" points="917.5,-79.34 921,-89.34 924.5,-79.34 917.5,-79.34"/>
</g>
<!-- Node16 -->
<g id="node16" class="node">
<title>Node16</title>
<g id="a_node16"><a xlink:href="UKFPrediction_8cpp.html" target="_top" xlink:title=" ">
<polygon fill="white" stroke="black" points="1160.5,-0.5 1160.5,-52.5 1267.5,-52.5 1267.5,-0.5 1160.5,-0.5"/>
<text text-anchor="start" x="1168.5" y="-40.5" font-family="Helvetica,sans-Serif" font-size="10.00">/home/xenvre/robot</text>
<text text-anchor="start" x="1168.5" y="-29.5" font-family="Helvetica,sans-Serif" font-size="10.00">&#45;code/bfl_robotology</text>
<text text-anchor="start" x="1168.5" y="-18.5" font-family="Helvetica,sans-Serif" font-size="10.00">/src/BayesFilters/src</text>
<text text-anchor="middle" x="1214" y="-7.5" font-family="Helvetica,sans-Serif" font-size="10.00">/UKFPrediction.cpp</text>
</a>
</g>
</g>
<!-- Node15&#45;&gt;Node16 -->
<g id="edge15" class="edge">
<title>Node15&#45;&gt;Node16</title>
<path fill="none" stroke="midnightblue" d="M1214,-79.19C1214,-70.28 1214,-60.9 1214,-52.61"/>
<polygon fill="midnightblue" stroke="midnightblue" points="1210.5,-79.34 1214,-89.34 1217.5,-79.34 1210.5,-79.34"/>
</g>
</g>
</svg>
