<?xml version="1.0" encoding="UTF-8" standalone="no"?>
<!DOCTYPE svg PUBLIC "-//W3C//DTD SVG 1.1//EN"
 "http://www.w3.org/Graphics/SVG/1.1/DTD/svg11.dtd">
<!-- Generated by graphviz version 2.47.2 (0)
 -->
<!-- Title: /home/xenvre/robot&#45;code/bfl_robotology/src/BayesFilters/src/AdditiveStateModel.cpp Pages: 1 -->
<svg width="479pt" height="408pt"
 viewBox="0.00 0.00 478.50 408.00" xmlns="http://www.w3.org/2000/svg" xmlns:xlink="http://www.w3.org/1999/xlink">
<g id="graph0" class="graph" transform="scale(1 1) rotate(0) translate(4 404)">
<title>/home/xenvre/robot&#45;code/bfl_robotology/src/BayesFilters/src/AdditiveStateModel.cpp</title>
<polygon fill="white" stroke="transparent" points="-4,4 -4,-404 474.5,-404 474.5,4 -4,4"/>
<!-- Node1 -->
<g id="node1" class="node">
<title>Node1</title>
<g id="a_node1"><a xlink:title=" ">
<polygon fill="#bfbfbf" stroke="black" points="263.5,-347.5 263.5,-399.5 386.5,-399.5 386.5,-347.5 263.5,-347.5"/>
<text text-anchor="start" x="271.5" y="-387.5" font-family="Helvetica,sans-Serif" font-size="10.00">/home/xenvre/robot</text>
<text text-anchor="start" x="271.5" y="-376.5" font-family="Helvetica,sans-Serif" font-size="10.00">&#45;code/bfl_robotology</text>
<text text-anchor="start" x="271.5" y="-365.5" font-family="Helvetica,sans-Serif" font-size="10.00">/src/BayesFilters/src</text>
<text text-anchor="middle" x="325" y="-354.5" font-family="Helvetica,sans-Serif" font-size="10.00">/AdditiveStateModel.cpp</text>
</a>
</g>
</g>
<!-- Node2 -->
<g id="node2" class="node">
<title>Node2</title>
<g id="a_node2"><a xlink:href="AdditiveStateModel_8h.html" target="_top" xlink:title=" ">
<polygon fill="white" stroke="black" points="258.5,-280.5 258.5,-310.5 391.5,-310.5 391.5,-280.5 258.5,-280.5"/>
<text text-anchor="start" x="266.5" y="-298.5" font-family="Helvetica,sans-Serif" font-size="10.00">BayesFilters/AdditiveState</text>
<text text-anchor="middle" x="325" y="-287.5" font-family="Helvetica,sans-Serif" font-size="10.00">Model.h</text>
</a>
</g>
</g>
<!-- Node1&#45;&gt;Node2 -->
<g id="edge1" class="edge">
<title>Node1&#45;&gt;Node2</title>
<path fill="none" stroke="midnightblue" d="M325,-347.19C325,-338.79 325,-329.44 325,-321.09"/>
<polygon fill="midnightblue" stroke="midnightblue" points="328.5,-320.85 325,-310.85 321.5,-320.85 328.5,-320.85"/>
</g>
<!-- Node3 -->
<g id="node3" class="node">
<title>Node3</title>
<g id="a_node3"><a xlink:href="StateModel_8h.html" target="_top" xlink:title=" ">
<polygon fill="white" stroke="black" points="259,-224.5 259,-243.5 391,-243.5 391,-224.5 259,-224.5"/>
<text text-anchor="middle" x="325" y="-231.5" font-family="Helvetica,sans-Serif" font-size="10.00">BayesFilters/StateModel.h</text>
</a>
</g>
</g>
<!-- Node2&#45;&gt;Node3 -->
<g id="edge2" class="edge">
<title>Node2&#45;&gt;Node3</title>
<path fill="none" stroke="midnightblue" d="M325,-280.4C325,-272.47 325,-262.46 325,-253.86"/>
<polygon fill="midnightblue" stroke="midnightblue" points="328.5,-253.66 325,-243.66 321.5,-253.66 328.5,-253.66"/>
</g>
<!-- Node4 -->
<g id="node4" class="node">
<title>Node4</title>
<g id="a_node4"><a xlink:href="ExogenousModel_8h.html" target="_top" xlink:title=" ">
<polygon fill="white" stroke="black" points="193,-168.5 193,-187.5 351,-187.5 351,-168.5 193,-168.5"/>
<text text-anchor="middle" x="272" y="-175.5" font-family="Helvetica,sans-Serif" font-size="10.00">BayesFilters/ExogenousModel.h</text>
</a>
</g>
</g>
<!-- Node3&#45;&gt;Node4 -->
<g id="edge3" class="edge">
<title>Node3&#45;&gt;Node4</title>
<path fill="none" stroke="midnightblue" d="M316.25,-224.08C308.53,-216.22 297.1,-204.57 287.78,-195.08"/>
<polygon fill="midnightblue" stroke="midnightblue" points="290.09,-192.44 280.59,-187.75 285.1,-197.34 290.09,-192.44"/>
</g>
<!-- Node7 -->
<g id="node7" class="node">
<title>Node7</title>
<g id="a_node7"><a xlink:href="Skippable_8h.html" target="_top" xlink:title=" ">
<polygon fill="white" stroke="black" points="345.5,-112.5 345.5,-131.5 470.5,-131.5 470.5,-112.5 345.5,-112.5"/>
<text text-anchor="middle" x="408" y="-119.5" font-family="Helvetica,sans-Serif" font-size="10.00">BayesFilters/Skippable.h</text>
</a>
</g>
</g>
<!-- Node3&#45;&gt;Node7 -->
<g id="edge9" class="edge">
<title>Node3&#45;&gt;Node7</title>
<path fill="none" stroke="midnightblue" d="M331.77,-224.42C338.87,-215.4 350.32,-200.78 360,-188 372.25,-171.83 385.98,-153.19 395.61,-140.02"/>
<polygon fill="midnightblue" stroke="midnightblue" points="398.48,-142.02 401.55,-131.88 392.83,-137.9 398.48,-142.02"/>
</g>
<!-- Node10 -->
<g id="node10" class="node">
<title>Node10</title>
<g id="a_node10"><a xlink:href="StateProcess_8h.html" target="_top" xlink:title=" ">
<polygon fill="white" stroke="black" points="0,-112.5 0,-131.5 142,-131.5 142,-112.5 0,-112.5"/>
<text text-anchor="middle" x="71" y="-119.5" font-family="Helvetica,sans-Serif" font-size="10.00">BayesFilters/StateProcess.h</text>
</a>
</g>
</g>
<!-- Node3&#45;&gt;Node10 -->
<g id="edge10" class="edge">
<title>Node3&#45;&gt;Node10</title>
<path fill="none" stroke="midnightblue" d="M291.5,-224.48C262.46,-216.59 219.62,-203.71 184,-188 150.66,-173.29 114.56,-151.38 92.36,-137.13"/>
<polygon fill="midnightblue" stroke="midnightblue" points="94.04,-134.05 83.75,-131.54 90.23,-139.92 94.04,-134.05"/>
</g>
<!-- Node11 -->
<g id="node11" class="node">
<title>Node11</title>
<g id="a_node11"><a xlink:title=" ">
<polygon fill="white" stroke="#bfbfbf" points="407,-168.5 407,-187.5 459,-187.5 459,-168.5 407,-168.5"/>
<text text-anchor="middle" x="433" y="-175.5" font-family="Helvetica,sans-Serif" font-size="10.00">memory</text>
</a>
</g>
</g>
<!-- Node3&#45;&gt;Node11 -->
<g id="edge12" class="edge">
<title>Node3&#45;&gt;Node11</title>
<path fill="none" stroke="midnightblue" d="M342.35,-224.32C359.67,-215.66 386.52,-202.24 406.5,-192.25"/>
<polygon fill="midnightblue" stroke="midnightblue" points="408.31,-195.26 415.69,-187.65 405.18,-189 408.31,-195.26"/>
</g>
<!-- Node5 -->
<g id="node5" class="node">
<title>Node5</title>
<g id="a_node5"><a xlink:href="ExogenousProcess_8h.html" target="_top" xlink:title=" ">
<polygon fill="white" stroke="black" points="160.5,-112.5 160.5,-131.5 327.5,-131.5 327.5,-112.5 160.5,-112.5"/>
<text text-anchor="middle" x="244" y="-119.5" font-family="Helvetica,sans-Serif" font-size="10.00">BayesFilters/ExogenousProcess.h</text>
</a>
</g>
</g>
<!-- Node4&#45;&gt;Node5 -->
<g id="edge4" class="edge">
<title>Node4&#45;&gt;Node5</title>
<path fill="none" stroke="midnightblue" d="M267.38,-168.08C263.54,-160.69 257.98,-149.95 253.24,-140.81"/>
<polygon fill="midnightblue" stroke="midnightblue" points="256.25,-139.02 248.54,-131.75 250.03,-142.24 256.25,-139.02"/>
</g>
<!-- Node4&#45;&gt;Node7 -->
<g id="edge6" class="edge">
<title>Node4&#45;&gt;Node7</title>
<path fill="none" stroke="midnightblue" d="M293.55,-168.44C316.03,-159.52 351.49,-145.44 376.98,-135.32"/>
<polygon fill="midnightblue" stroke="midnightblue" points="378.55,-138.46 386.55,-131.52 375.97,-131.95 378.55,-138.46"/>
</g>
<!-- Node6 -->
<g id="node6" class="node">
<title>Node6</title>
<g id="a_node6"><a xlink:title=" ">
<polygon fill="white" stroke="#bfbfbf" points="121.5,-56.5 121.5,-75.5 194.5,-75.5 194.5,-56.5 121.5,-56.5"/>
<text text-anchor="middle" x="158" y="-63.5" font-family="Helvetica,sans-Serif" font-size="10.00">Eigen/Dense</text>
</a>
</g>
</g>
<!-- Node5&#45;&gt;Node6 -->
<g id="edge5" class="edge">
<title>Node5&#45;&gt;Node6</title>
<path fill="none" stroke="midnightblue" d="M230.18,-112.32C216.77,-103.9 196.18,-90.97 180.41,-81.07"/>
<polygon fill="midnightblue" stroke="midnightblue" points="182.11,-78.01 171.78,-75.65 178.39,-83.94 182.11,-78.01"/>
</g>
<!-- Node8 -->
<g id="node8" class="node">
<title>Node8</title>
<g id="a_node8"><a xlink:href="Skipper_8h.html" target="_top" xlink:title=" ">
<polygon fill="white" stroke="black" points="350.5,-56.5 350.5,-75.5 465.5,-75.5 465.5,-56.5 350.5,-56.5"/>
<text text-anchor="middle" x="408" y="-63.5" font-family="Helvetica,sans-Serif" font-size="10.00">BayesFilters/Skipper.h</text>
</a>
</g>
</g>
<!-- Node7&#45;&gt;Node8 -->
<g id="edge7" class="edge">
<title>Node7&#45;&gt;Node8</title>
<path fill="none" stroke="midnightblue" d="M408,-112.08C408,-105.01 408,-94.86 408,-85.99"/>
<polygon fill="midnightblue" stroke="midnightblue" points="411.5,-85.75 408,-75.75 404.5,-85.75 411.5,-85.75"/>
</g>
<!-- Node9 -->
<g id="node9" class="node">
<title>Node9</title>
<g id="a_node9"><a xlink:title=" ">
<polygon fill="white" stroke="#bfbfbf" points="387.5,-0.5 387.5,-19.5 428.5,-19.5 428.5,-0.5 387.5,-0.5"/>
<text text-anchor="middle" x="408" y="-7.5" font-family="Helvetica,sans-Serif" font-size="10.00">string</text>
</a>
</g>
</g>
<!-- Node8&#45;&gt;Node9 -->
<g id="edge8" class="edge">
<title>Node8&#45;&gt;Node9</title>
<path fill="none" stroke="midnightblue" d="M408,-56.08C408,-49.01 408,-38.86 408,-29.99"/>
<polygon fill="midnightblue" stroke="midnightblue" points="411.5,-29.75 408,-19.75 404.5,-29.75 411.5,-29.75"/>
</g>
<!-- Node10&#45;&gt;Node6 -->
<g id="edge11" class="edge">
<title>Node10&#45;&gt;Node6</title>
<path fill="none" stroke="midnightblue" d="M84.98,-112.32C98.55,-103.9 119.38,-90.97 135.32,-81.07"/>
<polygon fill="midnightblue" stroke="midnightblue" points="137.41,-83.9 144.06,-75.65 133.71,-77.95 137.41,-83.9"/>
</g>
</g>
</svg>
