<?xml version="1.0" encoding="UTF-8" standalone="no"?>
<!DOCTYPE svg PUBLIC "-//W3C//DTD SVG 1.1//EN"
 "http://www.w3.org/Graphics/SVG/1.1/DTD/svg11.dtd">
<!-- Generated by graphviz version 2.43.0 (0)
 -->
<!-- Title: /home/user/bayes&#45;filters&#45;lib/src/BayesFilters/include/BayesFilters/AdditiveMeasurementModel.h Pages: 1 -->
<svg width="1267pt" height="440pt"
 viewBox="0.00 0.00 1267.00 440.00" xmlns="http://www.w3.org/2000/svg" xmlns:xlink="http://www.w3.org/1999/xlink">
<g id="graph0" class="graph" transform="scale(1 1) rotate(0) translate(4 436)">
<title>/home/user/bayes&#45;filters&#45;lib/src/BayesFilters/include/BayesFilters/AdditiveMeasurementModel.h</title>
<polygon fill="white" stroke="transparent" points="-4,4 -4,-436 1263,-436 1263,4 -4,4"/>
<!-- Node1 -->
<g id="node1" class="node">
<title>Node1</title>
<g id="a_node1"><a xlink:title=" ">
<polygon fill="#bfbfbf" stroke="black" points="626.5,-390.5 626.5,-431.5 856.5,-431.5 856.5,-390.5 626.5,-390.5"/>
<text text-anchor="start" x="634.5" y="-419.5" font-family="Helvetica,sans-Serif" font-size="10.00">/home/user/bayes&#45;filters</text>
<text text-anchor="start" x="634.5" y="-408.5" font-family="Helvetica,sans-Serif" font-size="10.00">&#45;lib/src/BayesFilters/include</text>
<text text-anchor="middle" x="741.5" y="-397.5" font-family="Helvetica,sans-Serif" font-size="10.00">/BayesFilters/AdditiveMeasurementModel.h</text>
</a>
</g>
</g>
<!-- Node2 -->
<g id="node2" class="node">
<title>Node2</title>
<g id="a_node2"><a xlink:href="LinearMeasurementModel_8h.html" target="_top" xlink:title=" ">
<polygon fill="white" stroke="black" points="267,-312.5 267,-353.5 486,-353.5 486,-312.5 267,-312.5"/>
<text text-anchor="start" x="275" y="-341.5" font-family="Helvetica,sans-Serif" font-size="10.00">/home/user/bayes&#45;filters</text>
<text text-anchor="start" x="275" y="-330.5" font-family="Helvetica,sans-Serif" font-size="10.00">&#45;lib/src/BayesFilters/include</text>
<text text-anchor="middle" x="376.5" y="-319.5" font-family="Helvetica,sans-Serif" font-size="10.00">/BayesFilters/LinearMeasurementModel.h</text>
</a>
</g>
</g>
<!-- Node1&#45;&gt;Node2 -->
<g id="edge1" class="edge">
<title>Node1&#45;&gt;Node2</title>
<path fill="none" stroke="midnightblue" d="M637.46,-388.34C584.78,-377.37 521.32,-364.16 470.18,-353.51"/>
<polygon fill="midnightblue" stroke="midnightblue" points="637,-391.82 647.5,-390.43 638.43,-384.96 637,-391.82"/>
</g>
<!-- Node12 -->
<g id="node12" class="node">
<title>Node12</title>
<g id="a_node12"><a xlink:href="sigma__point_8h.html" target="_top" xlink:title=" ">
<polygon fill="white" stroke="black" points="769.5,-312.5 769.5,-353.5 921.5,-353.5 921.5,-312.5 769.5,-312.5"/>
<text text-anchor="start" x="777.5" y="-341.5" font-family="Helvetica,sans-Serif" font-size="10.00">/home/user/bayes&#45;filters</text>
<text text-anchor="start" x="777.5" y="-330.5" font-family="Helvetica,sans-Serif" font-size="10.00">&#45;lib/src/BayesFilters/include</text>
<text text-anchor="middle" x="845.5" y="-319.5" font-family="Helvetica,sans-Serif" font-size="10.00">/BayesFilters/sigma_point.h</text>
</a>
</g>
</g>
<!-- Node1&#45;&gt;Node12 -->
<g id="edge11" class="edge">
<title>Node1&#45;&gt;Node12</title>
<path fill="none" stroke="midnightblue" d="M776.6,-384.35C790.39,-374.27 805.96,-362.89 818.81,-353.51"/>
<polygon fill="midnightblue" stroke="midnightblue" points="774.29,-381.7 768.28,-390.43 778.42,-387.35 774.29,-381.7"/>
</g>
<!-- Node13 -->
<g id="node13" class="node">
<title>Node13</title>
<g id="a_node13"><a xlink:href="SUKFCorrection_8h.html" target="_top" xlink:title=" ">
<polygon fill="white" stroke="black" points="578.5,-234.5 578.5,-275.5 746.5,-275.5 746.5,-234.5 578.5,-234.5"/>
<text text-anchor="start" x="586.5" y="-263.5" font-family="Helvetica,sans-Serif" font-size="10.00">/home/user/bayes&#45;filters</text>
<text text-anchor="start" x="586.5" y="-252.5" font-family="Helvetica,sans-Serif" font-size="10.00">&#45;lib/src/BayesFilters/include</text>
<text text-anchor="middle" x="662.5" y="-241.5" font-family="Helvetica,sans-Serif" font-size="10.00">/BayesFilters/SUKFCorrection.h</text>
</a>
</g>
</g>
<!-- Node1&#45;&gt;Node13 -->
<g id="edge19" class="edge">
<title>Node1&#45;&gt;Node13</title>
<path fill="none" stroke="midnightblue" d="M726.91,-381.56C711.16,-350.85 686.46,-302.71 672.67,-275.83"/>
<polygon fill="midnightblue" stroke="midnightblue" points="723.82,-383.2 731.49,-390.5 730.04,-380 723.82,-383.2"/>
</g>
<!-- Node15 -->
<g id="node15" class="node">
<title>Node15</title>
<g id="a_node15"><a xlink:href="UKFCorrection_8h.html" target="_top" xlink:title=" ">
<polygon fill="white" stroke="black" points="764.5,-234.5 764.5,-275.5 926.5,-275.5 926.5,-234.5 764.5,-234.5"/>
<text text-anchor="start" x="772.5" y="-263.5" font-family="Helvetica,sans-Serif" font-size="10.00">/home/user/bayes&#45;filters</text>
<text text-anchor="start" x="772.5" y="-252.5" font-family="Helvetica,sans-Serif" font-size="10.00">&#45;lib/src/BayesFilters/include</text>
<text text-anchor="middle" x="845.5" y="-241.5" font-family="Helvetica,sans-Serif" font-size="10.00">/BayesFilters/UKFCorrection.h</text>
</a>
</g>
</g>
<!-- Node1&#45;&gt;Node15 -->
<g id="edge20" class="edge">
<title>Node1&#45;&gt;Node15</title>
<path fill="none" stroke="midnightblue" d="M741.36,-380.14C742.61,-359.45 747.04,-332.11 760.5,-312 770.72,-296.73 786.67,-284.62 802,-275.63"/>
<polygon fill="midnightblue" stroke="midnightblue" points="737.86,-380.15 740.97,-390.28 744.86,-380.42 737.86,-380.15"/>
</g>
<!-- Node20 -->
<g id="node20" class="node">
<title>Node20</title>
<g id="a_node20"><a xlink:href="AdditiveMeasurementModel_8cpp.html" target="_top" xlink:title=" ">
<polygon fill="white" stroke="black" points="939.5,-312.5 939.5,-353.5 1117.5,-353.5 1117.5,-312.5 939.5,-312.5"/>
<text text-anchor="start" x="947.5" y="-341.5" font-family="Helvetica,sans-Serif" font-size="10.00">/home/user/bayes&#45;filters</text>
<text text-anchor="start" x="947.5" y="-330.5" font-family="Helvetica,sans-Serif" font-size="10.00">&#45;lib/src/BayesFilters/src</text>
<text text-anchor="middle" x="1028.5" y="-319.5" font-family="Helvetica,sans-Serif" font-size="10.00">/AdditiveMeasurementModel.cpp</text>
</a>
</g>
</g>
<!-- Node1&#45;&gt;Node20 -->
<g id="edge21" class="edge">
<title>Node1&#45;&gt;Node20</title>
<path fill="none" stroke="midnightblue" d="M825.12,-387.86C866.18,-376.98 915.21,-364 954.84,-353.51"/>
<polygon fill="midnightblue" stroke="midnightblue" points="824.18,-384.48 815.41,-390.43 825.97,-391.25 824.18,-384.48"/>
</g>
<!-- Node3 -->
<g id="node3" class="node">
<title>Node3</title>
<g id="a_node3"><a xlink:href="KFCorrection_8h.html" target="_top" xlink:title=" ">
<polygon fill="white" stroke="black" points="0,-234.5 0,-275.5 155,-275.5 155,-234.5 0,-234.5"/>
<text text-anchor="start" x="8" y="-263.5" font-family="Helvetica,sans-Serif" font-size="10.00">/home/user/bayes&#45;filters</text>
<text text-anchor="start" x="8" y="-252.5" font-family="Helvetica,sans-Serif" font-size="10.00">&#45;lib/src/BayesFilters/include</text>
<text text-anchor="middle" x="77.5" y="-241.5" font-family="Helvetica,sans-Serif" font-size="10.00">/BayesFilters/KFCorrection.h</text>
</a>
</g>
</g>
<!-- Node2&#45;&gt;Node3 -->
<g id="edge2" class="edge">
<title>Node2&#45;&gt;Node3</title>
<path fill="none" stroke="midnightblue" d="M289.65,-309.92C246.82,-299.04 195.61,-286.02 154.24,-275.51"/>
<polygon fill="midnightblue" stroke="midnightblue" points="288.95,-313.36 299.5,-312.43 290.67,-306.57 288.95,-313.36"/>
</g>
<!-- Node5 -->
<g id="node5" class="node">
<title>Node5</title>
<g id="a_node5"><a xlink:href="LTIMeasurementModel_8h.html" target="_top" xlink:title=" ">
<polygon fill="white" stroke="black" points="173,-234.5 173,-275.5 376,-275.5 376,-234.5 173,-234.5"/>
<text text-anchor="start" x="181" y="-263.5" font-family="Helvetica,sans-Serif" font-size="10.00">/home/user/bayes&#45;filters</text>
<text text-anchor="start" x="181" y="-252.5" font-family="Helvetica,sans-Serif" font-size="10.00">&#45;lib/src/BayesFilters/include</text>
<text text-anchor="middle" x="274.5" y="-241.5" font-family="Helvetica,sans-Serif" font-size="10.00">/BayesFilters/LTIMeasurementModel.h</text>
</a>
</g>
</g>
<!-- Node2&#45;&gt;Node5 -->
<g id="edge4" class="edge">
<title>Node2&#45;&gt;Node5</title>
<path fill="none" stroke="midnightblue" d="M342.08,-306.35C328.55,-296.27 313.28,-284.89 300.68,-275.51"/>
<polygon fill="midnightblue" stroke="midnightblue" points="340.12,-309.26 350.23,-312.43 344.3,-303.65 340.12,-309.26"/>
</g>
<!-- Node11 -->
<g id="node11" class="node">
<title>Node11</title>
<g id="a_node11"><a xlink:href="LinearMeasurementModel_8cpp.html" target="_top" xlink:title=" ">
<polygon fill="white" stroke="black" points="394,-234.5 394,-275.5 561,-275.5 561,-234.5 394,-234.5"/>
<text text-anchor="start" x="402" y="-263.5" font-family="Helvetica,sans-Serif" font-size="10.00">/home/user/bayes&#45;filters</text>
<text text-anchor="start" x="402" y="-252.5" font-family="Helvetica,sans-Serif" font-size="10.00">&#45;lib/src/BayesFilters/src</text>
<text text-anchor="middle" x="477.5" y="-241.5" font-family="Helvetica,sans-Serif" font-size="10.00">/LinearMeasurementModel.cpp</text>
</a>
</g>
</g>
<!-- Node2&#45;&gt;Node11 -->
<g id="edge10" class="edge">
<title>Node2&#45;&gt;Node11</title>
<path fill="none" stroke="midnightblue" d="M410.59,-306.35C423.98,-296.27 439.1,-284.89 451.58,-275.51"/>
<polygon fill="midnightblue" stroke="midnightblue" points="408.4,-303.62 402.51,-312.43 412.6,-309.21 408.4,-303.62"/>
</g>
<!-- Node4 -->
<g id="node4" class="node">
<title>Node4</title>
<g id="a_node4"><a xlink:href="KFCorrection_8cpp.html" target="_top" xlink:title=" ">
<polygon fill="white" stroke="black" points="10,-156.5 10,-197.5 145,-197.5 145,-156.5 10,-156.5"/>
<text text-anchor="start" x="18" y="-185.5" font-family="Helvetica,sans-Serif" font-size="10.00">/home/user/bayes&#45;filters</text>
<text text-anchor="start" x="18" y="-174.5" font-family="Helvetica,sans-Serif" font-size="10.00">&#45;lib/src/BayesFilters/src</text>
<text text-anchor="middle" x="77.5" y="-163.5" font-family="Helvetica,sans-Serif" font-size="10.00">/KFCorrection.cpp</text>
</a>
</g>
</g>
<!-- Node3&#45;&gt;Node4 -->
<g id="edge3" class="edge">
<title>Node3&#45;&gt;Node4</title>
<path fill="none" stroke="midnightblue" d="M77.5,-224.3C77.5,-215.3 77.5,-205.65 77.5,-197.51"/>
<polygon fill="midnightblue" stroke="midnightblue" points="74,-224.43 77.5,-234.43 81,-224.43 74,-224.43"/>
</g>
<!-- Node6 -->
<g id="node6" class="node">
<title>Node6</title>
<g id="a_node6"><a xlink:href="LinearModel_8h.html" target="_top" xlink:title=" ">
<polygon fill="white" stroke="black" points="350.5,-156.5 350.5,-197.5 502.5,-197.5 502.5,-156.5 350.5,-156.5"/>
<text text-anchor="start" x="358.5" y="-185.5" font-family="Helvetica,sans-Serif" font-size="10.00">/home/user/bayes&#45;filters</text>
<text text-anchor="start" x="358.5" y="-174.5" font-family="Helvetica,sans-Serif" font-size="10.00">&#45;lib/src/BayesFilters/include</text>
<text text-anchor="middle" x="426.5" y="-163.5" font-family="Helvetica,sans-Serif" font-size="10.00">/BayesFilters/LinearModel.h</text>
</a>
</g>
</g>
<!-- Node5&#45;&gt;Node6 -->
<g id="edge5" class="edge">
<title>Node5&#45;&gt;Node6</title>
<path fill="none" stroke="midnightblue" d="M322.68,-229.91C343.58,-219.46 367.74,-207.38 387.49,-197.51"/>
<polygon fill="midnightblue" stroke="midnightblue" points="321.02,-226.83 313.64,-234.43 324.15,-233.09 321.02,-226.83"/>
</g>
<!-- Node10 -->
<g id="node10" class="node">
<title>Node10</title>
<g id="a_node10"><a xlink:href="LTIMeasurementModel_8cpp.html" target="_top" xlink:title=" ">
<polygon fill="white" stroke="black" points="181,-156.5 181,-197.5 332,-197.5 332,-156.5 181,-156.5"/>
<text text-anchor="start" x="189" y="-185.5" font-family="Helvetica,sans-Serif" font-size="10.00">/home/user/bayes&#45;filters</text>
<text text-anchor="start" x="189" y="-174.5" font-family="Helvetica,sans-Serif" font-size="10.00">&#45;lib/src/BayesFilters/src</text>
<text text-anchor="middle" x="256.5" y="-163.5" font-family="Helvetica,sans-Serif" font-size="10.00">/LTIMeasurementModel.cpp</text>
</a>
</g>
</g>
<!-- Node5&#45;&gt;Node10 -->
<g id="edge9" class="edge">
<title>Node5&#45;&gt;Node10</title>
<path fill="none" stroke="midnightblue" d="M267.53,-224.59C265.38,-215.51 263.07,-205.74 261.12,-197.51"/>
<polygon fill="midnightblue" stroke="midnightblue" points="264.15,-225.5 269.86,-234.43 270.97,-223.89 264.15,-225.5"/>
</g>
<!-- Node7 -->
<g id="node7" class="node">
<title>Node7</title>
<g id="a_node7"><a xlink:href="SimulatedLinearSensor_8h.html" target="_top" xlink:title=" ">
<polygon fill="white" stroke="black" points="231,-78.5 231,-119.5 434,-119.5 434,-78.5 231,-78.5"/>
<text text-anchor="start" x="239" y="-107.5" font-family="Helvetica,sans-Serif" font-size="10.00">/home/user/bayes&#45;filters</text>
<text text-anchor="start" x="239" y="-96.5" font-family="Helvetica,sans-Serif" font-size="10.00">&#45;lib/src/BayesFilters/include</text>
<text text-anchor="middle" x="332.5" y="-85.5" font-family="Helvetica,sans-Serif" font-size="10.00">/BayesFilters/SimulatedLinearSensor.h</text>
</a>
</g>
</g>
<!-- Node6&#45;&gt;Node7 -->
<g id="edge6" class="edge">
<title>Node6&#45;&gt;Node7</title>
<path fill="none" stroke="midnightblue" d="M394.42,-150.06C382.04,-140.06 368.13,-128.8 356.63,-119.51"/>
<polygon fill="midnightblue" stroke="midnightblue" points="392.32,-152.86 402.29,-156.43 396.72,-147.42 392.32,-152.86"/>
</g>
<!-- Node9 -->
<g id="node9" class="node">
<title>Node9</title>
<g id="a_node9"><a xlink:href="LinearModel_8cpp.html" target="_top" xlink:title=" ">
<polygon fill="white" stroke="black" points="452,-78.5 452,-119.5 587,-119.5 587,-78.5 452,-78.5"/>
<text text-anchor="start" x="460" y="-107.5" font-family="Helvetica,sans-Serif" font-size="10.00">/home/user/bayes&#45;filters</text>
<text text-anchor="start" x="460" y="-96.5" font-family="Helvetica,sans-Serif" font-size="10.00">&#45;lib/src/BayesFilters/src</text>
<text text-anchor="middle" x="519.5" y="-85.5" font-family="Helvetica,sans-Serif" font-size="10.00">/LinearModel.cpp</text>
</a>
</g>
</g>
<!-- Node6&#45;&gt;Node9 -->
<g id="edge8" class="edge">
<title>Node6&#45;&gt;Node9</title>
<path fill="none" stroke="midnightblue" d="M458.24,-150.06C470.48,-140.06 484.25,-128.8 495.63,-119.51"/>
<polygon fill="midnightblue" stroke="midnightblue" points="455.98,-147.39 450.45,-156.43 460.41,-152.81 455.98,-147.39"/>
</g>
<!-- Node8 -->
<g id="node8" class="node">
<title>Node8</title>
<g id="a_node8"><a xlink:href="SimulatedLinearSensor_8cpp.html" target="_top" xlink:title=" ">
<polygon fill="white" stroke="black" points="256.5,-0.5 256.5,-41.5 408.5,-41.5 408.5,-0.5 256.5,-0.5"/>
<text text-anchor="start" x="264.5" y="-29.5" font-family="Helvetica,sans-Serif" font-size="10.00">/home/user/bayes&#45;filters</text>
<text text-anchor="start" x="264.5" y="-18.5" font-family="Helvetica,sans-Serif" font-size="10.00">&#45;lib/src/BayesFilters/src</text>
<text text-anchor="middle" x="332.5" y="-7.5" font-family="Helvetica,sans-Serif" font-size="10.00">/SimulatedLinearSensor.cpp</text>
</a>
</g>
</g>
<!-- Node7&#45;&gt;Node8 -->
<g id="edge7" class="edge">
<title>Node7&#45;&gt;Node8</title>
<path fill="none" stroke="midnightblue" d="M332.5,-68.3C332.5,-59.3 332.5,-49.65 332.5,-41.51"/>
<polygon fill="midnightblue" stroke="midnightblue" points="329,-68.43 332.5,-78.43 336,-68.43 329,-68.43"/>
</g>
<!-- Node12&#45;&gt;Node13 -->
<g id="edge12" class="edge">
<title>Node12&#45;&gt;Node13</title>
<path fill="none" stroke="midnightblue" d="M788.84,-308.47C763.37,-297.89 733.67,-285.56 709.47,-275.51"/>
<polygon fill="midnightblue" stroke="midnightblue" points="787.8,-311.82 798.37,-312.43 790.48,-305.36 787.8,-311.82"/>
</g>
<!-- Node12&#45;&gt;Node15 -->
<g id="edge14" class="edge">
<title>Node12&#45;&gt;Node15</title>
<path fill="none" stroke="midnightblue" d="M845.5,-302.3C845.5,-293.3 845.5,-283.65 845.5,-275.51"/>
<polygon fill="midnightblue" stroke="midnightblue" points="842,-302.43 845.5,-312.43 849,-302.43 842,-302.43"/>
</g>
<!-- Node17 -->
<g id="node17" class="node">
<title>Node17</title>
<g id="a_node17"><a xlink:href="UKFPrediction_8h.html" target="_top" xlink:title=" ">
<polygon fill="white" stroke="black" points="1098,-234.5 1098,-275.5 1259,-275.5 1259,-234.5 1098,-234.5"/>
<text text-anchor="start" x="1106" y="-263.5" font-family="Helvetica,sans-Serif" font-size="10.00">/home/user/bayes&#45;filters</text>
<text text-anchor="start" x="1106" y="-252.5" font-family="Helvetica,sans-Serif" font-size="10.00">&#45;lib/src/BayesFilters/include</text>
<text text-anchor="middle" x="1178.5" y="-241.5" font-family="Helvetica,sans-Serif" font-size="10.00">/BayesFilters/UKFPrediction.h</text>
</a>
</g>
</g>
<!-- Node12&#45;&gt;Node17 -->
<g id="edge16" class="edge">
<title>Node12&#45;&gt;Node17</title>
<path fill="none" stroke="midnightblue" d="M931.95,-311.68C973.71,-302.1 1042.81,-286.51 1097.88,-274.12"/>
<polygon fill="midnightblue" stroke="midnightblue" points="930.91,-308.33 921.95,-313.98 932.48,-315.15 930.91,-308.33"/>
</g>
<!-- Node19 -->
<g id="node19" class="node">
<title>Node19</title>
<g id="a_node19"><a xlink:href="sigma__point_8cpp.html" target="_top" xlink:title=" ">
<polygon fill="white" stroke="black" points="945,-234.5 945,-275.5 1080,-275.5 1080,-234.5 945,-234.5"/>
<text text-anchor="start" x="953" y="-263.5" font-family="Helvetica,sans-Serif" font-size="10.00">/home/user/bayes&#45;filters</text>
<text text-anchor="start" x="953" y="-252.5" font-family="Helvetica,sans-Serif" font-size="10.00">&#45;lib/src/BayesFilters/src</text>
<text text-anchor="middle" x="1012.5" y="-241.5" font-family="Helvetica,sans-Serif" font-size="10.00">/sigma_point.cpp</text>
</a>
</g>
</g>
<!-- Node12&#45;&gt;Node19 -->
<g id="edge18" class="edge">
<title>Node12&#45;&gt;Node19</title>
<path fill="none" stroke="midnightblue" d="M897.82,-308.19C920.92,-297.67 947.75,-285.47 969.64,-275.51"/>
<polygon fill="midnightblue" stroke="midnightblue" points="896.16,-305.1 888.51,-312.43 899.06,-311.47 896.16,-305.1"/>
</g>
<!-- Node14 -->
<g id="node14" class="node">
<title>Node14</title>
<g id="a_node14"><a xlink:href="SUKFCorrection_8cpp.html" target="_top" xlink:title=" ">
<polygon fill="white" stroke="black" points="595,-156.5 595,-197.5 730,-197.5 730,-156.5 595,-156.5"/>
<text text-anchor="start" x="603" y="-185.5" font-family="Helvetica,sans-Serif" font-size="10.00">/home/user/bayes&#45;filters</text>
<text text-anchor="start" x="603" y="-174.5" font-family="Helvetica,sans-Serif" font-size="10.00">&#45;lib/src/BayesFilters/src</text>
<text text-anchor="middle" x="662.5" y="-163.5" font-family="Helvetica,sans-Serif" font-size="10.00">/SUKFCorrection.cpp</text>
</a>
</g>
</g>
<!-- Node13&#45;&gt;Node14 -->
<g id="edge13" class="edge">
<title>Node13&#45;&gt;Node14</title>
<path fill="none" stroke="midnightblue" d="M662.5,-224.3C662.5,-215.3 662.5,-205.65 662.5,-197.51"/>
<polygon fill="midnightblue" stroke="midnightblue" points="659,-224.43 662.5,-234.43 666,-224.43 659,-224.43"/>
</g>
<!-- Node16 -->
<g id="node16" class="node">
<title>Node16</title>
<g id="a_node16"><a xlink:href="UKFCorrection_8cpp.html" target="_top" xlink:title=" ">
<polygon fill="white" stroke="black" points="778,-156.5 778,-197.5 913,-197.5 913,-156.5 778,-156.5"/>
<text text-anchor="start" x="786" y="-185.5" font-family="Helvetica,sans-Serif" font-size="10.00">/home/user/bayes&#45;filters</text>
<text text-anchor="start" x="786" y="-174.5" font-family="Helvetica,sans-Serif" font-size="10.00">&#45;lib/src/BayesFilters/src</text>
<text text-anchor="middle" x="845.5" y="-163.5" font-family="Helvetica,sans-Serif" font-size="10.00">/UKFCorrection.cpp</text>
</a>
</g>
</g>
<!-- Node15&#45;&gt;Node16 -->
<g id="edge15" class="edge">
<title>Node15&#45;&gt;Node16</title>
<path fill="none" stroke="midnightblue" d="M845.5,-224.3C845.5,-215.3 845.5,-205.65 845.5,-197.51"/>
<polygon fill="midnightblue" stroke="midnightblue" points="842,-224.43 845.5,-234.43 849,-224.43 842,-224.43"/>
</g>
<!-- Node18 -->
<g id="node18" class="node">
<title>Node18</title>
<g id="a_node18"><a xlink:href="UKFPrediction_8cpp.html" target="_top" xlink:title=" ">
<polygon fill="white" stroke="black" points="1111,-156.5 1111,-197.5 1246,-197.5 1246,-156.5 1111,-156.5"/>
<text text-anchor="start" x="1119" y="-185.5" font-family="Helvetica,sans-Serif" font-size="10.00">/home/user/bayes&#45;filters</text>
<text text-anchor="start" x="1119" y="-174.5" font-family="Helvetica,sans-Serif" font-size="10.00">&#45;lib/src/BayesFilters/src</text>
<text text-anchor="middle" x="1178.5" y="-163.5" font-family="Helvetica,sans-Serif" font-size="10.00">/UKFPrediction.cpp</text>
</a>
</g>
</g>
<!-- Node17&#45;&gt;Node18 -->
<g id="edge17" class="edge">
<title>Node17&#45;&gt;Node18</title>
<path fill="none" stroke="midnightblue" d="M1178.5,-224.3C1178.5,-215.3 1178.5,-205.65 1178.5,-197.51"/>
<polygon fill="midnightblue" stroke="midnightblue" points="1175,-224.43 1178.5,-234.43 1182,-224.43 1175,-224.43"/>
</g>
</g>
</svg>
