<?xml version="1.0" encoding="UTF-8" standalone="no"?>
<!DOCTYPE svg PUBLIC "-//W3C//DTD SVG 1.1//EN"
 "http://www.w3.org/Graphics/SVG/1.1/DTD/svg11.dtd">
<!-- Generated by graphviz version 2.47.2 (0)
 -->
<!-- Title: /home/xenvre/robot&#45;code/bfl_robotology/src/BayesFilters/include/BayesFilters/Agent.h Pages: 1 -->
<svg width="403pt" height="328pt"
 viewBox="0.00 0.00 403.00 328.00" xmlns="http://www.w3.org/2000/svg" xmlns:xlink="http://www.w3.org/1999/xlink">
<g id="graph0" class="graph" transform="scale(1 1) rotate(0) translate(4 324)">
<title>/home/xenvre/robot&#45;code/bfl_robotology/src/BayesFilters/include/BayesFilters/Agent.h</title>
<polygon fill="white" stroke="transparent" points="-4,4 -4,-324 399,-324 399,4 -4,4"/>
<!-- Node1 -->
<g id="node1" class="node">
<title>Node1</title>
<g id="a_node1"><a xlink:title=" ">
<polygon fill="#bfbfbf" stroke="black" points="198,-267.5 198,-319.5 323,-319.5 323,-267.5 198,-267.5"/>
<text text-anchor="start" x="206" y="-307.5" font-family="Helvetica,sans-Serif" font-size="10.00">/home/xenvre/robot</text>
<text text-anchor="start" x="206" y="-296.5" font-family="Helvetica,sans-Serif" font-size="10.00">&#45;code/bfl_robotology</text>
<text text-anchor="start" x="206" y="-285.5" font-family="Helvetica,sans-Serif" font-size="10.00">/src/BayesFilters/include</text>
<text text-anchor="middle" x="260.5" y="-274.5" font-family="Helvetica,sans-Serif" font-size="10.00">/BayesFilters/Agent.h</text>
</a>
</g>
</g>
<!-- Node2 -->
<g id="node2" class="node">
<title>Node2</title>
<g id="a_node2"><a xlink:href="SimulatedStateModel_8h.html" target="_top" xlink:title=" ">
<polygon fill="white" stroke="black" points="91,-178.5 91,-230.5 270,-230.5 270,-178.5 91,-178.5"/>
<text text-anchor="start" x="99" y="-218.5" font-family="Helvetica,sans-Serif" font-size="10.00">/home/xenvre/robot</text>
<text text-anchor="start" x="99" y="-207.5" font-family="Helvetica,sans-Serif" font-size="10.00">&#45;code/bfl_robotology</text>
<text text-anchor="start" x="99" y="-196.5" font-family="Helvetica,sans-Serif" font-size="10.00">/src/BayesFilters/include</text>
<text text-anchor="middle" x="180.5" y="-185.5" font-family="Helvetica,sans-Serif" font-size="10.00">/BayesFilters/SimulatedStateModel.h</text>
</a>
</g>
</g>
<!-- Node1&#45;&gt;Node2 -->
<g id="edge1" class="edge">
<title>Node1&#45;&gt;Node2</title>
<path fill="none" stroke="midnightblue" d="M230.42,-259.79C221.54,-250.13 211.96,-239.71 203.59,-230.61"/>
<polygon fill="midnightblue" stroke="midnightblue" points="228.02,-262.34 237.36,-267.34 233.17,-257.61 228.02,-262.34"/>
</g>
<!-- Node6 -->
<g id="node6" class="node">
<title>Node6</title>
<g id="a_node6"><a xlink:href="Agent_8cpp.html" target="_top" xlink:title=" ">
<polygon fill="white" stroke="black" points="288,-178.5 288,-230.5 395,-230.5 395,-178.5 288,-178.5"/>
<text text-anchor="start" x="296" y="-218.5" font-family="Helvetica,sans-Serif" font-size="10.00">/home/xenvre/robot</text>
<text text-anchor="start" x="296" y="-207.5" font-family="Helvetica,sans-Serif" font-size="10.00">&#45;code/bfl_robotology</text>
<text text-anchor="start" x="296" y="-196.5" font-family="Helvetica,sans-Serif" font-size="10.00">/src/BayesFilters/src</text>
<text text-anchor="middle" x="341.5" y="-185.5" font-family="Helvetica,sans-Serif" font-size="10.00">/Agent.cpp</text>
</a>
</g>
</g>
<!-- Node1&#45;&gt;Node6 -->
<g id="edge5" class="edge">
<title>Node1&#45;&gt;Node6</title>
<path fill="none" stroke="midnightblue" d="M290.95,-259.79C299.95,-250.13 309.65,-239.71 318.12,-230.61"/>
<polygon fill="midnightblue" stroke="midnightblue" points="288.18,-257.63 283.93,-267.34 293.3,-262.4 288.18,-257.63"/>
</g>
<!-- Node3 -->
<g id="node3" class="node">
<title>Node3</title>
<g id="a_node3"><a xlink:href="SimulatedLinearSensor_8h.html" target="_top" xlink:title=" ">
<polygon fill="white" stroke="black" points="0,-89.5 0,-141.5 185,-141.5 185,-89.5 0,-89.5"/>
<text text-anchor="start" x="8" y="-129.5" font-family="Helvetica,sans-Serif" font-size="10.00">/home/xenvre/robot</text>
<text text-anchor="start" x="8" y="-118.5" font-family="Helvetica,sans-Serif" font-size="10.00">&#45;code/bfl_robotology</text>
<text text-anchor="start" x="8" y="-107.5" font-family="Helvetica,sans-Serif" font-size="10.00">/src/BayesFilters/include</text>
<text text-anchor="middle" x="92.5" y="-96.5" font-family="Helvetica,sans-Serif" font-size="10.00">/BayesFilters/SimulatedLinearSensor.h</text>
</a>
</g>
</g>
<!-- Node2&#45;&gt;Node3 -->
<g id="edge2" class="edge">
<title>Node2&#45;&gt;Node3</title>
<path fill="none" stroke="midnightblue" d="M147.7,-171.08C137.85,-161.34 127.19,-150.8 117.9,-141.61"/>
<polygon fill="midnightblue" stroke="midnightblue" points="145.47,-173.79 155.05,-178.34 150.4,-168.82 145.47,-173.79"/>
</g>
<!-- Node5 -->
<g id="node5" class="node">
<title>Node5</title>
<g id="a_node5"><a xlink:href="SimulatedStateModel_8cpp.html" target="_top" xlink:title=" ">
<polygon fill="white" stroke="black" points="203,-89.5 203,-141.5 334,-141.5 334,-89.5 203,-89.5"/>
<text text-anchor="start" x="211" y="-129.5" font-family="Helvetica,sans-Serif" font-size="10.00">/home/xenvre/robot</text>
<text text-anchor="start" x="211" y="-118.5" font-family="Helvetica,sans-Serif" font-size="10.00">&#45;code/bfl_robotology</text>
<text text-anchor="start" x="211" y="-107.5" font-family="Helvetica,sans-Serif" font-size="10.00">/src/BayesFilters/src</text>
<text text-anchor="middle" x="268.5" y="-96.5" font-family="Helvetica,sans-Serif" font-size="10.00">/SimulatedStateModel.cpp</text>
</a>
</g>
</g>
<!-- Node2&#45;&gt;Node5 -->
<g id="edge4" class="edge">
<title>Node2&#45;&gt;Node5</title>
<path fill="none" stroke="midnightblue" d="M213.3,-171.08C223.15,-161.34 233.81,-150.8 243.1,-141.61"/>
<polygon fill="midnightblue" stroke="midnightblue" points="210.6,-168.82 205.95,-178.34 215.53,-173.79 210.6,-168.82"/>
</g>
<!-- Node4 -->
<g id="node4" class="node">
<title>Node4</title>
<g id="a_node4"><a xlink:href="SimulatedLinearSensor_8cpp.html" target="_top" xlink:title=" ">
<polygon fill="white" stroke="black" points="23.5,-0.5 23.5,-52.5 161.5,-52.5 161.5,-0.5 23.5,-0.5"/>
<text text-anchor="start" x="31.5" y="-40.5" font-family="Helvetica,sans-Serif" font-size="10.00">/home/xenvre/robot</text>
<text text-anchor="start" x="31.5" y="-29.5" font-family="Helvetica,sans-Serif" font-size="10.00">&#45;code/bfl_robotology</text>
<text text-anchor="start" x="31.5" y="-18.5" font-family="Helvetica,sans-Serif" font-size="10.00">/src/BayesFilters/src</text>
<text text-anchor="middle" x="92.5" y="-7.5" font-family="Helvetica,sans-Serif" font-size="10.00">/SimulatedLinearSensor.cpp</text>
</a>
</g>
</g>
<!-- Node3&#45;&gt;Node4 -->
<g id="edge3" class="edge">
<title>Node3&#45;&gt;Node4</title>
<path fill="none" stroke="midnightblue" d="M92.5,-79.19C92.5,-70.28 92.5,-60.9 92.5,-52.61"/>
<polygon fill="midnightblue" stroke="midnightblue" points="89,-79.34 92.5,-89.34 96,-79.34 89,-79.34"/>
</g>
</g>
</svg>
