<?xml version="1.0" encoding="UTF-8" standalone="no"?>
<!DOCTYPE svg PUBLIC "-//W3C//DTD SVG 1.1//EN"
 "http://www.w3.org/Graphics/SVG/1.1/DTD/svg11.dtd">
<!-- Generated by graphviz version 2.47.2 (0)
 -->
<!-- Title: /home/xenvre/robot&#45;code/bfl_robotology/src/BayesFilters/include/BayesFilters/BootstrapCorrection.h Pages: 1 -->
<!--zoomable 408 -->
<svg id="main" version="1.1" xmlns="http://www.w3.org/2000/svg" xmlns:xlink="http://www.w3.org/1999/xlink" xml:space="preserve" onload="init(evt)">
<style type="text/css"><![CDATA[
.edge:hover path { stroke: red; }
.edge:hover polygon { stroke: red; fill: red; }
]]></style>
<script type="text/javascript"><![CDATA[
var edges = document.getElementsByTagName('g');
if (edges && edges.length) {
  for (var i=0;i<edges.length;i++) {
    if (edges[i].id.substr(0,4)=='edge') {
      edges[i].setAttribute('class','edge');
    }
  }
}
]]></script>
        <defs>
                <circle id="rim" cx="0" cy="0" r="7"/>
                <circle id="rim2" cx="0" cy="0" r="3.5"/>
                <g id="zoomPlus">
                        <use xlink:href="#rim" fill="#404040">
                                <set attributeName="fill" to="#808080" begin="zoomplus.mouseover" end="zoomplus.mouseout"/>
                        </use>
                        <path d="M-4,0h8M0,-4v8" fill="none" stroke="white" stroke-width="1.5" pointer-events="none"/>
                </g>
                <g id="zoomMin">
                        <use xlink:href="#rim" fill="#404040">
                                <set attributeName="fill" to="#808080" begin="zoomminus.mouseover" end="zoomminus.mouseout"/>
                        </use>
                        <path d="M-4,0h8" fill="none" stroke="white" stroke-width="1.5" pointer-events="none"/>
                </g>
                <g id="dirArrow">
                        <path fill="none" stroke="white" stroke-width="1.5" d="M0,-3.0v7 M-2.5,-0.5L0,-3.0L2.5,-0.5"/>
                </g>
               <g id="resetDef">
                       <use xlink:href="#rim2" fill="#404040">
                               <set attributeName="fill" to="#808080" begin="reset.mouseover" end="reset.mouseout"/>
                       </use>
               </g>
        </defs>

<script type="text/javascript">
var viewWidth = 670;
var viewHeight = 408;
var sectionId = 'dynsection-0';
</script>
<script xlink:href="svgpan.js"/>
<svg id="graph" class="graph">
<g id="viewport">
<title>/home/xenvre/robot&#45;code/bfl_robotology/src/BayesFilters/include/BayesFilters/BootstrapCorrection.h</title>
<polygon fill="white" stroke="transparent" points="-4,4 -4,-404 665.65,-404 665.65,4 -4,4"/>
<!-- Node1 -->
<g id="node1" class="node">
<title>Node1</title>
<g id="a_node1"><a xlink:title=" ">
<polygon fill="#bfbfbf" stroke="black" points="430.65,-347.5 430.65,-399.5 603.65,-399.5 603.65,-347.5 430.65,-347.5"/>
<text text-anchor="start" x="438.65" y="-387.5" font-family="Helvetica,sans-Serif" font-size="10.00">/home/xenvre/robot</text>
<text text-anchor="start" x="438.65" y="-376.5" font-family="Helvetica,sans-Serif" font-size="10.00">&#45;code/bfl_robotology</text>
<text text-anchor="start" x="438.65" y="-365.5" font-family="Helvetica,sans-Serif" font-size="10.00">/src/BayesFilters/include</text>
<text text-anchor="middle" x="517.15" y="-354.5" font-family="Helvetica,sans-Serif" font-size="10.00">/BayesFilters/BootstrapCorrection.h</text>
</a>
</g>
</g>
<!-- Node2 -->
<g id="node2" class="node">
<title>Node2</title>
<g id="a_node2"><a xlink:href="ParticleSet_8h.html" target="_top" xlink:title=" ">
<polygon fill="white" stroke="black" points="43.65,-235.5 43.65,-254.5 174.65,-254.5 174.65,-235.5 43.65,-235.5"/>
<text text-anchor="middle" x="109.15" y="-242.5" font-family="Helvetica,sans-Serif" font-size="10.00">BayesFilters/ParticleSet.h</text>
</a>
</g>
</g>
<!-- Node1&#45;&gt;Node2 -->
<g id="edge1" class="edge">
<title>Node1&#45;&gt;Node2</title>
<path fill="none" stroke="midnightblue" d="M436.05,-347.36C348.25,-320.14 212.04,-277.9 146.66,-257.63"/>
<polygon fill="midnightblue" stroke="midnightblue" points="147.38,-254.19 136.79,-254.57 145.31,-260.88 147.38,-254.19"/>
</g>
<!-- Node6 -->
<g id="node6" class="node">
<title>Node6</title>
<g id="a_node6"><a xlink:href="PFCorrection_8h.html" target="_top" xlink:title=" ">
<polygon fill="white" stroke="black" points="371.15,-291.5 371.15,-310.5 511.15,-310.5 511.15,-291.5 371.15,-291.5"/>
<text text-anchor="middle" x="441.15" y="-298.5" font-family="Helvetica,sans-Serif" font-size="10.00">BayesFilters/PFCorrection.h</text>
</a>
</g>
</g>
<!-- Node1&#45;&gt;Node6 -->
<g id="edge6" class="edge">
<title>Node1&#45;&gt;Node6</title>
<path fill="none" stroke="midnightblue" d="M490.14,-347.45C479.45,-337.53 467.48,-326.43 458.06,-317.69"/>
<polygon fill="midnightblue" stroke="midnightblue" points="460.23,-314.93 450.52,-310.7 455.47,-320.06 460.23,-314.93"/>
</g>
<!-- Node12 -->
<g id="node12" class="node">
<title>Node12</title>
<g id="a_node12"><a xlink:title=" ">
<polygon fill="white" stroke="#bfbfbf" points="472.15,-0.5 472.15,-19.5 524.15,-19.5 524.15,-0.5 472.15,-0.5"/>
<text text-anchor="middle" x="498.15" y="-7.5" font-family="Helvetica,sans-Serif" font-size="10.00">memory</text>
</a>
</g>
</g>
<!-- Node1&#45;&gt;Node12 -->
<g id="edge31" class="edge">
<title>Node1&#45;&gt;Node12</title>
<path fill="none" stroke="midnightblue" d="M539.83,-347.42C559.27,-323.26 584.15,-284.77 584.15,-246 584.15,-246 584.15,-246 584.15,-121 584.15,-79.58 545.84,-44.45 520.36,-25.67"/>
<polygon fill="midnightblue" stroke="midnightblue" points="522.15,-22.64 511.96,-19.72 518.1,-28.36 522.15,-22.64"/>
</g>
<!-- Node22 -->
<g id="node22" class="node">
<title>Node22</title>
<g id="a_node22"><a xlink:title=" ">
<polygon fill="white" stroke="#bfbfbf" points="612.65,-291.5 612.65,-310.5 661.65,-310.5 661.65,-291.5 612.65,-291.5"/>
<text text-anchor="middle" x="637.15" y="-298.5" font-family="Helvetica,sans-Serif" font-size="10.00">random</text>
</a>
</g>
</g>
<!-- Node1&#45;&gt;Node22 -->
<g id="edge32" class="edge">
<title>Node1&#45;&gt;Node22</title>
<path fill="none" stroke="midnightblue" d="M559.79,-347.45C577.98,-336.76 598.49,-324.71 613.82,-315.7"/>
<polygon fill="midnightblue" stroke="midnightblue" points="615.78,-318.61 622.63,-310.53 612.24,-312.57 615.78,-318.61"/>
</g>
<!-- Node3 -->
<g id="node3" class="node">
<title>Node3</title>
<g id="a_node3"><a xlink:href="GaussianMixture_8h.html" target="_top" xlink:title=" ">
<polygon fill="white" stroke="black" points="20.15,-174 20.15,-193 176.15,-193 176.15,-174 20.15,-174"/>
<text text-anchor="middle" x="98.15" y="-181" font-family="Helvetica,sans-Serif" font-size="10.00">BayesFilters/GaussianMixture.h</text>
</a>
</g>
</g>
<!-- Node2&#45;&gt;Node3 -->
<g id="edge2" class="edge">
<title>Node2&#45;&gt;Node3</title>
<path fill="none" stroke="midnightblue" d="M107.57,-235.48C106.02,-227.08 103.6,-213.98 101.6,-203.16"/>
<polygon fill="midnightblue" stroke="midnightblue" points="104.98,-202.21 99.72,-193.01 98.1,-203.48 104.98,-202.21"/>
</g>
<!-- Node4 -->
<g id="node4" class="node">
<title>Node4</title>
<g id="a_node4"><a xlink:title=" ">
<polygon fill="white" stroke="#bfbfbf" points="8.15,-56.5 8.15,-75.5 52.15,-75.5 52.15,-56.5 8.15,-56.5"/>
<text text-anchor="middle" x="30.15" y="-63.5" font-family="Helvetica,sans-Serif" font-size="10.00">vector</text>
</a>
</g>
</g>
<!-- Node2&#45;&gt;Node4 -->
<g id="edge5" class="edge">
<title>Node2&#45;&gt;Node4</title>
<path fill="none" stroke="midnightblue" d="M66.08,-235.49C45.75,-229.07 23.32,-217.99 11.15,-199 -11.68,-163.4 7.74,-111.4 20.74,-84.53"/>
<polygon fill="midnightblue" stroke="midnightblue" points="23.9,-86.04 25.31,-75.54 17.66,-82.87 23.9,-86.04"/>
</g>
<!-- Node3&#45;&gt;Node4 -->
<g id="edge3" class="edge">
<title>Node3&#45;&gt;Node4</title>
<path fill="none" stroke="midnightblue" d="M87.21,-173.99C76.08,-164.78 59.11,-149.1 49.15,-132 40.73,-117.55 35.8,-99.1 33.08,-85.55"/>
<polygon fill="midnightblue" stroke="midnightblue" points="36.5,-84.75 31.29,-75.52 29.6,-85.98 36.5,-84.75"/>
</g>
<!-- Node5 -->
<g id="node5" class="node">
<title>Node5</title>
<g id="a_node5"><a xlink:title=" ">
<polygon fill="white" stroke="#bfbfbf" points="58.65,-112.5 58.65,-131.5 131.65,-131.5 131.65,-112.5 58.65,-112.5"/>
<text text-anchor="middle" x="95.15" y="-119.5" font-family="Helvetica,sans-Serif" font-size="10.00">Eigen/Dense</text>
</a>
</g>
</g>
<!-- Node3&#45;&gt;Node5 -->
<g id="edge4" class="edge">
<title>Node3&#45;&gt;Node5</title>
<path fill="none" stroke="midnightblue" d="M97.72,-173.98C97.29,-165.58 96.63,-152.48 96.09,-141.66"/>
<polygon fill="midnightblue" stroke="midnightblue" points="99.57,-141.32 95.57,-131.51 92.58,-141.67 99.57,-141.32"/>
</g>
<!-- Node6&#45;&gt;Node2 -->
<g id="edge27" class="edge">
<title>Node6&#45;&gt;Node2</title>
<path fill="none" stroke="midnightblue" d="M388.54,-291.44C329.65,-281.87 234.29,-266.36 171.65,-256.17"/>
<polygon fill="midnightblue" stroke="midnightblue" points="171.94,-252.67 161.51,-254.52 170.81,-259.58 171.94,-252.67"/>
</g>
<!-- Node6&#45;&gt;Node5 -->
<g id="edge30" class="edge">
<title>Node6&#45;&gt;Node5</title>
<path fill="none" stroke="midnightblue" d="M371.13,-294.7C333.44,-289.16 287.55,-277.9 252.15,-255 211.17,-228.49 222.81,-199.03 185.15,-168 168.42,-154.22 146.78,-143.23 128.91,-135.56"/>
<polygon fill="midnightblue" stroke="midnightblue" points="130,-132.23 119.42,-131.65 127.33,-138.7 130,-132.23"/>
</g>
<!-- Node7 -->
<g id="node7" class="node">
<title>Node7</title>
<g id="a_node7"><a xlink:href="LikelihoodModel_8h.html" target="_top" xlink:title=" ">
<polygon fill="white" stroke="black" points="261.15,-235.5 261.15,-254.5 413.15,-254.5 413.15,-235.5 261.15,-235.5"/>
<text text-anchor="middle" x="337.15" y="-242.5" font-family="Helvetica,sans-Serif" font-size="10.00">BayesFilters/LikelihoodModel.h</text>
</a>
</g>
</g>
<!-- Node6&#45;&gt;Node7 -->
<g id="edge7" class="edge">
<title>Node6&#45;&gt;Node7</title>
<path fill="none" stroke="midnightblue" d="M424.44,-291.32C407.83,-282.7 382.14,-269.36 362.93,-259.39"/>
<polygon fill="midnightblue" stroke="midnightblue" points="364.3,-256.16 353.81,-254.65 361.08,-262.37 364.3,-256.16"/>
</g>
<!-- Node8 -->
<g id="node8" class="node">
<title>Node8</title>
<g id="a_node8"><a xlink:href="MeasurementModel_8h.html" target="_top" xlink:title=" ">
<polygon fill="white" stroke="black" points="336.15,-168.5 336.15,-198.5 470.15,-198.5 470.15,-168.5 336.15,-168.5"/>
<text text-anchor="start" x="344.15" y="-186.5" font-family="Helvetica,sans-Serif" font-size="10.00">BayesFilters/Measurement</text>
<text text-anchor="middle" x="403.15" y="-175.5" font-family="Helvetica,sans-Serif" font-size="10.00">Model.h</text>
</a>
</g>
</g>
<!-- Node6&#45;&gt;Node8 -->
<g id="edge26" class="edge">
<title>Node6&#45;&gt;Node8</title>
<path fill="none" stroke="midnightblue" d="M438.77,-291.1C435.37,-278.52 428.77,-254.85 422.15,-235 419.19,-226.16 415.67,-216.56 412.45,-208.12"/>
<polygon fill="midnightblue" stroke="midnightblue" points="415.62,-206.61 408.76,-198.55 409.09,-209.14 415.62,-206.61"/>
</g>
<!-- Node6&#45;&gt;Node12 -->
<g id="edge28" class="edge">
<title>Node6&#45;&gt;Node12</title>
<path fill="none" stroke="midnightblue" d="M458.02,-291.45C487.7,-275.08 546.15,-236.26 546.15,-184.5 546.15,-184.5 546.15,-184.5 546.15,-121 546.15,-85.58 524.99,-48.71 510.77,-27.92"/>
<polygon fill="midnightblue" stroke="midnightblue" points="513.47,-25.68 504.82,-19.56 507.77,-29.74 513.47,-25.68"/>
</g>
<!-- Node20 -->
<g id="node20" class="node">
<title>Node20</title>
<g id="a_node20"><a xlink:title=" ">
<polygon fill="white" stroke="#bfbfbf" points="478.15,-112.5 478.15,-131.5 518.15,-131.5 518.15,-112.5 478.15,-112.5"/>
<text text-anchor="middle" x="498.15" y="-119.5" font-family="Helvetica,sans-Serif" font-size="10.00">utility</text>
</a>
</g>
</g>
<!-- Node6&#45;&gt;Node20 -->
<g id="edge29" class="edge">
<title>Node6&#45;&gt;Node20</title>
<path fill="none" stroke="midnightblue" d="M444.74,-291.47C451.91,-274.22 468.27,-233.87 479.15,-199 485.21,-179.57 490.68,-156.88 494.17,-141.38"/>
<polygon fill="midnightblue" stroke="midnightblue" points="497.61,-142.04 496.35,-131.52 490.78,-140.53 497.61,-142.04"/>
</g>
<!-- Node7&#45;&gt;Node8 -->
<g id="edge8" class="edge">
<title>Node7&#45;&gt;Node8</title>
<path fill="none" stroke="midnightblue" d="M346.6,-235.48C355.29,-227.64 368.52,-215.71 380,-205.37"/>
<polygon fill="midnightblue" stroke="midnightblue" points="382.51,-207.82 387.59,-198.52 377.82,-202.62 382.51,-207.82"/>
</g>
<!-- Node21 -->
<g id="node21" class="node">
<title>Node21</title>
<g id="a_node21"><a xlink:title=" ">
<polygon fill="white" stroke="#bfbfbf" points="252.65,-174 252.65,-193 317.65,-193 317.65,-174 252.65,-174"/>
<text text-anchor="middle" x="285.15" y="-181" font-family="Helvetica,sans-Serif" font-size="10.00">Eigen/Core</text>
</a>
</g>
</g>
<!-- Node7&#45;&gt;Node21 -->
<g id="edge25" class="edge">
<title>Node7&#45;&gt;Node21</title>
<path fill="none" stroke="midnightblue" d="M329.7,-235.48C321.82,-226.46 309.2,-212.02 299.4,-200.81"/>
<polygon fill="midnightblue" stroke="midnightblue" points="301.8,-198.24 292.58,-193.01 296.53,-202.84 301.8,-198.24"/>
</g>
<!-- Node8&#45;&gt;Node5 -->
<g id="edge24" class="edge">
<title>Node8&#45;&gt;Node5</title>
<path fill="none" stroke="midnightblue" d="M336.1,-169.63C285.54,-159.91 214.18,-146.17 141.99,-132.16"/>
<polygon fill="midnightblue" stroke="midnightblue" points="142.29,-128.65 131.8,-130.18 140.95,-135.52 142.29,-128.65"/>
</g>
<!-- Node9 -->
<g id="node9" class="node">
<title>Node9</title>
<g id="a_node9"><a xlink:href="Data_8h.html" target="_top" xlink:title=" ">
<polygon fill="white" stroke="black" points="150.15,-112.5 150.15,-131.5 254.15,-131.5 254.15,-112.5 150.15,-112.5"/>
<text text-anchor="middle" x="202.15" y="-119.5" font-family="Helvetica,sans-Serif" font-size="10.00">BayesFilters/Data.h</text>
</a>
</g>
</g>
<!-- Node8&#45;&gt;Node9 -->
<g id="edge9" class="edge">
<title>Node8&#45;&gt;Node9</title>
<path fill="none" stroke="midnightblue" d="M355.77,-168.47C320.64,-158.08 273.35,-144.08 240.56,-134.37"/>
<polygon fill="midnightblue" stroke="midnightblue" points="241.46,-130.99 230.88,-131.51 239.48,-137.7 241.46,-130.99"/>
</g>
<!-- Node8&#45;&gt;Node12 -->
<g id="edge21" class="edge">
<title>Node8&#45;&gt;Node12</title>
<path fill="none" stroke="midnightblue" d="M410.92,-168.47C428.18,-137.3 469.67,-62.41 488.53,-28.37"/>
<polygon fill="midnightblue" stroke="midnightblue" points="491.62,-30 493.4,-19.56 485.5,-26.61 491.62,-30"/>
</g>
<!-- Node16 -->
<g id="node16" class="node">
<title>Node16</title>
<g id="a_node16"><a xlink:href="Logger_8h.html" target="_top" xlink:title=" ">
<polygon fill="white" stroke="black" points="272.65,-112.5 272.65,-131.5 383.65,-131.5 383.65,-112.5 272.65,-112.5"/>
<text text-anchor="middle" x="328.15" y="-119.5" font-family="Helvetica,sans-Serif" font-size="10.00">BayesFilters/Logger.h</text>
</a>
</g>
</g>
<!-- Node8&#45;&gt;Node16 -->
<g id="edge16" class="edge">
<title>Node8&#45;&gt;Node16</title>
<path fill="none" stroke="midnightblue" d="M385.37,-168.4C373.8,-159.22 358.72,-147.26 346.95,-137.92"/>
<polygon fill="midnightblue" stroke="midnightblue" points="349.07,-135.13 339.06,-131.66 344.72,-140.61 349.07,-135.13"/>
</g>
<!-- Node19 -->
<g id="node19" class="node">
<title>Node19</title>
<g id="a_node19"><a xlink:title=" ">
<polygon fill="white" stroke="#bfbfbf" points="380.65,-56.5 380.65,-75.5 421.65,-75.5 421.65,-56.5 380.65,-56.5"/>
<text text-anchor="middle" x="401.15" y="-63.5" font-family="Helvetica,sans-Serif" font-size="10.00">string</text>
</a>
</g>
</g>
<!-- Node8&#45;&gt;Node19 -->
<g id="edge22" class="edge">
<title>Node8&#45;&gt;Node19</title>
<path fill="none" stroke="midnightblue" d="M402.9,-168.34C402.54,-147.62 401.87,-109.02 401.47,-85.9"/>
<polygon fill="midnightblue" stroke="midnightblue" points="404.97,-85.61 401.3,-75.67 397.97,-85.73 404.97,-85.61"/>
</g>
<!-- Node8&#45;&gt;Node20 -->
<g id="edge23" class="edge">
<title>Node8&#45;&gt;Node20</title>
<path fill="none" stroke="midnightblue" d="M425.66,-168.4C440.74,-158.95 460.53,-146.56 475.62,-137.11"/>
<polygon fill="midnightblue" stroke="midnightblue" points="477.71,-139.93 484.32,-131.66 473.99,-134 477.71,-139.93"/>
</g>
<!-- Node10 -->
<g id="node10" class="node">
<title>Node10</title>
<g id="a_node10"><a xlink:href="any_8h.html" target="_top" xlink:title=" ">
<polygon fill="white" stroke="black" points="124.65,-56.5 124.65,-75.5 221.65,-75.5 221.65,-56.5 124.65,-56.5"/>
<text text-anchor="middle" x="173.15" y="-63.5" font-family="Helvetica,sans-Serif" font-size="10.00">BayesFilters/any.h</text>
</a>
</g>
</g>
<!-- Node9&#45;&gt;Node10 -->
<g id="edge10" class="edge">
<title>Node9&#45;&gt;Node10</title>
<path fill="none" stroke="midnightblue" d="M197.36,-112.08C193.39,-104.69 187.62,-93.95 182.71,-84.81"/>
<polygon fill="midnightblue" stroke="midnightblue" points="185.66,-82.91 177.85,-75.75 179.49,-86.22 185.66,-82.91"/>
</g>
<!-- Node11 -->
<g id="node11" class="node">
<title>Node11</title>
<g id="a_node11"><a xlink:title=" ">
<polygon fill="white" stroke="#bfbfbf" points="33.15,-0.5 33.15,-19.5 89.15,-19.5 89.15,-0.5 33.15,-0.5"/>
<text text-anchor="middle" x="61.15" y="-7.5" font-family="Helvetica,sans-Serif" font-size="10.00">algorithm</text>
</a>
</g>
</g>
<!-- Node10&#45;&gt;Node11 -->
<g id="edge11" class="edge">
<title>Node10&#45;&gt;Node11</title>
<path fill="none" stroke="midnightblue" d="M155.15,-56.32C137.11,-47.62 109.1,-34.12 88.34,-24.11"/>
<polygon fill="midnightblue" stroke="midnightblue" points="89.62,-20.84 79.1,-19.65 86.58,-27.15 89.62,-20.84"/>
</g>
<!-- Node10&#45;&gt;Node12 -->
<g id="edge12" class="edge">
<title>Node10&#45;&gt;Node12</title>
<path fill="none" stroke="midnightblue" d="M221.8,-56.92C287.62,-45.98 403.51,-26.72 462.09,-16.99"/>
<polygon fill="midnightblue" stroke="midnightblue" points="462.7,-20.44 471.99,-15.35 461.56,-13.53 462.7,-20.44"/>
</g>
<!-- Node13 -->
<g id="node13" class="node">
<title>Node13</title>
<g id="a_node13"><a xlink:title=" ">
<polygon fill="white" stroke="#bfbfbf" points="107.65,-0.5 107.65,-19.5 166.65,-19.5 166.65,-0.5 107.65,-0.5"/>
<text text-anchor="middle" x="137.15" y="-7.5" font-family="Helvetica,sans-Serif" font-size="10.00">stdexcept</text>
</a>
</g>
</g>
<!-- Node10&#45;&gt;Node13 -->
<g id="edge13" class="edge">
<title>Node10&#45;&gt;Node13</title>
<path fill="none" stroke="midnightblue" d="M167.2,-56.08C162.17,-48.53 154.81,-37.49 148.63,-28.23"/>
<polygon fill="midnightblue" stroke="midnightblue" points="151.44,-26.13 142.98,-19.75 145.61,-30.01 151.44,-26.13"/>
</g>
<!-- Node14 -->
<g id="node14" class="node">
<title>Node14</title>
<g id="a_node14"><a xlink:title=" ">
<polygon fill="white" stroke="#bfbfbf" points="184.65,-0.5 184.65,-19.5 235.65,-19.5 235.65,-0.5 184.65,-0.5"/>
<text text-anchor="middle" x="210.15" y="-7.5" font-family="Helvetica,sans-Serif" font-size="10.00">typeinfo</text>
</a>
</g>
</g>
<!-- Node10&#45;&gt;Node14 -->
<g id="edge14" class="edge">
<title>Node10&#45;&gt;Node14</title>
<path fill="none" stroke="midnightblue" d="M179.26,-56.08C184.43,-48.53 191.99,-37.49 198.34,-28.23"/>
<polygon fill="midnightblue" stroke="midnightblue" points="201.38,-29.98 204.15,-19.75 195.61,-26.02 201.38,-29.98"/>
</g>
<!-- Node15 -->
<g id="node15" class="node">
<title>Node15</title>
<g id="a_node15"><a xlink:title=" ">
<polygon fill="white" stroke="#bfbfbf" points="254.15,-0.5 254.15,-19.5 316.15,-19.5 316.15,-0.5 254.15,-0.5"/>
<text text-anchor="middle" x="285.15" y="-7.5" font-family="Helvetica,sans-Serif" font-size="10.00">type_traits</text>
</a>
</g>
</g>
<!-- Node10&#45;&gt;Node15 -->
<g id="edge15" class="edge">
<title>Node10&#45;&gt;Node15</title>
<path fill="none" stroke="midnightblue" d="M191.14,-56.32C209.18,-47.62 237.19,-34.12 257.95,-24.11"/>
<polygon fill="midnightblue" stroke="midnightblue" points="259.71,-27.15 267.2,-19.65 256.67,-20.84 259.71,-27.15"/>
</g>
<!-- Node16&#45;&gt;Node4 -->
<g id="edge20" class="edge">
<title>Node16&#45;&gt;Node4</title>
<path fill="none" stroke="midnightblue" d="M280.93,-112.44C219.82,-101.37 114.96,-82.37 62.3,-72.83"/>
<polygon fill="midnightblue" stroke="midnightblue" points="62.66,-69.33 52.19,-71 61.41,-76.22 62.66,-69.33"/>
</g>
<!-- Node17 -->
<g id="node17" class="node">
<title>Node17</title>
<g id="a_node17"><a xlink:title=" ">
<polygon fill="white" stroke="#bfbfbf" points="240.15,-56.5 240.15,-75.5 290.15,-75.5 290.15,-56.5 240.15,-56.5"/>
<text text-anchor="middle" x="265.15" y="-63.5" font-family="Helvetica,sans-Serif" font-size="10.00">fstream</text>
</a>
</g>
</g>
<!-- Node16&#45;&gt;Node17 -->
<g id="edge17" class="edge">
<title>Node16&#45;&gt;Node17</title>
<path fill="none" stroke="midnightblue" d="M318.02,-112.32C308.62,-104.26 294.4,-92.08 283.08,-82.37"/>
<polygon fill="midnightblue" stroke="midnightblue" points="285.32,-79.68 275.45,-75.83 280.77,-85 285.32,-79.68"/>
</g>
<!-- Node18 -->
<g id="node18" class="node">
<title>Node18</title>
<g id="a_node18"><a xlink:title=" ">
<polygon fill="white" stroke="#bfbfbf" points="308.15,-56.5 308.15,-75.5 362.15,-75.5 362.15,-56.5 308.15,-56.5"/>
<text text-anchor="middle" x="335.15" y="-63.5" font-family="Helvetica,sans-Serif" font-size="10.00">iostream</text>
</a>
</g>
</g>
<!-- Node16&#45;&gt;Node18 -->
<g id="edge18" class="edge">
<title>Node16&#45;&gt;Node18</title>
<path fill="none" stroke="midnightblue" d="M329.3,-112.08C330.23,-104.93 331.56,-94.64 332.72,-85.69"/>
<polygon fill="midnightblue" stroke="midnightblue" points="336.2,-86.12 334.01,-75.75 329.25,-85.22 336.2,-86.12"/>
</g>
<!-- Node16&#45;&gt;Node19 -->
<g id="edge19" class="edge">
<title>Node16&#45;&gt;Node19</title>
<path fill="none" stroke="midnightblue" d="M339.87,-112.32C350.98,-104.11 367.89,-91.6 381.13,-81.81"/>
<polygon fill="midnightblue" stroke="midnightblue" points="383.25,-84.59 389.2,-75.83 379.08,-78.97 383.25,-84.59"/>
</g>
</g>
</svg>
        <g id="navigator" transform="translate(0 0)" fill="#404254">
                <rect fill="#f2f5e9" fill-opacity="0.5" stroke="#606060" stroke-width=".5" x="0" y="0" width="60" height="60"/>
                <use id="zoomplus" xlink:href="#zoomPlus" x="17" y="9" onmousedown="handleZoom(evt,'in')"/>
                <use id="zoomminus" xlink:href="#zoomMin" x="42" y="9" onmousedown="handleZoom(evt,'out')"/>
                <use id="reset" xlink:href="#resetDef" x="30" y="36" onmousedown="handleReset()"/>
                <g id="arrowUp" xlink:href="#dirArrow" transform="translate(30 24)" onmousedown="handlePan(0,-1)">
                  <use xlink:href="#rim" fill="#404040">
                        <set attributeName="fill" to="#808080" begin="arrowUp.mouseover" end="arrowUp.mouseout"/>
                  </use>
                  <path fill="none" stroke="white" stroke-width="1.5" d="M0,-3.0v7 M-2.5,-0.5L0,-3.0L2.5,-0.5"/>
                </g>
                <g id="arrowRight" xlink:href="#dirArrow" transform="rotate(90) translate(36 -43)" onmousedown="handlePan(1,0)">
                  <use xlink:href="#rim" fill="#404040">
                        <set attributeName="fill" to="#808080" begin="arrowRight.mouseover" end="arrowRight.mouseout"/>
                  </use>
                  <path fill="none" stroke="white" stroke-width="1.5" d="M0,-3.0v7 M-2.5,-0.5L0,-3.0L2.5,-0.5"/>
                </g>
                <g id="arrowDown" xlink:href="#dirArrow" transform="rotate(180) translate(-30 -48)" onmousedown="handlePan(0,1)">
                  <use xlink:href="#rim" fill="#404040">
                        <set attributeName="fill" to="#808080" begin="arrowDown.mouseover" end="arrowDown.mouseout"/>
                  </use>
                  <path fill="none" stroke="white" stroke-width="1.5" d="M0,-3.0v7 M-2.5,-0.5L0,-3.0L2.5,-0.5"/>
                </g>
                <g id="arrowLeft" xlink:href="#dirArrow" transform="rotate(270) translate(-36 17)" onmousedown="handlePan(-1,0)">
                  <use xlink:href="#rim" fill="#404040">
                        <set attributeName="fill" to="#808080" begin="arrowLeft.mouseover" end="arrowLeft.mouseout"/>
                  </use>
                  <path fill="none" stroke="white" stroke-width="1.5" d="M0,-3.0v7 M-2.5,-0.5L0,-3.0L2.5,-0.5"/>
                </g>
        </g>
        <svg viewBox="0 0 15 15" width="100%" height="30px" preserveAspectRatio="xMaxYMin meet">
         <g id="arrow_out" transform="scale(0.3 0.3)">
          <a xlink:href="BootstrapCorrection_8h__incl_org.svg" target="_base">
           <rect id="button" ry="5" rx="5" y="6" x="6" height="38" width="38"
                fill="#f2f5e9" fill-opacity="0.5" stroke="#606060" stroke-width="1.0"/>
           <path id="arrow"
             d="M 11.500037,31.436501 C 11.940474,20.09759 22.043105,11.32322 32.158766,21.979434 L 37.068811,17.246167 C 37.068811,17.246167 37.088388,32 37.088388,32 L 22.160133,31.978069 C 22.160133,31.978069 26.997745,27.140456 26.997745,27.140456 C 18.528582,18.264221 13.291696,25.230495 11.500037,31.436501 z"
             style="fill:#404040;"/>
          </a>
         </g>
        </svg>
</svg>
