<?xml version="1.0" encoding="UTF-8" standalone="no"?>
<!DOCTYPE svg PUBLIC "-//W3C//DTD SVG 1.1//EN"
 "http://www.w3.org/Graphics/SVG/1.1/DTD/svg11.dtd">
<!-- Generated by graphviz version 2.43.0 (0)
 -->
<!-- Title: /home/user/bayes&#45;filters&#45;lib/src/BayesFilters/include/BayesFilters/BootstrapCorrection.h Pages: 1 -->
<svg width="896pt" height="397pt"
 viewBox="0.00 0.00 896.17 397.00" xmlns="http://www.w3.org/2000/svg" xmlns:xlink="http://www.w3.org/1999/xlink">
<g id="graph0" class="graph" transform="scale(1 1) rotate(0) translate(4 393)">
<title>/home/user/bayes&#45;filters&#45;lib/src/BayesFilters/include/BayesFilters/BootstrapCorrection.h</title>
<polygon fill="white" stroke="transparent" points="-4,4 -4,-393 892.17,-393 892.17,4 -4,4"/>
<!-- Node1 -->
<g id="node1" class="node">
<title>Node1</title>
<g id="a_node1"><a xlink:title=" ">
<polygon fill="#bfbfbf" stroke="black" points="560.67,-347.5 560.67,-388.5 749.67,-388.5 749.67,-347.5 560.67,-347.5"/>
<text text-anchor="start" x="568.67" y="-376.5" font-family="Helvetica,sans-Serif" font-size="10.00">/home/user/bayes&#45;filters</text>
<text text-anchor="start" x="568.67" y="-365.5" font-family="Helvetica,sans-Serif" font-size="10.00">&#45;lib/src/BayesFilters/include</text>
<text text-anchor="middle" x="655.17" y="-354.5" font-family="Helvetica,sans-Serif" font-size="10.00">/BayesFilters/BootstrapCorrection.h</text>
</a>
</g>
</g>
<!-- Node2 -->
<g id="node2" class="node">
<title>Node2</title>
<g id="a_node2"><a xlink:href="ParticleSet_8h.html" target="_top" xlink:title=" ">
<polygon fill="white" stroke="black" points="72.17,-235.5 72.17,-254.5 212.17,-254.5 212.17,-235.5 72.17,-235.5"/>
<text text-anchor="middle" x="142.17" y="-242.5" font-family="Helvetica,sans-Serif" font-size="10.00">BayesFilters/ParticleSet.h</text>
</a>
</g>
</g>
<!-- Node1&#45;&gt;Node2 -->
<g id="edge1" class="edge">
<title>Node1&#45;&gt;Node2</title>
<path fill="none" stroke="midnightblue" d="M572.46,-347.49C463.28,-321.74 274.79,-277.28 188.15,-256.85"/>
<polygon fill="midnightblue" stroke="midnightblue" points="188.89,-253.42 178.35,-254.53 187.28,-260.24 188.89,-253.42"/>
</g>
<!-- Node6 -->
<g id="node6" class="node">
<title>Node6</title>
<g id="a_node6"><a xlink:href="PFCorrection_8h.html" target="_top" xlink:title=" ">
<polygon fill="white" stroke="black" points="469.67,-291.5 469.67,-310.5 620.67,-310.5 620.67,-291.5 469.67,-291.5"/>
<text text-anchor="middle" x="545.17" y="-298.5" font-family="Helvetica,sans-Serif" font-size="10.00">BayesFilters/PFCorrection.h</text>
</a>
</g>
</g>
<!-- Node1&#45;&gt;Node6 -->
<g id="edge6" class="edge">
<title>Node1&#45;&gt;Node6</title>
<path fill="none" stroke="midnightblue" d="M622.17,-347.5C604.98,-337.34 584.36,-325.16 568.78,-315.95"/>
<polygon fill="midnightblue" stroke="midnightblue" points="570.2,-312.73 559.81,-310.65 566.64,-318.75 570.2,-312.73"/>
</g>
<!-- Node12 -->
<g id="node12" class="node">
<title>Node12</title>
<g id="a_node12"><a xlink:title=" ">
<polygon fill="white" stroke="#bfbfbf" points="688.17,-0.5 688.17,-19.5 746.17,-19.5 746.17,-0.5 688.17,-0.5"/>
<text text-anchor="middle" x="717.17" y="-7.5" font-family="Helvetica,sans-Serif" font-size="10.00">memory</text>
</a>
</g>
</g>
<!-- Node1&#45;&gt;Node12 -->
<g id="edge33" class="edge">
<title>Node1&#45;&gt;Node12</title>
<path fill="none" stroke="midnightblue" d="M712.26,-347.49C755.02,-328.83 806.17,-296.05 806.17,-246 806.17,-246 806.17,-246 806.17,-121 806.17,-78.85 766.18,-43.78 739.81,-25.24"/>
<polygon fill="midnightblue" stroke="midnightblue" points="741.71,-22.3 731.47,-19.6 737.79,-28.1 741.71,-22.3"/>
</g>
<!-- Node24 -->
<g id="node24" class="node">
<title>Node24</title>
<g id="a_node24"><a xlink:title=" ">
<polygon fill="white" stroke="#bfbfbf" points="834.17,-291.5 834.17,-310.5 888.17,-310.5 888.17,-291.5 834.17,-291.5"/>
<text text-anchor="middle" x="861.17" y="-298.5" font-family="Helvetica,sans-Serif" font-size="10.00">random</text>
</a>
</g>
</g>
<!-- Node1&#45;&gt;Node24 -->
<g id="edge34" class="edge">
<title>Node1&#45;&gt;Node24</title>
<path fill="none" stroke="midnightblue" d="M716.98,-347.5C752.01,-336.44 794.65,-322.99 824.44,-313.59"/>
<polygon fill="midnightblue" stroke="midnightblue" points="825.54,-316.91 834.02,-310.57 823.43,-310.24 825.54,-316.91"/>
</g>
<!-- Node3 -->
<g id="node3" class="node">
<title>Node3</title>
<g id="a_node3"><a xlink:href="GaussianMixture_8h.html" target="_top" xlink:title=" ">
<polygon fill="white" stroke="black" points="21.67,-174 21.67,-193 192.67,-193 192.67,-174 21.67,-174"/>
<text text-anchor="middle" x="107.17" y="-181" font-family="Helvetica,sans-Serif" font-size="10.00">BayesFilters/GaussianMixture.h</text>
</a>
</g>
</g>
<!-- Node2&#45;&gt;Node3 -->
<g id="edge2" class="edge">
<title>Node2&#45;&gt;Node3</title>
<path fill="none" stroke="midnightblue" d="M137.16,-235.48C132.01,-226.73 123.86,-212.87 117.35,-201.81"/>
<polygon fill="midnightblue" stroke="midnightblue" points="120.26,-199.85 112.18,-193.01 114.23,-203.4 120.26,-199.85"/>
</g>
<!-- Node4 -->
<g id="node4" class="node">
<title>Node4</title>
<g id="a_node4"><a xlink:title=" ">
<polygon fill="white" stroke="#bfbfbf" points="7.67,-56.5 7.67,-75.5 54.67,-75.5 54.67,-56.5 7.67,-56.5"/>
<text text-anchor="middle" x="31.17" y="-63.5" font-family="Helvetica,sans-Serif" font-size="10.00">vector</text>
</a>
</g>
</g>
<!-- Node2&#45;&gt;Node4 -->
<g id="edge5" class="edge">
<title>Node2&#45;&gt;Node4</title>
<path fill="none" stroke="midnightblue" d="M71.96,-236C49.12,-229.69 26.09,-218.55 12.17,-199 -12.36,-164.55 7.79,-112.06 21.35,-84.81"/>
<polygon fill="midnightblue" stroke="midnightblue" points="24.58,-86.18 26.11,-75.69 18.38,-82.93 24.58,-86.18"/>
</g>
<!-- Node3&#45;&gt;Node4 -->
<g id="edge3" class="edge">
<title>Node3&#45;&gt;Node4</title>
<path fill="none" stroke="midnightblue" d="M93.42,-173.72C80.45,-164.74 61.36,-149.64 50.17,-132 41.22,-117.88 36.35,-99.39 33.79,-85.75"/>
<polygon fill="midnightblue" stroke="midnightblue" points="37.2,-84.93 32.14,-75.62 30.29,-86.06 37.2,-84.93"/>
</g>
<!-- Node5 -->
<g id="node5" class="node">
<title>Node5</title>
<g id="a_node5"><a xlink:title=" ">
<polygon fill="white" stroke="#bfbfbf" points="59.67,-112.5 59.67,-131.5 136.67,-131.5 136.67,-112.5 59.67,-112.5"/>
<text text-anchor="middle" x="98.17" y="-119.5" font-family="Helvetica,sans-Serif" font-size="10.00">Eigen/Dense</text>
</a>
</g>
</g>
<!-- Node3&#45;&gt;Node5 -->
<g id="edge4" class="edge">
<title>Node3&#45;&gt;Node5</title>
<path fill="none" stroke="midnightblue" d="M105.88,-173.98C104.61,-165.58 102.63,-152.48 100.99,-141.66"/>
<polygon fill="midnightblue" stroke="midnightblue" points="104.41,-140.87 99.46,-131.51 97.49,-141.92 104.41,-140.87"/>
</g>
<!-- Node6&#45;&gt;Node2 -->
<g id="edge29" class="edge">
<title>Node6&#45;&gt;Node2</title>
<path fill="none" stroke="midnightblue" d="M481.31,-291.44C409.1,-281.77 291.69,-266.04 215.71,-255.85"/>
<polygon fill="midnightblue" stroke="midnightblue" points="216.1,-252.38 205.73,-254.52 215.17,-259.31 216.1,-252.38"/>
</g>
<!-- Node6&#45;&gt;Node5 -->
<g id="edge32" class="edge">
<title>Node6&#45;&gt;Node5</title>
<path fill="none" stroke="midnightblue" d="M479.28,-291.43C438.21,-284.66 384.87,-273.25 340.17,-255 272.7,-227.45 265.63,-202.01 201.17,-168 177.78,-155.66 150.29,-143.77 129.59,-135.32"/>
<polygon fill="midnightblue" stroke="midnightblue" points="130.89,-132.07 120.31,-131.57 128.27,-138.56 130.89,-132.07"/>
</g>
<!-- Node7 -->
<g id="node7" class="node">
<title>Node7</title>
<g id="a_node7"><a xlink:href="LikelihoodModel_8h.html" target="_top" xlink:title=" ">
<polygon fill="white" stroke="black" points="349.17,-235.5 349.17,-254.5 517.17,-254.5 517.17,-235.5 349.17,-235.5"/>
<text text-anchor="middle" x="433.17" y="-242.5" font-family="Helvetica,sans-Serif" font-size="10.00">BayesFilters/LikelihoodModel.h</text>
</a>
</g>
</g>
<!-- Node6&#45;&gt;Node7 -->
<g id="edge7" class="edge">
<title>Node6&#45;&gt;Node7</title>
<path fill="none" stroke="midnightblue" d="M527.18,-291.32C509.13,-282.62 481.12,-269.12 460.37,-259.11"/>
<polygon fill="midnightblue" stroke="midnightblue" points="461.65,-255.84 451.12,-254.65 458.61,-262.15 461.65,-255.84"/>
</g>
<!-- Node8 -->
<g id="node8" class="node">
<title>Node8</title>
<g id="a_node8"><a xlink:href="MeasurementModel_8h.html" target="_top" xlink:title=" ">
<polygon fill="white" stroke="black" points="406.67,-168.5 406.67,-198.5 553.67,-198.5 553.67,-168.5 406.67,-168.5"/>
<text text-anchor="start" x="414.67" y="-186.5" font-family="Helvetica,sans-Serif" font-size="10.00">BayesFilters/Measurement</text>
<text text-anchor="middle" x="480.17" y="-175.5" font-family="Helvetica,sans-Serif" font-size="10.00">Model.h</text>
</a>
</g>
</g>
<!-- Node6&#45;&gt;Node8 -->
<g id="edge28" class="edge">
<title>Node6&#45;&gt;Node8</title>
<path fill="none" stroke="midnightblue" d="M543.88,-291.09C541.72,-278.09 536.53,-253.45 526.17,-235 520.21,-224.39 511.64,-214.17 503.51,-205.74"/>
<polygon fill="midnightblue" stroke="midnightblue" points="505.82,-203.1 496.25,-198.53 500.88,-208.06 505.82,-203.1"/>
</g>
<!-- Node6&#45;&gt;Node12 -->
<g id="edge30" class="edge">
<title>Node6&#45;&gt;Node12</title>
<path fill="none" stroke="midnightblue" d="M620.98,-291.98C685.63,-280.44 768.17,-252.41 768.17,-184.5 768.17,-184.5 768.17,-184.5 768.17,-121 768.17,-85.24 745.72,-48.51 730.61,-27.84"/>
<polygon fill="midnightblue" stroke="midnightblue" points="733.31,-25.61 724.48,-19.77 727.74,-29.85 733.31,-25.61"/>
</g>
<!-- Node22 -->
<g id="node22" class="node">
<title>Node22</title>
<g id="a_node22"><a xlink:title=" ">
<polygon fill="white" stroke="#bfbfbf" points="694.67,-112.5 694.67,-131.5 739.67,-131.5 739.67,-112.5 694.67,-112.5"/>
<text text-anchor="middle" x="717.17" y="-119.5" font-family="Helvetica,sans-Serif" font-size="10.00">utility</text>
</a>
</g>
</g>
<!-- Node6&#45;&gt;Node22 -->
<g id="edge31" class="edge">
<title>Node6&#45;&gt;Node22</title>
<path fill="none" stroke="midnightblue" d="M553.47,-291.46C580.42,-263.73 665.82,-175.85 701.38,-139.24"/>
<polygon fill="midnightblue" stroke="midnightblue" points="704.09,-141.48 708.55,-131.87 699.07,-136.6 704.09,-141.48"/>
</g>
<!-- Node7&#45;&gt;Node8 -->
<g id="edge8" class="edge">
<title>Node7&#45;&gt;Node8</title>
<path fill="none" stroke="midnightblue" d="M439.9,-235.48C445.85,-227.94 454.79,-216.63 462.74,-206.57"/>
<polygon fill="midnightblue" stroke="midnightblue" points="465.64,-208.54 469.09,-198.52 460.15,-204.2 465.64,-208.54"/>
</g>
<!-- Node23 -->
<g id="node23" class="node">
<title>Node23</title>
<g id="a_node23"><a xlink:title=" ">
<polygon fill="white" stroke="#bfbfbf" points="319.67,-174 319.67,-193 388.67,-193 388.67,-174 319.67,-174"/>
<text text-anchor="middle" x="354.17" y="-181" font-family="Helvetica,sans-Serif" font-size="10.00">Eigen/Core</text>
</a>
</g>
</g>
<!-- Node7&#45;&gt;Node23 -->
<g id="edge27" class="edge">
<title>Node7&#45;&gt;Node23</title>
<path fill="none" stroke="midnightblue" d="M421.85,-235.48C409.3,-226.02 388.82,-210.6 373.67,-199.19"/>
<polygon fill="midnightblue" stroke="midnightblue" points="375.56,-196.23 365.47,-193.01 371.35,-201.82 375.56,-196.23"/>
</g>
<!-- Node8&#45;&gt;Node5 -->
<g id="edge26" class="edge">
<title>Node8&#45;&gt;Node5</title>
<path fill="none" stroke="midnightblue" d="M406.42,-169.49C403.3,-168.98 400.2,-168.48 397.17,-168 288.6,-150.77 258.45,-150.64 146.84,-132.22"/>
<polygon fill="midnightblue" stroke="midnightblue" points="147.31,-128.75 136.87,-130.56 146.16,-135.65 147.31,-128.75"/>
</g>
<!-- Node9 -->
<g id="node9" class="node">
<title>Node9</title>
<g id="a_node9"><a xlink:href="Data_8h.html" target="_top" xlink:title=" ">
<polygon fill="white" stroke="black" points="332.17,-112.5 332.17,-131.5 444.17,-131.5 444.17,-112.5 332.17,-112.5"/>
<text text-anchor="middle" x="388.17" y="-119.5" font-family="Helvetica,sans-Serif" font-size="10.00">BayesFilters/Data.h</text>
</a>
</g>
</g>
<!-- Node8&#45;&gt;Node9 -->
<g id="edge9" class="edge">
<title>Node8&#45;&gt;Node9</title>
<path fill="none" stroke="midnightblue" d="M458.37,-168.4C443.76,-158.95 424.6,-146.56 409.99,-137.11"/>
<polygon fill="midnightblue" stroke="midnightblue" points="411.86,-134.15 401.56,-131.66 408.05,-140.03 411.86,-134.15"/>
</g>
<!-- Node8&#45;&gt;Node12 -->
<g id="edge23" class="edge">
<title>Node8&#45;&gt;Node12</title>
<path fill="none" stroke="midnightblue" d="M553.92,-172.27C584.91,-165.06 619.8,-152.8 646.17,-132 680.63,-104.83 701.75,-55.97 711.24,-29.41"/>
<polygon fill="midnightblue" stroke="midnightblue" points="714.6,-30.41 714.51,-19.81 707.97,-28.15 714.6,-30.41"/>
</g>
<!-- Node16 -->
<g id="node16" class="node">
<title>Node16</title>
<g id="a_node16"><a xlink:href="Logger_8h.html" target="_top" xlink:title=" ">
<polygon fill="white" stroke="black" points="154.67,-112.5 154.67,-131.5 275.67,-131.5 275.67,-112.5 154.67,-112.5"/>
<text text-anchor="middle" x="215.17" y="-119.5" font-family="Helvetica,sans-Serif" font-size="10.00">BayesFilters/Logger.h</text>
</a>
</g>
</g>
<!-- Node8&#45;&gt;Node16 -->
<g id="edge16" class="edge">
<title>Node8&#45;&gt;Node16</title>
<path fill="none" stroke="midnightblue" d="M417.7,-168.47C370.39,-157.85 306.35,-143.47 263.05,-133.75"/>
<polygon fill="midnightblue" stroke="midnightblue" points="263.58,-130.28 253.06,-131.51 262.05,-137.11 263.58,-130.28"/>
</g>
<!-- Node19 -->
<g id="node19" class="node">
<title>Node19</title>
<g id="a_node19"><a xlink:title=" ">
<polygon fill="white" stroke="#bfbfbf" points="274.17,-56.5 274.17,-75.5 318.17,-75.5 318.17,-56.5 274.17,-56.5"/>
<text text-anchor="middle" x="296.17" y="-63.5" font-family="Helvetica,sans-Serif" font-size="10.00">string</text>
</a>
</g>
</g>
<!-- Node8&#45;&gt;Node19 -->
<g id="edge24" class="edge">
<title>Node8&#45;&gt;Node19</title>
<path fill="none" stroke="midnightblue" d="M418.88,-168.41C381.23,-158.71 337.55,-145.24 323.17,-132 309.99,-119.86 303.05,-100.31 299.53,-85.81"/>
<polygon fill="midnightblue" stroke="midnightblue" points="302.93,-84.99 297.45,-75.92 296.08,-86.42 302.93,-84.99"/>
</g>
<!-- Node20 -->
<g id="node20" class="node">
<title>Node20</title>
<g id="a_node20"><a xlink:href="VectorDescription_8h.html" target="_top" xlink:title=" ">
<polygon fill="white" stroke="black" points="462.67,-112.5 462.67,-131.5 637.67,-131.5 637.67,-112.5 462.67,-112.5"/>
<text text-anchor="middle" x="550.17" y="-119.5" font-family="Helvetica,sans-Serif" font-size="10.00">BayesFilters/VectorDescription.h</text>
</a>
</g>
</g>
<!-- Node8&#45;&gt;Node20 -->
<g id="edge21" class="edge">
<title>Node8&#45;&gt;Node20</title>
<path fill="none" stroke="midnightblue" d="M496.76,-168.4C507.46,-159.31 521.36,-147.49 532.3,-138.19"/>
<polygon fill="midnightblue" stroke="midnightblue" points="534.63,-140.8 539.98,-131.66 530.1,-135.47 534.63,-140.8"/>
</g>
<!-- Node8&#45;&gt;Node22 -->
<g id="edge25" class="edge">
<title>Node8&#45;&gt;Node22</title>
<path fill="none" stroke="midnightblue" d="M536.04,-168.47C582.19,-156.89 646.15,-140.83 684.41,-131.22"/>
<polygon fill="midnightblue" stroke="midnightblue" points="685.64,-134.52 694.49,-128.69 683.94,-127.73 685.64,-134.52"/>
</g>
<!-- Node10 -->
<g id="node10" class="node">
<title>Node10</title>
<g id="a_node10"><a xlink:href="any_8h.html" target="_top" xlink:title=" ">
<polygon fill="white" stroke="black" points="342.67,-56.5 342.67,-75.5 447.67,-75.5 447.67,-56.5 342.67,-56.5"/>
<text text-anchor="middle" x="395.17" y="-63.5" font-family="Helvetica,sans-Serif" font-size="10.00">BayesFilters/any.h</text>
</a>
</g>
</g>
<!-- Node9&#45;&gt;Node10 -->
<g id="edge10" class="edge">
<title>Node9&#45;&gt;Node10</title>
<path fill="none" stroke="midnightblue" d="M389.33,-112.08C390.25,-104.93 391.59,-94.64 392.75,-85.69"/>
<polygon fill="midnightblue" stroke="midnightblue" points="396.22,-86.12 394.04,-75.75 389.28,-85.22 396.22,-86.12"/>
</g>
<!-- Node11 -->
<g id="node11" class="node">
<title>Node11</title>
<g id="a_node11"><a xlink:title=" ">
<polygon fill="white" stroke="#bfbfbf" points="406.17,-0.5 406.17,-19.5 470.17,-19.5 470.17,-0.5 406.17,-0.5"/>
<text text-anchor="middle" x="438.17" y="-7.5" font-family="Helvetica,sans-Serif" font-size="10.00">algorithm</text>
</a>
</g>
</g>
<!-- Node10&#45;&gt;Node11 -->
<g id="edge11" class="edge">
<title>Node10&#45;&gt;Node11</title>
<path fill="none" stroke="midnightblue" d="M402.27,-56.08C408.41,-48.38 417.44,-37.03 424.91,-27.65"/>
<polygon fill="midnightblue" stroke="midnightblue" points="427.71,-29.75 431.2,-19.75 422.23,-25.39 427.71,-29.75"/>
</g>
<!-- Node10&#45;&gt;Node12 -->
<g id="edge12" class="edge">
<title>Node10&#45;&gt;Node12</title>
<path fill="none" stroke="midnightblue" d="M446.19,-56.44C510.6,-45.64 619.99,-27.3 678.13,-17.55"/>
<polygon fill="midnightblue" stroke="midnightblue" points="678.74,-20.99 688.03,-15.89 677.58,-14.09 678.74,-20.99"/>
</g>
<!-- Node13 -->
<g id="node13" class="node">
<title>Node13</title>
<g id="a_node13"><a xlink:title=" ">
<polygon fill="white" stroke="#bfbfbf" points="488.67,-0.5 488.67,-19.5 553.67,-19.5 553.67,-0.5 488.67,-0.5"/>
<text text-anchor="middle" x="521.17" y="-7.5" font-family="Helvetica,sans-Serif" font-size="10.00">stdexcept</text>
</a>
</g>
</g>
<!-- Node10&#45;&gt;Node13 -->
<g id="edge13" class="edge">
<title>Node10&#45;&gt;Node13</title>
<path fill="none" stroke="midnightblue" d="M415.14,-56.44C435.78,-47.6 468.23,-33.69 491.8,-23.59"/>
<polygon fill="midnightblue" stroke="midnightblue" points="493.49,-26.67 501.3,-19.52 490.73,-20.24 493.49,-26.67"/>
</g>
<!-- Node14 -->
<g id="node14" class="node">
<title>Node14</title>
<g id="a_node14"><a xlink:title=" ">
<polygon fill="white" stroke="#bfbfbf" points="243.67,-0.5 243.67,-19.5 300.67,-19.5 300.67,-0.5 243.67,-0.5"/>
<text text-anchor="middle" x="272.17" y="-7.5" font-family="Helvetica,sans-Serif" font-size="10.00">typeinfo</text>
</a>
</g>
</g>
<!-- Node10&#45;&gt;Node14 -->
<g id="edge14" class="edge">
<title>Node10&#45;&gt;Node14</title>
<path fill="none" stroke="midnightblue" d="M375.68,-56.44C355.53,-47.6 323.85,-33.69 300.84,-23.59"/>
<polygon fill="midnightblue" stroke="midnightblue" points="302.13,-20.33 291.57,-19.52 299.32,-26.74 302.13,-20.33"/>
</g>
<!-- Node15 -->
<g id="node15" class="node">
<title>Node15</title>
<g id="a_node15"><a xlink:title=" ">
<polygon fill="white" stroke="#bfbfbf" points="318.67,-0.5 318.67,-19.5 387.67,-19.5 387.67,-0.5 318.67,-0.5"/>
<text text-anchor="middle" x="353.17" y="-7.5" font-family="Helvetica,sans-Serif" font-size="10.00">type_traits</text>
</a>
</g>
</g>
<!-- Node10&#45;&gt;Node15 -->
<g id="edge15" class="edge">
<title>Node10&#45;&gt;Node15</title>
<path fill="none" stroke="midnightblue" d="M388.24,-56.08C382.24,-48.38 373.42,-37.03 366.12,-27.65"/>
<polygon fill="midnightblue" stroke="midnightblue" points="368.88,-25.5 359.98,-19.75 363.35,-29.79 368.88,-25.5"/>
</g>
<!-- Node16&#45;&gt;Node4 -->
<g id="edge20" class="edge">
<title>Node16&#45;&gt;Node4</title>
<path fill="none" stroke="midnightblue" d="M186.02,-112.44C153,-102.75 99.29,-86.99 64.6,-76.81"/>
<polygon fill="midnightblue" stroke="midnightblue" points="65.5,-73.43 54.92,-73.97 63.53,-80.15 65.5,-73.43"/>
</g>
<!-- Node17 -->
<g id="node17" class="node">
<title>Node17</title>
<g id="a_node17"><a xlink:title=" ">
<polygon fill="white" stroke="#bfbfbf" points="190.67,-56.5 190.67,-75.5 245.67,-75.5 245.67,-56.5 190.67,-56.5"/>
<text text-anchor="middle" x="218.17" y="-63.5" font-family="Helvetica,sans-Serif" font-size="10.00">fstream</text>
</a>
</g>
</g>
<!-- Node16&#45;&gt;Node17 -->
<g id="edge17" class="edge">
<title>Node16&#45;&gt;Node17</title>
<path fill="none" stroke="midnightblue" d="M215.67,-112.08C216.06,-105.01 216.62,-94.86 217.12,-85.99"/>
<polygon fill="midnightblue" stroke="midnightblue" points="220.62,-85.93 217.68,-75.75 213.63,-85.54 220.62,-85.93"/>
</g>
<!-- Node18 -->
<g id="node18" class="node">
<title>Node18</title>
<g id="a_node18"><a xlink:title=" ">
<polygon fill="white" stroke="#bfbfbf" points="112.17,-56.5 112.17,-75.5 172.17,-75.5 172.17,-56.5 112.17,-56.5"/>
<text text-anchor="middle" x="142.17" y="-63.5" font-family="Helvetica,sans-Serif" font-size="10.00">iostream</text>
</a>
</g>
</g>
<!-- Node16&#45;&gt;Node18 -->
<g id="edge18" class="edge">
<title>Node16&#45;&gt;Node18</title>
<path fill="none" stroke="midnightblue" d="M203.44,-112.32C192.33,-104.11 175.43,-91.6 162.19,-81.81"/>
<polygon fill="midnightblue" stroke="midnightblue" points="164.23,-78.97 154.11,-75.83 160.07,-84.59 164.23,-78.97"/>
</g>
<!-- Node16&#45;&gt;Node19 -->
<g id="edge19" class="edge">
<title>Node16&#45;&gt;Node19</title>
<path fill="none" stroke="midnightblue" d="M228.18,-112.32C240.7,-103.98 259.85,-91.21 274.64,-81.35"/>
<polygon fill="midnightblue" stroke="midnightblue" points="276.81,-84.11 283.19,-75.65 272.93,-78.29 276.81,-84.11"/>
</g>
<!-- Node21 -->
<g id="node21" class="node">
<title>Node21</title>
<g id="a_node21"><a xlink:title=" ">
<polygon fill="white" stroke="#bfbfbf" points="523.67,-56.5 523.67,-75.5 576.67,-75.5 576.67,-56.5 523.67,-56.5"/>
<text text-anchor="middle" x="550.17" y="-63.5" font-family="Helvetica,sans-Serif" font-size="10.00">cstddef</text>
</a>
</g>
</g>
<!-- Node20&#45;&gt;Node21 -->
<g id="edge22" class="edge">
<title>Node20&#45;&gt;Node21</title>
<path fill="none" stroke="midnightblue" d="M550.17,-112.08C550.17,-105.01 550.17,-94.86 550.17,-85.99"/>
<polygon fill="midnightblue" stroke="midnightblue" points="553.67,-85.75 550.17,-75.75 546.67,-85.75 553.67,-85.75"/>
</g>
</g>
</svg>
