<?xml version="1.0" encoding="UTF-8" standalone="no"?>
<!DOCTYPE svg PUBLIC "-//W3C//DTD SVG 1.1//EN"
 "http://www.w3.org/Graphics/SVG/1.1/DTD/svg11.dtd">
<!-- Generated by graphviz version 2.47.2 (0)
 -->
<!-- Title: /home/xenvre/robot&#45;code/bfl_robotology/src/BayesFilters/src/BootstrapCorrection.cpp Pages: 1 -->
<svg width="917pt" height="464pt"
 viewBox="0.00 0.00 917.00 464.00" xmlns="http://www.w3.org/2000/svg" xmlns:xlink="http://www.w3.org/1999/xlink">
<g id="graph0" class="graph" transform="scale(1 1) rotate(0) translate(4 460)">
<title>/home/xenvre/robot&#45;code/bfl_robotology/src/BayesFilters/src/BootstrapCorrection.cpp</title>
<polygon fill="white" stroke="transparent" points="-4,4 -4,-460 913,-460 913,4 -4,4"/>
<!-- Node1 -->
<g id="node1" class="node">
<title>Node1</title>
<g id="a_node1"><a xlink:title=" ">
<polygon fill="#bfbfbf" stroke="black" points="774.5,-403.5 774.5,-455.5 899.5,-455.5 899.5,-403.5 774.5,-403.5"/>
<text text-anchor="start" x="782.5" y="-443.5" font-family="Helvetica,sans-Serif" font-size="10.00">/home/xenvre/robot</text>
<text text-anchor="start" x="782.5" y="-432.5" font-family="Helvetica,sans-Serif" font-size="10.00">&#45;code/bfl_robotology</text>
<text text-anchor="start" x="782.5" y="-421.5" font-family="Helvetica,sans-Serif" font-size="10.00">/src/BayesFilters/src</text>
<text text-anchor="middle" x="837" y="-410.5" font-family="Helvetica,sans-Serif" font-size="10.00">/BootstrapCorrection.cpp</text>
</a>
</g>
</g>
<!-- Node2 -->
<g id="node2" class="node">
<title>Node2</title>
<g id="a_node2"><a xlink:href="BootstrapCorrection_8h.html" target="_top" xlink:title=" ">
<polygon fill="white" stroke="black" points="639,-347.5 639,-366.5 809,-366.5 809,-347.5 639,-347.5"/>
<text text-anchor="middle" x="724" y="-354.5" font-family="Helvetica,sans-Serif" font-size="10.00">BayesFilters/BootstrapCorrection.h</text>
</a>
</g>
</g>
<!-- Node1&#45;&gt;Node2 -->
<g id="edge1" class="edge">
<title>Node1&#45;&gt;Node2</title>
<path fill="none" stroke="midnightblue" d="M796.84,-403.45C779.88,-392.86 760.76,-380.94 746.37,-371.96"/>
<polygon fill="midnightblue" stroke="midnightblue" points="748,-368.85 737.67,-366.53 744.3,-374.79 748,-368.85"/>
</g>
<!-- Node21 -->
<g id="node21" class="node">
<title>Node21</title>
<g id="a_node21"><a xlink:title=" ">
<polygon fill="white" stroke="#bfbfbf" points="663,-112.5 663,-131.5 703,-131.5 703,-112.5 663,-112.5"/>
<text text-anchor="middle" x="683" y="-119.5" font-family="Helvetica,sans-Serif" font-size="10.00">utility</text>
</a>
</g>
</g>
<!-- Node1&#45;&gt;Node21 -->
<g id="edge35" class="edge">
<title>Node1&#45;&gt;Node21</title>
<path fill="none" stroke="midnightblue" d="M837,-403.3C837,-377.77 837,-337.14 837,-302 837,-302 837,-302 837,-244 837,-181.54 757.71,-146.42 712.92,-131.56"/>
<polygon fill="midnightblue" stroke="midnightblue" points="713.72,-128.14 703.13,-128.45 711.6,-134.81 713.72,-128.14"/>
</g>
<!-- Node24 -->
<g id="node24" class="node">
<title>Node24</title>
<g id="a_node24"><a xlink:title=" ">
<polygon fill="white" stroke="#bfbfbf" points="865,-347.5 865,-366.5 909,-366.5 909,-347.5 865,-347.5"/>
<text text-anchor="middle" x="887" y="-354.5" font-family="Helvetica,sans-Serif" font-size="10.00">cmath</text>
</a>
</g>
</g>
<!-- Node1&#45;&gt;Node24 -->
<g id="edge34" class="edge">
<title>Node1&#45;&gt;Node24</title>
<path fill="none" stroke="midnightblue" d="M854.77,-403.45C861.45,-394.03 868.88,-383.55 874.92,-375.03"/>
<polygon fill="midnightblue" stroke="midnightblue" points="877.9,-376.88 880.83,-366.7 872.19,-372.83 877.9,-376.88"/>
</g>
<!-- Node3 -->
<g id="node3" class="node">
<title>Node3</title>
<g id="a_node3"><a xlink:href="ParticleSet_8h.html" target="_top" xlink:title=" ">
<polygon fill="white" stroke="black" points="134.5,-235.5 134.5,-254.5 265.5,-254.5 265.5,-235.5 134.5,-235.5"/>
<text text-anchor="middle" x="200" y="-242.5" font-family="Helvetica,sans-Serif" font-size="10.00">BayesFilters/ParticleSet.h</text>
</a>
</g>
</g>
<!-- Node2&#45;&gt;Node3 -->
<g id="edge2" class="edge">
<title>Node2&#45;&gt;Node3</title>
<path fill="none" stroke="midnightblue" d="M662.95,-347.48C607.63,-339.38 524,-326.21 452,-311 376.11,-294.97 288.68,-271.21 239.31,-257.29"/>
<polygon fill="midnightblue" stroke="midnightblue" points="240.24,-253.92 229.67,-254.56 238.34,-260.65 240.24,-253.92"/>
</g>
<!-- Node7 -->
<g id="node7" class="node">
<title>Node7</title>
<g id="a_node7"><a xlink:href="PFCorrection_8h.html" target="_top" xlink:title=" ">
<polygon fill="white" stroke="black" points="461,-291.5 461,-310.5 601,-310.5 601,-291.5 461,-291.5"/>
<text text-anchor="middle" x="531" y="-298.5" font-family="Helvetica,sans-Serif" font-size="10.00">BayesFilters/PFCorrection.h</text>
</a>
</g>
</g>
<!-- Node2&#45;&gt;Node7 -->
<g id="edge7" class="edge">
<title>Node2&#45;&gt;Node7</title>
<path fill="none" stroke="midnightblue" d="M693.42,-347.44C660.39,-338.2 607.61,-323.44 571.23,-313.26"/>
<polygon fill="midnightblue" stroke="midnightblue" points="572.01,-309.84 561.44,-310.52 570.13,-316.58 572.01,-309.84"/>
</g>
<!-- Node13 -->
<g id="node13" class="node">
<title>Node13</title>
<g id="a_node13"><a xlink:title=" ">
<polygon fill="white" stroke="#bfbfbf" points="546,-0.5 546,-19.5 598,-19.5 598,-0.5 546,-0.5"/>
<text text-anchor="middle" x="572" y="-7.5" font-family="Helvetica,sans-Serif" font-size="10.00">memory</text>
</a>
</g>
</g>
<!-- Node2&#45;&gt;Node13 -->
<g id="edge32" class="edge">
<title>Node2&#45;&gt;Node13</title>
<path fill="none" stroke="midnightblue" d="M724.92,-347.45C726.81,-328.97 731,-283.89 731,-246 731,-246 731,-246 731,-121 731,-61.58 654.98,-31.74 608.07,-18.98"/>
<polygon fill="midnightblue" stroke="midnightblue" points="608.81,-15.56 598.26,-16.45 607.06,-22.34 608.81,-15.56"/>
</g>
<!-- Node23 -->
<g id="node23" class="node">
<title>Node23</title>
<g id="a_node23"><a xlink:title=" ">
<polygon fill="white" stroke="#bfbfbf" points="759.5,-291.5 759.5,-310.5 808.5,-310.5 808.5,-291.5 759.5,-291.5"/>
<text text-anchor="middle" x="784" y="-298.5" font-family="Helvetica,sans-Serif" font-size="10.00">random</text>
</a>
</g>
</g>
<!-- Node2&#45;&gt;Node23 -->
<g id="edge33" class="edge">
<title>Node2&#45;&gt;Node23</title>
<path fill="none" stroke="midnightblue" d="M733.64,-347.32C742.51,-339.34 755.87,-327.31 766.61,-317.65"/>
<polygon fill="midnightblue" stroke="midnightblue" points="769.09,-320.13 774.18,-310.83 764.41,-314.92 769.09,-320.13"/>
</g>
<!-- Node4 -->
<g id="node4" class="node">
<title>Node4</title>
<g id="a_node4"><a xlink:href="GaussianMixture_8h.html" target="_top" xlink:title=" ">
<polygon fill="white" stroke="black" points="0,-174 0,-193 156,-193 156,-174 0,-174"/>
<text text-anchor="middle" x="78" y="-181" font-family="Helvetica,sans-Serif" font-size="10.00">BayesFilters/GaussianMixture.h</text>
</a>
</g>
</g>
<!-- Node3&#45;&gt;Node4 -->
<g id="edge3" class="edge">
<title>Node3&#45;&gt;Node4</title>
<path fill="none" stroke="midnightblue" d="M182.52,-235.48C162.14,-225.53 128.22,-208.99 104.58,-197.46"/>
<polygon fill="midnightblue" stroke="midnightblue" points="105.97,-194.25 95.45,-193.01 102.9,-200.54 105.97,-194.25"/>
</g>
<!-- Node5 -->
<g id="node5" class="node">
<title>Node5</title>
<g id="a_node5"><a xlink:title=" ">
<polygon fill="white" stroke="#bfbfbf" points="154,-56.5 154,-75.5 198,-75.5 198,-56.5 154,-56.5"/>
<text text-anchor="middle" x="176" y="-63.5" font-family="Helvetica,sans-Serif" font-size="10.00">vector</text>
</a>
</g>
</g>
<!-- Node3&#45;&gt;Node5 -->
<g id="edge6" class="edge">
<title>Node3&#45;&gt;Node5</title>
<path fill="none" stroke="midnightblue" d="M198.84,-235.46C195.18,-208.43 183.76,-124.24 178.59,-86.11"/>
<polygon fill="midnightblue" stroke="midnightblue" points="182.01,-85.31 177.2,-75.87 175.08,-86.25 182.01,-85.31"/>
</g>
<!-- Node4&#45;&gt;Node5 -->
<g id="edge4" class="edge">
<title>Node4&#45;&gt;Node5</title>
<path fill="none" stroke="midnightblue" d="M85.37,-173.82C101.61,-154.67 140.75,-108.54 161.89,-83.63"/>
<polygon fill="midnightblue" stroke="midnightblue" points="164.75,-85.67 168.55,-75.78 159.41,-81.14 164.75,-85.67"/>
</g>
<!-- Node6 -->
<g id="node6" class="node">
<title>Node6</title>
<g id="a_node6"><a xlink:title=" ">
<polygon fill="white" stroke="#bfbfbf" points="204.5,-112.5 204.5,-131.5 277.5,-131.5 277.5,-112.5 204.5,-112.5"/>
<text text-anchor="middle" x="241" y="-119.5" font-family="Helvetica,sans-Serif" font-size="10.00">Eigen/Dense</text>
</a>
</g>
</g>
<!-- Node4&#45;&gt;Node6 -->
<g id="edge5" class="edge">
<title>Node4&#45;&gt;Node6</title>
<path fill="none" stroke="midnightblue" d="M101.35,-173.98C129.31,-163.77 176.33,-146.61 207.99,-135.05"/>
<polygon fill="midnightblue" stroke="midnightblue" points="209.5,-138.23 217.69,-131.51 207.1,-131.65 209.5,-138.23"/>
</g>
<!-- Node7&#45;&gt;Node3 -->
<g id="edge28" class="edge">
<title>Node7&#45;&gt;Node3</title>
<path fill="none" stroke="midnightblue" d="M478.55,-291.44C419.84,-281.87 324.77,-266.36 262.32,-256.17"/>
<polygon fill="midnightblue" stroke="midnightblue" points="262.64,-252.67 252.2,-254.52 261.51,-259.58 262.64,-252.67"/>
</g>
<!-- Node7&#45;&gt;Node6 -->
<g id="edge31" class="edge">
<title>Node7&#45;&gt;Node6</title>
<path fill="none" stroke="midnightblue" d="M509.21,-291.41C488.78,-283.06 457.62,-269.52 432,-255 366.01,-217.59 293.83,-163.85 260.22,-138.01"/>
<polygon fill="midnightblue" stroke="midnightblue" points="262.21,-135.13 252.16,-131.78 257.93,-140.66 262.21,-135.13"/>
</g>
<!-- Node8 -->
<g id="node8" class="node">
<title>Node8</title>
<g id="a_node8"><a xlink:href="LikelihoodModel_8h.html" target="_top" xlink:title=" ">
<polygon fill="white" stroke="black" points="455,-235.5 455,-254.5 607,-254.5 607,-235.5 455,-235.5"/>
<text text-anchor="middle" x="531" y="-242.5" font-family="Helvetica,sans-Serif" font-size="10.00">BayesFilters/LikelihoodModel.h</text>
</a>
</g>
</g>
<!-- Node7&#45;&gt;Node8 -->
<g id="edge8" class="edge">
<title>Node7&#45;&gt;Node8</title>
<path fill="none" stroke="midnightblue" d="M531,-291.08C531,-284.01 531,-273.86 531,-264.99"/>
<polygon fill="midnightblue" stroke="midnightblue" points="534.5,-264.75 531,-254.75 527.5,-264.75 534.5,-264.75"/>
</g>
<!-- Node9 -->
<g id="node9" class="node">
<title>Node9</title>
<g id="a_node9"><a xlink:href="MeasurementModel_8h.html" target="_top" xlink:title=" ">
<polygon fill="white" stroke="black" points="361,-168.5 361,-198.5 495,-198.5 495,-168.5 361,-168.5"/>
<text text-anchor="start" x="369" y="-186.5" font-family="Helvetica,sans-Serif" font-size="10.00">BayesFilters/Measurement</text>
<text text-anchor="middle" x="428" y="-175.5" font-family="Helvetica,sans-Serif" font-size="10.00">Model.h</text>
</a>
</g>
</g>
<!-- Node7&#45;&gt;Node9 -->
<g id="edge27" class="edge">
<title>Node7&#45;&gt;Node9</title>
<path fill="none" stroke="midnightblue" d="M501.74,-291.37C483.16,-284.43 460.05,-272.84 446,-255 435.73,-241.95 431.26,-223.71 429.34,-209.05"/>
<polygon fill="midnightblue" stroke="midnightblue" points="432.78,-208.29 428.32,-198.68 425.82,-208.98 432.78,-208.29"/>
</g>
<!-- Node7&#45;&gt;Node13 -->
<g id="edge29" class="edge">
<title>Node7&#45;&gt;Node13</title>
<path fill="none" stroke="midnightblue" d="M562.85,-291.43C581.49,-284.68 603.7,-273.29 616,-255 640.78,-218.15 654.17,-95.56 634,-56 627,-42.27 613.63,-31.75 601.1,-24.35"/>
<polygon fill="midnightblue" stroke="midnightblue" points="602.68,-21.22 592.22,-19.51 599.33,-27.37 602.68,-21.22"/>
</g>
<!-- Node7&#45;&gt;Node21 -->
<g id="edge30" class="edge">
<title>Node7&#45;&gt;Node21</title>
<path fill="none" stroke="midnightblue" d="M582.77,-291.44C606.01,-285.08 631.98,-274.05 649,-255 677.69,-222.9 682.77,-169.76 683.31,-141.69"/>
<polygon fill="midnightblue" stroke="midnightblue" points="686.81,-141.65 683.33,-131.64 679.81,-141.64 686.81,-141.65"/>
</g>
<!-- Node8&#45;&gt;Node9 -->
<g id="edge9" class="edge">
<title>Node8&#45;&gt;Node9</title>
<path fill="none" stroke="midnightblue" d="M516.24,-235.48C501.9,-227.19 479.63,-214.32 461.05,-203.59"/>
<polygon fill="midnightblue" stroke="midnightblue" points="462.68,-200.49 452.28,-198.52 459.18,-206.56 462.68,-200.49"/>
</g>
<!-- Node22 -->
<g id="node22" class="node">
<title>Node22</title>
<g id="a_node22"><a xlink:title=" ">
<polygon fill="white" stroke="#bfbfbf" points="513.5,-174 513.5,-193 578.5,-193 578.5,-174 513.5,-174"/>
<text text-anchor="middle" x="546" y="-181" font-family="Helvetica,sans-Serif" font-size="10.00">Eigen/Core</text>
</a>
</g>
</g>
<!-- Node8&#45;&gt;Node22 -->
<g id="edge26" class="edge">
<title>Node8&#45;&gt;Node22</title>
<path fill="none" stroke="midnightblue" d="M533.15,-235.48C535.29,-226.99 538.64,-213.7 541.38,-202.82"/>
<polygon fill="midnightblue" stroke="midnightblue" points="544.8,-203.56 543.85,-193.01 538.02,-201.85 544.8,-203.56"/>
</g>
<!-- Node9&#45;&gt;Node6 -->
<g id="edge25" class="edge">
<title>Node9&#45;&gt;Node6</title>
<path fill="none" stroke="midnightblue" d="M383.68,-168.4C351.37,-158.12 308.1,-144.35 277.71,-134.68"/>
<polygon fill="midnightblue" stroke="midnightblue" points="278.53,-131.27 267.94,-131.57 276.41,-137.94 278.53,-131.27"/>
</g>
<!-- Node10 -->
<g id="node10" class="node">
<title>Node10</title>
<g id="a_node10"><a xlink:href="Data_8h.html" target="_top" xlink:title=" ">
<polygon fill="white" stroke="black" points="296,-112.5 296,-131.5 400,-131.5 400,-112.5 296,-112.5"/>
<text text-anchor="middle" x="348" y="-119.5" font-family="Helvetica,sans-Serif" font-size="10.00">BayesFilters/Data.h</text>
</a>
</g>
</g>
<!-- Node9&#45;&gt;Node10 -->
<g id="edge10" class="edge">
<title>Node9&#45;&gt;Node10</title>
<path fill="none" stroke="midnightblue" d="M409.04,-168.4C396.58,-159.13 380.3,-147.03 367.69,-137.65"/>
<polygon fill="midnightblue" stroke="midnightblue" points="369.75,-134.82 359.64,-131.66 365.58,-140.43 369.75,-134.82"/>
</g>
<!-- Node9&#45;&gt;Node13 -->
<g id="edge22" class="edge">
<title>Node9&#45;&gt;Node13</title>
<path fill="none" stroke="midnightblue" d="M424.08,-168.22C418.03,-142.78 409.56,-89.16 435,-56 458.55,-25.3 503.59,-15.27 535.59,-12.14"/>
<polygon fill="midnightblue" stroke="midnightblue" points="536.2,-15.6 545.89,-11.32 535.65,-8.62 536.2,-15.6"/>
</g>
<!-- Node17 -->
<g id="node17" class="node">
<title>Node17</title>
<g id="a_node17"><a xlink:href="Logger_8h.html" target="_top" xlink:title=" ">
<polygon fill="white" stroke="black" points="456.5,-112.5 456.5,-131.5 567.5,-131.5 567.5,-112.5 456.5,-112.5"/>
<text text-anchor="middle" x="512" y="-119.5" font-family="Helvetica,sans-Serif" font-size="10.00">BayesFilters/Logger.h</text>
</a>
</g>
</g>
<!-- Node9&#45;&gt;Node17 -->
<g id="edge17" class="edge">
<title>Node9&#45;&gt;Node17</title>
<path fill="none" stroke="midnightblue" d="M447.91,-168.4C460.99,-159.13 478.08,-147.03 491.32,-137.65"/>
<polygon fill="midnightblue" stroke="midnightblue" points="493.64,-140.29 499.78,-131.66 489.59,-134.58 493.64,-140.29"/>
</g>
<!-- Node20 -->
<g id="node20" class="node">
<title>Node20</title>
<g id="a_node20"><a xlink:title=" ">
<polygon fill="white" stroke="#bfbfbf" points="584.5,-56.5 584.5,-75.5 625.5,-75.5 625.5,-56.5 584.5,-56.5"/>
<text text-anchor="middle" x="605" y="-63.5" font-family="Helvetica,sans-Serif" font-size="10.00">string</text>
</a>
</g>
</g>
<!-- Node9&#45;&gt;Node20 -->
<g id="edge23" class="edge">
<title>Node9&#45;&gt;Node20</title>
<path fill="none" stroke="midnightblue" d="M483.75,-168.47C519.63,-158.52 562.07,-144.72 576,-132 589.38,-119.78 596.95,-100.24 600.97,-85.77"/>
<polygon fill="midnightblue" stroke="midnightblue" points="604.41,-86.44 603.39,-75.89 597.61,-84.77 604.41,-86.44"/>
</g>
<!-- Node9&#45;&gt;Node21 -->
<g id="edge24" class="edge">
<title>Node9&#45;&gt;Node21</title>
<path fill="none" stroke="midnightblue" d="M488.11,-168.47C539.99,-156.37 612.76,-139.39 653.1,-129.98"/>
<polygon fill="midnightblue" stroke="midnightblue" points="653.92,-133.38 662.86,-127.7 652.32,-126.56 653.92,-133.38"/>
</g>
<!-- Node11 -->
<g id="node11" class="node">
<title>Node11</title>
<g id="a_node11"><a xlink:href="any_8h.html" target="_top" xlink:title=" ">
<polygon fill="white" stroke="black" points="290.5,-56.5 290.5,-75.5 387.5,-75.5 387.5,-56.5 290.5,-56.5"/>
<text text-anchor="middle" x="339" y="-63.5" font-family="Helvetica,sans-Serif" font-size="10.00">BayesFilters/any.h</text>
</a>
</g>
</g>
<!-- Node10&#45;&gt;Node11 -->
<g id="edge11" class="edge">
<title>Node10&#45;&gt;Node11</title>
<path fill="none" stroke="midnightblue" d="M346.51,-112.08C345.32,-104.93 343.61,-94.64 342.12,-85.69"/>
<polygon fill="midnightblue" stroke="midnightblue" points="345.55,-85.04 340.46,-75.75 338.65,-86.19 345.55,-85.04"/>
</g>
<!-- Node12 -->
<g id="node12" class="node">
<title>Node12</title>
<g id="a_node12"><a xlink:title=" ">
<polygon fill="white" stroke="#bfbfbf" points="199,-0.5 199,-19.5 255,-19.5 255,-0.5 199,-0.5"/>
<text text-anchor="middle" x="227" y="-7.5" font-family="Helvetica,sans-Serif" font-size="10.00">algorithm</text>
</a>
</g>
</g>
<!-- Node11&#45;&gt;Node12 -->
<g id="edge12" class="edge">
<title>Node11&#45;&gt;Node12</title>
<path fill="none" stroke="midnightblue" d="M321.01,-56.32C302.96,-47.62 274.95,-34.12 254.2,-24.11"/>
<polygon fill="midnightblue" stroke="midnightblue" points="255.48,-20.84 244.95,-19.65 252.44,-27.15 255.48,-20.84"/>
</g>
<!-- Node11&#45;&gt;Node13 -->
<g id="edge13" class="edge">
<title>Node11&#45;&gt;Node13</title>
<path fill="none" stroke="midnightblue" d="M375.92,-56.44C419.76,-46.28 492.39,-29.45 535.87,-19.37"/>
<polygon fill="midnightblue" stroke="midnightblue" points="536.79,-22.75 545.74,-17.09 535.21,-15.93 536.79,-22.75"/>
</g>
<!-- Node14 -->
<g id="node14" class="node">
<title>Node14</title>
<g id="a_node14"><a xlink:title=" ">
<polygon fill="white" stroke="#bfbfbf" points="273.5,-0.5 273.5,-19.5 332.5,-19.5 332.5,-0.5 273.5,-0.5"/>
<text text-anchor="middle" x="303" y="-7.5" font-family="Helvetica,sans-Serif" font-size="10.00">stdexcept</text>
</a>
</g>
</g>
<!-- Node11&#45;&gt;Node14 -->
<g id="edge14" class="edge">
<title>Node11&#45;&gt;Node14</title>
<path fill="none" stroke="midnightblue" d="M333.06,-56.08C328.02,-48.53 320.66,-37.49 314.49,-28.23"/>
<polygon fill="midnightblue" stroke="midnightblue" points="317.29,-26.13 308.83,-19.75 311.47,-30.01 317.29,-26.13"/>
</g>
<!-- Node15 -->
<g id="node15" class="node">
<title>Node15</title>
<g id="a_node15"><a xlink:title=" ">
<polygon fill="white" stroke="#bfbfbf" points="350.5,-0.5 350.5,-19.5 401.5,-19.5 401.5,-0.5 350.5,-0.5"/>
<text text-anchor="middle" x="376" y="-7.5" font-family="Helvetica,sans-Serif" font-size="10.00">typeinfo</text>
</a>
</g>
</g>
<!-- Node11&#45;&gt;Node15 -->
<g id="edge15" class="edge">
<title>Node11&#45;&gt;Node15</title>
<path fill="none" stroke="midnightblue" d="M345.11,-56.08C350.28,-48.53 357.85,-37.49 364.19,-28.23"/>
<polygon fill="midnightblue" stroke="midnightblue" points="367.24,-29.98 370,-19.75 361.46,-26.02 367.24,-29.98"/>
</g>
<!-- Node16 -->
<g id="node16" class="node">
<title>Node16</title>
<g id="a_node16"><a xlink:title=" ">
<polygon fill="white" stroke="#bfbfbf" points="420,-0.5 420,-19.5 482,-19.5 482,-0.5 420,-0.5"/>
<text text-anchor="middle" x="451" y="-7.5" font-family="Helvetica,sans-Serif" font-size="10.00">type_traits</text>
</a>
</g>
</g>
<!-- Node11&#45;&gt;Node16 -->
<g id="edge16" class="edge">
<title>Node11&#45;&gt;Node16</title>
<path fill="none" stroke="midnightblue" d="M356.99,-56.32C375.04,-47.62 403.05,-34.12 423.8,-24.11"/>
<polygon fill="midnightblue" stroke="midnightblue" points="425.56,-27.15 433.05,-19.65 422.52,-20.84 425.56,-27.15"/>
</g>
<!-- Node17&#45;&gt;Node5 -->
<g id="edge21" class="edge">
<title>Node17&#45;&gt;Node5</title>
<path fill="none" stroke="midnightblue" d="M458.76,-112.44C388.21,-101.1 265.93,-81.45 208.09,-72.16"/>
<polygon fill="midnightblue" stroke="midnightblue" points="208.5,-68.68 198.07,-70.55 207.39,-75.59 208.5,-68.68"/>
</g>
<!-- Node18 -->
<g id="node18" class="node">
<title>Node18</title>
<g id="a_node18"><a xlink:title=" ">
<polygon fill="white" stroke="#bfbfbf" points="444,-56.5 444,-75.5 494,-75.5 494,-56.5 444,-56.5"/>
<text text-anchor="middle" x="469" y="-63.5" font-family="Helvetica,sans-Serif" font-size="10.00">fstream</text>
</a>
</g>
</g>
<!-- Node17&#45;&gt;Node18 -->
<g id="edge18" class="edge">
<title>Node17&#45;&gt;Node18</title>
<path fill="none" stroke="midnightblue" d="M504.9,-112.08C498.76,-104.38 489.73,-93.03 482.26,-83.65"/>
<polygon fill="midnightblue" stroke="midnightblue" points="484.94,-81.39 475.97,-75.75 479.46,-85.75 484.94,-81.39"/>
</g>
<!-- Node19 -->
<g id="node19" class="node">
<title>Node19</title>
<g id="a_node19"><a xlink:title=" ">
<polygon fill="white" stroke="#bfbfbf" points="512,-56.5 512,-75.5 566,-75.5 566,-56.5 512,-56.5"/>
<text text-anchor="middle" x="539" y="-63.5" font-family="Helvetica,sans-Serif" font-size="10.00">iostream</text>
</a>
</g>
</g>
<!-- Node17&#45;&gt;Node19 -->
<g id="edge19" class="edge">
<title>Node17&#45;&gt;Node19</title>
<path fill="none" stroke="midnightblue" d="M516.46,-112.08C520.15,-104.69 525.52,-93.95 530.09,-84.81"/>
<polygon fill="midnightblue" stroke="midnightblue" points="533.28,-86.26 534.62,-75.75 527.02,-83.13 533.28,-86.26"/>
</g>
<!-- Node17&#45;&gt;Node20 -->
<g id="edge20" class="edge">
<title>Node17&#45;&gt;Node20</title>
<path fill="none" stroke="midnightblue" d="M526.94,-112.32C541.59,-103.82 564.13,-90.73 581.24,-80.8"/>
<polygon fill="midnightblue" stroke="midnightblue" points="583.2,-83.7 590.1,-75.65 579.69,-77.65 583.2,-83.7"/>
</g>
</g>
</svg>
