<?xml version="1.0" encoding="UTF-8" standalone="no"?>
<!DOCTYPE svg PUBLIC "-//W3C//DTD SVG 1.1//EN"
 "http://www.w3.org/Graphics/SVG/1.1/DTD/svg11.dtd">
<!-- Generated by graphviz version 2.43.0 (0)
 -->
<!-- Title: /home/user/bayes&#45;filters&#45;lib/src/BayesFilters/src/BootstrapCorrection.cpp Pages: 1 -->
<!--zoomable 453 -->
<svg id="main" version="1.1" xmlns="http://www.w3.org/2000/svg" xmlns:xlink="http://www.w3.org/1999/xlink" xml:space="preserve" onload="init(evt)">
<style type="text/css"><![CDATA[
.edge:hover path { stroke: red; }
.edge:hover polygon { stroke: red; fill: red; }
]]></style>
<script type="text/javascript"><![CDATA[
var edges = document.getElementsByTagName('g');
if (edges && edges.length) {
  for (var i=0;i<edges.length;i++) {
    if (edges[i].id.substr(0,4)=='edge') {
      edges[i].setAttribute('class','edge');
    }
  }
}
]]></script>
        <defs>
                <circle id="rim" cx="0" cy="0" r="7"/>
                <circle id="rim2" cx="0" cy="0" r="3.5"/>
                <g id="zoomPlus">
                        <use xlink:href="#rim" fill="#404040">
                                <set attributeName="fill" to="#808080" begin="zoomplus.mouseover" end="zoomplus.mouseout"/>
                        </use>
                        <path d="M-4,0h8M0,-4v8" fill="none" stroke="white" stroke-width="1.5" pointer-events="none"/>
                </g>
                <g id="zoomMin">
                        <use xlink:href="#rim" fill="#404040">
                                <set attributeName="fill" to="#808080" begin="zoomminus.mouseover" end="zoomminus.mouseout"/>
                        </use>
                        <path d="M-4,0h8" fill="none" stroke="white" stroke-width="1.5" pointer-events="none"/>
                </g>
                <g id="dirArrow">
                        <path fill="none" stroke="white" stroke-width="1.5" d="M0,-3.0v7 M-2.5,-0.5L0,-3.0L2.5,-0.5"/>
                </g>
               <g id="resetDef">
                       <use xlink:href="#rim2" fill="#404040">
                               <set attributeName="fill" to="#808080" begin="reset.mouseover" end="reset.mouseout"/>
                       </use>
               </g>
        </defs>

<script type="text/javascript">
var viewWidth = 924;
var viewHeight = 453;
var sectionId = 'dynsection-0';
</script>
<script xlink:href="svgpan.js"/>
<svg id="graph" class="graph">
<g id="viewport">
<title>/home/user/bayes&#45;filters&#45;lib/src/BayesFilters/src/BootstrapCorrection.cpp</title>
<polygon fill="white" stroke="transparent" points="-4,4 -4,-449 919.5,-449 919.5,4 -4,4"/>
<!-- Node1 -->
<g id="node1" class="node">
<title>Node1</title>
<g id="a_node1"><a xlink:title=" ">
<polygon fill="#bfbfbf" stroke="black" points="632,-403.5 632,-444.5 769,-444.5 769,-403.5 632,-403.5"/>
<text text-anchor="start" x="640" y="-432.5" font-family="Helvetica,sans-Serif" font-size="10.00">/home/user/bayes&#45;filters</text>
<text text-anchor="start" x="640" y="-421.5" font-family="Helvetica,sans-Serif" font-size="10.00">&#45;lib/src/BayesFilters/src</text>
<text text-anchor="middle" x="700.5" y="-410.5" font-family="Helvetica,sans-Serif" font-size="10.00">/BootstrapCorrection.cpp</text>
</a>
</g>
</g>
<!-- Node2 -->
<g id="node2" class="node">
<title>Node2</title>
<g id="a_node2"><a xlink:href="BootstrapCorrection_8h.html" target="_top" xlink:title=" ">
<polygon fill="white" stroke="black" points="607.5,-347.5 607.5,-366.5 793.5,-366.5 793.5,-347.5 607.5,-347.5"/>
<text text-anchor="middle" x="700.5" y="-354.5" font-family="Helvetica,sans-Serif" font-size="10.00">BayesFilters/BootstrapCorrection.h</text>
</a>
</g>
</g>
<!-- Node1&#45;&gt;Node2 -->
<g id="edge1" class="edge">
<title>Node1&#45;&gt;Node2</title>
<path fill="none" stroke="midnightblue" d="M700.5,-403.5C700.5,-395.07 700.5,-385.24 700.5,-376.87"/>
<polygon fill="midnightblue" stroke="midnightblue" points="704,-376.65 700.5,-366.65 697,-376.65 704,-376.65"/>
</g>
<!-- Node23 -->
<g id="node23" class="node">
<title>Node23</title>
<g id="a_node23"><a xlink:title=" ">
<polygon fill="white" stroke="#bfbfbf" points="262,-112.5 262,-131.5 307,-131.5 307,-112.5 262,-112.5"/>
<text text-anchor="middle" x="284.5" y="-119.5" font-family="Helvetica,sans-Serif" font-size="10.00">utility</text>
</a>
</g>
</g>
<!-- Node1&#45;&gt;Node23 -->
<g id="edge37" class="edge">
<title>Node1&#45;&gt;Node23</title>
<path fill="none" stroke="midnightblue" d="M631.57,-417.85C510.31,-406.88 271.5,-375.9 271.5,-302 271.5,-302 271.5,-302 271.5,-244 271.5,-207.69 277.36,-165.59 281.21,-141.85"/>
<polygon fill="midnightblue" stroke="midnightblue" points="284.7,-142.21 282.91,-131.77 277.8,-141.05 284.7,-142.21"/>
</g>
<!-- Node26 -->
<g id="node26" class="node">
<title>Node26</title>
<g id="a_node26"><a xlink:title=" ">
<polygon fill="white" stroke="#bfbfbf" points="812,-347.5 812,-366.5 859,-366.5 859,-347.5 812,-347.5"/>
<text text-anchor="middle" x="835.5" y="-354.5" font-family="Helvetica,sans-Serif" font-size="10.00">cmath</text>
</a>
</g>
</g>
<!-- Node1&#45;&gt;Node26 -->
<g id="edge36" class="edge">
<title>Node1&#45;&gt;Node26</title>
<path fill="none" stroke="midnightblue" d="M741,-403.5C762.8,-393.01 789.08,-380.35 808.39,-371.05"/>
<polygon fill="midnightblue" stroke="midnightblue" points="810.04,-374.14 817.53,-366.65 807,-367.84 810.04,-374.14"/>
</g>
<!-- Node3 -->
<g id="node3" class="node">
<title>Node3</title>
<g id="a_node3"><a xlink:href="ParticleSet_8h.html" target="_top" xlink:title=" ">
<polygon fill="white" stroke="black" points="691.5,-235.5 691.5,-254.5 831.5,-254.5 831.5,-235.5 691.5,-235.5"/>
<text text-anchor="middle" x="761.5" y="-242.5" font-family="Helvetica,sans-Serif" font-size="10.00">BayesFilters/ParticleSet.h</text>
</a>
</g>
</g>
<!-- Node2&#45;&gt;Node3 -->
<g id="edge2" class="edge">
<title>Node2&#45;&gt;Node3</title>
<path fill="none" stroke="midnightblue" d="M708.83,-347.29C716.76,-338.64 728.63,-324.71 736.5,-311 744.96,-296.25 751.67,-278.09 756,-264.72"/>
<polygon fill="midnightblue" stroke="midnightblue" points="759.46,-265.38 759.06,-254.79 752.77,-263.32 759.46,-265.38"/>
</g>
<!-- Node7 -->
<g id="node7" class="node">
<title>Node7</title>
<g id="a_node7"><a xlink:href="PFCorrection_8h.html" target="_top" xlink:title=" ">
<polygon fill="white" stroke="black" points="503,-291.5 503,-310.5 654,-310.5 654,-291.5 503,-291.5"/>
<text text-anchor="middle" x="578.5" y="-298.5" font-family="Helvetica,sans-Serif" font-size="10.00">BayesFilters/PFCorrection.h</text>
</a>
</g>
</g>
<!-- Node2&#45;&gt;Node7 -->
<g id="edge7" class="edge">
<title>Node2&#45;&gt;Node7</title>
<path fill="none" stroke="midnightblue" d="M681.17,-347.44C661.18,-338.6 629.76,-324.69 606.94,-314.59"/>
<polygon fill="midnightblue" stroke="midnightblue" points="608.3,-311.36 597.74,-310.52 605.47,-317.76 608.3,-311.36"/>
</g>
<!-- Node13 -->
<g id="node13" class="node">
<title>Node13</title>
<g id="a_node13"><a xlink:title=" ">
<polygon fill="white" stroke="#bfbfbf" points="413.5,-0.5 413.5,-19.5 471.5,-19.5 471.5,-0.5 413.5,-0.5"/>
<text text-anchor="middle" x="442.5" y="-7.5" font-family="Helvetica,sans-Serif" font-size="10.00">memory</text>
</a>
</g>
</g>
<!-- Node2&#45;&gt;Node13 -->
<g id="edge34" class="edge">
<title>Node2&#45;&gt;Node13</title>
<path fill="none" stroke="midnightblue" d="M780.25,-347.45C841.44,-335.94 915.5,-309 915.5,-246 915.5,-246 915.5,-246 915.5,-121 915.5,-86.36 902.11,-73.97 872.5,-56 807.39,-16.5 575.31,-11.35 481.88,-10.91"/>
<polygon fill="midnightblue" stroke="midnightblue" points="481.73,-7.41 471.72,-10.88 481.71,-14.41 481.73,-7.41"/>
</g>
<!-- Node25 -->
<g id="node25" class="node">
<title>Node25</title>
<g id="a_node25"><a xlink:title=" ">
<polygon fill="white" stroke="#bfbfbf" points="673.5,-291.5 673.5,-310.5 727.5,-310.5 727.5,-291.5 673.5,-291.5"/>
<text text-anchor="middle" x="700.5" y="-298.5" font-family="Helvetica,sans-Serif" font-size="10.00">random</text>
</a>
</g>
</g>
<!-- Node2&#45;&gt;Node25 -->
<g id="edge35" class="edge">
<title>Node2&#45;&gt;Node25</title>
<path fill="none" stroke="midnightblue" d="M700.5,-347.08C700.5,-340.01 700.5,-329.86 700.5,-320.99"/>
<polygon fill="midnightblue" stroke="midnightblue" points="704,-320.75 700.5,-310.75 697,-320.75 704,-320.75"/>
</g>
<!-- Node4 -->
<g id="node4" class="node">
<title>Node4</title>
<g id="a_node4"><a xlink:href="GaussianMixture_8h.html" target="_top" xlink:title=" ">
<polygon fill="white" stroke="black" points="678,-174 678,-193 849,-193 849,-174 678,-174"/>
<text text-anchor="middle" x="763.5" y="-181" font-family="Helvetica,sans-Serif" font-size="10.00">BayesFilters/GaussianMixture.h</text>
</a>
</g>
</g>
<!-- Node3&#45;&gt;Node4 -->
<g id="edge3" class="edge">
<title>Node3&#45;&gt;Node4</title>
<path fill="none" stroke="midnightblue" d="M761.79,-235.48C762.07,-227.08 762.51,-213.98 762.87,-203.16"/>
<polygon fill="midnightblue" stroke="midnightblue" points="766.38,-203.12 763.21,-193.01 759.38,-202.89 766.38,-203.12"/>
</g>
<!-- Node5 -->
<g id="node5" class="node">
<title>Node5</title>
<g id="a_node5"><a xlink:title=" ">
<polygon fill="white" stroke="#bfbfbf" points="816,-56.5 816,-75.5 863,-75.5 863,-56.5 816,-56.5"/>
<text text-anchor="middle" x="839.5" y="-63.5" font-family="Helvetica,sans-Serif" font-size="10.00">vector</text>
</a>
</g>
</g>
<!-- Node3&#45;&gt;Node5 -->
<g id="edge6" class="edge">
<title>Node3&#45;&gt;Node5</title>
<path fill="none" stroke="midnightblue" d="M803.89,-235.45C824.08,-229.02 846.41,-217.93 858.5,-199 881.26,-163.35 861.87,-111.37 848.89,-84.52"/>
<polygon fill="midnightblue" stroke="midnightblue" points="851.98,-82.87 844.33,-75.54 845.74,-86.04 851.98,-82.87"/>
</g>
<!-- Node4&#45;&gt;Node5 -->
<g id="edge4" class="edge">
<title>Node4&#45;&gt;Node5</title>
<path fill="none" stroke="midnightblue" d="M777.25,-173.72C790.22,-164.74 809.31,-149.64 820.5,-132 829.45,-117.88 834.32,-99.39 836.88,-85.75"/>
<polygon fill="midnightblue" stroke="midnightblue" points="840.38,-86.06 838.53,-75.62 833.47,-84.93 840.38,-86.06"/>
</g>
<!-- Node6 -->
<g id="node6" class="node">
<title>Node6</title>
<g id="a_node6"><a xlink:title=" ">
<polygon fill="white" stroke="#bfbfbf" points="734,-112.5 734,-131.5 811,-131.5 811,-112.5 734,-112.5"/>
<text text-anchor="middle" x="772.5" y="-119.5" font-family="Helvetica,sans-Serif" font-size="10.00">Eigen/Dense</text>
</a>
</g>
</g>
<!-- Node4&#45;&gt;Node6 -->
<g id="edge5" class="edge">
<title>Node4&#45;&gt;Node6</title>
<path fill="none" stroke="midnightblue" d="M764.79,-173.98C766.06,-165.58 768.04,-152.48 769.68,-141.66"/>
<polygon fill="midnightblue" stroke="midnightblue" points="773.18,-141.92 771.21,-131.51 766.26,-140.87 773.18,-141.92"/>
</g>
<!-- Node7&#45;&gt;Node3 -->
<g id="edge30" class="edge">
<title>Node7&#45;&gt;Node3</title>
<path fill="none" stroke="midnightblue" d="M607.5,-291.44C638.68,-282.24 688.43,-267.56 722.91,-257.39"/>
<polygon fill="midnightblue" stroke="midnightblue" points="724.04,-260.7 732.64,-254.52 722.06,-253.99 724.04,-260.7"/>
</g>
<!-- Node7&#45;&gt;Node6 -->
<g id="edge33" class="edge">
<title>Node7&#45;&gt;Node6</title>
<path fill="none" stroke="midnightblue" d="M582.34,-291.37C592.98,-268.34 625.05,-204.66 669.5,-168 687.61,-153.06 711.45,-142.23 731.63,-134.94"/>
<polygon fill="midnightblue" stroke="midnightblue" points="732.89,-138.21 741.2,-131.64 730.61,-131.59 732.89,-138.21"/>
</g>
<!-- Node8 -->
<g id="node8" class="node">
<title>Node8</title>
<g id="a_node8"><a xlink:href="LikelihoodModel_8h.html" target="_top" xlink:title=" ">
<polygon fill="white" stroke="black" points="382.5,-235.5 382.5,-254.5 550.5,-254.5 550.5,-235.5 382.5,-235.5"/>
<text text-anchor="middle" x="466.5" y="-242.5" font-family="Helvetica,sans-Serif" font-size="10.00">BayesFilters/LikelihoodModel.h</text>
</a>
</g>
</g>
<!-- Node7&#45;&gt;Node8 -->
<g id="edge8" class="edge">
<title>Node7&#45;&gt;Node8</title>
<path fill="none" stroke="midnightblue" d="M560.51,-291.32C542.46,-282.62 514.45,-269.12 493.7,-259.11"/>
<polygon fill="midnightblue" stroke="midnightblue" points="494.98,-255.84 484.45,-254.65 491.94,-262.15 494.98,-255.84"/>
</g>
<!-- Node9 -->
<g id="node9" class="node">
<title>Node9</title>
<g id="a_node9"><a xlink:href="MeasurementModel_8h.html" target="_top" xlink:title=" ">
<polygon fill="white" stroke="black" points="470,-168.5 470,-198.5 617,-198.5 617,-168.5 470,-168.5"/>
<text text-anchor="start" x="478" y="-186.5" font-family="Helvetica,sans-Serif" font-size="10.00">BayesFilters/Measurement</text>
<text text-anchor="middle" x="543.5" y="-175.5" font-family="Helvetica,sans-Serif" font-size="10.00">Model.h</text>
</a>
</g>
</g>
<!-- Node7&#45;&gt;Node9 -->
<g id="edge29" class="edge">
<title>Node7&#45;&gt;Node9</title>
<path fill="none" stroke="midnightblue" d="M575.98,-291.15C572.4,-278.62 565.6,-255.02 559.5,-235 556.83,-226.24 553.82,-216.66 551.14,-208.22"/>
<polygon fill="midnightblue" stroke="midnightblue" points="554.45,-207.08 548.07,-198.62 547.78,-209.21 554.45,-207.08"/>
</g>
<!-- Node7&#45;&gt;Node13 -->
<g id="edge31" class="edge">
<title>Node7&#45;&gt;Node13</title>
<path fill="none" stroke="midnightblue" d="M502.94,-298.54C454.87,-294.57 392.96,-283.6 345.5,-255 286.8,-219.63 273.46,-197.25 252.5,-132 230.18,-62.52 341.36,-30.04 403.27,-17.54"/>
<polygon fill="midnightblue" stroke="midnightblue" points="403.97,-20.97 413.12,-15.63 402.64,-14.09 403.97,-20.97"/>
</g>
<!-- Node7&#45;&gt;Node23 -->
<g id="edge32" class="edge">
<title>Node7&#45;&gt;Node23</title>
<path fill="none" stroke="midnightblue" d="M502.98,-296.93C461.73,-292.11 411.47,-280.8 373.5,-255 331.15,-226.22 303.49,-169.97 291.43,-141.08"/>
<polygon fill="midnightblue" stroke="midnightblue" points="294.67,-139.75 287.7,-131.77 288.17,-142.36 294.67,-139.75"/>
</g>
<!-- Node8&#45;&gt;Node9 -->
<g id="edge9" class="edge">
<title>Node8&#45;&gt;Node9</title>
<path fill="none" stroke="midnightblue" d="M477.53,-235.48C487.86,-227.49 503.7,-215.25 517.27,-204.77"/>
<polygon fill="midnightblue" stroke="midnightblue" points="519.58,-207.41 525.35,-198.52 515.3,-201.87 519.58,-207.41"/>
</g>
<!-- Node24 -->
<g id="node24" class="node">
<title>Node24</title>
<g id="a_node24"><a xlink:title=" ">
<polygon fill="white" stroke="#bfbfbf" points="383,-174 383,-193 452,-193 452,-174 383,-174"/>
<text text-anchor="middle" x="417.5" y="-181" font-family="Helvetica,sans-Serif" font-size="10.00">Eigen/Core</text>
</a>
</g>
</g>
<!-- Node8&#45;&gt;Node24 -->
<g id="edge28" class="edge">
<title>Node8&#45;&gt;Node24</title>
<path fill="none" stroke="midnightblue" d="M459.48,-235.48C452.06,-226.46 440.17,-212.02 430.93,-200.81"/>
<polygon fill="midnightblue" stroke="midnightblue" points="433.57,-198.5 424.51,-193.01 428.16,-202.95 433.57,-198.5"/>
</g>
<!-- Node9&#45;&gt;Node6 -->
<g id="edge27" class="edge">
<title>Node9&#45;&gt;Node6</title>
<path fill="none" stroke="midnightblue" d="M597.48,-168.47C637.85,-157.99 692.3,-143.84 729.69,-134.12"/>
<polygon fill="midnightblue" stroke="midnightblue" points="730.96,-137.41 739.76,-131.51 729.2,-130.63 730.96,-137.41"/>
</g>
<!-- Node10 -->
<g id="node10" class="node">
<title>Node10</title>
<g id="a_node10"><a xlink:href="Data_8h.html" target="_top" xlink:title=" ">
<polygon fill="white" stroke="black" points="93.5,-112.5 93.5,-131.5 205.5,-131.5 205.5,-112.5 93.5,-112.5"/>
<text text-anchor="middle" x="149.5" y="-119.5" font-family="Helvetica,sans-Serif" font-size="10.00">BayesFilters/Data.h</text>
</a>
</g>
</g>
<!-- Node9&#45;&gt;Node10 -->
<g id="edge10" class="edge">
<title>Node9&#45;&gt;Node10</title>
<path fill="none" stroke="midnightblue" d="M469.76,-169.35C466.97,-168.89 464.21,-168.44 461.5,-168 376.91,-154.43 279.12,-140.63 215.89,-131.95"/>
<polygon fill="midnightblue" stroke="midnightblue" points="216.04,-128.44 205.66,-130.55 215.09,-135.38 216.04,-128.44"/>
</g>
<!-- Node9&#45;&gt;Node13 -->
<g id="edge24" class="edge">
<title>Node9&#45;&gt;Node13</title>
<path fill="none" stroke="midnightblue" d="M537.4,-168.43C530.98,-154 520.32,-131.01 509.5,-112 492.07,-81.37 468.77,-47.59 454.74,-27.89"/>
<polygon fill="midnightblue" stroke="midnightblue" points="457.51,-25.74 448.83,-19.66 451.82,-29.83 457.51,-25.74"/>
</g>
<!-- Node17 -->
<g id="node17" class="node">
<title>Node17</title>
<g id="a_node17"><a xlink:href="Logger_8h.html" target="_top" xlink:title=" ">
<polygon fill="white" stroke="black" points="595,-112.5 595,-131.5 716,-131.5 716,-112.5 595,-112.5"/>
<text text-anchor="middle" x="655.5" y="-119.5" font-family="Helvetica,sans-Serif" font-size="10.00">BayesFilters/Logger.h</text>
</a>
</g>
</g>
<!-- Node9&#45;&gt;Node17 -->
<g id="edge17" class="edge">
<title>Node9&#45;&gt;Node17</title>
<path fill="none" stroke="midnightblue" d="M570.04,-168.4C588.16,-158.77 612.04,-146.09 629.94,-136.58"/>
<polygon fill="midnightblue" stroke="midnightblue" points="632.01,-139.44 639.2,-131.66 628.73,-133.26 632.01,-139.44"/>
</g>
<!-- Node20 -->
<g id="node20" class="node">
<title>Node20</title>
<g id="a_node20"><a xlink:title=" ">
<polygon fill="white" stroke="#bfbfbf" points="559.5,-56.5 559.5,-75.5 603.5,-75.5 603.5,-56.5 559.5,-56.5"/>
<text text-anchor="middle" x="581.5" y="-63.5" font-family="Helvetica,sans-Serif" font-size="10.00">string</text>
</a>
</g>
</g>
<!-- Node9&#45;&gt;Node20 -->
<g id="edge25" class="edge">
<title>Node9&#45;&gt;Node20</title>
<path fill="none" stroke="midnightblue" d="M548.16,-168.34C555.04,-147.43 567.91,-108.31 575.49,-85.27"/>
<polygon fill="midnightblue" stroke="midnightblue" points="578.85,-86.26 578.65,-75.67 572.2,-84.07 578.85,-86.26"/>
</g>
<!-- Node21 -->
<g id="node21" class="node">
<title>Node21</title>
<g id="a_node21"><a xlink:href="VectorDescription_8h.html" target="_top" xlink:title=" ">
<polygon fill="white" stroke="black" points="325,-112.5 325,-131.5 500,-131.5 500,-112.5 325,-112.5"/>
<text text-anchor="middle" x="412.5" y="-119.5" font-family="Helvetica,sans-Serif" font-size="10.00">BayesFilters/VectorDescription.h</text>
</a>
</g>
</g>
<!-- Node9&#45;&gt;Node21 -->
<g id="edge22" class="edge">
<title>Node9&#45;&gt;Node21</title>
<path fill="none" stroke="midnightblue" d="M512.45,-168.4C490.77,-158.55 462.04,-145.5 440.95,-135.92"/>
<polygon fill="midnightblue" stroke="midnightblue" points="442.11,-132.61 431.56,-131.66 439.22,-138.98 442.11,-132.61"/>
</g>
<!-- Node9&#45;&gt;Node23 -->
<g id="edge26" class="edge">
<title>Node9&#45;&gt;Node23</title>
<path fill="none" stroke="midnightblue" d="M475.73,-168.45C432.87,-159.32 376.11,-146.8 317.06,-132.03"/>
<polygon fill="midnightblue" stroke="midnightblue" points="317.74,-128.59 307.18,-129.55 316.03,-135.38 317.74,-128.59"/>
</g>
<!-- Node11 -->
<g id="node11" class="node">
<title>Node11</title>
<g id="a_node11"><a xlink:href="any_8h.html" target="_top" xlink:title=" ">
<polygon fill="white" stroke="black" points="99,-56.5 99,-75.5 204,-75.5 204,-56.5 99,-56.5"/>
<text text-anchor="middle" x="151.5" y="-63.5" font-family="Helvetica,sans-Serif" font-size="10.00">BayesFilters/any.h</text>
</a>
</g>
</g>
<!-- Node10&#45;&gt;Node11 -->
<g id="edge11" class="edge">
<title>Node10&#45;&gt;Node11</title>
<path fill="none" stroke="midnightblue" d="M149.83,-112.08C150.09,-105.01 150.47,-94.86 150.8,-85.99"/>
<polygon fill="midnightblue" stroke="midnightblue" points="154.3,-85.87 151.18,-75.75 147.31,-85.61 154.3,-85.87"/>
</g>
<!-- Node12 -->
<g id="node12" class="node">
<title>Node12</title>
<g id="a_node12"><a xlink:title=" ">
<polygon fill="white" stroke="#bfbfbf" points="245.5,-0.5 245.5,-19.5 309.5,-19.5 309.5,-0.5 245.5,-0.5"/>
<text text-anchor="middle" x="277.5" y="-7.5" font-family="Helvetica,sans-Serif" font-size="10.00">algorithm</text>
</a>
</g>
</g>
<!-- Node11&#45;&gt;Node12 -->
<g id="edge12" class="edge">
<title>Node11&#45;&gt;Node12</title>
<path fill="none" stroke="midnightblue" d="M171.47,-56.44C192.11,-47.6 224.56,-33.69 248.13,-23.59"/>
<polygon fill="midnightblue" stroke="midnightblue" points="249.82,-26.67 257.63,-19.52 247.06,-20.24 249.82,-26.67"/>
</g>
<!-- Node11&#45;&gt;Node13 -->
<g id="edge13" class="edge">
<title>Node11&#45;&gt;Node13</title>
<path fill="none" stroke="midnightblue" d="M197.61,-56.44C254.4,-45.9 349.89,-28.18 403.31,-18.27"/>
<polygon fill="midnightblue" stroke="midnightblue" points="404.21,-21.66 413.41,-16.4 402.94,-14.78 404.21,-21.66"/>
</g>
<!-- Node14 -->
<g id="node14" class="node">
<title>Node14</title>
<g id="a_node14"><a xlink:title=" ">
<polygon fill="white" stroke="#bfbfbf" points="0,-0.5 0,-19.5 65,-19.5 65,-0.5 0,-0.5"/>
<text text-anchor="middle" x="32.5" y="-7.5" font-family="Helvetica,sans-Serif" font-size="10.00">stdexcept</text>
</a>
</g>
</g>
<!-- Node11&#45;&gt;Node14 -->
<g id="edge14" class="edge">
<title>Node11&#45;&gt;Node14</title>
<path fill="none" stroke="midnightblue" d="M132.64,-56.44C113.23,-47.64 82.77,-33.81 60.54,-23.72"/>
<polygon fill="midnightblue" stroke="midnightblue" points="61.82,-20.46 51.27,-19.52 58.93,-26.84 61.82,-20.46"/>
</g>
<!-- Node15 -->
<g id="node15" class="node">
<title>Node15</title>
<g id="a_node15"><a xlink:title=" ">
<polygon fill="white" stroke="#bfbfbf" points="83,-0.5 83,-19.5 140,-19.5 140,-0.5 83,-0.5"/>
<text text-anchor="middle" x="111.5" y="-7.5" font-family="Helvetica,sans-Serif" font-size="10.00">typeinfo</text>
</a>
</g>
</g>
<!-- Node11&#45;&gt;Node15 -->
<g id="edge15" class="edge">
<title>Node11&#45;&gt;Node15</title>
<path fill="none" stroke="midnightblue" d="M144.89,-56.08C139.24,-48.46 130.96,-37.26 124.05,-27.94"/>
<polygon fill="midnightblue" stroke="midnightblue" points="126.75,-25.7 117.98,-19.75 121.12,-29.87 126.75,-25.7"/>
</g>
<!-- Node16 -->
<g id="node16" class="node">
<title>Node16</title>
<g id="a_node16"><a xlink:title=" ">
<polygon fill="white" stroke="#bfbfbf" points="158,-0.5 158,-19.5 227,-19.5 227,-0.5 158,-0.5"/>
<text text-anchor="middle" x="192.5" y="-7.5" font-family="Helvetica,sans-Serif" font-size="10.00">type_traits</text>
</a>
</g>
</g>
<!-- Node11&#45;&gt;Node16 -->
<g id="edge16" class="edge">
<title>Node11&#45;&gt;Node16</title>
<path fill="none" stroke="midnightblue" d="M158.27,-56.08C164.06,-48.46 172.56,-37.26 179.64,-27.94"/>
<polygon fill="midnightblue" stroke="midnightblue" points="182.6,-29.83 185.86,-19.75 177.02,-25.6 182.6,-29.83"/>
</g>
<!-- Node17&#45;&gt;Node5 -->
<g id="edge21" class="edge">
<title>Node17&#45;&gt;Node5</title>
<path fill="none" stroke="midnightblue" d="M684.66,-112.44C717.67,-102.75 771.38,-86.99 806.07,-76.81"/>
<polygon fill="midnightblue" stroke="midnightblue" points="807.14,-80.15 815.75,-73.97 805.17,-73.43 807.14,-80.15"/>
</g>
<!-- Node18 -->
<g id="node18" class="node">
<title>Node18</title>
<g id="a_node18"><a xlink:title=" ">
<polygon fill="white" stroke="#bfbfbf" points="624,-56.5 624,-75.5 679,-75.5 679,-56.5 624,-56.5"/>
<text text-anchor="middle" x="651.5" y="-63.5" font-family="Helvetica,sans-Serif" font-size="10.00">fstream</text>
</a>
</g>
</g>
<!-- Node17&#45;&gt;Node18 -->
<g id="edge18" class="edge">
<title>Node17&#45;&gt;Node18</title>
<path fill="none" stroke="midnightblue" d="M654.84,-112.08C654.32,-105.01 653.56,-94.86 652.91,-85.99"/>
<polygon fill="midnightblue" stroke="midnightblue" points="656.38,-85.47 652.15,-75.75 649.4,-85.98 656.38,-85.47"/>
</g>
<!-- Node19 -->
<g id="node19" class="node">
<title>Node19</title>
<g id="a_node19"><a xlink:title=" ">
<polygon fill="white" stroke="#bfbfbf" points="697.5,-56.5 697.5,-75.5 757.5,-75.5 757.5,-56.5 697.5,-56.5"/>
<text text-anchor="middle" x="727.5" y="-63.5" font-family="Helvetica,sans-Serif" font-size="10.00">iostream</text>
</a>
</g>
</g>
<!-- Node17&#45;&gt;Node19 -->
<g id="edge19" class="edge">
<title>Node17&#45;&gt;Node19</title>
<path fill="none" stroke="midnightblue" d="M667.07,-112.32C677.92,-104.18 694.38,-91.84 707.38,-82.09"/>
<polygon fill="midnightblue" stroke="midnightblue" points="709.82,-84.63 715.72,-75.83 705.62,-79.03 709.82,-84.63"/>
</g>
<!-- Node17&#45;&gt;Node20 -->
<g id="edge20" class="edge">
<title>Node17&#45;&gt;Node20</title>
<path fill="none" stroke="midnightblue" d="M643.61,-112.32C632.35,-104.11 615.21,-91.6 601.79,-81.81"/>
<polygon fill="midnightblue" stroke="midnightblue" points="603.75,-78.9 593.61,-75.83 599.62,-84.56 603.75,-78.9"/>
</g>
<!-- Node22 -->
<g id="node22" class="node">
<title>Node22</title>
<g id="a_node22"><a xlink:title=" ">
<polygon fill="white" stroke="#bfbfbf" points="386,-56.5 386,-75.5 439,-75.5 439,-56.5 386,-56.5"/>
<text text-anchor="middle" x="412.5" y="-63.5" font-family="Helvetica,sans-Serif" font-size="10.00">cstddef</text>
</a>
</g>
</g>
<!-- Node21&#45;&gt;Node22 -->
<g id="edge23" class="edge">
<title>Node21&#45;&gt;Node22</title>
<path fill="none" stroke="midnightblue" d="M412.5,-112.08C412.5,-105.01 412.5,-94.86 412.5,-85.99"/>
<polygon fill="midnightblue" stroke="midnightblue" points="416,-85.75 412.5,-75.75 409,-85.75 416,-85.75"/>
</g>
</g>
</svg>
        <g id="navigator" transform="translate(0 0)" fill="#404254">
                <rect fill="#f2f5e9" fill-opacity="0.5" stroke="#606060" stroke-width=".5" x="0" y="0" width="60" height="60"/>
                <use id="zoomplus" xlink:href="#zoomPlus" x="17" y="9" onmousedown="handleZoom(evt,'in')"/>
                <use id="zoomminus" xlink:href="#zoomMin" x="42" y="9" onmousedown="handleZoom(evt,'out')"/>
                <use id="reset" xlink:href="#resetDef" x="30" y="36" onmousedown="handleReset()"/>
                <g id="arrowUp" xlink:href="#dirArrow" transform="translate(30 24)" onmousedown="handlePan(0,-1)">
                  <use xlink:href="#rim" fill="#404040">
                        <set attributeName="fill" to="#808080" begin="arrowUp.mouseover" end="arrowUp.mouseout"/>
                  </use>
                  <path fill="none" stroke="white" stroke-width="1.5" d="M0,-3.0v7 M-2.5,-0.5L0,-3.0L2.5,-0.5"/>
                </g>
                <g id="arrowRight" xlink:href="#dirArrow" transform="rotate(90) translate(36 -43)" onmousedown="handlePan(1,0)">
                  <use xlink:href="#rim" fill="#404040">
                        <set attributeName="fill" to="#808080" begin="arrowRight.mouseover" end="arrowRight.mouseout"/>
                  </use>
                  <path fill="none" stroke="white" stroke-width="1.5" d="M0,-3.0v7 M-2.5,-0.5L0,-3.0L2.5,-0.5"/>
                </g>
                <g id="arrowDown" xlink:href="#dirArrow" transform="rotate(180) translate(-30 -48)" onmousedown="handlePan(0,1)">
                  <use xlink:href="#rim" fill="#404040">
                        <set attributeName="fill" to="#808080" begin="arrowDown.mouseover" end="arrowDown.mouseout"/>
                  </use>
                  <path fill="none" stroke="white" stroke-width="1.5" d="M0,-3.0v7 M-2.5,-0.5L0,-3.0L2.5,-0.5"/>
                </g>
                <g id="arrowLeft" xlink:href="#dirArrow" transform="rotate(270) translate(-36 17)" onmousedown="handlePan(-1,0)">
                  <use xlink:href="#rim" fill="#404040">
                        <set attributeName="fill" to="#808080" begin="arrowLeft.mouseover" end="arrowLeft.mouseout"/>
                  </use>
                  <path fill="none" stroke="white" stroke-width="1.5" d="M0,-3.0v7 M-2.5,-0.5L0,-3.0L2.5,-0.5"/>
                </g>
        </g>
        <svg viewBox="0 0 15 15" width="100%" height="30px" preserveAspectRatio="xMaxYMin meet">
         <g id="arrow_out" transform="scale(0.3 0.3)">
          <a xlink:href="BootstrapCorrection_8cpp__incl_org.svg" target="_base">
           <rect id="button" ry="5" rx="5" y="6" x="6" height="38" width="38"
                fill="#f2f5e9" fill-opacity="0.5" stroke="#606060" stroke-width="1.0"/>
           <path id="arrow"
             d="M 11.500037,31.436501 C 11.940474,20.09759 22.043105,11.32322 32.158766,21.979434 L 37.068811,17.246167 C 37.068811,17.246167 37.088388,32 37.088388,32 L 22.160133,31.978069 C 22.160133,31.978069 26.997745,27.140456 26.997745,27.140456 C 18.528582,18.264221 13.291696,25.230495 11.500037,31.436501 z"
             style="fill:#404040;"/>
          </a>
         </g>
        </svg>
</svg>
