<?xml version="1.0" encoding="UTF-8" standalone="no"?>
<!DOCTYPE svg PUBLIC "-//W3C//DTD SVG 1.1//EN"
 "http://www.w3.org/Graphics/SVG/1.1/DTD/svg11.dtd">
<!-- Generated by graphviz version 2.43.0 (0)
 -->
<!-- Title: bfl::UKFCorrection::correctStep Pages: 1 -->
<svg width="830pt" height="772pt"
 viewBox="0.00 0.00 830.00 772.00" xmlns="http://www.w3.org/2000/svg" xmlns:xlink="http://www.w3.org/1999/xlink">
<g id="graph0" class="graph" transform="scale(1 1) rotate(0) translate(4 768)">
<title>bfl::UKFCorrection::correctStep</title>
<polygon fill="white" stroke="transparent" points="-4,4 -4,-768 826,-768 826,4 -4,4"/>
<!-- Node1 -->
<g id="node1" class="node">
<title>Node1</title>
<g id="a_node1"><a xlink:title=" ">
<polygon fill="#bfbfbf" stroke="black" points="0,-245.5 0,-275.5 105,-275.5 105,-245.5 0,-245.5"/>
<text text-anchor="start" x="8" y="-263.5" font-family="Helvetica,sans-Serif" font-size="10.00">bfl::UKFCorrection</text>
<text text-anchor="middle" x="52.5" y="-252.5" font-family="Helvetica,sans-Serif" font-size="10.00">::correctStep</text>
</a>
</g>
</g>
<!-- Node2 -->
<g id="node2" class="node">
<title>Node2</title>
<g id="a_node2"><a xlink:href="classbfl_1_1GaussianMixture.html#aec4e807341e18c18faed041c41121cb7" target="_top" xlink:title=" ">
<polygon fill="white" stroke="black" points="163,-733.5 163,-763.5 280,-763.5 280,-733.5 163,-733.5"/>
<text text-anchor="start" x="171" y="-751.5" font-family="Helvetica,sans-Serif" font-size="10.00">bfl::GaussianMixture</text>
<text text-anchor="middle" x="221.5" y="-740.5" font-family="Helvetica,sans-Serif" font-size="10.00">::augmentWithNoise</text>
</a>
</g>
</g>
<!-- Node1&#45;&gt;Node2 -->
<g id="edge1" class="edge">
<title>Node1&#45;&gt;Node2</title>
<path fill="none" stroke="midnightblue" d="M54.46,-275.96C59.21,-347.83 82.37,-648.81 141,-718.5 144.68,-722.87 149.07,-726.61 153.86,-729.81"/>
<polygon fill="midnightblue" stroke="midnightblue" points="152.46,-733.04 162.87,-734.99 155.95,-726.97 152.46,-733.04"/>
</g>
<!-- Node3 -->
<g id="node3" class="node">
<title>Node3</title>
<g id="a_node3"><a xlink:href="classbfl_1_1GaussianMixture.html#a63afff5b5e09399a51ac4dbe50de568b" target="_top" xlink:title=" ">
<polygon fill="white" stroke="black" points="532.5,-651.5 532.5,-681.5 649.5,-681.5 649.5,-651.5 532.5,-651.5"/>
<text text-anchor="start" x="540.5" y="-669.5" font-family="Helvetica,sans-Serif" font-size="10.00">bfl::GaussianMixture</text>
<text text-anchor="middle" x="591" y="-658.5" font-family="Helvetica,sans-Serif" font-size="10.00">::covariance</text>
</a>
</g>
</g>
<!-- Node1&#45;&gt;Node3 -->
<g id="edge2" class="edge">
<title>Node1&#45;&gt;Node3</title>
<path fill="none" stroke="midnightblue" d="M55.22,-275.5C60.78,-318.51 81.49,-444.42 141,-527.5 204.77,-616.53 234.12,-640.83 338,-675.5 397.95,-695.51 470.43,-690.09 522.24,-681.56"/>
<polygon fill="midnightblue" stroke="midnightblue" points="523.06,-684.97 532.32,-679.81 521.87,-678.07 523.06,-684.97"/>
</g>
<!-- Node4 -->
<g id="node4" class="node">
<title>Node4</title>
<g id="a_node4"><a xlink:href="classbfl_1_1MeasurementModel.html#a7e1134b6efa79a7e88e4162fd68a7d6a" target="_top" xlink:title=" ">
<polygon fill="white" stroke="black" points="141,-245.5 141,-275.5 302,-275.5 302,-245.5 141,-245.5"/>
<text text-anchor="start" x="149" y="-263.5" font-family="Helvetica,sans-Serif" font-size="10.00">bfl::MeasurementModel</text>
<text text-anchor="middle" x="221.5" y="-252.5" font-family="Helvetica,sans-Serif" font-size="10.00">::getMeasurementDescription</text>
</a>
</g>
</g>
<!-- Node1&#45;&gt;Node4 -->
<g id="edge3" class="edge">
<title>Node1&#45;&gt;Node4</title>
<path fill="none" stroke="midnightblue" d="M105.42,-260.5C113.48,-260.5 121.99,-260.5 130.59,-260.5"/>
<polygon fill="midnightblue" stroke="midnightblue" points="130.71,-264 140.71,-260.5 130.71,-257 130.71,-264"/>
</g>
<!-- Node5 -->
<g id="node5" class="node">
<title>Node5</title>
<g id="a_node5"><a xlink:href="classbfl_1_1MeasurementModel.html#af25f42076b69e0c6cab47d36d796536f" target="_top" xlink:title=" ">
<polygon fill="white" stroke="black" points="145.5,-196.5 145.5,-226.5 297.5,-226.5 297.5,-196.5 145.5,-196.5"/>
<text text-anchor="start" x="153.5" y="-214.5" font-family="Helvetica,sans-Serif" font-size="10.00">bfl::MeasurementModel</text>
<text text-anchor="middle" x="221.5" y="-203.5" font-family="Helvetica,sans-Serif" font-size="10.00">::getNoiseCovarianceMatrix</text>
</a>
</g>
</g>
<!-- Node1&#45;&gt;Node5 -->
<g id="edge4" class="edge">
<title>Node1&#45;&gt;Node5</title>
<path fill="none" stroke="midnightblue" d="M104.97,-245.4C122.19,-240.34 141.56,-234.66 159.44,-229.42"/>
<polygon fill="midnightblue" stroke="midnightblue" points="160.59,-232.73 169.2,-226.55 158.62,-226.01 160.59,-232.73"/>
</g>
<!-- Node6 -->
<g id="node6" class="node">
<title>Node6</title>
<g id="a_node6"><a xlink:href="classbfl_1_1MeasurementModel.html#ae9d3627dd9e935795d1e4c76bb34029c" target="_top" xlink:title=" ">
<polygon fill="white" stroke="black" points="155.5,-147.5 155.5,-177.5 287.5,-177.5 287.5,-147.5 155.5,-147.5"/>
<text text-anchor="start" x="163.5" y="-165.5" font-family="Helvetica,sans-Serif" font-size="10.00">bfl::MeasurementModel</text>
<text text-anchor="middle" x="221.5" y="-154.5" font-family="Helvetica,sans-Serif" font-size="10.00">::innovation</text>
</a>
</g>
</g>
<!-- Node1&#45;&gt;Node6 -->
<g id="edge5" class="edge">
<title>Node1&#45;&gt;Node6</title>
<path fill="none" stroke="midnightblue" d="M67.58,-245.34C83.8,-228.7 111.98,-202.26 141,-186.5 144.3,-184.71 147.75,-183.03 151.28,-181.47"/>
<polygon fill="midnightblue" stroke="midnightblue" points="152.86,-184.6 160.8,-177.58 150.22,-178.12 152.86,-184.6"/>
</g>
<!-- Node7 -->
<g id="node7" class="node">
<title>Node7</title>
<g id="a_node7"><a xlink:href="classbfl_1_1GaussianMixture.html#a7b33a3796b65b8a8b44f9569f226b4cf" target="_top" xlink:title=" ">
<polygon fill="white" stroke="black" points="532.5,-372.5 532.5,-402.5 649.5,-402.5 649.5,-372.5 532.5,-372.5"/>
<text text-anchor="start" x="540.5" y="-390.5" font-family="Helvetica,sans-Serif" font-size="10.00">bfl::GaussianMixture</text>
<text text-anchor="middle" x="591" y="-379.5" font-family="Helvetica,sans-Serif" font-size="10.00">::mean</text>
</a>
</g>
</g>
<!-- Node1&#45;&gt;Node7 -->
<g id="edge6" class="edge">
<title>Node1&#45;&gt;Node7</title>
<path fill="none" stroke="midnightblue" d="M103.16,-275.55C115.44,-278.88 128.63,-282.12 141,-284.5 292.09,-313.6 339.44,-273.62 485,-323.5 513.63,-333.31 542.74,-351.88 563.03,-366.5"/>
<polygon fill="midnightblue" stroke="midnightblue" points="561.03,-369.37 571.16,-372.48 565.18,-363.74 561.03,-369.37"/>
</g>
<!-- Node8 -->
<g id="node8" class="node">
<title>Node8</title>
<g id="a_node8"><a xlink:href="classbfl_1_1MeasurementModel.html#a4e4180af8aba033a33f0d6942b9e6b18" target="_top" xlink:title=" ">
<polygon fill="white" stroke="black" points="155.5,-98.5 155.5,-128.5 287.5,-128.5 287.5,-98.5 155.5,-98.5"/>
<text text-anchor="start" x="163.5" y="-116.5" font-family="Helvetica,sans-Serif" font-size="10.00">bfl::MeasurementModel</text>
<text text-anchor="middle" x="221.5" y="-105.5" font-family="Helvetica,sans-Serif" font-size="10.00">::measure</text>
</a>
</g>
</g>
<!-- Node1&#45;&gt;Node8 -->
<g id="edge7" class="edge">
<title>Node1&#45;&gt;Node8</title>
<path fill="none" stroke="midnightblue" d="M60.27,-245.16C72.55,-219.1 100.98,-166.24 141,-137.5 143.1,-135.99 145.3,-134.58 147.57,-133.25"/>
<polygon fill="midnightblue" stroke="midnightblue" points="149.36,-136.26 156.62,-128.55 146.13,-130.05 149.36,-136.26"/>
</g>
<!-- Node9 -->
<g id="node9" class="node">
<title>Node9</title>
<g id="a_node9"><a xlink:href="classbfl_1_1VectorDescription.html#a1c3807b9dc0336dacd3fe2a723c77cbd" target="_top" xlink:title=" ">
<polygon fill="white" stroke="black" points="161,-49.5 161,-79.5 282,-79.5 282,-49.5 161,-49.5"/>
<text text-anchor="start" x="169" y="-67.5" font-family="Helvetica,sans-Serif" font-size="10.00">bfl::VectorDescription</text>
<text text-anchor="middle" x="221.5" y="-56.5" font-family="Helvetica,sans-Serif" font-size="10.00">::total_size</text>
</a>
</g>
</g>
<!-- Node1&#45;&gt;Node9 -->
<g id="edge8" class="edge">
<title>Node1&#45;&gt;Node9</title>
<path fill="none" stroke="midnightblue" d="M56.91,-245.33C65.23,-211.89 89.74,-131.39 141,-88.5 144.3,-85.74 147.9,-83.3 151.7,-81.14"/>
<polygon fill="midnightblue" stroke="midnightblue" points="153.47,-84.17 160.87,-76.59 150.35,-77.9 153.47,-84.17"/>
</g>
<!-- Node13 -->
<g id="node13" class="node">
<title>Node13</title>
<g id="a_node13"><a xlink:href="namespacebfl_1_1sigma__point.html#afe170453152d4f96db4dad71bd9be9a3" target="_top" xlink:title=" ">
<polygon fill="white" stroke="black" points="146,-487.5 146,-517.5 297,-517.5 297,-487.5 146,-487.5"/>
<text text-anchor="start" x="154" y="-505.5" font-family="Helvetica,sans-Serif" font-size="10.00">bfl::sigma_point::unscented</text>
<text text-anchor="middle" x="221.5" y="-494.5" font-family="Helvetica,sans-Serif" font-size="10.00">_transform</text>
</a>
</g>
</g>
<!-- Node1&#45;&gt;Node13 -->
<g id="edge12" class="edge">
<title>Node1&#45;&gt;Node13</title>
<path fill="none" stroke="midnightblue" d="M63.95,-275.64C92.18,-316.55 170.17,-429.57 204.23,-478.92"/>
<polygon fill="midnightblue" stroke="midnightblue" points="201.5,-481.12 210.06,-487.37 207.26,-477.15 201.5,-481.12"/>
</g>
<!-- Node10 -->
<g id="node10" class="node">
<title>Node10</title>
<g id="a_node10"><a xlink:href="classbfl_1_1VectorDescription.html#a02aa208e08cb3130f6f2c1393dc9aa1a" target="_top" xlink:title=" ">
<polygon fill="white" stroke="black" points="351,-0.5 351,-30.5 472,-30.5 472,-0.5 351,-0.5"/>
<text text-anchor="start" x="359" y="-18.5" font-family="Helvetica,sans-Serif" font-size="10.00">bfl::VectorDescription</text>
<text text-anchor="middle" x="411.5" y="-7.5" font-family="Helvetica,sans-Serif" font-size="10.00">::circular_size</text>
</a>
</g>
</g>
<!-- Node9&#45;&gt;Node10 -->
<g id="edge9" class="edge">
<title>Node9&#45;&gt;Node10</title>
<path fill="none" stroke="midnightblue" d="M280.18,-49.47C300.03,-44.29 322.44,-38.45 343,-33.09"/>
<polygon fill="midnightblue" stroke="midnightblue" points="344.13,-36.42 352.93,-30.51 342.37,-29.64 344.13,-36.42"/>
</g>
<!-- Node11 -->
<g id="node11" class="node">
<title>Node11</title>
<g id="a_node11"><a xlink:href="classbfl_1_1VectorDescription.html#a6f6e3b3a084ca449ff1ac4c7b82aec6f" target="_top" xlink:title=" ">
<polygon fill="white" stroke="black" points="351,-98.5 351,-128.5 472,-128.5 472,-98.5 351,-98.5"/>
<text text-anchor="start" x="359" y="-116.5" font-family="Helvetica,sans-Serif" font-size="10.00">bfl::VectorDescription</text>
<text text-anchor="middle" x="411.5" y="-105.5" font-family="Helvetica,sans-Serif" font-size="10.00">::linear_size</text>
</a>
</g>
</g>
<!-- Node9&#45;&gt;Node11 -->
<g id="edge10" class="edge">
<title>Node9&#45;&gt;Node11</title>
<path fill="none" stroke="midnightblue" d="M280.18,-79.53C300.03,-84.71 322.44,-90.55 343,-95.91"/>
<polygon fill="midnightblue" stroke="midnightblue" points="342.37,-99.36 352.93,-98.49 344.13,-92.58 342.37,-99.36"/>
</g>
<!-- Node12 -->
<g id="node12" class="node">
<title>Node12</title>
<g id="a_node12"><a xlink:href="classbfl_1_1VectorDescription.html#a45e0d5245f401ede3601dd7e653a6b4e" target="_top" xlink:title=" ">
<polygon fill="white" stroke="black" points="351,-49.5 351,-79.5 472,-79.5 472,-49.5 351,-49.5"/>
<text text-anchor="start" x="359" y="-67.5" font-family="Helvetica,sans-Serif" font-size="10.00">bfl::VectorDescription</text>
<text text-anchor="middle" x="411.5" y="-56.5" font-family="Helvetica,sans-Serif" font-size="10.00">::noise_size</text>
</a>
</g>
</g>
<!-- Node9&#45;&gt;Node12 -->
<g id="edge11" class="edge">
<title>Node9&#45;&gt;Node12</title>
<path fill="none" stroke="midnightblue" d="M282.24,-64.5C300.83,-64.5 321.5,-64.5 340.71,-64.5"/>
<polygon fill="midnightblue" stroke="midnightblue" points="340.91,-68 350.91,-64.5 340.91,-61 340.91,-68"/>
</g>
<!-- Node13&#45;&gt;Node3 -->
<g id="edge14" class="edge">
<title>Node13&#45;&gt;Node3</title>
<path fill="none" stroke="midnightblue" d="M229.37,-517.8C244.16,-548.67 282.24,-618 338,-647.5 394.83,-677.57 469.18,-679.44 522.37,-675.54"/>
<polygon fill="midnightblue" stroke="midnightblue" points="522.7,-679.03 532.38,-674.72 522.12,-672.05 522.7,-679.03"/>
</g>
<!-- Node13&#45;&gt;Node7 -->
<g id="edge20" class="edge">
<title>Node13&#45;&gt;Node7</title>
<path fill="none" stroke="midnightblue" d="M236.43,-487.21C256.56,-466.25 295.99,-429.3 338,-412.5 397.13,-388.86 470.02,-383.96 522.17,-384.17"/>
<polygon fill="midnightblue" stroke="midnightblue" points="522.28,-387.67 532.31,-384.28 522.35,-380.68 522.28,-387.67"/>
</g>
<!-- Node14 -->
<g id="node14" class="node">
<title>Node14</title>
<g id="a_node14"><a xlink:href="classbfl_1_1VectorDescription.html#a08a52559af5e67e1f225466a77d852ff" target="_top" xlink:title=" ">
<polygon fill="white" stroke="black" points="349.5,-333.5 349.5,-363.5 473.5,-363.5 473.5,-333.5 349.5,-333.5"/>
<text text-anchor="start" x="357.5" y="-351.5" font-family="Helvetica,sans-Serif" font-size="10.00">bfl::VectorDescription</text>
<text text-anchor="middle" x="411.5" y="-340.5" font-family="Helvetica,sans-Serif" font-size="10.00">::circular_components</text>
</a>
</g>
</g>
<!-- Node13&#45;&gt;Node14 -->
<g id="edge13" class="edge">
<title>Node13&#45;&gt;Node14</title>
<path fill="none" stroke="midnightblue" d="M233.3,-487.17C252.01,-461.57 292.8,-409.86 338,-378.5 343.64,-374.59 349.87,-371.05 356.23,-367.9"/>
<polygon fill="midnightblue" stroke="midnightblue" points="358.01,-370.93 365.61,-363.55 355.07,-364.58 358.01,-370.93"/>
</g>
<!-- Node15 -->
<g id="node15" class="node">
<title>Node15</title>
<g id="a_node15"><a xlink:href="namespacebfl_1_1utils.html#a26bbb191de2e28c267c505a1e9ef0951" target="_top" xlink:title="Evaluate the colwise difference between a set of unit quaternions &#160;and a unit quaternion .">
<polygon fill="white" stroke="black" points="344,-733 344,-752 479,-752 479,-733 344,-733"/>
<text text-anchor="middle" x="411.5" y="-740" font-family="Helvetica,sans-Serif" font-size="10.00">bfl::utils::diff_quaternion</text>
</a>
</g>
</g>
<!-- Node13&#45;&gt;Node15 -->
<g id="edge15" class="edge">
<title>Node13&#45;&gt;Node15</title>
<path fill="none" stroke="midnightblue" d="M230.46,-517.81C247.56,-549.93 290.18,-625.91 338,-680.5 353.33,-697.99 373.66,-714.95 388.89,-726.7"/>
<polygon fill="midnightblue" stroke="midnightblue" points="387.1,-729.74 397.19,-732.98 391.32,-724.15 387.1,-729.74"/>
</g>
<!-- Node17 -->
<g id="node17" class="node">
<title>Node17</title>
<g id="a_node17"><a xlink:href="namespacebfl_1_1directional__statistics.html#ad8758aac208bc2baa75aad514a3f53e6" target="_top" xlink:title=" ">
<polygon fill="white" stroke="black" points="343.5,-607.5 343.5,-637.5 479.5,-637.5 479.5,-607.5 343.5,-607.5"/>
<text text-anchor="start" x="351.5" y="-625.5" font-family="Helvetica,sans-Serif" font-size="10.00">bfl::directional_statistics</text>
<text text-anchor="middle" x="411.5" y="-614.5" font-family="Helvetica,sans-Serif" font-size="10.00">::directional_mean</text>
</a>
</g>
</g>
<!-- Node13&#45;&gt;Node17 -->
<g id="edge17" class="edge">
<title>Node13&#45;&gt;Node17</title>
<path fill="none" stroke="midnightblue" d="M236.83,-517.53C257.43,-538.37 297.42,-575.98 338,-598.5 341.2,-600.28 344.56,-601.95 348,-603.52"/>
<polygon fill="midnightblue" stroke="midnightblue" points="346.67,-606.76 357.24,-607.44 349.4,-600.32 346.67,-606.76"/>
</g>
<!-- Node18 -->
<g id="node18" class="node">
<title>Node18</title>
<g id="a_node18"><a xlink:href="namespacebfl_1_1directional__statistics.html#a18bffca88c7ea5f4ea11d2ad910736fe" target="_top" xlink:title=" ">
<polygon fill="white" stroke="black" points="343.5,-558.5 343.5,-588.5 479.5,-588.5 479.5,-558.5 343.5,-558.5"/>
<text text-anchor="start" x="351.5" y="-576.5" font-family="Helvetica,sans-Serif" font-size="10.00">bfl::directional_statistics</text>
<text text-anchor="middle" x="411.5" y="-565.5" font-family="Helvetica,sans-Serif" font-size="10.00">::directional_sub</text>
</a>
</g>
</g>
<!-- Node13&#45;&gt;Node18 -->
<g id="edge18" class="edge">
<title>Node13&#45;&gt;Node18</title>
<path fill="none" stroke="midnightblue" d="M257.65,-517.51C280.41,-527.06 310.78,-539.47 338,-549.5 343.13,-551.39 348.49,-553.3 353.87,-555.16"/>
<polygon fill="midnightblue" stroke="midnightblue" points="352.95,-558.54 363.54,-558.46 355.21,-551.92 352.95,-558.54"/>
</g>
<!-- Node19 -->
<g id="node19" class="node">
<title>Node19</title>
<g id="a_node19"><a xlink:href="classbfl_1_1VectorDescription.html#ac5cd5eaafcfc8f8428dc3e6dccef09e3" target="_top" xlink:title=" ">
<polygon fill="white" stroke="black" points="351,-509.5 351,-539.5 472,-539.5 472,-509.5 351,-509.5"/>
<text text-anchor="start" x="359" y="-527.5" font-family="Helvetica,sans-Serif" font-size="10.00">bfl::VectorDescription</text>
<text text-anchor="middle" x="411.5" y="-516.5" font-family="Helvetica,sans-Serif" font-size="10.00">::linear_components</text>
</a>
</g>
</g>
<!-- Node13&#45;&gt;Node19 -->
<g id="edge19" class="edge">
<title>Node13&#45;&gt;Node19</title>
<path fill="none" stroke="midnightblue" d="M297.07,-511.23C311.43,-512.91 326.41,-514.66 340.61,-516.32"/>
<polygon fill="midnightblue" stroke="midnightblue" points="340.45,-519.83 350.79,-517.51 341.27,-512.87 340.45,-519.83"/>
</g>
<!-- Node20 -->
<g id="node20" class="node">
<title>Node20</title>
<g id="a_node20"><a xlink:href="namespacebfl_1_1utils.html#ae8f8bf6fbbee917d1ff3e2bf6578ea19" target="_top" xlink:title="Evaluate the weighted mean of a set of unit quaternions &#160;given a set of weights .">
<polygon fill="white" stroke="black" points="338,-471 338,-490 485,-490 485,-471 338,-471"/>
<text text-anchor="middle" x="411.5" y="-478" font-family="Helvetica,sans-Serif" font-size="10.00">bfl::utils::mean_quaternion</text>
</a>
</g>
</g>
<!-- Node13&#45;&gt;Node20 -->
<g id="edge21" class="edge">
<title>Node13&#45;&gt;Node20</title>
<path fill="none" stroke="midnightblue" d="M297.07,-493.77C307.14,-492.59 317.53,-491.38 327.73,-490.19"/>
<polygon fill="midnightblue" stroke="midnightblue" points="328.33,-493.64 337.86,-489 327.52,-486.69 328.33,-493.64"/>
</g>
<!-- Node21 -->
<g id="node21" class="node">
<title>Node21</title>
<g id="a_node21"><a xlink:href="namespacebfl_1_1sigma__point.html#ab919aca5fccc30ee2acd5cd966cd9dc9" target="_top" xlink:title=" ">
<polygon fill="white" stroke="black" points="346,-421.5 346,-451.5 477,-451.5 477,-421.5 346,-421.5"/>
<text text-anchor="start" x="354" y="-439.5" font-family="Helvetica,sans-Serif" font-size="10.00">bfl::sigma_point::sigma</text>
<text text-anchor="middle" x="411.5" y="-428.5" font-family="Helvetica,sans-Serif" font-size="10.00">_point</text>
</a>
</g>
</g>
<!-- Node13&#45;&gt;Node21 -->
<g id="edge22" class="edge">
<title>Node13&#45;&gt;Node21</title>
<path fill="none" stroke="midnightblue" d="M264.71,-487.41C286.57,-479.63 313.7,-470 338,-461.5 344.25,-459.31 350.8,-457.03 357.31,-454.78"/>
<polygon fill="midnightblue" stroke="midnightblue" points="358.47,-458.08 366.77,-451.51 356.18,-451.47 358.47,-458.08"/>
</g>
<!-- Node16 -->
<g id="node16" class="node">
<title>Node16</title>
<g id="a_node16"><a xlink:href="namespacebfl_1_1utils.html#a294bdf526be6ef1c5bad59e737f2af63" target="_top" xlink:title="Convert a matrix of unit quaternions &#160;to their rotation vector representation &#160;in the tangent space a...">
<polygon fill="white" stroke="black" points="534,-727.5 534,-757.5 648,-757.5 648,-727.5 534,-727.5"/>
<text text-anchor="start" x="542" y="-745.5" font-family="Helvetica,sans-Serif" font-size="10.00">bfl::utils::quaternion</text>
<text text-anchor="middle" x="591" y="-734.5" font-family="Helvetica,sans-Serif" font-size="10.00">_to_rotation_vector</text>
</a>
</g>
</g>
<!-- Node15&#45;&gt;Node16 -->
<g id="edge16" class="edge">
<title>Node15&#45;&gt;Node16</title>
<path fill="none" stroke="midnightblue" d="M479.1,-742.5C493.59,-742.5 508.91,-742.5 523.4,-742.5"/>
<polygon fill="midnightblue" stroke="midnightblue" points="523.77,-746 533.77,-742.5 523.77,-739 523.77,-746"/>
</g>
<!-- Node21&#45;&gt;Node3 -->
<g id="edge23" class="edge">
<title>Node21&#45;&gt;Node3</title>
<path fill="none" stroke="midnightblue" d="M470.21,-451.64C475.53,-454.4 480.58,-457.66 485,-461.5 514.53,-487.13 560.23,-593.26 580.15,-641.92"/>
<polygon fill="midnightblue" stroke="midnightblue" points="576.99,-643.44 584,-651.38 583.47,-640.8 576.99,-643.44"/>
</g>
<!-- Node21&#45;&gt;Node7 -->
<g id="edge25" class="edge">
<title>Node21&#45;&gt;Node7</title>
<path fill="none" stroke="midnightblue" d="M467.2,-421.4C485.68,-416.3 506.48,-410.56 525.63,-405.27"/>
<polygon fill="midnightblue" stroke="midnightblue" points="526.77,-408.59 535.48,-402.55 524.91,-401.84 526.77,-408.59"/>
</g>
<!-- Node22 -->
<g id="node22" class="node">
<title>Node22</title>
<g id="a_node22"><a xlink:href="namespacebfl_1_1directional__statistics.html#af9984a4df2b3f6f0bc0c264783181123" target="_top" xlink:title=" ">
<polygon fill="white" stroke="black" points="523,-470.5 523,-500.5 659,-500.5 659,-470.5 523,-470.5"/>
<text text-anchor="start" x="531" y="-488.5" font-family="Helvetica,sans-Serif" font-size="10.00">bfl::directional_statistics</text>
<text text-anchor="middle" x="591" y="-477.5" font-family="Helvetica,sans-Serif" font-size="10.00">::directional_add</text>
</a>
</g>
</g>
<!-- Node21&#45;&gt;Node22 -->
<g id="edge24" class="edge">
<title>Node21&#45;&gt;Node22</title>
<path fill="none" stroke="midnightblue" d="M467.2,-451.6C485.68,-456.7 506.48,-462.44 525.63,-467.73"/>
<polygon fill="midnightblue" stroke="midnightblue" points="524.91,-471.16 535.48,-470.45 526.77,-464.41 524.91,-471.16"/>
</g>
<!-- Node23 -->
<g id="node23" class="node">
<title>Node23</title>
<g id="a_node23"><a xlink:href="namespacebfl_1_1utils.html#ab1ca09c6f5d699242615c8dbc89fa2e0" target="_top" xlink:title="Evaluate the colwise sum between a unit quaternion &#160;and a set of rotation vectors &#160;in the tangent spa...">
<polygon fill="white" stroke="black" points="521,-421.5 521,-451.5 661,-451.5 661,-421.5 521,-421.5"/>
<text text-anchor="start" x="529" y="-439.5" font-family="Helvetica,sans-Serif" font-size="10.00">bfl::utils::sum_quaternion</text>
<text text-anchor="middle" x="591" y="-428.5" font-family="Helvetica,sans-Serif" font-size="10.00">_rotation_vector</text>
</a>
</g>
</g>
<!-- Node21&#45;&gt;Node23 -->
<g id="edge26" class="edge">
<title>Node21&#45;&gt;Node23</title>
<path fill="none" stroke="midnightblue" d="M477.08,-436.5C488.01,-436.5 499.47,-436.5 510.72,-436.5"/>
<polygon fill="midnightblue" stroke="midnightblue" points="510.98,-440 520.98,-436.5 510.98,-433 510.98,-440"/>
</g>
<!-- Node24 -->
<g id="node24" class="node">
<title>Node24</title>
<g id="a_node24"><a xlink:href="namespacebfl_1_1utils.html#af901548c98d811c2b176e1d9b02aabb3" target="_top" xlink:title="Convert a matrix of rotation vectors &#160;in the tangent space at the identity to their unitary quaternio...">
<polygon fill="white" stroke="black" points="697,-421.5 697,-451.5 822,-451.5 822,-421.5 697,-421.5"/>
<text text-anchor="start" x="705" y="-439.5" font-family="Helvetica,sans-Serif" font-size="10.00">bfl::utils::rotation</text>
<text text-anchor="middle" x="759.5" y="-428.5" font-family="Helvetica,sans-Serif" font-size="10.00">_vector_to_quaternion</text>
</a>
</g>
</g>
<!-- Node23&#45;&gt;Node24 -->
<g id="edge27" class="edge">
<title>Node23&#45;&gt;Node24</title>
<path fill="none" stroke="midnightblue" d="M661.16,-436.5C669.61,-436.5 678.26,-436.5 686.75,-436.5"/>
<polygon fill="midnightblue" stroke="midnightblue" points="686.99,-440 696.99,-436.5 686.99,-433 686.99,-440"/>
</g>
</g>
</svg>
