<?xml version="1.0" encoding="UTF-8" standalone="no"?>
<!DOCTYPE svg PUBLIC "-//W3C//DTD SVG 1.1//EN"
 "http://www.w3.org/Graphics/SVG/1.1/DTD/svg11.dtd">
<!-- Generated by graphviz version 2.47.2 (0)
 -->
<!-- Title: bfl::UKFPrediction::predictStep Pages: 1 -->
<svg width="594pt" height="206pt"
 viewBox="0.00 0.00 594.00 205.68" xmlns="http://www.w3.org/2000/svg" xmlns:xlink="http://www.w3.org/1999/xlink">
<g id="graph0" class="graph" transform="scale(1 1) rotate(0) translate(4 201.68)">
<title>bfl::UKFPrediction::predictStep</title>
<polygon fill="white" stroke="transparent" points="-4,4 -4,-201.68 590,-201.68 590,4 -4,4"/>
<!-- Node1 -->
<g id="node1" class="node">
<title>Node1</title>
<g id="a_node1"><a xlink:title=" ">
<polygon fill="#bfbfbf" stroke="black" points="0,-117.5 0,-147.5 97,-147.5 97,-117.5 0,-117.5"/>
<text text-anchor="start" x="8" y="-135.5" font-family="Helvetica,sans-Serif" font-size="10.00">bfl::UKFPrediction</text>
<text text-anchor="middle" x="48.5" y="-124.5" font-family="Helvetica,sans-Serif" font-size="10.00">::predictStep</text>
</a>
</g>
</g>
<!-- Node2 -->
<g id="node2" class="node">
<title>Node2</title>
<g id="a_node2"><a xlink:href="classbfl_1_1GaussianMixture.html#aec4e807341e18c18faed041c41121cb7" target="_top" xlink:title=" ">
<polygon fill="white" stroke="black" points="148,-142.5 148,-172.5 255,-172.5 255,-142.5 148,-142.5"/>
<text text-anchor="start" x="156" y="-160.5" font-family="Helvetica,sans-Serif" font-size="10.00">bfl::GaussianMixture</text>
<text text-anchor="middle" x="201.5" y="-149.5" font-family="Helvetica,sans-Serif" font-size="10.00">::augmentWithNoise</text>
</a>
</g>
</g>
<!-- Node1&#45;&gt;Node2 -->
<g id="edge1" class="edge">
<title>Node1&#45;&gt;Node2</title>
<path fill="none" stroke="midnightblue" d="M97.28,-140.41C110.08,-142.53 124.13,-144.86 137.62,-147.09"/>
<polygon fill="midnightblue" stroke="midnightblue" points="137.36,-150.59 147.79,-148.77 138.5,-143.69 137.36,-150.59"/>
</g>
<!-- Node3 -->
<g id="node3" class="node">
<title>Node3</title>
<g id="a_node3"><a xlink:href="namespacebfl_1_1sigma__point.html#afe170453152d4f96db4dad71bd9be9a3" target="_top" xlink:title=" ">
<polygon fill="white" stroke="black" points="133,-93.5 133,-123.5 270,-123.5 270,-93.5 133,-93.5"/>
<text text-anchor="start" x="141" y="-111.5" font-family="Helvetica,sans-Serif" font-size="10.00">bfl::sigma_point::unscented</text>
<text text-anchor="middle" x="201.5" y="-100.5" font-family="Helvetica,sans-Serif" font-size="10.00">_transform</text>
</a>
</g>
</g>
<!-- Node1&#45;&gt;Node3 -->
<g id="edge2" class="edge">
<title>Node1&#45;&gt;Node3</title>
<path fill="none" stroke="midnightblue" d="M97.28,-124.91C105.5,-123.6 114.23,-122.21 123,-120.82"/>
<polygon fill="midnightblue" stroke="midnightblue" points="123.57,-124.27 132.89,-119.25 122.47,-117.36 123.57,-124.27"/>
</g>
<!-- Node4 -->
<g id="node4" class="node">
<title>Node4</title>
<g id="a_node4"><a xlink:href="classbfl_1_1GaussianMixture.html#a65a60ef46d16ac33196a09963bbccdee" target="_top" xlink:title=" ">
<polygon fill="white" stroke="black" points="471.5,-142.5 471.5,-172.5 578.5,-172.5 578.5,-142.5 471.5,-142.5"/>
<text text-anchor="start" x="479.5" y="-160.5" font-family="Helvetica,sans-Serif" font-size="10.00">bfl::GaussianMixture</text>
<text text-anchor="middle" x="525" y="-149.5" font-family="Helvetica,sans-Serif" font-size="10.00">::covariance</text>
</a>
</g>
</g>
<!-- Node3&#45;&gt;Node4 -->
<g id="edge3" class="edge">
<title>Node3&#45;&gt;Node4</title>
<path fill="none" stroke="midnightblue" d="M253.24,-123.54C259.17,-126.36 264.91,-129.66 270,-133.5 291.58,-149.77 281.89,-170.3 306,-182.5 361.37,-210.53 434.55,-192.76 480.45,-176.13"/>
<polygon fill="midnightblue" stroke="midnightblue" points="481.68,-179.41 489.82,-172.62 479.23,-172.85 481.68,-179.41"/>
</g>
<!-- Node5 -->
<g id="node5" class="node">
<title>Node5</title>
<g id="a_node5"><a xlink:href="namespacebfl_1_1directional__statistics.html#ad8758aac208bc2baa75aad514a3f53e6" target="_top" xlink:title=" ">
<polygon fill="white" stroke="black" points="306,-142.5 306,-172.5 428,-172.5 428,-142.5 306,-142.5"/>
<text text-anchor="start" x="314" y="-160.5" font-family="Helvetica,sans-Serif" font-size="10.00">bfl::directional_statistics</text>
<text text-anchor="middle" x="367" y="-149.5" font-family="Helvetica,sans-Serif" font-size="10.00">::directional_mean</text>
</a>
</g>
</g>
<!-- Node3&#45;&gt;Node5 -->
<g id="edge4" class="edge">
<title>Node3&#45;&gt;Node5</title>
<path fill="none" stroke="midnightblue" d="M252.89,-123.6C269.6,-128.61 288.36,-134.23 305.74,-139.44"/>
<polygon fill="midnightblue" stroke="midnightblue" points="305.19,-142.93 315.78,-142.45 307.2,-136.22 305.19,-142.93"/>
</g>
<!-- Node6 -->
<g id="node6" class="node">
<title>Node6</title>
<g id="a_node6"><a xlink:href="namespacebfl_1_1directional__statistics.html#a18bffca88c7ea5f4ea11d2ad910736fe" target="_top" xlink:title=" ">
<polygon fill="white" stroke="black" points="306,-93.5 306,-123.5 428,-123.5 428,-93.5 306,-93.5"/>
<text text-anchor="start" x="314" y="-111.5" font-family="Helvetica,sans-Serif" font-size="10.00">bfl::directional_statistics</text>
<text text-anchor="middle" x="367" y="-100.5" font-family="Helvetica,sans-Serif" font-size="10.00">::directional_sub</text>
</a>
</g>
</g>
<!-- Node3&#45;&gt;Node6 -->
<g id="edge5" class="edge">
<title>Node3&#45;&gt;Node6</title>
<path fill="none" stroke="midnightblue" d="M270.42,-108.5C278.78,-108.5 287.33,-108.5 295.73,-108.5"/>
<polygon fill="midnightblue" stroke="midnightblue" points="295.86,-112 305.86,-108.5 295.86,-105 295.86,-112"/>
</g>
<!-- Node7 -->
<g id="node7" class="node">
<title>Node7</title>
<g id="a_node7"><a xlink:href="classbfl_1_1GaussianMixture.html#af4fd865a97ac27c72510cfbf9429bd97" target="_top" xlink:title=" ">
<polygon fill="white" stroke="black" points="471.5,-0.5 471.5,-30.5 578.5,-30.5 578.5,-0.5 471.5,-0.5"/>
<text text-anchor="start" x="479.5" y="-18.5" font-family="Helvetica,sans-Serif" font-size="10.00">bfl::GaussianMixture</text>
<text text-anchor="middle" x="525" y="-7.5" font-family="Helvetica,sans-Serif" font-size="10.00">::mean</text>
</a>
</g>
</g>
<!-- Node3&#45;&gt;Node7 -->
<g id="edge6" class="edge">
<title>Node3&#45;&gt;Node7</title>
<path fill="none" stroke="midnightblue" d="M217.77,-93.46C236.69,-75.87 270.77,-47.51 306,-34.5 355.92,-16.06 416.49,-12.11 461.1,-12.32"/>
<polygon fill="midnightblue" stroke="midnightblue" points="461.18,-15.82 471.22,-12.44 461.26,-8.82 461.18,-15.82"/>
</g>
<!-- Node8 -->
<g id="node8" class="node">
<title>Node8</title>
<g id="a_node8"><a xlink:href="namespacebfl_1_1sigma__point.html#ab919aca5fccc30ee2acd5cd966cd9dc9" target="_top" xlink:title=" ">
<polygon fill="white" stroke="black" points="308,-44.5 308,-74.5 426,-74.5 426,-44.5 308,-44.5"/>
<text text-anchor="start" x="316" y="-62.5" font-family="Helvetica,sans-Serif" font-size="10.00">bfl::sigma_point::sigma</text>
<text text-anchor="middle" x="367" y="-51.5" font-family="Helvetica,sans-Serif" font-size="10.00">_point</text>
</a>
</g>
</g>
<!-- Node3&#45;&gt;Node8 -->
<g id="edge7" class="edge">
<title>Node3&#45;&gt;Node8</title>
<path fill="none" stroke="midnightblue" d="M252.89,-93.4C269.6,-88.39 288.36,-82.77 305.74,-77.56"/>
<polygon fill="midnightblue" stroke="midnightblue" points="307.2,-80.78 315.78,-74.55 305.19,-74.07 307.2,-80.78"/>
</g>
<!-- Node8&#45;&gt;Node4 -->
<g id="edge8" class="edge">
<title>Node8&#45;&gt;Node4</title>
<path fill="none" stroke="midnightblue" d="M408.06,-74.51C414.86,-77.53 421.74,-80.9 428,-84.5 453.76,-99.34 480.48,-120.17 499.17,-135.79"/>
<polygon fill="midnightblue" stroke="midnightblue" points="497.01,-138.55 506.91,-142.34 501.54,-133.21 497.01,-138.55"/>
</g>
<!-- Node8&#45;&gt;Node7 -->
<g id="edge10" class="edge">
<title>Node8&#45;&gt;Node7</title>
<path fill="none" stroke="midnightblue" d="M421.25,-44.48C434.12,-40.85 448,-36.94 461.26,-33.2"/>
<polygon fill="midnightblue" stroke="midnightblue" points="462.58,-36.46 471.25,-30.38 460.68,-29.72 462.58,-36.46"/>
</g>
<!-- Node9 -->
<g id="node9" class="node">
<title>Node9</title>
<g id="a_node9"><a xlink:href="namespacebfl_1_1directional__statistics.html#af9984a4df2b3f6f0bc0c264783181123" target="_top" xlink:title=" ">
<polygon fill="white" stroke="black" points="464,-49.5 464,-79.5 586,-79.5 586,-49.5 464,-49.5"/>
<text text-anchor="start" x="472" y="-67.5" font-family="Helvetica,sans-Serif" font-size="10.00">bfl::directional_statistics</text>
<text text-anchor="middle" x="525" y="-56.5" font-family="Helvetica,sans-Serif" font-size="10.00">::directional_add</text>
</a>
</g>
</g>
<!-- Node8&#45;&gt;Node9 -->
<g id="edge9" class="edge">
<title>Node8&#45;&gt;Node9</title>
<path fill="none" stroke="midnightblue" d="M426.09,-61.36C435.03,-61.65 444.34,-61.95 453.51,-62.24"/>
<polygon fill="midnightblue" stroke="midnightblue" points="453.67,-65.75 463.78,-62.57 453.89,-58.75 453.67,-65.75"/>
</g>
</g>
</svg>
