<?xml version="1.0" encoding="UTF-8" standalone="no"?>
<!DOCTYPE svg PUBLIC "-//W3C//DTD SVG 1.1//EN"
 "http://www.w3.org/Graphics/SVG/1.1/DTD/svg11.dtd">
<!-- Generated by graphviz version 2.47.2 (0)
 -->
<!-- Title: bfl::SimulatedLinearSensor::freeze Pages: 1 -->
<svg width="461pt" height="78pt"
 viewBox="0.00 0.00 461.00 77.50" xmlns="http://www.w3.org/2000/svg" xmlns:xlink="http://www.w3.org/1999/xlink">
<g id="graph0" class="graph" transform="scale(1 1) rotate(0) translate(4 73.5)">
<title>bfl::SimulatedLinearSensor::freeze</title>
<polygon fill="white" stroke="transparent" points="-4,4 -4,-73.5 457,-73.5 457,4 -4,4"/>
<!-- Node1 -->
<g id="node1" class="node">
<title>Node1</title>
<g id="a_node1"><a xlink:title=" ">
<polygon fill="#bfbfbf" stroke="black" points="0,-17 0,-47 134,-47 134,-17 0,-17"/>
<text text-anchor="start" x="8" y="-35" font-family="Helvetica,sans-Serif" font-size="10.00">bfl::SimulatedLinearSensor</text>
<text text-anchor="middle" x="67" y="-24" font-family="Helvetica,sans-Serif" font-size="10.00">::freeze</text>
</a>
</g>
</g>
<!-- Node2 -->
<g id="node2" class="node">
<title>Node2</title>
<g id="a_node2"><a xlink:href="classbfl_1_1LinearModel.html#af248dfa32cd9145d87e84ddade6316ad" target="_top" xlink:title=" ">
<polygon fill="white" stroke="black" points="180.5,-39 180.5,-69 311.5,-69 311.5,-39 180.5,-39"/>
<text text-anchor="start" x="188.5" y="-57" font-family="Helvetica,sans-Serif" font-size="10.00">bfl::LinearModel::getNoise</text>
<text text-anchor="middle" x="246" y="-46" font-family="Helvetica,sans-Serif" font-size="10.00">Sample</text>
</a>
</g>
</g>
<!-- Node1&#45;&gt;Node2 -->
<g id="edge1" class="edge">
<title>Node1&#45;&gt;Node2</title>
<path fill="none" stroke="midnightblue" d="M134.16,-40.22C145.97,-41.69 158.36,-43.23 170.39,-44.73"/>
<polygon fill="midnightblue" stroke="midnightblue" points="170.03,-48.21 180.39,-45.97 170.9,-41.26 170.03,-48.21"/>
</g>
<!-- Node3 -->
<g id="node3" class="node">
<title>Node3</title>
<g id="a_node3"><a xlink:href="classbfl_1_1SimulatedLinearSensor.html#ab75bbe744d8516c97dfc90ad499b10e6" target="_top" xlink:title=" ">
<polygon fill="white" stroke="black" points="170,-0.5 170,-19.5 322,-19.5 322,-0.5 170,-0.5"/>
<text text-anchor="middle" x="246" y="-7.5" font-family="Helvetica,sans-Serif" font-size="10.00">bfl::SimulatedLinearSensor::log</text>
</a>
</g>
</g>
<!-- Node1&#45;&gt;Node3 -->
<g id="edge2" class="edge">
<title>Node1&#45;&gt;Node3</title>
<path fill="none" stroke="midnightblue" d="M134.16,-23.78C142.56,-22.73 151.24,-21.65 159.89,-20.58"/>
<polygon fill="midnightblue" stroke="midnightblue" points="160.5,-24.03 169.99,-19.32 159.64,-17.08 160.5,-24.03"/>
</g>
<!-- Node4 -->
<g id="node4" class="node">
<title>Node4</title>
<g id="a_node4"><a xlink:href="classbfl_1_1Logger.html#a1033ff31398484f2132f84fd140da9e3" target="_top" xlink:title=" ">
<polygon fill="white" stroke="black" points="358,-0.5 358,-19.5 453,-19.5 453,-0.5 358,-0.5"/>
<text text-anchor="middle" x="405.5" y="-7.5" font-family="Helvetica,sans-Serif" font-size="10.00">bfl::Logger::logger</text>
</a>
</g>
</g>
<!-- Node3&#45;&gt;Node4 -->
<g id="edge3" class="edge">
<title>Node3&#45;&gt;Node4</title>
<path fill="none" stroke="midnightblue" d="M322.06,-10C330.73,-10 339.47,-10 347.84,-10"/>
<polygon fill="midnightblue" stroke="midnightblue" points="347.84,-13.5 357.84,-10 347.84,-6.5 347.84,-13.5"/>
</g>
</g>
</svg>
