<?xml version="1.0" encoding="UTF-8" standalone="no"?>
<!DOCTYPE svg PUBLIC "-//W3C//DTD SVG 1.1//EN"
 "http://www.w3.org/Graphics/SVG/1.1/DTD/svg11.dtd">
<!-- Generated by graphviz version 2.43.0 (0)
 -->
<!-- Title: bfl::SUKFCorrection::getLikelihood Pages: 1 -->
<svg width="477pt" height="39pt"
 viewBox="0.00 0.00 477.00 39.00" xmlns="http://www.w3.org/2000/svg" xmlns:xlink="http://www.w3.org/1999/xlink">
<g id="graph0" class="graph" transform="scale(1 1) rotate(0) translate(4 35)">
<title>bfl::SUKFCorrection::getLikelihood</title>
<polygon fill="white" stroke="transparent" points="-4,4 -4,-35 473,-35 473,4 -4,4"/>
<!-- Node1 -->
<g id="node1" class="node">
<title>Node1</title>
<g id="a_node1"><a xlink:title=" ">
<polygon fill="#bfbfbf" stroke="black" points="0,-0.5 0,-30.5 111,-30.5 111,-0.5 0,-0.5"/>
<text text-anchor="start" x="8" y="-18.5" font-family="Helvetica,sans-Serif" font-size="10.00">bfl::SUKFCorrection</text>
<text text-anchor="middle" x="55.5" y="-7.5" font-family="Helvetica,sans-Serif" font-size="10.00">::getLikelihood</text>
</a>
</g>
</g>
<!-- Node2 -->
<g id="node2" class="node">
<title>Node2</title>
<g id="a_node2"><a xlink:href="namespacebfl_1_1utils.html#a7016bf3419a1ba23378bedeeb1ff24b7" target="_top" xlink:title="Evaluate the logarithm of a multivariate Gaussian probability density function using the Sherman–Morr...">
<polygon fill="white" stroke="black" points="147,-0.5 147,-30.5 280,-30.5 280,-0.5 147,-0.5"/>
<text text-anchor="start" x="155" y="-18.5" font-family="Helvetica,sans-Serif" font-size="10.00">bfl::utils::multivariate</text>
<text text-anchor="middle" x="213.5" y="-7.5" font-family="Helvetica,sans-Serif" font-size="10.00">_gaussian_density_UVR</text>
</a>
</g>
</g>
<!-- Node1&#45;&gt;Node2 -->
<g id="edge1" class="edge">
<title>Node1&#45;&gt;Node2</title>
<path fill="none" stroke="midnightblue" d="M111.06,-15.5C119.4,-15.5 128.13,-15.5 136.82,-15.5"/>
<polygon fill="midnightblue" stroke="midnightblue" points="136.98,-19 146.98,-15.5 136.98,-12 136.98,-19"/>
</g>
<!-- Node3 -->
<g id="node3" class="node">
<title>Node3</title>
<g id="a_node3"><a xlink:href="namespacebfl_1_1utils.html#a3880bab35c7047e28c08f3f5dfeefd69" target="_top" xlink:title="Evaluate the logarithm of a multivariate Gaussian probability density function using the Sherman–Morr...">
<polygon fill="white" stroke="black" points="316,-0.5 316,-30.5 469,-30.5 469,-0.5 316,-0.5"/>
<text text-anchor="start" x="324" y="-18.5" font-family="Helvetica,sans-Serif" font-size="10.00">bfl::utils::multivariate</text>
<text text-anchor="middle" x="392.5" y="-7.5" font-family="Helvetica,sans-Serif" font-size="10.00">_gaussian_log_density_UVR</text>
</a>
</g>
</g>
<!-- Node2&#45;&gt;Node3 -->
<g id="edge2" class="edge">
<title>Node2&#45;&gt;Node3</title>
<path fill="none" stroke="midnightblue" d="M280.16,-15.5C288.5,-15.5 297.14,-15.5 305.74,-15.5"/>
<polygon fill="midnightblue" stroke="midnightblue" points="305.8,-19 315.8,-15.5 305.8,-12 305.8,-19"/>
</g>
</g>
</svg>
