<?xml version="1.0" encoding="UTF-8" standalone="no"?>
<!DOCTYPE svg PUBLIC "-//W3C//DTD SVG 1.1//EN"
 "http://www.w3.org/Graphics/SVG/1.1/DTD/svg11.dtd">
<!-- Generated by graphviz version 2.43.0 (0)
 -->
<!-- Title: bfl::SUKFCorrection::correctStep Pages: 1 -->
<svg width="628pt" height="333pt"
 viewBox="0.00 0.00 628.00 333.00" xmlns="http://www.w3.org/2000/svg" xmlns:xlink="http://www.w3.org/1999/xlink">
<g id="graph0" class="graph" transform="scale(1 1) rotate(0) translate(4 329)">
<title>bfl::SUKFCorrection::correctStep</title>
<polygon fill="white" stroke="transparent" points="-4,4 -4,-329 624,-329 624,4 -4,4"/>
<!-- Node1 -->
<g id="node1" class="node">
<title>Node1</title>
<g id="a_node1"><a xlink:title=" ">
<polygon fill="#bfbfbf" stroke="black" points="0,-201.5 0,-231.5 111,-231.5 111,-201.5 0,-201.5"/>
<text text-anchor="start" x="8" y="-219.5" font-family="Helvetica,sans-Serif" font-size="10.00">bfl::SUKFCorrection</text>
<text text-anchor="middle" x="55.5" y="-208.5" font-family="Helvetica,sans-Serif" font-size="10.00">::correctStep</text>
</a>
</g>
</g>
<!-- Node2 -->
<g id="node2" class="node">
<title>Node2</title>
<g id="a_node2"><a xlink:href="classbfl_1_1GaussianMixture.html#a63afff5b5e09399a51ac4dbe50de568b" target="_top" xlink:title=" ">
<polygon fill="white" stroke="black" points="330.5,-294.5 330.5,-324.5 447.5,-324.5 447.5,-294.5 330.5,-294.5"/>
<text text-anchor="start" x="338.5" y="-312.5" font-family="Helvetica,sans-Serif" font-size="10.00">bfl::GaussianMixture</text>
<text text-anchor="middle" x="389" y="-301.5" font-family="Helvetica,sans-Serif" font-size="10.00">::covariance</text>
</a>
</g>
</g>
<!-- Node1&#45;&gt;Node2 -->
<g id="edge1" class="edge">
<title>Node1&#45;&gt;Node2</title>
<path fill="none" stroke="midnightblue" d="M81.42,-231.55C99.14,-241.65 123.83,-254.53 147,-262.5 203.82,-282.05 271.15,-294.33 320.17,-301.4"/>
<polygon fill="midnightblue" stroke="midnightblue" points="319.96,-304.91 330.35,-302.84 320.93,-297.98 319.96,-304.91"/>
</g>
<!-- Node3 -->
<g id="node3" class="node">
<title>Node3</title>
<g id="a_node3"><a xlink:href="namespacebfl_1_1directional__statistics.html#a18bffca88c7ea5f4ea11d2ad910736fe" target="_top" xlink:title=" ">
<polygon fill="white" stroke="black" points="147,-152.5 147,-182.5 283,-182.5 283,-152.5 147,-152.5"/>
<text text-anchor="start" x="155" y="-170.5" font-family="Helvetica,sans-Serif" font-size="10.00">bfl::directional_statistics</text>
<text text-anchor="middle" x="215" y="-159.5" font-family="Helvetica,sans-Serif" font-size="10.00">::directional_sub</text>
</a>
</g>
</g>
<!-- Node1&#45;&gt;Node3 -->
<g id="edge2" class="edge">
<title>Node1&#45;&gt;Node3</title>
<path fill="none" stroke="midnightblue" d="M105.04,-201.4C121.13,-196.39 139.21,-190.77 155.95,-185.56"/>
<polygon fill="midnightblue" stroke="midnightblue" points="157.11,-188.86 165.62,-182.55 155.03,-182.18 157.11,-188.86"/>
</g>
<!-- Node4 -->
<g id="node4" class="node">
<title>Node4</title>
<g id="a_node4"><a xlink:href="classbfl_1_1GaussianMixture.html#a7b33a3796b65b8a8b44f9569f226b4cf" target="_top" xlink:title=" ">
<polygon fill="white" stroke="black" points="330.5,-245.5 330.5,-275.5 447.5,-275.5 447.5,-245.5 330.5,-245.5"/>
<text text-anchor="start" x="338.5" y="-263.5" font-family="Helvetica,sans-Serif" font-size="10.00">bfl::GaussianMixture</text>
<text text-anchor="middle" x="389" y="-252.5" font-family="Helvetica,sans-Serif" font-size="10.00">::mean</text>
</a>
</g>
</g>
<!-- Node1&#45;&gt;Node4 -->
<g id="edge3" class="edge">
<title>Node1&#45;&gt;Node4</title>
<path fill="none" stroke="midnightblue" d="M104.49,-231.59C118.11,-235.37 133.03,-239.04 147,-241.5 204.89,-251.68 271.56,-256.41 320.08,-258.6"/>
<polygon fill="midnightblue" stroke="midnightblue" points="320.01,-262.1 330.15,-259.03 320.31,-255.11 320.01,-262.1"/>
</g>
<!-- Node5 -->
<g id="node5" class="node">
<title>Node5</title>
<g id="a_node5"><a xlink:href="namespacebfl_1_1sigma__point.html#ab919aca5fccc30ee2acd5cd966cd9dc9" target="_top" xlink:title=" ">
<polygon fill="white" stroke="black" points="149.5,-201.5 149.5,-231.5 280.5,-231.5 280.5,-201.5 149.5,-201.5"/>
<text text-anchor="start" x="157.5" y="-219.5" font-family="Helvetica,sans-Serif" font-size="10.00">bfl::sigma_point::sigma</text>
<text text-anchor="middle" x="215" y="-208.5" font-family="Helvetica,sans-Serif" font-size="10.00">_point</text>
</a>
</g>
</g>
<!-- Node1&#45;&gt;Node5 -->
<g id="edge4" class="edge">
<title>Node1&#45;&gt;Node5</title>
<path fill="none" stroke="midnightblue" d="M111.14,-216.5C120.21,-216.5 129.75,-216.5 139.22,-216.5"/>
<polygon fill="midnightblue" stroke="midnightblue" points="139.43,-220 149.43,-216.5 139.43,-213 139.43,-220"/>
</g>
<!-- Node9 -->
<g id="node9" class="node">
<title>Node9</title>
<g id="a_node9"><a xlink:href="classbfl_1_1VectorDescription.html#a1c3807b9dc0336dacd3fe2a723c77cbd" target="_top" xlink:title=" ">
<polygon fill="white" stroke="black" points="154.5,-74.5 154.5,-104.5 275.5,-104.5 275.5,-74.5 154.5,-74.5"/>
<text text-anchor="start" x="162.5" y="-92.5" font-family="Helvetica,sans-Serif" font-size="10.00">bfl::VectorDescription</text>
<text text-anchor="middle" x="215" y="-81.5" font-family="Helvetica,sans-Serif" font-size="10.00">::total_size</text>
</a>
</g>
</g>
<!-- Node1&#45;&gt;Node9 -->
<g id="edge10" class="edge">
<title>Node1&#45;&gt;Node9</title>
<path fill="none" stroke="midnightblue" d="M74.8,-201.39C93.03,-186.37 121.85,-162.72 147,-142.5 159.96,-132.08 174.42,-120.62 186.58,-111.03"/>
<polygon fill="midnightblue" stroke="midnightblue" points="188.89,-113.66 194.58,-104.72 184.56,-108.16 188.89,-113.66"/>
</g>
<!-- Node5&#45;&gt;Node2 -->
<g id="edge5" class="edge">
<title>Node5&#45;&gt;Node2</title>
<path fill="none" stroke="midnightblue" d="M235.21,-231.57C255.24,-246.73 287.99,-270.04 319,-285.5 322.54,-287.26 326.24,-288.95 330.01,-290.56"/>
<polygon fill="midnightblue" stroke="midnightblue" points="328.88,-293.88 339.47,-294.39 331.51,-287.39 328.88,-293.88"/>
</g>
<!-- Node5&#45;&gt;Node4 -->
<g id="edge7" class="edge">
<title>Node5&#45;&gt;Node4</title>
<path fill="none" stroke="midnightblue" d="M274.71,-231.52C289.48,-235.3 305.45,-239.38 320.6,-243.26"/>
<polygon fill="midnightblue" stroke="midnightblue" points="319.87,-246.68 330.43,-245.77 321.61,-239.9 319.87,-246.68"/>
</g>
<!-- Node6 -->
<g id="node6" class="node">
<title>Node6</title>
<g id="a_node6"><a xlink:href="namespacebfl_1_1directional__statistics.html#af9984a4df2b3f6f0bc0c264783181123" target="_top" xlink:title=" ">
<polygon fill="white" stroke="black" points="321,-147.5 321,-177.5 457,-177.5 457,-147.5 321,-147.5"/>
<text text-anchor="start" x="329" y="-165.5" font-family="Helvetica,sans-Serif" font-size="10.00">bfl::directional_statistics</text>
<text text-anchor="middle" x="389" y="-154.5" font-family="Helvetica,sans-Serif" font-size="10.00">::directional_add</text>
</a>
</g>
</g>
<!-- Node5&#45;&gt;Node6 -->
<g id="edge6" class="edge">
<title>Node5&#45;&gt;Node6</title>
<path fill="none" stroke="midnightblue" d="M263.91,-201.46C284.51,-194.99 308.77,-187.37 330.35,-180.6"/>
<polygon fill="midnightblue" stroke="midnightblue" points="331.55,-183.89 340.05,-177.55 329.46,-177.21 331.55,-183.89"/>
</g>
<!-- Node7 -->
<g id="node7" class="node">
<title>Node7</title>
<g id="a_node7"><a xlink:href="namespacebfl_1_1utils.html#ab1ca09c6f5d699242615c8dbc89fa2e0" target="_top" xlink:title="Evaluate the colwise sum between a unit quaternion &#160;and a set of rotation vectors &#160;in the tangent spa...">
<polygon fill="white" stroke="black" points="319,-196.5 319,-226.5 459,-226.5 459,-196.5 319,-196.5"/>
<text text-anchor="start" x="327" y="-214.5" font-family="Helvetica,sans-Serif" font-size="10.00">bfl::utils::sum_quaternion</text>
<text text-anchor="middle" x="389" y="-203.5" font-family="Helvetica,sans-Serif" font-size="10.00">_rotation_vector</text>
</a>
</g>
</g>
<!-- Node5&#45;&gt;Node7 -->
<g id="edge8" class="edge">
<title>Node5&#45;&gt;Node7</title>
<path fill="none" stroke="midnightblue" d="M280.54,-214.62C289.71,-214.36 299.22,-214.08 308.64,-213.81"/>
<polygon fill="midnightblue" stroke="midnightblue" points="308.89,-217.3 318.79,-213.51 308.69,-210.3 308.89,-217.3"/>
</g>
<!-- Node8 -->
<g id="node8" class="node">
<title>Node8</title>
<g id="a_node8"><a xlink:href="namespacebfl_1_1utils.html#af901548c98d811c2b176e1d9b02aabb3" target="_top" xlink:title="Convert a matrix of rotation vectors &#160;in the tangent space at the identity to their unitary quaternio...">
<polygon fill="white" stroke="black" points="495,-196.5 495,-226.5 620,-226.5 620,-196.5 495,-196.5"/>
<text text-anchor="start" x="503" y="-214.5" font-family="Helvetica,sans-Serif" font-size="10.00">bfl::utils::rotation</text>
<text text-anchor="middle" x="557.5" y="-203.5" font-family="Helvetica,sans-Serif" font-size="10.00">_vector_to_quaternion</text>
</a>
</g>
</g>
<!-- Node7&#45;&gt;Node8 -->
<g id="edge9" class="edge">
<title>Node7&#45;&gt;Node8</title>
<path fill="none" stroke="midnightblue" d="M459.16,-211.5C467.61,-211.5 476.26,-211.5 484.75,-211.5"/>
<polygon fill="midnightblue" stroke="midnightblue" points="484.99,-215 494.99,-211.5 484.99,-208 484.99,-215"/>
</g>
<!-- Node10 -->
<g id="node10" class="node">
<title>Node10</title>
<g id="a_node10"><a xlink:href="classbfl_1_1VectorDescription.html#a02aa208e08cb3130f6f2c1393dc9aa1a" target="_top" xlink:title=" ">
<polygon fill="white" stroke="black" points="328.5,-98.5 328.5,-128.5 449.5,-128.5 449.5,-98.5 328.5,-98.5"/>
<text text-anchor="start" x="336.5" y="-116.5" font-family="Helvetica,sans-Serif" font-size="10.00">bfl::VectorDescription</text>
<text text-anchor="middle" x="389" y="-105.5" font-family="Helvetica,sans-Serif" font-size="10.00">::circular_size</text>
</a>
</g>
</g>
<!-- Node9&#45;&gt;Node10 -->
<g id="edge11" class="edge">
<title>Node9&#45;&gt;Node10</title>
<path fill="none" stroke="midnightblue" d="M275.67,-97.83C289.42,-99.74 304.15,-101.8 318.28,-103.77"/>
<polygon fill="midnightblue" stroke="midnightblue" points="318.04,-107.27 328.43,-105.19 319.01,-100.34 318.04,-107.27"/>
</g>
<!-- Node11 -->
<g id="node11" class="node">
<title>Node11</title>
<g id="a_node11"><a xlink:href="classbfl_1_1VectorDescription.html#a6f6e3b3a084ca449ff1ac4c7b82aec6f" target="_top" xlink:title=" ">
<polygon fill="white" stroke="black" points="328.5,-49.5 328.5,-79.5 449.5,-79.5 449.5,-49.5 328.5,-49.5"/>
<text text-anchor="start" x="336.5" y="-67.5" font-family="Helvetica,sans-Serif" font-size="10.00">bfl::VectorDescription</text>
<text text-anchor="middle" x="389" y="-56.5" font-family="Helvetica,sans-Serif" font-size="10.00">::linear_size</text>
</a>
</g>
</g>
<!-- Node9&#45;&gt;Node11 -->
<g id="edge12" class="edge">
<title>Node9&#45;&gt;Node11</title>
<path fill="none" stroke="midnightblue" d="M275.67,-80.83C289.42,-78.83 304.15,-76.69 318.28,-74.63"/>
<polygon fill="midnightblue" stroke="midnightblue" points="319.04,-78.06 328.43,-73.16 318.03,-71.13 319.04,-78.06"/>
</g>
<!-- Node12 -->
<g id="node12" class="node">
<title>Node12</title>
<g id="a_node12"><a xlink:href="classbfl_1_1VectorDescription.html#a45e0d5245f401ede3601dd7e653a6b4e" target="_top" xlink:title=" ">
<polygon fill="white" stroke="black" points="328.5,-0.5 328.5,-30.5 449.5,-30.5 449.5,-0.5 328.5,-0.5"/>
<text text-anchor="start" x="336.5" y="-18.5" font-family="Helvetica,sans-Serif" font-size="10.00">bfl::VectorDescription</text>
<text text-anchor="middle" x="389" y="-7.5" font-family="Helvetica,sans-Serif" font-size="10.00">::noise_size</text>
</a>
</g>
</g>
<!-- Node9&#45;&gt;Node12 -->
<g id="edge13" class="edge">
<title>Node9&#45;&gt;Node12</title>
<path fill="none" stroke="midnightblue" d="M244.89,-74.35C265.31,-63.92 293.48,-50.09 319,-39.5 323.45,-37.65 328.1,-35.83 332.79,-34.05"/>
<polygon fill="midnightblue" stroke="midnightblue" points="334.26,-37.24 342.43,-30.5 331.84,-30.67 334.26,-37.24"/>
</g>
</g>
</svg>
