<?xml version="1.0" encoding="UTF-8" standalone="no"?>
<!DOCTYPE svg PUBLIC "-//W3C//DTD SVG 1.1//EN"
 "http://www.w3.org/Graphics/SVG/1.1/DTD/svg11.dtd">
<!-- Generated by graphviz version 2.43.0 (0)
 -->
<!-- Title: bfl::any::any::operator= Pages: 1 -->
<svg width="401pt" height="66pt"
 viewBox="0.00 0.00 401.00 66.00" xmlns="http://www.w3.org/2000/svg" xmlns:xlink="http://www.w3.org/1999/xlink">
<g id="graph0" class="graph" transform="scale(1 1) rotate(0) translate(4 62)">
<title>bfl::any::any::operator=</title>
<polygon fill="white" stroke="transparent" points="-4,4 -4,-62 397,-62 397,4 -4,4"/>
<!-- Node1 -->
<g id="node1" class="node">
<title>Node1</title>
<g id="a_node1"><a xlink:title="Assigns contents to the contained value.">
<polygon fill="#bfbfbf" stroke="black" points="0,-19.5 0,-38.5 131,-38.5 131,-19.5 0,-19.5"/>
<text text-anchor="middle" x="65.5" y="-26.5" font-family="Helvetica,sans-Serif" font-size="10.00">bfl::any::any::operator=</text>
</a>
</g>
</g>
<!-- Node2 -->
<g id="node2" class="node">
<title>Node2</title>
<g id="a_node2"><a xlink:href="classbfl_1_1any_1_1any.html#a55b5d940fdb6f1e7215332b7d97c6365" target="_top" xlink:title="Constructs an empty object.">
<polygon fill="white" stroke="black" points="171,-38.5 171,-57.5 270,-57.5 270,-38.5 171,-38.5"/>
<text text-anchor="middle" x="220.5" y="-45.5" font-family="Helvetica,sans-Serif" font-size="10.00">bfl::any::any::any</text>
</a>
</g>
</g>
<!-- Node1&#45;&gt;Node2 -->
<g id="edge1" class="edge">
<title>Node1&#45;&gt;Node2</title>
<path fill="none" stroke="midnightblue" d="M131.39,-37.06C141.08,-38.26 151.02,-39.5 160.58,-40.68"/>
<polygon fill="midnightblue" stroke="midnightblue" points="160.41,-44.19 170.76,-41.95 161.27,-37.24 160.41,-44.19"/>
</g>
<!-- Node3 -->
<g id="node3" class="node">
<title>Node3</title>
<g id="a_node3"><a xlink:href="classbfl_1_1any_1_1any.html#a0441e5816aa5ef4721f134868b7ca402" target="_top" xlink:title="Swaps the content of two any objects.">
<polygon fill="white" stroke="black" points="167,-0.5 167,-19.5 274,-19.5 274,-0.5 167,-0.5"/>
<text text-anchor="middle" x="220.5" y="-7.5" font-family="Helvetica,sans-Serif" font-size="10.00">bfl::any::any::swap</text>
</a>
</g>
</g>
<!-- Node1&#45;&gt;Node3 -->
<g id="edge2" class="edge">
<title>Node1&#45;&gt;Node3</title>
<path fill="none" stroke="midnightblue" d="M131.39,-20.94C139.72,-19.91 148.25,-18.85 156.56,-17.82"/>
<polygon fill="midnightblue" stroke="midnightblue" points="157.06,-21.28 166.55,-16.58 156.2,-14.33 157.06,-21.28"/>
</g>
<!-- Node4 -->
<g id="node4" class="node">
<title>Node4</title>
<g id="a_node4"><a xlink:href="namespacebfl_1_1any.html#adb1328ea975e3bf9c0addc1689215bad" target="_top" xlink:title="Overloads the std::swap algorithm for std::any.">
<polygon fill="white" stroke="black" points="310,-0.5 310,-19.5 393,-19.5 393,-0.5 310,-0.5"/>
<text text-anchor="middle" x="351.5" y="-7.5" font-family="Helvetica,sans-Serif" font-size="10.00">bfl::any::swap</text>
</a>
</g>
</g>
<!-- Node3&#45;&gt;Node4 -->
<g id="edge3" class="edge">
<title>Node3&#45;&gt;Node4</title>
<path fill="none" stroke="midnightblue" d="M274.34,-3.35C282.66,-3.21 291.24,-3.22 299.52,-3.38"/>
<polygon fill="midnightblue" stroke="midnightblue" points="299.69,-6.89 309.79,-3.68 299.89,0.11 299.69,-6.89"/>
</g>
<!-- Node4&#45;&gt;Node3 -->
<g id="edge4" class="edge">
<title>Node4&#45;&gt;Node3</title>
<path fill="none" stroke="midnightblue" d="M309.79,-16.32C301.7,-16.63 293.04,-16.77 284.41,-16.75"/>
<polygon fill="midnightblue" stroke="midnightblue" points="284.37,-13.25 274.34,-16.65 284.31,-20.25 284.37,-13.25"/>
</g>
</g>
</svg>
