<?xml version="1.0" encoding="UTF-8" standalone="no"?>
<!DOCTYPE svg PUBLIC "-//W3C//DTD SVG 1.1//EN"
 "http://www.w3.org/Graphics/SVG/1.1/DTD/svg11.dtd">
<!-- Generated by graphviz version 2.43.0 (0)
 -->
<!-- Title: bfl::Resampling::resample Pages: 1 -->
<svg width="305pt" height="176pt"
 viewBox="0.00 0.00 305.00 176.00" xmlns="http://www.w3.org/2000/svg" xmlns:xlink="http://www.w3.org/1999/xlink">
<g id="graph0" class="graph" transform="scale(1 1) rotate(0) translate(4 172)">
<title>bfl::Resampling::resample</title>
<polygon fill="white" stroke="transparent" points="-4,4 -4,-172 301,-172 301,4 -4,4"/>
<!-- Node1 -->
<g id="node1" class="node">
<title>Node1</title>
<g id="a_node1"><a xlink:title=" ">
<polygon fill="#bfbfbf" stroke="black" points="0,-72 0,-91 144,-91 144,-72 0,-72"/>
<text text-anchor="middle" x="72" y="-79" font-family="Helvetica,sans-Serif" font-size="10.00">bfl::Resampling::resample</text>
</a>
</g>
</g>
<!-- Node2 -->
<g id="node2" class="node">
<title>Node2</title>
<g id="a_node2"><a xlink:href="classbfl_1_1GaussianMixture.html#a63afff5b5e09399a51ac4dbe50de568b" target="_top" xlink:title=" ">
<polygon fill="white" stroke="black" points="180,-137.5 180,-167.5 297,-167.5 297,-137.5 180,-137.5"/>
<text text-anchor="start" x="188" y="-155.5" font-family="Helvetica,sans-Serif" font-size="10.00">bfl::GaussianMixture</text>
<text text-anchor="middle" x="238.5" y="-144.5" font-family="Helvetica,sans-Serif" font-size="10.00">::covariance</text>
</a>
</g>
</g>
<!-- Node1&#45;&gt;Node2 -->
<g id="edge1" class="edge">
<title>Node1&#45;&gt;Node2</title>
<path fill="none" stroke="midnightblue" d="M94.67,-91.16C116.25,-100.74 150.34,-115.8 180,-128.5 183.86,-130.15 187.87,-131.86 191.9,-133.56"/>
<polygon fill="midnightblue" stroke="midnightblue" points="190.69,-136.84 201.26,-137.49 193.4,-130.39 190.69,-136.84"/>
</g>
<!-- Node3 -->
<g id="node3" class="node">
<title>Node3</title>
<g id="a_node3"><a xlink:href="classbfl_1_1GaussianMixture.html#a7b33a3796b65b8a8b44f9569f226b4cf" target="_top" xlink:title=" ">
<polygon fill="white" stroke="black" points="180,-88.5 180,-118.5 297,-118.5 297,-88.5 180,-88.5"/>
<text text-anchor="start" x="188" y="-106.5" font-family="Helvetica,sans-Serif" font-size="10.00">bfl::GaussianMixture</text>
<text text-anchor="middle" x="238.5" y="-95.5" font-family="Helvetica,sans-Serif" font-size="10.00">::mean</text>
</a>
</g>
</g>
<!-- Node1&#45;&gt;Node3 -->
<g id="edge2" class="edge">
<title>Node1&#45;&gt;Node3</title>
<path fill="none" stroke="midnightblue" d="M144.2,-91.02C152.65,-92.15 161.27,-93.3 169.68,-94.43"/>
<polygon fill="midnightblue" stroke="midnightblue" points="169.43,-97.93 179.81,-95.78 170.36,-90.99 169.43,-97.93"/>
</g>
<!-- Node4 -->
<g id="node4" class="node">
<title>Node4</title>
<g id="a_node4"><a xlink:href="classbfl_1_1ParticleSet.html#a1e169ba2f78bb9c158ea7728223c3664" target="_top" xlink:title=" ">
<polygon fill="white" stroke="black" points="180,-50 180,-69 297,-69 297,-50 180,-50"/>
<text text-anchor="middle" x="238.5" y="-57" font-family="Helvetica,sans-Serif" font-size="10.00">bfl::ParticleSet::state</text>
</a>
</g>
</g>
<!-- Node1&#45;&gt;Node4 -->
<g id="edge3" class="edge">
<title>Node1&#45;&gt;Node4</title>
<path fill="none" stroke="midnightblue" d="M144.2,-71.98C152.65,-70.85 161.27,-69.7 169.68,-68.57"/>
<polygon fill="midnightblue" stroke="midnightblue" points="170.36,-72.01 179.81,-67.22 169.43,-65.07 170.36,-72.01"/>
</g>
<!-- Node5 -->
<g id="node5" class="node">
<title>Node5</title>
<g id="a_node5"><a xlink:href="classbfl_1_1GaussianMixture.html#a82c919e4e81aecb4f0665dcdd20914b1" target="_top" xlink:title=" ">
<polygon fill="white" stroke="black" points="180,-0.5 180,-30.5 297,-30.5 297,-0.5 180,-0.5"/>
<text text-anchor="start" x="188" y="-18.5" font-family="Helvetica,sans-Serif" font-size="10.00">bfl::GaussianMixture</text>
<text text-anchor="middle" x="238.5" y="-7.5" font-family="Helvetica,sans-Serif" font-size="10.00">::weight</text>
</a>
</g>
</g>
<!-- Node1&#45;&gt;Node5 -->
<g id="edge4" class="edge">
<title>Node1&#45;&gt;Node5</title>
<path fill="none" stroke="midnightblue" d="M96.92,-71.9C121.28,-62.13 159.71,-46.71 190.24,-34.46"/>
<polygon fill="midnightblue" stroke="midnightblue" points="191.87,-37.58 199.85,-30.61 189.26,-31.08 191.87,-37.58"/>
</g>
</g>
</svg>
