<?xml version="1.0" encoding="UTF-8" standalone="no"?>
<!DOCTYPE svg PUBLIC "-//W3C//DTD SVG 1.1//EN"
 "http://www.w3.org/Graphics/SVG/1.1/DTD/svg11.dtd">
<!-- Generated by graphviz version 2.47.2 (0)
 -->
<!-- Title: bfl::UKFCorrection::correctStep Pages: 1 -->
<svg width="596pt" height="373pt"
 viewBox="0.00 0.00 596.00 373.19" xmlns="http://www.w3.org/2000/svg" xmlns:xlink="http://www.w3.org/1999/xlink">
<g id="graph0" class="graph" transform="scale(1 1) rotate(0) translate(4 369.19)">
<title>bfl::UKFCorrection::correctStep</title>
<polygon fill="white" stroke="transparent" points="-4,4 -4,-369.19 592,-369.19 592,4 -4,4"/>
<!-- Node1 -->
<g id="node1" class="node">
<title>Node1</title>
<g id="a_node1"><a xlink:title=" ">
<polygon fill="#bfbfbf" stroke="black" points="0,-172.69 0,-202.69 98,-202.69 98,-172.69 0,-172.69"/>
<text text-anchor="start" x="8" y="-190.69" font-family="Helvetica,sans-Serif" font-size="10.00">bfl::UKFCorrection</text>
<text text-anchor="middle" x="49" y="-179.69" font-family="Helvetica,sans-Serif" font-size="10.00">::correctStep</text>
</a>
</g>
</g>
<!-- Node2 -->
<g id="node2" class="node">
<title>Node2</title>
<g id="a_node2"><a xlink:href="classbfl_1_1GaussianMixture.html#aec4e807341e18c18faed041c41121cb7" target="_top" xlink:title=" ">
<polygon fill="white" stroke="black" points="149.5,-334.69 149.5,-364.69 256.5,-364.69 256.5,-334.69 149.5,-334.69"/>
<text text-anchor="start" x="157.5" y="-352.69" font-family="Helvetica,sans-Serif" font-size="10.00">bfl::GaussianMixture</text>
<text text-anchor="middle" x="203" y="-341.69" font-family="Helvetica,sans-Serif" font-size="10.00">::augmentWithNoise</text>
</a>
</g>
</g>
<!-- Node1&#45;&gt;Node2 -->
<g id="edge1" class="edge">
<title>Node1&#45;&gt;Node2</title>
<path fill="none" stroke="midnightblue" d="M56.06,-202.78C67.54,-229.64 94.85,-286.06 134,-319.69 138.45,-323.51 143.47,-326.93 148.71,-329.95"/>
<polygon fill="midnightblue" stroke="midnightblue" points="147.2,-333.11 157.68,-334.69 150.47,-326.92 147.2,-333.11"/>
</g>
<!-- Node3 -->
<g id="node3" class="node">
<title>Node3</title>
<g id="a_node3"><a xlink:href="classbfl_1_1GaussianMixture.html#a65a60ef46d16ac33196a09963bbccdee" target="_top" xlink:title=" ">
<polygon fill="white" stroke="black" points="473.5,-234.69 473.5,-264.69 580.5,-264.69 580.5,-234.69 473.5,-234.69"/>
<text text-anchor="start" x="481.5" y="-252.69" font-family="Helvetica,sans-Serif" font-size="10.00">bfl::GaussianMixture</text>
<text text-anchor="middle" x="527" y="-241.69" font-family="Helvetica,sans-Serif" font-size="10.00">::covariance</text>
</a>
</g>
</g>
<!-- Node1&#45;&gt;Node3 -->
<g id="edge2" class="edge">
<title>Node1&#45;&gt;Node3</title>
<path fill="none" stroke="midnightblue" d="M57.46,-203.02C69.73,-226.22 96.57,-269.36 134,-286.69 249.47,-340.15 404.27,-296.3 480.16,-268.39"/>
<polygon fill="midnightblue" stroke="midnightblue" points="481.76,-271.53 489.89,-264.74 479.3,-264.98 481.76,-271.53"/>
</g>
<!-- Node4 -->
<g id="node4" class="node">
<title>Node4</title>
<g id="a_node4"><a xlink:href="classbfl_1_1MeasurementModel.html#af25f42076b69e0c6cab47d36d796536f" target="_top" xlink:title=" ">
<polygon fill="white" stroke="black" points="134,-246.69 134,-276.69 272,-276.69 272,-246.69 134,-246.69"/>
<text text-anchor="start" x="142" y="-264.69" font-family="Helvetica,sans-Serif" font-size="10.00">bfl::MeasurementModel</text>
<text text-anchor="middle" x="203" y="-253.69" font-family="Helvetica,sans-Serif" font-size="10.00">::getNoiseCovarianceMatrix</text>
</a>
</g>
</g>
<!-- Node1&#45;&gt;Node4 -->
<g id="edge3" class="edge">
<title>Node1&#45;&gt;Node4</title>
<path fill="none" stroke="midnightblue" d="M72.5,-202.75C89.05,-213.4 112.33,-227.54 134,-237.69 137.83,-239.48 141.83,-241.22 145.89,-242.88"/>
<polygon fill="midnightblue" stroke="midnightblue" points="144.83,-246.23 155.42,-246.63 147.39,-239.71 144.83,-246.23"/>
</g>
<!-- Node5 -->
<g id="node5" class="node">
<title>Node5</title>
<g id="a_node5"><a xlink:href="classbfl_1_1MeasurementModel.html#a6cca2022b576c9dbb61e73b83a10c6ee" target="_top" xlink:title=" ">
<polygon fill="white" stroke="black" points="143.5,-197.69 143.5,-227.69 262.5,-227.69 262.5,-197.69 143.5,-197.69"/>
<text text-anchor="start" x="151.5" y="-215.69" font-family="Helvetica,sans-Serif" font-size="10.00">bfl::MeasurementModel</text>
<text text-anchor="middle" x="203" y="-204.69" font-family="Helvetica,sans-Serif" font-size="10.00">::getOutputSize</text>
</a>
</g>
</g>
<!-- Node1&#45;&gt;Node5 -->
<g id="edge4" class="edge">
<title>Node1&#45;&gt;Node5</title>
<path fill="none" stroke="midnightblue" d="M98.09,-195.6C109.31,-197.44 121.46,-199.44 133.37,-201.4"/>
<polygon fill="midnightblue" stroke="midnightblue" points="132.85,-204.86 143.29,-203.03 133.99,-197.96 132.85,-204.86"/>
</g>
<!-- Node6 -->
<g id="node6" class="node">
<title>Node6</title>
<g id="a_node6"><a xlink:href="classbfl_1_1MeasurementModel.html#ae9d3627dd9e935795d1e4c76bb34029c" target="_top" xlink:title=" ">
<polygon fill="white" stroke="black" points="143.5,-148.69 143.5,-178.69 262.5,-178.69 262.5,-148.69 143.5,-148.69"/>
<text text-anchor="start" x="151.5" y="-166.69" font-family="Helvetica,sans-Serif" font-size="10.00">bfl::MeasurementModel</text>
<text text-anchor="middle" x="203" y="-155.69" font-family="Helvetica,sans-Serif" font-size="10.00">::innovation</text>
</a>
</g>
</g>
<!-- Node1&#45;&gt;Node6 -->
<g id="edge5" class="edge">
<title>Node1&#45;&gt;Node6</title>
<path fill="none" stroke="midnightblue" d="M98.09,-180.1C109.31,-178.33 121.46,-176.41 133.37,-174.53"/>
<polygon fill="midnightblue" stroke="midnightblue" points="133.96,-177.98 143.29,-172.96 132.86,-171.06 133.96,-177.98"/>
</g>
<!-- Node7 -->
<g id="node7" class="node">
<title>Node7</title>
<g id="a_node7"><a xlink:href="classbfl_1_1GaussianMixture.html#af4fd865a97ac27c72510cfbf9429bd97" target="_top" xlink:title=" ">
<polygon fill="white" stroke="black" points="473.5,-94.69 473.5,-124.69 580.5,-124.69 580.5,-94.69 473.5,-94.69"/>
<text text-anchor="start" x="481.5" y="-112.69" font-family="Helvetica,sans-Serif" font-size="10.00">bfl::GaussianMixture</text>
<text text-anchor="middle" x="527" y="-101.69" font-family="Helvetica,sans-Serif" font-size="10.00">::mean</text>
</a>
</g>
</g>
<!-- Node1&#45;&gt;Node7 -->
<g id="edge6" class="edge">
<title>Node1&#45;&gt;Node7</title>
<path fill="none" stroke="midnightblue" d="M53.35,-172.5C61.17,-141.14 83.92,-69.75 134,-40.69 247.78,25.34 304.78,-0.36 430,-40.69 458.46,-49.86 485.62,-70.94 503.74,-87.4"/>
<polygon fill="midnightblue" stroke="midnightblue" points="501.71,-90.3 511.4,-94.58 506.5,-85.19 501.71,-90.3"/>
</g>
<!-- Node8 -->
<g id="node8" class="node">
<title>Node8</title>
<g id="a_node8"><a xlink:href="classbfl_1_1MeasurementModel.html#a4e4180af8aba033a33f0d6942b9e6b18" target="_top" xlink:title=" ">
<polygon fill="white" stroke="black" points="143.5,-50.69 143.5,-80.69 262.5,-80.69 262.5,-50.69 143.5,-50.69"/>
<text text-anchor="start" x="151.5" y="-68.69" font-family="Helvetica,sans-Serif" font-size="10.00">bfl::MeasurementModel</text>
<text text-anchor="middle" x="203" y="-57.69" font-family="Helvetica,sans-Serif" font-size="10.00">::measure</text>
</a>
</g>
</g>
<!-- Node1&#45;&gt;Node8 -->
<g id="edge7" class="edge">
<title>Node1&#45;&gt;Node8</title>
<path fill="none" stroke="midnightblue" d="M59.25,-172.58C73.03,-151.24 100.91,-112.36 134,-89.69 136.25,-88.15 138.6,-86.7 141.03,-85.33"/>
<polygon fill="midnightblue" stroke="midnightblue" points="142.75,-88.39 150.09,-80.75 139.59,-82.14 142.75,-88.39"/>
</g>
<!-- Node9 -->
<g id="node9" class="node">
<title>Node9</title>
<g id="a_node9"><a xlink:href="namespacebfl_1_1sigma__point.html#afe170453152d4f96db4dad71bd9be9a3" target="_top" xlink:title=" ">
<polygon fill="white" stroke="black" points="134.5,-99.69 134.5,-129.69 271.5,-129.69 271.5,-99.69 134.5,-99.69"/>
<text text-anchor="start" x="142.5" y="-117.69" font-family="Helvetica,sans-Serif" font-size="10.00">bfl::sigma_point::unscented</text>
<text text-anchor="middle" x="203" y="-106.69" font-family="Helvetica,sans-Serif" font-size="10.00">_transform</text>
</a>
</g>
</g>
<!-- Node1&#45;&gt;Node9 -->
<g id="edge8" class="edge">
<title>Node1&#45;&gt;Node9</title>
<path fill="none" stroke="midnightblue" d="M74.05,-172.51C90.55,-162.47 113.14,-149.4 134,-139.69 138.59,-137.55 143.41,-135.47 148.28,-133.48"/>
<polygon fill="midnightblue" stroke="midnightblue" points="149.65,-136.7 157.67,-129.77 147.08,-130.19 149.65,-136.7"/>
</g>
<!-- Node9&#45;&gt;Node3 -->
<g id="edge9" class="edge">
<title>Node9&#45;&gt;Node3</title>
<path fill="none" stroke="midnightblue" d="M258.47,-129.82C263.39,-132.59 268.02,-135.85 272,-139.69 302.41,-169.03 274.14,-202.4 308,-227.69 352.15,-260.67 416.15,-263.37 463.38,-259.49"/>
<polygon fill="midnightblue" stroke="midnightblue" points="463.87,-262.96 473.5,-258.55 463.21,-256 463.87,-262.96"/>
</g>
<!-- Node9&#45;&gt;Node7 -->
<g id="edge12" class="edge">
<title>Node9&#45;&gt;Node7</title>
<path fill="none" stroke="midnightblue" d="M271.5,-113.64C327.98,-112.76 407.95,-111.52 463.1,-110.67"/>
<polygon fill="midnightblue" stroke="midnightblue" points="463.5,-114.16 473.44,-110.51 463.39,-107.16 463.5,-114.16"/>
</g>
<!-- Node10 -->
<g id="node10" class="node">
<title>Node10</title>
<g id="a_node10"><a xlink:href="namespacebfl_1_1directional__statistics.html#ad8758aac208bc2baa75aad514a3f53e6" target="_top" xlink:title=" ">
<polygon fill="white" stroke="black" points="308,-50.69 308,-80.69 430,-80.69 430,-50.69 308,-50.69"/>
<text text-anchor="start" x="316" y="-68.69" font-family="Helvetica,sans-Serif" font-size="10.00">bfl::directional_statistics</text>
<text text-anchor="middle" x="369" y="-57.69" font-family="Helvetica,sans-Serif" font-size="10.00">::directional_mean</text>
</a>
</g>
</g>
<!-- Node9&#45;&gt;Node10 -->
<g id="edge10" class="edge">
<title>Node9&#45;&gt;Node10</title>
<path fill="none" stroke="midnightblue" d="M254.54,-99.59C271.46,-94.53 290.48,-88.85 308.04,-83.6"/>
<polygon fill="midnightblue" stroke="midnightblue" points="309.04,-86.96 317.62,-80.74 307.04,-80.25 309.04,-86.96"/>
</g>
<!-- Node11 -->
<g id="node11" class="node">
<title>Node11</title>
<g id="a_node11"><a xlink:href="namespacebfl_1_1directional__statistics.html#a18bffca88c7ea5f4ea11d2ad910736fe" target="_top" xlink:title=" ">
<polygon fill="white" stroke="black" points="308,-138.69 308,-168.69 430,-168.69 430,-138.69 308,-138.69"/>
<text text-anchor="start" x="316" y="-156.69" font-family="Helvetica,sans-Serif" font-size="10.00">bfl::directional_statistics</text>
<text text-anchor="middle" x="369" y="-145.69" font-family="Helvetica,sans-Serif" font-size="10.00">::directional_sub</text>
</a>
</g>
</g>
<!-- Node9&#45;&gt;Node11 -->
<g id="edge11" class="edge">
<title>Node9&#45;&gt;Node11</title>
<path fill="none" stroke="midnightblue" d="M267.41,-129.77C277.41,-132.15 287.81,-134.62 297.95,-137.03"/>
<polygon fill="midnightblue" stroke="midnightblue" points="297.45,-140.51 307.99,-139.42 299.07,-133.7 297.45,-140.51"/>
</g>
<!-- Node12 -->
<g id="node12" class="node">
<title>Node12</title>
<g id="a_node12"><a xlink:href="namespacebfl_1_1sigma__point.html#ab919aca5fccc30ee2acd5cd966cd9dc9" target="_top" xlink:title=" ">
<polygon fill="white" stroke="black" points="310,-187.69 310,-217.69 428,-217.69 428,-187.69 310,-187.69"/>
<text text-anchor="start" x="318" y="-205.69" font-family="Helvetica,sans-Serif" font-size="10.00">bfl::sigma_point::sigma</text>
<text text-anchor="middle" x="369" y="-194.69" font-family="Helvetica,sans-Serif" font-size="10.00">_point</text>
</a>
</g>
</g>
<!-- Node9&#45;&gt;Node12 -->
<g id="edge13" class="edge">
<title>Node9&#45;&gt;Node12</title>
<path fill="none" stroke="midnightblue" d="M253.65,-129.78C260.06,-132.62 266.35,-135.92 272,-139.69 291.62,-152.79 288.57,-165.31 308,-178.69 310.1,-180.14 312.3,-181.52 314.57,-182.83"/>
<polygon fill="midnightblue" stroke="midnightblue" points="313.09,-186.01 323.58,-187.56 316.35,-179.81 313.09,-186.01"/>
</g>
<!-- Node12&#45;&gt;Node3 -->
<g id="edge14" class="edge">
<title>Node12&#45;&gt;Node3</title>
<path fill="none" stroke="midnightblue" d="M419.79,-217.69C434.56,-222.14 450.9,-227.06 466.24,-231.68"/>
<polygon fill="midnightblue" stroke="midnightblue" points="465.57,-235.14 476.15,-234.67 467.58,-228.43 465.57,-235.14"/>
</g>
<!-- Node12&#45;&gt;Node7 -->
<g id="edge16" class="edge">
<title>Node12&#45;&gt;Node7</title>
<path fill="none" stroke="midnightblue" d="M411.6,-187.58C417.88,-184.86 424.2,-181.87 430,-178.69 454.97,-164.99 481.07,-145.87 499.74,-131.23"/>
<polygon fill="midnightblue" stroke="midnightblue" points="502.12,-133.82 507.77,-124.86 497.76,-128.34 502.12,-133.82"/>
</g>
<!-- Node13 -->
<g id="node13" class="node">
<title>Node13</title>
<g id="a_node13"><a xlink:href="namespacebfl_1_1directional__statistics.html#af9984a4df2b3f6f0bc0c264783181123" target="_top" xlink:title=" ">
<polygon fill="white" stroke="black" points="466,-185.69 466,-215.69 588,-215.69 588,-185.69 466,-185.69"/>
<text text-anchor="start" x="474" y="-203.69" font-family="Helvetica,sans-Serif" font-size="10.00">bfl::directional_statistics</text>
<text text-anchor="middle" x="527" y="-192.69" font-family="Helvetica,sans-Serif" font-size="10.00">::directional_add</text>
</a>
</g>
</g>
<!-- Node12&#45;&gt;Node13 -->
<g id="edge15" class="edge">
<title>Node12&#45;&gt;Node13</title>
<path fill="none" stroke="midnightblue" d="M428.09,-201.94C437.03,-201.83 446.34,-201.71 455.51,-201.59"/>
<polygon fill="midnightblue" stroke="midnightblue" points="455.82,-205.09 465.78,-201.46 455.73,-198.09 455.82,-205.09"/>
</g>
</g>
</svg>
