<?xml version="1.0" encoding="UTF-8" standalone="no"?>
<!DOCTYPE svg PUBLIC "-//W3C//DTD SVG 1.1//EN"
 "http://www.w3.org/Graphics/SVG/1.1/DTD/svg11.dtd">
<!-- Generated by graphviz version 2.47.2 (0)
 -->
<!-- Title: bfl::ParticleFilter Pages: 1 -->
<svg width="228pt" height="196pt"
 viewBox="0.00 0.00 227.50 196.00" xmlns="http://www.w3.org/2000/svg" xmlns:xlink="http://www.w3.org/1999/xlink">
<g id="graph0" class="graph" transform="scale(1 1) rotate(0) translate(4 192)">
<title>bfl::ParticleFilter</title>
<polygon fill="white" stroke="transparent" points="-4,4 -4,-192 223.5,-192 223.5,4 -4,4"/>
<!-- Node1 -->
<g id="node1" class="node">
<title>Node1</title>
<g id="a_node1"><a xlink:title=" ">
<polygon fill="#bfbfbf" stroke="black" points="62.5,-56.5 62.5,-75.5 150.5,-75.5 150.5,-56.5 62.5,-56.5"/>
<text text-anchor="middle" x="106.5" y="-63.5" font-family="Helvetica,sans-Serif" font-size="10.00">bfl::ParticleFilter</text>
</a>
</g>
</g>
<!-- Node6 -->
<g id="node6" class="node">
<title>Node6</title>
<g id="a_node6"><a xlink:href="classbfl_1_1SIS.html" target="_top" xlink:title=" ">
<polygon fill="white" stroke="black" points="81.5,-0.5 81.5,-19.5 131.5,-19.5 131.5,-0.5 81.5,-0.5"/>
<text text-anchor="middle" x="106.5" y="-7.5" font-family="Helvetica,sans-Serif" font-size="10.00">bfl::SIS</text>
</a>
</g>
</g>
<!-- Node1&#45;&gt;Node6 -->
<g id="edge5" class="edge">
<title>Node1&#45;&gt;Node6</title>
<path fill="none" stroke="midnightblue" d="M106.5,-45.8C106.5,-36.91 106.5,-26.78 106.5,-19.75"/>
<polygon fill="midnightblue" stroke="midnightblue" points="103,-46.08 106.5,-56.08 110,-46.08 103,-46.08"/>
</g>
<!-- Node2 -->
<g id="node2" class="node">
<title>Node2</title>
<g id="a_node2"><a xlink:href="classbfl_1_1FilteringAlgorithm.html" target="_top" xlink:title=" ">
<polygon fill="white" stroke="black" points="52,-112.5 52,-131.5 161,-131.5 161,-112.5 52,-112.5"/>
<text text-anchor="middle" x="106.5" y="-119.5" font-family="Helvetica,sans-Serif" font-size="10.00">bfl::FilteringAlgorithm</text>
</a>
</g>
</g>
<!-- Node2&#45;&gt;Node1 -->
<g id="edge1" class="edge">
<title>Node2&#45;&gt;Node1</title>
<path fill="none" stroke="midnightblue" d="M106.5,-101.8C106.5,-92.91 106.5,-82.78 106.5,-75.75"/>
<polygon fill="midnightblue" stroke="midnightblue" points="103,-102.08 106.5,-112.08 110,-102.08 103,-102.08"/>
</g>
<!-- Node3 -->
<g id="node3" class="node">
<title>Node3</title>
<g id="a_node3"><a xlink:href="classbfl_1_1Filter.html" target="_top" xlink:title=" ">
<polygon fill="white" stroke="black" points="0,-168.5 0,-187.5 55,-187.5 55,-168.5 0,-168.5"/>
<text text-anchor="middle" x="27.5" y="-175.5" font-family="Helvetica,sans-Serif" font-size="10.00">bfl::Filter</text>
</a>
</g>
</g>
<!-- Node3&#45;&gt;Node2 -->
<g id="edge2" class="edge">
<title>Node3&#45;&gt;Node2</title>
<path fill="none" stroke="midnightblue" d="M48.53,-162.62C62.97,-152.76 81.64,-139.99 93.84,-131.65"/>
<polygon fill="midnightblue" stroke="midnightblue" points="46.47,-159.79 40.19,-168.32 50.42,-165.57 46.47,-159.79"/>
</g>
<!-- Node4 -->
<g id="node4" class="node">
<title>Node4</title>
<g id="a_node4"><a xlink:href="classbfl_1_1Skipper.html" target="_top" xlink:title=" ">
<polygon fill="white" stroke="black" points="73.5,-168.5 73.5,-187.5 139.5,-187.5 139.5,-168.5 73.5,-168.5"/>
<text text-anchor="middle" x="106.5" y="-175.5" font-family="Helvetica,sans-Serif" font-size="10.00">bfl::Skipper</text>
</a>
</g>
</g>
<!-- Node4&#45;&gt;Node2 -->
<g id="edge3" class="edge">
<title>Node4&#45;&gt;Node2</title>
<path fill="none" stroke="midnightblue" d="M106.5,-157.8C106.5,-148.91 106.5,-138.78 106.5,-131.75"/>
<polygon fill="midnightblue" stroke="midnightblue" points="103,-158.08 106.5,-168.08 110,-158.08 103,-158.08"/>
</g>
<!-- Node5 -->
<g id="node5" class="node">
<title>Node5</title>
<g id="a_node5"><a xlink:href="classbfl_1_1Logger.html" target="_top" xlink:title=" ">
<polygon fill="white" stroke="black" points="157.5,-168.5 157.5,-187.5 219.5,-187.5 219.5,-168.5 157.5,-168.5"/>
<text text-anchor="middle" x="188.5" y="-175.5" font-family="Helvetica,sans-Serif" font-size="10.00">bfl::Logger</text>
</a>
</g>
</g>
<!-- Node5&#45;&gt;Node2 -->
<g id="edge4" class="edge">
<title>Node5&#45;&gt;Node2</title>
<path fill="none" stroke="midnightblue" d="M166.67,-162.62C151.69,-152.76 132.3,-139.99 119.64,-131.65"/>
<polygon fill="midnightblue" stroke="midnightblue" points="165.05,-165.75 175.33,-168.32 168.9,-159.9 165.05,-165.75"/>
</g>
</g>
</svg>
