<?xml version="1.0" encoding="UTF-8" standalone="no"?>
<!DOCTYPE svg PUBLIC "-//W3C//DTD SVG 1.1//EN"
 "http://www.w3.org/Graphics/SVG/1.1/DTD/svg11.dtd">
<!-- Generated by graphviz version 2.43.0 (0)
 -->
<!-- Title: bfl::UKFPrediction Pages: 1 -->
<svg width="276pt" height="196pt"
 viewBox="0.00 0.00 275.50 196.00" xmlns="http://www.w3.org/2000/svg" xmlns:xlink="http://www.w3.org/1999/xlink">
<g id="graph0" class="graph" transform="scale(1 1) rotate(0) translate(4 192)">
<title>bfl::UKFPrediction</title>
<polygon fill="white" stroke="transparent" points="-4,4 -4,-192 271.5,-192 271.5,4 -4,4"/>
<!-- Node1 -->
<g id="node1" class="node">
<title>Node1</title>
<g id="a_node1"><a xlink:title=" ">
<polygon fill="#bfbfbf" stroke="black" points="102,-0.5 102,-19.5 206,-19.5 206,-0.5 102,-0.5"/>
<text text-anchor="middle" x="154" y="-7.5" font-family="Helvetica,sans-Serif" font-size="10.00">bfl::UKFPrediction</text>
</a>
</g>
</g>
<!-- Node2 -->
<g id="node2" class="node">
<title>Node2</title>
<g id="a_node2"><a xlink:href="classbfl_1_1GaussianPrediction.html" target="_top" xlink:title=" ">
<polygon fill="white" stroke="black" points="90,-56.5 90,-75.5 218,-75.5 218,-56.5 90,-56.5"/>
<text text-anchor="middle" x="154" y="-63.5" font-family="Helvetica,sans-Serif" font-size="10.00">bfl::GaussianPrediction</text>
</a>
</g>
</g>
<!-- Node2&#45;&gt;Node1 -->
<g id="edge1" class="edge">
<title>Node2&#45;&gt;Node1</title>
<path fill="none" stroke="midnightblue" d="M154,-45.8C154,-36.91 154,-26.78 154,-19.75"/>
<polygon fill="midnightblue" stroke="midnightblue" points="150.5,-46.08 154,-56.08 157.5,-46.08 150.5,-46.08"/>
</g>
<!-- Node3 -->
<g id="node3" class="node">
<title>Node3</title>
<g id="a_node3"><a xlink:href="classbfl_1_1GaussianMixturePrediction.html" target="_top" xlink:title=" ">
<polygon fill="white" stroke="black" points="0,-112.5 0,-131.5 166,-131.5 166,-112.5 0,-112.5"/>
<text text-anchor="middle" x="83" y="-119.5" font-family="Helvetica,sans-Serif" font-size="10.00">bfl::GaussianMixturePrediction</text>
</a>
</g>
</g>
<!-- Node3&#45;&gt;Node2 -->
<g id="edge2" class="edge">
<title>Node3&#45;&gt;Node2</title>
<path fill="none" stroke="midnightblue" d="M102.59,-106.1C115.37,-96.38 131.61,-84.03 142.39,-75.83"/>
<polygon fill="midnightblue" stroke="midnightblue" points="100.25,-103.48 94.41,-112.32 104.49,-109.06 100.25,-103.48"/>
</g>
<!-- Node4 -->
<g id="node4" class="node">
<title>Node4</title>
<g id="a_node4"><a xlink:href="classbfl_1_1Skippable.html" target="_top" xlink:title=" ">
<polygon fill="white" stroke="black" points="184.5,-112.5 184.5,-131.5 267.5,-131.5 267.5,-112.5 184.5,-112.5"/>
<text text-anchor="middle" x="226" y="-119.5" font-family="Helvetica,sans-Serif" font-size="10.00">bfl::Skippable</text>
</a>
</g>
</g>
<!-- Node4&#45;&gt;Node2 -->
<g id="edge3" class="edge">
<title>Node4&#45;&gt;Node2</title>
<path fill="none" stroke="midnightblue" d="M206.13,-106.1C193.18,-96.38 176.7,-84.03 165.78,-75.83"/>
<polygon fill="midnightblue" stroke="midnightblue" points="204.33,-109.12 214.43,-112.32 208.53,-103.52 204.33,-109.12"/>
</g>
<!-- Node5 -->
<g id="node5" class="node">
<title>Node5</title>
<g id="a_node5"><a xlink:href="classbfl_1_1Skipper.html" target="_top" xlink:title=" ">
<polygon fill="white" stroke="black" points="190.5,-168.5 190.5,-187.5 261.5,-187.5 261.5,-168.5 190.5,-168.5"/>
<text text-anchor="middle" x="226" y="-175.5" font-family="Helvetica,sans-Serif" font-size="10.00">bfl::Skipper</text>
</a>
</g>
</g>
<!-- Node5&#45;&gt;Node4 -->
<g id="edge4" class="edge">
<title>Node5&#45;&gt;Node4</title>
<path fill="none" stroke="midnightblue" d="M226,-157.8C226,-148.91 226,-138.78 226,-131.75"/>
<polygon fill="midnightblue" stroke="midnightblue" points="222.5,-158.08 226,-168.08 229.5,-158.08 222.5,-158.08"/>
</g>
</g>
</svg>
