<?xml version="1.0" encoding="UTF-8" standalone="no"?>
<!DOCTYPE svg PUBLIC "-//W3C//DTD SVG 1.1//EN"
 "http://www.w3.org/Graphics/SVG/1.1/DTD/svg11.dtd">
<!-- Generated by graphviz version 2.43.0 (0)
 -->
<!-- Title: bfl::InitSurveillanceAreaGrid::initialize Pages: 1 -->
<svg width="294pt" height="78pt"
 viewBox="0.00 0.00 294.00 77.50" xmlns="http://www.w3.org/2000/svg" xmlns:xlink="http://www.w3.org/1999/xlink">
<g id="graph0" class="graph" transform="scale(1 1) rotate(0) translate(4 73.5)">
<title>bfl::InitSurveillanceAreaGrid::initialize</title>
<polygon fill="white" stroke="transparent" points="-4,4 -4,-73.5 290,-73.5 290,4 -4,4"/>
<!-- Node1 -->
<g id="node1" class="node">
<title>Node1</title>
<g id="a_node1"><a xlink:title=" ">
<polygon fill="#bfbfbf" stroke="black" points="0,-22.5 0,-52.5 133,-52.5 133,-22.5 0,-22.5"/>
<text text-anchor="start" x="8" y="-40.5" font-family="Helvetica,sans-Serif" font-size="10.00">bfl::InitSurveillanceArea</text>
<text text-anchor="middle" x="66.5" y="-29.5" font-family="Helvetica,sans-Serif" font-size="10.00">Grid::initialize</text>
</a>
</g>
</g>
<!-- Node2 -->
<g id="node2" class="node">
<title>Node2</title>
<g id="a_node2"><a xlink:href="classbfl_1_1ParticleSet.html#a1e169ba2f78bb9c158ea7728223c3664" target="_top" xlink:title=" ">
<polygon fill="white" stroke="black" points="169,-50 169,-69 286,-69 286,-50 169,-50"/>
<text text-anchor="middle" x="227.5" y="-57" font-family="Helvetica,sans-Serif" font-size="10.00">bfl::ParticleSet::state</text>
</a>
</g>
</g>
<!-- Node1&#45;&gt;Node2 -->
<g id="edge1" class="edge">
<title>Node1&#45;&gt;Node2</title>
<path fill="none" stroke="midnightblue" d="M133.09,-46.58C141.64,-47.76 150.4,-48.97 158.98,-50.16"/>
<polygon fill="midnightblue" stroke="midnightblue" points="158.55,-53.63 168.94,-51.54 159.51,-46.7 158.55,-53.63"/>
</g>
<!-- Node3 -->
<g id="node3" class="node">
<title>Node3</title>
<g id="a_node3"><a xlink:href="classbfl_1_1GaussianMixture.html#a82c919e4e81aecb4f0665dcdd20914b1" target="_top" xlink:title=" ">
<polygon fill="white" stroke="black" points="169,-0.5 169,-30.5 286,-30.5 286,-0.5 169,-0.5"/>
<text text-anchor="start" x="177" y="-18.5" font-family="Helvetica,sans-Serif" font-size="10.00">bfl::GaussianMixture</text>
<text text-anchor="middle" x="227.5" y="-7.5" font-family="Helvetica,sans-Serif" font-size="10.00">::weight</text>
</a>
</g>
</g>
<!-- Node1&#45;&gt;Node3 -->
<g id="edge2" class="edge">
<title>Node1&#45;&gt;Node3</title>
<path fill="none" stroke="midnightblue" d="M133.09,-28.42C141.64,-27.24 150.4,-26.03 158.98,-24.84"/>
<polygon fill="midnightblue" stroke="midnightblue" points="159.51,-28.3 168.94,-23.46 158.55,-21.37 159.51,-28.3"/>
</g>
</g>
</svg>
