<?xml version="1.0" encoding="UTF-8" standalone="no"?>
<!DOCTYPE svg PUBLIC "-//W3C//DTD SVG 1.1//EN"
 "http://www.w3.org/Graphics/SVG/1.1/DTD/svg11.dtd">
<!-- Generated by graphviz version 2.43.0 (0)
 -->
<!-- Title: bfl::FilteringAlgorithm::boot Pages: 1 -->
<svg width="446pt" height="137pt"
 viewBox="0.00 0.00 446.00 137.00" xmlns="http://www.w3.org/2000/svg" xmlns:xlink="http://www.w3.org/1999/xlink">
<g id="graph0" class="graph" transform="scale(1 1) rotate(0) translate(4 133)">
<title>bfl::FilteringAlgorithm::boot</title>
<polygon fill="white" stroke="transparent" points="-4,4 -4,-133 442,-133 442,4 -4,4"/>
<!-- Node1 -->
<g id="node1" class="node">
<title>Node1</title>
<g id="a_node1"><a xlink:title=" ">
<polygon fill="#bfbfbf" stroke="black" points="0,-49.5 0,-79.5 122,-79.5 122,-49.5 0,-49.5"/>
<text text-anchor="start" x="8" y="-67.5" font-family="Helvetica,sans-Serif" font-size="10.00">bfl::FilteringAlgorithm</text>
<text text-anchor="middle" x="61" y="-56.5" font-family="Helvetica,sans-Serif" font-size="10.00">::boot</text>
</a>
</g>
</g>
<!-- Node2 -->
<g id="node2" class="node">
<title>Node2</title>
<g id="a_node2"><a xlink:href="classbfl_1_1FilteringAlgorithm.html#a6fc63d20813ea58fd54257394354ffcf" target="_top" xlink:title=" ">
<polygon fill="white" stroke="black" points="158,-49.5 158,-79.5 280,-79.5 280,-49.5 158,-49.5"/>
<text text-anchor="start" x="166" y="-67.5" font-family="Helvetica,sans-Serif" font-size="10.00">bfl::FilteringAlgorithm</text>
<text text-anchor="middle" x="219" y="-56.5" font-family="Helvetica,sans-Serif" font-size="10.00">::filtering_recursion</text>
</a>
</g>
</g>
<!-- Node1&#45;&gt;Node2 -->
<g id="edge1" class="edge">
<title>Node1&#45;&gt;Node2</title>
<path fill="none" stroke="midnightblue" d="M122.31,-64.5C130.6,-64.5 139.17,-64.5 147.63,-64.5"/>
<polygon fill="midnightblue" stroke="midnightblue" points="147.85,-68 157.85,-64.5 147.85,-61 147.85,-68"/>
</g>
<!-- Node3 -->
<g id="node3" class="node">
<title>Node3</title>
<g id="a_node3"><a xlink:href="classbfl_1_1FilteringAlgorithm.html#a08a551b474611c8b50626bba3b9e6999" target="_top" xlink:title=" ">
<polygon fill="white" stroke="black" points="316,-98.5 316,-128.5 438,-128.5 438,-98.5 316,-98.5"/>
<text text-anchor="start" x="324" y="-116.5" font-family="Helvetica,sans-Serif" font-size="10.00">bfl::FilteringAlgorithm</text>
<text text-anchor="middle" x="377" y="-105.5" font-family="Helvetica,sans-Serif" font-size="10.00">::filtering_step</text>
</a>
</g>
</g>
<!-- Node2&#45;&gt;Node3 -->
<g id="edge2" class="edge">
<title>Node2&#45;&gt;Node3</title>
<path fill="none" stroke="midnightblue" d="M268.08,-79.6C284.02,-84.61 301.92,-90.23 318.5,-95.44"/>
<polygon fill="midnightblue" stroke="midnightblue" points="317.49,-98.79 328.08,-98.45 319.59,-92.11 317.49,-98.79"/>
</g>
<!-- Node4 -->
<g id="node4" class="node">
<title>Node4</title>
<g id="a_node4"><a xlink:href="classbfl_1_1FilteringAlgorithm.html#a657476652814c79d4cecfd4cd94f1731" target="_top" xlink:title=" ">
<polygon fill="white" stroke="black" points="316,-49.5 316,-79.5 438,-79.5 438,-49.5 316,-49.5"/>
<text text-anchor="start" x="324" y="-67.5" font-family="Helvetica,sans-Serif" font-size="10.00">bfl::FilteringAlgorithm</text>
<text text-anchor="middle" x="377" y="-56.5" font-family="Helvetica,sans-Serif" font-size="10.00">::initialization_step</text>
</a>
</g>
</g>
<!-- Node2&#45;&gt;Node4 -->
<g id="edge3" class="edge">
<title>Node2&#45;&gt;Node4</title>
<path fill="none" stroke="midnightblue" d="M280.31,-64.5C288.6,-64.5 297.17,-64.5 305.63,-64.5"/>
<polygon fill="midnightblue" stroke="midnightblue" points="305.85,-68 315.85,-64.5 305.85,-61 305.85,-68"/>
</g>
<!-- Node5 -->
<g id="node5" class="node">
<title>Node5</title>
<g id="a_node5"><a xlink:href="classbfl_1_1FilteringAlgorithm.html#ae7d472ffb1ce16e3966ca3c95a949fe7" target="_top" xlink:title=" ">
<polygon fill="white" stroke="black" points="316,-0.5 316,-30.5 438,-30.5 438,-0.5 316,-0.5"/>
<text text-anchor="start" x="324" y="-18.5" font-family="Helvetica,sans-Serif" font-size="10.00">bfl::FilteringAlgorithm</text>
<text text-anchor="middle" x="377" y="-7.5" font-family="Helvetica,sans-Serif" font-size="10.00">::run_condition</text>
</a>
</g>
</g>
<!-- Node2&#45;&gt;Node5 -->
<g id="edge4" class="edge">
<title>Node2&#45;&gt;Node5</title>
<path fill="none" stroke="midnightblue" d="M268.08,-49.4C284.02,-44.39 301.92,-38.77 318.5,-33.56"/>
<polygon fill="midnightblue" stroke="midnightblue" points="319.59,-36.89 328.08,-30.55 317.49,-30.21 319.59,-36.89"/>
</g>
</g>
</svg>
