<?xml version="1.0" encoding="UTF-8" standalone="no"?>
<!DOCTYPE svg PUBLIC "-//W3C//DTD SVG 1.1//EN"
 "http://www.w3.org/Graphics/SVG/1.1/DTD/svg11.dtd">
<!-- Generated by graphviz version 2.43.0 (0)
 -->
<!-- Title: bfl::GPFPrediction::predictStep Pages: 1 -->
<svg width="264pt" height="78pt"
 viewBox="0.00 0.00 264.00 77.50" xmlns="http://www.w3.org/2000/svg" xmlns:xlink="http://www.w3.org/1999/xlink">
<g id="graph0" class="graph" transform="scale(1 1) rotate(0) translate(4 73.5)">
<title>bfl::GPFPrediction::predictStep</title>
<polygon fill="white" stroke="transparent" points="-4,4 -4,-73.5 260,-73.5 260,4 -4,4"/>
<!-- Node1 -->
<g id="node1" class="node">
<title>Node1</title>
<g id="a_node1"><a xlink:title=" ">
<polygon fill="#bfbfbf" stroke="black" points="0,-22.5 0,-52.5 103,-52.5 103,-22.5 0,-22.5"/>
<text text-anchor="start" x="8" y="-40.5" font-family="Helvetica,sans-Serif" font-size="10.00">bfl::GPFPrediction</text>
<text text-anchor="middle" x="51.5" y="-29.5" font-family="Helvetica,sans-Serif" font-size="10.00">::predictStep</text>
</a>
</g>
</g>
<!-- Node2 -->
<g id="node2" class="node">
<title>Node2</title>
<g id="a_node2"><a xlink:href="classbfl_1_1ParticleSet.html#a1e169ba2f78bb9c158ea7728223c3664" target="_top" xlink:title=" ">
<polygon fill="white" stroke="black" points="139,-50 139,-69 256,-69 256,-50 139,-50"/>
<text text-anchor="middle" x="197.5" y="-57" font-family="Helvetica,sans-Serif" font-size="10.00">bfl::ParticleSet::state</text>
</a>
</g>
</g>
<!-- Node1&#45;&gt;Node2 -->
<g id="edge1" class="edge">
<title>Node1&#45;&gt;Node2</title>
<path fill="none" stroke="midnightblue" d="M103.27,-45.26C111.53,-46.52 120.21,-47.84 128.8,-49.16"/>
<polygon fill="midnightblue" stroke="midnightblue" points="128.41,-52.64 138.82,-50.69 129.46,-45.72 128.41,-52.64"/>
</g>
<!-- Node3 -->
<g id="node3" class="node">
<title>Node3</title>
<g id="a_node3"><a xlink:href="classbfl_1_1GaussianMixture.html#a82c919e4e81aecb4f0665dcdd20914b1" target="_top" xlink:title=" ">
<polygon fill="white" stroke="black" points="139,-0.5 139,-30.5 256,-30.5 256,-0.5 139,-0.5"/>
<text text-anchor="start" x="147" y="-18.5" font-family="Helvetica,sans-Serif" font-size="10.00">bfl::GaussianMixture</text>
<text text-anchor="middle" x="197.5" y="-7.5" font-family="Helvetica,sans-Serif" font-size="10.00">::weight</text>
</a>
</g>
</g>
<!-- Node1&#45;&gt;Node3 -->
<g id="edge2" class="edge">
<title>Node1&#45;&gt;Node3</title>
<path fill="none" stroke="midnightblue" d="M103.27,-29.74C111.53,-28.48 120.21,-27.16 128.8,-25.84"/>
<polygon fill="midnightblue" stroke="midnightblue" points="129.46,-29.28 138.82,-24.31 128.41,-22.36 129.46,-29.28"/>
</g>
</g>
</svg>
