<?xml version="1.0" encoding="UTF-8" standalone="no"?>
<!DOCTYPE svg PUBLIC "-//W3C//DTD SVG 1.1//EN"
 "http://www.w3.org/Graphics/SVG/1.1/DTD/svg11.dtd">
<!-- Generated by graphviz version 2.47.2 (0)
 -->
<!-- Title: bfl::GaussianCorrection Pages: 1 -->
<svg width="339pt" height="84pt"
 viewBox="0.00 0.00 338.50 84.00" xmlns="http://www.w3.org/2000/svg" xmlns:xlink="http://www.w3.org/1999/xlink">
<g id="graph0" class="graph" transform="scale(1 1) rotate(0) translate(4 80)">
<title>bfl::GaussianCorrection</title>
<polygon fill="white" stroke="transparent" points="-4,4 -4,-80 334.5,-80 334.5,4 -4,4"/>
<!-- Node1 -->
<g id="node1" class="node">
<title>Node1</title>
<g id="a_node1"><a xlink:title=" ">
<polygon fill="#bfbfbf" stroke="black" points="102,-56.5 102,-75.5 221,-75.5 221,-56.5 102,-56.5"/>
<text text-anchor="middle" x="161.5" y="-63.5" font-family="Helvetica,sans-Serif" font-size="10.00">bfl::GaussianCorrection</text>
</a>
</g>
</g>
<!-- Node2 -->
<g id="node2" class="node">
<title>Node2</title>
<g id="a_node2"><a xlink:href="classbfl_1_1KFCorrection.html" target="_top" xlink:title=" ">
<polygon fill="white" stroke="black" points="0,-0.5 0,-19.5 91,-19.5 91,-0.5 0,-0.5"/>
<text text-anchor="middle" x="45.5" y="-7.5" font-family="Helvetica,sans-Serif" font-size="10.00">bfl::KFCorrection</text>
</a>
</g>
</g>
<!-- Node1&#45;&gt;Node2 -->
<g id="edge1" class="edge">
<title>Node1&#45;&gt;Node2</title>
<path fill="none" stroke="midnightblue" d="M133.78,-52.1C112.11,-42.01 82.6,-28.27 63.79,-19.52"/>
<polygon fill="midnightblue" stroke="midnightblue" points="132.58,-55.4 143.12,-56.44 135.53,-49.05 132.58,-55.4"/>
</g>
<!-- Node3 -->
<g id="node3" class="node">
<title>Node3</title>
<g id="a_node3"><a xlink:href="classbfl_1_1SUKFCorrection.html" target="_top" xlink:title="This class implements the algorithm: Barfoot, T., McManus, C.">
<polygon fill="white" stroke="black" points="109,-0.5 109,-19.5 214,-19.5 214,-0.5 109,-0.5"/>
<text text-anchor="middle" x="161.5" y="-7.5" font-family="Helvetica,sans-Serif" font-size="10.00">bfl::SUKFCorrection</text>
</a>
</g>
</g>
<!-- Node1&#45;&gt;Node3 -->
<g id="edge2" class="edge">
<title>Node1&#45;&gt;Node3</title>
<path fill="none" stroke="midnightblue" d="M161.5,-45.8C161.5,-36.91 161.5,-26.78 161.5,-19.75"/>
<polygon fill="midnightblue" stroke="midnightblue" points="158,-46.08 161.5,-56.08 165,-46.08 158,-46.08"/>
</g>
<!-- Node4 -->
<g id="node4" class="node">
<title>Node4</title>
<g id="a_node4"><a xlink:href="classbfl_1_1UKFCorrection.html" target="_top" xlink:title=" ">
<polygon fill="white" stroke="black" points="232.5,-0.5 232.5,-19.5 330.5,-19.5 330.5,-0.5 232.5,-0.5"/>
<text text-anchor="middle" x="281.5" y="-7.5" font-family="Helvetica,sans-Serif" font-size="10.00">bfl::UKFCorrection</text>
</a>
</g>
</g>
<!-- Node1&#45;&gt;Node4 -->
<g id="edge3" class="edge">
<title>Node1&#45;&gt;Node4</title>
<path fill="none" stroke="midnightblue" d="M189.87,-52.23C212.32,-42.13 243.04,-28.31 262.57,-19.52"/>
<polygon fill="midnightblue" stroke="midnightblue" points="188.2,-49.15 180.51,-56.44 191.07,-55.53 188.2,-49.15"/>
</g>
</g>
</svg>
