<?xml version="1.0" encoding="UTF-8" standalone="no"?>
<!DOCTYPE svg PUBLIC "-//W3C//DTD SVG 1.1//EN"
 "http://www.w3.org/Graphics/SVG/1.1/DTD/svg11.dtd">
<!-- Generated by graphviz version 2.47.2 (0)
 -->
<!-- Title: bfl::AdditiveMeasurementModel Pages: 1 -->
<svg width="153pt" height="375pt"
 viewBox="0.00 0.00 153.00 375.00" xmlns="http://www.w3.org/2000/svg" xmlns:xlink="http://www.w3.org/1999/xlink">
<g id="graph0" class="graph" transform="scale(1 1) rotate(0) translate(4 371)">
<title>bfl::AdditiveMeasurementModel</title>
<polygon fill="white" stroke="transparent" points="-4,4 -4,-371 149,-371 149,4 -4,4"/>
<!-- Node1 -->
<g id="node1" class="node">
<title>Node1</title>
<g id="a_node1"><a xlink:title="This class represent an additive measurement model f(x) + w, where x is a state vector and w is rando...">
<polygon fill="#bfbfbf" stroke="black" points="8.5,-224.5 8.5,-254.5 136.5,-254.5 136.5,-224.5 8.5,-224.5"/>
<text text-anchor="start" x="16.5" y="-242.5" font-family="Helvetica,sans-Serif" font-size="10.00">bfl::AdditiveMeasurement</text>
<text text-anchor="middle" x="72.5" y="-231.5" font-family="Helvetica,sans-Serif" font-size="10.00">Model</text>
</a>
</g>
</g>
<!-- Node4 -->
<g id="node4" class="node">
<title>Node4</title>
<g id="a_node4"><a xlink:href="classbfl_1_1LinearMeasurementModel.html" target="_top" xlink:title="This class represent an linear measurement model Hx + w, where H is a time&#45;variant measurement matrix...">
<polygon fill="white" stroke="black" points="0,-168.5 0,-187.5 145,-187.5 145,-168.5 0,-168.5"/>
<text text-anchor="middle" x="72.5" y="-175.5" font-family="Helvetica,sans-Serif" font-size="10.00">bfl::LinearMeasurementModel</text>
</a>
</g>
</g>
<!-- Node1&#45;&gt;Node4 -->
<g id="edge3" class="edge">
<title>Node1&#45;&gt;Node4</title>
<path fill="none" stroke="midnightblue" d="M72.5,-214.29C72.5,-204.86 72.5,-194.65 72.5,-187.66"/>
<polygon fill="midnightblue" stroke="midnightblue" points="69,-214.4 72.5,-224.4 76,-214.4 69,-214.4"/>
</g>
<!-- Node2 -->
<g id="node2" class="node">
<title>Node2</title>
<g id="a_node2"><a xlink:href="classbfl_1_1MeasurementModel.html" target="_top" xlink:title="This class represent a generic measurement model f(x, w), where x is a state vector and w is random n...">
<polygon fill="white" stroke="black" points="13,-291.5 13,-310.5 132,-310.5 132,-291.5 13,-291.5"/>
<text text-anchor="middle" x="72.5" y="-298.5" font-family="Helvetica,sans-Serif" font-size="10.00">bfl::MeasurementModel</text>
</a>
</g>
</g>
<!-- Node2&#45;&gt;Node1 -->
<g id="edge1" class="edge">
<title>Node2&#45;&gt;Node1</title>
<path fill="none" stroke="midnightblue" d="M72.5,-281.23C72.5,-272.59 72.5,-262.5 72.5,-254.52"/>
<polygon fill="midnightblue" stroke="midnightblue" points="69,-281.48 72.5,-291.48 76,-281.48 69,-281.48"/>
</g>
<!-- Node3 -->
<g id="node3" class="node">
<title>Node3</title>
<g id="a_node3"><a xlink:href="classbfl_1_1Logger.html" target="_top" xlink:title=" ">
<polygon fill="white" stroke="black" points="41.5,-347.5 41.5,-366.5 103.5,-366.5 103.5,-347.5 41.5,-347.5"/>
<text text-anchor="middle" x="72.5" y="-354.5" font-family="Helvetica,sans-Serif" font-size="10.00">bfl::Logger</text>
</a>
</g>
</g>
<!-- Node3&#45;&gt;Node2 -->
<g id="edge2" class="edge">
<title>Node3&#45;&gt;Node2</title>
<path fill="none" stroke="midnightblue" d="M72.5,-336.8C72.5,-327.91 72.5,-317.78 72.5,-310.75"/>
<polygon fill="midnightblue" stroke="midnightblue" points="69,-337.08 72.5,-347.08 76,-337.08 69,-337.08"/>
</g>
<!-- Node5 -->
<g id="node5" class="node">
<title>Node5</title>
<g id="a_node5"><a xlink:href="classbfl_1_1LTIMeasurementModel.html" target="_top" xlink:title="This class represent an linear measurement model Hx + w, where H is a time&#45;invariant measurement matr...">
<polygon fill="white" stroke="black" points="6,-112.5 6,-131.5 139,-131.5 139,-112.5 6,-112.5"/>
<text text-anchor="middle" x="72.5" y="-119.5" font-family="Helvetica,sans-Serif" font-size="10.00">bfl::LTIMeasurementModel</text>
</a>
</g>
</g>
<!-- Node4&#45;&gt;Node5 -->
<g id="edge4" class="edge">
<title>Node4&#45;&gt;Node5</title>
<path fill="none" stroke="midnightblue" d="M72.5,-157.8C72.5,-148.91 72.5,-138.78 72.5,-131.75"/>
<polygon fill="midnightblue" stroke="midnightblue" points="69,-158.08 72.5,-168.08 76,-158.08 69,-158.08"/>
</g>
<!-- Node6 -->
<g id="node6" class="node">
<title>Node6</title>
<g id="a_node6"><a xlink:href="classbfl_1_1LinearModel.html" target="_top" xlink:title=" ">
<polygon fill="white" stroke="black" points="29.5,-56.5 29.5,-75.5 115.5,-75.5 115.5,-56.5 29.5,-56.5"/>
<text text-anchor="middle" x="72.5" y="-63.5" font-family="Helvetica,sans-Serif" font-size="10.00">bfl::LinearModel</text>
</a>
</g>
</g>
<!-- Node5&#45;&gt;Node6 -->
<g id="edge5" class="edge">
<title>Node5&#45;&gt;Node6</title>
<path fill="none" stroke="midnightblue" d="M72.5,-101.8C72.5,-92.91 72.5,-82.78 72.5,-75.75"/>
<polygon fill="midnightblue" stroke="midnightblue" points="69,-102.08 72.5,-112.08 76,-102.08 69,-102.08"/>
</g>
<!-- Node7 -->
<g id="node7" class="node">
<title>Node7</title>
<g id="a_node7"><a xlink:href="classbfl_1_1SimulatedLinearSensor.html" target="_top" xlink:title=" ">
<polygon fill="white" stroke="black" points="5.5,-0.5 5.5,-19.5 139.5,-19.5 139.5,-0.5 5.5,-0.5"/>
<text text-anchor="middle" x="72.5" y="-7.5" font-family="Helvetica,sans-Serif" font-size="10.00">bfl::SimulatedLinearSensor</text>
</a>
</g>
</g>
<!-- Node6&#45;&gt;Node7 -->
<g id="edge6" class="edge">
<title>Node6&#45;&gt;Node7</title>
<path fill="none" stroke="midnightblue" d="M72.5,-45.8C72.5,-36.91 72.5,-26.78 72.5,-19.75"/>
<polygon fill="midnightblue" stroke="midnightblue" points="69,-46.08 72.5,-56.08 76,-46.08 69,-46.08"/>
</g>
</g>
</svg>
