<?xml version="1.0" encoding="UTF-8" standalone="no"?>
<!DOCTYPE svg PUBLIC "-//W3C//DTD SVG 1.1//EN"
 "http://www.w3.org/Graphics/SVG/1.1/DTD/svg11.dtd">
<!-- Generated by graphviz version 2.47.2 (0)
 -->
<!-- Title: bfl::GPFCorrection::correctStep Pages: 1 -->
<svg width="251pt" height="176pt"
 viewBox="0.00 0.00 251.00 176.00" xmlns="http://www.w3.org/2000/svg" xmlns:xlink="http://www.w3.org/1999/xlink">
<g id="graph0" class="graph" transform="scale(1 1) rotate(0) translate(4 172)">
<title>bfl::GPFCorrection::correctStep</title>
<polygon fill="white" stroke="transparent" points="-4,4 -4,-172 247,-172 247,4 -4,4"/>
<!-- Node1 -->
<g id="node1" class="node">
<title>Node1</title>
<g id="a_node1"><a xlink:title=" ">
<polygon fill="#bfbfbf" stroke="black" points="0,-66.5 0,-96.5 98,-96.5 98,-66.5 0,-66.5"/>
<text text-anchor="start" x="8" y="-84.5" font-family="Helvetica,sans-Serif" font-size="10.00">bfl::GPFCorrection</text>
<text text-anchor="middle" x="49" y="-73.5" font-family="Helvetica,sans-Serif" font-size="10.00">::correctStep</text>
</a>
</g>
</g>
<!-- Node2 -->
<g id="node2" class="node">
<title>Node2</title>
<g id="a_node2"><a xlink:href="classbfl_1_1GaussianMixture.html#a65a60ef46d16ac33196a09963bbccdee" target="_top" xlink:title=" ">
<polygon fill="white" stroke="black" points="135,-137.5 135,-167.5 242,-167.5 242,-137.5 135,-137.5"/>
<text text-anchor="start" x="143" y="-155.5" font-family="Helvetica,sans-Serif" font-size="10.00">bfl::GaussianMixture</text>
<text text-anchor="middle" x="188.5" y="-144.5" font-family="Helvetica,sans-Serif" font-size="10.00">::covariance</text>
</a>
</g>
</g>
<!-- Node1&#45;&gt;Node2 -->
<g id="edge1" class="edge">
<title>Node1&#45;&gt;Node2</title>
<path fill="none" stroke="midnightblue" d="M75.79,-96.71C92.25,-106.22 114.14,-118.52 134,-128.5 137.1,-130.06 140.31,-131.62 143.57,-133.17"/>
<polygon fill="midnightblue" stroke="midnightblue" points="142.21,-136.4 152.75,-137.45 145.17,-130.05 142.21,-136.4"/>
</g>
<!-- Node3 -->
<g id="node3" class="node">
<title>Node3</title>
<g id="a_node3"><a xlink:href="classbfl_1_1GaussianMixture.html#af4fd865a97ac27c72510cfbf9429bd97" target="_top" xlink:title=" ">
<polygon fill="white" stroke="black" points="135,-88.5 135,-118.5 242,-118.5 242,-88.5 135,-88.5"/>
<text text-anchor="start" x="143" y="-106.5" font-family="Helvetica,sans-Serif" font-size="10.00">bfl::GaussianMixture</text>
<text text-anchor="middle" x="188.5" y="-95.5" font-family="Helvetica,sans-Serif" font-size="10.00">::mean</text>
</a>
</g>
</g>
<!-- Node1&#45;&gt;Node3 -->
<g id="edge2" class="edge">
<title>Node1&#45;&gt;Node3</title>
<path fill="none" stroke="midnightblue" d="M98.09,-89.19C106.76,-90.58 115.9,-92.04 124.91,-93.49"/>
<polygon fill="midnightblue" stroke="midnightblue" points="124.56,-96.97 134.98,-95.1 125.66,-90.06 124.56,-96.97"/>
</g>
<!-- Node4 -->
<g id="node4" class="node">
<title>Node4</title>
<g id="a_node4"><a xlink:href="classbfl_1_1ParticleSet.html#a85950583083c2903f4235801cc03130c" target="_top" xlink:title=" ">
<polygon fill="white" stroke="black" points="134,-50 134,-69 243,-69 243,-50 134,-50"/>
<text text-anchor="middle" x="188.5" y="-57" font-family="Helvetica,sans-Serif" font-size="10.00">bfl::ParticleSet::state</text>
</a>
</g>
</g>
<!-- Node1&#45;&gt;Node4 -->
<g id="edge3" class="edge">
<title>Node1&#45;&gt;Node4</title>
<path fill="none" stroke="midnightblue" d="M98.09,-73.81C106.33,-72.49 115,-71.1 123.58,-69.73"/>
<polygon fill="midnightblue" stroke="midnightblue" points="124.24,-73.17 133.56,-68.13 123.14,-66.25 124.24,-73.17"/>
</g>
<!-- Node5 -->
<g id="node5" class="node">
<title>Node5</title>
<g id="a_node5"><a xlink:href="classbfl_1_1GaussianMixture.html#ada5625de6a3e2f98afb5aaa148503dad" target="_top" xlink:title=" ">
<polygon fill="white" stroke="black" points="135,-0.5 135,-30.5 242,-30.5 242,-0.5 135,-0.5"/>
<text text-anchor="start" x="143" y="-18.5" font-family="Helvetica,sans-Serif" font-size="10.00">bfl::GaussianMixture</text>
<text text-anchor="middle" x="188.5" y="-7.5" font-family="Helvetica,sans-Serif" font-size="10.00">::weight</text>
</a>
</g>
</g>
<!-- Node1&#45;&gt;Node5 -->
<g id="edge4" class="edge">
<title>Node1&#45;&gt;Node5</title>
<path fill="none" stroke="midnightblue" d="M80.66,-66.38C96.55,-58.59 116.28,-48.96 134,-40.5 137.8,-38.69 141.76,-36.81 145.72,-34.94"/>
<polygon fill="midnightblue" stroke="midnightblue" points="147.36,-38.04 154.92,-30.62 144.38,-31.7 147.36,-38.04"/>
</g>
</g>
</svg>
