<?xml version="1.0" encoding="UTF-8" standalone="no"?>
<!DOCTYPE svg PUBLIC "-//W3C//DTD SVG 1.1//EN"
 "http://www.w3.org/Graphics/SVG/1.1/DTD/svg11.dtd">
<!-- Generated by graphviz version 2.47.2 (0)
 -->
<!-- Title: bfl::SUKFCorrection::correctStep Pages: 1 -->
<svg width="429pt" height="156pt"
 viewBox="0.00 0.00 429.00 156.00" xmlns="http://www.w3.org/2000/svg" xmlns:xlink="http://www.w3.org/1999/xlink">
<g id="graph0" class="graph" transform="scale(1 1) rotate(0) translate(4 152)">
<title>bfl::SUKFCorrection::correctStep</title>
<polygon fill="white" stroke="transparent" points="-4,4 -4,-152 425,-152 425,4 -4,4"/>
<!-- Node1 -->
<g id="node1" class="node">
<title>Node1</title>
<g id="a_node1"><a xlink:title=" ">
<polygon fill="#bfbfbf" stroke="black" points="0,-68.5 0,-98.5 105,-98.5 105,-68.5 0,-68.5"/>
<text text-anchor="start" x="8" y="-86.5" font-family="Helvetica,sans-Serif" font-size="10.00">bfl::SUKFCorrection</text>
<text text-anchor="middle" x="52.5" y="-75.5" font-family="Helvetica,sans-Serif" font-size="10.00">::correctStep</text>
</a>
</g>
</g>
<!-- Node2 -->
<g id="node2" class="node">
<title>Node2</title>
<g id="a_node2"><a xlink:href="classbfl_1_1GaussianMixture.html#a65a60ef46d16ac33196a09963bbccdee" target="_top" xlink:title=" ">
<polygon fill="white" stroke="black" points="306.5,-117.5 306.5,-147.5 413.5,-147.5 413.5,-117.5 306.5,-117.5"/>
<text text-anchor="start" x="314.5" y="-135.5" font-family="Helvetica,sans-Serif" font-size="10.00">bfl::GaussianMixture</text>
<text text-anchor="middle" x="360" y="-124.5" font-family="Helvetica,sans-Serif" font-size="10.00">::covariance</text>
</a>
</g>
</g>
<!-- Node1&#45;&gt;Node2 -->
<g id="edge1" class="edge">
<title>Node1&#45;&gt;Node2</title>
<path fill="none" stroke="midnightblue" d="M73.04,-98.65C89.95,-110.76 115.63,-126.76 141,-133.5 192.07,-147.06 252.28,-145.53 296.47,-141.34"/>
<polygon fill="midnightblue" stroke="midnightblue" points="296.9,-144.82 306.49,-140.32 296.19,-137.85 296.9,-144.82"/>
</g>
<!-- Node3 -->
<g id="node3" class="node">
<title>Node3</title>
<g id="a_node3"><a xlink:href="namespacebfl_1_1directional__statistics.html#a18bffca88c7ea5f4ea11d2ad910736fe" target="_top" xlink:title=" ">
<polygon fill="white" stroke="black" points="141,-93.5 141,-123.5 263,-123.5 263,-93.5 141,-93.5"/>
<text text-anchor="start" x="149" y="-111.5" font-family="Helvetica,sans-Serif" font-size="10.00">bfl::directional_statistics</text>
<text text-anchor="middle" x="202" y="-100.5" font-family="Helvetica,sans-Serif" font-size="10.00">::directional_sub</text>
</a>
</g>
</g>
<!-- Node1&#45;&gt;Node3 -->
<g id="edge2" class="edge">
<title>Node1&#45;&gt;Node3</title>
<path fill="none" stroke="midnightblue" d="M105.09,-92.24C113.39,-93.65 122.1,-95.13 130.75,-96.59"/>
<polygon fill="midnightblue" stroke="midnightblue" points="130.4,-100.08 140.84,-98.3 131.57,-93.18 130.4,-100.08"/>
</g>
<!-- Node4 -->
<g id="node4" class="node">
<title>Node4</title>
<g id="a_node4"><a xlink:href="classbfl_1_1GaussianMixture.html#af4fd865a97ac27c72510cfbf9429bd97" target="_top" xlink:title=" ">
<polygon fill="white" stroke="black" points="306.5,-0.5 306.5,-30.5 413.5,-30.5 413.5,-0.5 306.5,-0.5"/>
<text text-anchor="start" x="314.5" y="-18.5" font-family="Helvetica,sans-Serif" font-size="10.00">bfl::GaussianMixture</text>
<text text-anchor="middle" x="360" y="-7.5" font-family="Helvetica,sans-Serif" font-size="10.00">::mean</text>
</a>
</g>
</g>
<!-- Node1&#45;&gt;Node4 -->
<g id="edge3" class="edge">
<title>Node1&#45;&gt;Node4</title>
<path fill="none" stroke="midnightblue" d="M74.63,-68.28C91.66,-56.87 116.71,-41.98 141,-34.5 191.7,-18.89 251.94,-14.66 296.24,-14.03"/>
<polygon fill="midnightblue" stroke="midnightblue" points="296.32,-17.53 306.29,-13.95 296.26,-10.53 296.32,-17.53"/>
</g>
<!-- Node5 -->
<g id="node5" class="node">
<title>Node5</title>
<g id="a_node5"><a xlink:href="namespacebfl_1_1sigma__point.html#ab919aca5fccc30ee2acd5cd966cd9dc9" target="_top" xlink:title=" ">
<polygon fill="white" stroke="black" points="143,-44.5 143,-74.5 261,-74.5 261,-44.5 143,-44.5"/>
<text text-anchor="start" x="151" y="-62.5" font-family="Helvetica,sans-Serif" font-size="10.00">bfl::sigma_point::sigma</text>
<text text-anchor="middle" x="202" y="-51.5" font-family="Helvetica,sans-Serif" font-size="10.00">_point</text>
</a>
</g>
</g>
<!-- Node1&#45;&gt;Node5 -->
<g id="edge4" class="edge">
<title>Node1&#45;&gt;Node5</title>
<path fill="none" stroke="midnightblue" d="M105.09,-75.11C114.06,-73.65 123.51,-72.11 132.84,-70.59"/>
<polygon fill="midnightblue" stroke="midnightblue" points="133.58,-74.02 142.89,-68.96 132.45,-67.11 133.58,-74.02"/>
</g>
<!-- Node5&#45;&gt;Node2 -->
<g id="edge5" class="edge">
<title>Node5&#45;&gt;Node2</title>
<path fill="none" stroke="midnightblue" d="M240.3,-74.57C247.86,-77.76 255.71,-81.17 263,-84.5 282.3,-93.33 303.43,-103.81 320.94,-112.72"/>
<polygon fill="midnightblue" stroke="midnightblue" points="319.77,-116.05 330.26,-117.48 322.95,-109.81 319.77,-116.05"/>
</g>
<!-- Node5&#45;&gt;Node4 -->
<g id="edge7" class="edge">
<title>Node5&#45;&gt;Node4</title>
<path fill="none" stroke="midnightblue" d="M256.25,-44.48C269.12,-40.85 283,-36.94 296.26,-33.2"/>
<polygon fill="midnightblue" stroke="midnightblue" points="297.58,-36.46 306.25,-30.38 295.68,-29.72 297.58,-36.46"/>
</g>
<!-- Node6 -->
<g id="node6" class="node">
<title>Node6</title>
<g id="a_node6"><a xlink:href="namespacebfl_1_1directional__statistics.html#af9984a4df2b3f6f0bc0c264783181123" target="_top" xlink:title=" ">
<polygon fill="white" stroke="black" points="299,-49.5 299,-79.5 421,-79.5 421,-49.5 299,-49.5"/>
<text text-anchor="start" x="307" y="-67.5" font-family="Helvetica,sans-Serif" font-size="10.00">bfl::directional_statistics</text>
<text text-anchor="middle" x="360" y="-56.5" font-family="Helvetica,sans-Serif" font-size="10.00">::directional_add</text>
</a>
</g>
</g>
<!-- Node5&#45;&gt;Node6 -->
<g id="edge6" class="edge">
<title>Node5&#45;&gt;Node6</title>
<path fill="none" stroke="midnightblue" d="M261.09,-61.36C270.03,-61.65 279.34,-61.95 288.51,-62.24"/>
<polygon fill="midnightblue" stroke="midnightblue" points="288.67,-65.75 298.78,-62.57 288.89,-58.75 288.67,-65.75"/>
</g>
</g>
</svg>
