<?xml version="1.0" encoding="UTF-8" standalone="no"?>
<!DOCTYPE svg PUBLIC "-//W3C//DTD SVG 1.1//EN"
 "http://www.w3.org/Graphics/SVG/1.1/DTD/svg11.dtd">
<!-- Generated by graphviz version 2.43.0 (0)
 -->
<!-- Title: bfl::GaussianCorrection Pages: 1 -->
<svg width="359pt" height="84pt"
 viewBox="0.00 0.00 358.50 84.00" xmlns="http://www.w3.org/2000/svg" xmlns:xlink="http://www.w3.org/1999/xlink">
<g id="graph0" class="graph" transform="scale(1 1) rotate(0) translate(4 80)">
<title>bfl::GaussianCorrection</title>
<polygon fill="white" stroke="transparent" points="-4,4 -4,-80 354.5,-80 354.5,4 -4,4"/>
<!-- Node1 -->
<g id="node1" class="node">
<title>Node1</title>
<g id="a_node1"><a xlink:title=" ">
<polygon fill="#bfbfbf" stroke="black" points="107,-56.5 107,-75.5 237,-75.5 237,-56.5 107,-56.5"/>
<text text-anchor="middle" x="172" y="-63.5" font-family="Helvetica,sans-Serif" font-size="10.00">bfl::GaussianCorrection</text>
</a>
</g>
</g>
<!-- Node2 -->
<g id="node2" class="node">
<title>Node2</title>
<g id="a_node2"><a xlink:href="classbfl_1_1KFCorrection.html" target="_top" xlink:title=" ">
<polygon fill="white" stroke="black" points="0,-0.5 0,-19.5 98,-19.5 98,-0.5 0,-0.5"/>
<text text-anchor="middle" x="49" y="-7.5" font-family="Helvetica,sans-Serif" font-size="10.00">bfl::KFCorrection</text>
</a>
</g>
</g>
<!-- Node1&#45;&gt;Node2 -->
<g id="edge1" class="edge">
<title>Node1&#45;&gt;Node2</title>
<path fill="none" stroke="midnightblue" d="M143.23,-52.37C120.19,-42.26 88.52,-28.35 68.4,-19.52"/>
<polygon fill="midnightblue" stroke="midnightblue" points="141.95,-55.63 152.51,-56.44 144.76,-49.22 141.95,-55.63"/>
</g>
<!-- Node3 -->
<g id="node3" class="node">
<title>Node3</title>
<g id="a_node3"><a xlink:href="classbfl_1_1SUKFCorrection.html" target="_top" xlink:title="This class implements the algorithm: Barfoot, T., McManus, C.">
<polygon fill="white" stroke="black" points="116.5,-0.5 116.5,-19.5 227.5,-19.5 227.5,-0.5 116.5,-0.5"/>
<text text-anchor="middle" x="172" y="-7.5" font-family="Helvetica,sans-Serif" font-size="10.00">bfl::SUKFCorrection</text>
</a>
</g>
</g>
<!-- Node1&#45;&gt;Node3 -->
<g id="edge2" class="edge">
<title>Node1&#45;&gt;Node3</title>
<path fill="none" stroke="midnightblue" d="M172,-45.8C172,-36.91 172,-26.78 172,-19.75"/>
<polygon fill="midnightblue" stroke="midnightblue" points="168.5,-46.08 172,-56.08 175.5,-46.08 168.5,-46.08"/>
</g>
<!-- Node4 -->
<g id="node4" class="node">
<title>Node4</title>
<g id="a_node4"><a xlink:href="classbfl_1_1UKFCorrection.html" target="_top" xlink:title=" ">
<polygon fill="white" stroke="black" points="245.5,-0.5 245.5,-19.5 350.5,-19.5 350.5,-0.5 245.5,-0.5"/>
<text text-anchor="middle" x="298" y="-7.5" font-family="Helvetica,sans-Serif" font-size="10.00">bfl::UKFCorrection</text>
</a>
</g>
</g>
<!-- Node1&#45;&gt;Node4 -->
<g id="edge3" class="edge">
<title>Node1&#45;&gt;Node4</title>
<path fill="none" stroke="midnightblue" d="M201.16,-52.5C224.78,-42.38 257.43,-28.39 278.13,-19.52"/>
<polygon fill="midnightblue" stroke="midnightblue" points="199.78,-49.29 191.97,-56.44 202.54,-55.72 199.78,-49.29"/>
</g>
</g>
</svg>
