<?xml version="1.0" encoding="UTF-8" standalone="no"?>
<!DOCTYPE svg PUBLIC "-//W3C//DTD SVG 1.1//EN"
 "http://www.w3.org/Graphics/SVG/1.1/DTD/svg11.dtd">
<!-- Generated by graphviz version 2.43.0 (0)
 -->
<!-- Title: bfl::TimeDecreasingDynamics::setProperty Pages: 1 -->
<svg width="316pt" height="186pt"
 viewBox="0.00 0.00 316.00 186.00" xmlns="http://www.w3.org/2000/svg" xmlns:xlink="http://www.w3.org/1999/xlink">
<g id="graph0" class="graph" transform="scale(1 1) rotate(0) translate(4 182)">
<title>bfl::TimeDecreasingDynamics::setProperty</title>
<polygon fill="white" stroke="transparent" points="-4,4 -4,-182 312,-182 312,4 -4,4"/>
<!-- Node1 -->
<g id="node1" class="node">
<title>Node1</title>
<g id="a_node1"><a xlink:title=" ">
<polygon fill="#bfbfbf" stroke="black" points="0,-73.5 0,-103.5 163,-103.5 163,-73.5 0,-73.5"/>
<text text-anchor="start" x="8" y="-91.5" font-family="Helvetica,sans-Serif" font-size="10.00">bfl::TimeDecreasingDynamics</text>
<text text-anchor="middle" x="81.5" y="-80.5" font-family="Helvetica,sans-Serif" font-size="10.00">::setProperty</text>
</a>
</g>
</g>
<!-- Node2 -->
<g id="node2" class="node">
<title>Node2</title>
<g id="a_node2"><a xlink:href="classbfl_1_1utils_1_1CpuTimer.html#ac7702cd9061b12db77c9e249d7b77046" target="_top" xlink:title="Get the time passed between a start() and stop() call.">
<polygon fill="white" stroke="black" points="199,-147.5 199,-177.5 308,-177.5 308,-147.5 199,-147.5"/>
<text text-anchor="start" x="207" y="-165.5" font-family="Helvetica,sans-Serif" font-size="10.00">bfl::utils::CpuTimer</text>
<text text-anchor="middle" x="253.5" y="-154.5" font-family="Helvetica,sans-Serif" font-size="10.00">::elapsed</text>
</a>
</g>
</g>
<!-- Node1&#45;&gt;Node2 -->
<g id="edge1" class="edge">
<title>Node1&#45;&gt;Node2</title>
<path fill="none" stroke="midnightblue" d="M117.31,-103.65C143.76,-115.16 180.3,-131.07 208.72,-143.44"/>
<polygon fill="midnightblue" stroke="midnightblue" points="207.46,-146.71 218.03,-147.49 210.25,-140.29 207.46,-146.71"/>
</g>
<!-- Node3 -->
<g id="node3" class="node">
<title>Node3</title>
<g id="a_node3"><a xlink:href="classbfl_1_1utils_1_1CpuTimer.html#a2eb7137dc7b2ccae9742b14d4a5e2b86" target="_top" xlink:title="Check if the timer is running or not.">
<polygon fill="white" stroke="black" points="199,-98.5 199,-128.5 308,-128.5 308,-98.5 199,-98.5"/>
<text text-anchor="start" x="207" y="-116.5" font-family="Helvetica,sans-Serif" font-size="10.00">bfl::utils::CpuTimer</text>
<text text-anchor="middle" x="253.5" y="-105.5" font-family="Helvetica,sans-Serif" font-size="10.00">::is_running</text>
</a>
</g>
</g>
<!-- Node1&#45;&gt;Node3 -->
<g id="edge2" class="edge">
<title>Node1&#45;&gt;Node3</title>
<path fill="none" stroke="midnightblue" d="M163.02,-100.34C171.68,-101.62 180.41,-102.9 188.84,-104.14"/>
<polygon fill="midnightblue" stroke="midnightblue" points="188.54,-107.63 198.94,-105.62 189.56,-100.71 188.54,-107.63"/>
</g>
<!-- Node4 -->
<g id="node4" class="node">
<title>Node4</title>
<g id="a_node4"><a xlink:href="classbfl_1_1utils_1_1CpuTimer.html#aafb5ec4ed5936f14bb066d9e809f1f0e" target="_top" xlink:title="Start the timer.">
<polygon fill="white" stroke="black" points="199,-49.5 199,-79.5 308,-79.5 308,-49.5 199,-49.5"/>
<text text-anchor="start" x="207" y="-67.5" font-family="Helvetica,sans-Serif" font-size="10.00">bfl::utils::CpuTimer</text>
<text text-anchor="middle" x="253.5" y="-56.5" font-family="Helvetica,sans-Serif" font-size="10.00">::start</text>
</a>
</g>
</g>
<!-- Node1&#45;&gt;Node4 -->
<g id="edge3" class="edge">
<title>Node1&#45;&gt;Node4</title>
<path fill="none" stroke="midnightblue" d="M163.02,-77.13C171.68,-75.91 180.41,-74.68 188.84,-73.49"/>
<polygon fill="midnightblue" stroke="midnightblue" points="189.53,-76.92 198.94,-72.06 188.55,-69.99 189.53,-76.92"/>
</g>
<!-- Node5 -->
<g id="node5" class="node">
<title>Node5</title>
<g id="a_node5"><a xlink:href="classbfl_1_1utils_1_1CpuTimer.html#ad8e710e2a21b97c5e13ff2f338445a96" target="_top" xlink:title="Stop the timer.">
<polygon fill="white" stroke="black" points="199,-0.5 199,-30.5 308,-30.5 308,-0.5 199,-0.5"/>
<text text-anchor="start" x="207" y="-18.5" font-family="Helvetica,sans-Serif" font-size="10.00">bfl::utils::CpuTimer</text>
<text text-anchor="middle" x="253.5" y="-7.5" font-family="Helvetica,sans-Serif" font-size="10.00">::stop</text>
</a>
</g>
</g>
<!-- Node1&#45;&gt;Node5 -->
<g id="edge4" class="edge">
<title>Node1&#45;&gt;Node5</title>
<path fill="none" stroke="midnightblue" d="M117.72,-73.37C143.94,-62.12 179.9,-46.67 208.09,-34.57"/>
<polygon fill="midnightblue" stroke="midnightblue" points="209.51,-37.77 217.32,-30.61 206.75,-31.34 209.51,-37.77"/>
</g>
</g>
</svg>
