<?xml version="1.0" encoding="UTF-8" standalone="no"?>
<!DOCTYPE svg PUBLIC "-//W3C//DTD SVG 1.1//EN"
 "http://www.w3.org/Graphics/SVG/1.1/DTD/svg11.dtd">
<!-- Generated by graphviz version 2.43.0 (0)
 -->
<!-- Title: bfl::Skippable Pages: 1 -->
<svg width="493pt" height="308pt"
 viewBox="0.00 0.00 492.50 308.00" xmlns="http://www.w3.org/2000/svg" xmlns:xlink="http://www.w3.org/1999/xlink">
<g id="graph0" class="graph" transform="scale(1 1) rotate(0) translate(4 304)">
<title>bfl::Skippable</title>
<polygon fill="white" stroke="transparent" points="-4,4 -4,-304 488.5,-304 488.5,4 -4,4"/>
<!-- Node1 -->
<g id="node1" class="node">
<title>Node1</title>
<g id="a_node1"><a xlink:title=" ">
<polygon fill="#bfbfbf" stroke="black" points="158,-224.5 158,-243.5 241,-243.5 241,-224.5 158,-224.5"/>
<text text-anchor="middle" x="199.5" y="-231.5" font-family="Helvetica,sans-Serif" font-size="10.00">bfl::Skippable</text>
</a>
</g>
</g>
<!-- Node3 -->
<g id="node3" class="node">
<title>Node3</title>
<g id="a_node3"><a xlink:href="classbfl_1_1ExogenousModel.html" target="_top" xlink:title=" ">
<polygon fill="white" stroke="black" points="0,-168.5 0,-187.5 117,-187.5 117,-168.5 0,-168.5"/>
<text text-anchor="middle" x="58.5" y="-175.5" font-family="Helvetica,sans-Serif" font-size="10.00">bfl::ExogenousModel</text>
</a>
</g>
</g>
<!-- Node1&#45;&gt;Node3 -->
<g id="edge2" class="edge">
<title>Node1&#45;&gt;Node3</title>
<path fill="none" stroke="midnightblue" d="M167.57,-220.77C141.09,-210.63 104.11,-196.47 80.74,-187.52"/>
<polygon fill="midnightblue" stroke="midnightblue" points="166.57,-224.14 177.16,-224.44 169.07,-217.6 166.57,-224.14"/>
</g>
<!-- Node4 -->
<g id="node4" class="node">
<title>Node4</title>
<g id="a_node4"><a xlink:href="classbfl_1_1GaussianPrediction.html" target="_top" xlink:title=" ">
<polygon fill="white" stroke="black" points="135.5,-168.5 135.5,-187.5 263.5,-187.5 263.5,-168.5 135.5,-168.5"/>
<text text-anchor="middle" x="199.5" y="-175.5" font-family="Helvetica,sans-Serif" font-size="10.00">bfl::GaussianPrediction</text>
</a>
</g>
</g>
<!-- Node1&#45;&gt;Node4 -->
<g id="edge3" class="edge">
<title>Node1&#45;&gt;Node4</title>
<path fill="none" stroke="midnightblue" d="M199.5,-213.8C199.5,-204.91 199.5,-194.78 199.5,-187.75"/>
<polygon fill="midnightblue" stroke="midnightblue" points="196,-214.08 199.5,-224.08 203,-214.08 196,-214.08"/>
</g>
<!-- Node7 -->
<g id="node7" class="node">
<title>Node7</title>
<g id="a_node7"><a xlink:href="classbfl_1_1StateModel.html" target="_top" xlink:title=" ">
<polygon fill="white" stroke="black" points="286.5,-168.5 286.5,-187.5 376.5,-187.5 376.5,-168.5 286.5,-168.5"/>
<text text-anchor="middle" x="331.5" y="-175.5" font-family="Helvetica,sans-Serif" font-size="10.00">bfl::StateModel</text>
</a>
</g>
</g>
<!-- Node1&#45;&gt;Node7 -->
<g id="edge6" class="edge">
<title>Node1&#45;&gt;Node7</title>
<path fill="none" stroke="midnightblue" d="M229.72,-220.64C254.49,-210.5 288.9,-196.43 310.68,-187.52"/>
<polygon fill="midnightblue" stroke="midnightblue" points="228.35,-217.42 220.42,-224.44 231,-223.9 228.35,-217.42"/>
</g>
<!-- Node2 -->
<g id="node2" class="node">
<title>Node2</title>
<g id="a_node2"><a xlink:href="classbfl_1_1Skipper.html" target="_top" xlink:title=" ">
<polygon fill="white" stroke="black" points="164,-280.5 164,-299.5 235,-299.5 235,-280.5 164,-280.5"/>
<text text-anchor="middle" x="199.5" y="-287.5" font-family="Helvetica,sans-Serif" font-size="10.00">bfl::Skipper</text>
</a>
</g>
</g>
<!-- Node2&#45;&gt;Node1 -->
<g id="edge1" class="edge">
<title>Node2&#45;&gt;Node1</title>
<path fill="none" stroke="midnightblue" d="M199.5,-269.8C199.5,-260.91 199.5,-250.78 199.5,-243.75"/>
<polygon fill="midnightblue" stroke="midnightblue" points="196,-270.08 199.5,-280.08 203,-270.08 196,-270.08"/>
</g>
<!-- Node5 -->
<g id="node5" class="node">
<title>Node5</title>
<g id="a_node5"><a xlink:href="classbfl_1_1KFPrediction.html" target="_top" xlink:title=" ">
<polygon fill="white" stroke="black" points="33.5,-112.5 33.5,-131.5 129.5,-131.5 129.5,-112.5 33.5,-112.5"/>
<text text-anchor="middle" x="81.5" y="-119.5" font-family="Helvetica,sans-Serif" font-size="10.00">bfl::KFPrediction</text>
</a>
</g>
</g>
<!-- Node4&#45;&gt;Node5 -->
<g id="edge4" class="edge">
<title>Node4&#45;&gt;Node5</title>
<path fill="none" stroke="midnightblue" d="M171.6,-164.23C149.53,-154.13 119.32,-140.31 100.11,-131.52"/>
<polygon fill="midnightblue" stroke="midnightblue" points="170.25,-167.46 180.8,-168.44 173.17,-161.1 170.25,-167.46"/>
</g>
<!-- Node6 -->
<g id="node6" class="node">
<title>Node6</title>
<g id="a_node6"><a xlink:href="classbfl_1_1UKFPrediction.html" target="_top" xlink:title=" ">
<polygon fill="white" stroke="black" points="147.5,-112.5 147.5,-131.5 251.5,-131.5 251.5,-112.5 147.5,-112.5"/>
<text text-anchor="middle" x="199.5" y="-119.5" font-family="Helvetica,sans-Serif" font-size="10.00">bfl::UKFPrediction</text>
</a>
</g>
</g>
<!-- Node4&#45;&gt;Node6 -->
<g id="edge5" class="edge">
<title>Node4&#45;&gt;Node6</title>
<path fill="none" stroke="midnightblue" d="M199.5,-157.8C199.5,-148.91 199.5,-138.78 199.5,-131.75"/>
<polygon fill="midnightblue" stroke="midnightblue" points="196,-158.08 199.5,-168.08 203,-158.08 196,-158.08"/>
</g>
<!-- Node8 -->
<g id="node8" class="node">
<title>Node8</title>
<g id="a_node8"><a xlink:href="classbfl_1_1AdditiveStateModel.html" target="_top" xlink:title=" ">
<polygon fill="white" stroke="black" points="270,-112.5 270,-131.5 401,-131.5 401,-112.5 270,-112.5"/>
<text text-anchor="middle" x="335.5" y="-119.5" font-family="Helvetica,sans-Serif" font-size="10.00">bfl::AdditiveStateModel</text>
</a>
</g>
</g>
<!-- Node7&#45;&gt;Node8 -->
<g id="edge7" class="edge">
<title>Node7&#45;&gt;Node8</title>
<path fill="none" stroke="midnightblue" d="M332.9,-158.1C333.56,-149.14 334.33,-138.86 334.85,-131.75"/>
<polygon fill="midnightblue" stroke="midnightblue" points="329.41,-157.85 332.16,-168.08 336.39,-158.37 329.41,-157.85"/>
</g>
<!-- Node9 -->
<g id="node9" class="node">
<title>Node9</title>
<g id="a_node9"><a xlink:href="classbfl_1_1LinearStateModel.html" target="_top" xlink:title=" ">
<polygon fill="white" stroke="black" points="275.5,-56.5 275.5,-75.5 395.5,-75.5 395.5,-56.5 275.5,-56.5"/>
<text text-anchor="middle" x="335.5" y="-63.5" font-family="Helvetica,sans-Serif" font-size="10.00">bfl::LinearStateModel</text>
</a>
</g>
</g>
<!-- Node8&#45;&gt;Node9 -->
<g id="edge8" class="edge">
<title>Node8&#45;&gt;Node9</title>
<path fill="none" stroke="midnightblue" d="M335.5,-101.8C335.5,-92.91 335.5,-82.78 335.5,-75.75"/>
<polygon fill="midnightblue" stroke="midnightblue" points="332,-102.08 335.5,-112.08 339,-102.08 332,-102.08"/>
</g>
<!-- Node10 -->
<g id="node10" class="node">
<title>Node10</title>
<g id="a_node10"><a xlink:href="classbfl_1_1LTIStateModel.html" target="_top" xlink:title=" ">
<polygon fill="white" stroke="black" points="210.5,-0.5 210.5,-19.5 314.5,-19.5 314.5,-0.5 210.5,-0.5"/>
<text text-anchor="middle" x="262.5" y="-7.5" font-family="Helvetica,sans-Serif" font-size="10.00">bfl::LTIStateModel</text>
</a>
</g>
</g>
<!-- Node9&#45;&gt;Node10 -->
<g id="edge9" class="edge">
<title>Node9&#45;&gt;Node10</title>
<path fill="none" stroke="midnightblue" d="M315.36,-50.1C302.22,-40.38 285.52,-28.03 274.44,-19.83"/>
<polygon fill="midnightblue" stroke="midnightblue" points="313.65,-53.19 323.77,-56.32 317.81,-47.56 313.65,-53.19"/>
</g>
<!-- Node11 -->
<g id="node11" class="node">
<title>Node11</title>
<g id="a_node11"><a xlink:href="classbfl_1_1WhiteNoiseAcceleration.html" target="_top" xlink:title=" ">
<polygon fill="white" stroke="black" points="332.5,-0.5 332.5,-19.5 484.5,-19.5 484.5,-0.5 332.5,-0.5"/>
<text text-anchor="middle" x="408.5" y="-7.5" font-family="Helvetica,sans-Serif" font-size="10.00">bfl::WhiteNoiseAcceleration</text>
</a>
</g>
</g>
<!-- Node9&#45;&gt;Node11 -->
<g id="edge10" class="edge">
<title>Node9&#45;&gt;Node11</title>
<path fill="none" stroke="midnightblue" d="M355.64,-50.1C368.78,-40.38 385.48,-28.03 396.56,-19.83"/>
<polygon fill="midnightblue" stroke="midnightblue" points="353.19,-47.56 347.23,-56.32 357.35,-53.19 353.19,-47.56"/>
</g>
</g>
</svg>
