<?xml version="1.0" encoding="UTF-8" standalone="no"?>
<!DOCTYPE svg PUBLIC "-//W3C//DTD SVG 1.1//EN"
 "http://www.w3.org/Graphics/SVG/1.1/DTD/svg11.dtd">
<!-- Generated by graphviz version 2.47.2 (0)
 -->
<!-- Title: bfl::StateProcess Pages: 1 -->
<svg width="262pt" height="252pt"
 viewBox="0.00 0.00 261.50 252.00" xmlns="http://www.w3.org/2000/svg" xmlns:xlink="http://www.w3.org/1999/xlink">
<g id="graph0" class="graph" transform="scale(1 1) rotate(0) translate(4 248)">
<title>bfl::StateProcess</title>
<polygon fill="white" stroke="transparent" points="-4,4 -4,-248 257.5,-248 257.5,4 -4,4"/>
<!-- Node1 -->
<g id="node1" class="node">
<title>Node1</title>
<g id="a_node1"><a xlink:title=" ">
<polygon fill="#bfbfbf" stroke="black" points="70.5,-224.5 70.5,-243.5 162.5,-243.5 162.5,-224.5 70.5,-224.5"/>
<text text-anchor="middle" x="116.5" y="-231.5" font-family="Helvetica,sans-Serif" font-size="10.00">bfl::StateProcess</text>
</a>
</g>
</g>
<!-- Node2 -->
<g id="node2" class="node">
<title>Node2</title>
<g id="a_node2"><a xlink:href="classbfl_1_1StateModel.html" target="_top" xlink:title=" ">
<polygon fill="white" stroke="black" points="75,-168.5 75,-187.5 158,-187.5 158,-168.5 75,-168.5"/>
<text text-anchor="middle" x="116.5" y="-175.5" font-family="Helvetica,sans-Serif" font-size="10.00">bfl::StateModel</text>
</a>
</g>
</g>
<!-- Node1&#45;&gt;Node2 -->
<g id="edge1" class="edge">
<title>Node1&#45;&gt;Node2</title>
<path fill="none" stroke="midnightblue" d="M116.5,-213.8C116.5,-204.91 116.5,-194.78 116.5,-187.75"/>
<polygon fill="midnightblue" stroke="midnightblue" points="113,-214.08 116.5,-224.08 120,-214.08 113,-214.08"/>
</g>
<!-- Node3 -->
<g id="node3" class="node">
<title>Node3</title>
<g id="a_node3"><a xlink:href="classbfl_1_1AdditiveStateModel.html" target="_top" xlink:title=" ">
<polygon fill="white" stroke="black" points="57.5,-112.5 57.5,-131.5 175.5,-131.5 175.5,-112.5 57.5,-112.5"/>
<text text-anchor="middle" x="116.5" y="-119.5" font-family="Helvetica,sans-Serif" font-size="10.00">bfl::AdditiveStateModel</text>
</a>
</g>
</g>
<!-- Node2&#45;&gt;Node3 -->
<g id="edge2" class="edge">
<title>Node2&#45;&gt;Node3</title>
<path fill="none" stroke="midnightblue" d="M116.5,-157.8C116.5,-148.91 116.5,-138.78 116.5,-131.75"/>
<polygon fill="midnightblue" stroke="midnightblue" points="113,-158.08 116.5,-168.08 120,-158.08 113,-158.08"/>
</g>
<!-- Node4 -->
<g id="node4" class="node">
<title>Node4</title>
<g id="a_node4"><a xlink:href="classbfl_1_1LinearStateModel.html" target="_top" xlink:title=" ">
<polygon fill="white" stroke="black" points="62,-56.5 62,-75.5 171,-75.5 171,-56.5 62,-56.5"/>
<text text-anchor="middle" x="116.5" y="-63.5" font-family="Helvetica,sans-Serif" font-size="10.00">bfl::LinearStateModel</text>
</a>
</g>
</g>
<!-- Node3&#45;&gt;Node4 -->
<g id="edge3" class="edge">
<title>Node3&#45;&gt;Node4</title>
<path fill="none" stroke="midnightblue" d="M116.5,-101.8C116.5,-92.91 116.5,-82.78 116.5,-75.75"/>
<polygon fill="midnightblue" stroke="midnightblue" points="113,-102.08 116.5,-112.08 120,-102.08 113,-102.08"/>
</g>
<!-- Node5 -->
<g id="node5" class="node">
<title>Node5</title>
<g id="a_node5"><a xlink:href="classbfl_1_1LTIStateModel.html" target="_top" xlink:title=" ">
<polygon fill="white" stroke="black" points="0,-0.5 0,-19.5 97,-19.5 97,-0.5 0,-0.5"/>
<text text-anchor="middle" x="48.5" y="-7.5" font-family="Helvetica,sans-Serif" font-size="10.00">bfl::LTIStateModel</text>
</a>
</g>
</g>
<!-- Node4&#45;&gt;Node5 -->
<g id="edge4" class="edge">
<title>Node4&#45;&gt;Node5</title>
<path fill="none" stroke="midnightblue" d="M97.74,-50.1C85.5,-40.38 69.94,-28.03 59.62,-19.83"/>
<polygon fill="midnightblue" stroke="midnightblue" points="95.57,-52.85 105.57,-56.32 99.92,-47.36 95.57,-52.85"/>
</g>
<!-- Node6 -->
<g id="node6" class="node">
<title>Node6</title>
<g id="a_node6"><a xlink:href="classbfl_1_1WhiteNoiseAcceleration.html" target="_top" xlink:title=" ">
<polygon fill="white" stroke="black" points="115.5,-0.5 115.5,-19.5 253.5,-19.5 253.5,-0.5 115.5,-0.5"/>
<text text-anchor="middle" x="184.5" y="-7.5" font-family="Helvetica,sans-Serif" font-size="10.00">bfl::WhiteNoiseAcceleration</text>
</a>
</g>
</g>
<!-- Node4&#45;&gt;Node6 -->
<g id="edge5" class="edge">
<title>Node4&#45;&gt;Node6</title>
<path fill="none" stroke="midnightblue" d="M135.26,-50.1C147.5,-40.38 163.06,-28.03 173.38,-19.83"/>
<polygon fill="midnightblue" stroke="midnightblue" points="133.08,-47.36 127.43,-56.32 137.43,-52.85 133.08,-47.36"/>
</g>
</g>
</svg>
