<?xml version="1.0" encoding="UTF-8" standalone="no"?>
<!DOCTYPE svg PUBLIC "-//W3C//DTD SVG 1.1//EN"
 "http://www.w3.org/Graphics/SVG/1.1/DTD/svg11.dtd">
<!-- Generated by graphviz version 2.43.0 (0)
 -->
<!-- Title: bfl::GaussianLikelihood::likelihood Pages: 1 -->
<svg width="488pt" height="235pt"
 viewBox="0.00 0.00 488.00 235.00" xmlns="http://www.w3.org/2000/svg" xmlns:xlink="http://www.w3.org/1999/xlink">
<g id="graph0" class="graph" transform="scale(1 1) rotate(0) translate(4 231)">
<title>bfl::GaussianLikelihood::likelihood</title>
<polygon fill="white" stroke="transparent" points="-4,4 -4,-231 484,-231 484,4 -4,4"/>
<!-- Node1 -->
<g id="node1" class="node">
<title>Node1</title>
<g id="a_node1"><a xlink:title=" ">
<polygon fill="#bfbfbf" stroke="black" points="0,-98.5 0,-128.5 129,-128.5 129,-98.5 0,-98.5"/>
<text text-anchor="start" x="8" y="-116.5" font-family="Helvetica,sans-Serif" font-size="10.00">bfl::GaussianLikelihood</text>
<text text-anchor="middle" x="64.5" y="-105.5" font-family="Helvetica,sans-Serif" font-size="10.00">::likelihood</text>
</a>
</g>
</g>
<!-- Node2 -->
<g id="node2" class="node">
<title>Node2</title>
<g id="a_node2"><a xlink:href="classbfl_1_1MeasurementModel.html#af25f42076b69e0c6cab47d36d796536f" target="_top" xlink:title=" ">
<polygon fill="white" stroke="black" points="165,-196.5 165,-226.5 317,-226.5 317,-196.5 165,-196.5"/>
<text text-anchor="start" x="173" y="-214.5" font-family="Helvetica,sans-Serif" font-size="10.00">bfl::MeasurementModel</text>
<text text-anchor="middle" x="241" y="-203.5" font-family="Helvetica,sans-Serif" font-size="10.00">::getNoiseCovarianceMatrix</text>
</a>
</g>
</g>
<!-- Node1&#45;&gt;Node2 -->
<g id="edge1" class="edge">
<title>Node1&#45;&gt;Node2</title>
<path fill="none" stroke="midnightblue" d="M82.3,-128.75C101.2,-145.22 133.4,-171.27 165,-187.5 168.52,-189.31 172.21,-191.02 175.98,-192.63"/>
<polygon fill="midnightblue" stroke="midnightblue" points="174.89,-195.96 185.47,-196.41 177.48,-189.45 174.89,-195.96"/>
</g>
<!-- Node3 -->
<g id="node3" class="node">
<title>Node3</title>
<g id="a_node3"><a xlink:href="classbfl_1_1MeasurementModel.html#ae9d3627dd9e935795d1e4c76bb34029c" target="_top" xlink:title=" ">
<polygon fill="white" stroke="black" points="175,-147.5 175,-177.5 307,-177.5 307,-147.5 175,-147.5"/>
<text text-anchor="start" x="183" y="-165.5" font-family="Helvetica,sans-Serif" font-size="10.00">bfl::MeasurementModel</text>
<text text-anchor="middle" x="241" y="-154.5" font-family="Helvetica,sans-Serif" font-size="10.00">::innovation</text>
</a>
</g>
</g>
<!-- Node1&#45;&gt;Node3 -->
<g id="edge2" class="edge">
<title>Node1&#45;&gt;Node3</title>
<path fill="none" stroke="midnightblue" d="M119.28,-128.6C137.44,-133.7 157.89,-139.44 176.72,-144.73"/>
<polygon fill="midnightblue" stroke="midnightblue" points="175.82,-148.11 186.4,-147.45 177.72,-141.38 175.82,-148.11"/>
</g>
<!-- Node4 -->
<g id="node4" class="node">
<title>Node4</title>
<g id="a_node4"><a xlink:href="classbfl_1_1MeasurementModel.html#a4e4180af8aba033a33f0d6942b9e6b18" target="_top" xlink:title=" ">
<polygon fill="white" stroke="black" points="175,-98.5 175,-128.5 307,-128.5 307,-98.5 175,-98.5"/>
<text text-anchor="start" x="183" y="-116.5" font-family="Helvetica,sans-Serif" font-size="10.00">bfl::MeasurementModel</text>
<text text-anchor="middle" x="241" y="-105.5" font-family="Helvetica,sans-Serif" font-size="10.00">::measure</text>
</a>
</g>
</g>
<!-- Node1&#45;&gt;Node4 -->
<g id="edge3" class="edge">
<title>Node1&#45;&gt;Node4</title>
<path fill="none" stroke="midnightblue" d="M129.49,-113.5C140.92,-113.5 152.93,-113.5 164.65,-113.5"/>
<polygon fill="midnightblue" stroke="midnightblue" points="164.85,-117 174.85,-113.5 164.85,-110 164.85,-117"/>
</g>
<!-- Node5 -->
<g id="node5" class="node">
<title>Node5</title>
<g id="a_node5"><a xlink:href="namespacebfl_1_1utils.html#a21587a9586a3bf80af3346a0df1b876a" target="_top" xlink:title="Evaluate a multivariate Gaussian probability density function.">
<polygon fill="white" stroke="black" points="180,-49.5 180,-79.5 302,-79.5 302,-49.5 180,-49.5"/>
<text text-anchor="start" x="188" y="-67.5" font-family="Helvetica,sans-Serif" font-size="10.00">bfl::utils::multivariate</text>
<text text-anchor="middle" x="241" y="-56.5" font-family="Helvetica,sans-Serif" font-size="10.00">_gaussian_density</text>
</a>
</g>
</g>
<!-- Node1&#45;&gt;Node5 -->
<g id="edge4" class="edge">
<title>Node1&#45;&gt;Node5</title>
<path fill="none" stroke="midnightblue" d="M119.28,-98.4C137.44,-93.3 157.89,-87.56 176.72,-82.27"/>
<polygon fill="midnightblue" stroke="midnightblue" points="177.72,-85.62 186.4,-79.55 175.82,-78.89 177.72,-85.62"/>
</g>
<!-- Node7 -->
<g id="node7" class="node">
<title>Node7</title>
<g id="a_node7"><a xlink:href="classbfl_1_1MeasurementModel.html#abd47546b1038cc28b6d7375667427504" target="_top" xlink:title=" ">
<polygon fill="white" stroke="black" points="175,-0.5 175,-30.5 307,-30.5 307,-0.5 175,-0.5"/>
<text text-anchor="start" x="183" y="-18.5" font-family="Helvetica,sans-Serif" font-size="10.00">bfl::MeasurementModel</text>
<text text-anchor="middle" x="241" y="-7.5" font-family="Helvetica,sans-Serif" font-size="10.00">::predictedMeasure</text>
</a>
</g>
</g>
<!-- Node1&#45;&gt;Node7 -->
<g id="edge6" class="edge">
<title>Node1&#45;&gt;Node7</title>
<path fill="none" stroke="midnightblue" d="M82.72,-98.25C101.73,-82.06 133.79,-56.64 165,-40.5 169.27,-38.29 173.78,-36.22 178.37,-34.29"/>
<polygon fill="midnightblue" stroke="midnightblue" points="179.88,-37.45 187.89,-30.52 177.31,-30.94 179.88,-37.45"/>
</g>
<!-- Node6 -->
<g id="node6" class="node">
<title>Node6</title>
<g id="a_node6"><a xlink:href="namespacebfl_1_1utils.html#af89fbb3248597e49b8fcdf38363b3dcd" target="_top" xlink:title="Evaluate the logarithm of a multivariate Gaussian probability density function.">
<polygon fill="white" stroke="black" points="353,-49.5 353,-79.5 480,-79.5 480,-49.5 353,-49.5"/>
<text text-anchor="start" x="361" y="-67.5" font-family="Helvetica,sans-Serif" font-size="10.00">bfl::utils::multivariate</text>
<text text-anchor="middle" x="416.5" y="-56.5" font-family="Helvetica,sans-Serif" font-size="10.00">_gaussian_log_density</text>
</a>
</g>
</g>
<!-- Node5&#45;&gt;Node6 -->
<g id="edge5" class="edge">
<title>Node5&#45;&gt;Node6</title>
<path fill="none" stroke="midnightblue" d="M302.19,-64.5C315.22,-64.5 329.13,-64.5 342.58,-64.5"/>
<polygon fill="midnightblue" stroke="midnightblue" points="342.76,-68 352.76,-64.5 342.76,-61 342.76,-68"/>
</g>
</g>
</svg>
