<?xml version="1.0" encoding="UTF-8" standalone="no"?>
<!DOCTYPE svg PUBLIC "-//W3C//DTD SVG 1.1//EN"
 "http://www.w3.org/Graphics/SVG/1.1/DTD/svg11.dtd">
<!-- Generated by graphviz version 2.43.0 (0)
 -->
<!-- Title: bfl::any::any::swap Pages: 1 -->
<svg width="234pt" height="28pt"
 viewBox="0.00 0.00 234.00 28.00" xmlns="http://www.w3.org/2000/svg" xmlns:xlink="http://www.w3.org/1999/xlink">
<g id="graph0" class="graph" transform="scale(1 1) rotate(0) translate(4 24)">
<title>bfl::any::any::swap</title>
<polygon fill="white" stroke="transparent" points="-4,4 -4,-24 230,-24 230,4 -4,4"/>
<!-- Node1 -->
<g id="node1" class="node">
<title>Node1</title>
<g id="a_node1"><a xlink:title="Swaps the content of two any objects.">
<polygon fill="#bfbfbf" stroke="black" points="0,-0.5 0,-19.5 107,-19.5 107,-0.5 0,-0.5"/>
<text text-anchor="middle" x="53.5" y="-7.5" font-family="Helvetica,sans-Serif" font-size="10.00">bfl::any::any::swap</text>
</a>
</g>
</g>
<!-- Node2 -->
<g id="node2" class="node">
<title>Node2</title>
<g id="a_node2"><a xlink:href="namespacebfl_1_1any.html#adb1328ea975e3bf9c0addc1689215bad" target="_top" xlink:title="Overloads the std::swap algorithm for std::any.">
<polygon fill="white" stroke="black" points="143,-0.5 143,-19.5 226,-19.5 226,-0.5 143,-0.5"/>
<text text-anchor="middle" x="184.5" y="-7.5" font-family="Helvetica,sans-Serif" font-size="10.00">bfl::any::swap</text>
</a>
</g>
</g>
<!-- Node1&#45;&gt;Node2 -->
<g id="edge1" class="edge">
<title>Node1&#45;&gt;Node2</title>
<path fill="none" stroke="midnightblue" d="M107.34,-3.35C115.66,-3.21 124.24,-3.22 132.52,-3.38"/>
<polygon fill="midnightblue" stroke="midnightblue" points="132.69,-6.89 142.79,-3.68 132.89,0.11 132.69,-6.89"/>
</g>
<!-- Node2&#45;&gt;Node1 -->
<g id="edge2" class="edge">
<title>Node2&#45;&gt;Node1</title>
<path fill="none" stroke="midnightblue" d="M142.79,-16.32C134.7,-16.63 126.04,-16.77 117.41,-16.75"/>
<polygon fill="midnightblue" stroke="midnightblue" points="117.37,-13.25 107.34,-16.65 117.31,-20.25 117.37,-13.25"/>
</g>
</g>
</svg>
