<?xml version="1.0" encoding="UTF-8" standalone="no"?>
<!DOCTYPE svg PUBLIC "-//W3C//DTD SVG 1.1//EN"
 "http://www.w3.org/Graphics/SVG/1.1/DTD/svg11.dtd">
<!-- Generated by graphviz version 2.43.0 (0)
 -->
<!-- Title: bfl::Skipper Pages: 1 -->
<svg width="912pt" height="199pt"
 viewBox="0.00 0.00 912.00 199.00" xmlns="http://www.w3.org/2000/svg" xmlns:xlink="http://www.w3.org/1999/xlink">
<g id="graph0" class="graph" transform="scale(1 1) rotate(0) translate(4 195)">
<title>bfl::Skipper</title>
<polygon fill="white" stroke="transparent" points="-4,4 -4,-195 908,-195 908,4 -4,4"/>
<!-- Node1 -->
<g id="node1" class="node">
<title>Node1</title>
<g id="a_node1"><a xlink:title=" ">
<polygon fill="#bfbfbf" stroke="black" points="0,-95.5 0,-114.5 71,-114.5 71,-95.5 0,-95.5"/>
<text text-anchor="middle" x="35.5" y="-102.5" font-family="Helvetica,sans-Serif" font-size="10.00">bfl::Skipper</text>
</a>
</g>
</g>
<!-- Node2 -->
<g id="node2" class="node">
<title>Node2</title>
<g id="a_node2"><a xlink:href="classbfl_1_1FilteringAlgorithm.html" target="_top" xlink:title=" ">
<polygon fill="white" stroke="black" points="107,-133.5 107,-152.5 229,-152.5 229,-133.5 107,-133.5"/>
<text text-anchor="middle" x="168" y="-140.5" font-family="Helvetica,sans-Serif" font-size="10.00">bfl::FilteringAlgorithm</text>
</a>
</g>
</g>
<!-- Node1&#45;&gt;Node2 -->
<g id="edge1" class="edge">
<title>Node1&#45;&gt;Node2</title>
<path fill="none" stroke="midnightblue" d="M79.05,-117.39C96.92,-122.59 117.39,-128.55 134.08,-133.41"/>
<polygon fill="midnightblue" stroke="midnightblue" points="80.01,-114.02 69.43,-114.59 78.05,-120.75 80.01,-114.02"/>
</g>
<!-- Node6 -->
<g id="node6" class="node">
<title>Node6</title>
<g id="a_node6"><a xlink:href="classbfl_1_1Skippable.html" target="_top" xlink:title=" ">
<polygon fill="white" stroke="black" points="126.5,-76.5 126.5,-95.5 209.5,-95.5 209.5,-76.5 126.5,-76.5"/>
<text text-anchor="middle" x="168" y="-83.5" font-family="Helvetica,sans-Serif" font-size="10.00">bfl::Skippable</text>
</a>
</g>
</g>
<!-- Node1&#45;&gt;Node6 -->
<g id="edge5" class="edge">
<title>Node1&#45;&gt;Node6</title>
<path fill="none" stroke="midnightblue" d="M81.4,-98.46C95.93,-96.35 111.96,-94.01 126.18,-91.94"/>
<polygon fill="midnightblue" stroke="midnightblue" points="80.52,-95.05 71.13,-99.96 81.53,-101.98 80.52,-95.05"/>
</g>
<!-- Node3 -->
<g id="node3" class="node">
<title>Node3</title>
<g id="a_node3"><a xlink:href="classbfl_1_1GaussianFilter.html" target="_top" xlink:title=" ">
<polygon fill="white" stroke="black" points="277,-171.5 277,-190.5 381,-190.5 381,-171.5 277,-171.5"/>
<text text-anchor="middle" x="329" y="-178.5" font-family="Helvetica,sans-Serif" font-size="10.00">bfl::GaussianFilter</text>
</a>
</g>
</g>
<!-- Node2&#45;&gt;Node3 -->
<g id="edge2" class="edge">
<title>Node2&#45;&gt;Node3</title>
<path fill="none" stroke="midnightblue" d="M219.08,-154.97C241.36,-160.29 267.23,-166.48 288.17,-171.48"/>
<polygon fill="midnightblue" stroke="midnightblue" points="219.66,-151.51 209.12,-152.59 218.03,-158.32 219.66,-151.51"/>
</g>
<!-- Node4 -->
<g id="node4" class="node">
<title>Node4</title>
<g id="a_node4"><a xlink:href="classbfl_1_1ParticleFilter.html" target="_top" xlink:title=" ">
<polygon fill="white" stroke="black" points="281.5,-133.5 281.5,-152.5 376.5,-152.5 376.5,-133.5 281.5,-133.5"/>
<text text-anchor="middle" x="329" y="-140.5" font-family="Helvetica,sans-Serif" font-size="10.00">bfl::ParticleFilter</text>
</a>
</g>
</g>
<!-- Node2&#45;&gt;Node4 -->
<g id="edge3" class="edge">
<title>Node2&#45;&gt;Node4</title>
<path fill="none" stroke="midnightblue" d="M239.33,-143C253.5,-143 268.06,-143 281.19,-143"/>
<polygon fill="midnightblue" stroke="midnightblue" points="239.11,-139.5 229.11,-143 239.11,-146.5 239.11,-139.5"/>
</g>
<!-- Node5 -->
<g id="node5" class="node">
<title>Node5</title>
<g id="a_node5"><a xlink:href="classbfl_1_1SIS.html" target="_top" xlink:title=" ">
<polygon fill="white" stroke="black" points="469.5,-133.5 469.5,-152.5 519.5,-152.5 519.5,-133.5 469.5,-133.5"/>
<text text-anchor="middle" x="494.5" y="-140.5" font-family="Helvetica,sans-Serif" font-size="10.00">bfl::SIS</text>
</a>
</g>
</g>
<!-- Node4&#45;&gt;Node5 -->
<g id="edge4" class="edge">
<title>Node4&#45;&gt;Node5</title>
<path fill="none" stroke="midnightblue" d="M387.01,-143C415.2,-143 447.72,-143 469.33,-143"/>
<polygon fill="midnightblue" stroke="midnightblue" points="386.85,-139.5 376.85,-143 386.85,-146.5 386.85,-139.5"/>
</g>
<!-- Node7 -->
<g id="node7" class="node">
<title>Node7</title>
<g id="a_node7"><a xlink:href="classbfl_1_1ExogenousModel.html" target="_top" xlink:title=" ">
<polygon fill="white" stroke="black" points="270.5,-95.5 270.5,-114.5 387.5,-114.5 387.5,-95.5 270.5,-95.5"/>
<text text-anchor="middle" x="329" y="-102.5" font-family="Helvetica,sans-Serif" font-size="10.00">bfl::ExogenousModel</text>
</a>
</g>
</g>
<!-- Node6&#45;&gt;Node7 -->
<g id="edge6" class="edge">
<title>Node6&#45;&gt;Node7</title>
<path fill="none" stroke="midnightblue" d="M219.83,-92.07C235.95,-94 253.88,-96.14 270.44,-98.12"/>
<polygon fill="midnightblue" stroke="midnightblue" points="219.88,-88.55 209.53,-90.84 219.05,-95.51 219.88,-88.55"/>
</g>
<!-- Node8 -->
<g id="node8" class="node">
<title>Node8</title>
<g id="a_node8"><a xlink:href="classbfl_1_1GaussianPrediction.html" target="_top" xlink:title=" ">
<polygon fill="white" stroke="black" points="265,-57.5 265,-76.5 393,-76.5 393,-57.5 265,-57.5"/>
<text text-anchor="middle" x="329" y="-64.5" font-family="Helvetica,sans-Serif" font-size="10.00">bfl::GaussianPrediction</text>
</a>
</g>
</g>
<!-- Node6&#45;&gt;Node8 -->
<g id="edge7" class="edge">
<title>Node6&#45;&gt;Node8</title>
<path fill="none" stroke="midnightblue" d="M219.72,-79.94C234.11,-78.22 249.95,-76.33 264.97,-74.53"/>
<polygon fill="midnightblue" stroke="midnightblue" points="219.05,-76.49 209.53,-81.16 219.88,-83.44 219.05,-76.49"/>
</g>
<!-- Node11 -->
<g id="node11" class="node">
<title>Node11</title>
<g id="a_node11"><a xlink:href="classbfl_1_1StateModel.html" target="_top" xlink:title=" ">
<polygon fill="white" stroke="black" points="284,-19.5 284,-38.5 374,-38.5 374,-19.5 284,-19.5"/>
<text text-anchor="middle" x="329" y="-26.5" font-family="Helvetica,sans-Serif" font-size="10.00">bfl::StateModel</text>
</a>
</g>
</g>
<!-- Node6&#45;&gt;Node11 -->
<g id="edge10" class="edge">
<title>Node6&#45;&gt;Node11</title>
<path fill="none" stroke="midnightblue" d="M201.12,-72.5C219.65,-64.91 243.48,-55.49 265,-48 274.49,-44.7 284.91,-41.42 294.48,-38.54"/>
<polygon fill="midnightblue" stroke="midnightblue" points="199.6,-69.35 191.69,-76.4 202.26,-75.82 199.6,-69.35"/>
</g>
<!-- Node9 -->
<g id="node9" class="node">
<title>Node9</title>
<g id="a_node9"><a xlink:href="classbfl_1_1KFPrediction.html" target="_top" xlink:title=" ">
<polygon fill="white" stroke="black" points="446.5,-95.5 446.5,-114.5 542.5,-114.5 542.5,-95.5 446.5,-95.5"/>
<text text-anchor="middle" x="494.5" y="-102.5" font-family="Helvetica,sans-Serif" font-size="10.00">bfl::KFPrediction</text>
</a>
</g>
</g>
<!-- Node8&#45;&gt;Node9 -->
<g id="edge8" class="edge">
<title>Node8&#45;&gt;Node9</title>
<path fill="none" stroke="midnightblue" d="M381.18,-78.9C404.17,-84.24 430.91,-90.45 452.54,-95.48"/>
<polygon fill="midnightblue" stroke="midnightblue" points="381.79,-75.44 371.26,-76.59 380.21,-82.26 381.79,-75.44"/>
</g>
<!-- Node10 -->
<g id="node10" class="node">
<title>Node10</title>
<g id="a_node10"><a xlink:href="classbfl_1_1UKFPrediction.html" target="_top" xlink:title=" ">
<polygon fill="white" stroke="black" points="442.5,-57.5 442.5,-76.5 546.5,-76.5 546.5,-57.5 442.5,-57.5"/>
<text text-anchor="middle" x="494.5" y="-64.5" font-family="Helvetica,sans-Serif" font-size="10.00">bfl::UKFPrediction</text>
</a>
</g>
</g>
<!-- Node8&#45;&gt;Node10 -->
<g id="edge9" class="edge">
<title>Node8&#45;&gt;Node10</title>
<path fill="none" stroke="midnightblue" d="M403.23,-67C416.43,-67 429.94,-67 442.34,-67"/>
<polygon fill="midnightblue" stroke="midnightblue" points="403.21,-63.5 393.21,-67 403.21,-70.5 403.21,-63.5"/>
</g>
<!-- Node12 -->
<g id="node12" class="node">
<title>Node12</title>
<g id="a_node12"><a xlink:href="classbfl_1_1AdditiveStateModel.html" target="_top" xlink:title=" ">
<polygon fill="white" stroke="black" points="429,-19.5 429,-38.5 560,-38.5 560,-19.5 429,-19.5"/>
<text text-anchor="middle" x="494.5" y="-26.5" font-family="Helvetica,sans-Serif" font-size="10.00">bfl::AdditiveStateModel</text>
</a>
</g>
</g>
<!-- Node11&#45;&gt;Node12 -->
<g id="edge11" class="edge">
<title>Node11&#45;&gt;Node12</title>
<path fill="none" stroke="midnightblue" d="M384.39,-29C398.67,-29 414.2,-29 428.96,-29"/>
<polygon fill="midnightblue" stroke="midnightblue" points="384.25,-25.5 374.25,-29 384.25,-32.5 384.25,-25.5"/>
</g>
<!-- Node13 -->
<g id="node13" class="node">
<title>Node13</title>
<g id="a_node13"><a xlink:href="classbfl_1_1LinearStateModel.html" target="_top" xlink:title=" ">
<polygon fill="white" stroke="black" points="596,-19.5 596,-38.5 716,-38.5 716,-19.5 596,-19.5"/>
<text text-anchor="middle" x="656" y="-26.5" font-family="Helvetica,sans-Serif" font-size="10.00">bfl::LinearStateModel</text>
</a>
</g>
</g>
<!-- Node12&#45;&gt;Node13 -->
<g id="edge12" class="edge">
<title>Node12&#45;&gt;Node13</title>
<path fill="none" stroke="midnightblue" d="M570.63,-29C579.09,-29 587.62,-29 595.83,-29"/>
<polygon fill="midnightblue" stroke="midnightblue" points="570.37,-25.5 560.37,-29 570.37,-32.5 570.37,-25.5"/>
</g>
<!-- Node14 -->
<g id="node14" class="node">
<title>Node14</title>
<g id="a_node14"><a xlink:href="classbfl_1_1LTIStateModel.html" target="_top" xlink:title=" ">
<polygon fill="white" stroke="black" points="776,-38.5 776,-57.5 880,-57.5 880,-38.5 776,-38.5"/>
<text text-anchor="middle" x="828" y="-45.5" font-family="Helvetica,sans-Serif" font-size="10.00">bfl::LTIStateModel</text>
</a>
</g>
</g>
<!-- Node13&#45;&gt;Node14 -->
<g id="edge13" class="edge">
<title>Node13&#45;&gt;Node14</title>
<path fill="none" stroke="midnightblue" d="M726.58,-36.78C743.04,-38.62 760.3,-40.54 775.77,-42.27"/>
<polygon fill="midnightblue" stroke="midnightblue" points="726.78,-33.28 716.46,-35.65 726.01,-40.23 726.78,-33.28"/>
</g>
<!-- Node15 -->
<g id="node15" class="node">
<title>Node15</title>
<g id="a_node15"><a xlink:href="classbfl_1_1WhiteNoiseAcceleration.html" target="_top" xlink:title=" ">
<polygon fill="white" stroke="black" points="752,-0.5 752,-19.5 904,-19.5 904,-0.5 752,-0.5"/>
<text text-anchor="middle" x="828" y="-7.5" font-family="Helvetica,sans-Serif" font-size="10.00">bfl::WhiteNoiseAcceleration</text>
</a>
</g>
</g>
<!-- Node13&#45;&gt;Node15 -->
<g id="edge14" class="edge">
<title>Node13&#45;&gt;Node15</title>
<path fill="none" stroke="midnightblue" d="M726.49,-21.23C734.81,-20.3 743.34,-19.35 751.74,-18.41"/>
<polygon fill="midnightblue" stroke="midnightblue" points="726.01,-17.77 716.46,-22.35 726.78,-24.72 726.01,-17.77"/>
</g>
</g>
</svg>
