<?xml version="1.0" encoding="UTF-8" standalone="no"?>
<!DOCTYPE svg PUBLIC "-//W3C//DTD SVG 1.1//EN"
 "http://www.w3.org/Graphics/SVG/1.1/DTD/svg11.dtd">
<!-- Generated by graphviz version 2.47.2 (0)
 -->
<!-- Title: bfl::GaussianLikelihood::likelihood Pages: 1 -->
<svg width="452pt" height="235pt"
 viewBox="0.00 0.00 452.00 235.00" xmlns="http://www.w3.org/2000/svg" xmlns:xlink="http://www.w3.org/1999/xlink">
<g id="graph0" class="graph" transform="scale(1 1) rotate(0) translate(4 231)">
<title>bfl::GaussianLikelihood::likelihood</title>
<polygon fill="white" stroke="transparent" points="-4,4 -4,-231 448,-231 448,4 -4,4"/>
<!-- Node1 -->
<g id="node1" class="node">
<title>Node1</title>
<g id="a_node1"><a xlink:title=" ">
<polygon fill="#bfbfbf" stroke="black" points="0,-98.5 0,-128.5 118,-128.5 118,-98.5 0,-98.5"/>
<text text-anchor="start" x="8" y="-116.5" font-family="Helvetica,sans-Serif" font-size="10.00">bfl::GaussianLikelihood</text>
<text text-anchor="middle" x="59" y="-105.5" font-family="Helvetica,sans-Serif" font-size="10.00">::likelihood</text>
</a>
</g>
</g>
<!-- Node2 -->
<g id="node2" class="node">
<title>Node2</title>
<g id="a_node2"><a xlink:href="classbfl_1_1MeasurementModel.html#af25f42076b69e0c6cab47d36d796536f" target="_top" xlink:title=" ">
<polygon fill="white" stroke="black" points="154,-196.5 154,-226.5 292,-226.5 292,-196.5 154,-196.5"/>
<text text-anchor="start" x="162" y="-214.5" font-family="Helvetica,sans-Serif" font-size="10.00">bfl::MeasurementModel</text>
<text text-anchor="middle" x="223" y="-203.5" font-family="Helvetica,sans-Serif" font-size="10.00">::getNoiseCovarianceMatrix</text>
</a>
</g>
</g>
<!-- Node1&#45;&gt;Node2 -->
<g id="edge1" class="edge">
<title>Node1&#45;&gt;Node2</title>
<path fill="none" stroke="midnightblue" d="M75.81,-128.64C93.61,-145.01 123.98,-170.98 154,-187.5 157.2,-189.26 160.56,-190.94 164,-192.52"/>
<polygon fill="midnightblue" stroke="midnightblue" points="162.65,-195.75 173.22,-196.49 165.42,-189.32 162.65,-195.75"/>
</g>
<!-- Node3 -->
<g id="node3" class="node">
<title>Node3</title>
<g id="a_node3"><a xlink:href="classbfl_1_1MeasurementModel.html#ae9d3627dd9e935795d1e4c76bb34029c" target="_top" xlink:title=" ">
<polygon fill="white" stroke="black" points="163.5,-147.5 163.5,-177.5 282.5,-177.5 282.5,-147.5 163.5,-147.5"/>
<text text-anchor="start" x="171.5" y="-165.5" font-family="Helvetica,sans-Serif" font-size="10.00">bfl::MeasurementModel</text>
<text text-anchor="middle" x="223" y="-154.5" font-family="Helvetica,sans-Serif" font-size="10.00">::innovation</text>
</a>
</g>
</g>
<!-- Node1&#45;&gt;Node3 -->
<g id="edge2" class="edge">
<title>Node1&#45;&gt;Node3</title>
<path fill="none" stroke="midnightblue" d="M109.93,-128.6C126.48,-133.61 145.07,-139.23 162.29,-144.44"/>
<polygon fill="midnightblue" stroke="midnightblue" points="161.65,-147.9 172.24,-147.45 163.68,-141.2 161.65,-147.9"/>
</g>
<!-- Node4 -->
<g id="node4" class="node">
<title>Node4</title>
<g id="a_node4"><a xlink:href="classbfl_1_1MeasurementModel.html#a4e4180af8aba033a33f0d6942b9e6b18" target="_top" xlink:title=" ">
<polygon fill="white" stroke="black" points="163.5,-98.5 163.5,-128.5 282.5,-128.5 282.5,-98.5 163.5,-98.5"/>
<text text-anchor="start" x="171.5" y="-116.5" font-family="Helvetica,sans-Serif" font-size="10.00">bfl::MeasurementModel</text>
<text text-anchor="middle" x="223" y="-105.5" font-family="Helvetica,sans-Serif" font-size="10.00">::measure</text>
</a>
</g>
</g>
<!-- Node1&#45;&gt;Node4 -->
<g id="edge3" class="edge">
<title>Node1&#45;&gt;Node4</title>
<path fill="none" stroke="midnightblue" d="M118.03,-113.5C129.4,-113.5 141.44,-113.5 153.13,-113.5"/>
<polygon fill="midnightblue" stroke="midnightblue" points="153.29,-117 163.29,-113.5 153.29,-110 153.29,-117"/>
</g>
<!-- Node5 -->
<g id="node5" class="node">
<title>Node5</title>
<g id="a_node5"><a xlink:href="namespacebfl_1_1utils.html#a21587a9586a3bf80af3346a0df1b876a" target="_top" xlink:title="Evaluate a multivariate Gaussian probability density function.">
<polygon fill="white" stroke="black" points="169.5,-49.5 169.5,-79.5 276.5,-79.5 276.5,-49.5 169.5,-49.5"/>
<text text-anchor="start" x="177.5" y="-67.5" font-family="Helvetica,sans-Serif" font-size="10.00">bfl::utils::multivariate</text>
<text text-anchor="middle" x="223" y="-56.5" font-family="Helvetica,sans-Serif" font-size="10.00">_gaussian_density</text>
</a>
</g>
</g>
<!-- Node1&#45;&gt;Node5 -->
<g id="edge4" class="edge">
<title>Node1&#45;&gt;Node5</title>
<path fill="none" stroke="midnightblue" d="M109.93,-98.4C126.48,-93.39 145.07,-87.77 162.29,-82.56"/>
<polygon fill="midnightblue" stroke="midnightblue" points="163.68,-85.8 172.24,-79.55 161.65,-79.1 163.68,-85.8"/>
</g>
<!-- Node7 -->
<g id="node7" class="node">
<title>Node7</title>
<g id="a_node7"><a xlink:href="classbfl_1_1MeasurementModel.html#abd47546b1038cc28b6d7375667427504" target="_top" xlink:title=" ">
<polygon fill="white" stroke="black" points="163.5,-0.5 163.5,-30.5 282.5,-30.5 282.5,-0.5 163.5,-0.5"/>
<text text-anchor="start" x="171.5" y="-18.5" font-family="Helvetica,sans-Serif" font-size="10.00">bfl::MeasurementModel</text>
<text text-anchor="middle" x="223" y="-7.5" font-family="Helvetica,sans-Serif" font-size="10.00">::predictedMeasure</text>
</a>
</g>
</g>
<!-- Node1&#45;&gt;Node7 -->
<g id="edge6" class="edge">
<title>Node1&#45;&gt;Node7</title>
<path fill="none" stroke="midnightblue" d="M76.21,-98.36C94.12,-82.27 124.36,-56.93 154,-40.5 157.71,-38.44 161.63,-36.49 165.63,-34.66"/>
<polygon fill="midnightblue" stroke="midnightblue" points="167.27,-37.76 175.06,-30.59 164.49,-31.33 167.27,-37.76"/>
</g>
<!-- Node6 -->
<g id="node6" class="node">
<title>Node6</title>
<g id="a_node6"><a xlink:href="namespacebfl_1_1utils.html#af89fbb3248597e49b8fcdf38363b3dcd" target="_top" xlink:title="Evaluate the logarithm of a multivariate Gaussian probability density function.">
<polygon fill="white" stroke="black" points="328,-49.5 328,-79.5 444,-79.5 444,-49.5 328,-49.5"/>
<text text-anchor="start" x="336" y="-67.5" font-family="Helvetica,sans-Serif" font-size="10.00">bfl::utils::multivariate</text>
<text text-anchor="middle" x="386" y="-56.5" font-family="Helvetica,sans-Serif" font-size="10.00">_gaussian_log_density</text>
</a>
</g>
</g>
<!-- Node5&#45;&gt;Node6 -->
<g id="edge5" class="edge">
<title>Node5&#45;&gt;Node6</title>
<path fill="none" stroke="midnightblue" d="M276.72,-64.5C289.73,-64.5 303.84,-64.5 317.44,-64.5"/>
<polygon fill="midnightblue" stroke="midnightblue" points="317.72,-68 327.72,-64.5 317.72,-61 317.72,-68"/>
</g>
</g>
</svg>
