<?xml version="1.0" encoding="UTF-8" standalone="no"?>
<!DOCTYPE svg PUBLIC "-//W3C//DTD SVG 1.1//EN"
 "http://www.w3.org/Graphics/SVG/1.1/DTD/svg11.dtd">
<!-- Generated by graphviz version 2.43.0 (0)
 -->
<!-- Title: bfl::UKFPrediction::predictStep Pages: 1 -->
<svg width="819pt" height="390pt"
 viewBox="0.00 0.00 819.00 389.50" xmlns="http://www.w3.org/2000/svg" xmlns:xlink="http://www.w3.org/1999/xlink">
<g id="graph0" class="graph" transform="scale(1 1) rotate(0) translate(4 385.5)">
<title>bfl::UKFPrediction::predictStep</title>
<polygon fill="white" stroke="transparent" points="-4,4 -4,-385.5 815,-385.5 815,4 -4,4"/>
<!-- Node1 -->
<g id="node1" class="node">
<title>Node1</title>
<g id="a_node1"><a xlink:title=" ">
<polygon fill="#bfbfbf" stroke="black" points="0,-205 0,-235 104,-235 104,-205 0,-205"/>
<text text-anchor="start" x="8" y="-223" font-family="Helvetica,sans-Serif" font-size="10.00">bfl::UKFPrediction</text>
<text text-anchor="middle" x="52" y="-212" font-family="Helvetica,sans-Serif" font-size="10.00">::predictStep</text>
</a>
</g>
</g>
<!-- Node2 -->
<g id="node2" class="node">
<title>Node2</title>
<g id="a_node2"><a xlink:href="classbfl_1_1GaussianMixture.html#aec4e807341e18c18faed041c41121cb7" target="_top" xlink:title=" ">
<polygon fill="white" stroke="black" points="157,-230 157,-260 274,-260 274,-230 157,-230"/>
<text text-anchor="start" x="165" y="-248" font-family="Helvetica,sans-Serif" font-size="10.00">bfl::GaussianMixture</text>
<text text-anchor="middle" x="215.5" y="-237" font-family="Helvetica,sans-Serif" font-size="10.00">::augmentWithNoise</text>
</a>
</g>
</g>
<!-- Node1&#45;&gt;Node2 -->
<g id="edge1" class="edge">
<title>Node1&#45;&gt;Node2</title>
<path fill="none" stroke="midnightblue" d="M104.1,-227.91C117.63,-230.01 132.46,-232.3 146.73,-234.51"/>
<polygon fill="midnightblue" stroke="midnightblue" points="146.57,-238.03 156.99,-236.1 147.65,-231.11 146.57,-238.03"/>
</g>
<!-- Node3 -->
<g id="node3" class="node">
<title>Node3</title>
<g id="a_node3"><a xlink:href="namespacebfl_1_1sigma__point.html#afe170453152d4f96db4dad71bd9be9a3" target="_top" xlink:title=" ">
<polygon fill="white" stroke="black" points="140,-181 140,-211 291,-211 291,-181 140,-181"/>
<text text-anchor="start" x="148" y="-199" font-family="Helvetica,sans-Serif" font-size="10.00">bfl::sigma_point::unscented</text>
<text text-anchor="middle" x="215.5" y="-188" font-family="Helvetica,sans-Serif" font-size="10.00">_transform</text>
</a>
</g>
</g>
<!-- Node1&#45;&gt;Node3 -->
<g id="edge2" class="edge">
<title>Node1&#45;&gt;Node3</title>
<path fill="none" stroke="midnightblue" d="M104.1,-212.41C112.36,-211.18 121.1,-209.88 129.9,-208.57"/>
<polygon fill="midnightblue" stroke="midnightblue" points="130.46,-212.03 139.84,-207.1 129.43,-205.1 130.46,-212.03"/>
</g>
<!-- Node4 -->
<g id="node4" class="node">
<title>Node4</title>
<g id="a_node4"><a xlink:href="classbfl_1_1VectorDescription.html#a08a52559af5e67e1f225466a77d852ff" target="_top" xlink:title=" ">
<polygon fill="white" stroke="black" points="338.5,-351 338.5,-381 462.5,-381 462.5,-351 338.5,-351"/>
<text text-anchor="start" x="346.5" y="-369" font-family="Helvetica,sans-Serif" font-size="10.00">bfl::VectorDescription</text>
<text text-anchor="middle" x="400.5" y="-358" font-family="Helvetica,sans-Serif" font-size="10.00">::circular_components</text>
</a>
</g>
</g>
<!-- Node3&#45;&gt;Node4 -->
<g id="edge3" class="edge">
<title>Node3&#45;&gt;Node4</title>
<path fill="none" stroke="midnightblue" d="M277.95,-211.03C282.74,-213.81 287.18,-217.1 291,-221 328.48,-259.25 290.85,-296.48 327,-336 330.33,-339.64 334.17,-342.85 338.31,-345.68"/>
<polygon fill="midnightblue" stroke="midnightblue" points="336.77,-348.84 347.15,-350.97 340.36,-342.83 336.77,-348.84"/>
</g>
<!-- Node5 -->
<g id="node5" class="node">
<title>Node5</title>
<g id="a_node5"><a xlink:href="classbfl_1_1GaussianMixture.html#a63afff5b5e09399a51ac4dbe50de568b" target="_top" xlink:title=" ">
<polygon fill="white" stroke="black" points="521.5,-318 521.5,-348 638.5,-348 638.5,-318 521.5,-318"/>
<text text-anchor="start" x="529.5" y="-336" font-family="Helvetica,sans-Serif" font-size="10.00">bfl::GaussianMixture</text>
<text text-anchor="middle" x="580" y="-325" font-family="Helvetica,sans-Serif" font-size="10.00">::covariance</text>
</a>
</g>
</g>
<!-- Node3&#45;&gt;Node5 -->
<g id="edge4" class="edge">
<title>Node3&#45;&gt;Node5</title>
<path fill="none" stroke="midnightblue" d="M276.2,-211.13C281.53,-213.89 286.57,-217.15 291,-221 318,-244.47 298.14,-271.86 327,-293 380.04,-331.86 456.29,-339.1 511.01,-338.33"/>
<polygon fill="midnightblue" stroke="midnightblue" points="511.39,-341.82 521.31,-338.09 511.23,-334.82 511.39,-341.82"/>
</g>
<!-- Node6 -->
<g id="node6" class="node">
<title>Node6</title>
<g id="a_node6"><a xlink:href="namespacebfl_1_1utils.html#a26bbb191de2e28c267c505a1e9ef0951" target="_top" xlink:title="Evaluate the colwise difference between a set of unit quaternions &#160;and a unit quaternion .">
<polygon fill="white" stroke="black" points="333,-186.5 333,-205.5 468,-205.5 468,-186.5 333,-186.5"/>
<text text-anchor="middle" x="400.5" y="-193.5" font-family="Helvetica,sans-Serif" font-size="10.00">bfl::utils::diff_quaternion</text>
</a>
</g>
</g>
<!-- Node3&#45;&gt;Node6 -->
<g id="edge5" class="edge">
<title>Node3&#45;&gt;Node6</title>
<path fill="none" stroke="midnightblue" d="M291.2,-196C301.57,-196 312.25,-196 322.67,-196"/>
<polygon fill="midnightblue" stroke="midnightblue" points="322.97,-199.5 332.97,-196 322.97,-192.5 322.97,-199.5"/>
</g>
<!-- Node8 -->
<g id="node8" class="node">
<title>Node8</title>
<g id="a_node8"><a xlink:href="namespacebfl_1_1directional__statistics.html#ad8758aac208bc2baa75aad514a3f53e6" target="_top" xlink:title=" ">
<polygon fill="white" stroke="black" points="332.5,-137 332.5,-167 468.5,-167 468.5,-137 332.5,-137"/>
<text text-anchor="start" x="340.5" y="-155" font-family="Helvetica,sans-Serif" font-size="10.00">bfl::directional_statistics</text>
<text text-anchor="middle" x="400.5" y="-144" font-family="Helvetica,sans-Serif" font-size="10.00">::directional_mean</text>
</a>
</g>
</g>
<!-- Node3&#45;&gt;Node8 -->
<g id="edge7" class="edge">
<title>Node3&#45;&gt;Node8</title>
<path fill="none" stroke="midnightblue" d="M278.97,-180.98C294.49,-177.25 311.25,-173.22 327.2,-169.38"/>
<polygon fill="midnightblue" stroke="midnightblue" points="328.1,-172.77 337,-167.03 326.46,-165.96 328.1,-172.77"/>
</g>
<!-- Node9 -->
<g id="node9" class="node">
<title>Node9</title>
<g id="a_node9"><a xlink:href="namespacebfl_1_1directional__statistics.html#a18bffca88c7ea5f4ea11d2ad910736fe" target="_top" xlink:title=" ">
<polygon fill="white" stroke="black" points="332.5,-88 332.5,-118 468.5,-118 468.5,-88 332.5,-88"/>
<text text-anchor="start" x="340.5" y="-106" font-family="Helvetica,sans-Serif" font-size="10.00">bfl::directional_statistics</text>
<text text-anchor="middle" x="400.5" y="-95" font-family="Helvetica,sans-Serif" font-size="10.00">::directional_sub</text>
</a>
</g>
</g>
<!-- Node3&#45;&gt;Node9 -->
<g id="edge8" class="edge">
<title>Node3&#45;&gt;Node9</title>
<path fill="none" stroke="midnightblue" d="M237.24,-180.94C258.83,-165.78 294.04,-142.47 327,-127 330.85,-125.19 334.87,-123.46 338.96,-121.82"/>
<polygon fill="midnightblue" stroke="midnightblue" points="340.49,-124.98 348.58,-118.14 337.99,-118.44 340.49,-124.98"/>
</g>
<!-- Node10 -->
<g id="node10" class="node">
<title>Node10</title>
<g id="a_node10"><a xlink:href="classbfl_1_1VectorDescription.html#ac5cd5eaafcfc8f8428dc3e6dccef09e3" target="_top" xlink:title=" ">
<polygon fill="white" stroke="black" points="340,-39 340,-69 461,-69 461,-39 340,-39"/>
<text text-anchor="start" x="348" y="-57" font-family="Helvetica,sans-Serif" font-size="10.00">bfl::VectorDescription</text>
<text text-anchor="middle" x="400.5" y="-46" font-family="Helvetica,sans-Serif" font-size="10.00">::linear_components</text>
</a>
</g>
</g>
<!-- Node3&#45;&gt;Node10 -->
<g id="edge9" class="edge">
<title>Node3&#45;&gt;Node10</title>
<path fill="none" stroke="midnightblue" d="M226.9,-180.67C244.62,-155.67 283.02,-106.12 327,-78 329.46,-76.43 332.04,-74.95 334.69,-73.55"/>
<polygon fill="midnightblue" stroke="midnightblue" points="336.4,-76.61 343.93,-69.16 333.4,-70.29 336.4,-76.61"/>
</g>
<!-- Node11 -->
<g id="node11" class="node">
<title>Node11</title>
<g id="a_node11"><a xlink:href="classbfl_1_1GaussianMixture.html#a7b33a3796b65b8a8b44f9569f226b4cf" target="_top" xlink:title=" ">
<polygon fill="white" stroke="black" points="521.5,-269 521.5,-299 638.5,-299 638.5,-269 521.5,-269"/>
<text text-anchor="start" x="529.5" y="-287" font-family="Helvetica,sans-Serif" font-size="10.00">bfl::GaussianMixture</text>
<text text-anchor="middle" x="580" y="-276" font-family="Helvetica,sans-Serif" font-size="10.00">::mean</text>
</a>
</g>
</g>
<!-- Node3&#45;&gt;Node11 -->
<g id="edge10" class="edge">
<title>Node3&#45;&gt;Node11</title>
<path fill="none" stroke="midnightblue" d="M273.07,-211.15C279.38,-213.94 285.5,-217.2 291,-221 311.79,-235.36 304.59,-253.33 327,-265 384.03,-294.7 458.35,-296.62 511.48,-292.84"/>
<polygon fill="midnightblue" stroke="midnightblue" points="511.78,-296.32 521.47,-292.04 511.23,-289.35 511.78,-296.32"/>
</g>
<!-- Node12 -->
<g id="node12" class="node">
<title>Node12</title>
<g id="a_node12"><a xlink:href="namespacebfl_1_1utils.html#ae8f8bf6fbbee917d1ff3e2bf6578ea19" target="_top" xlink:title="Evaluate the weighted mean of a set of unit quaternions &#160;given a set of weights .">
<polygon fill="white" stroke="black" points="327,-0.5 327,-19.5 474,-19.5 474,-0.5 327,-0.5"/>
<text text-anchor="middle" x="400.5" y="-7.5" font-family="Helvetica,sans-Serif" font-size="10.00">bfl::utils::mean_quaternion</text>
</a>
</g>
</g>
<!-- Node3&#45;&gt;Node12 -->
<g id="edge11" class="edge">
<title>Node3&#45;&gt;Node12</title>
<path fill="none" stroke="midnightblue" d="M222.13,-180.84C235.18,-147.84 270.75,-69.27 327,-29 329.7,-27.07 332.58,-25.33 335.58,-23.77"/>
<polygon fill="midnightblue" stroke="midnightblue" points="337.17,-26.89 344.87,-19.61 334.31,-20.51 337.17,-26.89"/>
</g>
<!-- Node13 -->
<g id="node13" class="node">
<title>Node13</title>
<g id="a_node13"><a xlink:href="namespacebfl_1_1sigma__point.html#ab919aca5fccc30ee2acd5cd966cd9dc9" target="_top" xlink:title=" ">
<polygon fill="white" stroke="black" points="335,-225 335,-255 466,-255 466,-225 335,-225"/>
<text text-anchor="start" x="343" y="-243" font-family="Helvetica,sans-Serif" font-size="10.00">bfl::sigma_point::sigma</text>
<text text-anchor="middle" x="400.5" y="-232" font-family="Helvetica,sans-Serif" font-size="10.00">_point</text>
</a>
</g>
</g>
<!-- Node3&#45;&gt;Node13 -->
<g id="edge12" class="edge">
<title>Node3&#45;&gt;Node13</title>
<path fill="none" stroke="midnightblue" d="M278.97,-211.02C294.49,-214.75 311.25,-218.78 327.2,-222.62"/>
<polygon fill="midnightblue" stroke="midnightblue" points="326.46,-226.04 337,-224.97 328.1,-219.23 326.46,-226.04"/>
</g>
<!-- Node7 -->
<g id="node7" class="node">
<title>Node7</title>
<g id="a_node7"><a xlink:href="namespacebfl_1_1utils.html#a294bdf526be6ef1c5bad59e737f2af63" target="_top" xlink:title="Convert a matrix of unit quaternions &#160;to their rotation vector representation &#160;in the tangent space a...">
<polygon fill="white" stroke="black" points="523,-122 523,-152 637,-152 637,-122 523,-122"/>
<text text-anchor="start" x="531" y="-140" font-family="Helvetica,sans-Serif" font-size="10.00">bfl::utils::quaternion</text>
<text text-anchor="middle" x="580" y="-129" font-family="Helvetica,sans-Serif" font-size="10.00">_to_rotation_vector</text>
</a>
</g>
</g>
<!-- Node6&#45;&gt;Node7 -->
<g id="edge6" class="edge">
<title>Node6&#45;&gt;Node7</title>
<path fill="none" stroke="midnightblue" d="M439.78,-186.41C450.9,-183.36 463.01,-179.79 474,-176 490.39,-170.35 493.81,-167.18 510,-161 514.77,-159.18 519.74,-157.34 524.73,-155.53"/>
<polygon fill="midnightblue" stroke="midnightblue" points="526.08,-158.77 534.32,-152.1 523.72,-152.17 526.08,-158.77"/>
</g>
<!-- Node13&#45;&gt;Node5 -->
<g id="edge13" class="edge">
<title>Node13&#45;&gt;Node5</title>
<path fill="none" stroke="midnightblue" d="M422.27,-255.27C443.5,-270.38 477.85,-293.45 510,-309 513.72,-310.8 517.62,-312.53 521.58,-314.19"/>
<polygon fill="midnightblue" stroke="midnightblue" points="520.32,-317.45 530.9,-317.89 522.9,-310.94 520.32,-317.45"/>
</g>
<!-- Node13&#45;&gt;Node11 -->
<g id="edge15" class="edge">
<title>Node13&#45;&gt;Node11</title>
<path fill="none" stroke="midnightblue" d="M462.09,-255.02C477.97,-258.96 495.2,-263.23 511.43,-267.25"/>
<polygon fill="midnightblue" stroke="midnightblue" points="510.83,-270.71 521.38,-269.72 512.52,-263.91 510.83,-270.71"/>
</g>
<!-- Node14 -->
<g id="node14" class="node">
<title>Node14</title>
<g id="a_node14"><a xlink:href="namespacebfl_1_1directional__statistics.html#af9984a4df2b3f6f0bc0c264783181123" target="_top" xlink:title=" ">
<polygon fill="white" stroke="black" points="512,-171 512,-201 648,-201 648,-171 512,-171"/>
<text text-anchor="start" x="520" y="-189" font-family="Helvetica,sans-Serif" font-size="10.00">bfl::directional_statistics</text>
<text text-anchor="middle" x="580" y="-178" font-family="Helvetica,sans-Serif" font-size="10.00">::directional_add</text>
</a>
</g>
</g>
<!-- Node13&#45;&gt;Node14 -->
<g id="edge14" class="edge">
<title>Node13&#45;&gt;Node14</title>
<path fill="none" stroke="midnightblue" d="M450.94,-224.96C472.3,-218.46 497.46,-210.81 519.8,-204.01"/>
<polygon fill="midnightblue" stroke="midnightblue" points="520.97,-207.31 529.51,-201.05 518.93,-200.62 520.97,-207.31"/>
</g>
<!-- Node15 -->
<g id="node15" class="node">
<title>Node15</title>
<g id="a_node15"><a xlink:href="namespacebfl_1_1utils.html#ab1ca09c6f5d699242615c8dbc89fa2e0" target="_top" xlink:title="Evaluate the colwise sum between a unit quaternion &#160;and a set of rotation vectors &#160;in the tangent spa...">
<polygon fill="white" stroke="black" points="510,-220 510,-250 650,-250 650,-220 510,-220"/>
<text text-anchor="start" x="518" y="-238" font-family="Helvetica,sans-Serif" font-size="10.00">bfl::utils::sum_quaternion</text>
<text text-anchor="middle" x="580" y="-227" font-family="Helvetica,sans-Serif" font-size="10.00">_rotation_vector</text>
</a>
</g>
</g>
<!-- Node13&#45;&gt;Node15 -->
<g id="edge16" class="edge">
<title>Node13&#45;&gt;Node15</title>
<path fill="none" stroke="midnightblue" d="M466.08,-238.18C477.01,-237.87 488.47,-237.55 499.72,-237.23"/>
<polygon fill="midnightblue" stroke="midnightblue" points="500.08,-240.72 509.98,-236.94 499.88,-233.73 500.08,-240.72"/>
</g>
<!-- Node16 -->
<g id="node16" class="node">
<title>Node16</title>
<g id="a_node16"><a xlink:href="namespacebfl_1_1utils.html#af901548c98d811c2b176e1d9b02aabb3" target="_top" xlink:title="Convert a matrix of rotation vectors &#160;in the tangent space at the identity to their unitary quaternio...">
<polygon fill="white" stroke="black" points="686,-220 686,-250 811,-250 811,-220 686,-220"/>
<text text-anchor="start" x="694" y="-238" font-family="Helvetica,sans-Serif" font-size="10.00">bfl::utils::rotation</text>
<text text-anchor="middle" x="748.5" y="-227" font-family="Helvetica,sans-Serif" font-size="10.00">_vector_to_quaternion</text>
</a>
</g>
</g>
<!-- Node15&#45;&gt;Node16 -->
<g id="edge17" class="edge">
<title>Node15&#45;&gt;Node16</title>
<path fill="none" stroke="midnightblue" d="M650.16,-235C658.61,-235 667.26,-235 675.75,-235"/>
<polygon fill="midnightblue" stroke="midnightblue" points="675.99,-238.5 685.99,-235 675.99,-231.5 675.99,-238.5"/>
</g>
</g>
</svg>
