<?xml version="1.0" encoding="UTF-8" standalone="no"?>
<!DOCTYPE svg PUBLIC "-//W3C//DTD SVG 1.1//EN"
 "http://www.w3.org/Graphics/SVG/1.1/DTD/svg11.dtd">
<!-- Generated by graphviz version 2.43.0 (0)
 -->
<!-- Title: bfl::ResamplingWithPrior::resample Pages: 1 -->
<svg width="478pt" height="223pt"
 viewBox="0.00 0.00 478.00 222.50" xmlns="http://www.w3.org/2000/svg" xmlns:xlink="http://www.w3.org/1999/xlink">
<g id="graph0" class="graph" transform="scale(1 1) rotate(0) translate(4 218.5)">
<title>bfl::ResamplingWithPrior::resample</title>
<polygon fill="white" stroke="transparent" points="-4,4 -4,-218.5 474,-218.5 474,4 -4,4"/>
<!-- Node1 -->
<g id="node1" class="node">
<title>Node1</title>
<g id="a_node1"><a xlink:title=" ">
<polygon fill="#bfbfbf" stroke="black" points="0,-90 0,-120 137,-120 137,-90 0,-90"/>
<text text-anchor="start" x="8" y="-108" font-family="Helvetica,sans-Serif" font-size="10.00">bfl::ResamplingWithPrior</text>
<text text-anchor="middle" x="68.5" y="-97" font-family="Helvetica,sans-Serif" font-size="10.00">::resample</text>
</a>
</g>
</g>
<!-- Node2 -->
<g id="node2" class="node">
<title>Node2</title>
<g id="a_node2"><a xlink:href="classbfl_1_1GaussianMixture.html#a63afff5b5e09399a51ac4dbe50de568b" target="_top" xlink:title=" ">
<polygon fill="white" stroke="black" points="353,-184 353,-214 470,-214 470,-184 353,-184"/>
<text text-anchor="start" x="361" y="-202" font-family="Helvetica,sans-Serif" font-size="10.00">bfl::GaussianMixture</text>
<text text-anchor="middle" x="411.5" y="-191" font-family="Helvetica,sans-Serif" font-size="10.00">::covariance</text>
</a>
</g>
</g>
<!-- Node1&#45;&gt;Node2 -->
<g id="edge1" class="edge">
<title>Node1&#45;&gt;Node2</title>
<path fill="none" stroke="midnightblue" d="M91.46,-120.08C111.72,-133.24 143.1,-151.79 173,-162 228.3,-180.88 294.17,-190.18 342.5,-194.72"/>
<polygon fill="midnightblue" stroke="midnightblue" points="342.26,-198.22 352.53,-195.62 342.89,-191.24 342.26,-198.22"/>
</g>
<!-- Node3 -->
<g id="node3" class="node">
<title>Node3</title>
<g id="a_node3"><a xlink:href="namespacebfl_1_1utils.html#a6ca41188b9a6ef3d0d5d5c62df6ed318" target="_top" xlink:title="Return the element&#45;wise logarithm of the sum of exponentials of the input data.">
<polygon fill="white" stroke="black" points="182,-0.5 182,-19.5 308,-19.5 308,-0.5 182,-0.5"/>
<text text-anchor="middle" x="245" y="-7.5" font-family="Helvetica,sans-Serif" font-size="10.00">bfl::utils::log_sum_exp</text>
</a>
</g>
</g>
<!-- Node1&#45;&gt;Node3 -->
<g id="edge2" class="edge">
<title>Node1&#45;&gt;Node3</title>
<path fill="none" stroke="midnightblue" d="M87.98,-89.99C107.96,-74.32 141.23,-49.88 173,-34 181.46,-29.77 190.84,-26.01 199.94,-22.79"/>
<polygon fill="midnightblue" stroke="midnightblue" points="201.29,-26.03 209.64,-19.51 199.05,-19.39 201.29,-26.03"/>
</g>
<!-- Node4 -->
<g id="node4" class="node">
<title>Node4</title>
<g id="a_node4"><a xlink:href="classbfl_1_1GaussianMixture.html#a7b33a3796b65b8a8b44f9569f226b4cf" target="_top" xlink:title=" ">
<polygon fill="white" stroke="black" points="353,-134 353,-164 470,-164 470,-134 353,-134"/>
<text text-anchor="start" x="361" y="-152" font-family="Helvetica,sans-Serif" font-size="10.00">bfl::GaussianMixture</text>
<text text-anchor="middle" x="411.5" y="-141" font-family="Helvetica,sans-Serif" font-size="10.00">::mean</text>
</a>
</g>
</g>
<!-- Node1&#45;&gt;Node4 -->
<g id="edge3" class="edge">
<title>Node1&#45;&gt;Node4</title>
<path fill="none" stroke="midnightblue" d="M102.27,-120.16C122.25,-128.61 148.56,-138.34 173,-143 229.43,-153.77 294.76,-154.6 342.6,-153.11"/>
<polygon fill="midnightblue" stroke="midnightblue" points="342.97,-156.6 352.84,-152.75 342.72,-149.6 342.97,-156.6"/>
</g>
<!-- Node5 -->
<g id="node5" class="node">
<title>Node5</title>
<g id="a_node5"><a xlink:href="classbfl_1_1Resampling.html#a7527025ad8afc6dbae2225213571391c" target="_top" xlink:title=" ">
<polygon fill="white" stroke="black" points="173,-114.5 173,-133.5 317,-133.5 317,-114.5 173,-114.5"/>
<text text-anchor="middle" x="245" y="-121.5" font-family="Helvetica,sans-Serif" font-size="10.00">bfl::Resampling::resample</text>
</a>
</g>
</g>
<!-- Node1&#45;&gt;Node5 -->
<g id="edge4" class="edge">
<title>Node1&#45;&gt;Node5</title>
<path fill="none" stroke="midnightblue" d="M137.47,-112.4C145.7,-113.3 154.17,-114.22 162.57,-115.13"/>
<polygon fill="midnightblue" stroke="midnightblue" points="162.44,-118.64 172.76,-116.24 163.2,-111.68 162.44,-118.64"/>
</g>
<!-- Node6 -->
<g id="node6" class="node">
<title>Node6</title>
<g id="a_node6"><a xlink:href="classbfl_1_1ParticleSet.html#a1e169ba2f78bb9c158ea7728223c3664" target="_top" xlink:title=" ">
<polygon fill="white" stroke="black" points="353,-93.5 353,-112.5 470,-112.5 470,-93.5 353,-93.5"/>
<text text-anchor="middle" x="411.5" y="-100.5" font-family="Helvetica,sans-Serif" font-size="10.00">bfl::ParticleSet::state</text>
</a>
</g>
</g>
<!-- Node1&#45;&gt;Node6 -->
<g id="edge9" class="edge">
<title>Node1&#45;&gt;Node6</title>
<path fill="none" stroke="midnightblue" d="M137.28,-104.6C196.86,-104.25 283.12,-103.75 342.71,-103.4"/>
<polygon fill="midnightblue" stroke="midnightblue" points="342.79,-106.9 352.77,-103.34 342.75,-99.9 342.79,-106.9"/>
</g>
<!-- Node7 -->
<g id="node7" class="node">
<title>Node7</title>
<g id="a_node7"><a xlink:href="classbfl_1_1GaussianMixture.html#a82c919e4e81aecb4f0665dcdd20914b1" target="_top" xlink:title=" ">
<polygon fill="white" stroke="black" points="353,-40 353,-70 470,-70 470,-40 353,-40"/>
<text text-anchor="start" x="361" y="-58" font-family="Helvetica,sans-Serif" font-size="10.00">bfl::GaussianMixture</text>
<text text-anchor="middle" x="411.5" y="-47" font-family="Helvetica,sans-Serif" font-size="10.00">::weight</text>
</a>
</g>
</g>
<!-- Node1&#45;&gt;Node7 -->
<g id="edge10" class="edge">
<title>Node1&#45;&gt;Node7</title>
<path fill="none" stroke="midnightblue" d="M137.28,-95.06C196.86,-86.33 283.12,-73.68 342.71,-64.94"/>
<polygon fill="midnightblue" stroke="midnightblue" points="343.38,-68.38 352.77,-63.46 342.37,-61.45 343.38,-68.38"/>
</g>
<!-- Node5&#45;&gt;Node2 -->
<g id="edge5" class="edge">
<title>Node5&#45;&gt;Node2</title>
<path fill="none" stroke="midnightblue" d="M266.04,-133.56C287.48,-143.75 322.53,-160.26 353,-174 357.3,-175.94 361.79,-177.94 366.29,-179.92"/>
<polygon fill="midnightblue" stroke="midnightblue" points="364.9,-183.13 375.47,-183.95 367.71,-176.72 364.9,-183.13"/>
</g>
<!-- Node5&#45;&gt;Node4 -->
<g id="edge6" class="edge">
<title>Node5&#45;&gt;Node4</title>
<path fill="none" stroke="midnightblue" d="M308.66,-133.52C319.78,-135.21 331.41,-136.98 342.67,-138.69"/>
<polygon fill="midnightblue" stroke="midnightblue" points="342.47,-142.2 352.88,-140.24 343.52,-135.28 342.47,-142.2"/>
</g>
<!-- Node5&#45;&gt;Node6 -->
<g id="edge7" class="edge">
<title>Node5&#45;&gt;Node6</title>
<path fill="none" stroke="midnightblue" d="M317.2,-114.91C325.65,-113.83 334.27,-112.73 342.68,-111.66"/>
<polygon fill="midnightblue" stroke="midnightblue" points="343.33,-115.1 352.81,-110.37 342.44,-108.16 343.33,-115.1"/>
</g>
<!-- Node5&#45;&gt;Node7 -->
<g id="edge8" class="edge">
<title>Node5&#45;&gt;Node7</title>
<path fill="none" stroke="midnightblue" d="M268.87,-114.41C293.67,-104 333.9,-87.13 365.15,-74.02"/>
<polygon fill="midnightblue" stroke="midnightblue" points="366.67,-77.18 374.54,-70.08 363.96,-70.72 366.67,-77.18"/>
</g>
</g>
</svg>
