<?xml version="1.0" encoding="UTF-8" standalone="no"?>
<!DOCTYPE svg PUBLIC "-//W3C//DTD SVG 1.1//EN"
 "http://www.w3.org/Graphics/SVG/1.1/DTD/svg11.dtd">
<!-- Generated by graphviz version 2.47.2 (0)
 -->
<!-- Title: bfl::any::any::operator= Pages: 1 -->
<svg width="376pt" height="66pt"
 viewBox="0.00 0.00 376.00 66.00" xmlns="http://www.w3.org/2000/svg" xmlns:xlink="http://www.w3.org/1999/xlink">
<g id="graph0" class="graph" transform="scale(1 1) rotate(0) translate(4 62)">
<title>bfl::any::any::operator=</title>
<polygon fill="white" stroke="transparent" points="-4,4 -4,-62 372,-62 372,4 -4,4"/>
<!-- Node1 -->
<g id="node1" class="node">
<title>Node1</title>
<g id="a_node1"><a xlink:title="Assigns contents to the contained value.">
<polygon fill="#bfbfbf" stroke="black" points="0,-19.5 0,-38.5 118,-38.5 118,-19.5 0,-19.5"/>
<text text-anchor="middle" x="59" y="-26.5" font-family="Helvetica,sans-Serif" font-size="10.00">bfl::any::any::operator=</text>
</a>
</g>
</g>
<!-- Node2 -->
<g id="node2" class="node">
<title>Node2</title>
<g id="a_node2"><a xlink:href="classbfl_1_1any_1_1any.html#a55b5d940fdb6f1e7215332b7d97c6365" target="_top" xlink:title="Constructs an empty object.">
<polygon fill="white" stroke="black" points="158,-38.5 158,-57.5 250,-57.5 250,-38.5 158,-38.5"/>
<text text-anchor="middle" x="204" y="-45.5" font-family="Helvetica,sans-Serif" font-size="10.00">bfl::any::any::any</text>
</a>
</g>
</g>
<!-- Node1&#45;&gt;Node2 -->
<g id="edge1" class="edge">
<title>Node1&#45;&gt;Node2</title>
<path fill="none" stroke="midnightblue" d="M118.16,-36.73C127.82,-38.01 137.81,-39.34 147.4,-40.61"/>
<polygon fill="midnightblue" stroke="midnightblue" points="147.23,-44.12 157.61,-41.97 148.15,-37.18 147.23,-44.12"/>
</g>
<!-- Node3 -->
<g id="node3" class="node">
<title>Node3</title>
<g id="a_node3"><a xlink:href="classbfl_1_1any_1_1any.html#a0441e5816aa5ef4721f134868b7ca402" target="_top" xlink:title="Swaps the content of two any objects.">
<polygon fill="white" stroke="black" points="154,-0.5 154,-19.5 254,-19.5 254,-0.5 154,-0.5"/>
<text text-anchor="middle" x="204" y="-7.5" font-family="Helvetica,sans-Serif" font-size="10.00">bfl::any::any::swap</text>
</a>
</g>
</g>
<!-- Node1&#45;&gt;Node3 -->
<g id="edge2" class="edge">
<title>Node1&#45;&gt;Node3</title>
<path fill="none" stroke="midnightblue" d="M118.16,-21.27C126.52,-20.16 135.13,-19.02 143.51,-17.9"/>
<polygon fill="midnightblue" stroke="midnightblue" points="144.14,-21.35 153.59,-16.57 143.21,-14.41 144.14,-21.35"/>
</g>
<!-- Node4 -->
<g id="node4" class="node">
<title>Node4</title>
<g id="a_node4"><a xlink:href="namespacebfl_1_1any.html#adb1328ea975e3bf9c0addc1689215bad" target="_top" xlink:title="Overloads the std::swap algorithm for std::any.">
<polygon fill="white" stroke="black" points="290,-0.5 290,-19.5 368,-19.5 368,-0.5 290,-0.5"/>
<text text-anchor="middle" x="329" y="-7.5" font-family="Helvetica,sans-Serif" font-size="10.00">bfl::any::swap</text>
</a>
</g>
</g>
<!-- Node3&#45;&gt;Node4 -->
<g id="edge3" class="edge">
<title>Node3&#45;&gt;Node4</title>
<path fill="none" stroke="midnightblue" d="M254.32,-3.37C262.59,-3.21 271.17,-3.21 279.42,-3.38"/>
<polygon fill="midnightblue" stroke="midnightblue" points="279.55,-6.89 289.65,-3.69 279.76,0.11 279.55,-6.89"/>
</g>
<!-- Node4&#45;&gt;Node3 -->
<g id="edge4" class="edge">
<title>Node4&#45;&gt;Node3</title>
<path fill="none" stroke="midnightblue" d="M289.65,-16.31C281.61,-16.63 272.95,-16.78 264.35,-16.75"/>
<polygon fill="midnightblue" stroke="midnightblue" points="264.36,-13.25 254.32,-16.63 264.28,-20.25 264.36,-13.25"/>
</g>
</g>
</svg>
