<?xml version="1.0" encoding="UTF-8" standalone="no"?>
<!DOCTYPE svg PUBLIC "-//W3C//DTD SVG 1.1//EN"
 "http://www.w3.org/Graphics/SVG/1.1/DTD/svg11.dtd">
<!-- Generated by graphviz version 2.43.0 (0)
 -->
<!-- Title: bfl::PFPrediction Pages: 1 -->
<svg width="230pt" height="84pt"
 viewBox="0.00 0.00 230.00 84.00" xmlns="http://www.w3.org/2000/svg" xmlns:xlink="http://www.w3.org/1999/xlink">
<g id="graph0" class="graph" transform="scale(1 1) rotate(0) translate(4 80)">
<title>bfl::PFPrediction</title>
<polygon fill="white" stroke="transparent" points="-4,4 -4,-80 226,-80 226,4 -4,4"/>
<!-- Node1 -->
<g id="node1" class="node">
<title>Node1</title>
<g id="a_node1"><a xlink:title=" ">
<polygon fill="#bfbfbf" stroke="black" points="63,-56.5 63,-75.5 158,-75.5 158,-56.5 63,-56.5"/>
<text text-anchor="middle" x="110.5" y="-63.5" font-family="Helvetica,sans-Serif" font-size="10.00">bfl::PFPrediction</text>
</a>
</g>
</g>
<!-- Node2 -->
<g id="node2" class="node">
<title>Node2</title>
<g id="a_node2"><a xlink:href="classbfl_1_1DrawParticles.html" target="_top" xlink:title=" ">
<polygon fill="white" stroke="black" points="0,-0.5 0,-19.5 101,-19.5 101,-0.5 0,-0.5"/>
<text text-anchor="middle" x="50.5" y="-7.5" font-family="Helvetica,sans-Serif" font-size="10.00">bfl::DrawParticles</text>
</a>
</g>
</g>
<!-- Node1&#45;&gt;Node2 -->
<g id="edge1" class="edge">
<title>Node1&#45;&gt;Node2</title>
<path fill="none" stroke="midnightblue" d="M93.32,-49.54C82.62,-39.91 69.24,-27.87 60.32,-19.83"/>
<polygon fill="midnightblue" stroke="midnightblue" points="91.09,-52.24 100.86,-56.32 95.77,-47.03 91.09,-52.24"/>
</g>
<!-- Node3 -->
<g id="node3" class="node">
<title>Node3</title>
<g id="a_node3"><a xlink:href="classbfl_1_1GPFPrediction.html" target="_top" xlink:title=" ">
<polygon fill="white" stroke="black" points="119,-0.5 119,-19.5 222,-19.5 222,-0.5 119,-0.5"/>
<text text-anchor="middle" x="170.5" y="-7.5" font-family="Helvetica,sans-Serif" font-size="10.00">bfl::GPFPrediction</text>
</a>
</g>
</g>
<!-- Node1&#45;&gt;Node3 -->
<g id="edge2" class="edge">
<title>Node1&#45;&gt;Node3</title>
<path fill="none" stroke="midnightblue" d="M127.68,-49.54C138.38,-39.91 151.76,-27.87 160.68,-19.83"/>
<polygon fill="midnightblue" stroke="midnightblue" points="125.23,-47.03 120.14,-56.32 129.91,-52.24 125.23,-47.03"/>
</g>
</g>
</svg>
