<?xml version="1.0" encoding="UTF-8" standalone="no"?>
<!DOCTYPE svg PUBLIC "-//W3C//DTD SVG 1.1//EN"
 "http://www.w3.org/Graphics/SVG/1.1/DTD/svg11.dtd">
<!-- Generated by graphviz version 2.47.2 (0)
 -->
<!-- Title: bfl::KFCorrection::getLikelihood Pages: 1 -->
<svg width="400pt" height="39pt"
 viewBox="0.00 0.00 400.00 39.00" xmlns="http://www.w3.org/2000/svg" xmlns:xlink="http://www.w3.org/1999/xlink">
<g id="graph0" class="graph" transform="scale(1 1) rotate(0) translate(4 35)">
<title>bfl::KFCorrection::getLikelihood</title>
<polygon fill="white" stroke="transparent" points="-4,4 -4,-35 396,-35 396,4 -4,4"/>
<!-- Node1 -->
<g id="node1" class="node">
<title>Node1</title>
<g id="a_node1"><a xlink:title=" ">
<polygon fill="#bfbfbf" stroke="black" points="0,-0.5 0,-30.5 97,-30.5 97,-0.5 0,-0.5"/>
<text text-anchor="start" x="8" y="-18.5" font-family="Helvetica,sans-Serif" font-size="10.00">bfl::KFCorrection::</text>
<text text-anchor="middle" x="48.5" y="-7.5" font-family="Helvetica,sans-Serif" font-size="10.00">getLikelihood</text>
</a>
</g>
</g>
<!-- Node2 -->
<g id="node2" class="node">
<title>Node2</title>
<g id="a_node2"><a xlink:href="namespacebfl_1_1utils.html#a21587a9586a3bf80af3346a0df1b876a" target="_top" xlink:title="Evaluate a multivariate Gaussian probability density function.">
<polygon fill="white" stroke="black" points="133,-0.5 133,-30.5 240,-30.5 240,-0.5 133,-0.5"/>
<text text-anchor="start" x="141" y="-18.5" font-family="Helvetica,sans-Serif" font-size="10.00">bfl::utils::multivariate</text>
<text text-anchor="middle" x="186.5" y="-7.5" font-family="Helvetica,sans-Serif" font-size="10.00">_gaussian_density</text>
</a>
</g>
</g>
<!-- Node1&#45;&gt;Node2 -->
<g id="edge1" class="edge">
<title>Node1&#45;&gt;Node2</title>
<path fill="none" stroke="midnightblue" d="M97.07,-15.5C105.32,-15.5 114.03,-15.5 122.62,-15.5"/>
<polygon fill="midnightblue" stroke="midnightblue" points="122.62,-19 132.62,-15.5 122.62,-12 122.62,-19"/>
</g>
<!-- Node3 -->
<g id="node3" class="node">
<title>Node3</title>
<g id="a_node3"><a xlink:href="namespacebfl_1_1utils.html#af89fbb3248597e49b8fcdf38363b3dcd" target="_top" xlink:title="Evaluate the logarithm of a multivariate Gaussian probability density function.">
<polygon fill="white" stroke="black" points="276,-0.5 276,-30.5 392,-30.5 392,-0.5 276,-0.5"/>
<text text-anchor="start" x="284" y="-18.5" font-family="Helvetica,sans-Serif" font-size="10.00">bfl::utils::multivariate</text>
<text text-anchor="middle" x="334" y="-7.5" font-family="Helvetica,sans-Serif" font-size="10.00">_gaussian_log_density</text>
</a>
</g>
</g>
<!-- Node2&#45;&gt;Node3 -->
<g id="edge2" class="edge">
<title>Node2&#45;&gt;Node3</title>
<path fill="none" stroke="midnightblue" d="M240.03,-15.5C248.34,-15.5 257.03,-15.5 265.62,-15.5"/>
<polygon fill="midnightblue" stroke="midnightblue" points="265.63,-19 275.63,-15.5 265.63,-12 265.63,-19"/>
</g>
</g>
</svg>
