<?xml version="1.0" encoding="UTF-8" standalone="no"?>
<!DOCTYPE svg PUBLIC "-//W3C//DTD SVG 1.1//EN"
 "http://www.w3.org/Graphics/SVG/1.1/DTD/svg11.dtd">
<!-- Generated by graphviz version 2.43.0 (0)
 -->
<!-- Title: bfl::GPFCorrection::correctStep Pages: 1 -->
<svg width="265pt" height="176pt"
 viewBox="0.00 0.00 265.00 176.00" xmlns="http://www.w3.org/2000/svg" xmlns:xlink="http://www.w3.org/1999/xlink">
<g id="graph0" class="graph" transform="scale(1 1) rotate(0) translate(4 172)">
<title>bfl::GPFCorrection::correctStep</title>
<polygon fill="white" stroke="transparent" points="-4,4 -4,-172 261,-172 261,4 -4,4"/>
<!-- Node1 -->
<g id="node1" class="node">
<title>Node1</title>
<g id="a_node1"><a xlink:title=" ">
<polygon fill="#bfbfbf" stroke="black" points="0,-66.5 0,-96.5 104,-96.5 104,-66.5 0,-66.5"/>
<text text-anchor="start" x="8" y="-84.5" font-family="Helvetica,sans-Serif" font-size="10.00">bfl::GPFCorrection</text>
<text text-anchor="middle" x="52" y="-73.5" font-family="Helvetica,sans-Serif" font-size="10.00">::correctStep</text>
</a>
</g>
</g>
<!-- Node2 -->
<g id="node2" class="node">
<title>Node2</title>
<g id="a_node2"><a xlink:href="classbfl_1_1GaussianMixture.html#a63afff5b5e09399a51ac4dbe50de568b" target="_top" xlink:title=" ">
<polygon fill="white" stroke="black" points="140,-137.5 140,-167.5 257,-167.5 257,-137.5 140,-137.5"/>
<text text-anchor="start" x="148" y="-155.5" font-family="Helvetica,sans-Serif" font-size="10.00">bfl::GaussianMixture</text>
<text text-anchor="middle" x="198.5" y="-144.5" font-family="Helvetica,sans-Serif" font-size="10.00">::covariance</text>
</a>
</g>
</g>
<!-- Node1&#45;&gt;Node2 -->
<g id="edge1" class="edge">
<title>Node1&#45;&gt;Node2</title>
<path fill="none" stroke="midnightblue" d="M79.3,-96.6C96.38,-106.18 119.24,-118.59 140,-128.5 143.37,-130.11 146.88,-131.72 150.43,-133.31"/>
<polygon fill="midnightblue" stroke="midnightblue" points="149.27,-136.62 159.83,-137.41 152.07,-130.2 149.27,-136.62"/>
</g>
<!-- Node3 -->
<g id="node3" class="node">
<title>Node3</title>
<g id="a_node3"><a xlink:href="classbfl_1_1GaussianMixture.html#a7b33a3796b65b8a8b44f9569f226b4cf" target="_top" xlink:title=" ">
<polygon fill="white" stroke="black" points="140,-88.5 140,-118.5 257,-118.5 257,-88.5 140,-88.5"/>
<text text-anchor="start" x="148" y="-106.5" font-family="Helvetica,sans-Serif" font-size="10.00">bfl::GaussianMixture</text>
<text text-anchor="middle" x="198.5" y="-95.5" font-family="Helvetica,sans-Serif" font-size="10.00">::mean</text>
</a>
</g>
</g>
<!-- Node1&#45;&gt;Node3 -->
<g id="edge2" class="edge">
<title>Node1&#45;&gt;Node3</title>
<path fill="none" stroke="midnightblue" d="M104.35,-89.32C112.63,-90.58 121.31,-91.9 129.9,-93.21"/>
<polygon fill="midnightblue" stroke="midnightblue" points="129.51,-96.69 139.92,-94.73 130.56,-89.77 129.51,-96.69"/>
</g>
<!-- Node4 -->
<g id="node4" class="node">
<title>Node4</title>
<g id="a_node4"><a xlink:href="classbfl_1_1ParticleSet.html#a1e169ba2f78bb9c158ea7728223c3664" target="_top" xlink:title=" ">
<polygon fill="white" stroke="black" points="140,-50 140,-69 257,-69 257,-50 140,-50"/>
<text text-anchor="middle" x="198.5" y="-57" font-family="Helvetica,sans-Serif" font-size="10.00">bfl::ParticleSet::state</text>
</a>
</g>
</g>
<!-- Node1&#45;&gt;Node4 -->
<g id="edge3" class="edge">
<title>Node1&#45;&gt;Node4</title>
<path fill="none" stroke="midnightblue" d="M104.35,-73.68C112.63,-72.42 121.31,-71.1 129.9,-69.79"/>
<polygon fill="midnightblue" stroke="midnightblue" points="130.56,-73.23 139.92,-68.27 129.51,-66.31 130.56,-73.23"/>
</g>
<!-- Node5 -->
<g id="node5" class="node">
<title>Node5</title>
<g id="a_node5"><a xlink:href="classbfl_1_1GaussianMixture.html#a82c919e4e81aecb4f0665dcdd20914b1" target="_top" xlink:title=" ">
<polygon fill="white" stroke="black" points="140,-0.5 140,-30.5 257,-30.5 257,-0.5 140,-0.5"/>
<text text-anchor="start" x="148" y="-18.5" font-family="Helvetica,sans-Serif" font-size="10.00">bfl::GaussianMixture</text>
<text text-anchor="middle" x="198.5" y="-7.5" font-family="Helvetica,sans-Serif" font-size="10.00">::weight</text>
</a>
</g>
</g>
<!-- Node1&#45;&gt;Node5 -->
<g id="edge4" class="edge">
<title>Node1&#45;&gt;Node5</title>
<path fill="none" stroke="midnightblue" d="M84.3,-66.47C100.82,-58.61 121.44,-48.9 140,-40.5 144.3,-38.55 148.79,-36.55 153.28,-34.56"/>
<polygon fill="midnightblue" stroke="midnightblue" points="154.71,-37.76 162.46,-30.54 151.89,-31.35 154.71,-37.76"/>
</g>
</g>
</svg>
