<?xml version="1.0" encoding="UTF-8" standalone="no"?>
<!DOCTYPE svg PUBLIC "-//W3C//DTD SVG 1.1//EN"
 "http://www.w3.org/Graphics/SVG/1.1/DTD/svg11.dtd">
<!-- Generated by graphviz version 2.47.2 (0)
 -->
<!-- Title: bfl::Logger Pages: 1 -->
<svg width="1071pt" height="154pt"
 viewBox="0.00 0.00 1071.00 154.00" xmlns="http://www.w3.org/2000/svg" xmlns:xlink="http://www.w3.org/1999/xlink">
<g id="graph0" class="graph" transform="scale(1 1) rotate(0) translate(4 150)">
<title>bfl::Logger</title>
<polygon fill="white" stroke="transparent" points="-4,4 -4,-150 1067,-150 1067,4 -4,4"/>
<!-- Node1 -->
<g id="node1" class="node">
<title>Node1</title>
<g id="a_node1"><a xlink:title=" ">
<polygon fill="#bfbfbf" stroke="black" points="0,-44.5 0,-63.5 62,-63.5 62,-44.5 0,-44.5"/>
<text text-anchor="middle" x="31" y="-51.5" font-family="Helvetica,sans-Serif" font-size="10.00">bfl::Logger</text>
</a>
</g>
</g>
<!-- Node2 -->
<g id="node2" class="node">
<title>Node2</title>
<g id="a_node2"><a xlink:href="classbfl_1_1FilteringAlgorithm.html" target="_top" xlink:title=" ">
<polygon fill="white" stroke="black" points="106.5,-88.5 106.5,-107.5 215.5,-107.5 215.5,-88.5 106.5,-88.5"/>
<text text-anchor="middle" x="161" y="-95.5" font-family="Helvetica,sans-Serif" font-size="10.00">bfl::FilteringAlgorithm</text>
</a>
</g>
</g>
<!-- Node1&#45;&gt;Node2 -->
<g id="edge1" class="edge">
<title>Node1&#45;&gt;Node2</title>
<path fill="none" stroke="midnightblue" d="M69.27,-66.81C89.4,-73.73 113.84,-82.13 132.28,-88.47"/>
<polygon fill="midnightblue" stroke="midnightblue" points="70.37,-63.49 59.77,-63.55 68.09,-70.11 70.37,-63.49"/>
</g>
<!-- Node6 -->
<g id="node6" class="node">
<title>Node6</title>
<g id="a_node6"><a xlink:href="classbfl_1_1MeasurementModel.html" target="_top" xlink:title="This class represent a generic measurement model f(x, w), where x is a state vector and w is random n...">
<polygon fill="white" stroke="black" points="101.5,-44.5 101.5,-63.5 220.5,-63.5 220.5,-44.5 101.5,-44.5"/>
<text text-anchor="middle" x="161" y="-51.5" font-family="Helvetica,sans-Serif" font-size="10.00">bfl::MeasurementModel</text>
</a>
</g>
</g>
<!-- Node1&#45;&gt;Node6 -->
<g id="edge5" class="edge">
<title>Node1&#45;&gt;Node6</title>
<path fill="none" stroke="midnightblue" d="M72.08,-54C81.34,-54 91.38,-54 101.25,-54"/>
<polygon fill="midnightblue" stroke="midnightblue" points="72.01,-50.5 62.01,-54 72.01,-57.5 72.01,-50.5"/>
</g>
<!-- Node13 -->
<g id="node13" class="node">
<title>Node13</title>
<g id="a_node13"><a xlink:href="classbfl_1_1SimulatedStateModel.html" target="_top" xlink:title=" ">
<polygon fill="white" stroke="black" points="98,-6.5 98,-25.5 224,-25.5 224,-6.5 98,-6.5"/>
<text text-anchor="middle" x="161" y="-13.5" font-family="Helvetica,sans-Serif" font-size="10.00">bfl::SimulatedStateModel</text>
</a>
</g>
</g>
<!-- Node1&#45;&gt;Node13 -->
<g id="edge12" class="edge">
<title>Node1&#45;&gt;Node13</title>
<path fill="none" stroke="midnightblue" d="M71.7,-42.22C89.77,-36.85 110.89,-30.58 127.94,-25.52"/>
<polygon fill="midnightblue" stroke="midnightblue" points="70.6,-38.89 62.01,-45.09 72.59,-45.6 70.6,-38.89"/>
</g>
<!-- Node3 -->
<g id="node3" class="node">
<title>Node3</title>
<g id="a_node3"><a xlink:href="classbfl_1_1GaussianFilter.html" target="_top" xlink:title=" ">
<polygon fill="white" stroke="black" points="292.5,-126.5 292.5,-145.5 388.5,-145.5 388.5,-126.5 292.5,-126.5"/>
<text text-anchor="middle" x="340.5" y="-133.5" font-family="Helvetica,sans-Serif" font-size="10.00">bfl::GaussianFilter</text>
</a>
</g>
</g>
<!-- Node2&#45;&gt;Node3 -->
<g id="edge2" class="edge">
<title>Node2&#45;&gt;Node3</title>
<path fill="none" stroke="midnightblue" d="M216.9,-109.75C242,-115.13 271.34,-121.41 295.03,-126.48"/>
<polygon fill="midnightblue" stroke="midnightblue" points="217.3,-106.26 206.79,-107.59 215.84,-113.1 217.3,-106.26"/>
</g>
<!-- Node4 -->
<g id="node4" class="node">
<title>Node4</title>
<g id="a_node4"><a xlink:href="classbfl_1_1ParticleFilter.html" target="_top" xlink:title=" ">
<polygon fill="white" stroke="black" points="296.5,-88.5 296.5,-107.5 384.5,-107.5 384.5,-88.5 296.5,-88.5"/>
<text text-anchor="middle" x="340.5" y="-95.5" font-family="Helvetica,sans-Serif" font-size="10.00">bfl::ParticleFilter</text>
</a>
</g>
</g>
<!-- Node2&#45;&gt;Node4 -->
<g id="edge3" class="edge">
<title>Node2&#45;&gt;Node4</title>
<path fill="none" stroke="midnightblue" d="M225.93,-98C249.32,-98 275.2,-98 296.35,-98"/>
<polygon fill="midnightblue" stroke="midnightblue" points="225.74,-94.5 215.74,-98 225.74,-101.5 225.74,-94.5"/>
</g>
<!-- Node5 -->
<g id="node5" class="node">
<title>Node5</title>
<g id="a_node5"><a xlink:href="classbfl_1_1SIS.html" target="_top" xlink:title=" ">
<polygon fill="white" stroke="black" points="504.5,-88.5 504.5,-107.5 554.5,-107.5 554.5,-88.5 504.5,-88.5"/>
<text text-anchor="middle" x="529.5" y="-95.5" font-family="Helvetica,sans-Serif" font-size="10.00">bfl::SIS</text>
</a>
</g>
</g>
<!-- Node4&#45;&gt;Node5 -->
<g id="edge4" class="edge">
<title>Node4&#45;&gt;Node5</title>
<path fill="none" stroke="midnightblue" d="M395.21,-98C431.17,-98 476.78,-98 504.24,-98"/>
<polygon fill="midnightblue" stroke="midnightblue" points="394.87,-94.5 384.87,-98 394.87,-101.5 394.87,-94.5"/>
</g>
<!-- Node7 -->
<g id="node7" class="node">
<title>Node7</title>
<g id="a_node7"><a xlink:href="classbfl_1_1AdditiveMeasurementModel.html" target="_top" xlink:title="This class represent an additive measurement model f(x) + w, where x is a state vector and w is rando...">
<polygon fill="white" stroke="black" points="276.5,-39 276.5,-69 404.5,-69 404.5,-39 276.5,-39"/>
<text text-anchor="start" x="284.5" y="-57" font-family="Helvetica,sans-Serif" font-size="10.00">bfl::AdditiveMeasurement</text>
<text text-anchor="middle" x="340.5" y="-46" font-family="Helvetica,sans-Serif" font-size="10.00">Model</text>
</a>
</g>
</g>
<!-- Node6&#45;&gt;Node7 -->
<g id="edge6" class="edge">
<title>Node6&#45;&gt;Node7</title>
<path fill="none" stroke="midnightblue" d="M230.84,-54C245.83,-54 261.61,-54 276.37,-54"/>
<polygon fill="midnightblue" stroke="midnightblue" points="230.61,-50.5 220.61,-54 230.61,-57.5 230.61,-50.5"/>
</g>
<!-- Node12 -->
<g id="node12" class="node">
<title>Node12</title>
<g id="a_node12"><a xlink:href="classbfl_1_1MeasurementModelDecorator.html" target="_top" xlink:title=" ">
<polygon fill="white" stroke="black" points="260,-0.5 260,-19.5 421,-19.5 421,-0.5 260,-0.5"/>
<text text-anchor="middle" x="340.5" y="-7.5" font-family="Helvetica,sans-Serif" font-size="10.00">bfl::MeasurementModelDecorator</text>
</a>
</g>
</g>
<!-- Node6&#45;&gt;Node12 -->
<g id="edge11" class="edge">
<title>Node6&#45;&gt;Node12</title>
<path fill="none" stroke="midnightblue" d="M210.28,-42.03C238.81,-34.96 274.44,-26.13 301.06,-19.53"/>
<polygon fill="midnightblue" stroke="midnightblue" points="209.38,-38.65 200.51,-44.45 211.06,-45.44 209.38,-38.65"/>
</g>
<!-- Node8 -->
<g id="node8" class="node">
<title>Node8</title>
<g id="a_node8"><a xlink:href="classbfl_1_1LinearMeasurementModel.html" target="_top" xlink:title="This class represent an linear measurement model Hx + w, where H is a time&#45;variant measurement matrix...">
<polygon fill="white" stroke="black" points="457,-44.5 457,-63.5 602,-63.5 602,-44.5 457,-44.5"/>
<text text-anchor="middle" x="529.5" y="-51.5" font-family="Helvetica,sans-Serif" font-size="10.00">bfl::LinearMeasurementModel</text>
</a>
</g>
</g>
<!-- Node7&#45;&gt;Node8 -->
<g id="edge7" class="edge">
<title>Node7&#45;&gt;Node8</title>
<path fill="none" stroke="midnightblue" d="M414.92,-54C428.66,-54 443.01,-54 456.7,-54"/>
<polygon fill="midnightblue" stroke="midnightblue" points="414.55,-50.5 404.55,-54 414.55,-57.5 414.55,-50.5"/>
</g>
<!-- Node9 -->
<g id="node9" class="node">
<title>Node9</title>
<g id="a_node9"><a xlink:href="classbfl_1_1LTIMeasurementModel.html" target="_top" xlink:title="This class represent an linear measurement model Hx + w, where H is a time&#45;invariant measurement matr...">
<polygon fill="white" stroke="black" points="638,-44.5 638,-63.5 771,-63.5 771,-44.5 638,-44.5"/>
<text text-anchor="middle" x="704.5" y="-51.5" font-family="Helvetica,sans-Serif" font-size="10.00">bfl::LTIMeasurementModel</text>
</a>
</g>
</g>
<!-- Node8&#45;&gt;Node9 -->
<g id="edge8" class="edge">
<title>Node8&#45;&gt;Node9</title>
<path fill="none" stroke="midnightblue" d="M612.15,-54C620.73,-54 629.38,-54 637.76,-54"/>
<polygon fill="midnightblue" stroke="midnightblue" points="612.11,-50.5 602.11,-54 612.11,-57.5 612.11,-50.5"/>
</g>
<!-- Node10 -->
<g id="node10" class="node">
<title>Node10</title>
<g id="a_node10"><a xlink:href="classbfl_1_1LinearModel.html" target="_top" xlink:title=" ">
<polygon fill="white" stroke="black" points="807,-44.5 807,-63.5 893,-63.5 893,-44.5 807,-44.5"/>
<text text-anchor="middle" x="850" y="-51.5" font-family="Helvetica,sans-Serif" font-size="10.00">bfl::LinearModel</text>
</a>
</g>
</g>
<!-- Node9&#45;&gt;Node10 -->
<g id="edge9" class="edge">
<title>Node9&#45;&gt;Node10</title>
<path fill="none" stroke="midnightblue" d="M781.59,-54C790.28,-54 798.9,-54 806.91,-54"/>
<polygon fill="midnightblue" stroke="midnightblue" points="781.37,-50.5 771.37,-54 781.37,-57.5 781.37,-50.5"/>
</g>
<!-- Node11 -->
<g id="node11" class="node">
<title>Node11</title>
<g id="a_node11"><a xlink:href="classbfl_1_1SimulatedLinearSensor.html" target="_top" xlink:title=" ">
<polygon fill="white" stroke="black" points="929,-44.5 929,-63.5 1063,-63.5 1063,-44.5 929,-44.5"/>
<text text-anchor="middle" x="996" y="-51.5" font-family="Helvetica,sans-Serif" font-size="10.00">bfl::SimulatedLinearSensor</text>
</a>
</g>
</g>
<!-- Node10&#45;&gt;Node11 -->
<g id="edge10" class="edge">
<title>Node10&#45;&gt;Node11</title>
<path fill="none" stroke="midnightblue" d="M903.29,-54C911.58,-54 920.24,-54 928.79,-54"/>
<polygon fill="midnightblue" stroke="midnightblue" points="903.04,-50.5 893.04,-54 903.04,-57.5 903.04,-50.5"/>
</g>
</g>
</svg>
