<?xml version="1.0" encoding="UTF-8" standalone="no"?>
<!DOCTYPE svg PUBLIC "-//W3C//DTD SVG 1.1//EN"
 "http://www.w3.org/Graphics/SVG/1.1/DTD/svg11.dtd">
<!-- Generated by graphviz version 2.47.2 (0)
 -->
<!-- Title: bfl::Skipper Pages: 1 -->
<svg width="846pt" height="199pt"
 viewBox="0.00 0.00 846.00 199.00" xmlns="http://www.w3.org/2000/svg" xmlns:xlink="http://www.w3.org/1999/xlink">
<g id="graph0" class="graph" transform="scale(1 1) rotate(0) translate(4 195)">
<title>bfl::Skipper</title>
<polygon fill="white" stroke="transparent" points="-4,4 -4,-195 842,-195 842,4 -4,4"/>
<!-- Node1 -->
<g id="node1" class="node">
<title>Node1</title>
<g id="a_node1"><a xlink:title=" ">
<polygon fill="#bfbfbf" stroke="black" points="0,-95.5 0,-114.5 66,-114.5 66,-95.5 0,-95.5"/>
<text text-anchor="middle" x="33" y="-102.5" font-family="Helvetica,sans-Serif" font-size="10.00">bfl::Skipper</text>
</a>
</g>
</g>
<!-- Node2 -->
<g id="node2" class="node">
<title>Node2</title>
<g id="a_node2"><a xlink:href="classbfl_1_1FilteringAlgorithm.html" target="_top" xlink:title=" ">
<polygon fill="white" stroke="black" points="102,-133.5 102,-152.5 211,-152.5 211,-133.5 102,-133.5"/>
<text text-anchor="middle" x="156.5" y="-140.5" font-family="Helvetica,sans-Serif" font-size="10.00">bfl::FilteringAlgorithm</text>
</a>
</g>
</g>
<!-- Node1&#45;&gt;Node2 -->
<g id="edge1" class="edge">
<title>Node1&#45;&gt;Node2</title>
<path fill="none" stroke="midnightblue" d="M74.54,-117.68C90.96,-122.81 109.6,-128.64 124.85,-133.41"/>
<polygon fill="midnightblue" stroke="midnightblue" points="75.25,-114.23 64.66,-114.59 73.16,-120.91 75.25,-114.23"/>
</g>
<!-- Node6 -->
<g id="node6" class="node">
<title>Node6</title>
<g id="a_node6"><a xlink:href="classbfl_1_1Skippable.html" target="_top" xlink:title=" ">
<polygon fill="white" stroke="black" points="118.5,-76.5 118.5,-95.5 194.5,-95.5 194.5,-76.5 118.5,-76.5"/>
<text text-anchor="middle" x="156.5" y="-83.5" font-family="Helvetica,sans-Serif" font-size="10.00">bfl::Skippable</text>
</a>
</g>
</g>
<!-- Node1&#45;&gt;Node6 -->
<g id="edge5" class="edge">
<title>Node1&#45;&gt;Node6</title>
<path fill="none" stroke="midnightblue" d="M76.38,-98.37C90.06,-96.23 105.11,-93.88 118.37,-91.81"/>
<polygon fill="midnightblue" stroke="midnightblue" points="75.58,-94.96 66.24,-99.96 76.66,-101.87 75.58,-94.96"/>
</g>
<!-- Node3 -->
<g id="node3" class="node">
<title>Node3</title>
<g id="a_node3"><a xlink:href="classbfl_1_1GaussianFilter.html" target="_top" xlink:title=" ">
<polygon fill="white" stroke="black" points="258,-171.5 258,-190.5 354,-190.5 354,-171.5 258,-171.5"/>
<text text-anchor="middle" x="306" y="-178.5" font-family="Helvetica,sans-Serif" font-size="10.00">bfl::GaussianFilter</text>
</a>
</g>
</g>
<!-- Node2&#45;&gt;Node3 -->
<g id="edge2" class="edge">
<title>Node2&#45;&gt;Node3</title>
<path fill="none" stroke="midnightblue" d="M204.51,-155.11C225.06,-160.4 248.8,-166.52 268.05,-171.48"/>
<polygon fill="midnightblue" stroke="midnightblue" points="205.28,-151.69 194.72,-152.59 203.53,-158.47 205.28,-151.69"/>
</g>
<!-- Node4 -->
<g id="node4" class="node">
<title>Node4</title>
<g id="a_node4"><a xlink:href="classbfl_1_1ParticleFilter.html" target="_top" xlink:title=" ">
<polygon fill="white" stroke="black" points="262,-133.5 262,-152.5 350,-152.5 350,-133.5 262,-133.5"/>
<text text-anchor="middle" x="306" y="-140.5" font-family="Helvetica,sans-Serif" font-size="10.00">bfl::ParticleFilter</text>
</a>
</g>
</g>
<!-- Node2&#45;&gt;Node4 -->
<g id="edge3" class="edge">
<title>Node2&#45;&gt;Node4</title>
<path fill="none" stroke="midnightblue" d="M221.46,-143C235.07,-143 249.14,-143 261.76,-143"/>
<polygon fill="midnightblue" stroke="midnightblue" points="221.17,-139.5 211.17,-143 221.17,-146.5 221.17,-139.5"/>
</g>
<!-- Node5 -->
<g id="node5" class="node">
<title>Node5</title>
<g id="a_node5"><a xlink:href="classbfl_1_1SIS.html" target="_top" xlink:title=" ">
<polygon fill="white" stroke="black" points="435,-133.5 435,-152.5 485,-152.5 485,-133.5 435,-133.5"/>
<text text-anchor="middle" x="460" y="-140.5" font-family="Helvetica,sans-Serif" font-size="10.00">bfl::SIS</text>
</a>
</g>
</g>
<!-- Node4&#45;&gt;Node5 -->
<g id="edge4" class="edge">
<title>Node4&#45;&gt;Node5</title>
<path fill="none" stroke="midnightblue" d="M360.38,-143C385.7,-143 414.72,-143 434.68,-143"/>
<polygon fill="midnightblue" stroke="midnightblue" points="360.15,-139.5 350.15,-143 360.15,-146.5 360.15,-139.5"/>
</g>
<!-- Node7 -->
<g id="node7" class="node">
<title>Node7</title>
<g id="a_node7"><a xlink:href="classbfl_1_1ExogenousModel.html" target="_top" xlink:title=" ">
<polygon fill="white" stroke="black" points="252,-95.5 252,-114.5 360,-114.5 360,-95.5 252,-95.5"/>
<text text-anchor="middle" x="306" y="-102.5" font-family="Helvetica,sans-Serif" font-size="10.00">bfl::ExogenousModel</text>
</a>
</g>
</g>
<!-- Node6&#45;&gt;Node7 -->
<g id="edge6" class="edge">
<title>Node6&#45;&gt;Node7</title>
<path fill="none" stroke="midnightblue" d="M204.81,-92.09C219.82,-94.03 236.52,-96.18 251.91,-98.16"/>
<polygon fill="midnightblue" stroke="midnightblue" points="205.09,-88.6 194.72,-90.79 204.19,-95.54 205.09,-88.6"/>
</g>
<!-- Node8 -->
<g id="node8" class="node">
<title>Node8</title>
<g id="a_node8"><a xlink:href="classbfl_1_1GaussianPrediction.html" target="_top" xlink:title=" ">
<polygon fill="white" stroke="black" points="247,-57.5 247,-76.5 365,-76.5 365,-57.5 247,-57.5"/>
<text text-anchor="middle" x="306" y="-64.5" font-family="Helvetica,sans-Serif" font-size="10.00">bfl::GaussianPrediction</text>
</a>
</g>
</g>
<!-- Node6&#45;&gt;Node8 -->
<g id="edge7" class="edge">
<title>Node6&#45;&gt;Node8</title>
<path fill="none" stroke="midnightblue" d="M204.68,-79.92C218.09,-78.2 232.85,-76.29 246.83,-74.49"/>
<polygon fill="midnightblue" stroke="midnightblue" points="204.19,-76.46 194.72,-81.21 205.09,-83.4 204.19,-76.46"/>
</g>
<!-- Node11 -->
<g id="node11" class="node">
<title>Node11</title>
<g id="a_node11"><a xlink:href="classbfl_1_1StateModel.html" target="_top" xlink:title=" ">
<polygon fill="white" stroke="black" points="264.5,-19.5 264.5,-38.5 347.5,-38.5 347.5,-19.5 264.5,-19.5"/>
<text text-anchor="middle" x="306" y="-26.5" font-family="Helvetica,sans-Serif" font-size="10.00">bfl::StateModel</text>
</a>
</g>
</g>
<!-- Node6&#45;&gt;Node11 -->
<g id="edge10" class="edge">
<title>Node6&#45;&gt;Node11</title>
<path fill="none" stroke="midnightblue" d="M188.14,-72.23C205.31,-64.71 227.18,-55.44 247,-48 255.73,-44.72 265.31,-41.45 274.13,-38.58"/>
<polygon fill="midnightblue" stroke="midnightblue" points="186.37,-69.19 178.63,-76.43 189.19,-75.59 186.37,-69.19"/>
</g>
<!-- Node9 -->
<g id="node9" class="node">
<title>Node9</title>
<g id="a_node9"><a xlink:href="classbfl_1_1KFPrediction.html" target="_top" xlink:title=" ">
<polygon fill="white" stroke="black" points="415.5,-95.5 415.5,-114.5 504.5,-114.5 504.5,-95.5 415.5,-95.5"/>
<text text-anchor="middle" x="460" y="-102.5" font-family="Helvetica,sans-Serif" font-size="10.00">bfl::KFPrediction</text>
</a>
</g>
</g>
<!-- Node8&#45;&gt;Node9 -->
<g id="edge8" class="edge">
<title>Node8&#45;&gt;Node9</title>
<path fill="none" stroke="midnightblue" d="M355.16,-79.04C376.4,-84.35 401,-90.5 420.92,-95.48"/>
<polygon fill="midnightblue" stroke="midnightblue" points="355.91,-75.62 345.36,-76.59 354.21,-82.41 355.91,-75.62"/>
</g>
<!-- Node10 -->
<g id="node10" class="node">
<title>Node10</title>
<g id="a_node10"><a xlink:href="classbfl_1_1UKFPrediction.html" target="_top" xlink:title=" ">
<polygon fill="white" stroke="black" points="411.5,-57.5 411.5,-76.5 508.5,-76.5 508.5,-57.5 411.5,-57.5"/>
<text text-anchor="middle" x="460" y="-64.5" font-family="Helvetica,sans-Serif" font-size="10.00">bfl::UKFPrediction</text>
</a>
</g>
</g>
<!-- Node8&#45;&gt;Node10 -->
<g id="edge9" class="edge">
<title>Node8&#45;&gt;Node10</title>
<path fill="none" stroke="midnightblue" d="M375.45,-67C387.6,-67 400,-67 411.41,-67"/>
<polygon fill="midnightblue" stroke="midnightblue" points="375.33,-63.5 365.33,-67 375.33,-70.5 375.33,-63.5"/>
</g>
<!-- Node12 -->
<g id="node12" class="node">
<title>Node12</title>
<g id="a_node12"><a xlink:href="classbfl_1_1AdditiveStateModel.html" target="_top" xlink:title=" ">
<polygon fill="white" stroke="black" points="401,-19.5 401,-38.5 519,-38.5 519,-19.5 401,-19.5"/>
<text text-anchor="middle" x="460" y="-26.5" font-family="Helvetica,sans-Serif" font-size="10.00">bfl::AdditiveStateModel</text>
</a>
</g>
</g>
<!-- Node11&#45;&gt;Node12 -->
<g id="edge11" class="edge">
<title>Node11&#45;&gt;Node12</title>
<path fill="none" stroke="midnightblue" d="M357.96,-29C371.68,-29 386.63,-29 400.72,-29"/>
<polygon fill="midnightblue" stroke="midnightblue" points="357.73,-25.5 347.73,-29 357.73,-32.5 357.73,-25.5"/>
</g>
<!-- Node13 -->
<g id="node13" class="node">
<title>Node13</title>
<g id="a_node13"><a xlink:href="classbfl_1_1LinearStateModel.html" target="_top" xlink:title=" ">
<polygon fill="white" stroke="black" points="555,-19.5 555,-38.5 664,-38.5 664,-19.5 555,-19.5"/>
<text text-anchor="middle" x="609.5" y="-26.5" font-family="Helvetica,sans-Serif" font-size="10.00">bfl::LinearStateModel</text>
</a>
</g>
</g>
<!-- Node12&#45;&gt;Node13 -->
<g id="edge12" class="edge">
<title>Node12&#45;&gt;Node13</title>
<path fill="none" stroke="midnightblue" d="M529.32,-29C537.92,-29 546.62,-29 554.94,-29"/>
<polygon fill="midnightblue" stroke="midnightblue" points="529.3,-25.5 519.3,-29 529.3,-32.5 529.3,-25.5"/>
</g>
<!-- Node14 -->
<g id="node14" class="node">
<title>Node14</title>
<g id="a_node14"><a xlink:href="classbfl_1_1LTIStateModel.html" target="_top" xlink:title=" ">
<polygon fill="white" stroke="black" points="720.5,-38.5 720.5,-57.5 817.5,-57.5 817.5,-38.5 720.5,-38.5"/>
<text text-anchor="middle" x="769" y="-45.5" font-family="Helvetica,sans-Serif" font-size="10.00">bfl::LTIStateModel</text>
</a>
</g>
</g>
<!-- Node13&#45;&gt;Node14 -->
<g id="edge13" class="edge">
<title>Node13&#45;&gt;Node14</title>
<path fill="none" stroke="midnightblue" d="M674.23,-36.69C689.61,-38.54 705.78,-40.49 720.28,-42.24"/>
<polygon fill="midnightblue" stroke="midnightblue" points="674.61,-33.21 664.26,-35.49 673.77,-40.16 674.61,-33.21"/>
</g>
<!-- Node15 -->
<g id="node15" class="node">
<title>Node15</title>
<g id="a_node15"><a xlink:href="classbfl_1_1WhiteNoiseAcceleration.html" target="_top" xlink:title=" ">
<polygon fill="white" stroke="black" points="700,-0.5 700,-19.5 838,-19.5 838,-0.5 700,-0.5"/>
<text text-anchor="middle" x="769" y="-7.5" font-family="Helvetica,sans-Serif" font-size="10.00">bfl::WhiteNoiseAcceleration</text>
</a>
</g>
</g>
<!-- Node13&#45;&gt;Node15 -->
<g id="edge14" class="edge">
<title>Node13&#45;&gt;Node15</title>
<path fill="none" stroke="midnightblue" d="M674.4,-21.29C682.83,-20.27 691.5,-19.23 700,-18.2"/>
<polygon fill="midnightblue" stroke="midnightblue" points="673.77,-17.84 664.26,-22.51 674.61,-24.79 673.77,-17.84"/>
</g>
</g>
</svg>
