<?xml version="1.0" encoding="UTF-8" standalone="no"?>
<!DOCTYPE svg PUBLIC "-//W3C//DTD SVG 1.1//EN"
 "http://www.w3.org/Graphics/SVG/1.1/DTD/svg11.dtd">
<!-- Generated by graphviz version 2.47.2 (0)
 -->
<!-- Title: bfl::any::any::swap Pages: 1 -->
<svg width="222pt" height="28pt"
 viewBox="0.00 0.00 222.00 28.00" xmlns="http://www.w3.org/2000/svg" xmlns:xlink="http://www.w3.org/1999/xlink">
<g id="graph0" class="graph" transform="scale(1 1) rotate(0) translate(4 24)">
<title>bfl::any::any::swap</title>
<polygon fill="white" stroke="transparent" points="-4,4 -4,-24 218,-24 218,4 -4,4"/>
<!-- Node1 -->
<g id="node1" class="node">
<title>Node1</title>
<g id="a_node1"><a xlink:title="Swaps the content of two any objects.">
<polygon fill="#bfbfbf" stroke="black" points="0,-0.5 0,-19.5 100,-19.5 100,-0.5 0,-0.5"/>
<text text-anchor="middle" x="50" y="-7.5" font-family="Helvetica,sans-Serif" font-size="10.00">bfl::any::any::swap</text>
</a>
</g>
</g>
<!-- Node2 -->
<g id="node2" class="node">
<title>Node2</title>
<g id="a_node2"><a xlink:href="namespacebfl_1_1any.html#adb1328ea975e3bf9c0addc1689215bad" target="_top" xlink:title="Overloads the std::swap algorithm for std::any.">
<polygon fill="white" stroke="black" points="136,-0.5 136,-19.5 214,-19.5 214,-0.5 136,-0.5"/>
<text text-anchor="middle" x="175" y="-7.5" font-family="Helvetica,sans-Serif" font-size="10.00">bfl::any::swap</text>
</a>
</g>
</g>
<!-- Node1&#45;&gt;Node2 -->
<g id="edge1" class="edge">
<title>Node1&#45;&gt;Node2</title>
<path fill="none" stroke="midnightblue" d="M100.32,-3.37C108.59,-3.21 117.17,-3.21 125.42,-3.38"/>
<polygon fill="midnightblue" stroke="midnightblue" points="125.55,-6.89 135.65,-3.69 125.76,0.11 125.55,-6.89"/>
</g>
<!-- Node2&#45;&gt;Node1 -->
<g id="edge2" class="edge">
<title>Node2&#45;&gt;Node1</title>
<path fill="none" stroke="midnightblue" d="M135.65,-16.31C127.61,-16.63 118.95,-16.78 110.35,-16.75"/>
<polygon fill="midnightblue" stroke="midnightblue" points="110.36,-13.25 100.32,-16.63 110.28,-20.25 110.36,-13.25"/>
</g>
</g>
</svg>
