<?xml version="1.0" encoding="UTF-8" standalone="no"?>
<!DOCTYPE svg PUBLIC "-//W3C//DTD SVG 1.1//EN"
 "http://www.w3.org/Graphics/SVG/1.1/DTD/svg11.dtd">
<!-- Generated by graphviz version 2.47.2 (0)
 -->
<!-- Title: bfl::WhiteNoiseAcceleration Pages: 1 -->
<svg width="194pt" height="308pt"
 viewBox="0.00 0.00 194.00 308.00" xmlns="http://www.w3.org/2000/svg" xmlns:xlink="http://www.w3.org/1999/xlink">
<g id="graph0" class="graph" transform="scale(1 1) rotate(0) translate(4 304)">
<title>bfl::WhiteNoiseAcceleration</title>
<polygon fill="white" stroke="transparent" points="-4,4 -4,-304 190,-304 190,4 -4,4"/>
<!-- Node1 -->
<g id="node1" class="node">
<title>Node1</title>
<g id="a_node1"><a xlink:title=" ">
<polygon fill="#bfbfbf" stroke="black" points="28,-0.5 28,-19.5 166,-19.5 166,-0.5 28,-0.5"/>
<text text-anchor="middle" x="97" y="-7.5" font-family="Helvetica,sans-Serif" font-size="10.00">bfl::WhiteNoiseAcceleration</text>
</a>
</g>
</g>
<!-- Node2 -->
<g id="node2" class="node">
<title>Node2</title>
<g id="a_node2"><a xlink:href="classbfl_1_1LinearStateModel.html" target="_top" xlink:title=" ">
<polygon fill="white" stroke="black" points="42.5,-56.5 42.5,-75.5 151.5,-75.5 151.5,-56.5 42.5,-56.5"/>
<text text-anchor="middle" x="97" y="-63.5" font-family="Helvetica,sans-Serif" font-size="10.00">bfl::LinearStateModel</text>
</a>
</g>
</g>
<!-- Node2&#45;&gt;Node1 -->
<g id="edge1" class="edge">
<title>Node2&#45;&gt;Node1</title>
<path fill="none" stroke="midnightblue" d="M97,-45.8C97,-36.91 97,-26.78 97,-19.75"/>
<polygon fill="midnightblue" stroke="midnightblue" points="93.5,-46.08 97,-56.08 100.5,-46.08 93.5,-46.08"/>
</g>
<!-- Node3 -->
<g id="node3" class="node">
<title>Node3</title>
<g id="a_node3"><a xlink:href="classbfl_1_1AdditiveStateModel.html" target="_top" xlink:title=" ">
<polygon fill="white" stroke="black" points="38,-112.5 38,-131.5 156,-131.5 156,-112.5 38,-112.5"/>
<text text-anchor="middle" x="97" y="-119.5" font-family="Helvetica,sans-Serif" font-size="10.00">bfl::AdditiveStateModel</text>
</a>
</g>
</g>
<!-- Node3&#45;&gt;Node2 -->
<g id="edge2" class="edge">
<title>Node3&#45;&gt;Node2</title>
<path fill="none" stroke="midnightblue" d="M97,-101.8C97,-92.91 97,-82.78 97,-75.75"/>
<polygon fill="midnightblue" stroke="midnightblue" points="93.5,-102.08 97,-112.08 100.5,-102.08 93.5,-102.08"/>
</g>
<!-- Node4 -->
<g id="node4" class="node">
<title>Node4</title>
<g id="a_node4"><a xlink:href="classbfl_1_1StateModel.html" target="_top" xlink:title=" ">
<polygon fill="white" stroke="black" points="55.5,-168.5 55.5,-187.5 138.5,-187.5 138.5,-168.5 55.5,-168.5"/>
<text text-anchor="middle" x="97" y="-175.5" font-family="Helvetica,sans-Serif" font-size="10.00">bfl::StateModel</text>
</a>
</g>
</g>
<!-- Node4&#45;&gt;Node3 -->
<g id="edge3" class="edge">
<title>Node4&#45;&gt;Node3</title>
<path fill="none" stroke="midnightblue" d="M97,-157.8C97,-148.91 97,-138.78 97,-131.75"/>
<polygon fill="midnightblue" stroke="midnightblue" points="93.5,-158.08 97,-168.08 100.5,-158.08 93.5,-158.08"/>
</g>
<!-- Node5 -->
<g id="node5" class="node">
<title>Node5</title>
<g id="a_node5"><a xlink:href="classbfl_1_1StateProcess.html" target="_top" xlink:title=" ">
<polygon fill="white" stroke="black" points="0,-224.5 0,-243.5 92,-243.5 92,-224.5 0,-224.5"/>
<text text-anchor="middle" x="46" y="-231.5" font-family="Helvetica,sans-Serif" font-size="10.00">bfl::StateProcess</text>
</a>
</g>
</g>
<!-- Node5&#45;&gt;Node4 -->
<g id="edge4" class="edge">
<title>Node5&#45;&gt;Node4</title>
<path fill="none" stroke="midnightblue" d="M61.38,-216.72C70.37,-207.2 81.36,-195.56 88.74,-187.75"/>
<polygon fill="midnightblue" stroke="midnightblue" points="58.74,-214.41 54.42,-224.08 63.83,-219.22 58.74,-214.41"/>
</g>
<!-- Node6 -->
<g id="node6" class="node">
<title>Node6</title>
<g id="a_node6"><a xlink:href="classbfl_1_1Skippable.html" target="_top" xlink:title=" ">
<polygon fill="white" stroke="black" points="110,-224.5 110,-243.5 186,-243.5 186,-224.5 110,-224.5"/>
<text text-anchor="middle" x="148" y="-231.5" font-family="Helvetica,sans-Serif" font-size="10.00">bfl::Skippable</text>
</a>
</g>
</g>
<!-- Node6&#45;&gt;Node4 -->
<g id="edge5" class="edge">
<title>Node6&#45;&gt;Node4</title>
<path fill="none" stroke="midnightblue" d="M132.62,-216.72C123.63,-207.2 112.64,-195.56 105.26,-187.75"/>
<polygon fill="midnightblue" stroke="midnightblue" points="130.17,-219.22 139.58,-224.08 135.26,-214.41 130.17,-219.22"/>
</g>
<!-- Node7 -->
<g id="node7" class="node">
<title>Node7</title>
<g id="a_node7"><a xlink:href="classbfl_1_1Skipper.html" target="_top" xlink:title=" ">
<polygon fill="white" stroke="black" points="115,-280.5 115,-299.5 181,-299.5 181,-280.5 115,-280.5"/>
<text text-anchor="middle" x="148" y="-287.5" font-family="Helvetica,sans-Serif" font-size="10.00">bfl::Skipper</text>
</a>
</g>
</g>
<!-- Node7&#45;&gt;Node6 -->
<g id="edge6" class="edge">
<title>Node7&#45;&gt;Node6</title>
<path fill="none" stroke="midnightblue" d="M148,-269.8C148,-260.91 148,-250.78 148,-243.75"/>
<polygon fill="midnightblue" stroke="midnightblue" points="144.5,-270.08 148,-280.08 151.5,-270.08 144.5,-270.08"/>
</g>
</g>
</svg>
