<?xml version="1.0" encoding="UTF-8" standalone="no"?>
<!DOCTYPE svg PUBLIC "-//W3C//DTD SVG 1.1//EN"
 "http://www.w3.org/Graphics/SVG/1.1/DTD/svg11.dtd">
<!-- Generated by graphviz version 2.47.2 (0)
 -->
<!-- Title: bfl::TimeDecreasingDynamics::setProperty Pages: 1 -->
<svg width="293pt" height="186pt"
 viewBox="0.00 0.00 293.00 186.00" xmlns="http://www.w3.org/2000/svg" xmlns:xlink="http://www.w3.org/1999/xlink">
<g id="graph0" class="graph" transform="scale(1 1) rotate(0) translate(4 182)">
<title>bfl::TimeDecreasingDynamics::setProperty</title>
<polygon fill="white" stroke="transparent" points="-4,4 -4,-182 289,-182 289,4 -4,4"/>
<!-- Node1 -->
<g id="node1" class="node">
<title>Node1</title>
<g id="a_node1"><a xlink:title=" ">
<polygon fill="#bfbfbf" stroke="black" points="0,-73.5 0,-103.5 149,-103.5 149,-73.5 0,-73.5"/>
<text text-anchor="start" x="8" y="-91.5" font-family="Helvetica,sans-Serif" font-size="10.00">bfl::TimeDecreasingDynamics</text>
<text text-anchor="middle" x="74.5" y="-80.5" font-family="Helvetica,sans-Serif" font-size="10.00">::setProperty</text>
</a>
</g>
</g>
<!-- Node2 -->
<g id="node2" class="node">
<title>Node2</title>
<g id="a_node2"><a xlink:href="classbfl_1_1utils_1_1CpuTimer.html#ac7702cd9061b12db77c9e249d7b77046" target="_top" xlink:title="Get the time passed between a start() and stop() call.">
<polygon fill="white" stroke="black" points="185,-147.5 185,-177.5 285,-177.5 285,-147.5 185,-147.5"/>
<text text-anchor="start" x="193" y="-165.5" font-family="Helvetica,sans-Serif" font-size="10.00">bfl::utils::CpuTimer</text>
<text text-anchor="middle" x="235" y="-154.5" font-family="Helvetica,sans-Serif" font-size="10.00">::elapsed</text>
</a>
</g>
</g>
<!-- Node1&#45;&gt;Node2 -->
<g id="edge1" class="edge">
<title>Node1&#45;&gt;Node2</title>
<path fill="none" stroke="midnightblue" d="M107.96,-103.65C132.4,-115.06 166.09,-130.79 192.49,-143.12"/>
<polygon fill="midnightblue" stroke="midnightblue" points="191.32,-146.43 201.86,-147.49 194.28,-140.09 191.32,-146.43"/>
</g>
<!-- Node3 -->
<g id="node3" class="node">
<title>Node3</title>
<g id="a_node3"><a xlink:href="classbfl_1_1utils_1_1CpuTimer.html#a2eb7137dc7b2ccae9742b14d4a5e2b86" target="_top" xlink:title="Check if the timer is running or not.">
<polygon fill="white" stroke="black" points="185,-98.5 185,-128.5 285,-128.5 285,-98.5 185,-98.5"/>
<text text-anchor="start" x="193" y="-116.5" font-family="Helvetica,sans-Serif" font-size="10.00">bfl::utils::CpuTimer</text>
<text text-anchor="middle" x="235" y="-105.5" font-family="Helvetica,sans-Serif" font-size="10.00">::is_running</text>
</a>
</g>
</g>
<!-- Node1&#45;&gt;Node3 -->
<g id="edge2" class="edge">
<title>Node1&#45;&gt;Node3</title>
<path fill="none" stroke="midnightblue" d="M149.18,-100.12C157.8,-101.48 166.51,-102.86 174.9,-104.18"/>
<polygon fill="midnightblue" stroke="midnightblue" points="174.52,-107.66 184.94,-105.76 175.61,-100.75 174.52,-107.66"/>
</g>
<!-- Node4 -->
<g id="node4" class="node">
<title>Node4</title>
<g id="a_node4"><a xlink:href="classbfl_1_1utils_1_1CpuTimer.html#aafb5ec4ed5936f14bb066d9e809f1f0e" target="_top" xlink:title="Start the timer.">
<polygon fill="white" stroke="black" points="185,-49.5 185,-79.5 285,-79.5 285,-49.5 185,-49.5"/>
<text text-anchor="start" x="193" y="-67.5" font-family="Helvetica,sans-Serif" font-size="10.00">bfl::utils::CpuTimer</text>
<text text-anchor="middle" x="235" y="-56.5" font-family="Helvetica,sans-Serif" font-size="10.00">::start</text>
</a>
</g>
</g>
<!-- Node1&#45;&gt;Node4 -->
<g id="edge3" class="edge">
<title>Node1&#45;&gt;Node4</title>
<path fill="none" stroke="midnightblue" d="M149.18,-77.34C157.8,-76.04 166.51,-74.72 174.9,-73.45"/>
<polygon fill="midnightblue" stroke="midnightblue" points="175.58,-76.89 184.94,-71.93 174.53,-69.97 175.58,-76.89"/>
</g>
<!-- Node5 -->
<g id="node5" class="node">
<title>Node5</title>
<g id="a_node5"><a xlink:href="classbfl_1_1utils_1_1CpuTimer.html#ad8e710e2a21b97c5e13ff2f338445a96" target="_top" xlink:title="Stop the timer.">
<polygon fill="white" stroke="black" points="185,-0.5 185,-30.5 285,-30.5 285,-0.5 185,-0.5"/>
<text text-anchor="start" x="193" y="-18.5" font-family="Helvetica,sans-Serif" font-size="10.00">bfl::utils::CpuTimer</text>
<text text-anchor="middle" x="235" y="-7.5" font-family="Helvetica,sans-Serif" font-size="10.00">::stop</text>
</a>
</g>
</g>
<!-- Node1&#45;&gt;Node5 -->
<g id="edge4" class="edge">
<title>Node1&#45;&gt;Node5</title>
<path fill="none" stroke="midnightblue" d="M108.34,-73.37C132.57,-62.22 165.73,-46.94 191.9,-34.89"/>
<polygon fill="midnightblue" stroke="midnightblue" points="193.58,-37.97 201.2,-30.61 190.65,-31.61 193.58,-37.97"/>
</g>
</g>
</svg>
