<?xml version="1.0" encoding="UTF-8" standalone="no"?>
<!DOCTYPE svg PUBLIC "-//W3C//DTD SVG 1.1//EN"
 "http://www.w3.org/Graphics/SVG/1.1/DTD/svg11.dtd">
<!-- Generated by graphviz version 2.43.0 (0)
 -->
<!-- Title: bfl::StateProcess Pages: 1 -->
<svg width="282pt" height="252pt"
 viewBox="0.00 0.00 282.00 252.00" xmlns="http://www.w3.org/2000/svg" xmlns:xlink="http://www.w3.org/1999/xlink">
<g id="graph0" class="graph" transform="scale(1 1) rotate(0) translate(4 248)">
<title>bfl::StateProcess</title>
<polygon fill="white" stroke="transparent" points="-4,4 -4,-248 278,-248 278,4 -4,4"/>
<!-- Node1 -->
<g id="node1" class="node">
<title>Node1</title>
<g id="a_node1"><a xlink:title=" ">
<polygon fill="#bfbfbf" stroke="black" points="76,-224.5 76,-243.5 174,-243.5 174,-224.5 76,-224.5"/>
<text text-anchor="middle" x="125" y="-231.5" font-family="Helvetica,sans-Serif" font-size="10.00">bfl::StateProcess</text>
</a>
</g>
</g>
<!-- Node2 -->
<g id="node2" class="node">
<title>Node2</title>
<g id="a_node2"><a xlink:href="classbfl_1_1StateModel.html" target="_top" xlink:title=" ">
<polygon fill="white" stroke="black" points="80,-168.5 80,-187.5 170,-187.5 170,-168.5 80,-168.5"/>
<text text-anchor="middle" x="125" y="-175.5" font-family="Helvetica,sans-Serif" font-size="10.00">bfl::StateModel</text>
</a>
</g>
</g>
<!-- Node1&#45;&gt;Node2 -->
<g id="edge1" class="edge">
<title>Node1&#45;&gt;Node2</title>
<path fill="none" stroke="midnightblue" d="M125,-213.8C125,-204.91 125,-194.78 125,-187.75"/>
<polygon fill="midnightblue" stroke="midnightblue" points="121.5,-214.08 125,-224.08 128.5,-214.08 121.5,-214.08"/>
</g>
<!-- Node3 -->
<g id="node3" class="node">
<title>Node3</title>
<g id="a_node3"><a xlink:href="classbfl_1_1AdditiveStateModel.html" target="_top" xlink:title=" ">
<polygon fill="white" stroke="black" points="59.5,-112.5 59.5,-131.5 190.5,-131.5 190.5,-112.5 59.5,-112.5"/>
<text text-anchor="middle" x="125" y="-119.5" font-family="Helvetica,sans-Serif" font-size="10.00">bfl::AdditiveStateModel</text>
</a>
</g>
</g>
<!-- Node2&#45;&gt;Node3 -->
<g id="edge2" class="edge">
<title>Node2&#45;&gt;Node3</title>
<path fill="none" stroke="midnightblue" d="M125,-157.8C125,-148.91 125,-138.78 125,-131.75"/>
<polygon fill="midnightblue" stroke="midnightblue" points="121.5,-158.08 125,-168.08 128.5,-158.08 121.5,-158.08"/>
</g>
<!-- Node4 -->
<g id="node4" class="node">
<title>Node4</title>
<g id="a_node4"><a xlink:href="classbfl_1_1LinearStateModel.html" target="_top" xlink:title=" ">
<polygon fill="white" stroke="black" points="65,-56.5 65,-75.5 185,-75.5 185,-56.5 65,-56.5"/>
<text text-anchor="middle" x="125" y="-63.5" font-family="Helvetica,sans-Serif" font-size="10.00">bfl::LinearStateModel</text>
</a>
</g>
</g>
<!-- Node3&#45;&gt;Node4 -->
<g id="edge3" class="edge">
<title>Node3&#45;&gt;Node4</title>
<path fill="none" stroke="midnightblue" d="M125,-101.8C125,-92.91 125,-82.78 125,-75.75"/>
<polygon fill="midnightblue" stroke="midnightblue" points="121.5,-102.08 125,-112.08 128.5,-102.08 121.5,-102.08"/>
</g>
<!-- Node5 -->
<g id="node5" class="node">
<title>Node5</title>
<g id="a_node5"><a xlink:href="classbfl_1_1LTIStateModel.html" target="_top" xlink:title=" ">
<polygon fill="white" stroke="black" points="0,-0.5 0,-19.5 104,-19.5 104,-0.5 0,-0.5"/>
<text text-anchor="middle" x="52" y="-7.5" font-family="Helvetica,sans-Serif" font-size="10.00">bfl::LTIStateModel</text>
</a>
</g>
</g>
<!-- Node4&#45;&gt;Node5 -->
<g id="edge4" class="edge">
<title>Node4&#45;&gt;Node5</title>
<path fill="none" stroke="midnightblue" d="M104.86,-50.1C91.72,-40.38 75.02,-28.03 63.94,-19.83"/>
<polygon fill="midnightblue" stroke="midnightblue" points="103.15,-53.19 113.27,-56.32 107.31,-47.56 103.15,-53.19"/>
</g>
<!-- Node6 -->
<g id="node6" class="node">
<title>Node6</title>
<g id="a_node6"><a xlink:href="classbfl_1_1WhiteNoiseAcceleration.html" target="_top" xlink:title=" ">
<polygon fill="white" stroke="black" points="122,-0.5 122,-19.5 274,-19.5 274,-0.5 122,-0.5"/>
<text text-anchor="middle" x="198" y="-7.5" font-family="Helvetica,sans-Serif" font-size="10.00">bfl::WhiteNoiseAcceleration</text>
</a>
</g>
</g>
<!-- Node4&#45;&gt;Node6 -->
<g id="edge5" class="edge">
<title>Node4&#45;&gt;Node6</title>
<path fill="none" stroke="midnightblue" d="M145.14,-50.1C158.28,-40.38 174.98,-28.03 186.06,-19.83"/>
<polygon fill="midnightblue" stroke="midnightblue" points="142.69,-47.56 136.73,-56.32 146.85,-53.19 142.69,-47.56"/>
</g>
</g>
</svg>
