<?xml version="1.0" encoding="UTF-8" standalone="no"?>
<!DOCTYPE svg PUBLIC "-//W3C//DTD SVG 1.1//EN"
 "http://www.w3.org/Graphics/SVG/1.1/DTD/svg11.dtd">
<!-- Generated by graphviz version 2.47.2 (0)
 -->
<!-- Title: bfl::InitSurveillanceAreaGrid::initialize Pages: 1 -->
<svg width="273pt" height="78pt"
 viewBox="0.00 0.00 273.00 77.50" xmlns="http://www.w3.org/2000/svg" xmlns:xlink="http://www.w3.org/1999/xlink">
<g id="graph0" class="graph" transform="scale(1 1) rotate(0) translate(4 73.5)">
<title>bfl::InitSurveillanceAreaGrid::initialize</title>
<polygon fill="white" stroke="transparent" points="-4,4 -4,-73.5 269,-73.5 269,4 -4,4"/>
<!-- Node1 -->
<g id="node1" class="node">
<title>Node1</title>
<g id="a_node1"><a xlink:title=" ">
<polygon fill="#bfbfbf" stroke="black" points="0,-22.5 0,-52.5 120,-52.5 120,-22.5 0,-22.5"/>
<text text-anchor="start" x="8" y="-40.5" font-family="Helvetica,sans-Serif" font-size="10.00">bfl::InitSurveillanceArea</text>
<text text-anchor="middle" x="60" y="-29.5" font-family="Helvetica,sans-Serif" font-size="10.00">Grid::initialize</text>
</a>
</g>
</g>
<!-- Node2 -->
<g id="node2" class="node">
<title>Node2</title>
<g id="a_node2"><a xlink:href="classbfl_1_1ParticleSet.html#a85950583083c2903f4235801cc03130c" target="_top" xlink:title=" ">
<polygon fill="white" stroke="black" points="156,-50 156,-69 265,-69 265,-50 156,-50"/>
<text text-anchor="middle" x="210.5" y="-57" font-family="Helvetica,sans-Serif" font-size="10.00">bfl::ParticleSet::state</text>
</a>
</g>
</g>
<!-- Node1&#45;&gt;Node2 -->
<g id="edge1" class="edge">
<title>Node1&#45;&gt;Node2</title>
<path fill="none" stroke="midnightblue" d="M120.12,-46.26C128.61,-47.52 137.37,-48.81 145.94,-50.08"/>
<polygon fill="midnightblue" stroke="midnightblue" points="145.47,-53.55 155.88,-51.56 146.5,-46.63 145.47,-53.55"/>
</g>
<!-- Node3 -->
<g id="node3" class="node">
<title>Node3</title>
<g id="a_node3"><a xlink:href="classbfl_1_1GaussianMixture.html#ada5625de6a3e2f98afb5aaa148503dad" target="_top" xlink:title=" ">
<polygon fill="white" stroke="black" points="157,-0.5 157,-30.5 264,-30.5 264,-0.5 157,-0.5"/>
<text text-anchor="start" x="165" y="-18.5" font-family="Helvetica,sans-Serif" font-size="10.00">bfl::GaussianMixture</text>
<text text-anchor="middle" x="210.5" y="-7.5" font-family="Helvetica,sans-Serif" font-size="10.00">::weight</text>
</a>
</g>
</g>
<!-- Node1&#45;&gt;Node3 -->
<g id="edge2" class="edge">
<title>Node1&#45;&gt;Node3</title>
<path fill="none" stroke="midnightblue" d="M120.12,-28.74C128.93,-27.44 138.04,-26.09 146.93,-24.77"/>
<polygon fill="midnightblue" stroke="midnightblue" points="147.45,-28.23 156.83,-23.3 146.43,-21.31 147.45,-28.23"/>
</g>
</g>
</svg>
