<?xml version="1.0" encoding="UTF-8" standalone="no"?>
<!DOCTYPE svg PUBLIC "-//W3C//DTD SVG 1.1//EN"
 "http://www.w3.org/Graphics/SVG/1.1/DTD/svg11.dtd">
<!-- Generated by graphviz version 2.43.0 (0)
 -->
<!-- Title: bfl::KFCorrection::getLikelihood Pages: 1 -->
<svg width="433pt" height="39pt"
 viewBox="0.00 0.00 433.00 39.00" xmlns="http://www.w3.org/2000/svg" xmlns:xlink="http://www.w3.org/1999/xlink">
<g id="graph0" class="graph" transform="scale(1 1) rotate(0) translate(4 35)">
<title>bfl::KFCorrection::getLikelihood</title>
<polygon fill="white" stroke="transparent" points="-4,4 -4,-35 429,-35 429,4 -4,4"/>
<!-- Node1 -->
<g id="node1" class="node">
<title>Node1</title>
<g id="a_node1"><a xlink:title=" ">
<polygon fill="#bfbfbf" stroke="black" points="0,-0.5 0,-30.5 104,-30.5 104,-0.5 0,-0.5"/>
<text text-anchor="start" x="8" y="-18.5" font-family="Helvetica,sans-Serif" font-size="10.00">bfl::KFCorrection::</text>
<text text-anchor="middle" x="52" y="-7.5" font-family="Helvetica,sans-Serif" font-size="10.00">getLikelihood</text>
</a>
</g>
</g>
<!-- Node2 -->
<g id="node2" class="node">
<title>Node2</title>
<g id="a_node2"><a xlink:href="namespacebfl_1_1utils.html#a21587a9586a3bf80af3346a0df1b876a" target="_top" xlink:title="Evaluate a multivariate Gaussian probability density function.">
<polygon fill="white" stroke="black" points="140,-0.5 140,-30.5 262,-30.5 262,-0.5 140,-0.5"/>
<text text-anchor="start" x="148" y="-18.5" font-family="Helvetica,sans-Serif" font-size="10.00">bfl::utils::multivariate</text>
<text text-anchor="middle" x="201" y="-7.5" font-family="Helvetica,sans-Serif" font-size="10.00">_gaussian_density</text>
</a>
</g>
</g>
<!-- Node1&#45;&gt;Node2 -->
<g id="edge1" class="edge">
<title>Node1&#45;&gt;Node2</title>
<path fill="none" stroke="midnightblue" d="M104,-15.5C112.35,-15.5 121.12,-15.5 129.83,-15.5"/>
<polygon fill="midnightblue" stroke="midnightblue" points="129.99,-19 139.99,-15.5 129.99,-12 129.99,-19"/>
</g>
<!-- Node3 -->
<g id="node3" class="node">
<title>Node3</title>
<g id="a_node3"><a xlink:href="namespacebfl_1_1utils.html#af89fbb3248597e49b8fcdf38363b3dcd" target="_top" xlink:title="Evaluate the logarithm of a multivariate Gaussian probability density function.">
<polygon fill="white" stroke="black" points="298,-0.5 298,-30.5 425,-30.5 425,-0.5 298,-0.5"/>
<text text-anchor="start" x="306" y="-18.5" font-family="Helvetica,sans-Serif" font-size="10.00">bfl::utils::multivariate</text>
<text text-anchor="middle" x="361.5" y="-7.5" font-family="Helvetica,sans-Serif" font-size="10.00">_gaussian_log_density</text>
</a>
</g>
</g>
<!-- Node2&#45;&gt;Node3 -->
<g id="edge2" class="edge">
<title>Node2&#45;&gt;Node3</title>
<path fill="none" stroke="midnightblue" d="M262.37,-15.5C270.65,-15.5 279.21,-15.5 287.67,-15.5"/>
<polygon fill="midnightblue" stroke="midnightblue" points="287.93,-19 297.93,-15.5 287.93,-12 287.93,-19"/>
</g>
</g>
</svg>
