<?xml version="1.0" encoding="UTF-8" standalone="no"?>
<!DOCTYPE svg PUBLIC "-//W3C//DTD SVG 1.1//EN"
 "http://www.w3.org/Graphics/SVG/1.1/DTD/svg11.dtd">
<!-- Generated by graphviz version 2.47.2 (0)
 -->
<!-- Title: bfl::Skippable Pages: 1 -->
<svg width="456pt" height="308pt"
 viewBox="0.00 0.00 456.00 308.00" xmlns="http://www.w3.org/2000/svg" xmlns:xlink="http://www.w3.org/1999/xlink">
<g id="graph0" class="graph" transform="scale(1 1) rotate(0) translate(4 304)">
<title>bfl::Skippable</title>
<polygon fill="white" stroke="transparent" points="-4,4 -4,-304 452,-304 452,4 -4,4"/>
<!-- Node1 -->
<g id="node1" class="node">
<title>Node1</title>
<g id="a_node1"><a xlink:title=" ">
<polygon fill="#bfbfbf" stroke="black" points="147,-224.5 147,-243.5 223,-243.5 223,-224.5 147,-224.5"/>
<text text-anchor="middle" x="185" y="-231.5" font-family="Helvetica,sans-Serif" font-size="10.00">bfl::Skippable</text>
</a>
</g>
</g>
<!-- Node3 -->
<g id="node3" class="node">
<title>Node3</title>
<g id="a_node3"><a xlink:href="classbfl_1_1ExogenousModel.html" target="_top" xlink:title=" ">
<polygon fill="white" stroke="black" points="0,-168.5 0,-187.5 108,-187.5 108,-168.5 0,-168.5"/>
<text text-anchor="middle" x="54" y="-175.5" font-family="Helvetica,sans-Serif" font-size="10.00">bfl::ExogenousModel</text>
</a>
</g>
</g>
<!-- Node1&#45;&gt;Node3 -->
<g id="edge2" class="edge">
<title>Node1&#45;&gt;Node3</title>
<path fill="none" stroke="midnightblue" d="M154.68,-220.5C130.12,-210.38 96.18,-196.39 74.66,-187.52"/>
<polygon fill="midnightblue" stroke="midnightblue" points="153.66,-223.87 164.24,-224.44 156.33,-217.4 153.66,-223.87"/>
</g>
<!-- Node4 -->
<g id="node4" class="node">
<title>Node4</title>
<g id="a_node4"><a xlink:href="classbfl_1_1GaussianPrediction.html" target="_top" xlink:title=" ">
<polygon fill="white" stroke="black" points="126,-168.5 126,-187.5 244,-187.5 244,-168.5 126,-168.5"/>
<text text-anchor="middle" x="185" y="-175.5" font-family="Helvetica,sans-Serif" font-size="10.00">bfl::GaussianPrediction</text>
</a>
</g>
</g>
<!-- Node1&#45;&gt;Node4 -->
<g id="edge3" class="edge">
<title>Node1&#45;&gt;Node4</title>
<path fill="none" stroke="midnightblue" d="M185,-213.8C185,-204.91 185,-194.78 185,-187.75"/>
<polygon fill="midnightblue" stroke="midnightblue" points="181.5,-214.08 185,-224.08 188.5,-214.08 181.5,-214.08"/>
</g>
<!-- Node7 -->
<g id="node7" class="node">
<title>Node7</title>
<g id="a_node7"><a xlink:href="classbfl_1_1StateModel.html" target="_top" xlink:title=" ">
<polygon fill="white" stroke="black" points="266.5,-168.5 266.5,-187.5 349.5,-187.5 349.5,-168.5 266.5,-168.5"/>
<text text-anchor="middle" x="308" y="-175.5" font-family="Helvetica,sans-Serif" font-size="10.00">bfl::StateModel</text>
</a>
</g>
</g>
<!-- Node1&#45;&gt;Node7 -->
<g id="edge6" class="edge">
<title>Node1&#45;&gt;Node7</title>
<path fill="none" stroke="midnightblue" d="M213.77,-220.37C236.81,-210.26 268.48,-196.35 288.6,-187.52"/>
<polygon fill="midnightblue" stroke="midnightblue" points="212.24,-217.22 204.49,-224.44 215.05,-223.63 212.24,-217.22"/>
</g>
<!-- Node2 -->
<g id="node2" class="node">
<title>Node2</title>
<g id="a_node2"><a xlink:href="classbfl_1_1Skipper.html" target="_top" xlink:title=" ">
<polygon fill="white" stroke="black" points="152,-280.5 152,-299.5 218,-299.5 218,-280.5 152,-280.5"/>
<text text-anchor="middle" x="185" y="-287.5" font-family="Helvetica,sans-Serif" font-size="10.00">bfl::Skipper</text>
</a>
</g>
</g>
<!-- Node2&#45;&gt;Node1 -->
<g id="edge1" class="edge">
<title>Node2&#45;&gt;Node1</title>
<path fill="none" stroke="midnightblue" d="M185,-269.8C185,-260.91 185,-250.78 185,-243.75"/>
<polygon fill="midnightblue" stroke="midnightblue" points="181.5,-270.08 185,-280.08 188.5,-270.08 181.5,-270.08"/>
</g>
<!-- Node5 -->
<g id="node5" class="node">
<title>Node5</title>
<g id="a_node5"><a xlink:href="classbfl_1_1KFPrediction.html" target="_top" xlink:title=" ">
<polygon fill="white" stroke="black" points="29.5,-112.5 29.5,-131.5 118.5,-131.5 118.5,-112.5 29.5,-112.5"/>
<text text-anchor="middle" x="74" y="-119.5" font-family="Helvetica,sans-Serif" font-size="10.00">bfl::KFPrediction</text>
</a>
</g>
</g>
<!-- Node4&#45;&gt;Node5 -->
<g id="edge4" class="edge">
<title>Node4&#45;&gt;Node5</title>
<path fill="none" stroke="midnightblue" d="M157.99,-163.86C137.41,-153.85 109.66,-140.35 91.79,-131.65"/>
<polygon fill="midnightblue" stroke="midnightblue" points="156.64,-167.1 167.17,-168.32 159.7,-160.8 156.64,-167.1"/>
</g>
<!-- Node6 -->
<g id="node6" class="node">
<title>Node6</title>
<g id="a_node6"><a xlink:href="classbfl_1_1UKFPrediction.html" target="_top" xlink:title=" ">
<polygon fill="white" stroke="black" points="136.5,-112.5 136.5,-131.5 233.5,-131.5 233.5,-112.5 136.5,-112.5"/>
<text text-anchor="middle" x="185" y="-119.5" font-family="Helvetica,sans-Serif" font-size="10.00">bfl::UKFPrediction</text>
</a>
</g>
</g>
<!-- Node4&#45;&gt;Node6 -->
<g id="edge5" class="edge">
<title>Node4&#45;&gt;Node6</title>
<path fill="none" stroke="midnightblue" d="M185,-157.8C185,-148.91 185,-138.78 185,-131.75"/>
<polygon fill="midnightblue" stroke="midnightblue" points="181.5,-158.08 185,-168.08 188.5,-158.08 181.5,-158.08"/>
</g>
<!-- Node8 -->
<g id="node8" class="node">
<title>Node8</title>
<g id="a_node8"><a xlink:href="classbfl_1_1AdditiveStateModel.html" target="_top" xlink:title=" ">
<polygon fill="white" stroke="black" points="252,-112.5 252,-131.5 370,-131.5 370,-112.5 252,-112.5"/>
<text text-anchor="middle" x="311" y="-119.5" font-family="Helvetica,sans-Serif" font-size="10.00">bfl::AdditiveStateModel</text>
</a>
</g>
</g>
<!-- Node7&#45;&gt;Node8 -->
<g id="edge7" class="edge">
<title>Node7&#45;&gt;Node8</title>
<path fill="none" stroke="midnightblue" d="M309.07,-157.8C309.56,-148.91 310.12,-138.78 310.51,-131.75"/>
<polygon fill="midnightblue" stroke="midnightblue" points="305.56,-157.9 308.5,-168.08 312.54,-158.29 305.56,-157.9"/>
</g>
<!-- Node9 -->
<g id="node9" class="node">
<title>Node9</title>
<g id="a_node9"><a xlink:href="classbfl_1_1LinearStateModel.html" target="_top" xlink:title=" ">
<polygon fill="white" stroke="black" points="256.5,-56.5 256.5,-75.5 365.5,-75.5 365.5,-56.5 256.5,-56.5"/>
<text text-anchor="middle" x="311" y="-63.5" font-family="Helvetica,sans-Serif" font-size="10.00">bfl::LinearStateModel</text>
</a>
</g>
</g>
<!-- Node8&#45;&gt;Node9 -->
<g id="edge8" class="edge">
<title>Node8&#45;&gt;Node9</title>
<path fill="none" stroke="midnightblue" d="M311,-101.8C311,-92.91 311,-82.78 311,-75.75"/>
<polygon fill="midnightblue" stroke="midnightblue" points="307.5,-102.08 311,-112.08 314.5,-102.08 307.5,-102.08"/>
</g>
<!-- Node10 -->
<g id="node10" class="node">
<title>Node10</title>
<g id="a_node10"><a xlink:href="classbfl_1_1LTIStateModel.html" target="_top" xlink:title=" ">
<polygon fill="white" stroke="black" points="194.5,-0.5 194.5,-19.5 291.5,-19.5 291.5,-0.5 194.5,-0.5"/>
<text text-anchor="middle" x="243" y="-7.5" font-family="Helvetica,sans-Serif" font-size="10.00">bfl::LTIStateModel</text>
</a>
</g>
</g>
<!-- Node9&#45;&gt;Node10 -->
<g id="edge9" class="edge">
<title>Node9&#45;&gt;Node10</title>
<path fill="none" stroke="midnightblue" d="M292.24,-50.1C280,-40.38 264.44,-28.03 254.12,-19.83"/>
<polygon fill="midnightblue" stroke="midnightblue" points="290.07,-52.85 300.07,-56.32 294.42,-47.36 290.07,-52.85"/>
</g>
<!-- Node11 -->
<g id="node11" class="node">
<title>Node11</title>
<g id="a_node11"><a xlink:href="classbfl_1_1WhiteNoiseAcceleration.html" target="_top" xlink:title=" ">
<polygon fill="white" stroke="black" points="310,-0.5 310,-19.5 448,-19.5 448,-0.5 310,-0.5"/>
<text text-anchor="middle" x="379" y="-7.5" font-family="Helvetica,sans-Serif" font-size="10.00">bfl::WhiteNoiseAcceleration</text>
</a>
</g>
</g>
<!-- Node9&#45;&gt;Node11 -->
<g id="edge10" class="edge">
<title>Node9&#45;&gt;Node11</title>
<path fill="none" stroke="midnightblue" d="M329.76,-50.1C342,-40.38 357.56,-28.03 367.88,-19.83"/>
<polygon fill="midnightblue" stroke="midnightblue" points="327.58,-47.36 321.93,-56.32 331.93,-52.85 327.58,-47.36"/>
</g>
</g>
</svg>
