<?xml version="1.0" encoding="UTF-8" standalone="no"?>
<!DOCTYPE svg PUBLIC "-//W3C//DTD SVG 1.1//EN"
 "http://www.w3.org/Graphics/SVG/1.1/DTD/svg11.dtd">
<!-- Generated by graphviz version 2.43.0 (0)
 -->
<!-- Title: bfl::SimulatedLinearSensor::freeze Pages: 1 -->
<svg width="499pt" height="78pt"
 viewBox="0.00 0.00 499.00 77.50" xmlns="http://www.w3.org/2000/svg" xmlns:xlink="http://www.w3.org/1999/xlink">
<g id="graph0" class="graph" transform="scale(1 1) rotate(0) translate(4 73.5)">
<title>bfl::SimulatedLinearSensor::freeze</title>
<polygon fill="white" stroke="transparent" points="-4,4 -4,-73.5 495,-73.5 495,4 -4,4"/>
<!-- Node1 -->
<g id="node1" class="node">
<title>Node1</title>
<g id="a_node1"><a xlink:title=" ">
<polygon fill="#bfbfbf" stroke="black" points="0,-17 0,-47 147,-47 147,-17 0,-17"/>
<text text-anchor="start" x="8" y="-35" font-family="Helvetica,sans-Serif" font-size="10.00">bfl::SimulatedLinearSensor</text>
<text text-anchor="middle" x="73.5" y="-24" font-family="Helvetica,sans-Serif" font-size="10.00">::freeze</text>
</a>
</g>
</g>
<!-- Node2 -->
<g id="node2" class="node">
<title>Node2</title>
<g id="a_node2"><a xlink:href="classbfl_1_1LinearModel.html#af248dfa32cd9145d87e84ddade6316ad" target="_top" xlink:title=" ">
<polygon fill="white" stroke="black" points="195,-39 195,-69 339,-69 339,-39 195,-39"/>
<text text-anchor="start" x="203" y="-57" font-family="Helvetica,sans-Serif" font-size="10.00">bfl::LinearModel::getNoise</text>
<text text-anchor="middle" x="267" y="-46" font-family="Helvetica,sans-Serif" font-size="10.00">Sample</text>
</a>
</g>
</g>
<!-- Node1&#45;&gt;Node2 -->
<g id="edge1" class="edge">
<title>Node1&#45;&gt;Node2</title>
<path fill="none" stroke="midnightblue" d="M147.17,-40.35C159.53,-41.77 172.43,-43.25 184.98,-44.69"/>
<polygon fill="midnightblue" stroke="midnightblue" points="184.63,-48.17 194.96,-45.84 185.43,-41.22 184.63,-48.17"/>
</g>
<!-- Node3 -->
<g id="node3" class="node">
<title>Node3</title>
<g id="a_node3"><a xlink:href="classbfl_1_1SimulatedLinearSensor.html#ab75bbe744d8516c97dfc90ad499b10e6" target="_top" xlink:title=" ">
<polygon fill="white" stroke="black" points="183,-0.5 183,-19.5 351,-19.5 351,-0.5 183,-0.5"/>
<text text-anchor="middle" x="267" y="-7.5" font-family="Helvetica,sans-Serif" font-size="10.00">bfl::SimulatedLinearSensor::log</text>
</a>
</g>
</g>
<!-- Node1&#45;&gt;Node3 -->
<g id="edge2" class="edge">
<title>Node1&#45;&gt;Node3</title>
<path fill="none" stroke="midnightblue" d="M147.17,-23.65C155.61,-22.68 164.31,-21.68 172.97,-20.69"/>
<polygon fill="midnightblue" stroke="midnightblue" points="173.58,-24.14 183.12,-19.52 172.78,-17.19 173.58,-24.14"/>
</g>
<!-- Node4 -->
<g id="node4" class="node">
<title>Node4</title>
<g id="a_node4"><a xlink:href="classbfl_1_1Logger.html#a1033ff31398484f2132f84fd140da9e3" target="_top" xlink:title=" ">
<polygon fill="white" stroke="black" points="387,-0.5 387,-19.5 491,-19.5 491,-0.5 387,-0.5"/>
<text text-anchor="middle" x="439" y="-7.5" font-family="Helvetica,sans-Serif" font-size="10.00">bfl::Logger::logger</text>
</a>
</g>
</g>
<!-- Node3&#45;&gt;Node4 -->
<g id="edge3" class="edge">
<title>Node3&#45;&gt;Node4</title>
<path fill="none" stroke="midnightblue" d="M351.01,-10C359.54,-10 368.1,-10 376.35,-10"/>
<polygon fill="midnightblue" stroke="midnightblue" points="376.59,-13.5 386.59,-10 376.59,-6.5 376.59,-13.5"/>
</g>
</g>
</svg>
