<?xml version="1.0" encoding="UTF-8" standalone="no"?>
<!DOCTYPE svg PUBLIC "-//W3C//DTD SVG 1.1//EN"
 "http://www.w3.org/Graphics/SVG/1.1/DTD/svg11.dtd">
<!-- Generated by graphviz version 2.47.2 (0)
 -->
<!-- Title: bfl::ResamplingWithPrior::resample Pages: 1 -->
<svg width="445pt" height="223pt"
 viewBox="0.00 0.00 445.00 222.50" xmlns="http://www.w3.org/2000/svg" xmlns:xlink="http://www.w3.org/1999/xlink">
<g id="graph0" class="graph" transform="scale(1 1) rotate(0) translate(4 218.5)">
<title>bfl::ResamplingWithPrior::resample</title>
<polygon fill="white" stroke="transparent" points="-4,4 -4,-218.5 441,-218.5 441,4 -4,4"/>
<!-- Node1 -->
<g id="node1" class="node">
<title>Node1</title>
<g id="a_node1"><a xlink:title=" ">
<polygon fill="#bfbfbf" stroke="black" points="0,-90 0,-120 125,-120 125,-90 0,-90"/>
<text text-anchor="start" x="8" y="-108" font-family="Helvetica,sans-Serif" font-size="10.00">bfl::ResamplingWithPrior</text>
<text text-anchor="middle" x="62.5" y="-97" font-family="Helvetica,sans-Serif" font-size="10.00">::resample</text>
</a>
</g>
</g>
<!-- Node2 -->
<g id="node2" class="node">
<title>Node2</title>
<g id="a_node2"><a xlink:href="classbfl_1_1GaussianMixture.html#a65a60ef46d16ac33196a09963bbccdee" target="_top" xlink:title=" ">
<polygon fill="white" stroke="black" points="329,-184 329,-214 436,-214 436,-184 329,-184"/>
<text text-anchor="start" x="337" y="-202" font-family="Helvetica,sans-Serif" font-size="10.00">bfl::GaussianMixture</text>
<text text-anchor="middle" x="382.5" y="-191" font-family="Helvetica,sans-Serif" font-size="10.00">::covariance</text>
</a>
</g>
</g>
<!-- Node1&#45;&gt;Node2 -->
<g id="edge1" class="edge">
<title>Node1&#45;&gt;Node2</title>
<path fill="none" stroke="midnightblue" d="M84.08,-120.04C103.09,-133.18 132.61,-151.71 161,-162 212.29,-180.59 273.73,-189.92 318.71,-194.55"/>
<polygon fill="midnightblue" stroke="midnightblue" points="318.62,-198.06 328.91,-195.55 319.3,-191.09 318.62,-198.06"/>
</g>
<!-- Node3 -->
<g id="node3" class="node">
<title>Node3</title>
<g id="a_node3"><a xlink:href="namespacebfl_1_1utils.html#a6ca41188b9a6ef3d0d5d5c62df6ed318" target="_top" xlink:title="Return the element&#45;wise logarithm of the sum of exponentials of the input data.">
<polygon fill="white" stroke="black" points="169,-0.5 169,-19.5 284,-19.5 284,-0.5 169,-0.5"/>
<text text-anchor="middle" x="226.5" y="-7.5" font-family="Helvetica,sans-Serif" font-size="10.00">bfl::utils::log_sum_exp</text>
</a>
</g>
</g>
<!-- Node1&#45;&gt;Node3 -->
<g id="edge2" class="edge">
<title>Node1&#45;&gt;Node3</title>
<path fill="none" stroke="midnightblue" d="M81.19,-89.8C100.01,-74.22 131.11,-50.05 161,-34 168.57,-29.94 176.97,-26.26 185.14,-23.08"/>
<polygon fill="midnightblue" stroke="midnightblue" points="186.41,-26.34 194.56,-19.58 183.97,-19.78 186.41,-26.34"/>
</g>
<!-- Node4 -->
<g id="node4" class="node">
<title>Node4</title>
<g id="a_node4"><a xlink:href="classbfl_1_1GaussianMixture.html#af4fd865a97ac27c72510cfbf9429bd97" target="_top" xlink:title=" ">
<polygon fill="white" stroke="black" points="329,-134 329,-164 436,-164 436,-134 329,-134"/>
<text text-anchor="start" x="337" y="-152" font-family="Helvetica,sans-Serif" font-size="10.00">bfl::GaussianMixture</text>
<text text-anchor="middle" x="382.5" y="-141" font-family="Helvetica,sans-Serif" font-size="10.00">::mean</text>
</a>
</g>
</g>
<!-- Node1&#45;&gt;Node4 -->
<g id="edge3" class="edge">
<title>Node1&#45;&gt;Node4</title>
<path fill="none" stroke="midnightblue" d="M94.28,-120.15C113.07,-128.6 137.85,-138.32 161,-143 213.41,-153.59 274.24,-154.42 318.72,-152.97"/>
<polygon fill="midnightblue" stroke="midnightblue" points="318.94,-156.47 328.8,-152.6 318.68,-149.47 318.94,-156.47"/>
</g>
<!-- Node5 -->
<g id="node5" class="node">
<title>Node5</title>
<g id="a_node5"><a xlink:href="classbfl_1_1Resampling.html#a7527025ad8afc6dbae2225213571391c" target="_top" xlink:title=" ">
<polygon fill="white" stroke="black" points="161,-114.5 161,-133.5 292,-133.5 292,-114.5 161,-114.5"/>
<text text-anchor="middle" x="226.5" y="-121.5" font-family="Helvetica,sans-Serif" font-size="10.00">bfl::Resampling::resample</text>
</a>
</g>
</g>
<!-- Node1&#45;&gt;Node5 -->
<g id="edge4" class="edge">
<title>Node1&#45;&gt;Node5</title>
<path fill="none" stroke="midnightblue" d="M125.21,-112.24C133.56,-113.22 142.21,-114.23 150.76,-115.23"/>
<polygon fill="midnightblue" stroke="midnightblue" points="150.39,-118.72 160.73,-116.4 151.21,-111.76 150.39,-118.72"/>
</g>
<!-- Node6 -->
<g id="node6" class="node">
<title>Node6</title>
<g id="a_node6"><a xlink:href="classbfl_1_1ParticleSet.html#a85950583083c2903f4235801cc03130c" target="_top" xlink:title=" ">
<polygon fill="white" stroke="black" points="328,-93.5 328,-112.5 437,-112.5 437,-93.5 328,-93.5"/>
<text text-anchor="middle" x="382.5" y="-100.5" font-family="Helvetica,sans-Serif" font-size="10.00">bfl::ParticleSet::state</text>
</a>
</g>
</g>
<!-- Node1&#45;&gt;Node6 -->
<g id="edge9" class="edge">
<title>Node1&#45;&gt;Node6</title>
<path fill="none" stroke="midnightblue" d="M125.19,-104.61C180.62,-104.26 261.69,-103.75 317.75,-103.4"/>
<polygon fill="midnightblue" stroke="midnightblue" points="317.93,-106.9 327.91,-103.34 317.89,-99.9 317.93,-106.9"/>
</g>
<!-- Node7 -->
<g id="node7" class="node">
<title>Node7</title>
<g id="a_node7"><a xlink:href="classbfl_1_1GaussianMixture.html#ada5625de6a3e2f98afb5aaa148503dad" target="_top" xlink:title=" ">
<polygon fill="white" stroke="black" points="329,-40 329,-70 436,-70 436,-40 329,-40"/>
<text text-anchor="start" x="337" y="-58" font-family="Helvetica,sans-Serif" font-size="10.00">bfl::GaussianMixture</text>
<text text-anchor="middle" x="382.5" y="-47" font-family="Helvetica,sans-Serif" font-size="10.00">::weight</text>
</a>
</g>
</g>
<!-- Node1&#45;&gt;Node7 -->
<g id="edge10" class="edge">
<title>Node1&#45;&gt;Node7</title>
<path fill="none" stroke="midnightblue" d="M125.19,-95.3C180.96,-86.53 262.69,-73.68 318.78,-64.86"/>
<polygon fill="midnightblue" stroke="midnightblue" points="319.6,-68.28 328.94,-63.26 318.52,-61.36 319.6,-68.28"/>
</g>
<!-- Node5&#45;&gt;Node2 -->
<g id="edge5" class="edge">
<title>Node5&#45;&gt;Node2</title>
<path fill="none" stroke="midnightblue" d="M246.33,-133.54C266.47,-143.7 299.39,-160.2 328,-174 331.79,-175.83 335.74,-177.71 339.71,-179.59"/>
<polygon fill="midnightblue" stroke="midnightblue" points="338.37,-182.83 348.9,-183.92 341.35,-176.5 338.37,-182.83"/>
</g>
<!-- Node5&#45;&gt;Node4 -->
<g id="edge6" class="edge">
<title>Node5&#45;&gt;Node4</title>
<path fill="none" stroke="midnightblue" d="M286.16,-133.52C296.72,-135.24 307.78,-137.03 318.46,-138.77"/>
<polygon fill="midnightblue" stroke="midnightblue" points="318.13,-142.26 328.56,-140.41 319.25,-135.35 318.13,-142.26"/>
</g>
<!-- Node5&#45;&gt;Node6 -->
<g id="edge7" class="edge">
<title>Node5&#45;&gt;Node6</title>
<path fill="none" stroke="midnightblue" d="M292.36,-115.15C300.78,-114.01 309.39,-112.83 317.79,-111.69"/>
<polygon fill="midnightblue" stroke="midnightblue" points="318.46,-115.13 327.89,-110.31 317.51,-108.19 318.46,-115.13"/>
</g>
<!-- Node5&#45;&gt;Node7 -->
<g id="edge8" class="edge">
<title>Node5&#45;&gt;Node7</title>
<path fill="none" stroke="midnightblue" d="M248.91,-114.41C272.03,-104.05 309.46,-87.28 338.67,-74.19"/>
<polygon fill="midnightblue" stroke="midnightblue" points="340.14,-77.37 347.83,-70.08 337.28,-70.98 340.14,-77.37"/>
</g>
</g>
</svg>
