<?xml version="1.0" encoding="UTF-8" standalone="no"?>
<!DOCTYPE svg PUBLIC "-//W3C//DTD SVG 1.1//EN"
 "http://www.w3.org/Graphics/SVG/1.1/DTD/svg11.dtd">
<!-- Generated by graphviz version 2.47.2 (0)
 -->
<!-- Title: bfl::SimulatedStateModel::bufferData Pages: 1 -->
<svg width="446pt" height="39pt"
 viewBox="0.00 0.00 446.00 39.00" xmlns="http://www.w3.org/2000/svg" xmlns:xlink="http://www.w3.org/1999/xlink">
<g id="graph0" class="graph" transform="scale(1 1) rotate(0) translate(4 35)">
<title>bfl::SimulatedStateModel::bufferData</title>
<polygon fill="white" stroke="transparent" points="-4,4 -4,-35 442,-35 442,4 -4,4"/>
<!-- Node1 -->
<g id="node1" class="node">
<title>Node1</title>
<g id="a_node1"><a xlink:title=" ">
<polygon fill="#bfbfbf" stroke="black" points="0,-0.5 0,-30.5 126,-30.5 126,-0.5 0,-0.5"/>
<text text-anchor="start" x="8" y="-18.5" font-family="Helvetica,sans-Serif" font-size="10.00">bfl::SimulatedStateModel</text>
<text text-anchor="middle" x="63" y="-7.5" font-family="Helvetica,sans-Serif" font-size="10.00">::bufferData</text>
</a>
</g>
</g>
<!-- Node2 -->
<g id="node2" class="node">
<title>Node2</title>
<g id="a_node2"><a xlink:href="classbfl_1_1SimulatedStateModel.html#aa022eb0d50d898ffcc831af2907265b2" target="_top" xlink:title=" ">
<polygon fill="white" stroke="black" points="162,-6 162,-25 307,-25 307,-6 162,-6"/>
<text text-anchor="middle" x="234.5" y="-13" font-family="Helvetica,sans-Serif" font-size="10.00">bfl::SimulatedStateModel::log</text>
</a>
</g>
</g>
<!-- Node1&#45;&gt;Node2 -->
<g id="edge1" class="edge">
<title>Node1&#45;&gt;Node2</title>
<path fill="none" stroke="midnightblue" d="M126.15,-15.5C134.51,-15.5 143.17,-15.5 151.8,-15.5"/>
<polygon fill="midnightblue" stroke="midnightblue" points="151.89,-19 161.89,-15.5 151.89,-12 151.89,-19"/>
</g>
<!-- Node3 -->
<g id="node3" class="node">
<title>Node3</title>
<g id="a_node3"><a xlink:href="classbfl_1_1Logger.html#a1033ff31398484f2132f84fd140da9e3" target="_top" xlink:title=" ">
<polygon fill="white" stroke="black" points="343,-6 343,-25 438,-25 438,-6 343,-6"/>
<text text-anchor="middle" x="390.5" y="-13" font-family="Helvetica,sans-Serif" font-size="10.00">bfl::Logger::logger</text>
</a>
</g>
</g>
<!-- Node2&#45;&gt;Node3 -->
<g id="edge2" class="edge">
<title>Node2&#45;&gt;Node3</title>
<path fill="none" stroke="midnightblue" d="M307.09,-15.5C315.6,-15.5 324.19,-15.5 332.45,-15.5"/>
<polygon fill="midnightblue" stroke="midnightblue" points="332.71,-19 342.71,-15.5 332.71,-12 332.71,-19"/>
</g>
</g>
</svg>
