<?xml version="1.0" encoding="UTF-8" standalone="no"?>
<!DOCTYPE svg PUBLIC "-//W3C//DTD SVG 1.1//EN"
 "http://www.w3.org/Graphics/SVG/1.1/DTD/svg11.dtd">
<!-- Generated by graphviz version 2.47.2 (0)
 -->
<!-- Title: bfl::SUKFCorrection::getLikelihood Pages: 1 -->
<svg width="453pt" height="39pt"
 viewBox="0.00 0.00 453.00 39.00" xmlns="http://www.w3.org/2000/svg" xmlns:xlink="http://www.w3.org/1999/xlink">
<g id="graph0" class="graph" transform="scale(1 1) rotate(0) translate(4 35)">
<title>bfl::SUKFCorrection::getLikelihood</title>
<polygon fill="white" stroke="transparent" points="-4,4 -4,-35 449,-35 449,4 -4,4"/>
<!-- Node1 -->
<g id="node1" class="node">
<title>Node1</title>
<g id="a_node1"><a xlink:title=" ">
<polygon fill="#bfbfbf" stroke="black" points="0,-0.5 0,-30.5 105,-30.5 105,-0.5 0,-0.5"/>
<text text-anchor="start" x="8" y="-18.5" font-family="Helvetica,sans-Serif" font-size="10.00">bfl::SUKFCorrection</text>
<text text-anchor="middle" x="52.5" y="-7.5" font-family="Helvetica,sans-Serif" font-size="10.00">::getLikelihood</text>
</a>
</g>
</g>
<!-- Node2 -->
<g id="node2" class="node">
<title>Node2</title>
<g id="a_node2"><a xlink:href="namespacebfl_1_1utils.html#a7016bf3419a1ba23378bedeeb1ff24b7" target="_top" xlink:title="Evaluate the logarithm of a multivariate Gaussian probability density function using the Sherman–Morr...">
<polygon fill="white" stroke="black" points="141,-0.5 141,-30.5 266,-30.5 266,-0.5 141,-0.5"/>
<text text-anchor="start" x="149" y="-18.5" font-family="Helvetica,sans-Serif" font-size="10.00">bfl::utils::multivariate</text>
<text text-anchor="middle" x="203.5" y="-7.5" font-family="Helvetica,sans-Serif" font-size="10.00">_gaussian_density_UVR</text>
</a>
</g>
</g>
<!-- Node1&#45;&gt;Node2 -->
<g id="edge1" class="edge">
<title>Node1&#45;&gt;Node2</title>
<path fill="none" stroke="midnightblue" d="M105.19,-15.5C113.47,-15.5 122.16,-15.5 130.81,-15.5"/>
<polygon fill="midnightblue" stroke="midnightblue" points="130.9,-19 140.9,-15.5 130.9,-12 130.9,-19"/>
</g>
<!-- Node3 -->
<g id="node3" class="node">
<title>Node3</title>
<g id="a_node3"><a xlink:href="namespacebfl_1_1utils.html#a3880bab35c7047e28c08f3f5dfeefd69" target="_top" xlink:title="Evaluate the logarithm of a multivariate Gaussian probability density function using the Sherman–Morr...">
<polygon fill="white" stroke="black" points="302,-0.5 302,-30.5 445,-30.5 445,-0.5 302,-0.5"/>
<text text-anchor="start" x="310" y="-18.5" font-family="Helvetica,sans-Serif" font-size="10.00">bfl::utils::multivariate</text>
<text text-anchor="middle" x="373.5" y="-7.5" font-family="Helvetica,sans-Serif" font-size="10.00">_gaussian_log_density_UVR</text>
</a>
</g>
</g>
<!-- Node2&#45;&gt;Node3 -->
<g id="edge2" class="edge">
<title>Node2&#45;&gt;Node3</title>
<path fill="none" stroke="midnightblue" d="M266.1,-15.5C274.45,-15.5 283.11,-15.5 291.73,-15.5"/>
<polygon fill="midnightblue" stroke="midnightblue" points="291.81,-19 301.81,-15.5 291.81,-12 291.81,-19"/>
</g>
</g>
</svg>
