<?xml version="1.0" encoding="UTF-8" standalone="no"?>
<!DOCTYPE svg PUBLIC "-//W3C//DTD SVG 1.1//EN"
 "http://www.w3.org/Graphics/SVG/1.1/DTD/svg11.dtd">
<!-- Generated by graphviz version 2.47.2 (0)
 -->
<!-- Title: bfl::UKFPrediction Pages: 1 -->
<svg width="252pt" height="196pt"
 viewBox="0.00 0.00 252.00 196.00" xmlns="http://www.w3.org/2000/svg" xmlns:xlink="http://www.w3.org/1999/xlink">
<g id="graph0" class="graph" transform="scale(1 1) rotate(0) translate(4 192)">
<title>bfl::UKFPrediction</title>
<polygon fill="white" stroke="transparent" points="-4,4 -4,-192 248,-192 248,4 -4,4"/>
<!-- Node1 -->
<g id="node1" class="node">
<title>Node1</title>
<g id="a_node1"><a xlink:title=" ">
<polygon fill="#bfbfbf" stroke="black" points="91.5,-0.5 91.5,-19.5 188.5,-19.5 188.5,-0.5 91.5,-0.5"/>
<text text-anchor="middle" x="140" y="-7.5" font-family="Helvetica,sans-Serif" font-size="10.00">bfl::UKFPrediction</text>
</a>
</g>
</g>
<!-- Node2 -->
<g id="node2" class="node">
<title>Node2</title>
<g id="a_node2"><a xlink:href="classbfl_1_1GaussianPrediction.html" target="_top" xlink:title=" ">
<polygon fill="white" stroke="black" points="81,-56.5 81,-75.5 199,-75.5 199,-56.5 81,-56.5"/>
<text text-anchor="middle" x="140" y="-63.5" font-family="Helvetica,sans-Serif" font-size="10.00">bfl::GaussianPrediction</text>
</a>
</g>
</g>
<!-- Node2&#45;&gt;Node1 -->
<g id="edge1" class="edge">
<title>Node2&#45;&gt;Node1</title>
<path fill="none" stroke="midnightblue" d="M140,-45.8C140,-36.91 140,-26.78 140,-19.75"/>
<polygon fill="midnightblue" stroke="midnightblue" points="136.5,-46.08 140,-56.08 143.5,-46.08 136.5,-46.08"/>
</g>
<!-- Node3 -->
<g id="node3" class="node">
<title>Node3</title>
<g id="a_node3"><a xlink:href="classbfl_1_1GaussianMixturePrediction.html" target="_top" xlink:title=" ">
<polygon fill="white" stroke="black" points="0,-112.5 0,-131.5 150,-131.5 150,-112.5 0,-112.5"/>
<text text-anchor="middle" x="75" y="-119.5" font-family="Helvetica,sans-Serif" font-size="10.00">bfl::GaussianMixturePrediction</text>
</a>
</g>
</g>
<!-- Node3&#45;&gt;Node2 -->
<g id="edge2" class="edge">
<title>Node3&#45;&gt;Node2</title>
<path fill="none" stroke="midnightblue" d="M93.27,-105.82C104.92,-96.15 119.6,-83.95 129.37,-75.83"/>
<polygon fill="midnightblue" stroke="midnightblue" points="90.9,-103.24 85.44,-112.32 95.37,-108.63 90.9,-103.24"/>
</g>
<!-- Node4 -->
<g id="node4" class="node">
<title>Node4</title>
<g id="a_node4"><a xlink:href="classbfl_1_1Skippable.html" target="_top" xlink:title=" ">
<polygon fill="white" stroke="black" points="168,-112.5 168,-131.5 244,-131.5 244,-112.5 168,-112.5"/>
<text text-anchor="middle" x="206" y="-119.5" font-family="Helvetica,sans-Serif" font-size="10.00">bfl::Skippable</text>
</a>
</g>
</g>
<!-- Node4&#45;&gt;Node2 -->
<g id="edge3" class="edge">
<title>Node4&#45;&gt;Node2</title>
<path fill="none" stroke="midnightblue" d="M187.45,-105.82C175.62,-96.15 160.71,-83.95 150.8,-75.83"/>
<polygon fill="midnightblue" stroke="midnightblue" points="185.44,-108.7 195.4,-112.32 189.87,-103.28 185.44,-108.7"/>
</g>
<!-- Node5 -->
<g id="node5" class="node">
<title>Node5</title>
<g id="a_node5"><a xlink:href="classbfl_1_1Skipper.html" target="_top" xlink:title=" ">
<polygon fill="white" stroke="black" points="173,-168.5 173,-187.5 239,-187.5 239,-168.5 173,-168.5"/>
<text text-anchor="middle" x="206" y="-175.5" font-family="Helvetica,sans-Serif" font-size="10.00">bfl::Skipper</text>
</a>
</g>
</g>
<!-- Node5&#45;&gt;Node4 -->
<g id="edge4" class="edge">
<title>Node5&#45;&gt;Node4</title>
<path fill="none" stroke="midnightblue" d="M206,-157.8C206,-148.91 206,-138.78 206,-131.75"/>
<polygon fill="midnightblue" stroke="midnightblue" points="202.5,-158.08 206,-168.08 209.5,-158.08 202.5,-158.08"/>
</g>
</g>
</svg>
