<?xml version="1.0" encoding="UTF-8" standalone="no"?>
<!DOCTYPE svg PUBLIC "-//W3C//DTD SVG 1.1//EN"
 "http://www.w3.org/Graphics/SVG/1.1/DTD/svg11.dtd">
<!-- Generated by graphviz version 2.47.2 (0)
 -->
<!-- Title: /home/xenvre/robot&#45;code/bfl_robotology/src/BayesFilters/src Pages: 1 -->
<svg width="95pt" height="167pt"
 viewBox="0.00 0.00 95.00 167.00" xmlns="http://www.w3.org/2000/svg" xmlns:xlink="http://www.w3.org/1999/xlink">
<g id="graph0" class="graph" transform="scale(1 1) rotate(0) translate(4 163)">
<title>/home/xenvre/robot&#45;code/bfl_robotology/src/BayesFilters/src</title>
<polygon fill="white" stroke="transparent" points="-4,4 -4,-163 91,-163 91,4 -4,4"/>
<g id="clust1" class="cluster">
<title>clusterdir_2241471e9eadb441faa409a32682273a</title>
<g id="a_clust1"><a xlink:href="dir_2241471e9eadb441faa409a32682273a.html" target="_top" xlink:title="BayesFilters">
<polygon fill="#ddddee" stroke="black" points="8,-8 8,-151 79,-151 79,-8 8,-8"/>
<text text-anchor="middle" x="43.5" y="-139" font-family="Helvetica,sans-Serif" font-size="10.00">BayesFilters</text>
</a>
</g>
</g>
<!-- dir_72bbe13a2fb85c634f60240cfcc5a45f -->
<g id="node1" class="node">
<title>dir_72bbe13a2fb85c634f60240cfcc5a45f</title>
<g id="a_node1"><a xlink:href="dir_72bbe13a2fb85c634f60240cfcc5a45f.html" target="_top" xlink:title="include">
<polygon fill="white" stroke="red" points="70,-52 16,-52 16,-16 70,-16 70,-52"/>
<text text-anchor="middle" x="43" y="-31.5" font-family="Helvetica,sans-Serif" font-size="10.00">include</text>
</a>
</g>
</g>
<!-- dir_6829d6f0b9da600532ec29a78b3850ba -->
<g id="node2" class="node">
<title>dir_6829d6f0b9da600532ec29a78b3850ba</title>
<g id="a_node2"><a xlink:href="dir_6829d6f0b9da600532ec29a78b3850ba.html" target="_top" xlink:title="src">
<polygon fill="#eeeeff" stroke="black" points="70,-124 16,-124 16,-88 70,-88 70,-124"/>
<text text-anchor="middle" x="43" y="-103.5" font-family="Helvetica,sans-Serif" font-size="10.00">src</text>
</a>
</g>
</g>
<!-- dir_6829d6f0b9da600532ec29a78b3850ba&#45;&gt;dir_72bbe13a2fb85c634f60240cfcc5a45f -->
<g id="edge1" class="edge">
<title>dir_6829d6f0b9da600532ec29a78b3850ba&#45;&gt;dir_72bbe13a2fb85c634f60240cfcc5a45f</title>
<path fill="none" stroke="black" d="M43,-87.7C43,-79.98 43,-70.71 43,-62.11"/>
<polygon fill="black" stroke="black" points="46.5,-62.1 43,-52.1 39.5,-62.1 46.5,-62.1"/>
<g id="a_edge1&#45;headlabel"><a xlink:href="dir_000005_000003.html" target="_top" xlink:title="58">
<text text-anchor="middle" x="49.34" y="-63.2" font-family="Helvetica,sans-Serif" font-size="10.00">58</text>
</a>
</g>
</g>
</g>
</svg>
