<?xml version="1.0" encoding="UTF-8" standalone="no"?>
<!DOCTYPE svg PUBLIC "-//W3C//DTD SVG 1.1//EN"
 "http://www.w3.org/Graphics/SVG/1.1/DTD/svg11.dtd">
<!-- Generated by graphviz version 2.43.0 (0)
 -->
<!-- Title: /home/user/bayes&#45;filters&#45;lib/src/BayesFilters/src Pages: 1 -->
<svg width="101pt" height="151pt"
 viewBox="0.00 0.00 101.00 151.00" xmlns="http://www.w3.org/2000/svg" xmlns:xlink="http://www.w3.org/1999/xlink">
<g id="graph0" class="graph" transform="scale(1 1) rotate(0) translate(4 147)">
<title>/home/user/bayes&#45;filters&#45;lib/src/BayesFilters/src</title>
<polygon fill="white" stroke="transparent" points="-4,4 -4,-147 97,-147 97,4 -4,4"/>
<g id="clust1" class="cluster">
<title>clusterdir_2241471e9eadb441faa409a32682273a</title>
<g id="a_clust1"><a xlink:href="dir_2241471e9eadb441faa409a32682273a.html" target="_top" xlink:title="BayesFilters">
<polygon fill="#ddddee" stroke="black" points="8,-64 8,-135 85,-135 85,-64 8,-64"/>
<text text-anchor="middle" x="46.5" y="-123" font-family="Helvetica,sans-Serif" font-size="10.00">BayesFilters</text>
</a>
</g>
</g>
<!-- dir_6829d6f0b9da600532ec29a78b3850ba -->
<g id="node1" class="node">
<title>dir_6829d6f0b9da600532ec29a78b3850ba</title>
<g id="a_node1"><a xlink:href="dir_6829d6f0b9da600532ec29a78b3850ba.html" target="_top" xlink:title="src">
<polygon fill="#eeeeff" stroke="black" points="73,-108 19,-108 19,-72 73,-72 73,-108"/>
<text text-anchor="middle" x="46" y="-87.5" font-family="Helvetica,sans-Serif" font-size="10.00">src</text>
</a>
</g>
</g>
<!-- dir_72bbe13a2fb85c634f60240cfcc5a45f -->
<g id="node2" class="node">
<title>dir_72bbe13a2fb85c634f60240cfcc5a45f</title>
<g id="a_node2"><a xlink:href="dir_72bbe13a2fb85c634f60240cfcc5a45f.html" target="_top" xlink:title="include">
<polygon fill="white" stroke="red" points="73,-36 19,-36 19,0 73,0 73,-36"/>
<text text-anchor="middle" x="46" y="-15.5" font-family="Helvetica,sans-Serif" font-size="10.00">include</text>
</a>
</g>
</g>
<!-- dir_6829d6f0b9da600532ec29a78b3850ba&#45;&gt;dir_72bbe13a2fb85c634f60240cfcc5a45f -->
<g id="edge1" class="edge">
<title>dir_6829d6f0b9da600532ec29a78b3850ba&#45;&gt;dir_72bbe13a2fb85c634f60240cfcc5a45f</title>
<path fill="none" stroke="black" d="M46,-71.7C46,-63.98 46,-54.71 46,-46.11"/>
<polygon fill="black" stroke="black" points="49.5,-46.1 46,-36.1 42.5,-46.1 49.5,-46.1"/>
<g id="a_edge1&#45;headlabel"><a xlink:href="dir_000005_000003.html" target="_top" xlink:title="61">
<text text-anchor="middle" x="52.34" y="-47.2" font-family="Helvetica,sans-Serif" font-size="10.00">61</text>
</a>
</g>
</g>
</g>
</svg>
