<?xml version="1.0" encoding="UTF-8" standalone="no"?>
<!DOCTYPE svg PUBLIC "-//W3C//DTD SVG 1.1//EN"
 "http://www.w3.org/Graphics/SVG/1.1/DTD/svg11.dtd">
<!-- Generated by graphviz version 2.43.0 (0)
 -->
<!-- Title: /home/user/bayes&#45;filters&#45;lib/src/BayesFilters/include/BayesFilters/directional_statistics.h Pages: 1 -->
<svg width="612pt" height="128pt"
 viewBox="0.00 0.00 612.00 128.00" xmlns="http://www.w3.org/2000/svg" xmlns:xlink="http://www.w3.org/1999/xlink">
<g id="graph0" class="graph" transform="scale(1 1) rotate(0) translate(4 124)">
<title>/home/user/bayes&#45;filters&#45;lib/src/BayesFilters/include/BayesFilters/directional_statistics.h</title>
<polygon fill="white" stroke="transparent" points="-4,4 -4,-124 608,-124 608,4 -4,4"/>
<!-- Node1 -->
<g id="node1" class="node">
<title>Node1</title>
<g id="a_node1"><a xlink:title=" ">
<polygon fill="#bfbfbf" stroke="black" points="209,-78.5 209,-119.5 402,-119.5 402,-78.5 209,-78.5"/>
<text text-anchor="start" x="217" y="-107.5" font-family="Helvetica,sans-Serif" font-size="10.00">/home/user/bayes&#45;filters</text>
<text text-anchor="start" x="217" y="-96.5" font-family="Helvetica,sans-Serif" font-size="10.00">&#45;lib/src/BayesFilters/include</text>
<text text-anchor="middle" x="305.5" y="-85.5" font-family="Helvetica,sans-Serif" font-size="10.00">/BayesFilters/directional_statistics.h</text>
</a>
</g>
</g>
<!-- Node2 -->
<g id="node2" class="node">
<title>Node2</title>
<g id="a_node2"><a xlink:href="directional__statistics_8cpp.html" target="_top" xlink:title=" ">
<polygon fill="white" stroke="black" points="0,-0.5 0,-41.5 141,-41.5 141,-0.5 0,-0.5"/>
<text text-anchor="start" x="8" y="-29.5" font-family="Helvetica,sans-Serif" font-size="10.00">/home/user/bayes&#45;filters</text>
<text text-anchor="start" x="8" y="-18.5" font-family="Helvetica,sans-Serif" font-size="10.00">&#45;lib/src/BayesFilters/src</text>
<text text-anchor="middle" x="70.5" y="-7.5" font-family="Helvetica,sans-Serif" font-size="10.00">/directional_statistics.cpp</text>
</a>
</g>
</g>
<!-- Node1&#45;&gt;Node2 -->
<g id="edge1" class="edge">
<title>Node1&#45;&gt;Node2</title>
<path fill="none" stroke="midnightblue" d="M235.32,-75.3C202.06,-64.55 162.72,-51.82 130.81,-41.51"/>
<polygon fill="midnightblue" stroke="midnightblue" points="234.39,-78.68 244.98,-78.43 236.54,-72.02 234.39,-78.68"/>
</g>
<!-- Node3 -->
<g id="node3" class="node">
<title>Node3</title>
<g id="a_node3"><a xlink:href="EstimatesExtraction_8cpp.html" target="_top" xlink:title=" ">
<polygon fill="white" stroke="black" points="159.5,-0.5 159.5,-41.5 297.5,-41.5 297.5,-0.5 159.5,-0.5"/>
<text text-anchor="start" x="167.5" y="-29.5" font-family="Helvetica,sans-Serif" font-size="10.00">/home/user/bayes&#45;filters</text>
<text text-anchor="start" x="167.5" y="-18.5" font-family="Helvetica,sans-Serif" font-size="10.00">&#45;lib/src/BayesFilters/src</text>
<text text-anchor="middle" x="228.5" y="-7.5" font-family="Helvetica,sans-Serif" font-size="10.00">/EstimatesExtraction.cpp</text>
</a>
</g>
</g>
<!-- Node1&#45;&gt;Node3 -->
<g id="edge2" class="edge">
<title>Node1&#45;&gt;Node3</title>
<path fill="none" stroke="midnightblue" d="M278.35,-71.2C268.43,-61.42 257.41,-50.54 248.26,-41.51"/>
<polygon fill="midnightblue" stroke="midnightblue" points="276.09,-73.89 285.67,-78.43 281.01,-68.91 276.09,-73.89"/>
</g>
<!-- Node4 -->
<g id="node4" class="node">
<title>Node4</title>
<g id="a_node4"><a xlink:href="sigma__point_8cpp.html" target="_top" xlink:title=" ">
<polygon fill="white" stroke="black" points="316,-0.5 316,-41.5 451,-41.5 451,-0.5 316,-0.5"/>
<text text-anchor="start" x="324" y="-29.5" font-family="Helvetica,sans-Serif" font-size="10.00">/home/user/bayes&#45;filters</text>
<text text-anchor="start" x="324" y="-18.5" font-family="Helvetica,sans-Serif" font-size="10.00">&#45;lib/src/BayesFilters/src</text>
<text text-anchor="middle" x="383.5" y="-7.5" font-family="Helvetica,sans-Serif" font-size="10.00">/sigma_point.cpp</text>
</a>
</g>
</g>
<!-- Node1&#45;&gt;Node4 -->
<g id="edge3" class="edge">
<title>Node1&#45;&gt;Node4</title>
<path fill="none" stroke="midnightblue" d="M333,-71.2C343.05,-61.42 354.21,-50.54 363.48,-41.51"/>
<polygon fill="midnightblue" stroke="midnightblue" points="330.31,-68.94 325.59,-78.43 335.19,-73.96 330.31,-68.94"/>
</g>
<!-- Node5 -->
<g id="node5" class="node">
<title>Node5</title>
<g id="a_node5"><a xlink:href="SUKFCorrection_8cpp.html" target="_top" xlink:title=" ">
<polygon fill="white" stroke="black" points="469,-0.5 469,-41.5 604,-41.5 604,-0.5 469,-0.5"/>
<text text-anchor="start" x="477" y="-29.5" font-family="Helvetica,sans-Serif" font-size="10.00">/home/user/bayes&#45;filters</text>
<text text-anchor="start" x="477" y="-18.5" font-family="Helvetica,sans-Serif" font-size="10.00">&#45;lib/src/BayesFilters/src</text>
<text text-anchor="middle" x="536.5" y="-7.5" font-family="Helvetica,sans-Serif" font-size="10.00">/SUKFCorrection.cpp</text>
</a>
</g>
</g>
<!-- Node1&#45;&gt;Node5 -->
<g id="edge4" class="edge">
<title>Node1&#45;&gt;Node5</title>
<path fill="none" stroke="midnightblue" d="M374.91,-75.17C407.52,-64.44 445.99,-51.78 477.21,-41.51"/>
<polygon fill="midnightblue" stroke="midnightblue" points="373.39,-71.98 364.99,-78.43 375.58,-78.63 373.39,-71.98"/>
</g>
</g>
</svg>
