<?xml version="1.0" encoding="UTF-8" standalone="no"?>
<!DOCTYPE svg PUBLIC "-//W3C//DTD SVG 1.1//EN"
 "http://www.w3.org/Graphics/SVG/1.1/DTD/svg11.dtd">
<!-- Generated by graphviz version 2.43.0 (0)
 -->
<!-- Title: /home/user/bayes&#45;filters&#45;lib/src/BayesFilters/include/BayesFilters/DrawParticles.h Pages: 1 -->
<!--zoomable 386 -->
<svg id="main" version="1.1" xmlns="http://www.w3.org/2000/svg" xmlns:xlink="http://www.w3.org/1999/xlink" xml:space="preserve" onload="init(evt)">
<style type="text/css"><![CDATA[
.edge:hover path { stroke: red; }
.edge:hover polygon { stroke: red; fill: red; }
]]></style>
<script type="text/javascript"><![CDATA[
var edges = document.getElementsByTagName('g');
if (edges && edges.length) {
  for (var i=0;i<edges.length;i++) {
    if (edges[i].id.substr(0,4)=='edge') {
      edges[i].setAttribute('class','edge');
    }
  }
}
]]></script>
        <defs>
                <circle id="rim" cx="0" cy="0" r="7"/>
                <circle id="rim2" cx="0" cy="0" r="3.5"/>
                <g id="zoomPlus">
                        <use xlink:href="#rim" fill="#404040">
                                <set attributeName="fill" to="#808080" begin="zoomplus.mouseover" end="zoomplus.mouseout"/>
                        </use>
                        <path d="M-4,0h8M0,-4v8" fill="none" stroke="white" stroke-width="1.5" pointer-events="none"/>
                </g>
                <g id="zoomMin">
                        <use xlink:href="#rim" fill="#404040">
                                <set attributeName="fill" to="#808080" begin="zoomminus.mouseover" end="zoomminus.mouseout"/>
                        </use>
                        <path d="M-4,0h8" fill="none" stroke="white" stroke-width="1.5" pointer-events="none"/>
                </g>
                <g id="dirArrow">
                        <path fill="none" stroke="white" stroke-width="1.5" d="M0,-3.0v7 M-2.5,-0.5L0,-3.0L2.5,-0.5"/>
                </g>
               <g id="resetDef">
                       <use xlink:href="#rim2" fill="#404040">
                               <set attributeName="fill" to="#808080" begin="reset.mouseover" end="reset.mouseout"/>
                       </use>
               </g>
        </defs>

<script type="text/javascript">
var viewWidth = 764;
var viewHeight = 386;
var sectionId = 'dynsection-0';
</script>
<script xlink:href="svgpan.js"/>
<svg id="graph" class="graph">
<g id="viewport">
<title>/home/user/bayes&#45;filters&#45;lib/src/BayesFilters/include/BayesFilters/DrawParticles.h</title>
<polygon fill="white" stroke="transparent" points="-4,4 -4,-382 759.91,-382 759.91,4 -4,4"/>
<!-- Node1 -->
<g id="node1" class="node">
<title>Node1</title>
<g id="a_node1"><a xlink:title=" ">
<polygon fill="#bfbfbf" stroke="black" points="178.91,-336.5 178.91,-377.5 336.91,-377.5 336.91,-336.5 178.91,-336.5"/>
<text text-anchor="start" x="186.91" y="-365.5" font-family="Helvetica,sans-Serif" font-size="10.00">/home/user/bayes&#45;filters</text>
<text text-anchor="start" x="186.91" y="-354.5" font-family="Helvetica,sans-Serif" font-size="10.00">&#45;lib/src/BayesFilters/include</text>
<text text-anchor="middle" x="257.91" y="-343.5" font-family="Helvetica,sans-Serif" font-size="10.00">/BayesFilters/DrawParticles.h</text>
</a>
</g>
</g>
<!-- Node2 -->
<g id="node2" class="node">
<title>Node2</title>
<g id="a_node2"><a xlink:href="ParticleSet_8h.html" target="_top" xlink:title=" ">
<polygon fill="white" stroke="black" points="36.91,-224.5 36.91,-243.5 176.91,-243.5 176.91,-224.5 36.91,-224.5"/>
<text text-anchor="middle" x="106.91" y="-231.5" font-family="Helvetica,sans-Serif" font-size="10.00">BayesFilters/ParticleSet.h</text>
</a>
</g>
</g>
<!-- Node1&#45;&gt;Node2 -->
<g id="edge1" class="edge">
<title>Node1&#45;&gt;Node2</title>
<path fill="none" stroke="midnightblue" d="M233.32,-336.29C203.15,-312.12 152.7,-271.69 125.55,-249.94"/>
<polygon fill="midnightblue" stroke="midnightblue" points="127.61,-247.1 117.61,-243.57 123.23,-252.56 127.61,-247.1"/>
</g>
<!-- Node6 -->
<g id="node6" class="node">
<title>Node6</title>
<g id="a_node6"><a xlink:href="PFPrediction_8h.html" target="_top" xlink:title=" ">
<polygon fill="white" stroke="black" points="289.41,-280.5 289.41,-299.5 438.41,-299.5 438.41,-280.5 289.41,-280.5"/>
<text text-anchor="middle" x="363.91" y="-287.5" font-family="Helvetica,sans-Serif" font-size="10.00">BayesFilters/PFPrediction.h</text>
</a>
</g>
</g>
<!-- Node1&#45;&gt;Node6 -->
<g id="edge6" class="edge">
<title>Node1&#45;&gt;Node6</title>
<path fill="none" stroke="midnightblue" d="M289.72,-336.5C306.28,-326.34 326.15,-314.16 341.16,-304.95"/>
<polygon fill="midnightblue" stroke="midnightblue" points="343.11,-307.86 349.8,-299.65 339.45,-301.9 343.11,-307.86"/>
</g>
<!-- Node3 -->
<g id="node3" class="node">
<title>Node3</title>
<g id="a_node3"><a xlink:href="GaussianMixture_8h.html" target="_top" xlink:title=" ">
<polygon fill="white" stroke="black" points="13.41,-168.5 13.41,-187.5 184.41,-187.5 184.41,-168.5 13.41,-168.5"/>
<text text-anchor="middle" x="98.91" y="-175.5" font-family="Helvetica,sans-Serif" font-size="10.00">BayesFilters/GaussianMixture.h</text>
</a>
</g>
</g>
<!-- Node2&#45;&gt;Node3 -->
<g id="edge2" class="edge">
<title>Node2&#45;&gt;Node3</title>
<path fill="none" stroke="midnightblue" d="M105.59,-224.08C104.53,-216.93 103.01,-206.64 101.68,-197.69"/>
<polygon fill="midnightblue" stroke="midnightblue" points="105.14,-197.13 100.21,-187.75 98.21,-198.16 105.14,-197.13"/>
</g>
<!-- Node4 -->
<g id="node4" class="node">
<title>Node4</title>
<g id="a_node4"><a xlink:title=" ">
<polygon fill="white" stroke="#bfbfbf" points="11.41,-112.5 11.41,-131.5 58.41,-131.5 58.41,-112.5 11.41,-112.5"/>
<text text-anchor="middle" x="34.91" y="-119.5" font-family="Helvetica,sans-Serif" font-size="10.00">vector</text>
</a>
</g>
</g>
<!-- Node2&#45;&gt;Node4 -->
<g id="edge5" class="edge">
<title>Node2&#45;&gt;Node4</title>
<path fill="none" stroke="midnightblue" d="M59.58,-224.42C38.81,-218.05 16.36,-207.02 3.91,-188 -6.29,-172.41 5.9,-152.93 17.86,-139.39"/>
<polygon fill="midnightblue" stroke="midnightblue" points="20.72,-141.46 25.08,-131.81 15.65,-136.63 20.72,-141.46"/>
</g>
<!-- Node3&#45;&gt;Node4 -->
<g id="edge3" class="edge">
<title>Node3&#45;&gt;Node4</title>
<path fill="none" stroke="midnightblue" d="M88.63,-168.32C79.08,-160.26 64.63,-148.08 53.13,-138.37"/>
<polygon fill="midnightblue" stroke="midnightblue" points="55.28,-135.61 45.38,-131.83 50.77,-140.96 55.28,-135.61"/>
</g>
<!-- Node5 -->
<g id="node5" class="node">
<title>Node5</title>
<g id="a_node5"><a xlink:title=" ">
<polygon fill="white" stroke="#bfbfbf" points="214.41,-56.5 214.41,-75.5 291.41,-75.5 291.41,-56.5 214.41,-56.5"/>
<text text-anchor="middle" x="252.91" y="-63.5" font-family="Helvetica,sans-Serif" font-size="10.00">Eigen/Dense</text>
</a>
</g>
</g>
<!-- Node3&#45;&gt;Node5 -->
<g id="edge4" class="edge">
<title>Node3&#45;&gt;Node5</title>
<path fill="none" stroke="midnightblue" d="M109.08,-168.16C124.12,-155.24 153.39,-130.71 179.91,-112 195.78,-100.81 214.43,-89.34 228.91,-80.78"/>
<polygon fill="midnightblue" stroke="midnightblue" points="230.88,-83.68 237.75,-75.61 227.35,-77.64 230.88,-83.68"/>
</g>
<!-- Node6&#45;&gt;Node2 -->
<g id="edge15" class="edge">
<title>Node6&#45;&gt;Node2</title>
<path fill="none" stroke="midnightblue" d="M323.19,-280.44C278.26,-271 205.92,-255.8 157.41,-245.61"/>
<polygon fill="midnightblue" stroke="midnightblue" points="157.95,-242.15 147.45,-243.52 156.51,-249 157.95,-242.15"/>
</g>
<!-- Node6&#45;&gt;Node5 -->
<g id="edge23" class="edge">
<title>Node6&#45;&gt;Node5</title>
<path fill="none" stroke="midnightblue" d="M350.4,-280.45C318.97,-259.64 241.46,-202.86 212.91,-132 205.63,-113.92 219.93,-95.15 233.41,-82.46"/>
<polygon fill="midnightblue" stroke="midnightblue" points="235.87,-84.96 241.08,-75.74 231.25,-79.69 235.87,-84.96"/>
</g>
<!-- Node7 -->
<g id="node7" class="node">
<title>Node7</title>
<g id="a_node7"><a xlink:href="ExogenousModel_8h.html" target="_top" xlink:title=" ">
<polygon fill="white" stroke="black" points="278.41,-168.5 278.41,-187.5 449.41,-187.5 449.41,-168.5 278.41,-168.5"/>
<text text-anchor="middle" x="363.91" y="-175.5" font-family="Helvetica,sans-Serif" font-size="10.00">BayesFilters/ExogenousModel.h</text>
</a>
</g>
</g>
<!-- Node6&#45;&gt;Node7 -->
<g id="edge7" class="edge">
<title>Node6&#45;&gt;Node7</title>
<path fill="none" stroke="midnightblue" d="M363.91,-280.37C363.91,-262.62 363.91,-221.67 363.91,-197.6"/>
<polygon fill="midnightblue" stroke="midnightblue" points="367.41,-197.59 363.91,-187.59 360.41,-197.59 367.41,-197.59"/>
</g>
<!-- Node13 -->
<g id="node13" class="node">
<title>Node13</title>
<g id="a_node13"><a xlink:title=" ">
<polygon fill="white" stroke="#bfbfbf" points="687.91,-0.5 687.91,-19.5 731.91,-19.5 731.91,-0.5 687.91,-0.5"/>
<text text-anchor="middle" x="709.91" y="-7.5" font-family="Helvetica,sans-Serif" font-size="10.00">string</text>
</a>
</g>
</g>
<!-- Node6&#45;&gt;Node13 -->
<g id="edge25" class="edge">
<title>Node6&#45;&gt;Node13</title>
<path fill="none" stroke="midnightblue" d="M438.57,-283.31C552.3,-272.56 755.91,-244.21 755.91,-179 755.91,-179 755.91,-179 755.91,-121 755.91,-85.82 735.64,-48.86 722.01,-28"/>
<polygon fill="midnightblue" stroke="midnightblue" points="724.82,-25.92 716.31,-19.61 719.03,-29.85 724.82,-25.92"/>
</g>
<!-- Node14 -->
<g id="node14" class="node">
<title>Node14</title>
<g id="a_node14"><a xlink:href="StateModel_8h.html" target="_top" xlink:title=" ">
<polygon fill="white" stroke="black" points="400.91,-224.5 400.91,-243.5 544.91,-243.5 544.91,-224.5 400.91,-224.5"/>
<text text-anchor="middle" x="472.91" y="-231.5" font-family="Helvetica,sans-Serif" font-size="10.00">BayesFilters/StateModel.h</text>
</a>
</g>
</g>
<!-- Node6&#45;&gt;Node14 -->
<g id="edge16" class="edge">
<title>Node6&#45;&gt;Node14</title>
<path fill="none" stroke="midnightblue" d="M381.43,-280.32C398.99,-271.62 426.24,-258.12 446.44,-248.11"/>
<polygon fill="midnightblue" stroke="midnightblue" points="448.04,-251.23 455.44,-243.65 444.93,-244.96 448.04,-251.23"/>
</g>
<!-- Node16 -->
<g id="node16" class="node">
<title>Node16</title>
<g id="a_node16"><a xlink:title=" ">
<polygon fill="white" stroke="#bfbfbf" points="543.91,-168.5 543.91,-187.5 601.91,-187.5 601.91,-168.5 543.91,-168.5"/>
<text text-anchor="middle" x="572.91" y="-175.5" font-family="Helvetica,sans-Serif" font-size="10.00">memory</text>
</a>
</g>
</g>
<!-- Node6&#45;&gt;Node16 -->
<g id="edge24" class="edge">
<title>Node6&#45;&gt;Node16</title>
<path fill="none" stroke="midnightblue" d="M430.54,-280.42C477.91,-273.03 536.15,-260.86 553.91,-244 566.43,-232.12 570.84,-212.5 572.32,-197.91"/>
<polygon fill="midnightblue" stroke="midnightblue" points="575.84,-197.75 572.99,-187.54 568.85,-197.3 575.84,-197.75"/>
</g>
<!-- Node8 -->
<g id="node8" class="node">
<title>Node8</title>
<g id="a_node8"><a xlink:href="ExogenousProcess_8h.html" target="_top" xlink:title=" ">
<polygon fill="white" stroke="black" points="222.41,-112.5 222.41,-131.5 401.41,-131.5 401.41,-112.5 222.41,-112.5"/>
<text text-anchor="middle" x="311.91" y="-119.5" font-family="Helvetica,sans-Serif" font-size="10.00">BayesFilters/ExogenousProcess.h</text>
</a>
</g>
</g>
<!-- Node7&#45;&gt;Node8 -->
<g id="edge8" class="edge">
<title>Node7&#45;&gt;Node8</title>
<path fill="none" stroke="midnightblue" d="M355.33,-168.08C347.75,-160.22 336.54,-148.57 327.4,-139.08"/>
<polygon fill="midnightblue" stroke="midnightblue" points="329.8,-136.53 320.34,-131.75 324.76,-141.38 329.8,-136.53"/>
</g>
<!-- Node11 -->
<g id="node11" class="node">
<title>Node11</title>
<g id="a_node11"><a xlink:href="Skippable_8h.html" target="_top" xlink:title=" ">
<polygon fill="white" stroke="black" points="590.41,-112.5 590.41,-131.5 727.41,-131.5 727.41,-112.5 590.41,-112.5"/>
<text text-anchor="middle" x="658.91" y="-119.5" font-family="Helvetica,sans-Serif" font-size="10.00">BayesFilters/Skippable.h</text>
</a>
</g>
</g>
<!-- Node7&#45;&gt;Node11 -->
<g id="edge12" class="edge">
<title>Node7&#45;&gt;Node11</title>
<path fill="none" stroke="midnightblue" d="M410.66,-168.44C462.66,-158.92 546.66,-143.55 602.34,-133.36"/>
<polygon fill="midnightblue" stroke="midnightblue" points="603.18,-136.76 612.39,-131.52 601.92,-129.87 603.18,-136.76"/>
</g>
<!-- Node8&#45;&gt;Node5 -->
<g id="edge11" class="edge">
<title>Node8&#45;&gt;Node5</title>
<path fill="none" stroke="midnightblue" d="M302.43,-112.32C293.71,-104.34 280.57,-92.31 270.02,-82.65"/>
<polygon fill="midnightblue" stroke="midnightblue" points="272.3,-80 262.57,-75.83 267.58,-85.17 272.3,-80"/>
</g>
<!-- Node9 -->
<g id="node9" class="node">
<title>Node9</title>
<g id="a_node9"><a xlink:href="VectorDescription_8h.html" target="_top" xlink:title=" ">
<polygon fill="white" stroke="black" points="359.41,-56.5 359.41,-75.5 534.41,-75.5 534.41,-56.5 359.41,-56.5"/>
<text text-anchor="middle" x="446.91" y="-63.5" font-family="Helvetica,sans-Serif" font-size="10.00">BayesFilters/VectorDescription.h</text>
</a>
</g>
</g>
<!-- Node8&#45;&gt;Node9 -->
<g id="edge9" class="edge">
<title>Node8&#45;&gt;Node9</title>
<path fill="none" stroke="midnightblue" d="M333.3,-112.44C355.62,-103.52 390.82,-89.44 416.12,-79.32"/>
<polygon fill="midnightblue" stroke="midnightblue" points="417.64,-82.48 425.62,-75.52 415.04,-75.98 417.64,-82.48"/>
</g>
<!-- Node10 -->
<g id="node10" class="node">
<title>Node10</title>
<g id="a_node10"><a xlink:title=" ">
<polygon fill="white" stroke="#bfbfbf" points="420.41,-0.5 420.41,-19.5 473.41,-19.5 473.41,-0.5 420.41,-0.5"/>
<text text-anchor="middle" x="446.91" y="-7.5" font-family="Helvetica,sans-Serif" font-size="10.00">cstddef</text>
</a>
</g>
</g>
<!-- Node9&#45;&gt;Node10 -->
<g id="edge10" class="edge">
<title>Node9&#45;&gt;Node10</title>
<path fill="none" stroke="midnightblue" d="M446.91,-56.08C446.91,-49.01 446.91,-38.86 446.91,-29.99"/>
<polygon fill="midnightblue" stroke="midnightblue" points="450.41,-29.75 446.91,-19.75 443.41,-29.75 450.41,-29.75"/>
</g>
<!-- Node12 -->
<g id="node12" class="node">
<title>Node12</title>
<g id="a_node12"><a xlink:href="Skipper_8h.html" target="_top" xlink:title=" ">
<polygon fill="white" stroke="black" points="599.41,-56.5 599.41,-75.5 724.41,-75.5 724.41,-56.5 599.41,-56.5"/>
<text text-anchor="middle" x="661.91" y="-63.5" font-family="Helvetica,sans-Serif" font-size="10.00">BayesFilters/Skipper.h</text>
</a>
</g>
</g>
<!-- Node11&#45;&gt;Node12 -->
<g id="edge13" class="edge">
<title>Node11&#45;&gt;Node12</title>
<path fill="none" stroke="midnightblue" d="M659.41,-112.08C659.8,-105.01 660.37,-94.86 660.86,-85.99"/>
<polygon fill="midnightblue" stroke="midnightblue" points="664.37,-85.93 661.43,-75.75 657.38,-85.54 664.37,-85.93"/>
</g>
<!-- Node12&#45;&gt;Node13 -->
<g id="edge14" class="edge">
<title>Node12&#45;&gt;Node13</title>
<path fill="none" stroke="midnightblue" d="M669.84,-56.08C676.76,-48.3 686.98,-36.8 695.37,-27.37"/>
<polygon fill="midnightblue" stroke="midnightblue" points="698.11,-29.55 702.13,-19.75 692.87,-24.9 698.11,-29.55"/>
</g>
<!-- Node14&#45;&gt;Node7 -->
<g id="edge17" class="edge">
<title>Node14&#45;&gt;Node7</title>
<path fill="none" stroke="midnightblue" d="M455.4,-224.32C437.84,-215.62 410.58,-202.12 390.38,-192.11"/>
<polygon fill="midnightblue" stroke="midnightblue" points="391.9,-188.96 381.38,-187.65 388.79,-195.23 391.9,-188.96"/>
</g>
<!-- Node14&#45;&gt;Node11 -->
<g id="edge18" class="edge">
<title>Node14&#45;&gt;Node11</title>
<path fill="none" stroke="midnightblue" d="M479.17,-224.19C489.37,-210.41 510.89,-183.69 534.91,-168 558.51,-152.59 588.07,-141.6 612.41,-134.34"/>
<polygon fill="midnightblue" stroke="midnightblue" points="613.49,-137.67 622.14,-131.55 611.56,-130.94 613.49,-137.67"/>
</g>
<!-- Node15 -->
<g id="node15" class="node">
<title>Node15</title>
<g id="a_node15"><a xlink:href="StateProcess_8h.html" target="_top" xlink:title=" ">
<polygon fill="white" stroke="black" points="419.91,-112.5 419.91,-131.5 571.91,-131.5 571.91,-112.5 419.91,-112.5"/>
<text text-anchor="middle" x="495.91" y="-119.5" font-family="Helvetica,sans-Serif" font-size="10.00">BayesFilters/StateProcess.h</text>
</a>
</g>
</g>
<!-- Node14&#45;&gt;Node15 -->
<g id="edge19" class="edge">
<title>Node14&#45;&gt;Node15</title>
<path fill="none" stroke="midnightblue" d="M474.72,-224.37C478.43,-206.62 486.99,-165.67 492.02,-141.6"/>
<polygon fill="midnightblue" stroke="midnightblue" points="495.5,-142.1 494.12,-131.59 488.64,-140.66 495.5,-142.1"/>
</g>
<!-- Node14&#45;&gt;Node16 -->
<g id="edge22" class="edge">
<title>Node14&#45;&gt;Node16</title>
<path fill="none" stroke="midnightblue" d="M488.98,-224.32C504.87,-215.74 529.42,-202.49 547.87,-192.52"/>
<polygon fill="midnightblue" stroke="midnightblue" points="549.75,-195.49 556.89,-187.65 546.42,-189.33 549.75,-195.49"/>
</g>
<!-- Node15&#45;&gt;Node5 -->
<g id="edge21" class="edge">
<title>Node15&#45;&gt;Node5</title>
<path fill="none" stroke="midnightblue" d="M457.41,-112.44C415.11,-103.04 347.09,-87.93 301.24,-77.74"/>
<polygon fill="midnightblue" stroke="midnightblue" points="301.76,-74.27 291.24,-75.52 300.24,-81.1 301.76,-74.27"/>
</g>
<!-- Node15&#45;&gt;Node9 -->
<g id="edge20" class="edge">
<title>Node15&#45;&gt;Node9</title>
<path fill="none" stroke="midnightblue" d="M487.82,-112.08C480.76,-104.3 470.33,-92.8 461.76,-83.37"/>
<polygon fill="midnightblue" stroke="midnightblue" points="464.17,-80.8 454.85,-75.75 458.98,-85.51 464.17,-80.8"/>
</g>
</g>
</svg>
        <g id="navigator" transform="translate(0 0)" fill="#404254">
                <rect fill="#f2f5e9" fill-opacity="0.5" stroke="#606060" stroke-width=".5" x="0" y="0" width="60" height="60"/>
                <use id="zoomplus" xlink:href="#zoomPlus" x="17" y="9" onmousedown="handleZoom(evt,'in')"/>
                <use id="zoomminus" xlink:href="#zoomMin" x="42" y="9" onmousedown="handleZoom(evt,'out')"/>
                <use id="reset" xlink:href="#resetDef" x="30" y="36" onmousedown="handleReset()"/>
                <g id="arrowUp" xlink:href="#dirArrow" transform="translate(30 24)" onmousedown="handlePan(0,-1)">
                  <use xlink:href="#rim" fill="#404040">
                        <set attributeName="fill" to="#808080" begin="arrowUp.mouseover" end="arrowUp.mouseout"/>
                  </use>
                  <path fill="none" stroke="white" stroke-width="1.5" d="M0,-3.0v7 M-2.5,-0.5L0,-3.0L2.5,-0.5"/>
                </g>
                <g id="arrowRight" xlink:href="#dirArrow" transform="rotate(90) translate(36 -43)" onmousedown="handlePan(1,0)">
                  <use xlink:href="#rim" fill="#404040">
                        <set attributeName="fill" to="#808080" begin="arrowRight.mouseover" end="arrowRight.mouseout"/>
                  </use>
                  <path fill="none" stroke="white" stroke-width="1.5" d="M0,-3.0v7 M-2.5,-0.5L0,-3.0L2.5,-0.5"/>
                </g>
                <g id="arrowDown" xlink:href="#dirArrow" transform="rotate(180) translate(-30 -48)" onmousedown="handlePan(0,1)">
                  <use xlink:href="#rim" fill="#404040">
                        <set attributeName="fill" to="#808080" begin="arrowDown.mouseover" end="arrowDown.mouseout"/>
                  </use>
                  <path fill="none" stroke="white" stroke-width="1.5" d="M0,-3.0v7 M-2.5,-0.5L0,-3.0L2.5,-0.5"/>
                </g>
                <g id="arrowLeft" xlink:href="#dirArrow" transform="rotate(270) translate(-36 17)" onmousedown="handlePan(-1,0)">
                  <use xlink:href="#rim" fill="#404040">
                        <set attributeName="fill" to="#808080" begin="arrowLeft.mouseover" end="arrowLeft.mouseout"/>
                  </use>
                  <path fill="none" stroke="white" stroke-width="1.5" d="M0,-3.0v7 M-2.5,-0.5L0,-3.0L2.5,-0.5"/>
                </g>
        </g>
        <svg viewBox="0 0 15 15" width="100%" height="30px" preserveAspectRatio="xMaxYMin meet">
         <g id="arrow_out" transform="scale(0.3 0.3)">
          <a xlink:href="DrawParticles_8h__incl_org.svg" target="_base">
           <rect id="button" ry="5" rx="5" y="6" x="6" height="38" width="38"
                fill="#f2f5e9" fill-opacity="0.5" stroke="#606060" stroke-width="1.0"/>
           <path id="arrow"
             d="M 11.500037,31.436501 C 11.940474,20.09759 22.043105,11.32322 32.158766,21.979434 L 37.068811,17.246167 C 37.068811,17.246167 37.088388,32 37.088388,32 L 22.160133,31.978069 C 22.160133,31.978069 26.997745,27.140456 26.997745,27.140456 C 18.528582,18.264221 13.291696,25.230495 11.500037,31.436501 z"
             style="fill:#404040;"/>
          </a>
         </g>
        </svg>
</svg>
