<?xml version="1.0" encoding="UTF-8" standalone="no"?>
<!DOCTYPE svg PUBLIC "-//W3C//DTD SVG 1.1//EN"
 "http://www.w3.org/Graphics/SVG/1.1/DTD/svg11.dtd">
<!-- Generated by graphviz version 2.47.2 (0)
 -->
<!-- Title: /home/xenvre/robot&#45;code/bfl_robotology/src/BayesFilters/src/DrawParticles.cpp Pages: 1 -->
<!--zoomable 453 -->
<svg id="main" version="1.1" xmlns="http://www.w3.org/2000/svg" xmlns:xlink="http://www.w3.org/1999/xlink" xml:space="preserve" onload="init(evt)">
<style type="text/css"><![CDATA[
.edge:hover path { stroke: red; }
.edge:hover polygon { stroke: red; fill: red; }
]]></style>
<script type="text/javascript"><![CDATA[
var edges = document.getElementsByTagName('g');
if (edges && edges.length) {
  for (var i=0;i<edges.length;i++) {
    if (edges[i].id.substr(0,4)=='edge') {
      edges[i].setAttribute('class','edge');
    }
  }
}
]]></script>
        <defs>
                <circle id="rim" cx="0" cy="0" r="7"/>
                <circle id="rim2" cx="0" cy="0" r="3.5"/>
                <g id="zoomPlus">
                        <use xlink:href="#rim" fill="#404040">
                                <set attributeName="fill" to="#808080" begin="zoomplus.mouseover" end="zoomplus.mouseout"/>
                        </use>
                        <path d="M-4,0h8M0,-4v8" fill="none" stroke="white" stroke-width="1.5" pointer-events="none"/>
                </g>
                <g id="zoomMin">
                        <use xlink:href="#rim" fill="#404040">
                                <set attributeName="fill" to="#808080" begin="zoomminus.mouseover" end="zoomminus.mouseout"/>
                        </use>
                        <path d="M-4,0h8" fill="none" stroke="white" stroke-width="1.5" pointer-events="none"/>
                </g>
                <g id="dirArrow">
                        <path fill="none" stroke="white" stroke-width="1.5" d="M0,-3.0v7 M-2.5,-0.5L0,-3.0L2.5,-0.5"/>
                </g>
               <g id="resetDef">
                       <use xlink:href="#rim2" fill="#404040">
                               <set attributeName="fill" to="#808080" begin="reset.mouseover" end="reset.mouseout"/>
                       </use>
               </g>
        </defs>

<script type="text/javascript">
var viewWidth = 714;
var viewHeight = 453;
var sectionId = 'dynsection-0';
</script>
<script xlink:href="svgpan.js"/>
<svg id="graph" class="graph">
<g id="viewport">
<title>/home/xenvre/robot&#45;code/bfl_robotology/src/BayesFilters/src/DrawParticles.cpp</title>
<polygon fill="white" stroke="transparent" points="-4,4 -4,-449 709.95,-449 709.95,4 -4,4"/>
<!-- Node1 -->
<g id="node1" class="node">
<title>Node1</title>
<g id="a_node1"><a xlink:title=" ">
<polygon fill="#bfbfbf" stroke="black" points="222.45,-392.5 222.45,-444.5 329.45,-444.5 329.45,-392.5 222.45,-392.5"/>
<text text-anchor="start" x="230.45" y="-432.5" font-family="Helvetica,sans-Serif" font-size="10.00">/home/xenvre/robot</text>
<text text-anchor="start" x="230.45" y="-421.5" font-family="Helvetica,sans-Serif" font-size="10.00">&#45;code/bfl_robotology</text>
<text text-anchor="start" x="230.45" y="-410.5" font-family="Helvetica,sans-Serif" font-size="10.00">/src/BayesFilters/src</text>
<text text-anchor="middle" x="275.95" y="-399.5" font-family="Helvetica,sans-Serif" font-size="10.00">/DrawParticles.cpp</text>
</a>
</g>
</g>
<!-- Node2 -->
<g id="node2" class="node">
<title>Node2</title>
<g id="a_node2"><a xlink:href="DrawParticles_8h.html" target="_top" xlink:title=" ">
<polygon fill="white" stroke="black" points="148.95,-336.5 148.95,-355.5 292.95,-355.5 292.95,-336.5 148.95,-336.5"/>
<text text-anchor="middle" x="220.95" y="-343.5" font-family="Helvetica,sans-Serif" font-size="10.00">BayesFilters/DrawParticles.h</text>
</a>
</g>
</g>
<!-- Node1&#45;&gt;Node2 -->
<g id="edge1" class="edge">
<title>Node1&#45;&gt;Node2</title>
<path fill="none" stroke="midnightblue" d="M256.4,-392.45C248.98,-382.93 240.7,-372.33 234.02,-363.76"/>
<polygon fill="midnightblue" stroke="midnightblue" points="236.64,-361.43 227.73,-355.7 231.12,-365.73 236.64,-361.43"/>
</g>
<!-- Node16 -->
<g id="node16" class="node">
<title>Node16</title>
<g id="a_node16"><a xlink:title=" ">
<polygon fill="white" stroke="#bfbfbf" points="310.95,-336.5 310.95,-355.5 350.95,-355.5 350.95,-336.5 310.95,-336.5"/>
<text text-anchor="middle" x="330.95" y="-343.5" font-family="Helvetica,sans-Serif" font-size="10.00">utility</text>
</a>
</g>
</g>
<!-- Node1&#45;&gt;Node16 -->
<g id="edge24" class="edge">
<title>Node1&#45;&gt;Node16</title>
<path fill="none" stroke="midnightblue" d="M295.49,-392.45C302.92,-382.93 311.19,-372.33 317.87,-363.76"/>
<polygon fill="midnightblue" stroke="midnightblue" points="320.77,-365.73 324.16,-355.7 315.25,-361.43 320.77,-365.73"/>
</g>
<!-- Node3 -->
<g id="node3" class="node">
<title>Node3</title>
<g id="a_node3"><a xlink:href="ParticleSet_8h.html" target="_top" xlink:title=" ">
<polygon fill="white" stroke="black" points="31.45,-224.5 31.45,-243.5 162.45,-243.5 162.45,-224.5 31.45,-224.5"/>
<text text-anchor="middle" x="96.95" y="-231.5" font-family="Helvetica,sans-Serif" font-size="10.00">BayesFilters/ParticleSet.h</text>
</a>
</g>
</g>
<!-- Node2&#45;&gt;Node3 -->
<g id="edge2" class="edge">
<title>Node2&#45;&gt;Node3</title>
<path fill="none" stroke="midnightblue" d="M211.22,-336.37C190.3,-317.81 140.81,-273.91 114.35,-250.44"/>
<polygon fill="midnightblue" stroke="midnightblue" points="116.43,-247.61 106.63,-243.59 111.79,-252.85 116.43,-247.61"/>
</g>
<!-- Node7 -->
<g id="node7" class="node">
<title>Node7</title>
<g id="a_node7"><a xlink:href="PFPrediction_8h.html" target="_top" xlink:title=" ">
<polygon fill="white" stroke="black" points="251.45,-280.5 251.45,-299.5 390.45,-299.5 390.45,-280.5 251.45,-280.5"/>
<text text-anchor="middle" x="320.95" y="-287.5" font-family="Helvetica,sans-Serif" font-size="10.00">BayesFilters/PFPrediction.h</text>
</a>
</g>
</g>
<!-- Node2&#45;&gt;Node7 -->
<g id="edge7" class="edge">
<title>Node2&#45;&gt;Node7</title>
<path fill="none" stroke="midnightblue" d="M237.01,-336.32C252.9,-327.74 277.45,-314.49 295.9,-304.52"/>
<polygon fill="midnightblue" stroke="midnightblue" points="297.78,-307.49 304.92,-299.65 294.46,-301.33 297.78,-307.49"/>
</g>
<!-- Node4 -->
<g id="node4" class="node">
<title>Node4</title>
<g id="a_node4"><a xlink:href="GaussianMixture_8h.html" target="_top" xlink:title=" ">
<polygon fill="white" stroke="black" points="12.95,-168.5 12.95,-187.5 168.95,-187.5 168.95,-168.5 12.95,-168.5"/>
<text text-anchor="middle" x="90.95" y="-175.5" font-family="Helvetica,sans-Serif" font-size="10.00">BayesFilters/GaussianMixture.h</text>
</a>
</g>
</g>
<!-- Node3&#45;&gt;Node4 -->
<g id="edge3" class="edge">
<title>Node3&#45;&gt;Node4</title>
<path fill="none" stroke="midnightblue" d="M95.95,-224.08C95.16,-216.93 94.02,-206.64 93.02,-197.69"/>
<polygon fill="midnightblue" stroke="midnightblue" points="96.5,-197.3 91.92,-187.75 89.54,-198.08 96.5,-197.3"/>
</g>
<!-- Node5 -->
<g id="node5" class="node">
<title>Node5</title>
<g id="a_node5"><a xlink:title=" ">
<polygon fill="white" stroke="#bfbfbf" points="8.95,-112.5 8.95,-131.5 52.95,-131.5 52.95,-112.5 8.95,-112.5"/>
<text text-anchor="middle" x="30.95" y="-119.5" font-family="Helvetica,sans-Serif" font-size="10.00">vector</text>
</a>
</g>
</g>
<!-- Node3&#45;&gt;Node5 -->
<g id="edge6" class="edge">
<title>Node3&#45;&gt;Node5</title>
<path fill="none" stroke="midnightblue" d="M57.69,-224.48C37.95,-217.99 15.76,-206.84 3.95,-188 -5.64,-172.71 4.81,-153.44 15.38,-139.86"/>
<polygon fill="midnightblue" stroke="midnightblue" points="18.36,-141.76 22.13,-131.86 13.01,-137.24 18.36,-141.76"/>
</g>
<!-- Node4&#45;&gt;Node5 -->
<g id="edge4" class="edge">
<title>Node4&#45;&gt;Node5</title>
<path fill="none" stroke="midnightblue" d="M81.31,-168.32C72.44,-160.34 59.07,-148.31 48.34,-138.65"/>
<polygon fill="midnightblue" stroke="midnightblue" points="50.54,-135.92 40.76,-131.83 45.85,-141.13 50.54,-135.92"/>
</g>
<!-- Node6 -->
<g id="node6" class="node">
<title>Node6</title>
<g id="a_node6"><a xlink:title=" ">
<polygon fill="white" stroke="#bfbfbf" points="198.45,-56.5 198.45,-75.5 271.45,-75.5 271.45,-56.5 198.45,-56.5"/>
<text text-anchor="middle" x="234.95" y="-63.5" font-family="Helvetica,sans-Serif" font-size="10.00">Eigen/Dense</text>
</a>
</g>
</g>
<!-- Node4&#45;&gt;Node6 -->
<g id="edge5" class="edge">
<title>Node4&#45;&gt;Node6</title>
<path fill="none" stroke="midnightblue" d="M100.14,-168.11C113.77,-155.14 140.37,-130.53 164.95,-112 179.85,-100.76 197.54,-89.41 211.4,-80.92"/>
<polygon fill="midnightblue" stroke="midnightblue" points="213.57,-83.7 220.31,-75.53 209.94,-77.71 213.57,-83.7"/>
</g>
<!-- Node7&#45;&gt;Node3 -->
<g id="edge14" class="edge">
<title>Node7&#45;&gt;Node3</title>
<path fill="none" stroke="midnightblue" d="M285.45,-280.44C246.62,-271.08 184.29,-256.06 142.03,-245.87"/>
<polygon fill="midnightblue" stroke="midnightblue" points="142.81,-242.46 132.27,-243.52 141.17,-249.26 142.81,-242.46"/>
</g>
<!-- Node7&#45;&gt;Node6 -->
<g id="edge21" class="edge">
<title>Node7&#45;&gt;Node6</title>
<path fill="none" stroke="midnightblue" d="M309.8,-280.29C283.31,-258.7 217.32,-199.57 197.95,-132 195.5,-123.46 194.95,-120.37 197.95,-112 201.89,-101 209.8,-90.77 217.31,-82.85"/>
<polygon fill="midnightblue" stroke="midnightblue" points="219.84,-85.27 224.51,-75.76 214.93,-80.28 219.84,-85.27"/>
</g>
<!-- Node8 -->
<g id="node8" class="node">
<title>Node8</title>
<g id="a_node8"><a xlink:href="ExogenousModel_8h.html" target="_top" xlink:title=" ">
<polygon fill="white" stroke="black" points="241.95,-168.5 241.95,-187.5 399.95,-187.5 399.95,-168.5 241.95,-168.5"/>
<text text-anchor="middle" x="320.95" y="-175.5" font-family="Helvetica,sans-Serif" font-size="10.00">BayesFilters/ExogenousModel.h</text>
</a>
</g>
</g>
<!-- Node7&#45;&gt;Node8 -->
<g id="edge8" class="edge">
<title>Node7&#45;&gt;Node8</title>
<path fill="none" stroke="midnightblue" d="M320.95,-280.37C320.95,-262.62 320.95,-221.67 320.95,-197.6"/>
<polygon fill="midnightblue" stroke="midnightblue" points="324.45,-197.59 320.95,-187.59 317.45,-197.59 324.45,-197.59"/>
</g>
<!-- Node12 -->
<g id="node12" class="node">
<title>Node12</title>
<g id="a_node12"><a xlink:title=" ">
<polygon fill="white" stroke="#bfbfbf" points="641.45,-0.5 641.45,-19.5 682.45,-19.5 682.45,-0.5 641.45,-0.5"/>
<text text-anchor="middle" x="661.95" y="-7.5" font-family="Helvetica,sans-Serif" font-size="10.00">string</text>
</a>
</g>
</g>
<!-- Node7&#45;&gt;Node12 -->
<g id="edge23" class="edge">
<title>Node7&#45;&gt;Node12</title>
<path fill="none" stroke="midnightblue" d="M390.67,-283.41C501.61,-272.58 705.95,-243.82 705.95,-179 705.95,-179 705.95,-179 705.95,-121 705.95,-86.04 686.55,-49.01 673.51,-28.07"/>
<polygon fill="midnightblue" stroke="midnightblue" points="676.43,-26.15 668.06,-19.65 670.56,-29.95 676.43,-26.15"/>
</g>
<!-- Node13 -->
<g id="node13" class="node">
<title>Node13</title>
<g id="a_node13"><a xlink:href="StateModel_8h.html" target="_top" xlink:title=" ">
<polygon fill="white" stroke="black" points="359.95,-224.5 359.95,-243.5 491.95,-243.5 491.95,-224.5 359.95,-224.5"/>
<text text-anchor="middle" x="425.95" y="-231.5" font-family="Helvetica,sans-Serif" font-size="10.00">BayesFilters/StateModel.h</text>
</a>
</g>
</g>
<!-- Node7&#45;&gt;Node13 -->
<g id="edge15" class="edge">
<title>Node7&#45;&gt;Node13</title>
<path fill="none" stroke="midnightblue" d="M337.82,-280.32C354.65,-271.66 380.75,-258.24 400.18,-248.25"/>
<polygon fill="midnightblue" stroke="midnightblue" points="401.83,-251.34 409.12,-243.65 398.62,-245.12 401.83,-251.34"/>
</g>
<!-- Node15 -->
<g id="node15" class="node">
<title>Node15</title>
<g id="a_node15"><a xlink:title=" ">
<polygon fill="white" stroke="#bfbfbf" points="493.95,-168.5 493.95,-187.5 545.95,-187.5 545.95,-168.5 493.95,-168.5"/>
<text text-anchor="middle" x="519.95" y="-175.5" font-family="Helvetica,sans-Serif" font-size="10.00">memory</text>
</a>
</g>
</g>
<!-- Node7&#45;&gt;Node15 -->
<g id="edge22" class="edge">
<title>Node7&#45;&gt;Node15</title>
<path fill="none" stroke="midnightblue" d="M381.31,-280.47C426.67,-272.89 483.82,-260.46 500.95,-244 513.38,-232.04 517.81,-212.43 519.31,-197.87"/>
<polygon fill="midnightblue" stroke="midnightblue" points="522.83,-197.73 520,-187.52 515.85,-197.27 522.83,-197.73"/>
</g>
<!-- Node9 -->
<g id="node9" class="node">
<title>Node9</title>
<g id="a_node9"><a xlink:href="ExogenousProcess_8h.html" target="_top" xlink:title=" ">
<polygon fill="white" stroke="black" points="206.45,-112.5 206.45,-131.5 373.45,-131.5 373.45,-112.5 206.45,-112.5"/>
<text text-anchor="middle" x="289.95" y="-119.5" font-family="Helvetica,sans-Serif" font-size="10.00">BayesFilters/ExogenousProcess.h</text>
</a>
</g>
</g>
<!-- Node8&#45;&gt;Node9 -->
<g id="edge9" class="edge">
<title>Node8&#45;&gt;Node9</title>
<path fill="none" stroke="midnightblue" d="M315.83,-168.08C311.54,-160.61 305.29,-149.72 300,-140.52"/>
<polygon fill="midnightblue" stroke="midnightblue" points="302.98,-138.68 294.97,-131.75 296.91,-142.17 302.98,-138.68"/>
</g>
<!-- Node10 -->
<g id="node10" class="node">
<title>Node10</title>
<g id="a_node10"><a xlink:href="Skippable_8h.html" target="_top" xlink:title=" ">
<polygon fill="white" stroke="black" points="552.45,-112.5 552.45,-131.5 677.45,-131.5 677.45,-112.5 552.45,-112.5"/>
<text text-anchor="middle" x="614.95" y="-119.5" font-family="Helvetica,sans-Serif" font-size="10.00">BayesFilters/Skippable.h</text>
</a>
</g>
</g>
<!-- Node8&#45;&gt;Node10 -->
<g id="edge11" class="edge">
<title>Node8&#45;&gt;Node10</title>
<path fill="none" stroke="midnightblue" d="M367.53,-168.44C419.36,-158.92 503.08,-143.55 558.56,-133.36"/>
<polygon fill="midnightblue" stroke="midnightblue" points="559.38,-136.77 568.58,-131.52 558.11,-129.88 559.38,-136.77"/>
</g>
<!-- Node9&#45;&gt;Node6 -->
<g id="edge10" class="edge">
<title>Node9&#45;&gt;Node6</title>
<path fill="none" stroke="midnightblue" d="M280.86,-112.08C272.77,-104.14 260.75,-92.34 251.04,-82.8"/>
<polygon fill="midnightblue" stroke="midnightblue" points="253.45,-80.26 243.86,-75.75 248.54,-85.25 253.45,-80.26"/>
</g>
<!-- Node11 -->
<g id="node11" class="node">
<title>Node11</title>
<g id="a_node11"><a xlink:href="Skipper_8h.html" target="_top" xlink:title=" ">
<polygon fill="white" stroke="black" points="559.45,-56.5 559.45,-75.5 674.45,-75.5 674.45,-56.5 559.45,-56.5"/>
<text text-anchor="middle" x="616.95" y="-63.5" font-family="Helvetica,sans-Serif" font-size="10.00">BayesFilters/Skipper.h</text>
</a>
</g>
</g>
<!-- Node10&#45;&gt;Node11 -->
<g id="edge12" class="edge">
<title>Node10&#45;&gt;Node11</title>
<path fill="none" stroke="midnightblue" d="M615.28,-112.08C615.54,-105.01 615.91,-94.86 616.24,-85.99"/>
<polygon fill="midnightblue" stroke="midnightblue" points="619.75,-85.87 616.62,-75.75 612.75,-85.61 619.75,-85.87"/>
</g>
<!-- Node11&#45;&gt;Node12 -->
<g id="edge13" class="edge">
<title>Node11&#45;&gt;Node12</title>
<path fill="none" stroke="midnightblue" d="M624.38,-56.08C630.8,-48.38 640.25,-37.03 648.07,-27.65"/>
<polygon fill="midnightblue" stroke="midnightblue" points="650.94,-29.67 654.65,-19.75 645.56,-25.19 650.94,-29.67"/>
</g>
<!-- Node13&#45;&gt;Node8 -->
<g id="edge16" class="edge">
<title>Node13&#45;&gt;Node8</title>
<path fill="none" stroke="midnightblue" d="M409.08,-224.32C392.24,-215.66 366.14,-202.24 346.71,-192.25"/>
<polygon fill="midnightblue" stroke="midnightblue" points="348.27,-189.12 337.77,-187.65 345.07,-195.34 348.27,-189.12"/>
</g>
<!-- Node13&#45;&gt;Node10 -->
<g id="edge17" class="edge">
<title>Node13&#45;&gt;Node10</title>
<path fill="none" stroke="midnightblue" d="M431.77,-224.13C441.3,-210.27 461.54,-183.45 484.95,-168 508.96,-152.14 539.18,-141.24 564.43,-134.15"/>
<polygon fill="midnightblue" stroke="midnightblue" points="565.45,-137.5 574.2,-131.52 563.63,-130.74 565.45,-137.5"/>
</g>
<!-- Node14 -->
<g id="node14" class="node">
<title>Node14</title>
<g id="a_node14"><a xlink:href="StateProcess_8h.html" target="_top" xlink:title=" ">
<polygon fill="white" stroke="black" points="391.95,-112.5 391.95,-131.5 533.95,-131.5 533.95,-112.5 391.95,-112.5"/>
<text text-anchor="middle" x="462.95" y="-119.5" font-family="Helvetica,sans-Serif" font-size="10.00">BayesFilters/StateProcess.h</text>
</a>
</g>
</g>
<!-- Node13&#45;&gt;Node14 -->
<g id="edge18" class="edge">
<title>Node13&#45;&gt;Node14</title>
<path fill="none" stroke="midnightblue" d="M428.85,-224.37C434.85,-206.54 448.72,-165.3 456.8,-141.27"/>
<polygon fill="midnightblue" stroke="midnightblue" points="460.18,-142.19 460.06,-131.59 453.55,-139.95 460.18,-142.19"/>
</g>
<!-- Node13&#45;&gt;Node15 -->
<g id="edge20" class="edge">
<title>Node13&#45;&gt;Node15</title>
<path fill="none" stroke="midnightblue" d="M441.05,-224.32C455.85,-215.82 478.64,-202.73 495.93,-192.8"/>
<polygon fill="midnightblue" stroke="midnightblue" points="497.95,-195.67 504.88,-187.65 494.47,-189.6 497.95,-195.67"/>
</g>
<!-- Node14&#45;&gt;Node6 -->
<g id="edge19" class="edge">
<title>Node14&#45;&gt;Node6</title>
<path fill="none" stroke="midnightblue" d="M426.82,-112.44C387.29,-103.08 323.85,-88.06 280.83,-77.87"/>
<polygon fill="midnightblue" stroke="midnightblue" points="281.44,-74.42 270.9,-75.52 279.83,-81.23 281.44,-74.42"/>
</g>
</g>
</svg>
        <g id="navigator" transform="translate(0 0)" fill="#404254">
                <rect fill="#f2f5e9" fill-opacity="0.5" stroke="#606060" stroke-width=".5" x="0" y="0" width="60" height="60"/>
                <use id="zoomplus" xlink:href="#zoomPlus" x="17" y="9" onmousedown="handleZoom(evt,'in')"/>
                <use id="zoomminus" xlink:href="#zoomMin" x="42" y="9" onmousedown="handleZoom(evt,'out')"/>
                <use id="reset" xlink:href="#resetDef" x="30" y="36" onmousedown="handleReset()"/>
                <g id="arrowUp" xlink:href="#dirArrow" transform="translate(30 24)" onmousedown="handlePan(0,-1)">
                  <use xlink:href="#rim" fill="#404040">
                        <set attributeName="fill" to="#808080" begin="arrowUp.mouseover" end="arrowUp.mouseout"/>
                  </use>
                  <path fill="none" stroke="white" stroke-width="1.5" d="M0,-3.0v7 M-2.5,-0.5L0,-3.0L2.5,-0.5"/>
                </g>
                <g id="arrowRight" xlink:href="#dirArrow" transform="rotate(90) translate(36 -43)" onmousedown="handlePan(1,0)">
                  <use xlink:href="#rim" fill="#404040">
                        <set attributeName="fill" to="#808080" begin="arrowRight.mouseover" end="arrowRight.mouseout"/>
                  </use>
                  <path fill="none" stroke="white" stroke-width="1.5" d="M0,-3.0v7 M-2.5,-0.5L0,-3.0L2.5,-0.5"/>
                </g>
                <g id="arrowDown" xlink:href="#dirArrow" transform="rotate(180) translate(-30 -48)" onmousedown="handlePan(0,1)">
                  <use xlink:href="#rim" fill="#404040">
                        <set attributeName="fill" to="#808080" begin="arrowDown.mouseover" end="arrowDown.mouseout"/>
                  </use>
                  <path fill="none" stroke="white" stroke-width="1.5" d="M0,-3.0v7 M-2.5,-0.5L0,-3.0L2.5,-0.5"/>
                </g>
                <g id="arrowLeft" xlink:href="#dirArrow" transform="rotate(270) translate(-36 17)" onmousedown="handlePan(-1,0)">
                  <use xlink:href="#rim" fill="#404040">
                        <set attributeName="fill" to="#808080" begin="arrowLeft.mouseover" end="arrowLeft.mouseout"/>
                  </use>
                  <path fill="none" stroke="white" stroke-width="1.5" d="M0,-3.0v7 M-2.5,-0.5L0,-3.0L2.5,-0.5"/>
                </g>
        </g>
        <svg viewBox="0 0 15 15" width="100%" height="30px" preserveAspectRatio="xMaxYMin meet">
         <g id="arrow_out" transform="scale(0.3 0.3)">
          <a xlink:href="DrawParticles_8cpp__incl_org.svg" target="_base">
           <rect id="button" ry="5" rx="5" y="6" x="6" height="38" width="38"
                fill="#f2f5e9" fill-opacity="0.5" stroke="#606060" stroke-width="1.0"/>
           <path id="arrow"
             d="M 11.500037,31.436501 C 11.940474,20.09759 22.043105,11.32322 32.158766,21.979434 L 37.068811,17.246167 C 37.068811,17.246167 37.088388,32 37.088388,32 L 22.160133,31.978069 C 22.160133,31.978069 26.997745,27.140456 26.997745,27.140456 C 18.528582,18.264221 13.291696,25.230495 11.500037,31.436501 z"
             style="fill:#404040;"/>
          </a>
         </g>
        </svg>
</svg>
