<?xml version="1.0" encoding="UTF-8" standalone="no"?>
<!DOCTYPE svg PUBLIC "-//W3C//DTD SVG 1.1//EN"
 "http://www.w3.org/Graphics/SVG/1.1/DTD/svg11.dtd">
<!-- Generated by graphviz version 2.43.0 (0)
 -->
<!-- Title: /home/user/bayes&#45;filters&#45;lib/src/BayesFilters/src/EstimatesExtraction.cpp Pages: 1 -->
<svg width="654pt" height="229pt"
 viewBox="0.00 0.00 653.50 229.00" xmlns="http://www.w3.org/2000/svg" xmlns:xlink="http://www.w3.org/1999/xlink">
<g id="graph0" class="graph" transform="scale(1 1) rotate(0) translate(4 225)">
<title>/home/user/bayes&#45;filters&#45;lib/src/BayesFilters/src/EstimatesExtraction.cpp</title>
<polygon fill="white" stroke="transparent" points="-4,4 -4,-225 649.5,-225 649.5,4 -4,4"/>
<!-- Node1 -->
<g id="node1" class="node">
<title>Node1</title>
<g id="a_node1"><a xlink:title=" ">
<polygon fill="#bfbfbf" stroke="black" points="140.5,-179.5 140.5,-220.5 278.5,-220.5 278.5,-179.5 140.5,-179.5"/>
<text text-anchor="start" x="148.5" y="-208.5" font-family="Helvetica,sans-Serif" font-size="10.00">/home/user/bayes&#45;filters</text>
<text text-anchor="start" x="148.5" y="-197.5" font-family="Helvetica,sans-Serif" font-size="10.00">&#45;lib/src/BayesFilters/src</text>
<text text-anchor="middle" x="209.5" y="-186.5" font-family="Helvetica,sans-Serif" font-size="10.00">/EstimatesExtraction.cpp</text>
</a>
</g>
</g>
<!-- Node2 -->
<g id="node2" class="node">
<title>Node2</title>
<g id="a_node2"><a xlink:href="EstimatesExtraction_8h.html" target="_top" xlink:title=" ">
<polygon fill="white" stroke="black" points="320,-118 320,-137 507,-137 507,-118 320,-118"/>
<text text-anchor="middle" x="413.5" y="-125" font-family="Helvetica,sans-Serif" font-size="10.00">BayesFilters/EstimatesExtraction.h</text>
</a>
</g>
</g>
<!-- Node1&#45;&gt;Node2 -->
<g id="edge1" class="edge">
<title>Node1&#45;&gt;Node2</title>
<path fill="none" stroke="midnightblue" d="M266.05,-179.46C302.44,-166.88 348.53,-150.95 379.41,-140.28"/>
<polygon fill="midnightblue" stroke="midnightblue" points="380.56,-143.59 388.87,-137.01 378.27,-136.97 380.56,-143.59"/>
</g>
<!-- Node8 -->
<g id="node8" class="node">
<title>Node8</title>
<g id="a_node8"><a xlink:href="directional__statistics_8h.html" target="_top" xlink:title=" ">
<polygon fill="white" stroke="black" points="0,-112.5 0,-142.5 131,-142.5 131,-112.5 0,-112.5"/>
<text text-anchor="start" x="8" y="-130.5" font-family="Helvetica,sans-Serif" font-size="10.00">BayesFilters/directional</text>
<text text-anchor="middle" x="65.5" y="-119.5" font-family="Helvetica,sans-Serif" font-size="10.00">_statistics.h</text>
</a>
</g>
</g>
<!-- Node1&#45;&gt;Node8 -->
<g id="edge8" class="edge">
<title>Node1&#45;&gt;Node8</title>
<path fill="none" stroke="midnightblue" d="M169.39,-179.36C148.84,-169.3 123.95,-157.12 103.69,-147.2"/>
<polygon fill="midnightblue" stroke="midnightblue" points="104.96,-143.92 94.44,-142.67 101.89,-150.21 104.96,-143.92"/>
</g>
<!-- Node10 -->
<g id="node10" class="node">
<title>Node10</title>
<g id="a_node10"><a xlink:href="utils_8h.html" target="_top" xlink:title=" ">
<polygon fill="white" stroke="black" points="154.5,-118 154.5,-137 264.5,-137 264.5,-118 154.5,-118"/>
<text text-anchor="middle" x="209.5" y="-125" font-family="Helvetica,sans-Serif" font-size="10.00">BayesFilters/utils.h</text>
</a>
</g>
</g>
<!-- Node1&#45;&gt;Node10 -->
<g id="edge10" class="edge">
<title>Node1&#45;&gt;Node10</title>
<path fill="none" stroke="midnightblue" d="M209.5,-179.36C209.5,-169.3 209.5,-157.1 209.5,-147.18"/>
<polygon fill="midnightblue" stroke="midnightblue" points="213,-147.17 209.5,-137.17 206,-147.17 213,-147.17"/>
</g>
<!-- Node3 -->
<g id="node3" class="node">
<title>Node3</title>
<g id="a_node3"><a xlink:title=" ">
<polygon fill="white" stroke="#bfbfbf" points="327.5,-56.5 327.5,-75.5 371.5,-75.5 371.5,-56.5 327.5,-56.5"/>
<text text-anchor="middle" x="349.5" y="-63.5" font-family="Helvetica,sans-Serif" font-size="10.00">string</text>
</a>
</g>
</g>
<!-- Node2&#45;&gt;Node3 -->
<g id="edge2" class="edge">
<title>Node2&#45;&gt;Node3</title>
<path fill="none" stroke="midnightblue" d="M404.33,-117.98C394.35,-108.7 378.19,-93.67 365.99,-82.33"/>
<polygon fill="midnightblue" stroke="midnightblue" points="368.36,-79.75 358.65,-75.51 363.59,-84.88 368.36,-79.75"/>
</g>
<!-- Node4 -->
<g id="node4" class="node">
<title>Node4</title>
<g id="a_node4"><a xlink:title=" ">
<polygon fill="white" stroke="#bfbfbf" points="390,-56.5 390,-75.5 437,-75.5 437,-56.5 390,-56.5"/>
<text text-anchor="middle" x="413.5" y="-63.5" font-family="Helvetica,sans-Serif" font-size="10.00">vector</text>
</a>
</g>
</g>
<!-- Node2&#45;&gt;Node4 -->
<g id="edge3" class="edge">
<title>Node2&#45;&gt;Node4</title>
<path fill="none" stroke="midnightblue" d="M413.5,-117.98C413.5,-109.58 413.5,-96.48 413.5,-85.66"/>
<polygon fill="midnightblue" stroke="midnightblue" points="417,-85.51 413.5,-75.51 410,-85.51 417,-85.51"/>
</g>
<!-- Node5 -->
<g id="node5" class="node">
<title>Node5</title>
<g id="a_node5"><a xlink:title=" ">
<polygon fill="white" stroke="#bfbfbf" points="445,-0.5 445,-19.5 514,-19.5 514,-0.5 445,-0.5"/>
<text text-anchor="middle" x="479.5" y="-7.5" font-family="Helvetica,sans-Serif" font-size="10.00">Eigen/Core</text>
</a>
</g>
</g>
<!-- Node2&#45;&gt;Node5 -->
<g id="edge4" class="edge">
<title>Node2&#45;&gt;Node5</title>
<path fill="none" stroke="midnightblue" d="M419.39,-117.7C425.99,-107.73 436.89,-90.92 445.5,-76 454.54,-60.33 464.02,-42.04 470.66,-28.86"/>
<polygon fill="midnightblue" stroke="midnightblue" points="473.98,-30.05 475.32,-19.54 467.72,-26.92 473.98,-30.05"/>
</g>
<!-- Node6 -->
<g id="node6" class="node">
<title>Node6</title>
<g id="a_node6"><a xlink:href="HistoryBuffer_8h.html" target="_top" xlink:title=" ">
<polygon fill="white" stroke="black" points="493.5,-56.5 493.5,-75.5 645.5,-75.5 645.5,-56.5 493.5,-56.5"/>
<text text-anchor="middle" x="569.5" y="-63.5" font-family="Helvetica,sans-Serif" font-size="10.00">BayesFilters/HistoryBuffer.h</text>
</a>
</g>
</g>
<!-- Node2&#45;&gt;Node6 -->
<g id="edge5" class="edge">
<title>Node2&#45;&gt;Node6</title>
<path fill="none" stroke="midnightblue" d="M435.85,-117.98C462.49,-107.81 507.21,-90.76 537.51,-79.2"/>
<polygon fill="midnightblue" stroke="midnightblue" points="539.09,-82.34 547.19,-75.51 536.6,-75.8 539.09,-82.34"/>
</g>
<!-- Node6&#45;&gt;Node5 -->
<g id="edge7" class="edge">
<title>Node6&#45;&gt;Node5</title>
<path fill="none" stroke="midnightblue" d="M555.04,-56.32C541,-47.9 519.45,-34.97 502.96,-25.07"/>
<polygon fill="midnightblue" stroke="midnightblue" points="504.3,-21.8 493.92,-19.65 500.7,-27.8 504.3,-21.8"/>
</g>
<!-- Node7 -->
<g id="node7" class="node">
<title>Node7</title>
<g id="a_node7"><a xlink:title=" ">
<polygon fill="white" stroke="#bfbfbf" points="546,-0.5 546,-19.5 593,-19.5 593,-0.5 546,-0.5"/>
<text text-anchor="middle" x="569.5" y="-7.5" font-family="Helvetica,sans-Serif" font-size="10.00">deque</text>
</a>
</g>
</g>
<!-- Node6&#45;&gt;Node7 -->
<g id="edge6" class="edge">
<title>Node6&#45;&gt;Node7</title>
<path fill="none" stroke="midnightblue" d="M569.5,-56.08C569.5,-49.01 569.5,-38.86 569.5,-29.99"/>
<polygon fill="midnightblue" stroke="midnightblue" points="573,-29.75 569.5,-19.75 566,-29.75 573,-29.75"/>
</g>
<!-- Node9 -->
<g id="node9" class="node">
<title>Node9</title>
<g id="a_node9"><a xlink:title=" ">
<polygon fill="white" stroke="#bfbfbf" points="22,-56.5 22,-75.5 99,-75.5 99,-56.5 22,-56.5"/>
<text text-anchor="middle" x="60.5" y="-63.5" font-family="Helvetica,sans-Serif" font-size="10.00">Eigen/Dense</text>
</a>
</g>
</g>
<!-- Node8&#45;&gt;Node9 -->
<g id="edge9" class="edge">
<title>Node8&#45;&gt;Node9</title>
<path fill="none" stroke="midnightblue" d="M64.32,-112.4C63.65,-104.47 62.81,-94.46 62.08,-85.86"/>
<polygon fill="midnightblue" stroke="midnightblue" points="65.55,-85.33 61.23,-75.66 58.58,-85.92 65.55,-85.33"/>
</g>
<!-- Node10&#45;&gt;Node3 -->
<g id="edge15" class="edge">
<title>Node10&#45;&gt;Node3</title>
<path fill="none" stroke="midnightblue" d="M229.56,-117.98C253.26,-107.9 292.91,-91.05 320.08,-79.5"/>
<polygon fill="midnightblue" stroke="midnightblue" points="321.64,-82.64 329.48,-75.51 318.91,-76.2 321.64,-82.64"/>
</g>
<!-- Node10&#45;&gt;Node9 -->
<g id="edge11" class="edge">
<title>Node10&#45;&gt;Node9</title>
<path fill="none" stroke="midnightblue" d="M188.15,-117.98C162.81,-107.86 120.36,-90.9 91.43,-79.35"/>
<polygon fill="midnightblue" stroke="midnightblue" points="92.39,-75.97 81.81,-75.51 89.8,-82.47 92.39,-75.97"/>
</g>
<!-- Node11 -->
<g id="node11" class="node">
<title>Node11</title>
<g id="a_node11"><a xlink:title=" ">
<polygon fill="white" stroke="#bfbfbf" points="117.5,-56.5 117.5,-75.5 167.5,-75.5 167.5,-56.5 117.5,-56.5"/>
<text text-anchor="middle" x="142.5" y="-63.5" font-family="Helvetica,sans-Serif" font-size="10.00">chrono</text>
</a>
</g>
</g>
<!-- Node10&#45;&gt;Node11 -->
<g id="edge12" class="edge">
<title>Node10&#45;&gt;Node11</title>
<path fill="none" stroke="midnightblue" d="M199.9,-117.98C189.45,-108.7 172.53,-93.67 159.76,-82.33"/>
<polygon fill="midnightblue" stroke="midnightblue" points="161.88,-79.53 152.08,-75.51 157.23,-84.77 161.88,-79.53"/>
</g>
<!-- Node12 -->
<g id="node12" class="node">
<title>Node12</title>
<g id="a_node12"><a xlink:title=" ">
<polygon fill="white" stroke="#bfbfbf" points="186,-56.5 186,-75.5 233,-75.5 233,-56.5 186,-56.5"/>
<text text-anchor="middle" x="209.5" y="-63.5" font-family="Helvetica,sans-Serif" font-size="10.00">cmath</text>
</a>
</g>
</g>
<!-- Node10&#45;&gt;Node12 -->
<g id="edge13" class="edge">
<title>Node10&#45;&gt;Node12</title>
<path fill="none" stroke="midnightblue" d="M209.5,-117.98C209.5,-109.58 209.5,-96.48 209.5,-85.66"/>
<polygon fill="midnightblue" stroke="midnightblue" points="213,-85.51 209.5,-75.51 206,-85.51 213,-85.51"/>
</g>
<!-- Node13 -->
<g id="node13" class="node">
<title>Node13</title>
<g id="a_node13"><a xlink:title=" ">
<polygon fill="white" stroke="#bfbfbf" points="251.5,-56.5 251.5,-75.5 309.5,-75.5 309.5,-56.5 251.5,-56.5"/>
<text text-anchor="middle" x="280.5" y="-63.5" font-family="Helvetica,sans-Serif" font-size="10.00">memory</text>
</a>
</g>
</g>
<!-- Node10&#45;&gt;Node13 -->
<g id="edge14" class="edge">
<title>Node10&#45;&gt;Node13</title>
<path fill="none" stroke="midnightblue" d="M219.67,-117.98C230.85,-108.61 249.02,-93.38 262.59,-82.01"/>
<polygon fill="midnightblue" stroke="midnightblue" points="264.93,-84.61 270.35,-75.51 260.43,-79.25 264.93,-84.61"/>
</g>
</g>
</svg>
