<?xml version="1.0" encoding="UTF-8" standalone="no"?>
<!DOCTYPE svg PUBLIC "-//W3C//DTD SVG 1.1//EN"
 "http://www.w3.org/Graphics/SVG/1.1/DTD/svg11.dtd">
<!-- Generated by graphviz version 2.43.0 (0)
 -->
<!-- Title: /home/user/bayes&#45;filters&#45;lib/src/BayesFilters/include/BayesFilters/EstimatesExtraction.h Pages: 1 -->
<svg width="326pt" height="162pt"
 viewBox="0.00 0.00 326.00 162.00" xmlns="http://www.w3.org/2000/svg" xmlns:xlink="http://www.w3.org/1999/xlink">
<g id="graph0" class="graph" transform="scale(1 1) rotate(0) translate(4 158)">
<title>/home/user/bayes&#45;filters&#45;lib/src/BayesFilters/include/BayesFilters/EstimatesExtraction.h</title>
<polygon fill="white" stroke="transparent" points="-4,4 -4,-158 322,-158 322,4 -4,4"/>
<!-- Node1 -->
<g id="node1" class="node">
<title>Node1</title>
<g id="a_node1"><a xlink:title=" ">
<polygon fill="#bfbfbf" stroke="black" points="17,-112.5 17,-153.5 207,-153.5 207,-112.5 17,-112.5"/>
<text text-anchor="start" x="25" y="-141.5" font-family="Helvetica,sans-Serif" font-size="10.00">/home/user/bayes&#45;filters</text>
<text text-anchor="start" x="25" y="-130.5" font-family="Helvetica,sans-Serif" font-size="10.00">&#45;lib/src/BayesFilters/include</text>
<text text-anchor="middle" x="112" y="-119.5" font-family="Helvetica,sans-Serif" font-size="10.00">/BayesFilters/EstimatesExtraction.h</text>
</a>
</g>
</g>
<!-- Node2 -->
<g id="node2" class="node">
<title>Node2</title>
<g id="a_node2"><a xlink:title=" ">
<polygon fill="white" stroke="#bfbfbf" points="0,-56.5 0,-75.5 44,-75.5 44,-56.5 0,-56.5"/>
<text text-anchor="middle" x="22" y="-63.5" font-family="Helvetica,sans-Serif" font-size="10.00">string</text>
</a>
</g>
</g>
<!-- Node1&#45;&gt;Node2 -->
<g id="edge1" class="edge">
<title>Node1&#45;&gt;Node2</title>
<path fill="none" stroke="midnightblue" d="M85,-112.5C71.33,-102.63 55.01,-90.84 42.41,-81.74"/>
<polygon fill="midnightblue" stroke="midnightblue" points="44.14,-78.67 33.98,-75.65 40.04,-84.34 44.14,-78.67"/>
</g>
<!-- Node3 -->
<g id="node3" class="node">
<title>Node3</title>
<g id="a_node3"><a xlink:title=" ">
<polygon fill="white" stroke="#bfbfbf" points="62.5,-56.5 62.5,-75.5 109.5,-75.5 109.5,-56.5 62.5,-56.5"/>
<text text-anchor="middle" x="86" y="-63.5" font-family="Helvetica,sans-Serif" font-size="10.00">vector</text>
</a>
</g>
</g>
<!-- Node1&#45;&gt;Node3 -->
<g id="edge2" class="edge">
<title>Node1&#45;&gt;Node3</title>
<path fill="none" stroke="midnightblue" d="M104.2,-112.5C100.71,-103.78 96.63,-93.56 93.21,-85.02"/>
<polygon fill="midnightblue" stroke="midnightblue" points="96.42,-83.64 89.46,-75.65 89.93,-86.24 96.42,-83.64"/>
</g>
<!-- Node4 -->
<g id="node4" class="node">
<title>Node4</title>
<g id="a_node4"><a xlink:title=" ">
<polygon fill="white" stroke="#bfbfbf" points="117.5,-0.5 117.5,-19.5 186.5,-19.5 186.5,-0.5 117.5,-0.5"/>
<text text-anchor="middle" x="152" y="-7.5" font-family="Helvetica,sans-Serif" font-size="10.00">Eigen/Core</text>
</a>
</g>
</g>
<!-- Node1&#45;&gt;Node4 -->
<g id="edge3" class="edge">
<title>Node1&#45;&gt;Node4</title>
<path fill="none" stroke="midnightblue" d="M118.52,-112.29C126.13,-89.27 138.61,-51.5 145.99,-29.17"/>
<polygon fill="midnightblue" stroke="midnightblue" points="149.35,-30.17 149.17,-19.57 142.7,-27.97 149.35,-30.17"/>
</g>
<!-- Node5 -->
<g id="node5" class="node">
<title>Node5</title>
<g id="a_node5"><a xlink:href="HistoryBuffer_8h.html" target="_top" xlink:title=" ">
<polygon fill="white" stroke="black" points="166,-56.5 166,-75.5 318,-75.5 318,-56.5 166,-56.5"/>
<text text-anchor="middle" x="242" y="-63.5" font-family="Helvetica,sans-Serif" font-size="10.00">BayesFilters/HistoryBuffer.h</text>
</a>
</g>
</g>
<!-- Node1&#45;&gt;Node5 -->
<g id="edge4" class="edge">
<title>Node1&#45;&gt;Node5</title>
<path fill="none" stroke="midnightblue" d="M151,-112.5C171.89,-102.05 197.07,-89.46 215.64,-80.18"/>
<polygon fill="midnightblue" stroke="midnightblue" points="217.32,-83.26 224.7,-75.65 214.19,-76.99 217.32,-83.26"/>
</g>
<!-- Node5&#45;&gt;Node4 -->
<g id="edge6" class="edge">
<title>Node5&#45;&gt;Node4</title>
<path fill="none" stroke="midnightblue" d="M227.54,-56.32C213.5,-47.9 191.95,-34.97 175.46,-25.07"/>
<polygon fill="midnightblue" stroke="midnightblue" points="176.8,-21.8 166.42,-19.65 173.2,-27.8 176.8,-21.8"/>
</g>
<!-- Node6 -->
<g id="node6" class="node">
<title>Node6</title>
<g id="a_node6"><a xlink:title=" ">
<polygon fill="white" stroke="#bfbfbf" points="218.5,-0.5 218.5,-19.5 265.5,-19.5 265.5,-0.5 218.5,-0.5"/>
<text text-anchor="middle" x="242" y="-7.5" font-family="Helvetica,sans-Serif" font-size="10.00">deque</text>
</a>
</g>
</g>
<!-- Node5&#45;&gt;Node6 -->
<g id="edge5" class="edge">
<title>Node5&#45;&gt;Node6</title>
<path fill="none" stroke="midnightblue" d="M242,-56.08C242,-49.01 242,-38.86 242,-29.99"/>
<polygon fill="midnightblue" stroke="midnightblue" points="245.5,-29.75 242,-19.75 238.5,-29.75 245.5,-29.75"/>
</g>
</g>
</svg>
