<?xml version="1.0" encoding="UTF-8" standalone="no"?>
<!DOCTYPE svg PUBLIC "-//W3C//DTD SVG 1.1//EN"
 "http://www.w3.org/Graphics/SVG/1.1/DTD/svg11.dtd">
<!-- Generated by graphviz version 2.43.0 (0)
 -->
<!-- Title: /home/user/bayes&#45;filters&#45;lib/src/BayesFilters/include/BayesFilters/ExogenousModel.h Pages: 1 -->
<svg width="2693pt" height="440pt"
 viewBox="0.00 0.00 2692.50 440.00" xmlns="http://www.w3.org/2000/svg" xmlns:xlink="http://www.w3.org/1999/xlink">
<g id="graph0" class="graph" transform="scale(1 1) rotate(0) translate(4 436)">
<title>/home/user/bayes&#45;filters&#45;lib/src/BayesFilters/include/BayesFilters/ExogenousModel.h</title>
<polygon fill="white" stroke="transparent" points="-4,4 -4,-436 2688.5,-436 2688.5,4 -4,4"/>
<!-- Node1 -->
<g id="node1" class="node">
<title>Node1</title>
<g id="a_node1"><a xlink:title=" ">
<polygon fill="#bfbfbf" stroke="black" points="1162.5,-390.5 1162.5,-431.5 1336.5,-431.5 1336.5,-390.5 1162.5,-390.5"/>
<text text-anchor="start" x="1170.5" y="-419.5" font-family="Helvetica,sans-Serif" font-size="10.00">/home/user/bayes&#45;filters</text>
<text text-anchor="start" x="1170.5" y="-408.5" font-family="Helvetica,sans-Serif" font-size="10.00">&#45;lib/src/BayesFilters/include</text>
<text text-anchor="middle" x="1249.5" y="-397.5" font-family="Helvetica,sans-Serif" font-size="10.00">/BayesFilters/ExogenousModel.h</text>
</a>
</g>
</g>
<!-- Node2 -->
<g id="node2" class="node">
<title>Node2</title>
<g id="a_node2"><a xlink:href="GaussianPrediction_8h.html" target="_top" xlink:title=" ">
<polygon fill="white" stroke="black" points="884,-234.5 884,-275.5 1069,-275.5 1069,-234.5 884,-234.5"/>
<text text-anchor="start" x="892" y="-263.5" font-family="Helvetica,sans-Serif" font-size="10.00">/home/user/bayes&#45;filters</text>
<text text-anchor="start" x="892" y="-252.5" font-family="Helvetica,sans-Serif" font-size="10.00">&#45;lib/src/BayesFilters/include</text>
<text text-anchor="middle" x="976.5" y="-241.5" font-family="Helvetica,sans-Serif" font-size="10.00">/BayesFilters/GaussianPrediction.h</text>
</a>
</g>
</g>
<!-- Node1&#45;&gt;Node2 -->
<g id="edge1" class="edge">
<title>Node1&#45;&gt;Node2</title>
<path fill="none" stroke="midnightblue" d="M1159.01,-387.34C1133.3,-378.9 1105.95,-367.89 1082.5,-354 1046.49,-332.67 1012.35,-297.46 992.97,-275.56"/>
<polygon fill="midnightblue" stroke="midnightblue" points="1158.18,-390.75 1168.77,-390.46 1160.31,-384.08 1158.18,-390.75"/>
</g>
<!-- Node5 -->
<g id="node5" class="node">
<title>Node5</title>
<g id="a_node5"><a xlink:href="GPFPrediction_8h.html" target="_top" xlink:title=" ">
<polygon fill="white" stroke="black" points="537.5,-156.5 537.5,-197.5 697.5,-197.5 697.5,-156.5 537.5,-156.5"/>
<text text-anchor="start" x="545.5" y="-185.5" font-family="Helvetica,sans-Serif" font-size="10.00">/home/user/bayes&#45;filters</text>
<text text-anchor="start" x="545.5" y="-174.5" font-family="Helvetica,sans-Serif" font-size="10.00">&#45;lib/src/BayesFilters/include</text>
<text text-anchor="middle" x="617.5" y="-163.5" font-family="Helvetica,sans-Serif" font-size="10.00">/BayesFilters/GPFPrediction.h</text>
</a>
</g>
</g>
<!-- Node1&#45;&gt;Node5 -->
<g id="edge11" class="edge">
<title>Node1&#45;&gt;Node5</title>
<path fill="none" stroke="midnightblue" d="M1152.13,-395.47C1048.37,-377.39 881.23,-340.7 749.5,-276 706.72,-254.99 663.58,-219.68 638.76,-197.68"/>
<polygon fill="midnightblue" stroke="midnightblue" points="1151.84,-398.97 1162.29,-397.21 1153.02,-392.07 1151.84,-398.97"/>
</g>
<!-- Node7 -->
<g id="node7" class="node">
<title>Node7</title>
<g id="a_node7"><a xlink:href="KFPrediction_8h.html" target="_top" xlink:title=" ">
<polygon fill="white" stroke="black" points="1028,-78.5 1028,-119.5 1181,-119.5 1181,-78.5 1028,-78.5"/>
<text text-anchor="start" x="1036" y="-107.5" font-family="Helvetica,sans-Serif" font-size="10.00">/home/user/bayes&#45;filters</text>
<text text-anchor="start" x="1036" y="-96.5" font-family="Helvetica,sans-Serif" font-size="10.00">&#45;lib/src/BayesFilters/include</text>
<text text-anchor="middle" x="1104.5" y="-85.5" font-family="Helvetica,sans-Serif" font-size="10.00">/BayesFilters/KFPrediction.h</text>
</a>
</g>
</g>
<!-- Node1&#45;&gt;Node7 -->
<g id="edge12" class="edge">
<title>Node1&#45;&gt;Node7</title>
<path fill="none" stroke="midnightblue" d="M1211.89,-384.28C1180.29,-360.32 1137.09,-321.51 1116.5,-276 1092.77,-223.54 1097.42,-153.21 1101.57,-119.55"/>
<polygon fill="midnightblue" stroke="midnightblue" points="1209.94,-387.19 1220.06,-390.34 1214.11,-381.57 1209.94,-387.19"/>
</g>
<!-- Node9 -->
<g id="node9" class="node">
<title>Node9</title>
<g id="a_node9"><a xlink:href="UKFPrediction_8h.html" target="_top" xlink:title=" ">
<polygon fill="white" stroke="black" points="2003,-78.5 2003,-119.5 2164,-119.5 2164,-78.5 2003,-78.5"/>
<text text-anchor="start" x="2011" y="-107.5" font-family="Helvetica,sans-Serif" font-size="10.00">/home/user/bayes&#45;filters</text>
<text text-anchor="start" x="2011" y="-96.5" font-family="Helvetica,sans-Serif" font-size="10.00">&#45;lib/src/BayesFilters/include</text>
<text text-anchor="middle" x="2083.5" y="-85.5" font-family="Helvetica,sans-Serif" font-size="10.00">/BayesFilters/UKFPrediction.h</text>
</a>
</g>
</g>
<!-- Node1&#45;&gt;Node9 -->
<g id="edge54" class="edge">
<title>Node1&#45;&gt;Node9</title>
<path fill="none" stroke="midnightblue" d="M1346.87,-406.96C1542.14,-398.9 1972.09,-370.6 2079.5,-276 2120.25,-240.11 2111.34,-209.58 2102.5,-156 2100.44,-143.54 2095.98,-130.13 2091.89,-119.55"/>
<polygon fill="midnightblue" stroke="midnightblue" points="1346.47,-403.48 1336.62,-407.38 1346.75,-410.47 1346.47,-403.48"/>
</g>
<!-- Node12 -->
<g id="node12" class="node">
<title>Node12</title>
<g id="a_node12"><a xlink:href="PFPrediction_8h.html" target="_top" xlink:title=" ">
<polygon fill="white" stroke="black" points="364.5,-234.5 364.5,-275.5 516.5,-275.5 516.5,-234.5 364.5,-234.5"/>
<text text-anchor="start" x="372.5" y="-263.5" font-family="Helvetica,sans-Serif" font-size="10.00">/home/user/bayes&#45;filters</text>
<text text-anchor="start" x="372.5" y="-252.5" font-family="Helvetica,sans-Serif" font-size="10.00">&#45;lib/src/BayesFilters/include</text>
<text text-anchor="middle" x="440.5" y="-241.5" font-family="Helvetica,sans-Serif" font-size="10.00">/BayesFilters/PFPrediction.h</text>
</a>
</g>
</g>
<!-- Node1&#45;&gt;Node12 -->
<g id="edge13" class="edge">
<title>Node1&#45;&gt;Node12</title>
<path fill="none" stroke="midnightblue" d="M1152.2,-409.14C1037.18,-406.14 840.77,-394.79 677.5,-354 604.07,-335.65 523.65,-298.46 477.91,-275.54"/>
<polygon fill="midnightblue" stroke="midnightblue" points="1152.31,-412.64 1162.39,-409.39 1152.48,-405.64 1152.31,-412.64"/>
</g>
<!-- Node20 -->
<g id="node20" class="node">
<title>Node20</title>
<g id="a_node20"><a xlink:href="sigma__point_8h.html" target="_top" xlink:title=" ">
<polygon fill="white" stroke="black" points="2175.5,-156.5 2175.5,-197.5 2327.5,-197.5 2327.5,-156.5 2175.5,-156.5"/>
<text text-anchor="start" x="2183.5" y="-185.5" font-family="Helvetica,sans-Serif" font-size="10.00">/home/user/bayes&#45;filters</text>
<text text-anchor="start" x="2183.5" y="-174.5" font-family="Helvetica,sans-Serif" font-size="10.00">&#45;lib/src/BayesFilters/include</text>
<text text-anchor="middle" x="2251.5" y="-163.5" font-family="Helvetica,sans-Serif" font-size="10.00">/BayesFilters/sigma_point.h</text>
</a>
</g>
</g>
<!-- Node1&#45;&gt;Node20 -->
<g id="edge23" class="edge">
<title>Node1&#45;&gt;Node20</title>
<path fill="none" stroke="midnightblue" d="M1347.05,-409.42C1568.39,-407.33 2094.67,-397.76 2161.5,-354 2217.2,-317.53 2240.17,-235.26 2248.02,-197.55"/>
<polygon fill="midnightblue" stroke="midnightblue" points="1346.71,-405.92 1336.74,-409.51 1346.78,-412.92 1346.71,-405.92"/>
</g>
<!-- Node26 -->
<g id="node26" class="node">
<title>Node26</title>
<g id="a_node26"><a xlink:href="StateModel_8h.html" target="_top" xlink:title=" ">
<polygon fill="white" stroke="black" points="1251,-312.5 1251,-353.5 1402,-353.5 1402,-312.5 1251,-312.5"/>
<text text-anchor="start" x="1259" y="-341.5" font-family="Helvetica,sans-Serif" font-size="10.00">/home/user/bayes&#45;filters</text>
<text text-anchor="start" x="1259" y="-330.5" font-family="Helvetica,sans-Serif" font-size="10.00">&#45;lib/src/BayesFilters/include</text>
<text text-anchor="middle" x="1326.5" y="-319.5" font-family="Helvetica,sans-Serif" font-size="10.00">/BayesFilters/StateModel.h</text>
</a>
</g>
</g>
<!-- Node1&#45;&gt;Node26 -->
<g id="edge30" class="edge">
<title>Node1&#45;&gt;Node26</title>
<path fill="none" stroke="midnightblue" d="M1276.65,-383.2C1286.57,-373.42 1297.59,-362.54 1306.74,-353.51"/>
<polygon fill="midnightblue" stroke="midnightblue" points="1273.99,-380.91 1269.33,-390.43 1278.91,-385.89 1273.99,-380.91"/>
</g>
<!-- Node42 -->
<g id="node42" class="node">
<title>Node42</title>
<g id="a_node42"><a xlink:href="ExogenousModel_8cpp.html" target="_top" xlink:title=" ">
<polygon fill="white" stroke="black" points="2214,-312.5 2214,-353.5 2349,-353.5 2349,-312.5 2214,-312.5"/>
<text text-anchor="start" x="2222" y="-341.5" font-family="Helvetica,sans-Serif" font-size="10.00">/home/user/bayes&#45;filters</text>
<text text-anchor="start" x="2222" y="-330.5" font-family="Helvetica,sans-Serif" font-size="10.00">&#45;lib/src/BayesFilters/src</text>
<text text-anchor="middle" x="2281.5" y="-319.5" font-family="Helvetica,sans-Serif" font-size="10.00">/ExogenousModel.cpp</text>
</a>
</g>
</g>
<!-- Node1&#45;&gt;Node42 -->
<g id="edge55" class="edge">
<title>Node1&#45;&gt;Node42</title>
<path fill="none" stroke="midnightblue" d="M1346.9,-410.03C1519.63,-408.81 1890.53,-400.4 2199.5,-354 2204.14,-353.3 2208.9,-352.47 2213.67,-351.54"/>
<polygon fill="midnightblue" stroke="midnightblue" points="1346.8,-406.53 1336.82,-410.1 1346.84,-413.53 1346.8,-406.53"/>
</g>
<!-- Node3 -->
<g id="node3" class="node">
<title>Node3</title>
<g id="a_node3"><a xlink:href="GaussianFilter_8h.html" target="_top" xlink:title=" ">
<polygon fill="white" stroke="black" points="869,-156.5 869,-197.5 1030,-197.5 1030,-156.5 869,-156.5"/>
<text text-anchor="start" x="877" y="-185.5" font-family="Helvetica,sans-Serif" font-size="10.00">/home/user/bayes&#45;filters</text>
<text text-anchor="start" x="877" y="-174.5" font-family="Helvetica,sans-Serif" font-size="10.00">&#45;lib/src/BayesFilters/include</text>
<text text-anchor="middle" x="949.5" y="-163.5" font-family="Helvetica,sans-Serif" font-size="10.00">/BayesFilters/GaussianFilter.h</text>
</a>
</g>
</g>
<!-- Node2&#45;&gt;Node3 -->
<g id="edge2" class="edge">
<title>Node2&#45;&gt;Node3</title>
<path fill="none" stroke="midnightblue" d="M966.16,-224.88C962.9,-215.72 959.39,-205.83 956.43,-197.51"/>
<polygon fill="midnightblue" stroke="midnightblue" points="962.9,-226.18 969.55,-234.43 969.5,-223.83 962.9,-226.18"/>
</g>
<!-- Node2&#45;&gt;Node5 -->
<g id="edge4" class="edge">
<title>Node2&#45;&gt;Node5</title>
<path fill="none" stroke="midnightblue" d="M874.01,-233.16C823.53,-222.79 761.77,-209.94 706.5,-198 703.56,-197.36 700.56,-196.71 697.54,-196.05"/>
<polygon fill="midnightblue" stroke="midnightblue" points="873.45,-236.62 883.95,-235.2 874.86,-229.76 873.45,-236.62"/>
</g>
<!-- Node2&#45;&gt;Node7 -->
<g id="edge6" class="edge">
<title>Node2&#45;&gt;Node7</title>
<path fill="none" stroke="midnightblue" d="M1008.86,-227.45C1018.86,-218.56 1029.58,-208.29 1038.5,-198 1060.27,-172.9 1080.92,-140.32 1093.15,-119.78"/>
<polygon fill="midnightblue" stroke="midnightblue" points="1006.29,-225.05 1001.05,-234.25 1010.89,-230.33 1006.29,-225.05"/>
</g>
<!-- Node2&#45;&gt;Node9 -->
<g id="edge8" class="edge">
<title>Node2&#45;&gt;Node9</title>
<path fill="none" stroke="midnightblue" d="M1079.35,-238.2C1091.84,-236.61 1104.45,-235.15 1116.5,-234 1197.56,-226.23 1775.14,-233.34 1848.5,-198 1870.91,-187.2 1864.45,-169.26 1885.5,-156 1896.19,-149.26 1955.56,-132.87 2006.52,-119.54"/>
<polygon fill="midnightblue" stroke="midnightblue" points="1078.82,-234.74 1069.36,-239.5 1079.73,-241.68 1078.82,-234.74"/>
</g>
<!-- Node11 -->
<g id="node11" class="node">
<title>Node11</title>
<g id="a_node11"><a xlink:href="GaussianPrediction_8cpp.html" target="_top" xlink:title=" ">
<polygon fill="white" stroke="black" points="716,-156.5 716,-197.5 851,-197.5 851,-156.5 716,-156.5"/>
<text text-anchor="start" x="724" y="-185.5" font-family="Helvetica,sans-Serif" font-size="10.00">/home/user/bayes&#45;filters</text>
<text text-anchor="start" x="724" y="-174.5" font-family="Helvetica,sans-Serif" font-size="10.00">&#45;lib/src/BayesFilters/src</text>
<text text-anchor="middle" x="783.5" y="-163.5" font-family="Helvetica,sans-Serif" font-size="10.00">/GaussianPrediction.cpp</text>
</a>
</g>
</g>
<!-- Node2&#45;&gt;Node11 -->
<g id="edge10" class="edge">
<title>Node2&#45;&gt;Node11</title>
<path fill="none" stroke="midnightblue" d="M917.45,-230.75C890.44,-220.11 858.78,-207.65 833.03,-197.51"/>
<polygon fill="midnightblue" stroke="midnightblue" points="916.21,-234.02 926.8,-234.43 918.78,-227.51 916.21,-234.02"/>
</g>
<!-- Node4 -->
<g id="node4" class="node">
<title>Node4</title>
<g id="a_node4"><a xlink:href="GaussianFilter_8cpp.html" target="_top" xlink:title=" ">
<polygon fill="white" stroke="black" points="875,-78.5 875,-119.5 1010,-119.5 1010,-78.5 875,-78.5"/>
<text text-anchor="start" x="883" y="-107.5" font-family="Helvetica,sans-Serif" font-size="10.00">/home/user/bayes&#45;filters</text>
<text text-anchor="start" x="883" y="-96.5" font-family="Helvetica,sans-Serif" font-size="10.00">&#45;lib/src/BayesFilters/src</text>
<text text-anchor="middle" x="942.5" y="-85.5" font-family="Helvetica,sans-Serif" font-size="10.00">/GaussianFilter.cpp</text>
</a>
</g>
</g>
<!-- Node3&#45;&gt;Node4 -->
<g id="edge3" class="edge">
<title>Node3&#45;&gt;Node4</title>
<path fill="none" stroke="midnightblue" d="M946.76,-146.3C945.94,-137.3 945.05,-127.65 944.3,-119.51"/>
<polygon fill="midnightblue" stroke="midnightblue" points="943.29,-146.79 947.7,-156.43 950.27,-146.15 943.29,-146.79"/>
</g>
<!-- Node6 -->
<g id="node6" class="node">
<title>Node6</title>
<g id="a_node6"><a xlink:href="GPFPrediction_8cpp.html" target="_top" xlink:title=" ">
<polygon fill="white" stroke="black" points="550,-78.5 550,-119.5 685,-119.5 685,-78.5 550,-78.5"/>
<text text-anchor="start" x="558" y="-107.5" font-family="Helvetica,sans-Serif" font-size="10.00">/home/user/bayes&#45;filters</text>
<text text-anchor="start" x="558" y="-96.5" font-family="Helvetica,sans-Serif" font-size="10.00">&#45;lib/src/BayesFilters/src</text>
<text text-anchor="middle" x="617.5" y="-85.5" font-family="Helvetica,sans-Serif" font-size="10.00">/GPFPrediction.cpp</text>
</a>
</g>
</g>
<!-- Node5&#45;&gt;Node6 -->
<g id="edge5" class="edge">
<title>Node5&#45;&gt;Node6</title>
<path fill="none" stroke="midnightblue" d="M617.5,-146.3C617.5,-137.3 617.5,-127.65 617.5,-119.51"/>
<polygon fill="midnightblue" stroke="midnightblue" points="614,-146.43 617.5,-156.43 621,-146.43 614,-146.43"/>
</g>
<!-- Node8 -->
<g id="node8" class="node">
<title>Node8</title>
<g id="a_node8"><a xlink:href="KFPrediction_8cpp.html" target="_top" xlink:title=" ">
<polygon fill="white" stroke="black" points="1037,-0.5 1037,-41.5 1172,-41.5 1172,-0.5 1037,-0.5"/>
<text text-anchor="start" x="1045" y="-29.5" font-family="Helvetica,sans-Serif" font-size="10.00">/home/user/bayes&#45;filters</text>
<text text-anchor="start" x="1045" y="-18.5" font-family="Helvetica,sans-Serif" font-size="10.00">&#45;lib/src/BayesFilters/src</text>
<text text-anchor="middle" x="1104.5" y="-7.5" font-family="Helvetica,sans-Serif" font-size="10.00">/KFPrediction.cpp</text>
</a>
</g>
</g>
<!-- Node7&#45;&gt;Node8 -->
<g id="edge7" class="edge">
<title>Node7&#45;&gt;Node8</title>
<path fill="none" stroke="midnightblue" d="M1104.5,-68.3C1104.5,-59.3 1104.5,-49.65 1104.5,-41.51"/>
<polygon fill="midnightblue" stroke="midnightblue" points="1101,-68.43 1104.5,-78.43 1108,-68.43 1101,-68.43"/>
</g>
<!-- Node10 -->
<g id="node10" class="node">
<title>Node10</title>
<g id="a_node10"><a xlink:href="UKFPrediction_8cpp.html" target="_top" xlink:title=" ">
<polygon fill="white" stroke="black" points="2016,-0.5 2016,-41.5 2151,-41.5 2151,-0.5 2016,-0.5"/>
<text text-anchor="start" x="2024" y="-29.5" font-family="Helvetica,sans-Serif" font-size="10.00">/home/user/bayes&#45;filters</text>
<text text-anchor="start" x="2024" y="-18.5" font-family="Helvetica,sans-Serif" font-size="10.00">&#45;lib/src/BayesFilters/src</text>
<text text-anchor="middle" x="2083.5" y="-7.5" font-family="Helvetica,sans-Serif" font-size="10.00">/UKFPrediction.cpp</text>
</a>
</g>
</g>
<!-- Node9&#45;&gt;Node10 -->
<g id="edge9" class="edge">
<title>Node9&#45;&gt;Node10</title>
<path fill="none" stroke="midnightblue" d="M2083.5,-68.3C2083.5,-59.3 2083.5,-49.65 2083.5,-41.51"/>
<polygon fill="midnightblue" stroke="midnightblue" points="2080,-68.43 2083.5,-78.43 2087,-68.43 2080,-68.43"/>
</g>
<!-- Node12&#45;&gt;Node5 -->
<g id="edge16" class="edge">
<title>Node12&#45;&gt;Node5</title>
<path fill="none" stroke="midnightblue" d="M495.3,-230.47C519.94,-219.89 548.66,-207.56 572.07,-197.51"/>
<polygon fill="midnightblue" stroke="midnightblue" points="493.89,-227.27 486.08,-234.43 496.65,-233.7 493.89,-227.27"/>
</g>
<!-- Node13 -->
<g id="node13" class="node">
<title>Node13</title>
<g id="a_node13"><a xlink:href="DrawParticles_8h.html" target="_top" xlink:title=" ">
<polygon fill="white" stroke="black" points="361.5,-156.5 361.5,-197.5 519.5,-197.5 519.5,-156.5 361.5,-156.5"/>
<text text-anchor="start" x="369.5" y="-185.5" font-family="Helvetica,sans-Serif" font-size="10.00">/home/user/bayes&#45;filters</text>
<text text-anchor="start" x="369.5" y="-174.5" font-family="Helvetica,sans-Serif" font-size="10.00">&#45;lib/src/BayesFilters/include</text>
<text text-anchor="middle" x="440.5" y="-163.5" font-family="Helvetica,sans-Serif" font-size="10.00">/BayesFilters/DrawParticles.h</text>
</a>
</g>
</g>
<!-- Node12&#45;&gt;Node13 -->
<g id="edge14" class="edge">
<title>Node12&#45;&gt;Node13</title>
<path fill="none" stroke="midnightblue" d="M440.5,-224.3C440.5,-215.3 440.5,-205.65 440.5,-197.51"/>
<polygon fill="midnightblue" stroke="midnightblue" points="437,-224.43 440.5,-234.43 444,-224.43 437,-224.43"/>
</g>
<!-- Node15 -->
<g id="node15" class="node">
<title>Node15</title>
<g id="a_node15"><a xlink:href="ParticleFilter_8h.html" target="_top" xlink:title=" ">
<polygon fill="white" stroke="black" points="191.5,-156.5 191.5,-197.5 343.5,-197.5 343.5,-156.5 191.5,-156.5"/>
<text text-anchor="start" x="199.5" y="-185.5" font-family="Helvetica,sans-Serif" font-size="10.00">/home/user/bayes&#45;filters</text>
<text text-anchor="start" x="199.5" y="-174.5" font-family="Helvetica,sans-Serif" font-size="10.00">&#45;lib/src/BayesFilters/include</text>
<text text-anchor="middle" x="267.5" y="-163.5" font-family="Helvetica,sans-Serif" font-size="10.00">/BayesFilters/ParticleFilter.h</text>
</a>
</g>
</g>
<!-- Node12&#45;&gt;Node15 -->
<g id="edge17" class="edge">
<title>Node12&#45;&gt;Node15</title>
<path fill="none" stroke="midnightblue" d="M386.62,-230.33C362.61,-219.78 334.68,-207.51 311.9,-197.51"/>
<polygon fill="midnightblue" stroke="midnightblue" points="385.38,-233.61 395.95,-234.43 388.2,-227.2 385.38,-233.61"/>
</g>
<!-- Node16 -->
<g id="node16" class="node">
<title>Node16</title>
<g id="a_node16"><a xlink:href="SIS_8h.html" target="_top" xlink:title=" ">
<polygon fill="white" stroke="black" points="63,-78.5 63,-119.5 214,-119.5 214,-78.5 63,-78.5"/>
<text text-anchor="start" x="71" y="-107.5" font-family="Helvetica,sans-Serif" font-size="10.00">/home/user/bayes&#45;filters</text>
<text text-anchor="start" x="71" y="-96.5" font-family="Helvetica,sans-Serif" font-size="10.00">&#45;lib/src/BayesFilters/include</text>
<text text-anchor="middle" x="138.5" y="-85.5" font-family="Helvetica,sans-Serif" font-size="10.00">/BayesFilters/SIS.h</text>
</a>
</g>
</g>
<!-- Node12&#45;&gt;Node16 -->
<g id="edge21" class="edge">
<title>Node12&#45;&gt;Node16</title>
<path fill="none" stroke="midnightblue" d="M354.1,-243.71C289.73,-234.51 208.65,-219.2 182.5,-198 158.16,-178.27 146.82,-142.23 141.9,-119.78"/>
<polygon fill="midnightblue" stroke="midnightblue" points="353.89,-247.21 364.28,-245.13 354.86,-240.28 353.89,-247.21"/>
</g>
<!-- Node19 -->
<g id="node19" class="node">
<title>Node19</title>
<g id="a_node19"><a xlink:href="PFPrediction_8cpp.html" target="_top" xlink:title=" ">
<polygon fill="white" stroke="black" points="0,-156.5 0,-197.5 135,-197.5 135,-156.5 0,-156.5"/>
<text text-anchor="start" x="8" y="-185.5" font-family="Helvetica,sans-Serif" font-size="10.00">/home/user/bayes&#45;filters</text>
<text text-anchor="start" x="8" y="-174.5" font-family="Helvetica,sans-Serif" font-size="10.00">&#45;lib/src/BayesFilters/src</text>
<text text-anchor="middle" x="67.5" y="-163.5" font-family="Helvetica,sans-Serif" font-size="10.00">/PFPrediction.cpp</text>
</a>
</g>
</g>
<!-- Node12&#45;&gt;Node19 -->
<g id="edge22" class="edge">
<title>Node12&#45;&gt;Node19</title>
<path fill="none" stroke="midnightblue" d="M354.45,-238.59C296.4,-227.91 218.16,-212.97 149.5,-198 144.78,-196.97 139.91,-195.87 135.01,-194.74"/>
<polygon fill="midnightblue" stroke="midnightblue" points="353.85,-242.04 364.32,-240.4 355.11,-235.15 353.85,-242.04"/>
</g>
<!-- Node14 -->
<g id="node14" class="node">
<title>Node14</title>
<g id="a_node14"><a xlink:href="DrawParticles_8cpp.html" target="_top" xlink:title=" ">
<polygon fill="white" stroke="black" points="385,-78.5 385,-119.5 520,-119.5 520,-78.5 385,-78.5"/>
<text text-anchor="start" x="393" y="-107.5" font-family="Helvetica,sans-Serif" font-size="10.00">/home/user/bayes&#45;filters</text>
<text text-anchor="start" x="393" y="-96.5" font-family="Helvetica,sans-Serif" font-size="10.00">&#45;lib/src/BayesFilters/src</text>
<text text-anchor="middle" x="452.5" y="-85.5" font-family="Helvetica,sans-Serif" font-size="10.00">/DrawParticles.cpp</text>
</a>
</g>
</g>
<!-- Node13&#45;&gt;Node14 -->
<g id="edge15" class="edge">
<title>Node13&#45;&gt;Node14</title>
<path fill="none" stroke="midnightblue" d="M445.19,-146.3C446.61,-137.3 448.13,-127.65 449.42,-119.51"/>
<polygon fill="midnightblue" stroke="midnightblue" points="441.69,-146 443.59,-156.43 448.61,-147.1 441.69,-146"/>
</g>
<!-- Node15&#45;&gt;Node16 -->
<g id="edge18" class="edge">
<title>Node15&#45;&gt;Node16</title>
<path fill="none" stroke="midnightblue" d="M225.41,-151.2C207.95,-140.92 187.99,-129.16 171.61,-119.51"/>
<polygon fill="midnightblue" stroke="midnightblue" points="223.89,-154.37 234.28,-156.43 227.44,-148.34 223.89,-154.37"/>
</g>
<!-- Node18 -->
<g id="node18" class="node">
<title>Node18</title>
<g id="a_node18"><a xlink:href="ParticleFilter_8cpp.html" target="_top" xlink:title=" ">
<polygon fill="white" stroke="black" points="232,-78.5 232,-119.5 367,-119.5 367,-78.5 232,-78.5"/>
<text text-anchor="start" x="240" y="-107.5" font-family="Helvetica,sans-Serif" font-size="10.00">/home/user/bayes&#45;filters</text>
<text text-anchor="start" x="240" y="-96.5" font-family="Helvetica,sans-Serif" font-size="10.00">&#45;lib/src/BayesFilters/src</text>
<text text-anchor="middle" x="299.5" y="-85.5" font-family="Helvetica,sans-Serif" font-size="10.00">/ParticleFilter.cpp</text>
</a>
</g>
</g>
<!-- Node15&#45;&gt;Node18 -->
<g id="edge20" class="edge">
<title>Node15&#45;&gt;Node18</title>
<path fill="none" stroke="midnightblue" d="M279.64,-147.17C283.53,-137.93 287.74,-127.92 291.29,-119.51"/>
<polygon fill="midnightblue" stroke="midnightblue" points="276.4,-145.85 275.74,-156.43 282.85,-148.57 276.4,-145.85"/>
</g>
<!-- Node17 -->
<g id="node17" class="node">
<title>Node17</title>
<g id="a_node17"><a xlink:href="SIS_8cpp.html" target="_top" xlink:title=" ">
<polygon fill="white" stroke="black" points="71,-0.5 71,-41.5 206,-41.5 206,-0.5 71,-0.5"/>
<text text-anchor="start" x="79" y="-29.5" font-family="Helvetica,sans-Serif" font-size="10.00">/home/user/bayes&#45;filters</text>
<text text-anchor="start" x="79" y="-18.5" font-family="Helvetica,sans-Serif" font-size="10.00">&#45;lib/src/BayesFilters/src</text>
<text text-anchor="middle" x="138.5" y="-7.5" font-family="Helvetica,sans-Serif" font-size="10.00">/SIS.cpp</text>
</a>
</g>
</g>
<!-- Node16&#45;&gt;Node17 -->
<g id="edge19" class="edge">
<title>Node16&#45;&gt;Node17</title>
<path fill="none" stroke="midnightblue" d="M138.5,-68.3C138.5,-59.3 138.5,-49.65 138.5,-41.51"/>
<polygon fill="midnightblue" stroke="midnightblue" points="135,-68.43 138.5,-78.43 142,-68.43 135,-68.43"/>
</g>
<!-- Node20&#45;&gt;Node9 -->
<g id="edge28" class="edge">
<title>Node20&#45;&gt;Node9</title>
<path fill="none" stroke="midnightblue" d="M2198.87,-152.19C2175.62,-141.67 2148.64,-129.47 2126.62,-119.51"/>
<polygon fill="midnightblue" stroke="midnightblue" points="2197.68,-155.5 2208.24,-156.43 2200.57,-149.12 2197.68,-155.5"/>
</g>
<!-- Node21 -->
<g id="node21" class="node">
<title>Node21</title>
<g id="a_node21"><a xlink:href="SUKFCorrection_8h.html" target="_top" xlink:title=" ">
<polygon fill="white" stroke="black" points="2516.5,-78.5 2516.5,-119.5 2684.5,-119.5 2684.5,-78.5 2516.5,-78.5"/>
<text text-anchor="start" x="2524.5" y="-107.5" font-family="Helvetica,sans-Serif" font-size="10.00">/home/user/bayes&#45;filters</text>
<text text-anchor="start" x="2524.5" y="-96.5" font-family="Helvetica,sans-Serif" font-size="10.00">&#45;lib/src/BayesFilters/include</text>
<text text-anchor="middle" x="2600.5" y="-85.5" font-family="Helvetica,sans-Serif" font-size="10.00">/BayesFilters/SUKFCorrection.h</text>
</a>
</g>
</g>
<!-- Node20&#45;&gt;Node21 -->
<g id="edge24" class="edge">
<title>Node20&#45;&gt;Node21</title>
<path fill="none" stroke="midnightblue" d="M2337.64,-157.24C2392.1,-145.38 2462.16,-130.13 2516.25,-118.35"/>
<polygon fill="midnightblue" stroke="midnightblue" points="2336.68,-153.87 2327.66,-159.42 2338.17,-160.71 2336.68,-153.87"/>
</g>
<!-- Node23 -->
<g id="node23" class="node">
<title>Node23</title>
<g id="a_node23"><a xlink:href="UKFCorrection_8h.html" target="_top" xlink:title=" ">
<polygon fill="white" stroke="black" points="2182.5,-78.5 2182.5,-119.5 2344.5,-119.5 2344.5,-78.5 2182.5,-78.5"/>
<text text-anchor="start" x="2190.5" y="-107.5" font-family="Helvetica,sans-Serif" font-size="10.00">/home/user/bayes&#45;filters</text>
<text text-anchor="start" x="2190.5" y="-96.5" font-family="Helvetica,sans-Serif" font-size="10.00">&#45;lib/src/BayesFilters/include</text>
<text text-anchor="middle" x="2263.5" y="-85.5" font-family="Helvetica,sans-Serif" font-size="10.00">/BayesFilters/UKFCorrection.h</text>
</a>
</g>
</g>
<!-- Node20&#45;&gt;Node23 -->
<g id="edge26" class="edge">
<title>Node20&#45;&gt;Node23</title>
<path fill="none" stroke="midnightblue" d="M2256.19,-146.3C2257.61,-137.3 2259.13,-127.65 2260.42,-119.51"/>
<polygon fill="midnightblue" stroke="midnightblue" points="2252.69,-146 2254.59,-156.43 2259.61,-147.1 2252.69,-146"/>
</g>
<!-- Node25 -->
<g id="node25" class="node">
<title>Node25</title>
<g id="a_node25"><a xlink:href="sigma__point_8cpp.html" target="_top" xlink:title=" ">
<polygon fill="white" stroke="black" points="2363,-78.5 2363,-119.5 2498,-119.5 2498,-78.5 2363,-78.5"/>
<text text-anchor="start" x="2371" y="-107.5" font-family="Helvetica,sans-Serif" font-size="10.00">/home/user/bayes&#45;filters</text>
<text text-anchor="start" x="2371" y="-96.5" font-family="Helvetica,sans-Serif" font-size="10.00">&#45;lib/src/BayesFilters/src</text>
<text text-anchor="middle" x="2430.5" y="-85.5" font-family="Helvetica,sans-Serif" font-size="10.00">/sigma_point.cpp</text>
</a>
</g>
</g>
<!-- Node20&#45;&gt;Node25 -->
<g id="edge29" class="edge">
<title>Node20&#45;&gt;Node25</title>
<path fill="none" stroke="midnightblue" d="M2306.92,-152.47C2331.83,-141.89 2360.88,-129.56 2384.56,-119.51"/>
<polygon fill="midnightblue" stroke="midnightblue" points="2305.43,-149.3 2297.6,-156.43 2308.17,-155.74 2305.43,-149.3"/>
</g>
<!-- Node22 -->
<g id="node22" class="node">
<title>Node22</title>
<g id="a_node22"><a xlink:href="SUKFCorrection_8cpp.html" target="_top" xlink:title=" ">
<polygon fill="white" stroke="black" points="2533,-0.5 2533,-41.5 2668,-41.5 2668,-0.5 2533,-0.5"/>
<text text-anchor="start" x="2541" y="-29.5" font-family="Helvetica,sans-Serif" font-size="10.00">/home/user/bayes&#45;filters</text>
<text text-anchor="start" x="2541" y="-18.5" font-family="Helvetica,sans-Serif" font-size="10.00">&#45;lib/src/BayesFilters/src</text>
<text text-anchor="middle" x="2600.5" y="-7.5" font-family="Helvetica,sans-Serif" font-size="10.00">/SUKFCorrection.cpp</text>
</a>
</g>
</g>
<!-- Node21&#45;&gt;Node22 -->
<g id="edge25" class="edge">
<title>Node21&#45;&gt;Node22</title>
<path fill="none" stroke="midnightblue" d="M2600.5,-68.3C2600.5,-59.3 2600.5,-49.65 2600.5,-41.51"/>
<polygon fill="midnightblue" stroke="midnightblue" points="2597,-68.43 2600.5,-78.43 2604,-68.43 2597,-68.43"/>
</g>
<!-- Node24 -->
<g id="node24" class="node">
<title>Node24</title>
<g id="a_node24"><a xlink:href="UKFCorrection_8cpp.html" target="_top" xlink:title=" ">
<polygon fill="white" stroke="black" points="2196,-0.5 2196,-41.5 2331,-41.5 2331,-0.5 2196,-0.5"/>
<text text-anchor="start" x="2204" y="-29.5" font-family="Helvetica,sans-Serif" font-size="10.00">/home/user/bayes&#45;filters</text>
<text text-anchor="start" x="2204" y="-18.5" font-family="Helvetica,sans-Serif" font-size="10.00">&#45;lib/src/BayesFilters/src</text>
<text text-anchor="middle" x="2263.5" y="-7.5" font-family="Helvetica,sans-Serif" font-size="10.00">/UKFCorrection.cpp</text>
</a>
</g>
</g>
<!-- Node23&#45;&gt;Node24 -->
<g id="edge27" class="edge">
<title>Node23&#45;&gt;Node24</title>
<path fill="none" stroke="midnightblue" d="M2263.5,-68.3C2263.5,-59.3 2263.5,-49.65 2263.5,-41.51"/>
<polygon fill="midnightblue" stroke="midnightblue" points="2260,-68.43 2263.5,-78.43 2267,-68.43 2260,-68.43"/>
</g>
<!-- Node26&#45;&gt;Node2 -->
<g id="edge42" class="edge">
<title>Node26&#45;&gt;Node2</title>
<path fill="none" stroke="midnightblue" d="M1240.95,-313.42C1188.02,-301.93 1120.17,-287.2 1066.45,-275.53"/>
<polygon fill="midnightblue" stroke="midnightblue" points="1240.47,-316.9 1250.99,-315.6 1241.96,-310.06 1240.47,-316.9"/>
</g>
<!-- Node26&#45;&gt;Node5 -->
<g id="edge45" class="edge">
<title>Node26&#45;&gt;Node5</title>
<path fill="none" stroke="midnightblue" d="M1240.63,-327.53C1148.87,-321.33 999.68,-307.14 874.5,-276 796.19,-256.52 709.27,-220.05 659.24,-197.51"/>
<polygon fill="midnightblue" stroke="midnightblue" points="1240.5,-331.03 1250.71,-328.19 1240.96,-324.04 1240.5,-331.03"/>
</g>
<!-- Node26&#45;&gt;Node9 -->
<g id="edge52" class="edge">
<title>Node26&#45;&gt;Node9</title>
<path fill="none" stroke="midnightblue" d="M1412.23,-331.18C1594.13,-328.63 2005.98,-318.2 2052.5,-276 2096.74,-235.87 2091.97,-156.58 2086.89,-119.71"/>
<polygon fill="midnightblue" stroke="midnightblue" points="1412.11,-327.68 1402.16,-331.32 1412.21,-334.68 1412.11,-327.68"/>
</g>
<!-- Node26&#45;&gt;Node12 -->
<g id="edge46" class="edge">
<title>Node26&#45;&gt;Node12</title>
<path fill="none" stroke="midnightblue" d="M1240.91,-324.66C1068.37,-309.86 681.29,-276.65 516.79,-262.54"/>
<polygon fill="midnightblue" stroke="midnightblue" points="1240.7,-328.15 1250.96,-325.52 1241.3,-321.18 1240.7,-328.15"/>
</g>
<!-- Node26&#45;&gt;Node20 -->
<g id="edge47" class="edge">
<title>Node26&#45;&gt;Node20</title>
<path fill="none" stroke="midnightblue" d="M1412.32,-330.58C1583.63,-326.93 1962.09,-314.65 2085.5,-276 2113.76,-267.15 2182.3,-223.69 2221.91,-197.71"/>
<polygon fill="midnightblue" stroke="midnightblue" points="1412.01,-327.08 1402.09,-330.79 1412.16,-334.08 1412.01,-327.08"/>
</g>
<!-- Node27 -->
<g id="node27" class="node">
<title>Node27</title>
<g id="a_node27"><a xlink:href="AdditiveStateModel_8h.html" target="_top" xlink:title=" ">
<polygon fill="white" stroke="black" points="1855.5,-234.5 1855.5,-275.5 2043.5,-275.5 2043.5,-234.5 1855.5,-234.5"/>
<text text-anchor="start" x="1863.5" y="-263.5" font-family="Helvetica,sans-Serif" font-size="10.00">/home/user/bayes&#45;filters</text>
<text text-anchor="start" x="1863.5" y="-252.5" font-family="Helvetica,sans-Serif" font-size="10.00">&#45;lib/src/BayesFilters/include</text>
<text text-anchor="middle" x="1949.5" y="-241.5" font-family="Helvetica,sans-Serif" font-size="10.00">/BayesFilters/AdditiveStateModel.h</text>
</a>
</g>
</g>
<!-- Node26&#45;&gt;Node27 -->
<g id="edge31" class="edge">
<title>Node26&#45;&gt;Node27</title>
<path fill="none" stroke="midnightblue" d="M1412.54,-321.5C1528.8,-307.32 1735.28,-282.13 1855.49,-267.47"/>
<polygon fill="midnightblue" stroke="midnightblue" points="1411.77,-318.07 1402.27,-322.76 1412.62,-325.02 1411.77,-318.07"/>
</g>
<!-- Node35 -->
<g id="node35" class="node">
<title>Node35</title>
<g id="a_node35"><a xlink:href="GPFCorrection_8h.html" target="_top" xlink:title=" ">
<polygon fill="white" stroke="black" points="1125,-234.5 1125,-275.5 1286,-275.5 1286,-234.5 1125,-234.5"/>
<text text-anchor="start" x="1133" y="-263.5" font-family="Helvetica,sans-Serif" font-size="10.00">/home/user/bayes&#45;filters</text>
<text text-anchor="start" x="1133" y="-252.5" font-family="Helvetica,sans-Serif" font-size="10.00">&#45;lib/src/BayesFilters/include</text>
<text text-anchor="middle" x="1205.5" y="-241.5" font-family="Helvetica,sans-Serif" font-size="10.00">/BayesFilters/GPFCorrection.h</text>
</a>
</g>
</g>
<!-- Node26&#45;&gt;Node35 -->
<g id="edge43" class="edge">
<title>Node26&#45;&gt;Node35</title>
<path fill="none" stroke="midnightblue" d="M1286.57,-306.92C1270.3,-296.7 1251.78,-285.07 1236.55,-275.51"/>
<polygon fill="midnightblue" stroke="midnightblue" points="1285.01,-310.07 1295.34,-312.43 1288.73,-304.15 1285.01,-310.07"/>
</g>
<!-- Node37 -->
<g id="node37" class="node">
<title>Node37</title>
<g id="a_node37"><a xlink:href="SimulatedStateModel_8h.html" target="_top" xlink:title=" ">
<polygon fill="white" stroke="black" points="1304,-234.5 1304,-275.5 1501,-275.5 1501,-234.5 1304,-234.5"/>
<text text-anchor="start" x="1312" y="-263.5" font-family="Helvetica,sans-Serif" font-size="10.00">/home/user/bayes&#45;filters</text>
<text text-anchor="start" x="1312" y="-252.5" font-family="Helvetica,sans-Serif" font-size="10.00">&#45;lib/src/BayesFilters/include</text>
<text text-anchor="middle" x="1402.5" y="-241.5" font-family="Helvetica,sans-Serif" font-size="10.00">/BayesFilters/SimulatedStateModel.h</text>
</a>
</g>
</g>
<!-- Node26&#45;&gt;Node37 -->
<g id="edge48" class="edge">
<title>Node26&#45;&gt;Node37</title>
<path fill="none" stroke="midnightblue" d="M1353.3,-305.2C1363.08,-295.42 1373.96,-284.54 1382.99,-275.51"/>
<polygon fill="midnightblue" stroke="midnightblue" points="1350.67,-302.88 1346.07,-312.43 1355.62,-307.83 1350.67,-302.88"/>
</g>
<!-- Node41 -->
<g id="node41" class="node">
<title>Node41</title>
<g id="a_node41"><a xlink:href="StateModel_8cpp.html" target="_top" xlink:title=" ">
<polygon fill="white" stroke="black" points="1519,-234.5 1519,-275.5 1654,-275.5 1654,-234.5 1519,-234.5"/>
<text text-anchor="start" x="1527" y="-263.5" font-family="Helvetica,sans-Serif" font-size="10.00">/home/user/bayes&#45;filters</text>
<text text-anchor="start" x="1527" y="-252.5" font-family="Helvetica,sans-Serif" font-size="10.00">&#45;lib/src/BayesFilters/src</text>
<text text-anchor="middle" x="1586.5" y="-241.5" font-family="Helvetica,sans-Serif" font-size="10.00">/StateModel.cpp</text>
</a>
</g>
</g>
<!-- Node26&#45;&gt;Node41 -->
<g id="edge53" class="edge">
<title>Node26&#45;&gt;Node41</title>
<path fill="none" stroke="midnightblue" d="M1403.2,-309.58C1440.2,-298.76 1484.17,-285.91 1519.77,-275.51"/>
<polygon fill="midnightblue" stroke="midnightblue" points="1402.07,-306.26 1393.46,-312.43 1404.04,-312.98 1402.07,-306.26"/>
</g>
<!-- Node27&#45;&gt;Node9 -->
<g id="edge40" class="edge">
<title>Node27&#45;&gt;Node9</title>
<path fill="none" stroke="midnightblue" d="M2000.86,-229.23C2014.69,-220.76 2028.77,-210.28 2039.5,-198 2059.75,-174.83 2072.17,-140.81 2078.45,-119.56"/>
<polygon fill="midnightblue" stroke="midnightblue" points="1998.72,-226.43 1991.85,-234.5 2002.25,-232.47 1998.72,-226.43"/>
</g>
<!-- Node27&#45;&gt;Node20 -->
<g id="edge39" class="edge">
<title>Node27&#45;&gt;Node20</title>
<path fill="none" stroke="midnightblue" d="M2037.04,-231.97C2080.79,-220.96 2133.23,-207.76 2175.3,-197.18"/>
<polygon fill="midnightblue" stroke="midnightblue" points="2036.12,-228.59 2027.27,-234.43 2037.82,-235.38 2036.12,-228.59"/>
</g>
<!-- Node28 -->
<g id="node28" class="node">
<title>Node28</title>
<g id="a_node28"><a xlink:href="LinearStateModel_8h.html" target="_top" xlink:title=" ">
<polygon fill="white" stroke="black" points="1662,-156.5 1662,-197.5 1839,-197.5 1839,-156.5 1662,-156.5"/>
<text text-anchor="start" x="1670" y="-185.5" font-family="Helvetica,sans-Serif" font-size="10.00">/home/user/bayes&#45;filters</text>
<text text-anchor="start" x="1670" y="-174.5" font-family="Helvetica,sans-Serif" font-size="10.00">&#45;lib/src/BayesFilters/include</text>
<text text-anchor="middle" x="1750.5" y="-163.5" font-family="Helvetica,sans-Serif" font-size="10.00">/BayesFilters/LinearStateModel.h</text>
</a>
</g>
</g>
<!-- Node27&#45;&gt;Node28 -->
<g id="edge32" class="edge">
<title>Node27&#45;&gt;Node28</title>
<path fill="none" stroke="midnightblue" d="M1888.62,-230.75C1860.76,-220.11 1828.13,-207.65 1801.57,-197.51"/>
<polygon fill="midnightblue" stroke="midnightblue" points="1887.66,-234.13 1898.25,-234.43 1890.16,-227.59 1887.66,-234.13"/>
</g>
<!-- Node34 -->
<g id="node34" class="node">
<title>Node34</title>
<g id="a_node34"><a xlink:href="AdditiveStateModel_8cpp.html" target="_top" xlink:title=" ">
<polygon fill="white" stroke="black" points="1894.5,-156.5 1894.5,-197.5 2030.5,-197.5 2030.5,-156.5 1894.5,-156.5"/>
<text text-anchor="start" x="1902.5" y="-185.5" font-family="Helvetica,sans-Serif" font-size="10.00">/home/user/bayes&#45;filters</text>
<text text-anchor="start" x="1902.5" y="-174.5" font-family="Helvetica,sans-Serif" font-size="10.00">&#45;lib/src/BayesFilters/src</text>
<text text-anchor="middle" x="1962.5" y="-163.5" font-family="Helvetica,sans-Serif" font-size="10.00">/AdditiveStateModel.cpp</text>
</a>
</g>
</g>
<!-- Node27&#45;&gt;Node34 -->
<g id="edge41" class="edge">
<title>Node27&#45;&gt;Node34</title>
<path fill="none" stroke="midnightblue" d="M1954.58,-224.3C1956.12,-215.3 1957.77,-205.65 1959.16,-197.51"/>
<polygon fill="midnightblue" stroke="midnightblue" points="1951.08,-223.98 1952.85,-234.43 1957.98,-225.16 1951.08,-223.98"/>
</g>
<!-- Node28&#45;&gt;Node7 -->
<g id="edge33" class="edge">
<title>Node28&#45;&gt;Node7</title>
<path fill="none" stroke="midnightblue" d="M1651.63,-155.8C1480.02,-130.74 1433.82,-138.41 1264.5,-120 1237.37,-117.05 1207.69,-113.45 1181.35,-110.11"/>
<polygon fill="midnightblue" stroke="midnightblue" points="1651.36,-159.29 1661.76,-157.29 1652.38,-152.37 1651.36,-159.29"/>
</g>
<!-- Node29 -->
<g id="node29" class="node">
<title>Node29</title>
<g id="a_node29"><a xlink:href="LTIStateModel_8h.html" target="_top" xlink:title=" ">
<polygon fill="white" stroke="black" points="1597,-78.5 1597,-119.5 1758,-119.5 1758,-78.5 1597,-78.5"/>
<text text-anchor="start" x="1605" y="-107.5" font-family="Helvetica,sans-Serif" font-size="10.00">/home/user/bayes&#45;filters</text>
<text text-anchor="start" x="1605" y="-96.5" font-family="Helvetica,sans-Serif" font-size="10.00">&#45;lib/src/BayesFilters/include</text>
<text text-anchor="middle" x="1677.5" y="-85.5" font-family="Helvetica,sans-Serif" font-size="10.00">/BayesFilters/LTIStateModel.h</text>
</a>
</g>
</g>
<!-- Node28&#45;&gt;Node29 -->
<g id="edge34" class="edge">
<title>Node28&#45;&gt;Node29</title>
<path fill="none" stroke="midnightblue" d="M1724.76,-149.2C1715.36,-139.42 1704.91,-128.54 1696.24,-119.51"/>
<polygon fill="midnightblue" stroke="midnightblue" points="1722.25,-151.64 1731.7,-156.43 1727.3,-146.79 1722.25,-151.64"/>
</g>
<!-- Node31 -->
<g id="node31" class="node">
<title>Node31</title>
<g id="a_node31"><a xlink:href="WhiteNoiseAcceleration_8h.html" target="_top" xlink:title=" ">
<polygon fill="white" stroke="black" points="1776,-78.5 1776,-119.5 1985,-119.5 1985,-78.5 1776,-78.5"/>
<text text-anchor="start" x="1784" y="-107.5" font-family="Helvetica,sans-Serif" font-size="10.00">/home/user/bayes&#45;filters</text>
<text text-anchor="start" x="1784" y="-96.5" font-family="Helvetica,sans-Serif" font-size="10.00">&#45;lib/src/BayesFilters/include</text>
<text text-anchor="middle" x="1880.5" y="-85.5" font-family="Helvetica,sans-Serif" font-size="10.00">/BayesFilters/WhiteNoiseAcceleration.h</text>
</a>
</g>
</g>
<!-- Node28&#45;&gt;Node31 -->
<g id="edge36" class="edge">
<title>Node28&#45;&gt;Node31</title>
<path fill="none" stroke="midnightblue" d="M1792.92,-151.2C1810.51,-140.92 1830.62,-129.16 1847.14,-119.51"/>
<polygon fill="midnightblue" stroke="midnightblue" points="1790.84,-148.36 1783.98,-156.43 1794.38,-154.4 1790.84,-148.36"/>
</g>
<!-- Node33 -->
<g id="node33" class="node">
<title>Node33</title>
<g id="a_node33"><a xlink:href="LinearStateModel_8cpp.html" target="_top" xlink:title=" ">
<polygon fill="white" stroke="black" points="1444,-78.5 1444,-119.5 1579,-119.5 1579,-78.5 1444,-78.5"/>
<text text-anchor="start" x="1452" y="-107.5" font-family="Helvetica,sans-Serif" font-size="10.00">/home/user/bayes&#45;filters</text>
<text text-anchor="start" x="1452" y="-96.5" font-family="Helvetica,sans-Serif" font-size="10.00">&#45;lib/src/BayesFilters/src</text>
<text text-anchor="middle" x="1511.5" y="-85.5" font-family="Helvetica,sans-Serif" font-size="10.00">/LinearStateModel.cpp</text>
</a>
</g>
</g>
<!-- Node28&#45;&gt;Node33 -->
<g id="edge38" class="edge">
<title>Node28&#45;&gt;Node33</title>
<path fill="none" stroke="midnightblue" d="M1679.13,-153.3C1645.3,-142.55 1605.29,-129.82 1572.84,-119.51"/>
<polygon fill="midnightblue" stroke="midnightblue" points="1678.36,-156.73 1688.95,-156.43 1680.48,-150.06 1678.36,-156.73"/>
</g>
<!-- Node30 -->
<g id="node30" class="node">
<title>Node30</title>
<g id="a_node30"><a xlink:href="LTIStateModel_8cpp.html" target="_top" xlink:title=" ">
<polygon fill="white" stroke="black" points="1610,-0.5 1610,-41.5 1745,-41.5 1745,-0.5 1610,-0.5"/>
<text text-anchor="start" x="1618" y="-29.5" font-family="Helvetica,sans-Serif" font-size="10.00">/home/user/bayes&#45;filters</text>
<text text-anchor="start" x="1618" y="-18.5" font-family="Helvetica,sans-Serif" font-size="10.00">&#45;lib/src/BayesFilters/src</text>
<text text-anchor="middle" x="1677.5" y="-7.5" font-family="Helvetica,sans-Serif" font-size="10.00">/LTIStateModel.cpp</text>
</a>
</g>
</g>
<!-- Node29&#45;&gt;Node30 -->
<g id="edge35" class="edge">
<title>Node29&#45;&gt;Node30</title>
<path fill="none" stroke="midnightblue" d="M1677.5,-68.3C1677.5,-59.3 1677.5,-49.65 1677.5,-41.51"/>
<polygon fill="midnightblue" stroke="midnightblue" points="1674,-68.43 1677.5,-78.43 1681,-68.43 1674,-68.43"/>
</g>
<!-- Node32 -->
<g id="node32" class="node">
<title>Node32</title>
<g id="a_node32"><a xlink:href="WhiteNoiseAcceleration_8cpp.html" target="_top" xlink:title=" ">
<polygon fill="white" stroke="black" points="1802,-0.5 1802,-41.5 1959,-41.5 1959,-0.5 1802,-0.5"/>
<text text-anchor="start" x="1810" y="-29.5" font-family="Helvetica,sans-Serif" font-size="10.00">/home/user/bayes&#45;filters</text>
<text text-anchor="start" x="1810" y="-18.5" font-family="Helvetica,sans-Serif" font-size="10.00">&#45;lib/src/BayesFilters/src</text>
<text text-anchor="middle" x="1880.5" y="-7.5" font-family="Helvetica,sans-Serif" font-size="10.00">/WhiteNoiseAcceleration.cpp</text>
</a>
</g>
</g>
<!-- Node31&#45;&gt;Node32 -->
<g id="edge37" class="edge">
<title>Node31&#45;&gt;Node32</title>
<path fill="none" stroke="midnightblue" d="M1880.5,-68.3C1880.5,-59.3 1880.5,-49.65 1880.5,-41.51"/>
<polygon fill="midnightblue" stroke="midnightblue" points="1877,-68.43 1880.5,-78.43 1884,-68.43 1877,-68.43"/>
</g>
<!-- Node36 -->
<g id="node36" class="node">
<title>Node36</title>
<g id="a_node36"><a xlink:href="GPFCorrection_8cpp.html" target="_top" xlink:title=" ">
<polygon fill="white" stroke="black" points="1125,-156.5 1125,-197.5 1260,-197.5 1260,-156.5 1125,-156.5"/>
<text text-anchor="start" x="1133" y="-185.5" font-family="Helvetica,sans-Serif" font-size="10.00">/home/user/bayes&#45;filters</text>
<text text-anchor="start" x="1133" y="-174.5" font-family="Helvetica,sans-Serif" font-size="10.00">&#45;lib/src/BayesFilters/src</text>
<text text-anchor="middle" x="1192.5" y="-163.5" font-family="Helvetica,sans-Serif" font-size="10.00">/GPFCorrection.cpp</text>
</a>
</g>
</g>
<!-- Node35&#45;&gt;Node36 -->
<g id="edge44" class="edge">
<title>Node35&#45;&gt;Node36</title>
<path fill="none" stroke="midnightblue" d="M1200.42,-224.3C1198.88,-215.3 1197.23,-205.65 1195.84,-197.51"/>
<polygon fill="midnightblue" stroke="midnightblue" points="1197.02,-225.16 1202.15,-234.43 1203.92,-223.98 1197.02,-225.16"/>
</g>
<!-- Node38 -->
<g id="node38" class="node">
<title>Node38</title>
<g id="a_node38"><a xlink:href="SimulatedLinearSensor_8h.html" target="_top" xlink:title=" ">
<polygon fill="white" stroke="black" points="1278,-156.5 1278,-197.5 1481,-197.5 1481,-156.5 1278,-156.5"/>
<text text-anchor="start" x="1286" y="-185.5" font-family="Helvetica,sans-Serif" font-size="10.00">/home/user/bayes&#45;filters</text>
<text text-anchor="start" x="1286" y="-174.5" font-family="Helvetica,sans-Serif" font-size="10.00">&#45;lib/src/BayesFilters/include</text>
<text text-anchor="middle" x="1379.5" y="-163.5" font-family="Helvetica,sans-Serif" font-size="10.00">/BayesFilters/SimulatedLinearSensor.h</text>
</a>
</g>
</g>
<!-- Node37&#45;&gt;Node38 -->
<g id="edge49" class="edge">
<title>Node37&#45;&gt;Node38</title>
<path fill="none" stroke="midnightblue" d="M1393.6,-224.59C1390.85,-215.51 1387.9,-205.74 1385.4,-197.51"/>
<polygon fill="midnightblue" stroke="midnightblue" points="1390.33,-225.87 1396.58,-234.43 1397.03,-223.84 1390.33,-225.87"/>
</g>
<!-- Node40 -->
<g id="node40" class="node">
<title>Node40</title>
<g id="a_node40"><a xlink:href="SimulatedStateModel_8cpp.html" target="_top" xlink:title=" ">
<polygon fill="white" stroke="black" points="1499,-156.5 1499,-197.5 1644,-197.5 1644,-156.5 1499,-156.5"/>
<text text-anchor="start" x="1507" y="-185.5" font-family="Helvetica,sans-Serif" font-size="10.00">/home/user/bayes&#45;filters</text>
<text text-anchor="start" x="1507" y="-174.5" font-family="Helvetica,sans-Serif" font-size="10.00">&#45;lib/src/BayesFilters/src</text>
<text text-anchor="middle" x="1571.5" y="-163.5" font-family="Helvetica,sans-Serif" font-size="10.00">/SimulatedStateModel.cpp</text>
</a>
</g>
</g>
<!-- Node37&#45;&gt;Node40 -->
<g id="edge51" class="edge">
<title>Node37&#45;&gt;Node40</title>
<path fill="none" stroke="midnightblue" d="M1455.45,-230.19C1478.83,-219.67 1505.97,-207.47 1528.13,-197.51"/>
<polygon fill="midnightblue" stroke="midnightblue" points="1453.71,-227.13 1446.02,-234.43 1456.58,-233.52 1453.71,-227.13"/>
</g>
<!-- Node39 -->
<g id="node39" class="node">
<title>Node39</title>
<g id="a_node39"><a xlink:href="SimulatedLinearSensor_8cpp.html" target="_top" xlink:title=" ">
<polygon fill="white" stroke="black" points="1273.5,-78.5 1273.5,-119.5 1425.5,-119.5 1425.5,-78.5 1273.5,-78.5"/>
<text text-anchor="start" x="1281.5" y="-107.5" font-family="Helvetica,sans-Serif" font-size="10.00">/home/user/bayes&#45;filters</text>
<text text-anchor="start" x="1281.5" y="-96.5" font-family="Helvetica,sans-Serif" font-size="10.00">&#45;lib/src/BayesFilters/src</text>
<text text-anchor="middle" x="1349.5" y="-85.5" font-family="Helvetica,sans-Serif" font-size="10.00">/SimulatedLinearSensor.cpp</text>
</a>
</g>
</g>
<!-- Node38&#45;&gt;Node39 -->
<g id="edge50" class="edge">
<title>Node38&#45;&gt;Node39</title>
<path fill="none" stroke="midnightblue" d="M1368.01,-146.88C1364.39,-137.72 1360.49,-127.83 1357.2,-119.51"/>
<polygon fill="midnightblue" stroke="midnightblue" points="1364.85,-148.41 1371.77,-156.43 1371.36,-145.84 1364.85,-148.41"/>
</g>
</g>
</svg>
