<?xml version="1.0" encoding="UTF-8" standalone="no"?>
<!DOCTYPE svg PUBLIC "-//W3C//DTD SVG 1.1//EN"
 "http://www.w3.org/Graphics/SVG/1.1/DTD/svg11.dtd">
<!-- Generated by graphviz version 2.43.0 (0)
 -->
<!-- Title: /home/user/bayes&#45;filters&#45;lib/src/BayesFilters/include/BayesFilters/ExogenousProcess.h Pages: 1 -->
<svg width="278pt" height="162pt"
 viewBox="0.00 0.00 278.00 162.00" xmlns="http://www.w3.org/2000/svg" xmlns:xlink="http://www.w3.org/1999/xlink">
<g id="graph0" class="graph" transform="scale(1 1) rotate(0) translate(4 158)">
<title>/home/user/bayes&#45;filters&#45;lib/src/BayesFilters/include/BayesFilters/ExogenousProcess.h</title>
<polygon fill="white" stroke="transparent" points="-4,4 -4,-158 274,-158 274,4 -4,4"/>
<!-- Node1 -->
<g id="node1" class="node">
<title>Node1</title>
<g id="a_node1"><a xlink:title=" ">
<polygon fill="#bfbfbf" stroke="black" points="68.5,-112.5 68.5,-153.5 250.5,-153.5 250.5,-112.5 68.5,-112.5"/>
<text text-anchor="start" x="76.5" y="-141.5" font-family="Helvetica,sans-Serif" font-size="10.00">/home/user/bayes&#45;filters</text>
<text text-anchor="start" x="76.5" y="-130.5" font-family="Helvetica,sans-Serif" font-size="10.00">&#45;lib/src/BayesFilters/include</text>
<text text-anchor="middle" x="159.5" y="-119.5" font-family="Helvetica,sans-Serif" font-size="10.00">/BayesFilters/ExogenousProcess.h</text>
</a>
</g>
</g>
<!-- Node2 -->
<g id="node2" class="node">
<title>Node2</title>
<g id="a_node2"><a xlink:href="VectorDescription_8h.html" target="_top" xlink:title=" ">
<polygon fill="white" stroke="black" points="0,-56.5 0,-75.5 175,-75.5 175,-56.5 0,-56.5"/>
<text text-anchor="middle" x="87.5" y="-63.5" font-family="Helvetica,sans-Serif" font-size="10.00">BayesFilters/VectorDescription.h</text>
</a>
</g>
</g>
<!-- Node1&#45;&gt;Node2 -->
<g id="edge1" class="edge">
<title>Node1&#45;&gt;Node2</title>
<path fill="none" stroke="midnightblue" d="M137.9,-112.5C127.28,-102.92 114.67,-91.53 104.72,-82.54"/>
<polygon fill="midnightblue" stroke="midnightblue" points="106.85,-79.76 97.08,-75.65 102.16,-84.95 106.85,-79.76"/>
</g>
<!-- Node4 -->
<g id="node4" class="node">
<title>Node4</title>
<g id="a_node4"><a xlink:title=" ">
<polygon fill="white" stroke="#bfbfbf" points="193,-56.5 193,-75.5 270,-75.5 270,-56.5 193,-56.5"/>
<text text-anchor="middle" x="231.5" y="-63.5" font-family="Helvetica,sans-Serif" font-size="10.00">Eigen/Dense</text>
</a>
</g>
</g>
<!-- Node1&#45;&gt;Node4 -->
<g id="edge3" class="edge">
<title>Node1&#45;&gt;Node4</title>
<path fill="none" stroke="midnightblue" d="M181.1,-112.5C191.72,-102.92 204.33,-91.53 214.28,-82.54"/>
<polygon fill="midnightblue" stroke="midnightblue" points="216.84,-84.95 221.92,-75.65 212.15,-79.76 216.84,-84.95"/>
</g>
<!-- Node3 -->
<g id="node3" class="node">
<title>Node3</title>
<g id="a_node3"><a xlink:title=" ">
<polygon fill="white" stroke="#bfbfbf" points="61,-0.5 61,-19.5 114,-19.5 114,-0.5 61,-0.5"/>
<text text-anchor="middle" x="87.5" y="-7.5" font-family="Helvetica,sans-Serif" font-size="10.00">cstddef</text>
</a>
</g>
</g>
<!-- Node2&#45;&gt;Node3 -->
<g id="edge2" class="edge">
<title>Node2&#45;&gt;Node3</title>
<path fill="none" stroke="midnightblue" d="M87.5,-56.08C87.5,-49.01 87.5,-38.86 87.5,-29.99"/>
<polygon fill="midnightblue" stroke="midnightblue" points="91,-29.75 87.5,-19.75 84,-29.75 91,-29.75"/>
</g>
</g>
</svg>
