<?xml version="1.0" encoding="UTF-8" standalone="no"?>
<!DOCTYPE svg PUBLIC "-//W3C//DTD SVG 1.1//EN"
 "http://www.w3.org/Graphics/SVG/1.1/DTD/svg11.dtd">
<!-- Generated by graphviz version 2.43.0 (0)
 -->
<!-- Title: /home/user/bayes&#45;filters&#45;lib/src/BayesFilters/include/BayesFilters/FilteringAlgorithm.h Pages: 1 -->
<svg width="811pt" height="162pt"
 viewBox="0.00 0.00 811.00 162.00" xmlns="http://www.w3.org/2000/svg" xmlns:xlink="http://www.w3.org/1999/xlink">
<g id="graph0" class="graph" transform="scale(1 1) rotate(0) translate(4 158)">
<title>/home/user/bayes&#45;filters&#45;lib/src/BayesFilters/include/BayesFilters/FilteringAlgorithm.h</title>
<polygon fill="white" stroke="transparent" points="-4,4 -4,-158 807,-158 807,4 -4,4"/>
<!-- Node1 -->
<g id="node1" class="node">
<title>Node1</title>
<g id="a_node1"><a xlink:title=" ">
<polygon fill="#bfbfbf" stroke="black" points="349,-112.5 349,-153.5 528,-153.5 528,-112.5 349,-112.5"/>
<text text-anchor="start" x="357" y="-141.5" font-family="Helvetica,sans-Serif" font-size="10.00">/home/user/bayes&#45;filters</text>
<text text-anchor="start" x="357" y="-130.5" font-family="Helvetica,sans-Serif" font-size="10.00">&#45;lib/src/BayesFilters/include</text>
<text text-anchor="middle" x="438.5" y="-119.5" font-family="Helvetica,sans-Serif" font-size="10.00">/BayesFilters/FilteringAlgorithm.h</text>
</a>
</g>
</g>
<!-- Node2 -->
<g id="node2" class="node">
<title>Node2</title>
<g id="a_node2"><a xlink:href="Filter_8h.html" target="_top" xlink:title=" ">
<polygon fill="white" stroke="black" points="0,-56.5 0,-75.5 113,-75.5 113,-56.5 0,-56.5"/>
<text text-anchor="middle" x="56.5" y="-63.5" font-family="Helvetica,sans-Serif" font-size="10.00">BayesFilters/Filter.h</text>
</a>
</g>
</g>
<!-- Node1&#45;&gt;Node2 -->
<g id="edge1" class="edge">
<title>Node1&#45;&gt;Node2</title>
<path fill="none" stroke="midnightblue" d="M348.94,-116.76C277.39,-104.59 179.09,-87.86 116.68,-77.24"/>
<polygon fill="midnightblue" stroke="midnightblue" points="117.04,-73.75 106.6,-75.52 115.87,-80.65 117.04,-73.75"/>
</g>
<!-- Node3 -->
<g id="node3" class="node">
<title>Node3</title>
<g id="a_node3"><a xlink:href="Logger_8h.html" target="_top" xlink:title=" ">
<polygon fill="white" stroke="black" points="131,-56.5 131,-75.5 252,-75.5 252,-56.5 131,-56.5"/>
<text text-anchor="middle" x="191.5" y="-63.5" font-family="Helvetica,sans-Serif" font-size="10.00">BayesFilters/Logger.h</text>
</a>
</g>
</g>
<!-- Node1&#45;&gt;Node3 -->
<g id="edge2" class="edge">
<title>Node1&#45;&gt;Node3</title>
<path fill="none" stroke="midnightblue" d="M364.39,-112.5C321.84,-101.3 269.92,-87.64 234.15,-78.22"/>
<polygon fill="midnightblue" stroke="midnightblue" points="234.62,-74.73 224.05,-75.57 232.83,-81.5 234.62,-74.73"/>
</g>
<!-- Node6 -->
<g id="node6" class="node">
<title>Node6</title>
<g id="a_node6"><a xlink:title=" ">
<polygon fill="white" stroke="#bfbfbf" points="282.5,-0.5 282.5,-19.5 326.5,-19.5 326.5,-0.5 282.5,-0.5"/>
<text text-anchor="middle" x="304.5" y="-7.5" font-family="Helvetica,sans-Serif" font-size="10.00">string</text>
</a>
</g>
</g>
<!-- Node1&#45;&gt;Node6 -->
<g id="edge11" class="edge">
<title>Node1&#45;&gt;Node6</title>
<path fill="none" stroke="midnightblue" d="M348.89,-113.32C329.86,-105.06 312.05,-93.16 300.5,-76 291.43,-62.53 293.8,-43.72 297.62,-29.8"/>
<polygon fill="midnightblue" stroke="midnightblue" points="301.08,-30.47 300.81,-19.88 294.42,-28.32 301.08,-30.47"/>
</g>
<!-- Node8 -->
<g id="node8" class="node">
<title>Node8</title>
<g id="a_node8"><a xlink:href="Skipper_8h.html" target="_top" xlink:title=" ">
<polygon fill="white" stroke="black" points="309,-56.5 309,-75.5 434,-75.5 434,-56.5 309,-56.5"/>
<text text-anchor="middle" x="371.5" y="-63.5" font-family="Helvetica,sans-Serif" font-size="10.00">BayesFilters/Skipper.h</text>
</a>
</g>
</g>
<!-- Node1&#45;&gt;Node8 -->
<g id="edge7" class="edge">
<title>Node1&#45;&gt;Node8</title>
<path fill="none" stroke="midnightblue" d="M418.4,-112.5C408.62,-103.01 397.02,-91.76 387.8,-82.81"/>
<polygon fill="midnightblue" stroke="midnightblue" points="390.03,-80.1 380.42,-75.65 385.16,-85.13 390.03,-80.1"/>
</g>
<!-- Node9 -->
<g id="node9" class="node">
<title>Node9</title>
<g id="a_node9"><a xlink:title=" ">
<polygon fill="white" stroke="#bfbfbf" points="452,-56.5 452,-75.5 559,-75.5 559,-56.5 452,-56.5"/>
<text text-anchor="middle" x="505.5" y="-63.5" font-family="Helvetica,sans-Serif" font-size="10.00">condition_variable</text>
</a>
</g>
</g>
<!-- Node1&#45;&gt;Node9 -->
<g id="edge9" class="edge">
<title>Node1&#45;&gt;Node9</title>
<path fill="none" stroke="midnightblue" d="M458.6,-112.5C468.38,-103.01 479.98,-91.76 489.2,-82.81"/>
<polygon fill="midnightblue" stroke="midnightblue" points="491.84,-85.13 496.58,-75.65 486.97,-80.1 491.84,-85.13"/>
</g>
<!-- Node10 -->
<g id="node10" class="node">
<title>Node10</title>
<g id="a_node10"><a xlink:title=" ">
<polygon fill="white" stroke="#bfbfbf" points="577.5,-56.5 577.5,-75.5 625.5,-75.5 625.5,-56.5 577.5,-56.5"/>
<text text-anchor="middle" x="601.5" y="-63.5" font-family="Helvetica,sans-Serif" font-size="10.00">mutex</text>
</a>
</g>
</g>
<!-- Node1&#45;&gt;Node10 -->
<g id="edge10" class="edge">
<title>Node1&#45;&gt;Node10</title>
<path fill="none" stroke="midnightblue" d="M487.41,-112.5C514.32,-101.77 546.91,-88.77 570.36,-79.42"/>
<polygon fill="midnightblue" stroke="midnightblue" points="571.81,-82.61 579.8,-75.65 569.22,-76.11 571.81,-82.61"/>
</g>
<!-- Node11 -->
<g id="node11" class="node">
<title>Node11</title>
<g id="a_node11"><a xlink:title=" ">
<polygon fill="white" stroke="#bfbfbf" points="643.5,-56.5 643.5,-75.5 691.5,-75.5 691.5,-56.5 643.5,-56.5"/>
<text text-anchor="middle" x="667.5" y="-63.5" font-family="Helvetica,sans-Serif" font-size="10.00">thread</text>
</a>
</g>
</g>
<!-- Node1&#45;&gt;Node11 -->
<g id="edge12" class="edge">
<title>Node1&#45;&gt;Node11</title>
<path fill="none" stroke="midnightblue" d="M507.21,-112.5C549,-100.64 600.53,-86.01 633.69,-76.6"/>
<polygon fill="midnightblue" stroke="midnightblue" points="634.7,-79.95 643.36,-73.85 632.79,-73.22 634.7,-79.95"/>
</g>
<!-- Node12 -->
<g id="node12" class="node">
<title>Node12</title>
<g id="a_node12"><a xlink:title=" ">
<polygon fill="white" stroke="#bfbfbf" points="710,-56.5 710,-75.5 803,-75.5 803,-56.5 710,-56.5"/>
<text text-anchor="middle" x="756.5" y="-63.5" font-family="Helvetica,sans-Serif" font-size="10.00">unordered_map</text>
</a>
</g>
</g>
<!-- Node1&#45;&gt;Node12 -->
<g id="edge13" class="edge">
<title>Node1&#45;&gt;Node12</title>
<path fill="none" stroke="midnightblue" d="M528.35,-113.63C585.33,-101.99 657.02,-87.33 704.68,-77.59"/>
<polygon fill="midnightblue" stroke="midnightblue" points="705.67,-80.96 714.77,-75.53 704.27,-74.1 705.67,-80.96"/>
</g>
<!-- Node4 -->
<g id="node4" class="node">
<title>Node4</title>
<g id="a_node4"><a xlink:title=" ">
<polygon fill="white" stroke="#bfbfbf" points="65,-0.5 65,-19.5 120,-19.5 120,-0.5 65,-0.5"/>
<text text-anchor="middle" x="92.5" y="-7.5" font-family="Helvetica,sans-Serif" font-size="10.00">fstream</text>
</a>
</g>
</g>
<!-- Node3&#45;&gt;Node4 -->
<g id="edge3" class="edge">
<title>Node3&#45;&gt;Node4</title>
<path fill="none" stroke="midnightblue" d="M175.59,-56.32C159.86,-47.74 135.56,-34.49 117.29,-24.52"/>
<polygon fill="midnightblue" stroke="midnightblue" points="118.82,-21.37 108.37,-19.65 115.47,-27.52 118.82,-21.37"/>
</g>
<!-- Node5 -->
<g id="node5" class="node">
<title>Node5</title>
<g id="a_node5"><a xlink:title=" ">
<polygon fill="white" stroke="#bfbfbf" points="138.5,-0.5 138.5,-19.5 198.5,-19.5 198.5,-0.5 138.5,-0.5"/>
<text text-anchor="middle" x="168.5" y="-7.5" font-family="Helvetica,sans-Serif" font-size="10.00">iostream</text>
</a>
</g>
</g>
<!-- Node3&#45;&gt;Node5 -->
<g id="edge4" class="edge">
<title>Node3&#45;&gt;Node5</title>
<path fill="none" stroke="midnightblue" d="M187.7,-56.08C184.59,-48.77 180.08,-38.18 176.21,-29.1"/>
<polygon fill="midnightblue" stroke="midnightblue" points="179.37,-27.58 172.23,-19.75 172.93,-30.32 179.37,-27.58"/>
</g>
<!-- Node3&#45;&gt;Node6 -->
<g id="edge5" class="edge">
<title>Node3&#45;&gt;Node6</title>
<path fill="none" stroke="midnightblue" d="M209.41,-56.44C227.75,-47.68 256.51,-33.94 277.59,-23.86"/>
<polygon fill="midnightblue" stroke="midnightblue" points="279.17,-26.99 286.68,-19.52 276.15,-20.67 279.17,-26.99"/>
</g>
<!-- Node7 -->
<g id="node7" class="node">
<title>Node7</title>
<g id="a_node7"><a xlink:title=" ">
<polygon fill="white" stroke="#bfbfbf" points="217,-0.5 217,-19.5 264,-19.5 264,-0.5 217,-0.5"/>
<text text-anchor="middle" x="240.5" y="-7.5" font-family="Helvetica,sans-Serif" font-size="10.00">vector</text>
</a>
</g>
</g>
<!-- Node3&#45;&gt;Node7 -->
<g id="edge6" class="edge">
<title>Node3&#45;&gt;Node7</title>
<path fill="none" stroke="midnightblue" d="M199.59,-56.08C206.66,-48.3 217.09,-36.8 225.65,-27.37"/>
<polygon fill="midnightblue" stroke="midnightblue" points="228.43,-29.51 232.56,-19.75 223.25,-24.8 228.43,-29.51"/>
</g>
<!-- Node8&#45;&gt;Node6 -->
<g id="edge8" class="edge">
<title>Node8&#45;&gt;Node6</title>
<path fill="none" stroke="midnightblue" d="M360.74,-56.32C350.73,-48.26 335.61,-36.08 323.57,-26.37"/>
<polygon fill="midnightblue" stroke="midnightblue" points="325.44,-23.38 315.46,-19.83 321.05,-28.83 325.44,-23.38"/>
</g>
</g>
</svg>
