<?xml version="1.0" encoding="UTF-8" standalone="no"?>
<!DOCTYPE svg PUBLIC "-//W3C//DTD SVG 1.1//EN"
 "http://www.w3.org/Graphics/SVG/1.1/DTD/svg11.dtd">
<!-- Generated by graphviz version 2.43.0 (0)
 -->
<!-- Title: /home/user/bayes&#45;filters&#45;lib/src/BayesFilters/include/BayesFilters/Filter.h Pages: 1 -->
<svg width="493pt" height="362pt"
 viewBox="0.00 0.00 493.00 362.00" xmlns="http://www.w3.org/2000/svg" xmlns:xlink="http://www.w3.org/1999/xlink">
<g id="graph0" class="graph" transform="scale(1 1) rotate(0) translate(4 358)">
<title>/home/user/bayes&#45;filters&#45;lib/src/BayesFilters/include/BayesFilters/Filter.h</title>
<polygon fill="white" stroke="transparent" points="-4,4 -4,-358 489,-358 489,4 -4,4"/>
<!-- Node1 -->
<g id="node1" class="node">
<title>Node1</title>
<g id="a_node1"><a xlink:title=" ">
<polygon fill="#bfbfbf" stroke="black" points="180,-312.5 180,-353.5 331,-353.5 331,-312.5 180,-312.5"/>
<text text-anchor="start" x="188" y="-341.5" font-family="Helvetica,sans-Serif" font-size="10.00">/home/user/bayes&#45;filters</text>
<text text-anchor="start" x="188" y="-330.5" font-family="Helvetica,sans-Serif" font-size="10.00">&#45;lib/src/BayesFilters/include</text>
<text text-anchor="middle" x="255.5" y="-319.5" font-family="Helvetica,sans-Serif" font-size="10.00">/BayesFilters/Filter.h</text>
</a>
</g>
</g>
<!-- Node2 -->
<g id="node2" class="node">
<title>Node2</title>
<g id="a_node2"><a xlink:href="FilteringAlgorithm_8h.html" target="_top" xlink:title=" ">
<polygon fill="white" stroke="black" points="166,-234.5 166,-275.5 345,-275.5 345,-234.5 166,-234.5"/>
<text text-anchor="start" x="174" y="-263.5" font-family="Helvetica,sans-Serif" font-size="10.00">/home/user/bayes&#45;filters</text>
<text text-anchor="start" x="174" y="-252.5" font-family="Helvetica,sans-Serif" font-size="10.00">&#45;lib/src/BayesFilters/include</text>
<text text-anchor="middle" x="255.5" y="-241.5" font-family="Helvetica,sans-Serif" font-size="10.00">/BayesFilters/FilteringAlgorithm.h</text>
</a>
</g>
</g>
<!-- Node1&#45;&gt;Node2 -->
<g id="edge1" class="edge">
<title>Node1&#45;&gt;Node2</title>
<path fill="none" stroke="midnightblue" d="M255.5,-302.3C255.5,-293.3 255.5,-283.65 255.5,-275.51"/>
<polygon fill="midnightblue" stroke="midnightblue" points="252,-302.43 255.5,-312.43 259,-302.43 252,-302.43"/>
</g>
<!-- Node3 -->
<g id="node3" class="node">
<title>Node3</title>
<g id="a_node3"><a xlink:href="GaussianFilter_8h.html" target="_top" xlink:title=" ">
<polygon fill="white" stroke="black" points="0,-156.5 0,-197.5 161,-197.5 161,-156.5 0,-156.5"/>
<text text-anchor="start" x="8" y="-185.5" font-family="Helvetica,sans-Serif" font-size="10.00">/home/user/bayes&#45;filters</text>
<text text-anchor="start" x="8" y="-174.5" font-family="Helvetica,sans-Serif" font-size="10.00">&#45;lib/src/BayesFilters/include</text>
<text text-anchor="middle" x="80.5" y="-163.5" font-family="Helvetica,sans-Serif" font-size="10.00">/BayesFilters/GaussianFilter.h</text>
</a>
</g>
</g>
<!-- Node2&#45;&gt;Node3 -->
<g id="edge2" class="edge">
<title>Node2&#45;&gt;Node3</title>
<path fill="none" stroke="midnightblue" d="M200.99,-230.33C176.71,-219.78 148.46,-207.51 125.41,-197.51"/>
<polygon fill="midnightblue" stroke="midnightblue" points="199.87,-233.65 210.43,-234.43 202.65,-227.23 199.87,-233.65"/>
</g>
<!-- Node5 -->
<g id="node5" class="node">
<title>Node5</title>
<g id="a_node5"><a xlink:href="ParticleFilter_8h.html" target="_top" xlink:title=" ">
<polygon fill="white" stroke="black" points="179.5,-156.5 179.5,-197.5 331.5,-197.5 331.5,-156.5 179.5,-156.5"/>
<text text-anchor="start" x="187.5" y="-185.5" font-family="Helvetica,sans-Serif" font-size="10.00">/home/user/bayes&#45;filters</text>
<text text-anchor="start" x="187.5" y="-174.5" font-family="Helvetica,sans-Serif" font-size="10.00">&#45;lib/src/BayesFilters/include</text>
<text text-anchor="middle" x="255.5" y="-163.5" font-family="Helvetica,sans-Serif" font-size="10.00">/BayesFilters/ParticleFilter.h</text>
</a>
</g>
</g>
<!-- Node2&#45;&gt;Node5 -->
<g id="edge4" class="edge">
<title>Node2&#45;&gt;Node5</title>
<path fill="none" stroke="midnightblue" d="M255.5,-224.3C255.5,-215.3 255.5,-205.65 255.5,-197.51"/>
<polygon fill="midnightblue" stroke="midnightblue" points="252,-224.43 255.5,-234.43 259,-224.43 252,-224.43"/>
</g>
<!-- Node9 -->
<g id="node9" class="node">
<title>Node9</title>
<g id="a_node9"><a xlink:href="FilteringAlgorithm_8cpp.html" target="_top" xlink:title=" ">
<polygon fill="white" stroke="black" points="350,-156.5 350,-197.5 485,-197.5 485,-156.5 350,-156.5"/>
<text text-anchor="start" x="358" y="-185.5" font-family="Helvetica,sans-Serif" font-size="10.00">/home/user/bayes&#45;filters</text>
<text text-anchor="start" x="358" y="-174.5" font-family="Helvetica,sans-Serif" font-size="10.00">&#45;lib/src/BayesFilters/src</text>
<text text-anchor="middle" x="417.5" y="-163.5" font-family="Helvetica,sans-Serif" font-size="10.00">/FilteringAlgorithm.cpp</text>
</a>
</g>
</g>
<!-- Node2&#45;&gt;Node9 -->
<g id="edge8" class="edge">
<title>Node2&#45;&gt;Node9</title>
<path fill="none" stroke="midnightblue" d="M306.55,-230.05C328.9,-219.57 354.78,-207.42 375.92,-197.51"/>
<polygon fill="midnightblue" stroke="midnightblue" points="304.79,-227.01 297.22,-234.43 307.76,-233.35 304.79,-227.01"/>
</g>
<!-- Node4 -->
<g id="node4" class="node">
<title>Node4</title>
<g id="a_node4"><a xlink:href="GaussianFilter_8cpp.html" target="_top" xlink:title=" ">
<polygon fill="white" stroke="black" points="13,-78.5 13,-119.5 148,-119.5 148,-78.5 13,-78.5"/>
<text text-anchor="start" x="21" y="-107.5" font-family="Helvetica,sans-Serif" font-size="10.00">/home/user/bayes&#45;filters</text>
<text text-anchor="start" x="21" y="-96.5" font-family="Helvetica,sans-Serif" font-size="10.00">&#45;lib/src/BayesFilters/src</text>
<text text-anchor="middle" x="80.5" y="-85.5" font-family="Helvetica,sans-Serif" font-size="10.00">/GaussianFilter.cpp</text>
</a>
</g>
</g>
<!-- Node3&#45;&gt;Node4 -->
<g id="edge3" class="edge">
<title>Node3&#45;&gt;Node4</title>
<path fill="none" stroke="midnightblue" d="M80.5,-146.3C80.5,-137.3 80.5,-127.65 80.5,-119.51"/>
<polygon fill="midnightblue" stroke="midnightblue" points="77,-146.43 80.5,-156.43 84,-146.43 77,-146.43"/>
</g>
<!-- Node6 -->
<g id="node6" class="node">
<title>Node6</title>
<g id="a_node6"><a xlink:href="SIS_8h.html" target="_top" xlink:title=" ">
<polygon fill="white" stroke="black" points="173,-78.5 173,-119.5 324,-119.5 324,-78.5 173,-78.5"/>
<text text-anchor="start" x="181" y="-107.5" font-family="Helvetica,sans-Serif" font-size="10.00">/home/user/bayes&#45;filters</text>
<text text-anchor="start" x="181" y="-96.5" font-family="Helvetica,sans-Serif" font-size="10.00">&#45;lib/src/BayesFilters/include</text>
<text text-anchor="middle" x="248.5" y="-85.5" font-family="Helvetica,sans-Serif" font-size="10.00">/BayesFilters/SIS.h</text>
</a>
</g>
</g>
<!-- Node5&#45;&gt;Node6 -->
<g id="edge5" class="edge">
<title>Node5&#45;&gt;Node6</title>
<path fill="none" stroke="midnightblue" d="M252.76,-146.3C251.94,-137.3 251.05,-127.65 250.3,-119.51"/>
<polygon fill="midnightblue" stroke="midnightblue" points="249.29,-146.79 253.7,-156.43 256.27,-146.15 249.29,-146.79"/>
</g>
<!-- Node8 -->
<g id="node8" class="node">
<title>Node8</title>
<g id="a_node8"><a xlink:href="ParticleFilter_8cpp.html" target="_top" xlink:title=" ">
<polygon fill="white" stroke="black" points="342,-78.5 342,-119.5 477,-119.5 477,-78.5 342,-78.5"/>
<text text-anchor="start" x="350" y="-107.5" font-family="Helvetica,sans-Serif" font-size="10.00">/home/user/bayes&#45;filters</text>
<text text-anchor="start" x="350" y="-96.5" font-family="Helvetica,sans-Serif" font-size="10.00">&#45;lib/src/BayesFilters/src</text>
<text text-anchor="middle" x="409.5" y="-85.5" font-family="Helvetica,sans-Serif" font-size="10.00">/ParticleFilter.cpp</text>
</a>
</g>
</g>
<!-- Node5&#45;&gt;Node8 -->
<g id="edge7" class="edge">
<title>Node5&#45;&gt;Node8</title>
<path fill="none" stroke="midnightblue" d="M304.32,-151.91C325.49,-141.46 349.97,-129.38 369.98,-119.51"/>
<polygon fill="midnightblue" stroke="midnightblue" points="302.58,-148.86 295.16,-156.43 305.68,-155.14 302.58,-148.86"/>
</g>
<!-- Node7 -->
<g id="node7" class="node">
<title>Node7</title>
<g id="a_node7"><a xlink:href="SIS_8cpp.html" target="_top" xlink:title=" ">
<polygon fill="white" stroke="black" points="181,-0.5 181,-41.5 316,-41.5 316,-0.5 181,-0.5"/>
<text text-anchor="start" x="189" y="-29.5" font-family="Helvetica,sans-Serif" font-size="10.00">/home/user/bayes&#45;filters</text>
<text text-anchor="start" x="189" y="-18.5" font-family="Helvetica,sans-Serif" font-size="10.00">&#45;lib/src/BayesFilters/src</text>
<text text-anchor="middle" x="248.5" y="-7.5" font-family="Helvetica,sans-Serif" font-size="10.00">/SIS.cpp</text>
</a>
</g>
</g>
<!-- Node6&#45;&gt;Node7 -->
<g id="edge6" class="edge">
<title>Node6&#45;&gt;Node7</title>
<path fill="none" stroke="midnightblue" d="M248.5,-68.3C248.5,-59.3 248.5,-49.65 248.5,-41.51"/>
<polygon fill="midnightblue" stroke="midnightblue" points="245,-68.43 248.5,-78.43 252,-68.43 245,-68.43"/>
</g>
</g>
</svg>
