<?xml version="1.0" encoding="UTF-8" standalone="no"?>
<!DOCTYPE svg PUBLIC "-//W3C//DTD SVG 1.1//EN"
 "http://www.w3.org/Graphics/SVG/1.1/DTD/svg11.dtd">
<!-- Generated by graphviz version 2.43.0 (0)
 -->
<!-- Title: /home/user/bayes&#45;filters&#45;lib/src/BayesFilters/src/FilteringAlgorithm.cpp Pages: 1 -->
<svg width="829pt" height="218pt"
 viewBox="0.00 0.00 829.49 218.00" xmlns="http://www.w3.org/2000/svg" xmlns:xlink="http://www.w3.org/1999/xlink">
<g id="graph0" class="graph" transform="scale(1 1) rotate(0) translate(4 214)">
<title>/home/user/bayes&#45;filters&#45;lib/src/BayesFilters/src/FilteringAlgorithm.cpp</title>
<polygon fill="white" stroke="transparent" points="-4,4 -4,-214 825.49,-214 825.49,4 -4,4"/>
<!-- Node1 -->
<g id="node1" class="node">
<title>Node1</title>
<g id="a_node1"><a xlink:title=" ">
<polygon fill="#bfbfbf" stroke="black" points="601,-168.5 601,-209.5 736,-209.5 736,-168.5 601,-168.5"/>
<text text-anchor="start" x="609" y="-197.5" font-family="Helvetica,sans-Serif" font-size="10.00">/home/user/bayes&#45;filters</text>
<text text-anchor="start" x="609" y="-186.5" font-family="Helvetica,sans-Serif" font-size="10.00">&#45;lib/src/BayesFilters/src</text>
<text text-anchor="middle" x="668.5" y="-175.5" font-family="Helvetica,sans-Serif" font-size="10.00">/FilteringAlgorithm.cpp</text>
</a>
</g>
</g>
<!-- Node2 -->
<g id="node2" class="node">
<title>Node2</title>
<g id="a_node2"><a xlink:href="FilteringAlgorithm_8h.html" target="_top" xlink:title=" ">
<polygon fill="white" stroke="black" points="417.5,-112.5 417.5,-131.5 593.5,-131.5 593.5,-112.5 417.5,-112.5"/>
<text text-anchor="middle" x="505.5" y="-119.5" font-family="Helvetica,sans-Serif" font-size="10.00">BayesFilters/FilteringAlgorithm.h</text>
</a>
</g>
</g>
<!-- Node1&#45;&gt;Node2 -->
<g id="edge1" class="edge">
<title>Node1&#45;&gt;Node2</title>
<path fill="none" stroke="midnightblue" d="M619.59,-168.5C592.68,-157.77 560.09,-144.77 536.64,-135.42"/>
<polygon fill="midnightblue" stroke="midnightblue" points="537.78,-132.11 527.2,-131.65 535.19,-138.61 537.78,-132.11"/>
</g>
<!-- Node6 -->
<g id="node6" class="node">
<title>Node6</title>
<g id="a_node6"><a xlink:title=" ">
<polygon fill="white" stroke="#bfbfbf" points="642.5,-0.5 642.5,-19.5 702.5,-19.5 702.5,-0.5 642.5,-0.5"/>
<text text-anchor="middle" x="672.5" y="-7.5" font-family="Helvetica,sans-Serif" font-size="10.00">iostream</text>
</a>
</g>
</g>
<!-- Node1&#45;&gt;Node6 -->
<g id="edge15" class="edge">
<title>Node1&#45;&gt;Node6</title>
<path fill="none" stroke="midnightblue" d="M719.27,-168.46C773.13,-144.75 846.16,-102.18 812.5,-56 789.91,-25 745.61,-14.89 712.87,-11.82"/>
<polygon fill="midnightblue" stroke="midnightblue" points="712.92,-8.32 702.69,-11.06 712.4,-15.3 712.92,-8.32"/>
</g>
<!-- Node3 -->
<g id="node3" class="node">
<title>Node3</title>
<g id="a_node3"><a xlink:href="Filter_8h.html" target="_top" xlink:title=" ">
<polygon fill="white" stroke="black" points="0,-56.5 0,-75.5 113,-75.5 113,-56.5 0,-56.5"/>
<text text-anchor="middle" x="56.5" y="-63.5" font-family="Helvetica,sans-Serif" font-size="10.00">BayesFilters/Filter.h</text>
</a>
</g>
</g>
<!-- Node2&#45;&gt;Node3 -->
<g id="edge2" class="edge">
<title>Node2&#45;&gt;Node3</title>
<path fill="none" stroke="midnightblue" d="M432.66,-112.5C356.53,-103.57 233.6,-89.04 127.5,-76 126.04,-75.82 124.55,-75.64 123.06,-75.45"/>
<polygon fill="midnightblue" stroke="midnightblue" points="123.43,-71.97 113.08,-74.21 122.57,-78.92 123.43,-71.97"/>
</g>
<!-- Node4 -->
<g id="node4" class="node">
<title>Node4</title>
<g id="a_node4"><a xlink:href="Logger_8h.html" target="_top" xlink:title=" ">
<polygon fill="white" stroke="black" points="313,-56.5 313,-75.5 434,-75.5 434,-56.5 313,-56.5"/>
<text text-anchor="middle" x="373.5" y="-63.5" font-family="Helvetica,sans-Serif" font-size="10.00">BayesFilters/Logger.h</text>
</a>
</g>
</g>
<!-- Node2&#45;&gt;Node4 -->
<g id="edge3" class="edge">
<title>Node2&#45;&gt;Node4</title>
<path fill="none" stroke="midnightblue" d="M484.58,-112.44C462.76,-103.52 428.35,-89.44 403.61,-79.32"/>
<polygon fill="midnightblue" stroke="midnightblue" points="404.9,-76.06 394.32,-75.52 402.25,-82.54 404.9,-76.06"/>
</g>
<!-- Node7 -->
<g id="node7" class="node">
<title>Node7</title>
<g id="a_node7"><a xlink:title=" ">
<polygon fill="white" stroke="#bfbfbf" points="210.5,-0.5 210.5,-19.5 254.5,-19.5 254.5,-0.5 210.5,-0.5"/>
<text text-anchor="middle" x="232.5" y="-7.5" font-family="Helvetica,sans-Serif" font-size="10.00">string</text>
</a>
</g>
</g>
<!-- Node2&#45;&gt;Node7 -->
<g id="edge12" class="edge">
<title>Node2&#45;&gt;Node7</title>
<path fill="none" stroke="midnightblue" d="M417.16,-115.46C320.59,-108.49 177.24,-95.06 160.5,-76 143.01,-56.08 174.26,-36.08 200.92,-23.63"/>
<polygon fill="midnightblue" stroke="midnightblue" points="202.36,-26.82 210.07,-19.55 199.51,-20.42 202.36,-26.82"/>
</g>
<!-- Node9 -->
<g id="node9" class="node">
<title>Node9</title>
<g id="a_node9"><a xlink:href="Skipper_8h.html" target="_top" xlink:title=" ">
<polygon fill="white" stroke="black" points="170,-56.5 170,-75.5 295,-75.5 295,-56.5 170,-56.5"/>
<text text-anchor="middle" x="232.5" y="-63.5" font-family="Helvetica,sans-Serif" font-size="10.00">BayesFilters/Skipper.h</text>
</a>
</g>
</g>
<!-- Node2&#45;&gt;Node9 -->
<g id="edge8" class="edge">
<title>Node2&#45;&gt;Node9</title>
<path fill="none" stroke="midnightblue" d="M462.24,-112.44C414.32,-102.96 337.02,-87.67 285.5,-77.48"/>
<polygon fill="midnightblue" stroke="midnightblue" points="286.04,-74.02 275.56,-75.52 284.69,-80.89 286.04,-74.02"/>
</g>
<!-- Node10 -->
<g id="node10" class="node">
<title>Node10</title>
<g id="a_node10"><a xlink:title=" ">
<polygon fill="white" stroke="#bfbfbf" points="452,-56.5 452,-75.5 559,-75.5 559,-56.5 452,-56.5"/>
<text text-anchor="middle" x="505.5" y="-63.5" font-family="Helvetica,sans-Serif" font-size="10.00">condition_variable</text>
</a>
</g>
</g>
<!-- Node2&#45;&gt;Node10 -->
<g id="edge10" class="edge">
<title>Node2&#45;&gt;Node10</title>
<path fill="none" stroke="midnightblue" d="M505.5,-112.08C505.5,-105.01 505.5,-94.86 505.5,-85.99"/>
<polygon fill="midnightblue" stroke="midnightblue" points="509,-85.75 505.5,-75.75 502,-85.75 509,-85.75"/>
</g>
<!-- Node11 -->
<g id="node11" class="node">
<title>Node11</title>
<g id="a_node11"><a xlink:title=" ">
<polygon fill="white" stroke="#bfbfbf" points="577.5,-56.5 577.5,-75.5 625.5,-75.5 625.5,-56.5 577.5,-56.5"/>
<text text-anchor="middle" x="601.5" y="-63.5" font-family="Helvetica,sans-Serif" font-size="10.00">mutex</text>
</a>
</g>
</g>
<!-- Node2&#45;&gt;Node11 -->
<g id="edge11" class="edge">
<title>Node2&#45;&gt;Node11</title>
<path fill="none" stroke="midnightblue" d="M520.92,-112.32C536.04,-103.82 559.32,-90.73 576.97,-80.8"/>
<polygon fill="midnightblue" stroke="midnightblue" points="579.11,-83.61 586.11,-75.65 575.68,-77.51 579.11,-83.61"/>
</g>
<!-- Node12 -->
<g id="node12" class="node">
<title>Node12</title>
<g id="a_node12"><a xlink:title=" ">
<polygon fill="white" stroke="#bfbfbf" points="643.5,-56.5 643.5,-75.5 691.5,-75.5 691.5,-56.5 643.5,-56.5"/>
<text text-anchor="middle" x="667.5" y="-63.5" font-family="Helvetica,sans-Serif" font-size="10.00">thread</text>
</a>
</g>
</g>
<!-- Node2&#45;&gt;Node12 -->
<g id="edge13" class="edge">
<title>Node2&#45;&gt;Node12</title>
<path fill="none" stroke="midnightblue" d="M531.17,-112.44C558.82,-103.23 602.96,-88.51 633.49,-78.34"/>
<polygon fill="midnightblue" stroke="midnightblue" points="634.89,-81.56 643.27,-75.08 632.68,-74.92 634.89,-81.56"/>
</g>
<!-- Node13 -->
<g id="node13" class="node">
<title>Node13</title>
<g id="a_node13"><a xlink:title=" ">
<polygon fill="white" stroke="#bfbfbf" points="710,-56.5 710,-75.5 803,-75.5 803,-56.5 710,-56.5"/>
<text text-anchor="middle" x="756.5" y="-63.5" font-family="Helvetica,sans-Serif" font-size="10.00">unordered_map</text>
</a>
</g>
</g>
<!-- Node2&#45;&gt;Node13 -->
<g id="edge14" class="edge">
<title>Node2&#45;&gt;Node13</title>
<path fill="none" stroke="midnightblue" d="M545.27,-112.44C589.06,-103.02 659.51,-87.87 706.88,-77.68"/>
<polygon fill="midnightblue" stroke="midnightblue" points="707.87,-81.04 716.91,-75.52 706.4,-74.2 707.87,-81.04"/>
</g>
<!-- Node5 -->
<g id="node5" class="node">
<title>Node5</title>
<g id="a_node5"><a xlink:title=" ">
<polygon fill="white" stroke="#bfbfbf" points="311,-0.5 311,-19.5 366,-19.5 366,-0.5 311,-0.5"/>
<text text-anchor="middle" x="338.5" y="-7.5" font-family="Helvetica,sans-Serif" font-size="10.00">fstream</text>
</a>
</g>
</g>
<!-- Node4&#45;&gt;Node5 -->
<g id="edge4" class="edge">
<title>Node4&#45;&gt;Node5</title>
<path fill="none" stroke="midnightblue" d="M367.72,-56.08C362.83,-48.53 355.67,-37.49 349.67,-28.23"/>
<polygon fill="midnightblue" stroke="midnightblue" points="352.55,-26.24 344.17,-19.75 346.67,-30.05 352.55,-26.24"/>
</g>
<!-- Node4&#45;&gt;Node6 -->
<g id="edge5" class="edge">
<title>Node4&#45;&gt;Node6</title>
<path fill="none" stroke="midnightblue" d="M420.88,-56.44C479.2,-45.91 577.24,-28.2 632.14,-18.29"/>
<polygon fill="midnightblue" stroke="midnightblue" points="632.97,-21.7 642.19,-16.47 631.73,-14.81 632.97,-21.7"/>
</g>
<!-- Node4&#45;&gt;Node7 -->
<g id="edge6" class="edge">
<title>Node4&#45;&gt;Node7</title>
<path fill="none" stroke="midnightblue" d="M351.16,-56.44C327.75,-47.48 290.76,-33.31 264.31,-23.18"/>
<polygon fill="midnightblue" stroke="midnightblue" points="265.33,-19.82 254.74,-19.52 262.82,-26.36 265.33,-19.82"/>
</g>
<!-- Node8 -->
<g id="node8" class="node">
<title>Node8</title>
<g id="a_node8"><a xlink:title=" ">
<polygon fill="white" stroke="#bfbfbf" points="384,-0.5 384,-19.5 431,-19.5 431,-0.5 384,-0.5"/>
<text text-anchor="middle" x="407.5" y="-7.5" font-family="Helvetica,sans-Serif" font-size="10.00">vector</text>
</a>
</g>
</g>
<!-- Node4&#45;&gt;Node8 -->
<g id="edge7" class="edge">
<title>Node4&#45;&gt;Node8</title>
<path fill="none" stroke="midnightblue" d="M379.11,-56.08C383.87,-48.53 390.82,-37.49 396.65,-28.23"/>
<polygon fill="midnightblue" stroke="midnightblue" points="399.62,-30.08 401.99,-19.75 393.7,-26.35 399.62,-30.08"/>
</g>
<!-- Node9&#45;&gt;Node7 -->
<g id="edge9" class="edge">
<title>Node9&#45;&gt;Node7</title>
<path fill="none" stroke="midnightblue" d="M232.5,-56.08C232.5,-49.01 232.5,-38.86 232.5,-29.99"/>
<polygon fill="midnightblue" stroke="midnightblue" points="236,-29.75 232.5,-19.75 229,-29.75 236,-29.75"/>
</g>
</g>
</svg>
