<?xml version="1.0" encoding="UTF-8" standalone="no"?>
<!DOCTYPE svg PUBLIC "-//W3C//DTD SVG 1.1//EN"
 "http://www.w3.org/Graphics/SVG/1.1/DTD/svg11.dtd">
<!-- Generated by graphviz version 2.47.2 (0)
 -->
<!-- Title: /home/xenvre/robot&#45;code/bfl_robotology/src/BayesFilters/include/BayesFilters/FilteringAlgorithm.h Pages: 1 -->
<svg width="753pt" height="173pt"
 viewBox="0.00 0.00 752.50 173.00" xmlns="http://www.w3.org/2000/svg" xmlns:xlink="http://www.w3.org/1999/xlink">
<g id="graph0" class="graph" transform="scale(1 1) rotate(0) translate(4 169)">
<title>/home/xenvre/robot&#45;code/bfl_robotology/src/BayesFilters/include/BayesFilters/FilteringAlgorithm.h</title>
<polygon fill="white" stroke="transparent" points="-4,4 -4,-169 748.5,-169 748.5,4 -4,4"/>
<!-- Node1 -->
<g id="node1" class="node">
<title>Node1</title>
<g id="a_node1"><a xlink:title=" ">
<polygon fill="#bfbfbf" stroke="black" points="328.5,-112.5 328.5,-164.5 489.5,-164.5 489.5,-112.5 328.5,-112.5"/>
<text text-anchor="start" x="336.5" y="-152.5" font-family="Helvetica,sans-Serif" font-size="10.00">/home/xenvre/robot</text>
<text text-anchor="start" x="336.5" y="-141.5" font-family="Helvetica,sans-Serif" font-size="10.00">&#45;code/bfl_robotology</text>
<text text-anchor="start" x="336.5" y="-130.5" font-family="Helvetica,sans-Serif" font-size="10.00">/src/BayesFilters/include</text>
<text text-anchor="middle" x="409" y="-119.5" font-family="Helvetica,sans-Serif" font-size="10.00">/BayesFilters/FilteringAlgorithm.h</text>
</a>
</g>
</g>
<!-- Node2 -->
<g id="node2" class="node">
<title>Node2</title>
<g id="a_node2"><a xlink:href="Filter_8h.html" target="_top" xlink:title=" ">
<polygon fill="white" stroke="black" points="0,-56.5 0,-75.5 104,-75.5 104,-56.5 0,-56.5"/>
<text text-anchor="middle" x="52" y="-63.5" font-family="Helvetica,sans-Serif" font-size="10.00">BayesFilters/Filter.h</text>
</a>
</g>
</g>
<!-- Node1&#45;&gt;Node2 -->
<g id="edge1" class="edge">
<title>Node1&#45;&gt;Node2</title>
<path fill="none" stroke="midnightblue" d="M328.44,-121.59C260.2,-108.12 164.31,-89.18 105.26,-77.52"/>
<polygon fill="midnightblue" stroke="midnightblue" points="105.89,-74.07 95.4,-75.57 104.53,-80.94 105.89,-74.07"/>
</g>
<!-- Node3 -->
<g id="node3" class="node">
<title>Node3</title>
<g id="a_node3"><a xlink:href="Logger_8h.html" target="_top" xlink:title=" ">
<polygon fill="white" stroke="black" points="122.5,-56.5 122.5,-75.5 233.5,-75.5 233.5,-56.5 122.5,-56.5"/>
<text text-anchor="middle" x="178" y="-63.5" font-family="Helvetica,sans-Serif" font-size="10.00">BayesFilters/Logger.h</text>
</a>
</g>
</g>
<!-- Node1&#45;&gt;Node3 -->
<g id="edge2" class="edge">
<title>Node1&#45;&gt;Node3</title>
<path fill="none" stroke="midnightblue" d="M328.21,-112.84C289.98,-101.18 246.17,-87.81 215.77,-78.53"/>
<polygon fill="midnightblue" stroke="midnightblue" points="216.58,-75.12 206,-75.54 214.54,-81.81 216.58,-75.12"/>
</g>
<!-- Node6 -->
<g id="node6" class="node">
<title>Node6</title>
<g id="a_node6"><a xlink:title=" ">
<polygon fill="white" stroke="#bfbfbf" points="263.5,-0.5 263.5,-19.5 304.5,-19.5 304.5,-0.5 263.5,-0.5"/>
<text text-anchor="middle" x="284" y="-7.5" font-family="Helvetica,sans-Serif" font-size="10.00">string</text>
</a>
</g>
</g>
<!-- Node1&#45;&gt;Node6 -->
<g id="edge11" class="edge">
<title>Node1&#45;&gt;Node6</title>
<path fill="none" stroke="midnightblue" d="M328.19,-114.81C309.95,-105.75 292.8,-93.23 282,-76 273.39,-62.26 275.07,-43.48 278.2,-29.64"/>
<polygon fill="midnightblue" stroke="midnightblue" points="281.63,-30.36 280.86,-19.79 274.88,-28.53 281.63,-30.36"/>
</g>
<!-- Node8 -->
<g id="node8" class="node">
<title>Node8</title>
<g id="a_node8"><a xlink:href="Skipper_8h.html" target="_top" xlink:title=" ">
<polygon fill="white" stroke="black" points="290.5,-56.5 290.5,-75.5 405.5,-75.5 405.5,-56.5 290.5,-56.5"/>
<text text-anchor="middle" x="348" y="-63.5" font-family="Helvetica,sans-Serif" font-size="10.00">BayesFilters/Skipper.h</text>
</a>
</g>
</g>
<!-- Node1&#45;&gt;Node8 -->
<g id="edge7" class="edge">
<title>Node1&#45;&gt;Node8</title>
<path fill="none" stroke="midnightblue" d="M387.32,-112.45C379,-102.83 369.72,-92.1 362.27,-83.49"/>
<polygon fill="midnightblue" stroke="midnightblue" points="364.71,-80.97 355.52,-75.7 359.42,-85.55 364.71,-80.97"/>
</g>
<!-- Node9 -->
<g id="node9" class="node">
<title>Node9</title>
<g id="a_node9"><a xlink:title=" ">
<polygon fill="white" stroke="#bfbfbf" points="423.5,-56.5 423.5,-75.5 518.5,-75.5 518.5,-56.5 423.5,-56.5"/>
<text text-anchor="middle" x="471" y="-63.5" font-family="Helvetica,sans-Serif" font-size="10.00">condition_variable</text>
</a>
</g>
</g>
<!-- Node1&#45;&gt;Node9 -->
<g id="edge9" class="edge">
<title>Node1&#45;&gt;Node9</title>
<path fill="none" stroke="midnightblue" d="M431.03,-112.45C439.58,-102.73 449.12,-91.88 456.74,-83.22"/>
<polygon fill="midnightblue" stroke="midnightblue" points="459.38,-85.52 463.35,-75.7 454.12,-80.89 459.38,-85.52"/>
</g>
<!-- Node10 -->
<g id="node10" class="node">
<title>Node10</title>
<g id="a_node10"><a xlink:title=" ">
<polygon fill="white" stroke="#bfbfbf" points="537,-56.5 537,-75.5 581,-75.5 581,-56.5 537,-56.5"/>
<text text-anchor="middle" x="559" y="-63.5" font-family="Helvetica,sans-Serif" font-size="10.00">mutex</text>
</a>
</g>
</g>
<!-- Node1&#45;&gt;Node10 -->
<g id="edge10" class="edge">
<title>Node1&#45;&gt;Node10</title>
<path fill="none" stroke="midnightblue" d="M462.31,-112.45C485.79,-101.41 512.38,-88.91 531.72,-79.82"/>
<polygon fill="midnightblue" stroke="midnightblue" points="533.3,-82.95 540.86,-75.53 530.32,-76.61 533.3,-82.95"/>
</g>
<!-- Node11 -->
<g id="node11" class="node">
<title>Node11</title>
<g id="a_node11"><a xlink:title=" ">
<polygon fill="white" stroke="#bfbfbf" points="599,-56.5 599,-75.5 643,-75.5 643,-56.5 599,-56.5"/>
<text text-anchor="middle" x="621" y="-63.5" font-family="Helvetica,sans-Serif" font-size="10.00">thread</text>
</a>
</g>
</g>
<!-- Node1&#45;&gt;Node11 -->
<g id="edge12" class="edge">
<title>Node1&#45;&gt;Node11</title>
<path fill="none" stroke="midnightblue" d="M484.34,-112.45C520.38,-100.46 561.59,-86.76 589.25,-77.56"/>
<polygon fill="midnightblue" stroke="midnightblue" points="590.41,-80.86 598.79,-74.38 588.2,-74.22 590.41,-80.86"/>
</g>
<!-- Node12 -->
<g id="node12" class="node">
<title>Node12</title>
<g id="a_node12"><a xlink:title=" ">
<polygon fill="white" stroke="#bfbfbf" points="661.5,-56.5 661.5,-75.5 744.5,-75.5 744.5,-56.5 661.5,-56.5"/>
<text text-anchor="middle" x="703" y="-63.5" font-family="Helvetica,sans-Serif" font-size="10.00">unordered_map</text>
</a>
</g>
</g>
<!-- Node1&#45;&gt;Node12 -->
<g id="edge13" class="edge">
<title>Node1&#45;&gt;Node12</title>
<path fill="none" stroke="midnightblue" d="M489.73,-118.14C543.66,-105.21 612.65,-88.67 657.33,-77.95"/>
<polygon fill="midnightblue" stroke="midnightblue" points="658.4,-81.3 667.3,-75.56 656.76,-74.49 658.4,-81.3"/>
</g>
<!-- Node4 -->
<g id="node4" class="node">
<title>Node4</title>
<g id="a_node4"><a xlink:title=" ">
<polygon fill="white" stroke="#bfbfbf" points="61,-0.5 61,-19.5 111,-19.5 111,-0.5 61,-0.5"/>
<text text-anchor="middle" x="86" y="-7.5" font-family="Helvetica,sans-Serif" font-size="10.00">fstream</text>
</a>
</g>
</g>
<!-- Node3&#45;&gt;Node4 -->
<g id="edge3" class="edge">
<title>Node3&#45;&gt;Node4</title>
<path fill="none" stroke="midnightblue" d="M163.22,-56.32C148.73,-47.82 126.43,-34.73 109.51,-24.8"/>
<polygon fill="midnightblue" stroke="midnightblue" points="111.14,-21.7 100.74,-19.65 107.6,-27.74 111.14,-21.7"/>
</g>
<!-- Node5 -->
<g id="node5" class="node">
<title>Node5</title>
<g id="a_node5"><a xlink:title=" ">
<polygon fill="white" stroke="#bfbfbf" points="129,-0.5 129,-19.5 183,-19.5 183,-0.5 129,-0.5"/>
<text text-anchor="middle" x="156" y="-7.5" font-family="Helvetica,sans-Serif" font-size="10.00">iostream</text>
</a>
</g>
</g>
<!-- Node3&#45;&gt;Node5 -->
<g id="edge4" class="edge">
<title>Node3&#45;&gt;Node5</title>
<path fill="none" stroke="midnightblue" d="M174.37,-56.08C171.39,-48.77 167.07,-38.18 163.38,-29.1"/>
<polygon fill="midnightblue" stroke="midnightblue" points="166.58,-27.69 159.57,-19.75 160.1,-30.33 166.58,-27.69"/>
</g>
<!-- Node3&#45;&gt;Node6 -->
<g id="edge5" class="edge">
<title>Node3&#45;&gt;Node6</title>
<path fill="none" stroke="midnightblue" d="M195.03,-56.32C212.03,-47.66 238.38,-34.24 257.99,-24.25"/>
<polygon fill="midnightblue" stroke="midnightblue" points="259.69,-27.31 267.01,-19.65 256.51,-21.08 259.69,-27.31"/>
</g>
<!-- Node7 -->
<g id="node7" class="node">
<title>Node7</title>
<g id="a_node7"><a xlink:title=" ">
<polygon fill="white" stroke="#bfbfbf" points="201,-0.5 201,-19.5 245,-19.5 245,-0.5 201,-0.5"/>
<text text-anchor="middle" x="223" y="-7.5" font-family="Helvetica,sans-Serif" font-size="10.00">vector</text>
</a>
</g>
</g>
<!-- Node3&#45;&gt;Node7 -->
<g id="edge6" class="edge">
<title>Node3&#45;&gt;Node7</title>
<path fill="none" stroke="midnightblue" d="M185.43,-56.08C191.85,-48.38 201.31,-37.03 209.12,-27.65"/>
<polygon fill="midnightblue" stroke="midnightblue" points="211.99,-29.67 215.71,-19.75 206.62,-25.19 211.99,-29.67"/>
</g>
<!-- Node8&#45;&gt;Node6 -->
<g id="edge8" class="edge">
<title>Node8&#45;&gt;Node6</title>
<path fill="none" stroke="midnightblue" d="M337.72,-56.32C328.16,-48.26 313.72,-36.08 302.22,-26.37"/>
<polygon fill="midnightblue" stroke="midnightblue" points="304.37,-23.61 294.47,-19.83 299.86,-28.96 304.37,-23.61"/>
</g>
</g>
</svg>
