<?xml version="1.0" encoding="UTF-8" standalone="no"?>
<!DOCTYPE svg PUBLIC "-//W3C//DTD SVG 1.1//EN"
 "http://www.w3.org/Graphics/SVG/1.1/DTD/svg11.dtd">
<!-- Generated by graphviz version 2.47.2 (0)
 -->
<!-- Title: /home/xenvre/robot&#45;code/bfl_robotology/src/BayesFilters/include/BayesFilters/GaussianCorrection.h Pages: 1 -->
<svg width="976pt" height="239pt"
 viewBox="0.00 0.00 975.50 239.00" xmlns="http://www.w3.org/2000/svg" xmlns:xlink="http://www.w3.org/1999/xlink">
<g id="graph0" class="graph" transform="scale(1 1) rotate(0) translate(4 235)">
<title>/home/xenvre/robot&#45;code/bfl_robotology/src/BayesFilters/include/BayesFilters/GaussianCorrection.h</title>
<polygon fill="white" stroke="transparent" points="-4,4 -4,-235 971.5,-235 971.5,4 -4,4"/>
<!-- Node1 -->
<g id="node1" class="node">
<title>Node1</title>
<g id="a_node1"><a xlink:title=" ">
<polygon fill="#bfbfbf" stroke="black" points="405,-178.5 405,-230.5 577,-230.5 577,-178.5 405,-178.5"/>
<text text-anchor="start" x="413" y="-218.5" font-family="Helvetica,sans-Serif" font-size="10.00">/home/xenvre/robot</text>
<text text-anchor="start" x="413" y="-207.5" font-family="Helvetica,sans-Serif" font-size="10.00">&#45;code/bfl_robotology</text>
<text text-anchor="start" x="413" y="-196.5" font-family="Helvetica,sans-Serif" font-size="10.00">/src/BayesFilters/include</text>
<text text-anchor="middle" x="491" y="-185.5" font-family="Helvetica,sans-Serif" font-size="10.00">/BayesFilters/GaussianCorrection.h</text>
</a>
</g>
</g>
<!-- Node2 -->
<g id="node2" class="node">
<title>Node2</title>
<g id="a_node2"><a xlink:href="GaussianFilter_8h.html" target="_top" xlink:title=" ">
<polygon fill="white" stroke="black" points="0,-89.5 0,-141.5 148,-141.5 148,-89.5 0,-89.5"/>
<text text-anchor="start" x="8" y="-129.5" font-family="Helvetica,sans-Serif" font-size="10.00">/home/xenvre/robot</text>
<text text-anchor="start" x="8" y="-118.5" font-family="Helvetica,sans-Serif" font-size="10.00">&#45;code/bfl_robotology</text>
<text text-anchor="start" x="8" y="-107.5" font-family="Helvetica,sans-Serif" font-size="10.00">/src/BayesFilters/include</text>
<text text-anchor="middle" x="74" y="-96.5" font-family="Helvetica,sans-Serif" font-size="10.00">/BayesFilters/GaussianFilter.h</text>
</a>
</g>
</g>
<!-- Node1&#45;&gt;Node2 -->
<g id="edge1" class="edge">
<title>Node1&#45;&gt;Node2</title>
<path fill="none" stroke="midnightblue" d="M394.83,-188.83C327.75,-177.86 236.4,-161.44 157,-142 154.07,-141.28 151.09,-140.52 148.09,-139.73"/>
<polygon fill="midnightblue" stroke="midnightblue" points="394.53,-192.33 404.96,-190.48 395.65,-185.42 394.53,-192.33"/>
</g>
<!-- Node4 -->
<g id="node4" class="node">
<title>Node4</title>
<g id="a_node4"><a xlink:href="GPFCorrection_8h.html" target="_top" xlink:title=" ">
<polygon fill="white" stroke="black" points="166.5,-89.5 166.5,-141.5 317.5,-141.5 317.5,-89.5 166.5,-89.5"/>
<text text-anchor="start" x="174.5" y="-129.5" font-family="Helvetica,sans-Serif" font-size="10.00">/home/xenvre/robot</text>
<text text-anchor="start" x="174.5" y="-118.5" font-family="Helvetica,sans-Serif" font-size="10.00">&#45;code/bfl_robotology</text>
<text text-anchor="start" x="174.5" y="-107.5" font-family="Helvetica,sans-Serif" font-size="10.00">/src/BayesFilters/include</text>
<text text-anchor="middle" x="242" y="-96.5" font-family="Helvetica,sans-Serif" font-size="10.00">/BayesFilters/GPFCorrection.h</text>
</a>
</g>
</g>
<!-- Node1&#45;&gt;Node4 -->
<g id="edge3" class="edge">
<title>Node1&#45;&gt;Node4</title>
<path fill="none" stroke="midnightblue" d="M409.83,-175.14C378.8,-164.3 343.68,-152.03 313.61,-141.52"/>
<polygon fill="midnightblue" stroke="midnightblue" points="408.72,-178.46 419.31,-178.45 411.03,-171.85 408.72,-178.46"/>
</g>
<!-- Node6 -->
<g id="node6" class="node">
<title>Node6</title>
<g id="a_node6"><a xlink:href="KFCorrection_8h.html" target="_top" xlink:title=" ">
<polygon fill="white" stroke="black" points="335.5,-89.5 335.5,-141.5 478.5,-141.5 478.5,-89.5 335.5,-89.5"/>
<text text-anchor="start" x="343.5" y="-129.5" font-family="Helvetica,sans-Serif" font-size="10.00">/home/xenvre/robot</text>
<text text-anchor="start" x="343.5" y="-118.5" font-family="Helvetica,sans-Serif" font-size="10.00">&#45;code/bfl_robotology</text>
<text text-anchor="start" x="343.5" y="-107.5" font-family="Helvetica,sans-Serif" font-size="10.00">/src/BayesFilters/include</text>
<text text-anchor="middle" x="407" y="-96.5" font-family="Helvetica,sans-Serif" font-size="10.00">/BayesFilters/KFCorrection.h</text>
</a>
</g>
</g>
<!-- Node1&#45;&gt;Node6 -->
<g id="edge5" class="edge">
<title>Node1&#45;&gt;Node6</title>
<path fill="none" stroke="midnightblue" d="M459.69,-171.08C450.29,-161.34 440.12,-150.8 431.24,-141.61"/>
<polygon fill="midnightblue" stroke="midnightblue" points="457.24,-173.57 466.7,-178.34 462.28,-168.71 457.24,-173.57"/>
</g>
<!-- Node8 -->
<g id="node8" class="node">
<title>Node8</title>
<g id="a_node8"><a xlink:href="SUKFCorrection_8h.html" target="_top" xlink:title=" ">
<polygon fill="white" stroke="black" points="497,-89.5 497,-141.5 655,-141.5 655,-89.5 497,-89.5"/>
<text text-anchor="start" x="505" y="-129.5" font-family="Helvetica,sans-Serif" font-size="10.00">/home/xenvre/robot</text>
<text text-anchor="start" x="505" y="-118.5" font-family="Helvetica,sans-Serif" font-size="10.00">&#45;code/bfl_robotology</text>
<text text-anchor="start" x="505" y="-107.5" font-family="Helvetica,sans-Serif" font-size="10.00">/src/BayesFilters/include</text>
<text text-anchor="middle" x="576" y="-96.5" font-family="Helvetica,sans-Serif" font-size="10.00">/BayesFilters/SUKFCorrection.h</text>
</a>
</g>
</g>
<!-- Node1&#45;&gt;Node8 -->
<g id="edge7" class="edge">
<title>Node1&#45;&gt;Node8</title>
<path fill="none" stroke="midnightblue" d="M522.68,-171.08C532.2,-161.34 542.49,-150.8 551.47,-141.61"/>
<polygon fill="midnightblue" stroke="midnightblue" points="520.07,-168.74 515.59,-178.34 525.08,-173.63 520.07,-168.74"/>
</g>
<!-- Node10 -->
<g id="node10" class="node">
<title>Node10</title>
<g id="a_node10"><a xlink:href="UKFCorrection_8h.html" target="_top" xlink:title=" ">
<polygon fill="white" stroke="black" points="673.5,-89.5 673.5,-141.5 824.5,-141.5 824.5,-89.5 673.5,-89.5"/>
<text text-anchor="start" x="681.5" y="-129.5" font-family="Helvetica,sans-Serif" font-size="10.00">/home/xenvre/robot</text>
<text text-anchor="start" x="681.5" y="-118.5" font-family="Helvetica,sans-Serif" font-size="10.00">&#45;code/bfl_robotology</text>
<text text-anchor="start" x="681.5" y="-107.5" font-family="Helvetica,sans-Serif" font-size="10.00">/src/BayesFilters/include</text>
<text text-anchor="middle" x="749" y="-96.5" font-family="Helvetica,sans-Serif" font-size="10.00">/BayesFilters/UKFCorrection.h</text>
</a>
</g>
</g>
<!-- Node1&#45;&gt;Node10 -->
<g id="edge9" class="edge">
<title>Node1&#45;&gt;Node10</title>
<path fill="none" stroke="midnightblue" d="M575.11,-175.14C607.25,-164.3 643.64,-152.03 674.8,-141.52"/>
<polygon fill="midnightblue" stroke="midnightblue" points="573.64,-171.94 565.28,-178.45 575.87,-178.57 573.64,-171.94"/>
</g>
<!-- Node12 -->
<g id="node12" class="node">
<title>Node12</title>
<g id="a_node12"><a xlink:href="GaussianCorrection_8cpp.html" target="_top" xlink:title=" ">
<polygon fill="white" stroke="black" points="842.5,-89.5 842.5,-141.5 967.5,-141.5 967.5,-89.5 842.5,-89.5"/>
<text text-anchor="start" x="850.5" y="-129.5" font-family="Helvetica,sans-Serif" font-size="10.00">/home/xenvre/robot</text>
<text text-anchor="start" x="850.5" y="-118.5" font-family="Helvetica,sans-Serif" font-size="10.00">&#45;code/bfl_robotology</text>
<text text-anchor="start" x="850.5" y="-107.5" font-family="Helvetica,sans-Serif" font-size="10.00">/src/BayesFilters/src</text>
<text text-anchor="middle" x="905" y="-96.5" font-family="Helvetica,sans-Serif" font-size="10.00">/GaussianCorrection.cpp</text>
</a>
</g>
</g>
<!-- Node1&#45;&gt;Node12 -->
<g id="edge11" class="edge">
<title>Node1&#45;&gt;Node12</title>
<path fill="none" stroke="midnightblue" d="M587.18,-190.66C656.47,-180.34 751.83,-163.96 834,-142 836.78,-141.26 839.61,-140.45 842.46,-139.6"/>
<polygon fill="midnightblue" stroke="midnightblue" points="586.54,-187.22 577.15,-192.14 587.56,-194.14 586.54,-187.22"/>
</g>
<!-- Node3 -->
<g id="node3" class="node">
<title>Node3</title>
<g id="a_node3"><a xlink:href="GaussianFilter_8cpp.html" target="_top" xlink:title=" ">
<polygon fill="white" stroke="black" points="20.5,-0.5 20.5,-52.5 127.5,-52.5 127.5,-0.5 20.5,-0.5"/>
<text text-anchor="start" x="28.5" y="-40.5" font-family="Helvetica,sans-Serif" font-size="10.00">/home/xenvre/robot</text>
<text text-anchor="start" x="28.5" y="-29.5" font-family="Helvetica,sans-Serif" font-size="10.00">&#45;code/bfl_robotology</text>
<text text-anchor="start" x="28.5" y="-18.5" font-family="Helvetica,sans-Serif" font-size="10.00">/src/BayesFilters/src</text>
<text text-anchor="middle" x="74" y="-7.5" font-family="Helvetica,sans-Serif" font-size="10.00">/GaussianFilter.cpp</text>
</a>
</g>
</g>
<!-- Node2&#45;&gt;Node3 -->
<g id="edge2" class="edge">
<title>Node2&#45;&gt;Node3</title>
<path fill="none" stroke="midnightblue" d="M74,-79.19C74,-70.28 74,-60.9 74,-52.61"/>
<polygon fill="midnightblue" stroke="midnightblue" points="70.5,-79.34 74,-89.34 77.5,-79.34 70.5,-79.34"/>
</g>
<!-- Node5 -->
<g id="node5" class="node">
<title>Node5</title>
<g id="a_node5"><a xlink:href="GPFCorrection_8cpp.html" target="_top" xlink:title=" ">
<polygon fill="white" stroke="black" points="188.5,-0.5 188.5,-52.5 295.5,-52.5 295.5,-0.5 188.5,-0.5"/>
<text text-anchor="start" x="196.5" y="-40.5" font-family="Helvetica,sans-Serif" font-size="10.00">/home/xenvre/robot</text>
<text text-anchor="start" x="196.5" y="-29.5" font-family="Helvetica,sans-Serif" font-size="10.00">&#45;code/bfl_robotology</text>
<text text-anchor="start" x="196.5" y="-18.5" font-family="Helvetica,sans-Serif" font-size="10.00">/src/BayesFilters/src</text>
<text text-anchor="middle" x="242" y="-7.5" font-family="Helvetica,sans-Serif" font-size="10.00">/GPFCorrection.cpp</text>
</a>
</g>
</g>
<!-- Node4&#45;&gt;Node5 -->
<g id="edge4" class="edge">
<title>Node4&#45;&gt;Node5</title>
<path fill="none" stroke="midnightblue" d="M242,-79.19C242,-70.28 242,-60.9 242,-52.61"/>
<polygon fill="midnightblue" stroke="midnightblue" points="238.5,-79.34 242,-89.34 245.5,-79.34 238.5,-79.34"/>
</g>
<!-- Node7 -->
<g id="node7" class="node">
<title>Node7</title>
<g id="a_node7"><a xlink:href="KFCorrection_8cpp.html" target="_top" xlink:title=" ">
<polygon fill="white" stroke="black" points="353.5,-0.5 353.5,-52.5 460.5,-52.5 460.5,-0.5 353.5,-0.5"/>
<text text-anchor="start" x="361.5" y="-40.5" font-family="Helvetica,sans-Serif" font-size="10.00">/home/xenvre/robot</text>
<text text-anchor="start" x="361.5" y="-29.5" font-family="Helvetica,sans-Serif" font-size="10.00">&#45;code/bfl_robotology</text>
<text text-anchor="start" x="361.5" y="-18.5" font-family="Helvetica,sans-Serif" font-size="10.00">/src/BayesFilters/src</text>
<text text-anchor="middle" x="407" y="-7.5" font-family="Helvetica,sans-Serif" font-size="10.00">/KFCorrection.cpp</text>
</a>
</g>
</g>
<!-- Node6&#45;&gt;Node7 -->
<g id="edge6" class="edge">
<title>Node6&#45;&gt;Node7</title>
<path fill="none" stroke="midnightblue" d="M407,-79.19C407,-70.28 407,-60.9 407,-52.61"/>
<polygon fill="midnightblue" stroke="midnightblue" points="403.5,-79.34 407,-89.34 410.5,-79.34 403.5,-79.34"/>
</g>
<!-- Node9 -->
<g id="node9" class="node">
<title>Node9</title>
<g id="a_node9"><a xlink:href="SUKFCorrection_8cpp.html" target="_top" xlink:title=" ">
<polygon fill="white" stroke="black" points="521,-0.5 521,-52.5 631,-52.5 631,-0.5 521,-0.5"/>
<text text-anchor="start" x="529" y="-40.5" font-family="Helvetica,sans-Serif" font-size="10.00">/home/xenvre/robot</text>
<text text-anchor="start" x="529" y="-29.5" font-family="Helvetica,sans-Serif" font-size="10.00">&#45;code/bfl_robotology</text>
<text text-anchor="start" x="529" y="-18.5" font-family="Helvetica,sans-Serif" font-size="10.00">/src/BayesFilters/src</text>
<text text-anchor="middle" x="576" y="-7.5" font-family="Helvetica,sans-Serif" font-size="10.00">/SUKFCorrection.cpp</text>
</a>
</g>
</g>
<!-- Node8&#45;&gt;Node9 -->
<g id="edge8" class="edge">
<title>Node8&#45;&gt;Node9</title>
<path fill="none" stroke="midnightblue" d="M576,-79.19C576,-70.28 576,-60.9 576,-52.61"/>
<polygon fill="midnightblue" stroke="midnightblue" points="572.5,-79.34 576,-89.34 579.5,-79.34 572.5,-79.34"/>
</g>
<!-- Node11 -->
<g id="node11" class="node">
<title>Node11</title>
<g id="a_node11"><a xlink:href="UKFCorrection_8cpp.html" target="_top" xlink:title=" ">
<polygon fill="white" stroke="black" points="695.5,-0.5 695.5,-52.5 802.5,-52.5 802.5,-0.5 695.5,-0.5"/>
<text text-anchor="start" x="703.5" y="-40.5" font-family="Helvetica,sans-Serif" font-size="10.00">/home/xenvre/robot</text>
<text text-anchor="start" x="703.5" y="-29.5" font-family="Helvetica,sans-Serif" font-size="10.00">&#45;code/bfl_robotology</text>
<text text-anchor="start" x="703.5" y="-18.5" font-family="Helvetica,sans-Serif" font-size="10.00">/src/BayesFilters/src</text>
<text text-anchor="middle" x="749" y="-7.5" font-family="Helvetica,sans-Serif" font-size="10.00">/UKFCorrection.cpp</text>
</a>
</g>
</g>
<!-- Node10&#45;&gt;Node11 -->
<g id="edge10" class="edge">
<title>Node10&#45;&gt;Node11</title>
<path fill="none" stroke="midnightblue" d="M749,-79.19C749,-70.28 749,-60.9 749,-52.61"/>
<polygon fill="midnightblue" stroke="midnightblue" points="745.5,-79.34 749,-89.34 752.5,-79.34 745.5,-79.34"/>
</g>
</g>
</svg>
