<?xml version="1.0" encoding="UTF-8" standalone="no"?>
<!DOCTYPE svg PUBLIC "-//W3C//DTD SVG 1.1//EN"
 "http://www.w3.org/Graphics/SVG/1.1/DTD/svg11.dtd">
<!-- Generated by graphviz version 2.47.2 (0)
 -->
<!-- Title: /home/xenvre/robot&#45;code/bfl_robotology/src/BayesFilters/src/GaussianPrediction.cpp Pages: 1 -->
<!--zoomable 408 -->
<svg id="main" version="1.1" xmlns="http://www.w3.org/2000/svg" xmlns:xlink="http://www.w3.org/1999/xlink" xml:space="preserve" onload="init(evt)">
<style type="text/css"><![CDATA[
.edge:hover path { stroke: red; }
.edge:hover polygon { stroke: red; fill: red; }
]]></style>
<script type="text/javascript"><![CDATA[
var edges = document.getElementsByTagName('g');
if (edges && edges.length) {
  for (var i=0;i<edges.length;i++) {
    if (edges[i].id.substr(0,4)=='edge') {
      edges[i].setAttribute('class','edge');
    }
  }
}
]]></script>
        <defs>
                <circle id="rim" cx="0" cy="0" r="7"/>
                <circle id="rim2" cx="0" cy="0" r="3.5"/>
                <g id="zoomPlus">
                        <use xlink:href="#rim" fill="#404040">
                                <set attributeName="fill" to="#808080" begin="zoomplus.mouseover" end="zoomplus.mouseout"/>
                        </use>
                        <path d="M-4,0h8M0,-4v8" fill="none" stroke="white" stroke-width="1.5" pointer-events="none"/>
                </g>
                <g id="zoomMin">
                        <use xlink:href="#rim" fill="#404040">
                                <set attributeName="fill" to="#808080" begin="zoomminus.mouseover" end="zoomminus.mouseout"/>
                        </use>
                        <path d="M-4,0h8" fill="none" stroke="white" stroke-width="1.5" pointer-events="none"/>
                </g>
                <g id="dirArrow">
                        <path fill="none" stroke="white" stroke-width="1.5" d="M0,-3.0v7 M-2.5,-0.5L0,-3.0L2.5,-0.5"/>
                </g>
               <g id="resetDef">
                       <use xlink:href="#rim2" fill="#404040">
                               <set attributeName="fill" to="#808080" begin="reset.mouseover" end="reset.mouseout"/>
                       </use>
               </g>
        </defs>

<script type="text/javascript">
var viewWidth = 729;
var viewHeight = 408;
var sectionId = 'dynsection-0';
</script>
<script xlink:href="svgpan.js"/>
<svg id="graph" class="graph">
<g id="viewport">
<title>/home/xenvre/robot&#45;code/bfl_robotology/src/BayesFilters/src/GaussianPrediction.cpp</title>
<polygon fill="white" stroke="transparent" points="-4,4 -4,-404 724.5,-404 724.5,4 -4,4"/>
<!-- Node1 -->
<g id="node1" class="node">
<title>Node1</title>
<g id="a_node1"><a xlink:title=" ">
<polygon fill="#bfbfbf" stroke="black" points="461.5,-347.5 461.5,-399.5 584.5,-399.5 584.5,-347.5 461.5,-347.5"/>
<text text-anchor="start" x="469.5" y="-387.5" font-family="Helvetica,sans-Serif" font-size="10.00">/home/xenvre/robot</text>
<text text-anchor="start" x="469.5" y="-376.5" font-family="Helvetica,sans-Serif" font-size="10.00">&#45;code/bfl_robotology</text>
<text text-anchor="start" x="469.5" y="-365.5" font-family="Helvetica,sans-Serif" font-size="10.00">/src/BayesFilters/src</text>
<text text-anchor="middle" x="523" y="-354.5" font-family="Helvetica,sans-Serif" font-size="10.00">/GaussianPrediction.cpp</text>
</a>
</g>
</g>
<!-- Node2 -->
<g id="node2" class="node">
<title>Node2</title>
<g id="a_node2"><a xlink:href="GaussianPrediction_8h.html" target="_top" xlink:title=" ">
<polygon fill="white" stroke="black" points="308.5,-291.5 308.5,-310.5 475.5,-310.5 475.5,-291.5 308.5,-291.5"/>
<text text-anchor="middle" x="392" y="-298.5" font-family="Helvetica,sans-Serif" font-size="10.00">BayesFilters/GaussianPrediction.h</text>
</a>
</g>
</g>
<!-- Node1&#45;&gt;Node2 -->
<g id="edge1" class="edge">
<title>Node1&#45;&gt;Node2</title>
<path fill="none" stroke="midnightblue" d="M476.45,-347.45C456.4,-336.66 433.77,-324.48 416.99,-315.45"/>
<polygon fill="midnightblue" stroke="midnightblue" points="418.31,-312.18 407.84,-310.53 414.99,-318.35 418.31,-312.18"/>
</g>
<!-- Node15 -->
<g id="node15" class="node">
<title>Node15</title>
<g id="a_node15"><a xlink:title=" ">
<polygon fill="white" stroke="#bfbfbf" points="493.5,-291.5 493.5,-310.5 552.5,-310.5 552.5,-291.5 493.5,-291.5"/>
<text text-anchor="middle" x="523" y="-298.5" font-family="Helvetica,sans-Serif" font-size="10.00">exception</text>
</a>
</g>
</g>
<!-- Node1&#45;&gt;Node15 -->
<g id="edge21" class="edge">
<title>Node1&#45;&gt;Node15</title>
<path fill="none" stroke="midnightblue" d="M523,-347.45C523,-338.73 523,-329.1 523,-320.96"/>
<polygon fill="midnightblue" stroke="midnightblue" points="526.5,-320.7 523,-310.7 519.5,-320.7 526.5,-320.7"/>
</g>
<!-- Node16 -->
<g id="node16" class="node">
<title>Node16</title>
<g id="a_node16"><a xlink:title=" ">
<polygon fill="white" stroke="#bfbfbf" points="571,-291.5 571,-310.5 625,-310.5 625,-291.5 571,-291.5"/>
<text text-anchor="middle" x="598" y="-298.5" font-family="Helvetica,sans-Serif" font-size="10.00">iostream</text>
</a>
</g>
</g>
<!-- Node1&#45;&gt;Node16 -->
<g id="edge22" class="edge">
<title>Node1&#45;&gt;Node16</title>
<path fill="none" stroke="midnightblue" d="M549.65,-347.45C560.2,-337.53 572.01,-326.43 581.31,-317.69"/>
<polygon fill="midnightblue" stroke="midnightblue" points="583.86,-320.09 588.75,-310.7 579.07,-314.99 583.86,-320.09"/>
</g>
<!-- Node3 -->
<g id="node3" class="node">
<title>Node3</title>
<g id="a_node3"><a xlink:href="ExogenousModel_8h.html" target="_top" xlink:title=" ">
<polygon fill="white" stroke="black" points="457,-174 457,-193 615,-193 615,-174 457,-174"/>
<text text-anchor="middle" x="536" y="-181" font-family="Helvetica,sans-Serif" font-size="10.00">BayesFilters/ExogenousModel.h</text>
</a>
</g>
</g>
<!-- Node2&#45;&gt;Node3 -->
<g id="edge2" class="edge">
<title>Node2&#45;&gt;Node3</title>
<path fill="none" stroke="midnightblue" d="M408.88,-291.48C424.62,-283.18 448.41,-269.68 467,-255 487.9,-238.5 508.87,-216.04 522.11,-200.94"/>
<polygon fill="midnightblue" stroke="midnightblue" points="525.07,-202.86 528.95,-193 519.77,-198.29 525.07,-202.86"/>
</g>
<!-- Node5 -->
<g id="node5" class="node">
<title>Node5</title>
<g id="a_node5"><a xlink:title=" ">
<polygon fill="white" stroke="#bfbfbf" points="185.5,-56.5 185.5,-75.5 258.5,-75.5 258.5,-56.5 185.5,-56.5"/>
<text text-anchor="middle" x="222" y="-63.5" font-family="Helvetica,sans-Serif" font-size="10.00">Eigen/Dense</text>
</a>
</g>
</g>
<!-- Node2&#45;&gt;Node5 -->
<g id="edge20" class="edge">
<title>Node2&#45;&gt;Node5</title>
<path fill="none" stroke="midnightblue" d="M372.41,-291.47C356.17,-283.7 333.21,-271 317,-255 271.27,-209.86 267.14,-190.7 241,-132 234.27,-116.9 229.2,-98.77 226,-85.5"/>
<polygon fill="midnightblue" stroke="midnightblue" points="229.39,-84.64 223.75,-75.67 222.57,-86.2 229.39,-84.64"/>
</g>
<!-- Node6 -->
<g id="node6" class="node">
<title>Node6</title>
<g id="a_node6"><a xlink:href="Skippable_8h.html" target="_top" xlink:title=" ">
<polygon fill="white" stroke="black" points="595.5,-112.5 595.5,-131.5 720.5,-131.5 720.5,-112.5 595.5,-112.5"/>
<text text-anchor="middle" x="658" y="-119.5" font-family="Helvetica,sans-Serif" font-size="10.00">BayesFilters/Skippable.h</text>
</a>
</g>
</g>
<!-- Node2&#45;&gt;Node6 -->
<g id="edge13" class="edge">
<title>Node2&#45;&gt;Node6</title>
<path fill="none" stroke="midnightblue" d="M434.09,-291.47C485.04,-279.16 570.62,-251.85 624,-199 640.01,-183.15 649.13,-158.43 653.81,-141.51"/>
<polygon fill="midnightblue" stroke="midnightblue" points="657.24,-142.25 656.28,-131.7 650.45,-140.54 657.24,-142.25"/>
</g>
<!-- Node9 -->
<g id="node9" class="node">
<title>Node9</title>
<g id="a_node9"><a xlink:href="GaussianMixturePrediction_8h.html" target="_top" xlink:title=" ">
<polygon fill="white" stroke="black" points="46,-168.5 46,-198.5 194,-198.5 194,-168.5 46,-168.5"/>
<text text-anchor="start" x="54" y="-186.5" font-family="Helvetica,sans-Serif" font-size="10.00">BayesFilters/GaussianMixture</text>
<text text-anchor="middle" x="120" y="-175.5" font-family="Helvetica,sans-Serif" font-size="10.00">Prediction.h</text>
</a>
</g>
</g>
<!-- Node2&#45;&gt;Node9 -->
<g id="edge8" class="edge">
<title>Node2&#45;&gt;Node9</title>
<path fill="none" stroke="midnightblue" d="M328.32,-291.45C291.76,-284.85 245.76,-273.6 208,-255 182.65,-242.51 157.9,-221.69 141.14,-205.9"/>
<polygon fill="midnightblue" stroke="midnightblue" points="143.21,-203.04 133.59,-198.61 138.35,-208.08 143.21,-203.04"/>
</g>
<!-- Node12 -->
<g id="node12" class="node">
<title>Node12</title>
<g id="a_node12"><a xlink:href="StateModel_8h.html" target="_top" xlink:title=" ">
<polygon fill="white" stroke="black" points="326,-235.5 326,-254.5 458,-254.5 458,-235.5 326,-235.5"/>
<text text-anchor="middle" x="392" y="-242.5" font-family="Helvetica,sans-Serif" font-size="10.00">BayesFilters/StateModel.h</text>
</a>
</g>
</g>
<!-- Node2&#45;&gt;Node12 -->
<g id="edge14" class="edge">
<title>Node2&#45;&gt;Node12</title>
<path fill="none" stroke="midnightblue" d="M392,-291.08C392,-284.01 392,-273.86 392,-264.99"/>
<polygon fill="midnightblue" stroke="midnightblue" points="395.5,-264.75 392,-254.75 388.5,-264.75 395.5,-264.75"/>
</g>
<!-- Node4 -->
<g id="node4" class="node">
<title>Node4</title>
<g id="a_node4"><a xlink:href="ExogenousProcess_8h.html" target="_top" xlink:title=" ">
<polygon fill="white" stroke="black" points="410.5,-112.5 410.5,-131.5 577.5,-131.5 577.5,-112.5 410.5,-112.5"/>
<text text-anchor="middle" x="494" y="-119.5" font-family="Helvetica,sans-Serif" font-size="10.00">BayesFilters/ExogenousProcess.h</text>
</a>
</g>
</g>
<!-- Node3&#45;&gt;Node4 -->
<g id="edge3" class="edge">
<title>Node3&#45;&gt;Node4</title>
<path fill="none" stroke="midnightblue" d="M529.98,-173.98C523.74,-165.14 513.83,-151.09 505.98,-139.98"/>
<polygon fill="midnightblue" stroke="midnightblue" points="508.63,-137.66 500.01,-131.51 502.91,-141.7 508.63,-137.66"/>
</g>
<!-- Node3&#45;&gt;Node6 -->
<g id="edge5" class="edge">
<title>Node3&#45;&gt;Node6</title>
<path fill="none" stroke="midnightblue" d="M553.48,-173.98C573.86,-164.03 607.78,-147.49 631.42,-135.96"/>
<polygon fill="midnightblue" stroke="midnightblue" points="633.1,-139.04 640.55,-131.51 630.03,-132.75 633.1,-139.04"/>
</g>
<!-- Node4&#45;&gt;Node5 -->
<g id="edge4" class="edge">
<title>Node4&#45;&gt;Node5</title>
<path fill="none" stroke="midnightblue" d="M450.9,-112.44C401.29,-102.59 320.09,-86.47 268.92,-76.31"/>
<polygon fill="midnightblue" stroke="midnightblue" points="269.28,-72.82 258.79,-74.3 267.92,-79.68 269.28,-72.82"/>
</g>
<!-- Node7 -->
<g id="node7" class="node">
<title>Node7</title>
<g id="a_node7"><a xlink:href="Skipper_8h.html" target="_top" xlink:title=" ">
<polygon fill="white" stroke="black" points="600.5,-56.5 600.5,-75.5 715.5,-75.5 715.5,-56.5 600.5,-56.5"/>
<text text-anchor="middle" x="658" y="-63.5" font-family="Helvetica,sans-Serif" font-size="10.00">BayesFilters/Skipper.h</text>
</a>
</g>
</g>
<!-- Node6&#45;&gt;Node7 -->
<g id="edge6" class="edge">
<title>Node6&#45;&gt;Node7</title>
<path fill="none" stroke="midnightblue" d="M658,-112.08C658,-105.01 658,-94.86 658,-85.99"/>
<polygon fill="midnightblue" stroke="midnightblue" points="661.5,-85.75 658,-75.75 654.5,-85.75 661.5,-85.75"/>
</g>
<!-- Node8 -->
<g id="node8" class="node">
<title>Node8</title>
<g id="a_node8"><a xlink:title=" ">
<polygon fill="white" stroke="#bfbfbf" points="637.5,-0.5 637.5,-19.5 678.5,-19.5 678.5,-0.5 637.5,-0.5"/>
<text text-anchor="middle" x="658" y="-7.5" font-family="Helvetica,sans-Serif" font-size="10.00">string</text>
</a>
</g>
</g>
<!-- Node7&#45;&gt;Node8 -->
<g id="edge7" class="edge">
<title>Node7&#45;&gt;Node8</title>
<path fill="none" stroke="midnightblue" d="M658,-56.08C658,-49.01 658,-38.86 658,-29.99"/>
<polygon fill="midnightblue" stroke="midnightblue" points="661.5,-29.75 658,-19.75 654.5,-29.75 661.5,-29.75"/>
</g>
<!-- Node9&#45;&gt;Node5 -->
<g id="edge12" class="edge">
<title>Node9&#45;&gt;Node5</title>
<path fill="none" stroke="midnightblue" d="M132.64,-168.38C141.67,-158.27 154.11,-144.32 165,-132 179.51,-115.58 196.02,-96.74 207.51,-83.59"/>
<polygon fill="midnightblue" stroke="midnightblue" points="210.33,-85.68 214.28,-75.85 205.06,-81.08 210.33,-85.68"/>
</g>
<!-- Node10 -->
<g id="node10" class="node">
<title>Node10</title>
<g id="a_node10"><a xlink:href="GaussianMixture_8h.html" target="_top" xlink:title=" ">
<polygon fill="white" stroke="black" points="0,-112.5 0,-131.5 156,-131.5 156,-112.5 0,-112.5"/>
<text text-anchor="middle" x="78" y="-119.5" font-family="Helvetica,sans-Serif" font-size="10.00">BayesFilters/GaussianMixture.h</text>
</a>
</g>
</g>
<!-- Node9&#45;&gt;Node10 -->
<g id="edge9" class="edge">
<title>Node9&#45;&gt;Node10</title>
<path fill="none" stroke="midnightblue" d="M110.05,-168.4C104.01,-159.84 96.26,-148.87 89.9,-139.86"/>
<polygon fill="midnightblue" stroke="midnightblue" points="92.74,-137.81 84.11,-131.66 87.02,-141.85 92.74,-137.81"/>
</g>
<!-- Node10&#45;&gt;Node5 -->
<g id="edge11" class="edge">
<title>Node10&#45;&gt;Node5</title>
<path fill="none" stroke="midnightblue" d="M100.82,-112.44C124.83,-103.44 162.83,-89.19 189.87,-79.05"/>
<polygon fill="midnightblue" stroke="midnightblue" points="191.16,-82.3 199.29,-75.52 188.7,-75.75 191.16,-82.3"/>
</g>
<!-- Node11 -->
<g id="node11" class="node">
<title>Node11</title>
<g id="a_node11"><a xlink:title=" ">
<polygon fill="white" stroke="#bfbfbf" points="56,-56.5 56,-75.5 100,-75.5 100,-56.5 56,-56.5"/>
<text text-anchor="middle" x="78" y="-63.5" font-family="Helvetica,sans-Serif" font-size="10.00">vector</text>
</a>
</g>
</g>
<!-- Node10&#45;&gt;Node11 -->
<g id="edge10" class="edge">
<title>Node10&#45;&gt;Node11</title>
<path fill="none" stroke="midnightblue" d="M78,-112.08C78,-105.01 78,-94.86 78,-85.99"/>
<polygon fill="midnightblue" stroke="midnightblue" points="81.5,-85.75 78,-75.75 74.5,-85.75 81.5,-85.75"/>
</g>
<!-- Node12&#45;&gt;Node3 -->
<g id="edge15" class="edge">
<title>Node12&#45;&gt;Node3</title>
<path fill="none" stroke="midnightblue" d="M412.63,-235.48C437.12,-225.36 478.15,-208.4 506.11,-196.85"/>
<polygon fill="midnightblue" stroke="midnightblue" points="507.5,-200.06 515.41,-193.01 504.83,-193.59 507.5,-200.06"/>
</g>
<!-- Node12&#45;&gt;Node6 -->
<g id="edge16" class="edge">
<title>Node12&#45;&gt;Node6</title>
<path fill="none" stroke="midnightblue" d="M395.79,-235.33C403.28,-219.29 421.57,-185.07 448,-168 470.5,-153.47 533.89,-141.07 585.18,-133"/>
<polygon fill="midnightblue" stroke="midnightblue" points="585.92,-136.42 595.27,-131.44 584.85,-129.51 585.92,-136.42"/>
</g>
<!-- Node13 -->
<g id="node13" class="node">
<title>Node13</title>
<g id="a_node13"><a xlink:href="StateProcess_8h.html" target="_top" xlink:title=" ">
<polygon fill="white" stroke="black" points="250,-112.5 250,-131.5 392,-131.5 392,-112.5 250,-112.5"/>
<text text-anchor="middle" x="321" y="-119.5" font-family="Helvetica,sans-Serif" font-size="10.00">BayesFilters/StateProcess.h</text>
</a>
</g>
</g>
<!-- Node12&#45;&gt;Node13 -->
<g id="edge17" class="edge">
<title>Node12&#45;&gt;Node13</title>
<path fill="none" stroke="midnightblue" d="M377.93,-235.41C366.05,-227.42 349.5,-214.46 340,-199 329.22,-181.47 324.55,-158.12 322.53,-141.95"/>
<polygon fill="midnightblue" stroke="midnightblue" points="325.97,-141.22 321.48,-131.63 319.01,-141.93 325.97,-141.22"/>
</g>
<!-- Node14 -->
<g id="node14" class="node">
<title>Node14</title>
<g id="a_node14"><a xlink:title=" ">
<polygon fill="white" stroke="#bfbfbf" points="349,-174 349,-193 401,-193 401,-174 349,-174"/>
<text text-anchor="middle" x="375" y="-181" font-family="Helvetica,sans-Serif" font-size="10.00">memory</text>
</a>
</g>
</g>
<!-- Node12&#45;&gt;Node14 -->
<g id="edge19" class="edge">
<title>Node12&#45;&gt;Node14</title>
<path fill="none" stroke="midnightblue" d="M389.56,-235.48C387.14,-226.99 383.34,-213.7 380.23,-202.82"/>
<polygon fill="midnightblue" stroke="midnightblue" points="383.54,-201.66 377.43,-193.01 376.81,-203.59 383.54,-201.66"/>
</g>
<!-- Node13&#45;&gt;Node5 -->
<g id="edge18" class="edge">
<title>Node13&#45;&gt;Node5</title>
<path fill="none" stroke="midnightblue" d="M305.09,-112.32C289.36,-103.74 265.06,-90.49 246.79,-80.52"/>
<polygon fill="midnightblue" stroke="midnightblue" points="248.32,-77.37 237.87,-75.65 244.97,-83.52 248.32,-77.37"/>
</g>
</g>
</svg>
        <g id="navigator" transform="translate(0 0)" fill="#404254">
                <rect fill="#f2f5e9" fill-opacity="0.5" stroke="#606060" stroke-width=".5" x="0" y="0" width="60" height="60"/>
                <use id="zoomplus" xlink:href="#zoomPlus" x="17" y="9" onmousedown="handleZoom(evt,'in')"/>
                <use id="zoomminus" xlink:href="#zoomMin" x="42" y="9" onmousedown="handleZoom(evt,'out')"/>
                <use id="reset" xlink:href="#resetDef" x="30" y="36" onmousedown="handleReset()"/>
                <g id="arrowUp" xlink:href="#dirArrow" transform="translate(30 24)" onmousedown="handlePan(0,-1)">
                  <use xlink:href="#rim" fill="#404040">
                        <set attributeName="fill" to="#808080" begin="arrowUp.mouseover" end="arrowUp.mouseout"/>
                  </use>
                  <path fill="none" stroke="white" stroke-width="1.5" d="M0,-3.0v7 M-2.5,-0.5L0,-3.0L2.5,-0.5"/>
                </g>
                <g id="arrowRight" xlink:href="#dirArrow" transform="rotate(90) translate(36 -43)" onmousedown="handlePan(1,0)">
                  <use xlink:href="#rim" fill="#404040">
                        <set attributeName="fill" to="#808080" begin="arrowRight.mouseover" end="arrowRight.mouseout"/>
                  </use>
                  <path fill="none" stroke="white" stroke-width="1.5" d="M0,-3.0v7 M-2.5,-0.5L0,-3.0L2.5,-0.5"/>
                </g>
                <g id="arrowDown" xlink:href="#dirArrow" transform="rotate(180) translate(-30 -48)" onmousedown="handlePan(0,1)">
                  <use xlink:href="#rim" fill="#404040">
                        <set attributeName="fill" to="#808080" begin="arrowDown.mouseover" end="arrowDown.mouseout"/>
                  </use>
                  <path fill="none" stroke="white" stroke-width="1.5" d="M0,-3.0v7 M-2.5,-0.5L0,-3.0L2.5,-0.5"/>
                </g>
                <g id="arrowLeft" xlink:href="#dirArrow" transform="rotate(270) translate(-36 17)" onmousedown="handlePan(-1,0)">
                  <use xlink:href="#rim" fill="#404040">
                        <set attributeName="fill" to="#808080" begin="arrowLeft.mouseover" end="arrowLeft.mouseout"/>
                  </use>
                  <path fill="none" stroke="white" stroke-width="1.5" d="M0,-3.0v7 M-2.5,-0.5L0,-3.0L2.5,-0.5"/>
                </g>
        </g>
        <svg viewBox="0 0 15 15" width="100%" height="30px" preserveAspectRatio="xMaxYMin meet">
         <g id="arrow_out" transform="scale(0.3 0.3)">
          <a xlink:href="GaussianPrediction_8cpp__incl_org.svg" target="_base">
           <rect id="button" ry="5" rx="5" y="6" x="6" height="38" width="38"
                fill="#f2f5e9" fill-opacity="0.5" stroke="#606060" stroke-width="1.0"/>
           <path id="arrow"
             d="M 11.500037,31.436501 C 11.940474,20.09759 22.043105,11.32322 32.158766,21.979434 L 37.068811,17.246167 C 37.068811,17.246167 37.088388,32 37.088388,32 L 22.160133,31.978069 C 22.160133,31.978069 26.997745,27.140456 26.997745,27.140456 C 18.528582,18.264221 13.291696,25.230495 11.500037,31.436501 z"
             style="fill:#404040;"/>
          </a>
         </g>
        </svg>
</svg>
