<?xml version="1.0" encoding="UTF-8" standalone="no"?>
<!DOCTYPE svg PUBLIC "-//W3C//DTD SVG 1.1//EN"
 "http://www.w3.org/Graphics/SVG/1.1/DTD/svg11.dtd">
<!-- Generated by graphviz version 2.43.0 (0)
 -->
<!-- Title: /home/user/bayes&#45;filters&#45;lib/src/BayesFilters/include/BayesFilters/GaussianFilter.h Pages: 1 -->
<!--zoomable 464 -->
<svg id="main" version="1.1" xmlns="http://www.w3.org/2000/svg" xmlns:xlink="http://www.w3.org/1999/xlink" xml:space="preserve" onload="init(evt)">
<style type="text/css"><![CDATA[
.edge:hover path { stroke: red; }
.edge:hover polygon { stroke: red; fill: red; }
]]></style>
<script type="text/javascript"><![CDATA[
var edges = document.getElementsByTagName('g');
if (edges && edges.length) {
  for (var i=0;i<edges.length;i++) {
    if (edges[i].id.substr(0,4)=='edge') {
      edges[i].setAttribute('class','edge');
    }
  }
}
]]></script>
        <defs>
                <circle id="rim" cx="0" cy="0" r="7"/>
                <circle id="rim2" cx="0" cy="0" r="3.5"/>
                <g id="zoomPlus">
                        <use xlink:href="#rim" fill="#404040">
                                <set attributeName="fill" to="#808080" begin="zoomplus.mouseover" end="zoomplus.mouseout"/>
                        </use>
                        <path d="M-4,0h8M0,-4v8" fill="none" stroke="white" stroke-width="1.5" pointer-events="none"/>
                </g>
                <g id="zoomMin">
                        <use xlink:href="#rim" fill="#404040">
                                <set attributeName="fill" to="#808080" begin="zoomminus.mouseover" end="zoomminus.mouseout"/>
                        </use>
                        <path d="M-4,0h8" fill="none" stroke="white" stroke-width="1.5" pointer-events="none"/>
                </g>
                <g id="dirArrow">
                        <path fill="none" stroke="white" stroke-width="1.5" d="M0,-3.0v7 M-2.5,-0.5L0,-3.0L2.5,-0.5"/>
                </g>
               <g id="resetDef">
                       <use xlink:href="#rim2" fill="#404040">
                               <set attributeName="fill" to="#808080" begin="reset.mouseover" end="reset.mouseout"/>
                       </use>
               </g>
        </defs>

<script type="text/javascript">
var viewWidth = 1811;
var viewHeight = 464;
var sectionId = 'dynsection-0';
</script>
<script xlink:href="svgpan.js"/>
<svg id="graph" class="graph">
<g id="viewport">
<title>/home/user/bayes&#45;filters&#45;lib/src/BayesFilters/include/BayesFilters/GaussianFilter.h</title>
<polygon fill="white" stroke="transparent" points="-4,4 -4,-460 1806.5,-460 1806.5,4 -4,4"/>
<!-- Node1 -->
<g id="node1" class="node">
<title>Node1</title>
<g id="a_node1"><a xlink:title=" ">
<polygon fill="#bfbfbf" stroke="black" points="1019,-414.5 1019,-455.5 1180,-455.5 1180,-414.5 1019,-414.5"/>
<text text-anchor="start" x="1027" y="-443.5" font-family="Helvetica,sans-Serif" font-size="10.00">/home/user/bayes&#45;filters</text>
<text text-anchor="start" x="1027" y="-432.5" font-family="Helvetica,sans-Serif" font-size="10.00">&#45;lib/src/BayesFilters/include</text>
<text text-anchor="middle" x="1099.5" y="-421.5" font-family="Helvetica,sans-Serif" font-size="10.00">/BayesFilters/GaussianFilter.h</text>
</a>
</g>
</g>
<!-- Node2 -->
<g id="node2" class="node">
<title>Node2</title>
<g id="a_node2"><a xlink:href="FilteringAlgorithm_8h.html" target="_top" xlink:title=" ">
<polygon fill="white" stroke="black" points="337.5,-174 337.5,-193 513.5,-193 513.5,-174 337.5,-174"/>
<text text-anchor="middle" x="425.5" y="-181" font-family="Helvetica,sans-Serif" font-size="10.00">BayesFilters/FilteringAlgorithm.h</text>
</a>
</g>
</g>
<!-- Node1&#45;&gt;Node2 -->
<g id="edge1" class="edge">
<title>Node1&#45;&gt;Node2</title>
<path fill="none" stroke="midnightblue" d="M1043.11,-414.46C1012.66,-403.83 974.46,-390.36 940.5,-378 756.95,-311.2 538.01,-227.64 457.35,-196.73"/>
<polygon fill="midnightblue" stroke="midnightblue" points="458.37,-193.37 447.78,-193.06 455.86,-199.91 458.37,-193.37"/>
</g>
<!-- Node14 -->
<g id="node14" class="node">
<title>Node14</title>
<g id="a_node14"><a xlink:href="Gaussian_8h.html" target="_top" xlink:title=" ">
<polygon fill="white" stroke="black" points="1668.5,-241 1668.5,-260 1802.5,-260 1802.5,-241 1668.5,-241"/>
<text text-anchor="middle" x="1735.5" y="-248" font-family="Helvetica,sans-Serif" font-size="10.00">BayesFilters/Gaussian.h</text>
</a>
</g>
</g>
<!-- Node1&#45;&gt;Node14 -->
<g id="edge15" class="edge">
<title>Node1&#45;&gt;Node14</title>
<path fill="none" stroke="midnightblue" d="M1167.56,-414.47C1300.43,-376.34 1590.55,-293.09 1696.1,-262.8"/>
<polygon fill="midnightblue" stroke="midnightblue" points="1697.08,-266.16 1705.73,-260.04 1695.15,-259.44 1697.08,-266.16"/>
</g>
<!-- Node19 -->
<g id="node19" class="node">
<title>Node19</title>
<g id="a_node19"><a xlink:href="GaussianPrediction_8h.html" target="_top" xlink:title=" ">
<polygon fill="white" stroke="black" points="949.5,-358.5 949.5,-377.5 1131.5,-377.5 1131.5,-358.5 949.5,-358.5"/>
<text text-anchor="middle" x="1040.5" y="-365.5" font-family="Helvetica,sans-Serif" font-size="10.00">BayesFilters/GaussianPrediction.h</text>
</a>
</g>
</g>
<!-- Node1&#45;&gt;Node19 -->
<g id="edge21" class="edge">
<title>Node1&#45;&gt;Node19</title>
<path fill="none" stroke="midnightblue" d="M1081.8,-414.5C1073.27,-405.11 1063.18,-393.98 1055.1,-385.08"/>
<polygon fill="midnightblue" stroke="midnightblue" points="1057.67,-382.7 1048.35,-377.65 1052.48,-387.41 1057.67,-382.7"/>
</g>
<!-- Node28 -->
<g id="node28" class="node">
<title>Node28</title>
<g id="a_node28"><a xlink:href="GaussianCorrection_8h.html" target="_top" xlink:title=" ">
<polygon fill="white" stroke="black" points="1144.5,-241 1144.5,-260 1328.5,-260 1328.5,-241 1144.5,-241"/>
<text text-anchor="middle" x="1236.5" y="-248" font-family="Helvetica,sans-Serif" font-size="10.00">BayesFilters/GaussianCorrection.h</text>
</a>
</g>
</g>
<!-- Node1&#45;&gt;Node28 -->
<g id="edge41" class="edge">
<title>Node1&#45;&gt;Node28</title>
<path fill="none" stroke="midnightblue" d="M1114.16,-414.47C1141.17,-378.5 1198.33,-302.35 1223.8,-268.42"/>
<polygon fill="midnightblue" stroke="midnightblue" points="1226.88,-270.14 1230.09,-260.04 1221.28,-265.94 1226.88,-270.14"/>
</g>
<!-- Node3 -->
<g id="node3" class="node">
<title>Node3</title>
<g id="a_node3"><a xlink:href="Filter_8h.html" target="_top" xlink:title=" ">
<polygon fill="white" stroke="black" points="369,-112.5 369,-131.5 482,-131.5 482,-112.5 369,-112.5"/>
<text text-anchor="middle" x="425.5" y="-119.5" font-family="Helvetica,sans-Serif" font-size="10.00">BayesFilters/Filter.h</text>
</a>
</g>
</g>
<!-- Node2&#45;&gt;Node3 -->
<g id="edge2" class="edge">
<title>Node2&#45;&gt;Node3</title>
<path fill="none" stroke="midnightblue" d="M425.5,-173.98C425.5,-165.58 425.5,-152.48 425.5,-141.66"/>
<polygon fill="midnightblue" stroke="midnightblue" points="429,-141.51 425.5,-131.51 422,-141.51 429,-141.51"/>
</g>
<!-- Node4 -->
<g id="node4" class="node">
<title>Node4</title>
<g id="a_node4"><a xlink:href="Logger_8h.html" target="_top" xlink:title=" ">
<polygon fill="white" stroke="black" points="500,-112.5 500,-131.5 621,-131.5 621,-112.5 500,-112.5"/>
<text text-anchor="middle" x="560.5" y="-119.5" font-family="Helvetica,sans-Serif" font-size="10.00">BayesFilters/Logger.h</text>
</a>
</g>
</g>
<!-- Node2&#45;&gt;Node4 -->
<g id="edge3" class="edge">
<title>Node2&#45;&gt;Node4</title>
<path fill="none" stroke="midnightblue" d="M444.84,-173.98C467.6,-163.95 505.59,-147.2 531.79,-135.65"/>
<polygon fill="midnightblue" stroke="midnightblue" points="533.45,-138.74 541.19,-131.51 530.63,-132.34 533.45,-138.74"/>
</g>
<!-- Node7 -->
<g id="node7" class="node">
<title>Node7</title>
<g id="a_node7"><a xlink:title=" ">
<polygon fill="white" stroke="#bfbfbf" points="700.5,-56.5 700.5,-75.5 744.5,-75.5 744.5,-56.5 700.5,-56.5"/>
<text text-anchor="middle" x="722.5" y="-63.5" font-family="Helvetica,sans-Serif" font-size="10.00">string</text>
</a>
</g>
</g>
<!-- Node2&#45;&gt;Node7 -->
<g id="edge12" class="edge">
<title>Node2&#45;&gt;Node7</title>
<path fill="none" stroke="midnightblue" d="M483.66,-173.96C525.53,-166.43 582.66,-153.27 629.5,-132 658.17,-118.98 687.29,-96.88 705.13,-82.11"/>
<polygon fill="midnightblue" stroke="midnightblue" points="707.55,-84.65 712.93,-75.52 703.03,-79.3 707.55,-84.65"/>
</g>
<!-- Node9 -->
<g id="node9" class="node">
<title>Node9</title>
<g id="a_node9"><a xlink:href="Skipper_8h.html" target="_top" xlink:title=" ">
<polygon fill="white" stroke="black" points="678,-112.5 678,-131.5 803,-131.5 803,-112.5 678,-112.5"/>
<text text-anchor="middle" x="740.5" y="-119.5" font-family="Helvetica,sans-Serif" font-size="10.00">BayesFilters/Skipper.h</text>
</a>
</g>
</g>
<!-- Node2&#45;&gt;Node9 -->
<g id="edge8" class="edge">
<title>Node2&#45;&gt;Node9</title>
<path fill="none" stroke="midnightblue" d="M470.63,-173.98C527.36,-163.26 624.65,-144.88 685.62,-133.37"/>
<polygon fill="midnightblue" stroke="midnightblue" points="686.28,-136.8 695.45,-131.51 684.98,-129.93 686.28,-136.8"/>
</g>
<!-- Node10 -->
<g id="node10" class="node">
<title>Node10</title>
<g id="a_node10"><a xlink:title=" ">
<polygon fill="white" stroke="#bfbfbf" points="0,-112.5 0,-131.5 107,-131.5 107,-112.5 0,-112.5"/>
<text text-anchor="middle" x="53.5" y="-119.5" font-family="Helvetica,sans-Serif" font-size="10.00">condition_variable</text>
</a>
</g>
</g>
<!-- Node2&#45;&gt;Node10 -->
<g id="edge10" class="edge">
<title>Node2&#45;&gt;Node10</title>
<path fill="none" stroke="midnightblue" d="M372.2,-173.98C304.8,-163.19 188.89,-144.65 116.98,-133.15"/>
<polygon fill="midnightblue" stroke="midnightblue" points="117.13,-129.63 106.7,-131.51 116.02,-136.54 117.13,-129.63"/>
</g>
<!-- Node11 -->
<g id="node11" class="node">
<title>Node11</title>
<g id="a_node11"><a xlink:title=" ">
<polygon fill="white" stroke="#bfbfbf" points="125.5,-112.5 125.5,-131.5 173.5,-131.5 173.5,-112.5 125.5,-112.5"/>
<text text-anchor="middle" x="149.5" y="-119.5" font-family="Helvetica,sans-Serif" font-size="10.00">mutex</text>
</a>
</g>
</g>
<!-- Node2&#45;&gt;Node11 -->
<g id="edge11" class="edge">
<title>Node2&#45;&gt;Node11</title>
<path fill="none" stroke="midnightblue" d="M380.08,-173.93C333.23,-164.89 257.83,-149.81 183.6,-132.15"/>
<polygon fill="midnightblue" stroke="midnightblue" points="184.15,-128.68 173.61,-129.76 182.52,-135.49 184.15,-128.68"/>
</g>
<!-- Node12 -->
<g id="node12" class="node">
<title>Node12</title>
<g id="a_node12"><a xlink:title=" ">
<polygon fill="white" stroke="#bfbfbf" points="191.5,-112.5 191.5,-131.5 239.5,-131.5 239.5,-112.5 191.5,-112.5"/>
<text text-anchor="middle" x="215.5" y="-119.5" font-family="Helvetica,sans-Serif" font-size="10.00">thread</text>
</a>
</g>
</g>
<!-- Node2&#45;&gt;Node12 -->
<g id="edge13" class="edge">
<title>Node2&#45;&gt;Node12</title>
<path fill="none" stroke="midnightblue" d="M395.41,-173.98C356.73,-163.01 289.74,-144.03 249.33,-132.58"/>
<polygon fill="midnightblue" stroke="midnightblue" points="250.23,-129.2 239.66,-129.84 248.32,-135.94 250.23,-129.2"/>
</g>
<!-- Node13 -->
<g id="node13" class="node">
<title>Node13</title>
<g id="a_node13"><a xlink:title=" ">
<polygon fill="white" stroke="#bfbfbf" points="258,-112.5 258,-131.5 351,-131.5 351,-112.5 258,-112.5"/>
<text text-anchor="middle" x="304.5" y="-119.5" font-family="Helvetica,sans-Serif" font-size="10.00">unordered_map</text>
</a>
</g>
</g>
<!-- Node2&#45;&gt;Node13 -->
<g id="edge14" class="edge">
<title>Node2&#45;&gt;Node13</title>
<path fill="none" stroke="midnightblue" d="M408.16,-173.98C387.95,-164.03 354.31,-147.49 330.86,-135.96"/>
<polygon fill="midnightblue" stroke="midnightblue" points="332.32,-132.78 321.8,-131.51 329.23,-139.06 332.32,-132.78"/>
</g>
<!-- Node5 -->
<g id="node5" class="node">
<title>Node5</title>
<g id="a_node5"><a xlink:title=" ">
<polygon fill="white" stroke="#bfbfbf" points="571,-56.5 571,-75.5 626,-75.5 626,-56.5 571,-56.5"/>
<text text-anchor="middle" x="598.5" y="-63.5" font-family="Helvetica,sans-Serif" font-size="10.00">fstream</text>
</a>
</g>
</g>
<!-- Node4&#45;&gt;Node5 -->
<g id="edge4" class="edge">
<title>Node4&#45;&gt;Node5</title>
<path fill="none" stroke="midnightblue" d="M566.77,-112.08C572.14,-104.46 580.02,-93.26 586.58,-83.94"/>
<polygon fill="midnightblue" stroke="midnightblue" points="589.45,-85.94 592.34,-75.75 583.72,-81.91 589.45,-85.94"/>
</g>
<!-- Node6 -->
<g id="node6" class="node">
<title>Node6</title>
<g id="a_node6"><a xlink:title=" ">
<polygon fill="white" stroke="#bfbfbf" points="492.5,-56.5 492.5,-75.5 552.5,-75.5 552.5,-56.5 492.5,-56.5"/>
<text text-anchor="middle" x="522.5" y="-63.5" font-family="Helvetica,sans-Serif" font-size="10.00">iostream</text>
</a>
</g>
</g>
<!-- Node4&#45;&gt;Node6 -->
<g id="edge5" class="edge">
<title>Node4&#45;&gt;Node6</title>
<path fill="none" stroke="midnightblue" d="M554.23,-112.08C548.86,-104.46 540.98,-93.26 534.42,-83.94"/>
<polygon fill="midnightblue" stroke="midnightblue" points="537.28,-81.91 528.66,-75.75 531.55,-85.94 537.28,-81.91"/>
</g>
<!-- Node4&#45;&gt;Node7 -->
<g id="edge6" class="edge">
<title>Node4&#45;&gt;Node7</title>
<path fill="none" stroke="midnightblue" d="M586.17,-112.44C614.46,-103.01 660.02,-87.83 690.59,-77.64"/>
<polygon fill="midnightblue" stroke="midnightblue" points="691.95,-80.87 700.33,-74.39 689.74,-74.23 691.95,-80.87"/>
</g>
<!-- Node8 -->
<g id="node8" class="node">
<title>Node8</title>
<g id="a_node8"><a xlink:title=" ">
<polygon fill="white" stroke="#bfbfbf" points="1133,-56.5 1133,-75.5 1180,-75.5 1180,-56.5 1133,-56.5"/>
<text text-anchor="middle" x="1156.5" y="-63.5" font-family="Helvetica,sans-Serif" font-size="10.00">vector</text>
</a>
</g>
</g>
<!-- Node4&#45;&gt;Node8 -->
<g id="edge7" class="edge">
<title>Node4&#45;&gt;Node8</title>
<path fill="none" stroke="midnightblue" d="M621.2,-115.5C745.58,-104.23 1025.82,-78.84 1122.75,-70.06"/>
<polygon fill="midnightblue" stroke="midnightblue" points="1123.22,-73.53 1132.86,-69.14 1122.59,-66.56 1123.22,-73.53"/>
</g>
<!-- Node9&#45;&gt;Node7 -->
<g id="edge9" class="edge">
<title>Node9&#45;&gt;Node7</title>
<path fill="none" stroke="midnightblue" d="M737.53,-112.08C735.12,-104.85 731.64,-94.41 728.63,-85.4"/>
<polygon fill="midnightblue" stroke="midnightblue" points="731.9,-84.13 725.42,-75.75 725.26,-86.34 731.9,-84.13"/>
</g>
<!-- Node15 -->
<g id="node15" class="node">
<title>Node15</title>
<g id="a_node15"><a xlink:href="GaussianMixture_8h.html" target="_top" xlink:title=" ">
<polygon fill="white" stroke="black" points="1271,-174 1271,-193 1442,-193 1442,-174 1271,-174"/>
<text text-anchor="middle" x="1356.5" y="-181" font-family="Helvetica,sans-Serif" font-size="10.00">BayesFilters/GaussianMixture.h</text>
</a>
</g>
</g>
<!-- Node14&#45;&gt;Node15 -->
<g id="edge16" class="edge">
<title>Node14&#45;&gt;Node15</title>
<path fill="none" stroke="midnightblue" d="M1685.56,-240.94C1616.16,-229.03 1490.73,-207.52 1416.39,-194.77"/>
<polygon fill="midnightblue" stroke="midnightblue" points="1416.69,-191.27 1406.25,-193.03 1415.51,-198.17 1416.69,-191.27"/>
</g>
<!-- Node17 -->
<g id="node17" class="node">
<title>Node17</title>
<g id="a_node17"><a xlink:title=" ">
<polygon fill="white" stroke="#bfbfbf" points="1314.5,-0.5 1314.5,-19.5 1372.5,-19.5 1372.5,-0.5 1314.5,-0.5"/>
<text text-anchor="middle" x="1343.5" y="-7.5" font-family="Helvetica,sans-Serif" font-size="10.00">memory</text>
</a>
</g>
</g>
<!-- Node14&#45;&gt;Node17 -->
<g id="edge19" class="edge">
<title>Node14&#45;&gt;Node17</title>
<path fill="none" stroke="midnightblue" d="M1727.7,-240.79C1719.43,-231.17 1706.5,-214.93 1698.5,-199 1668.66,-139.58 1705.01,-99.24 1654.5,-56 1614.41,-21.68 1457.27,-13.53 1382.91,-11.6"/>
<polygon fill="midnightblue" stroke="midnightblue" points="1382.64,-8.09 1372.56,-11.36 1382.48,-15.09 1382.64,-8.09"/>
</g>
<!-- Node18 -->
<g id="node18" class="node">
<title>Node18</title>
<g id="a_node18"><a xlink:title=" ">
<polygon fill="white" stroke="#bfbfbf" points="1707,-174 1707,-193 1776,-193 1776,-174 1707,-174"/>
<text text-anchor="middle" x="1741.5" y="-181" font-family="Helvetica,sans-Serif" font-size="10.00">Eigen/Core</text>
</a>
</g>
</g>
<!-- Node14&#45;&gt;Node18 -->
<g id="edge20" class="edge">
<title>Node14&#45;&gt;Node18</title>
<path fill="none" stroke="midnightblue" d="M1736.31,-240.73C1737.19,-231.18 1738.63,-215.62 1739.77,-203.28"/>
<polygon fill="midnightblue" stroke="midnightblue" points="1743.27,-203.41 1740.7,-193.13 1736.3,-202.76 1743.27,-203.41"/>
</g>
<!-- Node15&#45;&gt;Node8 -->
<g id="edge17" class="edge">
<title>Node15&#45;&gt;Node8</title>
<path fill="none" stroke="midnightblue" d="M1317.97,-173.93C1288.49,-166.16 1247.72,-152.71 1216.5,-132 1197,-119.06 1179.46,-98.5 1168.45,-83.97"/>
<polygon fill="midnightblue" stroke="midnightblue" points="1171.22,-81.82 1162.48,-75.83 1165.57,-85.96 1171.22,-81.82"/>
</g>
<!-- Node16 -->
<g id="node16" class="node">
<title>Node16</title>
<g id="a_node16"><a xlink:title=" ">
<polygon fill="white" stroke="#bfbfbf" points="1092,-112.5 1092,-131.5 1169,-131.5 1169,-112.5 1092,-112.5"/>
<text text-anchor="middle" x="1130.5" y="-119.5" font-family="Helvetica,sans-Serif" font-size="10.00">Eigen/Dense</text>
</a>
</g>
</g>
<!-- Node15&#45;&gt;Node16 -->
<g id="edge18" class="edge">
<title>Node15&#45;&gt;Node16</title>
<path fill="none" stroke="midnightblue" d="M1324.12,-173.98C1284.26,-163.48 1216.48,-145.64 1172.61,-134.09"/>
<polygon fill="midnightblue" stroke="midnightblue" points="1173.38,-130.67 1162.82,-131.51 1171.6,-137.44 1173.38,-130.67"/>
</g>
<!-- Node19&#45;&gt;Node16 -->
<g id="edge40" class="edge">
<title>Node19&#45;&gt;Node16</title>
<path fill="none" stroke="midnightblue" d="M1025.97,-358.49C993.96,-338.57 921.98,-286.65 945.5,-235 970.87,-179.29 1038.96,-149.11 1085.07,-134.54"/>
<polygon fill="midnightblue" stroke="midnightblue" points="1086.28,-137.83 1094.84,-131.58 1084.25,-131.13 1086.28,-137.83"/>
</g>
<!-- Node20 -->
<g id="node20" class="node">
<title>Node20</title>
<g id="a_node20"><a xlink:href="ExogenousModel_8h.html" target="_top" xlink:title=" ">
<polygon fill="white" stroke="black" points="955,-241 955,-260 1126,-260 1126,-241 955,-241"/>
<text text-anchor="middle" x="1040.5" y="-248" font-family="Helvetica,sans-Serif" font-size="10.00">BayesFilters/ExogenousModel.h</text>
</a>
</g>
</g>
<!-- Node19&#45;&gt;Node20 -->
<g id="edge22" class="edge">
<title>Node19&#45;&gt;Node20</title>
<path fill="none" stroke="midnightblue" d="M1040.5,-358.32C1040.5,-339.76 1040.5,-295.84 1040.5,-270.47"/>
<polygon fill="midnightblue" stroke="midnightblue" points="1044,-270.28 1040.5,-260.28 1037,-270.28 1044,-270.28"/>
</g>
<!-- Node24 -->
<g id="node24" class="node">
<title>Node24</title>
<g id="a_node24"><a xlink:href="Skippable_8h.html" target="_top" xlink:title=" ">
<polygon fill="white" stroke="black" points="639,-174 639,-193 776,-193 776,-174 639,-174"/>
<text text-anchor="middle" x="707.5" y="-181" font-family="Helvetica,sans-Serif" font-size="10.00">BayesFilters/Skippable.h</text>
</a>
</g>
</g>
<!-- Node19&#45;&gt;Node24 -->
<g id="edge32" class="edge">
<title>Node19&#45;&gt;Node24</title>
<path fill="none" stroke="midnightblue" d="M1009.35,-358.46C982.86,-350.64 944.2,-337.88 912.5,-322 839.38,-285.37 761.36,-226.95 726.38,-199.57"/>
<polygon fill="midnightblue" stroke="midnightblue" points="728.46,-196.76 718.44,-193.32 724.13,-202.26 728.46,-196.76"/>
</g>
<!-- Node25 -->
<g id="node25" class="node">
<title>Node25</title>
<g id="a_node25"><a xlink:href="GaussianMixturePrediction_8h.html" target="_top" xlink:title=" ">
<polygon fill="white" stroke="black" points="1346.5,-235.5 1346.5,-265.5 1508.5,-265.5 1508.5,-235.5 1346.5,-235.5"/>
<text text-anchor="start" x="1354.5" y="-253.5" font-family="Helvetica,sans-Serif" font-size="10.00">BayesFilters/GaussianMixture</text>
<text text-anchor="middle" x="1427.5" y="-242.5" font-family="Helvetica,sans-Serif" font-size="10.00">Prediction.h</text>
</a>
</g>
</g>
<!-- Node19&#45;&gt;Node25 -->
<g id="edge29" class="edge">
<title>Node19&#45;&gt;Node25</title>
<path fill="none" stroke="midnightblue" d="M1061.09,-358.49C1093.67,-345.22 1159.3,-319.34 1216.5,-302 1260.2,-288.75 1309.83,-276.73 1349.97,-267.74"/>
<polygon fill="midnightblue" stroke="midnightblue" points="1350.96,-271.1 1359.96,-265.52 1349.44,-264.27 1350.96,-271.1"/>
</g>
<!-- Node26 -->
<g id="node26" class="node">
<title>Node26</title>
<g id="a_node26"><a xlink:href="StateModel_8h.html" target="_top" xlink:title=" ">
<polygon fill="white" stroke="black" points="1225.5,-302.5 1225.5,-321.5 1369.5,-321.5 1369.5,-302.5 1225.5,-302.5"/>
<text text-anchor="middle" x="1297.5" y="-309.5" font-family="Helvetica,sans-Serif" font-size="10.00">BayesFilters/StateModel.h</text>
</a>
</g>
</g>
<!-- Node19&#45;&gt;Node26 -->
<g id="edge33" class="edge">
<title>Node19&#45;&gt;Node26</title>
<path fill="none" stroke="midnightblue" d="M1081.22,-358.44C1126.15,-349 1198.5,-333.8 1247,-323.61"/>
<polygon fill="midnightblue" stroke="midnightblue" points="1247.9,-327 1256.97,-321.52 1246.46,-320.15 1247.9,-327"/>
</g>
<!-- Node21 -->
<g id="node21" class="node">
<title>Node21</title>
<g id="a_node21"><a xlink:href="ExogenousProcess_8h.html" target="_top" xlink:title=" ">
<polygon fill="white" stroke="black" points="1074,-174 1074,-193 1253,-193 1253,-174 1074,-174"/>
<text text-anchor="middle" x="1163.5" y="-181" font-family="Helvetica,sans-Serif" font-size="10.00">BayesFilters/ExogenousProcess.h</text>
</a>
</g>
</g>
<!-- Node20&#45;&gt;Node21 -->
<g id="edge23" class="edge">
<title>Node20&#45;&gt;Node21</title>
<path fill="none" stroke="midnightblue" d="M1056.83,-240.87C1077.6,-229.89 1113.69,-210.82 1138.07,-197.94"/>
<polygon fill="midnightblue" stroke="midnightblue" points="1139.89,-200.93 1147.1,-193.17 1136.62,-194.75 1139.89,-200.93"/>
</g>
<!-- Node20&#45;&gt;Node24 -->
<g id="edge27" class="edge">
<title>Node20&#45;&gt;Node24</title>
<path fill="none" stroke="midnightblue" d="M996.62,-240.94C936.02,-229.11 826.79,-207.78 761.32,-195.01"/>
<polygon fill="midnightblue" stroke="midnightblue" points="761.69,-191.51 751.21,-193.03 760.35,-198.38 761.69,-191.51"/>
</g>
<!-- Node21&#45;&gt;Node16 -->
<g id="edge26" class="edge">
<title>Node21&#45;&gt;Node16</title>
<path fill="none" stroke="midnightblue" d="M1158.77,-173.98C1153.92,-165.23 1146.23,-151.37 1140.1,-140.31"/>
<polygon fill="midnightblue" stroke="midnightblue" points="1143.13,-138.56 1135.22,-131.51 1137.01,-141.95 1143.13,-138.56"/>
</g>
<!-- Node22 -->
<g id="node22" class="node">
<title>Node22</title>
<g id="a_node22"><a xlink:href="VectorDescription_8h.html" target="_top" xlink:title=" ">
<polygon fill="white" stroke="black" points="1226,-112.5 1226,-131.5 1401,-131.5 1401,-112.5 1226,-112.5"/>
<text text-anchor="middle" x="1313.5" y="-119.5" font-family="Helvetica,sans-Serif" font-size="10.00">BayesFilters/VectorDescription.h</text>
</a>
</g>
</g>
<!-- Node21&#45;&gt;Node22 -->
<g id="edge24" class="edge">
<title>Node21&#45;&gt;Node22</title>
<path fill="none" stroke="midnightblue" d="M1184.99,-173.98C1210.61,-163.81 1253.61,-146.76 1282.74,-135.2"/>
<polygon fill="midnightblue" stroke="midnightblue" points="1284.04,-138.45 1292.05,-131.51 1281.46,-131.94 1284.04,-138.45"/>
</g>
<!-- Node23 -->
<g id="node23" class="node">
<title>Node23</title>
<g id="a_node23"><a xlink:title=" ">
<polygon fill="white" stroke="#bfbfbf" points="1287,-56.5 1287,-75.5 1340,-75.5 1340,-56.5 1287,-56.5"/>
<text text-anchor="middle" x="1313.5" y="-63.5" font-family="Helvetica,sans-Serif" font-size="10.00">cstddef</text>
</a>
</g>
</g>
<!-- Node22&#45;&gt;Node23 -->
<g id="edge25" class="edge">
<title>Node22&#45;&gt;Node23</title>
<path fill="none" stroke="midnightblue" d="M1313.5,-112.08C1313.5,-105.01 1313.5,-94.86 1313.5,-85.99"/>
<polygon fill="midnightblue" stroke="midnightblue" points="1317,-85.75 1313.5,-75.75 1310,-85.75 1317,-85.75"/>
</g>
<!-- Node24&#45;&gt;Node9 -->
<g id="edge28" class="edge">
<title>Node24&#45;&gt;Node9</title>
<path fill="none" stroke="midnightblue" d="M712.23,-173.98C717.08,-165.23 724.77,-151.37 730.9,-140.31"/>
<polygon fill="midnightblue" stroke="midnightblue" points="733.99,-141.95 735.78,-131.51 727.87,-138.56 733.99,-141.95"/>
</g>
<!-- Node25&#45;&gt;Node15 -->
<g id="edge30" class="edge">
<title>Node25&#45;&gt;Node15</title>
<path fill="none" stroke="midnightblue" d="M1412.09,-235.4C1400.69,-224.96 1385.17,-210.75 1373.43,-200"/>
<polygon fill="midnightblue" stroke="midnightblue" points="1375.74,-197.37 1366,-193.19 1371.01,-202.53 1375.74,-197.37"/>
</g>
<!-- Node25&#45;&gt;Node16 -->
<g id="edge31" class="edge">
<title>Node25&#45;&gt;Node16</title>
<path fill="none" stroke="midnightblue" d="M1346.08,-236.28C1343.19,-235.84 1340.32,-235.41 1337.5,-235 1276.95,-226.13 1104.84,-245.01 1064.5,-199 1055.42,-188.64 1058.06,-180.18 1064.5,-168 1071.92,-153.95 1085.92,-143.47 1099.12,-136.17"/>
<polygon fill="midnightblue" stroke="midnightblue" points="1100.72,-139.28 1108.04,-131.62 1097.54,-133.04 1100.72,-139.28"/>
</g>
<!-- Node26&#45;&gt;Node17 -->
<g id="edge39" class="edge">
<title>Node26&#45;&gt;Node17</title>
<path fill="none" stroke="midnightblue" d="M1369.6,-306.74C1419,-301.66 1485,-290.5 1538.5,-266 1591.26,-241.84 1640.5,-242.53 1640.5,-184.5 1640.5,-184.5 1640.5,-184.5 1640.5,-121 1640.5,-66.67 1463.5,-30.67 1382.78,-17.07"/>
<polygon fill="midnightblue" stroke="midnightblue" points="1382.95,-13.56 1372.52,-15.38 1381.81,-20.46 1382.95,-13.56"/>
</g>
<!-- Node26&#45;&gt;Node20 -->
<g id="edge34" class="edge">
<title>Node26&#45;&gt;Node20</title>
<path fill="none" stroke="midnightblue" d="M1260.68,-302.48C1214.97,-291.89 1136.97,-273.84 1087.13,-262.3"/>
<polygon fill="midnightblue" stroke="midnightblue" points="1087.79,-258.85 1077.25,-260.01 1086.21,-265.67 1087.79,-258.85"/>
</g>
<!-- Node26&#45;&gt;Node24 -->
<g id="edge35" class="edge">
<title>Node26&#45;&gt;Node24</title>
<path fill="none" stroke="midnightblue" d="M1225.28,-306.07C1153.59,-300.18 1040.91,-288.19 945.5,-266 868.58,-248.11 781.58,-214.83 737.12,-196.83"/>
<polygon fill="midnightblue" stroke="midnightblue" points="738.36,-193.56 727.78,-193.02 735.72,-200.04 738.36,-193.56"/>
</g>
<!-- Node27 -->
<g id="node27" class="node">
<title>Node27</title>
<g id="a_node27"><a xlink:href="StateProcess_8h.html" target="_top" xlink:title=" ">
<polygon fill="white" stroke="black" points="1460.5,-174 1460.5,-193 1612.5,-193 1612.5,-174 1460.5,-174"/>
<text text-anchor="middle" x="1536.5" y="-181" font-family="Helvetica,sans-Serif" font-size="10.00">BayesFilters/StateProcess.h</text>
</a>
</g>
</g>
<!-- Node26&#45;&gt;Node27 -->
<g id="edge36" class="edge">
<title>Node26&#45;&gt;Node27</title>
<path fill="none" stroke="midnightblue" d="M1369.76,-304.6C1425.57,-298.18 1496.68,-286.26 1517.5,-266 1534.23,-249.72 1537.44,-221.78 1537.52,-203.22"/>
<polygon fill="midnightblue" stroke="midnightblue" points="1541.01,-202.97 1537.25,-193.07 1534.01,-203.16 1541.01,-202.97"/>
</g>
<!-- Node27&#45;&gt;Node16 -->
<g id="edge38" class="edge">
<title>Node27&#45;&gt;Node16</title>
<path fill="none" stroke="midnightblue" d="M1487.42,-173.99C1475.36,-171.96 1462.47,-169.85 1450.5,-168 1354.65,-153.18 1242.33,-137.86 1179.49,-129.47"/>
<polygon fill="midnightblue" stroke="midnightblue" points="1179.84,-125.98 1169.47,-128.13 1178.92,-132.92 1179.84,-125.98"/>
</g>
<!-- Node27&#45;&gt;Node22 -->
<g id="edge37" class="edge">
<title>Node27&#45;&gt;Node22</title>
<path fill="none" stroke="midnightblue" d="M1504.55,-173.98C1465.3,-163.5 1398.62,-145.71 1355.33,-134.16"/>
<polygon fill="midnightblue" stroke="midnightblue" points="1355.96,-130.71 1345.39,-131.51 1354.15,-137.47 1355.96,-130.71"/>
</g>
<!-- Node28&#45;&gt;Node15 -->
<g id="edge42" class="edge">
<title>Node28&#45;&gt;Node15</title>
<path fill="none" stroke="midnightblue" d="M1252.68,-240.73C1272.93,-229.77 1307.8,-210.88 1331.49,-198.05"/>
<polygon fill="midnightblue" stroke="midnightblue" points="1333.45,-200.97 1340.57,-193.13 1330.11,-194.81 1333.45,-200.97"/>
</g>
<!-- Node28&#45;&gt;Node16 -->
<g id="edge57" class="edge">
<title>Node28&#45;&gt;Node16</title>
<path fill="none" stroke="midnightblue" d="M1188.91,-240.95C1131.46,-230.15 1041.28,-211.48 1031.5,-199 1023,-188.15 1024.04,-179.58 1031.5,-168 1042.87,-150.35 1063.04,-139.54 1082.23,-132.96"/>
<polygon fill="midnightblue" stroke="midnightblue" points="1083.31,-136.29 1091.82,-129.98 1081.23,-129.61 1083.31,-136.29"/>
</g>
<!-- Node29 -->
<g id="node29" class="node">
<title>Node29</title>
<g id="a_node29"><a xlink:href="MeasurementModel_8h.html" target="_top" xlink:title=" ">
<polygon fill="white" stroke="black" points="794,-168.5 794,-198.5 941,-198.5 941,-168.5 794,-168.5"/>
<text text-anchor="start" x="802" y="-186.5" font-family="Helvetica,sans-Serif" font-size="10.00">BayesFilters/Measurement</text>
<text text-anchor="middle" x="867.5" y="-175.5" font-family="Helvetica,sans-Serif" font-size="10.00">Model.h</text>
</a>
</g>
</g>
<!-- Node28&#45;&gt;Node29 -->
<g id="edge43" class="edge">
<title>Node28&#45;&gt;Node29</title>
<path fill="none" stroke="midnightblue" d="M1187.88,-240.94C1127.69,-230.33 1024.22,-212.11 951.18,-199.24"/>
<polygon fill="midnightblue" stroke="midnightblue" points="951.54,-195.75 941.08,-197.46 950.32,-202.64 951.54,-195.75"/>
</g>
<!-- Node29&#45;&gt;Node4 -->
<g id="edge51" class="edge">
<title>Node29&#45;&gt;Node4</title>
<path fill="none" stroke="midnightblue" d="M795.13,-168.47C739.74,-157.74 664.57,-143.17 614.39,-133.44"/>
<polygon fill="midnightblue" stroke="midnightblue" points="614.87,-129.97 604.39,-131.51 613.54,-136.85 614.87,-129.97"/>
</g>
<!-- Node29&#45;&gt;Node7 -->
<g id="edge54" class="edge">
<title>Node29&#45;&gt;Node7</title>
<path fill="none" stroke="midnightblue" d="M858.88,-168.29C848.98,-152.87 831.49,-128.29 811.5,-112 794.29,-97.97 771.98,-86.7 754.01,-78.95"/>
<polygon fill="midnightblue" stroke="midnightblue" points="755.11,-75.62 744.53,-75.01 752.42,-82.08 755.11,-75.62"/>
</g>
<!-- Node29&#45;&gt;Node16 -->
<g id="edge56" class="edge">
<title>Node29&#45;&gt;Node16</title>
<path fill="none" stroke="midnightblue" d="M929.49,-168.47C976.45,-157.85 1040,-143.47 1082.98,-133.75"/>
<polygon fill="midnightblue" stroke="midnightblue" points="1083.92,-137.13 1092.9,-131.51 1082.37,-130.3 1083.92,-137.13"/>
</g>
<!-- Node29&#45;&gt;Node17 -->
<g id="edge53" class="edge">
<title>Node29&#45;&gt;Node17</title>
<path fill="none" stroke="midnightblue" d="M941.28,-169.63C974.04,-161.87 1012.18,-149.91 1043.5,-132 1086.07,-107.65 1080.02,-78.68 1123.5,-56 1181.7,-25.64 1258.52,-15.75 1304.28,-12.54"/>
<polygon fill="midnightblue" stroke="midnightblue" points="1304.63,-16.02 1314.39,-11.9 1304.19,-9.04 1304.63,-16.02"/>
</g>
<!-- Node29&#45;&gt;Node22 -->
<g id="edge52" class="edge">
<title>Node29&#45;&gt;Node22</title>
<path fill="none" stroke="midnightblue" d="M941.15,-172.67C1023.68,-161.66 1156.73,-143.91 1239.44,-132.88"/>
<polygon fill="midnightblue" stroke="midnightblue" points="1240.06,-136.33 1249.51,-131.54 1239.14,-129.39 1240.06,-136.33"/>
</g>
<!-- Node30 -->
<g id="node30" class="node">
<title>Node30</title>
<g id="a_node30"><a xlink:href="Data_8h.html" target="_top" xlink:title=" ">
<polygon fill="white" stroke="black" points="859.5,-112.5 859.5,-131.5 971.5,-131.5 971.5,-112.5 859.5,-112.5"/>
<text text-anchor="middle" x="915.5" y="-119.5" font-family="Helvetica,sans-Serif" font-size="10.00">BayesFilters/Data.h</text>
</a>
</g>
</g>
<!-- Node29&#45;&gt;Node30 -->
<g id="edge44" class="edge">
<title>Node29&#45;&gt;Node30</title>
<path fill="none" stroke="midnightblue" d="M878.88,-168.4C885.85,-159.75 894.81,-148.64 902.13,-139.58"/>
<polygon fill="midnightblue" stroke="midnightblue" points="904.96,-141.64 908.52,-131.66 899.51,-137.24 904.96,-141.64"/>
</g>
<!-- Node36 -->
<g id="node36" class="node">
<title>Node36</title>
<g id="a_node36"><a xlink:title=" ">
<polygon fill="white" stroke="#bfbfbf" points="990,-112.5 990,-131.5 1035,-131.5 1035,-112.5 990,-112.5"/>
<text text-anchor="middle" x="1012.5" y="-119.5" font-family="Helvetica,sans-Serif" font-size="10.00">utility</text>
</a>
</g>
</g>
<!-- Node29&#45;&gt;Node36 -->
<g id="edge55" class="edge">
<title>Node29&#45;&gt;Node36</title>
<path fill="none" stroke="midnightblue" d="M901.86,-168.4C926.19,-158.42 958.53,-145.15 981.96,-135.53"/>
<polygon fill="midnightblue" stroke="midnightblue" points="983.48,-138.69 991.4,-131.66 980.82,-132.22 983.48,-138.69"/>
</g>
<!-- Node31 -->
<g id="node31" class="node">
<title>Node31</title>
<g id="a_node31"><a xlink:href="any_8h.html" target="_top" xlink:title=" ">
<polygon fill="white" stroke="black" points="897,-56.5 897,-75.5 1002,-75.5 1002,-56.5 897,-56.5"/>
<text text-anchor="middle" x="949.5" y="-63.5" font-family="Helvetica,sans-Serif" font-size="10.00">BayesFilters/any.h</text>
</a>
</g>
</g>
<!-- Node30&#45;&gt;Node31 -->
<g id="edge45" class="edge">
<title>Node30&#45;&gt;Node31</title>
<path fill="none" stroke="midnightblue" d="M921.11,-112.08C925.87,-104.53 932.82,-93.49 938.65,-84.23"/>
<polygon fill="midnightblue" stroke="midnightblue" points="941.62,-86.08 943.99,-75.75 935.7,-82.35 941.62,-86.08"/>
</g>
<!-- Node31&#45;&gt;Node17 -->
<g id="edge47" class="edge">
<title>Node31&#45;&gt;Node17</title>
<path fill="none" stroke="midnightblue" d="M1002.23,-57.77C1082.37,-46.79 1233.04,-26.14 1304.27,-16.38"/>
<polygon fill="midnightblue" stroke="midnightblue" points="1304.76,-19.84 1314.19,-15.02 1303.81,-12.91 1304.76,-19.84"/>
</g>
<!-- Node32 -->
<g id="node32" class="node">
<title>Node32</title>
<g id="a_node32"><a xlink:title=" ">
<polygon fill="white" stroke="#bfbfbf" points="795.5,-0.5 795.5,-19.5 859.5,-19.5 859.5,-0.5 795.5,-0.5"/>
<text text-anchor="middle" x="827.5" y="-7.5" font-family="Helvetica,sans-Serif" font-size="10.00">algorithm</text>
</a>
</g>
</g>
<!-- Node31&#45;&gt;Node32 -->
<g id="edge46" class="edge">
<title>Node31&#45;&gt;Node32</title>
<path fill="none" stroke="midnightblue" d="M930.17,-56.44C910.18,-47.6 878.76,-33.69 855.94,-23.59"/>
<polygon fill="midnightblue" stroke="midnightblue" points="857.3,-20.36 846.74,-19.52 854.47,-26.76 857.3,-20.36"/>
</g>
<!-- Node33 -->
<g id="node33" class="node">
<title>Node33</title>
<g id="a_node33"><a xlink:title=" ">
<polygon fill="white" stroke="#bfbfbf" points="878,-0.5 878,-19.5 943,-19.5 943,-0.5 878,-0.5"/>
<text text-anchor="middle" x="910.5" y="-7.5" font-family="Helvetica,sans-Serif" font-size="10.00">stdexcept</text>
</a>
</g>
</g>
<!-- Node31&#45;&gt;Node33 -->
<g id="edge48" class="edge">
<title>Node31&#45;&gt;Node33</title>
<path fill="none" stroke="midnightblue" d="M943.06,-56.08C937.55,-48.46 929.47,-37.26 922.74,-27.94"/>
<polygon fill="midnightblue" stroke="midnightblue" points="925.51,-25.81 916.82,-19.75 919.84,-29.91 925.51,-25.81"/>
</g>
<!-- Node34 -->
<g id="node34" class="node">
<title>Node34</title>
<g id="a_node34"><a xlink:title=" ">
<polygon fill="white" stroke="#bfbfbf" points="961,-0.5 961,-19.5 1018,-19.5 1018,-0.5 961,-0.5"/>
<text text-anchor="middle" x="989.5" y="-7.5" font-family="Helvetica,sans-Serif" font-size="10.00">typeinfo</text>
</a>
</g>
</g>
<!-- Node31&#45;&gt;Node34 -->
<g id="edge49" class="edge">
<title>Node31&#45;&gt;Node34</title>
<path fill="none" stroke="midnightblue" d="M956.11,-56.08C961.76,-48.46 970.04,-37.26 976.95,-27.94"/>
<polygon fill="midnightblue" stroke="midnightblue" points="979.88,-29.87 983.02,-19.75 974.25,-25.7 979.88,-29.87"/>
</g>
<!-- Node35 -->
<g id="node35" class="node">
<title>Node35</title>
<g id="a_node35"><a xlink:title=" ">
<polygon fill="white" stroke="#bfbfbf" points="1036,-0.5 1036,-19.5 1105,-19.5 1105,-0.5 1036,-0.5"/>
<text text-anchor="middle" x="1070.5" y="-7.5" font-family="Helvetica,sans-Serif" font-size="10.00">type_traits</text>
</a>
</g>
</g>
<!-- Node31&#45;&gt;Node35 -->
<g id="edge50" class="edge">
<title>Node31&#45;&gt;Node35</title>
<path fill="none" stroke="midnightblue" d="M968.67,-56.44C988.41,-47.64 1019.39,-33.81 1041.99,-23.72"/>
<polygon fill="midnightblue" stroke="midnightblue" points="1043.71,-26.79 1051.42,-19.52 1040.86,-20.4 1043.71,-26.79"/>
</g>
</g>
</svg>
        <g id="navigator" transform="translate(0 0)" fill="#404254">
                <rect fill="#f2f5e9" fill-opacity="0.5" stroke="#606060" stroke-width=".5" x="0" y="0" width="60" height="60"/>
                <use id="zoomplus" xlink:href="#zoomPlus" x="17" y="9" onmousedown="handleZoom(evt,'in')"/>
                <use id="zoomminus" xlink:href="#zoomMin" x="42" y="9" onmousedown="handleZoom(evt,'out')"/>
                <use id="reset" xlink:href="#resetDef" x="30" y="36" onmousedown="handleReset()"/>
                <g id="arrowUp" xlink:href="#dirArrow" transform="translate(30 24)" onmousedown="handlePan(0,-1)">
                  <use xlink:href="#rim" fill="#404040">
                        <set attributeName="fill" to="#808080" begin="arrowUp.mouseover" end="arrowUp.mouseout"/>
                  </use>
                  <path fill="none" stroke="white" stroke-width="1.5" d="M0,-3.0v7 M-2.5,-0.5L0,-3.0L2.5,-0.5"/>
                </g>
                <g id="arrowRight" xlink:href="#dirArrow" transform="rotate(90) translate(36 -43)" onmousedown="handlePan(1,0)">
                  <use xlink:href="#rim" fill="#404040">
                        <set attributeName="fill" to="#808080" begin="arrowRight.mouseover" end="arrowRight.mouseout"/>
                  </use>
                  <path fill="none" stroke="white" stroke-width="1.5" d="M0,-3.0v7 M-2.5,-0.5L0,-3.0L2.5,-0.5"/>
                </g>
                <g id="arrowDown" xlink:href="#dirArrow" transform="rotate(180) translate(-30 -48)" onmousedown="handlePan(0,1)">
                  <use xlink:href="#rim" fill="#404040">
                        <set attributeName="fill" to="#808080" begin="arrowDown.mouseover" end="arrowDown.mouseout"/>
                  </use>
                  <path fill="none" stroke="white" stroke-width="1.5" d="M0,-3.0v7 M-2.5,-0.5L0,-3.0L2.5,-0.5"/>
                </g>
                <g id="arrowLeft" xlink:href="#dirArrow" transform="rotate(270) translate(-36 17)" onmousedown="handlePan(-1,0)">
                  <use xlink:href="#rim" fill="#404040">
                        <set attributeName="fill" to="#808080" begin="arrowLeft.mouseover" end="arrowLeft.mouseout"/>
                  </use>
                  <path fill="none" stroke="white" stroke-width="1.5" d="M0,-3.0v7 M-2.5,-0.5L0,-3.0L2.5,-0.5"/>
                </g>
        </g>
        <svg viewBox="0 0 15 15" width="100%" height="30px" preserveAspectRatio="xMaxYMin meet">
         <g id="arrow_out" transform="scale(0.3 0.3)">
          <a xlink:href="GaussianFilter_8h__incl_org.svg" target="_base">
           <rect id="button" ry="5" rx="5" y="6" x="6" height="38" width="38"
                fill="#f2f5e9" fill-opacity="0.5" stroke="#606060" stroke-width="1.0"/>
           <path id="arrow"
             d="M 11.500037,31.436501 C 11.940474,20.09759 22.043105,11.32322 32.158766,21.979434 L 37.068811,17.246167 C 37.068811,17.246167 37.088388,32 37.088388,32 L 22.160133,31.978069 C 22.160133,31.978069 26.997745,27.140456 26.997745,27.140456 C 18.528582,18.264221 13.291696,25.230495 11.500037,31.436501 z"
             style="fill:#404040;"/>
          </a>
         </g>
        </svg>
</svg>
