<?xml version="1.0" encoding="UTF-8" standalone="no"?>
<!DOCTYPE svg PUBLIC "-//W3C//DTD SVG 1.1//EN"
 "http://www.w3.org/Graphics/SVG/1.1/DTD/svg11.dtd">
<!-- Generated by graphviz version 2.47.2 (0)
 -->
<!-- Title: /home/xenvre/robot&#45;code/bfl_robotology/src/BayesFilters/include/BayesFilters/GaussianFilter.h Pages: 1 -->
<!--zoomable 475 -->
<svg id="main" version="1.1" xmlns="http://www.w3.org/2000/svg" xmlns:xlink="http://www.w3.org/1999/xlink" xml:space="preserve" onload="init(evt)">
<style type="text/css"><![CDATA[
.edge:hover path { stroke: red; }
.edge:hover polygon { stroke: red; fill: red; }
]]></style>
<script type="text/javascript"><![CDATA[
var edges = document.getElementsByTagName('g');
if (edges && edges.length) {
  for (var i=0;i<edges.length;i++) {
    if (edges[i].id.substr(0,4)=='edge') {
      edges[i].setAttribute('class','edge');
    }
  }
}
]]></script>
        <defs>
                <circle id="rim" cx="0" cy="0" r="7"/>
                <circle id="rim2" cx="0" cy="0" r="3.5"/>
                <g id="zoomPlus">
                        <use xlink:href="#rim" fill="#404040">
                                <set attributeName="fill" to="#808080" begin="zoomplus.mouseover" end="zoomplus.mouseout"/>
                        </use>
                        <path d="M-4,0h8M0,-4v8" fill="none" stroke="white" stroke-width="1.5" pointer-events="none"/>
                </g>
                <g id="zoomMin">
                        <use xlink:href="#rim" fill="#404040">
                                <set attributeName="fill" to="#808080" begin="zoomminus.mouseover" end="zoomminus.mouseout"/>
                        </use>
                        <path d="M-4,0h8" fill="none" stroke="white" stroke-width="1.5" pointer-events="none"/>
                </g>
                <g id="dirArrow">
                        <path fill="none" stroke="white" stroke-width="1.5" d="M0,-3.0v7 M-2.5,-0.5L0,-3.0L2.5,-0.5"/>
                </g>
               <g id="resetDef">
                       <use xlink:href="#rim2" fill="#404040">
                               <set attributeName="fill" to="#808080" begin="reset.mouseover" end="reset.mouseout"/>
                       </use>
               </g>
        </defs>

<script type="text/javascript">
var viewWidth = 1647;
var viewHeight = 475;
var sectionId = 'dynsection-0';
</script>
<script xlink:href="svgpan.js"/>
<svg id="graph" class="graph">
<g id="viewport">
<title>/home/xenvre/robot&#45;code/bfl_robotology/src/BayesFilters/include/BayesFilters/GaussianFilter.h</title>
<polygon fill="white" stroke="transparent" points="-4,4 -4,-471 1642.5,-471 1642.5,4 -4,4"/>
<!-- Node1 -->
<g id="node1" class="node">
<title>Node1</title>
<g id="a_node1"><a xlink:title=" ">
<polygon fill="#bfbfbf" stroke="black" points="915,-414.5 915,-466.5 1063,-466.5 1063,-414.5 915,-414.5"/>
<text text-anchor="start" x="923" y="-454.5" font-family="Helvetica,sans-Serif" font-size="10.00">/home/xenvre/robot</text>
<text text-anchor="start" x="923" y="-443.5" font-family="Helvetica,sans-Serif" font-size="10.00">&#45;code/bfl_robotology</text>
<text text-anchor="start" x="923" y="-432.5" font-family="Helvetica,sans-Serif" font-size="10.00">/src/BayesFilters/include</text>
<text text-anchor="middle" x="989" y="-421.5" font-family="Helvetica,sans-Serif" font-size="10.00">/BayesFilters/GaussianFilter.h</text>
</a>
</g>
</g>
<!-- Node2 -->
<g id="node2" class="node">
<title>Node2</title>
<g id="a_node2"><a xlink:href="FilteringAlgorithm_8h.html" target="_top" xlink:title=" ">
<polygon fill="white" stroke="black" points="286,-174 286,-193 444,-193 444,-174 286,-174"/>
<text text-anchor="middle" x="365" y="-181" font-family="Helvetica,sans-Serif" font-size="10.00">BayesFilters/FilteringAlgorithm.h</text>
</a>
</g>
</g>
<!-- Node1&#45;&gt;Node2 -->
<g id="edge1" class="edge">
<title>Node1&#45;&gt;Node2</title>
<path fill="none" stroke="midnightblue" d="M914.78,-429.63C805.79,-412.16 599.95,-367.56 457,-266 428.19,-245.53 398.15,-217.43 380.53,-200.14"/>
<polygon fill="midnightblue" stroke="midnightblue" points="382.92,-197.59 373.36,-193.03 377.99,-202.56 382.92,-197.59"/>
</g>
<!-- Node14 -->
<g id="node14" class="node">
<title>Node14</title>
<g id="a_node14"><a xlink:href="Gaussian_8h.html" target="_top" xlink:title=" ">
<polygon fill="white" stroke="black" points="1302,-241 1302,-260 1426,-260 1426,-241 1302,-241"/>
<text text-anchor="middle" x="1364" y="-248" font-family="Helvetica,sans-Serif" font-size="10.00">BayesFilters/Gaussian.h</text>
</a>
</g>
</g>
<!-- Node1&#45;&gt;Node14 -->
<g id="edge15" class="edge">
<title>Node1&#45;&gt;Node14</title>
<path fill="none" stroke="midnightblue" d="M1039.19,-414.34C1119.89,-373.88 1275.72,-295.76 1337.67,-264.7"/>
<polygon fill="midnightblue" stroke="midnightblue" points="1339.41,-267.74 1346.78,-260.13 1336.27,-261.48 1339.41,-267.74"/>
</g>
<!-- Node19 -->
<g id="node19" class="node">
<title>Node19</title>
<g id="a_node19"><a xlink:href="GaussianPrediction_8h.html" target="_top" xlink:title=" ">
<polygon fill="white" stroke="black" points="781.5,-358.5 781.5,-377.5 948.5,-377.5 948.5,-358.5 781.5,-358.5"/>
<text text-anchor="middle" x="865" y="-365.5" font-family="Helvetica,sans-Serif" font-size="10.00">BayesFilters/GaussianPrediction.h</text>
</a>
</g>
</g>
<!-- Node1&#45;&gt;Node19 -->
<g id="edge21" class="edge">
<title>Node1&#45;&gt;Node19</title>
<path fill="none" stroke="midnightblue" d="M944.93,-414.45C926.14,-403.76 904.94,-391.71 889.1,-382.7"/>
<polygon fill="midnightblue" stroke="midnightblue" points="890.42,-379.43 880,-377.53 886.96,-385.51 890.42,-379.43"/>
</g>
<!-- Node26 -->
<g id="node26" class="node">
<title>Node26</title>
<g id="a_node26"><a xlink:href="GaussianCorrection_8h.html" target="_top" xlink:title=" ">
<polygon fill="white" stroke="black" points="1115.5,-241 1115.5,-260 1284.5,-260 1284.5,-241 1115.5,-241"/>
<text text-anchor="middle" x="1200" y="-248" font-family="Helvetica,sans-Serif" font-size="10.00">BayesFilters/GaussianCorrection.h</text>
</a>
</g>
</g>
<!-- Node1&#45;&gt;Node26 -->
<g id="edge38" class="edge">
<title>Node1&#45;&gt;Node26</title>
<path fill="none" stroke="midnightblue" d="M1017.46,-414.15C1061.82,-374.62 1146.15,-299.48 1182.55,-267.05"/>
<polygon fill="midnightblue" stroke="midnightblue" points="1185.2,-269.38 1190.34,-260.11 1180.54,-264.15 1185.2,-269.38"/>
</g>
<!-- Node3 -->
<g id="node3" class="node">
<title>Node3</title>
<g id="a_node3"><a xlink:href="Filter_8h.html" target="_top" xlink:title=" ">
<polygon fill="white" stroke="black" points="226,-112.5 226,-131.5 330,-131.5 330,-112.5 226,-112.5"/>
<text text-anchor="middle" x="278" y="-119.5" font-family="Helvetica,sans-Serif" font-size="10.00">BayesFilters/Filter.h</text>
</a>
</g>
</g>
<!-- Node2&#45;&gt;Node3 -->
<g id="edge2" class="edge">
<title>Node2&#45;&gt;Node3</title>
<path fill="none" stroke="midnightblue" d="M352.54,-173.98C338.58,-164.43 315.74,-148.81 299.01,-137.37"/>
<polygon fill="midnightblue" stroke="midnightblue" points="300.67,-134.27 290.44,-131.51 296.72,-140.04 300.67,-134.27"/>
</g>
<!-- Node4 -->
<g id="node4" class="node">
<title>Node4</title>
<g id="a_node4"><a xlink:href="Logger_8h.html" target="_top" xlink:title=" ">
<polygon fill="white" stroke="black" points="993.5,-112.5 993.5,-131.5 1104.5,-131.5 1104.5,-112.5 993.5,-112.5"/>
<text text-anchor="middle" x="1049" y="-119.5" font-family="Helvetica,sans-Serif" font-size="10.00">BayesFilters/Logger.h</text>
</a>
</g>
</g>
<!-- Node2&#45;&gt;Node4 -->
<g id="edge3" class="edge">
<title>Node2&#45;&gt;Node4</title>
<path fill="none" stroke="midnightblue" d="M443.63,-173.99C463.33,-171.94 484.43,-169.82 504,-168 699.81,-149.8 749.04,-148.48 945,-132 957.4,-130.96 970.62,-129.83 983.34,-128.73"/>
<polygon fill="midnightblue" stroke="midnightblue" points="983.75,-132.21 993.41,-127.86 983.15,-125.23 983.75,-132.21"/>
</g>
<!-- Node7 -->
<g id="node7" class="node">
<title>Node7</title>
<g id="a_node7"><a xlink:title=" ">
<polygon fill="white" stroke="#bfbfbf" points="751.5,-56.5 751.5,-75.5 792.5,-75.5 792.5,-56.5 751.5,-56.5"/>
<text text-anchor="middle" x="772" y="-63.5" font-family="Helvetica,sans-Serif" font-size="10.00">string</text>
</a>
</g>
</g>
<!-- Node2&#45;&gt;Node7 -->
<g id="edge12" class="edge">
<title>Node2&#45;&gt;Node7</title>
<path fill="none" stroke="midnightblue" d="M381.77,-173.8C410.93,-159.01 473.25,-128.91 529,-112 603.66,-89.35 694.86,-76.17 741.43,-70.44"/>
<polygon fill="midnightblue" stroke="midnightblue" points="741.96,-73.9 751.47,-69.23 741.13,-66.95 741.96,-73.9"/>
</g>
<!-- Node9 -->
<g id="node9" class="node">
<title>Node9</title>
<g id="a_node9"><a xlink:href="Skipper_8h.html" target="_top" xlink:title=" ">
<polygon fill="white" stroke="black" points="538.5,-112.5 538.5,-131.5 653.5,-131.5 653.5,-112.5 538.5,-112.5"/>
<text text-anchor="middle" x="596" y="-119.5" font-family="Helvetica,sans-Serif" font-size="10.00">BayesFilters/Skipper.h</text>
</a>
</g>
</g>
<!-- Node2&#45;&gt;Node9 -->
<g id="edge8" class="edge">
<title>Node2&#45;&gt;Node9</title>
<path fill="none" stroke="midnightblue" d="M398.1,-173.98C438.92,-163.46 508.41,-145.56 553.24,-134.01"/>
<polygon fill="midnightblue" stroke="midnightblue" points="554.15,-137.39 562.96,-131.51 552.41,-130.61 554.15,-137.39"/>
</g>
<!-- Node10 -->
<g id="node10" class="node">
<title>Node10</title>
<g id="a_node10"><a xlink:title=" ">
<polygon fill="white" stroke="#bfbfbf" points="348.5,-112.5 348.5,-131.5 443.5,-131.5 443.5,-112.5 348.5,-112.5"/>
<text text-anchor="middle" x="396" y="-119.5" font-family="Helvetica,sans-Serif" font-size="10.00">condition_variable</text>
</a>
</g>
</g>
<!-- Node2&#45;&gt;Node10 -->
<g id="edge10" class="edge">
<title>Node2&#45;&gt;Node10</title>
<path fill="none" stroke="midnightblue" d="M369.44,-173.98C373.95,-165.32 381.07,-151.65 386.81,-140.65"/>
<polygon fill="midnightblue" stroke="midnightblue" points="390.05,-141.99 391.57,-131.51 383.84,-138.76 390.05,-141.99"/>
</g>
<!-- Node11 -->
<g id="node11" class="node">
<title>Node11</title>
<g id="a_node11"><a xlink:title=" ">
<polygon fill="white" stroke="#bfbfbf" points="0,-112.5 0,-131.5 44,-131.5 44,-112.5 0,-112.5"/>
<text text-anchor="middle" x="22" y="-119.5" font-family="Helvetica,sans-Serif" font-size="10.00">mutex</text>
</a>
</g>
</g>
<!-- Node2&#45;&gt;Node11 -->
<g id="edge11" class="edge">
<title>Node2&#45;&gt;Node11</title>
<path fill="none" stroke="midnightblue" d="M297.29,-173.97C236.08,-165.71 143.37,-151.83 54.27,-132.06"/>
<polygon fill="midnightblue" stroke="midnightblue" points="54.79,-128.59 44.27,-129.82 53.26,-135.42 54.79,-128.59"/>
</g>
<!-- Node12 -->
<g id="node12" class="node">
<title>Node12</title>
<g id="a_node12"><a xlink:title=" ">
<polygon fill="white" stroke="#bfbfbf" points="62,-112.5 62,-131.5 106,-131.5 106,-112.5 62,-112.5"/>
<text text-anchor="middle" x="84" y="-119.5" font-family="Helvetica,sans-Serif" font-size="10.00">thread</text>
</a>
</g>
</g>
<!-- Node2&#45;&gt;Node12 -->
<g id="edge13" class="edge">
<title>Node2&#45;&gt;Node12</title>
<path fill="none" stroke="midnightblue" d="M316.81,-174C268.44,-165.19 191.62,-150.45 116.41,-132.19"/>
<polygon fill="midnightblue" stroke="midnightblue" points="116.84,-128.69 106.29,-129.71 115.17,-135.49 116.84,-128.69"/>
</g>
<!-- Node13 -->
<g id="node13" class="node">
<title>Node13</title>
<g id="a_node13"><a xlink:title=" ">
<polygon fill="white" stroke="#bfbfbf" points="124.5,-112.5 124.5,-131.5 207.5,-131.5 207.5,-112.5 124.5,-112.5"/>
<text text-anchor="middle" x="166" y="-119.5" font-family="Helvetica,sans-Serif" font-size="10.00">unordered_map</text>
</a>
</g>
</g>
<!-- Node2&#45;&gt;Node13 -->
<g id="edge14" class="edge">
<title>Node2&#45;&gt;Node13</title>
<path fill="none" stroke="midnightblue" d="M336.49,-173.98C301.76,-163.59 242.96,-146.01 204.31,-134.45"/>
<polygon fill="midnightblue" stroke="midnightblue" points="205.04,-131.02 194.46,-131.51 203.04,-137.73 205.04,-131.02"/>
</g>
<!-- Node5 -->
<g id="node5" class="node">
<title>Node5</title>
<g id="a_node5"><a xlink:title=" ">
<polygon fill="white" stroke="#bfbfbf" points="1029,-56.5 1029,-75.5 1079,-75.5 1079,-56.5 1029,-56.5"/>
<text text-anchor="middle" x="1054" y="-63.5" font-family="Helvetica,sans-Serif" font-size="10.00">fstream</text>
</a>
</g>
</g>
<!-- Node4&#45;&gt;Node5 -->
<g id="edge4" class="edge">
<title>Node4&#45;&gt;Node5</title>
<path fill="none" stroke="midnightblue" d="M1049.83,-112.08C1050.48,-105.01 1051.42,-94.86 1052.24,-85.99"/>
<polygon fill="midnightblue" stroke="midnightblue" points="1055.75,-86.03 1053.19,-75.75 1048.78,-85.39 1055.75,-86.03"/>
</g>
<!-- Node6 -->
<g id="node6" class="node">
<title>Node6</title>
<g id="a_node6"><a xlink:title=" ">
<polygon fill="white" stroke="#bfbfbf" points="957,-56.5 957,-75.5 1011,-75.5 1011,-56.5 957,-56.5"/>
<text text-anchor="middle" x="984" y="-63.5" font-family="Helvetica,sans-Serif" font-size="10.00">iostream</text>
</a>
</g>
</g>
<!-- Node4&#45;&gt;Node6 -->
<g id="edge5" class="edge">
<title>Node4&#45;&gt;Node6</title>
<path fill="none" stroke="midnightblue" d="M1038.56,-112.32C1028.85,-104.26 1014.18,-92.08 1002.5,-82.37"/>
<polygon fill="midnightblue" stroke="midnightblue" points="1004.56,-79.53 994.63,-75.83 1000.09,-84.92 1004.56,-79.53"/>
</g>
<!-- Node4&#45;&gt;Node7 -->
<g id="edge6" class="edge">
<title>Node4&#45;&gt;Node7</title>
<path fill="none" stroke="midnightblue" d="M1005.11,-112.44C948.69,-101.44 852.14,-82.62 802.88,-73.02"/>
<polygon fill="midnightblue" stroke="midnightblue" points="803.32,-69.54 792.83,-71.06 801.98,-76.41 803.32,-69.54"/>
</g>
<!-- Node8 -->
<g id="node8" class="node">
<title>Node8</title>
<g id="a_node8"><a xlink:title=" ">
<polygon fill="white" stroke="#bfbfbf" points="1102,-56.5 1102,-75.5 1146,-75.5 1146,-56.5 1102,-56.5"/>
<text text-anchor="middle" x="1124" y="-63.5" font-family="Helvetica,sans-Serif" font-size="10.00">vector</text>
</a>
</g>
</g>
<!-- Node4&#45;&gt;Node8 -->
<g id="edge7" class="edge">
<title>Node4&#45;&gt;Node8</title>
<path fill="none" stroke="midnightblue" d="M1061.05,-112.32C1072.46,-104.11 1089.83,-91.6 1103.43,-81.81"/>
<polygon fill="midnightblue" stroke="midnightblue" points="1105.66,-84.52 1111.73,-75.83 1101.57,-78.84 1105.66,-84.52"/>
</g>
<!-- Node9&#45;&gt;Node7 -->
<g id="edge9" class="edge">
<title>Node9&#45;&gt;Node7</title>
<path fill="none" stroke="midnightblue" d="M623.89,-112.44C656.04,-102.58 708.69,-86.42 741.79,-76.27"/>
<polygon fill="midnightblue" stroke="midnightblue" points="742.86,-79.6 751.39,-73.32 740.81,-72.91 742.86,-79.6"/>
</g>
<!-- Node15 -->
<g id="node15" class="node">
<title>Node15</title>
<g id="a_node15"><a xlink:href="GaussianMixture_8h.html" target="_top" xlink:title=" ">
<polygon fill="white" stroke="black" points="1004,-174 1004,-193 1160,-193 1160,-174 1004,-174"/>
<text text-anchor="middle" x="1082" y="-181" font-family="Helvetica,sans-Serif" font-size="10.00">BayesFilters/GaussianMixture.h</text>
</a>
</g>
</g>
<!-- Node14&#45;&gt;Node15 -->
<g id="edge16" class="edge">
<title>Node14&#45;&gt;Node15</title>
<path fill="none" stroke="midnightblue" d="M1326.84,-240.94C1276.02,-229.22 1184.79,-208.19 1129.19,-195.38"/>
<polygon fill="midnightblue" stroke="midnightblue" points="1129.77,-191.92 1119.24,-193.08 1128.2,-198.74 1129.77,-191.92"/>
</g>
<!-- Node17 -->
<g id="node17" class="node">
<title>Node17</title>
<g id="a_node17"><a xlink:title=" ">
<polygon fill="white" stroke="#bfbfbf" points="1272,-0.5 1272,-19.5 1324,-19.5 1324,-0.5 1272,-0.5"/>
<text text-anchor="middle" x="1298" y="-7.5" font-family="Helvetica,sans-Serif" font-size="10.00">memory</text>
</a>
</g>
</g>
<!-- Node14&#45;&gt;Node17 -->
<g id="edge19" class="edge">
<title>Node14&#45;&gt;Node17</title>
<path fill="none" stroke="midnightblue" d="M1374.42,-240.71C1384.45,-231.5 1398.96,-216.03 1405,-199 1409.61,-186.02 1409.06,-181.17 1405,-168 1386.94,-109.44 1338.74,-53.19 1313.66,-26.74"/>
<polygon fill="midnightblue" stroke="midnightblue" points="1316.14,-24.27 1306.68,-19.52 1311.11,-29.14 1316.14,-24.27"/>
</g>
<!-- Node18 -->
<g id="node18" class="node">
<title>Node18</title>
<g id="a_node18"><a xlink:title=" ">
<polygon fill="white" stroke="#bfbfbf" points="1330.5,-174 1330.5,-193 1395.5,-193 1395.5,-174 1330.5,-174"/>
<text text-anchor="middle" x="1363" y="-181" font-family="Helvetica,sans-Serif" font-size="10.00">Eigen/Core</text>
</a>
</g>
</g>
<!-- Node14&#45;&gt;Node18 -->
<g id="edge20" class="edge">
<title>Node14&#45;&gt;Node18</title>
<path fill="none" stroke="midnightblue" d="M1363.87,-240.73C1363.72,-231.18 1363.48,-215.62 1363.29,-203.28"/>
<polygon fill="midnightblue" stroke="midnightblue" points="1366.79,-203.07 1363.13,-193.13 1359.79,-203.18 1366.79,-203.07"/>
</g>
<!-- Node15&#45;&gt;Node8 -->
<g id="edge17" class="edge">
<title>Node15&#45;&gt;Node8</title>
<path fill="none" stroke="midnightblue" d="M1088.84,-173.74C1096.02,-164.08 1107.07,-147.8 1113,-132 1118.6,-117.08 1121.36,-99.17 1122.72,-85.93"/>
<polygon fill="midnightblue" stroke="midnightblue" points="1126.23,-85.94 1123.58,-75.69 1119.25,-85.36 1126.23,-85.94"/>
</g>
<!-- Node16 -->
<g id="node16" class="node">
<title>Node16</title>
<g id="a_node16"><a xlink:title=" ">
<polygon fill="white" stroke="#bfbfbf" points="863.5,-112.5 863.5,-131.5 936.5,-131.5 936.5,-112.5 863.5,-112.5"/>
<text text-anchor="middle" x="900" y="-119.5" font-family="Helvetica,sans-Serif" font-size="10.00">Eigen/Dense</text>
</a>
</g>
</g>
<!-- Node15&#45;&gt;Node16 -->
<g id="edge18" class="edge">
<title>Node15&#45;&gt;Node16</title>
<path fill="none" stroke="midnightblue" d="M1055.92,-173.98C1024.43,-163.68 971.3,-146.31 935.94,-134.75"/>
<polygon fill="midnightblue" stroke="midnightblue" points="936.62,-131.29 926.03,-131.51 934.45,-137.94 936.62,-131.29"/>
</g>
<!-- Node19&#45;&gt;Node16 -->
<g id="edge37" class="edge">
<title>Node19&#45;&gt;Node16</title>
<path fill="none" stroke="midnightblue" d="M869.35,-358.37C877.69,-341.28 895.67,-301.67 902,-266 909.78,-222.15 905.68,-169.54 902.52,-141.98"/>
<polygon fill="midnightblue" stroke="midnightblue" points="905.96,-141.29 901.27,-131.8 899.02,-142.15 905.96,-141.29"/>
</g>
<!-- Node20 -->
<g id="node20" class="node">
<title>Node20</title>
<g id="a_node20"><a xlink:href="ExogenousModel_8h.html" target="_top" xlink:title=" ">
<polygon fill="white" stroke="black" points="575,-241 575,-260 733,-260 733,-241 575,-241"/>
<text text-anchor="middle" x="654" y="-248" font-family="Helvetica,sans-Serif" font-size="10.00">BayesFilters/ExogenousModel.h</text>
</a>
</g>
</g>
<!-- Node19&#45;&gt;Node20 -->
<g id="edge22" class="edge">
<title>Node19&#45;&gt;Node20</title>
<path fill="none" stroke="midnightblue" d="M849.14,-358.32C812.62,-338.33 722.38,-288.93 678.6,-264.97"/>
<polygon fill="midnightblue" stroke="midnightblue" points="680.21,-261.86 669.76,-260.12 676.85,-268 680.21,-261.86"/>
</g>
<!-- Node22 -->
<g id="node22" class="node">
<title>Node22</title>
<g id="a_node22"><a xlink:href="Skippable_8h.html" target="_top" xlink:title=" ">
<polygon fill="white" stroke="black" points="513.5,-174 513.5,-193 638.5,-193 638.5,-174 513.5,-174"/>
<text text-anchor="middle" x="576" y="-181" font-family="Helvetica,sans-Serif" font-size="10.00">BayesFilters/Skippable.h</text>
</a>
</g>
</g>
<!-- Node19&#45;&gt;Node22 -->
<g id="edge30" class="edge">
<title>Node19&#45;&gt;Node22</title>
<path fill="none" stroke="midnightblue" d="M781.2,-362.81C708.28,-357.59 609.62,-346.19 579,-322 547.62,-297.21 548.5,-274.29 556,-235 558.15,-223.71 562.79,-211.72 567.06,-202.26"/>
<polygon fill="midnightblue" stroke="midnightblue" points="570.26,-203.67 571.41,-193.13 563.95,-200.65 570.26,-203.67"/>
</g>
<!-- Node23 -->
<g id="node23" class="node">
<title>Node23</title>
<g id="a_node23"><a xlink:href="GaussianMixturePrediction_8h.html" target="_top" xlink:title=" ">
<polygon fill="white" stroke="black" points="949,-235.5 949,-265.5 1097,-265.5 1097,-235.5 949,-235.5"/>
<text text-anchor="start" x="957" y="-253.5" font-family="Helvetica,sans-Serif" font-size="10.00">BayesFilters/GaussianMixture</text>
<text text-anchor="middle" x="1023" y="-242.5" font-family="Helvetica,sans-Serif" font-size="10.00">Prediction.h</text>
</a>
</g>
</g>
<!-- Node19&#45;&gt;Node23 -->
<g id="edge27" class="edge">
<title>Node19&#45;&gt;Node23</title>
<path fill="none" stroke="midnightblue" d="M879.23,-358.45C893.58,-349.7 916.23,-335.49 935,-322 957.13,-306.09 981.21,-286.63 998.58,-272.19"/>
<polygon fill="midnightblue" stroke="midnightblue" points="1001.11,-274.65 1006.53,-265.55 996.62,-269.28 1001.11,-274.65"/>
</g>
<!-- Node24 -->
<g id="node24" class="node">
<title>Node24</title>
<g id="a_node24"><a xlink:href="StateModel_8h.html" target="_top" xlink:title=" ">
<polygon fill="white" stroke="black" points="588,-302.5 588,-321.5 720,-321.5 720,-302.5 588,-302.5"/>
<text text-anchor="middle" x="654" y="-309.5" font-family="Helvetica,sans-Serif" font-size="10.00">BayesFilters/StateModel.h</text>
</a>
</g>
</g>
<!-- Node19&#45;&gt;Node24 -->
<g id="edge31" class="edge">
<title>Node19&#45;&gt;Node24</title>
<path fill="none" stroke="midnightblue" d="M831.57,-358.44C795.14,-349.12 736.77,-334.18 696.97,-324"/>
<polygon fill="midnightblue" stroke="midnightblue" points="697.83,-320.61 687.28,-321.52 696.1,-327.39 697.83,-320.61"/>
</g>
<!-- Node21 -->
<g id="node21" class="node">
<title>Node21</title>
<g id="a_node21"><a xlink:href="ExogenousProcess_8h.html" target="_top" xlink:title=" ">
<polygon fill="white" stroke="black" points="662.5,-174 662.5,-193 829.5,-193 829.5,-174 662.5,-174"/>
<text text-anchor="middle" x="746" y="-181" font-family="Helvetica,sans-Serif" font-size="10.00">BayesFilters/ExogenousProcess.h</text>
</a>
</g>
</g>
<!-- Node20&#45;&gt;Node21 -->
<g id="edge23" class="edge">
<title>Node20&#45;&gt;Node21</title>
<path fill="none" stroke="midnightblue" d="M666.41,-240.73C681.58,-230.01 707.48,-211.72 725.6,-198.91"/>
<polygon fill="midnightblue" stroke="midnightblue" points="727.64,-201.76 733.79,-193.13 723.6,-196.04 727.64,-201.76"/>
</g>
<!-- Node20&#45;&gt;Node22 -->
<g id="edge25" class="edge">
<title>Node20&#45;&gt;Node22</title>
<path fill="none" stroke="midnightblue" d="M643.48,-240.73C630.85,-230.21 609.46,-212.38 594.14,-199.62"/>
<polygon fill="midnightblue" stroke="midnightblue" points="596.28,-196.84 586.35,-193.13 591.79,-202.22 596.28,-196.84"/>
</g>
<!-- Node21&#45;&gt;Node16 -->
<g id="edge24" class="edge">
<title>Node21&#45;&gt;Node16</title>
<path fill="none" stroke="midnightblue" d="M768.06,-173.98C794.37,-163.81 838.51,-146.76 868.42,-135.2"/>
<polygon fill="midnightblue" stroke="midnightblue" points="869.91,-138.38 877.98,-131.51 867.39,-131.85 869.91,-138.38"/>
</g>
<!-- Node22&#45;&gt;Node9 -->
<g id="edge26" class="edge">
<title>Node22&#45;&gt;Node9</title>
<path fill="none" stroke="midnightblue" d="M578.87,-173.98C581.72,-165.49 586.18,-152.2 589.84,-141.32"/>
<polygon fill="midnightblue" stroke="midnightblue" points="593.27,-142.1 593.14,-131.51 586.64,-139.87 593.27,-142.1"/>
</g>
<!-- Node23&#45;&gt;Node15 -->
<g id="edge28" class="edge">
<title>Node23&#45;&gt;Node15</title>
<path fill="none" stroke="midnightblue" d="M1035.8,-235.4C1045.09,-225.16 1057.68,-211.3 1067.37,-200.62"/>
<polygon fill="midnightblue" stroke="midnightblue" points="1069.98,-202.95 1074.11,-193.19 1064.8,-198.25 1069.98,-202.95"/>
</g>
<!-- Node23&#45;&gt;Node16 -->
<g id="edge29" class="edge">
<title>Node23&#45;&gt;Node16</title>
<path fill="none" stroke="midnightblue" d="M1004.04,-235.36C991.57,-225.69 975.17,-212.27 962,-199 943.35,-180.21 924.48,-156.21 912.54,-140.26"/>
<polygon fill="midnightblue" stroke="midnightblue" points="915.12,-137.86 906.37,-131.9 909.49,-142.02 915.12,-137.86"/>
</g>
<!-- Node24&#45;&gt;Node17 -->
<g id="edge36" class="edge">
<title>Node24&#45;&gt;Node17</title>
<path fill="none" stroke="midnightblue" d="M626.7,-302.47C605.88,-295.07 577.27,-282.87 556,-266 526.47,-242.57 516.21,-234.66 504,-199 490.96,-160.94 498.33,-138.04 529,-112 641.43,-16.53 1124.56,-10.49 1261.62,-10.74"/>
<polygon fill="midnightblue" stroke="midnightblue" points="1261.97,-14.24 1271.98,-10.77 1261.99,-7.24 1261.97,-14.24"/>
</g>
<!-- Node24&#45;&gt;Node20 -->
<g id="edge32" class="edge">
<title>Node24&#45;&gt;Node20</title>
<path fill="none" stroke="midnightblue" d="M654,-302.48C654,-294.08 654,-280.98 654,-270.16"/>
<polygon fill="midnightblue" stroke="midnightblue" points="657.5,-270.01 654,-260.01 650.5,-270.01 657.5,-270.01"/>
</g>
<!-- Node24&#45;&gt;Node22 -->
<g id="edge33" class="edge">
<title>Node24&#45;&gt;Node22</title>
<path fill="none" stroke="midnightblue" d="M618.15,-302.4C599.12,-295.81 577.37,-284.59 566,-266 554.23,-246.77 560.82,-220.19 567.58,-202.68"/>
<polygon fill="midnightblue" stroke="midnightblue" points="570.96,-203.68 571.65,-193.1 564.52,-200.94 570.96,-203.68"/>
</g>
<!-- Node25 -->
<g id="node25" class="node">
<title>Node25</title>
<g id="a_node25"><a xlink:href="StateProcess_8h.html" target="_top" xlink:title=" ">
<polygon fill="white" stroke="black" points="751,-241 751,-260 893,-260 893,-241 751,-241"/>
<text text-anchor="middle" x="822" y="-248" font-family="Helvetica,sans-Serif" font-size="10.00">BayesFilters/StateProcess.h</text>
</a>
</g>
</g>
<!-- Node24&#45;&gt;Node25 -->
<g id="edge34" class="edge">
<title>Node24&#45;&gt;Node25</title>
<path fill="none" stroke="midnightblue" d="M678.07,-302.48C707.01,-292.22 755.76,-274.96 788.4,-263.4"/>
<polygon fill="midnightblue" stroke="midnightblue" points="789.72,-266.65 797.97,-260.01 787.38,-260.05 789.72,-266.65"/>
</g>
<!-- Node25&#45;&gt;Node16 -->
<g id="edge35" class="edge">
<title>Node25&#45;&gt;Node16</title>
<path fill="none" stroke="midnightblue" d="M827.36,-240.81C840.11,-220.13 872.42,-167.73 889.32,-140.32"/>
<polygon fill="midnightblue" stroke="midnightblue" points="892.33,-142.1 894.6,-131.76 886.37,-138.43 892.33,-142.1"/>
</g>
<!-- Node26&#45;&gt;Node15 -->
<g id="edge39" class="edge">
<title>Node26&#45;&gt;Node15</title>
<path fill="none" stroke="midnightblue" d="M1184.09,-240.73C1164.18,-229.77 1129.89,-210.88 1106.6,-198.05"/>
<polygon fill="midnightblue" stroke="midnightblue" points="1108.11,-194.89 1097.66,-193.13 1104.73,-201.02 1108.11,-194.89"/>
</g>
<!-- Node26&#45;&gt;Node16 -->
<g id="edge53" class="edge">
<title>Node26&#45;&gt;Node16</title>
<path fill="none" stroke="midnightblue" d="M1153.57,-240.91C1101.88,-230.86 1022.05,-213.7 995,-199 977.32,-189.39 977.51,-180.82 962,-168 948.8,-157.09 933.2,-145.77 920.95,-137.21"/>
<polygon fill="midnightblue" stroke="midnightblue" points="922.92,-134.32 912.7,-131.52 918.94,-140.08 922.92,-134.32"/>
</g>
<!-- Node27 -->
<g id="node27" class="node">
<title>Node27</title>
<g id="a_node27"><a xlink:href="MeasurementModel_8h.html" target="_top" xlink:title=" ">
<polygon fill="white" stroke="black" points="1178,-168.5 1178,-198.5 1312,-198.5 1312,-168.5 1178,-168.5"/>
<text text-anchor="start" x="1186" y="-186.5" font-family="Helvetica,sans-Serif" font-size="10.00">BayesFilters/Measurement</text>
<text text-anchor="middle" x="1245" y="-175.5" font-family="Helvetica,sans-Serif" font-size="10.00">Model.h</text>
</a>
</g>
</g>
<!-- Node26&#45;&gt;Node27 -->
<g id="edge40" class="edge">
<title>Node26&#45;&gt;Node27</title>
<path fill="none" stroke="midnightblue" d="M1206.07,-240.73C1212.03,-232.12 1221.39,-218.61 1229.43,-206.99"/>
<polygon fill="midnightblue" stroke="midnightblue" points="1232.43,-208.8 1235.25,-198.59 1226.68,-204.82 1232.43,-208.8"/>
</g>
<!-- Node27&#45;&gt;Node4 -->
<g id="edge48" class="edge">
<title>Node27&#45;&gt;Node4</title>
<path fill="none" stroke="midnightblue" d="M1198.55,-168.4C1164.54,-158.07 1118.94,-144.23 1087.07,-134.56"/>
<polygon fill="midnightblue" stroke="midnightblue" points="1087.82,-131.13 1077.23,-131.57 1085.79,-137.82 1087.82,-131.13"/>
</g>
<!-- Node27&#45;&gt;Node7 -->
<g id="edge50" class="edge">
<title>Node27&#45;&gt;Node7</title>
<path fill="none" stroke="midnightblue" d="M1177.88,-169.63C1101.33,-154.94 986.32,-132.8 984,-132 965.59,-125.64 963.2,-118.94 945,-112 896.64,-93.57 837.88,-80.06 802.79,-72.87"/>
<polygon fill="midnightblue" stroke="midnightblue" points="803.19,-69.38 792.69,-70.85 801.81,-76.25 803.19,-69.38"/>
</g>
<!-- Node27&#45;&gt;Node16 -->
<g id="edge52" class="edge">
<title>Node27&#45;&gt;Node16</title>
<path fill="none" stroke="midnightblue" d="M1177.88,-169.6C1174.88,-169.05 1171.91,-168.52 1169,-168 1072.32,-150.8 1047.8,-148.53 951,-132 949.56,-131.75 948.1,-131.5 946.62,-131.25"/>
<polygon fill="midnightblue" stroke="midnightblue" points="947.21,-127.8 936.76,-129.54 946.02,-134.7 947.21,-127.8"/>
</g>
<!-- Node27&#45;&gt;Node17 -->
<g id="edge49" class="edge">
<title>Node27&#45;&gt;Node17</title>
<path fill="none" stroke="midnightblue" d="M1248.53,-168.38C1252.17,-154.1 1258.12,-131.41 1264,-112 1272.86,-82.73 1284.45,-49.15 1291.56,-29.03"/>
<polygon fill="midnightblue" stroke="midnightblue" points="1294.86,-30.18 1294.91,-19.59 1288.26,-27.84 1294.86,-30.18"/>
</g>
<!-- Node28 -->
<g id="node28" class="node">
<title>Node28</title>
<g id="a_node28"><a xlink:href="Data_8h.html" target="_top" xlink:title=" ">
<polygon fill="white" stroke="black" points="1452,-112.5 1452,-131.5 1556,-131.5 1556,-112.5 1452,-112.5"/>
<text text-anchor="middle" x="1504" y="-119.5" font-family="Helvetica,sans-Serif" font-size="10.00">BayesFilters/Data.h</text>
</a>
</g>
</g>
<!-- Node27&#45;&gt;Node28 -->
<g id="edge41" class="edge">
<title>Node27&#45;&gt;Node28</title>
<path fill="none" stroke="midnightblue" d="M1306.05,-168.47C1352.3,-157.85 1414.88,-143.47 1457.2,-133.75"/>
<polygon fill="midnightblue" stroke="midnightblue" points="1458.01,-137.16 1466.97,-131.51 1456.44,-130.33 1458.01,-137.16"/>
</g>
<!-- Node34 -->
<g id="node34" class="node">
<title>Node34</title>
<g id="a_node34"><a xlink:title=" ">
<polygon fill="white" stroke="#bfbfbf" points="1273,-112.5 1273,-131.5 1313,-131.5 1313,-112.5 1273,-112.5"/>
<text text-anchor="middle" x="1293" y="-119.5" font-family="Helvetica,sans-Serif" font-size="10.00">utility</text>
</a>
</g>
</g>
<!-- Node27&#45;&gt;Node34 -->
<g id="edge51" class="edge">
<title>Node27&#45;&gt;Node34</title>
<path fill="none" stroke="midnightblue" d="M1256.38,-168.4C1263.35,-159.75 1272.31,-148.64 1279.63,-139.58"/>
<polygon fill="midnightblue" stroke="midnightblue" points="1282.46,-141.64 1286.02,-131.66 1277.01,-137.24 1282.46,-141.64"/>
</g>
<!-- Node29 -->
<g id="node29" class="node">
<title>Node29</title>
<g id="a_node29"><a xlink:href="any_8h.html" target="_top" xlink:title=" ">
<polygon fill="white" stroke="black" points="1453.5,-56.5 1453.5,-75.5 1550.5,-75.5 1550.5,-56.5 1453.5,-56.5"/>
<text text-anchor="middle" x="1502" y="-63.5" font-family="Helvetica,sans-Serif" font-size="10.00">BayesFilters/any.h</text>
</a>
</g>
</g>
<!-- Node28&#45;&gt;Node29 -->
<g id="edge42" class="edge">
<title>Node28&#45;&gt;Node29</title>
<path fill="none" stroke="midnightblue" d="M1503.67,-112.08C1503.41,-105.01 1503.03,-94.86 1502.7,-85.99"/>
<polygon fill="midnightblue" stroke="midnightblue" points="1506.19,-85.61 1502.32,-75.75 1499.2,-85.87 1506.19,-85.61"/>
</g>
<!-- Node29&#45;&gt;Node17 -->
<g id="edge44" class="edge">
<title>Node29&#45;&gt;Node17</title>
<path fill="none" stroke="midnightblue" d="M1469.68,-56.44C1432.65,-46.64 1372.16,-30.63 1333.76,-20.47"/>
<polygon fill="midnightblue" stroke="midnightblue" points="1334.59,-17.06 1324.02,-17.89 1332.8,-23.83 1334.59,-17.06"/>
</g>
<!-- Node30 -->
<g id="node30" class="node">
<title>Node30</title>
<g id="a_node30"><a xlink:title=" ">
<polygon fill="white" stroke="#bfbfbf" points="1436,-0.5 1436,-19.5 1492,-19.5 1492,-0.5 1436,-0.5"/>
<text text-anchor="middle" x="1464" y="-7.5" font-family="Helvetica,sans-Serif" font-size="10.00">algorithm</text>
</a>
</g>
</g>
<!-- Node29&#45;&gt;Node30 -->
<g id="edge43" class="edge">
<title>Node29&#45;&gt;Node30</title>
<path fill="none" stroke="midnightblue" d="M1495.73,-56.08C1490.36,-48.46 1482.48,-37.26 1475.92,-27.94"/>
<polygon fill="midnightblue" stroke="midnightblue" points="1478.78,-25.91 1470.16,-19.75 1473.05,-29.94 1478.78,-25.91"/>
</g>
<!-- Node31 -->
<g id="node31" class="node">
<title>Node31</title>
<g id="a_node31"><a xlink:title=" ">
<polygon fill="white" stroke="#bfbfbf" points="1510.5,-0.5 1510.5,-19.5 1569.5,-19.5 1569.5,-0.5 1510.5,-0.5"/>
<text text-anchor="middle" x="1540" y="-7.5" font-family="Helvetica,sans-Serif" font-size="10.00">stdexcept</text>
</a>
</g>
</g>
<!-- Node29&#45;&gt;Node31 -->
<g id="edge45" class="edge">
<title>Node29&#45;&gt;Node31</title>
<path fill="none" stroke="midnightblue" d="M1508.27,-56.08C1513.64,-48.46 1521.52,-37.26 1528.08,-27.94"/>
<polygon fill="midnightblue" stroke="midnightblue" points="1530.95,-29.94 1533.84,-19.75 1525.22,-25.91 1530.95,-29.94"/>
</g>
<!-- Node32 -->
<g id="node32" class="node">
<title>Node32</title>
<g id="a_node32"><a xlink:title=" ">
<polygon fill="white" stroke="#bfbfbf" points="1587.5,-0.5 1587.5,-19.5 1638.5,-19.5 1638.5,-0.5 1587.5,-0.5"/>
<text text-anchor="middle" x="1613" y="-7.5" font-family="Helvetica,sans-Serif" font-size="10.00">typeinfo</text>
</a>
</g>
</g>
<!-- Node29&#45;&gt;Node32 -->
<g id="edge46" class="edge">
<title>Node29&#45;&gt;Node32</title>
<path fill="none" stroke="midnightblue" d="M1519.83,-56.32C1537.72,-47.62 1565.48,-34.12 1586.05,-24.11"/>
<polygon fill="midnightblue" stroke="midnightblue" points="1587.75,-27.18 1595.21,-19.65 1584.69,-20.88 1587.75,-27.18"/>
</g>
<!-- Node33 -->
<g id="node33" class="node">
<title>Node33</title>
<g id="a_node33"><a xlink:title=" ">
<polygon fill="white" stroke="#bfbfbf" points="1356,-0.5 1356,-19.5 1418,-19.5 1418,-0.5 1356,-0.5"/>
<text text-anchor="middle" x="1387" y="-7.5" font-family="Helvetica,sans-Serif" font-size="10.00">type_traits</text>
</a>
</g>
</g>
<!-- Node29&#45;&gt;Node33 -->
<g id="edge47" class="edge">
<title>Node29&#45;&gt;Node33</title>
<path fill="none" stroke="midnightblue" d="M1483.78,-56.44C1465.1,-47.68 1435.84,-33.94 1414.38,-23.86"/>
<polygon fill="midnightblue" stroke="midnightblue" points="1415.68,-20.6 1405.14,-19.52 1412.7,-26.93 1415.68,-20.6"/>
</g>
</g>
</svg>
        <g id="navigator" transform="translate(0 0)" fill="#404254">
                <rect fill="#f2f5e9" fill-opacity="0.5" stroke="#606060" stroke-width=".5" x="0" y="0" width="60" height="60"/>
                <use id="zoomplus" xlink:href="#zoomPlus" x="17" y="9" onmousedown="handleZoom(evt,'in')"/>
                <use id="zoomminus" xlink:href="#zoomMin" x="42" y="9" onmousedown="handleZoom(evt,'out')"/>
                <use id="reset" xlink:href="#resetDef" x="30" y="36" onmousedown="handleReset()"/>
                <g id="arrowUp" xlink:href="#dirArrow" transform="translate(30 24)" onmousedown="handlePan(0,-1)">
                  <use xlink:href="#rim" fill="#404040">
                        <set attributeName="fill" to="#808080" begin="arrowUp.mouseover" end="arrowUp.mouseout"/>
                  </use>
                  <path fill="none" stroke="white" stroke-width="1.5" d="M0,-3.0v7 M-2.5,-0.5L0,-3.0L2.5,-0.5"/>
                </g>
                <g id="arrowRight" xlink:href="#dirArrow" transform="rotate(90) translate(36 -43)" onmousedown="handlePan(1,0)">
                  <use xlink:href="#rim" fill="#404040">
                        <set attributeName="fill" to="#808080" begin="arrowRight.mouseover" end="arrowRight.mouseout"/>
                  </use>
                  <path fill="none" stroke="white" stroke-width="1.5" d="M0,-3.0v7 M-2.5,-0.5L0,-3.0L2.5,-0.5"/>
                </g>
                <g id="arrowDown" xlink:href="#dirArrow" transform="rotate(180) translate(-30 -48)" onmousedown="handlePan(0,1)">
                  <use xlink:href="#rim" fill="#404040">
                        <set attributeName="fill" to="#808080" begin="arrowDown.mouseover" end="arrowDown.mouseout"/>
                  </use>
                  <path fill="none" stroke="white" stroke-width="1.5" d="M0,-3.0v7 M-2.5,-0.5L0,-3.0L2.5,-0.5"/>
                </g>
                <g id="arrowLeft" xlink:href="#dirArrow" transform="rotate(270) translate(-36 17)" onmousedown="handlePan(-1,0)">
                  <use xlink:href="#rim" fill="#404040">
                        <set attributeName="fill" to="#808080" begin="arrowLeft.mouseover" end="arrowLeft.mouseout"/>
                  </use>
                  <path fill="none" stroke="white" stroke-width="1.5" d="M0,-3.0v7 M-2.5,-0.5L0,-3.0L2.5,-0.5"/>
                </g>
        </g>
        <svg viewBox="0 0 15 15" width="100%" height="30px" preserveAspectRatio="xMaxYMin meet">
         <g id="arrow_out" transform="scale(0.3 0.3)">
          <a xlink:href="GaussianFilter_8h__incl_org.svg" target="_base">
           <rect id="button" ry="5" rx="5" y="6" x="6" height="38" width="38"
                fill="#f2f5e9" fill-opacity="0.5" stroke="#606060" stroke-width="1.0"/>
           <path id="arrow"
             d="M 11.500037,31.436501 C 11.940474,20.09759 22.043105,11.32322 32.158766,21.979434 L 37.068811,17.246167 C 37.068811,17.246167 37.088388,32 37.088388,32 L 22.160133,31.978069 C 22.160133,31.978069 26.997745,27.140456 26.997745,27.140456 C 18.528582,18.264221 13.291696,25.230495 11.500037,31.436501 z"
             style="fill:#404040;"/>
          </a>
         </g>
        </svg>
</svg>
