<?xml version="1.0" encoding="UTF-8" standalone="no"?>
<!DOCTYPE svg PUBLIC "-//W3C//DTD SVG 1.1//EN"
 "http://www.w3.org/Graphics/SVG/1.1/DTD/svg11.dtd">
<!-- Generated by graphviz version 2.43.0 (0)
 -->
<!-- Title: /home/user/bayes&#45;filters&#45;lib/src/BayesFilters/include/BayesFilters/GaussianPrediction.h Pages: 1 -->
<svg width="779pt" height="341pt"
 viewBox="0.00 0.00 779.00 341.00" xmlns="http://www.w3.org/2000/svg" xmlns:xlink="http://www.w3.org/1999/xlink">
<g id="graph0" class="graph" transform="scale(1 1) rotate(0) translate(4 337)">
<title>/home/user/bayes&#45;filters&#45;lib/src/BayesFilters/include/BayesFilters/GaussianPrediction.h</title>
<polygon fill="white" stroke="transparent" points="-4,4 -4,-337 775,-337 775,4 -4,4"/>
<!-- Node1 -->
<g id="node1" class="node">
<title>Node1</title>
<g id="a_node1"><a xlink:title=" ">
<polygon fill="#bfbfbf" stroke="black" points="253,-291.5 253,-332.5 438,-332.5 438,-291.5 253,-291.5"/>
<text text-anchor="start" x="261" y="-320.5" font-family="Helvetica,sans-Serif" font-size="10.00">/home/user/bayes&#45;filters</text>
<text text-anchor="start" x="261" y="-309.5" font-family="Helvetica,sans-Serif" font-size="10.00">&#45;lib/src/BayesFilters/include</text>
<text text-anchor="middle" x="345.5" y="-298.5" font-family="Helvetica,sans-Serif" font-size="10.00">/BayesFilters/GaussianPrediction.h</text>
</a>
</g>
</g>
<!-- Node2 -->
<g id="node2" class="node">
<title>Node2</title>
<g id="a_node2"><a xlink:href="ExogenousModel_8h.html" target="_top" xlink:title=" ">
<polygon fill="white" stroke="black" points="260,-174 260,-193 431,-193 431,-174 260,-174"/>
<text text-anchor="middle" x="345.5" y="-181" font-family="Helvetica,sans-Serif" font-size="10.00">BayesFilters/ExogenousModel.h</text>
</a>
</g>
</g>
<!-- Node1&#45;&gt;Node2 -->
<g id="edge1" class="edge">
<title>Node1&#45;&gt;Node2</title>
<path fill="none" stroke="midnightblue" d="M345.5,-291.23C345.5,-267.23 345.5,-227.02 345.5,-203.41"/>
<polygon fill="midnightblue" stroke="midnightblue" points="349,-203.29 345.5,-193.29 342,-203.29 349,-203.29"/>
</g>
<!-- Node6 -->
<g id="node6" class="node">
<title>Node6</title>
<g id="a_node6"><a xlink:title=" ">
<polygon fill="white" stroke="#bfbfbf" points="495,-56.5 495,-75.5 572,-75.5 572,-56.5 495,-56.5"/>
<text text-anchor="middle" x="533.5" y="-63.5" font-family="Helvetica,sans-Serif" font-size="10.00">Eigen/Dense</text>
</a>
</g>
</g>
<!-- Node1&#45;&gt;Node6 -->
<g id="edge22" class="edge">
<title>Node1&#45;&gt;Node6</title>
<path fill="none" stroke="midnightblue" d="M370.31,-291.44C407.1,-261.14 475.92,-199.3 514.5,-132 522.81,-117.5 527.75,-99.05 530.5,-85.52"/>
<polygon fill="midnightblue" stroke="midnightblue" points="533.98,-85.96 532.32,-75.5 527.09,-84.71 533.98,-85.96"/>
</g>
<!-- Node7 -->
<g id="node7" class="node">
<title>Node7</title>
<g id="a_node7"><a xlink:href="Skippable_8h.html" target="_top" xlink:title=" ">
<polygon fill="white" stroke="black" points="0,-112.5 0,-131.5 137,-131.5 137,-112.5 0,-112.5"/>
<text text-anchor="middle" x="68.5" y="-119.5" font-family="Helvetica,sans-Serif" font-size="10.00">BayesFilters/Skippable.h</text>
</a>
</g>
</g>
<!-- Node1&#45;&gt;Node7 -->
<g id="edge14" class="edge">
<title>Node1&#45;&gt;Node7</title>
<path fill="none" stroke="midnightblue" d="M252.92,-295.26C219.01,-286.77 181.41,-273.99 150.5,-255 121.56,-237.22 116.6,-227.74 98.5,-199 87.07,-180.86 78.68,-157.65 73.73,-141.68"/>
<polygon fill="midnightblue" stroke="midnightblue" points="77.04,-140.53 70.85,-131.93 70.32,-142.51 77.04,-140.53"/>
</g>
<!-- Node10 -->
<g id="node10" class="node">
<title>Node10</title>
<g id="a_node10"><a xlink:href="GaussianMixturePrediction_8h.html" target="_top" xlink:title=" ">
<polygon fill="white" stroke="black" points="561.5,-168.5 561.5,-198.5 723.5,-198.5 723.5,-168.5 561.5,-168.5"/>
<text text-anchor="start" x="569.5" y="-186.5" font-family="Helvetica,sans-Serif" font-size="10.00">BayesFilters/GaussianMixture</text>
<text text-anchor="middle" x="642.5" y="-175.5" font-family="Helvetica,sans-Serif" font-size="10.00">Prediction.h</text>
</a>
</g>
</g>
<!-- Node1&#45;&gt;Node10 -->
<g id="edge9" class="edge">
<title>Node1&#45;&gt;Node10</title>
<path fill="none" stroke="midnightblue" d="M438.1,-292.91C473.4,-284.09 513.33,-271.69 547.5,-255 574.23,-241.94 601.12,-221.1 619.43,-205.45"/>
<polygon fill="midnightblue" stroke="midnightblue" points="621.97,-207.89 627.21,-198.68 617.37,-202.61 621.97,-207.89"/>
</g>
<!-- Node13 -->
<g id="node13" class="node">
<title>Node13</title>
<g id="a_node13"><a xlink:href="StateModel_8h.html" target="_top" xlink:title=" ">
<polygon fill="white" stroke="black" points="159.5,-235.5 159.5,-254.5 303.5,-254.5 303.5,-235.5 159.5,-235.5"/>
<text text-anchor="middle" x="231.5" y="-242.5" font-family="Helvetica,sans-Serif" font-size="10.00">BayesFilters/StateModel.h</text>
</a>
</g>
</g>
<!-- Node1&#45;&gt;Node13 -->
<g id="edge15" class="edge">
<title>Node1&#45;&gt;Node13</title>
<path fill="none" stroke="midnightblue" d="M311.3,-291.5C293.31,-281.24 271.71,-268.93 255.51,-259.69"/>
<polygon fill="midnightblue" stroke="midnightblue" points="257.1,-256.57 246.68,-254.65 253.63,-262.65 257.1,-256.57"/>
</g>
<!-- Node3 -->
<g id="node3" class="node">
<title>Node3</title>
<g id="a_node3"><a xlink:href="ExogenousProcess_8h.html" target="_top" xlink:title=" ">
<polygon fill="white" stroke="black" points="326,-112.5 326,-131.5 505,-131.5 505,-112.5 326,-112.5"/>
<text text-anchor="middle" x="415.5" y="-119.5" font-family="Helvetica,sans-Serif" font-size="10.00">BayesFilters/ExogenousProcess.h</text>
</a>
</g>
</g>
<!-- Node2&#45;&gt;Node3 -->
<g id="edge2" class="edge">
<title>Node2&#45;&gt;Node3</title>
<path fill="none" stroke="midnightblue" d="M355.53,-173.98C366.55,-164.61 384.46,-149.38 397.84,-138.01"/>
<polygon fill="midnightblue" stroke="midnightblue" points="400.14,-140.65 405.49,-131.51 395.6,-135.32 400.14,-140.65"/>
</g>
<!-- Node2&#45;&gt;Node7 -->
<g id="edge6" class="edge">
<title>Node2&#45;&gt;Node7</title>
<path fill="none" stroke="midnightblue" d="M305.81,-173.98C256.34,-163.35 171.78,-145.18 118.09,-133.65"/>
<polygon fill="midnightblue" stroke="midnightblue" points="118.63,-130.19 108.11,-131.51 117.16,-137.03 118.63,-130.19"/>
</g>
<!-- Node4 -->
<g id="node4" class="node">
<title>Node4</title>
<g id="a_node4"><a xlink:href="VectorDescription_8h.html" target="_top" xlink:title=" ">
<polygon fill="white" stroke="black" points="225,-56.5 225,-75.5 400,-75.5 400,-56.5 225,-56.5"/>
<text text-anchor="middle" x="312.5" y="-63.5" font-family="Helvetica,sans-Serif" font-size="10.00">BayesFilters/VectorDescription.h</text>
</a>
</g>
</g>
<!-- Node3&#45;&gt;Node4 -->
<g id="edge3" class="edge">
<title>Node3&#45;&gt;Node4</title>
<path fill="none" stroke="midnightblue" d="M398.95,-112.32C382.51,-103.7 357.07,-90.36 338.03,-80.39"/>
<polygon fill="midnightblue" stroke="midnightblue" points="339.49,-77.2 329.01,-75.65 336.24,-83.4 339.49,-77.2"/>
</g>
<!-- Node3&#45;&gt;Node6 -->
<g id="edge5" class="edge">
<title>Node3&#45;&gt;Node6</title>
<path fill="none" stroke="midnightblue" d="M434.2,-112.44C453.44,-103.64 483.65,-89.81 505.7,-79.72"/>
<polygon fill="midnightblue" stroke="midnightblue" points="507.25,-82.86 514.89,-75.52 504.34,-76.5 507.25,-82.86"/>
</g>
<!-- Node5 -->
<g id="node5" class="node">
<title>Node5</title>
<g id="a_node5"><a xlink:title=" ">
<polygon fill="white" stroke="#bfbfbf" points="286,-0.5 286,-19.5 339,-19.5 339,-0.5 286,-0.5"/>
<text text-anchor="middle" x="312.5" y="-7.5" font-family="Helvetica,sans-Serif" font-size="10.00">cstddef</text>
</a>
</g>
</g>
<!-- Node4&#45;&gt;Node5 -->
<g id="edge4" class="edge">
<title>Node4&#45;&gt;Node5</title>
<path fill="none" stroke="midnightblue" d="M312.5,-56.08C312.5,-49.01 312.5,-38.86 312.5,-29.99"/>
<polygon fill="midnightblue" stroke="midnightblue" points="316,-29.75 312.5,-19.75 309,-29.75 316,-29.75"/>
</g>
<!-- Node8 -->
<g id="node8" class="node">
<title>Node8</title>
<g id="a_node8"><a xlink:href="Skipper_8h.html" target="_top" xlink:title=" ">
<polygon fill="white" stroke="black" points="6,-56.5 6,-75.5 131,-75.5 131,-56.5 6,-56.5"/>
<text text-anchor="middle" x="68.5" y="-63.5" font-family="Helvetica,sans-Serif" font-size="10.00">BayesFilters/Skipper.h</text>
</a>
</g>
</g>
<!-- Node7&#45;&gt;Node8 -->
<g id="edge7" class="edge">
<title>Node7&#45;&gt;Node8</title>
<path fill="none" stroke="midnightblue" d="M68.5,-112.08C68.5,-105.01 68.5,-94.86 68.5,-85.99"/>
<polygon fill="midnightblue" stroke="midnightblue" points="72,-85.75 68.5,-75.75 65,-85.75 72,-85.75"/>
</g>
<!-- Node9 -->
<g id="node9" class="node">
<title>Node9</title>
<g id="a_node9"><a xlink:title=" ">
<polygon fill="white" stroke="#bfbfbf" points="46.5,-0.5 46.5,-19.5 90.5,-19.5 90.5,-0.5 46.5,-0.5"/>
<text text-anchor="middle" x="68.5" y="-7.5" font-family="Helvetica,sans-Serif" font-size="10.00">string</text>
</a>
</g>
</g>
<!-- Node8&#45;&gt;Node9 -->
<g id="edge8" class="edge">
<title>Node8&#45;&gt;Node9</title>
<path fill="none" stroke="midnightblue" d="M68.5,-56.08C68.5,-49.01 68.5,-38.86 68.5,-29.99"/>
<polygon fill="midnightblue" stroke="midnightblue" points="72,-29.75 68.5,-19.75 65,-29.75 72,-29.75"/>
</g>
<!-- Node10&#45;&gt;Node6 -->
<g id="edge13" class="edge">
<title>Node10&#45;&gt;Node6</title>
<path fill="none" stroke="midnightblue" d="M627.53,-168.15C617.23,-158.17 603.34,-144.47 591.5,-132 576.12,-115.8 559.19,-96.67 547.61,-83.37"/>
<polygon fill="midnightblue" stroke="midnightblue" points="550.04,-80.83 540.84,-75.56 544.75,-85.41 550.04,-80.83"/>
</g>
<!-- Node11 -->
<g id="node11" class="node">
<title>Node11</title>
<g id="a_node11"><a xlink:href="GaussianMixture_8h.html" target="_top" xlink:title=" ">
<polygon fill="white" stroke="black" points="600,-112.5 600,-131.5 771,-131.5 771,-112.5 600,-112.5"/>
<text text-anchor="middle" x="685.5" y="-119.5" font-family="Helvetica,sans-Serif" font-size="10.00">BayesFilters/GaussianMixture.h</text>
</a>
</g>
</g>
<!-- Node10&#45;&gt;Node11 -->
<g id="edge10" class="edge">
<title>Node10&#45;&gt;Node11</title>
<path fill="none" stroke="midnightblue" d="M652.69,-168.4C658.87,-159.84 666.8,-148.87 673.32,-139.86"/>
<polygon fill="midnightblue" stroke="midnightblue" points="676.22,-141.81 679.24,-131.66 670.55,-137.71 676.22,-141.81"/>
</g>
<!-- Node11&#45;&gt;Node6 -->
<g id="edge12" class="edge">
<title>Node11&#45;&gt;Node6</title>
<path fill="none" stroke="midnightblue" d="M661.42,-112.44C635.96,-103.4 595.61,-89.06 567.04,-78.92"/>
<polygon fill="midnightblue" stroke="midnightblue" points="568.07,-75.57 557.47,-75.52 565.72,-82.16 568.07,-75.57"/>
</g>
<!-- Node12 -->
<g id="node12" class="node">
<title>Node12</title>
<g id="a_node12"><a xlink:title=" ">
<polygon fill="white" stroke="#bfbfbf" points="662,-56.5 662,-75.5 709,-75.5 709,-56.5 662,-56.5"/>
<text text-anchor="middle" x="685.5" y="-63.5" font-family="Helvetica,sans-Serif" font-size="10.00">vector</text>
</a>
</g>
</g>
<!-- Node11&#45;&gt;Node12 -->
<g id="edge11" class="edge">
<title>Node11&#45;&gt;Node12</title>
<path fill="none" stroke="midnightblue" d="M685.5,-112.08C685.5,-105.01 685.5,-94.86 685.5,-85.99"/>
<polygon fill="midnightblue" stroke="midnightblue" points="689,-85.75 685.5,-75.75 682,-85.75 689,-85.75"/>
</g>
<!-- Node13&#45;&gt;Node2 -->
<g id="edge16" class="edge">
<title>Node13&#45;&gt;Node2</title>
<path fill="none" stroke="midnightblue" d="M247.83,-235.48C266.71,-225.62 298.01,-209.29 320.08,-197.77"/>
<polygon fill="midnightblue" stroke="midnightblue" points="321.95,-200.74 329.2,-193.01 318.71,-194.53 321.95,-200.74"/>
</g>
<!-- Node13&#45;&gt;Node7 -->
<g id="edge17" class="edge">
<title>Node13&#45;&gt;Node7</title>
<path fill="none" stroke="midnightblue" d="M227.01,-235.3C218.62,-219.83 199.17,-187.32 174.5,-168 155.34,-153 130.44,-142.09 109.58,-134.77"/>
<polygon fill="midnightblue" stroke="midnightblue" points="110.61,-131.42 100.02,-131.56 108.39,-138.06 110.61,-131.42"/>
</g>
<!-- Node14 -->
<g id="node14" class="node">
<title>Node14</title>
<g id="a_node14"><a xlink:href="StateProcess_8h.html" target="_top" xlink:title=" ">
<polygon fill="white" stroke="black" points="155.5,-112.5 155.5,-131.5 307.5,-131.5 307.5,-112.5 155.5,-112.5"/>
<text text-anchor="middle" x="231.5" y="-119.5" font-family="Helvetica,sans-Serif" font-size="10.00">BayesFilters/StateProcess.h</text>
</a>
</g>
</g>
<!-- Node13&#45;&gt;Node14 -->
<g id="edge18" class="edge">
<title>Node13&#45;&gt;Node14</title>
<path fill="none" stroke="midnightblue" d="M231.5,-235.3C231.5,-215.85 231.5,-168.49 231.5,-141.9"/>
<polygon fill="midnightblue" stroke="midnightblue" points="235,-141.62 231.5,-131.62 228,-141.62 235,-141.62"/>
</g>
<!-- Node15 -->
<g id="node15" class="node">
<title>Node15</title>
<g id="a_node15"><a xlink:title=" ">
<polygon fill="white" stroke="#bfbfbf" points="107.5,-174 107.5,-193 165.5,-193 165.5,-174 107.5,-174"/>
<text text-anchor="middle" x="136.5" y="-181" font-family="Helvetica,sans-Serif" font-size="10.00">memory</text>
</a>
</g>
</g>
<!-- Node13&#45;&gt;Node15 -->
<g id="edge21" class="edge">
<title>Node13&#45;&gt;Node15</title>
<path fill="none" stroke="midnightblue" d="M217.89,-235.48C202.44,-225.8 177.01,-209.87 158.68,-198.39"/>
<polygon fill="midnightblue" stroke="midnightblue" points="160.42,-195.35 150.09,-193.01 156.7,-201.28 160.42,-195.35"/>
</g>
<!-- Node14&#45;&gt;Node4 -->
<g id="edge19" class="edge">
<title>Node14&#45;&gt;Node4</title>
<path fill="none" stroke="midnightblue" d="M244.51,-112.32C257.03,-103.98 276.18,-91.21 290.97,-81.35"/>
<polygon fill="midnightblue" stroke="midnightblue" points="293.14,-84.11 299.52,-75.65 289.26,-78.29 293.14,-84.11"/>
</g>
<!-- Node14&#45;&gt;Node6 -->
<g id="edge20" class="edge">
<title>Node14&#45;&gt;Node6</title>
<path fill="none" stroke="midnightblue" d="M279.35,-112.44C335.56,-102.39 428.3,-85.81 484.85,-75.7"/>
<polygon fill="midnightblue" stroke="midnightblue" points="485.75,-79.09 494.97,-73.89 484.51,-72.2 485.75,-79.09"/>
</g>
</g>
</svg>
