<?xml version="1.0" encoding="UTF-8" standalone="no"?>
<!DOCTYPE svg PUBLIC "-//W3C//DTD SVG 1.1//EN"
 "http://www.w3.org/Graphics/SVG/1.1/DTD/svg11.dtd">
<!-- Generated by graphviz version 2.43.0 (0)
 -->
<!-- Title: /home/user/bayes&#45;filters&#45;lib/src/BayesFilters/src/GaussianCorrection.cpp Pages: 1 -->
<svg width="952pt" height="341pt"
 viewBox="0.00 0.00 951.50 341.00" xmlns="http://www.w3.org/2000/svg" xmlns:xlink="http://www.w3.org/1999/xlink">
<g id="graph0" class="graph" transform="scale(1 1) rotate(0) translate(4 337)">
<title>/home/user/bayes&#45;filters&#45;lib/src/BayesFilters/src/GaussianCorrection.cpp</title>
<polygon fill="white" stroke="transparent" points="-4,4 -4,-337 947.5,-337 947.5,4 -4,4"/>
<!-- Node1 -->
<g id="node1" class="node">
<title>Node1</title>
<g id="a_node1"><a xlink:title=" ">
<polygon fill="#bfbfbf" stroke="black" points="203,-291.5 203,-332.5 338,-332.5 338,-291.5 203,-291.5"/>
<text text-anchor="start" x="211" y="-320.5" font-family="Helvetica,sans-Serif" font-size="10.00">/home/user/bayes&#45;filters</text>
<text text-anchor="start" x="211" y="-309.5" font-family="Helvetica,sans-Serif" font-size="10.00">&#45;lib/src/BayesFilters/src</text>
<text text-anchor="middle" x="270.5" y="-298.5" font-family="Helvetica,sans-Serif" font-size="10.00">/GaussianCorrection.cpp</text>
</a>
</g>
</g>
<!-- Node2 -->
<g id="node2" class="node">
<title>Node2</title>
<g id="a_node2"><a xlink:href="GaussianCorrection_8h.html" target="_top" xlink:title=" ">
<polygon fill="white" stroke="black" points="107.5,-235.5 107.5,-254.5 291.5,-254.5 291.5,-235.5 107.5,-235.5"/>
<text text-anchor="middle" x="199.5" y="-242.5" font-family="Helvetica,sans-Serif" font-size="10.00">BayesFilters/GaussianCorrection.h</text>
</a>
</g>
</g>
<!-- Node1&#45;&gt;Node2 -->
<g id="edge1" class="edge">
<title>Node1&#45;&gt;Node2</title>
<path fill="none" stroke="midnightblue" d="M249.2,-291.5C238.73,-281.92 226.29,-270.53 216.48,-261.54"/>
<polygon fill="midnightblue" stroke="midnightblue" points="218.69,-258.82 208.95,-254.65 213.96,-263.99 218.69,-258.82"/>
</g>
<!-- Node21 -->
<g id="node21" class="node">
<title>Node21</title>
<g id="a_node21"><a xlink:title=" ">
<polygon fill="white" stroke="#bfbfbf" points="310,-235.5 310,-254.5 375,-254.5 375,-235.5 310,-235.5"/>
<text text-anchor="middle" x="342.5" y="-242.5" font-family="Helvetica,sans-Serif" font-size="10.00">exception</text>
</a>
</g>
</g>
<!-- Node1&#45;&gt;Node21 -->
<g id="edge25" class="edge">
<title>Node1&#45;&gt;Node21</title>
<path fill="none" stroke="midnightblue" d="M292.1,-291.5C302.72,-281.92 315.33,-270.53 325.28,-261.54"/>
<polygon fill="midnightblue" stroke="midnightblue" points="327.84,-263.95 332.92,-254.65 323.15,-258.76 327.84,-263.95"/>
</g>
<!-- Node3 -->
<g id="node3" class="node">
<title>Node3</title>
<g id="a_node3"><a xlink:href="GaussianMixture_8h.html" target="_top" xlink:title=" ">
<polygon fill="white" stroke="black" points="0,-174 0,-193 171,-193 171,-174 0,-174"/>
<text text-anchor="middle" x="85.5" y="-181" font-family="Helvetica,sans-Serif" font-size="10.00">BayesFilters/GaussianMixture.h</text>
</a>
</g>
</g>
<!-- Node2&#45;&gt;Node3 -->
<g id="edge2" class="edge">
<title>Node2&#45;&gt;Node3</title>
<path fill="none" stroke="midnightblue" d="M183.17,-235.48C164.29,-225.62 132.99,-209.29 110.92,-197.77"/>
<polygon fill="midnightblue" stroke="midnightblue" points="112.29,-194.53 101.8,-193.01 109.05,-200.74 112.29,-194.53"/>
</g>
<!-- Node5 -->
<g id="node5" class="node">
<title>Node5</title>
<g id="a_node5"><a xlink:title=" ">
<polygon fill="white" stroke="#bfbfbf" points="66,-112.5 66,-131.5 143,-131.5 143,-112.5 66,-112.5"/>
<text text-anchor="middle" x="104.5" y="-119.5" font-family="Helvetica,sans-Serif" font-size="10.00">Eigen/Dense</text>
</a>
</g>
</g>
<!-- Node2&#45;&gt;Node5 -->
<g id="edge24" class="edge">
<title>Node2&#45;&gt;Node5</title>
<path fill="none" stroke="midnightblue" d="M199.28,-235.1C198.47,-219.89 194.9,-188.51 179.5,-168 168.88,-153.85 152.4,-143.26 137.59,-135.92"/>
<polygon fill="midnightblue" stroke="midnightblue" points="138.72,-132.59 128.17,-131.56 135.78,-138.94 138.72,-132.59"/>
</g>
<!-- Node6 -->
<g id="node6" class="node">
<title>Node6</title>
<g id="a_node6"><a xlink:href="MeasurementModel_8h.html" target="_top" xlink:title=" ">
<polygon fill="white" stroke="black" points="256,-168.5 256,-198.5 403,-198.5 403,-168.5 256,-168.5"/>
<text text-anchor="start" x="264" y="-186.5" font-family="Helvetica,sans-Serif" font-size="10.00">BayesFilters/Measurement</text>
<text text-anchor="middle" x="329.5" y="-175.5" font-family="Helvetica,sans-Serif" font-size="10.00">Model.h</text>
</a>
</g>
</g>
<!-- Node2&#45;&gt;Node6 -->
<g id="edge5" class="edge">
<title>Node2&#45;&gt;Node6</title>
<path fill="none" stroke="midnightblue" d="M218.13,-235.48C236.72,-226.96 265.88,-213.62 289.7,-202.72"/>
<polygon fill="midnightblue" stroke="midnightblue" points="291.23,-205.87 298.86,-198.52 288.31,-199.5 291.23,-205.87"/>
</g>
<!-- Node4 -->
<g id="node4" class="node">
<title>Node4</title>
<g id="a_node4"><a xlink:title=" ">
<polygon fill="white" stroke="#bfbfbf" points="37,-56.5 37,-75.5 84,-75.5 84,-56.5 37,-56.5"/>
<text text-anchor="middle" x="60.5" y="-63.5" font-family="Helvetica,sans-Serif" font-size="10.00">vector</text>
</a>
</g>
</g>
<!-- Node3&#45;&gt;Node4 -->
<g id="edge3" class="edge">
<title>Node3&#45;&gt;Node4</title>
<path fill="none" stroke="midnightblue" d="M78.61,-173.83C71.47,-164.24 60.77,-148.02 56.5,-132 52.44,-116.79 53.98,-98.9 56.23,-85.74"/>
<polygon fill="midnightblue" stroke="midnightblue" points="59.73,-86.08 58.27,-75.59 52.87,-84.7 59.73,-86.08"/>
</g>
<!-- Node3&#45;&gt;Node5 -->
<g id="edge4" class="edge">
<title>Node3&#45;&gt;Node5</title>
<path fill="none" stroke="midnightblue" d="M88.22,-173.98C90.93,-165.49 95.17,-152.2 98.65,-141.32"/>
<polygon fill="midnightblue" stroke="midnightblue" points="102.07,-142.1 101.78,-131.51 95.41,-139.97 102.07,-142.1"/>
</g>
<!-- Node6&#45;&gt;Node5 -->
<g id="edge23" class="edge">
<title>Node6&#45;&gt;Node5</title>
<path fill="none" stroke="midnightblue" d="M276.46,-168.47C236.8,-157.99 183.29,-143.84 146.56,-134.12"/>
<polygon fill="midnightblue" stroke="midnightblue" points="147.23,-130.68 136.67,-131.51 145.44,-137.45 147.23,-130.68"/>
</g>
<!-- Node7 -->
<g id="node7" class="node">
<title>Node7</title>
<g id="a_node7"><a xlink:href="Data_8h.html" target="_top" xlink:title=" ">
<polygon fill="white" stroke="black" points="670.5,-112.5 670.5,-131.5 782.5,-131.5 782.5,-112.5 670.5,-112.5"/>
<text text-anchor="middle" x="726.5" y="-119.5" font-family="Helvetica,sans-Serif" font-size="10.00">BayesFilters/Data.h</text>
</a>
</g>
</g>
<!-- Node6&#45;&gt;Node7 -->
<g id="edge6" class="edge">
<title>Node6&#45;&gt;Node7</title>
<path fill="none" stroke="midnightblue" d="M403.24,-171.45C476.98,-160.4 589.34,-143.56 660.29,-132.92"/>
<polygon fill="midnightblue" stroke="midnightblue" points="661.08,-136.34 670.45,-131.4 660.05,-129.42 661.08,-136.34"/>
</g>
<!-- Node10 -->
<g id="node10" class="node">
<title>Node10</title>
<g id="a_node10"><a xlink:title=" ">
<polygon fill="white" stroke="#bfbfbf" points="557.5,-0.5 557.5,-19.5 615.5,-19.5 615.5,-0.5 557.5,-0.5"/>
<text text-anchor="middle" x="586.5" y="-7.5" font-family="Helvetica,sans-Serif" font-size="10.00">memory</text>
</a>
</g>
</g>
<!-- Node6&#45;&gt;Node10 -->
<g id="edge20" class="edge">
<title>Node6&#45;&gt;Node10</title>
<path fill="none" stroke="midnightblue" d="M403.3,-178.19C470.84,-172.52 563.64,-159.79 586.5,-132 610.44,-102.9 600.83,-55.17 592.93,-29.21"/>
<polygon fill="midnightblue" stroke="midnightblue" points="596.2,-27.94 589.76,-19.53 589.55,-30.13 596.2,-27.94"/>
</g>
<!-- Node14 -->
<g id="node14" class="node">
<title>Node14</title>
<g id="a_node14"><a xlink:href="Logger_8h.html" target="_top" xlink:title=" ">
<polygon fill="white" stroke="black" points="161,-112.5 161,-131.5 282,-131.5 282,-112.5 161,-112.5"/>
<text text-anchor="middle" x="221.5" y="-119.5" font-family="Helvetica,sans-Serif" font-size="10.00">BayesFilters/Logger.h</text>
</a>
</g>
</g>
<!-- Node6&#45;&gt;Node14 -->
<g id="edge13" class="edge">
<title>Node6&#45;&gt;Node14</title>
<path fill="none" stroke="midnightblue" d="M303.91,-168.4C286.43,-158.77 263.41,-146.09 246.14,-136.58"/>
<polygon fill="midnightblue" stroke="midnightblue" points="247.66,-133.42 237.21,-131.66 244.28,-139.55 247.66,-133.42"/>
</g>
<!-- Node17 -->
<g id="node17" class="node">
<title>Node17</title>
<g id="a_node17"><a xlink:title=" ">
<polygon fill="white" stroke="#bfbfbf" points="278.5,-56.5 278.5,-75.5 322.5,-75.5 322.5,-56.5 278.5,-56.5"/>
<text text-anchor="middle" x="300.5" y="-63.5" font-family="Helvetica,sans-Serif" font-size="10.00">string</text>
</a>
</g>
</g>
<!-- Node6&#45;&gt;Node17 -->
<g id="edge21" class="edge">
<title>Node6&#45;&gt;Node17</title>
<path fill="none" stroke="midnightblue" d="M325.94,-168.34C320.72,-147.53 310.96,-108.66 305.17,-85.58"/>
<polygon fill="midnightblue" stroke="midnightblue" points="308.51,-84.52 302.68,-75.67 301.72,-86.22 308.51,-84.52"/>
</g>
<!-- Node18 -->
<g id="node18" class="node">
<title>Node18</title>
<g id="a_node18"><a xlink:href="VectorDescription_8h.html" target="_top" xlink:title=" ">
<polygon fill="white" stroke="black" points="339,-112.5 339,-131.5 514,-131.5 514,-112.5 339,-112.5"/>
<text text-anchor="middle" x="426.5" y="-119.5" font-family="Helvetica,sans-Serif" font-size="10.00">BayesFilters/VectorDescription.h</text>
</a>
</g>
</g>
<!-- Node6&#45;&gt;Node18 -->
<g id="edge18" class="edge">
<title>Node6&#45;&gt;Node18</title>
<path fill="none" stroke="midnightblue" d="M352.49,-168.4C367.89,-158.95 388.09,-146.56 403.5,-137.11"/>
<polygon fill="midnightblue" stroke="midnightblue" points="405.69,-139.87 412.39,-131.66 402.03,-133.9 405.69,-139.87"/>
</g>
<!-- Node20 -->
<g id="node20" class="node">
<title>Node20</title>
<g id="a_node20"><a xlink:title=" ">
<polygon fill="white" stroke="#bfbfbf" points="532,-112.5 532,-131.5 577,-131.5 577,-112.5 532,-112.5"/>
<text text-anchor="middle" x="554.5" y="-119.5" font-family="Helvetica,sans-Serif" font-size="10.00">utility</text>
</a>
</g>
</g>
<!-- Node6&#45;&gt;Node20 -->
<g id="edge22" class="edge">
<title>Node6&#45;&gt;Node20</title>
<path fill="none" stroke="midnightblue" d="M385.22,-168.43C421.7,-159.12 470.66,-146.44 521.9,-132.39"/>
<polygon fill="midnightblue" stroke="midnightblue" points="523.12,-135.69 531.83,-129.66 521.26,-128.94 523.12,-135.69"/>
</g>
<!-- Node8 -->
<g id="node8" class="node">
<title>Node8</title>
<g id="a_node8"><a xlink:href="any_8h.html" target="_top" xlink:title=" ">
<polygon fill="white" stroke="black" points="683,-56.5 683,-75.5 788,-75.5 788,-56.5 683,-56.5"/>
<text text-anchor="middle" x="735.5" y="-63.5" font-family="Helvetica,sans-Serif" font-size="10.00">BayesFilters/any.h</text>
</a>
</g>
</g>
<!-- Node7&#45;&gt;Node8 -->
<g id="edge7" class="edge">
<title>Node7&#45;&gt;Node8</title>
<path fill="none" stroke="midnightblue" d="M727.99,-112.08C729.18,-104.93 730.89,-94.64 732.38,-85.69"/>
<polygon fill="midnightblue" stroke="midnightblue" points="735.85,-86.19 734.04,-75.75 728.95,-85.04 735.85,-86.19"/>
</g>
<!-- Node9 -->
<g id="node9" class="node">
<title>Node9</title>
<g id="a_node9"><a xlink:title=" ">
<polygon fill="white" stroke="#bfbfbf" points="879.5,-0.5 879.5,-19.5 943.5,-19.5 943.5,-0.5 879.5,-0.5"/>
<text text-anchor="middle" x="911.5" y="-7.5" font-family="Helvetica,sans-Serif" font-size="10.00">algorithm</text>
</a>
</g>
</g>
<!-- Node8&#45;&gt;Node9 -->
<g id="edge8" class="edge">
<title>Node8&#45;&gt;Node9</title>
<path fill="none" stroke="midnightblue" d="M763.39,-56.44C793.25,-47.28 840.81,-32.69 873.96,-22.52"/>
<polygon fill="midnightblue" stroke="midnightblue" points="875.21,-25.8 883.74,-19.52 873.16,-19.1 875.21,-25.8"/>
</g>
<!-- Node8&#45;&gt;Node10 -->
<g id="edge9" class="edge">
<title>Node8&#45;&gt;Node10</title>
<path fill="none" stroke="midnightblue" d="M711.89,-56.44C687.04,-47.44 647.73,-33.19 619.75,-23.05"/>
<polygon fill="midnightblue" stroke="midnightblue" points="620.59,-19.63 610,-19.52 618.21,-26.21 620.59,-19.63"/>
</g>
<!-- Node11 -->
<g id="node11" class="node">
<title>Node11</title>
<g id="a_node11"><a xlink:title=" ">
<polygon fill="white" stroke="#bfbfbf" points="634,-0.5 634,-19.5 699,-19.5 699,-0.5 634,-0.5"/>
<text text-anchor="middle" x="666.5" y="-7.5" font-family="Helvetica,sans-Serif" font-size="10.00">stdexcept</text>
</a>
</g>
</g>
<!-- Node8&#45;&gt;Node11 -->
<g id="edge10" class="edge">
<title>Node8&#45;&gt;Node11</title>
<path fill="none" stroke="midnightblue" d="M724.41,-56.32C714.01,-48.18 698.24,-35.84 685.78,-26.09"/>
<polygon fill="midnightblue" stroke="midnightblue" points="687.82,-23.24 677.79,-19.83 683.51,-28.75 687.82,-23.24"/>
</g>
<!-- Node12 -->
<g id="node12" class="node">
<title>Node12</title>
<g id="a_node12"><a xlink:title=" ">
<polygon fill="white" stroke="#bfbfbf" points="717,-0.5 717,-19.5 774,-19.5 774,-0.5 717,-0.5"/>
<text text-anchor="middle" x="745.5" y="-7.5" font-family="Helvetica,sans-Serif" font-size="10.00">typeinfo</text>
</a>
</g>
</g>
<!-- Node8&#45;&gt;Node12 -->
<g id="edge11" class="edge">
<title>Node8&#45;&gt;Node12</title>
<path fill="none" stroke="midnightblue" d="M737.15,-56.08C738.48,-48.93 740.38,-38.64 742.04,-29.69"/>
<polygon fill="midnightblue" stroke="midnightblue" points="745.5,-30.22 743.88,-19.75 738.62,-28.95 745.5,-30.22"/>
</g>
<!-- Node13 -->
<g id="node13" class="node">
<title>Node13</title>
<g id="a_node13"><a xlink:title=" ">
<polygon fill="white" stroke="#bfbfbf" points="792,-0.5 792,-19.5 861,-19.5 861,-0.5 792,-0.5"/>
<text text-anchor="middle" x="826.5" y="-7.5" font-family="Helvetica,sans-Serif" font-size="10.00">type_traits</text>
</a>
</g>
</g>
<!-- Node8&#45;&gt;Node13 -->
<g id="edge12" class="edge">
<title>Node8&#45;&gt;Node13</title>
<path fill="none" stroke="midnightblue" d="M750.12,-56.32C764.45,-47.82 786.51,-34.73 803.25,-24.8"/>
<polygon fill="midnightblue" stroke="midnightblue" points="805.1,-27.77 811.92,-19.65 801.53,-21.75 805.1,-27.77"/>
</g>
<!-- Node14&#45;&gt;Node4 -->
<g id="edge17" class="edge">
<title>Node14&#45;&gt;Node4</title>
<path fill="none" stroke="midnightblue" d="M195.99,-112.44C168.35,-103.17 124.13,-88.34 93.78,-78.16"/>
<polygon fill="midnightblue" stroke="midnightblue" points="94.65,-74.76 84.06,-74.9 92.43,-81.4 94.65,-74.76"/>
</g>
<!-- Node15 -->
<g id="node15" class="node">
<title>Node15</title>
<g id="a_node15"><a xlink:title=" ">
<polygon fill="white" stroke="#bfbfbf" points="199,-56.5 199,-75.5 254,-75.5 254,-56.5 199,-56.5"/>
<text text-anchor="middle" x="226.5" y="-63.5" font-family="Helvetica,sans-Serif" font-size="10.00">fstream</text>
</a>
</g>
</g>
<!-- Node14&#45;&gt;Node15 -->
<g id="edge14" class="edge">
<title>Node14&#45;&gt;Node15</title>
<path fill="none" stroke="midnightblue" d="M222.33,-112.08C222.98,-105.01 223.92,-94.86 224.74,-85.99"/>
<polygon fill="midnightblue" stroke="midnightblue" points="228.25,-86.03 225.69,-75.75 221.28,-85.39 228.25,-86.03"/>
</g>
<!-- Node16 -->
<g id="node16" class="node">
<title>Node16</title>
<g id="a_node16"><a xlink:title=" ">
<polygon fill="white" stroke="#bfbfbf" points="120.5,-56.5 120.5,-75.5 180.5,-75.5 180.5,-56.5 120.5,-56.5"/>
<text text-anchor="middle" x="150.5" y="-63.5" font-family="Helvetica,sans-Serif" font-size="10.00">iostream</text>
</a>
</g>
</g>
<!-- Node14&#45;&gt;Node16 -->
<g id="edge15" class="edge">
<title>Node14&#45;&gt;Node16</title>
<path fill="none" stroke="midnightblue" d="M210.09,-112.32C199.39,-104.18 183.16,-91.84 170.34,-82.09"/>
<polygon fill="midnightblue" stroke="midnightblue" points="172.19,-79.1 162.11,-75.83 167.96,-84.67 172.19,-79.1"/>
</g>
<!-- Node14&#45;&gt;Node17 -->
<g id="edge16" class="edge">
<title>Node14&#45;&gt;Node17</title>
<path fill="none" stroke="midnightblue" d="M234.19,-112.32C246.4,-103.98 265.08,-91.21 279.5,-81.35"/>
<polygon fill="midnightblue" stroke="midnightblue" points="281.56,-84.19 287.84,-75.65 277.61,-78.41 281.56,-84.19"/>
</g>
<!-- Node19 -->
<g id="node19" class="node">
<title>Node19</title>
<g id="a_node19"><a xlink:title=" ">
<polygon fill="white" stroke="#bfbfbf" points="400,-56.5 400,-75.5 453,-75.5 453,-56.5 400,-56.5"/>
<text text-anchor="middle" x="426.5" y="-63.5" font-family="Helvetica,sans-Serif" font-size="10.00">cstddef</text>
</a>
</g>
</g>
<!-- Node18&#45;&gt;Node19 -->
<g id="edge19" class="edge">
<title>Node18&#45;&gt;Node19</title>
<path fill="none" stroke="midnightblue" d="M426.5,-112.08C426.5,-105.01 426.5,-94.86 426.5,-85.99"/>
<polygon fill="midnightblue" stroke="midnightblue" points="430,-85.75 426.5,-75.75 423,-85.75 430,-85.75"/>
</g>
</g>
</svg>
