<?xml version="1.0" encoding="UTF-8" standalone="no"?>
<!DOCTYPE svg PUBLIC "-//W3C//DTD SVG 1.1//EN"
 "http://www.w3.org/Graphics/SVG/1.1/DTD/svg11.dtd">
<!-- Generated by graphviz version 2.43.0 (0)
 -->
<!-- Title: /home/user/bayes&#45;filters&#45;lib/src/BayesFilters/include/BayesFilters/GaussianCorrection.h Pages: 1 -->
<!--zoomable 206 -->
<svg id="main" version="1.1" xmlns="http://www.w3.org/2000/svg" xmlns:xlink="http://www.w3.org/1999/xlink" xml:space="preserve" onload="init(evt)">
<style type="text/css"><![CDATA[
.edge:hover path { stroke: red; }
.edge:hover polygon { stroke: red; fill: red; }
]]></style>
<script type="text/javascript"><![CDATA[
var edges = document.getElementsByTagName('g');
if (edges && edges.length) {
  for (var i=0;i<edges.length;i++) {
    if (edges[i].id.substr(0,4)=='edge') {
      edges[i].setAttribute('class','edge');
    }
  }
}
]]></script>
        <defs>
                <circle id="rim" cx="0" cy="0" r="7"/>
                <circle id="rim2" cx="0" cy="0" r="3.5"/>
                <g id="zoomPlus">
                        <use xlink:href="#rim" fill="#404040">
                                <set attributeName="fill" to="#808080" begin="zoomplus.mouseover" end="zoomplus.mouseout"/>
                        </use>
                        <path d="M-4,0h8M0,-4v8" fill="none" stroke="white" stroke-width="1.5" pointer-events="none"/>
                </g>
                <g id="zoomMin">
                        <use xlink:href="#rim" fill="#404040">
                                <set attributeName="fill" to="#808080" begin="zoomminus.mouseover" end="zoomminus.mouseout"/>
                        </use>
                        <path d="M-4,0h8" fill="none" stroke="white" stroke-width="1.5" pointer-events="none"/>
                </g>
                <g id="dirArrow">
                        <path fill="none" stroke="white" stroke-width="1.5" d="M0,-3.0v7 M-2.5,-0.5L0,-3.0L2.5,-0.5"/>
                </g>
               <g id="resetDef">
                       <use xlink:href="#rim2" fill="#404040">
                               <set attributeName="fill" to="#808080" begin="reset.mouseover" end="reset.mouseout"/>
                       </use>
               </g>
        </defs>

<script type="text/javascript">
var viewWidth = 1041;
var viewHeight = 206;
var sectionId = 'dynsection-1';
</script>
<script xlink:href="svgpan.js"/>
<svg id="graph" class="graph">
<g id="viewport">
<title>/home/user/bayes&#45;filters&#45;lib/src/BayesFilters/include/BayesFilters/GaussianCorrection.h</title>
<polygon fill="white" stroke="transparent" points="-4,4 -4,-202 1037,-202 1037,4 -4,4"/>
<!-- Node1 -->
<g id="node1" class="node">
<title>Node1</title>
<g id="a_node1"><a xlink:title=" ">
<polygon fill="#bfbfbf" stroke="black" points="432,-156.5 432,-197.5 619,-197.5 619,-156.5 432,-156.5"/>
<text text-anchor="start" x="440" y="-185.5" font-family="Helvetica,sans-Serif" font-size="10.00">/home/user/bayes&#45;filters</text>
<text text-anchor="start" x="440" y="-174.5" font-family="Helvetica,sans-Serif" font-size="10.00">&#45;lib/src/BayesFilters/include</text>
<text text-anchor="middle" x="525.5" y="-163.5" font-family="Helvetica,sans-Serif" font-size="10.00">/BayesFilters/GaussianCorrection.h</text>
</a>
</g>
</g>
<!-- Node2 -->
<g id="node2" class="node">
<title>Node2</title>
<g id="a_node2"><a xlink:href="GaussianFilter_8h.html" target="_top" xlink:title=" ">
<polygon fill="white" stroke="black" points="0,-78.5 0,-119.5 161,-119.5 161,-78.5 0,-78.5"/>
<text text-anchor="start" x="8" y="-107.5" font-family="Helvetica,sans-Serif" font-size="10.00">/home/user/bayes&#45;filters</text>
<text text-anchor="start" x="8" y="-96.5" font-family="Helvetica,sans-Serif" font-size="10.00">&#45;lib/src/BayesFilters/include</text>
<text text-anchor="middle" x="80.5" y="-85.5" font-family="Helvetica,sans-Serif" font-size="10.00">/BayesFilters/GaussianFilter.h</text>
</a>
</g>
</g>
<!-- Node1&#45;&gt;Node2 -->
<g id="edge1" class="edge">
<title>Node1&#45;&gt;Node2</title>
<path fill="none" stroke="midnightblue" d="M421.58,-161.47C350.42,-151.08 254,-136.12 169.5,-120 166.86,-119.5 164.17,-118.97 161.46,-118.43"/>
<polygon fill="midnightblue" stroke="midnightblue" points="421.49,-165 431.89,-162.97 422.5,-158.07 421.49,-165"/>
</g>
<!-- Node4 -->
<g id="node4" class="node">
<title>Node4</title>
<g id="a_node4"><a xlink:href="GPFCorrection_8h.html" target="_top" xlink:title=" ">
<polygon fill="white" stroke="black" points="179,-78.5 179,-119.5 340,-119.5 340,-78.5 179,-78.5"/>
<text text-anchor="start" x="187" y="-107.5" font-family="Helvetica,sans-Serif" font-size="10.00">/home/user/bayes&#45;filters</text>
<text text-anchor="start" x="187" y="-96.5" font-family="Helvetica,sans-Serif" font-size="10.00">&#45;lib/src/BayesFilters/include</text>
<text text-anchor="middle" x="259.5" y="-85.5" font-family="Helvetica,sans-Serif" font-size="10.00">/BayesFilters/GPFCorrection.h</text>
</a>
</g>
</g>
<!-- Node1&#45;&gt;Node4 -->
<g id="edge3" class="edge">
<title>Node1&#45;&gt;Node4</title>
<path fill="none" stroke="midnightblue" d="M447.03,-153.58C409.18,-142.76 364.19,-129.91 327.77,-119.51"/>
<polygon fill="midnightblue" stroke="midnightblue" points="446.42,-157.05 457,-156.43 448.34,-150.32 446.42,-157.05"/>
</g>
<!-- Node6 -->
<g id="node6" class="node">
<title>Node6</title>
<g id="a_node6"><a xlink:href="KFCorrection_8h.html" target="_top" xlink:title=" ">
<polygon fill="white" stroke="black" points="358,-78.5 358,-119.5 513,-119.5 513,-78.5 358,-78.5"/>
<text text-anchor="start" x="366" y="-107.5" font-family="Helvetica,sans-Serif" font-size="10.00">/home/user/bayes&#45;filters</text>
<text text-anchor="start" x="366" y="-96.5" font-family="Helvetica,sans-Serif" font-size="10.00">&#45;lib/src/BayesFilters/include</text>
<text text-anchor="middle" x="435.5" y="-85.5" font-family="Helvetica,sans-Serif" font-size="10.00">/BayesFilters/KFCorrection.h</text>
</a>
</g>
</g>
<!-- Node1&#45;&gt;Node6 -->
<g id="edge5" class="edge">
<title>Node1&#45;&gt;Node6</title>
<path fill="none" stroke="midnightblue" d="M494.45,-149.78C482.68,-139.84 469.51,-128.72 458.6,-119.51"/>
<polygon fill="midnightblue" stroke="midnightblue" points="492.42,-152.65 502.32,-156.43 496.94,-147.3 492.42,-152.65"/>
</g>
<!-- Node8 -->
<g id="node8" class="node">
<title>Node8</title>
<g id="a_node8"><a xlink:href="SUKFCorrection_8h.html" target="_top" xlink:title=" ">
<polygon fill="white" stroke="black" points="531.5,-78.5 531.5,-119.5 699.5,-119.5 699.5,-78.5 531.5,-78.5"/>
<text text-anchor="start" x="539.5" y="-107.5" font-family="Helvetica,sans-Serif" font-size="10.00">/home/user/bayes&#45;filters</text>
<text text-anchor="start" x="539.5" y="-96.5" font-family="Helvetica,sans-Serif" font-size="10.00">&#45;lib/src/BayesFilters/include</text>
<text text-anchor="middle" x="615.5" y="-85.5" font-family="Helvetica,sans-Serif" font-size="10.00">/BayesFilters/SUKFCorrection.h</text>
</a>
</g>
</g>
<!-- Node1&#45;&gt;Node8 -->
<g id="edge7" class="edge">
<title>Node1&#45;&gt;Node8</title>
<path fill="none" stroke="midnightblue" d="M556.55,-149.78C568.32,-139.84 581.49,-128.72 592.4,-119.51"/>
<polygon fill="midnightblue" stroke="midnightblue" points="554.06,-147.3 548.68,-156.43 558.58,-152.65 554.06,-147.3"/>
</g>
<!-- Node10 -->
<g id="node10" class="node">
<title>Node10</title>
<g id="a_node10"><a xlink:href="UKFCorrection_8h.html" target="_top" xlink:title=" ">
<polygon fill="white" stroke="black" points="717.5,-78.5 717.5,-119.5 879.5,-119.5 879.5,-78.5 717.5,-78.5"/>
<text text-anchor="start" x="725.5" y="-107.5" font-family="Helvetica,sans-Serif" font-size="10.00">/home/user/bayes&#45;filters</text>
<text text-anchor="start" x="725.5" y="-96.5" font-family="Helvetica,sans-Serif" font-size="10.00">&#45;lib/src/BayesFilters/include</text>
<text text-anchor="middle" x="798.5" y="-85.5" font-family="Helvetica,sans-Serif" font-size="10.00">/BayesFilters/UKFCorrection.h</text>
</a>
</g>
</g>
<!-- Node1&#45;&gt;Node10 -->
<g id="edge9" class="edge">
<title>Node1&#45;&gt;Node10</title>
<path fill="none" stroke="midnightblue" d="M605.54,-153.72C644.49,-142.87 690.9,-129.96 728.43,-119.51"/>
<polygon fill="midnightblue" stroke="midnightblue" points="604.5,-150.37 595.8,-156.43 606.38,-157.12 604.5,-150.37"/>
</g>
<!-- Node12 -->
<g id="node12" class="node">
<title>Node12</title>
<g id="a_node12"><a xlink:href="GaussianCorrection_8cpp.html" target="_top" xlink:title=" ">
<polygon fill="white" stroke="black" points="898,-78.5 898,-119.5 1033,-119.5 1033,-78.5 898,-78.5"/>
<text text-anchor="start" x="906" y="-107.5" font-family="Helvetica,sans-Serif" font-size="10.00">/home/user/bayes&#45;filters</text>
<text text-anchor="start" x="906" y="-96.5" font-family="Helvetica,sans-Serif" font-size="10.00">&#45;lib/src/BayesFilters/src</text>
<text text-anchor="middle" x="965.5" y="-85.5" font-family="Helvetica,sans-Serif" font-size="10.00">/GaussianCorrection.cpp</text>
</a>
</g>
</g>
<!-- Node1&#45;&gt;Node12 -->
<g id="edge11" class="edge">
<title>Node1&#45;&gt;Node12</title>
<path fill="none" stroke="midnightblue" d="M629.32,-162.82C702.19,-152.88 801.72,-137.92 888.5,-120 891.61,-119.36 894.78,-118.67 897.98,-117.95"/>
<polygon fill="midnightblue" stroke="midnightblue" points="628.66,-159.38 619.22,-164.19 629.6,-166.32 628.66,-159.38"/>
</g>
<!-- Node3 -->
<g id="node3" class="node">
<title>Node3</title>
<g id="a_node3"><a xlink:href="GaussianFilter_8cpp.html" target="_top" xlink:title=" ">
<polygon fill="white" stroke="black" points="13,-0.5 13,-41.5 148,-41.5 148,-0.5 13,-0.5"/>
<text text-anchor="start" x="21" y="-29.5" font-family="Helvetica,sans-Serif" font-size="10.00">/home/user/bayes&#45;filters</text>
<text text-anchor="start" x="21" y="-18.5" font-family="Helvetica,sans-Serif" font-size="10.00">&#45;lib/src/BayesFilters/src</text>
<text text-anchor="middle" x="80.5" y="-7.5" font-family="Helvetica,sans-Serif" font-size="10.00">/GaussianFilter.cpp</text>
</a>
</g>
</g>
<!-- Node2&#45;&gt;Node3 -->
<g id="edge2" class="edge">
<title>Node2&#45;&gt;Node3</title>
<path fill="none" stroke="midnightblue" d="M80.5,-68.3C80.5,-59.3 80.5,-49.65 80.5,-41.51"/>
<polygon fill="midnightblue" stroke="midnightblue" points="77,-68.43 80.5,-78.43 84,-68.43 77,-68.43"/>
</g>
<!-- Node5 -->
<g id="node5" class="node">
<title>Node5</title>
<g id="a_node5"><a xlink:href="GPFCorrection_8cpp.html" target="_top" xlink:title=" ">
<polygon fill="white" stroke="black" points="192,-0.5 192,-41.5 327,-41.5 327,-0.5 192,-0.5"/>
<text text-anchor="start" x="200" y="-29.5" font-family="Helvetica,sans-Serif" font-size="10.00">/home/user/bayes&#45;filters</text>
<text text-anchor="start" x="200" y="-18.5" font-family="Helvetica,sans-Serif" font-size="10.00">&#45;lib/src/BayesFilters/src</text>
<text text-anchor="middle" x="259.5" y="-7.5" font-family="Helvetica,sans-Serif" font-size="10.00">/GPFCorrection.cpp</text>
</a>
</g>
</g>
<!-- Node4&#45;&gt;Node5 -->
<g id="edge4" class="edge">
<title>Node4&#45;&gt;Node5</title>
<path fill="none" stroke="midnightblue" d="M259.5,-68.3C259.5,-59.3 259.5,-49.65 259.5,-41.51"/>
<polygon fill="midnightblue" stroke="midnightblue" points="256,-68.43 259.5,-78.43 263,-68.43 256,-68.43"/>
</g>
<!-- Node7 -->
<g id="node7" class="node">
<title>Node7</title>
<g id="a_node7"><a xlink:href="KFCorrection_8cpp.html" target="_top" xlink:title=" ">
<polygon fill="white" stroke="black" points="368,-0.5 368,-41.5 503,-41.5 503,-0.5 368,-0.5"/>
<text text-anchor="start" x="376" y="-29.5" font-family="Helvetica,sans-Serif" font-size="10.00">/home/user/bayes&#45;filters</text>
<text text-anchor="start" x="376" y="-18.5" font-family="Helvetica,sans-Serif" font-size="10.00">&#45;lib/src/BayesFilters/src</text>
<text text-anchor="middle" x="435.5" y="-7.5" font-family="Helvetica,sans-Serif" font-size="10.00">/KFCorrection.cpp</text>
</a>
</g>
</g>
<!-- Node6&#45;&gt;Node7 -->
<g id="edge6" class="edge">
<title>Node6&#45;&gt;Node7</title>
<path fill="none" stroke="midnightblue" d="M435.5,-68.3C435.5,-59.3 435.5,-49.65 435.5,-41.51"/>
<polygon fill="midnightblue" stroke="midnightblue" points="432,-68.43 435.5,-78.43 439,-68.43 432,-68.43"/>
</g>
<!-- Node9 -->
<g id="node9" class="node">
<title>Node9</title>
<g id="a_node9"><a xlink:href="SUKFCorrection_8cpp.html" target="_top" xlink:title=" ">
<polygon fill="white" stroke="black" points="548,-0.5 548,-41.5 683,-41.5 683,-0.5 548,-0.5"/>
<text text-anchor="start" x="556" y="-29.5" font-family="Helvetica,sans-Serif" font-size="10.00">/home/user/bayes&#45;filters</text>
<text text-anchor="start" x="556" y="-18.5" font-family="Helvetica,sans-Serif" font-size="10.00">&#45;lib/src/BayesFilters/src</text>
<text text-anchor="middle" x="615.5" y="-7.5" font-family="Helvetica,sans-Serif" font-size="10.00">/SUKFCorrection.cpp</text>
</a>
</g>
</g>
<!-- Node8&#45;&gt;Node9 -->
<g id="edge8" class="edge">
<title>Node8&#45;&gt;Node9</title>
<path fill="none" stroke="midnightblue" d="M615.5,-68.3C615.5,-59.3 615.5,-49.65 615.5,-41.51"/>
<polygon fill="midnightblue" stroke="midnightblue" points="612,-68.43 615.5,-78.43 619,-68.43 612,-68.43"/>
</g>
<!-- Node11 -->
<g id="node11" class="node">
<title>Node11</title>
<g id="a_node11"><a xlink:href="UKFCorrection_8cpp.html" target="_top" xlink:title=" ">
<polygon fill="white" stroke="black" points="731,-0.5 731,-41.5 866,-41.5 866,-0.5 731,-0.5"/>
<text text-anchor="start" x="739" y="-29.5" font-family="Helvetica,sans-Serif" font-size="10.00">/home/user/bayes&#45;filters</text>
<text text-anchor="start" x="739" y="-18.5" font-family="Helvetica,sans-Serif" font-size="10.00">&#45;lib/src/BayesFilters/src</text>
<text text-anchor="middle" x="798.5" y="-7.5" font-family="Helvetica,sans-Serif" font-size="10.00">/UKFCorrection.cpp</text>
</a>
</g>
</g>
<!-- Node10&#45;&gt;Node11 -->
<g id="edge10" class="edge">
<title>Node10&#45;&gt;Node11</title>
<path fill="none" stroke="midnightblue" d="M798.5,-68.3C798.5,-59.3 798.5,-49.65 798.5,-41.51"/>
<polygon fill="midnightblue" stroke="midnightblue" points="795,-68.43 798.5,-78.43 802,-68.43 795,-68.43"/>
</g>
</g>
</svg>
        <g id="navigator" transform="translate(0 0)" fill="#404254">
                <rect fill="#f2f5e9" fill-opacity="0.5" stroke="#606060" stroke-width=".5" x="0" y="0" width="60" height="60"/>
                <use id="zoomplus" xlink:href="#zoomPlus" x="17" y="9" onmousedown="handleZoom(evt,'in')"/>
                <use id="zoomminus" xlink:href="#zoomMin" x="42" y="9" onmousedown="handleZoom(evt,'out')"/>
                <use id="reset" xlink:href="#resetDef" x="30" y="36" onmousedown="handleReset()"/>
                <g id="arrowUp" xlink:href="#dirArrow" transform="translate(30 24)" onmousedown="handlePan(0,-1)">
                  <use xlink:href="#rim" fill="#404040">
                        <set attributeName="fill" to="#808080" begin="arrowUp.mouseover" end="arrowUp.mouseout"/>
                  </use>
                  <path fill="none" stroke="white" stroke-width="1.5" d="M0,-3.0v7 M-2.5,-0.5L0,-3.0L2.5,-0.5"/>
                </g>
                <g id="arrowRight" xlink:href="#dirArrow" transform="rotate(90) translate(36 -43)" onmousedown="handlePan(1,0)">
                  <use xlink:href="#rim" fill="#404040">
                        <set attributeName="fill" to="#808080" begin="arrowRight.mouseover" end="arrowRight.mouseout"/>
                  </use>
                  <path fill="none" stroke="white" stroke-width="1.5" d="M0,-3.0v7 M-2.5,-0.5L0,-3.0L2.5,-0.5"/>
                </g>
                <g id="arrowDown" xlink:href="#dirArrow" transform="rotate(180) translate(-30 -48)" onmousedown="handlePan(0,1)">
                  <use xlink:href="#rim" fill="#404040">
                        <set attributeName="fill" to="#808080" begin="arrowDown.mouseover" end="arrowDown.mouseout"/>
                  </use>
                  <path fill="none" stroke="white" stroke-width="1.5" d="M0,-3.0v7 M-2.5,-0.5L0,-3.0L2.5,-0.5"/>
                </g>
                <g id="arrowLeft" xlink:href="#dirArrow" transform="rotate(270) translate(-36 17)" onmousedown="handlePan(-1,0)">
                  <use xlink:href="#rim" fill="#404040">
                        <set attributeName="fill" to="#808080" begin="arrowLeft.mouseover" end="arrowLeft.mouseout"/>
                  </use>
                  <path fill="none" stroke="white" stroke-width="1.5" d="M0,-3.0v7 M-2.5,-0.5L0,-3.0L2.5,-0.5"/>
                </g>
        </g>
        <svg viewBox="0 0 15 15" width="100%" height="30px" preserveAspectRatio="xMaxYMin meet">
         <g id="arrow_out" transform="scale(0.3 0.3)">
          <a xlink:href="GaussianCorrection_8h__dep__incl_org.svg" target="_base">
           <rect id="button" ry="5" rx="5" y="6" x="6" height="38" width="38"
                fill="#f2f5e9" fill-opacity="0.5" stroke="#606060" stroke-width="1.0"/>
           <path id="arrow"
             d="M 11.500037,31.436501 C 11.940474,20.09759 22.043105,11.32322 32.158766,21.979434 L 37.068811,17.246167 C 37.068811,17.246167 37.088388,32 37.088388,32 L 22.160133,31.978069 C 22.160133,31.978069 26.997745,27.140456 26.997745,27.140456 C 18.528582,18.264221 13.291696,25.230495 11.500037,31.436501 z"
             style="fill:#404040;"/>
          </a>
         </g>
        </svg>
</svg>
