<?xml version="1.0" encoding="UTF-8" standalone="no"?>
<!DOCTYPE svg PUBLIC "-//W3C//DTD SVG 1.1//EN"
 "http://www.w3.org/Graphics/SVG/1.1/DTD/svg11.dtd">
<!-- Generated by graphviz version 2.47.2 (0)
 -->
<!-- Title: /home/xenvre/robot&#45;code/bfl_robotology/src/BayesFilters/include/BayesFilters/GaussianCorrection.h Pages: 1 -->
<svg width="730pt" height="296pt"
 viewBox="0.00 0.00 730.00 296.00" xmlns="http://www.w3.org/2000/svg" xmlns:xlink="http://www.w3.org/1999/xlink">
<g id="graph0" class="graph" transform="scale(1 1) rotate(0) translate(4 292)">
<title>/home/xenvre/robot&#45;code/bfl_robotology/src/BayesFilters/include/BayesFilters/GaussianCorrection.h</title>
<polygon fill="white" stroke="transparent" points="-4,4 -4,-292 726,-292 726,4 -4,4"/>
<!-- Node1 -->
<g id="node1" class="node">
<title>Node1</title>
<g id="a_node1"><a xlink:title=" ">
<polygon fill="#bfbfbf" stroke="black" points="98,-235.5 98,-287.5 270,-287.5 270,-235.5 98,-235.5"/>
<text text-anchor="start" x="106" y="-275.5" font-family="Helvetica,sans-Serif" font-size="10.00">/home/xenvre/robot</text>
<text text-anchor="start" x="106" y="-264.5" font-family="Helvetica,sans-Serif" font-size="10.00">&#45;code/bfl_robotology</text>
<text text-anchor="start" x="106" y="-253.5" font-family="Helvetica,sans-Serif" font-size="10.00">/src/BayesFilters/include</text>
<text text-anchor="middle" x="184" y="-242.5" font-family="Helvetica,sans-Serif" font-size="10.00">/BayesFilters/GaussianCorrection.h</text>
</a>
</g>
</g>
<!-- Node2 -->
<g id="node2" class="node">
<title>Node2</title>
<g id="a_node2"><a xlink:href="GaussianMixture_8h.html" target="_top" xlink:title=" ">
<polygon fill="white" stroke="black" points="0,-174 0,-193 156,-193 156,-174 0,-174"/>
<text text-anchor="middle" x="78" y="-181" font-family="Helvetica,sans-Serif" font-size="10.00">BayesFilters/GaussianMixture.h</text>
</a>
</g>
</g>
<!-- Node1&#45;&gt;Node2 -->
<g id="edge1" class="edge">
<title>Node1&#45;&gt;Node2</title>
<path fill="none" stroke="midnightblue" d="M149,-235.4C132.22,-223.37 112.71,-209.38 98.39,-199.12"/>
<polygon fill="midnightblue" stroke="midnightblue" points="100.38,-196.24 90.22,-193.26 96.31,-201.93 100.38,-196.24"/>
</g>
<!-- Node4 -->
<g id="node4" class="node">
<title>Node4</title>
<g id="a_node4"><a xlink:title=" ">
<polygon fill="white" stroke="#bfbfbf" points="77.5,-112.5 77.5,-131.5 150.5,-131.5 150.5,-112.5 77.5,-112.5"/>
<text text-anchor="middle" x="114" y="-119.5" font-family="Helvetica,sans-Serif" font-size="10.00">Eigen/Dense</text>
</a>
</g>
</g>
<!-- Node1&#45;&gt;Node4 -->
<g id="edge21" class="edge">
<title>Node1&#45;&gt;Node4</title>
<path fill="none" stroke="midnightblue" d="M183.14,-235.41C181.49,-215.88 177,-188.71 165,-168 157.97,-155.87 146.49,-145.31 136.2,-137.47"/>
<polygon fill="midnightblue" stroke="midnightblue" points="138.12,-134.55 127.96,-131.56 134.04,-140.23 138.12,-134.55"/>
</g>
<!-- Node5 -->
<g id="node5" class="node">
<title>Node5</title>
<g id="a_node5"><a xlink:href="MeasurementModel_8h.html" target="_top" xlink:title=" ">
<polygon fill="white" stroke="black" points="241,-168.5 241,-198.5 375,-198.5 375,-168.5 241,-168.5"/>
<text text-anchor="start" x="249" y="-186.5" font-family="Helvetica,sans-Serif" font-size="10.00">BayesFilters/Measurement</text>
<text text-anchor="middle" x="308" y="-175.5" font-family="Helvetica,sans-Serif" font-size="10.00">Model.h</text>
</a>
</g>
</g>
<!-- Node1&#45;&gt;Node5 -->
<g id="edge4" class="edge">
<title>Node1&#45;&gt;Node5</title>
<path fill="none" stroke="midnightblue" d="M224.95,-235.4C241.58,-225.21 260.5,-213.61 276.08,-204.07"/>
<polygon fill="midnightblue" stroke="midnightblue" points="278.12,-206.92 284.82,-198.71 274.47,-200.95 278.12,-206.92"/>
</g>
<!-- Node3 -->
<g id="node3" class="node">
<title>Node3</title>
<g id="a_node3"><a xlink:title=" ">
<polygon fill="white" stroke="#bfbfbf" points="51,-56.5 51,-75.5 95,-75.5 95,-56.5 51,-56.5"/>
<text text-anchor="middle" x="73" y="-63.5" font-family="Helvetica,sans-Serif" font-size="10.00">vector</text>
</a>
</g>
</g>
<!-- Node2&#45;&gt;Node3 -->
<g id="edge2" class="edge">
<title>Node2&#45;&gt;Node3</title>
<path fill="none" stroke="midnightblue" d="M75.79,-174C73.31,-164.02 69.47,-146.94 68,-132 67.13,-123.15 67.51,-120.88 68,-112 68.48,-103.36 69.47,-93.83 70.45,-85.77"/>
<polygon fill="midnightblue" stroke="midnightblue" points="73.95,-85.97 71.76,-75.6 67.01,-85.07 73.95,-85.97"/>
</g>
<!-- Node2&#45;&gt;Node4 -->
<g id="edge3" class="edge">
<title>Node2&#45;&gt;Node4</title>
<path fill="none" stroke="midnightblue" d="M83.16,-173.98C88.45,-165.23 96.84,-151.37 103.53,-140.31"/>
<polygon fill="midnightblue" stroke="midnightblue" points="106.67,-141.88 108.85,-131.51 100.68,-138.25 106.67,-141.88"/>
</g>
<!-- Node5&#45;&gt;Node4 -->
<g id="edge20" class="edge">
<title>Node5&#45;&gt;Node4</title>
<path fill="none" stroke="midnightblue" d="M262.02,-168.4C228.36,-158.07 183.22,-144.23 151.68,-134.56"/>
<polygon fill="midnightblue" stroke="midnightblue" points="152.53,-131.16 141.95,-131.57 150.48,-137.85 152.53,-131.16"/>
</g>
<!-- Node6 -->
<g id="node6" class="node">
<title>Node6</title>
<g id="a_node6"><a xlink:href="Data_8h.html" target="_top" xlink:title=" ">
<polygon fill="white" stroke="black" points="465,-112.5 465,-131.5 569,-131.5 569,-112.5 465,-112.5"/>
<text text-anchor="middle" x="517" y="-119.5" font-family="Helvetica,sans-Serif" font-size="10.00">BayesFilters/Data.h</text>
</a>
</g>
</g>
<!-- Node5&#45;&gt;Node6 -->
<g id="edge5" class="edge">
<title>Node5&#45;&gt;Node6</title>
<path fill="none" stroke="midnightblue" d="M357.27,-168.47C393.95,-158.03 443.38,-143.96 477.49,-134.25"/>
<polygon fill="midnightblue" stroke="midnightblue" points="478.46,-137.61 487.12,-131.51 476.54,-130.88 478.46,-137.61"/>
</g>
<!-- Node9 -->
<g id="node9" class="node">
<title>Node9</title>
<g id="a_node9"><a xlink:title=" ">
<polygon fill="white" stroke="#bfbfbf" points="369,-0.5 369,-19.5 421,-19.5 421,-0.5 369,-0.5"/>
<text text-anchor="middle" x="395" y="-7.5" font-family="Helvetica,sans-Serif" font-size="10.00">memory</text>
</a>
</g>
</g>
<!-- Node5&#45;&gt;Node9 -->
<g id="edge17" class="edge">
<title>Node5&#45;&gt;Node9</title>
<path fill="none" stroke="midnightblue" d="M342.6,-168.43C358.25,-160.21 375.36,-148.21 385,-132 403.96,-100.1 401.57,-54.86 398.23,-29.7"/>
<polygon fill="midnightblue" stroke="midnightblue" points="401.67,-29.04 396.7,-19.68 394.75,-30.1 401.67,-29.04"/>
</g>
<!-- Node13 -->
<g id="node13" class="node">
<title>Node13</title>
<g id="a_node13"><a xlink:href="Logger_8h.html" target="_top" xlink:title=" ">
<polygon fill="white" stroke="black" points="168.5,-112.5 168.5,-131.5 279.5,-131.5 279.5,-112.5 168.5,-112.5"/>
<text text-anchor="middle" x="224" y="-119.5" font-family="Helvetica,sans-Serif" font-size="10.00">BayesFilters/Logger.h</text>
</a>
</g>
</g>
<!-- Node5&#45;&gt;Node13 -->
<g id="edge12" class="edge">
<title>Node5&#45;&gt;Node13</title>
<path fill="none" stroke="midnightblue" d="M288.09,-168.4C275.01,-159.13 257.92,-147.03 244.68,-137.65"/>
<polygon fill="midnightblue" stroke="midnightblue" points="246.41,-134.58 236.22,-131.66 242.36,-140.29 246.41,-134.58"/>
</g>
<!-- Node16 -->
<g id="node16" class="node">
<title>Node16</title>
<g id="a_node16"><a xlink:title=" ">
<polygon fill="white" stroke="#bfbfbf" points="278.5,-56.5 278.5,-75.5 319.5,-75.5 319.5,-56.5 278.5,-56.5"/>
<text text-anchor="middle" x="299" y="-63.5" font-family="Helvetica,sans-Serif" font-size="10.00">string</text>
</a>
</g>
</g>
<!-- Node5&#45;&gt;Node16 -->
<g id="edge18" class="edge">
<title>Node5&#45;&gt;Node16</title>
<path fill="none" stroke="midnightblue" d="M306.9,-168.34C305.28,-147.62 302.27,-109.02 300.47,-85.9"/>
<polygon fill="midnightblue" stroke="midnightblue" points="303.94,-85.37 299.68,-75.67 296.96,-85.91 303.94,-85.37"/>
</g>
<!-- Node17 -->
<g id="node17" class="node">
<title>Node17</title>
<g id="a_node17"><a xlink:title=" ">
<polygon fill="white" stroke="#bfbfbf" points="336,-112.5 336,-131.5 376,-131.5 376,-112.5 336,-112.5"/>
<text text-anchor="middle" x="356" y="-119.5" font-family="Helvetica,sans-Serif" font-size="10.00">utility</text>
</a>
</g>
</g>
<!-- Node5&#45;&gt;Node17 -->
<g id="edge19" class="edge">
<title>Node5&#45;&gt;Node17</title>
<path fill="none" stroke="midnightblue" d="M319.38,-168.4C326.35,-159.75 335.31,-148.64 342.63,-139.58"/>
<polygon fill="midnightblue" stroke="midnightblue" points="345.46,-141.64 349.02,-131.66 340.01,-137.24 345.46,-141.64"/>
</g>
<!-- Node7 -->
<g id="node7" class="node">
<title>Node7</title>
<g id="a_node7"><a xlink:href="any_8h.html" target="_top" xlink:title=" ">
<polygon fill="white" stroke="black" points="485.5,-56.5 485.5,-75.5 582.5,-75.5 582.5,-56.5 485.5,-56.5"/>
<text text-anchor="middle" x="534" y="-63.5" font-family="Helvetica,sans-Serif" font-size="10.00">BayesFilters/any.h</text>
</a>
</g>
</g>
<!-- Node6&#45;&gt;Node7 -->
<g id="edge6" class="edge">
<title>Node6&#45;&gt;Node7</title>
<path fill="none" stroke="midnightblue" d="M519.81,-112.08C522.08,-104.85 525.37,-94.41 528.21,-85.4"/>
<polygon fill="midnightblue" stroke="midnightblue" points="531.58,-86.34 531.25,-75.75 524.9,-84.24 531.58,-86.34"/>
</g>
<!-- Node8 -->
<g id="node8" class="node">
<title>Node8</title>
<g id="a_node8"><a xlink:title=" ">
<polygon fill="white" stroke="#bfbfbf" points="666,-0.5 666,-19.5 722,-19.5 722,-0.5 666,-0.5"/>
<text text-anchor="middle" x="694" y="-7.5" font-family="Helvetica,sans-Serif" font-size="10.00">algorithm</text>
</a>
</g>
</g>
<!-- Node7&#45;&gt;Node8 -->
<g id="edge7" class="edge">
<title>Node7&#45;&gt;Node8</title>
<path fill="none" stroke="midnightblue" d="M559.35,-56.44C586.27,-47.36 629,-32.94 659.09,-22.78"/>
<polygon fill="midnightblue" stroke="midnightblue" points="660.41,-26.03 668.77,-19.52 658.17,-19.4 660.41,-26.03"/>
</g>
<!-- Node7&#45;&gt;Node9 -->
<g id="edge8" class="edge">
<title>Node7&#45;&gt;Node9</title>
<path fill="none" stroke="midnightblue" d="M511.98,-56.44C488.9,-47.48 452.44,-33.31 426.36,-23.18"/>
<polygon fill="midnightblue" stroke="midnightblue" points="427.51,-19.88 416.92,-19.52 424.98,-26.4 427.51,-19.88"/>
</g>
<!-- Node10 -->
<g id="node10" class="node">
<title>Node10</title>
<g id="a_node10"><a xlink:title=" ">
<polygon fill="white" stroke="#bfbfbf" points="439.5,-0.5 439.5,-19.5 498.5,-19.5 498.5,-0.5 439.5,-0.5"/>
<text text-anchor="middle" x="469" y="-7.5" font-family="Helvetica,sans-Serif" font-size="10.00">stdexcept</text>
</a>
</g>
</g>
<!-- Node7&#45;&gt;Node10 -->
<g id="edge9" class="edge">
<title>Node7&#45;&gt;Node10</title>
<path fill="none" stroke="midnightblue" d="M523.56,-56.32C513.85,-48.26 499.18,-36.08 487.5,-26.37"/>
<polygon fill="midnightblue" stroke="midnightblue" points="489.56,-23.53 479.63,-19.83 485.09,-28.92 489.56,-23.53"/>
</g>
<!-- Node11 -->
<g id="node11" class="node">
<title>Node11</title>
<g id="a_node11"><a xlink:title=" ">
<polygon fill="white" stroke="#bfbfbf" points="516.5,-0.5 516.5,-19.5 567.5,-19.5 567.5,-0.5 516.5,-0.5"/>
<text text-anchor="middle" x="542" y="-7.5" font-family="Helvetica,sans-Serif" font-size="10.00">typeinfo</text>
</a>
</g>
</g>
<!-- Node7&#45;&gt;Node11 -->
<g id="edge10" class="edge">
<title>Node7&#45;&gt;Node11</title>
<path fill="none" stroke="midnightblue" d="M535.32,-56.08C536.38,-48.93 537.91,-38.64 539.23,-29.69"/>
<polygon fill="midnightblue" stroke="midnightblue" points="542.7,-30.16 540.7,-19.75 535.78,-29.13 542.7,-30.16"/>
</g>
<!-- Node12 -->
<g id="node12" class="node">
<title>Node12</title>
<g id="a_node12"><a xlink:title=" ">
<polygon fill="white" stroke="#bfbfbf" points="586,-0.5 586,-19.5 648,-19.5 648,-0.5 586,-0.5"/>
<text text-anchor="middle" x="617" y="-7.5" font-family="Helvetica,sans-Serif" font-size="10.00">type_traits</text>
</a>
</g>
</g>
<!-- Node7&#45;&gt;Node12 -->
<g id="edge11" class="edge">
<title>Node7&#45;&gt;Node12</title>
<path fill="none" stroke="midnightblue" d="M547.34,-56.32C560.16,-47.98 579.78,-35.21 594.94,-25.35"/>
<polygon fill="midnightblue" stroke="midnightblue" points="597.22,-28.04 603.7,-19.65 593.41,-22.17 597.22,-28.04"/>
</g>
<!-- Node13&#45;&gt;Node3 -->
<g id="edge16" class="edge">
<title>Node13&#45;&gt;Node3</title>
<path fill="none" stroke="midnightblue" d="M200.07,-112.44C174.33,-103.24 133.28,-88.56 104.83,-78.38"/>
<polygon fill="midnightblue" stroke="midnightblue" points="105.93,-75.06 95.34,-74.99 103.58,-81.65 105.93,-75.06"/>
</g>
<!-- Node14 -->
<g id="node14" class="node">
<title>Node14</title>
<g id="a_node14"><a xlink:title=" ">
<polygon fill="white" stroke="#bfbfbf" points="133,-56.5 133,-75.5 183,-75.5 183,-56.5 133,-56.5"/>
<text text-anchor="middle" x="158" y="-63.5" font-family="Helvetica,sans-Serif" font-size="10.00">fstream</text>
</a>
</g>
</g>
<!-- Node13&#45;&gt;Node14 -->
<g id="edge13" class="edge">
<title>Node13&#45;&gt;Node14</title>
<path fill="none" stroke="midnightblue" d="M213.4,-112.32C203.54,-104.26 188.65,-92.08 176.78,-82.37"/>
<polygon fill="midnightblue" stroke="midnightblue" points="178.75,-79.46 168.8,-75.83 174.32,-84.88 178.75,-79.46"/>
</g>
<!-- Node15 -->
<g id="node15" class="node">
<title>Node15</title>
<g id="a_node15"><a xlink:title=" ">
<polygon fill="white" stroke="#bfbfbf" points="201,-56.5 201,-75.5 255,-75.5 255,-56.5 201,-56.5"/>
<text text-anchor="middle" x="228" y="-63.5" font-family="Helvetica,sans-Serif" font-size="10.00">iostream</text>
</a>
</g>
</g>
<!-- Node13&#45;&gt;Node15 -->
<g id="edge14" class="edge">
<title>Node13&#45;&gt;Node15</title>
<path fill="none" stroke="midnightblue" d="M224.66,-112.08C225.18,-105.01 225.94,-94.86 226.59,-85.99"/>
<polygon fill="midnightblue" stroke="midnightblue" points="230.1,-85.98 227.35,-75.75 223.12,-85.47 230.1,-85.98"/>
</g>
<!-- Node13&#45;&gt;Node16 -->
<g id="edge15" class="edge">
<title>Node13&#45;&gt;Node16</title>
<path fill="none" stroke="midnightblue" d="M236.05,-112.32C247.46,-104.11 264.83,-91.6 278.43,-81.81"/>
<polygon fill="midnightblue" stroke="midnightblue" points="280.66,-84.52 286.73,-75.83 276.57,-78.84 280.66,-84.52"/>
</g>
</g>
</svg>
