<?xml version="1.0" encoding="UTF-8" standalone="no"?>
<!DOCTYPE svg PUBLIC "-//W3C//DTD SVG 1.1//EN"
 "http://www.w3.org/Graphics/SVG/1.1/DTD/svg11.dtd">
<!-- Generated by graphviz version 2.47.2 (0)
 -->
<!-- Title: /home/xenvre/robot&#45;code/bfl_robotology/src/BayesFilters/include/BayesFilters/Gaussian.h Pages: 1 -->
<svg width="479pt" height="239pt"
 viewBox="0.00 0.00 478.50 239.00" xmlns="http://www.w3.org/2000/svg" xmlns:xlink="http://www.w3.org/1999/xlink">
<g id="graph0" class="graph" transform="scale(1 1) rotate(0) translate(4 235)">
<title>/home/xenvre/robot&#45;code/bfl_robotology/src/BayesFilters/include/BayesFilters/Gaussian.h</title>
<polygon fill="white" stroke="transparent" points="-4,4 -4,-235 474.5,-235 474.5,4 -4,4"/>
<!-- Node1 -->
<g id="node1" class="node">
<title>Node1</title>
<g id="a_node1"><a xlink:title=" ">
<polygon fill="#bfbfbf" stroke="black" points="192.5,-178.5 192.5,-230.5 319.5,-230.5 319.5,-178.5 192.5,-178.5"/>
<text text-anchor="start" x="200.5" y="-218.5" font-family="Helvetica,sans-Serif" font-size="10.00">/home/xenvre/robot</text>
<text text-anchor="start" x="200.5" y="-207.5" font-family="Helvetica,sans-Serif" font-size="10.00">&#45;code/bfl_robotology</text>
<text text-anchor="start" x="200.5" y="-196.5" font-family="Helvetica,sans-Serif" font-size="10.00">/src/BayesFilters/include</text>
<text text-anchor="middle" x="256" y="-185.5" font-family="Helvetica,sans-Serif" font-size="10.00">/BayesFilters/Gaussian.h</text>
</a>
</g>
</g>
<!-- Node2 -->
<g id="node2" class="node">
<title>Node2</title>
<g id="a_node2"><a xlink:href="GaussianFilter_8h.html" target="_top" xlink:title=" ">
<polygon fill="white" stroke="black" points="0,-89.5 0,-141.5 148,-141.5 148,-89.5 0,-89.5"/>
<text text-anchor="start" x="8" y="-129.5" font-family="Helvetica,sans-Serif" font-size="10.00">/home/xenvre/robot</text>
<text text-anchor="start" x="8" y="-118.5" font-family="Helvetica,sans-Serif" font-size="10.00">&#45;code/bfl_robotology</text>
<text text-anchor="start" x="8" y="-107.5" font-family="Helvetica,sans-Serif" font-size="10.00">/src/BayesFilters/include</text>
<text text-anchor="middle" x="74" y="-96.5" font-family="Helvetica,sans-Serif" font-size="10.00">/BayesFilters/GaussianFilter.h</text>
</a>
</g>
</g>
<!-- Node1&#45;&gt;Node2 -->
<g id="edge1" class="edge">
<title>Node1&#45;&gt;Node2</title>
<path fill="none" stroke="midnightblue" d="M194.11,-173.92C172.14,-163.41 147.64,-151.7 126.52,-141.61"/>
<polygon fill="midnightblue" stroke="midnightblue" points="192.83,-177.18 203.36,-178.34 195.85,-170.87 192.83,-177.18"/>
</g>
<!-- Node4 -->
<g id="node4" class="node">
<title>Node4</title>
<g id="a_node4"><a xlink:href="GaussianInitialization_8h.html" target="_top" xlink:title=" ">
<polygon fill="white" stroke="black" points="166.5,-89.5 166.5,-141.5 345.5,-141.5 345.5,-89.5 166.5,-89.5"/>
<text text-anchor="start" x="174.5" y="-129.5" font-family="Helvetica,sans-Serif" font-size="10.00">/home/xenvre/robot</text>
<text text-anchor="start" x="174.5" y="-118.5" font-family="Helvetica,sans-Serif" font-size="10.00">&#45;code/bfl_robotology</text>
<text text-anchor="start" x="174.5" y="-107.5" font-family="Helvetica,sans-Serif" font-size="10.00">/src/BayesFilters/include</text>
<text text-anchor="middle" x="256" y="-96.5" font-family="Helvetica,sans-Serif" font-size="10.00">/BayesFilters/GaussianInitialization.h</text>
</a>
</g>
</g>
<!-- Node1&#45;&gt;Node4 -->
<g id="edge3" class="edge">
<title>Node1&#45;&gt;Node4</title>
<path fill="none" stroke="midnightblue" d="M256,-168.19C256,-159.28 256,-149.9 256,-141.61"/>
<polygon fill="midnightblue" stroke="midnightblue" points="252.5,-168.34 256,-178.34 259.5,-168.34 252.5,-168.34"/>
</g>
<!-- Node5 -->
<g id="node5" class="node">
<title>Node5</title>
<g id="a_node5"><a xlink:href="Gaussian_8cpp.html" target="_top" xlink:title=" ">
<polygon fill="white" stroke="black" points="363.5,-89.5 363.5,-141.5 470.5,-141.5 470.5,-89.5 363.5,-89.5"/>
<text text-anchor="start" x="371.5" y="-129.5" font-family="Helvetica,sans-Serif" font-size="10.00">/home/xenvre/robot</text>
<text text-anchor="start" x="371.5" y="-118.5" font-family="Helvetica,sans-Serif" font-size="10.00">&#45;code/bfl_robotology</text>
<text text-anchor="start" x="371.5" y="-107.5" font-family="Helvetica,sans-Serif" font-size="10.00">/src/BayesFilters/src</text>
<text text-anchor="middle" x="417" y="-96.5" font-family="Helvetica,sans-Serif" font-size="10.00">/Gaussian.cpp</text>
</a>
</g>
</g>
<!-- Node1&#45;&gt;Node5 -->
<g id="edge4" class="edge">
<title>Node1&#45;&gt;Node5</title>
<path fill="none" stroke="midnightblue" d="M311.53,-173.49C330.76,-163.1 352.11,-151.57 370.54,-141.61"/>
<polygon fill="midnightblue" stroke="midnightblue" points="309.7,-170.5 302.57,-178.34 313.03,-176.66 309.7,-170.5"/>
</g>
<!-- Node3 -->
<g id="node3" class="node">
<title>Node3</title>
<g id="a_node3"><a xlink:href="GaussianFilter_8cpp.html" target="_top" xlink:title=" ">
<polygon fill="white" stroke="black" points="20.5,-0.5 20.5,-52.5 127.5,-52.5 127.5,-0.5 20.5,-0.5"/>
<text text-anchor="start" x="28.5" y="-40.5" font-family="Helvetica,sans-Serif" font-size="10.00">/home/xenvre/robot</text>
<text text-anchor="start" x="28.5" y="-29.5" font-family="Helvetica,sans-Serif" font-size="10.00">&#45;code/bfl_robotology</text>
<text text-anchor="start" x="28.5" y="-18.5" font-family="Helvetica,sans-Serif" font-size="10.00">/src/BayesFilters/src</text>
<text text-anchor="middle" x="74" y="-7.5" font-family="Helvetica,sans-Serif" font-size="10.00">/GaussianFilter.cpp</text>
</a>
</g>
</g>
<!-- Node2&#45;&gt;Node3 -->
<g id="edge2" class="edge">
<title>Node2&#45;&gt;Node3</title>
<path fill="none" stroke="midnightblue" d="M74,-79.19C74,-70.28 74,-60.9 74,-52.61"/>
<polygon fill="midnightblue" stroke="midnightblue" points="70.5,-79.34 74,-89.34 77.5,-79.34 70.5,-79.34"/>
</g>
</g>
</svg>
