<?xml version="1.0" encoding="UTF-8" standalone="no"?>
<!DOCTYPE svg PUBLIC "-//W3C//DTD SVG 1.1//EN"
 "http://www.w3.org/Graphics/SVG/1.1/DTD/svg11.dtd">
<!-- Generated by graphviz version 2.47.2 (0)
 -->
<!-- Title: /home/xenvre/robot&#45;code/bfl_robotology/src/BayesFilters/src/GaussianLikelihood.cpp Pages: 1 -->
<svg width="784pt" height="408pt"
 viewBox="0.00 0.00 783.50 408.00" xmlns="http://www.w3.org/2000/svg" xmlns:xlink="http://www.w3.org/1999/xlink">
<g id="graph0" class="graph" transform="scale(1 1) rotate(0) translate(4 404)">
<title>/home/xenvre/robot&#45;code/bfl_robotology/src/BayesFilters/src/GaussianLikelihood.cpp</title>
<polygon fill="white" stroke="transparent" points="-4,4 -4,-404 779.5,-404 779.5,4 -4,4"/>
<!-- Node1 -->
<g id="node1" class="node">
<title>Node1</title>
<g id="a_node1"><a xlink:title=" ">
<polygon fill="#bfbfbf" stroke="black" points="455,-347.5 455,-399.5 578,-399.5 578,-347.5 455,-347.5"/>
<text text-anchor="start" x="463" y="-387.5" font-family="Helvetica,sans-Serif" font-size="10.00">/home/xenvre/robot</text>
<text text-anchor="start" x="463" y="-376.5" font-family="Helvetica,sans-Serif" font-size="10.00">&#45;code/bfl_robotology</text>
<text text-anchor="start" x="463" y="-365.5" font-family="Helvetica,sans-Serif" font-size="10.00">/src/BayesFilters/src</text>
<text text-anchor="middle" x="516.5" y="-354.5" font-family="Helvetica,sans-Serif" font-size="10.00">/GaussianLikelihood.cpp</text>
</a>
</g>
</g>
<!-- Node2 -->
<g id="node2" class="node">
<title>Node2</title>
<g id="a_node2"><a xlink:href="GaussianLikelihood_8h.html" target="_top" xlink:title=" ">
<polygon fill="white" stroke="black" points="378,-291.5 378,-310.5 545,-310.5 545,-291.5 378,-291.5"/>
<text text-anchor="middle" x="461.5" y="-298.5" font-family="Helvetica,sans-Serif" font-size="10.00">BayesFilters/GaussianLikelihood.h</text>
</a>
</g>
</g>
<!-- Node1&#45;&gt;Node2 -->
<g id="edge1" class="edge">
<title>Node1&#45;&gt;Node2</title>
<path fill="none" stroke="midnightblue" d="M496.95,-347.45C489.53,-337.93 481.26,-327.33 474.57,-318.76"/>
<polygon fill="midnightblue" stroke="midnightblue" points="477.19,-316.43 468.28,-310.7 471.68,-320.73 477.19,-316.43"/>
</g>
<!-- Node20 -->
<g id="node20" class="node">
<title>Node20</title>
<g id="a_node20"><a xlink:href="utils_8h.html" target="_top" xlink:title=" ">
<polygon fill="white" stroke="black" points="576,-174 576,-193 677,-193 677,-174 576,-174"/>
<text text-anchor="middle" x="626.5" y="-181" font-family="Helvetica,sans-Serif" font-size="10.00">BayesFilters/utils.h</text>
</a>
</g>
</g>
<!-- Node1&#45;&gt;Node20 -->
<g id="edge21" class="edge">
<title>Node1&#45;&gt;Node20</title>
<path fill="none" stroke="midnightblue" d="M531.73,-347.43C538.45,-336.3 546.41,-323.02 553.5,-311 576.35,-272.22 602.62,-226.38 616.57,-201.93"/>
<polygon fill="midnightblue" stroke="midnightblue" points="619.68,-203.54 621.6,-193.12 613.6,-200.07 619.68,-203.54"/>
</g>
<!-- Node3 -->
<g id="node3" class="node">
<title>Node3</title>
<g id="a_node3"><a xlink:href="LikelihoodModel_8h.html" target="_top" xlink:title=" ">
<polygon fill="white" stroke="black" points="357.5,-235.5 357.5,-254.5 509.5,-254.5 509.5,-235.5 357.5,-235.5"/>
<text text-anchor="middle" x="433.5" y="-242.5" font-family="Helvetica,sans-Serif" font-size="10.00">BayesFilters/LikelihoodModel.h</text>
</a>
</g>
</g>
<!-- Node2&#45;&gt;Node3 -->
<g id="edge2" class="edge">
<title>Node2&#45;&gt;Node3</title>
<path fill="none" stroke="midnightblue" d="M456.88,-291.08C453.04,-283.69 447.48,-272.95 442.74,-263.81"/>
<polygon fill="midnightblue" stroke="midnightblue" points="445.75,-262.02 438.04,-254.75 439.53,-265.24 445.75,-262.02"/>
</g>
<!-- Node4 -->
<g id="node4" class="node">
<title>Node4</title>
<g id="a_node4"><a xlink:href="MeasurementModel_8h.html" target="_top" xlink:title=" ">
<polygon fill="white" stroke="black" points="366.5,-168.5 366.5,-198.5 500.5,-198.5 500.5,-168.5 366.5,-168.5"/>
<text text-anchor="start" x="374.5" y="-186.5" font-family="Helvetica,sans-Serif" font-size="10.00">BayesFilters/Measurement</text>
<text text-anchor="middle" x="433.5" y="-175.5" font-family="Helvetica,sans-Serif" font-size="10.00">Model.h</text>
</a>
</g>
</g>
<!-- Node3&#45;&gt;Node4 -->
<g id="edge3" class="edge">
<title>Node3&#45;&gt;Node4</title>
<path fill="none" stroke="midnightblue" d="M433.5,-235.48C433.5,-228.47 433.5,-218.19 433.5,-208.7"/>
<polygon fill="midnightblue" stroke="midnightblue" points="437,-208.52 433.5,-198.52 430,-208.52 437,-208.52"/>
</g>
<!-- Node19 -->
<g id="node19" class="node">
<title>Node19</title>
<g id="a_node19"><a xlink:title=" ">
<polygon fill="white" stroke="#bfbfbf" points="283,-174 283,-193 348,-193 348,-174 283,-174"/>
<text text-anchor="middle" x="315.5" y="-181" font-family="Helvetica,sans-Serif" font-size="10.00">Eigen/Core</text>
</a>
</g>
</g>
<!-- Node3&#45;&gt;Node19 -->
<g id="edge20" class="edge">
<title>Node3&#45;&gt;Node19</title>
<path fill="none" stroke="midnightblue" d="M416.59,-235.48C396.97,-225.58 364.37,-209.14 341.51,-197.62"/>
<polygon fill="midnightblue" stroke="midnightblue" points="342.88,-194.39 332.38,-193.01 339.73,-200.64 342.88,-194.39"/>
</g>
<!-- Node5 -->
<g id="node5" class="node">
<title>Node5</title>
<g id="a_node5"><a xlink:href="Data_8h.html" target="_top" xlink:title=" ">
<polygon fill="white" stroke="black" points="102.5,-112.5 102.5,-131.5 206.5,-131.5 206.5,-112.5 102.5,-112.5"/>
<text text-anchor="middle" x="154.5" y="-119.5" font-family="Helvetica,sans-Serif" font-size="10.00">BayesFilters/Data.h</text>
</a>
</g>
</g>
<!-- Node4&#45;&gt;Node5 -->
<g id="edge4" class="edge">
<title>Node4&#45;&gt;Node5</title>
<path fill="none" stroke="midnightblue" d="M367.73,-168.47C317.71,-157.81 249.93,-143.35 204.33,-133.63"/>
<polygon fill="midnightblue" stroke="midnightblue" points="204.9,-130.17 194.39,-131.51 203.44,-137.02 204.9,-130.17"/>
</g>
<!-- Node8 -->
<g id="node8" class="node">
<title>Node8</title>
<g id="a_node8"><a xlink:title=" ">
<polygon fill="white" stroke="#bfbfbf" points="451.5,-0.5 451.5,-19.5 503.5,-19.5 503.5,-0.5 451.5,-0.5"/>
<text text-anchor="middle" x="477.5" y="-7.5" font-family="Helvetica,sans-Serif" font-size="10.00">memory</text>
</a>
</g>
</g>
<!-- Node4&#45;&gt;Node8 -->
<g id="edge16" class="edge">
<title>Node4&#45;&gt;Node8</title>
<path fill="none" stroke="midnightblue" d="M437.1,-168.47C445.03,-137.57 463.98,-63.69 472.82,-29.25"/>
<polygon fill="midnightblue" stroke="midnightblue" points="476.21,-30.12 475.3,-19.56 469.43,-28.38 476.21,-30.12"/>
</g>
<!-- Node12 -->
<g id="node12" class="node">
<title>Node12</title>
<g id="a_node12"><a xlink:href="Logger_8h.html" target="_top" xlink:title=" ">
<polygon fill="white" stroke="black" points="294,-112.5 294,-131.5 405,-131.5 405,-112.5 294,-112.5"/>
<text text-anchor="middle" x="349.5" y="-119.5" font-family="Helvetica,sans-Serif" font-size="10.00">BayesFilters/Logger.h</text>
</a>
</g>
</g>
<!-- Node4&#45;&gt;Node12 -->
<g id="edge11" class="edge">
<title>Node4&#45;&gt;Node12</title>
<path fill="none" stroke="midnightblue" d="M413.59,-168.4C400.51,-159.13 383.42,-147.03 370.18,-137.65"/>
<polygon fill="midnightblue" stroke="midnightblue" points="371.91,-134.58 361.72,-131.66 367.86,-140.29 371.91,-134.58"/>
</g>
<!-- Node15 -->
<g id="node15" class="node">
<title>Node15</title>
<g id="a_node15"><a xlink:title=" ">
<polygon fill="white" stroke="#bfbfbf" points="408,-56.5 408,-75.5 449,-75.5 449,-56.5 408,-56.5"/>
<text text-anchor="middle" x="428.5" y="-63.5" font-family="Helvetica,sans-Serif" font-size="10.00">string</text>
</a>
</g>
</g>
<!-- Node4&#45;&gt;Node15 -->
<g id="edge17" class="edge">
<title>Node4&#45;&gt;Node15</title>
<path fill="none" stroke="midnightblue" d="M432.89,-168.34C431.99,-147.62 430.32,-109.02 429.32,-85.9"/>
<polygon fill="midnightblue" stroke="midnightblue" points="432.8,-85.51 428.88,-75.67 425.81,-85.81 432.8,-85.51"/>
</g>
<!-- Node17 -->
<g id="node17" class="node">
<title>Node17</title>
<g id="a_node17"><a xlink:title=" ">
<polygon fill="white" stroke="#bfbfbf" points="235.5,-112.5 235.5,-131.5 275.5,-131.5 275.5,-112.5 235.5,-112.5"/>
<text text-anchor="middle" x="255.5" y="-119.5" font-family="Helvetica,sans-Serif" font-size="10.00">utility</text>
</a>
</g>
</g>
<!-- Node4&#45;&gt;Node17 -->
<g id="edge18" class="edge">
<title>Node4&#45;&gt;Node17</title>
<path fill="none" stroke="midnightblue" d="M391.32,-168.4C358.76,-157.52 314.52,-142.73 285.51,-133.03"/>
<polygon fill="midnightblue" stroke="midnightblue" points="286.52,-129.68 275.92,-129.83 284.3,-136.32 286.52,-129.68"/>
</g>
<!-- Node18 -->
<g id="node18" class="node">
<title>Node18</title>
<g id="a_node18"><a xlink:title=" ">
<polygon fill="white" stroke="#bfbfbf" points="500,-112.5 500,-131.5 573,-131.5 573,-112.5 500,-112.5"/>
<text text-anchor="middle" x="536.5" y="-119.5" font-family="Helvetica,sans-Serif" font-size="10.00">Eigen/Dense</text>
</a>
</g>
</g>
<!-- Node4&#45;&gt;Node18 -->
<g id="edge19" class="edge">
<title>Node4&#45;&gt;Node18</title>
<path fill="none" stroke="midnightblue" d="M457.91,-168.4C474.42,-158.86 496.12,-146.32 512.54,-136.84"/>
<polygon fill="midnightblue" stroke="midnightblue" points="514.6,-139.69 521.51,-131.66 511.1,-133.63 514.6,-139.69"/>
</g>
<!-- Node6 -->
<g id="node6" class="node">
<title>Node6</title>
<g id="a_node6"><a xlink:href="any_8h.html" target="_top" xlink:title=" ">
<polygon fill="white" stroke="black" points="90,-56.5 90,-75.5 187,-75.5 187,-56.5 90,-56.5"/>
<text text-anchor="middle" x="138.5" y="-63.5" font-family="Helvetica,sans-Serif" font-size="10.00">BayesFilters/any.h</text>
</a>
</g>
</g>
<!-- Node5&#45;&gt;Node6 -->
<g id="edge5" class="edge">
<title>Node5&#45;&gt;Node6</title>
<path fill="none" stroke="midnightblue" d="M151.86,-112.08C149.71,-104.85 146.62,-94.41 143.95,-85.4"/>
<polygon fill="midnightblue" stroke="midnightblue" points="147.29,-84.34 141.09,-75.75 140.58,-86.33 147.29,-84.34"/>
</g>
<!-- Node7 -->
<g id="node7" class="node">
<title>Node7</title>
<g id="a_node7"><a xlink:title=" ">
<polygon fill="white" stroke="#bfbfbf" points="149.5,-0.5 149.5,-19.5 205.5,-19.5 205.5,-0.5 149.5,-0.5"/>
<text text-anchor="middle" x="177.5" y="-7.5" font-family="Helvetica,sans-Serif" font-size="10.00">algorithm</text>
</a>
</g>
</g>
<!-- Node6&#45;&gt;Node7 -->
<g id="edge6" class="edge">
<title>Node6&#45;&gt;Node7</title>
<path fill="none" stroke="midnightblue" d="M144.94,-56.08C150.45,-48.46 158.53,-37.26 165.26,-27.94"/>
<polygon fill="midnightblue" stroke="midnightblue" points="168.16,-29.91 171.18,-19.75 162.49,-25.81 168.16,-29.91"/>
</g>
<!-- Node6&#45;&gt;Node8 -->
<g id="edge7" class="edge">
<title>Node6&#45;&gt;Node8</title>
<path fill="none" stroke="midnightblue" d="M187.07,-57.26C255.78,-46.32 379.8,-26.56 441.13,-16.79"/>
<polygon fill="midnightblue" stroke="midnightblue" points="441.8,-20.23 451.13,-15.2 440.7,-13.32 441.8,-20.23"/>
</g>
<!-- Node9 -->
<g id="node9" class="node">
<title>Node9</title>
<g id="a_node9"><a xlink:title=" ">
<polygon fill="white" stroke="#bfbfbf" points="224,-0.5 224,-19.5 283,-19.5 283,-0.5 224,-0.5"/>
<text text-anchor="middle" x="253.5" y="-7.5" font-family="Helvetica,sans-Serif" font-size="10.00">stdexcept</text>
</a>
</g>
</g>
<!-- Node6&#45;&gt;Node9 -->
<g id="edge8" class="edge">
<title>Node6&#45;&gt;Node9</title>
<path fill="none" stroke="midnightblue" d="M156.72,-56.44C175.4,-47.68 204.66,-33.94 226.12,-23.86"/>
<polygon fill="midnightblue" stroke="midnightblue" points="227.8,-26.93 235.36,-19.52 224.82,-20.6 227.8,-26.93"/>
</g>
<!-- Node10 -->
<g id="node10" class="node">
<title>Node10</title>
<g id="a_node10"><a xlink:title=" ">
<polygon fill="white" stroke="#bfbfbf" points="0,-0.5 0,-19.5 51,-19.5 51,-0.5 0,-0.5"/>
<text text-anchor="middle" x="25.5" y="-7.5" font-family="Helvetica,sans-Serif" font-size="10.00">typeinfo</text>
</a>
</g>
</g>
<!-- Node6&#45;&gt;Node10 -->
<g id="edge9" class="edge">
<title>Node6&#45;&gt;Node10</title>
<path fill="none" stroke="midnightblue" d="M120.59,-56.44C102.25,-47.68 73.49,-33.94 52.41,-23.86"/>
<polygon fill="midnightblue" stroke="midnightblue" points="53.85,-20.67 43.32,-19.52 50.83,-26.99 53.85,-20.67"/>
</g>
<!-- Node11 -->
<g id="node11" class="node">
<title>Node11</title>
<g id="a_node11"><a xlink:title=" ">
<polygon fill="white" stroke="#bfbfbf" points="69.5,-0.5 69.5,-19.5 131.5,-19.5 131.5,-0.5 69.5,-0.5"/>
<text text-anchor="middle" x="100.5" y="-7.5" font-family="Helvetica,sans-Serif" font-size="10.00">type_traits</text>
</a>
</g>
</g>
<!-- Node6&#45;&gt;Node11 -->
<g id="edge10" class="edge">
<title>Node6&#45;&gt;Node11</title>
<path fill="none" stroke="midnightblue" d="M132.23,-56.08C126.86,-48.46 118.98,-37.26 112.42,-27.94"/>
<polygon fill="midnightblue" stroke="midnightblue" points="115.28,-25.91 106.66,-19.75 109.55,-29.94 115.28,-25.91"/>
</g>
<!-- Node13 -->
<g id="node13" class="node">
<title>Node13</title>
<g id="a_node13"><a xlink:title=" ">
<polygon fill="white" stroke="#bfbfbf" points="339.5,-56.5 339.5,-75.5 389.5,-75.5 389.5,-56.5 339.5,-56.5"/>
<text text-anchor="middle" x="364.5" y="-63.5" font-family="Helvetica,sans-Serif" font-size="10.00">fstream</text>
</a>
</g>
</g>
<!-- Node12&#45;&gt;Node13 -->
<g id="edge12" class="edge">
<title>Node12&#45;&gt;Node13</title>
<path fill="none" stroke="midnightblue" d="M351.98,-112.08C353.99,-104.85 356.89,-94.41 359.39,-85.4"/>
<polygon fill="midnightblue" stroke="midnightblue" points="362.76,-86.32 362.07,-75.75 356.02,-84.45 362.76,-86.32"/>
</g>
<!-- Node14 -->
<g id="node14" class="node">
<title>Node14</title>
<g id="a_node14"><a xlink:title=" ">
<polygon fill="white" stroke="#bfbfbf" points="205.5,-56.5 205.5,-75.5 259.5,-75.5 259.5,-56.5 205.5,-56.5"/>
<text text-anchor="middle" x="232.5" y="-63.5" font-family="Helvetica,sans-Serif" font-size="10.00">iostream</text>
</a>
</g>
</g>
<!-- Node12&#45;&gt;Node14 -->
<g id="edge13" class="edge">
<title>Node12&#45;&gt;Node14</title>
<path fill="none" stroke="midnightblue" d="M330.96,-112.44C311.88,-103.64 281.93,-89.81 260.06,-79.72"/>
<polygon fill="midnightblue" stroke="midnightblue" points="261.5,-76.53 250.95,-75.52 258.57,-82.88 261.5,-76.53"/>
</g>
<!-- Node12&#45;&gt;Node15 -->
<g id="edge14" class="edge">
<title>Node12&#45;&gt;Node15</title>
<path fill="none" stroke="midnightblue" d="M362.19,-112.32C374.4,-103.98 393.08,-91.21 407.5,-81.35"/>
<polygon fill="midnightblue" stroke="midnightblue" points="409.56,-84.19 415.84,-75.65 405.61,-78.41 409.56,-84.19"/>
</g>
<!-- Node16 -->
<g id="node16" class="node">
<title>Node16</title>
<g id="a_node16"><a xlink:title=" ">
<polygon fill="white" stroke="#bfbfbf" points="277.5,-56.5 277.5,-75.5 321.5,-75.5 321.5,-56.5 277.5,-56.5"/>
<text text-anchor="middle" x="299.5" y="-63.5" font-family="Helvetica,sans-Serif" font-size="10.00">vector</text>
</a>
</g>
</g>
<!-- Node12&#45;&gt;Node16 -->
<g id="edge15" class="edge">
<title>Node12&#45;&gt;Node16</title>
<path fill="none" stroke="midnightblue" d="M341.24,-112.08C334.04,-104.3 323.39,-92.8 314.65,-83.37"/>
<polygon fill="midnightblue" stroke="midnightblue" points="316.97,-80.71 307.6,-75.75 311.83,-85.47 316.97,-80.71"/>
</g>
<!-- Node20&#45;&gt;Node8 -->
<g id="edge25" class="edge">
<title>Node20&#45;&gt;Node8</title>
<path fill="none" stroke="midnightblue" d="M642.31,-173.87C663.64,-161.04 697.36,-135.89 682.5,-112 645.5,-52.52 562.04,-27.05 513.79,-16.96"/>
<polygon fill="midnightblue" stroke="midnightblue" points="514.26,-13.49 503.77,-14.98 512.91,-20.35 514.26,-13.49"/>
</g>
<!-- Node20&#45;&gt;Node15 -->
<g id="edge26" class="edge">
<title>Node20&#45;&gt;Node15</title>
<path fill="none" stroke="midnightblue" d="M623.28,-173.69C617.36,-158.73 603.32,-128.4 581.5,-112 545.05,-84.61 492.18,-73.84 459.1,-69.64"/>
<polygon fill="midnightblue" stroke="midnightblue" points="459.44,-66.15 449.1,-68.49 458.64,-73.11 459.44,-66.15"/>
</g>
<!-- Node20&#45;&gt;Node18 -->
<g id="edge22" class="edge">
<title>Node20&#45;&gt;Node18</title>
<path fill="none" stroke="midnightblue" d="M613.61,-173.98C599.04,-164.34 575.1,-148.52 557.75,-137.05"/>
<polygon fill="midnightblue" stroke="midnightblue" points="559.64,-134.1 549.37,-131.51 555.78,-139.94 559.64,-134.1"/>
</g>
<!-- Node21 -->
<g id="node21" class="node">
<title>Node21</title>
<g id="a_node21"><a xlink:title=" ">
<polygon fill="white" stroke="#bfbfbf" points="729.5,-112.5 729.5,-131.5 775.5,-131.5 775.5,-112.5 729.5,-112.5"/>
<text text-anchor="middle" x="752.5" y="-119.5" font-family="Helvetica,sans-Serif" font-size="10.00">chrono</text>
</a>
</g>
</g>
<!-- Node20&#45;&gt;Node21 -->
<g id="edge23" class="edge">
<title>Node20&#45;&gt;Node21</title>
<path fill="none" stroke="midnightblue" d="M644.55,-173.98C665.7,-163.99 700.94,-147.35 725.38,-135.81"/>
<polygon fill="midnightblue" stroke="midnightblue" points="726.93,-138.94 734.48,-131.51 723.94,-132.61 726.93,-138.94"/>
</g>
<!-- Node22 -->
<g id="node22" class="node">
<title>Node22</title>
<g id="a_node22"><a xlink:title=" ">
<polygon fill="white" stroke="#bfbfbf" points="629.5,-112.5 629.5,-131.5 673.5,-131.5 673.5,-112.5 629.5,-112.5"/>
<text text-anchor="middle" x="651.5" y="-119.5" font-family="Helvetica,sans-Serif" font-size="10.00">cmath</text>
</a>
</g>
</g>
<!-- Node20&#45;&gt;Node22 -->
<g id="edge24" class="edge">
<title>Node20&#45;&gt;Node22</title>
<path fill="none" stroke="midnightblue" d="M630.08,-173.98C633.68,-165.4 639.35,-151.93 643.94,-140.98"/>
<polygon fill="midnightblue" stroke="midnightblue" points="647.28,-142.08 647.92,-131.51 640.82,-139.37 647.28,-142.08"/>
</g>
</g>
</svg>
