<?xml version="1.0" encoding="UTF-8" standalone="no"?>
<!DOCTYPE svg PUBLIC "-//W3C//DTD SVG 1.1//EN"
 "http://www.w3.org/Graphics/SVG/1.1/DTD/svg11.dtd">
<!-- Generated by graphviz version 2.47.2 (0)
 -->
<!-- Title: /home/xenvre/robot&#45;code/bfl_robotology/src/BayesFilters/src/GPFCorrection.cpp Pages: 1 -->
<svg width="1529pt" height="464pt"
 viewBox="0.00 0.00 1528.50 464.00" xmlns="http://www.w3.org/2000/svg" xmlns:xlink="http://www.w3.org/1999/xlink">
<g id="graph0" class="graph" transform="scale(1 1) rotate(0) translate(4 460)">
<title>/home/xenvre/robot&#45;code/bfl_robotology/src/BayesFilters/src/GPFCorrection.cpp</title>
<polygon fill="white" stroke="transparent" points="-4,4 -4,-460 1524.5,-460 1524.5,4 -4,4"/>
<!-- Node1 -->
<g id="node1" class="node">
<title>Node1</title>
<g id="a_node1"><a xlink:title=" ">
<polygon fill="#bfbfbf" stroke="black" points="1310.5,-403.5 1310.5,-455.5 1417.5,-455.5 1417.5,-403.5 1310.5,-403.5"/>
<text text-anchor="start" x="1318.5" y="-443.5" font-family="Helvetica,sans-Serif" font-size="10.00">/home/xenvre/robot</text>
<text text-anchor="start" x="1318.5" y="-432.5" font-family="Helvetica,sans-Serif" font-size="10.00">&#45;code/bfl_robotology</text>
<text text-anchor="start" x="1318.5" y="-421.5" font-family="Helvetica,sans-Serif" font-size="10.00">/src/BayesFilters/src</text>
<text text-anchor="middle" x="1364" y="-410.5" font-family="Helvetica,sans-Serif" font-size="10.00">/GPFCorrection.cpp</text>
</a>
</g>
</g>
<!-- Node2 -->
<g id="node2" class="node">
<title>Node2</title>
<g id="a_node2"><a xlink:href="GPFCorrection_8h.html" target="_top" xlink:title=" ">
<polygon fill="white" stroke="black" points="931,-347.5 931,-366.5 1079,-366.5 1079,-347.5 931,-347.5"/>
<text text-anchor="middle" x="1005" y="-354.5" font-family="Helvetica,sans-Serif" font-size="10.00">BayesFilters/GPFCorrection.h</text>
</a>
</g>
</g>
<!-- Node1&#45;&gt;Node2 -->
<g id="edge1" class="edge">
<title>Node1&#45;&gt;Node2</title>
<path fill="none" stroke="midnightblue" d="M1310.25,-417.95C1242.34,-404.61 1126.18,-381.8 1058.42,-368.49"/>
<polygon fill="midnightblue" stroke="midnightblue" points="1058.87,-365.01 1048.38,-366.52 1057.52,-371.88 1058.87,-365.01"/>
</g>
<!-- Node32 -->
<g id="node32" class="node">
<title>Node32</title>
<g id="a_node32"><a xlink:href="utils_8h.html" target="_top" xlink:title=" ">
<polygon fill="white" stroke="black" points="1273.5,-174 1273.5,-193 1374.5,-193 1374.5,-174 1273.5,-174"/>
<text text-anchor="middle" x="1324" y="-181" font-family="Helvetica,sans-Serif" font-size="10.00">BayesFilters/utils.h</text>
</a>
</g>
</g>
<!-- Node1&#45;&gt;Node32 -->
<g id="edge52" class="edge">
<title>Node1&#45;&gt;Node32</title>
<path fill="none" stroke="midnightblue" d="M1356.67,-403.23C1353.66,-392.18 1350.34,-379.02 1348,-367 1336.45,-307.8 1328.89,-236.69 1325.71,-203.41"/>
<polygon fill="midnightblue" stroke="midnightblue" points="1329.18,-202.93 1324.77,-193.3 1322.21,-203.58 1329.18,-202.93"/>
</g>
<!-- Node35 -->
<g id="node35" class="node">
<title>Node35</title>
<g id="a_node35"><a xlink:title=" ">
<polygon fill="white" stroke="#bfbfbf" points="1357,-347.5 1357,-366.5 1443,-366.5 1443,-347.5 1357,-347.5"/>
<text text-anchor="middle" x="1400" y="-354.5" font-family="Helvetica,sans-Serif" font-size="10.00">Eigen/Cholesky</text>
</a>
</g>
</g>
<!-- Node1&#45;&gt;Node35 -->
<g id="edge58" class="edge">
<title>Node1&#45;&gt;Node35</title>
<path fill="none" stroke="midnightblue" d="M1376.79,-403.45C1381.45,-394.33 1386.61,-384.22 1390.88,-375.85"/>
<polygon fill="midnightblue" stroke="midnightblue" points="1394.13,-377.19 1395.56,-366.7 1387.89,-374.01 1394.13,-377.19"/>
</g>
<!-- Node36 -->
<g id="node36" class="node">
<title>Node36</title>
<g id="a_node36"><a xlink:title=" ">
<polygon fill="white" stroke="#bfbfbf" points="1461.5,-347.5 1461.5,-366.5 1520.5,-366.5 1520.5,-347.5 1461.5,-347.5"/>
<text text-anchor="middle" x="1491" y="-354.5" font-family="Helvetica,sans-Serif" font-size="10.00">exception</text>
</a>
</g>
</g>
<!-- Node1&#45;&gt;Node36 -->
<g id="edge59" class="edge">
<title>Node1&#45;&gt;Node36</title>
<path fill="none" stroke="midnightblue" d="M1409.13,-403.45C1428.56,-392.66 1450.5,-380.48 1466.77,-371.45"/>
<polygon fill="midnightblue" stroke="midnightblue" points="1468.59,-374.44 1475.64,-366.53 1465.2,-368.32 1468.59,-374.44"/>
</g>
<!-- Node3 -->
<g id="node3" class="node">
<title>Node3</title>
<g id="a_node3"><a xlink:href="GaussianCorrection_8h.html" target="_top" xlink:title=" ">
<polygon fill="white" stroke="black" points="593.5,-235.5 593.5,-254.5 762.5,-254.5 762.5,-235.5 593.5,-235.5"/>
<text text-anchor="middle" x="678" y="-242.5" font-family="Helvetica,sans-Serif" font-size="10.00">BayesFilters/GaussianCorrection.h</text>
</a>
</g>
</g>
<!-- Node2&#45;&gt;Node3 -->
<g id="edge2" class="edge">
<title>Node2&#45;&gt;Node3</title>
<path fill="none" stroke="midnightblue" d="M979.61,-347.46C921.66,-327.97 779.55,-280.16 713.19,-257.84"/>
<polygon fill="midnightblue" stroke="midnightblue" points="714.19,-254.48 703.6,-254.61 711.96,-261.12 714.19,-254.48"/>
</g>
<!-- Node7 -->
<g id="node7" class="node">
<title>Node7</title>
<g id="a_node7"><a xlink:href="MeasurementModel_8h.html" target="_top" xlink:title=" ">
<polygon fill="white" stroke="black" points="235,-168.5 235,-198.5 369,-198.5 369,-168.5 235,-168.5"/>
<text text-anchor="start" x="243" y="-186.5" font-family="Helvetica,sans-Serif" font-size="10.00">BayesFilters/Measurement</text>
<text text-anchor="middle" x="302" y="-175.5" font-family="Helvetica,sans-Serif" font-size="10.00">Model.h</text>
</a>
</g>
</g>
<!-- Node2&#45;&gt;Node7 -->
<g id="edge27" class="edge">
<title>Node2&#45;&gt;Node7</title>
<path fill="none" stroke="midnightblue" d="M930.79,-355.76C766.33,-354.57 382.15,-347.82 337,-311 306.78,-286.36 301.32,-238.13 301.02,-208.86"/>
<polygon fill="midnightblue" stroke="midnightblue" points="304.53,-208.7 301.12,-198.66 297.53,-208.63 304.53,-208.7"/>
</g>
<!-- Node11 -->
<g id="node11" class="node">
<title>Node11</title>
<g id="a_node11"><a xlink:title=" ">
<polygon fill="white" stroke="#bfbfbf" points="797,-0.5 797,-19.5 849,-19.5 849,-0.5 797,-0.5"/>
<text text-anchor="middle" x="823" y="-7.5" font-family="Helvetica,sans-Serif" font-size="10.00">memory</text>
</a>
</g>
</g>
<!-- Node2&#45;&gt;Node11 -->
<g id="edge50" class="edge">
<title>Node2&#45;&gt;Node11</title>
<path fill="none" stroke="midnightblue" d="M1040.6,-347.45C1066.04,-340.29 1100.35,-328.4 1127,-311 1190.12,-269.78 1240,-259.89 1240,-184.5 1240,-184.5 1240,-184.5 1240,-121 1240,-42.54 960.51,-18.82 859.16,-12.8"/>
<polygon fill="midnightblue" stroke="midnightblue" points="859.27,-9.3 849.09,-12.22 858.87,-16.29 859.27,-9.3"/>
</g>
<!-- Node20 -->
<g id="node20" class="node">
<title>Node20</title>
<g id="a_node20"><a xlink:href="LikelihoodModel_8h.html" target="_top" xlink:title=" ">
<polygon fill="white" stroke="black" points="122,-235.5 122,-254.5 274,-254.5 274,-235.5 122,-235.5"/>
<text text-anchor="middle" x="198" y="-242.5" font-family="Helvetica,sans-Serif" font-size="10.00">BayesFilters/LikelihoodModel.h</text>
</a>
</g>
</g>
<!-- Node2&#45;&gt;Node20 -->
<g id="edge24" class="edge">
<title>Node2&#45;&gt;Node20</title>
<path fill="none" stroke="midnightblue" d="M930.97,-356.53C772.36,-356.82 404.68,-352.81 288,-311 258.69,-300.5 230.53,-277.36 213.74,-261.72"/>
<polygon fill="midnightblue" stroke="midnightblue" points="216.1,-259.13 206.46,-254.73 211.25,-264.18 216.1,-259.13"/>
</g>
<!-- Node22 -->
<g id="node22" class="node">
<title>Node22</title>
<g id="a_node22"><a xlink:href="ParticleSet_8h.html" target="_top" xlink:title=" ">
<polygon fill="white" stroke="black" points="444.5,-235.5 444.5,-254.5 575.5,-254.5 575.5,-235.5 444.5,-235.5"/>
<text text-anchor="middle" x="510" y="-242.5" font-family="Helvetica,sans-Serif" font-size="10.00">BayesFilters/ParticleSet.h</text>
</a>
</g>
</g>
<!-- Node2&#45;&gt;Node22 -->
<g id="edge28" class="edge">
<title>Node2&#45;&gt;Node22</title>
<path fill="none" stroke="midnightblue" d="M966.57,-347.46C877.39,-327.64 656.52,-278.56 558.35,-256.75"/>
<polygon fill="midnightblue" stroke="midnightblue" points="558.93,-253.29 548.41,-254.53 557.41,-260.12 558.93,-253.29"/>
</g>
<!-- Node23 -->
<g id="node23" class="node">
<title>Node23</title>
<g id="a_node23"><a xlink:href="PFCorrection_8h.html" target="_top" xlink:title=" ">
<polygon fill="white" stroke="black" points="346,-291.5 346,-310.5 486,-310.5 486,-291.5 346,-291.5"/>
<text text-anchor="middle" x="416" y="-298.5" font-family="Helvetica,sans-Serif" font-size="10.00">BayesFilters/PFCorrection.h</text>
</a>
</g>
</g>
<!-- Node2&#45;&gt;Node23 -->
<g id="edge31" class="edge">
<title>Node2&#45;&gt;Node23</title>
<path fill="none" stroke="midnightblue" d="M931,-349.22C819.88,-339.03 610.76,-319.86 496.15,-309.35"/>
<polygon fill="midnightblue" stroke="midnightblue" points="496.31,-305.85 486.03,-308.42 495.67,-312.82 496.31,-305.85"/>
</g>
<!-- Node24 -->
<g id="node24" class="node">
<title>Node24</title>
<g id="a_node24"><a xlink:href="StateModel_8h.html" target="_top" xlink:title=" ">
<polygon fill="white" stroke="black" points="986,-291.5 986,-310.5 1118,-310.5 1118,-291.5 986,-291.5"/>
<text text-anchor="middle" x="1052" y="-298.5" font-family="Helvetica,sans-Serif" font-size="10.00">BayesFilters/StateModel.h</text>
</a>
</g>
</g>
<!-- Node2&#45;&gt;Node24 -->
<g id="edge38" class="edge">
<title>Node2&#45;&gt;Node24</title>
<path fill="none" stroke="midnightblue" d="M1012.76,-347.08C1019.54,-339.3 1029.54,-327.8 1037.76,-318.37"/>
<polygon fill="midnightblue" stroke="midnightblue" points="1040.46,-320.59 1044.38,-310.75 1035.18,-316 1040.46,-320.59"/>
</g>
<!-- Node30 -->
<g id="node30" class="node">
<title>Node30</title>
<g id="a_node30"><a xlink:title=" ">
<polygon fill="white" stroke="#bfbfbf" points="1174.5,-291.5 1174.5,-310.5 1233.5,-310.5 1233.5,-291.5 1174.5,-291.5"/>
<text text-anchor="middle" x="1204" y="-298.5" font-family="Helvetica,sans-Serif" font-size="10.00">functional</text>
</a>
</g>
</g>
<!-- Node2&#45;&gt;Node30 -->
<g id="edge49" class="edge">
<title>Node2&#45;&gt;Node30</title>
<path fill="none" stroke="midnightblue" d="M1036.53,-347.44C1071.09,-338.07 1126.61,-323 1164.16,-312.81"/>
<polygon fill="midnightblue" stroke="midnightblue" points="1165.51,-316.07 1174.24,-310.08 1163.67,-309.32 1165.51,-316.07"/>
</g>
<!-- Node31 -->
<g id="node31" class="node">
<title>Node31</title>
<g id="a_node31"><a xlink:title=" ">
<polygon fill="white" stroke="#bfbfbf" points="1251.5,-291.5 1251.5,-310.5 1300.5,-310.5 1300.5,-291.5 1251.5,-291.5"/>
<text text-anchor="middle" x="1276" y="-298.5" font-family="Helvetica,sans-Serif" font-size="10.00">random</text>
</a>
</g>
</g>
<!-- Node2&#45;&gt;Node31 -->
<g id="edge51" class="edge">
<title>Node2&#45;&gt;Node31</title>
<path fill="none" stroke="midnightblue" d="M1056.78,-347.43C1102.89,-339.52 1172.39,-326.94 1241.06,-311.32"/>
<polygon fill="midnightblue" stroke="midnightblue" points="1242.22,-314.64 1251.19,-308.99 1240.66,-307.82 1242.22,-314.64"/>
</g>
<!-- Node4 -->
<g id="node4" class="node">
<title>Node4</title>
<g id="a_node4"><a xlink:href="GaussianMixture_8h.html" target="_top" xlink:title=" ">
<polygon fill="white" stroke="black" points="553,-174 553,-193 709,-193 709,-174 553,-174"/>
<text text-anchor="middle" x="631" y="-181" font-family="Helvetica,sans-Serif" font-size="10.00">BayesFilters/GaussianMixture.h</text>
</a>
</g>
</g>
<!-- Node3&#45;&gt;Node4 -->
<g id="edge3" class="edge">
<title>Node3&#45;&gt;Node4</title>
<path fill="none" stroke="midnightblue" d="M671.27,-235.48C664.22,-226.55 652.97,-212.31 644.15,-201.14"/>
<polygon fill="midnightblue" stroke="midnightblue" points="646.67,-198.69 637.72,-193.01 641.17,-203.03 646.67,-198.69"/>
</g>
<!-- Node6 -->
<g id="node6" class="node">
<title>Node6</title>
<g id="a_node6"><a xlink:title=" ">
<polygon fill="white" stroke="#bfbfbf" points="753.5,-112.5 753.5,-131.5 826.5,-131.5 826.5,-112.5 753.5,-112.5"/>
<text text-anchor="middle" x="790" y="-119.5" font-family="Helvetica,sans-Serif" font-size="10.00">Eigen/Dense</text>
</a>
</g>
</g>
<!-- Node3&#45;&gt;Node6 -->
<g id="edge23" class="edge">
<title>Node3&#45;&gt;Node6</title>
<path fill="none" stroke="midnightblue" d="M686.05,-235.3C704.7,-215.15 751.07,-165.06 775.07,-139.12"/>
<polygon fill="midnightblue" stroke="midnightblue" points="777.79,-141.34 782.02,-131.62 772.66,-136.58 777.79,-141.34"/>
</g>
<!-- Node3&#45;&gt;Node7 -->
<g id="edge6" class="edge">
<title>Node3&#45;&gt;Node7</title>
<path fill="none" stroke="midnightblue" d="M624.13,-235.48C559.93,-225.32 452.21,-208.27 379.18,-196.71"/>
<polygon fill="midnightblue" stroke="midnightblue" points="379.53,-193.23 369.11,-195.12 378.44,-200.14 379.53,-193.23"/>
</g>
<!-- Node5 -->
<g id="node5" class="node">
<title>Node5</title>
<g id="a_node5"><a xlink:title=" ">
<polygon fill="white" stroke="#bfbfbf" points="510,-56.5 510,-75.5 554,-75.5 554,-56.5 510,-56.5"/>
<text text-anchor="middle" x="532" y="-63.5" font-family="Helvetica,sans-Serif" font-size="10.00">vector</text>
</a>
</g>
</g>
<!-- Node4&#45;&gt;Node5 -->
<g id="edge4" class="edge">
<title>Node4&#45;&gt;Node5</title>
<path fill="none" stroke="midnightblue" d="M623.56,-173.82C607.15,-154.67 567.61,-108.54 546.25,-83.63"/>
<polygon fill="midnightblue" stroke="midnightblue" points="548.69,-81.1 539.53,-75.78 543.38,-85.65 548.69,-81.1"/>
</g>
<!-- Node4&#45;&gt;Node6 -->
<g id="edge5" class="edge">
<title>Node4&#45;&gt;Node6</title>
<path fill="none" stroke="midnightblue" d="M653.78,-173.98C681.05,-163.77 726.91,-146.61 757.8,-135.05"/>
<polygon fill="midnightblue" stroke="midnightblue" points="759.12,-138.29 767.26,-131.51 756.67,-131.74 759.12,-138.29"/>
</g>
<!-- Node7&#45;&gt;Node6 -->
<g id="edge22" class="edge">
<title>Node7&#45;&gt;Node6</title>
<path fill="none" stroke="midnightblue" d="M369.09,-174.32C469.51,-162.08 656.38,-139.29 743.3,-128.69"/>
<polygon fill="midnightblue" stroke="midnightblue" points="743.89,-132.15 753.39,-127.46 743.04,-125.2 743.89,-132.15"/>
</g>
<!-- Node8 -->
<g id="node8" class="node">
<title>Node8</title>
<g id="a_node8"><a xlink:href="Data_8h.html" target="_top" xlink:title=" ">
<polygon fill="white" stroke="black" points="86,-112.5 86,-131.5 190,-131.5 190,-112.5 86,-112.5"/>
<text text-anchor="middle" x="138" y="-119.5" font-family="Helvetica,sans-Serif" font-size="10.00">BayesFilters/Data.h</text>
</a>
</g>
</g>
<!-- Node7&#45;&gt;Node8 -->
<g id="edge7" class="edge">
<title>Node7&#45;&gt;Node8</title>
<path fill="none" stroke="midnightblue" d="M263.13,-168.4C235.25,-158.28 198.06,-144.79 171.49,-135.15"/>
<polygon fill="midnightblue" stroke="midnightblue" points="172.46,-131.78 161.86,-131.66 170.07,-138.36 172.46,-131.78"/>
</g>
<!-- Node7&#45;&gt;Node11 -->
<g id="edge19" class="edge">
<title>Node7&#45;&gt;Node11</title>
<path fill="none" stroke="midnightblue" d="M273.52,-168.35C259.79,-159.86 244.66,-147.66 237,-132 226.53,-110.6 243.94,-62.7 252,-56 293.09,-21.82 667.95,-13.31 786.93,-11.46"/>
<polygon fill="midnightblue" stroke="midnightblue" points="787.04,-14.96 796.99,-11.31 786.94,-7.96 787.04,-14.96"/>
</g>
<!-- Node15 -->
<g id="node15" class="node">
<title>Node15</title>
<g id="a_node15"><a xlink:href="Logger_8h.html" target="_top" xlink:title=" ">
<polygon fill="white" stroke="black" points="246.5,-112.5 246.5,-131.5 357.5,-131.5 357.5,-112.5 246.5,-112.5"/>
<text text-anchor="middle" x="302" y="-119.5" font-family="Helvetica,sans-Serif" font-size="10.00">BayesFilters/Logger.h</text>
</a>
</g>
</g>
<!-- Node7&#45;&gt;Node15 -->
<g id="edge14" class="edge">
<title>Node7&#45;&gt;Node15</title>
<path fill="none" stroke="midnightblue" d="M302,-168.4C302,-160.47 302,-150.46 302,-141.86"/>
<polygon fill="midnightblue" stroke="midnightblue" points="305.5,-141.66 302,-131.66 298.5,-141.66 305.5,-141.66"/>
</g>
<!-- Node18 -->
<g id="node18" class="node">
<title>Node18</title>
<g id="a_node18"><a xlink:title=" ">
<polygon fill="white" stroke="#bfbfbf" points="770.5,-56.5 770.5,-75.5 811.5,-75.5 811.5,-56.5 770.5,-56.5"/>
<text text-anchor="middle" x="791" y="-63.5" font-family="Helvetica,sans-Serif" font-size="10.00">string</text>
</a>
</g>
</g>
<!-- Node7&#45;&gt;Node18 -->
<g id="edge20" class="edge">
<title>Node7&#45;&gt;Node18</title>
<path fill="none" stroke="midnightblue" d="M320.24,-168.42C344.68,-149.85 387.04,-118.72 405,-112 470.03,-87.66 680,-73.37 759.82,-68.7"/>
<polygon fill="midnightblue" stroke="midnightblue" points="760.4,-72.18 770.19,-68.11 760,-65.19 760.4,-72.18"/>
</g>
<!-- Node19 -->
<g id="node19" class="node">
<title>Node19</title>
<g id="a_node19"><a xlink:title=" ">
<polygon fill="white" stroke="#bfbfbf" points="414,-112.5 414,-131.5 454,-131.5 454,-112.5 414,-112.5"/>
<text text-anchor="middle" x="434" y="-119.5" font-family="Helvetica,sans-Serif" font-size="10.00">utility</text>
</a>
</g>
</g>
<!-- Node7&#45;&gt;Node19 -->
<g id="edge21" class="edge">
<title>Node7&#45;&gt;Node19</title>
<path fill="none" stroke="midnightblue" d="M333.28,-168.4C355.23,-158.51 384.34,-145.38 405.62,-135.79"/>
<polygon fill="midnightblue" stroke="midnightblue" points="407.11,-138.96 414.79,-131.66 404.24,-132.58 407.11,-138.96"/>
</g>
<!-- Node9 -->
<g id="node9" class="node">
<title>Node9</title>
<g id="a_node9"><a xlink:href="any_8h.html" target="_top" xlink:title=" ">
<polygon fill="white" stroke="black" points="91.5,-56.5 91.5,-75.5 188.5,-75.5 188.5,-56.5 91.5,-56.5"/>
<text text-anchor="middle" x="140" y="-63.5" font-family="Helvetica,sans-Serif" font-size="10.00">BayesFilters/any.h</text>
</a>
</g>
</g>
<!-- Node8&#45;&gt;Node9 -->
<g id="edge8" class="edge">
<title>Node8&#45;&gt;Node9</title>
<path fill="none" stroke="midnightblue" d="M138.33,-112.08C138.59,-105.01 138.97,-94.86 139.3,-85.99"/>
<polygon fill="midnightblue" stroke="midnightblue" points="142.8,-85.87 139.68,-75.75 135.81,-85.61 142.8,-85.87"/>
</g>
<!-- Node10 -->
<g id="node10" class="node">
<title>Node10</title>
<g id="a_node10"><a xlink:title=" ">
<polygon fill="white" stroke="#bfbfbf" points="0,-0.5 0,-19.5 56,-19.5 56,-0.5 0,-0.5"/>
<text text-anchor="middle" x="28" y="-7.5" font-family="Helvetica,sans-Serif" font-size="10.00">algorithm</text>
</a>
</g>
</g>
<!-- Node9&#45;&gt;Node10 -->
<g id="edge9" class="edge">
<title>Node9&#45;&gt;Node10</title>
<path fill="none" stroke="midnightblue" d="M122.01,-56.32C103.96,-47.62 75.95,-34.12 55.2,-24.11"/>
<polygon fill="midnightblue" stroke="midnightblue" points="56.48,-20.84 45.95,-19.65 53.44,-27.15 56.48,-20.84"/>
</g>
<!-- Node9&#45;&gt;Node11 -->
<g id="edge10" class="edge">
<title>Node9&#45;&gt;Node11</title>
<path fill="none" stroke="midnightblue" d="M188.53,-57.83C193.75,-57.16 198.98,-56.53 204,-56 424.78,-32.48 691.18,-17.67 786.73,-12.78"/>
<polygon fill="midnightblue" stroke="midnightblue" points="787.19,-16.27 797,-12.26 786.83,-9.27 787.19,-16.27"/>
</g>
<!-- Node12 -->
<g id="node12" class="node">
<title>Node12</title>
<g id="a_node12"><a xlink:title=" ">
<polygon fill="white" stroke="#bfbfbf" points="74.5,-0.5 74.5,-19.5 133.5,-19.5 133.5,-0.5 74.5,-0.5"/>
<text text-anchor="middle" x="104" y="-7.5" font-family="Helvetica,sans-Serif" font-size="10.00">stdexcept</text>
</a>
</g>
</g>
<!-- Node9&#45;&gt;Node12 -->
<g id="edge11" class="edge">
<title>Node9&#45;&gt;Node12</title>
<path fill="none" stroke="midnightblue" d="M134.06,-56.08C129.02,-48.53 121.66,-37.49 115.49,-28.23"/>
<polygon fill="midnightblue" stroke="midnightblue" points="118.29,-26.13 109.83,-19.75 112.47,-30.01 118.29,-26.13"/>
</g>
<!-- Node13 -->
<g id="node13" class="node">
<title>Node13</title>
<g id="a_node13"><a xlink:title=" ">
<polygon fill="white" stroke="#bfbfbf" points="151.5,-0.5 151.5,-19.5 202.5,-19.5 202.5,-0.5 151.5,-0.5"/>
<text text-anchor="middle" x="177" y="-7.5" font-family="Helvetica,sans-Serif" font-size="10.00">typeinfo</text>
</a>
</g>
</g>
<!-- Node9&#45;&gt;Node13 -->
<g id="edge12" class="edge">
<title>Node9&#45;&gt;Node13</title>
<path fill="none" stroke="midnightblue" d="M146.11,-56.08C151.28,-48.53 158.85,-37.49 165.19,-28.23"/>
<polygon fill="midnightblue" stroke="midnightblue" points="168.24,-29.98 171,-19.75 162.46,-26.02 168.24,-29.98"/>
</g>
<!-- Node14 -->
<g id="node14" class="node">
<title>Node14</title>
<g id="a_node14"><a xlink:title=" ">
<polygon fill="white" stroke="#bfbfbf" points="221,-0.5 221,-19.5 283,-19.5 283,-0.5 221,-0.5"/>
<text text-anchor="middle" x="252" y="-7.5" font-family="Helvetica,sans-Serif" font-size="10.00">type_traits</text>
</a>
</g>
</g>
<!-- Node9&#45;&gt;Node14 -->
<g id="edge13" class="edge">
<title>Node9&#45;&gt;Node14</title>
<path fill="none" stroke="midnightblue" d="M157.99,-56.32C176.04,-47.62 204.05,-34.12 224.8,-24.11"/>
<polygon fill="midnightblue" stroke="midnightblue" points="226.56,-27.15 234.05,-19.65 223.52,-20.84 226.56,-27.15"/>
</g>
<!-- Node15&#45;&gt;Node5 -->
<g id="edge18" class="edge">
<title>Node15&#45;&gt;Node5</title>
<path fill="none" stroke="midnightblue" d="M338.44,-112.44C383.03,-101.98 457.79,-84.42 500.16,-74.47"/>
<polygon fill="midnightblue" stroke="midnightblue" points="501.01,-77.87 509.95,-72.18 499.41,-71.06 501.01,-77.87"/>
</g>
<!-- Node16 -->
<g id="node16" class="node">
<title>Node16</title>
<g id="a_node16"><a xlink:title=" ">
<polygon fill="white" stroke="#bfbfbf" points="333,-56.5 333,-75.5 383,-75.5 383,-56.5 333,-56.5"/>
<text text-anchor="middle" x="358" y="-63.5" font-family="Helvetica,sans-Serif" font-size="10.00">fstream</text>
</a>
</g>
</g>
<!-- Node15&#45;&gt;Node16 -->
<g id="edge15" class="edge">
<title>Node15&#45;&gt;Node16</title>
<path fill="none" stroke="midnightblue" d="M311,-112.32C319.19,-104.42 331.51,-92.55 341.47,-82.94"/>
<polygon fill="midnightblue" stroke="midnightblue" points="344.07,-85.29 348.84,-75.83 339.21,-80.26 344.07,-85.29"/>
</g>
<!-- Node17 -->
<g id="node17" class="node">
<title>Node17</title>
<g id="a_node17"><a xlink:title=" ">
<polygon fill="white" stroke="#bfbfbf" points="261,-56.5 261,-75.5 315,-75.5 315,-56.5 261,-56.5"/>
<text text-anchor="middle" x="288" y="-63.5" font-family="Helvetica,sans-Serif" font-size="10.00">iostream</text>
</a>
</g>
</g>
<!-- Node15&#45;&gt;Node17 -->
<g id="edge16" class="edge">
<title>Node15&#45;&gt;Node17</title>
<path fill="none" stroke="midnightblue" d="M299.69,-112.08C297.83,-104.93 295.16,-94.64 292.85,-85.69"/>
<polygon fill="midnightblue" stroke="midnightblue" points="296.17,-84.55 290.27,-75.75 289.39,-86.31 296.17,-84.55"/>
</g>
<!-- Node15&#45;&gt;Node18 -->
<g id="edge17" class="edge">
<title>Node15&#45;&gt;Node18</title>
<path fill="none" stroke="midnightblue" d="M357.77,-113.72C362.58,-113.13 367.38,-112.55 372,-112 517.18,-94.87 690.98,-77.07 760.29,-70.08"/>
<polygon fill="midnightblue" stroke="midnightblue" points="760.89,-73.53 770.49,-69.05 760.19,-66.57 760.89,-73.53"/>
</g>
<!-- Node20&#45;&gt;Node7 -->
<g id="edge25" class="edge">
<title>Node20&#45;&gt;Node7</title>
<path fill="none" stroke="midnightblue" d="M212.9,-235.48C227.38,-227.19 249.87,-214.32 268.63,-203.59"/>
<polygon fill="midnightblue" stroke="midnightblue" points="270.55,-206.53 277.49,-198.52 267.07,-200.45 270.55,-206.53"/>
</g>
<!-- Node21 -->
<g id="node21" class="node">
<title>Node21</title>
<g id="a_node21"><a xlink:title=" ">
<polygon fill="white" stroke="#bfbfbf" points="151.5,-174 151.5,-193 216.5,-193 216.5,-174 151.5,-174"/>
<text text-anchor="middle" x="184" y="-181" font-family="Helvetica,sans-Serif" font-size="10.00">Eigen/Core</text>
</a>
</g>
</g>
<!-- Node20&#45;&gt;Node21 -->
<g id="edge26" class="edge">
<title>Node20&#45;&gt;Node21</title>
<path fill="none" stroke="midnightblue" d="M195.99,-235.48C194,-226.99 190.87,-213.7 188.31,-202.82"/>
<polygon fill="midnightblue" stroke="midnightblue" points="191.7,-201.94 186,-193.01 184.89,-203.54 191.7,-201.94"/>
</g>
<!-- Node22&#45;&gt;Node4 -->
<g id="edge29" class="edge">
<title>Node22&#45;&gt;Node4</title>
<path fill="none" stroke="midnightblue" d="M527.34,-235.48C547.55,-225.53 581.19,-208.99 604.64,-197.46"/>
<polygon fill="midnightblue" stroke="midnightblue" points="606.27,-200.56 613.7,-193.01 603.18,-194.28 606.27,-200.56"/>
</g>
<!-- Node22&#45;&gt;Node5 -->
<g id="edge30" class="edge">
<title>Node22&#45;&gt;Node5</title>
<path fill="none" stroke="midnightblue" d="M511.06,-235.46C514.42,-208.43 524.89,-124.24 529.62,-86.11"/>
<polygon fill="midnightblue" stroke="midnightblue" points="533.14,-86.22 530.9,-75.87 526.19,-85.36 533.14,-86.22"/>
</g>
<!-- Node23&#45;&gt;Node6 -->
<g id="edge37" class="edge">
<title>Node23&#45;&gt;Node6</title>
<path fill="none" stroke="midnightblue" d="M486.37,-300.87C578.51,-300.42 732.94,-293.68 772,-255 802.18,-225.12 798.32,-170.19 793.73,-141.52"/>
<polygon fill="midnightblue" stroke="midnightblue" points="797.17,-140.83 791.94,-131.61 790.28,-142.07 797.17,-140.83"/>
</g>
<!-- Node23&#45;&gt;Node7 -->
<g id="edge33" class="edge">
<title>Node23&#45;&gt;Node7</title>
<path fill="none" stroke="midnightblue" d="M405.27,-291.44C394.48,-282.67 377.56,-268.45 364,-255 348.33,-239.45 331.89,-220.63 319.88,-206.34"/>
<polygon fill="midnightblue" stroke="midnightblue" points="322.45,-203.96 313.36,-198.51 317.07,-208.44 322.45,-203.96"/>
</g>
<!-- Node23&#45;&gt;Node11 -->
<g id="edge35" class="edge">
<title>Node23&#45;&gt;Node11</title>
<path fill="none" stroke="midnightblue" d="M418.42,-291.39C430.14,-249.9 481.3,-71.95 501,-56 544.17,-21.04 711.29,-13.24 786.25,-11.5"/>
<polygon fill="midnightblue" stroke="midnightblue" points="786.69,-14.99 796.62,-11.28 786.55,-7.99 786.69,-14.99"/>
</g>
<!-- Node23&#45;&gt;Node19 -->
<g id="edge36" class="edge">
<title>Node23&#45;&gt;Node19</title>
<path fill="none" stroke="midnightblue" d="M412.4,-291.22C408.94,-282.28 403.97,-267.94 402,-255 395.71,-213.59 413.55,-166.1 425.07,-140.9"/>
<polygon fill="midnightblue" stroke="midnightblue" points="428.38,-142.08 429.53,-131.55 422.07,-139.07 428.38,-142.08"/>
</g>
<!-- Node23&#45;&gt;Node20 -->
<g id="edge32" class="edge">
<title>Node23&#45;&gt;Node20</title>
<path fill="none" stroke="midnightblue" d="M381.46,-291.44C343.75,-282.1 283.26,-267.12 242.14,-256.93"/>
<polygon fill="midnightblue" stroke="midnightblue" points="242.93,-253.52 232.38,-254.52 241.25,-260.32 242.93,-253.52"/>
</g>
<!-- Node23&#45;&gt;Node22 -->
<g id="edge34" class="edge">
<title>Node23&#45;&gt;Node22</title>
<path fill="none" stroke="midnightblue" d="M431.1,-291.32C445.9,-282.82 468.69,-269.73 485.98,-259.8"/>
<polygon fill="midnightblue" stroke="midnightblue" points="488.01,-262.67 494.93,-254.65 484.52,-256.6 488.01,-262.67"/>
</g>
<!-- Node24&#45;&gt;Node11 -->
<g id="edge48" class="edge">
<title>Node24&#45;&gt;Node11</title>
<path fill="none" stroke="midnightblue" d="M1095.57,-291.49C1117.76,-285.02 1143.48,-273.88 1160,-255 1185.84,-225.47 1195.97,-201.16 1175,-168 1104.61,-56.69 934.39,-23.73 859.45,-14.45"/>
<polygon fill="midnightblue" stroke="midnightblue" points="859.45,-10.92 849.11,-13.24 858.64,-17.87 859.45,-10.92"/>
</g>
<!-- Node25 -->
<g id="node25" class="node">
<title>Node25</title>
<g id="a_node25"><a xlink:href="ExogenousModel_8h.html" target="_top" xlink:title=" ">
<polygon fill="white" stroke="black" points="978,-235.5 978,-254.5 1136,-254.5 1136,-235.5 978,-235.5"/>
<text text-anchor="middle" x="1057" y="-242.5" font-family="Helvetica,sans-Serif" font-size="10.00">BayesFilters/ExogenousModel.h</text>
</a>
</g>
</g>
<!-- Node24&#45;&gt;Node25 -->
<g id="edge39" class="edge">
<title>Node24&#45;&gt;Node25</title>
<path fill="none" stroke="midnightblue" d="M1052.83,-291.08C1053.48,-284.01 1054.42,-273.86 1055.24,-264.99"/>
<polygon fill="midnightblue" stroke="midnightblue" points="1058.75,-265.03 1056.19,-254.75 1051.78,-264.39 1058.75,-265.03"/>
</g>
<!-- Node27 -->
<g id="node27" class="node">
<title>Node27</title>
<g id="a_node27"><a xlink:href="Skippable_8h.html" target="_top" xlink:title=" ">
<polygon fill="white" stroke="black" points="1040.5,-174 1040.5,-193 1165.5,-193 1165.5,-174 1040.5,-174"/>
<text text-anchor="middle" x="1103" y="-181" font-family="Helvetica,sans-Serif" font-size="10.00">BayesFilters/Skippable.h</text>
</a>
</g>
</g>
<!-- Node24&#45;&gt;Node27 -->
<g id="edge45" class="edge">
<title>Node24&#45;&gt;Node27</title>
<path fill="none" stroke="midnightblue" d="M1091.25,-291.48C1111,-284.99 1133.18,-273.84 1145,-255 1156.79,-236.19 1138.67,-214.16 1122.67,-199.79"/>
<polygon fill="midnightblue" stroke="midnightblue" points="1124.58,-196.82 1114.68,-193.04 1120.06,-202.17 1124.58,-196.82"/>
</g>
<!-- Node29 -->
<g id="node29" class="node">
<title>Node29</title>
<g id="a_node29"><a xlink:href="StateProcess_8h.html" target="_top" xlink:title=" ">
<polygon fill="white" stroke="black" points="818,-235.5 818,-254.5 960,-254.5 960,-235.5 818,-235.5"/>
<text text-anchor="middle" x="889" y="-242.5" font-family="Helvetica,sans-Serif" font-size="10.00">BayesFilters/StateProcess.h</text>
</a>
</g>
</g>
<!-- Node24&#45;&gt;Node29 -->
<g id="edge46" class="edge">
<title>Node24&#45;&gt;Node29</title>
<path fill="none" stroke="midnightblue" d="M1026.17,-291.44C998.75,-282.36 955.22,-267.94 924.57,-257.78"/>
<polygon fill="midnightblue" stroke="midnightblue" points="925.3,-254.34 914.71,-254.52 923.1,-260.98 925.3,-254.34"/>
</g>
<!-- Node26 -->
<g id="node26" class="node">
<title>Node26</title>
<g id="a_node26"><a xlink:href="ExogenousProcess_8h.html" target="_top" xlink:title=" ">
<polygon fill="white" stroke="black" points="855.5,-174 855.5,-193 1022.5,-193 1022.5,-174 855.5,-174"/>
<text text-anchor="middle" x="939" y="-181" font-family="Helvetica,sans-Serif" font-size="10.00">BayesFilters/ExogenousProcess.h</text>
</a>
</g>
</g>
<!-- Node25&#45;&gt;Node26 -->
<g id="edge40" class="edge">
<title>Node25&#45;&gt;Node26</title>
<path fill="none" stroke="midnightblue" d="M1040.09,-235.48C1020.47,-225.58 987.87,-209.14 965.01,-197.62"/>
<polygon fill="midnightblue" stroke="midnightblue" points="966.38,-194.39 955.88,-193.01 963.23,-200.64 966.38,-194.39"/>
</g>
<!-- Node25&#45;&gt;Node27 -->
<g id="edge42" class="edge">
<title>Node25&#45;&gt;Node27</title>
<path fill="none" stroke="midnightblue" d="M1063.59,-235.48C1070.49,-226.55 1081.5,-212.31 1090.13,-201.14"/>
<polygon fill="midnightblue" stroke="midnightblue" points="1093.07,-203.06 1096.42,-193.01 1087.54,-198.78 1093.07,-203.06"/>
</g>
<!-- Node26&#45;&gt;Node6 -->
<g id="edge41" class="edge">
<title>Node26&#45;&gt;Node6</title>
<path fill="none" stroke="midnightblue" d="M917.65,-173.98C892.31,-163.86 849.86,-146.9 820.93,-135.35"/>
<polygon fill="midnightblue" stroke="midnightblue" points="821.89,-131.97 811.31,-131.51 819.3,-138.47 821.89,-131.97"/>
</g>
<!-- Node28 -->
<g id="node28" class="node">
<title>Node28</title>
<g id="a_node28"><a xlink:href="Skipper_8h.html" target="_top" xlink:title=" ">
<polygon fill="white" stroke="black" points="932.5,-112.5 932.5,-131.5 1047.5,-131.5 1047.5,-112.5 932.5,-112.5"/>
<text text-anchor="middle" x="990" y="-119.5" font-family="Helvetica,sans-Serif" font-size="10.00">BayesFilters/Skipper.h</text>
</a>
</g>
</g>
<!-- Node27&#45;&gt;Node28 -->
<g id="edge43" class="edge">
<title>Node27&#45;&gt;Node28</title>
<path fill="none" stroke="midnightblue" d="M1086.81,-173.98C1068.1,-164.12 1037.08,-147.79 1015.2,-136.27"/>
<polygon fill="midnightblue" stroke="midnightblue" points="1016.64,-133.07 1006.16,-131.51 1013.38,-139.27 1016.64,-133.07"/>
</g>
<!-- Node28&#45;&gt;Node18 -->
<g id="edge44" class="edge">
<title>Node28&#45;&gt;Node18</title>
<path fill="none" stroke="midnightblue" d="M958.47,-112.44C920.9,-102.25 858.58,-85.34 821.48,-75.27"/>
<polygon fill="midnightblue" stroke="midnightblue" points="822.29,-71.87 811.73,-72.62 820.46,-78.62 822.29,-71.87"/>
</g>
<!-- Node29&#45;&gt;Node6 -->
<g id="edge47" class="edge">
<title>Node29&#45;&gt;Node6</title>
<path fill="none" stroke="midnightblue" d="M880.34,-235.29C871.64,-226.41 857.98,-212.11 847,-199 830.53,-179.34 813.04,-155.53 801.85,-139.86"/>
<polygon fill="midnightblue" stroke="midnightblue" points="804.68,-137.8 796.04,-131.66 798.97,-141.85 804.68,-137.8"/>
</g>
<!-- Node32&#45;&gt;Node6 -->
<g id="edge53" class="edge">
<title>Node32&#45;&gt;Node6</title>
<path fill="none" stroke="midnightblue" d="M1273.28,-176.85C1169.94,-165.33 936.34,-139.31 836.58,-128.19"/>
<polygon fill="midnightblue" stroke="midnightblue" points="836.83,-124.7 826.51,-127.07 836.06,-131.65 836.83,-124.7"/>
</g>
<!-- Node32&#45;&gt;Node11 -->
<g id="edge56" class="edge">
<title>Node32&#45;&gt;Node11</title>
<path fill="none" stroke="midnightblue" d="M1319.41,-173.95C1304.27,-145.82 1256.81,-57.86 1254,-56 1189.58,-13.36 951.14,-10.17 859.35,-10.58"/>
<polygon fill="midnightblue" stroke="midnightblue" points="859.13,-7.08 849.16,-10.64 859.18,-14.08 859.13,-7.08"/>
</g>
<!-- Node32&#45;&gt;Node18 -->
<g id="edge57" class="edge">
<title>Node32&#45;&gt;Node18</title>
<path fill="none" stroke="midnightblue" d="M1294.97,-173.91C1246.16,-159.67 1144.4,-130.89 1057,-112 972.55,-93.75 871.69,-78.43 821.92,-71.3"/>
<polygon fill="midnightblue" stroke="midnightblue" points="822.21,-67.81 811.82,-69.87 821.22,-74.74 822.21,-67.81"/>
</g>
<!-- Node33 -->
<g id="node33" class="node">
<title>Node33</title>
<g id="a_node33"><a xlink:title=" ">
<polygon fill="white" stroke="#bfbfbf" points="1306,-112.5 1306,-131.5 1352,-131.5 1352,-112.5 1306,-112.5"/>
<text text-anchor="middle" x="1329" y="-119.5" font-family="Helvetica,sans-Serif" font-size="10.00">chrono</text>
</a>
</g>
</g>
<!-- Node32&#45;&gt;Node33 -->
<g id="edge54" class="edge">
<title>Node32&#45;&gt;Node33</title>
<path fill="none" stroke="midnightblue" d="M1324.72,-173.98C1325.42,-165.58 1326.52,-152.48 1327.43,-141.66"/>
<polygon fill="midnightblue" stroke="midnightblue" points="1330.94,-141.77 1328.28,-131.51 1323.96,-141.18 1330.94,-141.77"/>
</g>
<!-- Node34 -->
<g id="node34" class="node">
<title>Node34</title>
<g id="a_node34"><a xlink:title=" ">
<polygon fill="white" stroke="#bfbfbf" points="1370,-112.5 1370,-131.5 1414,-131.5 1414,-112.5 1370,-112.5"/>
<text text-anchor="middle" x="1392" y="-119.5" font-family="Helvetica,sans-Serif" font-size="10.00">cmath</text>
</a>
</g>
</g>
<!-- Node32&#45;&gt;Node34 -->
<g id="edge55" class="edge">
<title>Node32&#45;&gt;Node34</title>
<path fill="none" stroke="midnightblue" d="M1333.74,-173.98C1344.35,-164.7 1361.52,-149.67 1374.48,-138.33"/>
<polygon fill="midnightblue" stroke="midnightblue" points="1377.05,-140.73 1382.28,-131.51 1372.44,-135.46 1377.05,-140.73"/>
</g>
</g>
</svg>
