<?xml version="1.0" encoding="UTF-8" standalone="no"?>
<!DOCTYPE svg PUBLIC "-//W3C//DTD SVG 1.1//EN"
 "http://www.w3.org/Graphics/SVG/1.1/DTD/svg11.dtd">
<!-- Generated by graphviz version 2.43.0 (0)
 -->
<!-- Title: /home/user/bayes&#45;filters&#45;lib/src/BayesFilters/include/BayesFilters/GPFCorrection.h Pages: 1 -->
<svg width="1481pt" height="397pt"
 viewBox="0.00 0.00 1481.00 397.00" xmlns="http://www.w3.org/2000/svg" xmlns:xlink="http://www.w3.org/1999/xlink">
<g id="graph0" class="graph" transform="scale(1 1) rotate(0) translate(4 393)">
<title>/home/user/bayes&#45;filters&#45;lib/src/BayesFilters/include/BayesFilters/GPFCorrection.h</title>
<polygon fill="white" stroke="transparent" points="-4,4 -4,-393 1477,-393 1477,4 -4,4"/>
<!-- Node1 -->
<g id="node1" class="node">
<title>Node1</title>
<g id="a_node1"><a xlink:title=" ">
<polygon fill="#bfbfbf" stroke="black" points="579.5,-347.5 579.5,-388.5 740.5,-388.5 740.5,-347.5 579.5,-347.5"/>
<text text-anchor="start" x="587.5" y="-376.5" font-family="Helvetica,sans-Serif" font-size="10.00">/home/user/bayes&#45;filters</text>
<text text-anchor="start" x="587.5" y="-365.5" font-family="Helvetica,sans-Serif" font-size="10.00">&#45;lib/src/BayesFilters/include</text>
<text text-anchor="middle" x="660" y="-354.5" font-family="Helvetica,sans-Serif" font-size="10.00">/BayesFilters/GPFCorrection.h</text>
</a>
</g>
</g>
<!-- Node2 -->
<g id="node2" class="node">
<title>Node2</title>
<g id="a_node2"><a xlink:href="GaussianCorrection_8h.html" target="_top" xlink:title=" ">
<polygon fill="white" stroke="black" points="158,-235.5 158,-254.5 342,-254.5 342,-235.5 158,-235.5"/>
<text text-anchor="middle" x="250" y="-242.5" font-family="Helvetica,sans-Serif" font-size="10.00">BayesFilters/GaussianCorrection.h</text>
</a>
</g>
</g>
<!-- Node1&#45;&gt;Node2 -->
<g id="edge1" class="edge">
<title>Node1&#45;&gt;Node2</title>
<path fill="none" stroke="midnightblue" d="M593.67,-347.42C507.26,-321.92 358.98,-278.16 288.89,-257.48"/>
<polygon fill="midnightblue" stroke="midnightblue" points="289.71,-254.07 279.13,-254.6 287.73,-260.78 289.71,-254.07"/>
</g>
<!-- Node6 -->
<g id="node6" class="node">
<title>Node6</title>
<g id="a_node6"><a xlink:href="MeasurementModel_8h.html" target="_top" xlink:title=" ">
<polygon fill="white" stroke="black" points="456.5,-168.5 456.5,-198.5 603.5,-198.5 603.5,-168.5 456.5,-168.5"/>
<text text-anchor="start" x="464.5" y="-186.5" font-family="Helvetica,sans-Serif" font-size="10.00">BayesFilters/Measurement</text>
<text text-anchor="middle" x="530" y="-175.5" font-family="Helvetica,sans-Serif" font-size="10.00">Model.h</text>
</a>
</g>
</g>
<!-- Node1&#45;&gt;Node6 -->
<g id="edge28" class="edge">
<title>Node1&#45;&gt;Node6</title>
<path fill="none" stroke="midnightblue" d="M618.99,-347.29C603.43,-338.1 586.67,-325.88 575,-311 551,-280.39 539.17,-235.95 533.84,-208.7"/>
<polygon fill="midnightblue" stroke="midnightblue" points="537.28,-208.05 532.05,-198.84 530.39,-209.3 537.28,-208.05"/>
</g>
<!-- Node10 -->
<g id="node10" class="node">
<title>Node10</title>
<g id="a_node10"><a xlink:title=" ">
<polygon fill="white" stroke="#bfbfbf" points="1202,-0.5 1202,-19.5 1260,-19.5 1260,-0.5 1202,-0.5"/>
<text text-anchor="middle" x="1231" y="-7.5" font-family="Helvetica,sans-Serif" font-size="10.00">memory</text>
</a>
</g>
</g>
<!-- Node1&#45;&gt;Node10 -->
<g id="edge53" class="edge">
<title>Node1&#45;&gt;Node10</title>
<path fill="none" stroke="midnightblue" d="M740.63,-360.25C914.07,-344.64 1307,-302.99 1307,-246 1307,-246 1307,-246 1307,-121 1307,-81.28 1273.04,-45.5 1250.52,-26.15"/>
<polygon fill="midnightblue" stroke="midnightblue" points="1252.48,-23.24 1242.54,-19.57 1248.02,-28.63 1252.48,-23.24"/>
</g>
<!-- Node21 -->
<g id="node21" class="node">
<title>Node21</title>
<g id="a_node21"><a xlink:href="LikelihoodModel_8h.html" target="_top" xlink:title=" ">
<polygon fill="white" stroke="black" points="360,-235.5 360,-254.5 528,-254.5 528,-235.5 360,-235.5"/>
<text text-anchor="middle" x="444" y="-242.5" font-family="Helvetica,sans-Serif" font-size="10.00">BayesFilters/LikelihoodModel.h</text>
</a>
</g>
</g>
<!-- Node1&#45;&gt;Node21 -->
<g id="edge25" class="edge">
<title>Node1&#45;&gt;Node21</title>
<path fill="none" stroke="midnightblue" d="M614.97,-347.46C592.64,-337.31 565.49,-324.28 542,-311 514.07,-295.22 483.51,-274.32 464.07,-260.54"/>
<polygon fill="midnightblue" stroke="midnightblue" points="465.89,-257.54 455.72,-254.57 461.82,-263.23 465.89,-257.54"/>
</g>
<!-- Node23 -->
<g id="node23" class="node">
<title>Node23</title>
<g id="a_node23"><a xlink:href="ParticleSet_8h.html" target="_top" xlink:title=" ">
<polygon fill="white" stroke="black" points="0,-235.5 0,-254.5 140,-254.5 140,-235.5 0,-235.5"/>
<text text-anchor="middle" x="70" y="-242.5" font-family="Helvetica,sans-Serif" font-size="10.00">BayesFilters/ParticleSet.h</text>
</a>
</g>
</g>
<!-- Node1&#45;&gt;Node23 -->
<g id="edge29" class="edge">
<title>Node1&#45;&gt;Node23</title>
<path fill="none" stroke="midnightblue" d="M579.2,-350.43C455.96,-325.15 224.51,-277.69 121.6,-256.58"/>
<polygon fill="midnightblue" stroke="midnightblue" points="122.25,-253.14 111.75,-254.56 120.85,-260 122.25,-253.14"/>
</g>
<!-- Node24 -->
<g id="node24" class="node">
<title>Node24</title>
<g id="a_node24"><a xlink:href="PFCorrection_8h.html" target="_top" xlink:title=" ">
<polygon fill="white" stroke="black" points="584.5,-291.5 584.5,-310.5 735.5,-310.5 735.5,-291.5 584.5,-291.5"/>
<text text-anchor="middle" x="660" y="-298.5" font-family="Helvetica,sans-Serif" font-size="10.00">BayesFilters/PFCorrection.h</text>
</a>
</g>
</g>
<!-- Node1&#45;&gt;Node24 -->
<g id="edge32" class="edge">
<title>Node1&#45;&gt;Node24</title>
<path fill="none" stroke="midnightblue" d="M660,-347.5C660,-339.07 660,-329.24 660,-320.87"/>
<polygon fill="midnightblue" stroke="midnightblue" points="663.5,-320.65 660,-310.65 656.5,-320.65 663.5,-320.65"/>
</g>
<!-- Node25 -->
<g id="node25" class="node">
<title>Node25</title>
<g id="a_node25"><a xlink:href="StateModel_8h.html" target="_top" xlink:title=" ">
<polygon fill="white" stroke="black" points="856,-291.5 856,-310.5 1000,-310.5 1000,-291.5 856,-291.5"/>
<text text-anchor="middle" x="928" y="-298.5" font-family="Helvetica,sans-Serif" font-size="10.00">BayesFilters/StateModel.h</text>
</a>
</g>
</g>
<!-- Node1&#45;&gt;Node25 -->
<g id="edge39" class="edge">
<title>Node1&#45;&gt;Node25</title>
<path fill="none" stroke="midnightblue" d="M740.41,-347.5C786.97,-336.2 843.88,-322.4 882.72,-312.98"/>
<polygon fill="midnightblue" stroke="midnightblue" points="883.78,-316.33 892.68,-310.57 882.13,-309.52 883.78,-316.33"/>
</g>
<!-- Node31 -->
<g id="node31" class="node">
<title>Node31</title>
<g id="a_node31"><a xlink:title=" ">
<polygon fill="white" stroke="#bfbfbf" points="1335.5,-291.5 1335.5,-310.5 1400.5,-310.5 1400.5,-291.5 1335.5,-291.5"/>
<text text-anchor="middle" x="1368" y="-298.5" font-family="Helvetica,sans-Serif" font-size="10.00">functional</text>
</a>
</g>
</g>
<!-- Node1&#45;&gt;Node31 -->
<g id="edge52" class="edge">
<title>Node1&#45;&gt;Node31</title>
<path fill="none" stroke="midnightblue" d="M740.68,-362.89C865.51,-355.93 1112.78,-339.68 1321,-311 1322.47,-310.8 1323.96,-310.58 1325.46,-310.35"/>
<polygon fill="midnightblue" stroke="midnightblue" points="1326.17,-313.78 1335.46,-308.69 1325.02,-306.88 1326.17,-313.78"/>
</g>
<!-- Node32 -->
<g id="node32" class="node">
<title>Node32</title>
<g id="a_node32"><a xlink:title=" ">
<polygon fill="white" stroke="#bfbfbf" points="1419,-291.5 1419,-310.5 1473,-310.5 1473,-291.5 1419,-291.5"/>
<text text-anchor="middle" x="1446" y="-298.5" font-family="Helvetica,sans-Serif" font-size="10.00">random</text>
</a>
</g>
</g>
<!-- Node1&#45;&gt;Node32 -->
<g id="edge54" class="edge">
<title>Node1&#45;&gt;Node32</title>
<path fill="none" stroke="midnightblue" d="M740.72,-365.48C876.89,-361.91 1160.84,-350.23 1409.05,-310.87"/>
<polygon fill="midnightblue" stroke="midnightblue" points="1409.66,-314.32 1418.98,-309.28 1408.55,-307.41 1409.66,-314.32"/>
</g>
<!-- Node3 -->
<g id="node3" class="node">
<title>Node3</title>
<g id="a_node3"><a xlink:href="GaussianMixture_8h.html" target="_top" xlink:title=" ">
<polygon fill="white" stroke="black" points="125.5,-174 125.5,-193 296.5,-193 296.5,-174 125.5,-174"/>
<text text-anchor="middle" x="211" y="-181" font-family="Helvetica,sans-Serif" font-size="10.00">BayesFilters/GaussianMixture.h</text>
</a>
</g>
</g>
<!-- Node2&#45;&gt;Node3 -->
<g id="edge2" class="edge">
<title>Node2&#45;&gt;Node3</title>
<path fill="none" stroke="midnightblue" d="M244.41,-235.48C238.62,-226.64 229.41,-212.59 222.13,-201.48"/>
<polygon fill="midnightblue" stroke="midnightblue" points="224.99,-199.45 216.58,-193.01 219.13,-203.29 224.99,-199.45"/>
</g>
<!-- Node5 -->
<g id="node5" class="node">
<title>Node5</title>
<g id="a_node5"><a xlink:title=" ">
<polygon fill="white" stroke="#bfbfbf" points="575.5,-112.5 575.5,-131.5 652.5,-131.5 652.5,-112.5 575.5,-112.5"/>
<text text-anchor="middle" x="614" y="-119.5" font-family="Helvetica,sans-Serif" font-size="10.00">Eigen/Dense</text>
</a>
</g>
</g>
<!-- Node2&#45;&gt;Node5 -->
<g id="edge24" class="edge">
<title>Node2&#45;&gt;Node5</title>
<path fill="none" stroke="midnightblue" d="M259.46,-235.3C277.51,-219.22 318.78,-184.94 360,-168 396.29,-153.08 501.92,-137.5 564.95,-129.16"/>
<polygon fill="midnightblue" stroke="midnightblue" points="565.61,-132.6 575.07,-127.83 564.7,-125.66 565.61,-132.6"/>
</g>
<!-- Node2&#45;&gt;Node6 -->
<g id="edge5" class="edge">
<title>Node2&#45;&gt;Node6</title>
<path fill="none" stroke="midnightblue" d="M290.12,-235.48C332.74,-226.42 401.12,-211.89 453.99,-200.65"/>
<polygon fill="midnightblue" stroke="midnightblue" points="454.96,-204.03 464.01,-198.52 453.5,-197.18 454.96,-204.03"/>
</g>
<!-- Node4 -->
<g id="node4" class="node">
<title>Node4</title>
<g id="a_node4"><a xlink:title=" ">
<polygon fill="white" stroke="#bfbfbf" points="134.5,-56.5 134.5,-75.5 181.5,-75.5 181.5,-56.5 134.5,-56.5"/>
<text text-anchor="middle" x="158" y="-63.5" font-family="Helvetica,sans-Serif" font-size="10.00">vector</text>
</a>
</g>
</g>
<!-- Node3&#45;&gt;Node4 -->
<g id="edge3" class="edge">
<title>Node3&#45;&gt;Node4</title>
<path fill="none" stroke="midnightblue" d="M207.02,-173.82C198.38,-155.01 177.8,-110.15 166.24,-84.96"/>
<polygon fill="midnightblue" stroke="midnightblue" points="169.38,-83.41 162.03,-75.78 163.02,-86.33 169.38,-83.41"/>
</g>
<!-- Node3&#45;&gt;Node5 -->
<g id="edge4" class="edge">
<title>Node3&#45;&gt;Node5</title>
<path fill="none" stroke="midnightblue" d="M268.74,-173.98C348.46,-162.21 490.81,-141.19 565.39,-130.18"/>
<polygon fill="midnightblue" stroke="midnightblue" points="566.06,-133.62 575.45,-128.69 565.04,-126.69 566.06,-133.62"/>
</g>
<!-- Node6&#45;&gt;Node5 -->
<g id="edge23" class="edge">
<title>Node6&#45;&gt;Node5</title>
<path fill="none" stroke="midnightblue" d="M549.91,-168.4C562.99,-159.13 580.08,-147.03 593.32,-137.65"/>
<polygon fill="midnightblue" stroke="midnightblue" points="595.64,-140.29 601.78,-131.66 591.59,-134.58 595.64,-140.29"/>
</g>
<!-- Node7 -->
<g id="node7" class="node">
<title>Node7</title>
<g id="a_node7"><a xlink:href="Data_8h.html" target="_top" xlink:title=" ">
<polygon fill="white" stroke="black" points="407,-112.5 407,-131.5 519,-131.5 519,-112.5 407,-112.5"/>
<text text-anchor="middle" x="463" y="-119.5" font-family="Helvetica,sans-Serif" font-size="10.00">BayesFilters/Data.h</text>
</a>
</g>
</g>
<!-- Node6&#45;&gt;Node7 -->
<g id="edge6" class="edge">
<title>Node6&#45;&gt;Node7</title>
<path fill="none" stroke="midnightblue" d="M514.12,-168.4C503.98,-159.4 490.84,-147.72 480.41,-138.47"/>
<polygon fill="midnightblue" stroke="midnightblue" points="482.55,-135.68 472.75,-131.66 477.9,-140.92 482.55,-135.68"/>
</g>
<!-- Node6&#45;&gt;Node10 -->
<g id="edge20" class="edge">
<title>Node6&#45;&gt;Node10</title>
<path fill="none" stroke="midnightblue" d="M533.13,-168.32C537.52,-151.97 547.18,-125.61 566,-112 667.37,-38.73 1064.77,-17.36 1191.76,-12.34"/>
<polygon fill="midnightblue" stroke="midnightblue" points="1191.96,-15.83 1201.81,-11.95 1191.69,-8.84 1191.96,-15.83"/>
</g>
<!-- Node14 -->
<g id="node14" class="node">
<title>Node14</title>
<g id="a_node14"><a xlink:href="Logger_8h.html" target="_top" xlink:title=" ">
<polygon fill="white" stroke="black" points="229.5,-112.5 229.5,-131.5 350.5,-131.5 350.5,-112.5 229.5,-112.5"/>
<text text-anchor="middle" x="290" y="-119.5" font-family="Helvetica,sans-Serif" font-size="10.00">BayesFilters/Logger.h</text>
</a>
</g>
</g>
<!-- Node6&#45;&gt;Node14 -->
<g id="edge13" class="edge">
<title>Node6&#45;&gt;Node14</title>
<path fill="none" stroke="midnightblue" d="M473.43,-168.47C430.85,-157.92 373.32,-143.66 334.11,-133.94"/>
<polygon fill="midnightblue" stroke="midnightblue" points="334.86,-130.52 324.31,-131.51 333.18,-137.31 334.86,-130.52"/>
</g>
<!-- Node17 -->
<g id="node17" class="node">
<title>Node17</title>
<g id="a_node17"><a xlink:title=" ">
<polygon fill="white" stroke="#bfbfbf" points="351,-56.5 351,-75.5 395,-75.5 395,-56.5 351,-56.5"/>
<text text-anchor="middle" x="373" y="-63.5" font-family="Helvetica,sans-Serif" font-size="10.00">string</text>
</a>
</g>
</g>
<!-- Node6&#45;&gt;Node17 -->
<g id="edge21" class="edge">
<title>Node6&#45;&gt;Node17</title>
<path fill="none" stroke="midnightblue" d="M462.03,-168.41C439.31,-160.83 415.37,-149.33 398,-132 385.58,-119.6 379.2,-100.36 376.01,-86.02"/>
<polygon fill="midnightblue" stroke="midnightblue" points="379.38,-84.98 374.08,-75.8 372.5,-86.28 379.38,-84.98"/>
</g>
<!-- Node18 -->
<g id="node18" class="node">
<title>Node18</title>
<g id="a_node18"><a xlink:href="VectorDescription_8h.html" target="_top" xlink:title=" ">
<polygon fill="white" stroke="black" points="876.5,-112.5 876.5,-131.5 1051.5,-131.5 1051.5,-112.5 876.5,-112.5"/>
<text text-anchor="middle" x="964" y="-119.5" font-family="Helvetica,sans-Serif" font-size="10.00">BayesFilters/VectorDescription.h</text>
</a>
</g>
</g>
<!-- Node6&#45;&gt;Node18 -->
<g id="edge18" class="edge">
<title>Node6&#45;&gt;Node18</title>
<path fill="none" stroke="midnightblue" d="M603.62,-172.41C684.1,-161.37 812.2,-143.81 892.02,-132.87"/>
<polygon fill="midnightblue" stroke="midnightblue" points="892.56,-136.33 901.99,-131.5 891.61,-129.39 892.56,-136.33"/>
</g>
<!-- Node20 -->
<g id="node20" class="node">
<title>Node20</title>
<g id="a_node20"><a xlink:title=" ">
<polygon fill="white" stroke="#bfbfbf" points="670.5,-112.5 670.5,-131.5 715.5,-131.5 715.5,-112.5 670.5,-112.5"/>
<text text-anchor="middle" x="693" y="-119.5" font-family="Helvetica,sans-Serif" font-size="10.00">utility</text>
</a>
</g>
</g>
<!-- Node6&#45;&gt;Node20 -->
<g id="edge22" class="edge">
<title>Node6&#45;&gt;Node20</title>
<path fill="none" stroke="midnightblue" d="M568.63,-168.4C596.68,-158.16 634.2,-144.46 660.67,-134.8"/>
<polygon fill="midnightblue" stroke="midnightblue" points="662.03,-138.03 670.23,-131.31 659.63,-131.45 662.03,-138.03"/>
</g>
<!-- Node8 -->
<g id="node8" class="node">
<title>Node8</title>
<g id="a_node8"><a xlink:href="any_8h.html" target="_top" xlink:title=" ">
<polygon fill="white" stroke="black" points="413.5,-56.5 413.5,-75.5 518.5,-75.5 518.5,-56.5 413.5,-56.5"/>
<text text-anchor="middle" x="466" y="-63.5" font-family="Helvetica,sans-Serif" font-size="10.00">BayesFilters/any.h</text>
</a>
</g>
</g>
<!-- Node7&#45;&gt;Node8 -->
<g id="edge7" class="edge">
<title>Node7&#45;&gt;Node8</title>
<path fill="none" stroke="midnightblue" d="M463.5,-112.08C463.89,-105.01 464.45,-94.86 464.95,-85.99"/>
<polygon fill="midnightblue" stroke="midnightblue" points="468.45,-85.93 465.51,-75.75 461.46,-85.54 468.45,-85.93"/>
</g>
<!-- Node9 -->
<g id="node9" class="node">
<title>Node9</title>
<g id="a_node9"><a xlink:title=" ">
<polygon fill="white" stroke="#bfbfbf" points="476,-0.5 476,-19.5 540,-19.5 540,-0.5 476,-0.5"/>
<text text-anchor="middle" x="508" y="-7.5" font-family="Helvetica,sans-Serif" font-size="10.00">algorithm</text>
</a>
</g>
</g>
<!-- Node8&#45;&gt;Node9 -->
<g id="edge8" class="edge">
<title>Node8&#45;&gt;Node9</title>
<path fill="none" stroke="midnightblue" d="M472.94,-56.08C478.93,-48.38 487.75,-37.03 495.05,-27.65"/>
<polygon fill="midnightblue" stroke="midnightblue" points="497.82,-29.79 501.19,-19.75 492.29,-25.5 497.82,-29.79"/>
</g>
<!-- Node8&#45;&gt;Node10 -->
<g id="edge9" class="edge">
<title>Node8&#45;&gt;Node10</title>
<path fill="none" stroke="midnightblue" d="M518.63,-57.58C523.48,-57 528.33,-56.46 533,-56 783.01,-31.18 1084.82,-17.09 1191.4,-12.59"/>
<polygon fill="midnightblue" stroke="midnightblue" points="1191.84,-16.08 1201.68,-12.16 1191.55,-9.08 1191.84,-16.08"/>
</g>
<!-- Node11 -->
<g id="node11" class="node">
<title>Node11</title>
<g id="a_node11"><a xlink:title=" ">
<polygon fill="white" stroke="#bfbfbf" points="558.5,-0.5 558.5,-19.5 623.5,-19.5 623.5,-0.5 558.5,-0.5"/>
<text text-anchor="middle" x="591" y="-7.5" font-family="Helvetica,sans-Serif" font-size="10.00">stdexcept</text>
</a>
</g>
</g>
<!-- Node8&#45;&gt;Node11 -->
<g id="edge10" class="edge">
<title>Node8&#45;&gt;Node11</title>
<path fill="none" stroke="midnightblue" d="M485.81,-56.44C506.29,-47.6 538.48,-33.69 561.86,-23.59"/>
<polygon fill="midnightblue" stroke="midnightblue" points="563.49,-26.7 571.29,-19.52 560.72,-20.27 563.49,-26.7"/>
</g>
<!-- Node12 -->
<g id="node12" class="node">
<title>Node12</title>
<g id="a_node12"><a xlink:title=" ">
<polygon fill="white" stroke="#bfbfbf" points="313.5,-0.5 313.5,-19.5 370.5,-19.5 370.5,-0.5 313.5,-0.5"/>
<text text-anchor="middle" x="342" y="-7.5" font-family="Helvetica,sans-Serif" font-size="10.00">typeinfo</text>
</a>
</g>
</g>
<!-- Node8&#45;&gt;Node12 -->
<g id="edge11" class="edge">
<title>Node8&#45;&gt;Node12</title>
<path fill="none" stroke="midnightblue" d="M446.35,-56.44C426.04,-47.6 394.1,-33.69 370.9,-23.59"/>
<polygon fill="midnightblue" stroke="midnightblue" points="372.12,-20.3 361.56,-19.52 369.33,-26.72 372.12,-20.3"/>
</g>
<!-- Node13 -->
<g id="node13" class="node">
<title>Node13</title>
<g id="a_node13"><a xlink:title=" ">
<polygon fill="white" stroke="#bfbfbf" points="388.5,-0.5 388.5,-19.5 457.5,-19.5 457.5,-0.5 388.5,-0.5"/>
<text text-anchor="middle" x="423" y="-7.5" font-family="Helvetica,sans-Serif" font-size="10.00">type_traits</text>
</a>
</g>
</g>
<!-- Node8&#45;&gt;Node13 -->
<g id="edge12" class="edge">
<title>Node8&#45;&gt;Node13</title>
<path fill="none" stroke="midnightblue" d="M458.9,-56.08C452.76,-48.38 443.73,-37.03 436.26,-27.65"/>
<polygon fill="midnightblue" stroke="midnightblue" points="438.94,-25.39 429.97,-19.75 433.46,-29.75 438.94,-25.39"/>
</g>
<!-- Node14&#45;&gt;Node4 -->
<g id="edge17" class="edge">
<title>Node14&#45;&gt;Node4</title>
<path fill="none" stroke="midnightblue" d="M269.08,-112.44C247.26,-103.52 212.85,-89.44 188.11,-79.32"/>
<polygon fill="midnightblue" stroke="midnightblue" points="189.4,-76.06 178.82,-75.52 186.75,-82.54 189.4,-76.06"/>
</g>
<!-- Node15 -->
<g id="node15" class="node">
<title>Node15</title>
<g id="a_node15"><a xlink:title=" ">
<polygon fill="white" stroke="#bfbfbf" points="199.5,-56.5 199.5,-75.5 254.5,-75.5 254.5,-56.5 199.5,-56.5"/>
<text text-anchor="middle" x="227" y="-63.5" font-family="Helvetica,sans-Serif" font-size="10.00">fstream</text>
</a>
</g>
</g>
<!-- Node14&#45;&gt;Node15 -->
<g id="edge14" class="edge">
<title>Node14&#45;&gt;Node15</title>
<path fill="none" stroke="midnightblue" d="M279.88,-112.32C270.47,-104.26 256.26,-92.08 244.93,-82.37"/>
<polygon fill="midnightblue" stroke="midnightblue" points="247.18,-79.68 237.31,-75.83 242.62,-85 247.18,-79.68"/>
</g>
<!-- Node16 -->
<g id="node16" class="node">
<title>Node16</title>
<g id="a_node16"><a xlink:title=" ">
<polygon fill="white" stroke="#bfbfbf" points="273,-56.5 273,-75.5 333,-75.5 333,-56.5 273,-56.5"/>
<text text-anchor="middle" x="303" y="-63.5" font-family="Helvetica,sans-Serif" font-size="10.00">iostream</text>
</a>
</g>
</g>
<!-- Node14&#45;&gt;Node16 -->
<g id="edge15" class="edge">
<title>Node14&#45;&gt;Node16</title>
<path fill="none" stroke="midnightblue" d="M292.15,-112.08C293.87,-104.93 296.35,-94.64 298.5,-85.69"/>
<polygon fill="midnightblue" stroke="midnightblue" points="301.96,-86.29 300.89,-75.75 295.15,-84.65 301.96,-86.29"/>
</g>
<!-- Node14&#45;&gt;Node17 -->
<g id="edge16" class="edge">
<title>Node14&#45;&gt;Node17</title>
<path fill="none" stroke="midnightblue" d="M303.34,-112.32C316.16,-103.98 335.78,-91.21 350.94,-81.35"/>
<polygon fill="midnightblue" stroke="midnightblue" points="353.22,-84.04 359.7,-75.65 349.41,-78.17 353.22,-84.04"/>
</g>
<!-- Node19 -->
<g id="node19" class="node">
<title>Node19</title>
<g id="a_node19"><a xlink:title=" ">
<polygon fill="white" stroke="#bfbfbf" points="937.5,-56.5 937.5,-75.5 990.5,-75.5 990.5,-56.5 937.5,-56.5"/>
<text text-anchor="middle" x="964" y="-63.5" font-family="Helvetica,sans-Serif" font-size="10.00">cstddef</text>
</a>
</g>
</g>
<!-- Node18&#45;&gt;Node19 -->
<g id="edge19" class="edge">
<title>Node18&#45;&gt;Node19</title>
<path fill="none" stroke="midnightblue" d="M964,-112.08C964,-105.01 964,-94.86 964,-85.99"/>
<polygon fill="midnightblue" stroke="midnightblue" points="967.5,-85.75 964,-75.75 960.5,-85.75 967.5,-85.75"/>
</g>
<!-- Node21&#45;&gt;Node6 -->
<g id="edge26" class="edge">
<title>Node21&#45;&gt;Node6</title>
<path fill="none" stroke="midnightblue" d="M456.32,-235.48C467.97,-227.42 485.88,-215.02 501.13,-204.47"/>
<polygon fill="midnightblue" stroke="midnightblue" points="503.5,-207.09 509.73,-198.52 499.52,-201.33 503.5,-207.09"/>
</g>
<!-- Node22 -->
<g id="node22" class="node">
<title>Node22</title>
<g id="a_node22"><a xlink:title=" ">
<polygon fill="white" stroke="#bfbfbf" points="369.5,-174 369.5,-193 438.5,-193 438.5,-174 369.5,-174"/>
<text text-anchor="middle" x="404" y="-181" font-family="Helvetica,sans-Serif" font-size="10.00">Eigen/Core</text>
</a>
</g>
</g>
<!-- Node21&#45;&gt;Node22 -->
<g id="edge27" class="edge">
<title>Node21&#45;&gt;Node22</title>
<path fill="none" stroke="midnightblue" d="M438.27,-235.48C432.33,-226.64 422.88,-212.59 415.41,-201.48"/>
<polygon fill="midnightblue" stroke="midnightblue" points="418.2,-199.36 409.72,-193.01 412.39,-203.26 418.2,-199.36"/>
</g>
<!-- Node23&#45;&gt;Node3 -->
<g id="edge30" class="edge">
<title>Node23&#45;&gt;Node3</title>
<path fill="none" stroke="midnightblue" d="M90.2,-235.48C114.07,-225.4 154,-208.55 181.37,-197"/>
<polygon fill="midnightblue" stroke="midnightblue" points="182.98,-200.12 190.84,-193.01 180.26,-193.67 182.98,-200.12"/>
</g>
<!-- Node23&#45;&gt;Node4 -->
<g id="edge31" class="edge">
<title>Node23&#45;&gt;Node4</title>
<path fill="none" stroke="midnightblue" d="M74.24,-235.46C87.8,-208.19 130.27,-122.78 148.98,-85.13"/>
<polygon fill="midnightblue" stroke="midnightblue" points="152.27,-86.38 153.59,-75.87 146,-83.26 152.27,-86.38"/>
</g>
<!-- Node24&#45;&gt;Node5 -->
<g id="edge38" class="edge">
<title>Node24&#45;&gt;Node5</title>
<path fill="none" stroke="midnightblue" d="M657.78,-291.46C650.72,-264.31 628.69,-179.51 618.84,-141.62"/>
<polygon fill="midnightblue" stroke="midnightblue" points="622.21,-140.67 616.3,-131.87 615.43,-142.43 622.21,-140.67"/>
</g>
<!-- Node24&#45;&gt;Node6 -->
<g id="edge34" class="edge">
<title>Node24&#45;&gt;Node6</title>
<path fill="none" stroke="midnightblue" d="M650.23,-291.32C629.83,-273.19 582.21,-230.88 553.4,-205.29"/>
<polygon fill="midnightblue" stroke="midnightblue" points="555.61,-202.57 545.81,-198.55 550.96,-207.8 555.61,-202.57"/>
</g>
<!-- Node24&#45;&gt;Node10 -->
<g id="edge36" class="edge">
<title>Node24&#45;&gt;Node10</title>
<path fill="none" stroke="midnightblue" d="M735.6,-297.7C872.4,-291.77 1152.42,-270.94 1212,-199 1252.77,-149.77 1242.49,-66.57 1235.25,-29.63"/>
<polygon fill="midnightblue" stroke="midnightblue" points="1238.65,-28.8 1233.16,-19.74 1231.8,-30.25 1238.65,-28.8"/>
</g>
<!-- Node24&#45;&gt;Node20 -->
<g id="edge37" class="edge">
<title>Node24&#45;&gt;Node20</title>
<path fill="none" stroke="midnightblue" d="M661.59,-291.46C666.63,-264.43 682.33,-180.24 689.44,-142.11"/>
<polygon fill="midnightblue" stroke="midnightblue" points="692.95,-142.34 691.35,-131.87 686.07,-141.06 692.95,-142.34"/>
</g>
<!-- Node24&#45;&gt;Node21 -->
<g id="edge33" class="edge">
<title>Node24&#45;&gt;Node21</title>
<path fill="none" stroke="midnightblue" d="M625.77,-291.44C588.49,-282.12 528.73,-267.18 487.99,-257"/>
<polygon fill="midnightblue" stroke="midnightblue" points="488.62,-253.55 478.07,-254.52 486.92,-260.34 488.62,-253.55"/>
</g>
<!-- Node24&#45;&gt;Node23 -->
<g id="edge35" class="edge">
<title>Node24&#45;&gt;Node23</title>
<path fill="none" stroke="midnightblue" d="M584.19,-293.93C486.41,-285.97 310.79,-271.21 150.26,-255.11"/>
<polygon fill="midnightblue" stroke="midnightblue" points="150.5,-251.61 140.2,-254.09 149.8,-258.58 150.5,-251.61"/>
</g>
<!-- Node25&#45;&gt;Node10 -->
<g id="edge51" class="edge">
<title>Node25&#45;&gt;Node10</title>
<path fill="none" stroke="midnightblue" d="M992.94,-291.5C1091.88,-276.7 1269,-242.16 1269,-184.5 1269,-184.5 1269,-184.5 1269,-121 1269,-86.81 1252.4,-49.76 1241.14,-28.57"/>
<polygon fill="midnightblue" stroke="midnightblue" points="1244.18,-26.83 1236.28,-19.77 1238.05,-30.22 1244.18,-26.83"/>
</g>
<!-- Node26 -->
<g id="node26" class="node">
<title>Node26</title>
<g id="a_node26"><a xlink:href="ExogenousModel_8h.html" target="_top" xlink:title=" ">
<polygon fill="white" stroke="black" points="842.5,-235.5 842.5,-254.5 1013.5,-254.5 1013.5,-235.5 842.5,-235.5"/>
<text text-anchor="middle" x="928" y="-242.5" font-family="Helvetica,sans-Serif" font-size="10.00">BayesFilters/ExogenousModel.h</text>
</a>
</g>
</g>
<!-- Node25&#45;&gt;Node26 -->
<g id="edge40" class="edge">
<title>Node25&#45;&gt;Node26</title>
<path fill="none" stroke="midnightblue" d="M928,-291.08C928,-284.01 928,-273.86 928,-264.99"/>
<polygon fill="midnightblue" stroke="midnightblue" points="931.5,-264.75 928,-254.75 924.5,-264.75 931.5,-264.75"/>
</g>
<!-- Node28 -->
<g id="node28" class="node">
<title>Node28</title>
<g id="a_node28"><a xlink:href="Skippable_8h.html" target="_top" xlink:title=" ">
<polygon fill="white" stroke="black" points="698.5,-174 698.5,-193 835.5,-193 835.5,-174 698.5,-174"/>
<text text-anchor="middle" x="767" y="-181" font-family="Helvetica,sans-Serif" font-size="10.00">BayesFilters/Skippable.h</text>
</a>
</g>
</g>
<!-- Node25&#45;&gt;Node28 -->
<g id="edge47" class="edge">
<title>Node25&#45;&gt;Node28</title>
<path fill="none" stroke="midnightblue" d="M903.6,-291.39C883.54,-283.64 854.97,-271.03 833,-255 811.94,-239.63 792.12,-216.93 779.8,-201.46"/>
<polygon fill="midnightblue" stroke="midnightblue" points="782.36,-199.06 773.45,-193.31 776.83,-203.35 782.36,-199.06"/>
</g>
<!-- Node30 -->
<g id="node30" class="node">
<title>Node30</title>
<g id="a_node30"><a xlink:href="StateProcess_8h.html" target="_top" xlink:title=" ">
<polygon fill="white" stroke="black" points="1051,-174 1051,-193 1203,-193 1203,-174 1051,-174"/>
<text text-anchor="middle" x="1127" y="-181" font-family="Helvetica,sans-Serif" font-size="10.00">BayesFilters/StateProcess.h</text>
</a>
</g>
</g>
<!-- Node25&#45;&gt;Node30 -->
<g id="edge48" class="edge">
<title>Node25&#45;&gt;Node30</title>
<path fill="none" stroke="midnightblue" d="M948.47,-291.39C968.03,-282.92 998.12,-269.21 1023,-255 1053.52,-237.56 1086.83,-214.14 1107.32,-199.18"/>
<polygon fill="midnightblue" stroke="midnightblue" points="1109.55,-201.89 1115.52,-193.14 1105.4,-196.25 1109.55,-201.89"/>
</g>
<!-- Node27 -->
<g id="node27" class="node">
<title>Node27</title>
<g id="a_node27"><a xlink:href="ExogenousProcess_8h.html" target="_top" xlink:title=" ">
<polygon fill="white" stroke="black" points="853.5,-174 853.5,-193 1032.5,-193 1032.5,-174 853.5,-174"/>
<text text-anchor="middle" x="943" y="-181" font-family="Helvetica,sans-Serif" font-size="10.00">BayesFilters/ExogenousProcess.h</text>
</a>
</g>
</g>
<!-- Node26&#45;&gt;Node27 -->
<g id="edge41" class="edge">
<title>Node26&#45;&gt;Node27</title>
<path fill="none" stroke="midnightblue" d="M930.15,-235.48C932.29,-226.99 935.64,-213.7 938.38,-202.82"/>
<polygon fill="midnightblue" stroke="midnightblue" points="941.8,-203.56 940.85,-193.01 935.02,-201.85 941.8,-203.56"/>
</g>
<!-- Node26&#45;&gt;Node28 -->
<g id="edge44" class="edge">
<title>Node26&#45;&gt;Node28</title>
<path fill="none" stroke="midnightblue" d="M904.93,-235.48C877.32,-225.27 830.88,-208.11 799.6,-196.55"/>
<polygon fill="midnightblue" stroke="midnightblue" points="800.62,-193.19 790.02,-193.01 798.19,-199.76 800.62,-193.19"/>
</g>
<!-- Node27&#45;&gt;Node5 -->
<g id="edge43" class="edge">
<title>Node27&#45;&gt;Node5</title>
<path fill="none" stroke="midnightblue" d="M894.31,-173.96C840.16,-164.43 749.81,-148.4 662.77,-132.31"/>
<polygon fill="midnightblue" stroke="midnightblue" points="663.19,-128.83 652.72,-130.45 661.92,-135.71 663.19,-128.83"/>
</g>
<!-- Node27&#45;&gt;Node18 -->
<g id="edge42" class="edge">
<title>Node27&#45;&gt;Node18</title>
<path fill="none" stroke="midnightblue" d="M946.01,-173.98C949.03,-165.4 953.79,-151.93 957.65,-140.98"/>
<polygon fill="midnightblue" stroke="midnightblue" points="960.97,-142.1 961,-131.51 954.37,-139.77 960.97,-142.1"/>
</g>
<!-- Node29 -->
<g id="node29" class="node">
<title>Node29</title>
<g id="a_node29"><a xlink:href="Skipper_8h.html" target="_top" xlink:title=" ">
<polygon fill="white" stroke="black" points="733.5,-112.5 733.5,-131.5 858.5,-131.5 858.5,-112.5 733.5,-112.5"/>
<text text-anchor="middle" x="796" y="-119.5" font-family="Helvetica,sans-Serif" font-size="10.00">BayesFilters/Skipper.h</text>
</a>
</g>
</g>
<!-- Node28&#45;&gt;Node29 -->
<g id="edge45" class="edge">
<title>Node28&#45;&gt;Node29</title>
<path fill="none" stroke="midnightblue" d="M771.15,-173.98C775.38,-165.32 782.04,-151.65 787.4,-140.65"/>
<polygon fill="midnightblue" stroke="midnightblue" points="790.62,-142.03 791.85,-131.51 784.33,-138.96 790.62,-142.03"/>
</g>
<!-- Node29&#45;&gt;Node17 -->
<g id="edge46" class="edge">
<title>Node29&#45;&gt;Node17</title>
<path fill="none" stroke="midnightblue" d="M733.18,-113.1C730.07,-112.73 727,-112.36 724,-112 585.07,-95.5 546.08,-103.67 405.12,-75.92"/>
<polygon fill="midnightblue" stroke="midnightblue" points="405.73,-72.47 395.24,-73.95 404.36,-79.34 405.73,-72.47"/>
</g>
<!-- Node30&#45;&gt;Node5 -->
<g id="edge50" class="edge">
<title>Node30&#45;&gt;Node5</title>
<path fill="none" stroke="midnightblue" d="M1080.77,-173.97C1068.22,-171.83 1054.61,-169.67 1042,-168 876.59,-146.11 831.1,-155.64 662.63,-132.12"/>
<polygon fill="midnightblue" stroke="midnightblue" points="663.07,-128.64 652.68,-130.71 662.09,-135.57 663.07,-128.64"/>
</g>
<!-- Node30&#45;&gt;Node18 -->
<g id="edge49" class="edge">
<title>Node30&#45;&gt;Node18</title>
<path fill="none" stroke="midnightblue" d="M1103.65,-173.98C1075.69,-163.77 1028.67,-146.61 997.01,-135.05"/>
<polygon fill="midnightblue" stroke="midnightblue" points="997.9,-131.65 987.31,-131.51 995.5,-138.23 997.9,-131.65"/>
</g>
</g>
</svg>
