<?xml version="1.0" encoding="UTF-8" standalone="no"?>
<!DOCTYPE svg PUBLIC "-//W3C//DTD SVG 1.1//EN"
 "http://www.w3.org/Graphics/SVG/1.1/DTD/svg11.dtd">
<!-- Generated by graphviz version 2.47.2 (0)
 -->
<!-- Title: /home/xenvre/robot&#45;code/bfl_robotology/src/BayesFilters/include/BayesFilters/GPFCorrection.h Pages: 1 -->
<!--zoomable 408 -->
<svg id="main" version="1.1" xmlns="http://www.w3.org/2000/svg" xmlns:xlink="http://www.w3.org/1999/xlink" xml:space="preserve" onload="init(evt)">
<style type="text/css"><![CDATA[
.edge:hover path { stroke: red; }
.edge:hover polygon { stroke: red; fill: red; }
]]></style>
<script type="text/javascript"><![CDATA[
var edges = document.getElementsByTagName('g');
if (edges && edges.length) {
  for (var i=0;i<edges.length;i++) {
    if (edges[i].id.substr(0,4)=='edge') {
      edges[i].setAttribute('class','edge');
    }
  }
}
]]></script>
        <defs>
                <circle id="rim" cx="0" cy="0" r="7"/>
                <circle id="rim2" cx="0" cy="0" r="3.5"/>
                <g id="zoomPlus">
                        <use xlink:href="#rim" fill="#404040">
                                <set attributeName="fill" to="#808080" begin="zoomplus.mouseover" end="zoomplus.mouseout"/>
                        </use>
                        <path d="M-4,0h8M0,-4v8" fill="none" stroke="white" stroke-width="1.5" pointer-events="none"/>
                </g>
                <g id="zoomMin">
                        <use xlink:href="#rim" fill="#404040">
                                <set attributeName="fill" to="#808080" begin="zoomminus.mouseover" end="zoomminus.mouseout"/>
                        </use>
                        <path d="M-4,0h8" fill="none" stroke="white" stroke-width="1.5" pointer-events="none"/>
                </g>
                <g id="dirArrow">
                        <path fill="none" stroke="white" stroke-width="1.5" d="M0,-3.0v7 M-2.5,-0.5L0,-3.0L2.5,-0.5"/>
                </g>
               <g id="resetDef">
                       <use xlink:href="#rim2" fill="#404040">
                               <set attributeName="fill" to="#808080" begin="reset.mouseover" end="reset.mouseout"/>
                       </use>
               </g>
        </defs>

<script type="text/javascript">
var viewWidth = 1282;
var viewHeight = 408;
var sectionId = 'dynsection-0';
</script>
<script xlink:href="svgpan.js"/>
<svg id="graph" class="graph">
<g id="viewport">
<title>/home/xenvre/robot&#45;code/bfl_robotology/src/BayesFilters/include/BayesFilters/GPFCorrection.h</title>
<polygon fill="white" stroke="transparent" points="-4,4 -4,-404 1278,-404 1278,4 -4,4"/>
<!-- Node1 -->
<g id="node1" class="node">
<title>Node1</title>
<g id="a_node1"><a xlink:title=" ">
<polygon fill="#bfbfbf" stroke="black" points="514,-347.5 514,-399.5 665,-399.5 665,-347.5 514,-347.5"/>
<text text-anchor="start" x="522" y="-387.5" font-family="Helvetica,sans-Serif" font-size="10.00">/home/xenvre/robot</text>
<text text-anchor="start" x="522" y="-376.5" font-family="Helvetica,sans-Serif" font-size="10.00">&#45;code/bfl_robotology</text>
<text text-anchor="start" x="522" y="-365.5" font-family="Helvetica,sans-Serif" font-size="10.00">/src/BayesFilters/include</text>
<text text-anchor="middle" x="589.5" y="-354.5" font-family="Helvetica,sans-Serif" font-size="10.00">/BayesFilters/GPFCorrection.h</text>
</a>
</g>
</g>
<!-- Node2 -->
<g id="node2" class="node">
<title>Node2</title>
<g id="a_node2"><a xlink:href="GaussianCorrection_8h.html" target="_top" xlink:title=" ">
<polygon fill="white" stroke="black" points="149,-235.5 149,-254.5 318,-254.5 318,-235.5 149,-235.5"/>
<text text-anchor="middle" x="233.5" y="-242.5" font-family="Helvetica,sans-Serif" font-size="10.00">BayesFilters/GaussianCorrection.h</text>
</a>
</g>
</g>
<!-- Node1&#45;&gt;Node2 -->
<g id="edge1" class="edge">
<title>Node1&#45;&gt;Node2</title>
<path fill="none" stroke="midnightblue" d="M513.87,-361.68C461.22,-352.44 390.2,-336.5 331.5,-311 301.43,-297.94 270.53,-275.69 251.67,-260.92"/>
<polygon fill="midnightblue" stroke="midnightblue" points="253.66,-258.03 243.66,-254.53 249.29,-263.5 253.66,-258.03"/>
</g>
<!-- Node6 -->
<g id="node6" class="node">
<title>Node6</title>
<g id="a_node6"><a xlink:href="MeasurementModel_8h.html" target="_top" xlink:title=" ">
<polygon fill="white" stroke="black" points="305.5,-168.5 305.5,-198.5 439.5,-198.5 439.5,-168.5 305.5,-168.5"/>
<text text-anchor="start" x="313.5" y="-186.5" font-family="Helvetica,sans-Serif" font-size="10.00">BayesFilters/Measurement</text>
<text text-anchor="middle" x="372.5" y="-175.5" font-family="Helvetica,sans-Serif" font-size="10.00">Model.h</text>
</a>
</g>
</g>
<!-- Node1&#45;&gt;Node6 -->
<g id="edge26" class="edge">
<title>Node1&#45;&gt;Node6</title>
<path fill="none" stroke="midnightblue" d="M513.8,-348.31C468.77,-329.92 414.52,-300 383.5,-255 374.25,-241.59 371.6,-223.36 371.21,-208.79"/>
<polygon fill="midnightblue" stroke="midnightblue" points="374.72,-208.54 371.28,-198.51 367.72,-208.49 374.72,-208.54"/>
</g>
<!-- Node10 -->
<g id="node10" class="node">
<title>Node10</title>
<g id="a_node10"><a xlink:title=" ">
<polygon fill="white" stroke="#bfbfbf" points="1005.5,-0.5 1005.5,-19.5 1057.5,-19.5 1057.5,-0.5 1005.5,-0.5"/>
<text text-anchor="middle" x="1031.5" y="-7.5" font-family="Helvetica,sans-Serif" font-size="10.00">memory</text>
</a>
</g>
</g>
<!-- Node1&#45;&gt;Node10 -->
<g id="edge49" class="edge">
<title>Node1&#45;&gt;Node10</title>
<path fill="none" stroke="midnightblue" d="M665.15,-370.1C811.59,-363.38 1119.5,-338.29 1119.5,-246 1119.5,-246 1119.5,-246 1119.5,-121 1119.5,-79.03 1079.96,-43.9 1053.89,-25.3"/>
<polygon fill="midnightblue" stroke="midnightblue" points="1055.86,-22.41 1045.64,-19.64 1051.9,-28.18 1055.86,-22.41"/>
</g>
<!-- Node19 -->
<g id="node19" class="node">
<title>Node19</title>
<g id="a_node19"><a xlink:href="LikelihoodModel_8h.html" target="_top" xlink:title=" ">
<polygon fill="white" stroke="black" points="411.5,-235.5 411.5,-254.5 563.5,-254.5 563.5,-235.5 411.5,-235.5"/>
<text text-anchor="middle" x="487.5" y="-242.5" font-family="Helvetica,sans-Serif" font-size="10.00">BayesFilters/LikelihoodModel.h</text>
</a>
</g>
</g>
<!-- Node1&#45;&gt;Node19 -->
<g id="edge23" class="edge">
<title>Node1&#45;&gt;Node19</title>
<path fill="none" stroke="midnightblue" d="M548.16,-347.23C534.66,-337.32 520.56,-324.96 510.5,-311 500.45,-297.06 494.43,-278.3 491.09,-264.52"/>
<polygon fill="midnightblue" stroke="midnightblue" points="494.51,-263.75 488.96,-254.72 487.67,-265.24 494.51,-263.75"/>
</g>
<!-- Node21 -->
<g id="node21" class="node">
<title>Node21</title>
<g id="a_node21"><a xlink:href="ParticleSet_8h.html" target="_top" xlink:title=" ">
<polygon fill="white" stroke="black" points="0,-235.5 0,-254.5 131,-254.5 131,-235.5 0,-235.5"/>
<text text-anchor="middle" x="65.5" y="-242.5" font-family="Helvetica,sans-Serif" font-size="10.00">BayesFilters/ParticleSet.h</text>
</a>
</g>
</g>
<!-- Node1&#45;&gt;Node21 -->
<g id="edge27" class="edge">
<title>Node1&#45;&gt;Node21</title>
<path fill="none" stroke="midnightblue" d="M513.82,-358.54C453.37,-346.99 366.64,-329.53 291.5,-311 224.39,-294.45 147.19,-271.36 102.61,-257.62"/>
<polygon fill="midnightblue" stroke="midnightblue" points="103.39,-254.2 92.8,-254.59 101.32,-260.88 103.39,-254.2"/>
</g>
<!-- Node22 -->
<g id="node22" class="node">
<title>Node22</title>
<g id="a_node22"><a xlink:href="PFCorrection_8h.html" target="_top" xlink:title=" ">
<polygon fill="white" stroke="black" points="519.5,-291.5 519.5,-310.5 659.5,-310.5 659.5,-291.5 519.5,-291.5"/>
<text text-anchor="middle" x="589.5" y="-298.5" font-family="Helvetica,sans-Serif" font-size="10.00">BayesFilters/PFCorrection.h</text>
</a>
</g>
</g>
<!-- Node1&#45;&gt;Node22 -->
<g id="edge30" class="edge">
<title>Node1&#45;&gt;Node22</title>
<path fill="none" stroke="midnightblue" d="M589.5,-347.45C589.5,-338.73 589.5,-329.1 589.5,-320.96"/>
<polygon fill="midnightblue" stroke="midnightblue" points="593,-320.7 589.5,-310.7 586,-320.7 593,-320.7"/>
</g>
<!-- Node23 -->
<g id="node23" class="node">
<title>Node23</title>
<g id="a_node23"><a xlink:href="StateModel_8h.html" target="_top" xlink:title=" ">
<polygon fill="white" stroke="black" points="779.5,-291.5 779.5,-310.5 911.5,-310.5 911.5,-291.5 779.5,-291.5"/>
<text text-anchor="middle" x="845.5" y="-298.5" font-family="Helvetica,sans-Serif" font-size="10.00">BayesFilters/StateModel.h</text>
</a>
</g>
</g>
<!-- Node1&#45;&gt;Node23 -->
<g id="edge37" class="edge">
<title>Node1&#45;&gt;Node23</title>
<path fill="none" stroke="midnightblue" d="M665.27,-351.63C710.82,-339.09 767.02,-323.61 804.44,-313.31"/>
<polygon fill="midnightblue" stroke="midnightblue" points="805.76,-316.58 814.47,-310.55 803.9,-309.83 805.76,-316.58"/>
</g>
<!-- Node29 -->
<g id="node29" class="node">
<title>Node29</title>
<g id="a_node29"><a xlink:title=" ">
<polygon fill="white" stroke="#bfbfbf" points="1148,-291.5 1148,-310.5 1207,-310.5 1207,-291.5 1148,-291.5"/>
<text text-anchor="middle" x="1177.5" y="-298.5" font-family="Helvetica,sans-Serif" font-size="10.00">functional</text>
</a>
</g>
</g>
<!-- Node1&#45;&gt;Node29 -->
<g id="edge48" class="edge">
<title>Node1&#45;&gt;Node29</title>
<path fill="none" stroke="midnightblue" d="M665.03,-366.11C770.34,-356.71 967.11,-337.37 1133.5,-311 1134.94,-310.77 1136.41,-310.53 1137.89,-310.27"/>
<polygon fill="midnightblue" stroke="midnightblue" points="1138.54,-313.71 1147.74,-308.46 1137.28,-306.83 1138.54,-313.71"/>
</g>
<!-- Node30 -->
<g id="node30" class="node">
<title>Node30</title>
<g id="a_node30"><a xlink:title=" ">
<polygon fill="white" stroke="#bfbfbf" points="1225,-291.5 1225,-310.5 1274,-310.5 1274,-291.5 1225,-291.5"/>
<text text-anchor="middle" x="1249.5" y="-298.5" font-family="Helvetica,sans-Serif" font-size="10.00">random</text>
</a>
</g>
</g>
<!-- Node1&#45;&gt;Node30 -->
<g id="edge50" class="edge">
<title>Node1&#45;&gt;Node30</title>
<path fill="none" stroke="midnightblue" d="M665.35,-369.19C781.93,-363.19 1012.08,-347.74 1214.8,-311.05"/>
<polygon fill="midnightblue" stroke="midnightblue" points="1215.53,-314.48 1224.74,-309.23 1214.27,-307.59 1215.53,-314.48"/>
</g>
<!-- Node3 -->
<g id="node3" class="node">
<title>Node3</title>
<g id="a_node3"><a xlink:href="GaussianMixture_8h.html" target="_top" xlink:title=" ">
<polygon fill="white" stroke="black" points="122.5,-174 122.5,-193 278.5,-193 278.5,-174 122.5,-174"/>
<text text-anchor="middle" x="200.5" y="-181" font-family="Helvetica,sans-Serif" font-size="10.00">BayesFilters/GaussianMixture.h</text>
</a>
</g>
</g>
<!-- Node2&#45;&gt;Node3 -->
<g id="edge2" class="edge">
<title>Node2&#45;&gt;Node3</title>
<path fill="none" stroke="midnightblue" d="M228.77,-235.48C223.92,-226.73 216.23,-212.87 210.1,-201.81"/>
<polygon fill="midnightblue" stroke="midnightblue" points="213.13,-200.06 205.22,-193.01 207.01,-203.45 213.13,-200.06"/>
</g>
<!-- Node5 -->
<g id="node5" class="node">
<title>Node5</title>
<g id="a_node5"><a xlink:title=" ">
<polygon fill="white" stroke="#bfbfbf" points="599,-112.5 599,-131.5 672,-131.5 672,-112.5 599,-112.5"/>
<text text-anchor="middle" x="635.5" y="-119.5" font-family="Helvetica,sans-Serif" font-size="10.00">Eigen/Dense</text>
</a>
</g>
</g>
<!-- Node2&#45;&gt;Node5 -->
<g id="edge22" class="edge">
<title>Node2&#45;&gt;Node5</title>
<path fill="none" stroke="midnightblue" d="M318.17,-235.77C359.04,-229.46 407.89,-218.38 448.5,-199 468.17,-189.61 467.26,-178.23 486.5,-168 504.82,-158.26 554.77,-144.01 591.82,-134.17"/>
<polygon fill="midnightblue" stroke="midnightblue" points="593.11,-137.45 601.89,-131.52 591.33,-130.68 593.11,-137.45"/>
</g>
<!-- Node2&#45;&gt;Node6 -->
<g id="edge5" class="edge">
<title>Node2&#45;&gt;Node6</title>
<path fill="none" stroke="midnightblue" d="M253.42,-235.48C273.38,-226.93 304.75,-213.5 330.28,-202.57"/>
<polygon fill="midnightblue" stroke="midnightblue" points="331.92,-205.68 339.74,-198.52 329.17,-199.24 331.92,-205.68"/>
</g>
<!-- Node4 -->
<g id="node4" class="node">
<title>Node4</title>
<g id="a_node4"><a xlink:title=" ">
<polygon fill="white" stroke="#bfbfbf" points="124.5,-56.5 124.5,-75.5 168.5,-75.5 168.5,-56.5 124.5,-56.5"/>
<text text-anchor="middle" x="146.5" y="-63.5" font-family="Helvetica,sans-Serif" font-size="10.00">vector</text>
</a>
</g>
</g>
<!-- Node3&#45;&gt;Node4 -->
<g id="edge3" class="edge">
<title>Node3&#45;&gt;Node4</title>
<path fill="none" stroke="midnightblue" d="M196.39,-173.94C191.59,-163.9 183.42,-146.77 176.5,-132 169.1,-116.19 160.79,-98.16 154.79,-85.11"/>
<polygon fill="midnightblue" stroke="midnightblue" points="157.89,-83.48 150.54,-75.85 151.53,-86.39 157.89,-83.48"/>
</g>
<!-- Node3&#45;&gt;Node5 -->
<g id="edge4" class="edge">
<title>Node3&#45;&gt;Node5</title>
<path fill="none" stroke="midnightblue" d="M255.04,-173.99C268.58,-171.96 283.06,-169.84 296.5,-168 423.31,-150.64 458.24,-152.5 588.89,-131.99"/>
<polygon fill="midnightblue" stroke="midnightblue" points="589.55,-135.43 598.88,-130.41 588.46,-128.52 589.55,-135.43"/>
</g>
<!-- Node6&#45;&gt;Node5 -->
<g id="edge21" class="edge">
<title>Node6&#45;&gt;Node5</title>
<path fill="none" stroke="midnightblue" d="M434.49,-168.47C481.73,-157.79 545.77,-143.3 588.75,-133.58"/>
<polygon fill="midnightblue" stroke="midnightblue" points="589.68,-136.95 598.66,-131.33 588.14,-130.13 589.68,-136.95"/>
</g>
<!-- Node7 -->
<g id="node7" class="node">
<title>Node7</title>
<g id="a_node7"><a xlink:href="Data_8h.html" target="_top" xlink:title=" ">
<polygon fill="white" stroke="black" points="185.5,-112.5 185.5,-131.5 289.5,-131.5 289.5,-112.5 185.5,-112.5"/>
<text text-anchor="middle" x="237.5" y="-119.5" font-family="Helvetica,sans-Serif" font-size="10.00">BayesFilters/Data.h</text>
</a>
</g>
</g>
<!-- Node6&#45;&gt;Node7 -->
<g id="edge6" class="edge">
<title>Node6&#45;&gt;Node7</title>
<path fill="none" stroke="midnightblue" d="M340.51,-168.4C318.06,-158.51 288.29,-145.38 266.52,-135.79"/>
<polygon fill="midnightblue" stroke="midnightblue" points="267.71,-132.49 257.14,-131.66 264.88,-138.89 267.71,-132.49"/>
</g>
<!-- Node6&#45;&gt;Node10 -->
<g id="edge18" class="edge">
<title>Node6&#45;&gt;Node10</title>
<path fill="none" stroke="midnightblue" d="M399.37,-168.41C430.43,-152.64 483.45,-127.3 531.5,-112 700.83,-58.07 911.91,-26.63 995.25,-15.56"/>
<polygon fill="midnightblue" stroke="midnightblue" points="995.77,-19.02 1005.23,-14.25 994.86,-12.08 995.77,-19.02"/>
</g>
<!-- Node14 -->
<g id="node14" class="node">
<title>Node14</title>
<g id="a_node14"><a xlink:href="Logger_8h.html" target="_top" xlink:title=" ">
<polygon fill="white" stroke="black" points="317,-112.5 317,-131.5 428,-131.5 428,-112.5 317,-112.5"/>
<text text-anchor="middle" x="372.5" y="-119.5" font-family="Helvetica,sans-Serif" font-size="10.00">BayesFilters/Logger.h</text>
</a>
</g>
</g>
<!-- Node6&#45;&gt;Node14 -->
<g id="edge13" class="edge">
<title>Node6&#45;&gt;Node14</title>
<path fill="none" stroke="midnightblue" d="M372.5,-168.4C372.5,-160.47 372.5,-150.46 372.5,-141.86"/>
<polygon fill="midnightblue" stroke="midnightblue" points="376,-141.66 372.5,-131.66 369,-141.66 376,-141.66"/>
</g>
<!-- Node17 -->
<g id="node17" class="node">
<title>Node17</title>
<g id="a_node17"><a xlink:title=" ">
<polygon fill="white" stroke="#bfbfbf" points="443,-56.5 443,-75.5 484,-75.5 484,-56.5 443,-56.5"/>
<text text-anchor="middle" x="463.5" y="-63.5" font-family="Helvetica,sans-Serif" font-size="10.00">string</text>
</a>
</g>
</g>
<!-- Node6&#45;&gt;Node17 -->
<g id="edge19" class="edge">
<title>Node6&#45;&gt;Node17</title>
<path fill="none" stroke="midnightblue" d="M395.99,-168.29C409.31,-159.26 425.48,-146.55 436.5,-132 447.1,-118.01 454.3,-99.26 458.58,-85.5"/>
<polygon fill="midnightblue" stroke="midnightblue" points="462,-86.29 461.4,-75.71 455.27,-84.35 462,-86.29"/>
</g>
<!-- Node18 -->
<g id="node18" class="node">
<title>Node18</title>
<g id="a_node18"><a xlink:title=" ">
<polygon fill="white" stroke="#bfbfbf" points="540.5,-112.5 540.5,-131.5 580.5,-131.5 580.5,-112.5 540.5,-112.5"/>
<text text-anchor="middle" x="560.5" y="-119.5" font-family="Helvetica,sans-Serif" font-size="10.00">utility</text>
</a>
</g>
</g>
<!-- Node6&#45;&gt;Node18 -->
<g id="edge20" class="edge">
<title>Node6&#45;&gt;Node18</title>
<path fill="none" stroke="midnightblue" d="M417.05,-168.4C452.17,-157.28 500.17,-142.1 530.75,-132.41"/>
<polygon fill="midnightblue" stroke="midnightblue" points="531.94,-135.71 540.41,-129.36 529.82,-129.04 531.94,-135.71"/>
</g>
<!-- Node8 -->
<g id="node8" class="node">
<title>Node8</title>
<g id="a_node8"><a xlink:href="any_8h.html" target="_top" xlink:title=" ">
<polygon fill="white" stroke="black" points="187,-56.5 187,-75.5 284,-75.5 284,-56.5 187,-56.5"/>
<text text-anchor="middle" x="235.5" y="-63.5" font-family="Helvetica,sans-Serif" font-size="10.00">BayesFilters/any.h</text>
</a>
</g>
</g>
<!-- Node7&#45;&gt;Node8 -->
<g id="edge7" class="edge">
<title>Node7&#45;&gt;Node8</title>
<path fill="none" stroke="midnightblue" d="M237.17,-112.08C236.91,-105.01 236.53,-94.86 236.2,-85.99"/>
<polygon fill="midnightblue" stroke="midnightblue" points="239.69,-85.61 235.82,-75.75 232.7,-85.87 239.69,-85.61"/>
</g>
<!-- Node9 -->
<g id="node9" class="node">
<title>Node9</title>
<g id="a_node9"><a xlink:title=" ">
<polygon fill="white" stroke="#bfbfbf" points="322.5,-0.5 322.5,-19.5 378.5,-19.5 378.5,-0.5 322.5,-0.5"/>
<text text-anchor="middle" x="350.5" y="-7.5" font-family="Helvetica,sans-Serif" font-size="10.00">algorithm</text>
</a>
</g>
</g>
<!-- Node8&#45;&gt;Node9 -->
<g id="edge8" class="edge">
<title>Node8&#45;&gt;Node9</title>
<path fill="none" stroke="midnightblue" d="M253.72,-56.44C272.4,-47.68 301.66,-33.94 323.12,-23.86"/>
<polygon fill="midnightblue" stroke="midnightblue" points="324.8,-26.93 332.36,-19.52 321.82,-20.6 324.8,-26.93"/>
</g>
<!-- Node8&#45;&gt;Node10 -->
<g id="edge9" class="edge">
<title>Node8&#45;&gt;Node10</title>
<path fill="none" stroke="midnightblue" d="M284.19,-57.11C287.34,-56.7 290.46,-56.33 293.5,-56 561.86,-27.06 887.29,-15.3 994.97,-12.02"/>
<polygon fill="midnightblue" stroke="midnightblue" points="995.39,-15.51 1005.28,-11.72 995.18,-8.52 995.39,-15.51"/>
</g>
<!-- Node11 -->
<g id="node11" class="node">
<title>Node11</title>
<g id="a_node11"><a xlink:title=" ">
<polygon fill="white" stroke="#bfbfbf" points="96,-0.5 96,-19.5 155,-19.5 155,-0.5 96,-0.5"/>
<text text-anchor="middle" x="125.5" y="-7.5" font-family="Helvetica,sans-Serif" font-size="10.00">stdexcept</text>
</a>
</g>
</g>
<!-- Node8&#45;&gt;Node11 -->
<g id="edge10" class="edge">
<title>Node8&#45;&gt;Node11</title>
<path fill="none" stroke="midnightblue" d="M217.83,-56.32C200.11,-47.62 172.6,-34.12 152.21,-24.11"/>
<polygon fill="midnightblue" stroke="midnightblue" points="153.65,-20.92 143.13,-19.65 150.56,-27.2 153.65,-20.92"/>
</g>
<!-- Node12 -->
<g id="node12" class="node">
<title>Node12</title>
<g id="a_node12"><a xlink:title=" ">
<polygon fill="white" stroke="#bfbfbf" points="173,-0.5 173,-19.5 224,-19.5 224,-0.5 173,-0.5"/>
<text text-anchor="middle" x="198.5" y="-7.5" font-family="Helvetica,sans-Serif" font-size="10.00">typeinfo</text>
</a>
</g>
</g>
<!-- Node8&#45;&gt;Node12 -->
<g id="edge11" class="edge">
<title>Node8&#45;&gt;Node12</title>
<path fill="none" stroke="midnightblue" d="M229.39,-56.08C224.22,-48.53 216.65,-37.49 210.31,-28.23"/>
<polygon fill="midnightblue" stroke="midnightblue" points="213.04,-26.02 204.5,-19.75 207.26,-29.98 213.04,-26.02"/>
</g>
<!-- Node13 -->
<g id="node13" class="node">
<title>Node13</title>
<g id="a_node13"><a xlink:title=" ">
<polygon fill="white" stroke="#bfbfbf" points="242.5,-0.5 242.5,-19.5 304.5,-19.5 304.5,-0.5 242.5,-0.5"/>
<text text-anchor="middle" x="273.5" y="-7.5" font-family="Helvetica,sans-Serif" font-size="10.00">type_traits</text>
</a>
</g>
</g>
<!-- Node8&#45;&gt;Node13 -->
<g id="edge12" class="edge">
<title>Node8&#45;&gt;Node13</title>
<path fill="none" stroke="midnightblue" d="M241.77,-56.08C247.14,-48.46 255.02,-37.26 261.58,-27.94"/>
<polygon fill="midnightblue" stroke="midnightblue" points="264.45,-29.94 267.34,-19.75 258.72,-25.91 264.45,-29.94"/>
</g>
<!-- Node14&#45;&gt;Node4 -->
<g id="edge17" class="edge">
<title>Node14&#45;&gt;Node4</title>
<path fill="none" stroke="midnightblue" d="M332.38,-112.43C294.93,-104.27 237.27,-91.33 178.61,-76.19"/>
<polygon fill="midnightblue" stroke="midnightblue" points="179.37,-72.77 168.81,-73.64 177.61,-79.54 179.37,-72.77"/>
</g>
<!-- Node15 -->
<g id="node15" class="node">
<title>Node15</title>
<g id="a_node15"><a xlink:title=" ">
<polygon fill="white" stroke="#bfbfbf" points="302.5,-56.5 302.5,-75.5 352.5,-75.5 352.5,-56.5 302.5,-56.5"/>
<text text-anchor="middle" x="327.5" y="-63.5" font-family="Helvetica,sans-Serif" font-size="10.00">fstream</text>
</a>
</g>
</g>
<!-- Node14&#45;&gt;Node15 -->
<g id="edge14" class="edge">
<title>Node14&#45;&gt;Node15</title>
<path fill="none" stroke="midnightblue" d="M365.07,-112.08C358.65,-104.38 349.19,-93.03 341.38,-83.65"/>
<polygon fill="midnightblue" stroke="midnightblue" points="343.88,-81.19 334.79,-75.75 338.51,-85.67 343.88,-81.19"/>
</g>
<!-- Node16 -->
<g id="node16" class="node">
<title>Node16</title>
<g id="a_node16"><a xlink:title=" ">
<polygon fill="white" stroke="#bfbfbf" points="370.5,-56.5 370.5,-75.5 424.5,-75.5 424.5,-56.5 370.5,-56.5"/>
<text text-anchor="middle" x="397.5" y="-63.5" font-family="Helvetica,sans-Serif" font-size="10.00">iostream</text>
</a>
</g>
</g>
<!-- Node14&#45;&gt;Node16 -->
<g id="edge15" class="edge">
<title>Node14&#45;&gt;Node16</title>
<path fill="none" stroke="midnightblue" d="M376.63,-112.08C380.01,-104.77 384.92,-94.18 389.12,-85.1"/>
<polygon fill="midnightblue" stroke="midnightblue" points="392.42,-86.3 393.45,-75.75 386.07,-83.36 392.42,-86.3"/>
</g>
<!-- Node14&#45;&gt;Node17 -->
<g id="edge16" class="edge">
<title>Node14&#45;&gt;Node17</title>
<path fill="none" stroke="midnightblue" d="M387.12,-112.32C401.45,-103.82 423.51,-90.73 440.25,-80.8"/>
<polygon fill="midnightblue" stroke="midnightblue" points="442.1,-83.77 448.92,-75.65 438.53,-77.75 442.1,-83.77"/>
</g>
<!-- Node19&#45;&gt;Node6 -->
<g id="edge24" class="edge">
<title>Node19&#45;&gt;Node6</title>
<path fill="none" stroke="midnightblue" d="M471.02,-235.48C454.79,-227.08 429.46,-213.97 408.55,-203.15"/>
<polygon fill="midnightblue" stroke="midnightblue" points="410.09,-200.01 399.6,-198.52 406.88,-206.23 410.09,-200.01"/>
</g>
<!-- Node20 -->
<g id="node20" class="node">
<title>Node20</title>
<g id="a_node20"><a xlink:title=" ">
<polygon fill="white" stroke="#bfbfbf" points="496,-174 496,-193 561,-193 561,-174 496,-174"/>
<text text-anchor="middle" x="528.5" y="-181" font-family="Helvetica,sans-Serif" font-size="10.00">Eigen/Core</text>
</a>
</g>
</g>
<!-- Node19&#45;&gt;Node20 -->
<g id="edge25" class="edge">
<title>Node19&#45;&gt;Node20</title>
<path fill="none" stroke="midnightblue" d="M493.37,-235.48C499.46,-226.64 509.14,-212.59 516.8,-201.48"/>
<polygon fill="midnightblue" stroke="midnightblue" points="519.84,-203.23 522.64,-193.01 514.08,-199.26 519.84,-203.23"/>
</g>
<!-- Node21&#45;&gt;Node3 -->
<g id="edge28" class="edge">
<title>Node21&#45;&gt;Node3</title>
<path fill="none" stroke="midnightblue" d="M84.84,-235.48C107.6,-225.45 145.59,-208.7 171.79,-197.15"/>
<polygon fill="midnightblue" stroke="midnightblue" points="173.45,-200.24 181.19,-193.01 170.63,-193.84 173.45,-200.24"/>
</g>
<!-- Node21&#45;&gt;Node4 -->
<g id="edge29" class="edge">
<title>Node21&#45;&gt;Node4</title>
<path fill="none" stroke="midnightblue" d="M69.41,-235.46C81.89,-208.19 120.97,-122.78 138.2,-85.13"/>
<polygon fill="midnightblue" stroke="midnightblue" points="141.46,-86.42 142.44,-75.87 135.1,-83.5 141.46,-86.42"/>
</g>
<!-- Node22&#45;&gt;Node5 -->
<g id="edge36" class="edge">
<title>Node22&#45;&gt;Node5</title>
<path fill="none" stroke="midnightblue" d="M591.72,-291.46C598.78,-264.31 620.81,-179.51 630.66,-141.62"/>
<polygon fill="midnightblue" stroke="midnightblue" points="634.07,-142.43 633.2,-131.87 627.29,-140.67 634.07,-142.43"/>
</g>
<!-- Node22&#45;&gt;Node6 -->
<g id="edge32" class="edge">
<title>Node22&#45;&gt;Node6</title>
<path fill="none" stroke="midnightblue" d="M519.11,-298.05C480.78,-293.59 434.74,-282.29 402.5,-255 388.64,-243.27 381.03,-224.01 376.95,-208.58"/>
<polygon fill="midnightblue" stroke="midnightblue" points="380.31,-207.6 374.65,-198.65 373.49,-209.18 380.31,-207.6"/>
</g>
<!-- Node22&#45;&gt;Node10 -->
<g id="edge34" class="edge">
<title>Node22&#45;&gt;Node10</title>
<path fill="none" stroke="midnightblue" d="M650.07,-291.48C698.37,-283.97 767.44,-271.64 826.5,-255 860.35,-245.46 950.49,-224.69 974.5,-199 1019.69,-150.66 1029.12,-67.62 1031.04,-30.23"/>
<polygon fill="midnightblue" stroke="midnightblue" points="1034.55,-29.93 1031.44,-19.8 1027.56,-29.66 1034.55,-29.93"/>
</g>
<!-- Node22&#45;&gt;Node18 -->
<g id="edge35" class="edge">
<title>Node22&#45;&gt;Node18</title>
<path fill="none" stroke="midnightblue" d="M588.48,-291.31C585.95,-270.15 578.95,-214.23 570.5,-168 568.9,-159.23 566.8,-149.58 564.93,-141.46"/>
<polygon fill="midnightblue" stroke="midnightblue" points="568.31,-140.52 562.61,-131.59 561.49,-142.12 568.31,-140.52"/>
</g>
<!-- Node22&#45;&gt;Node19 -->
<g id="edge31" class="edge">
<title>Node22&#45;&gt;Node19</title>
<path fill="none" stroke="midnightblue" d="M573.11,-291.32C556.83,-282.7 531.63,-269.36 512.78,-259.39"/>
<polygon fill="midnightblue" stroke="midnightblue" points="514.32,-256.24 503.85,-254.65 511.05,-262.43 514.32,-256.24"/>
</g>
<!-- Node22&#45;&gt;Node21 -->
<g id="edge33" class="edge">
<title>Node22&#45;&gt;Node21</title>
<path fill="none" stroke="midnightblue" d="M519.3,-293.45C432.8,-285.27 281.05,-270.58 141.3,-255.18"/>
<polygon fill="midnightblue" stroke="midnightblue" points="141.58,-251.69 131.26,-254.07 140.81,-258.65 141.58,-251.69"/>
</g>
<!-- Node23&#45;&gt;Node10 -->
<g id="edge47" class="edge">
<title>Node23&#45;&gt;Node10</title>
<path fill="none" stroke="midnightblue" d="M911.67,-293.88C967.28,-287.4 1041.01,-275.26 1062.5,-255 1086.11,-232.74 1081.5,-216.95 1081.5,-184.5 1081.5,-184.5 1081.5,-184.5 1081.5,-121 1081.5,-85.18 1059.26,-48.21 1044.45,-27.56"/>
<polygon fill="midnightblue" stroke="midnightblue" points="1047.23,-25.45 1038.45,-19.52 1041.62,-29.63 1047.23,-25.45"/>
</g>
<!-- Node24 -->
<g id="node24" class="node">
<title>Node24</title>
<g id="a_node24"><a xlink:href="ExogenousModel_8h.html" target="_top" xlink:title=" ">
<polygon fill="white" stroke="black" points="659.5,-235.5 659.5,-254.5 817.5,-254.5 817.5,-235.5 659.5,-235.5"/>
<text text-anchor="middle" x="738.5" y="-242.5" font-family="Helvetica,sans-Serif" font-size="10.00">BayesFilters/ExogenousModel.h</text>
</a>
</g>
</g>
<!-- Node23&#45;&gt;Node24 -->
<g id="edge38" class="edge">
<title>Node23&#45;&gt;Node24</title>
<path fill="none" stroke="midnightblue" d="M828.31,-291.32C811.15,-282.66 784.55,-269.24 764.75,-259.25"/>
<polygon fill="midnightblue" stroke="midnightblue" points="766.15,-256.04 755.65,-254.65 763,-262.28 766.15,-256.04"/>
</g>
<!-- Node26 -->
<g id="node26" class="node">
<title>Node26</title>
<g id="a_node26"><a xlink:href="Skippable_8h.html" target="_top" xlink:title=" ">
<polygon fill="white" stroke="black" points="840,-174 840,-193 965,-193 965,-174 840,-174"/>
<text text-anchor="middle" x="902.5" y="-181" font-family="Helvetica,sans-Serif" font-size="10.00">BayesFilters/Skippable.h</text>
</a>
</g>
</g>
<!-- Node23&#45;&gt;Node26 -->
<g id="edge44" class="edge">
<title>Node23&#45;&gt;Node26</title>
<path fill="none" stroke="midnightblue" d="M849.78,-291.32C859.07,-272.51 881.21,-227.65 893.64,-202.46"/>
<polygon fill="midnightblue" stroke="midnightblue" points="896.88,-203.8 898.17,-193.28 890.6,-200.7 896.88,-203.8"/>
</g>
<!-- Node28 -->
<g id="node28" class="node">
<title>Node28</title>
<g id="a_node28"><a xlink:href="StateProcess_8h.html" target="_top" xlink:title=" ">
<polygon fill="white" stroke="black" points="911.5,-235.5 911.5,-254.5 1053.5,-254.5 1053.5,-235.5 911.5,-235.5"/>
<text text-anchor="middle" x="982.5" y="-242.5" font-family="Helvetica,sans-Serif" font-size="10.00">BayesFilters/StateProcess.h</text>
</a>
</g>
</g>
<!-- Node23&#45;&gt;Node28 -->
<g id="edge45" class="edge">
<title>Node23&#45;&gt;Node28</title>
<path fill="none" stroke="midnightblue" d="M867.21,-291.44C889.85,-282.52 925.57,-268.44 951.25,-258.32"/>
<polygon fill="midnightblue" stroke="midnightblue" points="952.87,-261.44 960.89,-254.52 950.31,-254.93 952.87,-261.44"/>
</g>
<!-- Node25 -->
<g id="node25" class="node">
<title>Node25</title>
<g id="a_node25"><a xlink:href="ExogenousProcess_8h.html" target="_top" xlink:title=" ">
<polygon fill="white" stroke="black" points="655,-174 655,-193 822,-193 822,-174 655,-174"/>
<text text-anchor="middle" x="738.5" y="-181" font-family="Helvetica,sans-Serif" font-size="10.00">BayesFilters/ExogenousProcess.h</text>
</a>
</g>
</g>
<!-- Node24&#45;&gt;Node25 -->
<g id="edge39" class="edge">
<title>Node24&#45;&gt;Node25</title>
<path fill="none" stroke="midnightblue" d="M738.5,-235.48C738.5,-227.08 738.5,-213.98 738.5,-203.16"/>
<polygon fill="midnightblue" stroke="midnightblue" points="742,-203.01 738.5,-193.01 735,-203.01 742,-203.01"/>
</g>
<!-- Node24&#45;&gt;Node26 -->
<g id="edge41" class="edge">
<title>Node24&#45;&gt;Node26</title>
<path fill="none" stroke="midnightblue" d="M762,-235.48C790.13,-225.27 837.43,-208.11 869.29,-196.55"/>
<polygon fill="midnightblue" stroke="midnightblue" points="870.84,-199.71 879.05,-193.01 868.45,-193.13 870.84,-199.71"/>
</g>
<!-- Node25&#45;&gt;Node5 -->
<g id="edge40" class="edge">
<title>Node25&#45;&gt;Node5</title>
<path fill="none" stroke="midnightblue" d="M723.74,-173.98C706.84,-164.21 678.92,-148.08 659.01,-136.58"/>
<polygon fill="midnightblue" stroke="midnightblue" points="660.64,-133.48 650.23,-131.51 657.14,-139.54 660.64,-133.48"/>
</g>
<!-- Node27 -->
<g id="node27" class="node">
<title>Node27</title>
<g id="a_node27"><a xlink:href="Skipper_8h.html" target="_top" xlink:title=" ">
<polygon fill="white" stroke="black" points="769,-112.5 769,-131.5 884,-131.5 884,-112.5 769,-112.5"/>
<text text-anchor="middle" x="826.5" y="-119.5" font-family="Helvetica,sans-Serif" font-size="10.00">BayesFilters/Skipper.h</text>
</a>
</g>
</g>
<!-- Node26&#45;&gt;Node27 -->
<g id="edge42" class="edge">
<title>Node26&#45;&gt;Node27</title>
<path fill="none" stroke="midnightblue" d="M891.61,-173.98C879.53,-164.52 859.83,-149.1 845.26,-137.69"/>
<polygon fill="midnightblue" stroke="midnightblue" points="847.4,-134.92 837.37,-131.51 843.09,-140.43 847.4,-134.92"/>
</g>
<!-- Node27&#45;&gt;Node17 -->
<g id="edge43" class="edge">
<title>Node27&#45;&gt;Node17</title>
<path fill="none" stroke="midnightblue" d="M768.98,-112.44C691.09,-100.86 554.86,-80.59 494.17,-71.56"/>
<polygon fill="midnightblue" stroke="midnightblue" points="494.49,-68.07 484.09,-70.06 493.46,-75 494.49,-68.07"/>
</g>
<!-- Node28&#45;&gt;Node5 -->
<g id="edge46" class="edge">
<title>Node28&#45;&gt;Node5</title>
<path fill="none" stroke="midnightblue" d="M984.63,-235.3C987.93,-219.53 992.17,-186.16 974.5,-168 954.43,-147.38 770.42,-132.19 682.22,-126.03"/>
<polygon fill="midnightblue" stroke="midnightblue" points="682.43,-122.53 672.21,-125.34 681.95,-129.52 682.43,-122.53"/>
</g>
</g>
</svg>
        <g id="navigator" transform="translate(0 0)" fill="#404254">
                <rect fill="#f2f5e9" fill-opacity="0.5" stroke="#606060" stroke-width=".5" x="0" y="0" width="60" height="60"/>
                <use id="zoomplus" xlink:href="#zoomPlus" x="17" y="9" onmousedown="handleZoom(evt,'in')"/>
                <use id="zoomminus" xlink:href="#zoomMin" x="42" y="9" onmousedown="handleZoom(evt,'out')"/>
                <use id="reset" xlink:href="#resetDef" x="30" y="36" onmousedown="handleReset()"/>
                <g id="arrowUp" xlink:href="#dirArrow" transform="translate(30 24)" onmousedown="handlePan(0,-1)">
                  <use xlink:href="#rim" fill="#404040">
                        <set attributeName="fill" to="#808080" begin="arrowUp.mouseover" end="arrowUp.mouseout"/>
                  </use>
                  <path fill="none" stroke="white" stroke-width="1.5" d="M0,-3.0v7 M-2.5,-0.5L0,-3.0L2.5,-0.5"/>
                </g>
                <g id="arrowRight" xlink:href="#dirArrow" transform="rotate(90) translate(36 -43)" onmousedown="handlePan(1,0)">
                  <use xlink:href="#rim" fill="#404040">
                        <set attributeName="fill" to="#808080" begin="arrowRight.mouseover" end="arrowRight.mouseout"/>
                  </use>
                  <path fill="none" stroke="white" stroke-width="1.5" d="M0,-3.0v7 M-2.5,-0.5L0,-3.0L2.5,-0.5"/>
                </g>
                <g id="arrowDown" xlink:href="#dirArrow" transform="rotate(180) translate(-30 -48)" onmousedown="handlePan(0,1)">
                  <use xlink:href="#rim" fill="#404040">
                        <set attributeName="fill" to="#808080" begin="arrowDown.mouseover" end="arrowDown.mouseout"/>
                  </use>
                  <path fill="none" stroke="white" stroke-width="1.5" d="M0,-3.0v7 M-2.5,-0.5L0,-3.0L2.5,-0.5"/>
                </g>
                <g id="arrowLeft" xlink:href="#dirArrow" transform="rotate(270) translate(-36 17)" onmousedown="handlePan(-1,0)">
                  <use xlink:href="#rim" fill="#404040">
                        <set attributeName="fill" to="#808080" begin="arrowLeft.mouseover" end="arrowLeft.mouseout"/>
                  </use>
                  <path fill="none" stroke="white" stroke-width="1.5" d="M0,-3.0v7 M-2.5,-0.5L0,-3.0L2.5,-0.5"/>
                </g>
        </g>
        <svg viewBox="0 0 15 15" width="100%" height="30px" preserveAspectRatio="xMaxYMin meet">
         <g id="arrow_out" transform="scale(0.3 0.3)">
          <a xlink:href="GPFCorrection_8h__incl_org.svg" target="_base">
           <rect id="button" ry="5" rx="5" y="6" x="6" height="38" width="38"
                fill="#f2f5e9" fill-opacity="0.5" stroke="#606060" stroke-width="1.0"/>
           <path id="arrow"
             d="M 11.500037,31.436501 C 11.940474,20.09759 22.043105,11.32322 32.158766,21.979434 L 37.068811,17.246167 C 37.068811,17.246167 37.088388,32 37.088388,32 L 22.160133,31.978069 C 22.160133,31.978069 26.997745,27.140456 26.997745,27.140456 C 18.528582,18.264221 13.291696,25.230495 11.500037,31.436501 z"
             style="fill:#404040;"/>
          </a>
         </g>
        </svg>
</svg>
