<?xml version="1.0" encoding="UTF-8" standalone="no"?>
<!DOCTYPE svg PUBLIC "-//W3C//DTD SVG 1.1//EN"
 "http://www.w3.org/Graphics/SVG/1.1/DTD/svg11.dtd">
<!-- Generated by graphviz version 2.43.0 (0)
 -->
<!-- Title: /home/user/bayes&#45;filters&#45;lib/src/BayesFilters/src/GPFCorrection.cpp Pages: 1 -->
<!--zoomable 453 -->
<svg id="main" version="1.1" xmlns="http://www.w3.org/2000/svg" xmlns:xlink="http://www.w3.org/1999/xlink" xml:space="preserve" onload="init(evt)">
<style type="text/css"><![CDATA[
.edge:hover path { stroke: red; }
.edge:hover polygon { stroke: red; fill: red; }
]]></style>
<script type="text/javascript"><![CDATA[
var edges = document.getElementsByTagName('g');
if (edges && edges.length) {
  for (var i=0;i<edges.length;i++) {
    if (edges[i].id.substr(0,4)=='edge') {
      edges[i].setAttribute('class','edge');
    }
  }
}
]]></script>
        <defs>
                <circle id="rim" cx="0" cy="0" r="7"/>
                <circle id="rim2" cx="0" cy="0" r="3.5"/>
                <g id="zoomPlus">
                        <use xlink:href="#rim" fill="#404040">
                                <set attributeName="fill" to="#808080" begin="zoomplus.mouseover" end="zoomplus.mouseout"/>
                        </use>
                        <path d="M-4,0h8M0,-4v8" fill="none" stroke="white" stroke-width="1.5" pointer-events="none"/>
                </g>
                <g id="zoomMin">
                        <use xlink:href="#rim" fill="#404040">
                                <set attributeName="fill" to="#808080" begin="zoomminus.mouseover" end="zoomminus.mouseout"/>
                        </use>
                        <path d="M-4,0h8" fill="none" stroke="white" stroke-width="1.5" pointer-events="none"/>
                </g>
                <g id="dirArrow">
                        <path fill="none" stroke="white" stroke-width="1.5" d="M0,-3.0v7 M-2.5,-0.5L0,-3.0L2.5,-0.5"/>
                </g>
               <g id="resetDef">
                       <use xlink:href="#rim2" fill="#404040">
                               <set attributeName="fill" to="#808080" begin="reset.mouseover" end="reset.mouseout"/>
                       </use>
               </g>
        </defs>

<script type="text/javascript">
var viewWidth = 1611;
var viewHeight = 453;
var sectionId = 'dynsection-0';
</script>
<script xlink:href="svgpan.js"/>
<svg id="graph" class="graph">
<g id="viewport">
<title>/home/user/bayes&#45;filters&#45;lib/src/BayesFilters/src/GPFCorrection.cpp</title>
<polygon fill="white" stroke="transparent" points="-4,4 -4,-449 1607,-449 1607,4 -4,4"/>
<!-- Node1 -->
<g id="node1" class="node">
<title>Node1</title>
<g id="a_node1"><a xlink:title=" ">
<polygon fill="#bfbfbf" stroke="black" points="1370,-403.5 1370,-444.5 1505,-444.5 1505,-403.5 1370,-403.5"/>
<text text-anchor="start" x="1378" y="-432.5" font-family="Helvetica,sans-Serif" font-size="10.00">/home/user/bayes&#45;filters</text>
<text text-anchor="start" x="1378" y="-421.5" font-family="Helvetica,sans-Serif" font-size="10.00">&#45;lib/src/BayesFilters/src</text>
<text text-anchor="middle" x="1437.5" y="-410.5" font-family="Helvetica,sans-Serif" font-size="10.00">/GPFCorrection.cpp</text>
</a>
</g>
</g>
<!-- Node2 -->
<g id="node2" class="node">
<title>Node2</title>
<g id="a_node2"><a xlink:href="GPFCorrection_8h.html" target="_top" xlink:title=" ">
<polygon fill="white" stroke="black" points="709.5,-347.5 709.5,-366.5 867.5,-366.5 867.5,-347.5 709.5,-347.5"/>
<text text-anchor="middle" x="788.5" y="-354.5" font-family="Helvetica,sans-Serif" font-size="10.00">BayesFilters/GPFCorrection.h</text>
</a>
</g>
</g>
<!-- Node1&#45;&gt;Node2 -->
<g id="edge1" class="edge">
<title>Node1&#45;&gt;Node2</title>
<path fill="none" stroke="midnightblue" d="M1369.88,-416.23C1252.02,-404.42 1009,-380.08 877.57,-366.92"/>
<polygon fill="midnightblue" stroke="midnightblue" points="877.82,-363.43 867.53,-365.91 877.13,-370.39 877.82,-363.43"/>
</g>
<!-- Node34 -->
<g id="node34" class="node">
<title>Node34</title>
<g id="a_node34"><a xlink:href="utils_8h.html" target="_top" xlink:title=" ">
<polygon fill="white" stroke="black" points="1368.5,-174 1368.5,-193 1478.5,-193 1478.5,-174 1368.5,-174"/>
<text text-anchor="middle" x="1423.5" y="-181" font-family="Helvetica,sans-Serif" font-size="10.00">BayesFilters/utils.h</text>
</a>
</g>
</g>
<!-- Node1&#45;&gt;Node34 -->
<g id="edge56" class="edge">
<title>Node1&#45;&gt;Node34</title>
<path fill="none" stroke="midnightblue" d="M1429.99,-403.37C1426.33,-392.77 1422.33,-379.36 1420.5,-367 1411.72,-307.84 1417.52,-236.71 1421.17,-203.42"/>
<polygon fill="midnightblue" stroke="midnightblue" points="1424.67,-203.64 1422.34,-193.3 1417.71,-202.83 1424.67,-203.64"/>
</g>
<!-- Node37 -->
<g id="node37" class="node">
<title>Node37</title>
<g id="a_node37"><a xlink:title=" ">
<polygon fill="white" stroke="#bfbfbf" points="1429,-347.5 1429,-366.5 1520,-366.5 1520,-347.5 1429,-347.5"/>
<text text-anchor="middle" x="1474.5" y="-354.5" font-family="Helvetica,sans-Serif" font-size="10.00">Eigen/Cholesky</text>
</a>
</g>
</g>
<!-- Node1&#45;&gt;Node37 -->
<g id="edge62" class="edge">
<title>Node1&#45;&gt;Node37</title>
<path fill="none" stroke="midnightblue" d="M1448.6,-403.5C1453.67,-394.59 1459.64,-384.11 1464.56,-375.46"/>
<polygon fill="midnightblue" stroke="midnightblue" points="1467.67,-377.07 1469.57,-366.65 1461.59,-373.61 1467.67,-377.07"/>
</g>
<!-- Node38 -->
<g id="node38" class="node">
<title>Node38</title>
<g id="a_node38"><a xlink:title=" ">
<polygon fill="white" stroke="#bfbfbf" points="1538,-347.5 1538,-366.5 1603,-366.5 1603,-347.5 1538,-347.5"/>
<text text-anchor="middle" x="1570.5" y="-354.5" font-family="Helvetica,sans-Serif" font-size="10.00">exception</text>
</a>
</g>
</g>
<!-- Node1&#45;&gt;Node38 -->
<g id="edge63" class="edge">
<title>Node1&#45;&gt;Node38</title>
<path fill="none" stroke="midnightblue" d="M1477.4,-403.5C1498.87,-393.01 1524.77,-380.35 1543.8,-371.05"/>
<polygon fill="midnightblue" stroke="midnightblue" points="1545.35,-374.19 1552.8,-366.65 1542.27,-367.9 1545.35,-374.19"/>
</g>
<!-- Node3 -->
<g id="node3" class="node">
<title>Node3</title>
<g id="a_node3"><a xlink:href="GaussianCorrection_8h.html" target="_top" xlink:title=" ">
<polygon fill="white" stroke="black" points="588.5,-235.5 588.5,-254.5 772.5,-254.5 772.5,-235.5 588.5,-235.5"/>
<text text-anchor="middle" x="680.5" y="-242.5" font-family="Helvetica,sans-Serif" font-size="10.00">BayesFilters/GaussianCorrection.h</text>
</a>
</g>
</g>
<!-- Node2&#45;&gt;Node3 -->
<g id="edge2" class="edge">
<title>Node2&#45;&gt;Node3</title>
<path fill="none" stroke="midnightblue" d="M780.03,-347.37C761.89,-328.89 719.08,-285.29 695.96,-261.74"/>
<polygon fill="midnightblue" stroke="midnightblue" points="698.44,-259.28 688.94,-254.59 693.44,-264.18 698.44,-259.28"/>
</g>
<!-- Node7 -->
<g id="node7" class="node">
<title>Node7</title>
<g id="a_node7"><a xlink:href="MeasurementModel_8h.html" target="_top" xlink:title=" ">
<polygon fill="white" stroke="black" points="262,-168.5 262,-198.5 409,-198.5 409,-168.5 262,-168.5"/>
<text text-anchor="start" x="270" y="-186.5" font-family="Helvetica,sans-Serif" font-size="10.00">BayesFilters/Measurement</text>
<text text-anchor="middle" x="335.5" y="-175.5" font-family="Helvetica,sans-Serif" font-size="10.00">Model.h</text>
</a>
</g>
</g>
<!-- Node2&#45;&gt;Node7 -->
<g id="edge29" class="edge">
<title>Node2&#45;&gt;Node7</title>
<path fill="none" stroke="midnightblue" d="M709.48,-353.38C588.93,-348.58 370.4,-336.46 345.5,-311 319.28,-284.18 323.51,-237.09 329.29,-208.55"/>
<polygon fill="midnightblue" stroke="midnightblue" points="332.75,-209.12 331.52,-198.6 325.92,-207.59 332.75,-209.12"/>
</g>
<!-- Node11 -->
<g id="node11" class="node">
<title>Node11</title>
<g id="a_node11"><a xlink:title=" ">
<polygon fill="white" stroke="#bfbfbf" points="779.5,-0.5 779.5,-19.5 837.5,-19.5 837.5,-0.5 779.5,-0.5"/>
<text text-anchor="middle" x="808.5" y="-7.5" font-family="Helvetica,sans-Serif" font-size="10.00">memory</text>
</a>
</g>
</g>
<!-- Node2&#45;&gt;Node11 -->
<g id="edge54" class="edge">
<title>Node2&#45;&gt;Node11</title>
<path fill="none" stroke="midnightblue" d="M867.59,-356.47C1020.22,-355.23 1340.5,-341.27 1340.5,-246 1340.5,-246 1340.5,-246 1340.5,-121 1340.5,-20.42 971.23,-11.08 847.99,-10.76"/>
<polygon fill="midnightblue" stroke="midnightblue" points="847.86,-7.26 837.86,-10.76 847.86,-14.26 847.86,-7.26"/>
</g>
<!-- Node22 -->
<g id="node22" class="node">
<title>Node22</title>
<g id="a_node22"><a xlink:href="LikelihoodModel_8h.html" target="_top" xlink:title=" ">
<polygon fill="white" stroke="black" points="62.5,-235.5 62.5,-254.5 230.5,-254.5 230.5,-235.5 62.5,-235.5"/>
<text text-anchor="middle" x="146.5" y="-242.5" font-family="Helvetica,sans-Serif" font-size="10.00">BayesFilters/LikelihoodModel.h</text>
</a>
</g>
</g>
<!-- Node2&#45;&gt;Node22 -->
<g id="edge26" class="edge">
<title>Node2&#45;&gt;Node22</title>
<path fill="none" stroke="midnightblue" d="M709.49,-355.23C614.15,-352.78 449.57,-343.64 312.5,-311 261.48,-298.85 205.26,-274.3 173.09,-259.09"/>
<polygon fill="midnightblue" stroke="midnightblue" points="174.44,-255.86 163.91,-254.7 171.41,-262.17 174.44,-255.86"/>
</g>
<!-- Node24 -->
<g id="node24" class="node">
<title>Node24</title>
<g id="a_node24"><a xlink:href="ParticleSet_8h.html" target="_top" xlink:title=" ">
<polygon fill="white" stroke="black" points="430.5,-235.5 430.5,-254.5 570.5,-254.5 570.5,-235.5 430.5,-235.5"/>
<text text-anchor="middle" x="500.5" y="-242.5" font-family="Helvetica,sans-Serif" font-size="10.00">BayesFilters/ParticleSet.h</text>
</a>
</g>
</g>
<!-- Node2&#45;&gt;Node24 -->
<g id="edge30" class="edge">
<title>Node2&#45;&gt;Node24</title>
<path fill="none" stroke="midnightblue" d="M765.9,-347.37C715.01,-327.93 591.28,-280.67 532.51,-258.23"/>
<polygon fill="midnightblue" stroke="midnightblue" points="533.58,-254.89 522.99,-254.59 531.09,-261.43 533.58,-254.89"/>
</g>
<!-- Node25 -->
<g id="node25" class="node">
<title>Node25</title>
<g id="a_node25"><a xlink:href="PFCorrection_8h.html" target="_top" xlink:title=" ">
<polygon fill="white" stroke="black" points="355,-291.5 355,-310.5 506,-310.5 506,-291.5 355,-291.5"/>
<text text-anchor="middle" x="430.5" y="-298.5" font-family="Helvetica,sans-Serif" font-size="10.00">BayesFilters/PFCorrection.h</text>
</a>
</g>
</g>
<!-- Node2&#45;&gt;Node25 -->
<g id="edge33" class="edge">
<title>Node2&#45;&gt;Node25</title>
<path fill="none" stroke="midnightblue" d="M731.77,-347.44C668.01,-337.83 564.6,-322.23 497.07,-312.04"/>
<polygon fill="midnightblue" stroke="midnightblue" points="497.37,-308.55 486.96,-310.52 496.33,-315.47 497.37,-308.55"/>
</g>
<!-- Node26 -->
<g id="node26" class="node">
<title>Node26</title>
<g id="a_node26"><a xlink:href="StateModel_8h.html" target="_top" xlink:title=" ">
<polygon fill="white" stroke="black" points="766.5,-291.5 766.5,-310.5 910.5,-310.5 910.5,-291.5 766.5,-291.5"/>
<text text-anchor="middle" x="838.5" y="-298.5" font-family="Helvetica,sans-Serif" font-size="10.00">BayesFilters/StateModel.h</text>
</a>
</g>
</g>
<!-- Node2&#45;&gt;Node26 -->
<g id="edge40" class="edge">
<title>Node2&#45;&gt;Node26</title>
<path fill="none" stroke="midnightblue" d="M796.76,-347.08C803.96,-339.3 814.61,-327.8 823.35,-318.37"/>
<polygon fill="midnightblue" stroke="midnightblue" points="826.17,-320.47 830.4,-310.75 821.03,-315.71 826.17,-320.47"/>
</g>
<!-- Node32 -->
<g id="node32" class="node">
<title>Node32</title>
<g id="a_node32"><a xlink:title=" ">
<polygon fill="white" stroke="#bfbfbf" points="929,-291.5 929,-310.5 994,-310.5 994,-291.5 929,-291.5"/>
<text text-anchor="middle" x="961.5" y="-298.5" font-family="Helvetica,sans-Serif" font-size="10.00">functional</text>
</a>
</g>
</g>
<!-- Node2&#45;&gt;Node32 -->
<g id="edge53" class="edge">
<title>Node2&#45;&gt;Node32</title>
<path fill="none" stroke="midnightblue" d="M815.91,-347.44C845.27,-338.28 892.02,-323.69 924.6,-313.52"/>
<polygon fill="midnightblue" stroke="midnightblue" points="925.71,-316.84 934.22,-310.52 923.63,-310.16 925.71,-316.84"/>
</g>
<!-- Node33 -->
<g id="node33" class="node">
<title>Node33</title>
<g id="a_node33"><a xlink:title=" ">
<polygon fill="white" stroke="#bfbfbf" points="1012.5,-291.5 1012.5,-310.5 1066.5,-310.5 1066.5,-291.5 1012.5,-291.5"/>
<text text-anchor="middle" x="1039.5" y="-298.5" font-family="Helvetica,sans-Serif" font-size="10.00">random</text>
</a>
</g>
</g>
<!-- Node2&#45;&gt;Node33 -->
<g id="edge55" class="edge">
<title>Node2&#45;&gt;Node33</title>
<path fill="none" stroke="midnightblue" d="M831.85,-347.44C873.22,-339.15 937.55,-325.98 1002.41,-311.18"/>
<polygon fill="midnightblue" stroke="midnightblue" points="1003.44,-314.54 1012.4,-308.89 1001.87,-307.72 1003.44,-314.54"/>
</g>
<!-- Node4 -->
<g id="node4" class="node">
<title>Node4</title>
<g id="a_node4"><a xlink:href="GaussianMixture_8h.html" target="_top" xlink:title=" ">
<polygon fill="white" stroke="black" points="504,-174 504,-193 675,-193 675,-174 504,-174"/>
<text text-anchor="middle" x="589.5" y="-181" font-family="Helvetica,sans-Serif" font-size="10.00">BayesFilters/GaussianMixture.h</text>
</a>
</g>
</g>
<!-- Node3&#45;&gt;Node4 -->
<g id="edge3" class="edge">
<title>Node3&#45;&gt;Node4</title>
<path fill="none" stroke="midnightblue" d="M667.46,-235.48C652.73,-225.84 628.53,-210.02 610.99,-198.55"/>
<polygon fill="midnightblue" stroke="midnightblue" points="612.8,-195.55 602.51,-193.01 608.97,-201.41 612.8,-195.55"/>
</g>
<!-- Node6 -->
<g id="node6" class="node">
<title>Node6</title>
<g id="a_node6"><a xlink:title=" ">
<polygon fill="white" stroke="#bfbfbf" points="681,-112.5 681,-131.5 758,-131.5 758,-112.5 681,-112.5"/>
<text text-anchor="middle" x="719.5" y="-119.5" font-family="Helvetica,sans-Serif" font-size="10.00">Eigen/Dense</text>
</a>
</g>
</g>
<!-- Node3&#45;&gt;Node6 -->
<g id="edge25" class="edge">
<title>Node3&#45;&gt;Node6</title>
<path fill="none" stroke="midnightblue" d="M683.3,-235.3C689.63,-215.68 705.11,-167.64 713.64,-141.19"/>
<polygon fill="midnightblue" stroke="midnightblue" points="716.98,-142.21 716.72,-131.62 710.32,-140.07 716.98,-142.21"/>
</g>
<!-- Node3&#45;&gt;Node7 -->
<g id="edge6" class="edge">
<title>Node3&#45;&gt;Node7</title>
<path fill="none" stroke="midnightblue" d="M631.07,-235.48C575.87,-225.95 485.57,-210.38 419.29,-198.95"/>
<polygon fill="midnightblue" stroke="midnightblue" points="419.73,-195.47 409.28,-197.22 418.54,-202.37 419.73,-195.47"/>
</g>
<!-- Node5 -->
<g id="node5" class="node">
<title>Node5</title>
<g id="a_node5"><a xlink:title=" ">
<polygon fill="white" stroke="#bfbfbf" points="528,-56.5 528,-75.5 575,-75.5 575,-56.5 528,-56.5"/>
<text text-anchor="middle" x="551.5" y="-63.5" font-family="Helvetica,sans-Serif" font-size="10.00">vector</text>
</a>
</g>
</g>
<!-- Node4&#45;&gt;Node5 -->
<g id="edge4" class="edge">
<title>Node4&#45;&gt;Node5</title>
<path fill="none" stroke="midnightblue" d="M586.64,-173.82C580.48,-155.09 565.83,-110.55 557.52,-85.29"/>
<polygon fill="midnightblue" stroke="midnightblue" points="560.84,-84.19 554.39,-75.78 554.19,-86.37 560.84,-84.19"/>
</g>
<!-- Node4&#45;&gt;Node6 -->
<g id="edge5" class="edge">
<title>Node4&#45;&gt;Node6</title>
<path fill="none" stroke="midnightblue" d="M608.13,-173.98C629.94,-163.99 666.3,-147.35 691.52,-135.81"/>
<polygon fill="midnightblue" stroke="midnightblue" points="693.27,-138.85 700.91,-131.51 690.36,-132.49 693.27,-138.85"/>
</g>
<!-- Node7&#45;&gt;Node6 -->
<g id="edge24" class="edge">
<title>Node7&#45;&gt;Node6</title>
<path fill="none" stroke="midnightblue" d="M409.08,-171.1C486.09,-159.17 604.78,-140.78 670.85,-130.54"/>
<polygon fill="midnightblue" stroke="midnightblue" points="671.65,-133.96 680.99,-128.97 670.57,-127.04 671.65,-133.96"/>
</g>
<!-- Node8 -->
<g id="node8" class="node">
<title>Node8</title>
<g id="a_node8"><a xlink:href="Data_8h.html" target="_top" xlink:title=" ">
<polygon fill="white" stroke="black" points="93.5,-112.5 93.5,-131.5 205.5,-131.5 205.5,-112.5 93.5,-112.5"/>
<text text-anchor="middle" x="149.5" y="-119.5" font-family="Helvetica,sans-Serif" font-size="10.00">BayesFilters/Data.h</text>
</a>
</g>
</g>
<!-- Node7&#45;&gt;Node8 -->
<g id="edge7" class="edge">
<title>Node7&#45;&gt;Node8</title>
<path fill="none" stroke="midnightblue" d="M291.42,-168.4C259.28,-158.12 216.24,-144.35 186.02,-134.68"/>
<polygon fill="midnightblue" stroke="midnightblue" points="186.88,-131.28 176.29,-131.57 184.75,-137.95 186.88,-131.28"/>
</g>
<!-- Node7&#45;&gt;Node11 -->
<g id="edge21" class="edge">
<title>Node7&#45;&gt;Node11</title>
<path fill="none" stroke="midnightblue" d="M317.48,-168.21C307.45,-159.07 295.93,-146.27 290.5,-132 281.6,-108.63 304.36,-57.77 306.5,-56 341.9,-26.73 656.95,-15.2 769.09,-12"/>
<polygon fill="midnightblue" stroke="midnightblue" points="769.39,-15.5 779.29,-11.72 769.2,-8.5 769.39,-15.5"/>
</g>
<!-- Node15 -->
<g id="node15" class="node">
<title>Node15</title>
<g id="a_node15"><a xlink:href="Logger_8h.html" target="_top" xlink:title=" ">
<polygon fill="white" stroke="black" points="300,-112.5 300,-131.5 421,-131.5 421,-112.5 300,-112.5"/>
<text text-anchor="middle" x="360.5" y="-119.5" font-family="Helvetica,sans-Serif" font-size="10.00">BayesFilters/Logger.h</text>
</a>
</g>
</g>
<!-- Node7&#45;&gt;Node15 -->
<g id="edge14" class="edge">
<title>Node7&#45;&gt;Node15</title>
<path fill="none" stroke="midnightblue" d="M341.42,-168.4C344.87,-160.2 349.25,-149.78 352.94,-140.99"/>
<polygon fill="midnightblue" stroke="midnightblue" points="356.22,-142.23 356.86,-131.66 349.76,-139.52 356.22,-142.23"/>
</g>
<!-- Node18 -->
<g id="node18" class="node">
<title>Node18</title>
<g id="a_node18"><a xlink:title=" ">
<polygon fill="white" stroke="#bfbfbf" points="705.5,-56.5 705.5,-75.5 749.5,-75.5 749.5,-56.5 705.5,-56.5"/>
<text text-anchor="middle" x="727.5" y="-63.5" font-family="Helvetica,sans-Serif" font-size="10.00">string</text>
</a>
</g>
</g>
<!-- Node7&#45;&gt;Node18 -->
<g id="edge22" class="edge">
<title>Node7&#45;&gt;Node18</title>
<path fill="none" stroke="midnightblue" d="M361.82,-168.39C399.22,-148.37 463.87,-113.92 469.5,-112 547.88,-85.28 645.33,-73.8 695.04,-69.4"/>
<polygon fill="midnightblue" stroke="midnightblue" points="695.51,-72.88 705.18,-68.55 694.92,-65.9 695.51,-72.88"/>
</g>
<!-- Node19 -->
<g id="node19" class="node">
<title>Node19</title>
<g id="a_node19"><a xlink:href="VectorDescription_8h.html" target="_top" xlink:title=" ">
<polygon fill="white" stroke="black" points="927,-112.5 927,-131.5 1102,-131.5 1102,-112.5 927,-112.5"/>
<text text-anchor="middle" x="1014.5" y="-119.5" font-family="Helvetica,sans-Serif" font-size="10.00">BayesFilters/VectorDescription.h</text>
</a>
</g>
</g>
<!-- Node7&#45;&gt;Node19 -->
<g id="edge19" class="edge">
<title>Node7&#45;&gt;Node19</title>
<path fill="none" stroke="midnightblue" d="M409.18,-175.76C436.31,-173.3 467.3,-170.5 495.5,-168 516.09,-166.17 772.07,-144 916.66,-131.47"/>
<polygon fill="midnightblue" stroke="midnightblue" points="917.21,-134.94 926.87,-130.59 916.61,-127.96 917.21,-134.94"/>
</g>
<!-- Node21 -->
<g id="node21" class="node">
<title>Node21</title>
<g id="a_node21"><a xlink:title=" ">
<polygon fill="white" stroke="#bfbfbf" points="478,-112.5 478,-131.5 523,-131.5 523,-112.5 478,-112.5"/>
<text text-anchor="middle" x="500.5" y="-119.5" font-family="Helvetica,sans-Serif" font-size="10.00">utility</text>
</a>
</g>
</g>
<!-- Node7&#45;&gt;Node21 -->
<g id="edge23" class="edge">
<title>Node7&#45;&gt;Node21</title>
<path fill="none" stroke="midnightblue" d="M374.6,-168.4C403.16,-158.1 441.43,-144.3 468.25,-134.63"/>
<polygon fill="midnightblue" stroke="midnightblue" points="469.7,-137.83 477.92,-131.14 467.33,-131.24 469.7,-137.83"/>
</g>
<!-- Node9 -->
<g id="node9" class="node">
<title>Node9</title>
<g id="a_node9"><a xlink:href="any_8h.html" target="_top" xlink:title=" ">
<polygon fill="white" stroke="black" points="99,-56.5 99,-75.5 204,-75.5 204,-56.5 99,-56.5"/>
<text text-anchor="middle" x="151.5" y="-63.5" font-family="Helvetica,sans-Serif" font-size="10.00">BayesFilters/any.h</text>
</a>
</g>
</g>
<!-- Node8&#45;&gt;Node9 -->
<g id="edge8" class="edge">
<title>Node8&#45;&gt;Node9</title>
<path fill="none" stroke="midnightblue" d="M149.83,-112.08C150.09,-105.01 150.47,-94.86 150.8,-85.99"/>
<polygon fill="midnightblue" stroke="midnightblue" points="154.3,-85.87 151.18,-75.75 147.31,-85.61 154.3,-85.87"/>
</g>
<!-- Node10 -->
<g id="node10" class="node">
<title>Node10</title>
<g id="a_node10"><a xlink:title=" ">
<polygon fill="white" stroke="#bfbfbf" points="245.5,-0.5 245.5,-19.5 309.5,-19.5 309.5,-0.5 245.5,-0.5"/>
<text text-anchor="middle" x="277.5" y="-7.5" font-family="Helvetica,sans-Serif" font-size="10.00">algorithm</text>
</a>
</g>
</g>
<!-- Node9&#45;&gt;Node10 -->
<g id="edge9" class="edge">
<title>Node9&#45;&gt;Node10</title>
<path fill="none" stroke="midnightblue" d="M171.47,-56.44C192.11,-47.6 224.56,-33.69 248.13,-23.59"/>
<polygon fill="midnightblue" stroke="midnightblue" points="249.82,-26.67 257.63,-19.52 247.06,-20.24 249.82,-26.67"/>
</g>
<!-- Node9&#45;&gt;Node11 -->
<g id="edge10" class="edge">
<title>Node9&#45;&gt;Node11</title>
<path fill="none" stroke="midnightblue" d="M204.18,-57.73C209.35,-57.11 214.53,-56.52 219.5,-56 426,-34.46 674.25,-18.85 769.07,-13.26"/>
<polygon fill="midnightblue" stroke="midnightblue" points="769.56,-16.73 779.34,-12.65 769.15,-9.75 769.56,-16.73"/>
</g>
<!-- Node12 -->
<g id="node12" class="node">
<title>Node12</title>
<g id="a_node12"><a xlink:title=" ">
<polygon fill="white" stroke="#bfbfbf" points="0,-0.5 0,-19.5 65,-19.5 65,-0.5 0,-0.5"/>
<text text-anchor="middle" x="32.5" y="-7.5" font-family="Helvetica,sans-Serif" font-size="10.00">stdexcept</text>
</a>
</g>
</g>
<!-- Node9&#45;&gt;Node12 -->
<g id="edge11" class="edge">
<title>Node9&#45;&gt;Node12</title>
<path fill="none" stroke="midnightblue" d="M132.64,-56.44C113.23,-47.64 82.77,-33.81 60.54,-23.72"/>
<polygon fill="midnightblue" stroke="midnightblue" points="61.82,-20.46 51.27,-19.52 58.93,-26.84 61.82,-20.46"/>
</g>
<!-- Node13 -->
<g id="node13" class="node">
<title>Node13</title>
<g id="a_node13"><a xlink:title=" ">
<polygon fill="white" stroke="#bfbfbf" points="83,-0.5 83,-19.5 140,-19.5 140,-0.5 83,-0.5"/>
<text text-anchor="middle" x="111.5" y="-7.5" font-family="Helvetica,sans-Serif" font-size="10.00">typeinfo</text>
</a>
</g>
</g>
<!-- Node9&#45;&gt;Node13 -->
<g id="edge12" class="edge">
<title>Node9&#45;&gt;Node13</title>
<path fill="none" stroke="midnightblue" d="M144.89,-56.08C139.24,-48.46 130.96,-37.26 124.05,-27.94"/>
<polygon fill="midnightblue" stroke="midnightblue" points="126.75,-25.7 117.98,-19.75 121.12,-29.87 126.75,-25.7"/>
</g>
<!-- Node14 -->
<g id="node14" class="node">
<title>Node14</title>
<g id="a_node14"><a xlink:title=" ">
<polygon fill="white" stroke="#bfbfbf" points="158,-0.5 158,-19.5 227,-19.5 227,-0.5 158,-0.5"/>
<text text-anchor="middle" x="192.5" y="-7.5" font-family="Helvetica,sans-Serif" font-size="10.00">type_traits</text>
</a>
</g>
</g>
<!-- Node9&#45;&gt;Node14 -->
<g id="edge13" class="edge">
<title>Node9&#45;&gt;Node14</title>
<path fill="none" stroke="midnightblue" d="M158.27,-56.08C164.06,-48.46 172.56,-37.26 179.64,-27.94"/>
<polygon fill="midnightblue" stroke="midnightblue" points="182.6,-29.83 185.86,-19.75 177.02,-25.6 182.6,-29.83"/>
</g>
<!-- Node15&#45;&gt;Node5 -->
<g id="edge18" class="edge">
<title>Node15&#45;&gt;Node5</title>
<path fill="none" stroke="midnightblue" d="M390.76,-112.44C425.33,-102.67 481.72,-86.73 517.7,-76.56"/>
<polygon fill="midnightblue" stroke="midnightblue" points="519.04,-79.81 527.71,-73.73 517.14,-73.08 519.04,-79.81"/>
</g>
<!-- Node16 -->
<g id="node16" class="node">
<title>Node16</title>
<g id="a_node16"><a xlink:title=" ">
<polygon fill="white" stroke="#bfbfbf" points="394,-56.5 394,-75.5 449,-75.5 449,-56.5 394,-56.5"/>
<text text-anchor="middle" x="421.5" y="-63.5" font-family="Helvetica,sans-Serif" font-size="10.00">fstream</text>
</a>
</g>
</g>
<!-- Node15&#45;&gt;Node16 -->
<g id="edge15" class="edge">
<title>Node15&#45;&gt;Node16</title>
<path fill="none" stroke="midnightblue" d="M370.3,-112.32C379.32,-104.34 392.91,-92.31 403.82,-82.65"/>
<polygon fill="midnightblue" stroke="midnightblue" points="406.35,-85.08 411.52,-75.83 401.71,-79.84 406.35,-85.08"/>
</g>
<!-- Node17 -->
<g id="node17" class="node">
<title>Node17</title>
<g id="a_node17"><a xlink:title=" ">
<polygon fill="white" stroke="#bfbfbf" points="315.5,-56.5 315.5,-75.5 375.5,-75.5 375.5,-56.5 315.5,-56.5"/>
<text text-anchor="middle" x="345.5" y="-63.5" font-family="Helvetica,sans-Serif" font-size="10.00">iostream</text>
</a>
</g>
</g>
<!-- Node15&#45;&gt;Node17 -->
<g id="edge16" class="edge">
<title>Node15&#45;&gt;Node17</title>
<path fill="none" stroke="midnightblue" d="M358.02,-112.08C356.01,-104.85 353.11,-94.41 350.61,-85.4"/>
<polygon fill="midnightblue" stroke="midnightblue" points="353.98,-84.45 347.93,-75.75 347.24,-86.32 353.98,-84.45"/>
</g>
<!-- Node15&#45;&gt;Node18 -->
<g id="edge17" class="edge">
<title>Node15&#45;&gt;Node18</title>
<path fill="none" stroke="midnightblue" d="M418.65,-112.44C496.99,-100.92 633.7,-80.8 695.53,-71.7"/>
<polygon fill="midnightblue" stroke="midnightblue" points="696.09,-75.16 705.48,-70.24 695.07,-68.23 696.09,-75.16"/>
</g>
<!-- Node20 -->
<g id="node20" class="node">
<title>Node20</title>
<g id="a_node20"><a xlink:title=" ">
<polygon fill="white" stroke="#bfbfbf" points="988,-56.5 988,-75.5 1041,-75.5 1041,-56.5 988,-56.5"/>
<text text-anchor="middle" x="1014.5" y="-63.5" font-family="Helvetica,sans-Serif" font-size="10.00">cstddef</text>
</a>
</g>
</g>
<!-- Node19&#45;&gt;Node20 -->
<g id="edge20" class="edge">
<title>Node19&#45;&gt;Node20</title>
<path fill="none" stroke="midnightblue" d="M1014.5,-112.08C1014.5,-105.01 1014.5,-94.86 1014.5,-85.99"/>
<polygon fill="midnightblue" stroke="midnightblue" points="1018,-85.75 1014.5,-75.75 1011,-85.75 1018,-85.75"/>
</g>
<!-- Node22&#45;&gt;Node7 -->
<g id="edge27" class="edge">
<title>Node22&#45;&gt;Node7</title>
<path fill="none" stroke="midnightblue" d="M173.58,-235.48C201.57,-226.66 246.02,-212.67 281.28,-201.57"/>
<polygon fill="midnightblue" stroke="midnightblue" points="282.47,-204.86 290.96,-198.52 280.37,-198.19 282.47,-204.86"/>
</g>
<!-- Node23 -->
<g id="node23" class="node">
<title>Node23</title>
<g id="a_node23"><a xlink:title=" ">
<polygon fill="white" stroke="#bfbfbf" points="112,-174 112,-193 181,-193 181,-174 112,-174"/>
<text text-anchor="middle" x="146.5" y="-181" font-family="Helvetica,sans-Serif" font-size="10.00">Eigen/Core</text>
</a>
</g>
</g>
<!-- Node22&#45;&gt;Node23 -->
<g id="edge28" class="edge">
<title>Node22&#45;&gt;Node23</title>
<path fill="none" stroke="midnightblue" d="M146.5,-235.48C146.5,-227.08 146.5,-213.98 146.5,-203.16"/>
<polygon fill="midnightblue" stroke="midnightblue" points="150,-203.01 146.5,-193.01 143,-203.01 150,-203.01"/>
</g>
<!-- Node24&#45;&gt;Node4 -->
<g id="edge31" class="edge">
<title>Node24&#45;&gt;Node4</title>
<path fill="none" stroke="midnightblue" d="M513.25,-235.48C527.53,-225.93 550.9,-210.31 568.01,-198.87"/>
<polygon fill="midnightblue" stroke="midnightblue" points="570.4,-201.48 576.77,-193.01 566.51,-195.66 570.4,-201.48"/>
</g>
<!-- Node24&#45;&gt;Node5 -->
<g id="edge32" class="edge">
<title>Node24&#45;&gt;Node5</title>
<path fill="none" stroke="midnightblue" d="M497.44,-235.14C492.91,-220.51 485.93,-190.66 495.5,-168 504.43,-146.86 520.67,-151.66 532.5,-132 541.12,-117.68 546.03,-99.21 548.68,-85.63"/>
<polygon fill="midnightblue" stroke="midnightblue" points="552.17,-86.01 550.42,-75.56 545.27,-84.82 552.17,-86.01"/>
</g>
<!-- Node25&#45;&gt;Node6 -->
<g id="edge39" class="edge">
<title>Node25&#45;&gt;Node6</title>
<path fill="none" stroke="midnightblue" d="M506.26,-295.54C603.98,-288.99 763.62,-275.32 781.5,-255 787.37,-248.33 783.73,-243.6 781.5,-235 776.91,-217.28 770.37,-215.01 761.5,-199 750.47,-179.1 737.85,-156.24 729.34,-140.84"/>
<polygon fill="midnightblue" stroke="midnightblue" points="732.3,-138.96 724.41,-131.9 726.18,-142.34 732.3,-138.96"/>
</g>
<!-- Node25&#45;&gt;Node7 -->
<g id="edge35" class="edge">
<title>Node25&#45;&gt;Node7</title>
<path fill="none" stroke="midnightblue" d="M421.85,-291.29C413.15,-282.4 399.49,-268.1 388.5,-255 375.38,-239.36 361.55,-220.88 351.31,-206.77"/>
<polygon fill="midnightblue" stroke="midnightblue" points="354.12,-204.69 345.43,-198.62 348.44,-208.78 354.12,-204.69"/>
</g>
<!-- Node25&#45;&gt;Node11 -->
<g id="edge37" class="edge">
<title>Node25&#45;&gt;Node11</title>
<path fill="none" stroke="midnightblue" d="M395.15,-291.46C352.63,-279.09 283.17,-251.66 252.5,-199 226.49,-154.33 254.97,-86.03 294.5,-56 332.07,-27.46 655.9,-15.42 769.4,-12.05"/>
<polygon fill="midnightblue" stroke="midnightblue" points="769.5,-15.55 779.4,-11.76 769.3,-8.55 769.5,-15.55"/>
</g>
<!-- Node25&#45;&gt;Node21 -->
<g id="edge38" class="edge">
<title>Node25&#45;&gt;Node21</title>
<path fill="none" stroke="midnightblue" d="M426.95,-291.38C422.27,-278.74 415.3,-254.55 421.5,-235 433.83,-196.13 465.06,-159.1 484.36,-138.88"/>
<polygon fill="midnightblue" stroke="midnightblue" points="487.07,-141.11 491.57,-131.51 482.07,-136.21 487.07,-141.11"/>
</g>
<!-- Node25&#45;&gt;Node22 -->
<g id="edge34" class="edge">
<title>Node25&#45;&gt;Node22</title>
<path fill="none" stroke="midnightblue" d="M385.5,-291.44C335.54,-281.94 254.9,-266.61 201.3,-256.42"/>
<polygon fill="midnightblue" stroke="midnightblue" points="201.77,-252.95 191.29,-254.52 200.46,-259.82 201.77,-252.95"/>
</g>
<!-- Node25&#45;&gt;Node24 -->
<g id="edge36" class="edge">
<title>Node25&#45;&gt;Node24</title>
<path fill="none" stroke="midnightblue" d="M441.75,-291.32C452.3,-283.18 468.3,-270.84 480.94,-261.09"/>
<polygon fill="midnightblue" stroke="midnightblue" points="483.27,-263.71 489.05,-254.83 478.99,-258.17 483.27,-263.71"/>
</g>
<!-- Node26&#45;&gt;Node11 -->
<g id="edge52" class="edge">
<title>Node26&#45;&gt;Node11</title>
<path fill="none" stroke="midnightblue" d="M897.74,-291.44C1022.83,-272.57 1302.5,-225.75 1302.5,-184.5 1302.5,-184.5 1302.5,-184.5 1302.5,-121 1302.5,-28.02 964.86,-13.6 847.85,-11.39"/>
<polygon fill="midnightblue" stroke="midnightblue" points="847.62,-7.88 837.56,-11.22 847.5,-14.88 847.62,-7.88"/>
</g>
<!-- Node27 -->
<g id="node27" class="node">
<title>Node27</title>
<g id="a_node27"><a xlink:href="ExogenousModel_8h.html" target="_top" xlink:title=" ">
<polygon fill="white" stroke="black" points="867,-235.5 867,-254.5 1038,-254.5 1038,-235.5 867,-235.5"/>
<text text-anchor="middle" x="952.5" y="-242.5" font-family="Helvetica,sans-Serif" font-size="10.00">BayesFilters/ExogenousModel.h</text>
</a>
</g>
</g>
<!-- Node26&#45;&gt;Node27 -->
<g id="edge41" class="edge">
<title>Node26&#45;&gt;Node27</title>
<path fill="none" stroke="midnightblue" d="M856.56,-291.44C875.07,-282.68 904.08,-268.94 925.36,-258.86"/>
<polygon fill="midnightblue" stroke="midnightblue" points="926.98,-261.96 934.52,-254.52 923.99,-255.63 926.98,-261.96"/>
</g>
<!-- Node29 -->
<g id="node29" class="node">
<title>Node29</title>
<g id="a_node29"><a xlink:href="Skippable_8h.html" target="_top" xlink:title=" ">
<polygon fill="white" stroke="black" points="770,-174 770,-193 907,-193 907,-174 770,-174"/>
<text text-anchor="middle" x="838.5" y="-181" font-family="Helvetica,sans-Serif" font-size="10.00">BayesFilters/Skippable.h</text>
</a>
</g>
</g>
<!-- Node26&#45;&gt;Node29 -->
<g id="edge48" class="edge">
<title>Node26&#45;&gt;Node29</title>
<path fill="none" stroke="midnightblue" d="M838.5,-291.32C838.5,-272.76 838.5,-228.84 838.5,-203.47"/>
<polygon fill="midnightblue" stroke="midnightblue" points="842,-203.28 838.5,-193.28 835,-203.28 842,-203.28"/>
</g>
<!-- Node31 -->
<g id="node31" class="node">
<title>Node31</title>
<g id="a_node31"><a xlink:href="StateProcess_8h.html" target="_top" xlink:title=" ">
<polygon fill="white" stroke="black" points="1122.5,-174 1122.5,-193 1274.5,-193 1274.5,-174 1122.5,-174"/>
<text text-anchor="middle" x="1198.5" y="-181" font-family="Helvetica,sans-Serif" font-size="10.00">BayesFilters/StateProcess.h</text>
</a>
</g>
</g>
<!-- Node26&#45;&gt;Node31 -->
<g id="edge49" class="edge">
<title>Node26&#45;&gt;Node31</title>
<path fill="none" stroke="midnightblue" d="M894.42,-291.48C937.04,-284.15 996.84,-272.04 1047.5,-255 1093.82,-239.42 1144.75,-213.71 1174.04,-198.02"/>
<polygon fill="midnightblue" stroke="midnightblue" points="1175.98,-200.95 1183.11,-193.11 1172.65,-194.79 1175.98,-200.95"/>
</g>
<!-- Node28 -->
<g id="node28" class="node">
<title>Node28</title>
<g id="a_node28"><a xlink:href="ExogenousProcess_8h.html" target="_top" xlink:title=" ">
<polygon fill="white" stroke="black" points="925,-174 925,-193 1104,-193 1104,-174 925,-174"/>
<text text-anchor="middle" x="1014.5" y="-181" font-family="Helvetica,sans-Serif" font-size="10.00">BayesFilters/ExogenousProcess.h</text>
</a>
</g>
</g>
<!-- Node27&#45;&gt;Node28 -->
<g id="edge42" class="edge">
<title>Node27&#45;&gt;Node28</title>
<path fill="none" stroke="midnightblue" d="M961.38,-235.48C970.96,-226.28 986.41,-211.46 998.19,-200.16"/>
<polygon fill="midnightblue" stroke="midnightblue" points="1000.84,-202.46 1005.63,-193.01 995.99,-197.41 1000.84,-202.46"/>
</g>
<!-- Node27&#45;&gt;Node29 -->
<g id="edge45" class="edge">
<title>Node27&#45;&gt;Node29</title>
<path fill="none" stroke="midnightblue" d="M936.17,-235.48C917.29,-225.62 885.99,-209.29 863.92,-197.77"/>
<polygon fill="midnightblue" stroke="midnightblue" points="865.29,-194.53 854.8,-193.01 862.05,-200.74 865.29,-194.53"/>
</g>
<!-- Node28&#45;&gt;Node6 -->
<g id="edge44" class="edge">
<title>Node28&#45;&gt;Node6</title>
<path fill="none" stroke="midnightblue" d="M972.23,-173.98C918.28,-163.09 825.12,-144.3 768.23,-132.83"/>
<polygon fill="midnightblue" stroke="midnightblue" points="768.89,-129.39 758.4,-130.85 767.51,-136.25 768.89,-129.39"/>
</g>
<!-- Node28&#45;&gt;Node19 -->
<g id="edge43" class="edge">
<title>Node28&#45;&gt;Node19</title>
<path fill="none" stroke="midnightblue" d="M1014.5,-173.98C1014.5,-165.58 1014.5,-152.48 1014.5,-141.66"/>
<polygon fill="midnightblue" stroke="midnightblue" points="1018,-141.51 1014.5,-131.51 1011,-141.51 1018,-141.51"/>
</g>
<!-- Node30 -->
<g id="node30" class="node">
<title>Node30</title>
<g id="a_node30"><a xlink:href="Skipper_8h.html" target="_top" xlink:title=" ">
<polygon fill="white" stroke="black" points="776,-112.5 776,-131.5 901,-131.5 901,-112.5 776,-112.5"/>
<text text-anchor="middle" x="838.5" y="-119.5" font-family="Helvetica,sans-Serif" font-size="10.00">BayesFilters/Skipper.h</text>
</a>
</g>
</g>
<!-- Node29&#45;&gt;Node30 -->
<g id="edge46" class="edge">
<title>Node29&#45;&gt;Node30</title>
<path fill="none" stroke="midnightblue" d="M838.5,-173.98C838.5,-165.58 838.5,-152.48 838.5,-141.66"/>
<polygon fill="midnightblue" stroke="midnightblue" points="842,-141.51 838.5,-131.51 835,-141.51 842,-141.51"/>
</g>
<!-- Node30&#45;&gt;Node18 -->
<g id="edge47" class="edge">
<title>Node30&#45;&gt;Node18</title>
<path fill="none" stroke="midnightblue" d="M820.67,-112.32C802.78,-103.62 775.02,-90.12 754.45,-80.11"/>
<polygon fill="midnightblue" stroke="midnightblue" points="755.81,-76.88 745.29,-75.65 752.75,-83.18 755.81,-76.88"/>
</g>
<!-- Node31&#45;&gt;Node6 -->
<g id="edge51" class="edge">
<title>Node31&#45;&gt;Node6</title>
<path fill="none" stroke="midnightblue" d="M1151.82,-173.97C1139.39,-171.86 1125.96,-169.71 1113.5,-168 963.62,-147.44 922.26,-153.97 768.52,-132.03"/>
<polygon fill="midnightblue" stroke="midnightblue" points="768.62,-128.51 758.23,-130.54 767.62,-135.44 768.62,-128.51"/>
</g>
<!-- Node31&#45;&gt;Node19 -->
<g id="edge50" class="edge">
<title>Node31&#45;&gt;Node19</title>
<path fill="none" stroke="midnightblue" d="M1172.14,-173.98C1140.16,-163.64 1086.12,-146.16 1050.38,-134.6"/>
<polygon fill="midnightblue" stroke="midnightblue" points="1051.41,-131.26 1040.81,-131.51 1049.25,-137.92 1051.41,-131.26"/>
</g>
<!-- Node34&#45;&gt;Node6 -->
<g id="edge57" class="edge">
<title>Node34&#45;&gt;Node6</title>
<path fill="none" stroke="midnightblue" d="M1368.35,-176.36C1342.59,-173.6 1311.5,-170.43 1283.5,-168 1057.71,-148.44 997.23,-160.87 768.19,-131.93"/>
<polygon fill="midnightblue" stroke="midnightblue" points="768.57,-128.45 758.21,-130.66 767.69,-135.39 768.57,-128.45"/>
</g>
<!-- Node34&#45;&gt;Node11 -->
<g id="edge60" class="edge">
<title>Node34&#45;&gt;Node11</title>
<path fill="none" stroke="midnightblue" d="M1421.73,-173.82C1416.41,-150.15 1398.11,-84.38 1354.5,-56 1312.28,-28.53 966,-15.71 847.84,-12.1"/>
<polygon fill="midnightblue" stroke="midnightblue" points="847.88,-8.6 837.78,-11.8 847.67,-15.6 847.88,-8.6"/>
</g>
<!-- Node34&#45;&gt;Node18 -->
<g id="edge61" class="edge">
<title>Node34&#45;&gt;Node18</title>
<path fill="none" stroke="midnightblue" d="M1390.94,-173.95C1334.43,-159.37 1214.41,-129.61 1111.5,-112 982.08,-89.86 826.24,-75.28 759.92,-69.63"/>
<polygon fill="midnightblue" stroke="midnightblue" points="759.95,-66.13 749.69,-68.78 759.37,-73.1 759.95,-66.13"/>
</g>
<!-- Node35 -->
<g id="node35" class="node">
<title>Node35</title>
<g id="a_node35"><a xlink:title=" ">
<polygon fill="white" stroke="#bfbfbf" points="1444.5,-112.5 1444.5,-131.5 1494.5,-131.5 1494.5,-112.5 1444.5,-112.5"/>
<text text-anchor="middle" x="1469.5" y="-119.5" font-family="Helvetica,sans-Serif" font-size="10.00">chrono</text>
</a>
</g>
</g>
<!-- Node34&#45;&gt;Node35 -->
<g id="edge58" class="edge">
<title>Node34&#45;&gt;Node35</title>
<path fill="none" stroke="midnightblue" d="M1430.09,-173.98C1436.99,-165.05 1448,-150.81 1456.63,-139.64"/>
<polygon fill="midnightblue" stroke="midnightblue" points="1459.57,-141.56 1462.92,-131.51 1454.04,-137.28 1459.57,-141.56"/>
</g>
<!-- Node36 -->
<g id="node36" class="node">
<title>Node36</title>
<g id="a_node36"><a xlink:title=" ">
<polygon fill="white" stroke="#bfbfbf" points="1513,-112.5 1513,-131.5 1560,-131.5 1560,-112.5 1513,-112.5"/>
<text text-anchor="middle" x="1536.5" y="-119.5" font-family="Helvetica,sans-Serif" font-size="10.00">cmath</text>
</a>
</g>
</g>
<!-- Node34&#45;&gt;Node36 -->
<g id="edge59" class="edge">
<title>Node34&#45;&gt;Node36</title>
<path fill="none" stroke="midnightblue" d="M1439.69,-173.98C1458.4,-164.12 1489.42,-147.79 1511.3,-136.27"/>
<polygon fill="midnightblue" stroke="midnightblue" points="1513.12,-139.27 1520.34,-131.51 1509.86,-133.07 1513.12,-139.27"/>
</g>
</g>
</svg>
        <g id="navigator" transform="translate(0 0)" fill="#404254">
                <rect fill="#f2f5e9" fill-opacity="0.5" stroke="#606060" stroke-width=".5" x="0" y="0" width="60" height="60"/>
                <use id="zoomplus" xlink:href="#zoomPlus" x="17" y="9" onmousedown="handleZoom(evt,'in')"/>
                <use id="zoomminus" xlink:href="#zoomMin" x="42" y="9" onmousedown="handleZoom(evt,'out')"/>
                <use id="reset" xlink:href="#resetDef" x="30" y="36" onmousedown="handleReset()"/>
                <g id="arrowUp" xlink:href="#dirArrow" transform="translate(30 24)" onmousedown="handlePan(0,-1)">
                  <use xlink:href="#rim" fill="#404040">
                        <set attributeName="fill" to="#808080" begin="arrowUp.mouseover" end="arrowUp.mouseout"/>
                  </use>
                  <path fill="none" stroke="white" stroke-width="1.5" d="M0,-3.0v7 M-2.5,-0.5L0,-3.0L2.5,-0.5"/>
                </g>
                <g id="arrowRight" xlink:href="#dirArrow" transform="rotate(90) translate(36 -43)" onmousedown="handlePan(1,0)">
                  <use xlink:href="#rim" fill="#404040">
                        <set attributeName="fill" to="#808080" begin="arrowRight.mouseover" end="arrowRight.mouseout"/>
                  </use>
                  <path fill="none" stroke="white" stroke-width="1.5" d="M0,-3.0v7 M-2.5,-0.5L0,-3.0L2.5,-0.5"/>
                </g>
                <g id="arrowDown" xlink:href="#dirArrow" transform="rotate(180) translate(-30 -48)" onmousedown="handlePan(0,1)">
                  <use xlink:href="#rim" fill="#404040">
                        <set attributeName="fill" to="#808080" begin="arrowDown.mouseover" end="arrowDown.mouseout"/>
                  </use>
                  <path fill="none" stroke="white" stroke-width="1.5" d="M0,-3.0v7 M-2.5,-0.5L0,-3.0L2.5,-0.5"/>
                </g>
                <g id="arrowLeft" xlink:href="#dirArrow" transform="rotate(270) translate(-36 17)" onmousedown="handlePan(-1,0)">
                  <use xlink:href="#rim" fill="#404040">
                        <set attributeName="fill" to="#808080" begin="arrowLeft.mouseover" end="arrowLeft.mouseout"/>
                  </use>
                  <path fill="none" stroke="white" stroke-width="1.5" d="M0,-3.0v7 M-2.5,-0.5L0,-3.0L2.5,-0.5"/>
                </g>
        </g>
        <svg viewBox="0 0 15 15" width="100%" height="30px" preserveAspectRatio="xMaxYMin meet">
         <g id="arrow_out" transform="scale(0.3 0.3)">
          <a xlink:href="GPFCorrection_8cpp__incl_org.svg" target="_base">
           <rect id="button" ry="5" rx="5" y="6" x="6" height="38" width="38"
                fill="#f2f5e9" fill-opacity="0.5" stroke="#606060" stroke-width="1.0"/>
           <path id="arrow"
             d="M 11.500037,31.436501 C 11.940474,20.09759 22.043105,11.32322 32.158766,21.979434 L 37.068811,17.246167 C 37.068811,17.246167 37.088388,32 37.088388,32 L 22.160133,31.978069 C 22.160133,31.978069 26.997745,27.140456 26.997745,27.140456 C 18.528582,18.264221 13.291696,25.230495 11.500037,31.436501 z"
             style="fill:#404040;"/>
          </a>
         </g>
        </svg>
</svg>
