<?xml version="1.0" encoding="UTF-8" standalone="no"?>
<!DOCTYPE svg PUBLIC "-//W3C//DTD SVG 1.1//EN"
 "http://www.w3.org/Graphics/SVG/1.1/DTD/svg11.dtd">
<!-- Generated by graphviz version 2.47.2 (0)
 -->
<!-- Title: /home/xenvre/robot&#45;code/bfl_robotology/src/BayesFilters/src/GPFPrediction.cpp Pages: 1 -->
<svg width="804pt" height="464pt"
 viewBox="0.00 0.00 803.87 464.00" xmlns="http://www.w3.org/2000/svg" xmlns:xlink="http://www.w3.org/1999/xlink">
<g id="graph0" class="graph" transform="scale(1 1) rotate(0) translate(4 460)">
<title>/home/xenvre/robot&#45;code/bfl_robotology/src/BayesFilters/src/GPFPrediction.cpp</title>
<polygon fill="white" stroke="transparent" points="-4,4 -4,-460 799.87,-460 799.87,4 -4,4"/>
<!-- Node1 -->
<g id="node1" class="node">
<title>Node1</title>
<g id="a_node1"><a xlink:title=" ">
<polygon fill="#bfbfbf" stroke="black" points="484.37,-403.5 484.37,-455.5 591.37,-455.5 591.37,-403.5 484.37,-403.5"/>
<text text-anchor="start" x="492.37" y="-443.5" font-family="Helvetica,sans-Serif" font-size="10.00">/home/xenvre/robot</text>
<text text-anchor="start" x="492.37" y="-432.5" font-family="Helvetica,sans-Serif" font-size="10.00">&#45;code/bfl_robotology</text>
<text text-anchor="start" x="492.37" y="-421.5" font-family="Helvetica,sans-Serif" font-size="10.00">/src/BayesFilters/src</text>
<text text-anchor="middle" x="537.87" y="-410.5" font-family="Helvetica,sans-Serif" font-size="10.00">/GPFPrediction.cpp</text>
</a>
</g>
</g>
<!-- Node2 -->
<g id="node2" class="node">
<title>Node2</title>
<g id="a_node2"><a xlink:href="GPFPrediction_8h.html" target="_top" xlink:title=" ">
<polygon fill="white" stroke="black" points="404.87,-347.5 404.87,-366.5 550.87,-366.5 550.87,-347.5 404.87,-347.5"/>
<text text-anchor="middle" x="477.87" y="-354.5" font-family="Helvetica,sans-Serif" font-size="10.00">BayesFilters/GPFPrediction.h</text>
</a>
</g>
</g>
<!-- Node1&#45;&gt;Node2 -->
<g id="edge1" class="edge">
<title>Node1&#45;&gt;Node2</title>
<path fill="none" stroke="midnightblue" d="M516.55,-403.45C508.37,-393.83 499.24,-383.1 491.91,-374.49"/>
<polygon fill="midnightblue" stroke="midnightblue" points="494.42,-372.04 485.27,-366.7 489.09,-376.58 494.42,-372.04"/>
</g>
<!-- Node18 -->
<g id="node18" class="node">
<title>Node18</title>
<g id="a_node18"><a xlink:title=" ">
<polygon fill="white" stroke="#bfbfbf" points="569.37,-347.5 569.37,-366.5 628.37,-366.5 628.37,-347.5 569.37,-347.5"/>
<text text-anchor="middle" x="598.87" y="-354.5" font-family="Helvetica,sans-Serif" font-size="10.00">exception</text>
</a>
</g>
</g>
<!-- Node1&#45;&gt;Node18 -->
<g id="edge35" class="edge">
<title>Node1&#45;&gt;Node18</title>
<path fill="none" stroke="midnightblue" d="M559.55,-403.45C567.87,-393.83 577.15,-383.1 584.61,-374.49"/>
<polygon fill="midnightblue" stroke="midnightblue" points="587.45,-376.55 591.35,-366.7 582.16,-371.97 587.45,-376.55"/>
</g>
<!-- Node3 -->
<g id="node3" class="node">
<title>Node3</title>
<g id="a_node3"><a xlink:href="ExogenousModel_8h.html" target="_top" xlink:title=" ">
<polygon fill="white" stroke="black" points="414.87,-168.5 414.87,-187.5 572.87,-187.5 572.87,-168.5 414.87,-168.5"/>
<text text-anchor="middle" x="493.87" y="-175.5" font-family="Helvetica,sans-Serif" font-size="10.00">BayesFilters/ExogenousModel.h</text>
</a>
</g>
</g>
<!-- Node2&#45;&gt;Node3 -->
<g id="edge2" class="edge">
<title>Node2&#45;&gt;Node3</title>
<path fill="none" stroke="midnightblue" d="M470.2,-347.46C463.09,-338.93 453.02,-325.09 448.87,-311 446.36,-302.47 447.19,-299.73 448.87,-291 455.64,-256.01 473.28,-218.08 484.35,-196.56"/>
<polygon fill="midnightblue" stroke="midnightblue" points="487.48,-198.12 489.05,-187.65 481.29,-194.86 487.48,-198.12"/>
</g>
<!-- Node9 -->
<g id="node9" class="node">
<title>Node9</title>
<g id="a_node9"><a xlink:href="GaussianPrediction_8h.html" target="_top" xlink:title=" ">
<polygon fill="white" stroke="black" points="234.37,-291.5 234.37,-310.5 401.37,-310.5 401.37,-291.5 234.37,-291.5"/>
<text text-anchor="middle" x="317.87" y="-298.5" font-family="Helvetica,sans-Serif" font-size="10.00">BayesFilters/GaussianPrediction.h</text>
</a>
</g>
</g>
<!-- Node2&#45;&gt;Node9 -->
<g id="edge8" class="edge">
<title>Node2&#45;&gt;Node9</title>
<path fill="none" stroke="midnightblue" d="M452.52,-347.44C425.6,-338.36 382.88,-323.94 352.79,-313.78"/>
<polygon fill="midnightblue" stroke="midnightblue" points="353.7,-310.4 343.11,-310.52 351.46,-317.03 353.7,-310.4"/>
</g>
<!-- Node13 -->
<g id="node13" class="node">
<title>Node13</title>
<g id="a_node13"><a xlink:href="StateModel_8h.html" target="_top" xlink:title=" ">
<polygon fill="white" stroke="black" points="534.87,-230 534.87,-249 666.87,-249 666.87,-230 534.87,-230"/>
<text text-anchor="middle" x="600.87" y="-237" font-family="Helvetica,sans-Serif" font-size="10.00">BayesFilters/StateModel.h</text>
</a>
</g>
</g>
<!-- Node2&#45;&gt;Node13 -->
<g id="edge33" class="edge">
<title>Node2&#45;&gt;Node13</title>
<path fill="none" stroke="midnightblue" d="M548.04,-347.46C570.2,-341.07 592.39,-330.03 605.87,-311 616.59,-295.87 612.91,-274.03 608.1,-258.68"/>
<polygon fill="midnightblue" stroke="midnightblue" points="611.4,-257.5 604.75,-249.25 604.8,-259.85 611.4,-257.5"/>
</g>
<!-- Node15 -->
<g id="node15" class="node">
<title>Node15</title>
<g id="a_node15"><a xlink:title=" ">
<polygon fill="white" stroke="#bfbfbf" points="743.87,-168.5 743.87,-187.5 795.87,-187.5 795.87,-168.5 743.87,-168.5"/>
<text text-anchor="middle" x="769.87" y="-175.5" font-family="Helvetica,sans-Serif" font-size="10.00">memory</text>
</a>
</g>
</g>
<!-- Node2&#45;&gt;Node15 -->
<g id="edge34" class="edge">
<title>Node2&#45;&gt;Node15</title>
<path fill="none" stroke="midnightblue" d="M515.25,-347.49C583.69,-331.12 724.94,-293.47 755.87,-255 768.85,-238.86 771.27,-214.55 771.14,-197.79"/>
<polygon fill="midnightblue" stroke="midnightblue" points="774.63,-197.45 770.75,-187.59 767.64,-197.72 774.63,-197.45"/>
</g>
<!-- Node16 -->
<g id="node16" class="node">
<title>Node16</title>
<g id="a_node16"><a xlink:href="ParticleSet_8h.html" target="_top" xlink:title=" ">
<polygon fill="white" stroke="black" points="189.37,-230 189.37,-249 320.37,-249 320.37,-230 189.37,-230"/>
<text text-anchor="middle" x="254.87" y="-237" font-family="Helvetica,sans-Serif" font-size="10.00">BayesFilters/ParticleSet.h</text>
</a>
</g>
</g>
<!-- Node2&#45;&gt;Node16 -->
<g id="edge23" class="edge">
<title>Node2&#45;&gt;Node16</title>
<path fill="none" stroke="midnightblue" d="M404.64,-353.06C338.55,-348.68 248.34,-337.83 225.87,-311 212.54,-295.07 226.45,-272.18 239.22,-256.85"/>
<polygon fill="midnightblue" stroke="midnightblue" points="241.99,-259 246.01,-249.2 236.75,-254.35 241.99,-259"/>
</g>
<!-- Node17 -->
<g id="node17" class="node">
<title>Node17</title>
<g id="a_node17"><a xlink:href="PFPrediction_8h.html" target="_top" xlink:title=" ">
<polygon fill="white" stroke="black" points="457.37,-291.5 457.37,-310.5 596.37,-310.5 596.37,-291.5 457.37,-291.5"/>
<text text-anchor="middle" x="526.87" y="-298.5" font-family="Helvetica,sans-Serif" font-size="10.00">BayesFilters/PFPrediction.h</text>
</a>
</g>
</g>
<!-- Node2&#45;&gt;Node17 -->
<g id="edge26" class="edge">
<title>Node2&#45;&gt;Node17</title>
<path fill="none" stroke="midnightblue" d="M485.96,-347.08C493.03,-339.3 503.46,-327.8 512.02,-318.37"/>
<polygon fill="midnightblue" stroke="midnightblue" points="514.8,-320.51 518.93,-310.75 509.62,-315.8 514.8,-320.51"/>
</g>
<!-- Node4 -->
<g id="node4" class="node">
<title>Node4</title>
<g id="a_node4"><a xlink:href="ExogenousProcess_8h.html" target="_top" xlink:title=" ">
<polygon fill="white" stroke="black" points="244.37,-112.5 244.37,-131.5 411.37,-131.5 411.37,-112.5 244.37,-112.5"/>
<text text-anchor="middle" x="327.87" y="-119.5" font-family="Helvetica,sans-Serif" font-size="10.00">BayesFilters/ExogenousProcess.h</text>
</a>
</g>
</g>
<!-- Node3&#45;&gt;Node4 -->
<g id="edge3" class="edge">
<title>Node3&#45;&gt;Node4</title>
<path fill="none" stroke="midnightblue" d="M467.57,-168.44C439.52,-159.32 394.93,-144.81 363.69,-134.65"/>
<polygon fill="midnightblue" stroke="midnightblue" points="364.65,-131.28 354.05,-131.52 362.48,-137.94 364.65,-131.28"/>
</g>
<!-- Node6 -->
<g id="node6" class="node">
<title>Node6</title>
<g id="a_node6"><a xlink:href="Skippable_8h.html" target="_top" xlink:title=" ">
<polygon fill="white" stroke="black" points="429.37,-112.5 429.37,-131.5 554.37,-131.5 554.37,-112.5 429.37,-112.5"/>
<text text-anchor="middle" x="491.87" y="-119.5" font-family="Helvetica,sans-Serif" font-size="10.00">BayesFilters/Skippable.h</text>
</a>
</g>
</g>
<!-- Node3&#45;&gt;Node6 -->
<g id="edge5" class="edge">
<title>Node3&#45;&gt;Node6</title>
<path fill="none" stroke="midnightblue" d="M493.54,-168.08C493.28,-161.01 492.9,-150.86 492.58,-141.99"/>
<polygon fill="midnightblue" stroke="midnightblue" points="496.06,-141.61 492.2,-131.75 489.07,-141.87 496.06,-141.61"/>
</g>
<!-- Node5 -->
<g id="node5" class="node">
<title>Node5</title>
<g id="a_node5"><a xlink:title=" ">
<polygon fill="white" stroke="#bfbfbf" points="130.37,-56.5 130.37,-75.5 203.37,-75.5 203.37,-56.5 130.37,-56.5"/>
<text text-anchor="middle" x="166.87" y="-63.5" font-family="Helvetica,sans-Serif" font-size="10.00">Eigen/Dense</text>
</a>
</g>
</g>
<!-- Node4&#45;&gt;Node5 -->
<g id="edge4" class="edge">
<title>Node4&#45;&gt;Node5</title>
<path fill="none" stroke="midnightblue" d="M302.36,-112.44C275.28,-103.36 232.28,-88.94 202,-78.78"/>
<polygon fill="midnightblue" stroke="midnightblue" points="202.86,-75.38 192.26,-75.52 200.63,-82.01 202.86,-75.38"/>
</g>
<!-- Node7 -->
<g id="node7" class="node">
<title>Node7</title>
<g id="a_node7"><a xlink:href="Skipper_8h.html" target="_top" xlink:title=" ">
<polygon fill="white" stroke="black" points="497.37,-56.5 497.37,-75.5 612.37,-75.5 612.37,-56.5 497.37,-56.5"/>
<text text-anchor="middle" x="554.87" y="-63.5" font-family="Helvetica,sans-Serif" font-size="10.00">BayesFilters/Skipper.h</text>
</a>
</g>
</g>
<!-- Node6&#45;&gt;Node7 -->
<g id="edge6" class="edge">
<title>Node6&#45;&gt;Node7</title>
<path fill="none" stroke="midnightblue" d="M501.99,-112.32C511.4,-104.26 525.62,-92.08 536.94,-82.37"/>
<polygon fill="midnightblue" stroke="midnightblue" points="539.25,-85 544.57,-75.83 534.7,-79.68 539.25,-85"/>
</g>
<!-- Node8 -->
<g id="node8" class="node">
<title>Node8</title>
<g id="a_node8"><a xlink:title=" ">
<polygon fill="white" stroke="#bfbfbf" points="659.37,-0.5 659.37,-19.5 700.37,-19.5 700.37,-0.5 659.37,-0.5"/>
<text text-anchor="middle" x="679.87" y="-7.5" font-family="Helvetica,sans-Serif" font-size="10.00">string</text>
</a>
</g>
</g>
<!-- Node7&#45;&gt;Node8 -->
<g id="edge7" class="edge">
<title>Node7&#45;&gt;Node8</title>
<path fill="none" stroke="midnightblue" d="M574.68,-56.44C595.16,-47.6 627.36,-33.69 650.74,-23.59"/>
<polygon fill="midnightblue" stroke="midnightblue" points="652.37,-26.7 660.16,-19.52 649.59,-20.27 652.37,-26.7"/>
</g>
<!-- Node9&#45;&gt;Node3 -->
<g id="edge9" class="edge">
<title>Node9&#45;&gt;Node3</title>
<path fill="none" stroke="midnightblue" d="M327.98,-291.27C345.21,-276.57 381.66,-246.3 414.87,-224 432.02,-212.49 452.28,-200.99 467.98,-192.5"/>
<polygon fill="midnightblue" stroke="midnightblue" points="469.94,-195.42 477.11,-187.62 466.64,-189.25 469.94,-195.42"/>
</g>
<!-- Node9&#45;&gt;Node5 -->
<g id="edge22" class="edge">
<title>Node9&#45;&gt;Node5</title>
<path fill="none" stroke="midnightblue" d="M234.2,-299.42C154.24,-296.87 41.84,-287.42 13.87,-255 -41.35,-191 84.3,-111.68 140.97,-80.49"/>
<polygon fill="midnightblue" stroke="midnightblue" points="142.93,-83.41 150.06,-75.58 139.6,-77.25 142.93,-83.41"/>
</g>
<!-- Node9&#45;&gt;Node6 -->
<g id="edge15" class="edge">
<title>Node9&#45;&gt;Node6</title>
<path fill="none" stroke="midnightblue" d="M321.8,-291.2C332.41,-268.29 363.69,-205.94 405.87,-168 421.27,-154.15 441.7,-143.23 458.78,-135.62"/>
<polygon fill="midnightblue" stroke="midnightblue" points="460.57,-138.66 468.39,-131.52 457.82,-132.22 460.57,-138.66"/>
</g>
<!-- Node10 -->
<g id="node10" class="node">
<title>Node10</title>
<g id="a_node10"><a xlink:href="GaussianMixturePrediction_8h.html" target="_top" xlink:title=" ">
<polygon fill="white" stroke="black" points="22.87,-224.5 22.87,-254.5 170.87,-254.5 170.87,-224.5 22.87,-224.5"/>
<text text-anchor="start" x="30.87" y="-242.5" font-family="Helvetica,sans-Serif" font-size="10.00">BayesFilters/GaussianMixture</text>
<text text-anchor="middle" x="96.87" y="-231.5" font-family="Helvetica,sans-Serif" font-size="10.00">Prediction.h</text>
</a>
</g>
</g>
<!-- Node9&#45;&gt;Node10 -->
<g id="edge10" class="edge">
<title>Node9&#45;&gt;Node10</title>
<path fill="none" stroke="midnightblue" d="M286.21,-291.48C253.06,-282.55 200.16,-268.31 158.69,-257.14"/>
<polygon fill="midnightblue" stroke="midnightblue" points="159.52,-253.74 148.96,-254.52 157.7,-260.5 159.52,-253.74"/>
</g>
<!-- Node9&#45;&gt;Node13 -->
<g id="edge16" class="edge">
<title>Node9&#45;&gt;Node13</title>
<path fill="none" stroke="midnightblue" d="M358.42,-291.48C409.07,-280.83 495.72,-262.61 550.55,-251.08"/>
<polygon fill="midnightblue" stroke="midnightblue" points="551.34,-254.49 560.4,-249.01 549.89,-247.64 551.34,-254.49"/>
</g>
<!-- Node10&#45;&gt;Node5 -->
<g id="edge14" class="edge">
<title>Node10&#45;&gt;Node5</title>
<path fill="none" stroke="midnightblue" d="M85.38,-224.37C75.22,-210.08 63.13,-187.38 70.87,-168 85.83,-130.55 122.02,-99.04 145.44,-81.62"/>
<polygon fill="midnightblue" stroke="midnightblue" points="147.66,-84.34 153.72,-75.65 143.56,-78.66 147.66,-84.34"/>
</g>
<!-- Node11 -->
<g id="node11" class="node">
<title>Node11</title>
<g id="a_node11"><a xlink:href="GaussianMixture_8h.html" target="_top" xlink:title=" ">
<polygon fill="white" stroke="black" points="79.87,-168.5 79.87,-187.5 235.87,-187.5 235.87,-168.5 79.87,-168.5"/>
<text text-anchor="middle" x="157.87" y="-175.5" font-family="Helvetica,sans-Serif" font-size="10.00">BayesFilters/GaussianMixture.h</text>
</a>
</g>
</g>
<!-- Node10&#45;&gt;Node11 -->
<g id="edge11" class="edge">
<title>Node10&#45;&gt;Node11</title>
<path fill="none" stroke="midnightblue" d="M111.33,-224.4C120.47,-215.49 132.29,-203.95 141.74,-194.74"/>
<polygon fill="midnightblue" stroke="midnightblue" points="144.28,-197.15 149,-187.66 139.39,-192.13 144.28,-197.15"/>
</g>
<!-- Node11&#45;&gt;Node5 -->
<g id="edge13" class="edge">
<title>Node11&#45;&gt;Node5</title>
<path fill="none" stroke="midnightblue" d="M151.24,-168.21C142.67,-155.76 129.57,-132.25 135.87,-112 139.1,-101.62 145.65,-91.52 151.9,-83.53"/>
<polygon fill="midnightblue" stroke="midnightblue" points="154.66,-85.68 158.39,-75.77 149.29,-81.19 154.66,-85.68"/>
</g>
<!-- Node12 -->
<g id="node12" class="node">
<title>Node12</title>
<g id="a_node12"><a xlink:title=" ">
<polygon fill="white" stroke="#bfbfbf" points="144.87,-112.5 144.87,-131.5 188.87,-131.5 188.87,-112.5 144.87,-112.5"/>
<text text-anchor="middle" x="166.87" y="-119.5" font-family="Helvetica,sans-Serif" font-size="10.00">vector</text>
</a>
</g>
</g>
<!-- Node11&#45;&gt;Node12 -->
<g id="edge12" class="edge">
<title>Node11&#45;&gt;Node12</title>
<path fill="none" stroke="midnightblue" d="M159.36,-168.08C160.55,-160.93 162.27,-150.64 163.76,-141.69"/>
<polygon fill="midnightblue" stroke="midnightblue" points="167.22,-142.19 165.41,-131.75 160.32,-141.04 167.22,-142.19"/>
</g>
<!-- Node13&#45;&gt;Node3 -->
<g id="edge17" class="edge">
<title>Node13&#45;&gt;Node3</title>
<path fill="none" stroke="midnightblue" d="M585.54,-229.98C567.9,-220.17 538.71,-203.93 518.02,-192.42"/>
<polygon fill="midnightblue" stroke="midnightblue" points="519.62,-189.31 509.17,-187.51 516.21,-195.43 519.62,-189.31"/>
</g>
<!-- Node13&#45;&gt;Node6 -->
<g id="edge18" class="edge">
<title>Node13&#45;&gt;Node6</title>
<path fill="none" stroke="midnightblue" d="M600.73,-229.66C600.06,-215.2 596.79,-186.26 581.87,-168 569.37,-152.71 550.36,-142.14 533.02,-135.12"/>
<polygon fill="midnightblue" stroke="midnightblue" points="534.21,-131.82 523.62,-131.57 531.74,-138.37 534.21,-131.82"/>
</g>
<!-- Node14 -->
<g id="node14" class="node">
<title>Node14</title>
<g id="a_node14"><a xlink:href="StateProcess_8h.html" target="_top" xlink:title=" ">
<polygon fill="white" stroke="black" points="572.87,-112.5 572.87,-131.5 714.87,-131.5 714.87,-112.5 572.87,-112.5"/>
<text text-anchor="middle" x="643.87" y="-119.5" font-family="Helvetica,sans-Serif" font-size="10.00">BayesFilters/StateProcess.h</text>
</a>
</g>
</g>
<!-- Node13&#45;&gt;Node14 -->
<g id="edge19" class="edge">
<title>Node13&#45;&gt;Node14</title>
<path fill="none" stroke="midnightblue" d="M604.1,-229.82C611.08,-211.09 627.66,-166.55 637.06,-141.29"/>
<polygon fill="midnightblue" stroke="midnightblue" points="640.39,-142.37 640.6,-131.78 633.83,-139.93 640.39,-142.37"/>
</g>
<!-- Node13&#45;&gt;Node15 -->
<g id="edge21" class="edge">
<title>Node13&#45;&gt;Node15</title>
<path fill="none" stroke="midnightblue" d="M625.09,-229.98C654.2,-219.72 703.24,-202.46 736.07,-190.9"/>
<polygon fill="midnightblue" stroke="midnightblue" points="737.43,-194.13 745.7,-187.51 735.11,-187.53 737.43,-194.13"/>
</g>
<!-- Node14&#45;&gt;Node5 -->
<g id="edge20" class="edge">
<title>Node14&#45;&gt;Node5</title>
<path fill="none" stroke="midnightblue" d="M572.72,-112.94C473.74,-101.74 297.25,-81.76 213.48,-72.28"/>
<polygon fill="midnightblue" stroke="midnightblue" points="213.82,-68.79 203.49,-71.15 213.04,-75.75 213.82,-68.79"/>
</g>
<!-- Node16&#45;&gt;Node11 -->
<g id="edge24" class="edge">
<title>Node16&#45;&gt;Node11</title>
<path fill="none" stroke="midnightblue" d="M240.98,-229.98C225.2,-220.3 199.24,-204.37 180.52,-192.89"/>
<polygon fill="midnightblue" stroke="midnightblue" points="182.1,-189.75 171.74,-187.51 178.44,-195.72 182.1,-189.75"/>
</g>
<!-- Node16&#45;&gt;Node12 -->
<g id="edge25" class="edge">
<title>Node16&#45;&gt;Node12</title>
<path fill="none" stroke="midnightblue" d="M255.93,-229.84C257.19,-215.64 257.75,-187.05 244.87,-168 233.9,-151.76 214.96,-140.63 198.5,-133.5"/>
<polygon fill="midnightblue" stroke="midnightblue" points="199.75,-130.24 189.16,-129.76 197.14,-136.73 199.75,-130.24"/>
</g>
<!-- Node17&#45;&gt;Node3 -->
<g id="edge27" class="edge">
<title>Node17&#45;&gt;Node3</title>
<path fill="none" stroke="midnightblue" d="M524.5,-291.3C519.17,-271.76 506.16,-224.06 498.93,-197.55"/>
<polygon fill="midnightblue" stroke="midnightblue" points="502.23,-196.35 496.22,-187.62 495.48,-198.19 502.23,-196.35"/>
</g>
<!-- Node17&#45;&gt;Node5 -->
<g id="edge30" class="edge">
<title>Node17&#45;&gt;Node5</title>
<path fill="none" stroke="midnightblue" d="M508.94,-291.49C461.97,-268.8 332.29,-203.72 235.87,-132 215.78,-117.06 195.2,-96.92 181.81,-83.04"/>
<polygon fill="midnightblue" stroke="midnightblue" points="184.24,-80.51 174.81,-75.67 179.16,-85.33 184.24,-80.51"/>
</g>
<!-- Node17&#45;&gt;Node8 -->
<g id="edge32" class="edge">
<title>Node17&#45;&gt;Node8</title>
<path fill="none" stroke="midnightblue" d="M596.44,-292.3C624.02,-286.12 654.24,-274.99 675.87,-255 725.11,-209.5 737.55,-177.63 723.87,-112 717.43,-81.07 700.98,-48 690.12,-28.43"/>
<polygon fill="midnightblue" stroke="midnightblue" points="693.03,-26.46 685.03,-19.51 686.95,-29.93 693.03,-26.46"/>
</g>
<!-- Node17&#45;&gt;Node13 -->
<g id="edge29" class="edge">
<title>Node17&#45;&gt;Node13</title>
<path fill="none" stroke="midnightblue" d="M537.48,-291.48C549.12,-282.11 568.06,-266.88 582.21,-255.51"/>
<polygon fill="midnightblue" stroke="midnightblue" points="584.69,-258 590.29,-249.01 580.3,-252.55 584.69,-258"/>
</g>
<!-- Node17&#45;&gt;Node15 -->
<g id="edge31" class="edge">
<title>Node17&#45;&gt;Node15</title>
<path fill="none" stroke="midnightblue" d="M596.48,-298.96C638.82,-295.07 691.86,-284.03 729.87,-255 748.71,-240.61 759.58,-214.78 765.11,-197.27"/>
<polygon fill="midnightblue" stroke="midnightblue" points="768.49,-198.19 767.89,-187.62 761.76,-196.26 768.49,-198.19"/>
</g>
<!-- Node17&#45;&gt;Node16 -->
<g id="edge28" class="edge">
<title>Node17&#45;&gt;Node16</title>
<path fill="none" stroke="midnightblue" d="M487.9,-291.48C439.33,-280.85 356.29,-262.68 303.57,-251.15"/>
<polygon fill="midnightblue" stroke="midnightblue" points="304.29,-247.73 293.77,-249.01 302.79,-254.57 304.29,-247.73"/>
</g>
</g>
</svg>
