<?xml version="1.0" encoding="UTF-8" standalone="no"?>
<!DOCTYPE svg PUBLIC "-//W3C//DTD SVG 1.1//EN"
 "http://www.w3.org/Graphics/SVG/1.1/DTD/svg11.dtd">
<!-- Generated by graphviz version 2.43.0 (0)
 -->
<!-- Title: /home/user/bayes&#45;filters&#45;lib/src/BayesFilters/src/GPFPrediction.cpp Pages: 1 -->
<!--zoomable 453 -->
<svg id="main" version="1.1" xmlns="http://www.w3.org/2000/svg" xmlns:xlink="http://www.w3.org/1999/xlink" xml:space="preserve" onload="init(evt)">
<style type="text/css"><![CDATA[
.edge:hover path { stroke: red; }
.edge:hover polygon { stroke: red; fill: red; }
]]></style>
<script type="text/javascript"><![CDATA[
var edges = document.getElementsByTagName('g');
if (edges && edges.length) {
  for (var i=0;i<edges.length;i++) {
    if (edges[i].id.substr(0,4)=='edge') {
      edges[i].setAttribute('class','edge');
    }
  }
}
]]></script>
        <defs>
                <circle id="rim" cx="0" cy="0" r="7"/>
                <circle id="rim2" cx="0" cy="0" r="3.5"/>
                <g id="zoomPlus">
                        <use xlink:href="#rim" fill="#404040">
                                <set attributeName="fill" to="#808080" begin="zoomplus.mouseover" end="zoomplus.mouseout"/>
                        </use>
                        <path d="M-4,0h8M0,-4v8" fill="none" stroke="white" stroke-width="1.5" pointer-events="none"/>
                </g>
                <g id="zoomMin">
                        <use xlink:href="#rim" fill="#404040">
                                <set attributeName="fill" to="#808080" begin="zoomminus.mouseover" end="zoomminus.mouseout"/>
                        </use>
                        <path d="M-4,0h8" fill="none" stroke="white" stroke-width="1.5" pointer-events="none"/>
                </g>
                <g id="dirArrow">
                        <path fill="none" stroke="white" stroke-width="1.5" d="M0,-3.0v7 M-2.5,-0.5L0,-3.0L2.5,-0.5"/>
                </g>
               <g id="resetDef">
                       <use xlink:href="#rim2" fill="#404040">
                               <set attributeName="fill" to="#808080" begin="reset.mouseover" end="reset.mouseout"/>
                       </use>
               </g>
        </defs>

<script type="text/javascript">
var viewWidth = 906;
var viewHeight = 453;
var sectionId = 'dynsection-0';
</script>
<script xlink:href="svgpan.js"/>
<svg id="graph" class="graph">
<g id="viewport">
<title>/home/user/bayes&#45;filters&#45;lib/src/BayesFilters/src/GPFPrediction.cpp</title>
<polygon fill="white" stroke="transparent" points="-4,4 -4,-449 901.92,-449 901.92,4 -4,4"/>
<!-- Node1 -->
<g id="node1" class="node">
<title>Node1</title>
<g id="a_node1"><a xlink:title=" ">
<polygon fill="#bfbfbf" stroke="black" points="540.42,-403.5 540.42,-444.5 675.42,-444.5 675.42,-403.5 540.42,-403.5"/>
<text text-anchor="start" x="548.42" y="-432.5" font-family="Helvetica,sans-Serif" font-size="10.00">/home/user/bayes&#45;filters</text>
<text text-anchor="start" x="548.42" y="-421.5" font-family="Helvetica,sans-Serif" font-size="10.00">&#45;lib/src/BayesFilters/src</text>
<text text-anchor="middle" x="607.92" y="-410.5" font-family="Helvetica,sans-Serif" font-size="10.00">/GPFPrediction.cpp</text>
</a>
</g>
</g>
<!-- Node2 -->
<g id="node2" class="node">
<title>Node2</title>
<g id="a_node2"><a xlink:href="GPFPrediction_8h.html" target="_top" xlink:title=" ">
<polygon fill="white" stroke="black" points="465.42,-347.5 465.42,-366.5 622.42,-366.5 622.42,-347.5 465.42,-347.5"/>
<text text-anchor="middle" x="543.92" y="-354.5" font-family="Helvetica,sans-Serif" font-size="10.00">BayesFilters/GPFPrediction.h</text>
</a>
</g>
</g>
<!-- Node1&#45;&gt;Node2 -->
<g id="edge1" class="edge">
<title>Node1&#45;&gt;Node2</title>
<path fill="none" stroke="midnightblue" d="M588.71,-403.5C579.37,-394.01 568.29,-382.76 559.49,-373.81"/>
<polygon fill="midnightblue" stroke="midnightblue" points="561.95,-371.32 552.44,-366.65 556.96,-376.23 561.95,-371.32"/>
</g>
<!-- Node20 -->
<g id="node20" class="node">
<title>Node20</title>
<g id="a_node20"><a xlink:title=" ">
<polygon fill="white" stroke="#bfbfbf" points="640.42,-347.5 640.42,-366.5 705.42,-366.5 705.42,-347.5 640.42,-347.5"/>
<text text-anchor="middle" x="672.92" y="-354.5" font-family="Helvetica,sans-Serif" font-size="10.00">exception</text>
</a>
</g>
</g>
<!-- Node1&#45;&gt;Node20 -->
<g id="edge38" class="edge">
<title>Node1&#45;&gt;Node20</title>
<path fill="none" stroke="midnightblue" d="M627.42,-403.5C636.91,-394.01 648.16,-382.76 657.1,-373.81"/>
<polygon fill="midnightblue" stroke="midnightblue" points="659.67,-376.2 664.26,-366.65 654.72,-371.25 659.67,-376.2"/>
</g>
<!-- Node3 -->
<g id="node3" class="node">
<title>Node3</title>
<g id="a_node3"><a xlink:href="ExogenousModel_8h.html" target="_top" xlink:title=" ">
<polygon fill="white" stroke="black" points="419.42,-168.5 419.42,-187.5 590.42,-187.5 590.42,-168.5 419.42,-168.5"/>
<text text-anchor="middle" x="504.92" y="-175.5" font-family="Helvetica,sans-Serif" font-size="10.00">BayesFilters/ExogenousModel.h</text>
</a>
</g>
</g>
<!-- Node2&#45;&gt;Node3 -->
<g id="edge2" class="edge">
<title>Node2&#45;&gt;Node3</title>
<path fill="none" stroke="midnightblue" d="M535.34,-347.23C527.65,-338.74 516.84,-325.12 511.92,-311 498.49,-272.49 500.33,-223.84 502.71,-197.68"/>
<polygon fill="midnightblue" stroke="midnightblue" points="506.2,-197.96 503.76,-187.65 499.24,-197.24 506.2,-197.96"/>
</g>
<!-- Node11 -->
<g id="node11" class="node">
<title>Node11</title>
<g id="a_node11"><a xlink:href="GaussianPrediction_8h.html" target="_top" xlink:title=" ">
<polygon fill="white" stroke="black" points="282.92,-291.5 282.92,-310.5 464.92,-310.5 464.92,-291.5 282.92,-291.5"/>
<text text-anchor="middle" x="373.92" y="-298.5" font-family="Helvetica,sans-Serif" font-size="10.00">BayesFilters/GaussianPrediction.h</text>
</a>
</g>
</g>
<!-- Node2&#45;&gt;Node11 -->
<g id="edge10" class="edge">
<title>Node2&#45;&gt;Node11</title>
<path fill="none" stroke="midnightblue" d="M516.98,-347.44C488.26,-338.32 442.59,-323.81 410.6,-313.65"/>
<polygon fill="midnightblue" stroke="midnightblue" points="411.32,-310.21 400.73,-310.52 409.2,-316.88 411.32,-310.21"/>
</g>
<!-- Node15 -->
<g id="node15" class="node">
<title>Node15</title>
<g id="a_node15"><a xlink:href="StateModel_8h.html" target="_top" xlink:title=" ">
<polygon fill="white" stroke="black" points="558.92,-230 558.92,-249 702.92,-249 702.92,-230 558.92,-230"/>
<text text-anchor="middle" x="630.92" y="-237" font-family="Helvetica,sans-Serif" font-size="10.00">BayesFilters/StateModel.h</text>
</a>
</g>
</g>
<!-- Node2&#45;&gt;Node15 -->
<g id="edge36" class="edge">
<title>Node2&#45;&gt;Node15</title>
<path fill="none" stroke="midnightblue" d="M621.01,-347.48C643.3,-341.03 665.27,-329.94 678.92,-311 692.66,-291.94 670.92,-269.42 652.4,-255.05"/>
<polygon fill="midnightblue" stroke="midnightblue" points="654.39,-252.17 644.27,-249.07 650.25,-257.81 654.39,-252.17"/>
</g>
<!-- Node17 -->
<g id="node17" class="node">
<title>Node17</title>
<g id="a_node17"><a xlink:title=" ">
<polygon fill="white" stroke="#bfbfbf" points="701.92,-168.5 701.92,-187.5 759.92,-187.5 759.92,-168.5 701.92,-168.5"/>
<text text-anchor="middle" x="730.92" y="-175.5" font-family="Helvetica,sans-Serif" font-size="10.00">memory</text>
</a>
</g>
</g>
<!-- Node2&#45;&gt;Node17 -->
<g id="edge37" class="edge">
<title>Node2&#45;&gt;Node17</title>
<path fill="none" stroke="midnightblue" d="M605.54,-347.49C634.76,-341.12 668.88,-330.07 694.92,-311 719.18,-293.23 724.08,-283.75 732.92,-255 738.72,-236.12 737.05,-213.33 734.67,-197.67"/>
<polygon fill="midnightblue" stroke="midnightblue" points="738.09,-196.91 732.9,-187.68 731.2,-198.13 738.09,-196.91"/>
</g>
<!-- Node18 -->
<g id="node18" class="node">
<title>Node18</title>
<g id="a_node18"><a xlink:href="ParticleSet_8h.html" target="_top" xlink:title=" ">
<polygon fill="white" stroke="black" points="30.92,-230 30.92,-249 170.92,-249 170.92,-230 30.92,-230"/>
<text text-anchor="middle" x="100.92" y="-237" font-family="Helvetica,sans-Serif" font-size="10.00">BayesFilters/ParticleSet.h</text>
</a>
</g>
</g>
<!-- Node2&#45;&gt;Node18 -->
<g id="edge26" class="edge">
<title>Node2&#45;&gt;Node18</title>
<path fill="none" stroke="midnightblue" d="M465.22,-347.56C410.81,-340.6 337.13,-328.91 273.92,-311 220.24,-295.79 160.59,-269.19 127.22,-253.37"/>
<polygon fill="midnightblue" stroke="midnightblue" points="128.68,-250.19 118.14,-249.03 125.65,-256.5 128.68,-250.19"/>
</g>
<!-- Node19 -->
<g id="node19" class="node">
<title>Node19</title>
<g id="a_node19"><a xlink:href="PFPrediction_8h.html" target="_top" xlink:title=" ">
<polygon fill="white" stroke="black" points="520.42,-291.5 520.42,-310.5 669.42,-310.5 669.42,-291.5 520.42,-291.5"/>
<text text-anchor="middle" x="594.92" y="-298.5" font-family="Helvetica,sans-Serif" font-size="10.00">BayesFilters/PFPrediction.h</text>
</a>
</g>
</g>
<!-- Node2&#45;&gt;Node19 -->
<g id="edge29" class="edge">
<title>Node2&#45;&gt;Node19</title>
<path fill="none" stroke="midnightblue" d="M552.34,-347.08C559.76,-339.22 570.77,-327.57 579.73,-318.08"/>
<polygon fill="midnightblue" stroke="midnightblue" points="582.33,-320.42 586.65,-310.75 577.24,-315.62 582.33,-320.42"/>
</g>
<!-- Node4 -->
<g id="node4" class="node">
<title>Node4</title>
<g id="a_node4"><a xlink:href="ExogenousProcess_8h.html" target="_top" xlink:title=" ">
<polygon fill="white" stroke="black" points="365.42,-112.5 365.42,-131.5 544.42,-131.5 544.42,-112.5 365.42,-112.5"/>
<text text-anchor="middle" x="454.92" y="-119.5" font-family="Helvetica,sans-Serif" font-size="10.00">BayesFilters/ExogenousProcess.h</text>
</a>
</g>
</g>
<!-- Node3&#45;&gt;Node4 -->
<g id="edge3" class="edge">
<title>Node3&#45;&gt;Node4</title>
<path fill="none" stroke="midnightblue" d="M496.66,-168.08C489.45,-160.3 478.81,-148.8 470.07,-139.37"/>
<polygon fill="midnightblue" stroke="midnightblue" points="472.38,-136.71 463.02,-131.75 467.25,-141.47 472.38,-136.71"/>
</g>
<!-- Node8 -->
<g id="node8" class="node">
<title>Node8</title>
<g id="a_node8"><a xlink:href="Skippable_8h.html" target="_top" xlink:title=" ">
<polygon fill="white" stroke="black" points="562.42,-112.5 562.42,-131.5 699.42,-131.5 699.42,-112.5 562.42,-112.5"/>
<text text-anchor="middle" x="630.92" y="-119.5" font-family="Helvetica,sans-Serif" font-size="10.00">BayesFilters/Skippable.h</text>
</a>
</g>
</g>
<!-- Node3&#45;&gt;Node8 -->
<g id="edge7" class="edge">
<title>Node3&#45;&gt;Node8</title>
<path fill="none" stroke="midnightblue" d="M524.88,-168.44C545.53,-159.6 577.98,-145.69 601.55,-135.59"/>
<polygon fill="midnightblue" stroke="midnightblue" points="603.23,-138.67 611.05,-131.52 600.47,-132.24 603.23,-138.67"/>
</g>
<!-- Node5 -->
<g id="node5" class="node">
<title>Node5</title>
<g id="a_node5"><a xlink:href="VectorDescription_8h.html" target="_top" xlink:title=" ">
<polygon fill="white" stroke="black" points="387.42,-56.5 387.42,-75.5 562.42,-75.5 562.42,-56.5 387.42,-56.5"/>
<text text-anchor="middle" x="474.92" y="-63.5" font-family="Helvetica,sans-Serif" font-size="10.00">BayesFilters/VectorDescription.h</text>
</a>
</g>
</g>
<!-- Node4&#45;&gt;Node5 -->
<g id="edge4" class="edge">
<title>Node4&#45;&gt;Node5</title>
<path fill="none" stroke="midnightblue" d="M458.22,-112.08C460.9,-104.85 464.77,-94.41 468.1,-85.4"/>
<polygon fill="midnightblue" stroke="midnightblue" points="471.48,-86.34 471.68,-75.75 464.92,-83.91 471.48,-86.34"/>
</g>
<!-- Node7 -->
<g id="node7" class="node">
<title>Node7</title>
<g id="a_node7"><a xlink:title=" ">
<polygon fill="white" stroke="#bfbfbf" points="282.42,-56.5 282.42,-75.5 359.42,-75.5 359.42,-56.5 282.42,-56.5"/>
<text text-anchor="middle" x="320.92" y="-63.5" font-family="Helvetica,sans-Serif" font-size="10.00">Eigen/Dense</text>
</a>
</g>
</g>
<!-- Node4&#45;&gt;Node7 -->
<g id="edge6" class="edge">
<title>Node4&#45;&gt;Node7</title>
<path fill="none" stroke="midnightblue" d="M433.68,-112.44C411.53,-103.52 376.6,-89.44 351.48,-79.32"/>
<polygon fill="midnightblue" stroke="midnightblue" points="352.63,-76.01 342.05,-75.52 350.02,-82.5 352.63,-76.01"/>
</g>
<!-- Node6 -->
<g id="node6" class="node">
<title>Node6</title>
<g id="a_node6"><a xlink:title=" ">
<polygon fill="white" stroke="#bfbfbf" points="448.42,-0.5 448.42,-19.5 501.42,-19.5 501.42,-0.5 448.42,-0.5"/>
<text text-anchor="middle" x="474.92" y="-7.5" font-family="Helvetica,sans-Serif" font-size="10.00">cstddef</text>
</a>
</g>
</g>
<!-- Node5&#45;&gt;Node6 -->
<g id="edge5" class="edge">
<title>Node5&#45;&gt;Node6</title>
<path fill="none" stroke="midnightblue" d="M474.92,-56.08C474.92,-49.01 474.92,-38.86 474.92,-29.99"/>
<polygon fill="midnightblue" stroke="midnightblue" points="478.42,-29.75 474.92,-19.75 471.42,-29.75 478.42,-29.75"/>
</g>
<!-- Node9 -->
<g id="node9" class="node">
<title>Node9</title>
<g id="a_node9"><a xlink:href="Skipper_8h.html" target="_top" xlink:title=" ">
<polygon fill="white" stroke="black" points="584.42,-56.5 584.42,-75.5 709.42,-75.5 709.42,-56.5 584.42,-56.5"/>
<text text-anchor="middle" x="646.92" y="-63.5" font-family="Helvetica,sans-Serif" font-size="10.00">BayesFilters/Skipper.h</text>
</a>
</g>
</g>
<!-- Node8&#45;&gt;Node9 -->
<g id="edge8" class="edge">
<title>Node8&#45;&gt;Node9</title>
<path fill="none" stroke="midnightblue" d="M633.56,-112.08C635.7,-104.85 638.8,-94.41 641.47,-85.4"/>
<polygon fill="midnightblue" stroke="midnightblue" points="644.84,-86.33 644.32,-75.75 638.13,-84.34 644.84,-86.33"/>
</g>
<!-- Node10 -->
<g id="node10" class="node">
<title>Node10</title>
<g id="a_node10"><a xlink:title=" ">
<polygon fill="white" stroke="#bfbfbf" points="757.92,-0.5 757.92,-19.5 801.92,-19.5 801.92,-0.5 757.92,-0.5"/>
<text text-anchor="middle" x="779.92" y="-7.5" font-family="Helvetica,sans-Serif" font-size="10.00">string</text>
</a>
</g>
</g>
<!-- Node9&#45;&gt;Node10 -->
<g id="edge9" class="edge">
<title>Node9&#45;&gt;Node10</title>
<path fill="none" stroke="midnightblue" d="M667.99,-56.44C689.98,-47.52 724.65,-33.44 749.58,-23.32"/>
<polygon fill="midnightblue" stroke="midnightblue" points="750.99,-26.52 758.94,-19.52 748.36,-20.04 750.99,-26.52"/>
</g>
<!-- Node11&#45;&gt;Node3 -->
<g id="edge11" class="edge">
<title>Node11&#45;&gt;Node3</title>
<path fill="none" stroke="midnightblue" d="M383.34,-291.3C405.34,-270.98 460.33,-220.19 488.18,-194.46"/>
<polygon fill="midnightblue" stroke="midnightblue" points="490.61,-196.98 495.58,-187.62 485.86,-191.84 490.61,-196.98"/>
</g>
<!-- Node11&#45;&gt;Node7 -->
<g id="edge25" class="edge">
<title>Node11&#45;&gt;Node7</title>
<path fill="none" stroke="midnightblue" d="M282.91,-294.53C184.4,-287.65 38.96,-274.36 21.92,-255 -26.74,-199.72 9.32,-174.1 107.92,-112 157.91,-80.51 226.27,-70.7 271.93,-67.83"/>
<polygon fill="midnightblue" stroke="midnightblue" points="272.36,-71.31 282.16,-67.28 271.99,-64.32 272.36,-71.31"/>
</g>
<!-- Node11&#45;&gt;Node8 -->
<g id="edge17" class="edge">
<title>Node11&#45;&gt;Node8</title>
<path fill="none" stroke="midnightblue" d="M373.51,-291.38C372.9,-267.79 374.68,-201.73 410.92,-168 422.2,-157.49 503.55,-142.79 564.06,-133.09"/>
<polygon fill="midnightblue" stroke="midnightblue" points="564.63,-136.54 573.95,-131.51 563.53,-129.63 564.63,-136.54"/>
</g>
<!-- Node12 -->
<g id="node12" class="node">
<title>Node12</title>
<g id="a_node12"><a xlink:href="GaussianMixturePrediction_8h.html" target="_top" xlink:title=" ">
<polygon fill="white" stroke="black" points="188.92,-224.5 188.92,-254.5 350.92,-254.5 350.92,-224.5 188.92,-224.5"/>
<text text-anchor="start" x="196.92" y="-242.5" font-family="Helvetica,sans-Serif" font-size="10.00">BayesFilters/GaussianMixture</text>
<text text-anchor="middle" x="269.92" y="-231.5" font-family="Helvetica,sans-Serif" font-size="10.00">Prediction.h</text>
</a>
</g>
</g>
<!-- Node11&#45;&gt;Node12 -->
<g id="edge12" class="edge">
<title>Node11&#45;&gt;Node12</title>
<path fill="none" stroke="midnightblue" d="M359.02,-291.48C344.54,-283.19 322.05,-270.32 303.29,-259.59"/>
<polygon fill="midnightblue" stroke="midnightblue" points="304.85,-256.45 294.43,-254.52 301.37,-262.53 304.85,-256.45"/>
</g>
<!-- Node11&#45;&gt;Node15 -->
<g id="edge18" class="edge">
<title>Node11&#45;&gt;Node15</title>
<path fill="none" stroke="midnightblue" d="M410.74,-291.48C456.45,-280.89 534.44,-262.84 584.28,-251.3"/>
<polygon fill="midnightblue" stroke="midnightblue" points="585.21,-254.67 594.16,-249.01 583.63,-247.85 585.21,-254.67"/>
</g>
<!-- Node12&#45;&gt;Node7 -->
<g id="edge16" class="edge">
<title>Node12&#45;&gt;Node7</title>
<path fill="none" stroke="midnightblue" d="M274.09,-224.47C283.28,-193.57 305.25,-119.69 315.49,-85.25"/>
<polygon fill="midnightblue" stroke="midnightblue" points="318.88,-86.14 318.37,-75.56 312.17,-84.15 318.88,-86.14"/>
</g>
<!-- Node13 -->
<g id="node13" class="node">
<title>Node13</title>
<g id="a_node13"><a xlink:href="GaussianMixture_8h.html" target="_top" xlink:title=" ">
<polygon fill="white" stroke="black" points="99.42,-168.5 99.42,-187.5 270.42,-187.5 270.42,-168.5 99.42,-168.5"/>
<text text-anchor="middle" x="184.92" y="-175.5" font-family="Helvetica,sans-Serif" font-size="10.00">BayesFilters/GaussianMixture.h</text>
</a>
</g>
</g>
<!-- Node12&#45;&gt;Node13 -->
<g id="edge13" class="edge">
<title>Node12&#45;&gt;Node13</title>
<path fill="none" stroke="midnightblue" d="M249.77,-224.4C236.53,-215.13 219.24,-203.03 205.84,-193.65"/>
<polygon fill="midnightblue" stroke="midnightblue" points="207.48,-190.53 197.29,-187.66 203.47,-196.26 207.48,-190.53"/>
</g>
<!-- Node13&#45;&gt;Node7 -->
<g id="edge15" class="edge">
<title>Node13&#45;&gt;Node7</title>
<path fill="none" stroke="midnightblue" d="M195.59,-168.37C218.63,-149.73 273.28,-105.53 302.21,-82.13"/>
<polygon fill="midnightblue" stroke="midnightblue" points="304.72,-84.6 310.29,-75.59 300.32,-79.16 304.72,-84.6"/>
</g>
<!-- Node14 -->
<g id="node14" class="node">
<title>Node14</title>
<g id="a_node14"><a xlink:title=" ">
<polygon fill="white" stroke="#bfbfbf" points="116.42,-112.5 116.42,-131.5 163.42,-131.5 163.42,-112.5 116.42,-112.5"/>
<text text-anchor="middle" x="139.92" y="-119.5" font-family="Helvetica,sans-Serif" font-size="10.00">vector</text>
</a>
</g>
</g>
<!-- Node13&#45;&gt;Node14 -->
<g id="edge14" class="edge">
<title>Node13&#45;&gt;Node14</title>
<path fill="none" stroke="midnightblue" d="M177.49,-168.08C171.06,-160.38 161.61,-149.03 153.79,-139.65"/>
<polygon fill="midnightblue" stroke="midnightblue" points="156.3,-137.19 147.21,-131.75 150.92,-141.67 156.3,-137.19"/>
</g>
<!-- Node15&#45;&gt;Node3 -->
<g id="edge19" class="edge">
<title>Node15&#45;&gt;Node3</title>
<path fill="none" stroke="midnightblue" d="M612.86,-229.98C591.72,-219.99 556.48,-203.35 532.04,-191.81"/>
<polygon fill="midnightblue" stroke="midnightblue" points="533.47,-188.61 522.94,-187.51 530.48,-194.94 533.47,-188.61"/>
</g>
<!-- Node15&#45;&gt;Node8 -->
<g id="edge20" class="edge">
<title>Node15&#45;&gt;Node8</title>
<path fill="none" stroke="midnightblue" d="M630.92,-229.82C630.92,-211.26 630.92,-167.34 630.92,-141.97"/>
<polygon fill="midnightblue" stroke="midnightblue" points="634.42,-141.78 630.92,-131.78 627.42,-141.78 634.42,-141.78"/>
</g>
<!-- Node16 -->
<g id="node16" class="node">
<title>Node16</title>
<g id="a_node16"><a xlink:href="StateProcess_8h.html" target="_top" xlink:title=" ">
<polygon fill="white" stroke="black" points="717.92,-112.5 717.92,-131.5 869.92,-131.5 869.92,-112.5 717.92,-112.5"/>
<text text-anchor="middle" x="793.92" y="-119.5" font-family="Helvetica,sans-Serif" font-size="10.00">BayesFilters/StateProcess.h</text>
</a>
</g>
</g>
<!-- Node15&#45;&gt;Node16 -->
<g id="edge21" class="edge">
<title>Node15&#45;&gt;Node16</title>
<path fill="none" stroke="midnightblue" d="M636.81,-229.6C646.83,-215.04 668.5,-185.97 692.92,-168 712.32,-153.73 736.96,-142.63 757.05,-135.03"/>
<polygon fill="midnightblue" stroke="midnightblue" points="758.31,-138.3 766.5,-131.59 755.91,-131.73 758.31,-138.3"/>
</g>
<!-- Node15&#45;&gt;Node17 -->
<g id="edge24" class="edge">
<title>Node15&#45;&gt;Node17</title>
<path fill="none" stroke="midnightblue" d="M645.24,-229.98C661.58,-220.25 688.52,-204.23 707.83,-192.74"/>
<polygon fill="midnightblue" stroke="midnightblue" points="709.81,-195.63 716.62,-187.51 706.23,-189.61 709.81,-195.63"/>
</g>
<!-- Node16&#45;&gt;Node5 -->
<g id="edge22" class="edge">
<title>Node16&#45;&gt;Node5</title>
<path fill="none" stroke="midnightblue" d="M743.37,-112.44C686.9,-102.89 595.54,-87.42 535.35,-77.23"/>
<polygon fill="midnightblue" stroke="midnightblue" points="535.67,-73.73 525.23,-75.52 534.5,-80.64 535.67,-73.73"/>
</g>
<!-- Node16&#45;&gt;Node7 -->
<g id="edge23" class="edge">
<title>Node16&#45;&gt;Node7</title>
<path fill="none" stroke="midnightblue" d="M717.67,-112.92C607.03,-101.18 411.56,-80.3 378.92,-76 375.88,-75.6 372.76,-75.17 369.62,-74.72"/>
<polygon fill="midnightblue" stroke="midnightblue" points="369.97,-71.24 359.57,-73.25 368.95,-78.16 369.97,-71.24"/>
</g>
<!-- Node18&#45;&gt;Node13 -->
<g id="edge27" class="edge">
<title>Node18&#45;&gt;Node13</title>
<path fill="none" stroke="midnightblue" d="M112.95,-229.98C126.43,-220.43 148.48,-204.81 164.63,-193.37"/>
<polygon fill="midnightblue" stroke="midnightblue" points="166.77,-196.15 172.9,-187.51 162.72,-190.43 166.77,-196.15"/>
</g>
<!-- Node18&#45;&gt;Node14 -->
<g id="edge28" class="edge">
<title>Node18&#45;&gt;Node14</title>
<path fill="none" stroke="midnightblue" d="M96.82,-229.85C90.94,-216.13 81.77,-188.82 90.92,-168 96.31,-155.73 106.87,-145.34 116.82,-137.65"/>
<polygon fill="midnightblue" stroke="midnightblue" points="119.17,-140.27 125.26,-131.6 115.09,-134.58 119.17,-140.27"/>
</g>
<!-- Node19&#45;&gt;Node3 -->
<g id="edge30" class="edge">
<title>Node19&#45;&gt;Node3</title>
<path fill="none" stroke="midnightblue" d="M584.89,-291.33C575.25,-282.7 560.62,-268.79 549.92,-255 535.57,-236.52 522.34,-213.07 513.99,-197.14"/>
<polygon fill="midnightblue" stroke="midnightblue" points="516.92,-195.19 509.25,-187.89 510.7,-198.38 516.92,-195.19"/>
</g>
<!-- Node19&#45;&gt;Node7 -->
<g id="edge33" class="edge">
<title>Node19&#45;&gt;Node7</title>
<path fill="none" stroke="midnightblue" d="M575.05,-291.39C529.6,-270.69 417.34,-213.75 356.92,-132 345.92,-117.12 335.94,-98.51 329.3,-85.02"/>
<polygon fill="midnightblue" stroke="midnightblue" points="332.38,-83.35 324.9,-75.85 326.07,-86.38 332.38,-83.35"/>
</g>
<!-- Node19&#45;&gt;Node10 -->
<g id="edge35" class="edge">
<title>Node19&#45;&gt;Node10</title>
<path fill="none" stroke="midnightblue" d="M641.27,-291.49C726.15,-274.57 897.92,-233.59 897.92,-179 897.92,-179 897.92,-179 897.92,-121 897.92,-73.51 846.15,-40.67 811.19,-23.91"/>
<polygon fill="midnightblue" stroke="midnightblue" points="812.38,-20.61 801.84,-19.61 809.46,-26.97 812.38,-20.61"/>
</g>
<!-- Node19&#45;&gt;Node15 -->
<g id="edge32" class="edge">
<title>Node19&#45;&gt;Node15</title>
<path fill="none" stroke="midnightblue" d="M600.07,-291.48C605.37,-282.73 613.75,-268.87 620.44,-257.81"/>
<polygon fill="midnightblue" stroke="midnightblue" points="623.59,-259.38 625.77,-249.01 617.6,-255.75 623.59,-259.38"/>
</g>
<!-- Node19&#45;&gt;Node17 -->
<g id="edge34" class="edge">
<title>Node19&#45;&gt;Node17</title>
<path fill="none" stroke="midnightblue" d="M646.02,-291.47C669.16,-285.11 695.04,-274.07 711.92,-255 725.83,-239.27 729.87,-214.88 730.89,-197.99"/>
<polygon fill="midnightblue" stroke="midnightblue" points="734.4,-197.79 731.19,-187.69 727.4,-197.58 734.4,-197.79"/>
</g>
<!-- Node19&#45;&gt;Node18 -->
<g id="edge31" class="edge">
<title>Node19&#45;&gt;Node18</title>
<path fill="none" stroke="midnightblue" d="M520.11,-293.56C436.86,-286 298.42,-272.28 179.92,-255 171.59,-253.79 162.79,-252.34 154.21,-250.83"/>
<polygon fill="midnightblue" stroke="midnightblue" points="154.75,-247.37 144.28,-249.05 153.51,-254.26 154.75,-247.37"/>
</g>
</g>
</svg>
        <g id="navigator" transform="translate(0 0)" fill="#404254">
                <rect fill="#f2f5e9" fill-opacity="0.5" stroke="#606060" stroke-width=".5" x="0" y="0" width="60" height="60"/>
                <use id="zoomplus" xlink:href="#zoomPlus" x="17" y="9" onmousedown="handleZoom(evt,'in')"/>
                <use id="zoomminus" xlink:href="#zoomMin" x="42" y="9" onmousedown="handleZoom(evt,'out')"/>
                <use id="reset" xlink:href="#resetDef" x="30" y="36" onmousedown="handleReset()"/>
                <g id="arrowUp" xlink:href="#dirArrow" transform="translate(30 24)" onmousedown="handlePan(0,-1)">
                  <use xlink:href="#rim" fill="#404040">
                        <set attributeName="fill" to="#808080" begin="arrowUp.mouseover" end="arrowUp.mouseout"/>
                  </use>
                  <path fill="none" stroke="white" stroke-width="1.5" d="M0,-3.0v7 M-2.5,-0.5L0,-3.0L2.5,-0.5"/>
                </g>
                <g id="arrowRight" xlink:href="#dirArrow" transform="rotate(90) translate(36 -43)" onmousedown="handlePan(1,0)">
                  <use xlink:href="#rim" fill="#404040">
                        <set attributeName="fill" to="#808080" begin="arrowRight.mouseover" end="arrowRight.mouseout"/>
                  </use>
                  <path fill="none" stroke="white" stroke-width="1.5" d="M0,-3.0v7 M-2.5,-0.5L0,-3.0L2.5,-0.5"/>
                </g>
                <g id="arrowDown" xlink:href="#dirArrow" transform="rotate(180) translate(-30 -48)" onmousedown="handlePan(0,1)">
                  <use xlink:href="#rim" fill="#404040">
                        <set attributeName="fill" to="#808080" begin="arrowDown.mouseover" end="arrowDown.mouseout"/>
                  </use>
                  <path fill="none" stroke="white" stroke-width="1.5" d="M0,-3.0v7 M-2.5,-0.5L0,-3.0L2.5,-0.5"/>
                </g>
                <g id="arrowLeft" xlink:href="#dirArrow" transform="rotate(270) translate(-36 17)" onmousedown="handlePan(-1,0)">
                  <use xlink:href="#rim" fill="#404040">
                        <set attributeName="fill" to="#808080" begin="arrowLeft.mouseover" end="arrowLeft.mouseout"/>
                  </use>
                  <path fill="none" stroke="white" stroke-width="1.5" d="M0,-3.0v7 M-2.5,-0.5L0,-3.0L2.5,-0.5"/>
                </g>
        </g>
        <svg viewBox="0 0 15 15" width="100%" height="30px" preserveAspectRatio="xMaxYMin meet">
         <g id="arrow_out" transform="scale(0.3 0.3)">
          <a xlink:href="GPFPrediction_8cpp__incl_org.svg" target="_base">
           <rect id="button" ry="5" rx="5" y="6" x="6" height="38" width="38"
                fill="#f2f5e9" fill-opacity="0.5" stroke="#606060" stroke-width="1.0"/>
           <path id="arrow"
             d="M 11.500037,31.436501 C 11.940474,20.09759 22.043105,11.32322 32.158766,21.979434 L 37.068811,17.246167 C 37.068811,17.246167 37.088388,32 37.088388,32 L 22.160133,31.978069 C 22.160133,31.978069 26.997745,27.140456 26.997745,27.140456 C 18.528582,18.264221 13.291696,25.230495 11.500037,31.436501 z"
             style="fill:#404040;"/>
          </a>
         </g>
        </svg>
</svg>
