<?xml version="1.0" encoding="UTF-8" standalone="no"?>
<!DOCTYPE svg PUBLIC "-//W3C//DTD SVG 1.1//EN"
 "http://www.w3.org/Graphics/SVG/1.1/DTD/svg11.dtd">
<!-- Generated by graphviz version 2.43.0 (0)
 -->
<!-- Title: Graphical Class Hierarchy Pages: 1 -->
<svg width="1248pt" height="287pt"
 viewBox="0.00 0.00 1248.00 287.00" xmlns="http://www.w3.org/2000/svg" xmlns:xlink="http://www.w3.org/1999/xlink">
<g id="graph0" class="graph" transform="scale(1 1) rotate(0) translate(4 283)">
<title>Graphical Class Hierarchy</title>
<polygon fill="white" stroke="transparent" points="-4,4 -4,-283 1244,-283 1244,4 -4,4"/>
<!-- Node63 -->
<g id="node1" class="node">
<title>Node63</title>
<g id="a_node1"><a xlink:href="classbfl_1_1Agent.html" target="_top" xlink:title=" ">
<polygon fill="white" stroke="black" points="4,-253.5 4,-272.5 67,-272.5 67,-253.5 4,-253.5"/>
<text text-anchor="middle" x="35.5" y="-260.5" font-family="Helvetica,sans-Serif" font-size="10.00">bfl::Agent</text>
</a>
</g>
</g>
<!-- Node41 -->
<g id="node2" class="node">
<title>Node41</title>
<g id="a_node2"><a xlink:href="classbfl_1_1SimulatedStateModel.html" target="_top" xlink:title=" ">
<polygon fill="white" stroke="black" points="120,-253.5 120,-272.5 260,-272.5 260,-253.5 120,-253.5"/>
<text text-anchor="middle" x="190" y="-260.5" font-family="Helvetica,sans-Serif" font-size="10.00">bfl::SimulatedStateModel</text>
</a>
</g>
</g>
<!-- Node63&#45;&gt;Node41 -->
<g id="edge1" class="edge">
<title>Node63&#45;&gt;Node41</title>
<path fill="none" stroke="midnightblue" d="M77.4,-263C90.45,-263 105.28,-263 119.76,-263"/>
<polygon fill="midnightblue" stroke="midnightblue" points="77.36,-259.5 67.36,-263 77.36,-266.5 77.36,-259.5"/>
</g>
<!-- Node57 -->
<g id="node3" class="node">
<title>Node57</title>
<g id="a_node3"><a xlink:href="classbfl_1_1ExogenousProcess.html" target="_top" xlink:title=" ">
<polygon fill="white" stroke="black" points="127.5,-133.5 127.5,-152.5 252.5,-152.5 252.5,-133.5 127.5,-133.5"/>
<text text-anchor="middle" x="190" y="-140.5" font-family="Helvetica,sans-Serif" font-size="10.00">bfl::ExogenousProcess</text>
</a>
</g>
</g>
<!-- Node17 -->
<g id="node4" class="node">
<title>Node17</title>
<g id="a_node4"><a xlink:href="classbfl_1_1ExogenousModel.html" target="_top" xlink:title=" ">
<polygon fill="white" stroke="black" points="340.5,-95.5 340.5,-114.5 457.5,-114.5 457.5,-95.5 340.5,-95.5"/>
<text text-anchor="middle" x="399" y="-102.5" font-family="Helvetica,sans-Serif" font-size="10.00">bfl::ExogenousModel</text>
</a>
</g>
</g>
<!-- Node57&#45;&gt;Node17 -->
<g id="edge2" class="edge">
<title>Node57&#45;&gt;Node17</title>
<path fill="none" stroke="midnightblue" d="M252.81,-131.65C282.51,-126.2 317.71,-119.74 346.01,-114.54"/>
<polygon fill="midnightblue" stroke="midnightblue" points="252.17,-128.21 242.97,-133.46 253.44,-135.1 252.17,-128.21"/>
</g>
<!-- Node56 -->
<g id="node5" class="node">
<title>Node56</title>
<g id="a_node5"><a xlink:href="classbfl_1_1Filter.html" target="_top" xlink:title=" ">
<polygon fill="white" stroke="black" points="6,-171.5 6,-190.5 65,-190.5 65,-171.5 6,-171.5"/>
<text text-anchor="middle" x="35.5" y="-178.5" font-family="Helvetica,sans-Serif" font-size="10.00">bfl::Filter</text>
</a>
</g>
</g>
<!-- Node12 -->
<g id="node6" class="node">
<title>Node12</title>
<g id="a_node6"><a xlink:href="classbfl_1_1FilteringAlgorithm.html" target="_top" xlink:title=" ">
<polygon fill="white" stroke="black" points="129,-171.5 129,-190.5 251,-190.5 251,-171.5 129,-171.5"/>
<text text-anchor="middle" x="190" y="-178.5" font-family="Helvetica,sans-Serif" font-size="10.00">bfl::FilteringAlgorithm</text>
</a>
</g>
</g>
<!-- Node56&#45;&gt;Node12 -->
<g id="edge3" class="edge">
<title>Node56&#45;&gt;Node12</title>
<path fill="none" stroke="midnightblue" d="M75.38,-181C91.62,-181 110.87,-181 128.86,-181"/>
<polygon fill="midnightblue" stroke="midnightblue" points="75.18,-177.5 65.18,-181 75.18,-184.5 75.18,-177.5"/>
</g>
<!-- Node13 -->
<g id="node7" class="node">
<title>Node13</title>
<g id="a_node7"><a xlink:href="classbfl_1_1GaussianFilter.html" target="_top" xlink:title=" ">
<polygon fill="white" stroke="black" points="347,-133.5 347,-152.5 451,-152.5 451,-133.5 347,-133.5"/>
<text text-anchor="middle" x="399" y="-140.5" font-family="Helvetica,sans-Serif" font-size="10.00">bfl::GaussianFilter</text>
</a>
</g>
</g>
<!-- Node12&#45;&gt;Node13 -->
<g id="edge4" class="edge">
<title>Node12&#45;&gt;Node13</title>
<path fill="none" stroke="midnightblue" d="M252.89,-169.64C282.82,-164.14 318.33,-157.63 346.73,-152.41"/>
<polygon fill="midnightblue" stroke="midnightblue" points="252.17,-166.21 242.97,-171.46 253.44,-173.1 252.17,-166.21"/>
</g>
<!-- Node14 -->
<g id="node8" class="node">
<title>Node14</title>
<g id="a_node8"><a xlink:href="classbfl_1_1ParticleFilter.html" target="_top" xlink:title=" ">
<polygon fill="white" stroke="black" points="351.5,-171.5 351.5,-190.5 446.5,-190.5 446.5,-171.5 351.5,-171.5"/>
<text text-anchor="middle" x="399" y="-178.5" font-family="Helvetica,sans-Serif" font-size="10.00">bfl::ParticleFilter</text>
</a>
</g>
</g>
<!-- Node12&#45;&gt;Node14 -->
<g id="edge5" class="edge">
<title>Node12&#45;&gt;Node14</title>
<path fill="none" stroke="midnightblue" d="M261.44,-181C291.06,-181 324.71,-181 351.2,-181"/>
<polygon fill="midnightblue" stroke="midnightblue" points="261.15,-177.5 251.15,-181 261.15,-184.5 261.15,-177.5"/>
</g>
<!-- Node15 -->
<g id="node9" class="node">
<title>Node15</title>
<g id="a_node9"><a xlink:href="classbfl_1_1SIS.html" target="_top" xlink:title=" ">
<polygon fill="white" stroke="black" points="581,-171.5 581,-190.5 631,-190.5 631,-171.5 581,-171.5"/>
<text text-anchor="middle" x="606" y="-178.5" font-family="Helvetica,sans-Serif" font-size="10.00">bfl::SIS</text>
</a>
</g>
</g>
<!-- Node14&#45;&gt;Node15 -->
<g id="edge6" class="edge">
<title>Node14&#45;&gt;Node15</title>
<path fill="none" stroke="midnightblue" d="M456.63,-181C497.51,-181 550.66,-181 580.99,-181"/>
<polygon fill="midnightblue" stroke="midnightblue" points="456.52,-177.5 446.52,-181 456.52,-184.5 456.52,-177.5"/>
</g>
<!-- Node47 -->
<g id="node10" class="node">
<title>Node47</title>
<g id="a_node10"><a xlink:href="classbfl_1_1GaussianMixturePrediction.html" target="_top" xlink:title=" ">
<polygon fill="white" stroke="black" points="107,-57.5 107,-76.5 273,-76.5 273,-57.5 107,-57.5"/>
<text text-anchor="middle" x="190" y="-64.5" font-family="Helvetica,sans-Serif" font-size="10.00">bfl::GaussianMixturePrediction</text>
</a>
</g>
</g>
<!-- Node18 -->
<g id="node11" class="node">
<title>Node18</title>
<g id="a_node11"><a xlink:href="classbfl_1_1GaussianPrediction.html" target="_top" xlink:title=" ">
<polygon fill="white" stroke="black" points="335,-57.5 335,-76.5 463,-76.5 463,-57.5 335,-57.5"/>
<text text-anchor="middle" x="399" y="-64.5" font-family="Helvetica,sans-Serif" font-size="10.00">bfl::GaussianPrediction</text>
</a>
</g>
</g>
<!-- Node47&#45;&gt;Node18 -->
<g id="edge7" class="edge">
<title>Node47&#45;&gt;Node18</title>
<path fill="none" stroke="midnightblue" d="M283.3,-67C300.72,-67 318.57,-67 334.84,-67"/>
<polygon fill="midnightblue" stroke="midnightblue" points="283.11,-63.5 273.11,-67 283.11,-70.5 283.11,-63.5"/>
</g>
<!-- Node19 -->
<g id="node12" class="node">
<title>Node19</title>
<g id="a_node12"><a xlink:href="classbfl_1_1KFPrediction.html" target="_top" xlink:title=" ">
<polygon fill="white" stroke="black" points="558,-95.5 558,-114.5 654,-114.5 654,-95.5 558,-95.5"/>
<text text-anchor="middle" x="606" y="-102.5" font-family="Helvetica,sans-Serif" font-size="10.00">bfl::KFPrediction</text>
</a>
</g>
</g>
<!-- Node18&#45;&gt;Node19 -->
<g id="edge8" class="edge">
<title>Node18&#45;&gt;Node19</title>
<path fill="none" stroke="midnightblue" d="M461.67,-78.43C492.48,-84.14 529.18,-90.95 557.73,-96.24"/>
<polygon fill="midnightblue" stroke="midnightblue" points="461.94,-74.92 451.47,-76.54 460.66,-81.8 461.94,-74.92"/>
</g>
<!-- Node20 -->
<g id="node13" class="node">
<title>Node20</title>
<g id="a_node13"><a xlink:href="classbfl_1_1UKFPrediction.html" target="_top" xlink:title=" ">
<polygon fill="white" stroke="black" points="554,-57.5 554,-76.5 658,-76.5 658,-57.5 554,-57.5"/>
<text text-anchor="middle" x="606" y="-64.5" font-family="Helvetica,sans-Serif" font-size="10.00">bfl::UKFPrediction</text>
</a>
</g>
</g>
<!-- Node18&#45;&gt;Node20 -->
<g id="edge9" class="edge">
<title>Node18&#45;&gt;Node20</title>
<path fill="none" stroke="midnightblue" d="M473.23,-67C499.86,-67 529.37,-67 553.7,-67"/>
<polygon fill="midnightblue" stroke="midnightblue" points="473.18,-63.5 463.18,-67 473.18,-70.5 473.18,-63.5"/>
</g>
<!-- Node33 -->
<g id="node14" class="node">
<title>Node33</title>
<g id="a_node14"><a xlink:href="classbfl_1_1Logger.html" target="_top" xlink:title=" ">
<polygon fill="white" stroke="black" points="1.5,-215.5 1.5,-234.5 69.5,-234.5 69.5,-215.5 1.5,-215.5"/>
<text text-anchor="middle" x="35.5" y="-222.5" font-family="Helvetica,sans-Serif" font-size="10.00">bfl::Logger</text>
</a>
</g>
</g>
<!-- Node33&#45;&gt;Node41 -->
<g id="edge18" class="edge">
<title>Node33&#45;&gt;Node41</title>
<path fill="none" stroke="midnightblue" d="M79.71,-236.91C88.72,-239.31 98.16,-241.78 107,-244 119.76,-247.2 133.68,-250.49 146.37,-253.43"/>
<polygon fill="midnightblue" stroke="midnightblue" points="80.36,-233.45 69.79,-234.23 78.53,-240.21 80.36,-233.45"/>
</g>
<!-- Node33&#45;&gt;Node12 -->
<g id="edge10" class="edge">
<title>Node33&#45;&gt;Node12</title>
<path fill="none" stroke="midnightblue" d="M79.27,-212.66C103.56,-205.65 133.51,-197.01 155.97,-190.53"/>
<polygon fill="midnightblue" stroke="midnightblue" points="78.23,-209.32 69.59,-215.45 80.17,-216.04 78.23,-209.32"/>
</g>
<!-- Node34 -->
<g id="node15" class="node">
<title>Node34</title>
<g id="a_node15"><a xlink:href="classbfl_1_1MeasurementModel.html" target="_top" xlink:title="This class represent a generic measurement model f(x, w), where x is a state vector and w is random n...">
<polygon fill="white" stroke="black" points="124,-215.5 124,-234.5 256,-234.5 256,-215.5 124,-215.5"/>
<text text-anchor="middle" x="190" y="-222.5" font-family="Helvetica,sans-Serif" font-size="10.00">bfl::MeasurementModel</text>
</a>
</g>
</g>
<!-- Node33&#45;&gt;Node34 -->
<g id="edge11" class="edge">
<title>Node33&#45;&gt;Node34</title>
<path fill="none" stroke="midnightblue" d="M79.73,-225C93.5,-225 109.04,-225 124,-225"/>
<polygon fill="midnightblue" stroke="midnightblue" points="79.59,-221.5 69.59,-225 79.59,-228.5 79.59,-221.5"/>
</g>
<!-- Node35 -->
<g id="node16" class="node">
<title>Node35</title>
<g id="a_node16"><a xlink:href="classbfl_1_1AdditiveMeasurementModel.html" target="_top" xlink:title="This class represent an additive measurement model f(x) + w, where x is a state vector and w is rando...">
<polygon fill="white" stroke="black" points="327.5,-210 327.5,-240 470.5,-240 470.5,-210 327.5,-210"/>
<text text-anchor="start" x="335.5" y="-228" font-family="Helvetica,sans-Serif" font-size="10.00">bfl::AdditiveMeasurement</text>
<text text-anchor="middle" x="399" y="-217" font-family="Helvetica,sans-Serif" font-size="10.00">Model</text>
</a>
</g>
</g>
<!-- Node34&#45;&gt;Node35 -->
<g id="edge12" class="edge">
<title>Node34&#45;&gt;Node35</title>
<path fill="none" stroke="midnightblue" d="M266.46,-225C286.36,-225 307.75,-225 327.38,-225"/>
<polygon fill="midnightblue" stroke="midnightblue" points="266.21,-221.5 256.21,-225 266.21,-228.5 266.21,-221.5"/>
</g>
<!-- Node40 -->
<g id="node21" class="node">
<title>Node40</title>
<g id="a_node21"><a xlink:href="classbfl_1_1MeasurementModelDecorator.html" target="_top" xlink:title=" ">
<polygon fill="white" stroke="black" points="309,-259.5 309,-278.5 489,-278.5 489,-259.5 309,-259.5"/>
<text text-anchor="middle" x="399" y="-266.5" font-family="Helvetica,sans-Serif" font-size="10.00">bfl::MeasurementModelDecorator</text>
</a>
</g>
</g>
<!-- Node34&#45;&gt;Node40 -->
<g id="edge17" class="edge">
<title>Node34&#45;&gt;Node40</title>
<path fill="none" stroke="midnightblue" d="M246.01,-236.69C279.49,-243.81 321.73,-252.79 353.17,-259.47"/>
<polygon fill="midnightblue" stroke="midnightblue" points="246.43,-233.2 235.92,-234.55 244.97,-240.05 246.43,-233.2"/>
</g>
<!-- Node36 -->
<g id="node17" class="node">
<title>Node36</title>
<g id="a_node17"><a xlink:href="classbfl_1_1LinearMeasurementModel.html" target="_top" xlink:title="This class represent an linear measurement model Hx + w, where H is a time&#45;variant measurement matrix...">
<polygon fill="white" stroke="black" points="525,-215.5 525,-234.5 687,-234.5 687,-215.5 525,-215.5"/>
<text text-anchor="middle" x="606" y="-222.5" font-family="Helvetica,sans-Serif" font-size="10.00">bfl::LinearMeasurementModel</text>
</a>
</g>
</g>
<!-- Node35&#45;&gt;Node36 -->
<g id="edge13" class="edge">
<title>Node35&#45;&gt;Node36</title>
<path fill="none" stroke="midnightblue" d="M480.94,-225C495.37,-225 510.4,-225 524.82,-225"/>
<polygon fill="midnightblue" stroke="midnightblue" points="480.55,-221.5 470.55,-225 480.55,-228.5 480.55,-221.5"/>
</g>
<!-- Node37 -->
<g id="node18" class="node">
<title>Node37</title>
<g id="a_node18"><a xlink:href="classbfl_1_1LTIMeasurementModel.html" target="_top" xlink:title="This class represent an linear measurement model Hx + w, where H is a time&#45;invariant measurement matr...">
<polygon fill="white" stroke="black" points="723,-215.5 723,-234.5 869,-234.5 869,-215.5 723,-215.5"/>
<text text-anchor="middle" x="796" y="-222.5" font-family="Helvetica,sans-Serif" font-size="10.00">bfl::LTIMeasurementModel</text>
</a>
</g>
</g>
<!-- Node36&#45;&gt;Node37 -->
<g id="edge14" class="edge">
<title>Node36&#45;&gt;Node37</title>
<path fill="none" stroke="midnightblue" d="M697.09,-225C705.72,-225 714.39,-225 722.81,-225"/>
<polygon fill="midnightblue" stroke="midnightblue" points="697,-221.5 687,-225 697,-228.5 697,-221.5"/>
</g>
<!-- Node38 -->
<g id="node19" class="node">
<title>Node38</title>
<g id="a_node19"><a xlink:href="classbfl_1_1LinearModel.html" target="_top" xlink:title=" ">
<polygon fill="white" stroke="black" points="933.5,-215.5 933.5,-234.5 1028.5,-234.5 1028.5,-215.5 933.5,-215.5"/>
<text text-anchor="middle" x="981" y="-222.5" font-family="Helvetica,sans-Serif" font-size="10.00">bfl::LinearModel</text>
</a>
</g>
</g>
<!-- Node37&#45;&gt;Node38 -->
<g id="edge15" class="edge">
<title>Node37&#45;&gt;Node38</title>
<path fill="none" stroke="midnightblue" d="M879.28,-225C897.8,-225 916.84,-225 933.3,-225"/>
<polygon fill="midnightblue" stroke="midnightblue" points="879.06,-221.5 869.06,-225 879.06,-228.5 879.06,-221.5"/>
</g>
<!-- Node39 -->
<g id="node20" class="node">
<title>Node39</title>
<g id="a_node20"><a xlink:href="classbfl_1_1SimulatedLinearSensor.html" target="_top" xlink:title=" ">
<polygon fill="white" stroke="black" points="1093,-215.5 1093,-234.5 1240,-234.5 1240,-215.5 1093,-215.5"/>
<text text-anchor="middle" x="1166.5" y="-222.5" font-family="Helvetica,sans-Serif" font-size="10.00">bfl::SimulatedLinearSensor</text>
</a>
</g>
</g>
<!-- Node38&#45;&gt;Node39 -->
<g id="edge16" class="edge">
<title>Node38&#45;&gt;Node39</title>
<path fill="none" stroke="midnightblue" d="M1039.09,-225C1056.08,-225 1074.92,-225 1092.76,-225"/>
<polygon fill="midnightblue" stroke="midnightblue" points="1038.78,-221.5 1028.78,-225 1038.78,-228.5 1038.78,-221.5"/>
</g>
<!-- Node11 -->
<g id="node22" class="node">
<title>Node11</title>
<g id="a_node22"><a xlink:href="classbfl_1_1Skipper.html" target="_top" xlink:title=" ">
<polygon fill="white" stroke="black" points="0,-114.5 0,-133.5 71,-133.5 71,-114.5 0,-114.5"/>
<text text-anchor="middle" x="35.5" y="-121.5" font-family="Helvetica,sans-Serif" font-size="10.00">bfl::Skipper</text>
</a>
</g>
</g>
<!-- Node11&#45;&gt;Node12 -->
<g id="edge19" class="edge">
<title>Node11&#45;&gt;Node12</title>
<path fill="none" stroke="midnightblue" d="M60.3,-138.9C73.63,-146.7 90.78,-155.87 107,-162 116.84,-165.72 127.64,-168.85 138.07,-171.42"/>
<polygon fill="midnightblue" stroke="midnightblue" points="61.72,-135.67 51.35,-133.52 58.12,-141.67 61.72,-135.67"/>
</g>
<!-- Node16 -->
<g id="node23" class="node">
<title>Node16</title>
<g id="a_node23"><a xlink:href="classbfl_1_1Skippable.html" target="_top" xlink:title=" ">
<polygon fill="white" stroke="black" points="148.5,-95.5 148.5,-114.5 231.5,-114.5 231.5,-95.5 148.5,-95.5"/>
<text text-anchor="middle" x="190" y="-102.5" font-family="Helvetica,sans-Serif" font-size="10.00">bfl::Skippable</text>
</a>
</g>
</g>
<!-- Node11&#45;&gt;Node16 -->
<g id="edge20" class="edge">
<title>Node11&#45;&gt;Node16</title>
<path fill="none" stroke="midnightblue" d="M81.17,-118.43C102.41,-115.79 127.62,-112.65 148.32,-110.07"/>
<polygon fill="midnightblue" stroke="midnightblue" points="80.6,-114.98 71.1,-119.69 81.46,-121.93 80.6,-114.98"/>
</g>
<!-- Node16&#45;&gt;Node17 -->
<g id="edge21" class="edge">
<title>Node16&#45;&gt;Node17</title>
<path fill="none" stroke="midnightblue" d="M242.08,-105C271.86,-105 309.5,-105 340.34,-105"/>
<polygon fill="midnightblue" stroke="midnightblue" points="241.9,-101.5 231.9,-105 241.9,-108.5 241.9,-101.5"/>
</g>
<!-- Node16&#45;&gt;Node18 -->
<g id="edge22" class="edge">
<title>Node16&#45;&gt;Node18</title>
<path fill="none" stroke="midnightblue" d="M241.85,-95.66C273.56,-89.84 314.26,-82.37 346.15,-76.52"/>
<polygon fill="midnightblue" stroke="midnightblue" points="241.1,-92.24 231.9,-97.49 242.36,-99.13 241.1,-92.24"/>
</g>
<!-- Node1 -->
<g id="node24" class="node">
<title>Node1</title>
<g id="a_node24"><a xlink:href="classbfl_1_1StateModel.html" target="_top" xlink:title=" ">
<polygon fill="white" stroke="black" points="354,-19.5 354,-38.5 444,-38.5 444,-19.5 354,-19.5"/>
<text text-anchor="middle" x="399" y="-26.5" font-family="Helvetica,sans-Serif" font-size="10.00">bfl::StateModel</text>
</a>
</g>
</g>
<!-- Node16&#45;&gt;Node1 -->
<g id="edge23" class="edge">
<title>Node16&#45;&gt;Node1</title>
<path fill="none" stroke="midnightblue" d="M241.4,-98.19C252.28,-95.41 263.39,-91.5 273,-86 293.19,-74.44 288.71,-59.39 309,-48 322.5,-40.42 338.71,-35.86 353.57,-33.12"/>
<polygon fill="midnightblue" stroke="midnightblue" points="240.5,-94.81 231.53,-100.44 242.06,-101.63 240.5,-94.81"/>
</g>
<!-- Node2 -->
<g id="node25" class="node">
<title>Node2</title>
<g id="a_node25"><a xlink:href="classbfl_1_1AdditiveStateModel.html" target="_top" xlink:title=" ">
<polygon fill="white" stroke="black" points="540.5,-19.5 540.5,-38.5 671.5,-38.5 671.5,-19.5 540.5,-19.5"/>
<text text-anchor="middle" x="606" y="-26.5" font-family="Helvetica,sans-Serif" font-size="10.00">bfl::AdditiveStateModel</text>
</a>
</g>
</g>
<!-- Node1&#45;&gt;Node2 -->
<g id="edge24" class="edge">
<title>Node1&#45;&gt;Node2</title>
<path fill="none" stroke="midnightblue" d="M454.41,-29C480.77,-29 512.62,-29 540.22,-29"/>
<polygon fill="midnightblue" stroke="midnightblue" points="454.23,-25.5 444.23,-29 454.23,-32.5 454.23,-25.5"/>
</g>
<!-- Node3 -->
<g id="node26" class="node">
<title>Node3</title>
<g id="a_node26"><a xlink:href="classbfl_1_1LinearStateModel.html" target="_top" xlink:title=" ">
<polygon fill="white" stroke="black" points="736,-19.5 736,-38.5 856,-38.5 856,-19.5 736,-19.5"/>
<text text-anchor="middle" x="796" y="-26.5" font-family="Helvetica,sans-Serif" font-size="10.00">bfl::LinearStateModel</text>
</a>
</g>
</g>
<!-- Node2&#45;&gt;Node3 -->
<g id="edge25" class="edge">
<title>Node2&#45;&gt;Node3</title>
<path fill="none" stroke="midnightblue" d="M681.85,-29C699.8,-29 718.73,-29 735.86,-29"/>
<polygon fill="midnightblue" stroke="midnightblue" points="681.7,-25.5 671.7,-29 681.7,-32.5 681.7,-25.5"/>
</g>
<!-- Node4 -->
<g id="node27" class="node">
<title>Node4</title>
<g id="a_node27"><a xlink:href="classbfl_1_1LTIStateModel.html" target="_top" xlink:title=" ">
<polygon fill="white" stroke="black" points="929,-38.5 929,-57.5 1033,-57.5 1033,-38.5 929,-38.5"/>
<text text-anchor="middle" x="981" y="-45.5" font-family="Helvetica,sans-Serif" font-size="10.00">bfl::LTIStateModel</text>
</a>
</g>
</g>
<!-- Node3&#45;&gt;Node4 -->
<g id="edge26" class="edge">
<title>Node3&#45;&gt;Node4</title>
<path fill="none" stroke="midnightblue" d="M866.2,-36.18C886.96,-38.34 909.35,-40.67 928.74,-42.68"/>
<polygon fill="midnightblue" stroke="midnightblue" points="866.47,-32.69 856.16,-35.14 865.75,-39.66 866.47,-32.69"/>
</g>
<!-- Node5 -->
<g id="node28" class="node">
<title>Node5</title>
<g id="a_node28"><a xlink:href="classbfl_1_1WhiteNoiseAcceleration.html" target="_top" xlink:title=" ">
<polygon fill="white" stroke="black" points="905,-0.5 905,-19.5 1057,-19.5 1057,-0.5 905,-0.5"/>
<text text-anchor="middle" x="981" y="-7.5" font-family="Helvetica,sans-Serif" font-size="10.00">bfl::WhiteNoiseAcceleration</text>
</a>
</g>
</g>
<!-- Node3&#45;&gt;Node5 -->
<g id="edge27" class="edge">
<title>Node3&#45;&gt;Node5</title>
<path fill="none" stroke="midnightblue" d="M866.18,-21.82C878.86,-20.5 892.15,-19.12 904.98,-17.79"/>
<polygon fill="midnightblue" stroke="midnightblue" points="865.75,-18.34 856.16,-22.86 866.47,-25.31 865.75,-18.34"/>
</g>
<!-- Node0 -->
<g id="node29" class="node">
<title>Node0</title>
<g id="a_node29"><a xlink:href="classbfl_1_1StateProcess.html" target="_top" xlink:title=" ">
<polygon fill="white" stroke="black" points="141,-19.5 141,-38.5 239,-38.5 239,-19.5 141,-19.5"/>
<text text-anchor="middle" x="190" y="-26.5" font-family="Helvetica,sans-Serif" font-size="10.00">bfl::StateProcess</text>
</a>
</g>
</g>
<!-- Node0&#45;&gt;Node1 -->
<g id="edge28" class="edge">
<title>Node0&#45;&gt;Node1</title>
<path fill="none" stroke="midnightblue" d="M249.04,-29C282.24,-29 323.21,-29 353.78,-29"/>
<polygon fill="midnightblue" stroke="midnightblue" points="249.01,-25.5 239.01,-29 249.01,-32.5 249.01,-25.5"/>
</g>
</g>
</svg>
