<?xml version="1.0" encoding="UTF-8" standalone="no"?>
<!DOCTYPE svg PUBLIC "-//W3C//DTD SVG 1.1//EN"
 "http://www.w3.org/Graphics/SVG/1.1/DTD/svg11.dtd">
<!-- Generated by graphviz version 2.43.0 (0)
 -->
<!-- Title: Graphical Class Hierarchy Pages: 1 -->
<svg width="285pt" height="104pt"
 viewBox="0.00 0.00 285.00 104.00" xmlns="http://www.w3.org/2000/svg" xmlns:xlink="http://www.w3.org/1999/xlink">
<g id="graph0" class="graph" transform="scale(1 1) rotate(0) translate(4 100)">
<title>Graphical Class Hierarchy</title>
<polygon fill="white" stroke="transparent" points="-4,4 -4,-100 281,-100 281,4 -4,4"/>
<!-- Node0 -->
<g id="node1" class="node">
<title>Node0</title>
<g id="a_node1"><a xlink:href="classbfl_1_1GaussianCorrection.html" target="_top" xlink:title=" ">
<polygon fill="white" stroke="black" points="0,-38.5 0,-57.5 130,-57.5 130,-38.5 0,-38.5"/>
<text text-anchor="middle" x="65" y="-45.5" font-family="Helvetica,sans-Serif" font-size="10.00">bfl::GaussianCorrection</text>
</a>
</g>
</g>
<!-- Node1 -->
<g id="node2" class="node">
<title>Node1</title>
<g id="a_node2"><a xlink:href="classbfl_1_1KFCorrection.html" target="_top" xlink:title=" ">
<polygon fill="white" stroke="black" points="172.5,-76.5 172.5,-95.5 270.5,-95.5 270.5,-76.5 172.5,-76.5"/>
<text text-anchor="middle" x="221.5" y="-83.5" font-family="Helvetica,sans-Serif" font-size="10.00">bfl::KFCorrection</text>
</a>
</g>
</g>
<!-- Node0&#45;&gt;Node1 -->
<g id="edge1" class="edge">
<title>Node0&#45;&gt;Node1</title>
<path fill="none" stroke="midnightblue" d="M114.95,-60.04C136.54,-65.35 161.54,-71.5 181.79,-76.48"/>
<polygon fill="midnightblue" stroke="midnightblue" points="115.53,-56.58 104.99,-57.59 113.86,-63.38 115.53,-56.58"/>
</g>
<!-- Node2 -->
<g id="node3" class="node">
<title>Node2</title>
<g id="a_node3"><a xlink:href="classbfl_1_1SUKFCorrection.html" target="_top" xlink:title="This class implements the algorithm: Barfoot, T., McManus, C.">
<polygon fill="white" stroke="black" points="166,-38.5 166,-57.5 277,-57.5 277,-38.5 166,-38.5"/>
<text text-anchor="middle" x="221.5" y="-45.5" font-family="Helvetica,sans-Serif" font-size="10.00">bfl::SUKFCorrection</text>
</a>
</g>
</g>
<!-- Node0&#45;&gt;Node2 -->
<g id="edge2" class="edge">
<title>Node0&#45;&gt;Node2</title>
<path fill="none" stroke="midnightblue" d="M140.19,-48C148.75,-48 157.37,-48 165.61,-48"/>
<polygon fill="midnightblue" stroke="midnightblue" points="140.18,-44.5 130.18,-48 140.18,-51.5 140.18,-44.5"/>
</g>
<!-- Node3 -->
<g id="node4" class="node">
<title>Node3</title>
<g id="a_node4"><a xlink:href="classbfl_1_1UKFCorrection.html" target="_top" xlink:title=" ">
<polygon fill="white" stroke="black" points="169,-0.5 169,-19.5 274,-19.5 274,-0.5 169,-0.5"/>
<text text-anchor="middle" x="221.5" y="-7.5" font-family="Helvetica,sans-Serif" font-size="10.00">bfl::UKFCorrection</text>
</a>
</g>
</g>
<!-- Node0&#45;&gt;Node3 -->
<g id="edge3" class="edge">
<title>Node0&#45;&gt;Node3</title>
<path fill="none" stroke="midnightblue" d="M114.95,-35.96C136.54,-30.65 161.54,-24.5 181.79,-19.52"/>
<polygon fill="midnightblue" stroke="midnightblue" points="113.86,-32.62 104.99,-38.41 115.53,-39.42 113.86,-32.62"/>
</g>
</g>
</svg>
