<?xml version="1.0" encoding="UTF-8" standalone="no"?>
<!DOCTYPE svg PUBLIC "-//W3C//DTD SVG 1.1//EN"
 "http://www.w3.org/Graphics/SVG/1.1/DTD/svg11.dtd">
<!-- Generated by graphviz version 2.47.2 (0)
 -->
<!-- Title: Graphical Class Hierarchy Pages: 1 -->
<svg width="1151pt" height="287pt"
 viewBox="0.00 0.00 1151.00 287.00" xmlns="http://www.w3.org/2000/svg" xmlns:xlink="http://www.w3.org/1999/xlink">
<g id="graph0" class="graph" transform="scale(1 1) rotate(0) translate(4 283)">
<title>Graphical Class Hierarchy</title>
<polygon fill="white" stroke="transparent" points="-4,4 -4,-283 1147,-283 1147,4 -4,4"/>
<!-- Node0 -->
<g id="node1" class="node">
<title>Node0</title>
<g id="a_node1"><a xlink:href="classbfl_1_1Agent.html" target="_top" xlink:title=" ">
<polygon fill="white" stroke="black" points="3.5,-253.5 3.5,-272.5 62.5,-272.5 62.5,-253.5 3.5,-253.5"/>
<text text-anchor="middle" x="33" y="-260.5" font-family="Helvetica,sans-Serif" font-size="10.00">bfl::Agent</text>
</a>
</g>
</g>
<!-- Node1 -->
<g id="node2" class="node">
<title>Node1</title>
<g id="a_node2"><a xlink:href="classbfl_1_1SimulatedStateModel.html" target="_top" xlink:title=" ">
<polygon fill="white" stroke="black" points="114,-253.5 114,-272.5 240,-272.5 240,-253.5 114,-253.5"/>
<text text-anchor="middle" x="177" y="-260.5" font-family="Helvetica,sans-Serif" font-size="10.00">bfl::SimulatedStateModel</text>
</a>
</g>
</g>
<!-- Node0&#45;&gt;Node1 -->
<g id="edge1" class="edge">
<title>Node0&#45;&gt;Node1</title>
<path fill="none" stroke="midnightblue" d="M72.92,-263C85.58,-263 99.96,-263 113.88,-263"/>
<polygon fill="midnightblue" stroke="midnightblue" points="72.74,-259.5 62.74,-263 72.74,-266.5 72.74,-259.5"/>
</g>
<!-- Node8 -->
<g id="node3" class="node">
<title>Node8</title>
<g id="a_node3"><a xlink:href="classbfl_1_1ExogenousProcess.html" target="_top" xlink:title=" ">
<polygon fill="white" stroke="black" points="118,-133.5 118,-152.5 236,-152.5 236,-133.5 118,-133.5"/>
<text text-anchor="middle" x="177" y="-140.5" font-family="Helvetica,sans-Serif" font-size="10.00">bfl::ExogenousProcess</text>
</a>
</g>
</g>
<!-- Node9 -->
<g id="node4" class="node">
<title>Node9</title>
<g id="a_node4"><a xlink:href="classbfl_1_1ExogenousModel.html" target="_top" xlink:title=" ">
<polygon fill="white" stroke="black" points="314.5,-95.5 314.5,-114.5 422.5,-114.5 422.5,-95.5 314.5,-95.5"/>
<text text-anchor="middle" x="368.5" y="-102.5" font-family="Helvetica,sans-Serif" font-size="10.00">bfl::ExogenousModel</text>
</a>
</g>
</g>
<!-- Node8&#45;&gt;Node9 -->
<g id="edge2" class="edge">
<title>Node8&#45;&gt;Node9</title>
<path fill="none" stroke="midnightblue" d="M235.89,-131.39C262.85,-125.99 294.51,-119.64 320.03,-114.52"/>
<polygon fill="midnightblue" stroke="midnightblue" points="234.94,-128.01 225.82,-133.41 236.31,-134.88 234.94,-128.01"/>
</g>
<!-- Node10 -->
<g id="node5" class="node">
<title>Node10</title>
<g id="a_node5"><a xlink:href="classbfl_1_1Filter.html" target="_top" xlink:title=" ">
<polygon fill="white" stroke="black" points="5.5,-171.5 5.5,-190.5 60.5,-190.5 60.5,-171.5 5.5,-171.5"/>
<text text-anchor="middle" x="33" y="-178.5" font-family="Helvetica,sans-Serif" font-size="10.00">bfl::Filter</text>
</a>
</g>
</g>
<!-- Node11 -->
<g id="node6" class="node">
<title>Node11</title>
<g id="a_node6"><a xlink:href="classbfl_1_1FilteringAlgorithm.html" target="_top" xlink:title=" ">
<polygon fill="white" stroke="black" points="122.5,-171.5 122.5,-190.5 231.5,-190.5 231.5,-171.5 122.5,-171.5"/>
<text text-anchor="middle" x="177" y="-178.5" font-family="Helvetica,sans-Serif" font-size="10.00">bfl::FilteringAlgorithm</text>
</a>
</g>
</g>
<!-- Node10&#45;&gt;Node11 -->
<g id="edge3" class="edge">
<title>Node10&#45;&gt;Node11</title>
<path fill="none" stroke="midnightblue" d="M71.04,-181C86.7,-181 105.24,-181 122.35,-181"/>
<polygon fill="midnightblue" stroke="midnightblue" points="70.71,-177.5 60.71,-181 70.71,-184.5 70.71,-177.5"/>
</g>
<!-- Node12 -->
<g id="node7" class="node">
<title>Node12</title>
<g id="a_node7"><a xlink:href="classbfl_1_1GaussianFilter.html" target="_top" xlink:title=" ">
<polygon fill="white" stroke="black" points="320.5,-133.5 320.5,-152.5 416.5,-152.5 416.5,-133.5 320.5,-133.5"/>
<text text-anchor="middle" x="368.5" y="-140.5" font-family="Helvetica,sans-Serif" font-size="10.00">bfl::GaussianFilter</text>
</a>
</g>
</g>
<!-- Node11&#45;&gt;Node12 -->
<g id="edge4" class="edge">
<title>Node11&#45;&gt;Node12</title>
<path fill="none" stroke="midnightblue" d="M235.93,-169.38C262.99,-163.96 294.79,-157.58 320.35,-152.45"/>
<polygon fill="midnightblue" stroke="midnightblue" points="234.94,-166.01 225.82,-171.41 236.31,-172.88 234.94,-166.01"/>
</g>
<!-- Node13 -->
<g id="node8" class="node">
<title>Node13</title>
<g id="a_node8"><a xlink:href="classbfl_1_1ParticleFilter.html" target="_top" xlink:title=" ">
<polygon fill="white" stroke="black" points="324.5,-171.5 324.5,-190.5 412.5,-190.5 412.5,-171.5 324.5,-171.5"/>
<text text-anchor="middle" x="368.5" y="-178.5" font-family="Helvetica,sans-Serif" font-size="10.00">bfl::ParticleFilter</text>
</a>
</g>
</g>
<!-- Node11&#45;&gt;Node13 -->
<g id="edge5" class="edge">
<title>Node11&#45;&gt;Node13</title>
<path fill="none" stroke="midnightblue" d="M241.74,-181C268.9,-181 299.87,-181 324.28,-181"/>
<polygon fill="midnightblue" stroke="midnightblue" points="241.54,-177.5 231.54,-181 241.54,-184.5 241.54,-177.5"/>
</g>
<!-- Node14 -->
<g id="node9" class="node">
<title>Node14</title>
<g id="a_node9"><a xlink:href="classbfl_1_1SIS.html" target="_top" xlink:title=" ">
<polygon fill="white" stroke="black" points="532.5,-171.5 532.5,-190.5 582.5,-190.5 582.5,-171.5 532.5,-171.5"/>
<text text-anchor="middle" x="557.5" y="-178.5" font-family="Helvetica,sans-Serif" font-size="10.00">bfl::SIS</text>
</a>
</g>
</g>
<!-- Node13&#45;&gt;Node14 -->
<g id="edge6" class="edge">
<title>Node13&#45;&gt;Node14</title>
<path fill="none" stroke="midnightblue" d="M423.21,-181C459.17,-181 504.78,-181 532.24,-181"/>
<polygon fill="midnightblue" stroke="midnightblue" points="422.87,-177.5 412.87,-181 422.87,-184.5 422.87,-177.5"/>
</g>
<!-- Node23 -->
<g id="node10" class="node">
<title>Node23</title>
<g id="a_node10"><a xlink:href="classbfl_1_1GaussianMixturePrediction.html" target="_top" xlink:title=" ">
<polygon fill="white" stroke="black" points="102,-57.5 102,-76.5 252,-76.5 252,-57.5 102,-57.5"/>
<text text-anchor="middle" x="177" y="-64.5" font-family="Helvetica,sans-Serif" font-size="10.00">bfl::GaussianMixturePrediction</text>
</a>
</g>
</g>
<!-- Node24 -->
<g id="node11" class="node">
<title>Node24</title>
<g id="a_node11"><a xlink:href="classbfl_1_1GaussianPrediction.html" target="_top" xlink:title=" ">
<polygon fill="white" stroke="black" points="309.5,-57.5 309.5,-76.5 427.5,-76.5 427.5,-57.5 309.5,-57.5"/>
<text text-anchor="middle" x="368.5" y="-64.5" font-family="Helvetica,sans-Serif" font-size="10.00">bfl::GaussianPrediction</text>
</a>
</g>
</g>
<!-- Node23&#45;&gt;Node24 -->
<g id="edge7" class="edge">
<title>Node23&#45;&gt;Node24</title>
<path fill="none" stroke="midnightblue" d="M262.41,-67C278.25,-67 294.49,-67 309.31,-67"/>
<polygon fill="midnightblue" stroke="midnightblue" points="262.08,-63.5 252.08,-67 262.08,-70.5 262.08,-63.5"/>
</g>
<!-- Node25 -->
<g id="node12" class="node">
<title>Node25</title>
<g id="a_node12"><a xlink:href="classbfl_1_1KFPrediction.html" target="_top" xlink:title=" ">
<polygon fill="white" stroke="black" points="513,-95.5 513,-114.5 602,-114.5 602,-95.5 513,-95.5"/>
<text text-anchor="middle" x="557.5" y="-102.5" font-family="Helvetica,sans-Serif" font-size="10.00">bfl::KFPrediction</text>
</a>
</g>
</g>
<!-- Node24&#45;&gt;Node25 -->
<g id="edge8" class="edge">
<title>Node24&#45;&gt;Node25</title>
<path fill="none" stroke="midnightblue" d="M426.65,-78.61C454.39,-84.25 487.17,-90.91 512.86,-96.13"/>
<polygon fill="midnightblue" stroke="midnightblue" points="427.18,-75.15 416.69,-76.59 425.79,-82.01 427.18,-75.15"/>
</g>
<!-- Node26 -->
<g id="node13" class="node">
<title>Node26</title>
<g id="a_node13"><a xlink:href="classbfl_1_1UKFPrediction.html" target="_top" xlink:title=" ">
<polygon fill="white" stroke="black" points="509,-57.5 509,-76.5 606,-76.5 606,-57.5 509,-57.5"/>
<text text-anchor="middle" x="557.5" y="-64.5" font-family="Helvetica,sans-Serif" font-size="10.00">bfl::UKFPrediction</text>
</a>
</g>
</g>
<!-- Node24&#45;&gt;Node26 -->
<g id="edge9" class="edge">
<title>Node24&#45;&gt;Node26</title>
<path fill="none" stroke="midnightblue" d="M437.91,-67C461.43,-67 487.23,-67 508.74,-67"/>
<polygon fill="midnightblue" stroke="midnightblue" points="437.64,-63.5 427.64,-67 437.64,-70.5 437.64,-63.5"/>
</g>
<!-- Node32 -->
<g id="node14" class="node">
<title>Node32</title>
<g id="a_node14"><a xlink:href="classbfl_1_1Logger.html" target="_top" xlink:title=" ">
<polygon fill="white" stroke="black" points="2,-215.5 2,-234.5 64,-234.5 64,-215.5 2,-215.5"/>
<text text-anchor="middle" x="33" y="-222.5" font-family="Helvetica,sans-Serif" font-size="10.00">bfl::Logger</text>
</a>
</g>
</g>
<!-- Node32&#45;&gt;Node1 -->
<g id="edge18" class="edge">
<title>Node32&#45;&gt;Node1</title>
<path fill="none" stroke="midnightblue" d="M73.83,-236.28C83.07,-238.86 92.87,-241.55 102,-244 113.79,-247.16 126.66,-250.5 138.31,-253.49"/>
<polygon fill="midnightblue" stroke="midnightblue" points="74.66,-232.88 64.09,-233.55 72.78,-239.62 74.66,-232.88"/>
</g>
<!-- Node32&#45;&gt;Node11 -->
<g id="edge10" class="edge">
<title>Node32&#45;&gt;Node11</title>
<path fill="none" stroke="midnightblue" d="M73.73,-212.69C96.26,-205.71 124.03,-197.1 144.95,-190.62"/>
<polygon fill="midnightblue" stroke="midnightblue" points="72.63,-209.37 64.11,-215.67 74.7,-216.05 72.63,-209.37"/>
</g>
<!-- Node33 -->
<g id="node15" class="node">
<title>Node33</title>
<g id="a_node15"><a xlink:href="classbfl_1_1MeasurementModel.html" target="_top" xlink:title="This class represent a generic measurement model f(x, w), where x is a state vector and w is random n...">
<polygon fill="white" stroke="black" points="117.5,-215.5 117.5,-234.5 236.5,-234.5 236.5,-215.5 117.5,-215.5"/>
<text text-anchor="middle" x="177" y="-222.5" font-family="Helvetica,sans-Serif" font-size="10.00">bfl::MeasurementModel</text>
</a>
</g>
</g>
<!-- Node32&#45;&gt;Node33 -->
<g id="edge11" class="edge">
<title>Node32&#45;&gt;Node33</title>
<path fill="none" stroke="midnightblue" d="M74.38,-225C87.72,-225 102.83,-225 117.26,-225"/>
<polygon fill="midnightblue" stroke="midnightblue" points="74.11,-221.5 64.11,-225 74.11,-228.5 74.11,-221.5"/>
</g>
<!-- Node34 -->
<g id="node16" class="node">
<title>Node34</title>
<g id="a_node16"><a xlink:href="classbfl_1_1AdditiveMeasurementModel.html" target="_top" xlink:title="This class represent an additive measurement model f(x) + w, where x is a state vector and w is rando...">
<polygon fill="white" stroke="black" points="304.5,-210 304.5,-240 432.5,-240 432.5,-210 304.5,-210"/>
<text text-anchor="start" x="312.5" y="-228" font-family="Helvetica,sans-Serif" font-size="10.00">bfl::AdditiveMeasurement</text>
<text text-anchor="middle" x="368.5" y="-217" font-family="Helvetica,sans-Serif" font-size="10.00">Model</text>
</a>
</g>
</g>
<!-- Node33&#45;&gt;Node34 -->
<g id="edge12" class="edge">
<title>Node33&#45;&gt;Node34</title>
<path fill="none" stroke="midnightblue" d="M246.89,-225C265.61,-225 285.79,-225 304.18,-225"/>
<polygon fill="midnightblue" stroke="midnightblue" points="246.66,-221.5 236.66,-225 246.66,-228.5 246.66,-221.5"/>
</g>
<!-- Node39 -->
<g id="node21" class="node">
<title>Node39</title>
<g id="a_node21"><a xlink:href="classbfl_1_1MeasurementModelDecorator.html" target="_top" xlink:title=" ">
<polygon fill="white" stroke="black" points="288,-259.5 288,-278.5 449,-278.5 449,-259.5 288,-259.5"/>
<text text-anchor="middle" x="368.5" y="-266.5" font-family="Helvetica,sans-Serif" font-size="10.00">bfl::MeasurementModelDecorator</text>
</a>
</g>
</g>
<!-- Node33&#45;&gt;Node39 -->
<g id="edge17" class="edge">
<title>Node33&#45;&gt;Node39</title>
<path fill="none" stroke="midnightblue" d="M229.15,-236.88C259.68,-243.96 297.92,-252.84 326.46,-259.47"/>
<polygon fill="midnightblue" stroke="midnightblue" points="229.65,-233.4 219.12,-234.55 228.07,-240.22 229.65,-233.4"/>
</g>
<!-- Node35 -->
<g id="node17" class="node">
<title>Node35</title>
<g id="a_node17"><a xlink:href="classbfl_1_1LinearMeasurementModel.html" target="_top" xlink:title="This class represent an linear measurement model Hx + w, where H is a time&#45;variant measurement matrix...">
<polygon fill="white" stroke="black" points="485,-215.5 485,-234.5 630,-234.5 630,-215.5 485,-215.5"/>
<text text-anchor="middle" x="557.5" y="-222.5" font-family="Helvetica,sans-Serif" font-size="10.00">bfl::LinearMeasurementModel</text>
</a>
</g>
</g>
<!-- Node34&#45;&gt;Node35 -->
<g id="edge13" class="edge">
<title>Node34&#45;&gt;Node35</title>
<path fill="none" stroke="midnightblue" d="M442.92,-225C456.66,-225 471.01,-225 484.7,-225"/>
<polygon fill="midnightblue" stroke="midnightblue" points="442.55,-221.5 432.55,-225 442.55,-228.5 442.55,-221.5"/>
</g>
<!-- Node36 -->
<g id="node18" class="node">
<title>Node36</title>
<g id="a_node18"><a xlink:href="classbfl_1_1LTIMeasurementModel.html" target="_top" xlink:title="This class represent an linear measurement model Hx + w, where H is a time&#45;invariant measurement matr...">
<polygon fill="white" stroke="black" points="666,-215.5 666,-234.5 799,-234.5 799,-215.5 666,-215.5"/>
<text text-anchor="middle" x="732.5" y="-222.5" font-family="Helvetica,sans-Serif" font-size="10.00">bfl::LTIMeasurementModel</text>
</a>
</g>
</g>
<!-- Node35&#45;&gt;Node36 -->
<g id="edge14" class="edge">
<title>Node35&#45;&gt;Node36</title>
<path fill="none" stroke="midnightblue" d="M640.15,-225C648.73,-225 657.38,-225 665.76,-225"/>
<polygon fill="midnightblue" stroke="midnightblue" points="640.11,-221.5 630.11,-225 640.11,-228.5 640.11,-221.5"/>
</g>
<!-- Node37 -->
<g id="node19" class="node">
<title>Node37</title>
<g id="a_node19"><a xlink:href="classbfl_1_1LinearModel.html" target="_top" xlink:title=" ">
<polygon fill="white" stroke="black" points="861,-215.5 861,-234.5 947,-234.5 947,-215.5 861,-215.5"/>
<text text-anchor="middle" x="904" y="-222.5" font-family="Helvetica,sans-Serif" font-size="10.00">bfl::LinearModel</text>
</a>
</g>
</g>
<!-- Node36&#45;&gt;Node37 -->
<g id="edge15" class="edge">
<title>Node36&#45;&gt;Node37</title>
<path fill="none" stroke="midnightblue" d="M809.37,-225C827.06,-225 845.27,-225 860.88,-225"/>
<polygon fill="midnightblue" stroke="midnightblue" points="809.03,-221.5 799.03,-225 809.03,-228.5 809.03,-221.5"/>
</g>
<!-- Node38 -->
<g id="node20" class="node">
<title>Node38</title>
<g id="a_node20"><a xlink:href="classbfl_1_1SimulatedLinearSensor.html" target="_top" xlink:title=" ">
<polygon fill="white" stroke="black" points="1009,-215.5 1009,-234.5 1143,-234.5 1143,-215.5 1009,-215.5"/>
<text text-anchor="middle" x="1076" y="-222.5" font-family="Helvetica,sans-Serif" font-size="10.00">bfl::SimulatedLinearSensor</text>
</a>
</g>
</g>
<!-- Node37&#45;&gt;Node38 -->
<g id="edge16" class="edge">
<title>Node37&#45;&gt;Node38</title>
<path fill="none" stroke="midnightblue" d="M957.43,-225C973.72,-225 991.89,-225 1008.98,-225"/>
<polygon fill="midnightblue" stroke="midnightblue" points="957.02,-221.5 947.02,-225 957.02,-228.5 957.02,-221.5"/>
</g>
<!-- Node52 -->
<g id="node22" class="node">
<title>Node52</title>
<g id="a_node22"><a xlink:href="classbfl_1_1Skipper.html" target="_top" xlink:title=" ">
<polygon fill="white" stroke="black" points="0,-114.5 0,-133.5 66,-133.5 66,-114.5 0,-114.5"/>
<text text-anchor="middle" x="33" y="-121.5" font-family="Helvetica,sans-Serif" font-size="10.00">bfl::Skipper</text>
</a>
</g>
</g>
<!-- Node52&#45;&gt;Node11 -->
<g id="edge19" class="edge">
<title>Node52&#45;&gt;Node11</title>
<path fill="none" stroke="midnightblue" d="M57.2,-138.94C70.01,-146.67 86.44,-155.78 102,-162 111.24,-165.69 121.41,-168.85 131.18,-171.48"/>
<polygon fill="midnightblue" stroke="midnightblue" points="58.92,-135.89 48.57,-133.61 55.24,-141.84 58.92,-135.89"/>
</g>
<!-- Node53 -->
<g id="node23" class="node">
<title>Node53</title>
<g id="a_node23"><a xlink:href="classbfl_1_1Skippable.html" target="_top" xlink:title=" ">
<polygon fill="white" stroke="black" points="139,-95.5 139,-114.5 215,-114.5 215,-95.5 139,-95.5"/>
<text text-anchor="middle" x="177" y="-102.5" font-family="Helvetica,sans-Serif" font-size="10.00">bfl::Skippable</text>
</a>
</g>
</g>
<!-- Node52&#45;&gt;Node53 -->
<g id="edge20" class="edge">
<title>Node52&#45;&gt;Node53</title>
<path fill="none" stroke="midnightblue" d="M76.26,-118.35C96.16,-115.68 119.68,-112.54 138.89,-109.97"/>
<polygon fill="midnightblue" stroke="midnightblue" points="75.67,-114.89 66.22,-119.69 76.6,-121.83 75.67,-114.89"/>
</g>
<!-- Node53&#45;&gt;Node9 -->
<g id="edge21" class="edge">
<title>Node53&#45;&gt;Node9</title>
<path fill="none" stroke="midnightblue" d="M225.79,-105C252.77,-105 286.55,-105 314.36,-105"/>
<polygon fill="midnightblue" stroke="midnightblue" points="225.44,-101.5 215.44,-105 225.44,-108.5 225.44,-101.5"/>
</g>
<!-- Node53&#45;&gt;Node24 -->
<g id="edge22" class="edge">
<title>Node53&#45;&gt;Node24</title>
<path fill="none" stroke="midnightblue" d="M225.31,-95.51C254.23,-89.71 291.09,-82.32 320.04,-76.52"/>
<polygon fill="midnightblue" stroke="midnightblue" points="224.56,-92.09 215.44,-97.49 225.93,-98.96 224.56,-92.09"/>
</g>
<!-- Node54 -->
<g id="node24" class="node">
<title>Node54</title>
<g id="a_node24"><a xlink:href="classbfl_1_1StateModel.html" target="_top" xlink:title=" ">
<polygon fill="white" stroke="black" points="327,-19.5 327,-38.5 410,-38.5 410,-19.5 327,-19.5"/>
<text text-anchor="middle" x="368.5" y="-26.5" font-family="Helvetica,sans-Serif" font-size="10.00">bfl::StateModel</text>
</a>
</g>
</g>
<!-- Node53&#45;&gt;Node54 -->
<g id="edge23" class="edge">
<title>Node53&#45;&gt;Node54</title>
<path fill="none" stroke="midnightblue" d="M225.27,-97.08C234.52,-94.39 243.86,-90.79 252,-86 272.05,-74.2 267.85,-59.63 288,-48 299.8,-41.19 313.93,-36.82 326.98,-34.01"/>
<polygon fill="midnightblue" stroke="midnightblue" points="224.14,-93.76 215.35,-99.67 225.91,-100.54 224.14,-93.76"/>
</g>
<!-- Node55 -->
<g id="node25" class="node">
<title>Node55</title>
<g id="a_node25"><a xlink:href="classbfl_1_1AdditiveStateModel.html" target="_top" xlink:title=" ">
<polygon fill="white" stroke="black" points="498.5,-19.5 498.5,-38.5 616.5,-38.5 616.5,-19.5 498.5,-19.5"/>
<text text-anchor="middle" x="557.5" y="-26.5" font-family="Helvetica,sans-Serif" font-size="10.00">bfl::AdditiveStateModel</text>
</a>
</g>
</g>
<!-- Node54&#45;&gt;Node55 -->
<g id="edge24" class="edge">
<title>Node54&#45;&gt;Node55</title>
<path fill="none" stroke="midnightblue" d="M420.09,-29C444.22,-29 473.22,-29 498.26,-29"/>
<polygon fill="midnightblue" stroke="midnightblue" points="420.08,-25.5 410.08,-29 420.08,-32.5 420.08,-25.5"/>
</g>
<!-- Node56 -->
<g id="node26" class="node">
<title>Node56</title>
<g id="a_node26"><a xlink:href="classbfl_1_1LinearStateModel.html" target="_top" xlink:title=" ">
<polygon fill="white" stroke="black" points="678,-19.5 678,-38.5 787,-38.5 787,-19.5 678,-19.5"/>
<text text-anchor="middle" x="732.5" y="-26.5" font-family="Helvetica,sans-Serif" font-size="10.00">bfl::LinearStateModel</text>
</a>
</g>
</g>
<!-- Node55&#45;&gt;Node56 -->
<g id="edge25" class="edge">
<title>Node55&#45;&gt;Node56</title>
<path fill="none" stroke="midnightblue" d="M626.99,-29C643.93,-29 661.83,-29 677.94,-29"/>
<polygon fill="midnightblue" stroke="midnightblue" points="626.59,-25.5 616.59,-29 626.59,-32.5 626.59,-25.5"/>
</g>
<!-- Node57 -->
<g id="node27" class="node">
<title>Node57</title>
<g id="a_node27"><a xlink:href="classbfl_1_1LTIStateModel.html" target="_top" xlink:title=" ">
<polygon fill="white" stroke="black" points="855.5,-38.5 855.5,-57.5 952.5,-57.5 952.5,-38.5 855.5,-38.5"/>
<text text-anchor="middle" x="904" y="-45.5" font-family="Helvetica,sans-Serif" font-size="10.00">bfl::LTIStateModel</text>
</a>
</g>
</g>
<!-- Node56&#45;&gt;Node57 -->
<g id="edge26" class="edge">
<title>Node56&#45;&gt;Node57</title>
<path fill="none" stroke="midnightblue" d="M797.08,-36.13C816.43,-38.3 837.35,-40.64 855.45,-42.67"/>
<polygon fill="midnightblue" stroke="midnightblue" points="797.46,-32.65 787.13,-35.01 796.68,-39.6 797.46,-32.65"/>
</g>
<!-- Node58 -->
<g id="node28" class="node">
<title>Node58</title>
<g id="a_node28"><a xlink:href="classbfl_1_1WhiteNoiseAcceleration.html" target="_top" xlink:title=" ">
<polygon fill="white" stroke="black" points="835,-0.5 835,-19.5 973,-19.5 973,-0.5 835,-0.5"/>
<text text-anchor="middle" x="904" y="-7.5" font-family="Helvetica,sans-Serif" font-size="10.00">bfl::WhiteNoiseAcceleration</text>
</a>
</g>
</g>
<!-- Node56&#45;&gt;Node58 -->
<g id="edge27" class="edge">
<title>Node56&#45;&gt;Node58</title>
<path fill="none" stroke="midnightblue" d="M797.26,-21.85C809.51,-20.48 822.4,-19.04 834.79,-17.65"/>
<polygon fill="midnightblue" stroke="midnightblue" points="796.68,-18.4 787.13,-22.99 797.46,-25.35 796.68,-18.4"/>
</g>
<!-- Node61 -->
<g id="node29" class="node">
<title>Node61</title>
<g id="a_node29"><a xlink:href="classbfl_1_1StateProcess.html" target="_top" xlink:title=" ">
<polygon fill="white" stroke="black" points="131,-19.5 131,-38.5 223,-38.5 223,-19.5 131,-19.5"/>
<text text-anchor="middle" x="177" y="-26.5" font-family="Helvetica,sans-Serif" font-size="10.00">bfl::StateProcess</text>
</a>
</g>
</g>
<!-- Node61&#45;&gt;Node54 -->
<g id="edge28" class="edge">
<title>Node61&#45;&gt;Node54</title>
<path fill="none" stroke="midnightblue" d="M233.68,-29C263.59,-29 299.79,-29 326.99,-29"/>
<polygon fill="midnightblue" stroke="midnightblue" points="233.39,-25.5 223.39,-29 233.39,-32.5 233.39,-25.5"/>
</g>
</g>
</svg>
