<?xml version="1.0" encoding="UTF-8" standalone="no"?>
<!DOCTYPE svg PUBLIC "-//W3C//DTD SVG 1.1//EN"
 "http://www.w3.org/Graphics/SVG/1.1/DTD/svg11.dtd">
<!-- Generated by graphviz version 2.47.2 (0)
 -->
<!-- Title: /home/xenvre/robot&#45;code/bfl_robotology/src/BayesFilters/include/BayesFilters/InitSurveillanceAreaGrid.h Pages: 1 -->
<svg width="249pt" height="307pt"
 viewBox="0.00 0.00 248.57 307.00" xmlns="http://www.w3.org/2000/svg" xmlns:xlink="http://www.w3.org/1999/xlink">
<g id="graph0" class="graph" transform="scale(1 1) rotate(0) translate(4 303)">
<title>/home/xenvre/robot&#45;code/bfl_robotology/src/BayesFilters/include/BayesFilters/InitSurveillanceAreaGrid.h</title>
<polygon fill="white" stroke="transparent" points="-4,4 -4,-303 244.57,-303 244.57,4 -4,4"/>
<!-- Node1 -->
<g id="node1" class="node">
<title>Node1</title>
<g id="a_node1"><a xlink:title=" ">
<polygon fill="#bfbfbf" stroke="black" points="52.57,-235.5 52.57,-298.5 216.57,-298.5 216.57,-235.5 52.57,-235.5"/>
<text text-anchor="start" x="60.57" y="-286.5" font-family="Helvetica,sans-Serif" font-size="10.00">/home/xenvre/robot</text>
<text text-anchor="start" x="60.57" y="-275.5" font-family="Helvetica,sans-Serif" font-size="10.00">&#45;code/bfl_robotology</text>
<text text-anchor="start" x="60.57" y="-264.5" font-family="Helvetica,sans-Serif" font-size="10.00">/src/BayesFilters/include</text>
<text text-anchor="start" x="60.57" y="-253.5" font-family="Helvetica,sans-Serif" font-size="10.00">/BayesFilters/InitSurveillanceArea</text>
<text text-anchor="middle" x="134.57" y="-242.5" font-family="Helvetica,sans-Serif" font-size="10.00">Grid.h</text>
</a>
</g>
</g>
<!-- Node2 -->
<g id="node2" class="node">
<title>Node2</title>
<g id="a_node2"><a xlink:href="ParticleSet_8h.html" target="_top" xlink:title=" ">
<polygon fill="white" stroke="black" points="25.07,-112.5 25.07,-131.5 156.07,-131.5 156.07,-112.5 25.07,-112.5"/>
<text text-anchor="middle" x="90.57" y="-119.5" font-family="Helvetica,sans-Serif" font-size="10.00">BayesFilters/ParticleSet.h</text>
</a>
</g>
</g>
<!-- Node1&#45;&gt;Node2 -->
<g id="edge1" class="edge">
<title>Node1&#45;&gt;Node2</title>
<path fill="none" stroke="midnightblue" d="M122.27,-235.23C117.97,-223.93 113.29,-210.98 109.57,-199 103.54,-179.56 98.06,-156.87 94.56,-141.38"/>
<polygon fill="midnightblue" stroke="midnightblue" points="97.96,-140.53 92.38,-131.52 91.12,-142.04 97.96,-140.53"/>
</g>
<!-- Node6 -->
<g id="node6" class="node">
<title>Node6</title>
<g id="a_node6"><a xlink:href="ParticleSetInitialization_8h.html" target="_top" xlink:title=" ">
<polygon fill="white" stroke="black" points="118.57,-168.5 118.57,-198.5 240.57,-198.5 240.57,-168.5 118.57,-168.5"/>
<text text-anchor="start" x="126.57" y="-186.5" font-family="Helvetica,sans-Serif" font-size="10.00">BayesFilters/ParticleSet</text>
<text text-anchor="middle" x="179.57" y="-175.5" font-family="Helvetica,sans-Serif" font-size="10.00">Initialization.h</text>
</a>
</g>
</g>
<!-- Node1&#45;&gt;Node6 -->
<g id="edge6" class="edge">
<title>Node1&#45;&gt;Node6</title>
<path fill="none" stroke="midnightblue" d="M151.59,-235.19C156.7,-225.92 162.23,-215.92 167,-207.27"/>
<polygon fill="midnightblue" stroke="midnightblue" points="170.06,-208.96 171.83,-198.52 163.94,-205.58 170.06,-208.96"/>
</g>
<!-- Node3 -->
<g id="node3" class="node">
<title>Node3</title>
<g id="a_node3"><a xlink:href="GaussianMixture_8h.html" target="_top" xlink:title=" ">
<polygon fill="white" stroke="black" points="12.57,-56.5 12.57,-75.5 168.57,-75.5 168.57,-56.5 12.57,-56.5"/>
<text text-anchor="middle" x="90.57" y="-63.5" font-family="Helvetica,sans-Serif" font-size="10.00">BayesFilters/GaussianMixture.h</text>
</a>
</g>
</g>
<!-- Node2&#45;&gt;Node3 -->
<g id="edge2" class="edge">
<title>Node2&#45;&gt;Node3</title>
<path fill="none" stroke="midnightblue" d="M90.57,-112.08C90.57,-105.01 90.57,-94.86 90.57,-85.99"/>
<polygon fill="midnightblue" stroke="midnightblue" points="94.07,-85.75 90.57,-75.75 87.07,-85.75 94.07,-85.75"/>
</g>
<!-- Node4 -->
<g id="node4" class="node">
<title>Node4</title>
<g id="a_node4"><a xlink:title=" ">
<polygon fill="white" stroke="#bfbfbf" points="22.57,-0.5 22.57,-19.5 66.57,-19.5 66.57,-0.5 22.57,-0.5"/>
<text text-anchor="middle" x="44.57" y="-7.5" font-family="Helvetica,sans-Serif" font-size="10.00">vector</text>
</a>
</g>
</g>
<!-- Node2&#45;&gt;Node4 -->
<g id="edge5" class="edge">
<title>Node2&#45;&gt;Node4</title>
<path fill="none" stroke="midnightblue" d="M55.56,-112.45C36.64,-105.84 14.89,-94.59 3.57,-76 -6.9,-58.79 9.25,-39.26 24.26,-26.14"/>
<polygon fill="midnightblue" stroke="midnightblue" points="26.78,-28.6 32.31,-19.57 22.35,-23.18 26.78,-28.6"/>
</g>
<!-- Node3&#45;&gt;Node4 -->
<g id="edge3" class="edge">
<title>Node3&#45;&gt;Node4</title>
<path fill="none" stroke="midnightblue" d="M82.98,-56.08C76.35,-48.3 66.55,-36.8 58.52,-27.37"/>
<polygon fill="midnightblue" stroke="midnightblue" points="61.18,-25.09 52.03,-19.75 55.85,-29.63 61.18,-25.09"/>
</g>
<!-- Node5 -->
<g id="node5" class="node">
<title>Node5</title>
<g id="a_node5"><a xlink:title=" ">
<polygon fill="white" stroke="#bfbfbf" points="99.07,-0.5 99.07,-19.5 172.07,-19.5 172.07,-0.5 99.07,-0.5"/>
<text text-anchor="middle" x="135.57" y="-7.5" font-family="Helvetica,sans-Serif" font-size="10.00">Eigen/Dense</text>
</a>
</g>
</g>
<!-- Node3&#45;&gt;Node5 -->
<g id="edge4" class="edge">
<title>Node3&#45;&gt;Node5</title>
<path fill="none" stroke="midnightblue" d="M98,-56.08C104.43,-48.38 113.88,-37.03 121.7,-27.65"/>
<polygon fill="midnightblue" stroke="midnightblue" points="124.57,-29.67 128.28,-19.75 119.19,-25.19 124.57,-29.67"/>
</g>
<!-- Node6&#45;&gt;Node2 -->
<g id="edge7" class="edge">
<title>Node6&#45;&gt;Node2</title>
<path fill="none" stroke="midnightblue" d="M158.48,-168.4C144.48,-159.04 126.16,-146.79 112.08,-137.38"/>
<polygon fill="midnightblue" stroke="midnightblue" points="113.78,-134.31 103.52,-131.66 109.89,-140.13 113.78,-134.31"/>
</g>
<!-- Node6&#45;&gt;Node5 -->
<g id="edge8" class="edge">
<title>Node6&#45;&gt;Node5</title>
<path fill="none" stroke="midnightblue" d="M182.56,-168.19C186.92,-144.03 192.94,-94.09 177.57,-56 172.97,-44.58 164.01,-34.33 155.54,-26.51"/>
<polygon fill="midnightblue" stroke="midnightblue" points="157.59,-23.66 147.73,-19.79 153.03,-28.96 157.59,-23.66"/>
</g>
</g>
</svg>
