<?xml version="1.0" encoding="UTF-8" standalone="no"?>
<!DOCTYPE svg PUBLIC "-//W3C//DTD SVG 1.1//EN"
 "http://www.w3.org/Graphics/SVG/1.1/DTD/svg11.dtd">
<!-- Generated by graphviz version 2.43.0 (0)
 -->
<!-- Title: /home/user/bayes&#45;filters&#45;lib/src/BayesFilters/include/BayesFilters/InitSurveillanceAreaGrid.h Pages: 1 -->
<svg width="266pt" height="285pt"
 viewBox="0.00 0.00 266.27 285.00" xmlns="http://www.w3.org/2000/svg" xmlns:xlink="http://www.w3.org/1999/xlink">
<g id="graph0" class="graph" transform="scale(1 1) rotate(0) translate(4 281)">
<title>/home/user/bayes&#45;filters&#45;lib/src/BayesFilters/include/BayesFilters/InitSurveillanceAreaGrid.h</title>
<polygon fill="white" stroke="transparent" points="-4,4 -4,-281 262.27,-281 262.27,4 -4,4"/>
<!-- Node1 -->
<g id="node1" class="node">
<title>Node1</title>
<g id="a_node1"><a xlink:title=" ">
<polygon fill="#bfbfbf" stroke="black" points="40.77,-235.5 40.77,-276.5 250.77,-276.5 250.77,-235.5 40.77,-235.5"/>
<text text-anchor="start" x="48.77" y="-264.5" font-family="Helvetica,sans-Serif" font-size="10.00">/home/user/bayes&#45;filters</text>
<text text-anchor="start" x="48.77" y="-253.5" font-family="Helvetica,sans-Serif" font-size="10.00">&#45;lib/src/BayesFilters/include</text>
<text text-anchor="middle" x="145.77" y="-242.5" font-family="Helvetica,sans-Serif" font-size="10.00">/BayesFilters/InitSurveillanceAreaGrid.h</text>
</a>
</g>
</g>
<!-- Node2 -->
<g id="node2" class="node">
<title>Node2</title>
<g id="a_node2"><a xlink:href="ParticleSet_8h.html" target="_top" xlink:title=" ">
<polygon fill="white" stroke="black" points="28.77,-112.5 28.77,-131.5 168.77,-131.5 168.77,-112.5 28.77,-112.5"/>
<text text-anchor="middle" x="98.77" y="-119.5" font-family="Helvetica,sans-Serif" font-size="10.00">BayesFilters/ParticleSet.h</text>
</a>
</g>
</g>
<!-- Node1&#45;&gt;Node2 -->
<g id="edge1" class="edge">
<title>Node1&#45;&gt;Node2</title>
<path fill="none" stroke="midnightblue" d="M135.19,-235.45C129.77,-224.87 123.36,-211.46 118.77,-199 111.7,-179.84 106.06,-157.11 102.59,-141.53"/>
<polygon fill="midnightblue" stroke="midnightblue" points="105.98,-140.64 100.46,-131.6 99.14,-142.11 105.98,-140.64"/>
</g>
<!-- Node6 -->
<g id="node6" class="node">
<title>Node6</title>
<g id="a_node6"><a xlink:href="ParticleSetInitialization_8h.html" target="_top" xlink:title=" ">
<polygon fill="white" stroke="black" points="127.27,-168.5 127.27,-198.5 258.27,-198.5 258.27,-168.5 127.27,-168.5"/>
<text text-anchor="start" x="135.27" y="-186.5" font-family="Helvetica,sans-Serif" font-size="10.00">BayesFilters/ParticleSet</text>
<text text-anchor="middle" x="192.77" y="-175.5" font-family="Helvetica,sans-Serif" font-size="10.00">Initialization.h</text>
</a>
</g>
</g>
<!-- Node1&#45;&gt;Node6 -->
<g id="edge6" class="edge">
<title>Node1&#45;&gt;Node6</title>
<path fill="none" stroke="midnightblue" d="M158.86,-235.36C164.64,-226.68 171.48,-216.42 177.5,-207.4"/>
<polygon fill="midnightblue" stroke="midnightblue" points="180.54,-209.15 183.17,-198.89 174.71,-205.27 180.54,-209.15"/>
</g>
<!-- Node3 -->
<g id="node3" class="node">
<title>Node3</title>
<g id="a_node3"><a xlink:href="GaussianMixture_8h.html" target="_top" xlink:title=" ">
<polygon fill="white" stroke="black" points="13.27,-56.5 13.27,-75.5 184.27,-75.5 184.27,-56.5 13.27,-56.5"/>
<text text-anchor="middle" x="98.77" y="-63.5" font-family="Helvetica,sans-Serif" font-size="10.00">BayesFilters/GaussianMixture.h</text>
</a>
</g>
</g>
<!-- Node2&#45;&gt;Node3 -->
<g id="edge2" class="edge">
<title>Node2&#45;&gt;Node3</title>
<path fill="none" stroke="midnightblue" d="M98.77,-112.08C98.77,-105.01 98.77,-94.86 98.77,-85.99"/>
<polygon fill="midnightblue" stroke="midnightblue" points="102.27,-85.75 98.77,-75.75 95.27,-85.75 102.27,-85.75"/>
</g>
<!-- Node4 -->
<g id="node4" class="node">
<title>Node4</title>
<g id="a_node4"><a xlink:title=" ">
<polygon fill="white" stroke="#bfbfbf" points="26.27,-0.5 26.27,-19.5 73.27,-19.5 73.27,-0.5 26.27,-0.5"/>
<text text-anchor="middle" x="49.77" y="-7.5" font-family="Helvetica,sans-Serif" font-size="10.00">vector</text>
</a>
</g>
</g>
<!-- Node2&#45;&gt;Node4 -->
<g id="edge5" class="edge">
<title>Node2&#45;&gt;Node4</title>
<path fill="none" stroke="midnightblue" d="M57.71,-112.38C37.81,-105.92 15.67,-94.81 3.77,-76 -7.44,-58.29 10.75,-38.77 27.46,-25.78"/>
<polygon fill="midnightblue" stroke="midnightblue" points="29.87,-28.35 35.89,-19.63 25.75,-22.7 29.87,-28.35"/>
</g>
<!-- Node3&#45;&gt;Node4 -->
<g id="edge3" class="edge">
<title>Node3&#45;&gt;Node4</title>
<path fill="none" stroke="midnightblue" d="M90.67,-56.08C83.61,-48.3 73.18,-36.8 64.62,-27.37"/>
<polygon fill="midnightblue" stroke="midnightblue" points="67.02,-24.8 57.71,-19.75 61.83,-29.51 67.02,-24.8"/>
</g>
<!-- Node5 -->
<g id="node5" class="node">
<title>Node5</title>
<g id="a_node5"><a xlink:title=" ">
<polygon fill="white" stroke="#bfbfbf" points="108.27,-0.5 108.27,-19.5 185.27,-19.5 185.27,-0.5 108.27,-0.5"/>
<text text-anchor="middle" x="146.77" y="-7.5" font-family="Helvetica,sans-Serif" font-size="10.00">Eigen/Dense</text>
</a>
</g>
</g>
<!-- Node3&#45;&gt;Node5 -->
<g id="edge4" class="edge">
<title>Node3&#45;&gt;Node5</title>
<path fill="none" stroke="midnightblue" d="M106.69,-56.08C113.61,-48.3 123.83,-36.8 132.22,-27.37"/>
<polygon fill="midnightblue" stroke="midnightblue" points="134.96,-29.55 138.99,-19.75 129.73,-24.9 134.96,-29.55"/>
</g>
<!-- Node6&#45;&gt;Node2 -->
<g id="edge7" class="edge">
<title>Node6&#45;&gt;Node2</title>
<path fill="none" stroke="midnightblue" d="M170.49,-168.4C155.56,-158.95 135.98,-146.56 121.06,-137.11"/>
<polygon fill="midnightblue" stroke="midnightblue" points="122.76,-134.05 112.44,-131.66 119.02,-139.96 122.76,-134.05"/>
</g>
<!-- Node6&#45;&gt;Node5 -->
<g id="edge8" class="edge">
<title>Node6&#45;&gt;Node5</title>
<path fill="none" stroke="midnightblue" d="M196.46,-168.12C201.93,-143.86 209.89,-93.77 193.77,-56 188.62,-43.95 178.48,-33.58 168.94,-25.84"/>
<polygon fill="midnightblue" stroke="midnightblue" points="170.94,-22.96 160.84,-19.74 166.73,-28.55 170.94,-22.96"/>
</g>
</g>
</svg>
