<?xml version="1.0" encoding="UTF-8" standalone="no"?>
<!DOCTYPE svg PUBLIC "-//W3C//DTD SVG 1.1//EN"
 "http://www.w3.org/Graphics/SVG/1.1/DTD/svg11.dtd">
<!-- Generated by graphviz version 2.43.0 (0)
 -->
<!-- Title: /home/user/bayes&#45;filters&#45;lib/src/BayesFilters/src/InitSurveillanceAreaGrid.cpp Pages: 1 -->
<svg width="266pt" height="352pt"
 viewBox="0.00 0.00 266.27 352.00" xmlns="http://www.w3.org/2000/svg" xmlns:xlink="http://www.w3.org/1999/xlink">
<g id="graph0" class="graph" transform="scale(1 1) rotate(0) translate(4 348)">
<title>/home/user/bayes&#45;filters&#45;lib/src/BayesFilters/src/InitSurveillanceAreaGrid.cpp</title>
<polygon fill="white" stroke="transparent" points="-4,4 -4,-348 262.27,-348 262.27,4 -4,4"/>
<!-- Node1 -->
<g id="node1" class="node">
<title>Node1</title>
<g id="a_node1"><a xlink:title=" ">
<polygon fill="#bfbfbf" stroke="black" points="66.77,-302.5 66.77,-343.5 224.77,-343.5 224.77,-302.5 66.77,-302.5"/>
<text text-anchor="start" x="74.77" y="-331.5" font-family="Helvetica,sans-Serif" font-size="10.00">/home/user/bayes&#45;filters</text>
<text text-anchor="start" x="74.77" y="-320.5" font-family="Helvetica,sans-Serif" font-size="10.00">&#45;lib/src/BayesFilters/src</text>
<text text-anchor="middle" x="145.77" y="-309.5" font-family="Helvetica,sans-Serif" font-size="10.00">/InitSurveillanceAreaGrid.cpp</text>
</a>
</g>
</g>
<!-- Node2 -->
<g id="node2" class="node">
<title>Node2</title>
<g id="a_node2"><a xlink:href="InitSurveillanceAreaGrid_8h.html" target="_top" xlink:title=" ">
<polygon fill="white" stroke="black" points="68.27,-235.5 68.27,-265.5 223.27,-265.5 223.27,-235.5 68.27,-235.5"/>
<text text-anchor="start" x="76.27" y="-253.5" font-family="Helvetica,sans-Serif" font-size="10.00">BayesFilters/InitSurveillance</text>
<text text-anchor="middle" x="145.77" y="-242.5" font-family="Helvetica,sans-Serif" font-size="10.00">AreaGrid.h</text>
</a>
</g>
</g>
<!-- Node1&#45;&gt;Node2 -->
<g id="edge1" class="edge">
<title>Node1&#45;&gt;Node2</title>
<path fill="none" stroke="midnightblue" d="M145.77,-302.36C145.77,-294.23 145.77,-284.7 145.77,-276.11"/>
<polygon fill="midnightblue" stroke="midnightblue" points="149.27,-275.89 145.77,-265.89 142.27,-275.89 149.27,-275.89"/>
</g>
<!-- Node3 -->
<g id="node3" class="node">
<title>Node3</title>
<g id="a_node3"><a xlink:href="ParticleSet_8h.html" target="_top" xlink:title=" ">
<polygon fill="white" stroke="black" points="28.77,-112.5 28.77,-131.5 168.77,-131.5 168.77,-112.5 28.77,-112.5"/>
<text text-anchor="middle" x="98.77" y="-119.5" font-family="Helvetica,sans-Serif" font-size="10.00">BayesFilters/ParticleSet.h</text>
</a>
</g>
</g>
<!-- Node2&#45;&gt;Node3 -->
<g id="edge2" class="edge">
<title>Node2&#45;&gt;Node3</title>
<path fill="none" stroke="midnightblue" d="M137.04,-235.34C131.23,-225.45 123.78,-211.77 118.77,-199 111.3,-179.99 105.73,-157.23 102.39,-141.6"/>
<polygon fill="midnightblue" stroke="midnightblue" points="105.78,-140.74 100.35,-131.64 98.92,-142.14 105.78,-140.74"/>
</g>
<!-- Node7 -->
<g id="node7" class="node">
<title>Node7</title>
<g id="a_node7"><a xlink:href="ParticleSetInitialization_8h.html" target="_top" xlink:title=" ">
<polygon fill="white" stroke="black" points="127.27,-168.5 127.27,-198.5 258.27,-198.5 258.27,-168.5 127.27,-168.5"/>
<text text-anchor="start" x="135.27" y="-186.5" font-family="Helvetica,sans-Serif" font-size="10.00">BayesFilters/ParticleSet</text>
<text text-anchor="middle" x="192.77" y="-175.5" font-family="Helvetica,sans-Serif" font-size="10.00">Initialization.h</text>
</a>
</g>
</g>
<!-- Node2&#45;&gt;Node7 -->
<g id="edge7" class="edge">
<title>Node2&#45;&gt;Node7</title>
<path fill="none" stroke="midnightblue" d="M155.96,-235.4C162,-227.05 169.78,-216.29 176.63,-206.81"/>
<polygon fill="midnightblue" stroke="midnightblue" points="179.56,-208.73 182.59,-198.58 173.89,-204.63 179.56,-208.73"/>
</g>
<!-- Node4 -->
<g id="node4" class="node">
<title>Node4</title>
<g id="a_node4"><a xlink:href="GaussianMixture_8h.html" target="_top" xlink:title=" ">
<polygon fill="white" stroke="black" points="13.27,-56.5 13.27,-75.5 184.27,-75.5 184.27,-56.5 13.27,-56.5"/>
<text text-anchor="middle" x="98.77" y="-63.5" font-family="Helvetica,sans-Serif" font-size="10.00">BayesFilters/GaussianMixture.h</text>
</a>
</g>
</g>
<!-- Node3&#45;&gt;Node4 -->
<g id="edge3" class="edge">
<title>Node3&#45;&gt;Node4</title>
<path fill="none" stroke="midnightblue" d="M98.77,-112.08C98.77,-105.01 98.77,-94.86 98.77,-85.99"/>
<polygon fill="midnightblue" stroke="midnightblue" points="102.27,-85.75 98.77,-75.75 95.27,-85.75 102.27,-85.75"/>
</g>
<!-- Node5 -->
<g id="node5" class="node">
<title>Node5</title>
<g id="a_node5"><a xlink:title=" ">
<polygon fill="white" stroke="#bfbfbf" points="26.27,-0.5 26.27,-19.5 73.27,-19.5 73.27,-0.5 26.27,-0.5"/>
<text text-anchor="middle" x="49.77" y="-7.5" font-family="Helvetica,sans-Serif" font-size="10.00">vector</text>
</a>
</g>
</g>
<!-- Node3&#45;&gt;Node5 -->
<g id="edge6" class="edge">
<title>Node3&#45;&gt;Node5</title>
<path fill="none" stroke="midnightblue" d="M57.71,-112.38C37.81,-105.92 15.67,-94.81 3.77,-76 -7.44,-58.29 10.75,-38.77 27.46,-25.78"/>
<polygon fill="midnightblue" stroke="midnightblue" points="29.87,-28.35 35.89,-19.63 25.75,-22.7 29.87,-28.35"/>
</g>
<!-- Node4&#45;&gt;Node5 -->
<g id="edge4" class="edge">
<title>Node4&#45;&gt;Node5</title>
<path fill="none" stroke="midnightblue" d="M90.67,-56.08C83.61,-48.3 73.18,-36.8 64.62,-27.37"/>
<polygon fill="midnightblue" stroke="midnightblue" points="67.02,-24.8 57.71,-19.75 61.83,-29.51 67.02,-24.8"/>
</g>
<!-- Node6 -->
<g id="node6" class="node">
<title>Node6</title>
<g id="a_node6"><a xlink:title=" ">
<polygon fill="white" stroke="#bfbfbf" points="108.27,-0.5 108.27,-19.5 185.27,-19.5 185.27,-0.5 108.27,-0.5"/>
<text text-anchor="middle" x="146.77" y="-7.5" font-family="Helvetica,sans-Serif" font-size="10.00">Eigen/Dense</text>
</a>
</g>
</g>
<!-- Node4&#45;&gt;Node6 -->
<g id="edge5" class="edge">
<title>Node4&#45;&gt;Node6</title>
<path fill="none" stroke="midnightblue" d="M106.69,-56.08C113.61,-48.3 123.83,-36.8 132.22,-27.37"/>
<polygon fill="midnightblue" stroke="midnightblue" points="134.96,-29.55 138.99,-19.75 129.73,-24.9 134.96,-29.55"/>
</g>
<!-- Node7&#45;&gt;Node3 -->
<g id="edge8" class="edge">
<title>Node7&#45;&gt;Node3</title>
<path fill="none" stroke="midnightblue" d="M170.49,-168.4C155.56,-158.95 135.98,-146.56 121.06,-137.11"/>
<polygon fill="midnightblue" stroke="midnightblue" points="122.76,-134.05 112.44,-131.66 119.02,-139.96 122.76,-134.05"/>
</g>
<!-- Node7&#45;&gt;Node6 -->
<g id="edge9" class="edge">
<title>Node7&#45;&gt;Node6</title>
<path fill="none" stroke="midnightblue" d="M196.46,-168.12C201.93,-143.86 209.89,-93.77 193.77,-56 188.62,-43.95 178.48,-33.58 168.94,-25.84"/>
<polygon fill="midnightblue" stroke="midnightblue" points="170.94,-22.96 160.84,-19.74 166.73,-28.55 170.94,-22.96"/>
</g>
</g>
</svg>
