<?xml version="1.0" encoding="UTF-8" standalone="no"?>
<!DOCTYPE svg PUBLIC "-//W3C//DTD SVG 1.1//EN"
 "http://www.w3.org/Graphics/SVG/1.1/DTD/svg11.dtd">
<!-- Generated by graphviz version 2.47.2 (0)
 -->
<!-- Title: /home/xenvre/robot&#45;code/bfl_robotology/src/BayesFilters/src/KFCorrection.cpp Pages: 1 -->
<!--zoomable 486 -->
<svg id="main" version="1.1" xmlns="http://www.w3.org/2000/svg" xmlns:xlink="http://www.w3.org/1999/xlink" xml:space="preserve" onload="init(evt)">
<style type="text/css"><![CDATA[
.edge:hover path { stroke: red; }
.edge:hover polygon { stroke: red; fill: red; }
]]></style>
<script type="text/javascript"><![CDATA[
var edges = document.getElementsByTagName('g');
if (edges && edges.length) {
  for (var i=0;i<edges.length;i++) {
    if (edges[i].id.substr(0,4)=='edge') {
      edges[i].setAttribute('class','edge');
    }
  }
}
]]></script>
        <defs>
                <circle id="rim" cx="0" cy="0" r="7"/>
                <circle id="rim2" cx="0" cy="0" r="3.5"/>
                <g id="zoomPlus">
                        <use xlink:href="#rim" fill="#404040">
                                <set attributeName="fill" to="#808080" begin="zoomplus.mouseover" end="zoomplus.mouseout"/>
                        </use>
                        <path d="M-4,0h8M0,-4v8" fill="none" stroke="white" stroke-width="1.5" pointer-events="none"/>
                </g>
                <g id="zoomMin">
                        <use xlink:href="#rim" fill="#404040">
                                <set attributeName="fill" to="#808080" begin="zoomminus.mouseover" end="zoomminus.mouseout"/>
                        </use>
                        <path d="M-4,0h8" fill="none" stroke="white" stroke-width="1.5" pointer-events="none"/>
                </g>
                <g id="dirArrow">
                        <path fill="none" stroke="white" stroke-width="1.5" d="M0,-3.0v7 M-2.5,-0.5L0,-3.0L2.5,-0.5"/>
                </g>
               <g id="resetDef">
                       <use xlink:href="#rim2" fill="#404040">
                               <set attributeName="fill" to="#808080" begin="reset.mouseover" end="reset.mouseout"/>
                       </use>
               </g>
        </defs>

<script type="text/javascript">
var viewWidth = 825;
var viewHeight = 486;
var sectionId = 'dynsection-0';
</script>
<script xlink:href="svgpan.js"/>
<svg id="graph" class="graph">
<g id="viewport">
<title>/home/xenvre/robot&#45;code/bfl_robotology/src/BayesFilters/src/KFCorrection.cpp</title>
<polygon fill="white" stroke="transparent" points="-4,4 -4,-482 820.5,-482 820.5,4 -4,4"/>
<!-- Node1 -->
<g id="node1" class="node">
<title>Node1</title>
<g id="a_node1"><a xlink:title=" ">
<polygon fill="#bfbfbf" stroke="black" points="610,-425.5 610,-477.5 717,-477.5 717,-425.5 610,-425.5"/>
<text text-anchor="start" x="618" y="-465.5" font-family="Helvetica,sans-Serif" font-size="10.00">/home/xenvre/robot</text>
<text text-anchor="start" x="618" y="-454.5" font-family="Helvetica,sans-Serif" font-size="10.00">&#45;code/bfl_robotology</text>
<text text-anchor="start" x="618" y="-443.5" font-family="Helvetica,sans-Serif" font-size="10.00">/src/BayesFilters/src</text>
<text text-anchor="middle" x="663.5" y="-432.5" font-family="Helvetica,sans-Serif" font-size="10.00">/KFCorrection.cpp</text>
</a>
</g>
</g>
<!-- Node2 -->
<g id="node2" class="node">
<title>Node2</title>
<g id="a_node2"><a xlink:href="KFCorrection_8h.html" target="_top" xlink:title=" ">
<polygon fill="white" stroke="black" points="544.5,-369.5 544.5,-388.5 684.5,-388.5 684.5,-369.5 544.5,-369.5"/>
<text text-anchor="middle" x="614.5" y="-376.5" font-family="Helvetica,sans-Serif" font-size="10.00">BayesFilters/KFCorrection.h</text>
</a>
</g>
</g>
<!-- Node1&#45;&gt;Node2 -->
<g id="edge1" class="edge">
<title>Node1&#45;&gt;Node2</title>
<path fill="none" stroke="midnightblue" d="M646.09,-425.45C639.54,-416.03 632.26,-405.55 626.34,-397.03"/>
<polygon fill="midnightblue" stroke="midnightblue" points="629.12,-394.91 620.54,-388.7 623.38,-398.9 629.12,-394.91"/>
</g>
<!-- Node22 -->
<g id="node22" class="node">
<title>Node22</title>
<g id="a_node22"><a xlink:href="utils_8h.html" target="_top" xlink:title=" ">
<polygon fill="white" stroke="black" points="681,-174 681,-193 782,-193 782,-174 681,-174"/>
<text text-anchor="middle" x="731.5" y="-181" font-family="Helvetica,sans-Serif" font-size="10.00">BayesFilters/utils.h</text>
</a>
</g>
</g>
<!-- Node1&#45;&gt;Node22 -->
<g id="edge29" class="edge">
<title>Node1&#45;&gt;Node22</title>
<path fill="none" stroke="midnightblue" d="M677.65,-425.42C683.29,-414.51 689.4,-401.41 693.5,-389 715.35,-322.78 725.86,-240.11 729.7,-203.48"/>
<polygon fill="midnightblue" stroke="midnightblue" points="733.21,-203.58 730.72,-193.28 726.25,-202.88 733.21,-203.58"/>
</g>
<!-- Node3 -->
<g id="node3" class="node">
<title>Node3</title>
<g id="a_node3"><a xlink:href="GaussianCorrection_8h.html" target="_top" xlink:title=" ">
<polygon fill="white" stroke="black" points="418,-241 418,-260 587,-260 587,-241 418,-241"/>
<text text-anchor="middle" x="502.5" y="-248" font-family="Helvetica,sans-Serif" font-size="10.00">BayesFilters/GaussianCorrection.h</text>
</a>
</g>
</g>
<!-- Node2&#45;&gt;Node3 -->
<g id="edge2" class="edge">
<title>Node2&#45;&gt;Node3</title>
<path fill="none" stroke="midnightblue" d="M606.8,-369.31C588.26,-348.36 540.88,-294.85 516.89,-267.75"/>
<polygon fill="midnightblue" stroke="midnightblue" points="519.5,-265.42 510.25,-260.26 514.26,-270.06 519.5,-265.42"/>
</g>
<!-- Node4 -->
<g id="node4" class="node">
<title>Node4</title>
<g id="a_node4"><a xlink:href="GaussianMixture_8h.html" target="_top" xlink:title=" ">
<polygon fill="white" stroke="black" points="430.5,-174 430.5,-193 586.5,-193 586.5,-174 430.5,-174"/>
<text text-anchor="middle" x="508.5" y="-181" font-family="Helvetica,sans-Serif" font-size="10.00">BayesFilters/GaussianMixture.h</text>
</a>
</g>
</g>
<!-- Node2&#45;&gt;Node4 -->
<g id="edge24" class="edge">
<title>Node2&#45;&gt;Node4</title>
<path fill="none" stroke="midnightblue" d="M615.8,-369.37C618.89,-345.65 624.42,-278.33 595.5,-235 583.72,-217.35 563.53,-205.08 545.56,-197.06"/>
<polygon fill="midnightblue" stroke="midnightblue" points="546.45,-193.64 535.87,-193.03 543.76,-200.1 546.45,-193.64"/>
</g>
<!-- Node6 -->
<g id="node6" class="node">
<title>Node6</title>
<g id="a_node6"><a xlink:title=" ">
<polygon fill="white" stroke="#bfbfbf" points="541,-112.5 541,-131.5 614,-131.5 614,-112.5 541,-112.5"/>
<text text-anchor="middle" x="577.5" y="-119.5" font-family="Helvetica,sans-Serif" font-size="10.00">Eigen/Dense</text>
</a>
</g>
</g>
<!-- Node2&#45;&gt;Node6 -->
<g id="edge28" class="edge">
<title>Node2&#45;&gt;Node6</title>
<path fill="none" stroke="midnightblue" d="M619.12,-369.34C623.56,-360.49 629.95,-346.22 632.5,-333 642.18,-282.72 626.12,-199.79 612.5,-168 607.99,-157.47 600.4,-147.26 593.44,-139.23"/>
<polygon fill="midnightblue" stroke="midnightblue" points="595.91,-136.74 586.57,-131.74 590.75,-141.47 595.91,-136.74"/>
</g>
<!-- Node20 -->
<g id="node20" class="node">
<title>Node20</title>
<g id="a_node20"><a xlink:href="LinearMeasurementModel_8h.html" target="_top" xlink:title=" ">
<polygon fill="white" stroke="black" points="275.5,-302.5 275.5,-332.5 435.5,-332.5 435.5,-302.5 275.5,-302.5"/>
<text text-anchor="start" x="283.5" y="-320.5" font-family="Helvetica,sans-Serif" font-size="10.00">BayesFilters/LinearMeasurement</text>
<text text-anchor="middle" x="355.5" y="-309.5" font-family="Helvetica,sans-Serif" font-size="10.00">Model.h</text>
</a>
</g>
</g>
<!-- Node2&#45;&gt;Node20 -->
<g id="edge25" class="edge">
<title>Node2&#45;&gt;Node20</title>
<path fill="none" stroke="midnightblue" d="M577.39,-369.48C538.13,-360.46 475.24,-346.01 426.42,-334.79"/>
<polygon fill="midnightblue" stroke="midnightblue" points="427.07,-331.35 416.54,-332.52 425.5,-338.17 427.07,-331.35"/>
</g>
<!-- Node3&#45;&gt;Node4 -->
<g id="edge3" class="edge">
<title>Node3&#45;&gt;Node4</title>
<path fill="none" stroke="midnightblue" d="M503.31,-240.73C504.19,-231.18 505.63,-215.62 506.77,-203.28"/>
<polygon fill="midnightblue" stroke="midnightblue" points="510.27,-203.41 507.7,-193.13 503.3,-202.76 510.27,-203.41"/>
</g>
<!-- Node3&#45;&gt;Node6 -->
<g id="edge23" class="edge">
<title>Node3&#45;&gt;Node6</title>
<path fill="none" stroke="midnightblue" d="M535.76,-240.93C556.9,-233.57 582.63,-220.63 595.5,-199 606.29,-180.86 597.3,-156.67 588.6,-140.51"/>
<polygon fill="midnightblue" stroke="midnightblue" points="591.46,-138.47 583.39,-131.6 585.42,-142 591.46,-138.47"/>
</g>
<!-- Node7 -->
<g id="node7" class="node">
<title>Node7</title>
<g id="a_node7"><a xlink:href="MeasurementModel_8h.html" target="_top" xlink:title=" ">
<polygon fill="white" stroke="black" points="278.5,-168.5 278.5,-198.5 412.5,-198.5 412.5,-168.5 278.5,-168.5"/>
<text text-anchor="start" x="286.5" y="-186.5" font-family="Helvetica,sans-Serif" font-size="10.00">BayesFilters/Measurement</text>
<text text-anchor="middle" x="345.5" y="-175.5" font-family="Helvetica,sans-Serif" font-size="10.00">Model.h</text>
</a>
</g>
</g>
<!-- Node3&#45;&gt;Node7 -->
<g id="edge6" class="edge">
<title>Node3&#45;&gt;Node7</title>
<path fill="none" stroke="midnightblue" d="M481.65,-240.87C458.09,-231.12 419.1,-214.97 388.86,-202.45"/>
<polygon fill="midnightblue" stroke="midnightblue" points="389.96,-199.12 379.38,-198.53 387.28,-205.59 389.96,-199.12"/>
</g>
<!-- Node5 -->
<g id="node5" class="node">
<title>Node5</title>
<g id="a_node5"><a xlink:title=" ">
<polygon fill="white" stroke="#bfbfbf" points="346.5,-56.5 346.5,-75.5 390.5,-75.5 390.5,-56.5 346.5,-56.5"/>
<text text-anchor="middle" x="368.5" y="-63.5" font-family="Helvetica,sans-Serif" font-size="10.00">vector</text>
</a>
</g>
</g>
<!-- Node4&#45;&gt;Node5 -->
<g id="edge4" class="edge">
<title>Node4&#45;&gt;Node5</title>
<path fill="none" stroke="midnightblue" d="M497.98,-173.82C474.36,-154.34 416.89,-106.92 387.1,-82.34"/>
<polygon fill="midnightblue" stroke="midnightblue" points="389.09,-79.45 379.14,-75.78 384.63,-84.85 389.09,-79.45"/>
</g>
<!-- Node4&#45;&gt;Node6 -->
<g id="edge5" class="edge">
<title>Node4&#45;&gt;Node6</title>
<path fill="none" stroke="midnightblue" d="M518.39,-173.98C529.15,-164.7 546.57,-149.67 559.72,-138.33"/>
<polygon fill="midnightblue" stroke="midnightblue" points="562.34,-140.69 567.63,-131.51 557.77,-135.39 562.34,-140.69"/>
</g>
<!-- Node7&#45;&gt;Node6 -->
<g id="edge22" class="edge">
<title>Node7&#45;&gt;Node6</title>
<path fill="none" stroke="midnightblue" d="M400.19,-168.47C441.26,-157.94 496.73,-143.72 534.62,-134"/>
<polygon fill="midnightblue" stroke="midnightblue" points="535.52,-137.38 544.33,-131.51 533.78,-130.6 535.52,-137.38"/>
</g>
<!-- Node8 -->
<g id="node8" class="node">
<title>Node8</title>
<g id="a_node8"><a xlink:href="Data_8h.html" target="_top" xlink:title=" ">
<polygon fill="white" stroke="black" points="98.5,-112.5 98.5,-131.5 202.5,-131.5 202.5,-112.5 98.5,-112.5"/>
<text text-anchor="middle" x="150.5" y="-119.5" font-family="Helvetica,sans-Serif" font-size="10.00">BayesFilters/Data.h</text>
</a>
</g>
</g>
<!-- Node7&#45;&gt;Node8 -->
<g id="edge7" class="edge">
<title>Node7&#45;&gt;Node8</title>
<path fill="none" stroke="midnightblue" d="M299.29,-168.4C265.45,-158.07 220.08,-144.23 188.37,-134.56"/>
<polygon fill="midnightblue" stroke="midnightblue" points="189.18,-131.14 178.59,-131.57 187.13,-137.84 189.18,-131.14"/>
</g>
<!-- Node11 -->
<g id="node11" class="node">
<title>Node11</title>
<g id="a_node11"><a xlink:title=" ">
<polygon fill="white" stroke="#bfbfbf" points="452.5,-0.5 452.5,-19.5 504.5,-19.5 504.5,-0.5 452.5,-0.5"/>
<text text-anchor="middle" x="478.5" y="-7.5" font-family="Helvetica,sans-Serif" font-size="10.00">memory</text>
</a>
</g>
</g>
<!-- Node7&#45;&gt;Node11 -->
<g id="edge19" class="edge">
<title>Node7&#45;&gt;Node11</title>
<path fill="none" stroke="midnightblue" d="M377.95,-168.34C394.9,-159.71 415.06,-147.39 429.5,-132 457.06,-102.63 469.97,-55.73 475.29,-29.79"/>
<polygon fill="midnightblue" stroke="midnightblue" points="478.76,-30.25 477.17,-19.78 471.88,-28.96 478.76,-30.25"/>
</g>
<!-- Node15 -->
<g id="node15" class="node">
<title>Node15</title>
<g id="a_node15"><a xlink:href="Logger_8h.html" target="_top" xlink:title=" ">
<polygon fill="white" stroke="black" points="290,-112.5 290,-131.5 401,-131.5 401,-112.5 290,-112.5"/>
<text text-anchor="middle" x="345.5" y="-119.5" font-family="Helvetica,sans-Serif" font-size="10.00">BayesFilters/Logger.h</text>
</a>
</g>
</g>
<!-- Node7&#45;&gt;Node15 -->
<g id="edge14" class="edge">
<title>Node7&#45;&gt;Node15</title>
<path fill="none" stroke="midnightblue" d="M345.5,-168.4C345.5,-160.47 345.5,-150.46 345.5,-141.86"/>
<polygon fill="midnightblue" stroke="midnightblue" points="349,-141.66 345.5,-131.66 342,-141.66 349,-141.66"/>
</g>
<!-- Node18 -->
<g id="node18" class="node">
<title>Node18</title>
<g id="a_node18"><a xlink:title=" ">
<polygon fill="white" stroke="#bfbfbf" points="409,-56.5 409,-75.5 450,-75.5 450,-56.5 409,-56.5"/>
<text text-anchor="middle" x="429.5" y="-63.5" font-family="Helvetica,sans-Serif" font-size="10.00">string</text>
</a>
</g>
</g>
<!-- Node7&#45;&gt;Node18 -->
<g id="edge20" class="edge">
<title>Node7&#45;&gt;Node18</title>
<path fill="none" stroke="midnightblue" d="M369.82,-168.46C383.26,-159.57 399.26,-146.95 409.5,-132 418.99,-118.15 424.11,-99.63 426.78,-85.91"/>
<polygon fill="midnightblue" stroke="midnightblue" points="430.29,-86.15 428.5,-75.71 423.39,-84.99 430.29,-86.15"/>
</g>
<!-- Node19 -->
<g id="node19" class="node">
<title>Node19</title>
<g id="a_node19"><a xlink:title=" ">
<polygon fill="white" stroke="#bfbfbf" points="231.5,-112.5 231.5,-131.5 271.5,-131.5 271.5,-112.5 231.5,-112.5"/>
<text text-anchor="middle" x="251.5" y="-119.5" font-family="Helvetica,sans-Serif" font-size="10.00">utility</text>
</a>
</g>
</g>
<!-- Node7&#45;&gt;Node19 -->
<g id="edge21" class="edge">
<title>Node7&#45;&gt;Node19</title>
<path fill="none" stroke="midnightblue" d="M323.22,-168.4C308.3,-158.95 288.72,-146.56 273.79,-137.11"/>
<polygon fill="midnightblue" stroke="midnightblue" points="275.5,-134.05 265.18,-131.66 271.76,-139.96 275.5,-134.05"/>
</g>
<!-- Node9 -->
<g id="node9" class="node">
<title>Node9</title>
<g id="a_node9"><a xlink:href="any_8h.html" target="_top" xlink:title=" ">
<polygon fill="white" stroke="black" points="91,-56.5 91,-75.5 188,-75.5 188,-56.5 91,-56.5"/>
<text text-anchor="middle" x="139.5" y="-63.5" font-family="Helvetica,sans-Serif" font-size="10.00">BayesFilters/any.h</text>
</a>
</g>
</g>
<!-- Node8&#45;&gt;Node9 -->
<g id="edge8" class="edge">
<title>Node8&#45;&gt;Node9</title>
<path fill="none" stroke="midnightblue" d="M148.68,-112.08C147.23,-104.93 145.13,-94.64 143.31,-85.69"/>
<polygon fill="midnightblue" stroke="midnightblue" points="146.71,-84.85 141.28,-75.75 139.85,-86.25 146.71,-84.85"/>
</g>
<!-- Node10 -->
<g id="node10" class="node">
<title>Node10</title>
<g id="a_node10"><a xlink:title=" ">
<polygon fill="white" stroke="#bfbfbf" points="226.5,-0.5 226.5,-19.5 282.5,-19.5 282.5,-0.5 226.5,-0.5"/>
<text text-anchor="middle" x="254.5" y="-7.5" font-family="Helvetica,sans-Serif" font-size="10.00">algorithm</text>
</a>
</g>
</g>
<!-- Node9&#45;&gt;Node10 -->
<g id="edge9" class="edge">
<title>Node9&#45;&gt;Node10</title>
<path fill="none" stroke="midnightblue" d="M157.72,-56.44C176.4,-47.68 205.66,-33.94 227.12,-23.86"/>
<polygon fill="midnightblue" stroke="midnightblue" points="228.8,-26.93 236.36,-19.52 225.82,-20.6 228.8,-26.93"/>
</g>
<!-- Node9&#45;&gt;Node11 -->
<g id="edge10" class="edge">
<title>Node9&#45;&gt;Node11</title>
<path fill="none" stroke="midnightblue" d="M188.07,-57.26C256.78,-46.32 380.8,-26.56 442.13,-16.79"/>
<polygon fill="midnightblue" stroke="midnightblue" points="442.8,-20.23 452.13,-15.2 441.7,-13.32 442.8,-20.23"/>
</g>
<!-- Node12 -->
<g id="node12" class="node">
<title>Node12</title>
<g id="a_node12"><a xlink:title=" ">
<polygon fill="white" stroke="#bfbfbf" points="0,-0.5 0,-19.5 59,-19.5 59,-0.5 0,-0.5"/>
<text text-anchor="middle" x="29.5" y="-7.5" font-family="Helvetica,sans-Serif" font-size="10.00">stdexcept</text>
</a>
</g>
</g>
<!-- Node9&#45;&gt;Node12 -->
<g id="edge11" class="edge">
<title>Node9&#45;&gt;Node12</title>
<path fill="none" stroke="midnightblue" d="M121.83,-56.32C104.11,-47.62 76.6,-34.12 56.21,-24.11"/>
<polygon fill="midnightblue" stroke="midnightblue" points="57.65,-20.92 47.13,-19.65 54.56,-27.2 57.65,-20.92"/>
</g>
<!-- Node13 -->
<g id="node13" class="node">
<title>Node13</title>
<g id="a_node13"><a xlink:title=" ">
<polygon fill="white" stroke="#bfbfbf" points="77,-0.5 77,-19.5 128,-19.5 128,-0.5 77,-0.5"/>
<text text-anchor="middle" x="102.5" y="-7.5" font-family="Helvetica,sans-Serif" font-size="10.00">typeinfo</text>
</a>
</g>
</g>
<!-- Node9&#45;&gt;Node13 -->
<g id="edge12" class="edge">
<title>Node9&#45;&gt;Node13</title>
<path fill="none" stroke="midnightblue" d="M133.39,-56.08C128.22,-48.53 120.65,-37.49 114.31,-28.23"/>
<polygon fill="midnightblue" stroke="midnightblue" points="117.04,-26.02 108.5,-19.75 111.26,-29.98 117.04,-26.02"/>
</g>
<!-- Node14 -->
<g id="node14" class="node">
<title>Node14</title>
<g id="a_node14"><a xlink:title=" ">
<polygon fill="white" stroke="#bfbfbf" points="146.5,-0.5 146.5,-19.5 208.5,-19.5 208.5,-0.5 146.5,-0.5"/>
<text text-anchor="middle" x="177.5" y="-7.5" font-family="Helvetica,sans-Serif" font-size="10.00">type_traits</text>
</a>
</g>
</g>
<!-- Node9&#45;&gt;Node14 -->
<g id="edge13" class="edge">
<title>Node9&#45;&gt;Node14</title>
<path fill="none" stroke="midnightblue" d="M145.77,-56.08C151.14,-48.46 159.02,-37.26 165.58,-27.94"/>
<polygon fill="midnightblue" stroke="midnightblue" points="168.45,-29.94 171.34,-19.75 162.72,-25.91 168.45,-29.94"/>
</g>
<!-- Node15&#45;&gt;Node5 -->
<g id="edge18" class="edge">
<title>Node15&#45;&gt;Node5</title>
<path fill="none" stroke="midnightblue" d="M349.3,-112.08C352.41,-104.77 356.92,-94.18 360.79,-85.1"/>
<polygon fill="midnightblue" stroke="midnightblue" points="364.07,-86.32 364.77,-75.75 357.63,-83.58 364.07,-86.32"/>
</g>
<!-- Node16 -->
<g id="node16" class="node">
<title>Node16</title>
<g id="a_node16"><a xlink:title=" ">
<polygon fill="white" stroke="#bfbfbf" points="206.5,-56.5 206.5,-75.5 256.5,-75.5 256.5,-56.5 206.5,-56.5"/>
<text text-anchor="middle" x="231.5" y="-63.5" font-family="Helvetica,sans-Serif" font-size="10.00">fstream</text>
</a>
</g>
</g>
<!-- Node15&#45;&gt;Node16 -->
<g id="edge15" class="edge">
<title>Node15&#45;&gt;Node16</title>
<path fill="none" stroke="midnightblue" d="M327.44,-112.44C308.93,-103.68 279.92,-89.94 258.64,-79.86"/>
<polygon fill="midnightblue" stroke="midnightblue" points="260.01,-76.63 249.48,-75.52 257.02,-82.96 260.01,-76.63"/>
</g>
<!-- Node17 -->
<g id="node17" class="node">
<title>Node17</title>
<g id="a_node17"><a xlink:title=" ">
<polygon fill="white" stroke="#bfbfbf" points="274.5,-56.5 274.5,-75.5 328.5,-75.5 328.5,-56.5 274.5,-56.5"/>
<text text-anchor="middle" x="301.5" y="-63.5" font-family="Helvetica,sans-Serif" font-size="10.00">iostream</text>
</a>
</g>
</g>
<!-- Node15&#45;&gt;Node17 -->
<g id="edge16" class="edge">
<title>Node15&#45;&gt;Node17</title>
<path fill="none" stroke="midnightblue" d="M338.23,-112.08C331.96,-104.38 322.71,-93.03 315.07,-83.65"/>
<polygon fill="midnightblue" stroke="midnightblue" points="317.66,-81.29 308.63,-75.75 312.23,-85.71 317.66,-81.29"/>
</g>
<!-- Node15&#45;&gt;Node18 -->
<g id="edge17" class="edge">
<title>Node15&#45;&gt;Node18</title>
<path fill="none" stroke="midnightblue" d="M359,-112.32C372.1,-103.9 392.21,-90.97 407.61,-81.07"/>
<polygon fill="midnightblue" stroke="midnightblue" points="409.52,-84.01 416.04,-75.65 405.73,-78.12 409.52,-84.01"/>
</g>
<!-- Node21 -->
<g id="node21" class="node">
<title>Node21</title>
<g id="a_node21"><a xlink:href="AdditiveMeasurementModel_8h.html" target="_top" xlink:title=" ">
<polygon fill="white" stroke="black" points="231,-235.5 231,-265.5 400,-265.5 400,-235.5 231,-235.5"/>
<text text-anchor="start" x="239" y="-253.5" font-family="Helvetica,sans-Serif" font-size="10.00">BayesFilters/AdditiveMeasurement</text>
<text text-anchor="middle" x="315.5" y="-242.5" font-family="Helvetica,sans-Serif" font-size="10.00">Model.h</text>
</a>
</g>
</g>
<!-- Node20&#45;&gt;Node21 -->
<g id="edge26" class="edge">
<title>Node20&#45;&gt;Node21</title>
<path fill="none" stroke="midnightblue" d="M346.82,-302.4C341.74,-294.13 335.2,-283.51 329.41,-274.1"/>
<polygon fill="midnightblue" stroke="midnightblue" points="332.38,-272.26 324.16,-265.58 326.42,-275.93 332.38,-272.26"/>
</g>
<!-- Node21&#45;&gt;Node7 -->
<g id="edge27" class="edge">
<title>Node21&#45;&gt;Node7</title>
<path fill="none" stroke="midnightblue" d="M322.01,-235.4C325.74,-227.3 330.53,-216.94 334.8,-207.69"/>
<polygon fill="midnightblue" stroke="midnightblue" points="337.99,-209.12 339,-198.58 331.63,-206.19 337.99,-209.12"/>
</g>
<!-- Node22&#45;&gt;Node6 -->
<g id="edge30" class="edge">
<title>Node22&#45;&gt;Node6</title>
<path fill="none" stroke="midnightblue" d="M709.44,-173.98C683.13,-163.81 638.99,-146.76 609.08,-135.2"/>
<polygon fill="midnightblue" stroke="midnightblue" points="610.11,-131.85 599.52,-131.51 607.59,-138.38 610.11,-131.85"/>
</g>
<!-- Node22&#45;&gt;Node11 -->
<g id="edge33" class="edge">
<title>Node22&#45;&gt;Node11</title>
<path fill="none" stroke="midnightblue" d="M733.13,-173.67C735.27,-159.22 737.3,-130.29 723.5,-112 672.87,-44.89 569.7,-22.13 514.78,-14.59"/>
<polygon fill="midnightblue" stroke="midnightblue" points="515.16,-11.11 504.79,-13.32 514.27,-18.06 515.16,-11.11"/>
</g>
<!-- Node22&#45;&gt;Node18 -->
<g id="edge34" class="edge">
<title>Node22&#45;&gt;Node18</title>
<path fill="none" stroke="midnightblue" d="M721.07,-173.96C702.43,-159.14 661.71,-128.65 622.5,-112 567.94,-88.83 499.39,-76.46 460.4,-70.85"/>
<polygon fill="midnightblue" stroke="midnightblue" points="460.61,-67.35 450.23,-69.45 459.65,-74.28 460.61,-67.35"/>
</g>
<!-- Node23 -->
<g id="node23" class="node">
<title>Node23</title>
<g id="a_node23"><a xlink:title=" ">
<polygon fill="white" stroke="#bfbfbf" points="770.5,-112.5 770.5,-131.5 816.5,-131.5 816.5,-112.5 770.5,-112.5"/>
<text text-anchor="middle" x="793.5" y="-119.5" font-family="Helvetica,sans-Serif" font-size="10.00">chrono</text>
</a>
</g>
</g>
<!-- Node22&#45;&gt;Node23 -->
<g id="edge31" class="edge">
<title>Node22&#45;&gt;Node23</title>
<path fill="none" stroke="midnightblue" d="M740.38,-173.98C749.96,-164.78 765.41,-149.96 777.19,-138.66"/>
<polygon fill="midnightblue" stroke="midnightblue" points="779.84,-140.96 784.63,-131.51 774.99,-135.91 779.84,-140.96"/>
</g>
<!-- Node24 -->
<g id="node24" class="node">
<title>Node24</title>
<g id="a_node24"><a xlink:title=" ">
<polygon fill="white" stroke="#bfbfbf" points="670.5,-112.5 670.5,-131.5 714.5,-131.5 714.5,-112.5 670.5,-112.5"/>
<text text-anchor="middle" x="692.5" y="-119.5" font-family="Helvetica,sans-Serif" font-size="10.00">cmath</text>
</a>
</g>
</g>
<!-- Node22&#45;&gt;Node24 -->
<g id="edge32" class="edge">
<title>Node22&#45;&gt;Node24</title>
<path fill="none" stroke="midnightblue" d="M725.91,-173.98C720.12,-165.14 710.91,-151.09 703.63,-139.98"/>
<polygon fill="midnightblue" stroke="midnightblue" points="706.49,-137.95 698.08,-131.51 700.63,-141.79 706.49,-137.95"/>
</g>
</g>
</svg>
        <g id="navigator" transform="translate(0 0)" fill="#404254">
                <rect fill="#f2f5e9" fill-opacity="0.5" stroke="#606060" stroke-width=".5" x="0" y="0" width="60" height="60"/>
                <use id="zoomplus" xlink:href="#zoomPlus" x="17" y="9" onmousedown="handleZoom(evt,'in')"/>
                <use id="zoomminus" xlink:href="#zoomMin" x="42" y="9" onmousedown="handleZoom(evt,'out')"/>
                <use id="reset" xlink:href="#resetDef" x="30" y="36" onmousedown="handleReset()"/>
                <g id="arrowUp" xlink:href="#dirArrow" transform="translate(30 24)" onmousedown="handlePan(0,-1)">
                  <use xlink:href="#rim" fill="#404040">
                        <set attributeName="fill" to="#808080" begin="arrowUp.mouseover" end="arrowUp.mouseout"/>
                  </use>
                  <path fill="none" stroke="white" stroke-width="1.5" d="M0,-3.0v7 M-2.5,-0.5L0,-3.0L2.5,-0.5"/>
                </g>
                <g id="arrowRight" xlink:href="#dirArrow" transform="rotate(90) translate(36 -43)" onmousedown="handlePan(1,0)">
                  <use xlink:href="#rim" fill="#404040">
                        <set attributeName="fill" to="#808080" begin="arrowRight.mouseover" end="arrowRight.mouseout"/>
                  </use>
                  <path fill="none" stroke="white" stroke-width="1.5" d="M0,-3.0v7 M-2.5,-0.5L0,-3.0L2.5,-0.5"/>
                </g>
                <g id="arrowDown" xlink:href="#dirArrow" transform="rotate(180) translate(-30 -48)" onmousedown="handlePan(0,1)">
                  <use xlink:href="#rim" fill="#404040">
                        <set attributeName="fill" to="#808080" begin="arrowDown.mouseover" end="arrowDown.mouseout"/>
                  </use>
                  <path fill="none" stroke="white" stroke-width="1.5" d="M0,-3.0v7 M-2.5,-0.5L0,-3.0L2.5,-0.5"/>
                </g>
                <g id="arrowLeft" xlink:href="#dirArrow" transform="rotate(270) translate(-36 17)" onmousedown="handlePan(-1,0)">
                  <use xlink:href="#rim" fill="#404040">
                        <set attributeName="fill" to="#808080" begin="arrowLeft.mouseover" end="arrowLeft.mouseout"/>
                  </use>
                  <path fill="none" stroke="white" stroke-width="1.5" d="M0,-3.0v7 M-2.5,-0.5L0,-3.0L2.5,-0.5"/>
                </g>
        </g>
        <svg viewBox="0 0 15 15" width="100%" height="30px" preserveAspectRatio="xMaxYMin meet">
         <g id="arrow_out" transform="scale(0.3 0.3)">
          <a xlink:href="KFCorrection_8cpp__incl_org.svg" target="_base">
           <rect id="button" ry="5" rx="5" y="6" x="6" height="38" width="38"
                fill="#f2f5e9" fill-opacity="0.5" stroke="#606060" stroke-width="1.0"/>
           <path id="arrow"
             d="M 11.500037,31.436501 C 11.940474,20.09759 22.043105,11.32322 32.158766,21.979434 L 37.068811,17.246167 C 37.068811,17.246167 37.088388,32 37.088388,32 L 22.160133,31.978069 C 22.160133,31.978069 26.997745,27.140456 26.997745,27.140456 C 18.528582,18.264221 13.291696,25.230495 11.500037,31.436501 z"
             style="fill:#404040;"/>
          </a>
         </g>
        </svg>
</svg>
