<?xml version="1.0" encoding="UTF-8" standalone="no"?>
<!DOCTYPE svg PUBLIC "-//W3C//DTD SVG 1.1//EN"
 "http://www.w3.org/Graphics/SVG/1.1/DTD/svg11.dtd">
<!-- Generated by graphviz version 2.47.2 (0)
 -->
<!-- Title: /home/xenvre/robot&#45;code/bfl_robotology/src/BayesFilters/include/BayesFilters/KFCorrection.h Pages: 1 -->
<svg width="780pt" height="430pt"
 viewBox="0.00 0.00 780.00 430.00" xmlns="http://www.w3.org/2000/svg" xmlns:xlink="http://www.w3.org/1999/xlink">
<g id="graph0" class="graph" transform="scale(1 1) rotate(0) translate(4 426)">
<title>/home/xenvre/robot&#45;code/bfl_robotology/src/BayesFilters/include/BayesFilters/KFCorrection.h</title>
<polygon fill="white" stroke="transparent" points="-4,4 -4,-426 776,-426 776,4 -4,4"/>
<!-- Node1 -->
<g id="node1" class="node">
<title>Node1</title>
<g id="a_node1"><a xlink:title=" ">
<polygon fill="#bfbfbf" stroke="black" points="175.5,-369.5 175.5,-421.5 318.5,-421.5 318.5,-369.5 175.5,-369.5"/>
<text text-anchor="start" x="183.5" y="-409.5" font-family="Helvetica,sans-Serif" font-size="10.00">/home/xenvre/robot</text>
<text text-anchor="start" x="183.5" y="-398.5" font-family="Helvetica,sans-Serif" font-size="10.00">&#45;code/bfl_robotology</text>
<text text-anchor="start" x="183.5" y="-387.5" font-family="Helvetica,sans-Serif" font-size="10.00">/src/BayesFilters/include</text>
<text text-anchor="middle" x="247" y="-376.5" font-family="Helvetica,sans-Serif" font-size="10.00">/BayesFilters/KFCorrection.h</text>
</a>
</g>
</g>
<!-- Node2 -->
<g id="node2" class="node">
<title>Node2</title>
<g id="a_node2"><a xlink:href="GaussianCorrection_8h.html" target="_top" xlink:title=" ">
<polygon fill="white" stroke="black" points="78.5,-241 78.5,-260 247.5,-260 247.5,-241 78.5,-241"/>
<text text-anchor="middle" x="163" y="-248" font-family="Helvetica,sans-Serif" font-size="10.00">BayesFilters/GaussianCorrection.h</text>
</a>
</g>
</g>
<!-- Node1&#45;&gt;Node2 -->
<g id="edge1" class="edge">
<title>Node1&#45;&gt;Node2</title>
<path fill="none" stroke="midnightblue" d="M232.18,-369.26C215.21,-340.38 187.88,-293.86 173.16,-268.8"/>
<polygon fill="midnightblue" stroke="midnightblue" points="176.11,-266.9 168.02,-260.05 170.07,-270.45 176.11,-266.9"/>
</g>
<!-- Node3 -->
<g id="node3" class="node">
<title>Node3</title>
<g id="a_node3"><a xlink:href="GaussianMixture_8h.html" target="_top" xlink:title=" ">
<polygon fill="white" stroke="black" points="0,-174 0,-193 156,-193 156,-174 0,-174"/>
<text text-anchor="middle" x="78" y="-181" font-family="Helvetica,sans-Serif" font-size="10.00">BayesFilters/GaussianMixture.h</text>
</a>
</g>
</g>
<!-- Node1&#45;&gt;Node3 -->
<g id="edge23" class="edge">
<title>Node1&#45;&gt;Node3</title>
<path fill="none" stroke="midnightblue" d="M187.2,-369.42C145.72,-348.45 93.64,-314.19 69,-266 58.8,-246.06 64.54,-219.84 70.48,-202.6"/>
<polygon fill="midnightblue" stroke="midnightblue" points="73.78,-203.75 74.06,-193.16 67.24,-201.26 73.78,-203.75"/>
</g>
<!-- Node5 -->
<g id="node5" class="node">
<title>Node5</title>
<g id="a_node5"><a xlink:title=" ">
<polygon fill="white" stroke="#bfbfbf" points="127.5,-112.5 127.5,-131.5 200.5,-131.5 200.5,-112.5 127.5,-112.5"/>
<text text-anchor="middle" x="164" y="-119.5" font-family="Helvetica,sans-Serif" font-size="10.00">Eigen/Dense</text>
</a>
</g>
</g>
<!-- Node1&#45;&gt;Node5 -->
<g id="edge27" class="edge">
<title>Node1&#45;&gt;Node5</title>
<path fill="none" stroke="midnightblue" d="M254.33,-369.32C262.38,-337.13 272.17,-280.17 256,-235 241.48,-194.46 205.26,-158.07 182.84,-138.4"/>
<polygon fill="midnightblue" stroke="midnightblue" points="184.88,-135.53 175,-131.7 180.33,-140.86 184.88,-135.53"/>
</g>
<!-- Node19 -->
<g id="node19" class="node">
<title>Node19</title>
<g id="a_node19"><a xlink:href="LinearMeasurementModel_8h.html" target="_top" xlink:title=" ">
<polygon fill="white" stroke="black" points="305,-302.5 305,-332.5 465,-332.5 465,-302.5 305,-302.5"/>
<text text-anchor="start" x="313" y="-320.5" font-family="Helvetica,sans-Serif" font-size="10.00">BayesFilters/LinearMeasurement</text>
<text text-anchor="middle" x="385" y="-309.5" font-family="Helvetica,sans-Serif" font-size="10.00">Model.h</text>
</a>
</g>
</g>
<!-- Node1&#45;&gt;Node19 -->
<g id="edge24" class="edge">
<title>Node1&#45;&gt;Node19</title>
<path fill="none" stroke="midnightblue" d="M292.57,-369.4C311.42,-359.02 332.92,-347.18 350.44,-337.53"/>
<polygon fill="midnightblue" stroke="midnightblue" points="352.13,-340.6 359.2,-332.71 348.76,-334.46 352.13,-340.6"/>
</g>
<!-- Node2&#45;&gt;Node3 -->
<g id="edge2" class="edge">
<title>Node2&#45;&gt;Node3</title>
<path fill="none" stroke="midnightblue" d="M151.54,-240.73C137.64,-230.11 114.02,-212.05 97.31,-199.26"/>
<polygon fill="midnightblue" stroke="midnightblue" points="99.35,-196.42 89.28,-193.13 95.1,-201.98 99.35,-196.42"/>
</g>
<!-- Node2&#45;&gt;Node5 -->
<g id="edge22" class="edge">
<title>Node2&#45;&gt;Node5</title>
<path fill="none" stroke="midnightblue" d="M163.44,-240.93C163.94,-230.88 164.71,-213.74 165,-199 165.27,-185.22 165.15,-181.78 165,-168 164.9,-159.4 164.71,-149.87 164.51,-141.8"/>
<polygon fill="midnightblue" stroke="midnightblue" points="168.01,-141.53 164.25,-131.63 161.01,-141.71 168.01,-141.53"/>
</g>
<!-- Node6 -->
<g id="node6" class="node">
<title>Node6</title>
<g id="a_node6"><a xlink:href="MeasurementModel_8h.html" target="_top" xlink:title=" ">
<polygon fill="white" stroke="black" points="311,-168.5 311,-198.5 445,-198.5 445,-168.5 311,-168.5"/>
<text text-anchor="start" x="319" y="-186.5" font-family="Helvetica,sans-Serif" font-size="10.00">BayesFilters/Measurement</text>
<text text-anchor="middle" x="378" y="-175.5" font-family="Helvetica,sans-Serif" font-size="10.00">Model.h</text>
</a>
</g>
</g>
<!-- Node2&#45;&gt;Node6 -->
<g id="edge5" class="edge">
<title>Node2&#45;&gt;Node6</title>
<path fill="none" stroke="midnightblue" d="M191.55,-240.87C224.65,-230.86 280,-214.13 321.82,-201.48"/>
<polygon fill="midnightblue" stroke="midnightblue" points="323.04,-204.77 331.6,-198.53 321.01,-198.07 323.04,-204.77"/>
</g>
<!-- Node4 -->
<g id="node4" class="node">
<title>Node4</title>
<g id="a_node4"><a xlink:title=" ">
<polygon fill="white" stroke="#bfbfbf" points="101,-56.5 101,-75.5 145,-75.5 145,-56.5 101,-56.5"/>
<text text-anchor="middle" x="123" y="-63.5" font-family="Helvetica,sans-Serif" font-size="10.00">vector</text>
</a>
</g>
</g>
<!-- Node3&#45;&gt;Node4 -->
<g id="edge3" class="edge">
<title>Node3&#45;&gt;Node4</title>
<path fill="none" stroke="midnightblue" d="M81.38,-173.82C88.68,-155.09 106.03,-110.55 115.87,-85.29"/>
<polygon fill="midnightblue" stroke="midnightblue" points="119.21,-86.37 119.58,-75.78 112.69,-83.83 119.21,-86.37"/>
</g>
<!-- Node3&#45;&gt;Node5 -->
<g id="edge4" class="edge">
<title>Node3&#45;&gt;Node5</title>
<path fill="none" stroke="midnightblue" d="M90.32,-173.98C104.12,-164.43 126.7,-148.81 143.23,-137.37"/>
<polygon fill="midnightblue" stroke="midnightblue" points="145.47,-140.08 151.7,-131.51 141.49,-134.32 145.47,-140.08"/>
</g>
<!-- Node6&#45;&gt;Node5 -->
<g id="edge21" class="edge">
<title>Node6&#45;&gt;Node5</title>
<path fill="none" stroke="midnightblue" d="M327.56,-168.47C289.99,-158.03 239.38,-143.96 204.45,-134.25"/>
<polygon fill="midnightblue" stroke="midnightblue" points="205.17,-130.81 194.59,-131.51 203.29,-137.56 205.17,-130.81"/>
</g>
<!-- Node7 -->
<g id="node7" class="node">
<title>Node7</title>
<g id="a_node7"><a xlink:href="Data_8h.html" target="_top" xlink:title=" ">
<polygon fill="white" stroke="black" points="515,-112.5 515,-131.5 619,-131.5 619,-112.5 515,-112.5"/>
<text text-anchor="middle" x="567" y="-119.5" font-family="Helvetica,sans-Serif" font-size="10.00">BayesFilters/Data.h</text>
</a>
</g>
</g>
<!-- Node6&#45;&gt;Node7 -->
<g id="edge6" class="edge">
<title>Node6&#45;&gt;Node7</title>
<path fill="none" stroke="midnightblue" d="M422.79,-168.4C455.45,-158.12 499.18,-144.35 529.89,-134.68"/>
<polygon fill="midnightblue" stroke="midnightblue" points="531.29,-137.91 539.77,-131.57 529.19,-131.24 531.29,-137.91"/>
</g>
<!-- Node10 -->
<g id="node10" class="node">
<title>Node10</title>
<g id="a_node10"><a xlink:title=" ">
<polygon fill="white" stroke="#bfbfbf" points="419,-0.5 419,-19.5 471,-19.5 471,-0.5 419,-0.5"/>
<text text-anchor="middle" x="445" y="-7.5" font-family="Helvetica,sans-Serif" font-size="10.00">memory</text>
</a>
</g>
</g>
<!-- Node6&#45;&gt;Node10 -->
<g id="edge18" class="edge">
<title>Node6&#45;&gt;Node10</title>
<path fill="none" stroke="midnightblue" d="M401.11,-168.39C413.4,-159.56 427.48,-147.01 435,-132 451.45,-99.13 450.13,-54.9 447.62,-30.03"/>
<polygon fill="midnightblue" stroke="midnightblue" points="451.06,-29.31 446.4,-19.8 444.1,-30.14 451.06,-29.31"/>
</g>
<!-- Node14 -->
<g id="node14" class="node">
<title>Node14</title>
<g id="a_node14"><a xlink:href="Logger_8h.html" target="_top" xlink:title=" ">
<polygon fill="white" stroke="black" points="218.5,-112.5 218.5,-131.5 329.5,-131.5 329.5,-112.5 218.5,-112.5"/>
<text text-anchor="middle" x="274" y="-119.5" font-family="Helvetica,sans-Serif" font-size="10.00">BayesFilters/Logger.h</text>
</a>
</g>
</g>
<!-- Node6&#45;&gt;Node14 -->
<g id="edge13" class="edge">
<title>Node6&#45;&gt;Node14</title>
<path fill="none" stroke="midnightblue" d="M353.35,-168.4C336.68,-158.86 314.77,-146.32 298.19,-136.84"/>
<polygon fill="midnightblue" stroke="midnightblue" points="299.55,-133.59 289.13,-131.66 296.07,-139.66 299.55,-133.59"/>
</g>
<!-- Node17 -->
<g id="node17" class="node">
<title>Node17</title>
<g id="a_node17"><a xlink:title=" ">
<polygon fill="white" stroke="#bfbfbf" points="328.5,-56.5 328.5,-75.5 369.5,-75.5 369.5,-56.5 328.5,-56.5"/>
<text text-anchor="middle" x="349" y="-63.5" font-family="Helvetica,sans-Serif" font-size="10.00">string</text>
</a>
</g>
</g>
<!-- Node6&#45;&gt;Node17 -->
<g id="edge19" class="edge">
<title>Node6&#45;&gt;Node17</title>
<path fill="none" stroke="midnightblue" d="M374.44,-168.34C369.22,-147.53 359.46,-108.66 353.67,-85.58"/>
<polygon fill="midnightblue" stroke="midnightblue" points="357.01,-84.52 351.18,-75.67 350.22,-86.22 357.01,-84.52"/>
</g>
<!-- Node18 -->
<g id="node18" class="node">
<title>Node18</title>
<g id="a_node18"><a xlink:title=" ">
<polygon fill="white" stroke="#bfbfbf" points="386,-112.5 386,-131.5 426,-131.5 426,-112.5 386,-112.5"/>
<text text-anchor="middle" x="406" y="-119.5" font-family="Helvetica,sans-Serif" font-size="10.00">utility</text>
</a>
</g>
</g>
<!-- Node6&#45;&gt;Node18 -->
<g id="edge20" class="edge">
<title>Node6&#45;&gt;Node18</title>
<path fill="none" stroke="midnightblue" d="M384.64,-168.4C388.54,-160.11 393.5,-149.55 397.67,-140.71"/>
<polygon fill="midnightblue" stroke="midnightblue" points="400.83,-142.2 401.93,-131.66 394.5,-139.22 400.83,-142.2"/>
</g>
<!-- Node8 -->
<g id="node8" class="node">
<title>Node8</title>
<g id="a_node8"><a xlink:href="any_8h.html" target="_top" xlink:title=" ">
<polygon fill="white" stroke="black" points="535.5,-56.5 535.5,-75.5 632.5,-75.5 632.5,-56.5 535.5,-56.5"/>
<text text-anchor="middle" x="584" y="-63.5" font-family="Helvetica,sans-Serif" font-size="10.00">BayesFilters/any.h</text>
</a>
</g>
</g>
<!-- Node7&#45;&gt;Node8 -->
<g id="edge7" class="edge">
<title>Node7&#45;&gt;Node8</title>
<path fill="none" stroke="midnightblue" d="M569.81,-112.08C572.08,-104.85 575.37,-94.41 578.21,-85.4"/>
<polygon fill="midnightblue" stroke="midnightblue" points="581.58,-86.34 581.25,-75.75 574.9,-84.24 581.58,-86.34"/>
</g>
<!-- Node9 -->
<g id="node9" class="node">
<title>Node9</title>
<g id="a_node9"><a xlink:title=" ">
<polygon fill="white" stroke="#bfbfbf" points="716,-0.5 716,-19.5 772,-19.5 772,-0.5 716,-0.5"/>
<text text-anchor="middle" x="744" y="-7.5" font-family="Helvetica,sans-Serif" font-size="10.00">algorithm</text>
</a>
</g>
</g>
<!-- Node8&#45;&gt;Node9 -->
<g id="edge8" class="edge">
<title>Node8&#45;&gt;Node9</title>
<path fill="none" stroke="midnightblue" d="M609.35,-56.44C636.27,-47.36 679,-32.94 709.09,-22.78"/>
<polygon fill="midnightblue" stroke="midnightblue" points="710.41,-26.03 718.77,-19.52 708.17,-19.4 710.41,-26.03"/>
</g>
<!-- Node8&#45;&gt;Node10 -->
<g id="edge9" class="edge">
<title>Node8&#45;&gt;Node10</title>
<path fill="none" stroke="midnightblue" d="M561.98,-56.44C538.9,-47.48 502.44,-33.31 476.36,-23.18"/>
<polygon fill="midnightblue" stroke="midnightblue" points="477.51,-19.88 466.92,-19.52 474.98,-26.4 477.51,-19.88"/>
</g>
<!-- Node11 -->
<g id="node11" class="node">
<title>Node11</title>
<g id="a_node11"><a xlink:title=" ">
<polygon fill="white" stroke="#bfbfbf" points="489.5,-0.5 489.5,-19.5 548.5,-19.5 548.5,-0.5 489.5,-0.5"/>
<text text-anchor="middle" x="519" y="-7.5" font-family="Helvetica,sans-Serif" font-size="10.00">stdexcept</text>
</a>
</g>
</g>
<!-- Node8&#45;&gt;Node11 -->
<g id="edge10" class="edge">
<title>Node8&#45;&gt;Node11</title>
<path fill="none" stroke="midnightblue" d="M573.56,-56.32C563.85,-48.26 549.18,-36.08 537.5,-26.37"/>
<polygon fill="midnightblue" stroke="midnightblue" points="539.56,-23.53 529.63,-19.83 535.09,-28.92 539.56,-23.53"/>
</g>
<!-- Node12 -->
<g id="node12" class="node">
<title>Node12</title>
<g id="a_node12"><a xlink:title=" ">
<polygon fill="white" stroke="#bfbfbf" points="566.5,-0.5 566.5,-19.5 617.5,-19.5 617.5,-0.5 566.5,-0.5"/>
<text text-anchor="middle" x="592" y="-7.5" font-family="Helvetica,sans-Serif" font-size="10.00">typeinfo</text>
</a>
</g>
</g>
<!-- Node8&#45;&gt;Node12 -->
<g id="edge11" class="edge">
<title>Node8&#45;&gt;Node12</title>
<path fill="none" stroke="midnightblue" d="M585.32,-56.08C586.38,-48.93 587.91,-38.64 589.23,-29.69"/>
<polygon fill="midnightblue" stroke="midnightblue" points="592.7,-30.16 590.7,-19.75 585.78,-29.13 592.7,-30.16"/>
</g>
<!-- Node13 -->
<g id="node13" class="node">
<title>Node13</title>
<g id="a_node13"><a xlink:title=" ">
<polygon fill="white" stroke="#bfbfbf" points="636,-0.5 636,-19.5 698,-19.5 698,-0.5 636,-0.5"/>
<text text-anchor="middle" x="667" y="-7.5" font-family="Helvetica,sans-Serif" font-size="10.00">type_traits</text>
</a>
</g>
</g>
<!-- Node8&#45;&gt;Node13 -->
<g id="edge12" class="edge">
<title>Node8&#45;&gt;Node13</title>
<path fill="none" stroke="midnightblue" d="M597.34,-56.32C610.16,-47.98 629.78,-35.21 644.94,-25.35"/>
<polygon fill="midnightblue" stroke="midnightblue" points="647.22,-28.04 653.7,-19.65 643.41,-22.17 647.22,-28.04"/>
</g>
<!-- Node14&#45;&gt;Node4 -->
<g id="edge17" class="edge">
<title>Node14&#45;&gt;Node4</title>
<path fill="none" stroke="midnightblue" d="M250.07,-112.44C224.33,-103.24 183.28,-88.56 154.83,-78.38"/>
<polygon fill="midnightblue" stroke="midnightblue" points="155.93,-75.06 145.34,-74.99 153.58,-81.65 155.93,-75.06"/>
</g>
<!-- Node15 -->
<g id="node15" class="node">
<title>Node15</title>
<g id="a_node15"><a xlink:title=" ">
<polygon fill="white" stroke="#bfbfbf" points="183,-56.5 183,-75.5 233,-75.5 233,-56.5 183,-56.5"/>
<text text-anchor="middle" x="208" y="-63.5" font-family="Helvetica,sans-Serif" font-size="10.00">fstream</text>
</a>
</g>
</g>
<!-- Node14&#45;&gt;Node15 -->
<g id="edge14" class="edge">
<title>Node14&#45;&gt;Node15</title>
<path fill="none" stroke="midnightblue" d="M263.4,-112.32C253.54,-104.26 238.65,-92.08 226.78,-82.37"/>
<polygon fill="midnightblue" stroke="midnightblue" points="228.75,-79.46 218.8,-75.83 224.32,-84.88 228.75,-79.46"/>
</g>
<!-- Node16 -->
<g id="node16" class="node">
<title>Node16</title>
<g id="a_node16"><a xlink:title=" ">
<polygon fill="white" stroke="#bfbfbf" points="251,-56.5 251,-75.5 305,-75.5 305,-56.5 251,-56.5"/>
<text text-anchor="middle" x="278" y="-63.5" font-family="Helvetica,sans-Serif" font-size="10.00">iostream</text>
</a>
</g>
</g>
<!-- Node14&#45;&gt;Node16 -->
<g id="edge15" class="edge">
<title>Node14&#45;&gt;Node16</title>
<path fill="none" stroke="midnightblue" d="M274.66,-112.08C275.18,-105.01 275.94,-94.86 276.59,-85.99"/>
<polygon fill="midnightblue" stroke="midnightblue" points="280.1,-85.98 277.35,-75.75 273.12,-85.47 280.1,-85.98"/>
</g>
<!-- Node14&#45;&gt;Node17 -->
<g id="edge16" class="edge">
<title>Node14&#45;&gt;Node17</title>
<path fill="none" stroke="midnightblue" d="M286.05,-112.32C297.46,-104.11 314.83,-91.6 328.43,-81.81"/>
<polygon fill="midnightblue" stroke="midnightblue" points="330.66,-84.52 336.73,-75.83 326.57,-78.84 330.66,-84.52"/>
</g>
<!-- Node20 -->
<g id="node20" class="node">
<title>Node20</title>
<g id="a_node20"><a xlink:href="AdditiveMeasurementModel_8h.html" target="_top" xlink:title=" ">
<polygon fill="white" stroke="black" points="302.5,-235.5 302.5,-265.5 471.5,-265.5 471.5,-235.5 302.5,-235.5"/>
<text text-anchor="start" x="310.5" y="-253.5" font-family="Helvetica,sans-Serif" font-size="10.00">BayesFilters/AdditiveMeasurement</text>
<text text-anchor="middle" x="387" y="-242.5" font-family="Helvetica,sans-Serif" font-size="10.00">Model.h</text>
</a>
</g>
</g>
<!-- Node19&#45;&gt;Node20 -->
<g id="edge25" class="edge">
<title>Node19&#45;&gt;Node20</title>
<path fill="none" stroke="midnightblue" d="M385.43,-302.4C385.67,-294.64 385.98,-284.81 386.25,-275.86"/>
<polygon fill="midnightblue" stroke="midnightblue" points="389.76,-275.68 386.57,-265.58 382.76,-275.46 389.76,-275.68"/>
</g>
<!-- Node20&#45;&gt;Node6 -->
<g id="edge26" class="edge">
<title>Node20&#45;&gt;Node6</title>
<path fill="none" stroke="midnightblue" d="M385.05,-235.4C383.96,-227.56 382.58,-217.6 381.33,-208.57"/>
<polygon fill="midnightblue" stroke="midnightblue" points="384.79,-208 379.95,-198.58 377.85,-208.96 384.79,-208"/>
</g>
</g>
</svg>
