<?xml version="1.0" encoding="UTF-8" standalone="no"?>
<!DOCTYPE svg PUBLIC "-//W3C//DTD SVG 1.1//EN"
 "http://www.w3.org/Graphics/SVG/1.1/DTD/svg11.dtd">
<!-- Generated by graphviz version 2.43.0 (0)
 -->
<!-- Title: /home/user/bayes&#45;filters&#45;lib/src/BayesFilters/include/BayesFilters/KFCorrection.h Pages: 1 -->
<svg width="1009pt" height="419pt"
 viewBox="0.00 0.00 1008.50 419.00" xmlns="http://www.w3.org/2000/svg" xmlns:xlink="http://www.w3.org/1999/xlink">
<g id="graph0" class="graph" transform="scale(1 1) rotate(0) translate(4 415)">
<title>/home/user/bayes&#45;filters&#45;lib/src/BayesFilters/include/BayesFilters/KFCorrection.h</title>
<polygon fill="white" stroke="transparent" points="-4,4 -4,-415 1004.5,-415 1004.5,4 -4,4"/>
<!-- Node1 -->
<g id="node1" class="node">
<title>Node1</title>
<g id="a_node1"><a xlink:title=" ">
<polygon fill="#bfbfbf" stroke="black" points="212,-369.5 212,-410.5 367,-410.5 367,-369.5 212,-369.5"/>
<text text-anchor="start" x="220" y="-398.5" font-family="Helvetica,sans-Serif" font-size="10.00">/home/user/bayes&#45;filters</text>
<text text-anchor="start" x="220" y="-387.5" font-family="Helvetica,sans-Serif" font-size="10.00">&#45;lib/src/BayesFilters/include</text>
<text text-anchor="middle" x="289.5" y="-376.5" font-family="Helvetica,sans-Serif" font-size="10.00">/BayesFilters/KFCorrection.h</text>
</a>
</g>
</g>
<!-- Node2 -->
<g id="node2" class="node">
<title>Node2</title>
<g id="a_node2"><a xlink:href="GaussianCorrection_8h.html" target="_top" xlink:title=" ">
<polygon fill="white" stroke="black" points="107.5,-241 107.5,-260 291.5,-260 291.5,-241 107.5,-241"/>
<text text-anchor="middle" x="199.5" y="-248" font-family="Helvetica,sans-Serif" font-size="10.00">BayesFilters/GaussianCorrection.h</text>
</a>
</g>
</g>
<!-- Node1&#45;&gt;Node2 -->
<g id="edge1" class="edge">
<title>Node1&#45;&gt;Node2</title>
<path fill="none" stroke="midnightblue" d="M276.61,-369.3C258.93,-342.3 227.48,-294.25 210.73,-268.66"/>
<polygon fill="midnightblue" stroke="midnightblue" points="213.49,-266.49 205.09,-260.04 207.64,-270.32 213.49,-266.49"/>
</g>
<!-- Node3 -->
<g id="node3" class="node">
<title>Node3</title>
<g id="a_node3"><a xlink:href="GaussianMixture_8h.html" target="_top" xlink:title=" ">
<polygon fill="white" stroke="black" points="0,-174 0,-193 171,-193 171,-174 0,-174"/>
<text text-anchor="middle" x="85.5" y="-181" font-family="Helvetica,sans-Serif" font-size="10.00">BayesFilters/GaussianMixture.h</text>
</a>
</g>
</g>
<!-- Node1&#45;&gt;Node3 -->
<g id="edge25" class="edge">
<title>Node1&#45;&gt;Node3</title>
<path fill="none" stroke="midnightblue" d="M236.77,-369.45C192.46,-350.15 131.27,-316.2 98.5,-266 86.23,-247.2 84.11,-220.89 84.31,-203.3"/>
<polygon fill="midnightblue" stroke="midnightblue" points="87.81,-203.29 84.7,-193.16 80.82,-203.02 87.81,-203.29"/>
</g>
<!-- Node5 -->
<g id="node5" class="node">
<title>Node5</title>
<g id="a_node5"><a xlink:title=" ">
<polygon fill="white" stroke="#bfbfbf" points="114,-112.5 114,-131.5 191,-131.5 191,-112.5 114,-112.5"/>
<text text-anchor="middle" x="152.5" y="-119.5" font-family="Helvetica,sans-Serif" font-size="10.00">Eigen/Dense</text>
</a>
</g>
</g>
<!-- Node1&#45;&gt;Node5 -->
<g id="edge29" class="edge">
<title>Node1&#45;&gt;Node5</title>
<path fill="none" stroke="midnightblue" d="M297,-369.29C307.34,-338.74 322.34,-278.92 300.5,-235 276.11,-185.95 218.84,-152.65 183.12,-135.82"/>
<polygon fill="midnightblue" stroke="midnightblue" points="184.21,-132.47 173.66,-131.51 181.31,-138.84 184.21,-132.47"/>
</g>
<!-- Node21 -->
<g id="node21" class="node">
<title>Node21</title>
<g id="a_node21"><a xlink:href="LinearMeasurementModel_8h.html" target="_top" xlink:title=" ">
<polygon fill="white" stroke="black" points="350,-302.5 350,-332.5 527,-332.5 527,-302.5 350,-302.5"/>
<text text-anchor="start" x="358" y="-320.5" font-family="Helvetica,sans-Serif" font-size="10.00">BayesFilters/LinearMeasurement</text>
<text text-anchor="middle" x="438.5" y="-309.5" font-family="Helvetica,sans-Serif" font-size="10.00">Model.h</text>
</a>
</g>
</g>
<!-- Node1&#45;&gt;Node21 -->
<g id="edge26" class="edge">
<title>Node1&#45;&gt;Node21</title>
<path fill="none" stroke="midnightblue" d="M331,-369.36C352.36,-359.26 378.25,-347.01 399.27,-337.06"/>
<polygon fill="midnightblue" stroke="midnightblue" points="401.01,-340.11 408.55,-332.67 398.02,-333.78 401.01,-340.11"/>
</g>
<!-- Node2&#45;&gt;Node3 -->
<g id="edge2" class="edge">
<title>Node2&#45;&gt;Node3</title>
<path fill="none" stroke="midnightblue" d="M184.13,-240.73C164.98,-229.82 132.06,-211.05 109.56,-198.22"/>
<polygon fill="midnightblue" stroke="midnightblue" points="111.05,-195.04 100.63,-193.13 107.58,-201.12 111.05,-195.04"/>
</g>
<!-- Node2&#45;&gt;Node5 -->
<g id="edge24" class="edge">
<title>Node2&#45;&gt;Node5</title>
<path fill="none" stroke="midnightblue" d="M198.22,-240.66C195.83,-225.41 189.93,-193.33 179.5,-168 175.51,-158.31 169.66,-148.25 164.42,-140.1"/>
<polygon fill="midnightblue" stroke="midnightblue" points="167.17,-137.92 158.7,-131.55 161.35,-141.81 167.17,-137.92"/>
</g>
<!-- Node6 -->
<g id="node6" class="node">
<title>Node6</title>
<g id="a_node6"><a xlink:href="MeasurementModel_8h.html" target="_top" xlink:title=" ">
<polygon fill="white" stroke="black" points="368,-168.5 368,-198.5 515,-198.5 515,-168.5 368,-168.5"/>
<text text-anchor="start" x="376" y="-186.5" font-family="Helvetica,sans-Serif" font-size="10.00">BayesFilters/Measurement</text>
<text text-anchor="middle" x="441.5" y="-175.5" font-family="Helvetica,sans-Serif" font-size="10.00">Model.h</text>
</a>
</g>
</g>
<!-- Node2&#45;&gt;Node6 -->
<g id="edge5" class="edge">
<title>Node2&#45;&gt;Node6</title>
<path fill="none" stroke="midnightblue" d="M231.39,-240.94C268.89,-230.86 332.03,-213.9 379.32,-201.2"/>
<polygon fill="midnightblue" stroke="midnightblue" points="380.41,-204.53 389.16,-198.56 378.59,-197.77 380.41,-204.53"/>
</g>
<!-- Node4 -->
<g id="node4" class="node">
<title>Node4</title>
<g id="a_node4"><a xlink:title=" ">
<polygon fill="white" stroke="#bfbfbf" points="85,-56.5 85,-75.5 132,-75.5 132,-56.5 85,-56.5"/>
<text text-anchor="middle" x="108.5" y="-63.5" font-family="Helvetica,sans-Serif" font-size="10.00">vector</text>
</a>
</g>
</g>
<!-- Node3&#45;&gt;Node4 -->
<g id="edge3" class="edge">
<title>Node3&#45;&gt;Node4</title>
<path fill="none" stroke="midnightblue" d="M87.23,-173.82C90.94,-155.17 99.75,-110.94 104.79,-85.63"/>
<polygon fill="midnightblue" stroke="midnightblue" points="108.23,-86.27 106.75,-75.78 101.37,-84.91 108.23,-86.27"/>
</g>
<!-- Node3&#45;&gt;Node5 -->
<g id="edge4" class="edge">
<title>Node3&#45;&gt;Node5</title>
<path fill="none" stroke="midnightblue" d="M95.1,-173.98C105.55,-164.7 122.47,-149.67 135.24,-138.33"/>
<polygon fill="midnightblue" stroke="midnightblue" points="137.77,-140.77 142.92,-131.51 133.12,-135.53 137.77,-140.77"/>
</g>
<!-- Node6&#45;&gt;Node5 -->
<g id="edge23" class="edge">
<title>Node6&#45;&gt;Node5</title>
<path fill="none" stroke="midnightblue" d="M373.38,-168.47C320.52,-157.59 248.52,-142.77 201.3,-133.05"/>
<polygon fill="midnightblue" stroke="midnightblue" points="201.82,-129.58 191.32,-130.99 200.41,-136.44 201.82,-129.58"/>
</g>
<!-- Node7 -->
<g id="node7" class="node">
<title>Node7</title>
<g id="a_node7"><a xlink:href="Data_8h.html" target="_top" xlink:title=" ">
<polygon fill="white" stroke="black" points="718.5,-112.5 718.5,-131.5 830.5,-131.5 830.5,-112.5 718.5,-112.5"/>
<text text-anchor="middle" x="774.5" y="-119.5" font-family="Helvetica,sans-Serif" font-size="10.00">BayesFilters/Data.h</text>
</a>
</g>
</g>
<!-- Node6&#45;&gt;Node7 -->
<g id="edge6" class="edge">
<title>Node6&#45;&gt;Node7</title>
<path fill="none" stroke="midnightblue" d="M515.4,-169.3C576.01,-158.47 660.62,-143.35 716.45,-133.37"/>
<polygon fill="midnightblue" stroke="midnightblue" points="717.29,-136.78 726.52,-131.57 716.06,-129.89 717.29,-136.78"/>
</g>
<!-- Node10 -->
<g id="node10" class="node">
<title>Node10</title>
<g id="a_node10"><a xlink:title=" ">
<polygon fill="white" stroke="#bfbfbf" points="614.5,-0.5 614.5,-19.5 672.5,-19.5 672.5,-0.5 614.5,-0.5"/>
<text text-anchor="middle" x="643.5" y="-7.5" font-family="Helvetica,sans-Serif" font-size="10.00">memory</text>
</a>
</g>
</g>
<!-- Node6&#45;&gt;Node10 -->
<g id="edge20" class="edge">
<title>Node6&#45;&gt;Node10</title>
<path fill="none" stroke="midnightblue" d="M515.17,-172.22C562.92,-163.94 619.01,-150.59 634.5,-132 658.58,-103.1 653.44,-55.64 648.14,-29.58"/>
<polygon fill="midnightblue" stroke="midnightblue" points="651.48,-28.52 645.86,-19.54 644.66,-30.07 651.48,-28.52"/>
</g>
<!-- Node14 -->
<g id="node14" class="node">
<title>Node14</title>
<g id="a_node14"><a xlink:href="Logger_8h.html" target="_top" xlink:title=" ">
<polygon fill="white" stroke="black" points="209,-112.5 209,-131.5 330,-131.5 330,-112.5 209,-112.5"/>
<text text-anchor="middle" x="269.5" y="-119.5" font-family="Helvetica,sans-Serif" font-size="10.00">BayesFilters/Logger.h</text>
</a>
</g>
</g>
<!-- Node6&#45;&gt;Node14 -->
<g id="edge13" class="edge">
<title>Node6&#45;&gt;Node14</title>
<path fill="none" stroke="midnightblue" d="M400.74,-168.4C371.28,-158.21 331.91,-144.59 304,-134.93"/>
<polygon fill="midnightblue" stroke="midnightblue" points="304.87,-131.53 294.28,-131.57 302.58,-138.15 304.87,-131.53"/>
</g>
<!-- Node17 -->
<g id="node17" class="node">
<title>Node17</title>
<g id="a_node17"><a xlink:title=" ">
<polygon fill="white" stroke="#bfbfbf" points="326.5,-56.5 326.5,-75.5 370.5,-75.5 370.5,-56.5 326.5,-56.5"/>
<text text-anchor="middle" x="348.5" y="-63.5" font-family="Helvetica,sans-Serif" font-size="10.00">string</text>
</a>
</g>
</g>
<!-- Node6&#45;&gt;Node17 -->
<g id="edge21" class="edge">
<title>Node6&#45;&gt;Node17</title>
<path fill="none" stroke="midnightblue" d="M419.2,-168.48C406.04,-159.35 389.81,-146.46 378.5,-132 367.5,-117.94 359.4,-99.2 354.41,-85.46"/>
<polygon fill="midnightblue" stroke="midnightblue" points="357.62,-84.02 351.08,-75.69 351,-86.28 357.62,-84.02"/>
</g>
<!-- Node18 -->
<g id="node18" class="node">
<title>Node18</title>
<g id="a_node18"><a xlink:href="VectorDescription_8h.html" target="_top" xlink:title=" ">
<polygon fill="white" stroke="black" points="387,-112.5 387,-131.5 562,-131.5 562,-112.5 387,-112.5"/>
<text text-anchor="middle" x="474.5" y="-119.5" font-family="Helvetica,sans-Serif" font-size="10.00">BayesFilters/VectorDescription.h</text>
</a>
</g>
</g>
<!-- Node6&#45;&gt;Node18 -->
<g id="edge18" class="edge">
<title>Node6&#45;&gt;Node18</title>
<path fill="none" stroke="midnightblue" d="M449.32,-168.4C453.97,-160.02 459.9,-149.33 464.84,-140.42"/>
<polygon fill="midnightblue" stroke="midnightblue" points="467.91,-142.1 469.7,-131.66 461.79,-138.71 467.91,-142.1"/>
</g>
<!-- Node20 -->
<g id="node20" class="node">
<title>Node20</title>
<g id="a_node20"><a xlink:title=" ">
<polygon fill="white" stroke="#bfbfbf" points="580,-112.5 580,-131.5 625,-131.5 625,-112.5 580,-112.5"/>
<text text-anchor="middle" x="602.5" y="-119.5" font-family="Helvetica,sans-Serif" font-size="10.00">utility</text>
</a>
</g>
</g>
<!-- Node6&#45;&gt;Node20 -->
<g id="edge22" class="edge">
<title>Node6&#45;&gt;Node20</title>
<path fill="none" stroke="midnightblue" d="M479.65,-168.4C507.19,-158.22 543.98,-144.63 570.1,-134.98"/>
<polygon fill="midnightblue" stroke="midnightblue" points="571.38,-138.23 579.54,-131.48 568.95,-131.67 571.38,-138.23"/>
</g>
<!-- Node8 -->
<g id="node8" class="node">
<title>Node8</title>
<g id="a_node8"><a xlink:href="any_8h.html" target="_top" xlink:title=" ">
<polygon fill="white" stroke="black" points="741,-56.5 741,-75.5 846,-75.5 846,-56.5 741,-56.5"/>
<text text-anchor="middle" x="793.5" y="-63.5" font-family="Helvetica,sans-Serif" font-size="10.00">BayesFilters/any.h</text>
</a>
</g>
</g>
<!-- Node7&#45;&gt;Node8 -->
<g id="edge7" class="edge">
<title>Node7&#45;&gt;Node8</title>
<path fill="none" stroke="midnightblue" d="M777.64,-112.08C780.18,-104.85 783.86,-94.41 787.03,-85.4"/>
<polygon fill="midnightblue" stroke="midnightblue" points="790.4,-86.35 790.42,-75.75 783.8,-84.02 790.4,-86.35"/>
</g>
<!-- Node9 -->
<g id="node9" class="node">
<title>Node9</title>
<g id="a_node9"><a xlink:title=" ">
<polygon fill="white" stroke="#bfbfbf" points="936.5,-0.5 936.5,-19.5 1000.5,-19.5 1000.5,-0.5 936.5,-0.5"/>
<text text-anchor="middle" x="968.5" y="-7.5" font-family="Helvetica,sans-Serif" font-size="10.00">algorithm</text>
</a>
</g>
</g>
<!-- Node8&#45;&gt;Node9 -->
<g id="edge8" class="edge">
<title>Node8&#45;&gt;Node9</title>
<path fill="none" stroke="midnightblue" d="M821.23,-56.44C850.93,-47.28 898.22,-32.69 931.17,-22.52"/>
<polygon fill="midnightblue" stroke="midnightblue" points="932.38,-25.81 940.9,-19.52 930.31,-19.12 932.38,-25.81"/>
</g>
<!-- Node8&#45;&gt;Node10 -->
<g id="edge9" class="edge">
<title>Node8&#45;&gt;Node10</title>
<path fill="none" stroke="midnightblue" d="M769.73,-56.44C744.61,-47.4 704.79,-33.06 676.6,-22.92"/>
<polygon fill="midnightblue" stroke="midnightblue" points="677.75,-19.61 667.16,-19.52 675.38,-26.2 677.75,-19.61"/>
</g>
<!-- Node11 -->
<g id="node11" class="node">
<title>Node11</title>
<g id="a_node11"><a xlink:title=" ">
<polygon fill="white" stroke="#bfbfbf" points="691,-0.5 691,-19.5 756,-19.5 756,-0.5 691,-0.5"/>
<text text-anchor="middle" x="723.5" y="-7.5" font-family="Helvetica,sans-Serif" font-size="10.00">stdexcept</text>
</a>
</g>
</g>
<!-- Node8&#45;&gt;Node11 -->
<g id="edge10" class="edge">
<title>Node8&#45;&gt;Node11</title>
<path fill="none" stroke="midnightblue" d="M782.25,-56.32C771.7,-48.18 755.7,-35.84 743.06,-26.09"/>
<polygon fill="midnightblue" stroke="midnightblue" points="745.01,-23.17 734.95,-19.83 740.73,-28.71 745.01,-23.17"/>
</g>
<!-- Node12 -->
<g id="node12" class="node">
<title>Node12</title>
<g id="a_node12"><a xlink:title=" ">
<polygon fill="white" stroke="#bfbfbf" points="774,-0.5 774,-19.5 831,-19.5 831,-0.5 774,-0.5"/>
<text text-anchor="middle" x="802.5" y="-7.5" font-family="Helvetica,sans-Serif" font-size="10.00">typeinfo</text>
</a>
</g>
</g>
<!-- Node8&#45;&gt;Node12 -->
<g id="edge11" class="edge">
<title>Node8&#45;&gt;Node12</title>
<path fill="none" stroke="midnightblue" d="M794.99,-56.08C796.18,-48.93 797.89,-38.64 799.38,-29.69"/>
<polygon fill="midnightblue" stroke="midnightblue" points="802.85,-30.19 801.04,-19.75 795.95,-29.04 802.85,-30.19"/>
</g>
<!-- Node13 -->
<g id="node13" class="node">
<title>Node13</title>
<g id="a_node13"><a xlink:title=" ">
<polygon fill="white" stroke="#bfbfbf" points="849,-0.5 849,-19.5 918,-19.5 918,-0.5 849,-0.5"/>
<text text-anchor="middle" x="883.5" y="-7.5" font-family="Helvetica,sans-Serif" font-size="10.00">type_traits</text>
</a>
</g>
</g>
<!-- Node8&#45;&gt;Node13 -->
<g id="edge12" class="edge">
<title>Node8&#45;&gt;Node13</title>
<path fill="none" stroke="midnightblue" d="M807.96,-56.32C822,-47.9 843.55,-34.97 860.04,-25.07"/>
<polygon fill="midnightblue" stroke="midnightblue" points="862.3,-27.8 869.08,-19.65 858.7,-21.8 862.3,-27.8"/>
</g>
<!-- Node14&#45;&gt;Node4 -->
<g id="edge17" class="edge">
<title>Node14&#45;&gt;Node4</title>
<path fill="none" stroke="midnightblue" d="M243.99,-112.44C216.35,-103.17 172.13,-88.34 141.78,-78.16"/>
<polygon fill="midnightblue" stroke="midnightblue" points="142.65,-74.76 132.06,-74.9 140.43,-81.4 142.65,-74.76"/>
</g>
<!-- Node15 -->
<g id="node15" class="node">
<title>Node15</title>
<g id="a_node15"><a xlink:title=" ">
<polygon fill="white" stroke="#bfbfbf" points="247,-56.5 247,-75.5 302,-75.5 302,-56.5 247,-56.5"/>
<text text-anchor="middle" x="274.5" y="-63.5" font-family="Helvetica,sans-Serif" font-size="10.00">fstream</text>
</a>
</g>
</g>
<!-- Node14&#45;&gt;Node15 -->
<g id="edge14" class="edge">
<title>Node14&#45;&gt;Node15</title>
<path fill="none" stroke="midnightblue" d="M270.33,-112.08C270.98,-105.01 271.92,-94.86 272.74,-85.99"/>
<polygon fill="midnightblue" stroke="midnightblue" points="276.25,-86.03 273.69,-75.75 269.28,-85.39 276.25,-86.03"/>
</g>
<!-- Node16 -->
<g id="node16" class="node">
<title>Node16</title>
<g id="a_node16"><a xlink:title=" ">
<polygon fill="white" stroke="#bfbfbf" points="168.5,-56.5 168.5,-75.5 228.5,-75.5 228.5,-56.5 168.5,-56.5"/>
<text text-anchor="middle" x="198.5" y="-63.5" font-family="Helvetica,sans-Serif" font-size="10.00">iostream</text>
</a>
</g>
</g>
<!-- Node14&#45;&gt;Node16 -->
<g id="edge15" class="edge">
<title>Node14&#45;&gt;Node16</title>
<path fill="none" stroke="midnightblue" d="M258.09,-112.32C247.39,-104.18 231.16,-91.84 218.34,-82.09"/>
<polygon fill="midnightblue" stroke="midnightblue" points="220.19,-79.1 210.11,-75.83 215.96,-84.67 220.19,-79.1"/>
</g>
<!-- Node14&#45;&gt;Node17 -->
<g id="edge16" class="edge">
<title>Node14&#45;&gt;Node17</title>
<path fill="none" stroke="midnightblue" d="M282.19,-112.32C294.4,-103.98 313.08,-91.21 327.5,-81.35"/>
<polygon fill="midnightblue" stroke="midnightblue" points="329.56,-84.19 335.84,-75.65 325.61,-78.41 329.56,-84.19"/>
</g>
<!-- Node19 -->
<g id="node19" class="node">
<title>Node19</title>
<g id="a_node19"><a xlink:title=" ">
<polygon fill="white" stroke="#bfbfbf" points="448,-56.5 448,-75.5 501,-75.5 501,-56.5 448,-56.5"/>
<text text-anchor="middle" x="474.5" y="-63.5" font-family="Helvetica,sans-Serif" font-size="10.00">cstddef</text>
</a>
</g>
</g>
<!-- Node18&#45;&gt;Node19 -->
<g id="edge19" class="edge">
<title>Node18&#45;&gt;Node19</title>
<path fill="none" stroke="midnightblue" d="M474.5,-112.08C474.5,-105.01 474.5,-94.86 474.5,-85.99"/>
<polygon fill="midnightblue" stroke="midnightblue" points="478,-85.75 474.5,-75.75 471,-85.75 478,-85.75"/>
</g>
<!-- Node22 -->
<g id="node22" class="node">
<title>Node22</title>
<g id="a_node22"><a xlink:href="AdditiveMeasurementModel_8h.html" target="_top" xlink:title=" ">
<polygon fill="white" stroke="black" points="347.5,-235.5 347.5,-265.5 535.5,-265.5 535.5,-235.5 347.5,-235.5"/>
<text text-anchor="start" x="355.5" y="-253.5" font-family="Helvetica,sans-Serif" font-size="10.00">BayesFilters/AdditiveMeasurement</text>
<text text-anchor="middle" x="441.5" y="-242.5" font-family="Helvetica,sans-Serif" font-size="10.00">Model.h</text>
</a>
</g>
</g>
<!-- Node21&#45;&gt;Node22 -->
<g id="edge27" class="edge">
<title>Node21&#45;&gt;Node22</title>
<path fill="none" stroke="midnightblue" d="M439.15,-302.4C439.51,-294.64 439.96,-284.81 440.38,-275.86"/>
<polygon fill="midnightblue" stroke="midnightblue" points="443.89,-275.73 440.85,-265.58 436.89,-275.4 443.89,-275.73"/>
</g>
<!-- Node22&#45;&gt;Node6 -->
<g id="edge28" class="edge">
<title>Node22&#45;&gt;Node6</title>
<path fill="none" stroke="midnightblue" d="M441.5,-235.4C441.5,-227.64 441.5,-217.81 441.5,-208.86"/>
<polygon fill="midnightblue" stroke="midnightblue" points="445,-208.58 441.5,-198.58 438,-208.58 445,-208.58"/>
</g>
</g>
</svg>
