<?xml version="1.0" encoding="UTF-8" standalone="no"?>
<!DOCTYPE svg PUBLIC "-//W3C//DTD SVG 1.1//EN"
 "http://www.w3.org/Graphics/SVG/1.1/DTD/svg11.dtd">
<!-- Generated by graphviz version 2.43.0 (0)
 -->
<!-- Title: /home/user/bayes&#45;filters&#45;lib/src/BayesFilters/src/KFCorrection.cpp Pages: 1 -->
<svg width="1001pt" height="475pt"
 viewBox="0.00 0.00 1000.50 475.00" xmlns="http://www.w3.org/2000/svg" xmlns:xlink="http://www.w3.org/1999/xlink">
<g id="graph0" class="graph" transform="scale(1 1) rotate(0) translate(4 471)">
<title>/home/user/bayes&#45;filters&#45;lib/src/BayesFilters/src/KFCorrection.cpp</title>
<polygon fill="white" stroke="transparent" points="-4,4 -4,-471 996.5,-471 996.5,4 -4,4"/>
<!-- Node1 -->
<g id="node1" class="node">
<title>Node1</title>
<g id="a_node1"><a xlink:title=" ">
<polygon fill="#bfbfbf" stroke="black" points="691.5,-425.5 691.5,-466.5 826.5,-466.5 826.5,-425.5 691.5,-425.5"/>
<text text-anchor="start" x="699.5" y="-454.5" font-family="Helvetica,sans-Serif" font-size="10.00">/home/user/bayes&#45;filters</text>
<text text-anchor="start" x="699.5" y="-443.5" font-family="Helvetica,sans-Serif" font-size="10.00">&#45;lib/src/BayesFilters/src</text>
<text text-anchor="middle" x="759" y="-432.5" font-family="Helvetica,sans-Serif" font-size="10.00">/KFCorrection.cpp</text>
</a>
</g>
</g>
<!-- Node2 -->
<g id="node2" class="node">
<title>Node2</title>
<g id="a_node2"><a xlink:href="KFCorrection_8h.html" target="_top" xlink:title=" ">
<polygon fill="white" stroke="black" points="604,-369.5 604,-388.5 756,-388.5 756,-369.5 604,-369.5"/>
<text text-anchor="middle" x="680" y="-376.5" font-family="Helvetica,sans-Serif" font-size="10.00">BayesFilters/KFCorrection.h</text>
</a>
</g>
</g>
<!-- Node1&#45;&gt;Node2 -->
<g id="edge1" class="edge">
<title>Node1&#45;&gt;Node2</title>
<path fill="none" stroke="midnightblue" d="M735.3,-425.5C723.42,-415.72 709.26,-404.07 698.24,-395.01"/>
<polygon fill="midnightblue" stroke="midnightblue" points="700.46,-392.3 690.52,-388.65 696.01,-397.71 700.46,-392.3"/>
</g>
<!-- Node24 -->
<g id="node24" class="node">
<title>Node24</title>
<g id="a_node24"><a xlink:href="utils_8h.html" target="_top" xlink:title=" ">
<polygon fill="white" stroke="black" points="828,-174 828,-193 938,-193 938,-174 828,-174"/>
<text text-anchor="middle" x="883" y="-181" font-family="Helvetica,sans-Serif" font-size="10.00">BayesFilters/utils.h</text>
</a>
</g>
</g>
<!-- Node1&#45;&gt;Node24 -->
<g id="edge31" class="edge">
<title>Node1&#45;&gt;Node24</title>
<path fill="none" stroke="midnightblue" d="M768.32,-425.42C791.57,-376.58 851.87,-249.9 874.37,-202.63"/>
<polygon fill="midnightblue" stroke="midnightblue" points="877.65,-203.87 878.79,-193.34 871.33,-200.86 877.65,-203.87"/>
</g>
<!-- Node3 -->
<g id="node3" class="node">
<title>Node3</title>
<g id="a_node3"><a xlink:href="GaussianCorrection_8h.html" target="_top" xlink:title=" ">
<polygon fill="white" stroke="black" points="588,-241 588,-260 772,-260 772,-241 588,-241"/>
<text text-anchor="middle" x="680" y="-248" font-family="Helvetica,sans-Serif" font-size="10.00">BayesFilters/GaussianCorrection.h</text>
</a>
</g>
</g>
<!-- Node2&#45;&gt;Node3 -->
<g id="edge2" class="edge">
<title>Node2&#45;&gt;Node3</title>
<path fill="none" stroke="midnightblue" d="M680,-369.31C680,-348.99 680,-298.05 680,-270.28"/>
<polygon fill="midnightblue" stroke="midnightblue" points="683.5,-270.26 680,-260.26 676.5,-270.26 683.5,-270.26"/>
</g>
<!-- Node4 -->
<g id="node4" class="node">
<title>Node4</title>
<g id="a_node4"><a xlink:href="GaussianMixture_8h.html" target="_top" xlink:title=" ">
<polygon fill="white" stroke="black" points="562.5,-174 562.5,-193 733.5,-193 733.5,-174 562.5,-174"/>
<text text-anchor="middle" x="648" y="-181" font-family="Helvetica,sans-Serif" font-size="10.00">BayesFilters/GaussianMixture.h</text>
</a>
</g>
</g>
<!-- Node2&#45;&gt;Node4 -->
<g id="edge26" class="edge">
<title>Node2&#45;&gt;Node4</title>
<path fill="none" stroke="midnightblue" d="M667.6,-369.3C644.83,-352.46 597.03,-312.93 579,-266 574.06,-253.14 572.77,-247.29 579,-235 587.34,-218.56 603.84,-206.18 618.6,-197.8"/>
<polygon fill="midnightblue" stroke="midnightblue" points="620.29,-200.86 627.49,-193.09 617.01,-194.68 620.29,-200.86"/>
</g>
<!-- Node6 -->
<g id="node6" class="node">
<title>Node6</title>
<g id="a_node6"><a xlink:title=" ">
<polygon fill="white" stroke="#bfbfbf" points="705.5,-112.5 705.5,-131.5 782.5,-131.5 782.5,-112.5 705.5,-112.5"/>
<text text-anchor="middle" x="744" y="-119.5" font-family="Helvetica,sans-Serif" font-size="10.00">Eigen/Dense</text>
</a>
</g>
</g>
<!-- Node2&#45;&gt;Node6 -->
<g id="edge30" class="edge">
<title>Node2&#45;&gt;Node6</title>
<path fill="none" stroke="midnightblue" d="M692.4,-369.3C715.17,-352.46 762.97,-312.93 781,-266 797.88,-222.08 771.56,-167.67 755.29,-140.36"/>
<polygon fill="midnightblue" stroke="midnightblue" points="758.1,-138.24 749.85,-131.59 752.15,-141.93 758.1,-138.24"/>
</g>
<!-- Node22 -->
<g id="node22" class="node">
<title>Node22</title>
<g id="a_node22"><a xlink:href="LinearMeasurementModel_8h.html" target="_top" xlink:title=" ">
<polygon fill="white" stroke="black" points="352.5,-302.5 352.5,-332.5 529.5,-332.5 529.5,-302.5 352.5,-302.5"/>
<text text-anchor="start" x="360.5" y="-320.5" font-family="Helvetica,sans-Serif" font-size="10.00">BayesFilters/LinearMeasurement</text>
<text text-anchor="middle" x="441" y="-309.5" font-family="Helvetica,sans-Serif" font-size="10.00">Model.h</text>
</a>
</g>
</g>
<!-- Node2&#45;&gt;Node22 -->
<g id="edge27" class="edge">
<title>Node2&#45;&gt;Node22</title>
<path fill="none" stroke="midnightblue" d="M645.76,-369.48C609.76,-360.51 552.22,-346.19 507.29,-335"/>
<polygon fill="midnightblue" stroke="midnightblue" points="507.88,-331.54 497.33,-332.52 506.19,-338.34 507.88,-331.54"/>
</g>
<!-- Node3&#45;&gt;Node4 -->
<g id="edge3" class="edge">
<title>Node3&#45;&gt;Node4</title>
<path fill="none" stroke="midnightblue" d="M675.68,-240.73C670.84,-230.89 662.85,-214.66 656.69,-202.16"/>
<polygon fill="midnightblue" stroke="midnightblue" points="659.8,-200.55 652.25,-193.13 653.52,-203.64 659.8,-200.55"/>
</g>
<!-- Node3&#45;&gt;Node6 -->
<g id="edge25" class="edge">
<title>Node3&#45;&gt;Node6</title>
<path fill="none" stroke="midnightblue" d="M697.82,-240.91C712.93,-232.55 733.59,-218.27 743,-199 751.76,-181.06 750.51,-157.78 748.03,-141.74"/>
<polygon fill="midnightblue" stroke="midnightblue" points="751.4,-140.71 746.13,-131.52 744.52,-141.99 751.4,-140.71"/>
</g>
<!-- Node7 -->
<g id="node7" class="node">
<title>Node7</title>
<g id="a_node7"><a xlink:href="MeasurementModel_8h.html" target="_top" xlink:title=" ">
<polygon fill="white" stroke="black" points="397.5,-168.5 397.5,-198.5 544.5,-198.5 544.5,-168.5 397.5,-168.5"/>
<text text-anchor="start" x="405.5" y="-186.5" font-family="Helvetica,sans-Serif" font-size="10.00">BayesFilters/Measurement</text>
<text text-anchor="middle" x="471" y="-175.5" font-family="Helvetica,sans-Serif" font-size="10.00">Model.h</text>
</a>
</g>
</g>
<!-- Node3&#45;&gt;Node7 -->
<g id="edge6" class="edge">
<title>Node3&#45;&gt;Node7</title>
<path fill="none" stroke="midnightblue" d="M652.25,-240.87C620.14,-230.88 566.49,-214.2 525.87,-201.56"/>
<polygon fill="midnightblue" stroke="midnightblue" points="526.69,-198.16 516.11,-198.53 524.62,-204.84 526.69,-198.16"/>
</g>
<!-- Node5 -->
<g id="node5" class="node">
<title>Node5</title>
<g id="a_node5"><a xlink:title=" ">
<polygon fill="white" stroke="#bfbfbf" points="498.5,-56.5 498.5,-75.5 545.5,-75.5 545.5,-56.5 498.5,-56.5"/>
<text text-anchor="middle" x="522" y="-63.5" font-family="Helvetica,sans-Serif" font-size="10.00">vector</text>
</a>
</g>
</g>
<!-- Node4&#45;&gt;Node5 -->
<g id="edge4" class="edge">
<title>Node4&#45;&gt;Node5</title>
<path fill="none" stroke="midnightblue" d="M640.73,-173.79C629.02,-160 604.97,-132.59 582,-112 569.79,-101.06 555.08,-89.99 543.28,-81.57"/>
<polygon fill="midnightblue" stroke="midnightblue" points="545.11,-78.58 534.91,-75.7 541.08,-84.31 545.11,-78.58"/>
</g>
<!-- Node4&#45;&gt;Node6 -->
<g id="edge5" class="edge">
<title>Node4&#45;&gt;Node6</title>
<path fill="none" stroke="midnightblue" d="M661.75,-173.98C677.37,-164.3 703.06,-148.37 721.58,-136.89"/>
<polygon fill="midnightblue" stroke="midnightblue" points="723.62,-139.75 730.27,-131.51 719.93,-133.8 723.62,-139.75"/>
</g>
<!-- Node7&#45;&gt;Node6 -->
<g id="edge24" class="edge">
<title>Node7&#45;&gt;Node6</title>
<path fill="none" stroke="midnightblue" d="M535.35,-168.47C584.34,-157.8 650.74,-143.33 695.36,-133.6"/>
<polygon fill="midnightblue" stroke="midnightblue" points="696.34,-136.97 705.37,-131.42 694.85,-130.13 696.34,-136.97"/>
</g>
<!-- Node8 -->
<g id="node8" class="node">
<title>Node8</title>
<g id="a_node8"><a xlink:href="Data_8h.html" target="_top" xlink:title=" ">
<polygon fill="white" stroke="black" points="65,-112.5 65,-131.5 177,-131.5 177,-112.5 65,-112.5"/>
<text text-anchor="middle" x="121" y="-119.5" font-family="Helvetica,sans-Serif" font-size="10.00">BayesFilters/Data.h</text>
</a>
</g>
</g>
<!-- Node7&#45;&gt;Node8 -->
<g id="edge7" class="edge">
<title>Node7&#45;&gt;Node8</title>
<path fill="none" stroke="midnightblue" d="M397.2,-169.95C332.93,-159.03 240.91,-143.38 181.06,-133.21"/>
<polygon fill="midnightblue" stroke="midnightblue" points="181.45,-129.73 171,-131.5 180.28,-136.63 181.45,-129.73"/>
</g>
<!-- Node11 -->
<g id="node11" class="node">
<title>Node11</title>
<g id="a_node11"><a xlink:title=" ">
<polygon fill="white" stroke="#bfbfbf" points="610,-0.5 610,-19.5 668,-19.5 668,-0.5 610,-0.5"/>
<text text-anchor="middle" x="639" y="-7.5" font-family="Helvetica,sans-Serif" font-size="10.00">memory</text>
</a>
</g>
</g>
<!-- Node7&#45;&gt;Node11 -->
<g id="edge21" class="edge">
<title>Node7&#45;&gt;Node11</title>
<path fill="none" stroke="midnightblue" d="M537.33,-168.44C559.67,-160.86 583.17,-149.35 600,-132 627.45,-103.71 635.58,-56.01 637.99,-29.75"/>
<polygon fill="midnightblue" stroke="midnightblue" points="641.49,-29.86 638.72,-19.63 634.51,-29.35 641.49,-29.86"/>
</g>
<!-- Node15 -->
<g id="node15" class="node">
<title>Node15</title>
<g id="a_node15"><a xlink:href="Logger_8h.html" target="_top" xlink:title=" ">
<polygon fill="white" stroke="black" points="388.5,-112.5 388.5,-131.5 509.5,-131.5 509.5,-112.5 388.5,-112.5"/>
<text text-anchor="middle" x="449" y="-119.5" font-family="Helvetica,sans-Serif" font-size="10.00">BayesFilters/Logger.h</text>
</a>
</g>
</g>
<!-- Node7&#45;&gt;Node15 -->
<g id="edge14" class="edge">
<title>Node7&#45;&gt;Node15</title>
<path fill="none" stroke="midnightblue" d="M465.79,-168.4C462.79,-160.29 458.99,-150.01 455.76,-141.28"/>
<polygon fill="midnightblue" stroke="midnightblue" points="458.95,-139.82 452.2,-131.66 452.39,-142.25 458.95,-139.82"/>
</g>
<!-- Node18 -->
<g id="node18" class="node">
<title>Node18</title>
<g id="a_node18"><a xlink:title=" ">
<polygon fill="white" stroke="#bfbfbf" points="567,-56.5 567,-75.5 611,-75.5 611,-56.5 567,-56.5"/>
<text text-anchor="middle" x="589" y="-63.5" font-family="Helvetica,sans-Serif" font-size="10.00">string</text>
</a>
</g>
</g>
<!-- Node7&#45;&gt;Node18 -->
<g id="edge22" class="edge">
<title>Node7&#45;&gt;Node18</title>
<path fill="none" stroke="midnightblue" d="M530.03,-168.44C549.56,-160.85 569.48,-149.33 582,-132 591.65,-118.64 592.6,-99.53 591.62,-85.48"/>
<polygon fill="midnightblue" stroke="midnightblue" points="595.1,-85.08 590.55,-75.52 588.14,-85.83 595.1,-85.08"/>
</g>
<!-- Node19 -->
<g id="node19" class="node">
<title>Node19</title>
<g id="a_node19"><a xlink:href="VectorDescription_8h.html" target="_top" xlink:title=" ">
<polygon fill="white" stroke="black" points="195.5,-112.5 195.5,-131.5 370.5,-131.5 370.5,-112.5 195.5,-112.5"/>
<text text-anchor="middle" x="283" y="-119.5" font-family="Helvetica,sans-Serif" font-size="10.00">BayesFilters/VectorDescription.h</text>
</a>
</g>
</g>
<!-- Node7&#45;&gt;Node19 -->
<g id="edge19" class="edge">
<title>Node7&#45;&gt;Node19</title>
<path fill="none" stroke="midnightblue" d="M426.45,-168.4C393.96,-158.12 350.46,-144.35 319.91,-134.68"/>
<polygon fill="midnightblue" stroke="midnightblue" points="320.67,-131.25 310.08,-131.57 318.56,-137.93 320.67,-131.25"/>
</g>
<!-- Node21 -->
<g id="node21" class="node">
<title>Node21</title>
<g id="a_node21"><a xlink:title=" ">
<polygon fill="white" stroke="#bfbfbf" points="527.5,-112.5 527.5,-131.5 572.5,-131.5 572.5,-112.5 527.5,-112.5"/>
<text text-anchor="middle" x="550" y="-119.5" font-family="Helvetica,sans-Serif" font-size="10.00">utility</text>
</a>
</g>
</g>
<!-- Node7&#45;&gt;Node21 -->
<g id="edge23" class="edge">
<title>Node7&#45;&gt;Node21</title>
<path fill="none" stroke="midnightblue" d="M489.72,-168.4C501.91,-159.22 517.79,-147.26 530.19,-137.92"/>
<polygon fill="midnightblue" stroke="midnightblue" points="532.62,-140.47 538.5,-131.66 528.41,-134.88 532.62,-140.47"/>
</g>
<!-- Node9 -->
<g id="node9" class="node">
<title>Node9</title>
<g id="a_node9"><a xlink:href="any_8h.html" target="_top" xlink:title=" ">
<polygon fill="white" stroke="black" points="101.5,-56.5 101.5,-75.5 206.5,-75.5 206.5,-56.5 101.5,-56.5"/>
<text text-anchor="middle" x="154" y="-63.5" font-family="Helvetica,sans-Serif" font-size="10.00">BayesFilters/any.h</text>
</a>
</g>
</g>
<!-- Node8&#45;&gt;Node9 -->
<g id="edge8" class="edge">
<title>Node8&#45;&gt;Node9</title>
<path fill="none" stroke="midnightblue" d="M126.45,-112.08C131.01,-104.61 137.67,-93.72 143.29,-84.52"/>
<polygon fill="midnightblue" stroke="midnightblue" points="146.42,-86.11 148.65,-75.75 140.45,-82.46 146.42,-86.11"/>
</g>
<!-- Node10 -->
<g id="node10" class="node">
<title>Node10</title>
<g id="a_node10"><a xlink:title=" ">
<polygon fill="white" stroke="#bfbfbf" points="0,-0.5 0,-19.5 64,-19.5 64,-0.5 0,-0.5"/>
<text text-anchor="middle" x="32" y="-7.5" font-family="Helvetica,sans-Serif" font-size="10.00">algorithm</text>
</a>
</g>
</g>
<!-- Node9&#45;&gt;Node10 -->
<g id="edge9" class="edge">
<title>Node9&#45;&gt;Node10</title>
<path fill="none" stroke="midnightblue" d="M134.67,-56.44C114.68,-47.6 83.26,-33.69 60.44,-23.59"/>
<polygon fill="midnightblue" stroke="midnightblue" points="61.8,-20.36 51.24,-19.52 58.97,-26.76 61.8,-20.36"/>
</g>
<!-- Node9&#45;&gt;Node11 -->
<g id="edge10" class="edge">
<title>Node9&#45;&gt;Node11</title>
<path fill="none" stroke="midnightblue" d="M206.83,-59.12C304.97,-48.19 513.31,-24.99 599.94,-15.35"/>
<polygon fill="midnightblue" stroke="midnightblue" points="600.34,-18.83 609.89,-14.24 599.56,-11.87 600.34,-18.83"/>
</g>
<!-- Node12 -->
<g id="node12" class="node">
<title>Node12</title>
<g id="a_node12"><a xlink:title=" ">
<polygon fill="white" stroke="#bfbfbf" points="82.5,-0.5 82.5,-19.5 147.5,-19.5 147.5,-0.5 82.5,-0.5"/>
<text text-anchor="middle" x="115" y="-7.5" font-family="Helvetica,sans-Serif" font-size="10.00">stdexcept</text>
</a>
</g>
</g>
<!-- Node9&#45;&gt;Node12 -->
<g id="edge11" class="edge">
<title>Node9&#45;&gt;Node12</title>
<path fill="none" stroke="midnightblue" d="M147.56,-56.08C142.05,-48.46 133.97,-37.26 127.24,-27.94"/>
<polygon fill="midnightblue" stroke="midnightblue" points="130.01,-25.81 121.32,-19.75 124.34,-29.91 130.01,-25.81"/>
</g>
<!-- Node13 -->
<g id="node13" class="node">
<title>Node13</title>
<g id="a_node13"><a xlink:title=" ">
<polygon fill="white" stroke="#bfbfbf" points="165.5,-0.5 165.5,-19.5 222.5,-19.5 222.5,-0.5 165.5,-0.5"/>
<text text-anchor="middle" x="194" y="-7.5" font-family="Helvetica,sans-Serif" font-size="10.00">typeinfo</text>
</a>
</g>
</g>
<!-- Node9&#45;&gt;Node13 -->
<g id="edge12" class="edge">
<title>Node9&#45;&gt;Node13</title>
<path fill="none" stroke="midnightblue" d="M160.61,-56.08C166.26,-48.46 174.54,-37.26 181.45,-27.94"/>
<polygon fill="midnightblue" stroke="midnightblue" points="184.38,-29.87 187.52,-19.75 178.75,-25.7 184.38,-29.87"/>
</g>
<!-- Node14 -->
<g id="node14" class="node">
<title>Node14</title>
<g id="a_node14"><a xlink:title=" ">
<polygon fill="white" stroke="#bfbfbf" points="240.5,-0.5 240.5,-19.5 309.5,-19.5 309.5,-0.5 240.5,-0.5"/>
<text text-anchor="middle" x="275" y="-7.5" font-family="Helvetica,sans-Serif" font-size="10.00">type_traits</text>
</a>
</g>
</g>
<!-- Node9&#45;&gt;Node14 -->
<g id="edge13" class="edge">
<title>Node9&#45;&gt;Node14</title>
<path fill="none" stroke="midnightblue" d="M173.17,-56.44C192.91,-47.64 223.89,-33.81 246.49,-23.72"/>
<polygon fill="midnightblue" stroke="midnightblue" points="248.21,-26.79 255.92,-19.52 245.36,-20.4 248.21,-26.79"/>
</g>
<!-- Node15&#45;&gt;Node5 -->
<g id="edge18" class="edge">
<title>Node15&#45;&gt;Node5</title>
<path fill="none" stroke="midnightblue" d="M460.73,-112.32C471.84,-104.11 488.74,-91.6 501.98,-81.81"/>
<polygon fill="midnightblue" stroke="midnightblue" points="504.1,-84.59 510.06,-75.83 499.94,-78.97 504.1,-84.59"/>
</g>
<!-- Node16 -->
<g id="node16" class="node">
<title>Node16</title>
<g id="a_node16"><a xlink:title=" ">
<polygon fill="white" stroke="#bfbfbf" points="423.5,-56.5 423.5,-75.5 478.5,-75.5 478.5,-56.5 423.5,-56.5"/>
<text text-anchor="middle" x="451" y="-63.5" font-family="Helvetica,sans-Serif" font-size="10.00">fstream</text>
</a>
</g>
</g>
<!-- Node15&#45;&gt;Node16 -->
<g id="edge15" class="edge">
<title>Node15&#45;&gt;Node16</title>
<path fill="none" stroke="midnightblue" d="M449.33,-112.08C449.59,-105.01 449.97,-94.86 450.3,-85.99"/>
<polygon fill="midnightblue" stroke="midnightblue" points="453.8,-85.87 450.68,-75.75 446.81,-85.61 453.8,-85.87"/>
</g>
<!-- Node17 -->
<g id="node17" class="node">
<title>Node17</title>
<g id="a_node17"><a xlink:title=" ">
<polygon fill="white" stroke="#bfbfbf" points="345,-56.5 345,-75.5 405,-75.5 405,-56.5 345,-56.5"/>
<text text-anchor="middle" x="375" y="-63.5" font-family="Helvetica,sans-Serif" font-size="10.00">iostream</text>
</a>
</g>
</g>
<!-- Node15&#45;&gt;Node17 -->
<g id="edge16" class="edge">
<title>Node15&#45;&gt;Node17</title>
<path fill="none" stroke="midnightblue" d="M437.11,-112.32C425.85,-104.11 408.71,-91.6 395.29,-81.81"/>
<polygon fill="midnightblue" stroke="midnightblue" points="397.25,-78.9 387.11,-75.83 393.12,-84.56 397.25,-78.9"/>
</g>
<!-- Node15&#45;&gt;Node18 -->
<g id="edge17" class="edge">
<title>Node15&#45;&gt;Node18</title>
<path fill="none" stroke="midnightblue" d="M471.18,-112.44C494.43,-103.48 531.15,-89.31 557.42,-79.18"/>
<polygon fill="midnightblue" stroke="midnightblue" points="558.85,-82.38 566.92,-75.52 556.33,-75.85 558.85,-82.38"/>
</g>
<!-- Node20 -->
<g id="node20" class="node">
<title>Node20</title>
<g id="a_node20"><a xlink:title=" ">
<polygon fill="white" stroke="#bfbfbf" points="256.5,-56.5 256.5,-75.5 309.5,-75.5 309.5,-56.5 256.5,-56.5"/>
<text text-anchor="middle" x="283" y="-63.5" font-family="Helvetica,sans-Serif" font-size="10.00">cstddef</text>
</a>
</g>
</g>
<!-- Node19&#45;&gt;Node20 -->
<g id="edge20" class="edge">
<title>Node19&#45;&gt;Node20</title>
<path fill="none" stroke="midnightblue" d="M283,-112.08C283,-105.01 283,-94.86 283,-85.99"/>
<polygon fill="midnightblue" stroke="midnightblue" points="286.5,-85.75 283,-75.75 279.5,-85.75 286.5,-85.75"/>
</g>
<!-- Node23 -->
<g id="node23" class="node">
<title>Node23</title>
<g id="a_node23"><a xlink:href="AdditiveMeasurementModel_8h.html" target="_top" xlink:title=" ">
<polygon fill="white" stroke="black" points="344,-235.5 344,-265.5 532,-265.5 532,-235.5 344,-235.5"/>
<text text-anchor="start" x="352" y="-253.5" font-family="Helvetica,sans-Serif" font-size="10.00">BayesFilters/AdditiveMeasurement</text>
<text text-anchor="middle" x="438" y="-242.5" font-family="Helvetica,sans-Serif" font-size="10.00">Model.h</text>
</a>
</g>
</g>
<!-- Node22&#45;&gt;Node23 -->
<g id="edge28" class="edge">
<title>Node22&#45;&gt;Node23</title>
<path fill="none" stroke="midnightblue" d="M440.35,-302.4C439.99,-294.64 439.54,-284.81 439.12,-275.86"/>
<polygon fill="midnightblue" stroke="midnightblue" points="442.61,-275.4 438.65,-265.58 435.61,-275.73 442.61,-275.4"/>
</g>
<!-- Node23&#45;&gt;Node7 -->
<g id="edge29" class="edge">
<title>Node23&#45;&gt;Node7</title>
<path fill="none" stroke="midnightblue" d="M445.16,-235.4C449.27,-227.3 454.53,-216.94 459.23,-207.69"/>
<polygon fill="midnightblue" stroke="midnightblue" points="462.45,-209.08 463.85,-198.58 456.21,-205.91 462.45,-209.08"/>
</g>
<!-- Node24&#45;&gt;Node6 -->
<g id="edge32" class="edge">
<title>Node24&#45;&gt;Node6</title>
<path fill="none" stroke="midnightblue" d="M863.08,-173.98C839.55,-163.9 800.19,-147.05 773.21,-135.5"/>
<polygon fill="midnightblue" stroke="midnightblue" points="774.45,-132.23 763.88,-131.51 771.69,-138.66 774.45,-132.23"/>
</g>
<!-- Node24&#45;&gt;Node11 -->
<g id="edge35" class="edge">
<title>Node24&#45;&gt;Node11</title>
<path fill="none" stroke="midnightblue" d="M877.06,-173.82C866.99,-159.58 845.39,-130.95 822,-112 773.34,-72.58 707.12,-40.41 669.13,-23.63"/>
<polygon fill="midnightblue" stroke="midnightblue" points="670.22,-20.28 659.66,-19.5 667.43,-26.7 670.22,-20.28"/>
</g>
<!-- Node24&#45;&gt;Node18 -->
<g id="edge36" class="edge">
<title>Node24&#45;&gt;Node18</title>
<path fill="none" stroke="midnightblue" d="M874.35,-173.6C859.15,-158.5 826.01,-127.96 792,-112 735.33,-85.41 662.29,-74.2 621.06,-69.73"/>
<polygon fill="midnightblue" stroke="midnightblue" points="621.35,-66.24 611.05,-68.71 620.64,-73.2 621.35,-66.24"/>
</g>
<!-- Node25 -->
<g id="node25" class="node">
<title>Node25</title>
<g id="a_node25"><a xlink:title=" ">
<polygon fill="white" stroke="#bfbfbf" points="877,-112.5 877,-131.5 927,-131.5 927,-112.5 877,-112.5"/>
<text text-anchor="middle" x="902" y="-119.5" font-family="Helvetica,sans-Serif" font-size="10.00">chrono</text>
</a>
</g>
</g>
<!-- Node24&#45;&gt;Node25 -->
<g id="edge33" class="edge">
<title>Node24&#45;&gt;Node25</title>
<path fill="none" stroke="midnightblue" d="M885.72,-173.98C888.43,-165.49 892.67,-152.2 896.15,-141.32"/>
<polygon fill="midnightblue" stroke="midnightblue" points="899.57,-142.1 899.28,-131.51 892.91,-139.97 899.57,-142.1"/>
</g>
<!-- Node26 -->
<g id="node26" class="node">
<title>Node26</title>
<g id="a_node26"><a xlink:title=" ">
<polygon fill="white" stroke="#bfbfbf" points="945.5,-112.5 945.5,-131.5 992.5,-131.5 992.5,-112.5 945.5,-112.5"/>
<text text-anchor="middle" x="969" y="-119.5" font-family="Helvetica,sans-Serif" font-size="10.00">cmath</text>
</a>
</g>
</g>
<!-- Node24&#45;&gt;Node26 -->
<g id="edge34" class="edge">
<title>Node24&#45;&gt;Node26</title>
<path fill="none" stroke="midnightblue" d="M895.32,-173.98C909.12,-164.43 931.7,-148.81 948.23,-137.37"/>
<polygon fill="midnightblue" stroke="midnightblue" points="950.47,-140.08 956.7,-131.51 946.49,-134.32 950.47,-140.08"/>
</g>
</g>
</svg>
