<?xml version="1.0" encoding="UTF-8" standalone="no"?>
<!DOCTYPE svg PUBLIC "-//W3C//DTD SVG 1.1//EN"
 "http://www.w3.org/Graphics/SVG/1.1/DTD/svg11.dtd">
<!-- Generated by graphviz version 2.47.2 (0)
 -->
<!-- Title: /home/xenvre/robot&#45;code/bfl_robotology/src/BayesFilters/include/BayesFilters/KFPrediction.h Pages: 1 -->
<svg width="728pt" height="486pt"
 viewBox="0.00 0.00 728.00 486.00" xmlns="http://www.w3.org/2000/svg" xmlns:xlink="http://www.w3.org/1999/xlink">
<g id="graph0" class="graph" transform="scale(1 1) rotate(0) translate(4 482)">
<title>/home/xenvre/robot&#45;code/bfl_robotology/src/BayesFilters/include/BayesFilters/KFPrediction.h</title>
<polygon fill="white" stroke="transparent" points="-4,4 -4,-482 724,-482 724,4 -4,4"/>
<!-- Node1 -->
<g id="node1" class="node">
<title>Node1</title>
<g id="a_node1"><a xlink:title=" ">
<polygon fill="#bfbfbf" stroke="black" points="300,-425.5 300,-477.5 442,-477.5 442,-425.5 300,-425.5"/>
<text text-anchor="start" x="308" y="-465.5" font-family="Helvetica,sans-Serif" font-size="10.00">/home/xenvre/robot</text>
<text text-anchor="start" x="308" y="-454.5" font-family="Helvetica,sans-Serif" font-size="10.00">&#45;code/bfl_robotology</text>
<text text-anchor="start" x="308" y="-443.5" font-family="Helvetica,sans-Serif" font-size="10.00">/src/BayesFilters/include</text>
<text text-anchor="middle" x="371" y="-432.5" font-family="Helvetica,sans-Serif" font-size="10.00">/BayesFilters/KFPrediction.h</text>
</a>
</g>
</g>
<!-- Node2 -->
<g id="node2" class="node">
<title>Node2</title>
<g id="a_node2"><a xlink:href="GaussianMixture_8h.html" target="_top" xlink:title=" ">
<polygon fill="white" stroke="black" points="0,-168.5 0,-187.5 156,-187.5 156,-168.5 0,-168.5"/>
<text text-anchor="middle" x="78" y="-175.5" font-family="Helvetica,sans-Serif" font-size="10.00">BayesFilters/GaussianMixture.h</text>
</a>
</g>
</g>
<!-- Node1&#45;&gt;Node2 -->
<g id="edge1" class="edge">
<title>Node1&#45;&gt;Node2</title>
<path fill="none" stroke="midnightblue" d="M299.99,-431.9C219.82,-406.68 93.23,-353.07 37,-255 30.15,-243.05 32.02,-236.85 37,-224 41.45,-212.5 50.37,-202.13 58.75,-194.25"/>
<polygon fill="midnightblue" stroke="midnightblue" points="61.24,-196.73 66.46,-187.51 56.63,-191.46 61.24,-196.73"/>
</g>
<!-- Node5 -->
<g id="node5" class="node">
<title>Node5</title>
<g id="a_node5"><a xlink:href="GaussianPrediction_8h.html" target="_top" xlink:title=" ">
<polygon fill="white" stroke="black" points="287.5,-297 287.5,-316 454.5,-316 454.5,-297 287.5,-297"/>
<text text-anchor="middle" x="371" y="-304" font-family="Helvetica,sans-Serif" font-size="10.00">BayesFilters/GaussianPrediction.h</text>
</a>
</g>
</g>
<!-- Node1&#45;&gt;Node5 -->
<g id="edge4" class="edge">
<title>Node1&#45;&gt;Node5</title>
<path fill="none" stroke="midnightblue" d="M371,-425.26C371,-396.89 371,-351.5 371,-326.15"/>
<polygon fill="midnightblue" stroke="midnightblue" points="374.5,-326.05 371,-316.05 367.5,-326.05 374.5,-326.05"/>
</g>
<!-- Node6 -->
<g id="node6" class="node">
<title>Node6</title>
<g id="a_node6"><a xlink:href="ExogenousModel_8h.html" target="_top" xlink:title=" ">
<polygon fill="white" stroke="black" points="259,-168.5 259,-187.5 417,-187.5 417,-168.5 259,-168.5"/>
<text text-anchor="middle" x="338" y="-175.5" font-family="Helvetica,sans-Serif" font-size="10.00">BayesFilters/ExogenousModel.h</text>
</a>
</g>
</g>
<!-- Node1&#45;&gt;Node6 -->
<g id="edge25" class="edge">
<title>Node1&#45;&gt;Node6</title>
<path fill="none" stroke="midnightblue" d="M345.41,-425.19C322.98,-401.06 292,-362.49 279,-322 263.88,-274.9 301.05,-221.56 323.1,-195.33"/>
<polygon fill="midnightblue" stroke="midnightblue" points="325.97,-197.36 329.9,-187.52 320.7,-192.76 325.97,-197.36"/>
</g>
<!-- Node14 -->
<g id="node14" class="node">
<title>Node14</title>
<g id="a_node14"><a xlink:title=" ">
<polygon fill="white" stroke="#bfbfbf" points="597,-168.5 597,-187.5 649,-187.5 649,-168.5 597,-168.5"/>
<text text-anchor="middle" x="623" y="-175.5" font-family="Helvetica,sans-Serif" font-size="10.00">memory</text>
</a>
</g>
</g>
<!-- Node1&#45;&gt;Node14 -->
<g id="edge26" class="edge">
<title>Node1&#45;&gt;Node14</title>
<path fill="none" stroke="midnightblue" d="M442.16,-440.88C483.03,-432.53 533.53,-417.14 571,-389 599.49,-367.61 603.84,-355.83 615,-322 629.03,-279.43 627.27,-225.92 625,-197.97"/>
<polygon fill="midnightblue" stroke="midnightblue" points="628.45,-197.3 624.04,-187.67 621.48,-197.95 628.45,-197.3"/>
</g>
<!-- Node15 -->
<g id="node15" class="node">
<title>Node15</title>
<g id="a_node15"><a xlink:href="LinearStateModel_8h.html" target="_top" xlink:title=" ">
<polygon fill="white" stroke="black" points="438,-358.5 438,-388.5 562,-388.5 562,-358.5 438,-358.5"/>
<text text-anchor="start" x="446" y="-376.5" font-family="Helvetica,sans-Serif" font-size="10.00">BayesFilters/LinearState</text>
<text text-anchor="middle" x="500" y="-365.5" font-family="Helvetica,sans-Serif" font-size="10.00">Model.h</text>
</a>
</g>
</g>
<!-- Node1&#45;&gt;Node15 -->
<g id="edge22" class="edge">
<title>Node1&#45;&gt;Node15</title>
<path fill="none" stroke="midnightblue" d="M413.6,-425.4C431.06,-415.12 450.95,-403.4 467.24,-393.8"/>
<polygon fill="midnightblue" stroke="midnightblue" points="469.05,-396.8 475.89,-388.71 465.49,-390.77 469.05,-396.8"/>
</g>
<!-- Node3 -->
<g id="node3" class="node">
<title>Node3</title>
<g id="a_node3"><a xlink:title=" ">
<polygon fill="white" stroke="#bfbfbf" points="56,-112.5 56,-131.5 100,-131.5 100,-112.5 56,-112.5"/>
<text text-anchor="middle" x="78" y="-119.5" font-family="Helvetica,sans-Serif" font-size="10.00">vector</text>
</a>
</g>
</g>
<!-- Node2&#45;&gt;Node3 -->
<g id="edge2" class="edge">
<title>Node2&#45;&gt;Node3</title>
<path fill="none" stroke="midnightblue" d="M78,-168.08C78,-161.01 78,-150.86 78,-141.99"/>
<polygon fill="midnightblue" stroke="midnightblue" points="81.5,-141.75 78,-131.75 74.5,-141.75 81.5,-141.75"/>
</g>
<!-- Node4 -->
<g id="node4" class="node">
<title>Node4</title>
<g id="a_node4"><a xlink:title=" ">
<polygon fill="white" stroke="#bfbfbf" points="185.5,-56.5 185.5,-75.5 258.5,-75.5 258.5,-56.5 185.5,-56.5"/>
<text text-anchor="middle" x="222" y="-63.5" font-family="Helvetica,sans-Serif" font-size="10.00">Eigen/Dense</text>
</a>
</g>
</g>
<!-- Node2&#45;&gt;Node4 -->
<g id="edge3" class="edge">
<title>Node2&#45;&gt;Node4</title>
<path fill="none" stroke="midnightblue" d="M89.3,-168.37C113.8,-149.65 172.06,-105.15 202.58,-81.83"/>
<polygon fill="midnightblue" stroke="midnightblue" points="204.93,-84.44 210.75,-75.59 200.68,-78.88 204.93,-84.44"/>
</g>
<!-- Node5&#45;&gt;Node4 -->
<g id="edge21" class="edge">
<title>Node5&#45;&gt;Node4</title>
<path fill="none" stroke="midnightblue" d="M358.06,-296.87C333.01,-279.44 277.92,-237.47 250,-188 231.43,-155.09 225.16,-110.54 223.06,-85.7"/>
<polygon fill="midnightblue" stroke="midnightblue" points="226.53,-85.24 222.34,-75.51 219.55,-85.73 226.53,-85.24"/>
</g>
<!-- Node5&#45;&gt;Node6 -->
<g id="edge5" class="edge">
<title>Node5&#45;&gt;Node6</title>
<path fill="none" stroke="midnightblue" d="M368.73,-296.81C363.43,-276.49 350.14,-225.55 342.9,-197.78"/>
<polygon fill="midnightblue" stroke="midnightblue" points="346.2,-196.55 340.28,-187.76 339.42,-198.32 346.2,-196.55"/>
</g>
<!-- Node8 -->
<g id="node8" class="node">
<title>Node8</title>
<g id="a_node8"><a xlink:href="Skippable_8h.html" target="_top" xlink:title=" ">
<polygon fill="white" stroke="black" points="434.5,-112.5 434.5,-131.5 559.5,-131.5 559.5,-112.5 434.5,-112.5"/>
<text text-anchor="middle" x="497" y="-119.5" font-family="Helvetica,sans-Serif" font-size="10.00">BayesFilters/Skippable.h</text>
</a>
</g>
</g>
<!-- Node5&#45;&gt;Node8 -->
<g id="edge14" class="edge">
<title>Node5&#45;&gt;Node8</title>
<path fill="none" stroke="midnightblue" d="M377.08,-296.7C396.75,-268.21 458.9,-178.18 485.14,-140.18"/>
<polygon fill="midnightblue" stroke="midnightblue" points="488.18,-141.93 490.98,-131.71 482.42,-137.95 488.18,-141.93"/>
</g>
<!-- Node11 -->
<g id="node11" class="node">
<title>Node11</title>
<g id="a_node11"><a xlink:href="GaussianMixturePrediction_8h.html" target="_top" xlink:title=" ">
<polygon fill="white" stroke="black" points="46,-224.5 46,-254.5 194,-254.5 194,-224.5 46,-224.5"/>
<text text-anchor="start" x="54" y="-242.5" font-family="Helvetica,sans-Serif" font-size="10.00">BayesFilters/GaussianMixture</text>
<text text-anchor="middle" x="120" y="-231.5" font-family="Helvetica,sans-Serif" font-size="10.00">Prediction.h</text>
</a>
</g>
</g>
<!-- Node5&#45;&gt;Node11 -->
<g id="edge11" class="edge">
<title>Node5&#45;&gt;Node11</title>
<path fill="none" stroke="midnightblue" d="M337.93,-296.94C298.95,-286.84 233.27,-269.83 184.18,-257.12"/>
<polygon fill="midnightblue" stroke="midnightblue" points="184.85,-253.68 174.29,-254.56 183.09,-260.45 184.85,-253.68"/>
</g>
<!-- Node12 -->
<g id="node12" class="node">
<title>Node12</title>
<g id="a_node12"><a xlink:href="StateModel_8h.html" target="_top" xlink:title=" ">
<polygon fill="white" stroke="black" points="473,-230 473,-249 605,-249 605,-230 473,-230"/>
<text text-anchor="middle" x="539" y="-237" font-family="Helvetica,sans-Serif" font-size="10.00">BayesFilters/StateModel.h</text>
</a>
</g>
</g>
<!-- Node5&#45;&gt;Node12 -->
<g id="edge15" class="edge">
<title>Node5&#45;&gt;Node12</title>
<path fill="none" stroke="midnightblue" d="M393.31,-296.87C422.51,-285.57 473.88,-265.7 507.16,-252.82"/>
<polygon fill="midnightblue" stroke="midnightblue" points="508.8,-255.94 516.87,-249.06 506.28,-249.41 508.8,-255.94"/>
</g>
<!-- Node7 -->
<g id="node7" class="node">
<title>Node7</title>
<g id="a_node7"><a xlink:href="ExogenousProcess_8h.html" target="_top" xlink:title=" ">
<polygon fill="white" stroke="black" points="249.5,-112.5 249.5,-131.5 416.5,-131.5 416.5,-112.5 249.5,-112.5"/>
<text text-anchor="middle" x="333" y="-119.5" font-family="Helvetica,sans-Serif" font-size="10.00">BayesFilters/ExogenousProcess.h</text>
</a>
</g>
</g>
<!-- Node6&#45;&gt;Node7 -->
<g id="edge6" class="edge">
<title>Node6&#45;&gt;Node7</title>
<path fill="none" stroke="midnightblue" d="M337.17,-168.08C336.52,-161.01 335.58,-150.86 334.76,-141.99"/>
<polygon fill="midnightblue" stroke="midnightblue" points="338.22,-141.39 333.81,-131.75 331.25,-142.03 338.22,-141.39"/>
</g>
<!-- Node6&#45;&gt;Node8 -->
<g id="edge8" class="edge">
<title>Node6&#45;&gt;Node8</title>
<path fill="none" stroke="midnightblue" d="M363.19,-168.44C389.94,-159.36 432.4,-144.94 462.31,-134.78"/>
<polygon fill="midnightblue" stroke="midnightblue" points="463.58,-138.05 471.92,-131.52 461.33,-131.42 463.58,-138.05"/>
</g>
<!-- Node7&#45;&gt;Node4 -->
<g id="edge7" class="edge">
<title>Node7&#45;&gt;Node4</title>
<path fill="none" stroke="midnightblue" d="M315.17,-112.32C297.28,-103.62 269.52,-90.12 248.95,-80.11"/>
<polygon fill="midnightblue" stroke="midnightblue" points="250.31,-76.88 239.79,-75.65 247.25,-83.18 250.31,-76.88"/>
</g>
<!-- Node9 -->
<g id="node9" class="node">
<title>Node9</title>
<g id="a_node9"><a xlink:href="Skipper_8h.html" target="_top" xlink:title=" ">
<polygon fill="white" stroke="black" points="439.5,-56.5 439.5,-75.5 554.5,-75.5 554.5,-56.5 439.5,-56.5"/>
<text text-anchor="middle" x="497" y="-63.5" font-family="Helvetica,sans-Serif" font-size="10.00">BayesFilters/Skipper.h</text>
</a>
</g>
</g>
<!-- Node8&#45;&gt;Node9 -->
<g id="edge9" class="edge">
<title>Node8&#45;&gt;Node9</title>
<path fill="none" stroke="midnightblue" d="M497,-112.08C497,-105.01 497,-94.86 497,-85.99"/>
<polygon fill="midnightblue" stroke="midnightblue" points="500.5,-85.75 497,-75.75 493.5,-85.75 500.5,-85.75"/>
</g>
<!-- Node10 -->
<g id="node10" class="node">
<title>Node10</title>
<g id="a_node10"><a xlink:title=" ">
<polygon fill="white" stroke="#bfbfbf" points="476.5,-0.5 476.5,-19.5 517.5,-19.5 517.5,-0.5 476.5,-0.5"/>
<text text-anchor="middle" x="497" y="-7.5" font-family="Helvetica,sans-Serif" font-size="10.00">string</text>
</a>
</g>
</g>
<!-- Node9&#45;&gt;Node10 -->
<g id="edge10" class="edge">
<title>Node9&#45;&gt;Node10</title>
<path fill="none" stroke="midnightblue" d="M497,-56.08C497,-49.01 497,-38.86 497,-29.99"/>
<polygon fill="midnightblue" stroke="midnightblue" points="500.5,-29.75 497,-19.75 493.5,-29.75 500.5,-29.75"/>
</g>
<!-- Node11&#45;&gt;Node2 -->
<g id="edge12" class="edge">
<title>Node11&#45;&gt;Node2</title>
<path fill="none" stroke="midnightblue" d="M110.05,-224.4C104.01,-215.84 96.26,-204.87 89.9,-195.86"/>
<polygon fill="midnightblue" stroke="midnightblue" points="92.74,-193.81 84.11,-187.66 87.02,-197.85 92.74,-193.81"/>
</g>
<!-- Node11&#45;&gt;Node4 -->
<g id="edge13" class="edge">
<title>Node11&#45;&gt;Node4</title>
<path fill="none" stroke="midnightblue" d="M134.59,-224.4C144.04,-214.74 156.19,-201.32 165,-188 187.53,-153.91 206.02,-109.52 215.38,-85.09"/>
<polygon fill="midnightblue" stroke="midnightblue" points="218.68,-86.25 218.91,-75.66 212.13,-83.79 218.68,-86.25"/>
</g>
<!-- Node12&#45;&gt;Node6 -->
<g id="edge16" class="edge">
<title>Node12&#45;&gt;Node6</title>
<path fill="none" stroke="midnightblue" d="M510.2,-229.98C475.13,-219.59 415.74,-202.01 376.69,-190.45"/>
<polygon fill="midnightblue" stroke="midnightblue" points="377.33,-186.99 366.74,-187.51 375.34,-193.7 377.33,-186.99"/>
</g>
<!-- Node12&#45;&gt;Node8 -->
<g id="edge17" class="edge">
<title>Node12&#45;&gt;Node8</title>
<path fill="none" stroke="midnightblue" d="M535.84,-229.82C529.03,-211.09 512.83,-166.55 503.65,-141.29"/>
<polygon fill="midnightblue" stroke="midnightblue" points="506.9,-139.98 500.19,-131.78 500.32,-142.38 506.9,-139.98"/>
</g>
<!-- Node13 -->
<g id="node13" class="node">
<title>Node13</title>
<g id="a_node13"><a xlink:href="StateProcess_8h.html" target="_top" xlink:title=" ">
<polygon fill="white" stroke="black" points="578,-112.5 578,-131.5 720,-131.5 720,-112.5 578,-112.5"/>
<text text-anchor="middle" x="649" y="-119.5" font-family="Helvetica,sans-Serif" font-size="10.00">BayesFilters/StateProcess.h</text>
</a>
</g>
</g>
<!-- Node12&#45;&gt;Node13 -->
<g id="edge18" class="edge">
<title>Node12&#45;&gt;Node13</title>
<path fill="none" stroke="midnightblue" d="M543.91,-229.57C551.93,-215.48 568.88,-187.66 588,-168 599.33,-156.35 613.93,-145.46 626,-137.32"/>
<polygon fill="midnightblue" stroke="midnightblue" points="628.2,-140.06 634.65,-131.66 624.36,-134.21 628.2,-140.06"/>
</g>
<!-- Node12&#45;&gt;Node14 -->
<g id="edge20" class="edge">
<title>Node12&#45;&gt;Node14</title>
<path fill="none" stroke="midnightblue" d="M551.04,-229.98C564.51,-220.43 586.57,-204.81 602.72,-193.37"/>
<polygon fill="midnightblue" stroke="midnightblue" points="604.85,-196.15 610.99,-187.51 600.8,-190.43 604.85,-196.15"/>
</g>
<!-- Node13&#45;&gt;Node4 -->
<g id="edge19" class="edge">
<title>Node13&#45;&gt;Node4</title>
<path fill="none" stroke="midnightblue" d="M581.34,-112.44C494.08,-101.41 344.57,-82.5 268.87,-72.93"/>
<polygon fill="midnightblue" stroke="midnightblue" points="269.05,-69.42 258.69,-71.64 268.17,-76.37 269.05,-69.42"/>
</g>
<!-- Node16 -->
<g id="node16" class="node">
<title>Node16</title>
<g id="a_node16"><a xlink:href="AdditiveStateModel_8h.html" target="_top" xlink:title=" ">
<polygon fill="white" stroke="black" points="472.5,-291.5 472.5,-321.5 605.5,-321.5 605.5,-291.5 472.5,-291.5"/>
<text text-anchor="start" x="480.5" y="-309.5" font-family="Helvetica,sans-Serif" font-size="10.00">BayesFilters/AdditiveState</text>
<text text-anchor="middle" x="539" y="-298.5" font-family="Helvetica,sans-Serif" font-size="10.00">Model.h</text>
</a>
</g>
</g>
<!-- Node15&#45;&gt;Node16 -->
<g id="edge23" class="edge">
<title>Node15&#45;&gt;Node16</title>
<path fill="none" stroke="midnightblue" d="M508.46,-358.4C513.37,-350.22 519.66,-339.73 525.26,-330.39"/>
<polygon fill="midnightblue" stroke="midnightblue" points="528.41,-331.95 530.55,-321.58 522.41,-328.35 528.41,-331.95"/>
</g>
<!-- Node16&#45;&gt;Node12 -->
<g id="edge24" class="edge">
<title>Node16&#45;&gt;Node12</title>
<path fill="none" stroke="midnightblue" d="M539,-291.4C539,-282.06 539,-269.71 539,-259.52"/>
<polygon fill="midnightblue" stroke="midnightblue" points="542.5,-259.19 539,-249.19 535.5,-259.19 542.5,-259.19"/>
</g>
</g>
</svg>
