<?xml version="1.0" encoding="UTF-8" standalone="no"?>
<!DOCTYPE svg PUBLIC "-//W3C//DTD SVG 1.1//EN"
 "http://www.w3.org/Graphics/SVG/1.1/DTD/svg11.dtd">
<!-- Generated by graphviz version 2.43.0 (0)
 -->
<!-- Title: /home/user/bayes&#45;filters&#45;lib/src/BayesFilters/include/BayesFilters/KFPrediction.h Pages: 1 -->
<!--zoomable 475 -->
<svg id="main" version="1.1" xmlns="http://www.w3.org/2000/svg" xmlns:xlink="http://www.w3.org/1999/xlink" xml:space="preserve" onload="init(evt)">
<style type="text/css"><![CDATA[
.edge:hover path { stroke: red; }
.edge:hover polygon { stroke: red; fill: red; }
]]></style>
<script type="text/javascript"><![CDATA[
var edges = document.getElementsByTagName('g');
if (edges && edges.length) {
  for (var i=0;i<edges.length;i++) {
    if (edges[i].id.substr(0,4)=='edge') {
      edges[i].setAttribute('class','edge');
    }
  }
}
]]></script>
        <defs>
                <circle id="rim" cx="0" cy="0" r="7"/>
                <circle id="rim2" cx="0" cy="0" r="3.5"/>
                <g id="zoomPlus">
                        <use xlink:href="#rim" fill="#404040">
                                <set attributeName="fill" to="#808080" begin="zoomplus.mouseover" end="zoomplus.mouseout"/>
                        </use>
                        <path d="M-4,0h8M0,-4v8" fill="none" stroke="white" stroke-width="1.5" pointer-events="none"/>
                </g>
                <g id="zoomMin">
                        <use xlink:href="#rim" fill="#404040">
                                <set attributeName="fill" to="#808080" begin="zoomminus.mouseover" end="zoomminus.mouseout"/>
                        </use>
                        <path d="M-4,0h8" fill="none" stroke="white" stroke-width="1.5" pointer-events="none"/>
                </g>
                <g id="dirArrow">
                        <path fill="none" stroke="white" stroke-width="1.5" d="M0,-3.0v7 M-2.5,-0.5L0,-3.0L2.5,-0.5"/>
                </g>
               <g id="resetDef">
                       <use xlink:href="#rim2" fill="#404040">
                               <set attributeName="fill" to="#808080" begin="reset.mouseover" end="reset.mouseout"/>
                       </use>
               </g>
        </defs>

<script type="text/javascript">
var viewWidth = 796;
var viewHeight = 475;
var sectionId = 'dynsection-0';
</script>
<script xlink:href="svgpan.js"/>
<svg id="graph" class="graph">
<g id="viewport">
<title>/home/user/bayes&#45;filters&#45;lib/src/BayesFilters/include/BayesFilters/KFPrediction.h</title>
<polygon fill="white" stroke="transparent" points="-4,4 -4,-471 792.07,-471 792.07,4 -4,4"/>
<!-- Node1 -->
<g id="node1" class="node">
<title>Node1</title>
<g id="a_node1"><a xlink:title=" ">
<polygon fill="#bfbfbf" stroke="black" points="384,-425.5 384,-466.5 537,-466.5 537,-425.5 384,-425.5"/>
<text text-anchor="start" x="392" y="-454.5" font-family="Helvetica,sans-Serif" font-size="10.00">/home/user/bayes&#45;filters</text>
<text text-anchor="start" x="392" y="-443.5" font-family="Helvetica,sans-Serif" font-size="10.00">&#45;lib/src/BayesFilters/include</text>
<text text-anchor="middle" x="460.5" y="-432.5" font-family="Helvetica,sans-Serif" font-size="10.00">/BayesFilters/KFPrediction.h</text>
</a>
</g>
</g>
<!-- Node2 -->
<g id="node2" class="node">
<title>Node2</title>
<g id="a_node2"><a xlink:href="GaussianMixture_8h.html" target="_top" xlink:title=" ">
<polygon fill="white" stroke="black" points="0,-168.5 0,-187.5 171,-187.5 171,-168.5 0,-168.5"/>
<text text-anchor="middle" x="85.5" y="-175.5" font-family="Helvetica,sans-Serif" font-size="10.00">BayesFilters/GaussianMixture.h</text>
</a>
</g>
</g>
<!-- Node1&#45;&gt;Node2 -->
<g id="edge1" class="edge">
<title>Node1&#45;&gt;Node2</title>
<path fill="none" stroke="midnightblue" d="M387.07,-425.4C305.66,-399.82 176.38,-347.09 104.5,-255 91.72,-238.62 87.42,-214.73 86.04,-198.12"/>
<polygon fill="midnightblue" stroke="midnightblue" points="89.53,-197.76 85.48,-187.97 82.54,-198.15 89.53,-197.76"/>
</g>
<!-- Node5 -->
<g id="node5" class="node">
<title>Node5</title>
<g id="a_node5"><a xlink:href="GaussianPrediction_8h.html" target="_top" xlink:title=" ">
<polygon fill="white" stroke="black" points="250.5,-297 250.5,-316 432.5,-316 432.5,-297 250.5,-297"/>
<text text-anchor="middle" x="341.5" y="-304" font-family="Helvetica,sans-Serif" font-size="10.00">BayesFilters/GaussianPrediction.h</text>
</a>
</g>
</g>
<!-- Node1&#45;&gt;Node5 -->
<g id="edge4" class="edge">
<title>Node1&#45;&gt;Node5</title>
<path fill="none" stroke="midnightblue" d="M443.45,-425.3C419.78,-397.95 377.4,-348.98 355.48,-323.65"/>
<polygon fill="midnightblue" stroke="midnightblue" points="358.08,-321.31 348.89,-316.04 352.79,-325.89 358.08,-321.31"/>
</g>
<!-- Node6 -->
<g id="node6" class="node">
<title>Node6</title>
<g id="a_node6"><a xlink:href="ExogenousModel_8h.html" target="_top" xlink:title=" ">
<polygon fill="white" stroke="black" points="373,-168.5 373,-187.5 544,-187.5 544,-168.5 373,-168.5"/>
<text text-anchor="middle" x="458.5" y="-175.5" font-family="Helvetica,sans-Serif" font-size="10.00">BayesFilters/ExogenousModel.h</text>
</a>
</g>
</g>
<!-- Node1&#45;&gt;Node6 -->
<g id="edge29" class="edge">
<title>Node1&#45;&gt;Node6</title>
<path fill="none" stroke="midnightblue" d="M460.35,-425.44C459.98,-376.01 459.01,-246.54 458.64,-197.86"/>
<polygon fill="midnightblue" stroke="midnightblue" points="462.14,-197.54 458.56,-187.56 455.14,-197.59 462.14,-197.54"/>
</g>
<!-- Node16 -->
<g id="node16" class="node">
<title>Node16</title>
<g id="a_node16"><a xlink:title=" ">
<polygon fill="white" stroke="#bfbfbf" points="694.5,-168.5 694.5,-187.5 752.5,-187.5 752.5,-168.5 694.5,-168.5"/>
<text text-anchor="middle" x="723.5" y="-175.5" font-family="Helvetica,sans-Serif" font-size="10.00">memory</text>
</a>
</g>
</g>
<!-- Node1&#45;&gt;Node16 -->
<g id="edge30" class="edge">
<title>Node1&#45;&gt;Node16</title>
<path fill="none" stroke="midnightblue" d="M537.25,-436.43C572.42,-428.98 612.43,-415.04 640.5,-389 697.64,-335.98 716.09,-238.63 721.48,-197.8"/>
<polygon fill="midnightblue" stroke="midnightblue" points="724.98,-198.01 722.7,-187.67 718.03,-197.18 724.98,-198.01"/>
</g>
<!-- Node17 -->
<g id="node17" class="node">
<title>Node17</title>
<g id="a_node17"><a xlink:href="LinearStateModel_8h.html" target="_top" xlink:title=" ">
<polygon fill="white" stroke="black" points="496,-358.5 496,-388.5 631,-388.5 631,-358.5 496,-358.5"/>
<text text-anchor="start" x="504" y="-376.5" font-family="Helvetica,sans-Serif" font-size="10.00">BayesFilters/LinearState</text>
<text text-anchor="middle" x="563.5" y="-365.5" font-family="Helvetica,sans-Serif" font-size="10.00">Model.h</text>
</a>
</g>
</g>
<!-- Node1&#45;&gt;Node17 -->
<g id="edge25" class="edge">
<title>Node1&#45;&gt;Node17</title>
<path fill="none" stroke="midnightblue" d="M489.19,-425.36C503.29,-415.71 520.25,-404.11 534.4,-394.42"/>
<polygon fill="midnightblue" stroke="midnightblue" points="536.52,-397.21 542.8,-388.67 532.57,-391.43 536.52,-397.21"/>
</g>
<!-- Node3 -->
<g id="node3" class="node">
<title>Node3</title>
<g id="a_node3"><a xlink:title=" ">
<polygon fill="white" stroke="#bfbfbf" points="114,-112.5 114,-131.5 161,-131.5 161,-112.5 114,-112.5"/>
<text text-anchor="middle" x="137.5" y="-119.5" font-family="Helvetica,sans-Serif" font-size="10.00">vector</text>
</a>
</g>
</g>
<!-- Node2&#45;&gt;Node3 -->
<g id="edge2" class="edge">
<title>Node2&#45;&gt;Node3</title>
<path fill="none" stroke="midnightblue" d="M94.09,-168.08C101.66,-160.22 112.88,-148.57 122.01,-139.08"/>
<polygon fill="midnightblue" stroke="midnightblue" points="124.66,-141.38 129.07,-131.75 119.62,-136.53 124.66,-141.38"/>
</g>
<!-- Node4 -->
<g id="node4" class="node">
<title>Node4</title>
<g id="a_node4"><a xlink:title=" ">
<polygon fill="white" stroke="#bfbfbf" points="188,-56.5 188,-75.5 265,-75.5 265,-56.5 188,-56.5"/>
<text text-anchor="middle" x="226.5" y="-63.5" font-family="Helvetica,sans-Serif" font-size="10.00">Eigen/Dense</text>
</a>
</g>
</g>
<!-- Node2&#45;&gt;Node4 -->
<g id="edge3" class="edge">
<title>Node2&#45;&gt;Node4</title>
<path fill="none" stroke="midnightblue" d="M85.66,-168.22C86.38,-154.48 89.74,-127.82 104.5,-112 123.59,-91.55 152.79,-80.35 177.83,-74.24"/>
<polygon fill="midnightblue" stroke="midnightblue" points="178.91,-77.59 187.91,-72 177.39,-70.76 178.91,-77.59"/>
</g>
<!-- Node5&#45;&gt;Node4 -->
<g id="edge24" class="edge">
<title>Node5&#45;&gt;Node4</title>
<path fill="none" stroke="midnightblue" d="M337.18,-296.87C324.57,-271.61 286.76,-195.61 256.5,-132 249,-116.24 240.7,-98.2 234.74,-85.14"/>
<polygon fill="midnightblue" stroke="midnightblue" points="237.84,-83.51 230.51,-75.86 231.47,-86.41 237.84,-83.51"/>
</g>
<!-- Node5&#45;&gt;Node6 -->
<g id="edge5" class="edge">
<title>Node5&#45;&gt;Node6</title>
<path fill="none" stroke="midnightblue" d="M349.54,-296.81C368.91,-275.86 418.4,-222.35 443.47,-195.25"/>
<polygon fill="midnightblue" stroke="midnightblue" points="446.18,-197.47 450.4,-187.76 441.04,-192.72 446.18,-197.47"/>
</g>
<!-- Node10 -->
<g id="node10" class="node">
<title>Node10</title>
<g id="a_node10"><a xlink:href="Skippable_8h.html" target="_top" xlink:title=" ">
<polygon fill="white" stroke="black" points="266,-112.5 266,-131.5 403,-131.5 403,-112.5 266,-112.5"/>
<text text-anchor="middle" x="334.5" y="-119.5" font-family="Helvetica,sans-Serif" font-size="10.00">BayesFilters/Skippable.h</text>
</a>
</g>
</g>
<!-- Node5&#45;&gt;Node10 -->
<g id="edge16" class="edge">
<title>Node5&#45;&gt;Node10</title>
<path fill="none" stroke="midnightblue" d="M341.16,-296.7C340.09,-268.69 336.73,-181.21 335.23,-142.16"/>
<polygon fill="midnightblue" stroke="midnightblue" points="338.72,-141.57 334.83,-131.71 331.72,-141.84 338.72,-141.57"/>
</g>
<!-- Node13 -->
<g id="node13" class="node">
<title>Node13</title>
<g id="a_node13"><a xlink:href="GaussianMixturePrediction_8h.html" target="_top" xlink:title=" ">
<polygon fill="white" stroke="black" points="113.5,-224.5 113.5,-254.5 275.5,-254.5 275.5,-224.5 113.5,-224.5"/>
<text text-anchor="start" x="121.5" y="-242.5" font-family="Helvetica,sans-Serif" font-size="10.00">BayesFilters/GaussianMixture</text>
<text text-anchor="middle" x="194.5" y="-231.5" font-family="Helvetica,sans-Serif" font-size="10.00">Prediction.h</text>
</a>
</g>
</g>
<!-- Node5&#45;&gt;Node13 -->
<g id="edge13" class="edge">
<title>Node5&#45;&gt;Node13</title>
<path fill="none" stroke="midnightblue" d="M321.98,-296.87C300.02,-287.16 263.72,-271.11 235.47,-258.61"/>
<polygon fill="midnightblue" stroke="midnightblue" points="236.79,-255.37 226.23,-254.53 233.96,-261.77 236.79,-255.37"/>
</g>
<!-- Node14 -->
<g id="node14" class="node">
<title>Node14</title>
<g id="a_node14"><a xlink:href="StateModel_8h.html" target="_top" xlink:title=" ">
<polygon fill="white" stroke="black" points="500.5,-230 500.5,-249 644.5,-249 644.5,-230 500.5,-230"/>
<text text-anchor="middle" x="572.5" y="-237" font-family="Helvetica,sans-Serif" font-size="10.00">BayesFilters/StateModel.h</text>
</a>
</g>
</g>
<!-- Node5&#45;&gt;Node14 -->
<g id="edge17" class="edge">
<title>Node5&#45;&gt;Node14</title>
<path fill="none" stroke="midnightblue" d="M372.18,-296.87C413.36,-285.28 486.63,-264.66 532.22,-251.83"/>
<polygon fill="midnightblue" stroke="midnightblue" points="533.39,-255.14 542.07,-249.06 531.49,-248.4 533.39,-255.14"/>
</g>
<!-- Node7 -->
<g id="node7" class="node">
<title>Node7</title>
<g id="a_node7"><a xlink:href="ExogenousProcess_8h.html" target="_top" xlink:title=" ">
<polygon fill="white" stroke="black" points="421,-112.5 421,-131.5 600,-131.5 600,-112.5 421,-112.5"/>
<text text-anchor="middle" x="510.5" y="-119.5" font-family="Helvetica,sans-Serif" font-size="10.00">BayesFilters/ExogenousProcess.h</text>
</a>
</g>
</g>
<!-- Node6&#45;&gt;Node7 -->
<g id="edge6" class="edge">
<title>Node6&#45;&gt;Node7</title>
<path fill="none" stroke="midnightblue" d="M467.09,-168.08C474.66,-160.22 485.88,-148.57 495.01,-139.08"/>
<polygon fill="midnightblue" stroke="midnightblue" points="497.66,-141.38 502.07,-131.75 492.62,-136.53 497.66,-141.38"/>
</g>
<!-- Node6&#45;&gt;Node10 -->
<g id="edge10" class="edge">
<title>Node6&#45;&gt;Node10</title>
<path fill="none" stroke="midnightblue" d="M438.85,-168.44C418.54,-159.6 386.6,-145.69 363.4,-135.59"/>
<polygon fill="midnightblue" stroke="midnightblue" points="364.62,-132.3 354.06,-131.52 361.83,-138.72 364.62,-132.3"/>
</g>
<!-- Node7&#45;&gt;Node4 -->
<g id="edge9" class="edge">
<title>Node7&#45;&gt;Node4</title>
<path fill="none" stroke="midnightblue" d="M465.5,-112.44C413.63,-102.58 328.69,-86.43 275.27,-76.27"/>
<polygon fill="midnightblue" stroke="midnightblue" points="275.84,-72.82 265.36,-74.39 274.53,-79.69 275.84,-72.82"/>
</g>
<!-- Node8 -->
<g id="node8" class="node">
<title>Node8</title>
<g id="a_node8"><a xlink:href="VectorDescription_8h.html" target="_top" xlink:title=" ">
<polygon fill="white" stroke="black" points="607,-56.5 607,-75.5 782,-75.5 782,-56.5 607,-56.5"/>
<text text-anchor="middle" x="694.5" y="-63.5" font-family="Helvetica,sans-Serif" font-size="10.00">BayesFilters/VectorDescription.h</text>
</a>
</g>
</g>
<!-- Node7&#45;&gt;Node8 -->
<g id="edge7" class="edge">
<title>Node7&#45;&gt;Node8</title>
<path fill="none" stroke="midnightblue" d="M539.66,-112.44C571.01,-103.24 621.03,-88.56 655.7,-78.39"/>
<polygon fill="midnightblue" stroke="midnightblue" points="656.87,-81.69 665.48,-75.52 654.9,-74.97 656.87,-81.69"/>
</g>
<!-- Node9 -->
<g id="node9" class="node">
<title>Node9</title>
<g id="a_node9"><a xlink:title=" ">
<polygon fill="white" stroke="#bfbfbf" points="668,-0.5 668,-19.5 721,-19.5 721,-0.5 668,-0.5"/>
<text text-anchor="middle" x="694.5" y="-7.5" font-family="Helvetica,sans-Serif" font-size="10.00">cstddef</text>
</a>
</g>
</g>
<!-- Node8&#45;&gt;Node9 -->
<g id="edge8" class="edge">
<title>Node8&#45;&gt;Node9</title>
<path fill="none" stroke="midnightblue" d="M694.5,-56.08C694.5,-49.01 694.5,-38.86 694.5,-29.99"/>
<polygon fill="midnightblue" stroke="midnightblue" points="698,-29.75 694.5,-19.75 691,-29.75 698,-29.75"/>
</g>
<!-- Node11 -->
<g id="node11" class="node">
<title>Node11</title>
<g id="a_node11"><a xlink:href="Skipper_8h.html" target="_top" xlink:title=" ">
<polygon fill="white" stroke="black" points="283,-56.5 283,-75.5 408,-75.5 408,-56.5 283,-56.5"/>
<text text-anchor="middle" x="345.5" y="-63.5" font-family="Helvetica,sans-Serif" font-size="10.00">BayesFilters/Skipper.h</text>
</a>
</g>
</g>
<!-- Node10&#45;&gt;Node11 -->
<g id="edge11" class="edge">
<title>Node10&#45;&gt;Node11</title>
<path fill="none" stroke="midnightblue" d="M336.32,-112.08C337.77,-104.93 339.87,-94.64 341.69,-85.69"/>
<polygon fill="midnightblue" stroke="midnightblue" points="345.15,-86.25 343.72,-75.75 338.29,-84.85 345.15,-86.25"/>
</g>
<!-- Node12 -->
<g id="node12" class="node">
<title>Node12</title>
<g id="a_node12"><a xlink:title=" ">
<polygon fill="white" stroke="#bfbfbf" points="323.5,-0.5 323.5,-19.5 367.5,-19.5 367.5,-0.5 323.5,-0.5"/>
<text text-anchor="middle" x="345.5" y="-7.5" font-family="Helvetica,sans-Serif" font-size="10.00">string</text>
</a>
</g>
</g>
<!-- Node11&#45;&gt;Node12 -->
<g id="edge12" class="edge">
<title>Node11&#45;&gt;Node12</title>
<path fill="none" stroke="midnightblue" d="M345.5,-56.08C345.5,-49.01 345.5,-38.86 345.5,-29.99"/>
<polygon fill="midnightblue" stroke="midnightblue" points="349,-29.75 345.5,-19.75 342,-29.75 349,-29.75"/>
</g>
<!-- Node13&#45;&gt;Node2 -->
<g id="edge14" class="edge">
<title>Node13&#45;&gt;Node2</title>
<path fill="none" stroke="midnightblue" d="M168.67,-224.4C151.03,-214.77 127.8,-202.09 110.37,-192.58"/>
<polygon fill="midnightblue" stroke="midnightblue" points="111.81,-189.38 101.36,-187.66 108.46,-195.52 111.81,-189.38"/>
</g>
<!-- Node13&#45;&gt;Node4 -->
<g id="edge15" class="edge">
<title>Node13&#45;&gt;Node4</title>
<path fill="none" stroke="midnightblue" d="M197.12,-224.47C202.86,-193.7 216.55,-120.33 223.01,-85.7"/>
<polygon fill="midnightblue" stroke="midnightblue" points="226.51,-86.03 224.9,-75.56 219.63,-84.75 226.51,-86.03"/>
</g>
<!-- Node14&#45;&gt;Node6 -->
<g id="edge18" class="edge">
<title>Node14&#45;&gt;Node6</title>
<path fill="none" stroke="midnightblue" d="M556.17,-229.98C537.29,-220.12 505.99,-203.79 483.92,-192.27"/>
<polygon fill="midnightblue" stroke="midnightblue" points="485.29,-189.03 474.8,-187.51 482.05,-195.24 485.29,-189.03"/>
</g>
<!-- Node14&#45;&gt;Node10 -->
<g id="edge19" class="edge">
<title>Node14&#45;&gt;Node10</title>
<path fill="none" stroke="midnightblue" d="M572.86,-229.68C572.97,-214.7 570.85,-184.33 553.5,-168 542.34,-157.5 461.67,-142.84 401.45,-133.14"/>
<polygon fill="midnightblue" stroke="midnightblue" points="401.65,-129.63 391.22,-131.51 400.55,-136.54 401.65,-129.63"/>
</g>
<!-- Node15 -->
<g id="node15" class="node">
<title>Node15</title>
<g id="a_node15"><a xlink:href="StateProcess_8h.html" target="_top" xlink:title=" ">
<polygon fill="white" stroke="black" points="618.5,-112.5 618.5,-131.5 770.5,-131.5 770.5,-112.5 618.5,-112.5"/>
<text text-anchor="middle" x="694.5" y="-119.5" font-family="Helvetica,sans-Serif" font-size="10.00">BayesFilters/StateProcess.h</text>
</a>
</g>
</g>
<!-- Node14&#45;&gt;Node15 -->
<g id="edge20" class="edge">
<title>Node14&#45;&gt;Node15</title>
<path fill="none" stroke="midnightblue" d="M581.67,-229.82C602.16,-210.42 651.9,-163.33 677.96,-138.66"/>
<polygon fill="midnightblue" stroke="midnightblue" points="680.37,-141.2 685.22,-131.78 675.56,-136.12 680.37,-141.2"/>
</g>
<!-- Node14&#45;&gt;Node16 -->
<g id="edge23" class="edge">
<title>Node14&#45;&gt;Node16</title>
<path fill="none" stroke="midnightblue" d="M594.13,-229.98C619.92,-219.81 663.21,-202.76 692.54,-191.2"/>
<polygon fill="midnightblue" stroke="midnightblue" points="693.88,-194.43 701.91,-187.51 691.32,-187.92 693.88,-194.43"/>
</g>
<!-- Node15&#45;&gt;Node4 -->
<g id="edge22" class="edge">
<title>Node15&#45;&gt;Node4</title>
<path fill="none" stroke="midnightblue" d="M618.4,-112.92C510.79,-101.49 322.69,-81.47 275.21,-75.8"/>
<polygon fill="midnightblue" stroke="midnightblue" points="275.59,-72.33 265.23,-74.53 274.71,-79.27 275.59,-72.33"/>
</g>
<!-- Node15&#45;&gt;Node8 -->
<g id="edge21" class="edge">
<title>Node15&#45;&gt;Node8</title>
<path fill="none" stroke="midnightblue" d="M694.5,-112.08C694.5,-105.01 694.5,-94.86 694.5,-85.99"/>
<polygon fill="midnightblue" stroke="midnightblue" points="698,-85.75 694.5,-75.75 691,-85.75 698,-85.75"/>
</g>
<!-- Node18 -->
<g id="node18" class="node">
<title>Node18</title>
<g id="a_node18"><a xlink:href="AdditiveStateModel_8h.html" target="_top" xlink:title=" ">
<polygon fill="white" stroke="black" points="499.5,-291.5 499.5,-321.5 645.5,-321.5 645.5,-291.5 499.5,-291.5"/>
<text text-anchor="start" x="507.5" y="-309.5" font-family="Helvetica,sans-Serif" font-size="10.00">BayesFilters/AdditiveState</text>
<text text-anchor="middle" x="572.5" y="-298.5" font-family="Helvetica,sans-Serif" font-size="10.00">Model.h</text>
</a>
</g>
</g>
<!-- Node17&#45;&gt;Node18 -->
<g id="edge26" class="edge">
<title>Node17&#45;&gt;Node18</title>
<path fill="none" stroke="midnightblue" d="M565.45,-358.4C566.54,-350.56 567.92,-340.6 569.17,-331.57"/>
<polygon fill="midnightblue" stroke="midnightblue" points="572.65,-331.96 570.55,-321.58 565.71,-331 572.65,-331.96"/>
</g>
<!-- Node18&#45;&gt;Node8 -->
<g id="edge28" class="edge">
<title>Node18&#45;&gt;Node8</title>
<path fill="none" stroke="midnightblue" d="M610.37,-291.37C653.06,-273.57 721.68,-239.01 761.5,-188 782.86,-160.64 797.4,-141.74 779.5,-112 770.21,-96.57 753.67,-86.16 737.63,-79.27"/>
<polygon fill="midnightblue" stroke="midnightblue" points="738.89,-76.01 728.3,-75.61 736.33,-82.52 738.89,-76.01"/>
</g>
<!-- Node18&#45;&gt;Node14 -->
<g id="edge27" class="edge">
<title>Node18&#45;&gt;Node14</title>
<path fill="none" stroke="midnightblue" d="M572.5,-291.4C572.5,-282.06 572.5,-269.71 572.5,-259.52"/>
<polygon fill="midnightblue" stroke="midnightblue" points="576,-259.19 572.5,-249.19 569,-259.19 576,-259.19"/>
</g>
</g>
</svg>
        <g id="navigator" transform="translate(0 0)" fill="#404254">
                <rect fill="#f2f5e9" fill-opacity="0.5" stroke="#606060" stroke-width=".5" x="0" y="0" width="60" height="60"/>
                <use id="zoomplus" xlink:href="#zoomPlus" x="17" y="9" onmousedown="handleZoom(evt,'in')"/>
                <use id="zoomminus" xlink:href="#zoomMin" x="42" y="9" onmousedown="handleZoom(evt,'out')"/>
                <use id="reset" xlink:href="#resetDef" x="30" y="36" onmousedown="handleReset()"/>
                <g id="arrowUp" xlink:href="#dirArrow" transform="translate(30 24)" onmousedown="handlePan(0,-1)">
                  <use xlink:href="#rim" fill="#404040">
                        <set attributeName="fill" to="#808080" begin="arrowUp.mouseover" end="arrowUp.mouseout"/>
                  </use>
                  <path fill="none" stroke="white" stroke-width="1.5" d="M0,-3.0v7 M-2.5,-0.5L0,-3.0L2.5,-0.5"/>
                </g>
                <g id="arrowRight" xlink:href="#dirArrow" transform="rotate(90) translate(36 -43)" onmousedown="handlePan(1,0)">
                  <use xlink:href="#rim" fill="#404040">
                        <set attributeName="fill" to="#808080" begin="arrowRight.mouseover" end="arrowRight.mouseout"/>
                  </use>
                  <path fill="none" stroke="white" stroke-width="1.5" d="M0,-3.0v7 M-2.5,-0.5L0,-3.0L2.5,-0.5"/>
                </g>
                <g id="arrowDown" xlink:href="#dirArrow" transform="rotate(180) translate(-30 -48)" onmousedown="handlePan(0,1)">
                  <use xlink:href="#rim" fill="#404040">
                        <set attributeName="fill" to="#808080" begin="arrowDown.mouseover" end="arrowDown.mouseout"/>
                  </use>
                  <path fill="none" stroke="white" stroke-width="1.5" d="M0,-3.0v7 M-2.5,-0.5L0,-3.0L2.5,-0.5"/>
                </g>
                <g id="arrowLeft" xlink:href="#dirArrow" transform="rotate(270) translate(-36 17)" onmousedown="handlePan(-1,0)">
                  <use xlink:href="#rim" fill="#404040">
                        <set attributeName="fill" to="#808080" begin="arrowLeft.mouseover" end="arrowLeft.mouseout"/>
                  </use>
                  <path fill="none" stroke="white" stroke-width="1.5" d="M0,-3.0v7 M-2.5,-0.5L0,-3.0L2.5,-0.5"/>
                </g>
        </g>
        <svg viewBox="0 0 15 15" width="100%" height="30px" preserveAspectRatio="xMaxYMin meet">
         <g id="arrow_out" transform="scale(0.3 0.3)">
          <a xlink:href="KFPrediction_8h__incl_org.svg" target="_base">
           <rect id="button" ry="5" rx="5" y="6" x="6" height="38" width="38"
                fill="#f2f5e9" fill-opacity="0.5" stroke="#606060" stroke-width="1.0"/>
           <path id="arrow"
             d="M 11.500037,31.436501 C 11.940474,20.09759 22.043105,11.32322 32.158766,21.979434 L 37.068811,17.246167 C 37.068811,17.246167 37.088388,32 37.088388,32 L 22.160133,31.978069 C 22.160133,31.978069 26.997745,27.140456 26.997745,27.140456 C 18.528582,18.264221 13.291696,25.230495 11.500037,31.436501 z"
             style="fill:#404040;"/>
          </a>
         </g>
        </svg>
</svg>
