<?xml version="1.0" encoding="UTF-8" standalone="no"?>
<!DOCTYPE svg PUBLIC "-//W3C//DTD SVG 1.1//EN"
 "http://www.w3.org/Graphics/SVG/1.1/DTD/svg11.dtd">
<!-- Generated by graphviz version 2.47.2 (0)
 -->
<!-- Title: /home/xenvre/robot&#45;code/bfl_robotology/src/BayesFilters/include/BayesFilters/LikelihoodModel.h Pages: 1 -->
<svg width="816pt" height="417pt"
 viewBox="0.00 0.00 815.50 417.00" xmlns="http://www.w3.org/2000/svg" xmlns:xlink="http://www.w3.org/1999/xlink">
<g id="graph0" class="graph" transform="scale(1 1) rotate(0) translate(4 413)">
<title>/home/xenvre/robot&#45;code/bfl_robotology/src/BayesFilters/include/BayesFilters/LikelihoodModel.h</title>
<polygon fill="white" stroke="transparent" points="-4,4 -4,-413 811.5,-413 811.5,4 -4,4"/>
<!-- Node1 -->
<g id="node1" class="node">
<title>Node1</title>
<g id="a_node1"><a xlink:title=" ">
<polygon fill="#bfbfbf" stroke="black" points="141.5,-356.5 141.5,-408.5 296.5,-408.5 296.5,-356.5 141.5,-356.5"/>
<text text-anchor="start" x="149.5" y="-396.5" font-family="Helvetica,sans-Serif" font-size="10.00">/home/xenvre/robot</text>
<text text-anchor="start" x="149.5" y="-385.5" font-family="Helvetica,sans-Serif" font-size="10.00">&#45;code/bfl_robotology</text>
<text text-anchor="start" x="149.5" y="-374.5" font-family="Helvetica,sans-Serif" font-size="10.00">/src/BayesFilters/include</text>
<text text-anchor="middle" x="219" y="-363.5" font-family="Helvetica,sans-Serif" font-size="10.00">/BayesFilters/LikelihoodModel.h</text>
</a>
</g>
</g>
<!-- Node2 -->
<g id="node2" class="node">
<title>Node2</title>
<g id="a_node2"><a xlink:href="GaussianLikelihood_8h.html" target="_top" xlink:title=" ">
<polygon fill="white" stroke="black" points="0,-267.5 0,-319.5 170,-319.5 170,-267.5 0,-267.5"/>
<text text-anchor="start" x="8" y="-307.5" font-family="Helvetica,sans-Serif" font-size="10.00">/home/xenvre/robot</text>
<text text-anchor="start" x="8" y="-296.5" font-family="Helvetica,sans-Serif" font-size="10.00">&#45;code/bfl_robotology</text>
<text text-anchor="start" x="8" y="-285.5" font-family="Helvetica,sans-Serif" font-size="10.00">/src/BayesFilters/include</text>
<text text-anchor="middle" x="85" y="-274.5" font-family="Helvetica,sans-Serif" font-size="10.00">/BayesFilters/GaussianLikelihood.h</text>
</a>
</g>
</g>
<!-- Node1&#45;&gt;Node2 -->
<g id="edge1" class="edge">
<title>Node1&#45;&gt;Node2</title>
<path fill="none" stroke="midnightblue" d="M171.7,-350.79C155.97,-340.58 138.66,-329.34 123.67,-319.61"/>
<polygon fill="midnightblue" stroke="midnightblue" points="169.95,-353.83 180.24,-356.34 173.76,-347.95 169.95,-353.83"/>
</g>
<!-- Node4 -->
<g id="node4" class="node">
<title>Node4</title>
<g id="a_node4"><a xlink:href="GPFCorrection_8h.html" target="_top" xlink:title=" ">
<polygon fill="white" stroke="black" points="143.5,-178.5 143.5,-230.5 294.5,-230.5 294.5,-178.5 143.5,-178.5"/>
<text text-anchor="start" x="151.5" y="-218.5" font-family="Helvetica,sans-Serif" font-size="10.00">/home/xenvre/robot</text>
<text text-anchor="start" x="151.5" y="-207.5" font-family="Helvetica,sans-Serif" font-size="10.00">&#45;code/bfl_robotology</text>
<text text-anchor="start" x="151.5" y="-196.5" font-family="Helvetica,sans-Serif" font-size="10.00">/src/BayesFilters/include</text>
<text text-anchor="middle" x="219" y="-185.5" font-family="Helvetica,sans-Serif" font-size="10.00">/BayesFilters/GPFCorrection.h</text>
</a>
</g>
</g>
<!-- Node1&#45;&gt;Node4 -->
<g id="edge3" class="edge">
<title>Node1&#45;&gt;Node4</title>
<path fill="none" stroke="midnightblue" d="M219,-346.25C219,-312.04 219,-260.97 219,-230.67"/>
<polygon fill="midnightblue" stroke="midnightblue" points="215.5,-346.28 219,-356.28 222.5,-346.28 215.5,-346.28"/>
</g>
<!-- Node6 -->
<g id="node6" class="node">
<title>Node6</title>
<g id="a_node6"><a xlink:href="PFCorrection_8h.html" target="_top" xlink:title=" ">
<polygon fill="white" stroke="black" points="384.5,-267.5 384.5,-319.5 527.5,-319.5 527.5,-267.5 384.5,-267.5"/>
<text text-anchor="start" x="392.5" y="-307.5" font-family="Helvetica,sans-Serif" font-size="10.00">/home/xenvre/robot</text>
<text text-anchor="start" x="392.5" y="-296.5" font-family="Helvetica,sans-Serif" font-size="10.00">&#45;code/bfl_robotology</text>
<text text-anchor="start" x="392.5" y="-285.5" font-family="Helvetica,sans-Serif" font-size="10.00">/src/BayesFilters/include</text>
<text text-anchor="middle" x="456" y="-274.5" font-family="Helvetica,sans-Serif" font-size="10.00">/BayesFilters/PFCorrection.h</text>
</a>
</g>
</g>
<!-- Node1&#45;&gt;Node6 -->
<g id="edge5" class="edge">
<title>Node1&#45;&gt;Node6</title>
<path fill="none" stroke="midnightblue" d="M296.64,-353C326.08,-342.19 359.34,-329.98 387.84,-319.52"/>
<polygon fill="midnightblue" stroke="midnightblue" points="295.41,-349.72 287.23,-356.45 297.83,-356.29 295.41,-349.72"/>
</g>
<!-- Node3 -->
<g id="node3" class="node">
<title>Node3</title>
<g id="a_node3"><a xlink:href="GaussianLikelihood_8cpp.html" target="_top" xlink:title=" ">
<polygon fill="white" stroke="black" points="2.5,-178.5 2.5,-230.5 125.5,-230.5 125.5,-178.5 2.5,-178.5"/>
<text text-anchor="start" x="10.5" y="-218.5" font-family="Helvetica,sans-Serif" font-size="10.00">/home/xenvre/robot</text>
<text text-anchor="start" x="10.5" y="-207.5" font-family="Helvetica,sans-Serif" font-size="10.00">&#45;code/bfl_robotology</text>
<text text-anchor="start" x="10.5" y="-196.5" font-family="Helvetica,sans-Serif" font-size="10.00">/src/BayesFilters/src</text>
<text text-anchor="middle" x="64" y="-185.5" font-family="Helvetica,sans-Serif" font-size="10.00">/GaussianLikelihood.cpp</text>
</a>
</g>
</g>
<!-- Node2&#45;&gt;Node3 -->
<g id="edge2" class="edge">
<title>Node2&#45;&gt;Node3</title>
<path fill="none" stroke="midnightblue" d="M76.55,-257.48C74.38,-248.49 72.08,-238.99 70.06,-230.61"/>
<polygon fill="midnightblue" stroke="midnightblue" points="73.18,-258.44 78.93,-267.34 79.98,-256.79 73.18,-258.44"/>
</g>
<!-- Node5 -->
<g id="node5" class="node">
<title>Node5</title>
<g id="a_node5"><a xlink:href="GPFCorrection_8cpp.html" target="_top" xlink:title=" ">
<polygon fill="white" stroke="black" points="165.5,-89.5 165.5,-141.5 272.5,-141.5 272.5,-89.5 165.5,-89.5"/>
<text text-anchor="start" x="173.5" y="-129.5" font-family="Helvetica,sans-Serif" font-size="10.00">/home/xenvre/robot</text>
<text text-anchor="start" x="173.5" y="-118.5" font-family="Helvetica,sans-Serif" font-size="10.00">&#45;code/bfl_robotology</text>
<text text-anchor="start" x="173.5" y="-107.5" font-family="Helvetica,sans-Serif" font-size="10.00">/src/BayesFilters/src</text>
<text text-anchor="middle" x="219" y="-96.5" font-family="Helvetica,sans-Serif" font-size="10.00">/GPFCorrection.cpp</text>
</a>
</g>
</g>
<!-- Node4&#45;&gt;Node5 -->
<g id="edge4" class="edge">
<title>Node4&#45;&gt;Node5</title>
<path fill="none" stroke="midnightblue" d="M219,-168.19C219,-159.28 219,-149.9 219,-141.61"/>
<polygon fill="midnightblue" stroke="midnightblue" points="215.5,-168.34 219,-178.34 222.5,-168.34 215.5,-168.34"/>
</g>
<!-- Node6&#45;&gt;Node4 -->
<g id="edge8" class="edge">
<title>Node6&#45;&gt;Node4</title>
<path fill="none" stroke="midnightblue" d="M378.36,-264C348.92,-253.19 315.66,-240.98 287.16,-230.52"/>
<polygon fill="midnightblue" stroke="midnightblue" points="377.17,-267.29 387.77,-267.45 379.59,-260.72 377.17,-267.29"/>
</g>
<!-- Node7 -->
<g id="node7" class="node">
<title>Node7</title>
<g id="a_node7"><a xlink:href="BootstrapCorrection_8h.html" target="_top" xlink:title=" ">
<polygon fill="white" stroke="black" points="312.5,-178.5 312.5,-230.5 485.5,-230.5 485.5,-178.5 312.5,-178.5"/>
<text text-anchor="start" x="320.5" y="-218.5" font-family="Helvetica,sans-Serif" font-size="10.00">/home/xenvre/robot</text>
<text text-anchor="start" x="320.5" y="-207.5" font-family="Helvetica,sans-Serif" font-size="10.00">&#45;code/bfl_robotology</text>
<text text-anchor="start" x="320.5" y="-196.5" font-family="Helvetica,sans-Serif" font-size="10.00">/src/BayesFilters/include</text>
<text text-anchor="middle" x="399" y="-185.5" font-family="Helvetica,sans-Serif" font-size="10.00">/BayesFilters/BootstrapCorrection.h</text>
</a>
</g>
</g>
<!-- Node6&#45;&gt;Node7 -->
<g id="edge6" class="edge">
<title>Node6&#45;&gt;Node7</title>
<path fill="none" stroke="midnightblue" d="M434,-258.93C427.83,-249.51 421.24,-239.44 415.45,-230.61"/>
<polygon fill="midnightblue" stroke="midnightblue" points="431.11,-260.89 439.51,-267.34 436.96,-257.05 431.11,-260.89"/>
</g>
<!-- Node9 -->
<g id="node9" class="node">
<title>Node9</title>
<g id="a_node9"><a xlink:href="ParticleFilter_8h.html" target="_top" xlink:title=" ">
<polygon fill="white" stroke="black" points="542,-178.5 542,-230.5 682,-230.5 682,-178.5 542,-178.5"/>
<text text-anchor="start" x="550" y="-218.5" font-family="Helvetica,sans-Serif" font-size="10.00">/home/xenvre/robot</text>
<text text-anchor="start" x="550" y="-207.5" font-family="Helvetica,sans-Serif" font-size="10.00">&#45;code/bfl_robotology</text>
<text text-anchor="start" x="550" y="-196.5" font-family="Helvetica,sans-Serif" font-size="10.00">/src/BayesFilters/include</text>
<text text-anchor="middle" x="612" y="-185.5" font-family="Helvetica,sans-Serif" font-size="10.00">/BayesFilters/ParticleFilter.h</text>
</a>
</g>
</g>
<!-- Node6&#45;&gt;Node9 -->
<g id="edge9" class="edge">
<title>Node6&#45;&gt;Node9</title>
<path fill="none" stroke="midnightblue" d="M510.06,-262.35C528.63,-252 549.2,-240.52 566.98,-230.61"/>
<polygon fill="midnightblue" stroke="midnightblue" points="508.15,-259.41 501.12,-267.34 511.56,-265.52 508.15,-259.41"/>
</g>
<!-- Node10 -->
<g id="node10" class="node">
<title>Node10</title>
<g id="a_node10"><a xlink:href="SIS_8h.html" target="_top" xlink:title=" ">
<polygon fill="white" stroke="black" points="465.5,-89.5 465.5,-141.5 590.5,-141.5 590.5,-89.5 465.5,-89.5"/>
<text text-anchor="start" x="473.5" y="-129.5" font-family="Helvetica,sans-Serif" font-size="10.00">/home/xenvre/robot</text>
<text text-anchor="start" x="473.5" y="-118.5" font-family="Helvetica,sans-Serif" font-size="10.00">&#45;code/bfl_robotology</text>
<text text-anchor="start" x="473.5" y="-107.5" font-family="Helvetica,sans-Serif" font-size="10.00">/src/BayesFilters/include</text>
<text text-anchor="middle" x="528" y="-96.5" font-family="Helvetica,sans-Serif" font-size="10.00">/BayesFilters/SIS.h</text>
</a>
</g>
</g>
<!-- Node6&#45;&gt;Node10 -->
<g id="edge13" class="edge">
<title>Node6&#45;&gt;Node10</title>
<path fill="none" stroke="midnightblue" d="M479.02,-258.82C484.42,-250.02 489.81,-240.36 494,-231 507.22,-201.48 516.96,-165.42 522.54,-141.75"/>
<polygon fill="midnightblue" stroke="midnightblue" points="476.05,-256.98 473.67,-267.3 481.97,-260.72 476.05,-256.98"/>
</g>
<!-- Node13 -->
<g id="node13" class="node">
<title>Node13</title>
<g id="a_node13"><a xlink:href="PFCorrection_8cpp.html" target="_top" xlink:title=" ">
<polygon fill="white" stroke="black" points="700.5,-178.5 700.5,-230.5 807.5,-230.5 807.5,-178.5 700.5,-178.5"/>
<text text-anchor="start" x="708.5" y="-218.5" font-family="Helvetica,sans-Serif" font-size="10.00">/home/xenvre/robot</text>
<text text-anchor="start" x="708.5" y="-207.5" font-family="Helvetica,sans-Serif" font-size="10.00">&#45;code/bfl_robotology</text>
<text text-anchor="start" x="708.5" y="-196.5" font-family="Helvetica,sans-Serif" font-size="10.00">/src/BayesFilters/src</text>
<text text-anchor="middle" x="754" y="-185.5" font-family="Helvetica,sans-Serif" font-size="10.00">/PFCorrection.cpp</text>
</a>
</g>
</g>
<!-- Node6&#45;&gt;Node13 -->
<g id="edge14" class="edge">
<title>Node6&#45;&gt;Node13</title>
<path fill="none" stroke="midnightblue" d="M537.48,-273.91C583.06,-262.83 640.66,-247.7 691,-231 694.02,-230 697.11,-228.92 700.21,-227.8"/>
<polygon fill="midnightblue" stroke="midnightblue" points="536.55,-270.54 527.65,-276.28 538.2,-277.34 536.55,-270.54"/>
</g>
<!-- Node8 -->
<g id="node8" class="node">
<title>Node8</title>
<g id="a_node8"><a xlink:href="BootstrapCorrection_8cpp.html" target="_top" xlink:title=" ">
<polygon fill="white" stroke="black" points="322.5,-89.5 322.5,-141.5 447.5,-141.5 447.5,-89.5 322.5,-89.5"/>
<text text-anchor="start" x="330.5" y="-129.5" font-family="Helvetica,sans-Serif" font-size="10.00">/home/xenvre/robot</text>
<text text-anchor="start" x="330.5" y="-118.5" font-family="Helvetica,sans-Serif" font-size="10.00">&#45;code/bfl_robotology</text>
<text text-anchor="start" x="330.5" y="-107.5" font-family="Helvetica,sans-Serif" font-size="10.00">/src/BayesFilters/src</text>
<text text-anchor="middle" x="385" y="-96.5" font-family="Helvetica,sans-Serif" font-size="10.00">/BootstrapCorrection.cpp</text>
</a>
</g>
</g>
<!-- Node7&#45;&gt;Node8 -->
<g id="edge7" class="edge">
<title>Node7&#45;&gt;Node8</title>
<path fill="none" stroke="midnightblue" d="M393.32,-168.19C391.88,-159.28 390.37,-149.9 389.04,-141.61"/>
<polygon fill="midnightblue" stroke="midnightblue" points="389.91,-169.02 394.95,-178.34 396.82,-167.91 389.91,-169.02"/>
</g>
<!-- Node9&#45;&gt;Node10 -->
<g id="edge10" class="edge">
<title>Node9&#45;&gt;Node10</title>
<path fill="none" stroke="midnightblue" d="M580.69,-171.08C571.29,-161.34 561.12,-150.8 552.24,-141.61"/>
<polygon fill="midnightblue" stroke="midnightblue" points="578.24,-173.57 587.7,-178.34 583.28,-168.71 578.24,-173.57"/>
</g>
<!-- Node12 -->
<g id="node12" class="node">
<title>Node12</title>
<g id="a_node12"><a xlink:href="ParticleFilter_8cpp.html" target="_top" xlink:title=" ">
<polygon fill="white" stroke="black" points="608.5,-89.5 608.5,-141.5 715.5,-141.5 715.5,-89.5 608.5,-89.5"/>
<text text-anchor="start" x="616.5" y="-129.5" font-family="Helvetica,sans-Serif" font-size="10.00">/home/xenvre/robot</text>
<text text-anchor="start" x="616.5" y="-118.5" font-family="Helvetica,sans-Serif" font-size="10.00">&#45;code/bfl_robotology</text>
<text text-anchor="start" x="616.5" y="-107.5" font-family="Helvetica,sans-Serif" font-size="10.00">/src/BayesFilters/src</text>
<text text-anchor="middle" x="662" y="-96.5" font-family="Helvetica,sans-Serif" font-size="10.00">/ParticleFilter.cpp</text>
</a>
</g>
</g>
<!-- Node9&#45;&gt;Node12 -->
<g id="edge12" class="edge">
<title>Node9&#45;&gt;Node12</title>
<path fill="none" stroke="midnightblue" d="M631.46,-169.64C636.82,-160.31 642.55,-150.35 647.57,-141.61"/>
<polygon fill="midnightblue" stroke="midnightblue" points="628.41,-167.92 626.46,-178.34 634.48,-171.41 628.41,-167.92"/>
</g>
<!-- Node11 -->
<g id="node11" class="node">
<title>Node11</title>
<g id="a_node11"><a xlink:href="SIS_8cpp.html" target="_top" xlink:title=" ">
<polygon fill="white" stroke="black" points="474.5,-0.5 474.5,-52.5 581.5,-52.5 581.5,-0.5 474.5,-0.5"/>
<text text-anchor="start" x="482.5" y="-40.5" font-family="Helvetica,sans-Serif" font-size="10.00">/home/xenvre/robot</text>
<text text-anchor="start" x="482.5" y="-29.5" font-family="Helvetica,sans-Serif" font-size="10.00">&#45;code/bfl_robotology</text>
<text text-anchor="start" x="482.5" y="-18.5" font-family="Helvetica,sans-Serif" font-size="10.00">/src/BayesFilters/src</text>
<text text-anchor="middle" x="528" y="-7.5" font-family="Helvetica,sans-Serif" font-size="10.00">/SIS.cpp</text>
</a>
</g>
</g>
<!-- Node10&#45;&gt;Node11 -->
<g id="edge11" class="edge">
<title>Node10&#45;&gt;Node11</title>
<path fill="none" stroke="midnightblue" d="M528,-79.19C528,-70.28 528,-60.9 528,-52.61"/>
<polygon fill="midnightblue" stroke="midnightblue" points="524.5,-79.34 528,-89.34 531.5,-79.34 524.5,-79.34"/>
</g>
</g>
</svg>
