<?xml version="1.0" encoding="UTF-8" standalone="no"?>
<!DOCTYPE svg PUBLIC "-//W3C//DTD SVG 1.1//EN"
 "http://www.w3.org/Graphics/SVG/1.1/DTD/svg11.dtd">
<!-- Generated by graphviz version 2.43.0 (0)
 -->
<!-- Title: /home/user/bayes&#45;filters&#45;lib/src/BayesFilters/include/BayesFilters/LikelihoodModel.h Pages: 1 -->
<svg width="894pt" height="362pt"
 viewBox="0.00 0.00 893.50 362.00" xmlns="http://www.w3.org/2000/svg" xmlns:xlink="http://www.w3.org/1999/xlink">
<g id="graph0" class="graph" transform="scale(1 1) rotate(0) translate(4 358)">
<title>/home/user/bayes&#45;filters&#45;lib/src/BayesFilters/include/BayesFilters/LikelihoodModel.h</title>
<polygon fill="white" stroke="transparent" points="-4,4 -4,-358 889.5,-358 889.5,4 -4,4"/>
<!-- Node1 -->
<g id="node1" class="node">
<title>Node1</title>
<g id="a_node1"><a xlink:title=" ">
<polygon fill="#bfbfbf" stroke="black" points="150.5,-312.5 150.5,-353.5 321.5,-353.5 321.5,-312.5 150.5,-312.5"/>
<text text-anchor="start" x="158.5" y="-341.5" font-family="Helvetica,sans-Serif" font-size="10.00">/home/user/bayes&#45;filters</text>
<text text-anchor="start" x="158.5" y="-330.5" font-family="Helvetica,sans-Serif" font-size="10.00">&#45;lib/src/BayesFilters/include</text>
<text text-anchor="middle" x="236" y="-319.5" font-family="Helvetica,sans-Serif" font-size="10.00">/BayesFilters/LikelihoodModel.h</text>
</a>
</g>
</g>
<!-- Node2 -->
<g id="node2" class="node">
<title>Node2</title>
<g id="a_node2"><a xlink:href="GaussianLikelihood_8h.html" target="_top" xlink:title=" ">
<polygon fill="white" stroke="black" points="0,-234.5 0,-275.5 186,-275.5 186,-234.5 0,-234.5"/>
<text text-anchor="start" x="8" y="-263.5" font-family="Helvetica,sans-Serif" font-size="10.00">/home/user/bayes&#45;filters</text>
<text text-anchor="start" x="8" y="-252.5" font-family="Helvetica,sans-Serif" font-size="10.00">&#45;lib/src/BayesFilters/include</text>
<text text-anchor="middle" x="93" y="-241.5" font-family="Helvetica,sans-Serif" font-size="10.00">/BayesFilters/GaussianLikelihood.h</text>
</a>
</g>
</g>
<!-- Node1&#45;&gt;Node2 -->
<g id="edge1" class="edge">
<title>Node1&#45;&gt;Node2</title>
<path fill="none" stroke="midnightblue" d="M190.14,-307.63C170.6,-297.24 148.11,-285.29 129.7,-275.51"/>
<polygon fill="midnightblue" stroke="midnightblue" points="188.7,-310.83 199.17,-312.43 191.99,-304.64 188.7,-310.83"/>
</g>
<!-- Node4 -->
<g id="node4" class="node">
<title>Node4</title>
<g id="a_node4"><a xlink:href="GPFCorrection_8h.html" target="_top" xlink:title=" ">
<polygon fill="white" stroke="black" points="155.5,-156.5 155.5,-197.5 316.5,-197.5 316.5,-156.5 155.5,-156.5"/>
<text text-anchor="start" x="163.5" y="-185.5" font-family="Helvetica,sans-Serif" font-size="10.00">/home/user/bayes&#45;filters</text>
<text text-anchor="start" x="163.5" y="-174.5" font-family="Helvetica,sans-Serif" font-size="10.00">&#45;lib/src/BayesFilters/include</text>
<text text-anchor="middle" x="236" y="-163.5" font-family="Helvetica,sans-Serif" font-size="10.00">/BayesFilters/GPFCorrection.h</text>
</a>
</g>
</g>
<!-- Node1&#45;&gt;Node4 -->
<g id="edge3" class="edge">
<title>Node1&#45;&gt;Node4</title>
<path fill="none" stroke="midnightblue" d="M236,-302.36C236,-271.61 236,-224.36 236,-197.83"/>
<polygon fill="midnightblue" stroke="midnightblue" points="232.5,-302.5 236,-312.5 239.5,-302.5 232.5,-302.5"/>
</g>
<!-- Node6 -->
<g id="node6" class="node">
<title>Node6</title>
<g id="a_node6"><a xlink:href="PFCorrection_8h.html" target="_top" xlink:title=" ">
<polygon fill="white" stroke="black" points="413,-234.5 413,-275.5 567,-275.5 567,-234.5 413,-234.5"/>
<text text-anchor="start" x="421" y="-263.5" font-family="Helvetica,sans-Serif" font-size="10.00">/home/user/bayes&#45;filters</text>
<text text-anchor="start" x="421" y="-252.5" font-family="Helvetica,sans-Serif" font-size="10.00">&#45;lib/src/BayesFilters/include</text>
<text text-anchor="middle" x="490" y="-241.5" font-family="Helvetica,sans-Serif" font-size="10.00">/BayesFilters/PFCorrection.h</text>
</a>
</g>
</g>
<!-- Node1&#45;&gt;Node6 -->
<g id="edge5" class="edge">
<title>Node1&#45;&gt;Node6</title>
<path fill="none" stroke="midnightblue" d="M311.39,-309.44C347.44,-298.66 390.18,-285.87 424.81,-275.51"/>
<polygon fill="midnightblue" stroke="midnightblue" points="309.99,-306.21 301.41,-312.43 311.99,-312.91 309.99,-306.21"/>
</g>
<!-- Node3 -->
<g id="node3" class="node">
<title>Node3</title>
<g id="a_node3"><a xlink:href="GaussianLikelihood_8cpp.html" target="_top" xlink:title=" ">
<polygon fill="white" stroke="black" points="2.5,-156.5 2.5,-197.5 137.5,-197.5 137.5,-156.5 2.5,-156.5"/>
<text text-anchor="start" x="10.5" y="-185.5" font-family="Helvetica,sans-Serif" font-size="10.00">/home/user/bayes&#45;filters</text>
<text text-anchor="start" x="10.5" y="-174.5" font-family="Helvetica,sans-Serif" font-size="10.00">&#45;lib/src/BayesFilters/src</text>
<text text-anchor="middle" x="70" y="-163.5" font-family="Helvetica,sans-Serif" font-size="10.00">/GaussianLikelihood.cpp</text>
</a>
</g>
</g>
<!-- Node2&#45;&gt;Node3 -->
<g id="edge2" class="edge">
<title>Node2&#45;&gt;Node3</title>
<path fill="none" stroke="midnightblue" d="M84.1,-224.59C81.35,-215.51 78.4,-205.74 75.9,-197.51"/>
<polygon fill="midnightblue" stroke="midnightblue" points="80.83,-225.87 87.08,-234.43 87.53,-223.84 80.83,-225.87"/>
</g>
<!-- Node5 -->
<g id="node5" class="node">
<title>Node5</title>
<g id="a_node5"><a xlink:href="GPFCorrection_8cpp.html" target="_top" xlink:title=" ">
<polygon fill="white" stroke="black" points="168.5,-78.5 168.5,-119.5 303.5,-119.5 303.5,-78.5 168.5,-78.5"/>
<text text-anchor="start" x="176.5" y="-107.5" font-family="Helvetica,sans-Serif" font-size="10.00">/home/user/bayes&#45;filters</text>
<text text-anchor="start" x="176.5" y="-96.5" font-family="Helvetica,sans-Serif" font-size="10.00">&#45;lib/src/BayesFilters/src</text>
<text text-anchor="middle" x="236" y="-85.5" font-family="Helvetica,sans-Serif" font-size="10.00">/GPFCorrection.cpp</text>
</a>
</g>
</g>
<!-- Node4&#45;&gt;Node5 -->
<g id="edge4" class="edge">
<title>Node4&#45;&gt;Node5</title>
<path fill="none" stroke="midnightblue" d="M236,-146.3C236,-137.3 236,-127.65 236,-119.51"/>
<polygon fill="midnightblue" stroke="midnightblue" points="232.5,-146.43 236,-156.43 239.5,-146.43 232.5,-146.43"/>
</g>
<!-- Node6&#45;&gt;Node4 -->
<g id="edge8" class="edge">
<title>Node6&#45;&gt;Node4</title>
<path fill="none" stroke="midnightblue" d="M414.61,-231.44C378.56,-220.66 335.82,-207.87 301.19,-197.51"/>
<polygon fill="midnightblue" stroke="midnightblue" points="414.01,-234.91 424.59,-234.43 416.01,-228.21 414.01,-234.91"/>
</g>
<!-- Node7 -->
<g id="node7" class="node">
<title>Node7</title>
<g id="a_node7"><a xlink:href="BootstrapCorrection_8h.html" target="_top" xlink:title=" ">
<polygon fill="white" stroke="black" points="334.5,-156.5 334.5,-197.5 523.5,-197.5 523.5,-156.5 334.5,-156.5"/>
<text text-anchor="start" x="342.5" y="-185.5" font-family="Helvetica,sans-Serif" font-size="10.00">/home/user/bayes&#45;filters</text>
<text text-anchor="start" x="342.5" y="-174.5" font-family="Helvetica,sans-Serif" font-size="10.00">&#45;lib/src/BayesFilters/include</text>
<text text-anchor="middle" x="429" y="-163.5" font-family="Helvetica,sans-Serif" font-size="10.00">/BayesFilters/BootstrapCorrection.h</text>
</a>
</g>
</g>
<!-- Node6&#45;&gt;Node7 -->
<g id="edge6" class="edge">
<title>Node6&#45;&gt;Node7</title>
<path fill="none" stroke="midnightblue" d="M468.03,-226.63C460.29,-216.99 451.76,-206.36 444.66,-197.51"/>
<polygon fill="midnightblue" stroke="midnightblue" points="465.3,-228.82 474.29,-234.43 470.76,-224.44 465.3,-228.82"/>
</g>
<!-- Node9 -->
<g id="node9" class="node">
<title>Node9</title>
<g id="a_node9"><a xlink:href="ParticleFilter_8h.html" target="_top" xlink:title=" ">
<polygon fill="white" stroke="black" points="580,-156.5 580,-197.5 732,-197.5 732,-156.5 580,-156.5"/>
<text text-anchor="start" x="588" y="-185.5" font-family="Helvetica,sans-Serif" font-size="10.00">/home/user/bayes&#45;filters</text>
<text text-anchor="start" x="588" y="-174.5" font-family="Helvetica,sans-Serif" font-size="10.00">&#45;lib/src/BayesFilters/include</text>
<text text-anchor="middle" x="656" y="-163.5" font-family="Helvetica,sans-Serif" font-size="10.00">/BayesFilters/ParticleFilter.h</text>
</a>
</g>
</g>
<!-- Node6&#45;&gt;Node9 -->
<g id="edge9" class="edge">
<title>Node6&#45;&gt;Node9</title>
<path fill="none" stroke="midnightblue" d="M542.01,-230.19C564.97,-219.67 591.63,-207.47 613.4,-197.51"/>
<polygon fill="midnightblue" stroke="midnightblue" points="540.38,-227.08 532.75,-234.43 543.3,-233.45 540.38,-227.08"/>
</g>
<!-- Node10 -->
<g id="node10" class="node">
<title>Node10</title>
<g id="a_node10"><a xlink:href="SIS_8h.html" target="_top" xlink:title=" ">
<polygon fill="white" stroke="black" points="495.5,-78.5 495.5,-119.5 646.5,-119.5 646.5,-78.5 495.5,-78.5"/>
<text text-anchor="start" x="503.5" y="-107.5" font-family="Helvetica,sans-Serif" font-size="10.00">/home/user/bayes&#45;filters</text>
<text text-anchor="start" x="503.5" y="-96.5" font-family="Helvetica,sans-Serif" font-size="10.00">&#45;lib/src/BayesFilters/include</text>
<text text-anchor="middle" x="571" y="-85.5" font-family="Helvetica,sans-Serif" font-size="10.00">/BayesFilters/SIS.h</text>
</a>
</g>
</g>
<!-- Node6&#45;&gt;Node10 -->
<g id="edge13" class="edge">
<title>Node6&#45;&gt;Node10</title>
<path fill="none" stroke="midnightblue" d="M512.96,-226.42C519.61,-217.66 526.55,-207.72 532,-198 546.42,-172.29 558.13,-140.15 564.83,-119.85"/>
<polygon fill="midnightblue" stroke="midnightblue" points="510.12,-224.37 506.72,-234.41 515.63,-228.68 510.12,-224.37"/>
</g>
<!-- Node13 -->
<g id="node13" class="node">
<title>Node13</title>
<g id="a_node13"><a xlink:href="PFCorrection_8cpp.html" target="_top" xlink:title=" ">
<polygon fill="white" stroke="black" points="750.5,-156.5 750.5,-197.5 885.5,-197.5 885.5,-156.5 750.5,-156.5"/>
<text text-anchor="start" x="758.5" y="-185.5" font-family="Helvetica,sans-Serif" font-size="10.00">/home/user/bayes&#45;filters</text>
<text text-anchor="start" x="758.5" y="-174.5" font-family="Helvetica,sans-Serif" font-size="10.00">&#45;lib/src/BayesFilters/src</text>
<text text-anchor="middle" x="818" y="-163.5" font-family="Helvetica,sans-Serif" font-size="10.00">/PFCorrection.cpp</text>
</a>
</g>
</g>
<!-- Node6&#45;&gt;Node13 -->
<g id="edge14" class="edge">
<title>Node6&#45;&gt;Node13</title>
<path fill="none" stroke="midnightblue" d="M576.87,-235.39C625.28,-224.83 686.59,-211.13 741,-198 744.09,-197.25 747.24,-196.48 750.43,-195.69"/>
<polygon fill="midnightblue" stroke="midnightblue" points="576.08,-231.98 567.06,-237.53 577.57,-238.82 576.08,-231.98"/>
</g>
<!-- Node8 -->
<g id="node8" class="node">
<title>Node8</title>
<g id="a_node8"><a xlink:href="BootstrapCorrection_8cpp.html" target="_top" xlink:title=" ">
<polygon fill="white" stroke="black" points="340.5,-78.5 340.5,-119.5 477.5,-119.5 477.5,-78.5 340.5,-78.5"/>
<text text-anchor="start" x="348.5" y="-107.5" font-family="Helvetica,sans-Serif" font-size="10.00">/home/user/bayes&#45;filters</text>
<text text-anchor="start" x="348.5" y="-96.5" font-family="Helvetica,sans-Serif" font-size="10.00">&#45;lib/src/BayesFilters/src</text>
<text text-anchor="middle" x="409" y="-85.5" font-family="Helvetica,sans-Serif" font-size="10.00">/BootstrapCorrection.cpp</text>
</a>
</g>
</g>
<!-- Node7&#45;&gt;Node8 -->
<g id="edge7" class="edge">
<title>Node7&#45;&gt;Node8</title>
<path fill="none" stroke="midnightblue" d="M421.26,-146.59C418.87,-137.51 416.3,-127.74 414.13,-119.51"/>
<polygon fill="midnightblue" stroke="midnightblue" points="417.92,-147.65 423.85,-156.43 424.69,-145.87 417.92,-147.65"/>
</g>
<!-- Node9&#45;&gt;Node10 -->
<g id="edge10" class="edge">
<title>Node9&#45;&gt;Node10</title>
<path fill="none" stroke="midnightblue" d="M626.35,-149.49C615.32,-139.63 603.02,-128.63 592.82,-119.51"/>
<polygon fill="midnightblue" stroke="midnightblue" points="624.32,-152.37 634.11,-156.43 628.99,-147.15 624.32,-152.37"/>
</g>
<!-- Node12 -->
<g id="node12" class="node">
<title>Node12</title>
<g id="a_node12"><a xlink:href="ParticleFilter_8cpp.html" target="_top" xlink:title=" ">
<polygon fill="white" stroke="black" points="664.5,-78.5 664.5,-119.5 799.5,-119.5 799.5,-78.5 664.5,-78.5"/>
<text text-anchor="start" x="672.5" y="-107.5" font-family="Helvetica,sans-Serif" font-size="10.00">/home/user/bayes&#45;filters</text>
<text text-anchor="start" x="672.5" y="-96.5" font-family="Helvetica,sans-Serif" font-size="10.00">&#45;lib/src/BayesFilters/src</text>
<text text-anchor="middle" x="732" y="-85.5" font-family="Helvetica,sans-Serif" font-size="10.00">/ParticleFilter.cpp</text>
</a>
</g>
</g>
<!-- Node9&#45;&gt;Node12 -->
<g id="edge12" class="edge">
<title>Node9&#45;&gt;Node12</title>
<path fill="none" stroke="midnightblue" d="M682.8,-149.2C692.58,-139.42 703.46,-128.54 712.49,-119.51"/>
<polygon fill="midnightblue" stroke="midnightblue" points="680.17,-146.88 675.57,-156.43 685.12,-151.83 680.17,-146.88"/>
</g>
<!-- Node11 -->
<g id="node11" class="node">
<title>Node11</title>
<g id="a_node11"><a xlink:href="SIS_8cpp.html" target="_top" xlink:title=" ">
<polygon fill="white" stroke="black" points="503.5,-0.5 503.5,-41.5 638.5,-41.5 638.5,-0.5 503.5,-0.5"/>
<text text-anchor="start" x="511.5" y="-29.5" font-family="Helvetica,sans-Serif" font-size="10.00">/home/user/bayes&#45;filters</text>
<text text-anchor="start" x="511.5" y="-18.5" font-family="Helvetica,sans-Serif" font-size="10.00">&#45;lib/src/BayesFilters/src</text>
<text text-anchor="middle" x="571" y="-7.5" font-family="Helvetica,sans-Serif" font-size="10.00">/SIS.cpp</text>
</a>
</g>
</g>
<!-- Node10&#45;&gt;Node11 -->
<g id="edge11" class="edge">
<title>Node10&#45;&gt;Node11</title>
<path fill="none" stroke="midnightblue" d="M571,-68.3C571,-59.3 571,-49.65 571,-41.51"/>
<polygon fill="midnightblue" stroke="midnightblue" points="567.5,-68.43 571,-78.43 574.5,-68.43 567.5,-68.43"/>
</g>
</g>
</svg>
