<?xml version="1.0" encoding="UTF-8" standalone="no"?>
<!DOCTYPE svg PUBLIC "-//W3C//DTD SVG 1.1//EN"
 "http://www.w3.org/Graphics/SVG/1.1/DTD/svg11.dtd">
<!-- Generated by graphviz version 2.43.0 (0)
 -->
<!-- Title: /home/user/bayes&#45;filters&#45;lib/src/BayesFilters/include/BayesFilters/LinearStateModel.h Pages: 1 -->
<svg width="525pt" height="397pt"
 viewBox="0.00 0.00 524.51 397.00" xmlns="http://www.w3.org/2000/svg" xmlns:xlink="http://www.w3.org/1999/xlink">
<g id="graph0" class="graph" transform="scale(1 1) rotate(0) translate(4 393)">
<title>/home/user/bayes&#45;filters&#45;lib/src/BayesFilters/include/BayesFilters/LinearStateModel.h</title>
<polygon fill="white" stroke="transparent" points="-4,4 -4,-393 520.51,-393 520.51,4 -4,4"/>
<!-- Node1 -->
<g id="node1" class="node">
<title>Node1</title>
<g id="a_node1"><a xlink:title=" ">
<polygon fill="#bfbfbf" stroke="black" points="300,-347.5 300,-388.5 477,-388.5 477,-347.5 300,-347.5"/>
<text text-anchor="start" x="308" y="-376.5" font-family="Helvetica,sans-Serif" font-size="10.00">/home/user/bayes&#45;filters</text>
<text text-anchor="start" x="308" y="-365.5" font-family="Helvetica,sans-Serif" font-size="10.00">&#45;lib/src/BayesFilters/include</text>
<text text-anchor="middle" x="388.5" y="-354.5" font-family="Helvetica,sans-Serif" font-size="10.00">/BayesFilters/LinearStateModel.h</text>
</a>
</g>
</g>
<!-- Node2 -->
<g id="node2" class="node">
<title>Node2</title>
<g id="a_node2"><a xlink:href="AdditiveStateModel_8h.html" target="_top" xlink:title=" ">
<polygon fill="white" stroke="black" points="315.5,-280.5 315.5,-310.5 461.5,-310.5 461.5,-280.5 315.5,-280.5"/>
<text text-anchor="start" x="323.5" y="-298.5" font-family="Helvetica,sans-Serif" font-size="10.00">BayesFilters/AdditiveState</text>
<text text-anchor="middle" x="388.5" y="-287.5" font-family="Helvetica,sans-Serif" font-size="10.00">Model.h</text>
</a>
</g>
</g>
<!-- Node1&#45;&gt;Node2 -->
<g id="edge1" class="edge">
<title>Node1&#45;&gt;Node2</title>
<path fill="none" stroke="midnightblue" d="M388.5,-347.36C388.5,-339.23 388.5,-329.7 388.5,-321.11"/>
<polygon fill="midnightblue" stroke="midnightblue" points="392,-320.89 388.5,-310.89 385,-320.89 392,-320.89"/>
</g>
<!-- Node3 -->
<g id="node3" class="node">
<title>Node3</title>
<g id="a_node3"><a xlink:href="StateModel_8h.html" target="_top" xlink:title=" ">
<polygon fill="white" stroke="black" points="172.5,-224.5 172.5,-243.5 316.5,-243.5 316.5,-224.5 172.5,-224.5"/>
<text text-anchor="middle" x="244.5" y="-231.5" font-family="Helvetica,sans-Serif" font-size="10.00">BayesFilters/StateModel.h</text>
</a>
</g>
</g>
<!-- Node2&#45;&gt;Node3 -->
<g id="edge2" class="edge">
<title>Node2&#45;&gt;Node3</title>
<path fill="none" stroke="midnightblue" d="M354.37,-280.4C330.21,-270.42 298.1,-257.15 274.83,-247.53"/>
<polygon fill="midnightblue" stroke="midnightblue" points="276.03,-244.24 265.45,-243.66 273.36,-250.71 276.03,-244.24"/>
</g>
<!-- Node6 -->
<g id="node6" class="node">
<title>Node6</title>
<g id="a_node6"><a xlink:href="VectorDescription_8h.html" target="_top" xlink:title=" ">
<polygon fill="white" stroke="black" points="341,-56.5 341,-75.5 516,-75.5 516,-56.5 341,-56.5"/>
<text text-anchor="middle" x="428.5" y="-63.5" font-family="Helvetica,sans-Serif" font-size="10.00">BayesFilters/VectorDescription.h</text>
</a>
</g>
</g>
<!-- Node2&#45;&gt;Node6 -->
<g id="edge16" class="edge">
<title>Node2&#45;&gt;Node6</title>
<path fill="none" stroke="midnightblue" d="M404.8,-280.43C433.42,-254.52 491.72,-196.02 513.5,-132 516.36,-123.58 518.08,-119.62 513.5,-112 504.21,-96.57 487.67,-86.16 471.63,-79.27"/>
<polygon fill="midnightblue" stroke="midnightblue" points="472.89,-76.01 462.3,-75.61 470.33,-82.52 472.89,-76.01"/>
</g>
<!-- Node4 -->
<g id="node4" class="node">
<title>Node4</title>
<g id="a_node4"><a xlink:href="ExogenousModel_8h.html" target="_top" xlink:title=" ">
<polygon fill="white" stroke="black" points="159,-168.5 159,-187.5 330,-187.5 330,-168.5 159,-168.5"/>
<text text-anchor="middle" x="244.5" y="-175.5" font-family="Helvetica,sans-Serif" font-size="10.00">BayesFilters/ExogenousModel.h</text>
</a>
</g>
</g>
<!-- Node3&#45;&gt;Node4 -->
<g id="edge3" class="edge">
<title>Node3&#45;&gt;Node4</title>
<path fill="none" stroke="midnightblue" d="M244.5,-224.08C244.5,-217.01 244.5,-206.86 244.5,-197.99"/>
<polygon fill="midnightblue" stroke="midnightblue" points="248,-197.75 244.5,-187.75 241,-197.75 248,-197.75"/>
</g>
<!-- Node9 -->
<g id="node9" class="node">
<title>Node9</title>
<g id="a_node9"><a xlink:href="Skippable_8h.html" target="_top" xlink:title=" ">
<polygon fill="white" stroke="black" points="0,-112.5 0,-131.5 137,-131.5 137,-112.5 0,-112.5"/>
<text text-anchor="middle" x="68.5" y="-119.5" font-family="Helvetica,sans-Serif" font-size="10.00">BayesFilters/Skippable.h</text>
</a>
</g>
</g>
<!-- Node3&#45;&gt;Node9 -->
<g id="edge11" class="edge">
<title>Node3&#45;&gt;Node9</title>
<path fill="none" stroke="midnightblue" d="M222.62,-224.36C202.86,-216.17 173.32,-202.91 149.5,-188 126.03,-173.31 101.57,-152.85 85.76,-138.84"/>
<polygon fill="midnightblue" stroke="midnightblue" points="87.69,-135.87 77.92,-131.79 83.01,-141.08 87.69,-135.87"/>
</g>
<!-- Node12 -->
<g id="node12" class="node">
<title>Node12</title>
<g id="a_node12"><a xlink:href="StateProcess_8h.html" target="_top" xlink:title=" ">
<polygon fill="white" stroke="black" points="352.5,-112.5 352.5,-131.5 504.5,-131.5 504.5,-112.5 352.5,-112.5"/>
<text text-anchor="middle" x="428.5" y="-119.5" font-family="Helvetica,sans-Serif" font-size="10.00">BayesFilters/StateProcess.h</text>
</a>
</g>
</g>
<!-- Node3&#45;&gt;Node12 -->
<g id="edge12" class="edge">
<title>Node3&#45;&gt;Node12</title>
<path fill="none" stroke="midnightblue" d="M265.46,-224.43C285.11,-216.08 315.03,-202.55 339.5,-188 364.99,-172.84 392.23,-152.21 409.77,-138.29"/>
<polygon fill="midnightblue" stroke="midnightblue" points="412.39,-140.68 417.99,-131.69 408,-135.22 412.39,-140.68"/>
</g>
<!-- Node13 -->
<g id="node13" class="node">
<title>Node13</title>
<g id="a_node13"><a xlink:title=" ">
<polygon fill="white" stroke="#bfbfbf" points="44.5,-168.5 44.5,-187.5 102.5,-187.5 102.5,-168.5 44.5,-168.5"/>
<text text-anchor="middle" x="73.5" y="-175.5" font-family="Helvetica,sans-Serif" font-size="10.00">memory</text>
</a>
</g>
</g>
<!-- Node3&#45;&gt;Node13 -->
<g id="edge15" class="edge">
<title>Node3&#45;&gt;Node13</title>
<path fill="none" stroke="midnightblue" d="M217.4,-224.44C188.51,-215.32 142.58,-200.81 110.39,-190.65"/>
<polygon fill="midnightblue" stroke="midnightblue" points="111.06,-187.19 100.47,-187.52 108.95,-193.87 111.06,-187.19"/>
</g>
<!-- Node5 -->
<g id="node5" class="node">
<title>Node5</title>
<g id="a_node5"><a xlink:href="ExogenousProcess_8h.html" target="_top" xlink:title=" ">
<polygon fill="white" stroke="black" points="155,-112.5 155,-131.5 334,-131.5 334,-112.5 155,-112.5"/>
<text text-anchor="middle" x="244.5" y="-119.5" font-family="Helvetica,sans-Serif" font-size="10.00">BayesFilters/ExogenousProcess.h</text>
</a>
</g>
</g>
<!-- Node4&#45;&gt;Node5 -->
<g id="edge4" class="edge">
<title>Node4&#45;&gt;Node5</title>
<path fill="none" stroke="midnightblue" d="M244.5,-168.08C244.5,-161.01 244.5,-150.86 244.5,-141.99"/>
<polygon fill="midnightblue" stroke="midnightblue" points="248,-141.75 244.5,-131.75 241,-141.75 248,-141.75"/>
</g>
<!-- Node4&#45;&gt;Node9 -->
<g id="edge8" class="edge">
<title>Node4&#45;&gt;Node9</title>
<path fill="none" stroke="midnightblue" d="M216.61,-168.44C186.75,-159.28 139.19,-144.69 106.04,-134.52"/>
<polygon fill="midnightblue" stroke="midnightblue" points="106.84,-131.1 96.26,-131.52 104.79,-137.8 106.84,-131.1"/>
</g>
<!-- Node5&#45;&gt;Node6 -->
<g id="edge5" class="edge">
<title>Node5&#45;&gt;Node6</title>
<path fill="none" stroke="midnightblue" d="M273.66,-112.44C305.01,-103.24 355.03,-88.56 389.7,-78.39"/>
<polygon fill="midnightblue" stroke="midnightblue" points="390.87,-81.69 399.48,-75.52 388.9,-74.97 390.87,-81.69"/>
</g>
<!-- Node8 -->
<g id="node8" class="node">
<title>Node8</title>
<g id="a_node8"><a xlink:title=" ">
<polygon fill="white" stroke="#bfbfbf" points="226,-56.5 226,-75.5 303,-75.5 303,-56.5 226,-56.5"/>
<text text-anchor="middle" x="264.5" y="-63.5" font-family="Helvetica,sans-Serif" font-size="10.00">Eigen/Dense</text>
</a>
</g>
</g>
<!-- Node5&#45;&gt;Node8 -->
<g id="edge7" class="edge">
<title>Node5&#45;&gt;Node8</title>
<path fill="none" stroke="midnightblue" d="M247.8,-112.08C250.48,-104.85 254.35,-94.41 257.69,-85.4"/>
<polygon fill="midnightblue" stroke="midnightblue" points="261.07,-86.34 261.26,-75.75 254.5,-83.91 261.07,-86.34"/>
</g>
<!-- Node7 -->
<g id="node7" class="node">
<title>Node7</title>
<g id="a_node7"><a xlink:title=" ">
<polygon fill="white" stroke="#bfbfbf" points="402,-0.5 402,-19.5 455,-19.5 455,-0.5 402,-0.5"/>
<text text-anchor="middle" x="428.5" y="-7.5" font-family="Helvetica,sans-Serif" font-size="10.00">cstddef</text>
</a>
</g>
</g>
<!-- Node6&#45;&gt;Node7 -->
<g id="edge6" class="edge">
<title>Node6&#45;&gt;Node7</title>
<path fill="none" stroke="midnightblue" d="M428.5,-56.08C428.5,-49.01 428.5,-38.86 428.5,-29.99"/>
<polygon fill="midnightblue" stroke="midnightblue" points="432,-29.75 428.5,-19.75 425,-29.75 432,-29.75"/>
</g>
<!-- Node10 -->
<g id="node10" class="node">
<title>Node10</title>
<g id="a_node10"><a xlink:href="Skipper_8h.html" target="_top" xlink:title=" ">
<polygon fill="white" stroke="black" points="6,-56.5 6,-75.5 131,-75.5 131,-56.5 6,-56.5"/>
<text text-anchor="middle" x="68.5" y="-63.5" font-family="Helvetica,sans-Serif" font-size="10.00">BayesFilters/Skipper.h</text>
</a>
</g>
</g>
<!-- Node9&#45;&gt;Node10 -->
<g id="edge9" class="edge">
<title>Node9&#45;&gt;Node10</title>
<path fill="none" stroke="midnightblue" d="M68.5,-112.08C68.5,-105.01 68.5,-94.86 68.5,-85.99"/>
<polygon fill="midnightblue" stroke="midnightblue" points="72,-85.75 68.5,-75.75 65,-85.75 72,-85.75"/>
</g>
<!-- Node11 -->
<g id="node11" class="node">
<title>Node11</title>
<g id="a_node11"><a xlink:title=" ">
<polygon fill="white" stroke="#bfbfbf" points="46.5,-0.5 46.5,-19.5 90.5,-19.5 90.5,-0.5 46.5,-0.5"/>
<text text-anchor="middle" x="68.5" y="-7.5" font-family="Helvetica,sans-Serif" font-size="10.00">string</text>
</a>
</g>
</g>
<!-- Node10&#45;&gt;Node11 -->
<g id="edge10" class="edge">
<title>Node10&#45;&gt;Node11</title>
<path fill="none" stroke="midnightblue" d="M68.5,-56.08C68.5,-49.01 68.5,-38.86 68.5,-29.99"/>
<polygon fill="midnightblue" stroke="midnightblue" points="72,-29.75 68.5,-19.75 65,-29.75 72,-29.75"/>
</g>
<!-- Node12&#45;&gt;Node6 -->
<g id="edge13" class="edge">
<title>Node12&#45;&gt;Node6</title>
<path fill="none" stroke="midnightblue" d="M428.5,-112.08C428.5,-105.01 428.5,-94.86 428.5,-85.99"/>
<polygon fill="midnightblue" stroke="midnightblue" points="432,-85.75 428.5,-75.75 425,-85.75 432,-85.75"/>
</g>
<!-- Node12&#45;&gt;Node8 -->
<g id="edge14" class="edge">
<title>Node12&#45;&gt;Node8</title>
<path fill="none" stroke="midnightblue" d="M402.51,-112.44C374.8,-103.32 330.75,-88.81 299.88,-78.65"/>
<polygon fill="midnightblue" stroke="midnightblue" points="300.96,-75.32 290.36,-75.52 298.77,-81.97 300.96,-75.32"/>
</g>
</g>
</svg>
