<?xml version="1.0" encoding="UTF-8" standalone="no"?>
<!DOCTYPE svg PUBLIC "-//W3C//DTD SVG 1.1//EN"
 "http://www.w3.org/Graphics/SVG/1.1/DTD/svg11.dtd">
<!-- Generated by graphviz version 2.47.2 (0)
 -->
<!-- Title: /home/xenvre/robot&#45;code/bfl_robotology/src/BayesFilters/include/BayesFilters/LinearStateModel.h Pages: 1 -->
<svg width="659pt" height="239pt"
 viewBox="0.00 0.00 659.00 239.00" xmlns="http://www.w3.org/2000/svg" xmlns:xlink="http://www.w3.org/1999/xlink">
<g id="graph0" class="graph" transform="scale(1 1) rotate(0) translate(4 235)">
<title>/home/xenvre/robot&#45;code/bfl_robotology/src/BayesFilters/include/BayesFilters/LinearStateModel.h</title>
<polygon fill="white" stroke="transparent" points="-4,4 -4,-235 655,-235 655,4 -4,4"/>
<!-- Node1 -->
<g id="node1" class="node">
<title>Node1</title>
<g id="a_node1"><a xlink:title=" ">
<polygon fill="#bfbfbf" stroke="black" points="248.5,-178.5 248.5,-230.5 409.5,-230.5 409.5,-178.5 248.5,-178.5"/>
<text text-anchor="start" x="256.5" y="-218.5" font-family="Helvetica,sans-Serif" font-size="10.00">/home/xenvre/robot</text>
<text text-anchor="start" x="256.5" y="-207.5" font-family="Helvetica,sans-Serif" font-size="10.00">&#45;code/bfl_robotology</text>
<text text-anchor="start" x="256.5" y="-196.5" font-family="Helvetica,sans-Serif" font-size="10.00">/src/BayesFilters/include</text>
<text text-anchor="middle" x="329" y="-185.5" font-family="Helvetica,sans-Serif" font-size="10.00">/BayesFilters/LinearStateModel.h</text>
</a>
</g>
</g>
<!-- Node2 -->
<g id="node2" class="node">
<title>Node2</title>
<g id="a_node2"><a xlink:href="KFPrediction_8h.html" target="_top" xlink:title=" ">
<polygon fill="white" stroke="black" points="0,-89.5 0,-141.5 142,-141.5 142,-89.5 0,-89.5"/>
<text text-anchor="start" x="8" y="-129.5" font-family="Helvetica,sans-Serif" font-size="10.00">/home/xenvre/robot</text>
<text text-anchor="start" x="8" y="-118.5" font-family="Helvetica,sans-Serif" font-size="10.00">&#45;code/bfl_robotology</text>
<text text-anchor="start" x="8" y="-107.5" font-family="Helvetica,sans-Serif" font-size="10.00">/src/BayesFilters/include</text>
<text text-anchor="middle" x="71" y="-96.5" font-family="Helvetica,sans-Serif" font-size="10.00">/BayesFilters/KFPrediction.h</text>
</a>
</g>
</g>
<!-- Node1&#45;&gt;Node2 -->
<g id="edge1" class="edge">
<title>Node1&#45;&gt;Node2</title>
<path fill="none" stroke="midnightblue" d="M245.02,-175.18C211.77,-163.97 173.96,-151.22 142.09,-140.47"/>
<polygon fill="midnightblue" stroke="midnightblue" points="244.13,-178.57 254.72,-178.45 246.36,-171.94 244.13,-178.57"/>
</g>
<!-- Node4 -->
<g id="node4" class="node">
<title>Node4</title>
<g id="a_node4"><a xlink:href="LTIStateModel_8h.html" target="_top" xlink:title=" ">
<polygon fill="white" stroke="black" points="160.5,-89.5 160.5,-141.5 309.5,-141.5 309.5,-89.5 160.5,-89.5"/>
<text text-anchor="start" x="168.5" y="-129.5" font-family="Helvetica,sans-Serif" font-size="10.00">/home/xenvre/robot</text>
<text text-anchor="start" x="168.5" y="-118.5" font-family="Helvetica,sans-Serif" font-size="10.00">&#45;code/bfl_robotology</text>
<text text-anchor="start" x="168.5" y="-107.5" font-family="Helvetica,sans-Serif" font-size="10.00">/src/BayesFilters/include</text>
<text text-anchor="middle" x="235" y="-96.5" font-family="Helvetica,sans-Serif" font-size="10.00">/BayesFilters/LTIStateModel.h</text>
</a>
</g>
</g>
<!-- Node1&#45;&gt;Node4 -->
<g id="edge3" class="edge">
<title>Node1&#45;&gt;Node4</title>
<path fill="none" stroke="midnightblue" d="M294.28,-171.36C283.67,-161.54 272.16,-150.89 262.13,-141.61"/>
<polygon fill="midnightblue" stroke="midnightblue" points="292.09,-174.11 301.81,-178.34 296.85,-168.97 292.09,-174.11"/>
</g>
<!-- Node6 -->
<g id="node6" class="node">
<title>Node6</title>
<g id="a_node6"><a xlink:href="WhiteNoiseAcceleration_8h.html" target="_top" xlink:title=" ">
<polygon fill="white" stroke="black" points="327.5,-89.5 327.5,-141.5 518.5,-141.5 518.5,-89.5 327.5,-89.5"/>
<text text-anchor="start" x="335.5" y="-129.5" font-family="Helvetica,sans-Serif" font-size="10.00">/home/xenvre/robot</text>
<text text-anchor="start" x="335.5" y="-118.5" font-family="Helvetica,sans-Serif" font-size="10.00">&#45;code/bfl_robotology</text>
<text text-anchor="start" x="335.5" y="-107.5" font-family="Helvetica,sans-Serif" font-size="10.00">/src/BayesFilters/include</text>
<text text-anchor="middle" x="423" y="-96.5" font-family="Helvetica,sans-Serif" font-size="10.00">/BayesFilters/WhiteNoiseAcceleration.h</text>
</a>
</g>
</g>
<!-- Node1&#45;&gt;Node6 -->
<g id="edge5" class="edge">
<title>Node1&#45;&gt;Node6</title>
<path fill="none" stroke="midnightblue" d="M363.72,-171.36C374.33,-161.54 385.84,-150.89 395.87,-141.61"/>
<polygon fill="midnightblue" stroke="midnightblue" points="361.15,-168.97 356.19,-178.34 365.91,-174.11 361.15,-168.97"/>
</g>
<!-- Node8 -->
<g id="node8" class="node">
<title>Node8</title>
<g id="a_node8"><a xlink:href="LinearStateModel_8cpp.html" target="_top" xlink:title=" ">
<polygon fill="white" stroke="black" points="537,-89.5 537,-141.5 651,-141.5 651,-89.5 537,-89.5"/>
<text text-anchor="start" x="545" y="-129.5" font-family="Helvetica,sans-Serif" font-size="10.00">/home/xenvre/robot</text>
<text text-anchor="start" x="545" y="-118.5" font-family="Helvetica,sans-Serif" font-size="10.00">&#45;code/bfl_robotology</text>
<text text-anchor="start" x="545" y="-107.5" font-family="Helvetica,sans-Serif" font-size="10.00">/src/BayesFilters/src</text>
<text text-anchor="middle" x="594" y="-96.5" font-family="Helvetica,sans-Serif" font-size="10.00">/LinearStateModel.cpp</text>
</a>
</g>
</g>
<!-- Node1&#45;&gt;Node8 -->
<g id="edge7" class="edge">
<title>Node1&#45;&gt;Node8</title>
<path fill="none" stroke="midnightblue" d="M419.73,-176.9C453.84,-166.52 492.87,-154.2 528,-142 530.9,-140.99 533.86,-139.94 536.85,-138.86"/>
<polygon fill="midnightblue" stroke="midnightblue" points="418.33,-173.67 409.78,-179.92 420.36,-180.37 418.33,-173.67"/>
</g>
<!-- Node3 -->
<g id="node3" class="node">
<title>Node3</title>
<g id="a_node3"><a xlink:href="KFPrediction_8cpp.html" target="_top" xlink:title=" ">
<polygon fill="white" stroke="black" points="17.5,-0.5 17.5,-52.5 124.5,-52.5 124.5,-0.5 17.5,-0.5"/>
<text text-anchor="start" x="25.5" y="-40.5" font-family="Helvetica,sans-Serif" font-size="10.00">/home/xenvre/robot</text>
<text text-anchor="start" x="25.5" y="-29.5" font-family="Helvetica,sans-Serif" font-size="10.00">&#45;code/bfl_robotology</text>
<text text-anchor="start" x="25.5" y="-18.5" font-family="Helvetica,sans-Serif" font-size="10.00">/src/BayesFilters/src</text>
<text text-anchor="middle" x="71" y="-7.5" font-family="Helvetica,sans-Serif" font-size="10.00">/KFPrediction.cpp</text>
</a>
</g>
</g>
<!-- Node2&#45;&gt;Node3 -->
<g id="edge2" class="edge">
<title>Node2&#45;&gt;Node3</title>
<path fill="none" stroke="midnightblue" d="M71,-79.19C71,-70.28 71,-60.9 71,-52.61"/>
<polygon fill="midnightblue" stroke="midnightblue" points="67.5,-79.34 71,-89.34 74.5,-79.34 67.5,-79.34"/>
</g>
<!-- Node5 -->
<g id="node5" class="node">
<title>Node5</title>
<g id="a_node5"><a xlink:href="LTIStateModel_8cpp.html" target="_top" xlink:title=" ">
<polygon fill="white" stroke="black" points="181.5,-0.5 181.5,-52.5 288.5,-52.5 288.5,-0.5 181.5,-0.5"/>
<text text-anchor="start" x="189.5" y="-40.5" font-family="Helvetica,sans-Serif" font-size="10.00">/home/xenvre/robot</text>
<text text-anchor="start" x="189.5" y="-29.5" font-family="Helvetica,sans-Serif" font-size="10.00">&#45;code/bfl_robotology</text>
<text text-anchor="start" x="189.5" y="-18.5" font-family="Helvetica,sans-Serif" font-size="10.00">/src/BayesFilters/src</text>
<text text-anchor="middle" x="235" y="-7.5" font-family="Helvetica,sans-Serif" font-size="10.00">/LTIStateModel.cpp</text>
</a>
</g>
</g>
<!-- Node4&#45;&gt;Node5 -->
<g id="edge4" class="edge">
<title>Node4&#45;&gt;Node5</title>
<path fill="none" stroke="midnightblue" d="M235,-79.19C235,-70.28 235,-60.9 235,-52.61"/>
<polygon fill="midnightblue" stroke="midnightblue" points="231.5,-79.34 235,-89.34 238.5,-79.34 231.5,-79.34"/>
</g>
<!-- Node7 -->
<g id="node7" class="node">
<title>Node7</title>
<g id="a_node7"><a xlink:href="WhiteNoiseAcceleration_8cpp.html" target="_top" xlink:title=" ">
<polygon fill="white" stroke="black" points="351.5,-0.5 351.5,-52.5 494.5,-52.5 494.5,-0.5 351.5,-0.5"/>
<text text-anchor="start" x="359.5" y="-40.5" font-family="Helvetica,sans-Serif" font-size="10.00">/home/xenvre/robot</text>
<text text-anchor="start" x="359.5" y="-29.5" font-family="Helvetica,sans-Serif" font-size="10.00">&#45;code/bfl_robotology</text>
<text text-anchor="start" x="359.5" y="-18.5" font-family="Helvetica,sans-Serif" font-size="10.00">/src/BayesFilters/src</text>
<text text-anchor="middle" x="423" y="-7.5" font-family="Helvetica,sans-Serif" font-size="10.00">/WhiteNoiseAcceleration.cpp</text>
</a>
</g>
</g>
<!-- Node6&#45;&gt;Node7 -->
<g id="edge6" class="edge">
<title>Node6&#45;&gt;Node7</title>
<path fill="none" stroke="midnightblue" d="M423,-79.19C423,-70.28 423,-60.9 423,-52.61"/>
<polygon fill="midnightblue" stroke="midnightblue" points="419.5,-79.34 423,-89.34 426.5,-79.34 419.5,-79.34"/>
</g>
</g>
</svg>
