<?xml version="1.0" encoding="UTF-8" standalone="no"?>
<!DOCTYPE svg PUBLIC "-//W3C//DTD SVG 1.1//EN"
 "http://www.w3.org/Graphics/SVG/1.1/DTD/svg11.dtd">
<!-- Generated by graphviz version 2.47.2 (0)
 -->
<!-- Title: /home/xenvre/robot&#45;code/bfl_robotology/src/BayesFilters/include/BayesFilters/LinearStateModel.h Pages: 1 -->
<!--zoomable 239 -->
<svg id="main" version="1.1" xmlns="http://www.w3.org/2000/svg" xmlns:xlink="http://www.w3.org/1999/xlink" xml:space="preserve" onload="init(evt)">
<style type="text/css"><![CDATA[
.edge:hover path { stroke: red; }
.edge:hover polygon { stroke: red; fill: red; }
]]></style>
<script type="text/javascript"><![CDATA[
var edges = document.getElementsByTagName('g');
if (edges && edges.length) {
  for (var i=0;i<edges.length;i++) {
    if (edges[i].id.substr(0,4)=='edge') {
      edges[i].setAttribute('class','edge');
    }
  }
}
]]></script>
        <defs>
                <circle id="rim" cx="0" cy="0" r="7"/>
                <circle id="rim2" cx="0" cy="0" r="3.5"/>
                <g id="zoomPlus">
                        <use xlink:href="#rim" fill="#404040">
                                <set attributeName="fill" to="#808080" begin="zoomplus.mouseover" end="zoomplus.mouseout"/>
                        </use>
                        <path d="M-4,0h8M0,-4v8" fill="none" stroke="white" stroke-width="1.5" pointer-events="none"/>
                </g>
                <g id="zoomMin">
                        <use xlink:href="#rim" fill="#404040">
                                <set attributeName="fill" to="#808080" begin="zoomminus.mouseover" end="zoomminus.mouseout"/>
                        </use>
                        <path d="M-4,0h8" fill="none" stroke="white" stroke-width="1.5" pointer-events="none"/>
                </g>
                <g id="dirArrow">
                        <path fill="none" stroke="white" stroke-width="1.5" d="M0,-3.0v7 M-2.5,-0.5L0,-3.0L2.5,-0.5"/>
                </g>
               <g id="resetDef">
                       <use xlink:href="#rim2" fill="#404040">
                               <set attributeName="fill" to="#808080" begin="reset.mouseover" end="reset.mouseout"/>
                       </use>
               </g>
        </defs>

<script type="text/javascript">
var viewWidth = 659;
var viewHeight = 239;
var sectionId = 'dynsection-1';
</script>
<script xlink:href="svgpan.js"/>
<svg id="graph" class="graph">
<g id="viewport">
<title>/home/xenvre/robot&#45;code/bfl_robotology/src/BayesFilters/include/BayesFilters/LinearStateModel.h</title>
<polygon fill="white" stroke="transparent" points="-4,4 -4,-235 655,-235 655,4 -4,4"/>
<!-- Node1 -->
<g id="node1" class="node">
<title>Node1</title>
<g id="a_node1"><a xlink:title=" ">
<polygon fill="#bfbfbf" stroke="black" points="248.5,-178.5 248.5,-230.5 409.5,-230.5 409.5,-178.5 248.5,-178.5"/>
<text text-anchor="start" x="256.5" y="-218.5" font-family="Helvetica,sans-Serif" font-size="10.00">/home/xenvre/robot</text>
<text text-anchor="start" x="256.5" y="-207.5" font-family="Helvetica,sans-Serif" font-size="10.00">&#45;code/bfl_robotology</text>
<text text-anchor="start" x="256.5" y="-196.5" font-family="Helvetica,sans-Serif" font-size="10.00">/src/BayesFilters/include</text>
<text text-anchor="middle" x="329" y="-185.5" font-family="Helvetica,sans-Serif" font-size="10.00">/BayesFilters/LinearStateModel.h</text>
</a>
</g>
</g>
<!-- Node2 -->
<g id="node2" class="node">
<title>Node2</title>
<g id="a_node2"><a xlink:href="KFPrediction_8h.html" target="_top" xlink:title=" ">
<polygon fill="white" stroke="black" points="0,-89.5 0,-141.5 142,-141.5 142,-89.5 0,-89.5"/>
<text text-anchor="start" x="8" y="-129.5" font-family="Helvetica,sans-Serif" font-size="10.00">/home/xenvre/robot</text>
<text text-anchor="start" x="8" y="-118.5" font-family="Helvetica,sans-Serif" font-size="10.00">&#45;code/bfl_robotology</text>
<text text-anchor="start" x="8" y="-107.5" font-family="Helvetica,sans-Serif" font-size="10.00">/src/BayesFilters/include</text>
<text text-anchor="middle" x="71" y="-96.5" font-family="Helvetica,sans-Serif" font-size="10.00">/BayesFilters/KFPrediction.h</text>
</a>
</g>
</g>
<!-- Node1&#45;&gt;Node2 -->
<g id="edge1" class="edge">
<title>Node1&#45;&gt;Node2</title>
<path fill="none" stroke="midnightblue" d="M245.02,-175.18C211.77,-163.97 173.96,-151.22 142.09,-140.47"/>
<polygon fill="midnightblue" stroke="midnightblue" points="244.13,-178.57 254.72,-178.45 246.36,-171.94 244.13,-178.57"/>
</g>
<!-- Node4 -->
<g id="node4" class="node">
<title>Node4</title>
<g id="a_node4"><a xlink:href="LTIStateModel_8h.html" target="_top" xlink:title=" ">
<polygon fill="white" stroke="black" points="160.5,-89.5 160.5,-141.5 309.5,-141.5 309.5,-89.5 160.5,-89.5"/>
<text text-anchor="start" x="168.5" y="-129.5" font-family="Helvetica,sans-Serif" font-size="10.00">/home/xenvre/robot</text>
<text text-anchor="start" x="168.5" y="-118.5" font-family="Helvetica,sans-Serif" font-size="10.00">&#45;code/bfl_robotology</text>
<text text-anchor="start" x="168.5" y="-107.5" font-family="Helvetica,sans-Serif" font-size="10.00">/src/BayesFilters/include</text>
<text text-anchor="middle" x="235" y="-96.5" font-family="Helvetica,sans-Serif" font-size="10.00">/BayesFilters/LTIStateModel.h</text>
</a>
</g>
</g>
<!-- Node1&#45;&gt;Node4 -->
<g id="edge3" class="edge">
<title>Node1&#45;&gt;Node4</title>
<path fill="none" stroke="midnightblue" d="M294.28,-171.36C283.67,-161.54 272.16,-150.89 262.13,-141.61"/>
<polygon fill="midnightblue" stroke="midnightblue" points="292.09,-174.11 301.81,-178.34 296.85,-168.97 292.09,-174.11"/>
</g>
<!-- Node6 -->
<g id="node6" class="node">
<title>Node6</title>
<g id="a_node6"><a xlink:href="WhiteNoiseAcceleration_8h.html" target="_top" xlink:title=" ">
<polygon fill="white" stroke="black" points="327.5,-89.5 327.5,-141.5 518.5,-141.5 518.5,-89.5 327.5,-89.5"/>
<text text-anchor="start" x="335.5" y="-129.5" font-family="Helvetica,sans-Serif" font-size="10.00">/home/xenvre/robot</text>
<text text-anchor="start" x="335.5" y="-118.5" font-family="Helvetica,sans-Serif" font-size="10.00">&#45;code/bfl_robotology</text>
<text text-anchor="start" x="335.5" y="-107.5" font-family="Helvetica,sans-Serif" font-size="10.00">/src/BayesFilters/include</text>
<text text-anchor="middle" x="423" y="-96.5" font-family="Helvetica,sans-Serif" font-size="10.00">/BayesFilters/WhiteNoiseAcceleration.h</text>
</a>
</g>
</g>
<!-- Node1&#45;&gt;Node6 -->
<g id="edge5" class="edge">
<title>Node1&#45;&gt;Node6</title>
<path fill="none" stroke="midnightblue" d="M363.72,-171.36C374.33,-161.54 385.84,-150.89 395.87,-141.61"/>
<polygon fill="midnightblue" stroke="midnightblue" points="361.15,-168.97 356.19,-178.34 365.91,-174.11 361.15,-168.97"/>
</g>
<!-- Node8 -->
<g id="node8" class="node">
<title>Node8</title>
<g id="a_node8"><a xlink:href="LinearStateModel_8cpp.html" target="_top" xlink:title=" ">
<polygon fill="white" stroke="black" points="537,-89.5 537,-141.5 651,-141.5 651,-89.5 537,-89.5"/>
<text text-anchor="start" x="545" y="-129.5" font-family="Helvetica,sans-Serif" font-size="10.00">/home/xenvre/robot</text>
<text text-anchor="start" x="545" y="-118.5" font-family="Helvetica,sans-Serif" font-size="10.00">&#45;code/bfl_robotology</text>
<text text-anchor="start" x="545" y="-107.5" font-family="Helvetica,sans-Serif" font-size="10.00">/src/BayesFilters/src</text>
<text text-anchor="middle" x="594" y="-96.5" font-family="Helvetica,sans-Serif" font-size="10.00">/LinearStateModel.cpp</text>
</a>
</g>
</g>
<!-- Node1&#45;&gt;Node8 -->
<g id="edge7" class="edge">
<title>Node1&#45;&gt;Node8</title>
<path fill="none" stroke="midnightblue" d="M419.73,-176.9C453.84,-166.52 492.87,-154.2 528,-142 530.9,-140.99 533.86,-139.94 536.85,-138.86"/>
<polygon fill="midnightblue" stroke="midnightblue" points="418.33,-173.67 409.78,-179.92 420.36,-180.37 418.33,-173.67"/>
</g>
<!-- Node3 -->
<g id="node3" class="node">
<title>Node3</title>
<g id="a_node3"><a xlink:href="KFPrediction_8cpp.html" target="_top" xlink:title=" ">
<polygon fill="white" stroke="black" points="17.5,-0.5 17.5,-52.5 124.5,-52.5 124.5,-0.5 17.5,-0.5"/>
<text text-anchor="start" x="25.5" y="-40.5" font-family="Helvetica,sans-Serif" font-size="10.00">/home/xenvre/robot</text>
<text text-anchor="start" x="25.5" y="-29.5" font-family="Helvetica,sans-Serif" font-size="10.00">&#45;code/bfl_robotology</text>
<text text-anchor="start" x="25.5" y="-18.5" font-family="Helvetica,sans-Serif" font-size="10.00">/src/BayesFilters/src</text>
<text text-anchor="middle" x="71" y="-7.5" font-family="Helvetica,sans-Serif" font-size="10.00">/KFPrediction.cpp</text>
</a>
</g>
</g>
<!-- Node2&#45;&gt;Node3 -->
<g id="edge2" class="edge">
<title>Node2&#45;&gt;Node3</title>
<path fill="none" stroke="midnightblue" d="M71,-79.19C71,-70.28 71,-60.9 71,-52.61"/>
<polygon fill="midnightblue" stroke="midnightblue" points="67.5,-79.34 71,-89.34 74.5,-79.34 67.5,-79.34"/>
</g>
<!-- Node5 -->
<g id="node5" class="node">
<title>Node5</title>
<g id="a_node5"><a xlink:href="LTIStateModel_8cpp.html" target="_top" xlink:title=" ">
<polygon fill="white" stroke="black" points="181.5,-0.5 181.5,-52.5 288.5,-52.5 288.5,-0.5 181.5,-0.5"/>
<text text-anchor="start" x="189.5" y="-40.5" font-family="Helvetica,sans-Serif" font-size="10.00">/home/xenvre/robot</text>
<text text-anchor="start" x="189.5" y="-29.5" font-family="Helvetica,sans-Serif" font-size="10.00">&#45;code/bfl_robotology</text>
<text text-anchor="start" x="189.5" y="-18.5" font-family="Helvetica,sans-Serif" font-size="10.00">/src/BayesFilters/src</text>
<text text-anchor="middle" x="235" y="-7.5" font-family="Helvetica,sans-Serif" font-size="10.00">/LTIStateModel.cpp</text>
</a>
</g>
</g>
<!-- Node4&#45;&gt;Node5 -->
<g id="edge4" class="edge">
<title>Node4&#45;&gt;Node5</title>
<path fill="none" stroke="midnightblue" d="M235,-79.19C235,-70.28 235,-60.9 235,-52.61"/>
<polygon fill="midnightblue" stroke="midnightblue" points="231.5,-79.34 235,-89.34 238.5,-79.34 231.5,-79.34"/>
</g>
<!-- Node7 -->
<g id="node7" class="node">
<title>Node7</title>
<g id="a_node7"><a xlink:href="WhiteNoiseAcceleration_8cpp.html" target="_top" xlink:title=" ">
<polygon fill="white" stroke="black" points="351.5,-0.5 351.5,-52.5 494.5,-52.5 494.5,-0.5 351.5,-0.5"/>
<text text-anchor="start" x="359.5" y="-40.5" font-family="Helvetica,sans-Serif" font-size="10.00">/home/xenvre/robot</text>
<text text-anchor="start" x="359.5" y="-29.5" font-family="Helvetica,sans-Serif" font-size="10.00">&#45;code/bfl_robotology</text>
<text text-anchor="start" x="359.5" y="-18.5" font-family="Helvetica,sans-Serif" font-size="10.00">/src/BayesFilters/src</text>
<text text-anchor="middle" x="423" y="-7.5" font-family="Helvetica,sans-Serif" font-size="10.00">/WhiteNoiseAcceleration.cpp</text>
</a>
</g>
</g>
<!-- Node6&#45;&gt;Node7 -->
<g id="edge6" class="edge">
<title>Node6&#45;&gt;Node7</title>
<path fill="none" stroke="midnightblue" d="M423,-79.19C423,-70.28 423,-60.9 423,-52.61"/>
<polygon fill="midnightblue" stroke="midnightblue" points="419.5,-79.34 423,-89.34 426.5,-79.34 419.5,-79.34"/>
</g>
</g>
</svg>
        <g id="navigator" transform="translate(0 0)" fill="#404254">
                <rect fill="#f2f5e9" fill-opacity="0.5" stroke="#606060" stroke-width=".5" x="0" y="0" width="60" height="60"/>
                <use id="zoomplus" xlink:href="#zoomPlus" x="17" y="9" onmousedown="handleZoom(evt,'in')"/>
                <use id="zoomminus" xlink:href="#zoomMin" x="42" y="9" onmousedown="handleZoom(evt,'out')"/>
                <use id="reset" xlink:href="#resetDef" x="30" y="36" onmousedown="handleReset()"/>
                <g id="arrowUp" xlink:href="#dirArrow" transform="translate(30 24)" onmousedown="handlePan(0,-1)">
                  <use xlink:href="#rim" fill="#404040">
                        <set attributeName="fill" to="#808080" begin="arrowUp.mouseover" end="arrowUp.mouseout"/>
                  </use>
                  <path fill="none" stroke="white" stroke-width="1.5" d="M0,-3.0v7 M-2.5,-0.5L0,-3.0L2.5,-0.5"/>
                </g>
                <g id="arrowRight" xlink:href="#dirArrow" transform="rotate(90) translate(36 -43)" onmousedown="handlePan(1,0)">
                  <use xlink:href="#rim" fill="#404040">
                        <set attributeName="fill" to="#808080" begin="arrowRight.mouseover" end="arrowRight.mouseout"/>
                  </use>
                  <path fill="none" stroke="white" stroke-width="1.5" d="M0,-3.0v7 M-2.5,-0.5L0,-3.0L2.5,-0.5"/>
                </g>
                <g id="arrowDown" xlink:href="#dirArrow" transform="rotate(180) translate(-30 -48)" onmousedown="handlePan(0,1)">
                  <use xlink:href="#rim" fill="#404040">
                        <set attributeName="fill" to="#808080" begin="arrowDown.mouseover" end="arrowDown.mouseout"/>
                  </use>
                  <path fill="none" stroke="white" stroke-width="1.5" d="M0,-3.0v7 M-2.5,-0.5L0,-3.0L2.5,-0.5"/>
                </g>
                <g id="arrowLeft" xlink:href="#dirArrow" transform="rotate(270) translate(-36 17)" onmousedown="handlePan(-1,0)">
                  <use xlink:href="#rim" fill="#404040">
                        <set attributeName="fill" to="#808080" begin="arrowLeft.mouseover" end="arrowLeft.mouseout"/>
                  </use>
                  <path fill="none" stroke="white" stroke-width="1.5" d="M0,-3.0v7 M-2.5,-0.5L0,-3.0L2.5,-0.5"/>
                </g>
        </g>
        <svg viewBox="0 0 15 15" width="100%" height="30px" preserveAspectRatio="xMaxYMin meet">
         <g id="arrow_out" transform="scale(0.3 0.3)">
          <a xlink:href="LinearStateModel_8h__dep__incl_org.svg" target="_base">
           <rect id="button" ry="5" rx="5" y="6" x="6" height="38" width="38"
                fill="#f2f5e9" fill-opacity="0.5" stroke="#606060" stroke-width="1.0"/>
           <path id="arrow"
             d="M 11.500037,31.436501 C 11.940474,20.09759 22.043105,11.32322 32.158766,21.979434 L 37.068811,17.246167 C 37.068811,17.246167 37.088388,32 37.088388,32 L 22.160133,31.978069 C 22.160133,31.978069 26.997745,27.140456 26.997745,27.140456 C 18.528582,18.264221 13.291696,25.230495 11.500037,31.436501 z"
             style="fill:#404040;"/>
          </a>
         </g>
        </svg>
</svg>
