<?xml version="1.0" encoding="UTF-8" standalone="no"?>
<!DOCTYPE svg PUBLIC "-//W3C//DTD SVG 1.1//EN"
 "http://www.w3.org/Graphics/SVG/1.1/DTD/svg11.dtd">
<!-- Generated by graphviz version 2.43.0 (0)
 -->
<!-- Title: /home/user/bayes&#45;filters&#45;lib/src/BayesFilters/include/BayesFilters/LinearMeasurementModel.h Pages: 1 -->
<svg width="803pt" height="352pt"
 viewBox="0.00 0.00 802.50 352.00" xmlns="http://www.w3.org/2000/svg" xmlns:xlink="http://www.w3.org/1999/xlink">
<g id="graph0" class="graph" transform="scale(1 1) rotate(0) translate(4 348)">
<title>/home/user/bayes&#45;filters&#45;lib/src/BayesFilters/include/BayesFilters/LinearMeasurementModel.h</title>
<polygon fill="white" stroke="transparent" points="-4,4 -4,-348 798.5,-348 798.5,4 -4,4"/>
<!-- Node1 -->
<g id="node1" class="node">
<title>Node1</title>
<g id="a_node1"><a xlink:title=" ">
<polygon fill="#bfbfbf" stroke="black" points="323.5,-302.5 323.5,-343.5 542.5,-343.5 542.5,-302.5 323.5,-302.5"/>
<text text-anchor="start" x="331.5" y="-331.5" font-family="Helvetica,sans-Serif" font-size="10.00">/home/user/bayes&#45;filters</text>
<text text-anchor="start" x="331.5" y="-320.5" font-family="Helvetica,sans-Serif" font-size="10.00">&#45;lib/src/BayesFilters/include</text>
<text text-anchor="middle" x="433" y="-309.5" font-family="Helvetica,sans-Serif" font-size="10.00">/BayesFilters/LinearMeasurementModel.h</text>
</a>
</g>
</g>
<!-- Node2 -->
<g id="node2" class="node">
<title>Node2</title>
<g id="a_node2"><a xlink:href="AdditiveMeasurementModel_8h.html" target="_top" xlink:title=" ">
<polygon fill="white" stroke="black" points="339,-235.5 339,-265.5 527,-265.5 527,-235.5 339,-235.5"/>
<text text-anchor="start" x="347" y="-253.5" font-family="Helvetica,sans-Serif" font-size="10.00">BayesFilters/AdditiveMeasurement</text>
<text text-anchor="middle" x="433" y="-242.5" font-family="Helvetica,sans-Serif" font-size="10.00">Model.h</text>
</a>
</g>
</g>
<!-- Node1&#45;&gt;Node2 -->
<g id="edge1" class="edge">
<title>Node1&#45;&gt;Node2</title>
<path fill="none" stroke="midnightblue" d="M433,-302.36C433,-294.23 433,-284.7 433,-276.11"/>
<polygon fill="midnightblue" stroke="midnightblue" points="436.5,-275.89 433,-265.89 429.5,-275.89 436.5,-275.89"/>
</g>
<!-- Node3 -->
<g id="node3" class="node">
<title>Node3</title>
<g id="a_node3"><a xlink:href="MeasurementModel_8h.html" target="_top" xlink:title=" ">
<polygon fill="white" stroke="black" points="359.5,-168.5 359.5,-198.5 506.5,-198.5 506.5,-168.5 359.5,-168.5"/>
<text text-anchor="start" x="367.5" y="-186.5" font-family="Helvetica,sans-Serif" font-size="10.00">BayesFilters/Measurement</text>
<text text-anchor="middle" x="433" y="-175.5" font-family="Helvetica,sans-Serif" font-size="10.00">Model.h</text>
</a>
</g>
</g>
<!-- Node2&#45;&gt;Node3 -->
<g id="edge2" class="edge">
<title>Node2&#45;&gt;Node3</title>
<path fill="none" stroke="midnightblue" d="M433,-235.4C433,-227.64 433,-217.81 433,-208.86"/>
<polygon fill="midnightblue" stroke="midnightblue" points="436.5,-208.58 433,-198.58 429.5,-208.58 436.5,-208.58"/>
</g>
<!-- Node4 -->
<g id="node4" class="node">
<title>Node4</title>
<g id="a_node4"><a xlink:href="Data_8h.html" target="_top" xlink:title=" ">
<polygon fill="white" stroke="black" points="135,-112.5 135,-131.5 247,-131.5 247,-112.5 135,-112.5"/>
<text text-anchor="middle" x="191" y="-119.5" font-family="Helvetica,sans-Serif" font-size="10.00">BayesFilters/Data.h</text>
</a>
</g>
</g>
<!-- Node3&#45;&gt;Node4 -->
<g id="edge3" class="edge">
<title>Node3&#45;&gt;Node4</title>
<path fill="none" stroke="midnightblue" d="M375.96,-168.47C333.02,-157.92 275.01,-143.66 235.48,-133.94"/>
<polygon fill="midnightblue" stroke="midnightblue" points="236.14,-130.5 225.6,-131.51 234.47,-137.29 236.14,-130.5"/>
</g>
<!-- Node7 -->
<g id="node7" class="node">
<title>Node7</title>
<g id="a_node7"><a xlink:title=" ">
<polygon fill="white" stroke="#bfbfbf" points="0,-0.5 0,-19.5 58,-19.5 58,-0.5 0,-0.5"/>
<text text-anchor="middle" x="29" y="-7.5" font-family="Helvetica,sans-Serif" font-size="10.00">memory</text>
</a>
</g>
</g>
<!-- Node3&#45;&gt;Node7 -->
<g id="edge17" class="edge">
<title>Node3&#45;&gt;Node7</title>
<path fill="none" stroke="midnightblue" d="M359.49,-176.49C281.59,-169.06 164.59,-154.56 126,-132 83.34,-107.06 51.99,-55.68 37.66,-28.6"/>
<polygon fill="midnightblue" stroke="midnightblue" points="40.68,-26.82 33.01,-19.51 34.45,-30.01 40.68,-26.82"/>
</g>
<!-- Node11 -->
<g id="node11" class="node">
<title>Node11</title>
<g id="a_node11"><a xlink:href="Logger_8h.html" target="_top" xlink:title=" ">
<polygon fill="white" stroke="black" points="283.5,-112.5 283.5,-131.5 404.5,-131.5 404.5,-112.5 283.5,-112.5"/>
<text text-anchor="middle" x="344" y="-119.5" font-family="Helvetica,sans-Serif" font-size="10.00">BayesFilters/Logger.h</text>
</a>
</g>
</g>
<!-- Node3&#45;&gt;Node11 -->
<g id="edge10" class="edge">
<title>Node3&#45;&gt;Node11</title>
<path fill="none" stroke="midnightblue" d="M411.91,-168.4C397.91,-159.04 379.59,-146.79 365.51,-137.38"/>
<polygon fill="midnightblue" stroke="midnightblue" points="367.21,-134.31 356.95,-131.66 363.32,-140.13 367.21,-134.31"/>
</g>
<!-- Node14 -->
<g id="node14" class="node">
<title>Node14</title>
<g id="a_node14"><a xlink:title=" ">
<polygon fill="white" stroke="#bfbfbf" points="458,-56.5 458,-75.5 502,-75.5 502,-56.5 458,-56.5"/>
<text text-anchor="middle" x="480" y="-63.5" font-family="Helvetica,sans-Serif" font-size="10.00">string</text>
</a>
</g>
</g>
<!-- Node3&#45;&gt;Node14 -->
<g id="edge18" class="edge">
<title>Node3&#45;&gt;Node14</title>
<path fill="none" stroke="midnightblue" d="M435.86,-168.35C439.05,-153.84 444.86,-130.8 453,-112 457.16,-102.38 463.03,-92.33 468.24,-84.16"/>
<polygon fill="midnightblue" stroke="midnightblue" points="471.31,-85.87 473.9,-75.59 465.47,-82.01 471.31,-85.87"/>
</g>
<!-- Node16 -->
<g id="node16" class="node">
<title>Node16</title>
<g id="a_node16"><a xlink:href="VectorDescription_8h.html" target="_top" xlink:title=" ">
<polygon fill="white" stroke="black" points="461.5,-112.5 461.5,-131.5 636.5,-131.5 636.5,-112.5 461.5,-112.5"/>
<text text-anchor="middle" x="549" y="-119.5" font-family="Helvetica,sans-Serif" font-size="10.00">BayesFilters/VectorDescription.h</text>
</a>
</g>
</g>
<!-- Node3&#45;&gt;Node16 -->
<g id="edge15" class="edge">
<title>Node3&#45;&gt;Node16</title>
<path fill="none" stroke="midnightblue" d="M460.49,-168.4C479.43,-158.68 504.44,-145.86 523.04,-136.31"/>
<polygon fill="midnightblue" stroke="midnightblue" points="524.82,-139.34 532.12,-131.66 521.63,-133.11 524.82,-139.34"/>
</g>
<!-- Node18 -->
<g id="node18" class="node">
<title>Node18</title>
<g id="a_node18"><a xlink:title=" ">
<polygon fill="white" stroke="#bfbfbf" points="654.5,-112.5 654.5,-131.5 699.5,-131.5 699.5,-112.5 654.5,-112.5"/>
<text text-anchor="middle" x="677" y="-119.5" font-family="Helvetica,sans-Serif" font-size="10.00">utility</text>
</a>
</g>
</g>
<!-- Node3&#45;&gt;Node18 -->
<g id="edge19" class="edge">
<title>Node3&#45;&gt;Node18</title>
<path fill="none" stroke="midnightblue" d="M496.12,-168.4C536.2,-159.25 589.4,-146.73 644.42,-132.33"/>
<polygon fill="midnightblue" stroke="midnightblue" points="645.57,-135.65 654.35,-129.72 643.79,-128.88 645.57,-135.65"/>
</g>
<!-- Node19 -->
<g id="node19" class="node">
<title>Node19</title>
<g id="a_node19"><a xlink:title=" ">
<polygon fill="white" stroke="#bfbfbf" points="717.5,-112.5 717.5,-131.5 794.5,-131.5 794.5,-112.5 717.5,-112.5"/>
<text text-anchor="middle" x="756" y="-119.5" font-family="Helvetica,sans-Serif" font-size="10.00">Eigen/Dense</text>
</a>
</g>
</g>
<!-- Node3&#45;&gt;Node19 -->
<g id="edge20" class="edge">
<title>Node3&#45;&gt;Node19</title>
<path fill="none" stroke="midnightblue" d="M506.54,-169.21C559.77,-159.56 633.73,-146.06 707.36,-132.3"/>
<polygon fill="midnightblue" stroke="midnightblue" points="708.09,-135.72 717.28,-130.44 706.8,-128.84 708.09,-135.72"/>
</g>
<!-- Node5 -->
<g id="node5" class="node">
<title>Node5</title>
<g id="a_node5"><a xlink:href="any_8h.html" target="_top" xlink:title=" ">
<polygon fill="white" stroke="black" points="117.5,-56.5 117.5,-75.5 222.5,-75.5 222.5,-56.5 117.5,-56.5"/>
<text text-anchor="middle" x="170" y="-63.5" font-family="Helvetica,sans-Serif" font-size="10.00">BayesFilters/any.h</text>
</a>
</g>
</g>
<!-- Node4&#45;&gt;Node5 -->
<g id="edge4" class="edge">
<title>Node4&#45;&gt;Node5</title>
<path fill="none" stroke="midnightblue" d="M187.53,-112.08C184.69,-104.77 180.57,-94.18 177.04,-85.1"/>
<polygon fill="midnightblue" stroke="midnightblue" points="180.29,-83.8 173.4,-75.75 173.77,-86.34 180.29,-83.8"/>
</g>
<!-- Node6 -->
<g id="node6" class="node">
<title>Node6</title>
<g id="a_node6"><a xlink:title=" ">
<polygon fill="white" stroke="#bfbfbf" points="76,-0.5 76,-19.5 140,-19.5 140,-0.5 76,-0.5"/>
<text text-anchor="middle" x="108" y="-7.5" font-family="Helvetica,sans-Serif" font-size="10.00">algorithm</text>
</a>
</g>
</g>
<!-- Node5&#45;&gt;Node6 -->
<g id="edge5" class="edge">
<title>Node5&#45;&gt;Node6</title>
<path fill="none" stroke="midnightblue" d="M160.04,-56.32C150.87,-48.34 137.06,-36.31 125.97,-26.65"/>
<polygon fill="midnightblue" stroke="midnightblue" points="127.98,-23.76 118.14,-19.83 123.38,-29.04 127.98,-23.76"/>
</g>
<!-- Node5&#45;&gt;Node7 -->
<g id="edge6" class="edge">
<title>Node5&#45;&gt;Node7</title>
<path fill="none" stroke="midnightblue" d="M147.66,-56.44C124.25,-47.48 87.26,-33.31 60.81,-23.18"/>
<polygon fill="midnightblue" stroke="midnightblue" points="61.83,-19.82 51.24,-19.52 59.32,-26.36 61.83,-19.82"/>
</g>
<!-- Node8 -->
<g id="node8" class="node">
<title>Node8</title>
<g id="a_node8"><a xlink:title=" ">
<polygon fill="white" stroke="#bfbfbf" points="158.5,-0.5 158.5,-19.5 223.5,-19.5 223.5,-0.5 158.5,-0.5"/>
<text text-anchor="middle" x="191" y="-7.5" font-family="Helvetica,sans-Serif" font-size="10.00">stdexcept</text>
</a>
</g>
</g>
<!-- Node5&#45;&gt;Node8 -->
<g id="edge7" class="edge">
<title>Node5&#45;&gt;Node8</title>
<path fill="none" stroke="midnightblue" d="M173.47,-56.08C176.31,-48.77 180.43,-38.18 183.96,-29.1"/>
<polygon fill="midnightblue" stroke="midnightblue" points="187.23,-30.34 187.6,-19.75 180.71,-27.8 187.23,-30.34"/>
</g>
<!-- Node9 -->
<g id="node9" class="node">
<title>Node9</title>
<g id="a_node9"><a xlink:title=" ">
<polygon fill="white" stroke="#bfbfbf" points="241.5,-0.5 241.5,-19.5 298.5,-19.5 298.5,-0.5 241.5,-0.5"/>
<text text-anchor="middle" x="270" y="-7.5" font-family="Helvetica,sans-Serif" font-size="10.00">typeinfo</text>
</a>
</g>
</g>
<!-- Node5&#45;&gt;Node9 -->
<g id="edge8" class="edge">
<title>Node5&#45;&gt;Node9</title>
<path fill="none" stroke="midnightblue" d="M186.07,-56.32C201.96,-47.74 226.51,-34.49 244.96,-24.52"/>
<polygon fill="midnightblue" stroke="midnightblue" points="246.84,-27.49 253.97,-19.65 243.51,-21.33 246.84,-27.49"/>
</g>
<!-- Node10 -->
<g id="node10" class="node">
<title>Node10</title>
<g id="a_node10"><a xlink:title=" ">
<polygon fill="white" stroke="#bfbfbf" points="316.5,-0.5 316.5,-19.5 385.5,-19.5 385.5,-0.5 316.5,-0.5"/>
<text text-anchor="middle" x="351" y="-7.5" font-family="Helvetica,sans-Serif" font-size="10.00">type_traits</text>
</a>
</g>
</g>
<!-- Node5&#45;&gt;Node10 -->
<g id="edge9" class="edge">
<title>Node5&#45;&gt;Node10</title>
<path fill="none" stroke="midnightblue" d="M198.68,-56.44C229.53,-47.24 278.73,-32.56 312.83,-22.39"/>
<polygon fill="midnightblue" stroke="midnightblue" points="313.87,-25.73 322.45,-19.52 311.87,-19.02 313.87,-25.73"/>
</g>
<!-- Node12 -->
<g id="node12" class="node">
<title>Node12</title>
<g id="a_node12"><a xlink:title=" ">
<polygon fill="white" stroke="#bfbfbf" points="240.5,-56.5 240.5,-75.5 295.5,-75.5 295.5,-56.5 240.5,-56.5"/>
<text text-anchor="middle" x="268" y="-63.5" font-family="Helvetica,sans-Serif" font-size="10.00">fstream</text>
</a>
</g>
</g>
<!-- Node11&#45;&gt;Node12 -->
<g id="edge11" class="edge">
<title>Node11&#45;&gt;Node12</title>
<path fill="none" stroke="midnightblue" d="M331.79,-112.32C320.22,-104.11 302.62,-91.6 288.84,-81.81"/>
<polygon fill="midnightblue" stroke="midnightblue" points="290.61,-78.77 280.43,-75.83 286.56,-84.48 290.61,-78.77"/>
</g>
<!-- Node13 -->
<g id="node13" class="node">
<title>Node13</title>
<g id="a_node13"><a xlink:title=" ">
<polygon fill="white" stroke="#bfbfbf" points="314,-56.5 314,-75.5 374,-75.5 374,-56.5 314,-56.5"/>
<text text-anchor="middle" x="344" y="-63.5" font-family="Helvetica,sans-Serif" font-size="10.00">iostream</text>
</a>
</g>
</g>
<!-- Node11&#45;&gt;Node13 -->
<g id="edge12" class="edge">
<title>Node11&#45;&gt;Node13</title>
<path fill="none" stroke="midnightblue" d="M344,-112.08C344,-105.01 344,-94.86 344,-85.99"/>
<polygon fill="midnightblue" stroke="midnightblue" points="347.5,-85.75 344,-75.75 340.5,-85.75 347.5,-85.75"/>
</g>
<!-- Node11&#45;&gt;Node14 -->
<g id="edge13" class="edge">
<title>Node11&#45;&gt;Node14</title>
<path fill="none" stroke="midnightblue" d="M365.55,-112.44C388.03,-103.52 423.49,-89.44 448.98,-79.32"/>
<polygon fill="midnightblue" stroke="midnightblue" points="450.55,-82.46 458.55,-75.52 447.97,-75.95 450.55,-82.46"/>
</g>
<!-- Node15 -->
<g id="node15" class="node">
<title>Node15</title>
<g id="a_node15"><a xlink:title=" ">
<polygon fill="white" stroke="#bfbfbf" points="392.5,-56.5 392.5,-75.5 439.5,-75.5 439.5,-56.5 392.5,-56.5"/>
<text text-anchor="middle" x="416" y="-63.5" font-family="Helvetica,sans-Serif" font-size="10.00">vector</text>
</a>
</g>
</g>
<!-- Node11&#45;&gt;Node15 -->
<g id="edge14" class="edge">
<title>Node11&#45;&gt;Node15</title>
<path fill="none" stroke="midnightblue" d="M355.57,-112.32C366.42,-104.18 382.88,-91.84 395.88,-82.09"/>
<polygon fill="midnightblue" stroke="midnightblue" points="398.32,-84.63 404.22,-75.83 394.12,-79.03 398.32,-84.63"/>
</g>
<!-- Node17 -->
<g id="node17" class="node">
<title>Node17</title>
<g id="a_node17"><a xlink:title=" ">
<polygon fill="white" stroke="#bfbfbf" points="522.5,-56.5 522.5,-75.5 575.5,-75.5 575.5,-56.5 522.5,-56.5"/>
<text text-anchor="middle" x="549" y="-63.5" font-family="Helvetica,sans-Serif" font-size="10.00">cstddef</text>
</a>
</g>
</g>
<!-- Node16&#45;&gt;Node17 -->
<g id="edge16" class="edge">
<title>Node16&#45;&gt;Node17</title>
<path fill="none" stroke="midnightblue" d="M549,-112.08C549,-105.01 549,-94.86 549,-85.99"/>
<polygon fill="midnightblue" stroke="midnightblue" points="552.5,-85.75 549,-75.75 545.5,-85.75 552.5,-85.75"/>
</g>
</g>
</svg>
