<?xml version="1.0" encoding="UTF-8" standalone="no"?>
<!DOCTYPE svg PUBLIC "-//W3C//DTD SVG 1.1//EN"
 "http://www.w3.org/Graphics/SVG/1.1/DTD/svg11.dtd">
<!-- Generated by graphviz version 2.43.0 (0)
 -->
<!-- Title: /home/user/bayes&#45;filters&#45;lib/src/BayesFilters/include/BayesFilters/LinearModel.h Pages: 1 -->
<svg width="1023pt" height="486pt"
 viewBox="0.00 0.00 1022.50 486.00" xmlns="http://www.w3.org/2000/svg" xmlns:xlink="http://www.w3.org/1999/xlink">
<g id="graph0" class="graph" transform="scale(1 1) rotate(0) translate(4 482)">
<title>/home/user/bayes&#45;filters&#45;lib/src/BayesFilters/include/BayesFilters/LinearModel.h</title>
<polygon fill="white" stroke="transparent" points="-4,4 -4,-482 1018.5,-482 1018.5,4 -4,4"/>
<!-- Node1 -->
<g id="node1" class="node">
<title>Node1</title>
<g id="a_node1"><a xlink:title=" ">
<polygon fill="#bfbfbf" stroke="black" points="706.5,-436.5 706.5,-477.5 858.5,-477.5 858.5,-436.5 706.5,-436.5"/>
<text text-anchor="start" x="714.5" y="-465.5" font-family="Helvetica,sans-Serif" font-size="10.00">/home/user/bayes&#45;filters</text>
<text text-anchor="start" x="714.5" y="-454.5" font-family="Helvetica,sans-Serif" font-size="10.00">&#45;lib/src/BayesFilters/include</text>
<text text-anchor="middle" x="782.5" y="-443.5" font-family="Helvetica,sans-Serif" font-size="10.00">/BayesFilters/LinearModel.h</text>
</a>
</g>
</g>
<!-- Node2 -->
<g id="node2" class="node">
<title>Node2</title>
<g id="a_node2"><a xlink:href="LTIMeasurementModel_8h.html" target="_top" xlink:title=" ">
<polygon fill="white" stroke="black" points="520,-369.5 520,-399.5 681,-399.5 681,-369.5 520,-369.5"/>
<text text-anchor="start" x="528" y="-387.5" font-family="Helvetica,sans-Serif" font-size="10.00">BayesFilters/LTIMeasurement</text>
<text text-anchor="middle" x="600.5" y="-376.5" font-family="Helvetica,sans-Serif" font-size="10.00">Model.h</text>
</a>
</g>
</g>
<!-- Node1&#45;&gt;Node2 -->
<g id="edge1" class="edge">
<title>Node1&#45;&gt;Node2</title>
<path fill="none" stroke="midnightblue" d="M731.8,-436.36C705.04,-425.99 672.44,-413.37 646.42,-403.29"/>
<polygon fill="midnightblue" stroke="midnightblue" points="647.38,-399.91 636.8,-399.56 644.86,-406.44 647.38,-399.91"/>
</g>
<!-- Node14 -->
<g id="node14" class="node">
<title>Node14</title>
<g id="a_node14"><a xlink:title=" ">
<polygon fill="white" stroke="#bfbfbf" points="674,-56.5 674,-75.5 729,-75.5 729,-56.5 674,-56.5"/>
<text text-anchor="middle" x="701.5" y="-63.5" font-family="Helvetica,sans-Serif" font-size="10.00">fstream</text>
</a>
</g>
</g>
<!-- Node1&#45;&gt;Node14 -->
<g id="edge25" class="edge">
<title>Node1&#45;&gt;Node14</title>
<path fill="none" stroke="midnightblue" d="M774.21,-436.36C763.86,-410.03 747.5,-361.61 747.5,-318.5 747.5,-318.5 747.5,-318.5 747.5,-182.5 747.5,-145.27 726.62,-105.78 712.99,-83.97"/>
<polygon fill="midnightblue" stroke="midnightblue" points="715.89,-82.01 707.51,-75.52 710.02,-85.81 715.89,-82.01"/>
</g>
<!-- Node16 -->
<g id="node16" class="node">
<title>Node16</title>
<g id="a_node16"><a xlink:title=" ">
<polygon fill="white" stroke="#bfbfbf" points="565.5,-56.5 565.5,-75.5 609.5,-75.5 609.5,-56.5 565.5,-56.5"/>
<text text-anchor="middle" x="587.5" y="-63.5" font-family="Helvetica,sans-Serif" font-size="10.00">string</text>
</a>
</g>
</g>
<!-- Node1&#45;&gt;Node16 -->
<g id="edge28" class="edge">
<title>Node1&#45;&gt;Node16</title>
<path fill="none" stroke="midnightblue" d="M764.08,-436.32C742.45,-411.08 709.5,-364.99 709.5,-318.5 709.5,-318.5 709.5,-318.5 709.5,-182.5 709.5,-150.05 711.68,-136.59 690.5,-112 672.39,-90.97 642.61,-79.42 619.72,-73.31"/>
<polygon fill="midnightblue" stroke="midnightblue" points="620.3,-69.84 609.75,-70.86 618.63,-76.64 620.3,-69.84"/>
</g>
<!-- Node22 -->
<g id="node22" class="node">
<title>Node22</title>
<g id="a_node22"><a xlink:title=" ">
<polygon fill="white" stroke="#bfbfbf" points="776,-375 776,-394 859,-394 859,-375 776,-375"/>
<text text-anchor="middle" x="817.5" y="-382" font-family="Helvetica,sans-Serif" font-size="10.00">initializer_list</text>
</a>
</g>
</g>
<!-- Node1&#45;&gt;Node22 -->
<g id="edge24" class="edge">
<title>Node1&#45;&gt;Node22</title>
<path fill="none" stroke="midnightblue" d="M792.25,-436.36C797.41,-425.97 803.69,-413.32 808.7,-403.23"/>
<polygon fill="midnightblue" stroke="midnightblue" points="811.88,-404.69 813.19,-394.17 805.61,-401.57 811.88,-404.69"/>
</g>
<!-- Node23 -->
<g id="node23" class="node">
<title>Node23</title>
<g id="a_node23"><a xlink:title=" ">
<polygon fill="white" stroke="#bfbfbf" points="877,-375 877,-394 942,-394 942,-375 877,-375"/>
<text text-anchor="middle" x="909.5" y="-382" font-family="Helvetica,sans-Serif" font-size="10.00">functional</text>
</a>
</g>
</g>
<!-- Node1&#45;&gt;Node23 -->
<g id="edge26" class="edge">
<title>Node1&#45;&gt;Node23</title>
<path fill="none" stroke="midnightblue" d="M817.88,-436.36C839.22,-424.51 865.89,-409.71 884.93,-399.14"/>
<polygon fill="midnightblue" stroke="midnightblue" points="886.83,-402.09 893.88,-394.17 883.43,-395.97 886.83,-402.09"/>
</g>
<!-- Node24 -->
<g id="node24" class="node">
<title>Node24</title>
<g id="a_node24"><a xlink:title=" ">
<polygon fill="white" stroke="#bfbfbf" points="960.5,-375 960.5,-394 1014.5,-394 1014.5,-375 960.5,-375"/>
<text text-anchor="middle" x="987.5" y="-382" font-family="Helvetica,sans-Serif" font-size="10.00">random</text>
</a>
</g>
</g>
<!-- Node1&#45;&gt;Node24 -->
<g id="edge27" class="edge">
<title>Node1&#45;&gt;Node24</title>
<path fill="none" stroke="midnightblue" d="M844.63,-436.45C876.71,-426.09 916.39,-412.87 951.5,-400 953.4,-399.3 955.35,-398.57 957.3,-397.82"/>
<polygon fill="midnightblue" stroke="midnightblue" points="959,-400.92 967.03,-394.01 956.44,-394.4 959,-400.92"/>
</g>
<!-- Node3 -->
<g id="node3" class="node">
<title>Node3</title>
<g id="a_node3"><a xlink:href="LinearMeasurementModel_8h.html" target="_top" xlink:title=" ">
<polygon fill="white" stroke="black" points="414,-302.5 414,-332.5 591,-332.5 591,-302.5 414,-302.5"/>
<text text-anchor="start" x="422" y="-320.5" font-family="Helvetica,sans-Serif" font-size="10.00">BayesFilters/LinearMeasurement</text>
<text text-anchor="middle" x="502.5" y="-309.5" font-family="Helvetica,sans-Serif" font-size="10.00">Model.h</text>
</a>
</g>
</g>
<!-- Node2&#45;&gt;Node3 -->
<g id="edge2" class="edge">
<title>Node2&#45;&gt;Node3</title>
<path fill="none" stroke="midnightblue" d="M579.24,-369.4C565.49,-360.28 547.41,-348.29 532.26,-338.24"/>
<polygon fill="midnightblue" stroke="midnightblue" points="533.99,-335.19 523.72,-332.58 530.12,-341.02 533.99,-335.19"/>
</g>
<!-- Node21 -->
<g id="node21" class="node">
<title>Node21</title>
<g id="a_node21"><a xlink:title=" ">
<polygon fill="white" stroke="#bfbfbf" points="604,-112.5 604,-131.5 681,-131.5 681,-112.5 604,-112.5"/>
<text text-anchor="middle" x="642.5" y="-119.5" font-family="Helvetica,sans-Serif" font-size="10.00">Eigen/Dense</text>
</a>
</g>
</g>
<!-- Node2&#45;&gt;Node21 -->
<g id="edge23" class="edge">
<title>Node2&#45;&gt;Node21</title>
<path fill="none" stroke="midnightblue" d="M602.76,-369.49C609.82,-325.67 631.52,-191.13 639.51,-141.58"/>
<polygon fill="midnightblue" stroke="midnightblue" points="642.97,-142.06 641.11,-131.63 636.06,-140.94 642.97,-142.06"/>
</g>
<!-- Node4 -->
<g id="node4" class="node">
<title>Node4</title>
<g id="a_node4"><a xlink:href="AdditiveMeasurementModel_8h.html" target="_top" xlink:title=" ">
<polygon fill="white" stroke="black" points="331.5,-235.5 331.5,-265.5 519.5,-265.5 519.5,-235.5 331.5,-235.5"/>
<text text-anchor="start" x="339.5" y="-253.5" font-family="Helvetica,sans-Serif" font-size="10.00">BayesFilters/AdditiveMeasurement</text>
<text text-anchor="middle" x="425.5" y="-242.5" font-family="Helvetica,sans-Serif" font-size="10.00">Model.h</text>
</a>
</g>
</g>
<!-- Node3&#45;&gt;Node4 -->
<g id="edge3" class="edge">
<title>Node3&#45;&gt;Node4</title>
<path fill="none" stroke="midnightblue" d="M485.79,-302.4C475.3,-293.54 461.58,-281.96 449.89,-272.09"/>
<polygon fill="midnightblue" stroke="midnightblue" points="452.07,-269.35 442.18,-265.58 447.56,-274.7 452.07,-269.35"/>
</g>
<!-- Node5 -->
<g id="node5" class="node">
<title>Node5</title>
<g id="a_node5"><a xlink:href="MeasurementModel_8h.html" target="_top" xlink:title=" ">
<polygon fill="white" stroke="black" points="315,-168.5 315,-198.5 462,-198.5 462,-168.5 315,-168.5"/>
<text text-anchor="start" x="323" y="-186.5" font-family="Helvetica,sans-Serif" font-size="10.00">BayesFilters/Measurement</text>
<text text-anchor="middle" x="388.5" y="-175.5" font-family="Helvetica,sans-Serif" font-size="10.00">Model.h</text>
</a>
</g>
</g>
<!-- Node4&#45;&gt;Node5 -->
<g id="edge4" class="edge">
<title>Node4&#45;&gt;Node5</title>
<path fill="none" stroke="midnightblue" d="M417.47,-235.4C412.82,-227.22 406.84,-216.73 401.53,-207.39"/>
<polygon fill="midnightblue" stroke="midnightblue" points="404.5,-205.54 396.51,-198.58 398.42,-209 404.5,-205.54"/>
</g>
<!-- Node6 -->
<g id="node6" class="node">
<title>Node6</title>
<g id="a_node6"><a xlink:href="Data_8h.html" target="_top" xlink:title=" ">
<polygon fill="white" stroke="black" points="295.5,-112.5 295.5,-131.5 407.5,-131.5 407.5,-112.5 295.5,-112.5"/>
<text text-anchor="middle" x="351.5" y="-119.5" font-family="Helvetica,sans-Serif" font-size="10.00">BayesFilters/Data.h</text>
</a>
</g>
</g>
<!-- Node5&#45;&gt;Node6 -->
<g id="edge5" class="edge">
<title>Node5&#45;&gt;Node6</title>
<path fill="none" stroke="midnightblue" d="M379.73,-168.4C374.52,-160.02 367.87,-149.33 362.33,-140.42"/>
<polygon fill="midnightblue" stroke="midnightblue" points="365.14,-138.3 356.88,-131.66 359.19,-142 365.14,-138.3"/>
</g>
<!-- Node9 -->
<g id="node9" class="node">
<title>Node9</title>
<g id="a_node9"><a xlink:title=" ">
<polygon fill="white" stroke="#bfbfbf" points="168.5,-0.5 168.5,-19.5 226.5,-19.5 226.5,-0.5 168.5,-0.5"/>
<text text-anchor="middle" x="197.5" y="-7.5" font-family="Helvetica,sans-Serif" font-size="10.00">memory</text>
</a>
</g>
</g>
<!-- Node5&#45;&gt;Node9 -->
<g id="edge19" class="edge">
<title>Node5&#45;&gt;Node9</title>
<path fill="none" stroke="midnightblue" d="M314.99,-176.87C282.34,-170.6 246.05,-157.81 222.5,-132 196.68,-103.7 194.72,-56.01 195.89,-29.74"/>
<polygon fill="midnightblue" stroke="midnightblue" points="199.39,-29.83 196.55,-19.63 192.41,-29.38 199.39,-29.83"/>
</g>
<!-- Node13 -->
<g id="node13" class="node">
<title>Node13</title>
<g id="a_node13"><a xlink:href="Logger_8h.html" target="_top" xlink:title=" ">
<polygon fill="white" stroke="black" points="426,-112.5 426,-131.5 547,-131.5 547,-112.5 426,-112.5"/>
<text text-anchor="middle" x="486.5" y="-119.5" font-family="Helvetica,sans-Serif" font-size="10.00">BayesFilters/Logger.h</text>
</a>
</g>
</g>
<!-- Node5&#45;&gt;Node13 -->
<g id="edge12" class="edge">
<title>Node5&#45;&gt;Node13</title>
<path fill="none" stroke="midnightblue" d="M411.72,-168.4C427.29,-158.95 447.7,-146.56 463.26,-137.11"/>
<polygon fill="midnightblue" stroke="midnightblue" points="465.51,-139.84 472.24,-131.66 461.88,-133.86 465.51,-139.84"/>
</g>
<!-- Node5&#45;&gt;Node16 -->
<g id="edge20" class="edge">
<title>Node5&#45;&gt;Node16</title>
<path fill="none" stroke="midnightblue" d="M462.18,-173.56C493.8,-166.58 529.4,-154.14 555.5,-132 569.72,-119.94 578.2,-100.06 582.82,-85.45"/>
<polygon fill="midnightblue" stroke="midnightblue" points="586.27,-86.1 585.63,-75.53 579.54,-84.19 586.27,-86.1"/>
</g>
<!-- Node18 -->
<g id="node18" class="node">
<title>Node18</title>
<g id="a_node18"><a xlink:href="VectorDescription_8h.html" target="_top" xlink:title=" ">
<polygon fill="white" stroke="black" points="0,-112.5 0,-131.5 175,-131.5 175,-112.5 0,-112.5"/>
<text text-anchor="middle" x="87.5" y="-119.5" font-family="Helvetica,sans-Serif" font-size="10.00">BayesFilters/VectorDescription.h</text>
</a>
</g>
</g>
<!-- Node5&#45;&gt;Node18 -->
<g id="edge17" class="edge">
<title>Node5&#45;&gt;Node18</title>
<path fill="none" stroke="midnightblue" d="M317.55,-168.47C263.35,-157.76 189.84,-143.23 140.65,-133.51"/>
<polygon fill="midnightblue" stroke="midnightblue" points="141.02,-130.01 130.53,-131.51 139.66,-136.88 141.02,-130.01"/>
</g>
<!-- Node20 -->
<g id="node20" class="node">
<title>Node20</title>
<g id="a_node20"><a xlink:title=" ">
<polygon fill="white" stroke="#bfbfbf" points="232,-112.5 232,-131.5 277,-131.5 277,-112.5 232,-112.5"/>
<text text-anchor="middle" x="254.5" y="-119.5" font-family="Helvetica,sans-Serif" font-size="10.00">utility</text>
</a>
</g>
</g>
<!-- Node5&#45;&gt;Node20 -->
<g id="edge21" class="edge">
<title>Node5&#45;&gt;Node20</title>
<path fill="none" stroke="midnightblue" d="M356.74,-168.4C334.46,-158.51 304.91,-145.38 283.31,-135.79"/>
<polygon fill="midnightblue" stroke="midnightblue" points="284.56,-132.52 274,-131.66 281.72,-138.91 284.56,-132.52"/>
</g>
<!-- Node5&#45;&gt;Node21 -->
<g id="edge22" class="edge">
<title>Node5&#45;&gt;Node21</title>
<path fill="none" stroke="midnightblue" d="M448.37,-168.47C493.63,-157.87 554.84,-143.53 596.34,-133.81"/>
<polygon fill="midnightblue" stroke="midnightblue" points="597.25,-137.19 606.19,-131.51 595.65,-130.38 597.25,-137.19"/>
</g>
<!-- Node7 -->
<g id="node7" class="node">
<title>Node7</title>
<g id="a_node7"><a xlink:href="any_8h.html" target="_top" xlink:title=" ">
<polygon fill="white" stroke="black" points="299,-56.5 299,-75.5 404,-75.5 404,-56.5 299,-56.5"/>
<text text-anchor="middle" x="351.5" y="-63.5" font-family="Helvetica,sans-Serif" font-size="10.00">BayesFilters/any.h</text>
</a>
</g>
</g>
<!-- Node6&#45;&gt;Node7 -->
<g id="edge6" class="edge">
<title>Node6&#45;&gt;Node7</title>
<path fill="none" stroke="midnightblue" d="M351.5,-112.08C351.5,-105.01 351.5,-94.86 351.5,-85.99"/>
<polygon fill="midnightblue" stroke="midnightblue" points="355,-85.75 351.5,-75.75 348,-85.75 355,-85.75"/>
</g>
<!-- Node8 -->
<g id="node8" class="node">
<title>Node8</title>
<g id="a_node8"><a xlink:title=" ">
<polygon fill="white" stroke="#bfbfbf" points="490.5,-0.5 490.5,-19.5 554.5,-19.5 554.5,-0.5 490.5,-0.5"/>
<text text-anchor="middle" x="522.5" y="-7.5" font-family="Helvetica,sans-Serif" font-size="10.00">algorithm</text>
</a>
</g>
</g>
<!-- Node7&#45;&gt;Node8 -->
<g id="edge7" class="edge">
<title>Node7&#45;&gt;Node8</title>
<path fill="none" stroke="midnightblue" d="M378.6,-56.44C407.49,-47.32 453.42,-32.81 485.61,-22.65"/>
<polygon fill="midnightblue" stroke="midnightblue" points="487.05,-25.87 495.53,-19.52 484.94,-19.19 487.05,-25.87"/>
</g>
<!-- Node7&#45;&gt;Node9 -->
<g id="edge8" class="edge">
<title>Node7&#45;&gt;Node9</title>
<path fill="none" stroke="midnightblue" d="M327.1,-56.44C301.3,-47.4 260.42,-33.06 231.48,-22.92"/>
<polygon fill="midnightblue" stroke="midnightblue" points="232.38,-19.52 221.79,-19.52 230.07,-26.13 232.38,-19.52"/>
</g>
<!-- Node10 -->
<g id="node10" class="node">
<title>Node10</title>
<g id="a_node10"><a xlink:title=" ">
<polygon fill="white" stroke="#bfbfbf" points="245,-0.5 245,-19.5 310,-19.5 310,-0.5 245,-0.5"/>
<text text-anchor="middle" x="277.5" y="-7.5" font-family="Helvetica,sans-Serif" font-size="10.00">stdexcept</text>
</a>
</g>
</g>
<!-- Node7&#45;&gt;Node10 -->
<g id="edge9" class="edge">
<title>Node7&#45;&gt;Node10</title>
<path fill="none" stroke="midnightblue" d="M339.61,-56.32C328.35,-48.11 311.21,-35.6 297.79,-25.81"/>
<polygon fill="midnightblue" stroke="midnightblue" points="299.75,-22.9 289.61,-19.83 295.62,-28.56 299.75,-22.9"/>
</g>
<!-- Node11 -->
<g id="node11" class="node">
<title>Node11</title>
<g id="a_node11"><a xlink:title=" ">
<polygon fill="white" stroke="#bfbfbf" points="328,-0.5 328,-19.5 385,-19.5 385,-0.5 328,-0.5"/>
<text text-anchor="middle" x="356.5" y="-7.5" font-family="Helvetica,sans-Serif" font-size="10.00">typeinfo</text>
</a>
</g>
</g>
<!-- Node7&#45;&gt;Node11 -->
<g id="edge10" class="edge">
<title>Node7&#45;&gt;Node11</title>
<path fill="none" stroke="midnightblue" d="M352.33,-56.08C352.98,-49.01 353.92,-38.86 354.74,-29.99"/>
<polygon fill="midnightblue" stroke="midnightblue" points="358.25,-30.03 355.69,-19.75 351.28,-29.39 358.25,-30.03"/>
</g>
<!-- Node12 -->
<g id="node12" class="node">
<title>Node12</title>
<g id="a_node12"><a xlink:title=" ">
<polygon fill="white" stroke="#bfbfbf" points="403,-0.5 403,-19.5 472,-19.5 472,-0.5 403,-0.5"/>
<text text-anchor="middle" x="437.5" y="-7.5" font-family="Helvetica,sans-Serif" font-size="10.00">type_traits</text>
</a>
</g>
</g>
<!-- Node7&#45;&gt;Node12 -->
<g id="edge11" class="edge">
<title>Node7&#45;&gt;Node12</title>
<path fill="none" stroke="midnightblue" d="M365.32,-56.32C378.73,-47.9 399.32,-34.97 415.09,-25.07"/>
<polygon fill="midnightblue" stroke="midnightblue" points="417.11,-27.94 423.72,-19.65 413.39,-22.01 417.11,-27.94"/>
</g>
<!-- Node13&#45;&gt;Node14 -->
<g id="edge13" class="edge">
<title>Node13&#45;&gt;Node14</title>
<path fill="none" stroke="midnightblue" d="M520.57,-112.44C559.65,-102.63 623.52,-86.59 663.99,-76.42"/>
<polygon fill="midnightblue" stroke="midnightblue" points="664.9,-79.8 673.75,-73.97 663.19,-73.01 664.9,-79.8"/>
</g>
<!-- Node15 -->
<g id="node15" class="node">
<title>Node15</title>
<g id="a_node15"><a xlink:title=" ">
<polygon fill="white" stroke="#bfbfbf" points="487.5,-56.5 487.5,-75.5 547.5,-75.5 547.5,-56.5 487.5,-56.5"/>
<text text-anchor="middle" x="517.5" y="-63.5" font-family="Helvetica,sans-Serif" font-size="10.00">iostream</text>
</a>
</g>
</g>
<!-- Node13&#45;&gt;Node15 -->
<g id="edge14" class="edge">
<title>Node13&#45;&gt;Node15</title>
<path fill="none" stroke="midnightblue" d="M491.62,-112.08C495.91,-104.61 502.16,-93.72 507.44,-84.52"/>
<polygon fill="midnightblue" stroke="midnightblue" points="510.53,-86.17 512.48,-75.75 504.46,-82.68 510.53,-86.17"/>
</g>
<!-- Node13&#45;&gt;Node16 -->
<g id="edge15" class="edge">
<title>Node13&#45;&gt;Node16</title>
<path fill="none" stroke="midnightblue" d="M502.73,-112.32C518.85,-103.7 543.8,-90.36 562.46,-80.39"/>
<polygon fill="midnightblue" stroke="midnightblue" points="564.14,-83.46 571.31,-75.65 560.84,-77.28 564.14,-83.46"/>
</g>
<!-- Node17 -->
<g id="node17" class="node">
<title>Node17</title>
<g id="a_node17"><a xlink:title=" ">
<polygon fill="white" stroke="#bfbfbf" points="422,-56.5 422,-75.5 469,-75.5 469,-56.5 422,-56.5"/>
<text text-anchor="middle" x="445.5" y="-63.5" font-family="Helvetica,sans-Serif" font-size="10.00">vector</text>
</a>
</g>
</g>
<!-- Node13&#45;&gt;Node17 -->
<g id="edge16" class="edge">
<title>Node13&#45;&gt;Node17</title>
<path fill="none" stroke="midnightblue" d="M479.73,-112.08C473.94,-104.46 465.44,-93.26 458.36,-83.94"/>
<polygon fill="midnightblue" stroke="midnightblue" points="460.98,-81.6 452.14,-75.75 455.4,-85.83 460.98,-81.6"/>
</g>
<!-- Node19 -->
<g id="node19" class="node">
<title>Node19</title>
<g id="a_node19"><a xlink:title=" ">
<polygon fill="white" stroke="#bfbfbf" points="61,-56.5 61,-75.5 114,-75.5 114,-56.5 61,-56.5"/>
<text text-anchor="middle" x="87.5" y="-63.5" font-family="Helvetica,sans-Serif" font-size="10.00">cstddef</text>
</a>
</g>
</g>
<!-- Node18&#45;&gt;Node19 -->
<g id="edge18" class="edge">
<title>Node18&#45;&gt;Node19</title>
<path fill="none" stroke="midnightblue" d="M87.5,-112.08C87.5,-105.01 87.5,-94.86 87.5,-85.99"/>
<polygon fill="midnightblue" stroke="midnightblue" points="91,-85.75 87.5,-75.75 84,-85.75 91,-85.75"/>
</g>
</g>
</svg>
