<?xml version="1.0" encoding="UTF-8" standalone="no"?>
<!DOCTYPE svg PUBLIC "-//W3C//DTD SVG 1.1//EN"
 "http://www.w3.org/Graphics/SVG/1.1/DTD/svg11.dtd">
<!-- Generated by graphviz version 2.47.2 (0)
 -->
<!-- Title: /home/xenvre/robot&#45;code/bfl_robotology/src/BayesFilters/include/BayesFilters/LinearModel.h Pages: 1 -->
<svg width="618pt" height="497pt"
 viewBox="0.00 0.00 617.50 497.00" xmlns="http://www.w3.org/2000/svg" xmlns:xlink="http://www.w3.org/1999/xlink">
<g id="graph0" class="graph" transform="scale(1 1) rotate(0) translate(4 493)">
<title>/home/xenvre/robot&#45;code/bfl_robotology/src/BayesFilters/include/BayesFilters/LinearModel.h</title>
<polygon fill="white" stroke="transparent" points="-4,4 -4,-493 613.5,-493 613.5,4 -4,4"/>
<!-- Node1 -->
<g id="node1" class="node">
<title>Node1</title>
<g id="a_node1"><a xlink:title=" ">
<polygon fill="#bfbfbf" stroke="black" points="295,-436.5 295,-488.5 433,-488.5 433,-436.5 295,-436.5"/>
<text text-anchor="start" x="303" y="-476.5" font-family="Helvetica,sans-Serif" font-size="10.00">/home/xenvre/robot</text>
<text text-anchor="start" x="303" y="-465.5" font-family="Helvetica,sans-Serif" font-size="10.00">&#45;code/bfl_robotology</text>
<text text-anchor="start" x="303" y="-454.5" font-family="Helvetica,sans-Serif" font-size="10.00">/src/BayesFilters/include</text>
<text text-anchor="middle" x="364" y="-443.5" font-family="Helvetica,sans-Serif" font-size="10.00">/BayesFilters/LinearModel.h</text>
</a>
</g>
</g>
<!-- Node2 -->
<g id="node2" class="node">
<title>Node2</title>
<g id="a_node2"><a xlink:href="LTIMeasurementModel_8h.html" target="_top" xlink:title=" ">
<polygon fill="white" stroke="black" points="226,-369.5 226,-399.5 374,-399.5 374,-369.5 226,-369.5"/>
<text text-anchor="start" x="234" y="-387.5" font-family="Helvetica,sans-Serif" font-size="10.00">BayesFilters/LTIMeasurement</text>
<text text-anchor="middle" x="300" y="-376.5" font-family="Helvetica,sans-Serif" font-size="10.00">Model.h</text>
</a>
</g>
</g>
<!-- Node1&#45;&gt;Node2 -->
<g id="edge1" class="edge">
<title>Node1&#45;&gt;Node2</title>
<path fill="none" stroke="midnightblue" d="M342.69,-436.19C334.89,-426.94 326.14,-416.54 318.6,-407.59"/>
<polygon fill="midnightblue" stroke="midnightblue" points="321.2,-405.24 312.08,-399.85 315.84,-409.75 321.2,-405.24"/>
</g>
<!-- Node14 -->
<g id="node14" class="node">
<title>Node14</title>
<g id="a_node14"><a xlink:title=" ">
<polygon fill="white" stroke="#bfbfbf" points="0,-56.5 0,-75.5 50,-75.5 50,-56.5 0,-56.5"/>
<text text-anchor="middle" x="25" y="-63.5" font-family="Helvetica,sans-Serif" font-size="10.00">fstream</text>
</a>
</g>
</g>
<!-- Node1&#45;&gt;Node14 -->
<g id="edge23" class="edge">
<title>Node1&#45;&gt;Node14</title>
<path fill="none" stroke="midnightblue" d="M294.99,-461.69C195.87,-457.92 25,-434.59 25,-318.5 25,-318.5 25,-318.5 25,-182.5 25,-148.36 25,-108.55 25,-85.71"/>
<polygon fill="midnightblue" stroke="midnightblue" points="28.5,-85.69 25,-75.69 21.5,-85.69 28.5,-85.69"/>
</g>
<!-- Node16 -->
<g id="node16" class="node">
<title>Node16</title>
<g id="a_node16"><a xlink:title=" ">
<polygon fill="white" stroke="#bfbfbf" points="202.5,-56.5 202.5,-75.5 243.5,-75.5 243.5,-56.5 202.5,-56.5"/>
<text text-anchor="middle" x="223" y="-63.5" font-family="Helvetica,sans-Serif" font-size="10.00">string</text>
</a>
</g>
</g>
<!-- Node1&#45;&gt;Node16 -->
<g id="edge26" class="edge">
<title>Node1&#45;&gt;Node16</title>
<path fill="none" stroke="midnightblue" d="M294.91,-446.42C267.3,-437.21 237.3,-422.67 217,-400 191.81,-371.87 193,-356.26 193,-318.5 193,-318.5 193,-318.5 193,-182.5 193,-147.09 206.37,-107.47 215.26,-85.05"/>
<polygon fill="midnightblue" stroke="midnightblue" points="218.51,-86.36 219.08,-75.78 212.04,-83.7 218.51,-86.36"/>
</g>
<!-- Node20 -->
<g id="node20" class="node">
<title>Node20</title>
<g id="a_node20"><a xlink:title=" ">
<polygon fill="white" stroke="#bfbfbf" points="392.5,-375 392.5,-394 465.5,-394 465.5,-375 392.5,-375"/>
<text text-anchor="middle" x="429" y="-382" font-family="Helvetica,sans-Serif" font-size="10.00">initializer_list</text>
</a>
</g>
</g>
<!-- Node1&#45;&gt;Node20 -->
<g id="edge22" class="edge">
<title>Node1&#45;&gt;Node20</title>
<path fill="none" stroke="midnightblue" d="M385.64,-436.19C395.24,-424.97 406.27,-412.08 414.8,-402.11"/>
<polygon fill="midnightblue" stroke="midnightblue" points="417.71,-404.08 421.55,-394.21 412.39,-399.53 417.71,-404.08"/>
</g>
<!-- Node21 -->
<g id="node21" class="node">
<title>Node21</title>
<g id="a_node21"><a xlink:title=" ">
<polygon fill="white" stroke="#bfbfbf" points="483.5,-375 483.5,-394 542.5,-394 542.5,-375 483.5,-375"/>
<text text-anchor="middle" x="513" y="-382" font-family="Helvetica,sans-Serif" font-size="10.00">functional</text>
</a>
</g>
</g>
<!-- Node1&#45;&gt;Node21 -->
<g id="edge24" class="edge">
<title>Node1&#45;&gt;Node21</title>
<path fill="none" stroke="midnightblue" d="M413.2,-436.4C437.94,-423.79 466.89,-409.02 487.22,-398.65"/>
<polygon fill="midnightblue" stroke="midnightblue" points="488.86,-401.74 496.18,-394.08 485.68,-395.5 488.86,-401.74"/>
</g>
<!-- Node22 -->
<g id="node22" class="node">
<title>Node22</title>
<g id="a_node22"><a xlink:title=" ">
<polygon fill="white" stroke="#bfbfbf" points="560.5,-375 560.5,-394 609.5,-394 609.5,-375 560.5,-375"/>
<text text-anchor="middle" x="585" y="-382" font-family="Helvetica,sans-Serif" font-size="10.00">random</text>
</a>
</g>
</g>
<!-- Node1&#45;&gt;Node22 -->
<g id="edge25" class="edge">
<title>Node1&#45;&gt;Node22</title>
<path fill="none" stroke="midnightblue" d="M433.32,-440.61C469.06,-429.39 513.19,-414.84 552,-400 553.61,-399.39 555.25,-398.74 556.9,-398.07"/>
<polygon fill="midnightblue" stroke="midnightblue" points="558.43,-401.22 566.28,-394.1 555.71,-394.77 558.43,-401.22"/>
</g>
<!-- Node3 -->
<g id="node3" class="node">
<title>Node3</title>
<g id="a_node3"><a xlink:href="LinearMeasurementModel_8h.html" target="_top" xlink:title=" ">
<polygon fill="white" stroke="black" points="223,-302.5 223,-332.5 383,-332.5 383,-302.5 223,-302.5"/>
<text text-anchor="start" x="231" y="-320.5" font-family="Helvetica,sans-Serif" font-size="10.00">BayesFilters/LinearMeasurement</text>
<text text-anchor="middle" x="303" y="-309.5" font-family="Helvetica,sans-Serif" font-size="10.00">Model.h</text>
</a>
</g>
</g>
<!-- Node2&#45;&gt;Node3 -->
<g id="edge2" class="edge">
<title>Node2&#45;&gt;Node3</title>
<path fill="none" stroke="midnightblue" d="M300.65,-369.4C301.01,-361.64 301.46,-351.81 301.88,-342.86"/>
<polygon fill="midnightblue" stroke="midnightblue" points="305.39,-342.73 302.35,-332.58 298.39,-342.4 305.39,-342.73"/>
</g>
<!-- Node19 -->
<g id="node19" class="node">
<title>Node19</title>
<g id="a_node19"><a xlink:title=" ">
<polygon fill="white" stroke="#bfbfbf" points="477.5,-112.5 477.5,-131.5 550.5,-131.5 550.5,-112.5 477.5,-112.5"/>
<text text-anchor="middle" x="514" y="-119.5" font-family="Helvetica,sans-Serif" font-size="10.00">Eigen/Dense</text>
</a>
</g>
</g>
<!-- Node2&#45;&gt;Node19 -->
<g id="edge21" class="edge">
<title>Node2&#45;&gt;Node19</title>
<path fill="none" stroke="midnightblue" d="M335.71,-369.45C354.1,-360.92 375.96,-348.65 392,-333 451.85,-274.58 492.2,-180.62 507.33,-141.26"/>
<polygon fill="midnightblue" stroke="midnightblue" points="510.69,-142.28 510.93,-131.69 504.14,-139.82 510.69,-142.28"/>
</g>
<!-- Node4 -->
<g id="node4" class="node">
<title>Node4</title>
<g id="a_node4"><a xlink:href="AdditiveMeasurementModel_8h.html" target="_top" xlink:title=" ">
<polygon fill="white" stroke="black" points="220.5,-235.5 220.5,-265.5 389.5,-265.5 389.5,-235.5 220.5,-235.5"/>
<text text-anchor="start" x="228.5" y="-253.5" font-family="Helvetica,sans-Serif" font-size="10.00">BayesFilters/AdditiveMeasurement</text>
<text text-anchor="middle" x="305" y="-242.5" font-family="Helvetica,sans-Serif" font-size="10.00">Model.h</text>
</a>
</g>
</g>
<!-- Node3&#45;&gt;Node4 -->
<g id="edge3" class="edge">
<title>Node3&#45;&gt;Node4</title>
<path fill="none" stroke="midnightblue" d="M303.43,-302.4C303.67,-294.64 303.98,-284.81 304.25,-275.86"/>
<polygon fill="midnightblue" stroke="midnightblue" points="307.76,-275.68 304.57,-265.58 300.76,-275.46 307.76,-275.68"/>
</g>
<!-- Node5 -->
<g id="node5" class="node">
<title>Node5</title>
<g id="a_node5"><a xlink:href="MeasurementModel_8h.html" target="_top" xlink:title=" ">
<polygon fill="white" stroke="black" points="238,-168.5 238,-198.5 372,-198.5 372,-168.5 238,-168.5"/>
<text text-anchor="start" x="246" y="-186.5" font-family="Helvetica,sans-Serif" font-size="10.00">BayesFilters/Measurement</text>
<text text-anchor="middle" x="305" y="-175.5" font-family="Helvetica,sans-Serif" font-size="10.00">Model.h</text>
</a>
</g>
</g>
<!-- Node4&#45;&gt;Node5 -->
<g id="edge4" class="edge">
<title>Node4&#45;&gt;Node5</title>
<path fill="none" stroke="midnightblue" d="M305,-235.4C305,-227.64 305,-217.81 305,-208.86"/>
<polygon fill="midnightblue" stroke="midnightblue" points="308.5,-208.58 305,-198.58 301.5,-208.58 308.5,-208.58"/>
</g>
<!-- Node6 -->
<g id="node6" class="node">
<title>Node6</title>
<g id="a_node6"><a xlink:href="Data_8h.html" target="_top" xlink:title=" ">
<polygon fill="white" stroke="black" points="317,-112.5 317,-131.5 421,-131.5 421,-112.5 317,-112.5"/>
<text text-anchor="middle" x="369" y="-119.5" font-family="Helvetica,sans-Serif" font-size="10.00">BayesFilters/Data.h</text>
</a>
</g>
</g>
<!-- Node5&#45;&gt;Node6 -->
<g id="edge5" class="edge">
<title>Node5&#45;&gt;Node6</title>
<path fill="none" stroke="midnightblue" d="M320.17,-168.4C329.75,-159.49 342.16,-147.95 352.07,-138.74"/>
<polygon fill="midnightblue" stroke="midnightblue" points="354.75,-141.03 359.69,-131.66 349.98,-135.9 354.75,-141.03"/>
</g>
<!-- Node9 -->
<g id="node9" class="node">
<title>Node9</title>
<g id="a_node9"><a xlink:title=" ">
<polygon fill="white" stroke="#bfbfbf" points="443,-0.5 443,-19.5 495,-19.5 495,-0.5 443,-0.5"/>
<text text-anchor="middle" x="469" y="-7.5" font-family="Helvetica,sans-Serif" font-size="10.00">memory</text>
</a>
</g>
</g>
<!-- Node5&#45;&gt;Node9 -->
<g id="edge17" class="edge">
<title>Node5&#45;&gt;Node9</title>
<path fill="none" stroke="midnightblue" d="M369.27,-168.41C391.04,-160.82 413.9,-149.31 430,-132 456.85,-103.14 465.22,-55.67 467.82,-29.59"/>
<polygon fill="midnightblue" stroke="midnightblue" points="471.32,-29.8 468.64,-19.55 464.34,-29.23 471.32,-29.8"/>
</g>
<!-- Node13 -->
<g id="node13" class="node">
<title>Node13</title>
<g id="a_node13"><a xlink:href="Logger_8h.html" target="_top" xlink:title=" ">
<polygon fill="white" stroke="black" points="53.5,-112.5 53.5,-131.5 164.5,-131.5 164.5,-112.5 53.5,-112.5"/>
<text text-anchor="middle" x="109" y="-119.5" font-family="Helvetica,sans-Serif" font-size="10.00">BayesFilters/Logger.h</text>
</a>
</g>
</g>
<!-- Node5&#45;&gt;Node13 -->
<g id="edge12" class="edge">
<title>Node5&#45;&gt;Node13</title>
<path fill="none" stroke="midnightblue" d="M258.55,-168.4C224.54,-158.07 178.94,-144.23 147.07,-134.56"/>
<polygon fill="midnightblue" stroke="midnightblue" points="147.82,-131.13 137.23,-131.57 145.79,-137.82 147.82,-131.13"/>
</g>
<!-- Node5&#45;&gt;Node16 -->
<g id="edge18" class="edge">
<title>Node5&#45;&gt;Node16</title>
<path fill="none" stroke="midnightblue" d="M299.72,-168.45C293.78,-153.62 283.19,-129.95 270,-112 261.93,-101.02 251.02,-90.39 241.75,-82.23"/>
<polygon fill="midnightblue" stroke="midnightblue" points="244.01,-79.56 234.13,-75.74 239.47,-84.89 244.01,-79.56"/>
</g>
<!-- Node18 -->
<g id="node18" class="node">
<title>Node18</title>
<g id="a_node18"><a xlink:title=" ">
<polygon fill="white" stroke="#bfbfbf" points="221,-112.5 221,-131.5 261,-131.5 261,-112.5 221,-112.5"/>
<text text-anchor="middle" x="241" y="-119.5" font-family="Helvetica,sans-Serif" font-size="10.00">utility</text>
</a>
</g>
</g>
<!-- Node5&#45;&gt;Node18 -->
<g id="edge19" class="edge">
<title>Node5&#45;&gt;Node18</title>
<path fill="none" stroke="midnightblue" d="M289.83,-168.4C280.25,-159.49 267.84,-147.95 257.93,-138.74"/>
<polygon fill="midnightblue" stroke="midnightblue" points="260.02,-135.9 250.31,-131.66 255.25,-141.03 260.02,-135.9"/>
</g>
<!-- Node5&#45;&gt;Node19 -->
<g id="edge20" class="edge">
<title>Node5&#45;&gt;Node19</title>
<path fill="none" stroke="midnightblue" d="M354.27,-168.47C390.95,-158.03 440.38,-143.96 474.49,-134.25"/>
<polygon fill="midnightblue" stroke="midnightblue" points="475.46,-137.61 484.12,-131.51 473.54,-130.88 475.46,-137.61"/>
</g>
<!-- Node7 -->
<g id="node7" class="node">
<title>Node7</title>
<g id="a_node7"><a xlink:href="any_8h.html" target="_top" xlink:title=" ">
<polygon fill="white" stroke="black" points="291.5,-56.5 291.5,-75.5 388.5,-75.5 388.5,-56.5 291.5,-56.5"/>
<text text-anchor="middle" x="340" y="-63.5" font-family="Helvetica,sans-Serif" font-size="10.00">BayesFilters/any.h</text>
</a>
</g>
</g>
<!-- Node6&#45;&gt;Node7 -->
<g id="edge6" class="edge">
<title>Node6&#45;&gt;Node7</title>
<path fill="none" stroke="midnightblue" d="M364.21,-112.08C360.24,-104.69 354.47,-93.95 349.57,-84.81"/>
<polygon fill="midnightblue" stroke="midnightblue" points="352.51,-82.91 344.7,-75.75 346.35,-86.22 352.51,-82.91"/>
</g>
<!-- Node8 -->
<g id="node8" class="node">
<title>Node8</title>
<g id="a_node8"><a xlink:title=" ">
<polygon fill="white" stroke="#bfbfbf" points="142,-0.5 142,-19.5 198,-19.5 198,-0.5 142,-0.5"/>
<text text-anchor="middle" x="170" y="-7.5" font-family="Helvetica,sans-Serif" font-size="10.00">algorithm</text>
</a>
</g>
</g>
<!-- Node7&#45;&gt;Node8 -->
<g id="edge7" class="edge">
<title>Node7&#45;&gt;Node8</title>
<path fill="none" stroke="midnightblue" d="M313.06,-56.44C284.34,-47.32 238.67,-32.81 206.68,-22.65"/>
<polygon fill="midnightblue" stroke="midnightblue" points="207.4,-19.21 196.81,-19.52 205.28,-25.88 207.4,-19.21"/>
</g>
<!-- Node7&#45;&gt;Node9 -->
<g id="edge8" class="edge">
<title>Node7&#45;&gt;Node9</title>
<path fill="none" stroke="midnightblue" d="M360.44,-56.44C381.67,-47.56 415.1,-33.56 439.25,-23.45"/>
<polygon fill="midnightblue" stroke="midnightblue" points="440.78,-26.61 448.66,-19.52 438.08,-20.15 440.78,-26.61"/>
</g>
<!-- Node10 -->
<g id="node10" class="node">
<title>Node10</title>
<g id="a_node10"><a xlink:title=" ">
<polygon fill="white" stroke="#bfbfbf" points="216.5,-0.5 216.5,-19.5 275.5,-19.5 275.5,-0.5 216.5,-0.5"/>
<text text-anchor="middle" x="246" y="-7.5" font-family="Helvetica,sans-Serif" font-size="10.00">stdexcept</text>
</a>
</g>
</g>
<!-- Node7&#45;&gt;Node10 -->
<g id="edge9" class="edge">
<title>Node7&#45;&gt;Node10</title>
<path fill="none" stroke="midnightblue" d="M324.9,-56.32C310.1,-47.82 287.31,-34.73 270.02,-24.8"/>
<polygon fill="midnightblue" stroke="midnightblue" points="271.48,-21.6 261.07,-19.65 267.99,-27.67 271.48,-21.6"/>
</g>
<!-- Node11 -->
<g id="node11" class="node">
<title>Node11</title>
<g id="a_node11"><a xlink:title=" ">
<polygon fill="white" stroke="#bfbfbf" points="293.5,-0.5 293.5,-19.5 344.5,-19.5 344.5,-0.5 293.5,-0.5"/>
<text text-anchor="middle" x="319" y="-7.5" font-family="Helvetica,sans-Serif" font-size="10.00">typeinfo</text>
</a>
</g>
</g>
<!-- Node7&#45;&gt;Node11 -->
<g id="edge10" class="edge">
<title>Node7&#45;&gt;Node11</title>
<path fill="none" stroke="midnightblue" d="M336.53,-56.08C333.69,-48.77 329.57,-38.18 326.04,-29.1"/>
<polygon fill="midnightblue" stroke="midnightblue" points="329.29,-27.8 322.4,-19.75 322.77,-30.34 329.29,-27.8"/>
</g>
<!-- Node12 -->
<g id="node12" class="node">
<title>Node12</title>
<g id="a_node12"><a xlink:title=" ">
<polygon fill="white" stroke="#bfbfbf" points="363,-0.5 363,-19.5 425,-19.5 425,-0.5 363,-0.5"/>
<text text-anchor="middle" x="394" y="-7.5" font-family="Helvetica,sans-Serif" font-size="10.00">type_traits</text>
</a>
</g>
</g>
<!-- Node7&#45;&gt;Node12 -->
<g id="edge11" class="edge">
<title>Node7&#45;&gt;Node12</title>
<path fill="none" stroke="midnightblue" d="M348.92,-56.08C356.78,-48.22 368.43,-36.57 377.92,-27.08"/>
<polygon fill="midnightblue" stroke="midnightblue" points="380.65,-29.3 385.25,-19.75 375.7,-24.35 380.65,-29.3"/>
</g>
<!-- Node13&#45;&gt;Node14 -->
<g id="edge13" class="edge">
<title>Node13&#45;&gt;Node14</title>
<path fill="none" stroke="midnightblue" d="M95.5,-112.32C82.4,-103.9 62.29,-90.97 46.89,-81.07"/>
<polygon fill="midnightblue" stroke="midnightblue" points="48.77,-78.12 38.46,-75.65 44.98,-84.01 48.77,-78.12"/>
</g>
<!-- Node15 -->
<g id="node15" class="node">
<title>Node15</title>
<g id="a_node15"><a xlink:title=" ">
<polygon fill="white" stroke="#bfbfbf" points="130,-56.5 130,-75.5 184,-75.5 184,-56.5 130,-56.5"/>
<text text-anchor="middle" x="157" y="-63.5" font-family="Helvetica,sans-Serif" font-size="10.00">iostream</text>
</a>
</g>
</g>
<!-- Node13&#45;&gt;Node15 -->
<g id="edge14" class="edge">
<title>Node13&#45;&gt;Node15</title>
<path fill="none" stroke="midnightblue" d="M116.93,-112.08C123.85,-104.3 134.07,-92.8 142.45,-83.37"/>
<polygon fill="midnightblue" stroke="midnightblue" points="145.19,-85.55 149.22,-75.75 139.96,-80.9 145.19,-85.55"/>
</g>
<!-- Node13&#45;&gt;Node16 -->
<g id="edge15" class="edge">
<title>Node13&#45;&gt;Node16</title>
<path fill="none" stroke="midnightblue" d="M127.06,-112.44C145.57,-103.68 174.58,-89.94 195.86,-79.86"/>
<polygon fill="midnightblue" stroke="midnightblue" points="197.48,-82.96 205.02,-75.52 194.49,-76.63 197.48,-82.96"/>
</g>
<!-- Node17 -->
<g id="node17" class="node">
<title>Node17</title>
<g id="a_node17"><a xlink:title=" ">
<polygon fill="white" stroke="#bfbfbf" points="68,-56.5 68,-75.5 112,-75.5 112,-56.5 68,-56.5"/>
<text text-anchor="middle" x="90" y="-63.5" font-family="Helvetica,sans-Serif" font-size="10.00">vector</text>
</a>
</g>
</g>
<!-- Node13&#45;&gt;Node17 -->
<g id="edge16" class="edge">
<title>Node13&#45;&gt;Node17</title>
<path fill="none" stroke="midnightblue" d="M105.86,-112.08C103.32,-104.85 99.64,-94.41 96.47,-85.4"/>
<polygon fill="midnightblue" stroke="midnightblue" points="99.7,-84.02 93.08,-75.75 93.1,-86.35 99.7,-84.02"/>
</g>
</g>
</svg>
