<?xml version="1.0" encoding="UTF-8" standalone="no"?>
<!DOCTYPE svg PUBLIC "-//W3C//DTD SVG 1.1//EN"
 "http://www.w3.org/Graphics/SVG/1.1/DTD/svg11.dtd">
<!-- Generated by graphviz version 2.47.2 (0)
 -->
<!-- Title: /home/xenvre/robot&#45;code/bfl_robotology/src/BayesFilters/src/LinearStateModel.cpp Pages: 1 -->
<svg width="517pt" height="475pt"
 viewBox="0.00 0.00 516.50 475.00" xmlns="http://www.w3.org/2000/svg" xmlns:xlink="http://www.w3.org/1999/xlink">
<g id="graph0" class="graph" transform="scale(1 1) rotate(0) translate(4 471)">
<title>/home/xenvre/robot&#45;code/bfl_robotology/src/BayesFilters/src/LinearStateModel.cpp</title>
<polygon fill="white" stroke="transparent" points="-4,4 -4,-471 512.5,-471 512.5,4 -4,4"/>
<!-- Node1 -->
<g id="node1" class="node">
<title>Node1</title>
<g id="a_node1"><a xlink:title=" ">
<polygon fill="#bfbfbf" stroke="black" points="394.5,-414.5 394.5,-466.5 508.5,-466.5 508.5,-414.5 394.5,-414.5"/>
<text text-anchor="start" x="402.5" y="-454.5" font-family="Helvetica,sans-Serif" font-size="10.00">/home/xenvre/robot</text>
<text text-anchor="start" x="402.5" y="-443.5" font-family="Helvetica,sans-Serif" font-size="10.00">&#45;code/bfl_robotology</text>
<text text-anchor="start" x="402.5" y="-432.5" font-family="Helvetica,sans-Serif" font-size="10.00">/src/BayesFilters/src</text>
<text text-anchor="middle" x="451.5" y="-421.5" font-family="Helvetica,sans-Serif" font-size="10.00">/LinearStateModel.cpp</text>
</a>
</g>
</g>
<!-- Node2 -->
<g id="node2" class="node">
<title>Node2</title>
<g id="a_node2"><a xlink:href="LinearStateModel_8h.html" target="_top" xlink:title=" ">
<polygon fill="white" stroke="black" points="344.5,-347.5 344.5,-377.5 468.5,-377.5 468.5,-347.5 344.5,-347.5"/>
<text text-anchor="start" x="352.5" y="-365.5" font-family="Helvetica,sans-Serif" font-size="10.00">BayesFilters/LinearState</text>
<text text-anchor="middle" x="406.5" y="-354.5" font-family="Helvetica,sans-Serif" font-size="10.00">Model.h</text>
</a>
</g>
</g>
<!-- Node1&#45;&gt;Node2 -->
<g id="edge1" class="edge">
<title>Node1&#45;&gt;Node2</title>
<path fill="none" stroke="midnightblue" d="M436.52,-414.19C431.26,-405.31 425.38,-395.39 420.23,-386.69"/>
<polygon fill="midnightblue" stroke="midnightblue" points="423.1,-384.67 414.99,-377.85 417.08,-388.23 423.1,-384.67"/>
</g>
<!-- Node7 -->
<g id="node7" class="node">
<title>Node7</title>
<g id="a_node7"><a xlink:title=" ">
<polygon fill="white" stroke="#bfbfbf" points="363,-56.5 363,-75.5 436,-75.5 436,-56.5 363,-56.5"/>
<text text-anchor="middle" x="399.5" y="-63.5" font-family="Helvetica,sans-Serif" font-size="10.00">Eigen/Dense</text>
</a>
</g>
</g>
<!-- Node1&#45;&gt;Node7 -->
<g id="edge14" class="edge">
<title>Node1&#45;&gt;Node7</title>
<path fill="none" stroke="midnightblue" d="M465.09,-414.48C478.98,-386.56 498.5,-339.62 498.5,-296.5 498.5,-296.5 498.5,-296.5 498.5,-177 498.5,-146.9 498.22,-135.57 479.5,-112 468.01,-97.53 450.52,-86.94 434.82,-79.68"/>
<polygon fill="midnightblue" stroke="midnightblue" points="435.91,-76.34 425.34,-75.59 433.13,-82.77 435.91,-76.34"/>
</g>
<!-- Node3 -->
<g id="node3" class="node">
<title>Node3</title>
<g id="a_node3"><a xlink:href="AdditiveStateModel_8h.html" target="_top" xlink:title=" ">
<polygon fill="white" stroke="black" points="308,-280.5 308,-310.5 441,-310.5 441,-280.5 308,-280.5"/>
<text text-anchor="start" x="316" y="-298.5" font-family="Helvetica,sans-Serif" font-size="10.00">BayesFilters/AdditiveState</text>
<text text-anchor="middle" x="374.5" y="-287.5" font-family="Helvetica,sans-Serif" font-size="10.00">Model.h</text>
</a>
</g>
</g>
<!-- Node2&#45;&gt;Node3 -->
<g id="edge2" class="edge">
<title>Node2&#45;&gt;Node3</title>
<path fill="none" stroke="midnightblue" d="M399.56,-347.4C395.57,-339.3 390.47,-328.94 385.91,-319.69"/>
<polygon fill="midnightblue" stroke="midnightblue" points="388.99,-318 381.43,-310.58 382.71,-321.09 388.99,-318"/>
</g>
<!-- Node4 -->
<g id="node4" class="node">
<title>Node4</title>
<g id="a_node4"><a xlink:href="StateModel_8h.html" target="_top" xlink:title=" ">
<polygon fill="white" stroke="black" points="279.5,-224.5 279.5,-243.5 411.5,-243.5 411.5,-224.5 279.5,-224.5"/>
<text text-anchor="middle" x="345.5" y="-231.5" font-family="Helvetica,sans-Serif" font-size="10.00">BayesFilters/StateModel.h</text>
</a>
</g>
</g>
<!-- Node3&#45;&gt;Node4 -->
<g id="edge3" class="edge">
<title>Node3&#45;&gt;Node4</title>
<path fill="none" stroke="midnightblue" d="M367.63,-280.4C363.59,-272.11 358.44,-261.55 354.13,-252.71"/>
<polygon fill="midnightblue" stroke="midnightblue" points="357.25,-251.11 349.72,-243.66 350.95,-254.18 357.25,-251.11"/>
</g>
<!-- Node5 -->
<g id="node5" class="node">
<title>Node5</title>
<g id="a_node5"><a xlink:href="ExogenousModel_8h.html" target="_top" xlink:title=" ">
<polygon fill="white" stroke="black" points="143.5,-168.5 143.5,-187.5 301.5,-187.5 301.5,-168.5 143.5,-168.5"/>
<text text-anchor="middle" x="222.5" y="-175.5" font-family="Helvetica,sans-Serif" font-size="10.00">BayesFilters/ExogenousModel.h</text>
</a>
</g>
</g>
<!-- Node4&#45;&gt;Node5 -->
<g id="edge4" class="edge">
<title>Node4&#45;&gt;Node5</title>
<path fill="none" stroke="midnightblue" d="M326.01,-224.44C305.86,-215.6 274.18,-201.69 251.17,-191.59"/>
<polygon fill="midnightblue" stroke="midnightblue" points="252.46,-188.33 241.9,-187.52 249.65,-194.74 252.46,-188.33"/>
</g>
<!-- Node8 -->
<g id="node8" class="node">
<title>Node8</title>
<g id="a_node8"><a xlink:href="Skippable_8h.html" target="_top" xlink:title=" ">
<polygon fill="white" stroke="black" points="0,-112.5 0,-131.5 125,-131.5 125,-112.5 0,-112.5"/>
<text text-anchor="middle" x="62.5" y="-119.5" font-family="Helvetica,sans-Serif" font-size="10.00">BayesFilters/Skippable.h</text>
</a>
</g>
</g>
<!-- Node4&#45;&gt;Node8 -->
<g id="edge10" class="edge">
<title>Node4&#45;&gt;Node8</title>
<path fill="none" stroke="midnightblue" d="M279.3,-227.82C236.16,-222.34 179.7,-211.09 134.5,-188 111.18,-176.09 89.63,-154.67 76.3,-139.68"/>
<polygon fill="midnightblue" stroke="midnightblue" points="78.63,-137.02 69.45,-131.73 73.32,-141.59 78.63,-137.02"/>
</g>
<!-- Node11 -->
<g id="node11" class="node">
<title>Node11</title>
<g id="a_node11"><a xlink:href="StateProcess_8h.html" target="_top" xlink:title=" ">
<polygon fill="white" stroke="black" points="328.5,-112.5 328.5,-131.5 470.5,-131.5 470.5,-112.5 328.5,-112.5"/>
<text text-anchor="middle" x="399.5" y="-119.5" font-family="Helvetica,sans-Serif" font-size="10.00">BayesFilters/StateProcess.h</text>
</a>
</g>
</g>
<!-- Node4&#45;&gt;Node11 -->
<g id="edge11" class="edge">
<title>Node4&#45;&gt;Node11</title>
<path fill="none" stroke="midnightblue" d="M353.83,-224.39C361.72,-215.8 373.38,-201.92 380.5,-188 388.03,-173.28 393.02,-155.12 395.99,-141.74"/>
<polygon fill="midnightblue" stroke="midnightblue" points="399.44,-142.3 398.02,-131.8 392.59,-140.9 399.44,-142.3"/>
</g>
<!-- Node12 -->
<g id="node12" class="node">
<title>Node12</title>
<g id="a_node12"><a xlink:title=" ">
<polygon fill="white" stroke="#bfbfbf" points="319.5,-168.5 319.5,-187.5 371.5,-187.5 371.5,-168.5 319.5,-168.5"/>
<text text-anchor="middle" x="345.5" y="-175.5" font-family="Helvetica,sans-Serif" font-size="10.00">memory</text>
</a>
</g>
</g>
<!-- Node4&#45;&gt;Node12 -->
<g id="edge13" class="edge">
<title>Node4&#45;&gt;Node12</title>
<path fill="none" stroke="midnightblue" d="M345.5,-224.08C345.5,-217.01 345.5,-206.86 345.5,-197.99"/>
<polygon fill="midnightblue" stroke="midnightblue" points="349,-197.75 345.5,-187.75 342,-197.75 349,-197.75"/>
</g>
<!-- Node6 -->
<g id="node6" class="node">
<title>Node6</title>
<g id="a_node6"><a xlink:href="ExogenousProcess_8h.html" target="_top" xlink:title=" ">
<polygon fill="white" stroke="black" points="143,-112.5 143,-131.5 310,-131.5 310,-112.5 143,-112.5"/>
<text text-anchor="middle" x="226.5" y="-119.5" font-family="Helvetica,sans-Serif" font-size="10.00">BayesFilters/ExogenousProcess.h</text>
</a>
</g>
</g>
<!-- Node5&#45;&gt;Node6 -->
<g id="edge5" class="edge">
<title>Node5&#45;&gt;Node6</title>
<path fill="none" stroke="midnightblue" d="M223.16,-168.08C223.68,-161.01 224.44,-150.86 225.09,-141.99"/>
<polygon fill="midnightblue" stroke="midnightblue" points="228.6,-141.98 225.85,-131.75 221.62,-141.47 228.6,-141.98"/>
</g>
<!-- Node5&#45;&gt;Node8 -->
<g id="edge7" class="edge">
<title>Node5&#45;&gt;Node8</title>
<path fill="none" stroke="midnightblue" d="M197.15,-168.44C170.23,-159.36 127.5,-144.94 97.41,-134.78"/>
<polygon fill="midnightblue" stroke="midnightblue" points="98.33,-131.4 87.73,-131.52 96.09,-138.03 98.33,-131.4"/>
</g>
<!-- Node6&#45;&gt;Node7 -->
<g id="edge6" class="edge">
<title>Node6&#45;&gt;Node7</title>
<path fill="none" stroke="midnightblue" d="M253.91,-112.44C283.27,-103.28 330.02,-88.69 362.6,-78.52"/>
<polygon fill="midnightblue" stroke="midnightblue" points="363.71,-81.84 372.22,-75.52 361.63,-75.16 363.71,-81.84"/>
</g>
<!-- Node9 -->
<g id="node9" class="node">
<title>Node9</title>
<g id="a_node9"><a xlink:href="Skipper_8h.html" target="_top" xlink:title=" ">
<polygon fill="white" stroke="black" points="5,-56.5 5,-75.5 120,-75.5 120,-56.5 5,-56.5"/>
<text text-anchor="middle" x="62.5" y="-63.5" font-family="Helvetica,sans-Serif" font-size="10.00">BayesFilters/Skipper.h</text>
</a>
</g>
</g>
<!-- Node8&#45;&gt;Node9 -->
<g id="edge8" class="edge">
<title>Node8&#45;&gt;Node9</title>
<path fill="none" stroke="midnightblue" d="M62.5,-112.08C62.5,-105.01 62.5,-94.86 62.5,-85.99"/>
<polygon fill="midnightblue" stroke="midnightblue" points="66,-85.75 62.5,-75.75 59,-85.75 66,-85.75"/>
</g>
<!-- Node10 -->
<g id="node10" class="node">
<title>Node10</title>
<g id="a_node10"><a xlink:title=" ">
<polygon fill="white" stroke="#bfbfbf" points="42,-0.5 42,-19.5 83,-19.5 83,-0.5 42,-0.5"/>
<text text-anchor="middle" x="62.5" y="-7.5" font-family="Helvetica,sans-Serif" font-size="10.00">string</text>
</a>
</g>
</g>
<!-- Node9&#45;&gt;Node10 -->
<g id="edge9" class="edge">
<title>Node9&#45;&gt;Node10</title>
<path fill="none" stroke="midnightblue" d="M62.5,-56.08C62.5,-49.01 62.5,-38.86 62.5,-29.99"/>
<polygon fill="midnightblue" stroke="midnightblue" points="66,-29.75 62.5,-19.75 59,-29.75 66,-29.75"/>
</g>
<!-- Node11&#45;&gt;Node7 -->
<g id="edge12" class="edge">
<title>Node11&#45;&gt;Node7</title>
<path fill="none" stroke="midnightblue" d="M399.5,-112.08C399.5,-105.01 399.5,-94.86 399.5,-85.99"/>
<polygon fill="midnightblue" stroke="midnightblue" points="403,-85.75 399.5,-75.75 396,-85.75 403,-85.75"/>
</g>
</g>
</svg>
