<?xml version="1.0" encoding="UTF-8" standalone="no"?>
<!DOCTYPE svg PUBLIC "-//W3C//DTD SVG 1.1//EN"
 "http://www.w3.org/Graphics/SVG/1.1/DTD/svg11.dtd">
<!-- Generated by graphviz version 2.43.0 (0)
 -->
<!-- Title: /home/user/bayes&#45;filters&#45;lib/src/BayesFilters/src/LinearStateModel.cpp Pages: 1 -->
<!--zoomable 464 -->
<svg id="main" version="1.1" xmlns="http://www.w3.org/2000/svg" xmlns:xlink="http://www.w3.org/1999/xlink" xml:space="preserve" onload="init(evt)">
<style type="text/css"><![CDATA[
.edge:hover path { stroke: red; }
.edge:hover polygon { stroke: red; fill: red; }
]]></style>
<script type="text/javascript"><![CDATA[
var edges = document.getElementsByTagName('g');
if (edges && edges.length) {
  for (var i=0;i<edges.length;i++) {
    if (edges[i].id.substr(0,4)=='edge') {
      edges[i].setAttribute('class','edge');
    }
  }
}
]]></script>
        <defs>
                <circle id="rim" cx="0" cy="0" r="7"/>
                <circle id="rim2" cx="0" cy="0" r="3.5"/>
                <g id="zoomPlus">
                        <use xlink:href="#rim" fill="#404040">
                                <set attributeName="fill" to="#808080" begin="zoomplus.mouseover" end="zoomplus.mouseout"/>
                        </use>
                        <path d="M-4,0h8M0,-4v8" fill="none" stroke="white" stroke-width="1.5" pointer-events="none"/>
                </g>
                <g id="zoomMin">
                        <use xlink:href="#rim" fill="#404040">
                                <set attributeName="fill" to="#808080" begin="zoomminus.mouseover" end="zoomminus.mouseout"/>
                        </use>
                        <path d="M-4,0h8" fill="none" stroke="white" stroke-width="1.5" pointer-events="none"/>
                </g>
                <g id="dirArrow">
                        <path fill="none" stroke="white" stroke-width="1.5" d="M0,-3.0v7 M-2.5,-0.5L0,-3.0L2.5,-0.5"/>
                </g>
               <g id="resetDef">
                       <use xlink:href="#rim2" fill="#404040">
                               <set attributeName="fill" to="#808080" begin="reset.mouseover" end="reset.mouseout"/>
                       </use>
               </g>
        </defs>

<script type="text/javascript">
var viewWidth = 562;
var viewHeight = 464;
var sectionId = 'dynsection-0';
</script>
<script xlink:href="svgpan.js"/>
<svg id="graph" class="graph">
<g id="viewport">
<title>/home/user/bayes&#45;filters&#45;lib/src/BayesFilters/src/LinearStateModel.cpp</title>
<polygon fill="white" stroke="transparent" points="-4,4 -4,-460 558.38,-460 558.38,4 -4,4"/>
<!-- Node1 -->
<g id="node1" class="node">
<title>Node1</title>
<g id="a_node1"><a xlink:title=" ">
<polygon fill="#bfbfbf" stroke="black" points="285.88,-414.5 285.88,-455.5 420.88,-455.5 420.88,-414.5 285.88,-414.5"/>
<text text-anchor="start" x="293.88" y="-443.5" font-family="Helvetica,sans-Serif" font-size="10.00">/home/user/bayes&#45;filters</text>
<text text-anchor="start" x="293.88" y="-432.5" font-family="Helvetica,sans-Serif" font-size="10.00">&#45;lib/src/BayesFilters/src</text>
<text text-anchor="middle" x="353.38" y="-421.5" font-family="Helvetica,sans-Serif" font-size="10.00">/LinearStateModel.cpp</text>
</a>
</g>
</g>
<!-- Node2 -->
<g id="node2" class="node">
<title>Node2</title>
<g id="a_node2"><a xlink:href="LinearStateModel_8h.html" target="_top" xlink:title=" ">
<polygon fill="white" stroke="black" points="237.88,-347.5 237.88,-377.5 372.88,-377.5 372.88,-347.5 237.88,-347.5"/>
<text text-anchor="start" x="245.88" y="-365.5" font-family="Helvetica,sans-Serif" font-size="10.00">BayesFilters/LinearState</text>
<text text-anchor="middle" x="305.38" y="-354.5" font-family="Helvetica,sans-Serif" font-size="10.00">Model.h</text>
</a>
</g>
</g>
<!-- Node1&#45;&gt;Node2 -->
<g id="edge1" class="edge">
<title>Node1&#45;&gt;Node2</title>
<path fill="none" stroke="midnightblue" d="M340.01,-414.36C334.1,-405.68 327.11,-395.42 320.97,-386.4"/>
<polygon fill="midnightblue" stroke="midnightblue" points="323.7,-384.19 315.18,-377.89 317.91,-388.13 323.7,-384.19"/>
</g>
<!-- Node9 -->
<g id="node9" class="node">
<title>Node9</title>
<g id="a_node9"><a xlink:title=" ">
<polygon fill="white" stroke="#bfbfbf" points="411.88,-56.5 411.88,-75.5 488.88,-75.5 488.88,-56.5 411.88,-56.5"/>
<text text-anchor="middle" x="450.38" y="-63.5" font-family="Helvetica,sans-Serif" font-size="10.00">Eigen/Dense</text>
</a>
</g>
</g>
<!-- Node1&#45;&gt;Node9 -->
<g id="edge18" class="edge">
<title>Node1&#45;&gt;Node9</title>
<path fill="none" stroke="midnightblue" d="M421.15,-417.73C479.5,-399.2 554.38,-362.56 554.38,-296.5 554.38,-296.5 554.38,-296.5 554.38,-177 554.38,-146.9 554.4,-135.32 535.38,-112 523.29,-97.18 505.01,-86.61 488.49,-79.46"/>
<polygon fill="midnightblue" stroke="midnightblue" points="489.61,-76.14 479.03,-75.64 486.99,-82.63 489.61,-76.14"/>
</g>
<!-- Node3 -->
<g id="node3" class="node">
<title>Node3</title>
<g id="a_node3"><a xlink:href="AdditiveStateModel_8h.html" target="_top" xlink:title=" ">
<polygon fill="white" stroke="black" points="114.38,-280.5 114.38,-310.5 260.38,-310.5 260.38,-280.5 114.38,-280.5"/>
<text text-anchor="start" x="122.38" y="-298.5" font-family="Helvetica,sans-Serif" font-size="10.00">BayesFilters/AdditiveState</text>
<text text-anchor="middle" x="187.38" y="-287.5" font-family="Helvetica,sans-Serif" font-size="10.00">Model.h</text>
</a>
</g>
</g>
<!-- Node2&#45;&gt;Node3 -->
<g id="edge2" class="edge">
<title>Node2&#45;&gt;Node3</title>
<path fill="none" stroke="midnightblue" d="M279.77,-347.4C262.84,-338.07 240.44,-325.73 221.93,-315.53"/>
<polygon fill="midnightblue" stroke="midnightblue" points="223.38,-312.34 212.93,-310.58 220,-318.47 223.38,-312.34"/>
</g>
<!-- Node4 -->
<g id="node4" class="node">
<title>Node4</title>
<g id="a_node4"><a xlink:href="StateModel_8h.html" target="_top" xlink:title=" ">
<polygon fill="white" stroke="black" points="115.38,-224.5 115.38,-243.5 259.38,-243.5 259.38,-224.5 115.38,-224.5"/>
<text text-anchor="middle" x="187.38" y="-231.5" font-family="Helvetica,sans-Serif" font-size="10.00">BayesFilters/StateModel.h</text>
</a>
</g>
</g>
<!-- Node3&#45;&gt;Node4 -->
<g id="edge3" class="edge">
<title>Node3&#45;&gt;Node4</title>
<path fill="none" stroke="midnightblue" d="M187.38,-280.4C187.38,-272.47 187.38,-262.46 187.38,-253.86"/>
<polygon fill="midnightblue" stroke="midnightblue" points="190.88,-253.66 187.38,-243.66 183.88,-253.66 190.88,-253.66"/>
</g>
<!-- Node7 -->
<g id="node7" class="node">
<title>Node7</title>
<g id="a_node7"><a xlink:href="VectorDescription_8h.html" target="_top" xlink:title=" ">
<polygon fill="white" stroke="black" points="178.88,-56.5 178.88,-75.5 353.88,-75.5 353.88,-56.5 178.88,-56.5"/>
<text text-anchor="middle" x="266.38" y="-63.5" font-family="Helvetica,sans-Serif" font-size="10.00">BayesFilters/VectorDescription.h</text>
</a>
</g>
</g>
<!-- Node3&#45;&gt;Node7 -->
<g id="edge17" class="edge">
<title>Node3&#45;&gt;Node7</title>
<path fill="none" stroke="midnightblue" d="M155.09,-280.42C90.89,-250.54 -42.01,-178.11 13.38,-112 24.28,-98.98 111.72,-85.53 180.79,-76.77"/>
<polygon fill="midnightblue" stroke="midnightblue" points="181.34,-80.22 190.83,-75.51 180.47,-73.28 181.34,-80.22"/>
</g>
<!-- Node5 -->
<g id="node5" class="node">
<title>Node5</title>
<g id="a_node5"><a xlink:href="ExogenousModel_8h.html" target="_top" xlink:title=" ">
<polygon fill="white" stroke="black" points="158.88,-168.5 158.88,-187.5 329.88,-187.5 329.88,-168.5 158.88,-168.5"/>
<text text-anchor="middle" x="244.38" y="-175.5" font-family="Helvetica,sans-Serif" font-size="10.00">BayesFilters/ExogenousModel.h</text>
</a>
</g>
</g>
<!-- Node4&#45;&gt;Node5 -->
<g id="edge4" class="edge">
<title>Node4&#45;&gt;Node5</title>
<path fill="none" stroke="midnightblue" d="M196.54,-224.32C204.88,-216.42 217.41,-204.55 227.55,-194.94"/>
<polygon fill="midnightblue" stroke="midnightblue" points="230.2,-197.25 235.05,-187.83 225.39,-192.17 230.2,-197.25"/>
</g>
<!-- Node10 -->
<g id="node10" class="node">
<title>Node10</title>
<g id="a_node10"><a xlink:href="Skippable_8h.html" target="_top" xlink:title=" ">
<polygon fill="white" stroke="black" points="21.88,-112.5 21.88,-131.5 158.88,-131.5 158.88,-112.5 21.88,-112.5"/>
<text text-anchor="middle" x="90.38" y="-119.5" font-family="Helvetica,sans-Serif" font-size="10.00">BayesFilters/Skippable.h</text>
</a>
</g>
</g>
<!-- Node4&#45;&gt;Node10 -->
<g id="edge12" class="edge">
<title>Node4&#45;&gt;Node10</title>
<path fill="none" stroke="midnightblue" d="M179.77,-224.37C163.62,-206.05 125.69,-163.05 104.81,-139.36"/>
<polygon fill="midnightblue" stroke="midnightblue" points="107.19,-136.78 97.95,-131.59 101.94,-141.41 107.19,-136.78"/>
</g>
<!-- Node13 -->
<g id="node13" class="node">
<title>Node13</title>
<g id="a_node13"><a xlink:href="StateProcess_8h.html" target="_top" xlink:title=" ">
<polygon fill="white" stroke="black" points="374.38,-112.5 374.38,-131.5 526.38,-131.5 526.38,-112.5 374.38,-112.5"/>
<text text-anchor="middle" x="450.38" y="-119.5" font-family="Helvetica,sans-Serif" font-size="10.00">BayesFilters/StateProcess.h</text>
</a>
</g>
</g>
<!-- Node4&#45;&gt;Node13 -->
<g id="edge13" class="edge">
<title>Node4&#45;&gt;Node13</title>
<path fill="none" stroke="midnightblue" d="M225.44,-224.45C256.74,-216.79 301.88,-204.25 339.38,-188 372.37,-173.71 407.77,-151.68 429.49,-137.31"/>
<polygon fill="midnightblue" stroke="midnightblue" points="431.56,-140.13 437.92,-131.66 427.67,-134.32 431.56,-140.13"/>
</g>
<!-- Node14 -->
<g id="node14" class="node">
<title>Node14</title>
<g id="a_node14"><a xlink:title=" ">
<polygon fill="white" stroke="#bfbfbf" points="44.38,-168.5 44.38,-187.5 102.38,-187.5 102.38,-168.5 44.38,-168.5"/>
<text text-anchor="middle" x="73.38" y="-175.5" font-family="Helvetica,sans-Serif" font-size="10.00">memory</text>
</a>
</g>
</g>
<!-- Node4&#45;&gt;Node14 -->
<g id="edge16" class="edge">
<title>Node4&#45;&gt;Node14</title>
<path fill="none" stroke="midnightblue" d="M169.31,-224.44C150.8,-215.68 121.8,-201.94 100.52,-191.86"/>
<polygon fill="midnightblue" stroke="midnightblue" points="101.89,-188.63 91.36,-187.52 98.9,-194.96 101.89,-188.63"/>
</g>
<!-- Node6 -->
<g id="node6" class="node">
<title>Node6</title>
<g id="a_node6"><a xlink:href="ExogenousProcess_8h.html" target="_top" xlink:title=" ">
<polygon fill="white" stroke="black" points="176.88,-112.5 176.88,-131.5 355.88,-131.5 355.88,-112.5 176.88,-112.5"/>
<text text-anchor="middle" x="266.38" y="-119.5" font-family="Helvetica,sans-Serif" font-size="10.00">BayesFilters/ExogenousProcess.h</text>
</a>
</g>
</g>
<!-- Node5&#45;&gt;Node6 -->
<g id="edge5" class="edge">
<title>Node5&#45;&gt;Node6</title>
<path fill="none" stroke="midnightblue" d="M248.01,-168.08C250.99,-160.77 255.3,-150.18 259,-141.1"/>
<polygon fill="midnightblue" stroke="midnightblue" points="262.28,-142.33 262.81,-131.75 255.8,-139.69 262.28,-142.33"/>
</g>
<!-- Node5&#45;&gt;Node10 -->
<g id="edge9" class="edge">
<title>Node5&#45;&gt;Node10</title>
<path fill="none" stroke="midnightblue" d="M219.98,-168.44C194.18,-159.4 153.3,-145.06 124.36,-134.92"/>
<polygon fill="midnightblue" stroke="midnightblue" points="125.26,-131.52 114.66,-131.52 122.94,-138.13 125.26,-131.52"/>
</g>
<!-- Node6&#45;&gt;Node7 -->
<g id="edge6" class="edge">
<title>Node6&#45;&gt;Node7</title>
<path fill="none" stroke="midnightblue" d="M266.38,-112.08C266.38,-105.01 266.38,-94.86 266.38,-85.99"/>
<polygon fill="midnightblue" stroke="midnightblue" points="269.88,-85.75 266.38,-75.75 262.88,-85.75 269.88,-85.75"/>
</g>
<!-- Node6&#45;&gt;Node9 -->
<g id="edge8" class="edge">
<title>Node6&#45;&gt;Node9</title>
<path fill="none" stroke="midnightblue" d="M295.53,-112.44C326.89,-103.24 376.91,-88.56 411.57,-78.39"/>
<polygon fill="midnightblue" stroke="midnightblue" points="412.75,-81.69 421.36,-75.52 410.78,-74.97 412.75,-81.69"/>
</g>
<!-- Node8 -->
<g id="node8" class="node">
<title>Node8</title>
<g id="a_node8"><a xlink:title=" ">
<polygon fill="white" stroke="#bfbfbf" points="239.88,-0.5 239.88,-19.5 292.88,-19.5 292.88,-0.5 239.88,-0.5"/>
<text text-anchor="middle" x="266.38" y="-7.5" font-family="Helvetica,sans-Serif" font-size="10.00">cstddef</text>
</a>
</g>
</g>
<!-- Node7&#45;&gt;Node8 -->
<g id="edge7" class="edge">
<title>Node7&#45;&gt;Node8</title>
<path fill="none" stroke="midnightblue" d="M266.38,-56.08C266.38,-49.01 266.38,-38.86 266.38,-29.99"/>
<polygon fill="midnightblue" stroke="midnightblue" points="269.88,-29.75 266.38,-19.75 262.88,-29.75 269.88,-29.75"/>
</g>
<!-- Node11 -->
<g id="node11" class="node">
<title>Node11</title>
<g id="a_node11"><a xlink:href="Skipper_8h.html" target="_top" xlink:title=" ">
<polygon fill="white" stroke="black" points="27.88,-56.5 27.88,-75.5 152.88,-75.5 152.88,-56.5 27.88,-56.5"/>
<text text-anchor="middle" x="90.38" y="-63.5" font-family="Helvetica,sans-Serif" font-size="10.00">BayesFilters/Skipper.h</text>
</a>
</g>
</g>
<!-- Node10&#45;&gt;Node11 -->
<g id="edge10" class="edge">
<title>Node10&#45;&gt;Node11</title>
<path fill="none" stroke="midnightblue" d="M90.38,-112.08C90.38,-105.01 90.38,-94.86 90.38,-85.99"/>
<polygon fill="midnightblue" stroke="midnightblue" points="93.88,-85.75 90.38,-75.75 86.88,-85.75 93.88,-85.75"/>
</g>
<!-- Node12 -->
<g id="node12" class="node">
<title>Node12</title>
<g id="a_node12"><a xlink:title=" ">
<polygon fill="white" stroke="#bfbfbf" points="68.38,-0.5 68.38,-19.5 112.38,-19.5 112.38,-0.5 68.38,-0.5"/>
<text text-anchor="middle" x="90.38" y="-7.5" font-family="Helvetica,sans-Serif" font-size="10.00">string</text>
</a>
</g>
</g>
<!-- Node11&#45;&gt;Node12 -->
<g id="edge11" class="edge">
<title>Node11&#45;&gt;Node12</title>
<path fill="none" stroke="midnightblue" d="M90.38,-56.08C90.38,-49.01 90.38,-38.86 90.38,-29.99"/>
<polygon fill="midnightblue" stroke="midnightblue" points="93.88,-29.75 90.38,-19.75 86.88,-29.75 93.88,-29.75"/>
</g>
<!-- Node13&#45;&gt;Node7 -->
<g id="edge14" class="edge">
<title>Node13&#45;&gt;Node7</title>
<path fill="none" stroke="midnightblue" d="M421.22,-112.44C389.86,-103.24 339.85,-88.56 305.18,-78.39"/>
<polygon fill="midnightblue" stroke="midnightblue" points="305.98,-74.97 295.4,-75.52 304.01,-81.69 305.98,-74.97"/>
</g>
<!-- Node13&#45;&gt;Node9 -->
<g id="edge15" class="edge">
<title>Node13&#45;&gt;Node9</title>
<path fill="none" stroke="midnightblue" d="M450.38,-112.08C450.38,-105.01 450.38,-94.86 450.38,-85.99"/>
<polygon fill="midnightblue" stroke="midnightblue" points="453.88,-85.75 450.38,-75.75 446.88,-85.75 453.88,-85.75"/>
</g>
</g>
</svg>
        <g id="navigator" transform="translate(0 0)" fill="#404254">
                <rect fill="#f2f5e9" fill-opacity="0.5" stroke="#606060" stroke-width=".5" x="0" y="0" width="60" height="60"/>
                <use id="zoomplus" xlink:href="#zoomPlus" x="17" y="9" onmousedown="handleZoom(evt,'in')"/>
                <use id="zoomminus" xlink:href="#zoomMin" x="42" y="9" onmousedown="handleZoom(evt,'out')"/>
                <use id="reset" xlink:href="#resetDef" x="30" y="36" onmousedown="handleReset()"/>
                <g id="arrowUp" xlink:href="#dirArrow" transform="translate(30 24)" onmousedown="handlePan(0,-1)">
                  <use xlink:href="#rim" fill="#404040">
                        <set attributeName="fill" to="#808080" begin="arrowUp.mouseover" end="arrowUp.mouseout"/>
                  </use>
                  <path fill="none" stroke="white" stroke-width="1.5" d="M0,-3.0v7 M-2.5,-0.5L0,-3.0L2.5,-0.5"/>
                </g>
                <g id="arrowRight" xlink:href="#dirArrow" transform="rotate(90) translate(36 -43)" onmousedown="handlePan(1,0)">
                  <use xlink:href="#rim" fill="#404040">
                        <set attributeName="fill" to="#808080" begin="arrowRight.mouseover" end="arrowRight.mouseout"/>
                  </use>
                  <path fill="none" stroke="white" stroke-width="1.5" d="M0,-3.0v7 M-2.5,-0.5L0,-3.0L2.5,-0.5"/>
                </g>
                <g id="arrowDown" xlink:href="#dirArrow" transform="rotate(180) translate(-30 -48)" onmousedown="handlePan(0,1)">
                  <use xlink:href="#rim" fill="#404040">
                        <set attributeName="fill" to="#808080" begin="arrowDown.mouseover" end="arrowDown.mouseout"/>
                  </use>
                  <path fill="none" stroke="white" stroke-width="1.5" d="M0,-3.0v7 M-2.5,-0.5L0,-3.0L2.5,-0.5"/>
                </g>
                <g id="arrowLeft" xlink:href="#dirArrow" transform="rotate(270) translate(-36 17)" onmousedown="handlePan(-1,0)">
                  <use xlink:href="#rim" fill="#404040">
                        <set attributeName="fill" to="#808080" begin="arrowLeft.mouseover" end="arrowLeft.mouseout"/>
                  </use>
                  <path fill="none" stroke="white" stroke-width="1.5" d="M0,-3.0v7 M-2.5,-0.5L0,-3.0L2.5,-0.5"/>
                </g>
        </g>
        <svg viewBox="0 0 15 15" width="100%" height="30px" preserveAspectRatio="xMaxYMin meet">
         <g id="arrow_out" transform="scale(0.3 0.3)">
          <a xlink:href="LinearStateModel_8cpp__incl_org.svg" target="_base">
           <rect id="button" ry="5" rx="5" y="6" x="6" height="38" width="38"
                fill="#f2f5e9" fill-opacity="0.5" stroke="#606060" stroke-width="1.0"/>
           <path id="arrow"
             d="M 11.500037,31.436501 C 11.940474,20.09759 22.043105,11.32322 32.158766,21.979434 L 37.068811,17.246167 C 37.068811,17.246167 37.088388,32 37.088388,32 L 22.160133,31.978069 C 22.160133,31.978069 26.997745,27.140456 26.997745,27.140456 C 18.528582,18.264221 13.291696,25.230495 11.500037,31.436501 z"
             style="fill:#404040;"/>
          </a>
         </g>
        </svg>
</svg>
