<?xml version="1.0" encoding="UTF-8" standalone="no"?>
<!DOCTYPE svg PUBLIC "-//W3C//DTD SVG 1.1//EN"
 "http://www.w3.org/Graphics/SVG/1.1/DTD/svg11.dtd">
<!-- Generated by graphviz version 2.43.0 (0)
 -->
<!-- Title: /home/user/bayes&#45;filters&#45;lib/src/BayesFilters/src/LinearModel.cpp Pages: 1 -->
<svg width="1056pt" height="542pt"
 viewBox="0.00 0.00 1056.00 542.00" xmlns="http://www.w3.org/2000/svg" xmlns:xlink="http://www.w3.org/1999/xlink">
<g id="graph0" class="graph" transform="scale(1 1) rotate(0) translate(4 538)">
<title>/home/user/bayes&#45;filters&#45;lib/src/BayesFilters/src/LinearModel.cpp</title>
<polygon fill="white" stroke="transparent" points="-4,4 -4,-538 1052,-538 1052,4 -4,4"/>
<!-- Node1 -->
<g id="node1" class="node">
<title>Node1</title>
<g id="a_node1"><a xlink:title=" ">
<polygon fill="#bfbfbf" stroke="black" points="796,-492.5 796,-533.5 931,-533.5 931,-492.5 796,-492.5"/>
<text text-anchor="start" x="804" y="-521.5" font-family="Helvetica,sans-Serif" font-size="10.00">/home/user/bayes&#45;filters</text>
<text text-anchor="start" x="804" y="-510.5" font-family="Helvetica,sans-Serif" font-size="10.00">&#45;lib/src/BayesFilters/src</text>
<text text-anchor="middle" x="863.5" y="-499.5" font-family="Helvetica,sans-Serif" font-size="10.00">/LinearModel.cpp</text>
</a>
</g>
</g>
<!-- Node2 -->
<g id="node2" class="node">
<title>Node2</title>
<g id="a_node2"><a xlink:href="LinearModel_8h.html" target="_top" xlink:title=" ">
<polygon fill="white" stroke="black" points="618,-436.5 618,-455.5 767,-455.5 767,-436.5 618,-436.5"/>
<text text-anchor="middle" x="692.5" y="-443.5" font-family="Helvetica,sans-Serif" font-size="10.00">BayesFilters/LinearModel.h</text>
</a>
</g>
</g>
<!-- Node1&#45;&gt;Node2 -->
<g id="edge1" class="edge">
<title>Node1&#45;&gt;Node2</title>
<path fill="none" stroke="midnightblue" d="M812.19,-492.5C783.83,-481.72 749.46,-468.65 724.84,-459.29"/>
<polygon fill="midnightblue" stroke="midnightblue" points="725.85,-455.93 715.26,-455.65 723.37,-462.48 725.85,-455.93"/>
</g>
<!-- Node16 -->
<g id="node16" class="node">
<title>Node16</title>
<g id="a_node16"><a xlink:title=" ">
<polygon fill="white" stroke="#bfbfbf" points="823.5,-56.5 823.5,-75.5 883.5,-75.5 883.5,-56.5 823.5,-56.5"/>
<text text-anchor="middle" x="853.5" y="-63.5" font-family="Helvetica,sans-Serif" font-size="10.00">iostream</text>
</a>
</g>
</g>
<!-- Node1&#45;&gt;Node16 -->
<g id="edge31" class="edge">
<title>Node1&#45;&gt;Node16</title>
<path fill="none" stroke="midnightblue" d="M863.5,-492.28C863.5,-467.39 863.5,-423.27 863.5,-385.5 863.5,-385.5 863.5,-385.5 863.5,-182.5 863.5,-148.24 859.08,-108.47 856.11,-85.67"/>
<polygon fill="midnightblue" stroke="midnightblue" points="859.57,-85.11 854.77,-75.67 852.64,-86.05 859.57,-85.11"/>
</g>
<!-- Node21 -->
<g id="node21" class="node">
<title>Node21</title>
<g id="a_node21"><a xlink:title=" ">
<polygon fill="white" stroke="#bfbfbf" points="0,-112.5 0,-131.5 45,-131.5 45,-112.5 0,-112.5"/>
<text text-anchor="middle" x="22.5" y="-119.5" font-family="Helvetica,sans-Serif" font-size="10.00">utility</text>
</a>
</g>
</g>
<!-- Node1&#45;&gt;Node21 -->
<g id="edge32" class="edge">
<title>Node1&#45;&gt;Node21</title>
<path fill="none" stroke="midnightblue" d="M795.98,-508.18C605.81,-496.54 79.5,-457.8 79.5,-385.5 79.5,-385.5 79.5,-385.5 79.5,-249.5 79.5,-206.97 52.39,-162.93 35.56,-139.7"/>
<polygon fill="midnightblue" stroke="midnightblue" points="38.29,-137.5 29.49,-131.6 32.68,-141.7 38.29,-137.5"/>
</g>
<!-- Node26 -->
<g id="node26" class="node">
<title>Node26</title>
<g id="a_node26"><a xlink:title=" ">
<polygon fill="white" stroke="#bfbfbf" points="892,-436.5 892,-455.5 939,-455.5 939,-436.5 892,-436.5"/>
<text text-anchor="middle" x="915.5" y="-443.5" font-family="Helvetica,sans-Serif" font-size="10.00">cmath</text>
</a>
</g>
</g>
<!-- Node1&#45;&gt;Node26 -->
<g id="edge30" class="edge">
<title>Node1&#45;&gt;Node26</title>
<path fill="none" stroke="midnightblue" d="M879.1,-492.5C886.46,-483.3 895.15,-472.44 902.19,-463.63"/>
<polygon fill="midnightblue" stroke="midnightblue" points="905.06,-465.65 908.58,-455.65 899.6,-461.27 905.06,-465.65"/>
</g>
<!-- Node27 -->
<g id="node27" class="node">
<title>Node27</title>
<g id="a_node27"><a xlink:title=" ">
<polygon fill="white" stroke="#bfbfbf" points="957,-436.5 957,-455.5 1048,-455.5 1048,-436.5 957,-436.5"/>
<text text-anchor="middle" x="1002.5" y="-443.5" font-family="Helvetica,sans-Serif" font-size="10.00">Eigen/Cholesky</text>
</a>
</g>
</g>
<!-- Node1&#45;&gt;Node27 -->
<g id="edge33" class="edge">
<title>Node1&#45;&gt;Node27</title>
<path fill="none" stroke="midnightblue" d="M905.2,-492.5C927.75,-481.96 954.96,-469.23 974.86,-459.92"/>
<polygon fill="midnightblue" stroke="midnightblue" points="976.42,-463.06 984,-455.65 973.46,-456.72 976.42,-463.06"/>
</g>
<!-- Node3 -->
<g id="node3" class="node">
<title>Node3</title>
<g id="a_node3"><a xlink:href="LTIMeasurementModel_8h.html" target="_top" xlink:title=" ">
<polygon fill="white" stroke="black" points="327,-369.5 327,-399.5 488,-399.5 488,-369.5 327,-369.5"/>
<text text-anchor="start" x="335" y="-387.5" font-family="Helvetica,sans-Serif" font-size="10.00">BayesFilters/LTIMeasurement</text>
<text text-anchor="middle" x="407.5" y="-376.5" font-family="Helvetica,sans-Serif" font-size="10.00">Model.h</text>
</a>
</g>
</g>
<!-- Node2&#45;&gt;Node3 -->
<g id="edge2" class="edge">
<title>Node2&#45;&gt;Node3</title>
<path fill="none" stroke="midnightblue" d="M651.67,-436.48C608.2,-427.4 538.39,-412.83 484.53,-401.58"/>
<polygon fill="midnightblue" stroke="midnightblue" points="485.17,-398.14 474.67,-399.52 483.74,-404.99 485.17,-398.14"/>
</g>
<!-- Node15 -->
<g id="node15" class="node">
<title>Node15</title>
<g id="a_node15"><a xlink:title=" ">
<polygon fill="white" stroke="#bfbfbf" points="741,-56.5 741,-75.5 796,-75.5 796,-56.5 741,-56.5"/>
<text text-anchor="middle" x="768.5" y="-63.5" font-family="Helvetica,sans-Serif" font-size="10.00">fstream</text>
</a>
</g>
</g>
<!-- Node2&#45;&gt;Node15 -->
<g id="edge26" class="edge">
<title>Node2&#45;&gt;Node15</title>
<path fill="none" stroke="midnightblue" d="M741.87,-436.44C764.59,-430.06 790.1,-419.01 806.5,-400 830.8,-371.84 825.5,-355.69 825.5,-318.5 825.5,-318.5 825.5,-318.5 825.5,-182.5 825.5,-143.78 799.43,-104.6 782.55,-83.3"/>
<polygon fill="midnightblue" stroke="midnightblue" points="785.24,-81.06 776.19,-75.56 779.83,-85.51 785.24,-81.06"/>
</g>
<!-- Node17 -->
<g id="node17" class="node">
<title>Node17</title>
<g id="a_node17"><a xlink:title=" ">
<polygon fill="white" stroke="#bfbfbf" points="545.5,-56.5 545.5,-75.5 589.5,-75.5 589.5,-56.5 545.5,-56.5"/>
<text text-anchor="middle" x="567.5" y="-63.5" font-family="Helvetica,sans-Serif" font-size="10.00">string</text>
</a>
</g>
</g>
<!-- Node2&#45;&gt;Node17 -->
<g id="edge29" class="edge">
<title>Node2&#45;&gt;Node17</title>
<path fill="none" stroke="midnightblue" d="M617.83,-439.02C592.3,-432.98 566.23,-421.49 550.5,-400 478.21,-301.26 536.91,-138.51 559.55,-84.8"/>
<polygon fill="midnightblue" stroke="midnightblue" points="562.79,-86.14 563.55,-75.57 556.36,-83.36 562.79,-86.14"/>
</g>
<!-- Node23 -->
<g id="node23" class="node">
<title>Node23</title>
<g id="a_node23"><a xlink:title=" ">
<polygon fill="white" stroke="#bfbfbf" points="559,-375 559,-394 642,-394 642,-375 559,-375"/>
<text text-anchor="middle" x="600.5" y="-382" font-family="Helvetica,sans-Serif" font-size="10.00">initializer_list</text>
</a>
</g>
</g>
<!-- Node2&#45;&gt;Node23 -->
<g id="edge25" class="edge">
<title>Node2&#45;&gt;Node23</title>
<path fill="none" stroke="midnightblue" d="M679.32,-436.48C664.43,-426.84 639.96,-411.02 622.23,-399.55"/>
<polygon fill="midnightblue" stroke="midnightblue" points="623.95,-396.5 613.66,-394.01 620.15,-402.38 623.95,-396.5"/>
</g>
<!-- Node24 -->
<g id="node24" class="node">
<title>Node24</title>
<g id="a_node24"><a xlink:title=" ">
<polygon fill="white" stroke="#bfbfbf" points="660,-375 660,-394 725,-394 725,-375 660,-375"/>
<text text-anchor="middle" x="692.5" y="-382" font-family="Helvetica,sans-Serif" font-size="10.00">functional</text>
</a>
</g>
</g>
<!-- Node2&#45;&gt;Node24 -->
<g id="edge27" class="edge">
<title>Node2&#45;&gt;Node24</title>
<path fill="none" stroke="midnightblue" d="M692.5,-436.48C692.5,-428.08 692.5,-414.98 692.5,-404.16"/>
<polygon fill="midnightblue" stroke="midnightblue" points="696,-404.01 692.5,-394.01 689,-404.01 696,-404.01"/>
</g>
<!-- Node25 -->
<g id="node25" class="node">
<title>Node25</title>
<g id="a_node25"><a xlink:title=" ">
<polygon fill="white" stroke="#bfbfbf" points="743.5,-375 743.5,-394 797.5,-394 797.5,-375 743.5,-375"/>
<text text-anchor="middle" x="770.5" y="-382" font-family="Helvetica,sans-Serif" font-size="10.00">random</text>
</a>
</g>
</g>
<!-- Node2&#45;&gt;Node25 -->
<g id="edge28" class="edge">
<title>Node2&#45;&gt;Node25</title>
<path fill="none" stroke="midnightblue" d="M703.68,-436.48C716.07,-427.02 736.29,-411.6 751.25,-400.19"/>
<polygon fill="midnightblue" stroke="midnightblue" points="753.52,-402.86 759.35,-394.01 749.27,-397.29 753.52,-402.86"/>
</g>
<!-- Node4 -->
<g id="node4" class="node">
<title>Node4</title>
<g id="a_node4"><a xlink:href="LinearMeasurementModel_8h.html" target="_top" xlink:title=" ">
<polygon fill="white" stroke="black" points="319,-302.5 319,-332.5 496,-332.5 496,-302.5 319,-302.5"/>
<text text-anchor="start" x="327" y="-320.5" font-family="Helvetica,sans-Serif" font-size="10.00">BayesFilters/LinearMeasurement</text>
<text text-anchor="middle" x="407.5" y="-309.5" font-family="Helvetica,sans-Serif" font-size="10.00">Model.h</text>
</a>
</g>
</g>
<!-- Node3&#45;&gt;Node4 -->
<g id="edge3" class="edge">
<title>Node3&#45;&gt;Node4</title>
<path fill="none" stroke="midnightblue" d="M407.5,-369.4C407.5,-361.64 407.5,-351.81 407.5,-342.86"/>
<polygon fill="midnightblue" stroke="midnightblue" points="411,-342.58 407.5,-332.58 404,-342.58 411,-342.58"/>
</g>
<!-- Node22 -->
<g id="node22" class="node">
<title>Node22</title>
<g id="a_node22"><a xlink:title=" ">
<polygon fill="white" stroke="#bfbfbf" points="63,-112.5 63,-131.5 140,-131.5 140,-112.5 63,-112.5"/>
<text text-anchor="middle" x="101.5" y="-119.5" font-family="Helvetica,sans-Serif" font-size="10.00">Eigen/Dense</text>
</a>
</g>
</g>
<!-- Node3&#45;&gt;Node22 -->
<g id="edge24" class="edge">
<title>Node3&#45;&gt;Node22</title>
<path fill="none" stroke="midnightblue" d="M374.59,-369.47C355.09,-360.41 330.39,-347.62 310.5,-333 227.24,-271.8 145.95,-177.33 114.81,-139.49"/>
<polygon fill="midnightblue" stroke="midnightblue" points="117.35,-137.07 108.31,-131.53 111.92,-141.49 117.35,-137.07"/>
</g>
<!-- Node5 -->
<g id="node5" class="node">
<title>Node5</title>
<g id="a_node5"><a xlink:href="AdditiveMeasurementModel_8h.html" target="_top" xlink:title=" ">
<polygon fill="white" stroke="black" points="313.5,-235.5 313.5,-265.5 501.5,-265.5 501.5,-235.5 313.5,-235.5"/>
<text text-anchor="start" x="321.5" y="-253.5" font-family="Helvetica,sans-Serif" font-size="10.00">BayesFilters/AdditiveMeasurement</text>
<text text-anchor="middle" x="407.5" y="-242.5" font-family="Helvetica,sans-Serif" font-size="10.00">Model.h</text>
</a>
</g>
</g>
<!-- Node4&#45;&gt;Node5 -->
<g id="edge4" class="edge">
<title>Node4&#45;&gt;Node5</title>
<path fill="none" stroke="midnightblue" d="M407.5,-302.4C407.5,-294.64 407.5,-284.81 407.5,-275.86"/>
<polygon fill="midnightblue" stroke="midnightblue" points="411,-275.58 407.5,-265.58 404,-275.58 411,-275.58"/>
</g>
<!-- Node6 -->
<g id="node6" class="node">
<title>Node6</title>
<g id="a_node6"><a xlink:href="MeasurementModel_8h.html" target="_top" xlink:title=" ">
<polygon fill="white" stroke="black" points="334,-168.5 334,-198.5 481,-198.5 481,-168.5 334,-168.5"/>
<text text-anchor="start" x="342" y="-186.5" font-family="Helvetica,sans-Serif" font-size="10.00">BayesFilters/Measurement</text>
<text text-anchor="middle" x="407.5" y="-175.5" font-family="Helvetica,sans-Serif" font-size="10.00">Model.h</text>
</a>
</g>
</g>
<!-- Node5&#45;&gt;Node6 -->
<g id="edge5" class="edge">
<title>Node5&#45;&gt;Node6</title>
<path fill="none" stroke="midnightblue" d="M407.5,-235.4C407.5,-227.64 407.5,-217.81 407.5,-208.86"/>
<polygon fill="midnightblue" stroke="midnightblue" points="411,-208.58 407.5,-198.58 404,-208.58 411,-208.58"/>
</g>
<!-- Node7 -->
<g id="node7" class="node">
<title>Node7</title>
<g id="a_node7"><a xlink:href="Data_8h.html" target="_top" xlink:title=" ">
<polygon fill="white" stroke="black" points="351.5,-112.5 351.5,-131.5 463.5,-131.5 463.5,-112.5 351.5,-112.5"/>
<text text-anchor="middle" x="407.5" y="-119.5" font-family="Helvetica,sans-Serif" font-size="10.00">BayesFilters/Data.h</text>
</a>
</g>
</g>
<!-- Node6&#45;&gt;Node7 -->
<g id="edge6" class="edge">
<title>Node6&#45;&gt;Node7</title>
<path fill="none" stroke="midnightblue" d="M407.5,-168.4C407.5,-160.47 407.5,-150.46 407.5,-141.86"/>
<polygon fill="midnightblue" stroke="midnightblue" points="411,-141.66 407.5,-131.66 404,-141.66 411,-141.66"/>
</g>
<!-- Node10 -->
<g id="node10" class="node">
<title>Node10</title>
<g id="a_node10"><a xlink:title=" ">
<polygon fill="white" stroke="#bfbfbf" points="482.5,-0.5 482.5,-19.5 540.5,-19.5 540.5,-0.5 482.5,-0.5"/>
<text text-anchor="middle" x="511.5" y="-7.5" font-family="Helvetica,sans-Serif" font-size="10.00">memory</text>
</a>
</g>
</g>
<!-- Node6&#45;&gt;Node10 -->
<g id="edge20" class="edge">
<title>Node6&#45;&gt;Node10</title>
<path fill="none" stroke="midnightblue" d="M432.13,-168.49C445.76,-159.61 462.01,-146.98 472.5,-132 494.79,-100.18 504.87,-54.9 508.99,-29.73"/>
<polygon fill="midnightblue" stroke="midnightblue" points="512.47,-30.1 510.48,-19.69 505.55,-29.07 512.47,-30.1"/>
</g>
<!-- Node14 -->
<g id="node14" class="node">
<title>Node14</title>
<g id="a_node14"><a xlink:href="Logger_8h.html" target="_top" xlink:title=" ">
<polygon fill="white" stroke="black" points="620,-112.5 620,-131.5 741,-131.5 741,-112.5 620,-112.5"/>
<text text-anchor="middle" x="680.5" y="-119.5" font-family="Helvetica,sans-Serif" font-size="10.00">BayesFilters/Logger.h</text>
</a>
</g>
</g>
<!-- Node6&#45;&gt;Node14 -->
<g id="edge13" class="edge">
<title>Node6&#45;&gt;Node14</title>
<path fill="none" stroke="midnightblue" d="M471.85,-168.47C520.7,-157.83 586.84,-143.41 631.46,-133.69"/>
<polygon fill="midnightblue" stroke="midnightblue" points="632.45,-137.06 641.47,-131.51 630.95,-130.22 632.45,-137.06"/>
</g>
<!-- Node6&#45;&gt;Node17 -->
<g id="edge21" class="edge">
<title>Node6&#45;&gt;Node17</title>
<path fill="none" stroke="midnightblue" d="M441.33,-168.47C461,-159.5 485.73,-146.79 505.5,-132 524.32,-117.92 542.47,-97.89 554.22,-83.79"/>
<polygon fill="midnightblue" stroke="midnightblue" points="557.05,-85.86 560.65,-75.89 551.62,-81.44 557.05,-85.86"/>
</g>
<!-- Node19 -->
<g id="node19" class="node">
<title>Node19</title>
<g id="a_node19"><a xlink:href="VectorDescription_8h.html" target="_top" xlink:title=" ">
<polygon fill="white" stroke="black" points="158,-112.5 158,-131.5 333,-131.5 333,-112.5 158,-112.5"/>
<text text-anchor="middle" x="245.5" y="-119.5" font-family="Helvetica,sans-Serif" font-size="10.00">BayesFilters/VectorDescription.h</text>
</a>
</g>
</g>
<!-- Node6&#45;&gt;Node19 -->
<g id="edge18" class="edge">
<title>Node6&#45;&gt;Node19</title>
<path fill="none" stroke="midnightblue" d="M369.11,-168.4C341.56,-158.28 304.83,-144.79 278.58,-135.15"/>
<polygon fill="midnightblue" stroke="midnightblue" points="279.67,-131.82 269.07,-131.66 277.25,-138.39 279.67,-131.82"/>
</g>
<!-- Node6&#45;&gt;Node21 -->
<g id="edge22" class="edge">
<title>Node6&#45;&gt;Node21</title>
<path fill="none" stroke="midnightblue" d="M333.74,-175.04C264.01,-167.3 156.37,-153.54 54.89,-132.06"/>
<polygon fill="midnightblue" stroke="midnightblue" points="55.6,-128.63 45.09,-129.96 54.14,-135.48 55.6,-128.63"/>
</g>
<!-- Node6&#45;&gt;Node22 -->
<g id="edge23" class="edge">
<title>Node6&#45;&gt;Node22</title>
<path fill="none" stroke="midnightblue" d="M335.37,-168.47C278.17,-157.35 199.82,-142.12 149.92,-132.42"/>
<polygon fill="midnightblue" stroke="midnightblue" points="150.52,-128.97 140.03,-130.49 149.18,-135.84 150.52,-128.97"/>
</g>
<!-- Node8 -->
<g id="node8" class="node">
<title>Node8</title>
<g id="a_node8"><a xlink:href="any_8h.html" target="_top" xlink:title=" ">
<polygon fill="white" stroke="black" points="335,-56.5 335,-75.5 440,-75.5 440,-56.5 335,-56.5"/>
<text text-anchor="middle" x="387.5" y="-63.5" font-family="Helvetica,sans-Serif" font-size="10.00">BayesFilters/any.h</text>
</a>
</g>
</g>
<!-- Node7&#45;&gt;Node8 -->
<g id="edge7" class="edge">
<title>Node7&#45;&gt;Node8</title>
<path fill="none" stroke="midnightblue" d="M404.2,-112.08C401.52,-104.85 397.65,-94.41 394.31,-85.4"/>
<polygon fill="midnightblue" stroke="midnightblue" points="397.5,-83.91 390.74,-75.75 390.93,-86.34 397.5,-83.91"/>
</g>
<!-- Node9 -->
<g id="node9" class="node">
<title>Node9</title>
<g id="a_node9"><a xlink:title=" ">
<polygon fill="white" stroke="#bfbfbf" points="316.5,-0.5 316.5,-19.5 380.5,-19.5 380.5,-0.5 316.5,-0.5"/>
<text text-anchor="middle" x="348.5" y="-7.5" font-family="Helvetica,sans-Serif" font-size="10.00">algorithm</text>
</a>
</g>
</g>
<!-- Node8&#45;&gt;Node9 -->
<g id="edge8" class="edge">
<title>Node8&#45;&gt;Node9</title>
<path fill="none" stroke="midnightblue" d="M381.06,-56.08C375.55,-48.46 367.47,-37.26 360.74,-27.94"/>
<polygon fill="midnightblue" stroke="midnightblue" points="363.51,-25.81 354.82,-19.75 357.84,-29.91 363.51,-25.81"/>
</g>
<!-- Node8&#45;&gt;Node10 -->
<g id="edge9" class="edge">
<title>Node8&#45;&gt;Node10</title>
<path fill="none" stroke="midnightblue" d="M407.15,-56.44C427.46,-47.6 459.4,-33.69 482.6,-23.59"/>
<polygon fill="midnightblue" stroke="midnightblue" points="484.17,-26.72 491.94,-19.52 481.38,-20.3 484.17,-26.72"/>
</g>
<!-- Node11 -->
<g id="node11" class="node">
<title>Node11</title>
<g id="a_node11"><a xlink:title=" ">
<polygon fill="white" stroke="#bfbfbf" points="399,-0.5 399,-19.5 464,-19.5 464,-0.5 399,-0.5"/>
<text text-anchor="middle" x="431.5" y="-7.5" font-family="Helvetica,sans-Serif" font-size="10.00">stdexcept</text>
</a>
</g>
</g>
<!-- Node8&#45;&gt;Node11 -->
<g id="edge10" class="edge">
<title>Node8&#45;&gt;Node11</title>
<path fill="none" stroke="midnightblue" d="M394.77,-56.08C401.04,-48.38 410.29,-37.03 417.93,-27.65"/>
<polygon fill="midnightblue" stroke="midnightblue" points="420.77,-29.71 424.37,-19.75 415.34,-25.29 420.77,-29.71"/>
</g>
<!-- Node12 -->
<g id="node12" class="node">
<title>Node12</title>
<g id="a_node12"><a xlink:title=" ">
<polygon fill="white" stroke="#bfbfbf" points="154,-0.5 154,-19.5 211,-19.5 211,-0.5 154,-0.5"/>
<text text-anchor="middle" x="182.5" y="-7.5" font-family="Helvetica,sans-Serif" font-size="10.00">typeinfo</text>
</a>
</g>
</g>
<!-- Node8&#45;&gt;Node12 -->
<g id="edge11" class="edge">
<title>Node8&#45;&gt;Node12</title>
<path fill="none" stroke="midnightblue" d="M355.02,-56.44C318.64,-46.86 259.73,-31.34 221.05,-21.15"/>
<polygon fill="midnightblue" stroke="midnightblue" points="221.75,-17.72 211.19,-18.56 219.97,-24.49 221.75,-17.72"/>
</g>
<!-- Node13 -->
<g id="node13" class="node">
<title>Node13</title>
<g id="a_node13"><a xlink:title=" ">
<polygon fill="white" stroke="#bfbfbf" points="229,-0.5 229,-19.5 298,-19.5 298,-0.5 229,-0.5"/>
<text text-anchor="middle" x="263.5" y="-7.5" font-family="Helvetica,sans-Serif" font-size="10.00">type_traits</text>
</a>
</g>
</g>
<!-- Node8&#45;&gt;Node13 -->
<g id="edge12" class="edge">
<title>Node8&#45;&gt;Node13</title>
<path fill="none" stroke="midnightblue" d="M367.85,-56.44C347.54,-47.6 315.6,-33.69 292.4,-23.59"/>
<polygon fill="midnightblue" stroke="midnightblue" points="293.62,-20.3 283.06,-19.52 290.83,-26.72 293.62,-20.3"/>
</g>
<!-- Node14&#45;&gt;Node15 -->
<g id="edge14" class="edge">
<title>Node14&#45;&gt;Node15</title>
<path fill="none" stroke="midnightblue" d="M694.64,-112.32C708.37,-103.9 729.44,-90.97 745.56,-81.07"/>
<polygon fill="midnightblue" stroke="midnightblue" points="747.7,-83.87 754.4,-75.65 744.04,-77.9 747.7,-83.87"/>
</g>
<!-- Node14&#45;&gt;Node16 -->
<g id="edge15" class="edge">
<title>Node14&#45;&gt;Node16</title>
<path fill="none" stroke="midnightblue" d="M707.91,-112.44C737.27,-103.28 784.02,-88.69 816.6,-78.52"/>
<polygon fill="midnightblue" stroke="midnightblue" points="817.71,-81.84 826.22,-75.52 815.63,-75.16 817.71,-81.84"/>
</g>
<!-- Node14&#45;&gt;Node17 -->
<g id="edge16" class="edge">
<title>Node14&#45;&gt;Node17</title>
<path fill="none" stroke="midnightblue" d="M662.59,-112.44C644.25,-103.68 615.49,-89.94 594.41,-79.86"/>
<polygon fill="midnightblue" stroke="midnightblue" points="595.85,-76.67 585.32,-75.52 592.83,-82.99 595.85,-76.67"/>
</g>
<!-- Node18 -->
<g id="node18" class="node">
<title>Node18</title>
<g id="a_node18"><a xlink:title=" ">
<polygon fill="white" stroke="#bfbfbf" points="657,-56.5 657,-75.5 704,-75.5 704,-56.5 657,-56.5"/>
<text text-anchor="middle" x="680.5" y="-63.5" font-family="Helvetica,sans-Serif" font-size="10.00">vector</text>
</a>
</g>
</g>
<!-- Node14&#45;&gt;Node18 -->
<g id="edge17" class="edge">
<title>Node14&#45;&gt;Node18</title>
<path fill="none" stroke="midnightblue" d="M680.5,-112.08C680.5,-105.01 680.5,-94.86 680.5,-85.99"/>
<polygon fill="midnightblue" stroke="midnightblue" points="684,-85.75 680.5,-75.75 677,-85.75 684,-85.75"/>
</g>
<!-- Node20 -->
<g id="node20" class="node">
<title>Node20</title>
<g id="a_node20"><a xlink:title=" ">
<polygon fill="white" stroke="#bfbfbf" points="219,-56.5 219,-75.5 272,-75.5 272,-56.5 219,-56.5"/>
<text text-anchor="middle" x="245.5" y="-63.5" font-family="Helvetica,sans-Serif" font-size="10.00">cstddef</text>
</a>
</g>
</g>
<!-- Node19&#45;&gt;Node20 -->
<g id="edge19" class="edge">
<title>Node19&#45;&gt;Node20</title>
<path fill="none" stroke="midnightblue" d="M245.5,-112.08C245.5,-105.01 245.5,-94.86 245.5,-85.99"/>
<polygon fill="midnightblue" stroke="midnightblue" points="249,-85.75 245.5,-75.75 242,-85.75 249,-85.75"/>
</g>
</g>
</svg>
