<?xml version="1.0" encoding="UTF-8" standalone="no"?>
<!DOCTYPE svg PUBLIC "-//W3C//DTD SVG 1.1//EN"
 "http://www.w3.org/Graphics/SVG/1.1/DTD/svg11.dtd">
<!-- Generated by graphviz version 2.43.0 (0)
 -->
<!-- Title: /home/user/bayes&#45;filters&#45;lib/src/BayesFilters/include/BayesFilters/LinearMeasurementModel.h Pages: 1 -->
<svg width="569pt" height="362pt"
 viewBox="0.00 0.00 569.00 362.00" xmlns="http://www.w3.org/2000/svg" xmlns:xlink="http://www.w3.org/1999/xlink">
<g id="graph0" class="graph" transform="scale(1 1) rotate(0) translate(4 358)">
<title>/home/user/bayes&#45;filters&#45;lib/src/BayesFilters/include/BayesFilters/LinearMeasurementModel.h</title>
<polygon fill="white" stroke="transparent" points="-4,4 -4,-358 565,-358 565,4 -4,4"/>
<!-- Node1 -->
<g id="node1" class="node">
<title>Node1</title>
<g id="a_node1"><a xlink:title=" ">
<polygon fill="#bfbfbf" stroke="black" points="165,-312.5 165,-353.5 384,-353.5 384,-312.5 165,-312.5"/>
<text text-anchor="start" x="173" y="-341.5" font-family="Helvetica,sans-Serif" font-size="10.00">/home/user/bayes&#45;filters</text>
<text text-anchor="start" x="173" y="-330.5" font-family="Helvetica,sans-Serif" font-size="10.00">&#45;lib/src/BayesFilters/include</text>
<text text-anchor="middle" x="274.5" y="-319.5" font-family="Helvetica,sans-Serif" font-size="10.00">/BayesFilters/LinearMeasurementModel.h</text>
</a>
</g>
</g>
<!-- Node2 -->
<g id="node2" class="node">
<title>Node2</title>
<g id="a_node2"><a xlink:href="KFCorrection_8h.html" target="_top" xlink:title=" ">
<polygon fill="white" stroke="black" points="0,-234.5 0,-275.5 155,-275.5 155,-234.5 0,-234.5"/>
<text text-anchor="start" x="8" y="-263.5" font-family="Helvetica,sans-Serif" font-size="10.00">/home/user/bayes&#45;filters</text>
<text text-anchor="start" x="8" y="-252.5" font-family="Helvetica,sans-Serif" font-size="10.00">&#45;lib/src/BayesFilters/include</text>
<text text-anchor="middle" x="77.5" y="-241.5" font-family="Helvetica,sans-Serif" font-size="10.00">/BayesFilters/KFCorrection.h</text>
</a>
</g>
</g>
<!-- Node1&#45;&gt;Node2 -->
<g id="edge1" class="edge">
<title>Node1&#45;&gt;Node2</title>
<path fill="none" stroke="midnightblue" d="M214.23,-308.75C186.65,-298.11 154.34,-285.65 128.06,-275.51"/>
<polygon fill="midnightblue" stroke="midnightblue" points="213.18,-312.09 223.77,-312.43 215.7,-305.56 213.18,-312.09"/>
</g>
<!-- Node4 -->
<g id="node4" class="node">
<title>Node4</title>
<g id="a_node4"><a xlink:href="LTIMeasurementModel_8h.html" target="_top" xlink:title=" ">
<polygon fill="white" stroke="black" points="173,-234.5 173,-275.5 376,-275.5 376,-234.5 173,-234.5"/>
<text text-anchor="start" x="181" y="-263.5" font-family="Helvetica,sans-Serif" font-size="10.00">/home/user/bayes&#45;filters</text>
<text text-anchor="start" x="181" y="-252.5" font-family="Helvetica,sans-Serif" font-size="10.00">&#45;lib/src/BayesFilters/include</text>
<text text-anchor="middle" x="274.5" y="-241.5" font-family="Helvetica,sans-Serif" font-size="10.00">/BayesFilters/LTIMeasurementModel.h</text>
</a>
</g>
</g>
<!-- Node1&#45;&gt;Node4 -->
<g id="edge3" class="edge">
<title>Node1&#45;&gt;Node4</title>
<path fill="none" stroke="midnightblue" d="M274.5,-302.3C274.5,-293.3 274.5,-283.65 274.5,-275.51"/>
<polygon fill="midnightblue" stroke="midnightblue" points="271,-302.43 274.5,-312.43 278,-302.43 271,-302.43"/>
</g>
<!-- Node10 -->
<g id="node10" class="node">
<title>Node10</title>
<g id="a_node10"><a xlink:href="LinearMeasurementModel_8cpp.html" target="_top" xlink:title=" ">
<polygon fill="white" stroke="black" points="394,-234.5 394,-275.5 561,-275.5 561,-234.5 394,-234.5"/>
<text text-anchor="start" x="402" y="-263.5" font-family="Helvetica,sans-Serif" font-size="10.00">/home/user/bayes&#45;filters</text>
<text text-anchor="start" x="402" y="-252.5" font-family="Helvetica,sans-Serif" font-size="10.00">&#45;lib/src/BayesFilters/src</text>
<text text-anchor="middle" x="477.5" y="-241.5" font-family="Helvetica,sans-Serif" font-size="10.00">/LinearMeasurementModel.cpp</text>
</a>
</g>
</g>
<!-- Node1&#45;&gt;Node10 -->
<g id="edge9" class="edge">
<title>Node1&#45;&gt;Node10</title>
<path fill="none" stroke="midnightblue" d="M336.24,-308.89C364.73,-298.22 398.2,-285.69 425.4,-275.51"/>
<polygon fill="midnightblue" stroke="midnightblue" points="334.92,-305.64 326.78,-312.43 337.37,-312.2 334.92,-305.64"/>
</g>
<!-- Node3 -->
<g id="node3" class="node">
<title>Node3</title>
<g id="a_node3"><a xlink:href="KFCorrection_8cpp.html" target="_top" xlink:title=" ">
<polygon fill="white" stroke="black" points="10,-156.5 10,-197.5 145,-197.5 145,-156.5 10,-156.5"/>
<text text-anchor="start" x="18" y="-185.5" font-family="Helvetica,sans-Serif" font-size="10.00">/home/user/bayes&#45;filters</text>
<text text-anchor="start" x="18" y="-174.5" font-family="Helvetica,sans-Serif" font-size="10.00">&#45;lib/src/BayesFilters/src</text>
<text text-anchor="middle" x="77.5" y="-163.5" font-family="Helvetica,sans-Serif" font-size="10.00">/KFCorrection.cpp</text>
</a>
</g>
</g>
<!-- Node2&#45;&gt;Node3 -->
<g id="edge2" class="edge">
<title>Node2&#45;&gt;Node3</title>
<path fill="none" stroke="midnightblue" d="M77.5,-224.3C77.5,-215.3 77.5,-205.65 77.5,-197.51"/>
<polygon fill="midnightblue" stroke="midnightblue" points="74,-224.43 77.5,-234.43 81,-224.43 74,-224.43"/>
</g>
<!-- Node5 -->
<g id="node5" class="node">
<title>Node5</title>
<g id="a_node5"><a xlink:href="LinearModel_8h.html" target="_top" xlink:title=" ">
<polygon fill="white" stroke="black" points="180.5,-156.5 180.5,-197.5 332.5,-197.5 332.5,-156.5 180.5,-156.5"/>
<text text-anchor="start" x="188.5" y="-185.5" font-family="Helvetica,sans-Serif" font-size="10.00">/home/user/bayes&#45;filters</text>
<text text-anchor="start" x="188.5" y="-174.5" font-family="Helvetica,sans-Serif" font-size="10.00">&#45;lib/src/BayesFilters/include</text>
<text text-anchor="middle" x="256.5" y="-163.5" font-family="Helvetica,sans-Serif" font-size="10.00">/BayesFilters/LinearModel.h</text>
</a>
</g>
</g>
<!-- Node4&#45;&gt;Node5 -->
<g id="edge4" class="edge">
<title>Node4&#45;&gt;Node5</title>
<path fill="none" stroke="midnightblue" d="M267.53,-224.59C265.38,-215.51 263.07,-205.74 261.12,-197.51"/>
<polygon fill="midnightblue" stroke="midnightblue" points="264.15,-225.5 269.86,-234.43 270.97,-223.89 264.15,-225.5"/>
</g>
<!-- Node9 -->
<g id="node9" class="node">
<title>Node9</title>
<g id="a_node9"><a xlink:href="LTIMeasurementModel_8cpp.html" target="_top" xlink:title=" ">
<polygon fill="white" stroke="black" points="351,-156.5 351,-197.5 502,-197.5 502,-156.5 351,-156.5"/>
<text text-anchor="start" x="359" y="-185.5" font-family="Helvetica,sans-Serif" font-size="10.00">/home/user/bayes&#45;filters</text>
<text text-anchor="start" x="359" y="-174.5" font-family="Helvetica,sans-Serif" font-size="10.00">&#45;lib/src/BayesFilters/src</text>
<text text-anchor="middle" x="426.5" y="-163.5" font-family="Helvetica,sans-Serif" font-size="10.00">/LTIMeasurementModel.cpp</text>
</a>
</g>
</g>
<!-- Node4&#45;&gt;Node9 -->
<g id="edge8" class="edge">
<title>Node4&#45;&gt;Node9</title>
<path fill="none" stroke="midnightblue" d="M322.68,-229.91C343.58,-219.46 367.74,-207.38 387.49,-197.51"/>
<polygon fill="midnightblue" stroke="midnightblue" points="321.02,-226.83 313.64,-234.43 324.15,-233.09 321.02,-226.83"/>
</g>
<!-- Node6 -->
<g id="node6" class="node">
<title>Node6</title>
<g id="a_node6"><a xlink:href="SimulatedLinearSensor_8h.html" target="_top" xlink:title=" ">
<polygon fill="white" stroke="black" points="62,-78.5 62,-119.5 265,-119.5 265,-78.5 62,-78.5"/>
<text text-anchor="start" x="70" y="-107.5" font-family="Helvetica,sans-Serif" font-size="10.00">/home/user/bayes&#45;filters</text>
<text text-anchor="start" x="70" y="-96.5" font-family="Helvetica,sans-Serif" font-size="10.00">&#45;lib/src/BayesFilters/include</text>
<text text-anchor="middle" x="163.5" y="-85.5" font-family="Helvetica,sans-Serif" font-size="10.00">/BayesFilters/SimulatedLinearSensor.h</text>
</a>
</g>
</g>
<!-- Node5&#45;&gt;Node6 -->
<g id="edge5" class="edge">
<title>Node5&#45;&gt;Node6</title>
<path fill="none" stroke="midnightblue" d="M224.76,-150.06C212.52,-140.06 198.75,-128.8 187.37,-119.51"/>
<polygon fill="midnightblue" stroke="midnightblue" points="222.59,-152.81 232.55,-156.43 227.02,-147.39 222.59,-152.81"/>
</g>
<!-- Node8 -->
<g id="node8" class="node">
<title>Node8</title>
<g id="a_node8"><a xlink:href="LinearModel_8cpp.html" target="_top" xlink:title=" ">
<polygon fill="white" stroke="black" points="283,-78.5 283,-119.5 418,-119.5 418,-78.5 283,-78.5"/>
<text text-anchor="start" x="291" y="-107.5" font-family="Helvetica,sans-Serif" font-size="10.00">/home/user/bayes&#45;filters</text>
<text text-anchor="start" x="291" y="-96.5" font-family="Helvetica,sans-Serif" font-size="10.00">&#45;lib/src/BayesFilters/src</text>
<text text-anchor="middle" x="350.5" y="-85.5" font-family="Helvetica,sans-Serif" font-size="10.00">/LinearModel.cpp</text>
</a>
</g>
</g>
<!-- Node5&#45;&gt;Node8 -->
<g id="edge7" class="edge">
<title>Node5&#45;&gt;Node8</title>
<path fill="none" stroke="midnightblue" d="M288.58,-150.06C300.96,-140.06 314.87,-128.8 326.37,-119.51"/>
<polygon fill="midnightblue" stroke="midnightblue" points="286.28,-147.42 280.71,-156.43 290.68,-152.86 286.28,-147.42"/>
</g>
<!-- Node7 -->
<g id="node7" class="node">
<title>Node7</title>
<g id="a_node7"><a xlink:href="SimulatedLinearSensor_8cpp.html" target="_top" xlink:title=" ">
<polygon fill="white" stroke="black" points="87.5,-0.5 87.5,-41.5 239.5,-41.5 239.5,-0.5 87.5,-0.5"/>
<text text-anchor="start" x="95.5" y="-29.5" font-family="Helvetica,sans-Serif" font-size="10.00">/home/user/bayes&#45;filters</text>
<text text-anchor="start" x="95.5" y="-18.5" font-family="Helvetica,sans-Serif" font-size="10.00">&#45;lib/src/BayesFilters/src</text>
<text text-anchor="middle" x="163.5" y="-7.5" font-family="Helvetica,sans-Serif" font-size="10.00">/SimulatedLinearSensor.cpp</text>
</a>
</g>
</g>
<!-- Node6&#45;&gt;Node7 -->
<g id="edge6" class="edge">
<title>Node6&#45;&gt;Node7</title>
<path fill="none" stroke="midnightblue" d="M163.5,-68.3C163.5,-59.3 163.5,-49.65 163.5,-41.51"/>
<polygon fill="midnightblue" stroke="midnightblue" points="160,-68.43 163.5,-78.43 167,-68.43 160,-68.43"/>
</g>
</g>
</svg>
