<?xml version="1.0" encoding="UTF-8" standalone="no"?>
<!DOCTYPE svg PUBLIC "-//W3C//DTD SVG 1.1//EN"
 "http://www.w3.org/Graphics/SVG/1.1/DTD/svg11.dtd">
<!-- Generated by graphviz version 2.47.2 (0)
 -->
<!-- Title: /home/xenvre/robot&#45;code/bfl_robotology/src/BayesFilters/include/BayesFilters/LinearMeasurementModel.h Pages: 1 -->
<svg width="522pt" height="428pt"
 viewBox="0.00 0.00 521.50 428.00" xmlns="http://www.w3.org/2000/svg" xmlns:xlink="http://www.w3.org/1999/xlink">
<g id="graph0" class="graph" transform="scale(1 1) rotate(0) translate(4 424)">
<title>/home/xenvre/robot&#45;code/bfl_robotology/src/BayesFilters/include/BayesFilters/LinearMeasurementModel.h</title>
<polygon fill="white" stroke="transparent" points="-4,4 -4,-424 517.5,-424 517.5,4 -4,4"/>
<!-- Node1 -->
<g id="node1" class="node">
<title>Node1</title>
<g id="a_node1"><a xlink:title=" ">
<polygon fill="#bfbfbf" stroke="black" points="172,-356.5 172,-419.5 335,-419.5 335,-356.5 172,-356.5"/>
<text text-anchor="start" x="180" y="-407.5" font-family="Helvetica,sans-Serif" font-size="10.00">/home/xenvre/robot</text>
<text text-anchor="start" x="180" y="-396.5" font-family="Helvetica,sans-Serif" font-size="10.00">&#45;code/bfl_robotology</text>
<text text-anchor="start" x="180" y="-385.5" font-family="Helvetica,sans-Serif" font-size="10.00">/src/BayesFilters/include</text>
<text text-anchor="start" x="180" y="-374.5" font-family="Helvetica,sans-Serif" font-size="10.00">/BayesFilters/LinearMeasurement</text>
<text text-anchor="middle" x="253.5" y="-363.5" font-family="Helvetica,sans-Serif" font-size="10.00">Model.h</text>
</a>
</g>
</g>
<!-- Node2 -->
<g id="node2" class="node">
<title>Node2</title>
<g id="a_node2"><a xlink:href="KFCorrection_8h.html" target="_top" xlink:title=" ">
<polygon fill="white" stroke="black" points="0,-267.5 0,-319.5 143,-319.5 143,-267.5 0,-267.5"/>
<text text-anchor="start" x="8" y="-307.5" font-family="Helvetica,sans-Serif" font-size="10.00">/home/xenvre/robot</text>
<text text-anchor="start" x="8" y="-296.5" font-family="Helvetica,sans-Serif" font-size="10.00">&#45;code/bfl_robotology</text>
<text text-anchor="start" x="8" y="-285.5" font-family="Helvetica,sans-Serif" font-size="10.00">/src/BayesFilters/include</text>
<text text-anchor="middle" x="71.5" y="-274.5" font-family="Helvetica,sans-Serif" font-size="10.00">/BayesFilters/KFCorrection.h</text>
</a>
</g>
</g>
<!-- Node1&#45;&gt;Node2 -->
<g id="edge1" class="edge">
<title>Node1&#45;&gt;Node2</title>
<path fill="none" stroke="midnightblue" d="M184.46,-351.91C163.31,-341.16 140.48,-329.56 120.92,-319.62"/>
<polygon fill="midnightblue" stroke="midnightblue" points="182.9,-355.04 193.4,-356.46 186.07,-348.8 182.9,-355.04"/>
</g>
<!-- Node4 -->
<g id="node4" class="node">
<title>Node4</title>
<g id="a_node4"><a xlink:href="LTIMeasurementModel_8h.html" target="_top" xlink:title=" ">
<polygon fill="white" stroke="black" points="161,-267.5 161,-319.5 346,-319.5 346,-267.5 161,-267.5"/>
<text text-anchor="start" x="169" y="-307.5" font-family="Helvetica,sans-Serif" font-size="10.00">/home/xenvre/robot</text>
<text text-anchor="start" x="169" y="-296.5" font-family="Helvetica,sans-Serif" font-size="10.00">&#45;code/bfl_robotology</text>
<text text-anchor="start" x="169" y="-285.5" font-family="Helvetica,sans-Serif" font-size="10.00">/src/BayesFilters/include</text>
<text text-anchor="middle" x="253.5" y="-274.5" font-family="Helvetica,sans-Serif" font-size="10.00">/BayesFilters/LTIMeasurementModel.h</text>
</a>
</g>
</g>
<!-- Node1&#45;&gt;Node4 -->
<g id="edge3" class="edge">
<title>Node1&#45;&gt;Node4</title>
<path fill="none" stroke="midnightblue" d="M253.5,-346.42C253.5,-337.36 253.5,-328 253.5,-319.77"/>
<polygon fill="midnightblue" stroke="midnightblue" points="250,-346.46 253.5,-356.46 257,-346.46 250,-346.46"/>
</g>
<!-- Node10 -->
<g id="node10" class="node">
<title>Node10</title>
<g id="a_node10"><a xlink:href="LinearMeasurementModel_8cpp.html" target="_top" xlink:title=" ">
<polygon fill="white" stroke="black" points="363.5,-267.5 363.5,-319.5 513.5,-319.5 513.5,-267.5 363.5,-267.5"/>
<text text-anchor="start" x="371.5" y="-307.5" font-family="Helvetica,sans-Serif" font-size="10.00">/home/xenvre/robot</text>
<text text-anchor="start" x="371.5" y="-296.5" font-family="Helvetica,sans-Serif" font-size="10.00">&#45;code/bfl_robotology</text>
<text text-anchor="start" x="371.5" y="-285.5" font-family="Helvetica,sans-Serif" font-size="10.00">/src/BayesFilters/src</text>
<text text-anchor="middle" x="438.5" y="-274.5" font-family="Helvetica,sans-Serif" font-size="10.00">/LinearMeasurementModel.cpp</text>
</a>
</g>
</g>
<!-- Node1&#45;&gt;Node10 -->
<g id="edge9" class="edge">
<title>Node1&#45;&gt;Node10</title>
<path fill="none" stroke="midnightblue" d="M323.68,-351.91C345.18,-341.16 368.38,-329.56 388.27,-319.62"/>
<polygon fill="midnightblue" stroke="midnightblue" points="321.97,-348.85 314.59,-356.46 325.1,-355.11 321.97,-348.85"/>
</g>
<!-- Node3 -->
<g id="node3" class="node">
<title>Node3</title>
<g id="a_node3"><a xlink:href="KFCorrection_8cpp.html" target="_top" xlink:title=" ">
<polygon fill="white" stroke="black" points="18,-178.5 18,-230.5 125,-230.5 125,-178.5 18,-178.5"/>
<text text-anchor="start" x="26" y="-218.5" font-family="Helvetica,sans-Serif" font-size="10.00">/home/xenvre/robot</text>
<text text-anchor="start" x="26" y="-207.5" font-family="Helvetica,sans-Serif" font-size="10.00">&#45;code/bfl_robotology</text>
<text text-anchor="start" x="26" y="-196.5" font-family="Helvetica,sans-Serif" font-size="10.00">/src/BayesFilters/src</text>
<text text-anchor="middle" x="71.5" y="-185.5" font-family="Helvetica,sans-Serif" font-size="10.00">/KFCorrection.cpp</text>
</a>
</g>
</g>
<!-- Node2&#45;&gt;Node3 -->
<g id="edge2" class="edge">
<title>Node2&#45;&gt;Node3</title>
<path fill="none" stroke="midnightblue" d="M71.5,-257.19C71.5,-248.28 71.5,-238.9 71.5,-230.61"/>
<polygon fill="midnightblue" stroke="midnightblue" points="68,-257.34 71.5,-267.34 75,-257.34 68,-257.34"/>
</g>
<!-- Node5 -->
<g id="node5" class="node">
<title>Node5</title>
<g id="a_node5"><a xlink:href="LinearModel_8h.html" target="_top" xlink:title=" ">
<polygon fill="white" stroke="black" points="163.5,-178.5 163.5,-230.5 301.5,-230.5 301.5,-178.5 163.5,-178.5"/>
<text text-anchor="start" x="171.5" y="-218.5" font-family="Helvetica,sans-Serif" font-size="10.00">/home/xenvre/robot</text>
<text text-anchor="start" x="171.5" y="-207.5" font-family="Helvetica,sans-Serif" font-size="10.00">&#45;code/bfl_robotology</text>
<text text-anchor="start" x="171.5" y="-196.5" font-family="Helvetica,sans-Serif" font-size="10.00">/src/BayesFilters/include</text>
<text text-anchor="middle" x="232.5" y="-185.5" font-family="Helvetica,sans-Serif" font-size="10.00">/BayesFilters/LinearModel.h</text>
</a>
</g>
</g>
<!-- Node4&#45;&gt;Node5 -->
<g id="edge4" class="edge">
<title>Node4&#45;&gt;Node5</title>
<path fill="none" stroke="midnightblue" d="M245.05,-257.48C242.88,-248.49 240.58,-238.99 238.56,-230.61"/>
<polygon fill="midnightblue" stroke="midnightblue" points="241.68,-258.44 247.43,-267.34 248.48,-256.79 241.68,-258.44"/>
</g>
<!-- Node9 -->
<g id="node9" class="node">
<title>Node9</title>
<g id="a_node9"><a xlink:href="LTIMeasurementModel_8cpp.html" target="_top" xlink:title=" ">
<polygon fill="white" stroke="black" points="319.5,-178.5 319.5,-230.5 457.5,-230.5 457.5,-178.5 319.5,-178.5"/>
<text text-anchor="start" x="327.5" y="-218.5" font-family="Helvetica,sans-Serif" font-size="10.00">/home/xenvre/robot</text>
<text text-anchor="start" x="327.5" y="-207.5" font-family="Helvetica,sans-Serif" font-size="10.00">&#45;code/bfl_robotology</text>
<text text-anchor="start" x="327.5" y="-196.5" font-family="Helvetica,sans-Serif" font-size="10.00">/src/BayesFilters/src</text>
<text text-anchor="middle" x="388.5" y="-185.5" font-family="Helvetica,sans-Serif" font-size="10.00">/LTIMeasurementModel.cpp</text>
</a>
</g>
</g>
<!-- Node4&#45;&gt;Node9 -->
<g id="edge8" class="edge">
<title>Node4&#45;&gt;Node9</title>
<path fill="none" stroke="midnightblue" d="M301.16,-261.79C317,-251.58 334.44,-240.34 349.54,-230.61"/>
<polygon fill="midnightblue" stroke="midnightblue" points="299.06,-258.98 292.55,-267.34 302.85,-264.86 299.06,-258.98"/>
</g>
<!-- Node6 -->
<g id="node6" class="node">
<title>Node6</title>
<g id="a_node6"><a xlink:href="SimulatedLinearSensor_8h.html" target="_top" xlink:title=" ">
<polygon fill="white" stroke="black" points="58,-89.5 58,-141.5 243,-141.5 243,-89.5 58,-89.5"/>
<text text-anchor="start" x="66" y="-129.5" font-family="Helvetica,sans-Serif" font-size="10.00">/home/xenvre/robot</text>
<text text-anchor="start" x="66" y="-118.5" font-family="Helvetica,sans-Serif" font-size="10.00">&#45;code/bfl_robotology</text>
<text text-anchor="start" x="66" y="-107.5" font-family="Helvetica,sans-Serif" font-size="10.00">/src/BayesFilters/include</text>
<text text-anchor="middle" x="150.5" y="-96.5" font-family="Helvetica,sans-Serif" font-size="10.00">/BayesFilters/SimulatedLinearSensor.h</text>
</a>
</g>
</g>
<!-- Node5&#45;&gt;Node6 -->
<g id="edge5" class="edge">
<title>Node5&#45;&gt;Node6</title>
<path fill="none" stroke="midnightblue" d="M201.67,-170.79C192.56,-161.13 182.74,-150.71 174.16,-141.61"/>
<polygon fill="midnightblue" stroke="midnightblue" points="199.38,-173.46 208.78,-178.34 204.47,-168.66 199.38,-173.46"/>
</g>
<!-- Node8 -->
<g id="node8" class="node">
<title>Node8</title>
<g id="a_node8"><a xlink:href="LinearModel_8cpp.html" target="_top" xlink:title=" ">
<polygon fill="white" stroke="black" points="261,-89.5 261,-141.5 368,-141.5 368,-89.5 261,-89.5"/>
<text text-anchor="start" x="269" y="-129.5" font-family="Helvetica,sans-Serif" font-size="10.00">/home/xenvre/robot</text>
<text text-anchor="start" x="269" y="-118.5" font-family="Helvetica,sans-Serif" font-size="10.00">&#45;code/bfl_robotology</text>
<text text-anchor="start" x="269" y="-107.5" font-family="Helvetica,sans-Serif" font-size="10.00">/src/BayesFilters/src</text>
<text text-anchor="middle" x="314.5" y="-96.5" font-family="Helvetica,sans-Serif" font-size="10.00">/LinearModel.cpp</text>
</a>
</g>
</g>
<!-- Node5&#45;&gt;Node8 -->
<g id="edge7" class="edge">
<title>Node5&#45;&gt;Node8</title>
<path fill="none" stroke="midnightblue" d="M263.33,-170.79C272.44,-161.13 282.26,-150.71 290.84,-141.61"/>
<polygon fill="midnightblue" stroke="midnightblue" points="260.53,-168.66 256.22,-178.34 265.62,-173.46 260.53,-168.66"/>
</g>
<!-- Node7 -->
<g id="node7" class="node">
<title>Node7</title>
<g id="a_node7"><a xlink:href="SimulatedLinearSensor_8cpp.html" target="_top" xlink:title=" ">
<polygon fill="white" stroke="black" points="81.5,-0.5 81.5,-52.5 219.5,-52.5 219.5,-0.5 81.5,-0.5"/>
<text text-anchor="start" x="89.5" y="-40.5" font-family="Helvetica,sans-Serif" font-size="10.00">/home/xenvre/robot</text>
<text text-anchor="start" x="89.5" y="-29.5" font-family="Helvetica,sans-Serif" font-size="10.00">&#45;code/bfl_robotology</text>
<text text-anchor="start" x="89.5" y="-18.5" font-family="Helvetica,sans-Serif" font-size="10.00">/src/BayesFilters/src</text>
<text text-anchor="middle" x="150.5" y="-7.5" font-family="Helvetica,sans-Serif" font-size="10.00">/SimulatedLinearSensor.cpp</text>
</a>
</g>
</g>
<!-- Node6&#45;&gt;Node7 -->
<g id="edge6" class="edge">
<title>Node6&#45;&gt;Node7</title>
<path fill="none" stroke="midnightblue" d="M150.5,-79.19C150.5,-70.28 150.5,-60.9 150.5,-52.61"/>
<polygon fill="midnightblue" stroke="midnightblue" points="147,-79.34 150.5,-89.34 154,-79.34 147,-79.34"/>
</g>
</g>
</svg>
