<?xml version="1.0" encoding="UTF-8" standalone="no"?>
<!DOCTYPE svg PUBLIC "-//W3C//DTD SVG 1.1//EN"
 "http://www.w3.org/Graphics/SVG/1.1/DTD/svg11.dtd">
<!-- Generated by graphviz version 2.47.2 (0)
 -->
<!-- Title: /home/xenvre/robot&#45;code/bfl_robotology/src/BayesFilters/src/LinearModel.cpp Pages: 1 -->
<svg width="823pt" height="553pt"
 viewBox="0.00 0.00 823.00 553.00" xmlns="http://www.w3.org/2000/svg" xmlns:xlink="http://www.w3.org/1999/xlink">
<g id="graph0" class="graph" transform="scale(1 1) rotate(0) translate(4 549)">
<title>/home/xenvre/robot&#45;code/bfl_robotology/src/BayesFilters/src/LinearModel.cpp</title>
<polygon fill="white" stroke="transparent" points="-4,4 -4,-549 819,-549 819,4 -4,4"/>
<!-- Node1 -->
<g id="node1" class="node">
<title>Node1</title>
<g id="a_node1"><a xlink:title=" ">
<polygon fill="#bfbfbf" stroke="black" points="585.5,-492.5 585.5,-544.5 692.5,-544.5 692.5,-492.5 585.5,-492.5"/>
<text text-anchor="start" x="593.5" y="-532.5" font-family="Helvetica,sans-Serif" font-size="10.00">/home/xenvre/robot</text>
<text text-anchor="start" x="593.5" y="-521.5" font-family="Helvetica,sans-Serif" font-size="10.00">&#45;code/bfl_robotology</text>
<text text-anchor="start" x="593.5" y="-510.5" font-family="Helvetica,sans-Serif" font-size="10.00">/src/BayesFilters/src</text>
<text text-anchor="middle" x="639" y="-499.5" font-family="Helvetica,sans-Serif" font-size="10.00">/LinearModel.cpp</text>
</a>
</g>
</g>
<!-- Node2 -->
<g id="node2" class="node">
<title>Node2</title>
<g id="a_node2"><a xlink:href="LinearModel_8h.html" target="_top" xlink:title=" ">
<polygon fill="white" stroke="black" points="408.5,-436.5 408.5,-455.5 543.5,-455.5 543.5,-436.5 408.5,-436.5"/>
<text text-anchor="middle" x="476" y="-443.5" font-family="Helvetica,sans-Serif" font-size="10.00">BayesFilters/LinearModel.h</text>
</a>
</g>
</g>
<!-- Node1&#45;&gt;Node2 -->
<g id="edge1" class="edge">
<title>Node1&#45;&gt;Node2</title>
<path fill="none" stroke="midnightblue" d="M585.18,-494.22C558.52,-482.69 527.38,-469.22 505.2,-459.63"/>
<polygon fill="midnightblue" stroke="midnightblue" points="506.55,-456.4 495.98,-455.64 503.77,-462.82 506.55,-456.4"/>
</g>
<!-- Node16 -->
<g id="node16" class="node">
<title>Node16</title>
<g id="a_node16"><a xlink:title=" ">
<polygon fill="white" stroke="#bfbfbf" points="601,-56.5 601,-75.5 655,-75.5 655,-56.5 601,-56.5"/>
<text text-anchor="middle" x="628" y="-63.5" font-family="Helvetica,sans-Serif" font-size="10.00">iostream</text>
</a>
</g>
</g>
<!-- Node1&#45;&gt;Node16 -->
<g id="edge29" class="edge">
<title>Node1&#45;&gt;Node16</title>
<path fill="none" stroke="midnightblue" d="M639,-492.19C639,-465.62 639,-422.62 639,-385.5 639,-385.5 639,-385.5 639,-182.5 639,-148.21 634.14,-108.45 630.88,-85.66"/>
<polygon fill="midnightblue" stroke="midnightblue" points="634.32,-85.04 629.39,-75.67 627.4,-86.07 634.32,-85.04"/>
</g>
<!-- Node19 -->
<g id="node19" class="node">
<title>Node19</title>
<g id="a_node19"><a xlink:title=" ">
<polygon fill="white" stroke="#bfbfbf" points="0,-112.5 0,-131.5 40,-131.5 40,-112.5 0,-112.5"/>
<text text-anchor="middle" x="20" y="-119.5" font-family="Helvetica,sans-Serif" font-size="10.00">utility</text>
</a>
</g>
</g>
<!-- Node1&#45;&gt;Node19 -->
<g id="edge30" class="edge">
<title>Node1&#45;&gt;Node19</title>
<path fill="none" stroke="midnightblue" d="M585.32,-517.03C438.29,-514.3 40,-496.65 40,-385.5 40,-385.5 40,-385.5 40,-249.5 40,-210.55 30.64,-165.68 24.72,-141.22"/>
<polygon fill="midnightblue" stroke="midnightblue" points="28.12,-140.37 22.29,-131.52 21.33,-142.07 28.12,-140.37"/>
</g>
<!-- Node24 -->
<g id="node24" class="node">
<title>Node24</title>
<g id="a_node24"><a xlink:title=" ">
<polygon fill="white" stroke="#bfbfbf" points="667,-436.5 667,-455.5 711,-455.5 711,-436.5 667,-436.5"/>
<text text-anchor="middle" x="689" y="-443.5" font-family="Helvetica,sans-Serif" font-size="10.00">cmath</text>
</a>
</g>
</g>
<!-- Node1&#45;&gt;Node24 -->
<g id="edge28" class="edge">
<title>Node1&#45;&gt;Node24</title>
<path fill="none" stroke="midnightblue" d="M656.77,-492.45C663.45,-483.03 670.88,-472.55 676.92,-464.03"/>
<polygon fill="midnightblue" stroke="midnightblue" points="679.9,-465.88 682.83,-455.7 674.19,-461.83 679.9,-465.88"/>
</g>
<!-- Node25 -->
<g id="node25" class="node">
<title>Node25</title>
<g id="a_node25"><a xlink:title=" ">
<polygon fill="white" stroke="#bfbfbf" points="729,-436.5 729,-455.5 815,-455.5 815,-436.5 729,-436.5"/>
<text text-anchor="middle" x="772" y="-443.5" font-family="Helvetica,sans-Serif" font-size="10.00">Eigen/Cholesky</text>
</a>
</g>
</g>
<!-- Node1&#45;&gt;Node25 -->
<g id="edge31" class="edge">
<title>Node1&#45;&gt;Node25</title>
<path fill="none" stroke="midnightblue" d="M686.27,-492.45C706.61,-481.66 729.59,-469.48 746.63,-460.45"/>
<polygon fill="midnightblue" stroke="midnightblue" points="748.72,-463.3 755.91,-455.53 745.44,-457.12 748.72,-463.3"/>
</g>
<!-- Node3 -->
<g id="node3" class="node">
<title>Node3</title>
<g id="a_node3"><a xlink:href="LTIMeasurementModel_8h.html" target="_top" xlink:title=" ">
<polygon fill="white" stroke="black" points="145,-369.5 145,-399.5 293,-399.5 293,-369.5 145,-369.5"/>
<text text-anchor="start" x="153" y="-387.5" font-family="Helvetica,sans-Serif" font-size="10.00">BayesFilters/LTIMeasurement</text>
<text text-anchor="middle" x="219" y="-376.5" font-family="Helvetica,sans-Serif" font-size="10.00">Model.h</text>
</a>
</g>
</g>
<!-- Node2&#45;&gt;Node3 -->
<g id="edge2" class="edge">
<title>Node2&#45;&gt;Node3</title>
<path fill="none" stroke="midnightblue" d="M439.18,-436.48C400.22,-427.46 337.81,-413.01 289.37,-401.79"/>
<polygon fill="midnightblue" stroke="midnightblue" points="290.1,-398.37 279.57,-399.52 288.52,-405.19 290.1,-398.37"/>
</g>
<!-- Node15 -->
<g id="node15" class="node">
<title>Node15</title>
<g id="a_node15"><a xlink:title=" ">
<polygon fill="white" stroke="#bfbfbf" points="523,-56.5 523,-75.5 573,-75.5 573,-56.5 523,-56.5"/>
<text text-anchor="middle" x="548" y="-63.5" font-family="Helvetica,sans-Serif" font-size="10.00">fstream</text>
</a>
</g>
</g>
<!-- Node2&#45;&gt;Node15 -->
<g id="edge24" class="edge">
<title>Node2&#45;&gt;Node15</title>
<path fill="none" stroke="midnightblue" d="M519.29,-436.42C541.09,-429.94 566.17,-418.82 582,-400 605.94,-371.53 601,-355.69 601,-318.5 601,-318.5 601,-318.5 601,-182.5 601,-144.47 576.97,-105.29 561.27,-83.75"/>
<polygon fill="midnightblue" stroke="midnightblue" points="563.97,-81.52 555.15,-75.65 558.39,-85.74 563.97,-81.52"/>
</g>
<!-- Node17 -->
<g id="node17" class="node">
<title>Node17</title>
<g id="a_node17"><a xlink:title=" ">
<polygon fill="white" stroke="#bfbfbf" points="337.5,-56.5 337.5,-75.5 378.5,-75.5 378.5,-56.5 337.5,-56.5"/>
<text text-anchor="middle" x="358" y="-63.5" font-family="Helvetica,sans-Serif" font-size="10.00">string</text>
</a>
</g>
</g>
<!-- Node2&#45;&gt;Node17 -->
<g id="edge27" class="edge">
<title>Node2&#45;&gt;Node17</title>
<path fill="none" stroke="midnightblue" d="M408.34,-437.43C385.02,-431.2 361.22,-420.01 347,-400 310.9,-349.17 343.4,-147.8 354.56,-85.48"/>
<polygon fill="midnightblue" stroke="midnightblue" points="358.03,-85.99 356.38,-75.53 351.14,-84.74 358.03,-85.99"/>
</g>
<!-- Node21 -->
<g id="node21" class="node">
<title>Node21</title>
<g id="a_node21"><a xlink:title=" ">
<polygon fill="white" stroke="#bfbfbf" points="355.5,-375 355.5,-394 428.5,-394 428.5,-375 355.5,-375"/>
<text text-anchor="middle" x="392" y="-382" font-family="Helvetica,sans-Serif" font-size="10.00">initializer_list</text>
</a>
</g>
</g>
<!-- Node2&#45;&gt;Node21 -->
<g id="edge23" class="edge">
<title>Node2&#45;&gt;Node21</title>
<path fill="none" stroke="midnightblue" d="M463.96,-436.48C450.49,-426.93 428.43,-411.31 412.28,-399.87"/>
<polygon fill="midnightblue" stroke="midnightblue" points="414.2,-396.93 404.01,-394.01 410.15,-402.65 414.2,-396.93"/>
</g>
<!-- Node22 -->
<g id="node22" class="node">
<title>Node22</title>
<g id="a_node22"><a xlink:title=" ">
<polygon fill="white" stroke="#bfbfbf" points="446.5,-375 446.5,-394 505.5,-394 505.5,-375 446.5,-375"/>
<text text-anchor="middle" x="476" y="-382" font-family="Helvetica,sans-Serif" font-size="10.00">functional</text>
</a>
</g>
</g>
<!-- Node2&#45;&gt;Node22 -->
<g id="edge25" class="edge">
<title>Node2&#45;&gt;Node22</title>
<path fill="none" stroke="midnightblue" d="M476,-436.48C476,-428.08 476,-414.98 476,-404.16"/>
<polygon fill="midnightblue" stroke="midnightblue" points="479.5,-404.01 476,-394.01 472.5,-404.01 479.5,-404.01"/>
</g>
<!-- Node23 -->
<g id="node23" class="node">
<title>Node23</title>
<g id="a_node23"><a xlink:title=" ">
<polygon fill="white" stroke="#bfbfbf" points="523.5,-375 523.5,-394 572.5,-394 572.5,-375 523.5,-375"/>
<text text-anchor="middle" x="548" y="-382" font-family="Helvetica,sans-Serif" font-size="10.00">random</text>
</a>
</g>
</g>
<!-- Node2&#45;&gt;Node23 -->
<g id="edge26" class="edge">
<title>Node2&#45;&gt;Node23</title>
<path fill="none" stroke="midnightblue" d="M486.32,-436.48C497.65,-427.11 516.07,-411.88 529.84,-400.51"/>
<polygon fill="midnightblue" stroke="midnightblue" points="532.22,-403.08 537.7,-394.01 527.77,-397.68 532.22,-403.08"/>
</g>
<!-- Node4 -->
<g id="node4" class="node">
<title>Node4</title>
<g id="a_node4"><a xlink:href="LinearMeasurementModel_8h.html" target="_top" xlink:title=" ">
<polygon fill="white" stroke="black" points="139,-302.5 139,-332.5 299,-332.5 299,-302.5 139,-302.5"/>
<text text-anchor="start" x="147" y="-320.5" font-family="Helvetica,sans-Serif" font-size="10.00">BayesFilters/LinearMeasurement</text>
<text text-anchor="middle" x="219" y="-309.5" font-family="Helvetica,sans-Serif" font-size="10.00">Model.h</text>
</a>
</g>
</g>
<!-- Node3&#45;&gt;Node4 -->
<g id="edge3" class="edge">
<title>Node3&#45;&gt;Node4</title>
<path fill="none" stroke="midnightblue" d="M219,-369.4C219,-361.64 219,-351.81 219,-342.86"/>
<polygon fill="midnightblue" stroke="midnightblue" points="222.5,-342.58 219,-332.58 215.5,-342.58 222.5,-342.58"/>
</g>
<!-- Node20 -->
<g id="node20" class="node">
<title>Node20</title>
<g id="a_node20"><a xlink:title=" ">
<polygon fill="white" stroke="#bfbfbf" points="58.5,-112.5 58.5,-131.5 131.5,-131.5 131.5,-112.5 58.5,-112.5"/>
<text text-anchor="middle" x="95" y="-119.5" font-family="Helvetica,sans-Serif" font-size="10.00">Eigen/Dense</text>
</a>
</g>
</g>
<!-- Node3&#45;&gt;Node20 -->
<g id="edge22" class="edge">
<title>Node3&#45;&gt;Node20</title>
<path fill="none" stroke="midnightblue" d="M177.94,-369.45C160.52,-361.43 141.6,-349.6 130,-333 88.28,-273.29 90.05,-181.06 93.08,-141.76"/>
<polygon fill="midnightblue" stroke="midnightblue" points="96.59,-141.83 93.99,-131.56 89.61,-141.21 96.59,-141.83"/>
</g>
<!-- Node5 -->
<g id="node5" class="node">
<title>Node5</title>
<g id="a_node5"><a xlink:href="AdditiveMeasurementModel_8h.html" target="_top" xlink:title=" ">
<polygon fill="white" stroke="black" points="134.5,-235.5 134.5,-265.5 303.5,-265.5 303.5,-235.5 134.5,-235.5"/>
<text text-anchor="start" x="142.5" y="-253.5" font-family="Helvetica,sans-Serif" font-size="10.00">BayesFilters/AdditiveMeasurement</text>
<text text-anchor="middle" x="219" y="-242.5" font-family="Helvetica,sans-Serif" font-size="10.00">Model.h</text>
</a>
</g>
</g>
<!-- Node4&#45;&gt;Node5 -->
<g id="edge4" class="edge">
<title>Node4&#45;&gt;Node5</title>
<path fill="none" stroke="midnightblue" d="M219,-302.4C219,-294.64 219,-284.81 219,-275.86"/>
<polygon fill="midnightblue" stroke="midnightblue" points="222.5,-275.58 219,-265.58 215.5,-275.58 222.5,-275.58"/>
</g>
<!-- Node6 -->
<g id="node6" class="node">
<title>Node6</title>
<g id="a_node6"><a xlink:href="MeasurementModel_8h.html" target="_top" xlink:title=" ">
<polygon fill="white" stroke="black" points="152,-168.5 152,-198.5 286,-198.5 286,-168.5 152,-168.5"/>
<text text-anchor="start" x="160" y="-186.5" font-family="Helvetica,sans-Serif" font-size="10.00">BayesFilters/Measurement</text>
<text text-anchor="middle" x="219" y="-175.5" font-family="Helvetica,sans-Serif" font-size="10.00">Model.h</text>
</a>
</g>
</g>
<!-- Node5&#45;&gt;Node6 -->
<g id="edge5" class="edge">
<title>Node5&#45;&gt;Node6</title>
<path fill="none" stroke="midnightblue" d="M219,-235.4C219,-227.64 219,-217.81 219,-208.86"/>
<polygon fill="midnightblue" stroke="midnightblue" points="222.5,-208.58 219,-198.58 215.5,-208.58 222.5,-208.58"/>
</g>
<!-- Node7 -->
<g id="node7" class="node">
<title>Node7</title>
<g id="a_node7"><a xlink:href="Data_8h.html" target="_top" xlink:title=" ">
<polygon fill="white" stroke="black" points="188,-112.5 188,-131.5 292,-131.5 292,-112.5 188,-112.5"/>
<text text-anchor="middle" x="240" y="-119.5" font-family="Helvetica,sans-Serif" font-size="10.00">BayesFilters/Data.h</text>
</a>
</g>
</g>
<!-- Node6&#45;&gt;Node7 -->
<g id="edge6" class="edge">
<title>Node6&#45;&gt;Node7</title>
<path fill="none" stroke="midnightblue" d="M223.98,-168.4C226.84,-160.29 230.47,-150.01 233.55,-141.28"/>
<polygon fill="midnightblue" stroke="midnightblue" points="236.92,-142.25 236.94,-131.66 230.32,-139.92 236.92,-142.25"/>
</g>
<!-- Node10 -->
<g id="node10" class="node">
<title>Node10</title>
<g id="a_node10"><a xlink:title=" ">
<polygon fill="white" stroke="#bfbfbf" points="102,-0.5 102,-19.5 154,-19.5 154,-0.5 102,-0.5"/>
<text text-anchor="middle" x="128" y="-7.5" font-family="Helvetica,sans-Serif" font-size="10.00">memory</text>
</a>
</g>
</g>
<!-- Node6&#45;&gt;Node10 -->
<g id="edge18" class="edge">
<title>Node6&#45;&gt;Node10</title>
<path fill="none" stroke="midnightblue" d="M205.98,-168.24C197.55,-158.52 186.75,-145.09 179,-132 158.66,-97.63 142.28,-53.64 133.96,-29.29"/>
<polygon fill="midnightblue" stroke="midnightblue" points="137.21,-27.97 130.72,-19.59 130.57,-30.18 137.21,-27.97"/>
</g>
<!-- Node14 -->
<g id="node14" class="node">
<title>Node14</title>
<g id="a_node14"><a xlink:href="Logger_8h.html" target="_top" xlink:title=" ">
<polygon fill="white" stroke="black" points="408.5,-112.5 408.5,-131.5 519.5,-131.5 519.5,-112.5 408.5,-112.5"/>
<text text-anchor="middle" x="464" y="-119.5" font-family="Helvetica,sans-Serif" font-size="10.00">BayesFilters/Logger.h</text>
</a>
</g>
</g>
<!-- Node6&#45;&gt;Node14 -->
<g id="edge13" class="edge">
<title>Node6&#45;&gt;Node14</title>
<path fill="none" stroke="midnightblue" d="M276.75,-168.47C320.31,-157.9 379.2,-143.59 419.22,-133.87"/>
<polygon fill="midnightblue" stroke="midnightblue" points="420.08,-137.27 428.97,-131.51 418.43,-130.47 420.08,-137.27"/>
</g>
<!-- Node6&#45;&gt;Node17 -->
<g id="edge19" class="edge">
<title>Node6&#45;&gt;Node17</title>
<path fill="none" stroke="midnightblue" d="M246.21,-168.46C262.87,-159.22 284.14,-146.24 301,-132 318.12,-117.54 334.66,-97.84 345.47,-83.93"/>
<polygon fill="midnightblue" stroke="midnightblue" points="348.43,-85.81 351.7,-75.73 342.86,-81.58 348.43,-85.81"/>
</g>
<!-- Node6&#45;&gt;Node19 -->
<g id="edge20" class="edge">
<title>Node6&#45;&gt;Node19</title>
<path fill="none" stroke="midnightblue" d="M170.96,-168.4C139.08,-159 96.08,-146.25 49.87,-132.24"/>
<polygon fill="midnightblue" stroke="midnightblue" points="50.86,-128.88 40.27,-129.33 48.82,-135.58 50.86,-128.88"/>
</g>
<!-- Node6&#45;&gt;Node20 -->
<g id="edge21" class="edge">
<title>Node6&#45;&gt;Node20</title>
<path fill="none" stroke="midnightblue" d="M189.61,-168.4C169.18,-158.59 142.14,-145.62 122.2,-136.05"/>
<polygon fill="midnightblue" stroke="midnightblue" points="123.57,-132.83 113.04,-131.66 120.54,-139.14 123.57,-132.83"/>
</g>
<!-- Node8 -->
<g id="node8" class="node">
<title>Node8</title>
<g id="a_node8"><a xlink:href="any_8h.html" target="_top" xlink:title=" ">
<polygon fill="white" stroke="black" points="206.5,-56.5 206.5,-75.5 303.5,-75.5 303.5,-56.5 206.5,-56.5"/>
<text text-anchor="middle" x="255" y="-63.5" font-family="Helvetica,sans-Serif" font-size="10.00">BayesFilters/any.h</text>
</a>
</g>
</g>
<!-- Node7&#45;&gt;Node8 -->
<g id="edge7" class="edge">
<title>Node7&#45;&gt;Node8</title>
<path fill="none" stroke="midnightblue" d="M242.48,-112.08C244.49,-104.85 247.39,-94.41 249.89,-85.4"/>
<polygon fill="midnightblue" stroke="midnightblue" points="253.26,-86.32 252.57,-75.75 246.52,-84.45 253.26,-86.32"/>
</g>
<!-- Node9 -->
<g id="node9" class="node">
<title>Node9</title>
<g id="a_node9"><a xlink:title=" ">
<polygon fill="white" stroke="#bfbfbf" points="322,-0.5 322,-19.5 378,-19.5 378,-0.5 322,-0.5"/>
<text text-anchor="middle" x="350" y="-7.5" font-family="Helvetica,sans-Serif" font-size="10.00">algorithm</text>
</a>
</g>
</g>
<!-- Node8&#45;&gt;Node9 -->
<g id="edge8" class="edge">
<title>Node8&#45;&gt;Node9</title>
<path fill="none" stroke="midnightblue" d="M270.26,-56.32C285.22,-47.82 308.25,-34.73 325.73,-24.8"/>
<polygon fill="midnightblue" stroke="midnightblue" points="327.81,-27.64 334.77,-19.65 324.35,-21.55 327.81,-27.64"/>
</g>
<!-- Node8&#45;&gt;Node10 -->
<g id="edge9" class="edge">
<title>Node8&#45;&gt;Node10</title>
<path fill="none" stroke="midnightblue" d="M234.88,-56.44C213.98,-47.56 181.07,-33.56 157.28,-23.45"/>
<polygon fill="midnightblue" stroke="midnightblue" points="158.6,-20.21 148.03,-19.52 155.86,-26.65 158.6,-20.21"/>
</g>
<!-- Node11 -->
<g id="node11" class="node">
<title>Node11</title>
<g id="a_node11"><a xlink:title=" ">
<polygon fill="white" stroke="#bfbfbf" points="396.5,-0.5 396.5,-19.5 455.5,-19.5 455.5,-0.5 396.5,-0.5"/>
<text text-anchor="middle" x="426" y="-7.5" font-family="Helvetica,sans-Serif" font-size="10.00">stdexcept</text>
</a>
</g>
</g>
<!-- Node8&#45;&gt;Node11 -->
<g id="edge10" class="edge">
<title>Node8&#45;&gt;Node11</title>
<path fill="none" stroke="midnightblue" d="M282.1,-56.44C310.99,-47.32 356.92,-32.81 389.11,-22.65"/>
<polygon fill="midnightblue" stroke="midnightblue" points="390.55,-25.87 399.03,-19.52 388.44,-19.19 390.55,-25.87"/>
</g>
<!-- Node12 -->
<g id="node12" class="node">
<title>Node12</title>
<g id="a_node12"><a xlink:title=" ">
<polygon fill="white" stroke="#bfbfbf" points="172.5,-0.5 172.5,-19.5 223.5,-19.5 223.5,-0.5 172.5,-0.5"/>
<text text-anchor="middle" x="198" y="-7.5" font-family="Helvetica,sans-Serif" font-size="10.00">typeinfo</text>
</a>
</g>
</g>
<!-- Node8&#45;&gt;Node12 -->
<g id="edge11" class="edge">
<title>Node8&#45;&gt;Node12</title>
<path fill="none" stroke="midnightblue" d="M245.84,-56.32C237.5,-48.42 224.97,-36.55 214.82,-26.94"/>
<polygon fill="midnightblue" stroke="midnightblue" points="216.99,-24.17 207.32,-19.83 212.18,-29.25 216.99,-24.17"/>
</g>
<!-- Node13 -->
<g id="node13" class="node">
<title>Node13</title>
<g id="a_node13"><a xlink:title=" ">
<polygon fill="white" stroke="#bfbfbf" points="242,-0.5 242,-19.5 304,-19.5 304,-0.5 242,-0.5"/>
<text text-anchor="middle" x="273" y="-7.5" font-family="Helvetica,sans-Serif" font-size="10.00">type_traits</text>
</a>
</g>
</g>
<!-- Node8&#45;&gt;Node13 -->
<g id="edge12" class="edge">
<title>Node8&#45;&gt;Node13</title>
<path fill="none" stroke="midnightblue" d="M257.97,-56.08C260.38,-48.85 263.86,-38.41 266.87,-29.4"/>
<polygon fill="midnightblue" stroke="midnightblue" points="270.24,-30.34 270.08,-19.75 263.6,-28.13 270.24,-30.34"/>
</g>
<!-- Node14&#45;&gt;Node15 -->
<g id="edge14" class="edge">
<title>Node14&#45;&gt;Node15</title>
<path fill="none" stroke="midnightblue" d="M477.5,-112.32C490.6,-103.9 510.71,-90.97 526.11,-81.07"/>
<polygon fill="midnightblue" stroke="midnightblue" points="528.02,-84.01 534.54,-75.65 524.23,-78.12 528.02,-84.01"/>
</g>
<!-- Node14&#45;&gt;Node16 -->
<g id="edge15" class="edge">
<title>Node14&#45;&gt;Node16</title>
<path fill="none" stroke="midnightblue" d="M489.99,-112.44C517.7,-103.32 561.75,-88.81 592.62,-78.65"/>
<polygon fill="midnightblue" stroke="midnightblue" points="593.73,-81.97 602.14,-75.52 591.54,-75.32 593.73,-81.97"/>
</g>
<!-- Node14&#45;&gt;Node17 -->
<g id="edge16" class="edge">
<title>Node14&#45;&gt;Node17</title>
<path fill="none" stroke="midnightblue" d="M446.97,-112.32C429.97,-103.66 403.62,-90.24 384.01,-80.25"/>
<polygon fill="midnightblue" stroke="midnightblue" points="385.49,-77.08 374.99,-75.65 382.31,-83.31 385.49,-77.08"/>
</g>
<!-- Node18 -->
<g id="node18" class="node">
<title>Node18</title>
<g id="a_node18"><a xlink:title=" ">
<polygon fill="white" stroke="#bfbfbf" points="442,-56.5 442,-75.5 486,-75.5 486,-56.5 442,-56.5"/>
<text text-anchor="middle" x="464" y="-63.5" font-family="Helvetica,sans-Serif" font-size="10.00">vector</text>
</a>
</g>
</g>
<!-- Node14&#45;&gt;Node18 -->
<g id="edge17" class="edge">
<title>Node14&#45;&gt;Node18</title>
<path fill="none" stroke="midnightblue" d="M464,-112.08C464,-105.01 464,-94.86 464,-85.99"/>
<polygon fill="midnightblue" stroke="midnightblue" points="467.5,-85.75 464,-75.75 460.5,-85.75 467.5,-85.75"/>
</g>
</g>
</svg>
