<?xml version="1.0" encoding="UTF-8" standalone="no"?>
<!DOCTYPE svg PUBLIC "-//W3C//DTD SVG 1.1//EN"
 "http://www.w3.org/Graphics/SVG/1.1/DTD/svg11.dtd">
<!-- Generated by graphviz version 2.47.2 (0)
 -->
<!-- Title: /home/xenvre/robot&#45;code/bfl_robotology/src/BayesFilters/src/LTIMeasurementModel.cpp Pages: 1 -->
<svg width="570pt" height="497pt"
 viewBox="0.00 0.00 569.50 497.00" xmlns="http://www.w3.org/2000/svg" xmlns:xlink="http://www.w3.org/1999/xlink">
<g id="graph0" class="graph" transform="scale(1 1) rotate(0) translate(4 493)">
<title>/home/xenvre/robot&#45;code/bfl_robotology/src/BayesFilters/src/LTIMeasurementModel.cpp</title>
<polygon fill="white" stroke="transparent" points="-4,4 -4,-493 565.5,-493 565.5,4 -4,4"/>
<!-- Node1 -->
<g id="node1" class="node">
<title>Node1</title>
<g id="a_node1"><a xlink:title=" ">
<polygon fill="#bfbfbf" stroke="black" points="418,-436.5 418,-488.5 556,-488.5 556,-436.5 418,-436.5"/>
<text text-anchor="start" x="426" y="-476.5" font-family="Helvetica,sans-Serif" font-size="10.00">/home/xenvre/robot</text>
<text text-anchor="start" x="426" y="-465.5" font-family="Helvetica,sans-Serif" font-size="10.00">&#45;code/bfl_robotology</text>
<text text-anchor="start" x="426" y="-454.5" font-family="Helvetica,sans-Serif" font-size="10.00">/src/BayesFilters/src</text>
<text text-anchor="middle" x="487" y="-443.5" font-family="Helvetica,sans-Serif" font-size="10.00">/LTIMeasurementModel.cpp</text>
</a>
</g>
</g>
<!-- Node2 -->
<g id="node2" class="node">
<title>Node2</title>
<g id="a_node2"><a xlink:href="LTIMeasurementModel_8h.html" target="_top" xlink:title=" ">
<polygon fill="white" stroke="black" points="362,-369.5 362,-399.5 510,-399.5 510,-369.5 362,-369.5"/>
<text text-anchor="start" x="370" y="-387.5" font-family="Helvetica,sans-Serif" font-size="10.00">BayesFilters/LTIMeasurement</text>
<text text-anchor="middle" x="436" y="-376.5" font-family="Helvetica,sans-Serif" font-size="10.00">Model.h</text>
</a>
</g>
</g>
<!-- Node1&#45;&gt;Node2 -->
<g id="edge1" class="edge">
<title>Node1&#45;&gt;Node2</title>
<path fill="none" stroke="midnightblue" d="M470.02,-436.19C464,-427.22 457.26,-417.18 451.38,-408.42"/>
<polygon fill="midnightblue" stroke="midnightblue" points="454.1,-406.2 445.63,-399.85 448.29,-410.1 454.1,-406.2"/>
</g>
<!-- Node19 -->
<g id="node19" class="node">
<title>Node19</title>
<g id="a_node19"><a xlink:title=" ">
<polygon fill="white" stroke="#bfbfbf" points="488.5,-112.5 488.5,-131.5 561.5,-131.5 561.5,-112.5 488.5,-112.5"/>
<text text-anchor="middle" x="525" y="-119.5" font-family="Helvetica,sans-Serif" font-size="10.00">Eigen/Dense</text>
</a>
</g>
</g>
<!-- Node1&#45;&gt;Node19 -->
<g id="edge22" class="edge">
<title>Node1&#45;&gt;Node19</title>
<path fill="none" stroke="midnightblue" d="M501.89,-436.37C516.94,-408.54 538,-361.86 538,-318.5 538,-318.5 538,-318.5 538,-249.5 538,-211 531.97,-166.25 528.12,-141.64"/>
<polygon fill="midnightblue" stroke="midnightblue" points="531.54,-140.87 526.49,-131.56 524.63,-141.99 531.54,-140.87"/>
</g>
<!-- Node3 -->
<g id="node3" class="node">
<title>Node3</title>
<g id="a_node3"><a xlink:href="LinearMeasurementModel_8h.html" target="_top" xlink:title=" ">
<polygon fill="white" stroke="black" points="310,-302.5 310,-332.5 470,-332.5 470,-302.5 310,-302.5"/>
<text text-anchor="start" x="318" y="-320.5" font-family="Helvetica,sans-Serif" font-size="10.00">BayesFilters/LinearMeasurement</text>
<text text-anchor="middle" x="390" y="-309.5" font-family="Helvetica,sans-Serif" font-size="10.00">Model.h</text>
</a>
</g>
</g>
<!-- Node2&#45;&gt;Node3 -->
<g id="edge2" class="edge">
<title>Node2&#45;&gt;Node3</title>
<path fill="none" stroke="midnightblue" d="M426.02,-369.4C420.11,-361.05 412.5,-350.29 405.79,-340.81"/>
<polygon fill="midnightblue" stroke="midnightblue" points="408.6,-338.72 399.96,-332.58 402.88,-342.76 408.6,-338.72"/>
</g>
<!-- Node2&#45;&gt;Node19 -->
<g id="edge21" class="edge">
<title>Node2&#45;&gt;Node19</title>
<path fill="none" stroke="midnightblue" d="M451.32,-369.44C460.68,-360.01 472.14,-346.82 479,-333 511.32,-267.85 521.09,-180.22 523.91,-142.07"/>
<polygon fill="midnightblue" stroke="midnightblue" points="527.42,-142.11 524.58,-131.9 520.43,-141.65 527.42,-142.11"/>
</g>
<!-- Node4 -->
<g id="node4" class="node">
<title>Node4</title>
<g id="a_node4"><a xlink:href="AdditiveMeasurementModel_8h.html" target="_top" xlink:title=" ">
<polygon fill="white" stroke="black" points="303.5,-235.5 303.5,-265.5 472.5,-265.5 472.5,-235.5 303.5,-235.5"/>
<text text-anchor="start" x="311.5" y="-253.5" font-family="Helvetica,sans-Serif" font-size="10.00">BayesFilters/AdditiveMeasurement</text>
<text text-anchor="middle" x="388" y="-242.5" font-family="Helvetica,sans-Serif" font-size="10.00">Model.h</text>
</a>
</g>
</g>
<!-- Node3&#45;&gt;Node4 -->
<g id="edge3" class="edge">
<title>Node3&#45;&gt;Node4</title>
<path fill="none" stroke="midnightblue" d="M389.57,-302.4C389.33,-294.64 389.02,-284.81 388.75,-275.86"/>
<polygon fill="midnightblue" stroke="midnightblue" points="392.24,-275.46 388.43,-265.58 385.24,-275.68 392.24,-275.46"/>
</g>
<!-- Node5 -->
<g id="node5" class="node">
<title>Node5</title>
<g id="a_node5"><a xlink:href="MeasurementModel_8h.html" target="_top" xlink:title=" ">
<polygon fill="white" stroke="black" points="321,-168.5 321,-198.5 455,-198.5 455,-168.5 321,-168.5"/>
<text text-anchor="start" x="329" y="-186.5" font-family="Helvetica,sans-Serif" font-size="10.00">BayesFilters/Measurement</text>
<text text-anchor="middle" x="388" y="-175.5" font-family="Helvetica,sans-Serif" font-size="10.00">Model.h</text>
</a>
</g>
</g>
<!-- Node4&#45;&gt;Node5 -->
<g id="edge4" class="edge">
<title>Node4&#45;&gt;Node5</title>
<path fill="none" stroke="midnightblue" d="M388,-235.4C388,-227.64 388,-217.81 388,-208.86"/>
<polygon fill="midnightblue" stroke="midnightblue" points="391.5,-208.58 388,-198.58 384.5,-208.58 391.5,-208.58"/>
</g>
<!-- Node6 -->
<g id="node6" class="node">
<title>Node6</title>
<g id="a_node6"><a xlink:href="Data_8h.html" target="_top" xlink:title=" ">
<polygon fill="white" stroke="black" points="124,-112.5 124,-131.5 228,-131.5 228,-112.5 124,-112.5"/>
<text text-anchor="middle" x="176" y="-119.5" font-family="Helvetica,sans-Serif" font-size="10.00">BayesFilters/Data.h</text>
</a>
</g>
</g>
<!-- Node5&#45;&gt;Node6 -->
<g id="edge5" class="edge">
<title>Node5&#45;&gt;Node6</title>
<path fill="none" stroke="midnightblue" d="M338.03,-168.47C300.81,-158.03 250.67,-143.96 216.07,-134.25"/>
<polygon fill="midnightblue" stroke="midnightblue" points="216.88,-130.84 206.31,-131.51 214.99,-137.58 216.88,-130.84"/>
</g>
<!-- Node9 -->
<g id="node9" class="node">
<title>Node9</title>
<g id="a_node9"><a xlink:title=" ">
<polygon fill="white" stroke="#bfbfbf" points="0,-0.5 0,-19.5 52,-19.5 52,-0.5 0,-0.5"/>
<text text-anchor="middle" x="26" y="-7.5" font-family="Helvetica,sans-Serif" font-size="10.00">memory</text>
</a>
</g>
</g>
<!-- Node5&#45;&gt;Node9 -->
<g id="edge17" class="edge">
<title>Node5&#45;&gt;Node9</title>
<path fill="none" stroke="midnightblue" d="M320.86,-175.79C251.42,-167.85 148.54,-153.02 115,-132 74.81,-106.82 46.81,-56.35 33.96,-29.23"/>
<polygon fill="midnightblue" stroke="midnightblue" points="36.98,-27.43 29.65,-19.78 30.61,-30.33 36.98,-27.43"/>
</g>
<!-- Node13 -->
<g id="node13" class="node">
<title>Node13</title>
<g id="a_node13"><a xlink:href="Logger_8h.html" target="_top" xlink:title=" ">
<polygon fill="white" stroke="black" points="262.5,-112.5 262.5,-131.5 373.5,-131.5 373.5,-112.5 262.5,-112.5"/>
<text text-anchor="middle" x="318" y="-119.5" font-family="Helvetica,sans-Serif" font-size="10.00">BayesFilters/Logger.h</text>
</a>
</g>
</g>
<!-- Node5&#45;&gt;Node13 -->
<g id="edge12" class="edge">
<title>Node5&#45;&gt;Node13</title>
<path fill="none" stroke="midnightblue" d="M371.41,-168.4C360.71,-159.31 346.81,-147.49 335.87,-138.19"/>
<polygon fill="midnightblue" stroke="midnightblue" points="338.07,-135.47 328.19,-131.66 333.54,-140.8 338.07,-135.47"/>
</g>
<!-- Node16 -->
<g id="node16" class="node">
<title>Node16</title>
<g id="a_node16"><a xlink:title=" ">
<polygon fill="white" stroke="#bfbfbf" points="425.5,-56.5 425.5,-75.5 466.5,-75.5 466.5,-56.5 425.5,-56.5"/>
<text text-anchor="middle" x="446" y="-63.5" font-family="Helvetica,sans-Serif" font-size="10.00">string</text>
</a>
</g>
</g>
<!-- Node5&#45;&gt;Node16 -->
<g id="edge18" class="edge">
<title>Node5&#45;&gt;Node16</title>
<path fill="none" stroke="midnightblue" d="M394.29,-168.32C400.73,-153.98 411.16,-131.25 421,-112 425.74,-102.73 431.34,-92.59 436.03,-84.28"/>
<polygon fill="midnightblue" stroke="midnightblue" points="439.11,-85.95 441.03,-75.53 433.03,-82.48 439.11,-85.95"/>
</g>
<!-- Node18 -->
<g id="node18" class="node">
<title>Node18</title>
<g id="a_node18"><a xlink:title=" ">
<polygon fill="white" stroke="#bfbfbf" points="430,-112.5 430,-131.5 470,-131.5 470,-112.5 430,-112.5"/>
<text text-anchor="middle" x="450" y="-119.5" font-family="Helvetica,sans-Serif" font-size="10.00">utility</text>
</a>
</g>
</g>
<!-- Node5&#45;&gt;Node18 -->
<g id="edge19" class="edge">
<title>Node5&#45;&gt;Node18</title>
<path fill="none" stroke="midnightblue" d="M402.69,-168.4C411.98,-159.49 424,-147.95 433.6,-138.74"/>
<polygon fill="midnightblue" stroke="midnightblue" points="436.19,-141.11 440.98,-131.66 431.34,-136.06 436.19,-141.11"/>
</g>
<!-- Node5&#45;&gt;Node19 -->
<g id="edge20" class="edge">
<title>Node5&#45;&gt;Node19</title>
<path fill="none" stroke="midnightblue" d="M420.47,-168.4C443.35,-158.46 473.73,-145.26 495.84,-135.66"/>
<polygon fill="midnightblue" stroke="midnightblue" points="497.29,-138.85 505.07,-131.66 494.5,-132.43 497.29,-138.85"/>
</g>
<!-- Node7 -->
<g id="node7" class="node">
<title>Node7</title>
<g id="a_node7"><a xlink:href="any_8h.html" target="_top" xlink:title=" ">
<polygon fill="white" stroke="black" points="107.5,-56.5 107.5,-75.5 204.5,-75.5 204.5,-56.5 107.5,-56.5"/>
<text text-anchor="middle" x="156" y="-63.5" font-family="Helvetica,sans-Serif" font-size="10.00">BayesFilters/any.h</text>
</a>
</g>
</g>
<!-- Node6&#45;&gt;Node7 -->
<g id="edge6" class="edge">
<title>Node6&#45;&gt;Node7</title>
<path fill="none" stroke="midnightblue" d="M172.7,-112.08C170.02,-104.85 166.15,-94.41 162.81,-85.4"/>
<polygon fill="midnightblue" stroke="midnightblue" points="166,-83.91 159.24,-75.75 159.43,-86.34 166,-83.91"/>
</g>
<!-- Node8 -->
<g id="node8" class="node">
<title>Node8</title>
<g id="a_node8"><a xlink:title=" ">
<polygon fill="white" stroke="#bfbfbf" points="70,-0.5 70,-19.5 126,-19.5 126,-0.5 70,-0.5"/>
<text text-anchor="middle" x="98" y="-7.5" font-family="Helvetica,sans-Serif" font-size="10.00">algorithm</text>
</a>
</g>
</g>
<!-- Node7&#45;&gt;Node8 -->
<g id="edge7" class="edge">
<title>Node7&#45;&gt;Node8</title>
<path fill="none" stroke="midnightblue" d="M146.68,-56.32C138.11,-48.34 125.19,-36.31 114.81,-26.65"/>
<polygon fill="midnightblue" stroke="midnightblue" points="117.19,-24.09 107.49,-19.83 112.42,-29.21 117.19,-24.09"/>
</g>
<!-- Node7&#45;&gt;Node9 -->
<g id="edge8" class="edge">
<title>Node7&#45;&gt;Node9</title>
<path fill="none" stroke="midnightblue" d="M135.4,-56.44C114.01,-47.56 80.32,-33.56 55.98,-23.45"/>
<polygon fill="midnightblue" stroke="midnightblue" points="57.08,-20.12 46.5,-19.52 54.39,-26.58 57.08,-20.12"/>
</g>
<!-- Node10 -->
<g id="node10" class="node">
<title>Node10</title>
<g id="a_node10"><a xlink:title=" ">
<polygon fill="white" stroke="#bfbfbf" points="144.5,-0.5 144.5,-19.5 203.5,-19.5 203.5,-0.5 144.5,-0.5"/>
<text text-anchor="middle" x="174" y="-7.5" font-family="Helvetica,sans-Serif" font-size="10.00">stdexcept</text>
</a>
</g>
</g>
<!-- Node7&#45;&gt;Node10 -->
<g id="edge9" class="edge">
<title>Node7&#45;&gt;Node10</title>
<path fill="none" stroke="midnightblue" d="M158.97,-56.08C161.38,-48.85 164.86,-38.41 167.87,-29.4"/>
<polygon fill="midnightblue" stroke="midnightblue" points="171.24,-30.34 171.08,-19.75 164.6,-28.13 171.24,-30.34"/>
</g>
<!-- Node11 -->
<g id="node11" class="node">
<title>Node11</title>
<g id="a_node11"><a xlink:title=" ">
<polygon fill="white" stroke="#bfbfbf" points="221.5,-0.5 221.5,-19.5 272.5,-19.5 272.5,-0.5 221.5,-0.5"/>
<text text-anchor="middle" x="247" y="-7.5" font-family="Helvetica,sans-Serif" font-size="10.00">typeinfo</text>
</a>
</g>
</g>
<!-- Node7&#45;&gt;Node11 -->
<g id="edge10" class="edge">
<title>Node7&#45;&gt;Node11</title>
<path fill="none" stroke="midnightblue" d="M170.62,-56.32C184.95,-47.82 207.01,-34.73 223.75,-24.8"/>
<polygon fill="midnightblue" stroke="midnightblue" points="225.6,-27.77 232.42,-19.65 222.03,-21.75 225.6,-27.77"/>
</g>
<!-- Node12 -->
<g id="node12" class="node">
<title>Node12</title>
<g id="a_node12"><a xlink:title=" ">
<polygon fill="white" stroke="#bfbfbf" points="291,-0.5 291,-19.5 353,-19.5 353,-0.5 291,-0.5"/>
<text text-anchor="middle" x="322" y="-7.5" font-family="Helvetica,sans-Serif" font-size="10.00">type_traits</text>
</a>
</g>
</g>
<!-- Node7&#45;&gt;Node12 -->
<g id="edge11" class="edge">
<title>Node7&#45;&gt;Node12</title>
<path fill="none" stroke="midnightblue" d="M182.3,-56.44C210.35,-47.32 254.94,-32.81 286.18,-22.65"/>
<polygon fill="midnightblue" stroke="midnightblue" points="287.39,-25.94 295.82,-19.52 285.23,-19.28 287.39,-25.94"/>
</g>
<!-- Node14 -->
<g id="node14" class="node">
<title>Node14</title>
<g id="a_node14"><a xlink:title=" ">
<polygon fill="white" stroke="#bfbfbf" points="223,-56.5 223,-75.5 273,-75.5 273,-56.5 223,-56.5"/>
<text text-anchor="middle" x="248" y="-63.5" font-family="Helvetica,sans-Serif" font-size="10.00">fstream</text>
</a>
</g>
</g>
<!-- Node13&#45;&gt;Node14 -->
<g id="edge13" class="edge">
<title>Node13&#45;&gt;Node14</title>
<path fill="none" stroke="midnightblue" d="M306.75,-112.32C296.2,-104.18 280.2,-91.84 267.56,-82.09"/>
<polygon fill="midnightblue" stroke="midnightblue" points="269.51,-79.17 259.45,-75.83 265.23,-84.71 269.51,-79.17"/>
</g>
<!-- Node15 -->
<g id="node15" class="node">
<title>Node15</title>
<g id="a_node15"><a xlink:title=" ">
<polygon fill="white" stroke="#bfbfbf" points="291,-56.5 291,-75.5 345,-75.5 345,-56.5 291,-56.5"/>
<text text-anchor="middle" x="318" y="-63.5" font-family="Helvetica,sans-Serif" font-size="10.00">iostream</text>
</a>
</g>
</g>
<!-- Node13&#45;&gt;Node15 -->
<g id="edge14" class="edge">
<title>Node13&#45;&gt;Node15</title>
<path fill="none" stroke="midnightblue" d="M318,-112.08C318,-105.01 318,-94.86 318,-85.99"/>
<polygon fill="midnightblue" stroke="midnightblue" points="321.5,-85.75 318,-75.75 314.5,-85.75 321.5,-85.75"/>
</g>
<!-- Node13&#45;&gt;Node16 -->
<g id="edge15" class="edge">
<title>Node13&#45;&gt;Node16</title>
<path fill="none" stroke="midnightblue" d="M338.28,-112.44C359.35,-103.56 392.52,-89.56 416.49,-79.45"/>
<polygon fill="midnightblue" stroke="midnightblue" points="417.96,-82.63 425.81,-75.52 415.24,-76.18 417.96,-82.63"/>
</g>
<!-- Node17 -->
<g id="node17" class="node">
<title>Node17</title>
<g id="a_node17"><a xlink:title=" ">
<polygon fill="white" stroke="#bfbfbf" points="363,-56.5 363,-75.5 407,-75.5 407,-56.5 363,-56.5"/>
<text text-anchor="middle" x="385" y="-63.5" font-family="Helvetica,sans-Serif" font-size="10.00">vector</text>
</a>
</g>
</g>
<!-- Node13&#45;&gt;Node17 -->
<g id="edge16" class="edge">
<title>Node13&#45;&gt;Node17</title>
<path fill="none" stroke="midnightblue" d="M328.76,-112.32C338.77,-104.26 353.89,-92.08 365.93,-82.37"/>
<polygon fill="midnightblue" stroke="midnightblue" points="368.45,-84.83 374.04,-75.83 364.06,-79.38 368.45,-84.83"/>
</g>
</g>
</svg>
