<?xml version="1.0" encoding="UTF-8" standalone="no"?>
<!DOCTYPE svg PUBLIC "-//W3C//DTD SVG 1.1//EN"
 "http://www.w3.org/Graphics/SVG/1.1/DTD/svg11.dtd">
<!-- Generated by graphviz version 2.43.0 (0)
 -->
<!-- Title: /home/user/bayes&#45;filters&#45;lib/src/BayesFilters/include/BayesFilters/MeasurementModelDecorator.h Pages: 1 -->
<svg width="843pt" height="285pt"
 viewBox="0.00 0.00 843.00 285.00" xmlns="http://www.w3.org/2000/svg" xmlns:xlink="http://www.w3.org/1999/xlink">
<g id="graph0" class="graph" transform="scale(1 1) rotate(0) translate(4 281)">
<title>/home/user/bayes&#45;filters&#45;lib/src/BayesFilters/include/BayesFilters/MeasurementModelDecorator.h</title>
<polygon fill="white" stroke="transparent" points="-4,4 -4,-281 839,-281 839,4 -4,4"/>
<!-- Node1 -->
<g id="node1" class="node">
<title>Node1</title>
<g id="a_node1"><a xlink:title=" ">
<polygon fill="#bfbfbf" stroke="black" points="570,-235.5 570,-276.5 806,-276.5 806,-235.5 570,-235.5"/>
<text text-anchor="start" x="578" y="-264.5" font-family="Helvetica,sans-Serif" font-size="10.00">/home/user/bayes&#45;filters</text>
<text text-anchor="start" x="578" y="-253.5" font-family="Helvetica,sans-Serif" font-size="10.00">&#45;lib/src/BayesFilters/include</text>
<text text-anchor="middle" x="688" y="-242.5" font-family="Helvetica,sans-Serif" font-size="10.00">/BayesFilters/MeasurementModelDecorator.h</text>
</a>
</g>
</g>
<!-- Node2 -->
<g id="node2" class="node">
<title>Node2</title>
<g id="a_node2"><a xlink:href="MeasurementModel_8h.html" target="_top" xlink:title=" ">
<polygon fill="white" stroke="black" points="522.5,-168.5 522.5,-198.5 669.5,-198.5 669.5,-168.5 522.5,-168.5"/>
<text text-anchor="start" x="530.5" y="-186.5" font-family="Helvetica,sans-Serif" font-size="10.00">BayesFilters/Measurement</text>
<text text-anchor="middle" x="596" y="-175.5" font-family="Helvetica,sans-Serif" font-size="10.00">Model.h</text>
</a>
</g>
</g>
<!-- Node1&#45;&gt;Node2 -->
<g id="edge1" class="edge">
<title>Node1&#45;&gt;Node2</title>
<path fill="none" stroke="midnightblue" d="M662.37,-235.36C650.02,-225.89 635.21,-214.54 622.71,-204.97"/>
<polygon fill="midnightblue" stroke="midnightblue" points="624.56,-201.97 614.49,-198.67 620.3,-207.53 624.56,-201.97"/>
</g>
<!-- Node6 -->
<g id="node6" class="node">
<title>Node6</title>
<g id="a_node6"><a xlink:title=" ">
<polygon fill="white" stroke="#bfbfbf" points="777,-0.5 777,-19.5 835,-19.5 835,-0.5 777,-0.5"/>
<text text-anchor="middle" x="806" y="-7.5" font-family="Helvetica,sans-Serif" font-size="10.00">memory</text>
</a>
</g>
</g>
<!-- Node1&#45;&gt;Node6 -->
<g id="edge20" class="edge">
<title>Node1&#45;&gt;Node6</title>
<path fill="none" stroke="midnightblue" d="M713.62,-235.11C740.65,-212.81 782.64,-174.2 807,-132 824.26,-102.11 829.2,-89.96 823,-56 821.31,-46.76 817.83,-36.95 814.45,-28.85"/>
<polygon fill="midnightblue" stroke="midnightblue" points="817.63,-27.4 810.37,-19.69 811.24,-30.25 817.63,-27.4"/>
</g>
<!-- Node3 -->
<g id="node3" class="node">
<title>Node3</title>
<g id="a_node3"><a xlink:href="Data_8h.html" target="_top" xlink:title=" ">
<polygon fill="white" stroke="black" points="117,-112.5 117,-131.5 229,-131.5 229,-112.5 117,-112.5"/>
<text text-anchor="middle" x="173" y="-119.5" font-family="Helvetica,sans-Serif" font-size="10.00">BayesFilters/Data.h</text>
</a>
</g>
</g>
<!-- Node2&#45;&gt;Node3 -->
<g id="edge2" class="edge">
<title>Node2&#45;&gt;Node3</title>
<path fill="none" stroke="midnightblue" d="M522.32,-172.14C442.47,-160.9 316.19,-143.14 239.33,-132.33"/>
<polygon fill="midnightblue" stroke="midnightblue" points="239.68,-128.84 229.29,-130.92 238.7,-135.78 239.68,-128.84"/>
</g>
<!-- Node2&#45;&gt;Node6 -->
<g id="edge16" class="edge">
<title>Node2&#45;&gt;Node6</title>
<path fill="none" stroke="midnightblue" d="M669.72,-171.5C716.49,-162.97 771.09,-149.64 787,-132 812.44,-103.81 811.63,-56.07 808.82,-29.77"/>
<polygon fill="midnightblue" stroke="midnightblue" points="812.26,-29.11 807.52,-19.64 805.32,-30 812.26,-29.11"/>
</g>
<!-- Node10 -->
<g id="node10" class="node">
<title>Node10</title>
<g id="a_node10"><a xlink:href="Logger_8h.html" target="_top" xlink:title=" ">
<polygon fill="white" stroke="black" points="266.5,-112.5 266.5,-131.5 387.5,-131.5 387.5,-112.5 266.5,-112.5"/>
<text text-anchor="middle" x="327" y="-119.5" font-family="Helvetica,sans-Serif" font-size="10.00">BayesFilters/Logger.h</text>
</a>
</g>
</g>
<!-- Node2&#45;&gt;Node10 -->
<g id="edge9" class="edge">
<title>Node2&#45;&gt;Node10</title>
<path fill="none" stroke="midnightblue" d="M532.59,-168.47C484.46,-157.83 419.29,-143.41 375.33,-133.69"/>
<polygon fill="midnightblue" stroke="midnightblue" points="375.98,-130.25 365.46,-131.51 374.47,-137.08 375.98,-130.25"/>
</g>
<!-- Node13 -->
<g id="node13" class="node">
<title>Node13</title>
<g id="a_node13"><a xlink:title=" ">
<polygon fill="white" stroke="#bfbfbf" points="442,-56.5 442,-75.5 486,-75.5 486,-56.5 442,-56.5"/>
<text text-anchor="middle" x="464" y="-63.5" font-family="Helvetica,sans-Serif" font-size="10.00">string</text>
</a>
</g>
</g>
<!-- Node2&#45;&gt;Node13 -->
<g id="edge17" class="edge">
<title>Node2&#45;&gt;Node13</title>
<path fill="none" stroke="midnightblue" d="M522.29,-178.08C490.4,-172.06 455.89,-159.13 436,-132 425.05,-117.06 436.7,-97.18 448.13,-83.36"/>
<polygon fill="midnightblue" stroke="midnightblue" points="450.98,-85.43 455.02,-75.63 445.75,-80.77 450.98,-85.43"/>
</g>
<!-- Node15 -->
<g id="node15" class="node">
<title>Node15</title>
<g id="a_node15"><a xlink:href="VectorDescription_8h.html" target="_top" xlink:title=" ">
<polygon fill="white" stroke="black" points="444.5,-112.5 444.5,-131.5 619.5,-131.5 619.5,-112.5 444.5,-112.5"/>
<text text-anchor="middle" x="532" y="-119.5" font-family="Helvetica,sans-Serif" font-size="10.00">BayesFilters/VectorDescription.h</text>
</a>
</g>
</g>
<!-- Node2&#45;&gt;Node15 -->
<g id="edge14" class="edge">
<title>Node2&#45;&gt;Node15</title>
<path fill="none" stroke="midnightblue" d="M580.83,-168.4C571.25,-159.49 558.84,-147.95 548.93,-138.74"/>
<polygon fill="midnightblue" stroke="midnightblue" points="551.02,-135.9 541.31,-131.66 546.25,-141.03 551.02,-135.9"/>
</g>
<!-- Node17 -->
<g id="node17" class="node">
<title>Node17</title>
<g id="a_node17"><a xlink:title=" ">
<polygon fill="white" stroke="#bfbfbf" points="637.5,-112.5 637.5,-131.5 682.5,-131.5 682.5,-112.5 637.5,-112.5"/>
<text text-anchor="middle" x="660" y="-119.5" font-family="Helvetica,sans-Serif" font-size="10.00">utility</text>
</a>
</g>
</g>
<!-- Node2&#45;&gt;Node17 -->
<g id="edge18" class="edge">
<title>Node2&#45;&gt;Node17</title>
<path fill="none" stroke="midnightblue" d="M611.17,-168.4C620.75,-159.49 633.16,-147.95 643.07,-138.74"/>
<polygon fill="midnightblue" stroke="midnightblue" points="645.75,-141.03 650.69,-131.66 640.98,-135.9 645.75,-141.03"/>
</g>
<!-- Node18 -->
<g id="node18" class="node">
<title>Node18</title>
<g id="a_node18"><a xlink:title=" ">
<polygon fill="white" stroke="#bfbfbf" points="700.5,-112.5 700.5,-131.5 777.5,-131.5 777.5,-112.5 700.5,-112.5"/>
<text text-anchor="middle" x="739" y="-119.5" font-family="Helvetica,sans-Serif" font-size="10.00">Eigen/Dense</text>
</a>
</g>
</g>
<!-- Node2&#45;&gt;Node18 -->
<g id="edge19" class="edge">
<title>Node2&#45;&gt;Node18</title>
<path fill="none" stroke="midnightblue" d="M629.89,-168.4C653.88,-158.42 685.77,-145.15 708.88,-135.53"/>
<polygon fill="midnightblue" stroke="midnightblue" points="710.3,-138.73 718.19,-131.66 707.61,-132.27 710.3,-138.73"/>
</g>
<!-- Node4 -->
<g id="node4" class="node">
<title>Node4</title>
<g id="a_node4"><a xlink:href="any_8h.html" target="_top" xlink:title=" ">
<polygon fill="white" stroke="black" points="101.5,-56.5 101.5,-75.5 206.5,-75.5 206.5,-56.5 101.5,-56.5"/>
<text text-anchor="middle" x="154" y="-63.5" font-family="Helvetica,sans-Serif" font-size="10.00">BayesFilters/any.h</text>
</a>
</g>
</g>
<!-- Node3&#45;&gt;Node4 -->
<g id="edge3" class="edge">
<title>Node3&#45;&gt;Node4</title>
<path fill="none" stroke="midnightblue" d="M169.86,-112.08C167.32,-104.85 163.64,-94.41 160.47,-85.4"/>
<polygon fill="midnightblue" stroke="midnightblue" points="163.7,-84.02 157.08,-75.75 157.1,-86.35 163.7,-84.02"/>
</g>
<!-- Node5 -->
<g id="node5" class="node">
<title>Node5</title>
<g id="a_node5"><a xlink:title=" ">
<polygon fill="white" stroke="#bfbfbf" points="0,-0.5 0,-19.5 64,-19.5 64,-0.5 0,-0.5"/>
<text text-anchor="middle" x="32" y="-7.5" font-family="Helvetica,sans-Serif" font-size="10.00">algorithm</text>
</a>
</g>
</g>
<!-- Node4&#45;&gt;Node5 -->
<g id="edge4" class="edge">
<title>Node4&#45;&gt;Node5</title>
<path fill="none" stroke="midnightblue" d="M134.67,-56.44C114.68,-47.6 83.26,-33.69 60.44,-23.59"/>
<polygon fill="midnightblue" stroke="midnightblue" points="61.8,-20.36 51.24,-19.52 58.97,-26.76 61.8,-20.36"/>
</g>
<!-- Node4&#45;&gt;Node6 -->
<g id="edge5" class="edge">
<title>Node4&#45;&gt;Node6</title>
<path fill="none" stroke="midnightblue" d="M206.73,-57.1C209.87,-56.7 212.97,-56.33 216,-56 422.92,-33.12 671.96,-18.26 766.77,-13.07"/>
<polygon fill="midnightblue" stroke="midnightblue" points="766.98,-16.56 776.77,-12.52 766.6,-9.57 766.98,-16.56"/>
</g>
<!-- Node7 -->
<g id="node7" class="node">
<title>Node7</title>
<g id="a_node7"><a xlink:title=" ">
<polygon fill="white" stroke="#bfbfbf" points="82.5,-0.5 82.5,-19.5 147.5,-19.5 147.5,-0.5 82.5,-0.5"/>
<text text-anchor="middle" x="115" y="-7.5" font-family="Helvetica,sans-Serif" font-size="10.00">stdexcept</text>
</a>
</g>
</g>
<!-- Node4&#45;&gt;Node7 -->
<g id="edge6" class="edge">
<title>Node4&#45;&gt;Node7</title>
<path fill="none" stroke="midnightblue" d="M147.56,-56.08C142.05,-48.46 133.97,-37.26 127.24,-27.94"/>
<polygon fill="midnightblue" stroke="midnightblue" points="130.01,-25.81 121.32,-19.75 124.34,-29.91 130.01,-25.81"/>
</g>
<!-- Node8 -->
<g id="node8" class="node">
<title>Node8</title>
<g id="a_node8"><a xlink:title=" ">
<polygon fill="white" stroke="#bfbfbf" points="165.5,-0.5 165.5,-19.5 222.5,-19.5 222.5,-0.5 165.5,-0.5"/>
<text text-anchor="middle" x="194" y="-7.5" font-family="Helvetica,sans-Serif" font-size="10.00">typeinfo</text>
</a>
</g>
</g>
<!-- Node4&#45;&gt;Node8 -->
<g id="edge7" class="edge">
<title>Node4&#45;&gt;Node8</title>
<path fill="none" stroke="midnightblue" d="M160.61,-56.08C166.26,-48.46 174.54,-37.26 181.45,-27.94"/>
<polygon fill="midnightblue" stroke="midnightblue" points="184.38,-29.87 187.52,-19.75 178.75,-25.7 184.38,-29.87"/>
</g>
<!-- Node9 -->
<g id="node9" class="node">
<title>Node9</title>
<g id="a_node9"><a xlink:title=" ">
<polygon fill="white" stroke="#bfbfbf" points="240.5,-0.5 240.5,-19.5 309.5,-19.5 309.5,-0.5 240.5,-0.5"/>
<text text-anchor="middle" x="275" y="-7.5" font-family="Helvetica,sans-Serif" font-size="10.00">type_traits</text>
</a>
</g>
</g>
<!-- Node4&#45;&gt;Node9 -->
<g id="edge8" class="edge">
<title>Node4&#45;&gt;Node9</title>
<path fill="none" stroke="midnightblue" d="M173.17,-56.44C192.91,-47.64 223.89,-33.81 246.49,-23.72"/>
<polygon fill="midnightblue" stroke="midnightblue" points="248.21,-26.79 255.92,-19.52 245.36,-20.4 248.21,-26.79"/>
</g>
<!-- Node11 -->
<g id="node11" class="node">
<title>Node11</title>
<g id="a_node11"><a xlink:title=" ">
<polygon fill="white" stroke="#bfbfbf" points="368.5,-56.5 368.5,-75.5 423.5,-75.5 423.5,-56.5 368.5,-56.5"/>
<text text-anchor="middle" x="396" y="-63.5" font-family="Helvetica,sans-Serif" font-size="10.00">fstream</text>
</a>
</g>
</g>
<!-- Node10&#45;&gt;Node11 -->
<g id="edge10" class="edge">
<title>Node10&#45;&gt;Node11</title>
<path fill="none" stroke="midnightblue" d="M338.09,-112.32C348.49,-104.18 364.26,-91.84 376.72,-82.09"/>
<polygon fill="midnightblue" stroke="midnightblue" points="378.99,-84.75 384.71,-75.83 374.68,-79.24 378.99,-84.75"/>
</g>
<!-- Node12 -->
<g id="node12" class="node">
<title>Node12</title>
<g id="a_node12"><a xlink:title=" ">
<polygon fill="white" stroke="#bfbfbf" points="225,-56.5 225,-75.5 285,-75.5 285,-56.5 225,-56.5"/>
<text text-anchor="middle" x="255" y="-63.5" font-family="Helvetica,sans-Serif" font-size="10.00">iostream</text>
</a>
</g>
</g>
<!-- Node10&#45;&gt;Node12 -->
<g id="edge11" class="edge">
<title>Node10&#45;&gt;Node12</title>
<path fill="none" stroke="midnightblue" d="M315.43,-112.32C304.58,-104.18 288.12,-91.84 275.12,-82.09"/>
<polygon fill="midnightblue" stroke="midnightblue" points="276.88,-79.03 266.78,-75.83 272.68,-84.63 276.88,-79.03"/>
</g>
<!-- Node10&#45;&gt;Node13 -->
<g id="edge12" class="edge">
<title>Node10&#45;&gt;Node13</title>
<path fill="none" stroke="midnightblue" d="M348.71,-112.44C371.35,-103.52 407.07,-89.44 432.75,-79.32"/>
<polygon fill="midnightblue" stroke="midnightblue" points="434.37,-82.44 442.39,-75.52 431.81,-75.93 434.37,-82.44"/>
</g>
<!-- Node14 -->
<g id="node14" class="node">
<title>Node14</title>
<g id="a_node14"><a xlink:title=" ">
<polygon fill="white" stroke="#bfbfbf" points="303.5,-56.5 303.5,-75.5 350.5,-75.5 350.5,-56.5 303.5,-56.5"/>
<text text-anchor="middle" x="327" y="-63.5" font-family="Helvetica,sans-Serif" font-size="10.00">vector</text>
</a>
</g>
</g>
<!-- Node10&#45;&gt;Node14 -->
<g id="edge13" class="edge">
<title>Node10&#45;&gt;Node14</title>
<path fill="none" stroke="midnightblue" d="M327,-112.08C327,-105.01 327,-94.86 327,-85.99"/>
<polygon fill="midnightblue" stroke="midnightblue" points="330.5,-85.75 327,-75.75 323.5,-85.75 330.5,-85.75"/>
</g>
<!-- Node16 -->
<g id="node16" class="node">
<title>Node16</title>
<g id="a_node16"><a xlink:title=" ">
<polygon fill="white" stroke="#bfbfbf" points="505.5,-56.5 505.5,-75.5 558.5,-75.5 558.5,-56.5 505.5,-56.5"/>
<text text-anchor="middle" x="532" y="-63.5" font-family="Helvetica,sans-Serif" font-size="10.00">cstddef</text>
</a>
</g>
</g>
<!-- Node15&#45;&gt;Node16 -->
<g id="edge15" class="edge">
<title>Node15&#45;&gt;Node16</title>
<path fill="none" stroke="midnightblue" d="M532,-112.08C532,-105.01 532,-94.86 532,-85.99"/>
<polygon fill="midnightblue" stroke="midnightblue" points="535.5,-85.75 532,-75.75 528.5,-85.75 535.5,-85.75"/>
</g>
</g>
</svg>
