<?xml version="1.0" encoding="UTF-8" standalone="no"?>
<!DOCTYPE svg PUBLIC "-//W3C//DTD SVG 1.1//EN"
 "http://www.w3.org/Graphics/SVG/1.1/DTD/svg11.dtd">
<!-- Generated by graphviz version 2.47.2 (0)
 -->
<!-- Title: /home/xenvre/robot&#45;code/bfl_robotology/src/BayesFilters/include/BayesFilters/MeasurementModel.h Pages: 1 -->
<svg width="570pt" height="229pt"
 viewBox="0.00 0.00 569.50 229.00" xmlns="http://www.w3.org/2000/svg" xmlns:xlink="http://www.w3.org/1999/xlink">
<g id="graph0" class="graph" transform="scale(1 1) rotate(0) translate(4 225)">
<title>/home/xenvre/robot&#45;code/bfl_robotology/src/BayesFilters/include/BayesFilters/MeasurementModel.h</title>
<polygon fill="white" stroke="transparent" points="-4,4 -4,-225 565.5,-225 565.5,4 -4,4"/>
<!-- Node1 -->
<g id="node1" class="node">
<title>Node1</title>
<g id="a_node1"><a xlink:title=" ">
<polygon fill="#bfbfbf" stroke="black" points="274.5,-168.5 274.5,-220.5 445.5,-220.5 445.5,-168.5 274.5,-168.5"/>
<text text-anchor="start" x="282.5" y="-208.5" font-family="Helvetica,sans-Serif" font-size="10.00">/home/xenvre/robot</text>
<text text-anchor="start" x="282.5" y="-197.5" font-family="Helvetica,sans-Serif" font-size="10.00">&#45;code/bfl_robotology</text>
<text text-anchor="start" x="282.5" y="-186.5" font-family="Helvetica,sans-Serif" font-size="10.00">/src/BayesFilters/include</text>
<text text-anchor="middle" x="360" y="-175.5" font-family="Helvetica,sans-Serif" font-size="10.00">/BayesFilters/MeasurementModel.h</text>
</a>
</g>
</g>
<!-- Node2 -->
<g id="node2" class="node">
<title>Node2</title>
<g id="a_node2"><a xlink:href="Data_8h.html" target="_top" xlink:title=" ">
<polygon fill="white" stroke="black" points="124,-112.5 124,-131.5 228,-131.5 228,-112.5 124,-112.5"/>
<text text-anchor="middle" x="176" y="-119.5" font-family="Helvetica,sans-Serif" font-size="10.00">BayesFilters/Data.h</text>
</a>
</g>
</g>
<!-- Node1&#45;&gt;Node2 -->
<g id="edge1" class="edge">
<title>Node1&#45;&gt;Node2</title>
<path fill="none" stroke="midnightblue" d="M294.61,-168.45C265.15,-157.16 231.7,-144.34 207.85,-135.2"/>
<polygon fill="midnightblue" stroke="midnightblue" points="208.85,-131.84 198.25,-131.53 206.34,-138.37 208.85,-131.84"/>
</g>
<!-- Node5 -->
<g id="node5" class="node">
<title>Node5</title>
<g id="a_node5"><a xlink:title=" ">
<polygon fill="white" stroke="#bfbfbf" points="0,-0.5 0,-19.5 52,-19.5 52,-0.5 0,-0.5"/>
<text text-anchor="middle" x="26" y="-7.5" font-family="Helvetica,sans-Serif" font-size="10.00">memory</text>
</a>
</g>
</g>
<!-- Node1&#45;&gt;Node5 -->
<g id="edge13" class="edge">
<title>Node1&#45;&gt;Node5</title>
<path fill="none" stroke="midnightblue" d="M274.48,-186.52C224.53,-179.08 162.24,-163.72 115,-132 75.63,-105.56 47.28,-55.63 34.16,-28.92"/>
<polygon fill="midnightblue" stroke="midnightblue" points="37.2,-27.15 29.76,-19.62 30.88,-30.15 37.2,-27.15"/>
</g>
<!-- Node9 -->
<g id="node9" class="node">
<title>Node9</title>
<g id="a_node9"><a xlink:href="Logger_8h.html" target="_top" xlink:title=" ">
<polygon fill="white" stroke="black" points="262.5,-112.5 262.5,-131.5 373.5,-131.5 373.5,-112.5 262.5,-112.5"/>
<text text-anchor="middle" x="318" y="-119.5" font-family="Helvetica,sans-Serif" font-size="10.00">BayesFilters/Logger.h</text>
</a>
</g>
</g>
<!-- Node1&#45;&gt;Node9 -->
<g id="edge8" class="edge">
<title>Node1&#45;&gt;Node9</title>
<path fill="none" stroke="midnightblue" d="M345.07,-168.45C339.52,-159.13 333.35,-148.77 328.31,-140.3"/>
<polygon fill="midnightblue" stroke="midnightblue" points="331.31,-138.5 323.18,-131.7 325.29,-142.08 331.31,-138.5"/>
</g>
<!-- Node12 -->
<g id="node12" class="node">
<title>Node12</title>
<g id="a_node12"><a xlink:title=" ">
<polygon fill="white" stroke="#bfbfbf" points="425.5,-56.5 425.5,-75.5 466.5,-75.5 466.5,-56.5 425.5,-56.5"/>
<text text-anchor="middle" x="446" y="-63.5" font-family="Helvetica,sans-Serif" font-size="10.00">string</text>
</a>
</g>
</g>
<!-- Node1&#45;&gt;Node12 -->
<g id="edge14" class="edge">
<title>Node1&#45;&gt;Node12</title>
<path fill="none" stroke="midnightblue" d="M377.2,-168.2C394.19,-143.21 419.72,-105.66 434.43,-84.02"/>
<polygon fill="midnightblue" stroke="midnightblue" points="437.46,-85.79 440.19,-75.55 431.67,-81.85 437.46,-85.79"/>
</g>
<!-- Node14 -->
<g id="node14" class="node">
<title>Node14</title>
<g id="a_node14"><a xlink:title=" ">
<polygon fill="white" stroke="#bfbfbf" points="430,-112.5 430,-131.5 470,-131.5 470,-112.5 430,-112.5"/>
<text text-anchor="middle" x="450" y="-119.5" font-family="Helvetica,sans-Serif" font-size="10.00">utility</text>
</a>
</g>
</g>
<!-- Node1&#45;&gt;Node14 -->
<g id="edge15" class="edge">
<title>Node1&#45;&gt;Node14</title>
<path fill="none" stroke="midnightblue" d="M391.98,-168.45C405.03,-158.23 419.67,-146.76 430.98,-137.9"/>
<polygon fill="midnightblue" stroke="midnightblue" points="433.19,-140.62 438.9,-131.7 428.87,-135.11 433.19,-140.62"/>
</g>
<!-- Node15 -->
<g id="node15" class="node">
<title>Node15</title>
<g id="a_node15"><a xlink:title=" ">
<polygon fill="white" stroke="#bfbfbf" points="488.5,-112.5 488.5,-131.5 561.5,-131.5 561.5,-112.5 488.5,-112.5"/>
<text text-anchor="middle" x="525" y="-119.5" font-family="Helvetica,sans-Serif" font-size="10.00">Eigen/Dense</text>
</a>
</g>
</g>
<!-- Node1&#45;&gt;Node15 -->
<g id="edge16" class="edge">
<title>Node1&#45;&gt;Node15</title>
<path fill="none" stroke="midnightblue" d="M418.64,-168.45C444.71,-157.31 474.25,-144.68 495.58,-135.57"/>
<polygon fill="midnightblue" stroke="midnightblue" points="497.22,-138.67 505.04,-131.53 494.47,-132.24 497.22,-138.67"/>
</g>
<!-- Node3 -->
<g id="node3" class="node">
<title>Node3</title>
<g id="a_node3"><a xlink:href="any_8h.html" target="_top" xlink:title=" ">
<polygon fill="white" stroke="black" points="107.5,-56.5 107.5,-75.5 204.5,-75.5 204.5,-56.5 107.5,-56.5"/>
<text text-anchor="middle" x="156" y="-63.5" font-family="Helvetica,sans-Serif" font-size="10.00">BayesFilters/any.h</text>
</a>
</g>
</g>
<!-- Node2&#45;&gt;Node3 -->
<g id="edge2" class="edge">
<title>Node2&#45;&gt;Node3</title>
<path fill="none" stroke="midnightblue" d="M172.7,-112.08C170.02,-104.85 166.15,-94.41 162.81,-85.4"/>
<polygon fill="midnightblue" stroke="midnightblue" points="166,-83.91 159.24,-75.75 159.43,-86.34 166,-83.91"/>
</g>
<!-- Node4 -->
<g id="node4" class="node">
<title>Node4</title>
<g id="a_node4"><a xlink:title=" ">
<polygon fill="white" stroke="#bfbfbf" points="70,-0.5 70,-19.5 126,-19.5 126,-0.5 70,-0.5"/>
<text text-anchor="middle" x="98" y="-7.5" font-family="Helvetica,sans-Serif" font-size="10.00">algorithm</text>
</a>
</g>
</g>
<!-- Node3&#45;&gt;Node4 -->
<g id="edge3" class="edge">
<title>Node3&#45;&gt;Node4</title>
<path fill="none" stroke="midnightblue" d="M146.68,-56.32C138.11,-48.34 125.19,-36.31 114.81,-26.65"/>
<polygon fill="midnightblue" stroke="midnightblue" points="117.19,-24.09 107.49,-19.83 112.42,-29.21 117.19,-24.09"/>
</g>
<!-- Node3&#45;&gt;Node5 -->
<g id="edge4" class="edge">
<title>Node3&#45;&gt;Node5</title>
<path fill="none" stroke="midnightblue" d="M135.4,-56.44C114.01,-47.56 80.32,-33.56 55.98,-23.45"/>
<polygon fill="midnightblue" stroke="midnightblue" points="57.08,-20.12 46.5,-19.52 54.39,-26.58 57.08,-20.12"/>
</g>
<!-- Node6 -->
<g id="node6" class="node">
<title>Node6</title>
<g id="a_node6"><a xlink:title=" ">
<polygon fill="white" stroke="#bfbfbf" points="144.5,-0.5 144.5,-19.5 203.5,-19.5 203.5,-0.5 144.5,-0.5"/>
<text text-anchor="middle" x="174" y="-7.5" font-family="Helvetica,sans-Serif" font-size="10.00">stdexcept</text>
</a>
</g>
</g>
<!-- Node3&#45;&gt;Node6 -->
<g id="edge5" class="edge">
<title>Node3&#45;&gt;Node6</title>
<path fill="none" stroke="midnightblue" d="M158.97,-56.08C161.38,-48.85 164.86,-38.41 167.87,-29.4"/>
<polygon fill="midnightblue" stroke="midnightblue" points="171.24,-30.34 171.08,-19.75 164.6,-28.13 171.24,-30.34"/>
</g>
<!-- Node7 -->
<g id="node7" class="node">
<title>Node7</title>
<g id="a_node7"><a xlink:title=" ">
<polygon fill="white" stroke="#bfbfbf" points="221.5,-0.5 221.5,-19.5 272.5,-19.5 272.5,-0.5 221.5,-0.5"/>
<text text-anchor="middle" x="247" y="-7.5" font-family="Helvetica,sans-Serif" font-size="10.00">typeinfo</text>
</a>
</g>
</g>
<!-- Node3&#45;&gt;Node7 -->
<g id="edge6" class="edge">
<title>Node3&#45;&gt;Node7</title>
<path fill="none" stroke="midnightblue" d="M170.62,-56.32C184.95,-47.82 207.01,-34.73 223.75,-24.8"/>
<polygon fill="midnightblue" stroke="midnightblue" points="225.6,-27.77 232.42,-19.65 222.03,-21.75 225.6,-27.77"/>
</g>
<!-- Node8 -->
<g id="node8" class="node">
<title>Node8</title>
<g id="a_node8"><a xlink:title=" ">
<polygon fill="white" stroke="#bfbfbf" points="291,-0.5 291,-19.5 353,-19.5 353,-0.5 291,-0.5"/>
<text text-anchor="middle" x="322" y="-7.5" font-family="Helvetica,sans-Serif" font-size="10.00">type_traits</text>
</a>
</g>
</g>
<!-- Node3&#45;&gt;Node8 -->
<g id="edge7" class="edge">
<title>Node3&#45;&gt;Node8</title>
<path fill="none" stroke="midnightblue" d="M182.3,-56.44C210.35,-47.32 254.94,-32.81 286.18,-22.65"/>
<polygon fill="midnightblue" stroke="midnightblue" points="287.39,-25.94 295.82,-19.52 285.23,-19.28 287.39,-25.94"/>
</g>
<!-- Node10 -->
<g id="node10" class="node">
<title>Node10</title>
<g id="a_node10"><a xlink:title=" ">
<polygon fill="white" stroke="#bfbfbf" points="223,-56.5 223,-75.5 273,-75.5 273,-56.5 223,-56.5"/>
<text text-anchor="middle" x="248" y="-63.5" font-family="Helvetica,sans-Serif" font-size="10.00">fstream</text>
</a>
</g>
</g>
<!-- Node9&#45;&gt;Node10 -->
<g id="edge9" class="edge">
<title>Node9&#45;&gt;Node10</title>
<path fill="none" stroke="midnightblue" d="M306.75,-112.32C296.2,-104.18 280.2,-91.84 267.56,-82.09"/>
<polygon fill="midnightblue" stroke="midnightblue" points="269.51,-79.17 259.45,-75.83 265.23,-84.71 269.51,-79.17"/>
</g>
<!-- Node11 -->
<g id="node11" class="node">
<title>Node11</title>
<g id="a_node11"><a xlink:title=" ">
<polygon fill="white" stroke="#bfbfbf" points="291,-56.5 291,-75.5 345,-75.5 345,-56.5 291,-56.5"/>
<text text-anchor="middle" x="318" y="-63.5" font-family="Helvetica,sans-Serif" font-size="10.00">iostream</text>
</a>
</g>
</g>
<!-- Node9&#45;&gt;Node11 -->
<g id="edge10" class="edge">
<title>Node9&#45;&gt;Node11</title>
<path fill="none" stroke="midnightblue" d="M318,-112.08C318,-105.01 318,-94.86 318,-85.99"/>
<polygon fill="midnightblue" stroke="midnightblue" points="321.5,-85.75 318,-75.75 314.5,-85.75 321.5,-85.75"/>
</g>
<!-- Node9&#45;&gt;Node12 -->
<g id="edge11" class="edge">
<title>Node9&#45;&gt;Node12</title>
<path fill="none" stroke="midnightblue" d="M338.28,-112.44C359.35,-103.56 392.52,-89.56 416.49,-79.45"/>
<polygon fill="midnightblue" stroke="midnightblue" points="417.96,-82.63 425.81,-75.52 415.24,-76.18 417.96,-82.63"/>
</g>
<!-- Node13 -->
<g id="node13" class="node">
<title>Node13</title>
<g id="a_node13"><a xlink:title=" ">
<polygon fill="white" stroke="#bfbfbf" points="363,-56.5 363,-75.5 407,-75.5 407,-56.5 363,-56.5"/>
<text text-anchor="middle" x="385" y="-63.5" font-family="Helvetica,sans-Serif" font-size="10.00">vector</text>
</a>
</g>
</g>
<!-- Node9&#45;&gt;Node13 -->
<g id="edge12" class="edge">
<title>Node9&#45;&gt;Node13</title>
<path fill="none" stroke="midnightblue" d="M328.76,-112.32C338.77,-104.26 353.89,-92.08 365.93,-82.37"/>
<polygon fill="midnightblue" stroke="midnightblue" points="368.45,-84.83 374.04,-75.83 364.06,-79.38 368.45,-84.83"/>
</g>
</g>
</svg>
