<?xml version="1.0" encoding="UTF-8" standalone="no"?>
<!DOCTYPE svg PUBLIC "-//W3C//DTD SVG 1.1//EN"
 "http://www.w3.org/Graphics/SVG/1.1/DTD/svg11.dtd">
<!-- Generated by graphviz version 2.43.0 (0)
 -->
<!-- Title: /home/user/bayes&#45;filters&#45;lib/src/BayesFilters/include/BayesFilters/MeasurementModel.h Pages: 1 -->
<!--zoomable 218 -->
<svg id="main" version="1.1" xmlns="http://www.w3.org/2000/svg" xmlns:xlink="http://www.w3.org/1999/xlink" xml:space="preserve" onload="init(evt)">
<style type="text/css"><![CDATA[
.edge:hover path { stroke: red; }
.edge:hover polygon { stroke: red; fill: red; }
]]></style>
<script type="text/javascript"><![CDATA[
var edges = document.getElementsByTagName('g');
if (edges && edges.length) {
  for (var i=0;i<edges.length;i++) {
    if (edges[i].id.substr(0,4)=='edge') {
      edges[i].setAttribute('class','edge');
    }
  }
}
]]></script>
        <defs>
                <circle id="rim" cx="0" cy="0" r="7"/>
                <circle id="rim2" cx="0" cy="0" r="3.5"/>
                <g id="zoomPlus">
                        <use xlink:href="#rim" fill="#404040">
                                <set attributeName="fill" to="#808080" begin="zoomplus.mouseover" end="zoomplus.mouseout"/>
                        </use>
                        <path d="M-4,0h8M0,-4v8" fill="none" stroke="white" stroke-width="1.5" pointer-events="none"/>
                </g>
                <g id="zoomMin">
                        <use xlink:href="#rim" fill="#404040">
                                <set attributeName="fill" to="#808080" begin="zoomminus.mouseover" end="zoomminus.mouseout"/>
                        </use>
                        <path d="M-4,0h8" fill="none" stroke="white" stroke-width="1.5" pointer-events="none"/>
                </g>
                <g id="dirArrow">
                        <path fill="none" stroke="white" stroke-width="1.5" d="M0,-3.0v7 M-2.5,-0.5L0,-3.0L2.5,-0.5"/>
                </g>
               <g id="resetDef">
                       <use xlink:href="#rim2" fill="#404040">
                               <set attributeName="fill" to="#808080" begin="reset.mouseover" end="reset.mouseout"/>
                       </use>
               </g>
        </defs>

<script type="text/javascript">
var viewWidth = 803;
var viewHeight = 218;
var sectionId = 'dynsection-0';
</script>
<script xlink:href="svgpan.js"/>
<svg id="graph" class="graph">
<g id="viewport">
<title>/home/user/bayes&#45;filters&#45;lib/src/BayesFilters/include/BayesFilters/MeasurementModel.h</title>
<polygon fill="white" stroke="transparent" points="-4,4 -4,-214 798.5,-214 798.5,4 -4,4"/>
<!-- Node1 -->
<g id="node1" class="node">
<title>Node1</title>
<g id="a_node1"><a xlink:title=" ">
<polygon fill="#bfbfbf" stroke="black" points="338.5,-168.5 338.5,-209.5 527.5,-209.5 527.5,-168.5 338.5,-168.5"/>
<text text-anchor="start" x="346.5" y="-197.5" font-family="Helvetica,sans-Serif" font-size="10.00">/home/user/bayes&#45;filters</text>
<text text-anchor="start" x="346.5" y="-186.5" font-family="Helvetica,sans-Serif" font-size="10.00">&#45;lib/src/BayesFilters/include</text>
<text text-anchor="middle" x="433" y="-175.5" font-family="Helvetica,sans-Serif" font-size="10.00">/BayesFilters/MeasurementModel.h</text>
</a>
</g>
</g>
<!-- Node2 -->
<g id="node2" class="node">
<title>Node2</title>
<g id="a_node2"><a xlink:href="Data_8h.html" target="_top" xlink:title=" ">
<polygon fill="white" stroke="black" points="135,-112.5 135,-131.5 247,-131.5 247,-112.5 135,-112.5"/>
<text text-anchor="middle" x="191" y="-119.5" font-family="Helvetica,sans-Serif" font-size="10.00">BayesFilters/Data.h</text>
</a>
</g>
</g>
<!-- Node1&#45;&gt;Node2 -->
<g id="edge1" class="edge">
<title>Node1&#45;&gt;Node2</title>
<path fill="none" stroke="midnightblue" d="M360.39,-168.5C318.7,-157.3 267.84,-143.64 232.79,-134.22"/>
<polygon fill="midnightblue" stroke="midnightblue" points="233.46,-130.78 222.9,-131.57 231.65,-137.54 233.46,-130.78"/>
</g>
<!-- Node5 -->
<g id="node5" class="node">
<title>Node5</title>
<g id="a_node5"><a xlink:title=" ">
<polygon fill="white" stroke="#bfbfbf" points="0,-0.5 0,-19.5 58,-19.5 58,-0.5 0,-0.5"/>
<text text-anchor="middle" x="29" y="-7.5" font-family="Helvetica,sans-Serif" font-size="10.00">memory</text>
</a>
</g>
</g>
<!-- Node1&#45;&gt;Node5 -->
<g id="edge15" class="edge">
<title>Node1&#45;&gt;Node5</title>
<path fill="none" stroke="midnightblue" d="M338.16,-178.04C261.63,-168.67 161.13,-152.95 126,-132 83.76,-106.81 52.41,-55.96 37.92,-28.9"/>
<polygon fill="midnightblue" stroke="midnightblue" points="40.91,-27.06 33.2,-19.79 34.7,-30.28 40.91,-27.06"/>
</g>
<!-- Node9 -->
<g id="node9" class="node">
<title>Node9</title>
<g id="a_node9"><a xlink:href="Logger_8h.html" target="_top" xlink:title=" ">
<polygon fill="white" stroke="black" points="283.5,-112.5 283.5,-131.5 404.5,-131.5 404.5,-112.5 283.5,-112.5"/>
<text text-anchor="middle" x="344" y="-119.5" font-family="Helvetica,sans-Serif" font-size="10.00">BayesFilters/Logger.h</text>
</a>
</g>
</g>
<!-- Node1&#45;&gt;Node9 -->
<g id="edge8" class="edge">
<title>Node1&#45;&gt;Node9</title>
<path fill="none" stroke="midnightblue" d="M406.3,-168.5C392.78,-158.63 376.65,-146.84 364.18,-137.74"/>
<polygon fill="midnightblue" stroke="midnightblue" points="365.99,-134.72 355.85,-131.65 361.86,-140.38 365.99,-134.72"/>
</g>
<!-- Node12 -->
<g id="node12" class="node">
<title>Node12</title>
<g id="a_node12"><a xlink:title=" ">
<polygon fill="white" stroke="#bfbfbf" points="458,-56.5 458,-75.5 502,-75.5 502,-56.5 458,-56.5"/>
<text text-anchor="middle" x="480" y="-63.5" font-family="Helvetica,sans-Serif" font-size="10.00">string</text>
</a>
</g>
</g>
<!-- Node1&#45;&gt;Node12 -->
<g id="edge16" class="edge">
<title>Node1&#45;&gt;Node12</title>
<path fill="none" stroke="midnightblue" d="M436.55,-168.45C439.77,-152.8 445.21,-130.48 453,-112 457.07,-102.34 462.93,-92.28 468.15,-84.13"/>
<polygon fill="midnightblue" stroke="midnightblue" points="471.22,-85.84 473.85,-75.57 465.39,-81.96 471.22,-85.84"/>
</g>
<!-- Node14 -->
<g id="node14" class="node">
<title>Node14</title>
<g id="a_node14"><a xlink:href="VectorDescription_8h.html" target="_top" xlink:title=" ">
<polygon fill="white" stroke="black" points="461.5,-112.5 461.5,-131.5 636.5,-131.5 636.5,-112.5 461.5,-112.5"/>
<text text-anchor="middle" x="549" y="-119.5" font-family="Helvetica,sans-Serif" font-size="10.00">BayesFilters/VectorDescription.h</text>
</a>
</g>
</g>
<!-- Node1&#45;&gt;Node14 -->
<g id="edge13" class="edge">
<title>Node1&#45;&gt;Node14</title>
<path fill="none" stroke="midnightblue" d="M467.8,-168.5C486.1,-158.24 508.09,-145.93 524.56,-136.69"/>
<polygon fill="midnightblue" stroke="midnightblue" points="526.55,-139.59 533.56,-131.65 523.12,-133.49 526.55,-139.59"/>
</g>
<!-- Node16 -->
<g id="node16" class="node">
<title>Node16</title>
<g id="a_node16"><a xlink:title=" ">
<polygon fill="white" stroke="#bfbfbf" points="654.5,-112.5 654.5,-131.5 699.5,-131.5 699.5,-112.5 654.5,-112.5"/>
<text text-anchor="middle" x="677" y="-119.5" font-family="Helvetica,sans-Serif" font-size="10.00">utility</text>
</a>
</g>
</g>
<!-- Node1&#45;&gt;Node16 -->
<g id="edge17" class="edge">
<title>Node1&#45;&gt;Node16</title>
<path fill="none" stroke="midnightblue" d="M509.53,-168.38C547.68,-158.48 594.75,-146.09 644.65,-132.33"/>
<polygon fill="midnightblue" stroke="midnightblue" points="645.63,-135.69 654.33,-129.65 643.76,-128.95 645.63,-135.69"/>
</g>
<!-- Node17 -->
<g id="node17" class="node">
<title>Node17</title>
<g id="a_node17"><a xlink:title=" ">
<polygon fill="white" stroke="#bfbfbf" points="717.5,-112.5 717.5,-131.5 794.5,-131.5 794.5,-112.5 717.5,-112.5"/>
<text text-anchor="middle" x="756" y="-119.5" font-family="Helvetica,sans-Serif" font-size="10.00">Eigen/Dense</text>
</a>
</g>
</g>
<!-- Node1&#45;&gt;Node17 -->
<g id="edge18" class="edge">
<title>Node1&#45;&gt;Node17</title>
<path fill="none" stroke="midnightblue" d="M527.73,-168.94C586.69,-157.07 660.07,-142.31 707.46,-132.77"/>
<polygon fill="midnightblue" stroke="midnightblue" points="708.34,-136.16 717.45,-130.76 706.96,-129.3 708.34,-136.16"/>
</g>
<!-- Node3 -->
<g id="node3" class="node">
<title>Node3</title>
<g id="a_node3"><a xlink:href="any_8h.html" target="_top" xlink:title=" ">
<polygon fill="white" stroke="black" points="117.5,-56.5 117.5,-75.5 222.5,-75.5 222.5,-56.5 117.5,-56.5"/>
<text text-anchor="middle" x="170" y="-63.5" font-family="Helvetica,sans-Serif" font-size="10.00">BayesFilters/any.h</text>
</a>
</g>
</g>
<!-- Node2&#45;&gt;Node3 -->
<g id="edge2" class="edge">
<title>Node2&#45;&gt;Node3</title>
<path fill="none" stroke="midnightblue" d="M187.53,-112.08C184.69,-104.77 180.57,-94.18 177.04,-85.1"/>
<polygon fill="midnightblue" stroke="midnightblue" points="180.29,-83.8 173.4,-75.75 173.77,-86.34 180.29,-83.8"/>
</g>
<!-- Node4 -->
<g id="node4" class="node">
<title>Node4</title>
<g id="a_node4"><a xlink:title=" ">
<polygon fill="white" stroke="#bfbfbf" points="76,-0.5 76,-19.5 140,-19.5 140,-0.5 76,-0.5"/>
<text text-anchor="middle" x="108" y="-7.5" font-family="Helvetica,sans-Serif" font-size="10.00">algorithm</text>
</a>
</g>
</g>
<!-- Node3&#45;&gt;Node4 -->
<g id="edge3" class="edge">
<title>Node3&#45;&gt;Node4</title>
<path fill="none" stroke="midnightblue" d="M160.04,-56.32C150.87,-48.34 137.06,-36.31 125.97,-26.65"/>
<polygon fill="midnightblue" stroke="midnightblue" points="127.98,-23.76 118.14,-19.83 123.38,-29.04 127.98,-23.76"/>
</g>
<!-- Node3&#45;&gt;Node5 -->
<g id="edge4" class="edge">
<title>Node3&#45;&gt;Node5</title>
<path fill="none" stroke="midnightblue" d="M147.66,-56.44C124.25,-47.48 87.26,-33.31 60.81,-23.18"/>
<polygon fill="midnightblue" stroke="midnightblue" points="61.83,-19.82 51.24,-19.52 59.32,-26.36 61.83,-19.82"/>
</g>
<!-- Node6 -->
<g id="node6" class="node">
<title>Node6</title>
<g id="a_node6"><a xlink:title=" ">
<polygon fill="white" stroke="#bfbfbf" points="158.5,-0.5 158.5,-19.5 223.5,-19.5 223.5,-0.5 158.5,-0.5"/>
<text text-anchor="middle" x="191" y="-7.5" font-family="Helvetica,sans-Serif" font-size="10.00">stdexcept</text>
</a>
</g>
</g>
<!-- Node3&#45;&gt;Node6 -->
<g id="edge5" class="edge">
<title>Node3&#45;&gt;Node6</title>
<path fill="none" stroke="midnightblue" d="M173.47,-56.08C176.31,-48.77 180.43,-38.18 183.96,-29.1"/>
<polygon fill="midnightblue" stroke="midnightblue" points="187.23,-30.34 187.6,-19.75 180.71,-27.8 187.23,-30.34"/>
</g>
<!-- Node7 -->
<g id="node7" class="node">
<title>Node7</title>
<g id="a_node7"><a xlink:title=" ">
<polygon fill="white" stroke="#bfbfbf" points="241.5,-0.5 241.5,-19.5 298.5,-19.5 298.5,-0.5 241.5,-0.5"/>
<text text-anchor="middle" x="270" y="-7.5" font-family="Helvetica,sans-Serif" font-size="10.00">typeinfo</text>
</a>
</g>
</g>
<!-- Node3&#45;&gt;Node7 -->
<g id="edge6" class="edge">
<title>Node3&#45;&gt;Node7</title>
<path fill="none" stroke="midnightblue" d="M186.07,-56.32C201.96,-47.74 226.51,-34.49 244.96,-24.52"/>
<polygon fill="midnightblue" stroke="midnightblue" points="246.84,-27.49 253.97,-19.65 243.51,-21.33 246.84,-27.49"/>
</g>
<!-- Node8 -->
<g id="node8" class="node">
<title>Node8</title>
<g id="a_node8"><a xlink:title=" ">
<polygon fill="white" stroke="#bfbfbf" points="316.5,-0.5 316.5,-19.5 385.5,-19.5 385.5,-0.5 316.5,-0.5"/>
<text text-anchor="middle" x="351" y="-7.5" font-family="Helvetica,sans-Serif" font-size="10.00">type_traits</text>
</a>
</g>
</g>
<!-- Node3&#45;&gt;Node8 -->
<g id="edge7" class="edge">
<title>Node3&#45;&gt;Node8</title>
<path fill="none" stroke="midnightblue" d="M198.68,-56.44C229.53,-47.24 278.73,-32.56 312.83,-22.39"/>
<polygon fill="midnightblue" stroke="midnightblue" points="313.87,-25.73 322.45,-19.52 311.87,-19.02 313.87,-25.73"/>
</g>
<!-- Node10 -->
<g id="node10" class="node">
<title>Node10</title>
<g id="a_node10"><a xlink:title=" ">
<polygon fill="white" stroke="#bfbfbf" points="240.5,-56.5 240.5,-75.5 295.5,-75.5 295.5,-56.5 240.5,-56.5"/>
<text text-anchor="middle" x="268" y="-63.5" font-family="Helvetica,sans-Serif" font-size="10.00">fstream</text>
</a>
</g>
</g>
<!-- Node9&#45;&gt;Node10 -->
<g id="edge9" class="edge">
<title>Node9&#45;&gt;Node10</title>
<path fill="none" stroke="midnightblue" d="M331.79,-112.32C320.22,-104.11 302.62,-91.6 288.84,-81.81"/>
<polygon fill="midnightblue" stroke="midnightblue" points="290.61,-78.77 280.43,-75.83 286.56,-84.48 290.61,-78.77"/>
</g>
<!-- Node11 -->
<g id="node11" class="node">
<title>Node11</title>
<g id="a_node11"><a xlink:title=" ">
<polygon fill="white" stroke="#bfbfbf" points="314,-56.5 314,-75.5 374,-75.5 374,-56.5 314,-56.5"/>
<text text-anchor="middle" x="344" y="-63.5" font-family="Helvetica,sans-Serif" font-size="10.00">iostream</text>
</a>
</g>
</g>
<!-- Node9&#45;&gt;Node11 -->
<g id="edge10" class="edge">
<title>Node9&#45;&gt;Node11</title>
<path fill="none" stroke="midnightblue" d="M344,-112.08C344,-105.01 344,-94.86 344,-85.99"/>
<polygon fill="midnightblue" stroke="midnightblue" points="347.5,-85.75 344,-75.75 340.5,-85.75 347.5,-85.75"/>
</g>
<!-- Node9&#45;&gt;Node12 -->
<g id="edge11" class="edge">
<title>Node9&#45;&gt;Node12</title>
<path fill="none" stroke="midnightblue" d="M365.55,-112.44C388.03,-103.52 423.49,-89.44 448.98,-79.32"/>
<polygon fill="midnightblue" stroke="midnightblue" points="450.55,-82.46 458.55,-75.52 447.97,-75.95 450.55,-82.46"/>
</g>
<!-- Node13 -->
<g id="node13" class="node">
<title>Node13</title>
<g id="a_node13"><a xlink:title=" ">
<polygon fill="white" stroke="#bfbfbf" points="392.5,-56.5 392.5,-75.5 439.5,-75.5 439.5,-56.5 392.5,-56.5"/>
<text text-anchor="middle" x="416" y="-63.5" font-family="Helvetica,sans-Serif" font-size="10.00">vector</text>
</a>
</g>
</g>
<!-- Node9&#45;&gt;Node13 -->
<g id="edge12" class="edge">
<title>Node9&#45;&gt;Node13</title>
<path fill="none" stroke="midnightblue" d="M355.57,-112.32C366.42,-104.18 382.88,-91.84 395.88,-82.09"/>
<polygon fill="midnightblue" stroke="midnightblue" points="398.32,-84.63 404.22,-75.83 394.12,-79.03 398.32,-84.63"/>
</g>
<!-- Node15 -->
<g id="node15" class="node">
<title>Node15</title>
<g id="a_node15"><a xlink:title=" ">
<polygon fill="white" stroke="#bfbfbf" points="522.5,-56.5 522.5,-75.5 575.5,-75.5 575.5,-56.5 522.5,-56.5"/>
<text text-anchor="middle" x="549" y="-63.5" font-family="Helvetica,sans-Serif" font-size="10.00">cstddef</text>
</a>
</g>
</g>
<!-- Node14&#45;&gt;Node15 -->
<g id="edge14" class="edge">
<title>Node14&#45;&gt;Node15</title>
<path fill="none" stroke="midnightblue" d="M549,-112.08C549,-105.01 549,-94.86 549,-85.99"/>
<polygon fill="midnightblue" stroke="midnightblue" points="552.5,-85.75 549,-75.75 545.5,-85.75 552.5,-85.75"/>
</g>
</g>
</svg>
        <g id="navigator" transform="translate(0 0)" fill="#404254">
                <rect fill="#f2f5e9" fill-opacity="0.5" stroke="#606060" stroke-width=".5" x="0" y="0" width="60" height="60"/>
                <use id="zoomplus" xlink:href="#zoomPlus" x="17" y="9" onmousedown="handleZoom(evt,'in')"/>
                <use id="zoomminus" xlink:href="#zoomMin" x="42" y="9" onmousedown="handleZoom(evt,'out')"/>
                <use id="reset" xlink:href="#resetDef" x="30" y="36" onmousedown="handleReset()"/>
                <g id="arrowUp" xlink:href="#dirArrow" transform="translate(30 24)" onmousedown="handlePan(0,-1)">
                  <use xlink:href="#rim" fill="#404040">
                        <set attributeName="fill" to="#808080" begin="arrowUp.mouseover" end="arrowUp.mouseout"/>
                  </use>
                  <path fill="none" stroke="white" stroke-width="1.5" d="M0,-3.0v7 M-2.5,-0.5L0,-3.0L2.5,-0.5"/>
                </g>
                <g id="arrowRight" xlink:href="#dirArrow" transform="rotate(90) translate(36 -43)" onmousedown="handlePan(1,0)">
                  <use xlink:href="#rim" fill="#404040">
                        <set attributeName="fill" to="#808080" begin="arrowRight.mouseover" end="arrowRight.mouseout"/>
                  </use>
                  <path fill="none" stroke="white" stroke-width="1.5" d="M0,-3.0v7 M-2.5,-0.5L0,-3.0L2.5,-0.5"/>
                </g>
                <g id="arrowDown" xlink:href="#dirArrow" transform="rotate(180) translate(-30 -48)" onmousedown="handlePan(0,1)">
                  <use xlink:href="#rim" fill="#404040">
                        <set attributeName="fill" to="#808080" begin="arrowDown.mouseover" end="arrowDown.mouseout"/>
                  </use>
                  <path fill="none" stroke="white" stroke-width="1.5" d="M0,-3.0v7 M-2.5,-0.5L0,-3.0L2.5,-0.5"/>
                </g>
                <g id="arrowLeft" xlink:href="#dirArrow" transform="rotate(270) translate(-36 17)" onmousedown="handlePan(-1,0)">
                  <use xlink:href="#rim" fill="#404040">
                        <set attributeName="fill" to="#808080" begin="arrowLeft.mouseover" end="arrowLeft.mouseout"/>
                  </use>
                  <path fill="none" stroke="white" stroke-width="1.5" d="M0,-3.0v7 M-2.5,-0.5L0,-3.0L2.5,-0.5"/>
                </g>
        </g>
        <svg viewBox="0 0 15 15" width="100%" height="30px" preserveAspectRatio="xMaxYMin meet">
         <g id="arrow_out" transform="scale(0.3 0.3)">
          <a xlink:href="MeasurementModel_8h__incl_org.svg" target="_base">
           <rect id="button" ry="5" rx="5" y="6" x="6" height="38" width="38"
                fill="#f2f5e9" fill-opacity="0.5" stroke="#606060" stroke-width="1.0"/>
           <path id="arrow"
             d="M 11.500037,31.436501 C 11.940474,20.09759 22.043105,11.32322 32.158766,21.979434 L 37.068811,17.246167 C 37.068811,17.246167 37.088388,32 37.088388,32 L 22.160133,31.978069 C 22.160133,31.978069 26.997745,27.140456 26.997745,27.140456 C 18.528582,18.264221 13.291696,25.230495 11.500037,31.436501 z"
             style="fill:#404040;"/>
          </a>
         </g>
        </svg>
</svg>
