<?xml version="1.0" encoding="UTF-8" standalone="no"?>
<!DOCTYPE svg PUBLIC "-//W3C//DTD SVG 1.1//EN"
 "http://www.w3.org/Graphics/SVG/1.1/DTD/svg11.dtd">
<!-- Generated by graphviz version 2.43.0 (0)
 -->
<!-- Title: /home/user/bayes&#45;filters&#45;lib/src/BayesFilters/src/MeasurementModel.cpp Pages: 1 -->
<svg width="976pt" height="285pt"
 viewBox="0.00 0.00 976.00 285.00" xmlns="http://www.w3.org/2000/svg" xmlns:xlink="http://www.w3.org/1999/xlink">
<g id="graph0" class="graph" transform="scale(1 1) rotate(0) translate(4 281)">
<title>/home/user/bayes&#45;filters&#45;lib/src/BayesFilters/src/MeasurementModel.cpp</title>
<polygon fill="white" stroke="transparent" points="-4,4 -4,-281 972,-281 972,4 -4,4"/>
<!-- Node1 -->
<g id="node1" class="node">
<title>Node1</title>
<g id="a_node1"><a xlink:title=" ">
<polygon fill="#bfbfbf" stroke="black" points="123.5,-235.5 123.5,-276.5 260.5,-276.5 260.5,-235.5 123.5,-235.5"/>
<text text-anchor="start" x="131.5" y="-264.5" font-family="Helvetica,sans-Serif" font-size="10.00">/home/user/bayes&#45;filters</text>
<text text-anchor="start" x="131.5" y="-253.5" font-family="Helvetica,sans-Serif" font-size="10.00">&#45;lib/src/BayesFilters/src</text>
<text text-anchor="middle" x="192" y="-242.5" font-family="Helvetica,sans-Serif" font-size="10.00">/MeasurementModel.cpp</text>
</a>
</g>
</g>
<!-- Node2 -->
<g id="node2" class="node">
<title>Node2</title>
<g id="a_node2"><a xlink:href="MeasurementModel_8h.html" target="_top" xlink:title=" ">
<polygon fill="white" stroke="black" points="337.5,-168.5 337.5,-198.5 484.5,-198.5 484.5,-168.5 337.5,-168.5"/>
<text text-anchor="start" x="345.5" y="-186.5" font-family="Helvetica,sans-Serif" font-size="10.00">BayesFilters/Measurement</text>
<text text-anchor="middle" x="411" y="-175.5" font-family="Helvetica,sans-Serif" font-size="10.00">Model.h</text>
</a>
</g>
</g>
<!-- Node1&#45;&gt;Node2 -->
<g id="edge1" class="edge">
<title>Node1&#45;&gt;Node2</title>
<path fill="none" stroke="midnightblue" d="M252.71,-235.46C285.64,-224.86 325.96,-211.88 357.66,-201.67"/>
<polygon fill="midnightblue" stroke="midnightblue" points="358.76,-204.99 367.21,-198.6 356.62,-198.33 358.76,-204.99"/>
</g>
<!-- Node12 -->
<g id="node12" class="node">
<title>Node12</title>
<g id="a_node12"><a xlink:title=" ">
<polygon fill="white" stroke="#bfbfbf" points="0,-56.5 0,-75.5 60,-75.5 60,-56.5 0,-56.5"/>
<text text-anchor="middle" x="30" y="-63.5" font-family="Helvetica,sans-Serif" font-size="10.00">iostream</text>
</a>
</g>
</g>
<!-- Node1&#45;&gt;Node12 -->
<g id="edge20" class="edge">
<title>Node1&#45;&gt;Node12</title>
<path fill="none" stroke="midnightblue" d="M170.29,-235.28C145.17,-211.91 103.26,-171.18 72,-132 59.86,-116.79 48.02,-97.98 40.01,-84.52"/>
<polygon fill="midnightblue" stroke="midnightblue" points="42.98,-82.66 34.92,-75.79 36.94,-86.19 42.98,-82.66"/>
</g>
<!-- Node3 -->
<g id="node3" class="node">
<title>Node3</title>
<g id="a_node3"><a xlink:href="Data_8h.html" target="_top" xlink:title=" ">
<polygon fill="white" stroke="black" points="686,-112.5 686,-131.5 798,-131.5 798,-112.5 686,-112.5"/>
<text text-anchor="middle" x="742" y="-119.5" font-family="Helvetica,sans-Serif" font-size="10.00">BayesFilters/Data.h</text>
</a>
</g>
</g>
<!-- Node2&#45;&gt;Node3 -->
<g id="edge2" class="edge">
<title>Node2&#45;&gt;Node3</title>
<path fill="none" stroke="midnightblue" d="M484.87,-169.22C545.14,-158.39 629.08,-143.3 684.44,-133.35"/>
<polygon fill="midnightblue" stroke="midnightblue" points="685.21,-136.76 694.43,-131.55 683.97,-129.88 685.21,-136.76"/>
</g>
<!-- Node6 -->
<g id="node6" class="node">
<title>Node6</title>
<g id="a_node6"><a xlink:title=" ">
<polygon fill="white" stroke="#bfbfbf" points="582,-0.5 582,-19.5 640,-19.5 640,-0.5 582,-0.5"/>
<text text-anchor="middle" x="611" y="-7.5" font-family="Helvetica,sans-Serif" font-size="10.00">memory</text>
</a>
</g>
</g>
<!-- Node2&#45;&gt;Node6 -->
<g id="edge16" class="edge">
<title>Node2&#45;&gt;Node6</title>
<path fill="none" stroke="midnightblue" d="M484.67,-171.99C531.77,-163.65 586.77,-150.34 602,-132 626.04,-103.07 620.92,-55.62 615.63,-29.57"/>
<polygon fill="midnightblue" stroke="midnightblue" points="618.98,-28.52 613.36,-19.54 612.15,-30.06 618.98,-28.52"/>
</g>
<!-- Node10 -->
<g id="node10" class="node">
<title>Node10</title>
<g id="a_node10"><a xlink:href="Logger_8h.html" target="_top" xlink:title=" ">
<polygon fill="white" stroke="black" points="81.5,-112.5 81.5,-131.5 202.5,-131.5 202.5,-112.5 81.5,-112.5"/>
<text text-anchor="middle" x="142" y="-119.5" font-family="Helvetica,sans-Serif" font-size="10.00">BayesFilters/Logger.h</text>
</a>
</g>
</g>
<!-- Node2&#45;&gt;Node10 -->
<g id="edge9" class="edge">
<title>Node2&#45;&gt;Node10</title>
<path fill="none" stroke="midnightblue" d="M347.59,-168.47C299.46,-157.83 234.29,-143.41 190.33,-133.69"/>
<polygon fill="midnightblue" stroke="midnightblue" points="190.98,-130.25 180.46,-131.51 189.47,-137.08 190.98,-130.25"/>
</g>
<!-- Node13 -->
<g id="node13" class="node">
<title>Node13</title>
<g id="a_node13"><a xlink:title=" ">
<polygon fill="white" stroke="#bfbfbf" points="217,-56.5 217,-75.5 261,-75.5 261,-56.5 217,-56.5"/>
<text text-anchor="middle" x="239" y="-63.5" font-family="Helvetica,sans-Serif" font-size="10.00">string</text>
</a>
</g>
</g>
<!-- Node2&#45;&gt;Node13 -->
<g id="edge17" class="edge">
<title>Node2&#45;&gt;Node13</title>
<path fill="none" stroke="midnightblue" d="M337.41,-175.92C306.53,-169.39 272.8,-156.66 251,-132 239.97,-119.52 237.59,-100.29 237.6,-85.98"/>
<polygon fill="midnightblue" stroke="midnightblue" points="241.1,-85.91 238,-75.78 234.11,-85.63 241.1,-85.91"/>
</g>
<!-- Node15 -->
<g id="node15" class="node">
<title>Node15</title>
<g id="a_node15"><a xlink:href="VectorDescription_8h.html" target="_top" xlink:title=" ">
<polygon fill="white" stroke="black" points="259.5,-112.5 259.5,-131.5 434.5,-131.5 434.5,-112.5 259.5,-112.5"/>
<text text-anchor="middle" x="347" y="-119.5" font-family="Helvetica,sans-Serif" font-size="10.00">BayesFilters/VectorDescription.h</text>
</a>
</g>
</g>
<!-- Node2&#45;&gt;Node15 -->
<g id="edge14" class="edge">
<title>Node2&#45;&gt;Node15</title>
<path fill="none" stroke="midnightblue" d="M395.83,-168.4C386.25,-159.49 373.84,-147.95 363.93,-138.74"/>
<polygon fill="midnightblue" stroke="midnightblue" points="366.02,-135.9 356.31,-131.66 361.25,-141.03 366.02,-135.9"/>
</g>
<!-- Node17 -->
<g id="node17" class="node">
<title>Node17</title>
<g id="a_node17"><a xlink:title=" ">
<polygon fill="white" stroke="#bfbfbf" points="452.5,-112.5 452.5,-131.5 497.5,-131.5 497.5,-112.5 452.5,-112.5"/>
<text text-anchor="middle" x="475" y="-119.5" font-family="Helvetica,sans-Serif" font-size="10.00">utility</text>
</a>
</g>
</g>
<!-- Node2&#45;&gt;Node17 -->
<g id="edge18" class="edge">
<title>Node2&#45;&gt;Node17</title>
<path fill="none" stroke="midnightblue" d="M426.17,-168.4C435.75,-159.49 448.16,-147.95 458.07,-138.74"/>
<polygon fill="midnightblue" stroke="midnightblue" points="460.75,-141.03 465.69,-131.66 455.98,-135.9 460.75,-141.03"/>
</g>
<!-- Node18 -->
<g id="node18" class="node">
<title>Node18</title>
<g id="a_node18"><a xlink:title=" ">
<polygon fill="white" stroke="#bfbfbf" points="515.5,-112.5 515.5,-131.5 592.5,-131.5 592.5,-112.5 515.5,-112.5"/>
<text text-anchor="middle" x="554" y="-119.5" font-family="Helvetica,sans-Serif" font-size="10.00">Eigen/Dense</text>
</a>
</g>
</g>
<!-- Node2&#45;&gt;Node18 -->
<g id="edge19" class="edge">
<title>Node2&#45;&gt;Node18</title>
<path fill="none" stroke="midnightblue" d="M444.89,-168.4C468.88,-158.42 500.77,-145.15 523.88,-135.53"/>
<polygon fill="midnightblue" stroke="midnightblue" points="525.3,-138.73 533.19,-131.66 522.61,-132.27 525.3,-138.73"/>
</g>
<!-- Node4 -->
<g id="node4" class="node">
<title>Node4</title>
<g id="a_node4"><a xlink:href="any_8h.html" target="_top" xlink:title=" ">
<polygon fill="white" stroke="black" points="708.5,-56.5 708.5,-75.5 813.5,-75.5 813.5,-56.5 708.5,-56.5"/>
<text text-anchor="middle" x="761" y="-63.5" font-family="Helvetica,sans-Serif" font-size="10.00">BayesFilters/any.h</text>
</a>
</g>
</g>
<!-- Node3&#45;&gt;Node4 -->
<g id="edge3" class="edge">
<title>Node3&#45;&gt;Node4</title>
<path fill="none" stroke="midnightblue" d="M745.14,-112.08C747.68,-104.85 751.36,-94.41 754.53,-85.4"/>
<polygon fill="midnightblue" stroke="midnightblue" points="757.9,-86.35 757.92,-75.75 751.3,-84.02 757.9,-86.35"/>
</g>
<!-- Node5 -->
<g id="node5" class="node">
<title>Node5</title>
<g id="a_node5"><a xlink:title=" ">
<polygon fill="white" stroke="#bfbfbf" points="904,-0.5 904,-19.5 968,-19.5 968,-0.5 904,-0.5"/>
<text text-anchor="middle" x="936" y="-7.5" font-family="Helvetica,sans-Serif" font-size="10.00">algorithm</text>
</a>
</g>
</g>
<!-- Node4&#45;&gt;Node5 -->
<g id="edge4" class="edge">
<title>Node4&#45;&gt;Node5</title>
<path fill="none" stroke="midnightblue" d="M788.73,-56.44C818.43,-47.28 865.72,-32.69 898.67,-22.52"/>
<polygon fill="midnightblue" stroke="midnightblue" points="899.88,-25.81 908.4,-19.52 897.81,-19.12 899.88,-25.81"/>
</g>
<!-- Node4&#45;&gt;Node6 -->
<g id="edge5" class="edge">
<title>Node4&#45;&gt;Node6</title>
<path fill="none" stroke="midnightblue" d="M737.23,-56.44C712.11,-47.4 672.29,-33.06 644.1,-22.92"/>
<polygon fill="midnightblue" stroke="midnightblue" points="645.25,-19.61 634.66,-19.52 642.88,-26.2 645.25,-19.61"/>
</g>
<!-- Node7 -->
<g id="node7" class="node">
<title>Node7</title>
<g id="a_node7"><a xlink:title=" ">
<polygon fill="white" stroke="#bfbfbf" points="658.5,-0.5 658.5,-19.5 723.5,-19.5 723.5,-0.5 658.5,-0.5"/>
<text text-anchor="middle" x="691" y="-7.5" font-family="Helvetica,sans-Serif" font-size="10.00">stdexcept</text>
</a>
</g>
</g>
<!-- Node4&#45;&gt;Node7 -->
<g id="edge6" class="edge">
<title>Node4&#45;&gt;Node7</title>
<path fill="none" stroke="midnightblue" d="M749.75,-56.32C739.2,-48.18 723.2,-35.84 710.56,-26.09"/>
<polygon fill="midnightblue" stroke="midnightblue" points="712.51,-23.17 702.45,-19.83 708.23,-28.71 712.51,-23.17"/>
</g>
<!-- Node8 -->
<g id="node8" class="node">
<title>Node8</title>
<g id="a_node8"><a xlink:title=" ">
<polygon fill="white" stroke="#bfbfbf" points="741.5,-0.5 741.5,-19.5 798.5,-19.5 798.5,-0.5 741.5,-0.5"/>
<text text-anchor="middle" x="770" y="-7.5" font-family="Helvetica,sans-Serif" font-size="10.00">typeinfo</text>
</a>
</g>
</g>
<!-- Node4&#45;&gt;Node8 -->
<g id="edge7" class="edge">
<title>Node4&#45;&gt;Node8</title>
<path fill="none" stroke="midnightblue" d="M762.49,-56.08C763.68,-48.93 765.39,-38.64 766.88,-29.69"/>
<polygon fill="midnightblue" stroke="midnightblue" points="770.35,-30.19 768.54,-19.75 763.45,-29.04 770.35,-30.19"/>
</g>
<!-- Node9 -->
<g id="node9" class="node">
<title>Node9</title>
<g id="a_node9"><a xlink:title=" ">
<polygon fill="white" stroke="#bfbfbf" points="816.5,-0.5 816.5,-19.5 885.5,-19.5 885.5,-0.5 816.5,-0.5"/>
<text text-anchor="middle" x="851" y="-7.5" font-family="Helvetica,sans-Serif" font-size="10.00">type_traits</text>
</a>
</g>
</g>
<!-- Node4&#45;&gt;Node9 -->
<g id="edge8" class="edge">
<title>Node4&#45;&gt;Node9</title>
<path fill="none" stroke="midnightblue" d="M775.46,-56.32C789.5,-47.9 811.05,-34.97 827.54,-25.07"/>
<polygon fill="midnightblue" stroke="midnightblue" points="829.8,-27.8 836.58,-19.65 826.2,-21.8 829.8,-27.8"/>
</g>
<!-- Node11 -->
<g id="node11" class="node">
<title>Node11</title>
<g id="a_node11"><a xlink:title=" ">
<polygon fill="white" stroke="#bfbfbf" points="78.5,-56.5 78.5,-75.5 133.5,-75.5 133.5,-56.5 78.5,-56.5"/>
<text text-anchor="middle" x="106" y="-63.5" font-family="Helvetica,sans-Serif" font-size="10.00">fstream</text>
</a>
</g>
</g>
<!-- Node10&#45;&gt;Node11 -->
<g id="edge10" class="edge">
<title>Node10&#45;&gt;Node11</title>
<path fill="none" stroke="midnightblue" d="M136.06,-112.08C131.02,-104.53 123.66,-93.49 117.49,-84.23"/>
<polygon fill="midnightblue" stroke="midnightblue" points="120.29,-82.13 111.83,-75.75 114.47,-86.01 120.29,-82.13"/>
</g>
<!-- Node10&#45;&gt;Node12 -->
<g id="edge11" class="edge">
<title>Node10&#45;&gt;Node12</title>
<path fill="none" stroke="midnightblue" d="M124.01,-112.32C105.96,-103.62 77.95,-90.12 57.2,-80.11"/>
<polygon fill="midnightblue" stroke="midnightblue" points="58.48,-76.84 47.95,-75.65 55.44,-83.15 58.48,-76.84"/>
</g>
<!-- Node10&#45;&gt;Node13 -->
<g id="edge12" class="edge">
<title>Node10&#45;&gt;Node13</title>
<path fill="none" stroke="midnightblue" d="M157.58,-112.32C173,-103.74 196.81,-90.49 214.71,-80.52"/>
<polygon fill="midnightblue" stroke="midnightblue" points="216.42,-83.58 223.45,-75.65 213.01,-77.46 216.42,-83.58"/>
</g>
<!-- Node14 -->
<g id="node14" class="node">
<title>Node14</title>
<g id="a_node14"><a xlink:title=" ">
<polygon fill="white" stroke="#bfbfbf" points="151.5,-56.5 151.5,-75.5 198.5,-75.5 198.5,-56.5 151.5,-56.5"/>
<text text-anchor="middle" x="175" y="-63.5" font-family="Helvetica,sans-Serif" font-size="10.00">vector</text>
</a>
</g>
</g>
<!-- Node10&#45;&gt;Node14 -->
<g id="edge13" class="edge">
<title>Node10&#45;&gt;Node14</title>
<path fill="none" stroke="midnightblue" d="M147.45,-112.08C152.01,-104.61 158.67,-93.72 164.29,-84.52"/>
<polygon fill="midnightblue" stroke="midnightblue" points="167.42,-86.11 169.65,-75.75 161.45,-82.46 167.42,-86.11"/>
</g>
<!-- Node16 -->
<g id="node16" class="node">
<title>Node16</title>
<g id="a_node16"><a xlink:title=" ">
<polygon fill="white" stroke="#bfbfbf" points="320.5,-56.5 320.5,-75.5 373.5,-75.5 373.5,-56.5 320.5,-56.5"/>
<text text-anchor="middle" x="347" y="-63.5" font-family="Helvetica,sans-Serif" font-size="10.00">cstddef</text>
</a>
</g>
</g>
<!-- Node15&#45;&gt;Node16 -->
<g id="edge15" class="edge">
<title>Node15&#45;&gt;Node16</title>
<path fill="none" stroke="midnightblue" d="M347,-112.08C347,-105.01 347,-94.86 347,-85.99"/>
<polygon fill="midnightblue" stroke="midnightblue" points="350.5,-85.75 347,-75.75 343.5,-85.75 350.5,-85.75"/>
</g>
</g>
</svg>
