<?xml version="1.0" encoding="UTF-8" standalone="no"?>
<!DOCTYPE svg PUBLIC "-//W3C//DTD SVG 1.1//EN"
 "http://www.w3.org/Graphics/SVG/1.1/DTD/svg11.dtd">
<!-- Generated by graphviz version 2.47.2 (0)
 -->
<!-- Title: /home/xenvre/robot&#45;code/bfl_robotology/src/BayesFilters/include/BayesFilters/MeasurementModelDecorator.h Pages: 1 -->
<svg width="638pt" height="296pt"
 viewBox="0.00 0.00 637.50 296.00" xmlns="http://www.w3.org/2000/svg" xmlns:xlink="http://www.w3.org/1999/xlink">
<g id="graph0" class="graph" transform="scale(1 1) rotate(0) translate(4 292)">
<title>/home/xenvre/robot&#45;code/bfl_robotology/src/BayesFilters/include/BayesFilters/MeasurementModelDecorator.h</title>
<polygon fill="white" stroke="transparent" points="-4,4 -4,-292 633.5,-292 633.5,4 -4,4"/>
<!-- Node1 -->
<g id="node1" class="node">
<title>Node1</title>
<g id="a_node1"><a xlink:title=" ">
<polygon fill="#bfbfbf" stroke="black" points="416.5,-235.5 416.5,-287.5 629.5,-287.5 629.5,-235.5 416.5,-235.5"/>
<text text-anchor="start" x="424.5" y="-275.5" font-family="Helvetica,sans-Serif" font-size="10.00">/home/xenvre/robot</text>
<text text-anchor="start" x="424.5" y="-264.5" font-family="Helvetica,sans-Serif" font-size="10.00">&#45;code/bfl_robotology</text>
<text text-anchor="start" x="424.5" y="-253.5" font-family="Helvetica,sans-Serif" font-size="10.00">/src/BayesFilters/include</text>
<text text-anchor="middle" x="523" y="-242.5" font-family="Helvetica,sans-Serif" font-size="10.00">/BayesFilters/MeasurementModelDecorator.h</text>
</a>
</g>
</g>
<!-- Node2 -->
<g id="node2" class="node">
<title>Node2</title>
<g id="a_node2"><a xlink:href="MeasurementModel_8h.html" target="_top" xlink:title=" ">
<polygon fill="white" stroke="black" points="367,-168.5 367,-198.5 501,-198.5 501,-168.5 367,-168.5"/>
<text text-anchor="start" x="375" y="-186.5" font-family="Helvetica,sans-Serif" font-size="10.00">BayesFilters/Measurement</text>
<text text-anchor="middle" x="434" y="-175.5" font-family="Helvetica,sans-Serif" font-size="10.00">Model.h</text>
</a>
</g>
</g>
<!-- Node1&#45;&gt;Node2 -->
<g id="edge1" class="edge">
<title>Node1&#45;&gt;Node2</title>
<path fill="none" stroke="midnightblue" d="M493.36,-235.19C482,-225.49 469.18,-214.54 458.36,-205.3"/>
<polygon fill="midnightblue" stroke="midnightblue" points="460.42,-202.46 450.54,-198.63 455.87,-207.78 460.42,-202.46"/>
</g>
<!-- Node6 -->
<g id="node6" class="node">
<title>Node6</title>
<g id="a_node6"><a xlink:title=" ">
<polygon fill="white" stroke="#bfbfbf" points="548,-0.5 548,-19.5 600,-19.5 600,-0.5 548,-0.5"/>
<text text-anchor="middle" x="574" y="-7.5" font-family="Helvetica,sans-Serif" font-size="10.00">memory</text>
</a>
</g>
</g>
<!-- Node1&#45;&gt;Node6 -->
<g id="edge18" class="edge">
<title>Node1&#45;&gt;Node6</title>
<path fill="none" stroke="midnightblue" d="M535.96,-235.41C552.97,-200.7 581.66,-135.57 590,-76 591.23,-67.2 591.51,-64.76 590,-56 588.43,-46.91 585.21,-37.22 582.06,-29.17"/>
<polygon fill="midnightblue" stroke="midnightblue" points="585.19,-27.6 578.11,-19.72 578.74,-30.3 585.19,-27.6"/>
</g>
<!-- Node3 -->
<g id="node3" class="node">
<title>Node3</title>
<g id="a_node3"><a xlink:href="Data_8h.html" target="_top" xlink:title=" ">
<polygon fill="white" stroke="black" points="106,-112.5 106,-131.5 210,-131.5 210,-112.5 106,-112.5"/>
<text text-anchor="middle" x="158" y="-119.5" font-family="Helvetica,sans-Serif" font-size="10.00">BayesFilters/Data.h</text>
</a>
</g>
</g>
<!-- Node2&#45;&gt;Node3 -->
<g id="edge2" class="edge">
<title>Node2&#45;&gt;Node3</title>
<path fill="none" stroke="midnightblue" d="M368.94,-168.47C319.45,-157.81 252.41,-143.35 207.3,-133.63"/>
<polygon fill="midnightblue" stroke="midnightblue" points="207.97,-130.19 197.46,-131.51 206.5,-137.04 207.97,-130.19"/>
</g>
<!-- Node2&#45;&gt;Node6 -->
<g id="edge14" class="edge">
<title>Node2&#45;&gt;Node6</title>
<path fill="none" stroke="midnightblue" d="M499.95,-168.47C520.48,-160.94 541.29,-149.46 555,-132 578.33,-102.28 578.43,-55.52 576.3,-29.69"/>
<polygon fill="midnightblue" stroke="midnightblue" points="579.78,-29.32 575.28,-19.73 572.82,-30.03 579.78,-29.32"/>
</g>
<!-- Node10 -->
<g id="node10" class="node">
<title>Node10</title>
<g id="a_node10"><a xlink:href="Logger_8h.html" target="_top" xlink:title=" ">
<polygon fill="white" stroke="black" points="246.5,-112.5 246.5,-131.5 357.5,-131.5 357.5,-112.5 246.5,-112.5"/>
<text text-anchor="middle" x="302" y="-119.5" font-family="Helvetica,sans-Serif" font-size="10.00">BayesFilters/Logger.h</text>
</a>
</g>
</g>
<!-- Node2&#45;&gt;Node10 -->
<g id="edge9" class="edge">
<title>Node2&#45;&gt;Node10</title>
<path fill="none" stroke="midnightblue" d="M402.72,-168.4C380.77,-158.51 351.66,-145.38 330.38,-135.79"/>
<polygon fill="midnightblue" stroke="midnightblue" points="331.76,-132.58 321.21,-131.66 328.89,-138.96 331.76,-132.58"/>
</g>
<!-- Node13 -->
<g id="node13" class="node">
<title>Node13</title>
<g id="a_node13"><a xlink:title=" ">
<polygon fill="white" stroke="#bfbfbf" points="409.5,-56.5 409.5,-75.5 450.5,-75.5 450.5,-56.5 409.5,-56.5"/>
<text text-anchor="middle" x="430" y="-63.5" font-family="Helvetica,sans-Serif" font-size="10.00">string</text>
</a>
</g>
</g>
<!-- Node2&#45;&gt;Node13 -->
<g id="edge15" class="edge">
<title>Node2&#45;&gt;Node13</title>
<path fill="none" stroke="midnightblue" d="M423.19,-168.37C416.51,-158.71 408.54,-145.29 405,-132 400.54,-115.27 408.89,-96.91 417.12,-83.99"/>
<polygon fill="midnightblue" stroke="midnightblue" points="420.09,-85.85 422.91,-75.63 414.34,-81.86 420.09,-85.85"/>
</g>
<!-- Node15 -->
<g id="node15" class="node">
<title>Node15</title>
<g id="a_node15"><a xlink:title=" ">
<polygon fill="white" stroke="#bfbfbf" points="414,-112.5 414,-131.5 454,-131.5 454,-112.5 414,-112.5"/>
<text text-anchor="middle" x="434" y="-119.5" font-family="Helvetica,sans-Serif" font-size="10.00">utility</text>
</a>
</g>
</g>
<!-- Node2&#45;&gt;Node15 -->
<g id="edge16" class="edge">
<title>Node2&#45;&gt;Node15</title>
<path fill="none" stroke="midnightblue" d="M434,-168.4C434,-160.47 434,-150.46 434,-141.86"/>
<polygon fill="midnightblue" stroke="midnightblue" points="437.5,-141.66 434,-131.66 430.5,-141.66 437.5,-141.66"/>
</g>
<!-- Node16 -->
<g id="node16" class="node">
<title>Node16</title>
<g id="a_node16"><a xlink:title=" ">
<polygon fill="white" stroke="#bfbfbf" points="472.5,-112.5 472.5,-131.5 545.5,-131.5 545.5,-112.5 472.5,-112.5"/>
<text text-anchor="middle" x="509" y="-119.5" font-family="Helvetica,sans-Serif" font-size="10.00">Eigen/Dense</text>
</a>
</g>
</g>
<!-- Node2&#45;&gt;Node16 -->
<g id="edge17" class="edge">
<title>Node2&#45;&gt;Node16</title>
<path fill="none" stroke="midnightblue" d="M451.77,-168.4C463.35,-159.22 478.42,-147.26 490.2,-137.92"/>
<polygon fill="midnightblue" stroke="midnightblue" points="492.43,-140.61 498.09,-131.66 488.08,-135.13 492.43,-140.61"/>
</g>
<!-- Node4 -->
<g id="node4" class="node">
<title>Node4</title>
<g id="a_node4"><a xlink:href="any_8h.html" target="_top" xlink:title=" ">
<polygon fill="white" stroke="black" points="91.5,-56.5 91.5,-75.5 188.5,-75.5 188.5,-56.5 91.5,-56.5"/>
<text text-anchor="middle" x="140" y="-63.5" font-family="Helvetica,sans-Serif" font-size="10.00">BayesFilters/any.h</text>
</a>
</g>
</g>
<!-- Node3&#45;&gt;Node4 -->
<g id="edge3" class="edge">
<title>Node3&#45;&gt;Node4</title>
<path fill="none" stroke="midnightblue" d="M155.03,-112.08C152.62,-104.85 149.14,-94.41 146.13,-85.4"/>
<polygon fill="midnightblue" stroke="midnightblue" points="149.4,-84.13 142.92,-75.75 142.76,-86.34 149.4,-84.13"/>
</g>
<!-- Node5 -->
<g id="node5" class="node">
<title>Node5</title>
<g id="a_node5"><a xlink:title=" ">
<polygon fill="white" stroke="#bfbfbf" points="0,-0.5 0,-19.5 56,-19.5 56,-0.5 0,-0.5"/>
<text text-anchor="middle" x="28" y="-7.5" font-family="Helvetica,sans-Serif" font-size="10.00">algorithm</text>
</a>
</g>
</g>
<!-- Node4&#45;&gt;Node5 -->
<g id="edge4" class="edge">
<title>Node4&#45;&gt;Node5</title>
<path fill="none" stroke="midnightblue" d="M122.01,-56.32C103.96,-47.62 75.95,-34.12 55.2,-24.11"/>
<polygon fill="midnightblue" stroke="midnightblue" points="56.48,-20.84 45.95,-19.65 53.44,-27.15 56.48,-20.84"/>
</g>
<!-- Node4&#45;&gt;Node6 -->
<g id="edge5" class="edge">
<title>Node4&#45;&gt;Node6</title>
<path fill="none" stroke="midnightblue" d="M188.72,-57.31C191.86,-56.86 194.97,-56.42 198,-56 322.58,-38.89 470.89,-22.22 537.93,-14.89"/>
<polygon fill="midnightblue" stroke="midnightblue" points="538.41,-18.36 547.98,-13.8 537.66,-11.4 538.41,-18.36"/>
</g>
<!-- Node7 -->
<g id="node7" class="node">
<title>Node7</title>
<g id="a_node7"><a xlink:title=" ">
<polygon fill="white" stroke="#bfbfbf" points="74.5,-0.5 74.5,-19.5 133.5,-19.5 133.5,-0.5 74.5,-0.5"/>
<text text-anchor="middle" x="104" y="-7.5" font-family="Helvetica,sans-Serif" font-size="10.00">stdexcept</text>
</a>
</g>
</g>
<!-- Node4&#45;&gt;Node7 -->
<g id="edge6" class="edge">
<title>Node4&#45;&gt;Node7</title>
<path fill="none" stroke="midnightblue" d="M134.06,-56.08C129.02,-48.53 121.66,-37.49 115.49,-28.23"/>
<polygon fill="midnightblue" stroke="midnightblue" points="118.29,-26.13 109.83,-19.75 112.47,-30.01 118.29,-26.13"/>
</g>
<!-- Node8 -->
<g id="node8" class="node">
<title>Node8</title>
<g id="a_node8"><a xlink:title=" ">
<polygon fill="white" stroke="#bfbfbf" points="151.5,-0.5 151.5,-19.5 202.5,-19.5 202.5,-0.5 151.5,-0.5"/>
<text text-anchor="middle" x="177" y="-7.5" font-family="Helvetica,sans-Serif" font-size="10.00">typeinfo</text>
</a>
</g>
</g>
<!-- Node4&#45;&gt;Node8 -->
<g id="edge7" class="edge">
<title>Node4&#45;&gt;Node8</title>
<path fill="none" stroke="midnightblue" d="M146.11,-56.08C151.28,-48.53 158.85,-37.49 165.19,-28.23"/>
<polygon fill="midnightblue" stroke="midnightblue" points="168.24,-29.98 171,-19.75 162.46,-26.02 168.24,-29.98"/>
</g>
<!-- Node9 -->
<g id="node9" class="node">
<title>Node9</title>
<g id="a_node9"><a xlink:title=" ">
<polygon fill="white" stroke="#bfbfbf" points="221,-0.5 221,-19.5 283,-19.5 283,-0.5 221,-0.5"/>
<text text-anchor="middle" x="252" y="-7.5" font-family="Helvetica,sans-Serif" font-size="10.00">type_traits</text>
</a>
</g>
</g>
<!-- Node4&#45;&gt;Node9 -->
<g id="edge8" class="edge">
<title>Node4&#45;&gt;Node9</title>
<path fill="none" stroke="midnightblue" d="M157.99,-56.32C176.04,-47.62 204.05,-34.12 224.8,-24.11"/>
<polygon fill="midnightblue" stroke="midnightblue" points="226.56,-27.15 234.05,-19.65 223.52,-20.84 226.56,-27.15"/>
</g>
<!-- Node11 -->
<g id="node11" class="node">
<title>Node11</title>
<g id="a_node11"><a xlink:title=" ">
<polygon fill="white" stroke="#bfbfbf" points="207,-56.5 207,-75.5 257,-75.5 257,-56.5 207,-56.5"/>
<text text-anchor="middle" x="232" y="-63.5" font-family="Helvetica,sans-Serif" font-size="10.00">fstream</text>
</a>
</g>
</g>
<!-- Node10&#45;&gt;Node11 -->
<g id="edge10" class="edge">
<title>Node10&#45;&gt;Node11</title>
<path fill="none" stroke="midnightblue" d="M290.75,-112.32C280.2,-104.18 264.2,-91.84 251.56,-82.09"/>
<polygon fill="midnightblue" stroke="midnightblue" points="253.51,-79.17 243.45,-75.83 249.23,-84.71 253.51,-79.17"/>
</g>
<!-- Node12 -->
<g id="node12" class="node">
<title>Node12</title>
<g id="a_node12"><a xlink:title=" ">
<polygon fill="white" stroke="#bfbfbf" points="275,-56.5 275,-75.5 329,-75.5 329,-56.5 275,-56.5"/>
<text text-anchor="middle" x="302" y="-63.5" font-family="Helvetica,sans-Serif" font-size="10.00">iostream</text>
</a>
</g>
</g>
<!-- Node10&#45;&gt;Node12 -->
<g id="edge11" class="edge">
<title>Node10&#45;&gt;Node12</title>
<path fill="none" stroke="midnightblue" d="M302,-112.08C302,-105.01 302,-94.86 302,-85.99"/>
<polygon fill="midnightblue" stroke="midnightblue" points="305.5,-85.75 302,-75.75 298.5,-85.75 305.5,-85.75"/>
</g>
<!-- Node10&#45;&gt;Node13 -->
<g id="edge12" class="edge">
<title>Node10&#45;&gt;Node13</title>
<path fill="none" stroke="midnightblue" d="M322.28,-112.44C343.35,-103.56 376.52,-89.56 400.49,-79.45"/>
<polygon fill="midnightblue" stroke="midnightblue" points="401.96,-82.63 409.81,-75.52 399.24,-76.18 401.96,-82.63"/>
</g>
<!-- Node14 -->
<g id="node14" class="node">
<title>Node14</title>
<g id="a_node14"><a xlink:title=" ">
<polygon fill="white" stroke="#bfbfbf" points="347,-56.5 347,-75.5 391,-75.5 391,-56.5 347,-56.5"/>
<text text-anchor="middle" x="369" y="-63.5" font-family="Helvetica,sans-Serif" font-size="10.00">vector</text>
</a>
</g>
</g>
<!-- Node10&#45;&gt;Node14 -->
<g id="edge13" class="edge">
<title>Node10&#45;&gt;Node14</title>
<path fill="none" stroke="midnightblue" d="M312.76,-112.32C322.77,-104.26 337.89,-92.08 349.93,-82.37"/>
<polygon fill="midnightblue" stroke="midnightblue" points="352.45,-84.83 358.04,-75.83 348.06,-79.38 352.45,-84.83"/>
</g>
</g>
</svg>
