<?xml version="1.0" encoding="UTF-8" standalone="no"?>
<!DOCTYPE svg PUBLIC "-//W3C//DTD SVG 1.1//EN"
 "http://www.w3.org/Graphics/SVG/1.1/DTD/svg11.dtd">
<!-- Generated by graphviz version 2.43.0 (0)
 -->
<!-- Title: /home/user/bayes&#45;filters&#45;lib/src/BayesFilters/include/BayesFilters/MeasurementModel.h Pages: 1 -->
<svg width="2517pt" height="518pt"
 viewBox="0.00 0.00 2517.00 518.00" xmlns="http://www.w3.org/2000/svg" xmlns:xlink="http://www.w3.org/1999/xlink">
<g id="graph0" class="graph" transform="scale(1 1) rotate(0) translate(4 514)">
<title>/home/user/bayes&#45;filters&#45;lib/src/BayesFilters/include/BayesFilters/MeasurementModel.h</title>
<polygon fill="white" stroke="transparent" points="-4,4 -4,-514 2513,-514 2513,4 -4,4"/>
<!-- Node1 -->
<g id="node1" class="node">
<title>Node1</title>
<g id="a_node1"><a xlink:title=" ">
<polygon fill="#bfbfbf" stroke="black" points="1524,-468.5 1524,-509.5 1713,-509.5 1713,-468.5 1524,-468.5"/>
<text text-anchor="start" x="1532" y="-497.5" font-family="Helvetica,sans-Serif" font-size="10.00">/home/user/bayes&#45;filters</text>
<text text-anchor="start" x="1532" y="-486.5" font-family="Helvetica,sans-Serif" font-size="10.00">&#45;lib/src/BayesFilters/include</text>
<text text-anchor="middle" x="1618.5" y="-475.5" font-family="Helvetica,sans-Serif" font-size="10.00">/BayesFilters/MeasurementModel.h</text>
</a>
</g>
</g>
<!-- Node2 -->
<g id="node2" class="node">
<title>Node2</title>
<g id="a_node2"><a xlink:href="AdditiveMeasurementModel_8h.html" target="_top" xlink:title=" ">
<polygon fill="white" stroke="black" points="863.5,-390.5 863.5,-431.5 1093.5,-431.5 1093.5,-390.5 863.5,-390.5"/>
<text text-anchor="start" x="871.5" y="-419.5" font-family="Helvetica,sans-Serif" font-size="10.00">/home/user/bayes&#45;filters</text>
<text text-anchor="start" x="871.5" y="-408.5" font-family="Helvetica,sans-Serif" font-size="10.00">&#45;lib/src/BayesFilters/include</text>
<text text-anchor="middle" x="978.5" y="-397.5" font-family="Helvetica,sans-Serif" font-size="10.00">/BayesFilters/AdditiveMeasurementModel.h</text>
</a>
</g>
</g>
<!-- Node1&#45;&gt;Node2 -->
<g id="edge1" class="edge">
<title>Node1&#45;&gt;Node2</title>
<path fill="none" stroke="midnightblue" d="M1513.45,-475.53C1397.93,-461.81 1212.87,-439.83 1093.51,-425.66"/>
<polygon fill="midnightblue" stroke="midnightblue" points="1513.38,-479.04 1523.72,-476.75 1514.2,-472.09 1513.38,-479.04"/>
</g>
<!-- Node13 -->
<g id="node13" class="node">
<title>Node13</title>
<g id="a_node13"><a xlink:href="sigma__point_8h.html" target="_top" xlink:title=" ">
<polygon fill="white" stroke="black" points="541.5,-312.5 541.5,-353.5 693.5,-353.5 693.5,-312.5 541.5,-312.5"/>
<text text-anchor="start" x="549.5" y="-341.5" font-family="Helvetica,sans-Serif" font-size="10.00">/home/user/bayes&#45;filters</text>
<text text-anchor="start" x="549.5" y="-330.5" font-family="Helvetica,sans-Serif" font-size="10.00">&#45;lib/src/BayesFilters/include</text>
<text text-anchor="middle" x="617.5" y="-319.5" font-family="Helvetica,sans-Serif" font-size="10.00">/BayesFilters/sigma_point.h</text>
</a>
</g>
</g>
<!-- Node1&#45;&gt;Node13 -->
<g id="edge50" class="edge">
<title>Node1&#45;&gt;Node13</title>
<path fill="none" stroke="midnightblue" d="M1513.56,-484.44C1334.31,-477.66 976.69,-460.95 854.5,-432 780.63,-414.5 700.03,-376.84 654.43,-353.64"/>
<polygon fill="midnightblue" stroke="midnightblue" points="1513.67,-487.94 1523.79,-484.82 1513.93,-480.95 1513.67,-487.94"/>
</g>
<!-- Node16 -->
<g id="node16" class="node">
<title>Node16</title>
<g id="a_node16"><a xlink:href="UKFCorrection_8h.html" target="_top" xlink:title=" ">
<polygon fill="white" stroke="black" points="923.5,-234.5 923.5,-275.5 1085.5,-275.5 1085.5,-234.5 923.5,-234.5"/>
<text text-anchor="start" x="931.5" y="-263.5" font-family="Helvetica,sans-Serif" font-size="10.00">/home/user/bayes&#45;filters</text>
<text text-anchor="start" x="931.5" y="-252.5" font-family="Helvetica,sans-Serif" font-size="10.00">&#45;lib/src/BayesFilters/include</text>
<text text-anchor="middle" x="1004.5" y="-241.5" font-family="Helvetica,sans-Serif" font-size="10.00">/BayesFilters/UKFCorrection.h</text>
</a>
</g>
</g>
<!-- Node1&#45;&gt;Node16 -->
<g id="edge51" class="edge">
<title>Node1&#45;&gt;Node16</title>
<path fill="none" stroke="midnightblue" d="M1548.01,-465.35C1517.86,-455.44 1482.34,-443.48 1450.5,-432 1360.35,-399.51 1328.08,-408.85 1249.5,-354 1229.1,-339.76 1233.63,-325.13 1212.5,-312 1201.28,-305.03 1139.12,-288.71 1085.65,-275.47"/>
<polygon fill="midnightblue" stroke="midnightblue" points="1547.01,-468.7 1557.6,-468.49 1549.19,-462.05 1547.01,-468.7"/>
</g>
<!-- Node22 -->
<g id="node22" class="node">
<title>Node22</title>
<g id="a_node22"><a xlink:href="GaussianCorrection_8h.html" target="_top" xlink:title=" ">
<polygon fill="white" stroke="black" points="1259,-312.5 1259,-353.5 1446,-353.5 1446,-312.5 1259,-312.5"/>
<text text-anchor="start" x="1267" y="-341.5" font-family="Helvetica,sans-Serif" font-size="10.00">/home/user/bayes&#45;filters</text>
<text text-anchor="start" x="1267" y="-330.5" font-family="Helvetica,sans-Serif" font-size="10.00">&#45;lib/src/BayesFilters/include</text>
<text text-anchor="middle" x="1352.5" y="-319.5" font-family="Helvetica,sans-Serif" font-size="10.00">/BayesFilters/GaussianCorrection.h</text>
</a>
</g>
</g>
<!-- Node1&#45;&gt;Node22 -->
<g id="edge23" class="edge">
<title>Node1&#45;&gt;Node22</title>
<path fill="none" stroke="midnightblue" d="M1576.05,-463.42C1523.38,-432.93 1434.65,-381.56 1386.33,-353.59"/>
<polygon fill="midnightblue" stroke="midnightblue" points="1574.4,-466.51 1584.81,-468.5 1577.91,-460.46 1574.4,-466.51"/>
</g>
<!-- Node25 -->
<g id="node25" class="node">
<title>Node25</title>
<g id="a_node25"><a xlink:href="GPFCorrection_8h.html" target="_top" xlink:title=" ">
<polygon fill="white" stroke="black" points="1609,-234.5 1609,-275.5 1770,-275.5 1770,-234.5 1609,-234.5"/>
<text text-anchor="start" x="1617" y="-263.5" font-family="Helvetica,sans-Serif" font-size="10.00">/home/user/bayes&#45;filters</text>
<text text-anchor="start" x="1617" y="-252.5" font-family="Helvetica,sans-Serif" font-size="10.00">&#45;lib/src/BayesFilters/include</text>
<text text-anchor="middle" x="1689.5" y="-241.5" font-family="Helvetica,sans-Serif" font-size="10.00">/BayesFilters/GPFCorrection.h</text>
</a>
</g>
</g>
<!-- Node1&#45;&gt;Node25 -->
<g id="edge32" class="edge">
<title>Node1&#45;&gt;Node25</title>
<path fill="none" stroke="midnightblue" d="M1622.83,-458.35C1626.04,-438.74 1630.99,-412.58 1637.5,-390 1649.53,-348.28 1669.23,-301.37 1680.62,-275.6"/>
<polygon fill="midnightblue" stroke="midnightblue" points="1619.37,-457.81 1621.27,-468.23 1626.29,-458.9 1619.37,-457.81"/>
</g>
<!-- Node28 -->
<g id="node28" class="node">
<title>Node28</title>
<g id="a_node28"><a xlink:href="LikelihoodModel_8h.html" target="_top" xlink:title=" ">
<polygon fill="white" stroke="black" points="1647,-390.5 1647,-431.5 1818,-431.5 1818,-390.5 1647,-390.5"/>
<text text-anchor="start" x="1655" y="-419.5" font-family="Helvetica,sans-Serif" font-size="10.00">/home/user/bayes&#45;filters</text>
<text text-anchor="start" x="1655" y="-408.5" font-family="Helvetica,sans-Serif" font-size="10.00">&#45;lib/src/BayesFilters/include</text>
<text text-anchor="middle" x="1732.5" y="-397.5" font-family="Helvetica,sans-Serif" font-size="10.00">/BayesFilters/LikelihoodModel.h</text>
</a>
</g>
</g>
<!-- Node1&#45;&gt;Node28 -->
<g id="edge33" class="edge">
<title>Node1&#45;&gt;Node28</title>
<path fill="none" stroke="midnightblue" d="M1656.55,-462.64C1671.77,-452.49 1689.03,-440.98 1703.24,-431.51"/>
<polygon fill="midnightblue" stroke="midnightblue" points="1654.24,-459.97 1647.86,-468.43 1658.12,-465.79 1654.24,-459.97"/>
</g>
<!-- Node31 -->
<g id="node31" class="node">
<title>Node31</title>
<g id="a_node31"><a xlink:href="PFCorrection_8h.html" target="_top" xlink:title=" ">
<polygon fill="white" stroke="black" points="1953.5,-312.5 1953.5,-353.5 2107.5,-353.5 2107.5,-312.5 1953.5,-312.5"/>
<text text-anchor="start" x="1961.5" y="-341.5" font-family="Helvetica,sans-Serif" font-size="10.00">/home/user/bayes&#45;filters</text>
<text text-anchor="start" x="1961.5" y="-330.5" font-family="Helvetica,sans-Serif" font-size="10.00">&#45;lib/src/BayesFilters/include</text>
<text text-anchor="middle" x="2030.5" y="-319.5" font-family="Helvetica,sans-Serif" font-size="10.00">/BayesFilters/PFCorrection.h</text>
</a>
</g>
</g>
<!-- Node1&#45;&gt;Node31 -->
<g id="edge49" class="edge">
<title>Node1&#45;&gt;Node31</title>
<path fill="none" stroke="midnightblue" d="M1722.89,-472.34C1757.9,-463.97 1796,-451.25 1827.5,-432 1848.98,-418.87 1844.46,-403.82 1865.5,-390 1891.92,-372.64 1924.26,-360.12 1953.29,-351.39"/>
<polygon fill="midnightblue" stroke="midnightblue" points="1722.07,-468.94 1713.11,-474.59 1723.64,-475.76 1722.07,-468.94"/>
</g>
<!-- Node39 -->
<g id="node39" class="node">
<title>Node39</title>
<g id="a_node39"><a xlink:href="MeasurementModelDecorator_8h.html" target="_top" xlink:title=" ">
<polygon fill="white" stroke="black" points="1874.5,-390.5 1874.5,-431.5 2110.5,-431.5 2110.5,-390.5 1874.5,-390.5"/>
<text text-anchor="start" x="1882.5" y="-419.5" font-family="Helvetica,sans-Serif" font-size="10.00">/home/user/bayes&#45;filters</text>
<text text-anchor="start" x="1882.5" y="-408.5" font-family="Helvetica,sans-Serif" font-size="10.00">&#45;lib/src/BayesFilters/include</text>
<text text-anchor="middle" x="1992.5" y="-397.5" font-family="Helvetica,sans-Serif" font-size="10.00">/BayesFilters/MeasurementModelDecorator.h</text>
</a>
</g>
</g>
<!-- Node1&#45;&gt;Node39 -->
<g id="edge47" class="edge">
<title>Node1&#45;&gt;Node39</title>
<path fill="none" stroke="midnightblue" d="M1723.36,-466.69C1777.65,-455.66 1843.48,-442.28 1896.44,-431.52"/>
<polygon fill="midnightblue" stroke="midnightblue" points="1722.46,-463.3 1713.36,-468.72 1723.86,-470.16 1722.46,-463.3"/>
</g>
<!-- Node41 -->
<g id="node41" class="node">
<title>Node41</title>
<g id="a_node41"><a xlink:href="MeasurementModel_8cpp.html" target="_top" xlink:title=" ">
<polygon fill="white" stroke="black" points="2129,-390.5 2129,-431.5 2266,-431.5 2266,-390.5 2129,-390.5"/>
<text text-anchor="start" x="2137" y="-419.5" font-family="Helvetica,sans-Serif" font-size="10.00">/home/user/bayes&#45;filters</text>
<text text-anchor="start" x="2137" y="-408.5" font-family="Helvetica,sans-Serif" font-size="10.00">&#45;lib/src/BayesFilters/src</text>
<text text-anchor="middle" x="2197.5" y="-397.5" font-family="Helvetica,sans-Serif" font-size="10.00">/MeasurementModel.cpp</text>
</a>
</g>
</g>
<!-- Node1&#45;&gt;Node41 -->
<g id="edge52" class="edge">
<title>Node1&#45;&gt;Node41</title>
<path fill="none" stroke="midnightblue" d="M1723.24,-480.58C1825.03,-472.36 1983.7,-456.87 2119.5,-432 2122.53,-431.45 2125.61,-430.84 2128.71,-430.19"/>
<polygon fill="midnightblue" stroke="midnightblue" points="1722.95,-477.09 1713.26,-481.37 1723.51,-484.07 1722.95,-477.09"/>
</g>
<!-- Node3 -->
<g id="node3" class="node">
<title>Node3</title>
<g id="a_node3"><a xlink:href="LinearMeasurementModel_8h.html" target="_top" xlink:title=" ">
<polygon fill="white" stroke="black" points="712,-312.5 712,-353.5 931,-353.5 931,-312.5 712,-312.5"/>
<text text-anchor="start" x="720" y="-341.5" font-family="Helvetica,sans-Serif" font-size="10.00">/home/user/bayes&#45;filters</text>
<text text-anchor="start" x="720" y="-330.5" font-family="Helvetica,sans-Serif" font-size="10.00">&#45;lib/src/BayesFilters/include</text>
<text text-anchor="middle" x="821.5" y="-319.5" font-family="Helvetica,sans-Serif" font-size="10.00">/BayesFilters/LinearMeasurementModel.h</text>
</a>
</g>
</g>
<!-- Node2&#45;&gt;Node3 -->
<g id="edge2" class="edge">
<title>Node2&#45;&gt;Node3</title>
<path fill="none" stroke="midnightblue" d="M929.02,-386.05C907.37,-375.57 882.28,-363.42 861.79,-353.51"/>
<polygon fill="midnightblue" stroke="midnightblue" points="927.54,-389.22 938.07,-390.43 930.59,-382.92 927.54,-389.22"/>
</g>
<!-- Node2&#45;&gt;Node13 -->
<g id="edge12" class="edge">
<title>Node2&#45;&gt;Node13</title>
<path fill="none" stroke="midnightblue" d="M868.39,-388.47C817.78,-378.37 757.01,-365.94 702.5,-354 699.69,-353.38 696.82,-352.75 693.93,-352.1"/>
<polygon fill="midnightblue" stroke="midnightblue" points="867.88,-391.94 878.38,-390.46 869.25,-385.07 867.88,-391.94"/>
</g>
<!-- Node14 -->
<g id="node14" class="node">
<title>Node14</title>
<g id="a_node14"><a xlink:href="SUKFCorrection_8h.html" target="_top" xlink:title=" ">
<polygon fill="white" stroke="black" points="737.5,-234.5 737.5,-275.5 905.5,-275.5 905.5,-234.5 737.5,-234.5"/>
<text text-anchor="start" x="745.5" y="-263.5" font-family="Helvetica,sans-Serif" font-size="10.00">/home/user/bayes&#45;filters</text>
<text text-anchor="start" x="745.5" y="-252.5" font-family="Helvetica,sans-Serif" font-size="10.00">&#45;lib/src/BayesFilters/include</text>
<text text-anchor="middle" x="821.5" y="-241.5" font-family="Helvetica,sans-Serif" font-size="10.00">/BayesFilters/SUKFCorrection.h</text>
</a>
</g>
</g>
<!-- Node2&#45;&gt;Node14 -->
<g id="edge20" class="edge">
<title>Node2&#45;&gt;Node14</title>
<path fill="none" stroke="midnightblue" d="M972.84,-380.59C967.43,-359.31 957.37,-331.06 939.5,-312 924.53,-296.04 904.08,-284.15 884.41,-275.54"/>
<polygon fill="midnightblue" stroke="midnightblue" points="969.45,-381.46 975.14,-390.4 976.27,-379.87 969.45,-381.46"/>
</g>
<!-- Node2&#45;&gt;Node16 -->
<g id="edge21" class="edge">
<title>Node2&#45;&gt;Node16</title>
<path fill="none" stroke="midnightblue" d="M983.5,-380.36C988.7,-349.61 996.67,-302.36 1001.15,-275.83"/>
<polygon fill="midnightblue" stroke="midnightblue" points="980.01,-380.05 981.79,-390.5 986.91,-381.22 980.01,-380.05"/>
</g>
<!-- Node21 -->
<g id="node21" class="node">
<title>Node21</title>
<g id="a_node21"><a xlink:href="AdditiveMeasurementModel_8cpp.html" target="_top" xlink:title=" ">
<polygon fill="white" stroke="black" points="1025.5,-312.5 1025.5,-353.5 1203.5,-353.5 1203.5,-312.5 1025.5,-312.5"/>
<text text-anchor="start" x="1033.5" y="-341.5" font-family="Helvetica,sans-Serif" font-size="10.00">/home/user/bayes&#45;filters</text>
<text text-anchor="start" x="1033.5" y="-330.5" font-family="Helvetica,sans-Serif" font-size="10.00">&#45;lib/src/BayesFilters/src</text>
<text text-anchor="middle" x="1114.5" y="-319.5" font-family="Helvetica,sans-Serif" font-size="10.00">/AdditiveMeasurementModel.cpp</text>
</a>
</g>
</g>
<!-- Node2&#45;&gt;Node21 -->
<g id="edge22" class="edge">
<title>Node2&#45;&gt;Node21</title>
<path fill="none" stroke="midnightblue" d="M1022.37,-385.49C1040.89,-375.13 1062.16,-363.25 1079.6,-353.51"/>
<polygon fill="midnightblue" stroke="midnightblue" points="1020.55,-382.49 1013.52,-390.43 1023.96,-388.61 1020.55,-382.49"/>
</g>
<!-- Node4 -->
<g id="node4" class="node">
<title>Node4</title>
<g id="a_node4"><a xlink:href="KFCorrection_8h.html" target="_top" xlink:title=" ">
<polygon fill="white" stroke="black" points="1104,-234.5 1104,-275.5 1259,-275.5 1259,-234.5 1104,-234.5"/>
<text text-anchor="start" x="1112" y="-263.5" font-family="Helvetica,sans-Serif" font-size="10.00">/home/user/bayes&#45;filters</text>
<text text-anchor="start" x="1112" y="-252.5" font-family="Helvetica,sans-Serif" font-size="10.00">&#45;lib/src/BayesFilters/include</text>
<text text-anchor="middle" x="1181.5" y="-241.5" font-family="Helvetica,sans-Serif" font-size="10.00">/BayesFilters/KFCorrection.h</text>
</a>
</g>
</g>
<!-- Node3&#45;&gt;Node4 -->
<g id="edge3" class="edge">
<title>Node3&#45;&gt;Node4</title>
<path fill="none" stroke="midnightblue" d="M929.45,-310.47C979.68,-300.29 1040.2,-287.81 1094.5,-276 1097.53,-275.34 1100.62,-274.66 1103.73,-273.97"/>
<polygon fill="midnightblue" stroke="midnightblue" points="928.65,-307.06 919.54,-312.47 930.04,-313.92 928.65,-307.06"/>
</g>
<!-- Node6 -->
<g id="node6" class="node">
<title>Node6</title>
<g id="a_node6"><a xlink:href="LTIMeasurementModel_8h.html" target="_top" xlink:title=" ">
<polygon fill="white" stroke="black" points="332,-234.5 332,-275.5 535,-275.5 535,-234.5 332,-234.5"/>
<text text-anchor="start" x="340" y="-263.5" font-family="Helvetica,sans-Serif" font-size="10.00">/home/user/bayes&#45;filters</text>
<text text-anchor="start" x="340" y="-252.5" font-family="Helvetica,sans-Serif" font-size="10.00">&#45;lib/src/BayesFilters/include</text>
<text text-anchor="middle" x="433.5" y="-241.5" font-family="Helvetica,sans-Serif" font-size="10.00">/BayesFilters/LTIMeasurementModel.h</text>
</a>
</g>
</g>
<!-- Node3&#45;&gt;Node6 -->
<g id="edge5" class="edge">
<title>Node3&#45;&gt;Node6</title>
<path fill="none" stroke="midnightblue" d="M711.85,-310.52C655.71,-299.53 587.86,-286.24 533.21,-275.53"/>
<polygon fill="midnightblue" stroke="midnightblue" points="711.35,-313.99 721.83,-312.48 712.69,-307.12 711.35,-313.99"/>
</g>
<!-- Node12 -->
<g id="node12" class="node">
<title>Node12</title>
<g id="a_node12"><a xlink:href="LinearMeasurementModel_8cpp.html" target="_top" xlink:title=" ">
<polygon fill="white" stroke="black" points="553,-234.5 553,-275.5 720,-275.5 720,-234.5 553,-234.5"/>
<text text-anchor="start" x="561" y="-263.5" font-family="Helvetica,sans-Serif" font-size="10.00">/home/user/bayes&#45;filters</text>
<text text-anchor="start" x="561" y="-252.5" font-family="Helvetica,sans-Serif" font-size="10.00">&#45;lib/src/BayesFilters/src</text>
<text text-anchor="middle" x="636.5" y="-241.5" font-family="Helvetica,sans-Serif" font-size="10.00">/LinearMeasurementModel.cpp</text>
</a>
</g>
</g>
<!-- Node3&#45;&gt;Node12 -->
<g id="edge11" class="edge">
<title>Node3&#45;&gt;Node12</title>
<path fill="none" stroke="midnightblue" d="M764.56,-308.61C738.74,-298 708.56,-285.6 683.98,-275.51"/>
<polygon fill="midnightblue" stroke="midnightblue" points="763.28,-311.87 773.86,-312.43 765.94,-305.39 763.28,-311.87"/>
</g>
<!-- Node5 -->
<g id="node5" class="node">
<title>Node5</title>
<g id="a_node5"><a xlink:href="KFCorrection_8cpp.html" target="_top" xlink:title=" ">
<polygon fill="white" stroke="black" points="1114,-156.5 1114,-197.5 1249,-197.5 1249,-156.5 1114,-156.5"/>
<text text-anchor="start" x="1122" y="-185.5" font-family="Helvetica,sans-Serif" font-size="10.00">/home/user/bayes&#45;filters</text>
<text text-anchor="start" x="1122" y="-174.5" font-family="Helvetica,sans-Serif" font-size="10.00">&#45;lib/src/BayesFilters/src</text>
<text text-anchor="middle" x="1181.5" y="-163.5" font-family="Helvetica,sans-Serif" font-size="10.00">/KFCorrection.cpp</text>
</a>
</g>
</g>
<!-- Node4&#45;&gt;Node5 -->
<g id="edge4" class="edge">
<title>Node4&#45;&gt;Node5</title>
<path fill="none" stroke="midnightblue" d="M1181.5,-224.3C1181.5,-215.3 1181.5,-205.65 1181.5,-197.51"/>
<polygon fill="midnightblue" stroke="midnightblue" points="1178,-224.43 1181.5,-234.43 1185,-224.43 1178,-224.43"/>
</g>
<!-- Node7 -->
<g id="node7" class="node">
<title>Node7</title>
<g id="a_node7"><a xlink:href="LinearModel_8h.html" target="_top" xlink:title=" ">
<polygon fill="white" stroke="black" points="338.5,-156.5 338.5,-197.5 490.5,-197.5 490.5,-156.5 338.5,-156.5"/>
<text text-anchor="start" x="346.5" y="-185.5" font-family="Helvetica,sans-Serif" font-size="10.00">/home/user/bayes&#45;filters</text>
<text text-anchor="start" x="346.5" y="-174.5" font-family="Helvetica,sans-Serif" font-size="10.00">&#45;lib/src/BayesFilters/include</text>
<text text-anchor="middle" x="414.5" y="-163.5" font-family="Helvetica,sans-Serif" font-size="10.00">/BayesFilters/LinearModel.h</text>
</a>
</g>
</g>
<!-- Node6&#45;&gt;Node7 -->
<g id="edge6" class="edge">
<title>Node6&#45;&gt;Node7</title>
<path fill="none" stroke="midnightblue" d="M426.15,-224.59C423.88,-215.51 421.44,-205.74 419.38,-197.51"/>
<polygon fill="midnightblue" stroke="midnightblue" points="422.79,-225.58 428.61,-234.43 429.58,-223.88 422.79,-225.58"/>
</g>
<!-- Node11 -->
<g id="node11" class="node">
<title>Node11</title>
<g id="a_node11"><a xlink:href="LTIMeasurementModel_8cpp.html" target="_top" xlink:title=" ">
<polygon fill="white" stroke="black" points="509,-156.5 509,-197.5 660,-197.5 660,-156.5 509,-156.5"/>
<text text-anchor="start" x="517" y="-185.5" font-family="Helvetica,sans-Serif" font-size="10.00">/home/user/bayes&#45;filters</text>
<text text-anchor="start" x="517" y="-174.5" font-family="Helvetica,sans-Serif" font-size="10.00">&#45;lib/src/BayesFilters/src</text>
<text text-anchor="middle" x="584.5" y="-163.5" font-family="Helvetica,sans-Serif" font-size="10.00">/LTIMeasurementModel.cpp</text>
</a>
</g>
</g>
<!-- Node6&#45;&gt;Node11 -->
<g id="edge10" class="edge">
<title>Node6&#45;&gt;Node11</title>
<path fill="none" stroke="midnightblue" d="M481.37,-229.91C502.13,-219.46 526.13,-207.38 545.75,-197.51"/>
<polygon fill="midnightblue" stroke="midnightblue" points="479.75,-226.81 472.39,-234.43 482.89,-233.06 479.75,-226.81"/>
</g>
<!-- Node8 -->
<g id="node8" class="node">
<title>Node8</title>
<g id="a_node8"><a xlink:href="SimulatedLinearSensor_8h.html" target="_top" xlink:title=" ">
<polygon fill="white" stroke="black" points="407,-78.5 407,-119.5 610,-119.5 610,-78.5 407,-78.5"/>
<text text-anchor="start" x="415" y="-107.5" font-family="Helvetica,sans-Serif" font-size="10.00">/home/user/bayes&#45;filters</text>
<text text-anchor="start" x="415" y="-96.5" font-family="Helvetica,sans-Serif" font-size="10.00">&#45;lib/src/BayesFilters/include</text>
<text text-anchor="middle" x="508.5" y="-85.5" font-family="Helvetica,sans-Serif" font-size="10.00">/BayesFilters/SimulatedLinearSensor.h</text>
</a>
</g>
</g>
<!-- Node7&#45;&gt;Node8 -->
<g id="edge7" class="edge">
<title>Node7&#45;&gt;Node8</title>
<path fill="none" stroke="midnightblue" d="M446.58,-150.06C458.96,-140.06 472.87,-128.8 484.37,-119.51"/>
<polygon fill="midnightblue" stroke="midnightblue" points="444.28,-147.42 438.71,-156.43 448.68,-152.86 444.28,-147.42"/>
</g>
<!-- Node10 -->
<g id="node10" class="node">
<title>Node10</title>
<g id="a_node10"><a xlink:href="LinearModel_8cpp.html" target="_top" xlink:title=" ">
<polygon fill="white" stroke="black" points="254,-78.5 254,-119.5 389,-119.5 389,-78.5 254,-78.5"/>
<text text-anchor="start" x="262" y="-107.5" font-family="Helvetica,sans-Serif" font-size="10.00">/home/user/bayes&#45;filters</text>
<text text-anchor="start" x="262" y="-96.5" font-family="Helvetica,sans-Serif" font-size="10.00">&#45;lib/src/BayesFilters/src</text>
<text text-anchor="middle" x="321.5" y="-85.5" font-family="Helvetica,sans-Serif" font-size="10.00">/LinearModel.cpp</text>
</a>
</g>
</g>
<!-- Node7&#45;&gt;Node10 -->
<g id="edge9" class="edge">
<title>Node7&#45;&gt;Node10</title>
<path fill="none" stroke="midnightblue" d="M382.76,-150.06C370.52,-140.06 356.75,-128.8 345.37,-119.51"/>
<polygon fill="midnightblue" stroke="midnightblue" points="380.59,-152.81 390.55,-156.43 385.02,-147.39 380.59,-152.81"/>
</g>
<!-- Node9 -->
<g id="node9" class="node">
<title>Node9</title>
<g id="a_node9"><a xlink:href="SimulatedLinearSensor_8cpp.html" target="_top" xlink:title=" ">
<polygon fill="white" stroke="black" points="432.5,-0.5 432.5,-41.5 584.5,-41.5 584.5,-0.5 432.5,-0.5"/>
<text text-anchor="start" x="440.5" y="-29.5" font-family="Helvetica,sans-Serif" font-size="10.00">/home/user/bayes&#45;filters</text>
<text text-anchor="start" x="440.5" y="-18.5" font-family="Helvetica,sans-Serif" font-size="10.00">&#45;lib/src/BayesFilters/src</text>
<text text-anchor="middle" x="508.5" y="-7.5" font-family="Helvetica,sans-Serif" font-size="10.00">/SimulatedLinearSensor.cpp</text>
</a>
</g>
</g>
<!-- Node8&#45;&gt;Node9 -->
<g id="edge8" class="edge">
<title>Node8&#45;&gt;Node9</title>
<path fill="none" stroke="midnightblue" d="M508.5,-68.3C508.5,-59.3 508.5,-49.65 508.5,-41.51"/>
<polygon fill="midnightblue" stroke="midnightblue" points="505,-68.43 508.5,-78.43 512,-68.43 505,-68.43"/>
</g>
<!-- Node13&#45;&gt;Node14 -->
<g id="edge13" class="edge">
<title>Node13&#45;&gt;Node14</title>
<path fill="none" stroke="midnightblue" d="M679.54,-308.89C708.18,-298.22 741.81,-285.69 769.14,-275.51"/>
<polygon fill="midnightblue" stroke="midnightblue" points="678.18,-305.66 670.04,-312.43 680.63,-312.22 678.18,-305.66"/>
</g>
<!-- Node13&#45;&gt;Node16 -->
<g id="edge15" class="edge">
<title>Node13&#45;&gt;Node16</title>
<path fill="none" stroke="midnightblue" d="M703.84,-311.79C797.88,-293.11 823.83,-293.76 914.5,-276 917.33,-275.45 920.2,-274.87 923.1,-274.28"/>
<polygon fill="midnightblue" stroke="midnightblue" points="703.02,-308.38 693.91,-313.78 704.4,-315.25 703.02,-308.38"/>
</g>
<!-- Node18 -->
<g id="node18" class="node">
<title>Node18</title>
<g id="a_node18"><a xlink:href="UKFPrediction_8h.html" target="_top" xlink:title=" ">
<polygon fill="white" stroke="black" points="153,-234.5 153,-275.5 314,-275.5 314,-234.5 153,-234.5"/>
<text text-anchor="start" x="161" y="-263.5" font-family="Helvetica,sans-Serif" font-size="10.00">/home/user/bayes&#45;filters</text>
<text text-anchor="start" x="161" y="-252.5" font-family="Helvetica,sans-Serif" font-size="10.00">&#45;lib/src/BayesFilters/include</text>
<text text-anchor="middle" x="233.5" y="-241.5" font-family="Helvetica,sans-Serif" font-size="10.00">/BayesFilters/UKFPrediction.h</text>
</a>
</g>
</g>
<!-- Node13&#45;&gt;Node18 -->
<g id="edge17" class="edge">
<title>Node13&#45;&gt;Node18</title>
<path fill="none" stroke="midnightblue" d="M531.26,-316.41C472.36,-305.58 392.59,-290.52 322.5,-276 319.71,-275.42 316.87,-274.83 314,-274.22"/>
<polygon fill="midnightblue" stroke="midnightblue" points="530.8,-319.89 541.27,-318.25 532.06,-313 530.8,-319.89"/>
</g>
<!-- Node20 -->
<g id="node20" class="node">
<title>Node20</title>
<g id="a_node20"><a xlink:href="sigma__point_8cpp.html" target="_top" xlink:title=" ">
<polygon fill="white" stroke="black" points="0,-234.5 0,-275.5 135,-275.5 135,-234.5 0,-234.5"/>
<text text-anchor="start" x="8" y="-263.5" font-family="Helvetica,sans-Serif" font-size="10.00">/home/user/bayes&#45;filters</text>
<text text-anchor="start" x="8" y="-252.5" font-family="Helvetica,sans-Serif" font-size="10.00">&#45;lib/src/BayesFilters/src</text>
<text text-anchor="middle" x="67.5" y="-241.5" font-family="Helvetica,sans-Serif" font-size="10.00">/sigma_point.cpp</text>
</a>
</g>
</g>
<!-- Node13&#45;&gt;Node20 -->
<g id="edge19" class="edge">
<title>Node13&#45;&gt;Node20</title>
<path fill="none" stroke="midnightblue" d="M531.3,-325.46C435.89,-317.38 277.82,-301.48 143.5,-276 140.82,-275.49 138.09,-274.94 135.35,-274.36"/>
<polygon fill="midnightblue" stroke="midnightblue" points="531.22,-328.97 541.48,-326.31 531.8,-321.99 531.22,-328.97"/>
</g>
<!-- Node15 -->
<g id="node15" class="node">
<title>Node15</title>
<g id="a_node15"><a xlink:href="SUKFCorrection_8cpp.html" target="_top" xlink:title=" ">
<polygon fill="white" stroke="black" points="754,-156.5 754,-197.5 889,-197.5 889,-156.5 754,-156.5"/>
<text text-anchor="start" x="762" y="-185.5" font-family="Helvetica,sans-Serif" font-size="10.00">/home/user/bayes&#45;filters</text>
<text text-anchor="start" x="762" y="-174.5" font-family="Helvetica,sans-Serif" font-size="10.00">&#45;lib/src/BayesFilters/src</text>
<text text-anchor="middle" x="821.5" y="-163.5" font-family="Helvetica,sans-Serif" font-size="10.00">/SUKFCorrection.cpp</text>
</a>
</g>
</g>
<!-- Node14&#45;&gt;Node15 -->
<g id="edge14" class="edge">
<title>Node14&#45;&gt;Node15</title>
<path fill="none" stroke="midnightblue" d="M821.5,-224.3C821.5,-215.3 821.5,-205.65 821.5,-197.51"/>
<polygon fill="midnightblue" stroke="midnightblue" points="818,-224.43 821.5,-234.43 825,-224.43 818,-224.43"/>
</g>
<!-- Node17 -->
<g id="node17" class="node">
<title>Node17</title>
<g id="a_node17"><a xlink:href="UKFCorrection_8cpp.html" target="_top" xlink:title=" ">
<polygon fill="white" stroke="black" points="937,-156.5 937,-197.5 1072,-197.5 1072,-156.5 937,-156.5"/>
<text text-anchor="start" x="945" y="-185.5" font-family="Helvetica,sans-Serif" font-size="10.00">/home/user/bayes&#45;filters</text>
<text text-anchor="start" x="945" y="-174.5" font-family="Helvetica,sans-Serif" font-size="10.00">&#45;lib/src/BayesFilters/src</text>
<text text-anchor="middle" x="1004.5" y="-163.5" font-family="Helvetica,sans-Serif" font-size="10.00">/UKFCorrection.cpp</text>
</a>
</g>
</g>
<!-- Node16&#45;&gt;Node17 -->
<g id="edge16" class="edge">
<title>Node16&#45;&gt;Node17</title>
<path fill="none" stroke="midnightblue" d="M1004.5,-224.3C1004.5,-215.3 1004.5,-205.65 1004.5,-197.51"/>
<polygon fill="midnightblue" stroke="midnightblue" points="1001,-224.43 1004.5,-234.43 1008,-224.43 1001,-224.43"/>
</g>
<!-- Node19 -->
<g id="node19" class="node">
<title>Node19</title>
<g id="a_node19"><a xlink:href="UKFPrediction_8cpp.html" target="_top" xlink:title=" ">
<polygon fill="white" stroke="black" points="166,-156.5 166,-197.5 301,-197.5 301,-156.5 166,-156.5"/>
<text text-anchor="start" x="174" y="-185.5" font-family="Helvetica,sans-Serif" font-size="10.00">/home/user/bayes&#45;filters</text>
<text text-anchor="start" x="174" y="-174.5" font-family="Helvetica,sans-Serif" font-size="10.00">&#45;lib/src/BayesFilters/src</text>
<text text-anchor="middle" x="233.5" y="-163.5" font-family="Helvetica,sans-Serif" font-size="10.00">/UKFPrediction.cpp</text>
</a>
</g>
</g>
<!-- Node18&#45;&gt;Node19 -->
<g id="edge18" class="edge">
<title>Node18&#45;&gt;Node19</title>
<path fill="none" stroke="midnightblue" d="M233.5,-224.3C233.5,-215.3 233.5,-205.65 233.5,-197.51"/>
<polygon fill="midnightblue" stroke="midnightblue" points="230,-224.43 233.5,-234.43 237,-224.43 230,-224.43"/>
</g>
<!-- Node22&#45;&gt;Node4 -->
<g id="edge28" class="edge">
<title>Node22&#45;&gt;Node4</title>
<path fill="none" stroke="midnightblue" d="M1299.24,-308.33C1275.51,-297.78 1247.9,-285.51 1225.39,-275.51"/>
<polygon fill="midnightblue" stroke="midnightblue" points="1297.9,-311.57 1308.46,-312.43 1300.75,-305.17 1297.9,-311.57"/>
</g>
<!-- Node22&#45;&gt;Node14 -->
<g id="edge29" class="edge">
<title>Node22&#45;&gt;Node14</title>
<path fill="none" stroke="midnightblue" d="M1248.6,-316.9C1236.43,-315.21 1224.2,-313.54 1212.5,-312 1080.24,-294.57 1046.07,-298.05 914.5,-276 911.57,-275.51 908.59,-274.99 905.58,-274.44"/>
<polygon fill="midnightblue" stroke="midnightblue" points="1248.39,-320.41 1258.78,-318.33 1249.36,-313.47 1248.39,-320.41"/>
</g>
<!-- Node22&#45;&gt;Node16 -->
<g id="edge30" class="edge">
<title>Node22&#45;&gt;Node16</title>
<path fill="none" stroke="midnightblue" d="M1252,-310.31C1204.27,-299.97 1146.43,-287.41 1094.5,-276 1091.69,-275.38 1088.82,-274.75 1085.93,-274.11"/>
<polygon fill="midnightblue" stroke="midnightblue" points="1251.52,-313.78 1262.03,-312.48 1253,-306.94 1251.52,-313.78"/>
</g>
<!-- Node23 -->
<g id="node23" class="node">
<title>Node23</title>
<g id="a_node23"><a xlink:href="GaussianFilter_8h.html" target="_top" xlink:title=" ">
<polygon fill="white" stroke="black" points="1430,-234.5 1430,-275.5 1591,-275.5 1591,-234.5 1430,-234.5"/>
<text text-anchor="start" x="1438" y="-263.5" font-family="Helvetica,sans-Serif" font-size="10.00">/home/user/bayes&#45;filters</text>
<text text-anchor="start" x="1438" y="-252.5" font-family="Helvetica,sans-Serif" font-size="10.00">&#45;lib/src/BayesFilters/include</text>
<text text-anchor="middle" x="1510.5" y="-241.5" font-family="Helvetica,sans-Serif" font-size="10.00">/BayesFilters/GaussianFilter.h</text>
</a>
</g>
</g>
<!-- Node22&#45;&gt;Node23 -->
<g id="edge24" class="edge">
<title>Node22&#45;&gt;Node23</title>
<path fill="none" stroke="midnightblue" d="M1402.29,-308.05C1424.09,-297.57 1449.33,-285.42 1469.95,-275.51"/>
<polygon fill="midnightblue" stroke="midnightblue" points="1400.68,-304.94 1393.19,-312.43 1403.72,-311.25 1400.68,-304.94"/>
</g>
<!-- Node22&#45;&gt;Node25 -->
<g id="edge26" class="edge">
<title>Node22&#45;&gt;Node25</title>
<path fill="none" stroke="midnightblue" d="M1449.24,-310.18C1499.76,-298.79 1560.85,-285.01 1608.79,-274.2"/>
<polygon fill="midnightblue" stroke="midnightblue" points="1448.27,-306.81 1439.29,-312.43 1449.81,-313.64 1448.27,-306.81"/>
</g>
<!-- Node27 -->
<g id="node27" class="node">
<title>Node27</title>
<g id="a_node27"><a xlink:href="GaussianCorrection_8cpp.html" target="_top" xlink:title=" ">
<polygon fill="white" stroke="black" points="1277,-234.5 1277,-275.5 1412,-275.5 1412,-234.5 1277,-234.5"/>
<text text-anchor="start" x="1285" y="-263.5" font-family="Helvetica,sans-Serif" font-size="10.00">/home/user/bayes&#45;filters</text>
<text text-anchor="start" x="1285" y="-252.5" font-family="Helvetica,sans-Serif" font-size="10.00">&#45;lib/src/BayesFilters/src</text>
<text text-anchor="middle" x="1344.5" y="-241.5" font-family="Helvetica,sans-Serif" font-size="10.00">/GaussianCorrection.cpp</text>
</a>
</g>
</g>
<!-- Node22&#45;&gt;Node27 -->
<g id="edge31" class="edge">
<title>Node22&#45;&gt;Node27</title>
<path fill="none" stroke="midnightblue" d="M1349.37,-302.3C1348.43,-293.3 1347.41,-283.65 1346.55,-275.51"/>
<polygon fill="midnightblue" stroke="midnightblue" points="1345.91,-302.85 1350.44,-312.43 1352.87,-302.12 1345.91,-302.85"/>
</g>
<!-- Node24 -->
<g id="node24" class="node">
<title>Node24</title>
<g id="a_node24"><a xlink:href="GaussianFilter_8cpp.html" target="_top" xlink:title=" ">
<polygon fill="white" stroke="black" points="1443,-156.5 1443,-197.5 1578,-197.5 1578,-156.5 1443,-156.5"/>
<text text-anchor="start" x="1451" y="-185.5" font-family="Helvetica,sans-Serif" font-size="10.00">/home/user/bayes&#45;filters</text>
<text text-anchor="start" x="1451" y="-174.5" font-family="Helvetica,sans-Serif" font-size="10.00">&#45;lib/src/BayesFilters/src</text>
<text text-anchor="middle" x="1510.5" y="-163.5" font-family="Helvetica,sans-Serif" font-size="10.00">/GaussianFilter.cpp</text>
</a>
</g>
</g>
<!-- Node23&#45;&gt;Node24 -->
<g id="edge25" class="edge">
<title>Node23&#45;&gt;Node24</title>
<path fill="none" stroke="midnightblue" d="M1510.5,-224.3C1510.5,-215.3 1510.5,-205.65 1510.5,-197.51"/>
<polygon fill="midnightblue" stroke="midnightblue" points="1507,-224.43 1510.5,-234.43 1514,-224.43 1507,-224.43"/>
</g>
<!-- Node26 -->
<g id="node26" class="node">
<title>Node26</title>
<g id="a_node26"><a xlink:href="GPFCorrection_8cpp.html" target="_top" xlink:title=" ">
<polygon fill="white" stroke="black" points="1622,-156.5 1622,-197.5 1757,-197.5 1757,-156.5 1622,-156.5"/>
<text text-anchor="start" x="1630" y="-185.5" font-family="Helvetica,sans-Serif" font-size="10.00">/home/user/bayes&#45;filters</text>
<text text-anchor="start" x="1630" y="-174.5" font-family="Helvetica,sans-Serif" font-size="10.00">&#45;lib/src/BayesFilters/src</text>
<text text-anchor="middle" x="1689.5" y="-163.5" font-family="Helvetica,sans-Serif" font-size="10.00">/GPFCorrection.cpp</text>
</a>
</g>
</g>
<!-- Node25&#45;&gt;Node26 -->
<g id="edge27" class="edge">
<title>Node25&#45;&gt;Node26</title>
<path fill="none" stroke="midnightblue" d="M1689.5,-224.3C1689.5,-215.3 1689.5,-205.65 1689.5,-197.51"/>
<polygon fill="midnightblue" stroke="midnightblue" points="1686,-224.43 1689.5,-234.43 1693,-224.43 1686,-224.43"/>
</g>
<!-- Node28&#45;&gt;Node25 -->
<g id="edge36" class="edge">
<title>Node28&#45;&gt;Node25</title>
<path fill="none" stroke="midnightblue" d="M1724.34,-380.77C1715.75,-350.02 1702.48,-302.47 1695.04,-275.83"/>
<polygon fill="midnightblue" stroke="midnightblue" points="1720.99,-381.81 1727.05,-390.5 1727.74,-379.92 1720.99,-381.81"/>
</g>
<!-- Node29 -->
<g id="node29" class="node">
<title>Node29</title>
<g id="a_node29"><a xlink:href="GaussianLikelihood_8h.html" target="_top" xlink:title=" ">
<polygon fill="white" stroke="black" points="1740.5,-312.5 1740.5,-353.5 1926.5,-353.5 1926.5,-312.5 1740.5,-312.5"/>
<text text-anchor="start" x="1748.5" y="-341.5" font-family="Helvetica,sans-Serif" font-size="10.00">/home/user/bayes&#45;filters</text>
<text text-anchor="start" x="1748.5" y="-330.5" font-family="Helvetica,sans-Serif" font-size="10.00">&#45;lib/src/BayesFilters/include</text>
<text text-anchor="middle" x="1833.5" y="-319.5" font-family="Helvetica,sans-Serif" font-size="10.00">/BayesFilters/GaussianLikelihood.h</text>
</a>
</g>
</g>
<!-- Node28&#45;&gt;Node29 -->
<g id="edge34" class="edge">
<title>Node28&#45;&gt;Node29</title>
<path fill="none" stroke="midnightblue" d="M1766.59,-384.35C1779.98,-374.27 1795.1,-362.89 1807.58,-353.51"/>
<polygon fill="midnightblue" stroke="midnightblue" points="1764.4,-381.62 1758.51,-390.43 1768.6,-387.21 1764.4,-381.62"/>
</g>
<!-- Node28&#45;&gt;Node31 -->
<g id="edge37" class="edge">
<title>Node28&#45;&gt;Node31</title>
<path fill="none" stroke="midnightblue" d="M1819.06,-387.92C1861.75,-377.04 1912.78,-364.02 1954.02,-353.51"/>
<polygon fill="midnightblue" stroke="midnightblue" points="1818.07,-384.57 1809.24,-390.43 1819.8,-391.35 1818.07,-384.57"/>
</g>
<!-- Node30 -->
<g id="node30" class="node">
<title>Node30</title>
<g id="a_node30"><a xlink:href="GaussianLikelihood_8cpp.html" target="_top" xlink:title=" ">
<polygon fill="white" stroke="black" points="1788,-234.5 1788,-275.5 1923,-275.5 1923,-234.5 1788,-234.5"/>
<text text-anchor="start" x="1796" y="-263.5" font-family="Helvetica,sans-Serif" font-size="10.00">/home/user/bayes&#45;filters</text>
<text text-anchor="start" x="1796" y="-252.5" font-family="Helvetica,sans-Serif" font-size="10.00">&#45;lib/src/BayesFilters/src</text>
<text text-anchor="middle" x="1855.5" y="-241.5" font-family="Helvetica,sans-Serif" font-size="10.00">/GaussianLikelihood.cpp</text>
</a>
</g>
</g>
<!-- Node29&#45;&gt;Node30 -->
<g id="edge35" class="edge">
<title>Node29&#45;&gt;Node30</title>
<path fill="none" stroke="midnightblue" d="M1842.01,-302.59C1844.64,-293.51 1847.47,-283.74 1849.85,-275.51"/>
<polygon fill="midnightblue" stroke="midnightblue" points="1838.58,-301.85 1839.17,-312.43 1845.31,-303.8 1838.58,-301.85"/>
</g>
<!-- Node31&#45;&gt;Node25 -->
<g id="edge40" class="edge">
<title>Node31&#45;&gt;Node25</title>
<path fill="none" stroke="midnightblue" d="M1943.34,-312.57C1890,-300.69 1822.23,-285.58 1770.13,-273.97"/>
<polygon fill="midnightblue" stroke="midnightblue" points="1942.6,-316 1953.12,-314.75 1944.12,-309.16 1942.6,-316"/>
</g>
<!-- Node32 -->
<g id="node32" class="node">
<title>Node32</title>
<g id="a_node32"><a xlink:href="BootstrapCorrection_8h.html" target="_top" xlink:title=" ">
<polygon fill="white" stroke="black" points="1941,-234.5 1941,-275.5 2130,-275.5 2130,-234.5 1941,-234.5"/>
<text text-anchor="start" x="1949" y="-263.5" font-family="Helvetica,sans-Serif" font-size="10.00">/home/user/bayes&#45;filters</text>
<text text-anchor="start" x="1949" y="-252.5" font-family="Helvetica,sans-Serif" font-size="10.00">&#45;lib/src/BayesFilters/include</text>
<text text-anchor="middle" x="2035.5" y="-241.5" font-family="Helvetica,sans-Serif" font-size="10.00">/BayesFilters/BootstrapCorrection.h</text>
</a>
</g>
</g>
<!-- Node31&#45;&gt;Node32 -->
<g id="edge38" class="edge">
<title>Node31&#45;&gt;Node32</title>
<path fill="none" stroke="midnightblue" d="M2032.45,-302.3C2033.05,-293.3 2033.68,-283.65 2034.22,-275.51"/>
<polygon fill="midnightblue" stroke="midnightblue" points="2028.95,-302.22 2031.79,-312.43 2035.94,-302.68 2028.95,-302.22"/>
</g>
<!-- Node34 -->
<g id="node34" class="node">
<title>Node34</title>
<g id="a_node34"><a xlink:href="ParticleFilter_8h.html" target="_top" xlink:title=" ">
<polygon fill="white" stroke="black" points="2148.5,-234.5 2148.5,-275.5 2300.5,-275.5 2300.5,-234.5 2148.5,-234.5"/>
<text text-anchor="start" x="2156.5" y="-263.5" font-family="Helvetica,sans-Serif" font-size="10.00">/home/user/bayes&#45;filters</text>
<text text-anchor="start" x="2156.5" y="-252.5" font-family="Helvetica,sans-Serif" font-size="10.00">&#45;lib/src/BayesFilters/include</text>
<text text-anchor="middle" x="2224.5" y="-241.5" font-family="Helvetica,sans-Serif" font-size="10.00">/BayesFilters/ParticleFilter.h</text>
</a>
</g>
</g>
<!-- Node31&#45;&gt;Node34 -->
<g id="edge41" class="edge">
<title>Node31&#45;&gt;Node34</title>
<path fill="none" stroke="midnightblue" d="M2089.85,-308.75C2117.01,-298.11 2148.83,-285.65 2174.71,-275.51"/>
<polygon fill="midnightblue" stroke="midnightblue" points="2088.49,-305.52 2080.46,-312.43 2091.05,-312.04 2088.49,-305.52"/>
</g>
<!-- Node35 -->
<g id="node35" class="node">
<title>Node35</title>
<g id="a_node35"><a xlink:href="SIS_8h.html" target="_top" xlink:title=" ">
<polygon fill="white" stroke="black" points="2358,-156.5 2358,-197.5 2509,-197.5 2509,-156.5 2358,-156.5"/>
<text text-anchor="start" x="2366" y="-185.5" font-family="Helvetica,sans-Serif" font-size="10.00">/home/user/bayes&#45;filters</text>
<text text-anchor="start" x="2366" y="-174.5" font-family="Helvetica,sans-Serif" font-size="10.00">&#45;lib/src/BayesFilters/include</text>
<text text-anchor="middle" x="2433.5" y="-163.5" font-family="Helvetica,sans-Serif" font-size="10.00">/BayesFilters/SIS.h</text>
</a>
</g>
</g>
<!-- Node31&#45;&gt;Node35 -->
<g id="edge45" class="edge">
<title>Node31&#45;&gt;Node35</title>
<path fill="none" stroke="midnightblue" d="M2117.83,-312.32C2209.71,-301.72 2413.66,-331.29 2463.5,-276 2483.28,-254.06 2464.79,-219.37 2449.35,-197.69"/>
<polygon fill="midnightblue" stroke="midnightblue" points="2117.14,-308.88 2107.72,-313.73 2118.11,-315.81 2117.14,-308.88"/>
</g>
<!-- Node38 -->
<g id="node38" class="node">
<title>Node38</title>
<g id="a_node38"><a xlink:href="PFCorrection_8cpp.html" target="_top" xlink:title=" ">
<polygon fill="white" stroke="black" points="2319,-234.5 2319,-275.5 2454,-275.5 2454,-234.5 2319,-234.5"/>
<text text-anchor="start" x="2327" y="-263.5" font-family="Helvetica,sans-Serif" font-size="10.00">/home/user/bayes&#45;filters</text>
<text text-anchor="start" x="2327" y="-252.5" font-family="Helvetica,sans-Serif" font-size="10.00">&#45;lib/src/BayesFilters/src</text>
<text text-anchor="middle" x="2386.5" y="-241.5" font-family="Helvetica,sans-Serif" font-size="10.00">/PFCorrection.cpp</text>
</a>
</g>
</g>
<!-- Node31&#45;&gt;Node38 -->
<g id="edge46" class="edge">
<title>Node31&#45;&gt;Node38</title>
<path fill="none" stroke="midnightblue" d="M2117.77,-311.99C2204.18,-294.29 2227.83,-294.24 2309.5,-276 2312.6,-275.31 2315.77,-274.58 2318.96,-273.82"/>
<polygon fill="midnightblue" stroke="midnightblue" points="2116.87,-308.61 2107.79,-314.06 2118.29,-315.46 2116.87,-308.61"/>
</g>
<!-- Node33 -->
<g id="node33" class="node">
<title>Node33</title>
<g id="a_node33"><a xlink:href="BootstrapCorrection_8cpp.html" target="_top" xlink:title=" ">
<polygon fill="white" stroke="black" points="1967,-156.5 1967,-197.5 2104,-197.5 2104,-156.5 1967,-156.5"/>
<text text-anchor="start" x="1975" y="-185.5" font-family="Helvetica,sans-Serif" font-size="10.00">/home/user/bayes&#45;filters</text>
<text text-anchor="start" x="1975" y="-174.5" font-family="Helvetica,sans-Serif" font-size="10.00">&#45;lib/src/BayesFilters/src</text>
<text text-anchor="middle" x="2035.5" y="-163.5" font-family="Helvetica,sans-Serif" font-size="10.00">/BootstrapCorrection.cpp</text>
</a>
</g>
</g>
<!-- Node32&#45;&gt;Node33 -->
<g id="edge39" class="edge">
<title>Node32&#45;&gt;Node33</title>
<path fill="none" stroke="midnightblue" d="M2035.5,-224.3C2035.5,-215.3 2035.5,-205.65 2035.5,-197.51"/>
<polygon fill="midnightblue" stroke="midnightblue" points="2032,-224.43 2035.5,-234.43 2039,-224.43 2032,-224.43"/>
</g>
<!-- Node34&#45;&gt;Node35 -->
<g id="edge42" class="edge">
<title>Node34&#45;&gt;Node35</title>
<path fill="none" stroke="midnightblue" d="M2288.06,-230.89C2317.4,-220.22 2351.85,-207.69 2379.86,-197.51"/>
<polygon fill="midnightblue" stroke="midnightblue" points="2286.52,-227.72 2278.32,-234.43 2288.92,-234.3 2286.52,-227.72"/>
</g>
<!-- Node37 -->
<g id="node37" class="node">
<title>Node37</title>
<g id="a_node37"><a xlink:href="ParticleFilter_8cpp.html" target="_top" xlink:title=" ">
<polygon fill="white" stroke="black" points="2157,-156.5 2157,-197.5 2292,-197.5 2292,-156.5 2157,-156.5"/>
<text text-anchor="start" x="2165" y="-185.5" font-family="Helvetica,sans-Serif" font-size="10.00">/home/user/bayes&#45;filters</text>
<text text-anchor="start" x="2165" y="-174.5" font-family="Helvetica,sans-Serif" font-size="10.00">&#45;lib/src/BayesFilters/src</text>
<text text-anchor="middle" x="2224.5" y="-163.5" font-family="Helvetica,sans-Serif" font-size="10.00">/ParticleFilter.cpp</text>
</a>
</g>
</g>
<!-- Node34&#45;&gt;Node37 -->
<g id="edge44" class="edge">
<title>Node34&#45;&gt;Node37</title>
<path fill="none" stroke="midnightblue" d="M2224.5,-224.3C2224.5,-215.3 2224.5,-205.65 2224.5,-197.51"/>
<polygon fill="midnightblue" stroke="midnightblue" points="2221,-224.43 2224.5,-234.43 2228,-224.43 2221,-224.43"/>
</g>
<!-- Node36 -->
<g id="node36" class="node">
<title>Node36</title>
<g id="a_node36"><a xlink:href="SIS_8cpp.html" target="_top" xlink:title=" ">
<polygon fill="white" stroke="black" points="2366,-78.5 2366,-119.5 2501,-119.5 2501,-78.5 2366,-78.5"/>
<text text-anchor="start" x="2374" y="-107.5" font-family="Helvetica,sans-Serif" font-size="10.00">/home/user/bayes&#45;filters</text>
<text text-anchor="start" x="2374" y="-96.5" font-family="Helvetica,sans-Serif" font-size="10.00">&#45;lib/src/BayesFilters/src</text>
<text text-anchor="middle" x="2433.5" y="-85.5" font-family="Helvetica,sans-Serif" font-size="10.00">/SIS.cpp</text>
</a>
</g>
</g>
<!-- Node35&#45;&gt;Node36 -->
<g id="edge43" class="edge">
<title>Node35&#45;&gt;Node36</title>
<path fill="none" stroke="midnightblue" d="M2433.5,-146.3C2433.5,-137.3 2433.5,-127.65 2433.5,-119.51"/>
<polygon fill="midnightblue" stroke="midnightblue" points="2430,-146.43 2433.5,-156.43 2437,-146.43 2430,-146.43"/>
</g>
<!-- Node40 -->
<g id="node40" class="node">
<title>Node40</title>
<g id="a_node40"><a xlink:href="MeasurementModelDecorator_8cpp.html" target="_top" xlink:title=" ">
<polygon fill="white" stroke="black" points="2126,-312.5 2126,-353.5 2311,-353.5 2311,-312.5 2126,-312.5"/>
<text text-anchor="start" x="2134" y="-341.5" font-family="Helvetica,sans-Serif" font-size="10.00">/home/user/bayes&#45;filters</text>
<text text-anchor="start" x="2134" y="-330.5" font-family="Helvetica,sans-Serif" font-size="10.00">&#45;lib/src/BayesFilters/src</text>
<text text-anchor="middle" x="2218.5" y="-319.5" font-family="Helvetica,sans-Serif" font-size="10.00">/MeasurementModelDecorator.cpp</text>
</a>
</g>
</g>
<!-- Node39&#45;&gt;Node40 -->
<g id="edge48" class="edge">
<title>Node39&#45;&gt;Node40</title>
<path fill="none" stroke="midnightblue" d="M2060.4,-387.17C2092.31,-376.44 2129.95,-363.78 2160.5,-353.51"/>
<polygon fill="midnightblue" stroke="midnightblue" points="2059.06,-383.92 2050.7,-390.43 2061.29,-390.56 2059.06,-383.92"/>
</g>
</g>
</svg>
