<?xml version="1.0" encoding="UTF-8" standalone="no"?>
<!DOCTYPE svg PUBLIC "-//W3C//DTD SVG 1.1//EN"
 "http://www.w3.org/Graphics/SVG/1.1/DTD/svg11.dtd">
<!-- Generated by graphviz version 2.43.0 (0)
 -->
<!-- Title: bfl::sigma_point::unscented_transform Pages: 1 -->
<svg width="876pt" height="417pt"
 viewBox="0.00 0.00 876.00 416.53" xmlns="http://www.w3.org/2000/svg" xmlns:xlink="http://www.w3.org/1999/xlink">
<g id="graph0" class="graph" transform="scale(1 1) rotate(0) translate(4 412.53)">
<title>bfl::sigma_point::unscented_transform</title>
<polygon fill="white" stroke="transparent" points="-4,4 -4,-412.53 872,-412.53 872,4 -4,4"/>
<!-- Node1 -->
<g id="node1" class="node">
<title>Node1</title>
<g id="a_node1"><a xlink:title=" ">
<polygon fill="#bfbfbf" stroke="black" points="0,-159.5 0,-189.5 151,-189.5 151,-159.5 0,-159.5"/>
<text text-anchor="start" x="8" y="-177.5" font-family="Helvetica,sans-Serif" font-size="10.00">bfl::sigma_point::unscented</text>
<text text-anchor="middle" x="75.5" y="-166.5" font-family="Helvetica,sans-Serif" font-size="10.00">_transform</text>
</a>
</g>
</g>
<!-- Node2 -->
<g id="node2" class="node">
<title>Node2</title>
<g id="a_node2"><a xlink:href="classbfl_1_1GaussianMixture.html#a63afff5b5e09399a51ac4dbe50de568b" target="_top" xlink:title=" ">
<polygon fill="white" stroke="black" points="578.5,-333.5 578.5,-363.5 695.5,-363.5 695.5,-333.5 578.5,-333.5"/>
<text text-anchor="start" x="586.5" y="-351.5" font-family="Helvetica,sans-Serif" font-size="10.00">bfl::GaussianMixture</text>
<text text-anchor="middle" x="637" y="-340.5" font-family="Helvetica,sans-Serif" font-size="10.00">::covariance</text>
</a>
</g>
</g>
<!-- Node1&#45;&gt;Node2 -->
<g id="edge1" class="edge">
<title>Node1&#45;&gt;Node2</title>
<path fill="none" stroke="midnightblue" d="M90.27,-189.55C130.44,-232.15 252.9,-353.28 384,-395.5 446.19,-415.53 467.11,-409.15 531,-395.5 555.62,-390.24 581.45,-378.77 601.33,-368.47"/>
<polygon fill="midnightblue" stroke="midnightblue" points="603.11,-371.49 610.3,-363.7 599.82,-365.31 603.11,-371.49"/>
</g>
<!-- Node3 -->
<g id="node3" class="node">
<title>Node3</title>
<g id="a_node3"><a xlink:href="classbfl_1_1MeasurementModel.html#a7e1134b6efa79a7e88e4162fd68a7d6a" target="_top" xlink:title=" ">
<polygon fill="white" stroke="black" points="187,-159.5 187,-189.5 348,-189.5 348,-159.5 187,-159.5"/>
<text text-anchor="start" x="195" y="-177.5" font-family="Helvetica,sans-Serif" font-size="10.00">bfl::MeasurementModel</text>
<text text-anchor="middle" x="267.5" y="-166.5" font-family="Helvetica,sans-Serif" font-size="10.00">::getMeasurementDescription</text>
</a>
</g>
</g>
<!-- Node1&#45;&gt;Node3 -->
<g id="edge2" class="edge">
<title>Node1&#45;&gt;Node3</title>
<path fill="none" stroke="midnightblue" d="M151.05,-174.5C159.49,-174.5 168.16,-174.5 176.77,-174.5"/>
<polygon fill="midnightblue" stroke="midnightblue" points="176.84,-178 186.84,-174.5 176.84,-171 176.84,-178"/>
</g>
<!-- Node4 -->
<g id="node4" class="node">
<title>Node4</title>
<g id="a_node4"><a xlink:href="classbfl_1_1MeasurementModel.html#af25f42076b69e0c6cab47d36d796536f" target="_top" xlink:title=" ">
<polygon fill="white" stroke="black" points="191.5,-110.5 191.5,-140.5 343.5,-140.5 343.5,-110.5 191.5,-110.5"/>
<text text-anchor="start" x="199.5" y="-128.5" font-family="Helvetica,sans-Serif" font-size="10.00">bfl::MeasurementModel</text>
<text text-anchor="middle" x="267.5" y="-117.5" font-family="Helvetica,sans-Serif" font-size="10.00">::getNoiseCovarianceMatrix</text>
</a>
</g>
</g>
<!-- Node1&#45;&gt;Node4 -->
<g id="edge3" class="edge">
<title>Node1&#45;&gt;Node4</title>
<path fill="none" stroke="midnightblue" d="M134.8,-159.47C154.95,-154.27 177.71,-148.4 198.56,-143.02"/>
<polygon fill="midnightblue" stroke="midnightblue" points="199.5,-146.39 208.31,-140.51 197.76,-139.61 199.5,-146.39"/>
</g>
<!-- Node5 -->
<g id="node5" class="node">
<title>Node5</title>
<g id="a_node5"><a xlink:href="classbfl_1_1MeasurementModel.html#abd47546b1038cc28b6d7375667427504" target="_top" xlink:title=" ">
<polygon fill="white" stroke="black" points="201.5,-61.5 201.5,-91.5 333.5,-91.5 333.5,-61.5 201.5,-61.5"/>
<text text-anchor="start" x="209.5" y="-79.5" font-family="Helvetica,sans-Serif" font-size="10.00">bfl::MeasurementModel</text>
<text text-anchor="middle" x="267.5" y="-68.5" font-family="Helvetica,sans-Serif" font-size="10.00">::predictedMeasure</text>
</a>
</g>
</g>
<!-- Node1&#45;&gt;Node5 -->
<g id="edge4" class="edge">
<title>Node1&#45;&gt;Node5</title>
<path fill="none" stroke="midnightblue" d="M95.41,-159.27C116.61,-142.82 152.56,-116.78 187,-100.5 191.07,-98.58 195.33,-96.76 199.67,-95.07"/>
<polygon fill="midnightblue" stroke="midnightblue" points="201.09,-98.27 209.27,-91.53 198.67,-91.7 201.09,-98.27"/>
</g>
<!-- Node6 -->
<g id="node6" class="node">
<title>Node6</title>
<g id="a_node6"><a xlink:href="namespacebfl_1_1sigma__point.html#afe170453152d4f96db4dad71bd9be9a3" target="_top" xlink:title=" ">
<polygon fill="white" stroke="black" points="192,-208.5 192,-238.5 343,-238.5 343,-208.5 192,-208.5"/>
<text text-anchor="start" x="200" y="-226.5" font-family="Helvetica,sans-Serif" font-size="10.00">bfl::sigma_point::unscented</text>
<text text-anchor="middle" x="267.5" y="-215.5" font-family="Helvetica,sans-Serif" font-size="10.00">_transform</text>
</a>
</g>
</g>
<!-- Node1&#45;&gt;Node6 -->
<g id="edge5" class="edge">
<title>Node1&#45;&gt;Node6</title>
<path fill="none" stroke="midnightblue" d="M134.8,-189.53C154.95,-194.73 177.71,-200.6 198.56,-205.98"/>
<polygon fill="midnightblue" stroke="midnightblue" points="197.76,-209.39 208.31,-208.49 199.5,-202.61 197.76,-209.39"/>
</g>
<!-- Node6&#45;&gt;Node2 -->
<g id="edge7" class="edge">
<title>Node6&#45;&gt;Node2</title>
<path fill="none" stroke="midnightblue" d="M281.26,-238.61C300.84,-260.64 340.61,-300.95 384,-319.5 442.75,-344.62 515.84,-350.58 568.15,-351.03"/>
<polygon fill="midnightblue" stroke="midnightblue" points="568.32,-354.53 578.33,-351.05 568.34,-347.53 568.32,-354.53"/>
</g>
<!-- Node7 -->
<g id="node7" class="node">
<title>Node7</title>
<g id="a_node7"><a xlink:href="classbfl_1_1VectorDescription.html#a08a52559af5e67e1f225466a77d852ff" target="_top" xlink:title=" ">
<polygon fill="white" stroke="black" points="395.5,-230.5 395.5,-260.5 519.5,-260.5 519.5,-230.5 395.5,-230.5"/>
<text text-anchor="start" x="403.5" y="-248.5" font-family="Helvetica,sans-Serif" font-size="10.00">bfl::VectorDescription</text>
<text text-anchor="middle" x="457.5" y="-237.5" font-family="Helvetica,sans-Serif" font-size="10.00">::circular_components</text>
</a>
</g>
</g>
<!-- Node6&#45;&gt;Node7 -->
<g id="edge6" class="edge">
<title>Node6&#45;&gt;Node7</title>
<path fill="none" stroke="midnightblue" d="M343.07,-232.23C356.88,-233.84 371.27,-235.53 384.98,-237.13"/>
<polygon fill="midnightblue" stroke="midnightblue" points="384.98,-240.65 395.32,-238.34 385.79,-233.7 384.98,-240.65"/>
</g>
<!-- Node8 -->
<g id="node8" class="node">
<title>Node8</title>
<g id="a_node8"><a xlink:href="namespacebfl_1_1utils.html#a26bbb191de2e28c267c505a1e9ef0951" target="_top" xlink:title="Evaluate the colwise difference between a set of unit quaternions &#160;and a unit quaternion .">
<polygon fill="white" stroke="black" points="390,-6 390,-25 525,-25 525,-6 390,-6"/>
<text text-anchor="middle" x="457.5" y="-13" font-family="Helvetica,sans-Serif" font-size="10.00">bfl::utils::diff_quaternion</text>
</a>
</g>
</g>
<!-- Node6&#45;&gt;Node8 -->
<g id="edge8" class="edge">
<title>Node6&#45;&gt;Node8</title>
<path fill="none" stroke="midnightblue" d="M335.93,-208.36C340.38,-205.6 344.48,-202.34 348,-198.5 398.38,-143.45 332.3,-88.32 384,-34.5 385.27,-33.18 386.62,-31.94 388.04,-30.79"/>
<polygon fill="midnightblue" stroke="midnightblue" points="390.35,-33.46 396.8,-25.05 386.52,-27.6 390.35,-33.46"/>
</g>
<!-- Node10 -->
<g id="node10" class="node">
<title>Node10</title>
<g id="a_node10"><a xlink:href="namespacebfl_1_1directional__statistics.html#ad8758aac208bc2baa75aad514a3f53e6" target="_top" xlink:title=" ">
<polygon fill="white" stroke="black" points="389.5,-142.5 389.5,-172.5 525.5,-172.5 525.5,-142.5 389.5,-142.5"/>
<text text-anchor="start" x="397.5" y="-160.5" font-family="Helvetica,sans-Serif" font-size="10.00">bfl::directional_statistics</text>
<text text-anchor="middle" x="457.5" y="-149.5" font-family="Helvetica,sans-Serif" font-size="10.00">::directional_mean</text>
</a>
</g>
</g>
<!-- Node6&#45;&gt;Node10 -->
<g id="edge10" class="edge">
<title>Node6&#45;&gt;Node10</title>
<path fill="none" stroke="midnightblue" d="M317.84,-208.46C327.85,-205.28 338.29,-201.86 348,-198.5 368.01,-191.58 389.9,-183.42 408.73,-176.22"/>
<polygon fill="midnightblue" stroke="midnightblue" points="410.2,-179.4 418.28,-172.55 407.69,-172.87 410.2,-179.4"/>
</g>
<!-- Node11 -->
<g id="node11" class="node">
<title>Node11</title>
<g id="a_node11"><a xlink:href="namespacebfl_1_1directional__statistics.html#a18bffca88c7ea5f4ea11d2ad910736fe" target="_top" xlink:title=" ">
<polygon fill="white" stroke="black" points="389.5,-93.5 389.5,-123.5 525.5,-123.5 525.5,-93.5 389.5,-93.5"/>
<text text-anchor="start" x="397.5" y="-111.5" font-family="Helvetica,sans-Serif" font-size="10.00">bfl::directional_statistics</text>
<text text-anchor="middle" x="457.5" y="-100.5" font-family="Helvetica,sans-Serif" font-size="10.00">::directional_sub</text>
</a>
</g>
</g>
<!-- Node6&#45;&gt;Node11 -->
<g id="edge11" class="edge">
<title>Node6&#45;&gt;Node11</title>
<path fill="none" stroke="midnightblue" d="M332.44,-208.39C338.01,-205.62 343.31,-202.36 348,-198.5 373.81,-177.28 358.35,-153.91 384,-132.5 385.53,-131.23 387.12,-130.02 388.78,-128.87"/>
<polygon fill="midnightblue" stroke="midnightblue" points="390.68,-131.81 397.45,-123.67 387.08,-125.81 390.68,-131.81"/>
</g>
<!-- Node12 -->
<g id="node12" class="node">
<title>Node12</title>
<g id="a_node12"><a xlink:href="classbfl_1_1VectorDescription.html#ac5cd5eaafcfc8f8428dc3e6dccef09e3" target="_top" xlink:title=" ">
<polygon fill="white" stroke="black" points="397,-44.5 397,-74.5 518,-74.5 518,-44.5 397,-44.5"/>
<text text-anchor="start" x="405" y="-62.5" font-family="Helvetica,sans-Serif" font-size="10.00">bfl::VectorDescription</text>
<text text-anchor="middle" x="457.5" y="-51.5" font-family="Helvetica,sans-Serif" font-size="10.00">::linear_components</text>
</a>
</g>
</g>
<!-- Node6&#45;&gt;Node12 -->
<g id="edge12" class="edge">
<title>Node6&#45;&gt;Node12</title>
<path fill="none" stroke="midnightblue" d="M334.81,-208.45C339.63,-205.68 344.11,-202.39 348,-198.5 385.85,-160.61 346.44,-121.68 384,-83.5 385.39,-82.08 386.88,-80.75 388.43,-79.49"/>
<polygon fill="midnightblue" stroke="midnightblue" points="390.41,-82.38 396.7,-73.85 386.47,-76.59 390.41,-82.38"/>
</g>
<!-- Node13 -->
<g id="node13" class="node">
<title>Node13</title>
<g id="a_node13"><a xlink:href="classbfl_1_1GaussianMixture.html#a7b33a3796b65b8a8b44f9569f226b4cf" target="_top" xlink:title=" ">
<polygon fill="white" stroke="black" points="578.5,-186.5 578.5,-216.5 695.5,-216.5 695.5,-186.5 578.5,-186.5"/>
<text text-anchor="start" x="586.5" y="-204.5" font-family="Helvetica,sans-Serif" font-size="10.00">bfl::GaussianMixture</text>
<text text-anchor="middle" x="637" y="-193.5" font-family="Helvetica,sans-Serif" font-size="10.00">::mean</text>
</a>
</g>
</g>
<!-- Node6&#45;&gt;Node13 -->
<g id="edge13" class="edge">
<title>Node6&#45;&gt;Node13</title>
<path fill="none" stroke="midnightblue" d="M343.31,-219.02C409.21,-215.08 504.38,-209.38 568.12,-205.56"/>
<polygon fill="midnightblue" stroke="midnightblue" points="568.69,-209.04 578.46,-204.94 568.27,-202.05 568.69,-209.04"/>
</g>
<!-- Node14 -->
<g id="node14" class="node">
<title>Node14</title>
<g id="a_node14"><a xlink:href="namespacebfl_1_1utils.html#ae8f8bf6fbbee917d1ff3e2bf6578ea19" target="_top" xlink:title="Evaluate the weighted mean of a set of unit quaternions &#160;given a set of weights .">
<polygon fill="white" stroke="black" points="384,-367 384,-386 531,-386 531,-367 384,-367"/>
<text text-anchor="middle" x="457.5" y="-374" font-family="Helvetica,sans-Serif" font-size="10.00">bfl::utils::mean_quaternion</text>
</a>
</g>
</g>
<!-- Node6&#45;&gt;Node14 -->
<g id="edge14" class="edge">
<title>Node6&#45;&gt;Node14</title>
<path fill="none" stroke="midnightblue" d="M278.05,-238.56C295.75,-265.3 336.23,-321.19 384,-352.5 390.63,-356.84 398.11,-360.47 405.69,-363.47"/>
<polygon fill="midnightblue" stroke="midnightblue" points="404.69,-366.83 415.29,-366.95 407.08,-360.25 404.69,-366.83"/>
</g>
<!-- Node15 -->
<g id="node15" class="node">
<title>Node15</title>
<g id="a_node15"><a xlink:href="namespacebfl_1_1sigma__point.html#ab919aca5fccc30ee2acd5cd966cd9dc9" target="_top" xlink:title=" ">
<polygon fill="white" stroke="black" points="392,-279.5 392,-309.5 523,-309.5 523,-279.5 392,-279.5"/>
<text text-anchor="start" x="400" y="-297.5" font-family="Helvetica,sans-Serif" font-size="10.00">bfl::sigma_point::sigma</text>
<text text-anchor="middle" x="457.5" y="-286.5" font-family="Helvetica,sans-Serif" font-size="10.00">_point</text>
</a>
</g>
</g>
<!-- Node6&#45;&gt;Node15 -->
<g id="edge15" class="edge">
<title>Node6&#45;&gt;Node15</title>
<path fill="none" stroke="midnightblue" d="M305,-238.55C327.64,-247.75 357.39,-259.62 384,-269.5 389.9,-271.69 396.09,-273.92 402.26,-276.11"/>
<polygon fill="midnightblue" stroke="midnightblue" points="401.31,-279.48 411.91,-279.49 403.63,-272.88 401.31,-279.48"/>
</g>
<!-- Node9 -->
<g id="node9" class="node">
<title>Node9</title>
<g id="a_node9"><a xlink:href="namespacebfl_1_1utils.html#a294bdf526be6ef1c5bad59e737f2af63" target="_top" xlink:title="Convert a matrix of unit quaternions &#160;to their rotation vector representation &#160;in the tangent space a...">
<polygon fill="white" stroke="black" points="580,-0.5 580,-30.5 694,-30.5 694,-0.5 580,-0.5"/>
<text text-anchor="start" x="588" y="-18.5" font-family="Helvetica,sans-Serif" font-size="10.00">bfl::utils::quaternion</text>
<text text-anchor="middle" x="637" y="-7.5" font-family="Helvetica,sans-Serif" font-size="10.00">_to_rotation_vector</text>
</a>
</g>
</g>
<!-- Node8&#45;&gt;Node9 -->
<g id="edge9" class="edge">
<title>Node8&#45;&gt;Node9</title>
<path fill="none" stroke="midnightblue" d="M525.1,-15.5C539.59,-15.5 554.91,-15.5 569.4,-15.5"/>
<polygon fill="midnightblue" stroke="midnightblue" points="569.77,-19 579.77,-15.5 569.77,-12 569.77,-19"/>
</g>
<!-- Node15&#45;&gt;Node2 -->
<g id="edge16" class="edge">
<title>Node15&#45;&gt;Node2</title>
<path fill="none" stroke="midnightblue" d="M507.94,-309.54C529.3,-316.04 554.46,-323.69 576.8,-330.49"/>
<polygon fill="midnightblue" stroke="midnightblue" points="575.93,-333.88 586.51,-333.45 577.97,-327.19 575.93,-333.88"/>
</g>
<!-- Node15&#45;&gt;Node13 -->
<g id="edge18" class="edge">
<title>Node15&#45;&gt;Node13</title>
<path fill="none" stroke="midnightblue" d="M513.17,-279.38C519.44,-276.58 525.54,-273.31 531,-269.5 551.73,-255.06 546.29,-239.97 567,-225.5 569.14,-224.01 571.38,-222.6 573.69,-221.27"/>
<polygon fill="midnightblue" stroke="midnightblue" points="575.6,-224.22 582.89,-216.54 572.4,-218 575.6,-224.22"/>
</g>
<!-- Node16 -->
<g id="node16" class="node">
<title>Node16</title>
<g id="a_node16"><a xlink:href="namespacebfl_1_1directional__statistics.html#af9984a4df2b3f6f0bc0c264783181123" target="_top" xlink:title=" ">
<polygon fill="white" stroke="black" points="569,-235.5 569,-265.5 705,-265.5 705,-235.5 569,-235.5"/>
<text text-anchor="start" x="577" y="-253.5" font-family="Helvetica,sans-Serif" font-size="10.00">bfl::directional_statistics</text>
<text text-anchor="middle" x="637" y="-242.5" font-family="Helvetica,sans-Serif" font-size="10.00">::directional_add</text>
</a>
</g>
</g>
<!-- Node15&#45;&gt;Node16 -->
<g id="edge17" class="edge">
<title>Node15&#45;&gt;Node16</title>
<path fill="none" stroke="midnightblue" d="M519.09,-279.48C534,-275.78 550.1,-271.79 565.43,-267.99"/>
<polygon fill="midnightblue" stroke="midnightblue" points="566.52,-271.33 575.38,-265.53 564.83,-264.54 566.52,-271.33"/>
</g>
<!-- Node17 -->
<g id="node17" class="node">
<title>Node17</title>
<g id="a_node17"><a xlink:href="namespacebfl_1_1utils.html#ab1ca09c6f5d699242615c8dbc89fa2e0" target="_top" xlink:title="Evaluate the colwise sum between a unit quaternion &#160;and a set of rotation vectors &#160;in the tangent spa...">
<polygon fill="white" stroke="black" points="567,-284.5 567,-314.5 707,-314.5 707,-284.5 567,-284.5"/>
<text text-anchor="start" x="575" y="-302.5" font-family="Helvetica,sans-Serif" font-size="10.00">bfl::utils::sum_quaternion</text>
<text text-anchor="middle" x="637" y="-291.5" font-family="Helvetica,sans-Serif" font-size="10.00">_rotation_vector</text>
</a>
</g>
</g>
<!-- Node15&#45;&gt;Node17 -->
<g id="edge19" class="edge">
<title>Node15&#45;&gt;Node17</title>
<path fill="none" stroke="midnightblue" d="M523.08,-296.32C534.01,-296.63 545.47,-296.95 556.72,-297.27"/>
<polygon fill="midnightblue" stroke="midnightblue" points="556.88,-300.77 566.98,-297.56 557.08,-293.78 556.88,-300.77"/>
</g>
<!-- Node18 -->
<g id="node18" class="node">
<title>Node18</title>
<g id="a_node18"><a xlink:href="namespacebfl_1_1utils.html#af901548c98d811c2b176e1d9b02aabb3" target="_top" xlink:title="Convert a matrix of rotation vectors &#160;in the tangent space at the identity to their unitary quaternio...">
<polygon fill="white" stroke="black" points="743,-284.5 743,-314.5 868,-314.5 868,-284.5 743,-284.5"/>
<text text-anchor="start" x="751" y="-302.5" font-family="Helvetica,sans-Serif" font-size="10.00">bfl::utils::rotation</text>
<text text-anchor="middle" x="805.5" y="-291.5" font-family="Helvetica,sans-Serif" font-size="10.00">_vector_to_quaternion</text>
</a>
</g>
</g>
<!-- Node17&#45;&gt;Node18 -->
<g id="edge20" class="edge">
<title>Node17&#45;&gt;Node18</title>
<path fill="none" stroke="midnightblue" d="M707.16,-299.5C715.61,-299.5 724.26,-299.5 732.75,-299.5"/>
<polygon fill="midnightblue" stroke="midnightblue" points="732.99,-303 742.99,-299.5 732.99,-296 732.99,-303"/>
</g>
</g>
</svg>
