<?xml version="1.0" encoding="UTF-8" standalone="no"?>
<!DOCTYPE svg PUBLIC "-//W3C//DTD SVG 1.1//EN"
 "http://www.w3.org/Graphics/SVG/1.1/DTD/svg11.dtd">
<!-- Generated by graphviz version 2.43.0 (0)
 -->
<!-- Title: bfl::sigma_point::unscented_transform Pages: 1 -->
<!--zoomable 417 -->
<svg id="main" version="1.1" xmlns="http://www.w3.org/2000/svg" xmlns:xlink="http://www.w3.org/1999/xlink" xml:space="preserve" onload="init(evt)">
<style type="text/css"><![CDATA[
.edge:hover path { stroke: red; }
.edge:hover polygon { stroke: red; fill: red; }
]]></style>
<script type="text/javascript"><![CDATA[
var edges = document.getElementsByTagName('g');
if (edges && edges.length) {
  for (var i=0;i<edges.length;i++) {
    if (edges[i].id.substr(0,4)=='edge') {
      edges[i].setAttribute('class','edge');
    }
  }
}
]]></script>
        <defs>
                <circle id="rim" cx="0" cy="0" r="7"/>
                <circle id="rim2" cx="0" cy="0" r="3.5"/>
                <g id="zoomPlus">
                        <use xlink:href="#rim" fill="#404040">
                                <set attributeName="fill" to="#808080" begin="zoomplus.mouseover" end="zoomplus.mouseout"/>
                        </use>
                        <path d="M-4,0h8M0,-4v8" fill="none" stroke="white" stroke-width="1.5" pointer-events="none"/>
                </g>
                <g id="zoomMin">
                        <use xlink:href="#rim" fill="#404040">
                                <set attributeName="fill" to="#808080" begin="zoomminus.mouseover" end="zoomminus.mouseout"/>
                        </use>
                        <path d="M-4,0h8" fill="none" stroke="white" stroke-width="1.5" pointer-events="none"/>
                </g>
                <g id="dirArrow">
                        <path fill="none" stroke="white" stroke-width="1.5" d="M0,-3.0v7 M-2.5,-0.5L0,-3.0L2.5,-0.5"/>
                </g>
               <g id="resetDef">
                       <use xlink:href="#rim2" fill="#404040">
                               <set attributeName="fill" to="#808080" begin="reset.mouseover" end="reset.mouseout"/>
                       </use>
               </g>
        </defs>

<script type="text/javascript">
var viewWidth = 866;
var viewHeight = 417;
var sectionId = 'dynsection-3';
</script>
<script xlink:href="svgpan.js"/>
<svg id="graph" class="graph">
<g id="viewport">
<title>bfl::sigma_point::unscented_transform</title>
<polygon fill="white" stroke="transparent" points="-4,4 -4,-412.74 862,-412.74 862,4 -4,4"/>
<!-- Node1 -->
<g id="node1" class="node">
<title>Node1</title>
<g id="a_node1"><a xlink:title=" ">
<polygon fill="#bfbfbf" stroke="black" points="0,-159.5 0,-189.5 151,-189.5 151,-159.5 0,-159.5"/>
<text text-anchor="start" x="8" y="-177.5" font-family="Helvetica,sans-Serif" font-size="10.00">bfl::sigma_point::unscented</text>
<text text-anchor="middle" x="75.5" y="-166.5" font-family="Helvetica,sans-Serif" font-size="10.00">_transform</text>
</a>
</g>
</g>
<!-- Node2 -->
<g id="node2" class="node">
<title>Node2</title>
<g id="a_node2"><a xlink:href="classbfl_1_1GaussianMixture.html#a63afff5b5e09399a51ac4dbe50de568b" target="_top" xlink:title=" ">
<polygon fill="white" stroke="black" points="568.5,-333.5 568.5,-363.5 685.5,-363.5 685.5,-333.5 568.5,-333.5"/>
<text text-anchor="start" x="576.5" y="-351.5" font-family="Helvetica,sans-Serif" font-size="10.00">bfl::GaussianMixture</text>
<text text-anchor="middle" x="627" y="-340.5" font-family="Helvetica,sans-Serif" font-size="10.00">::covariance</text>
</a>
</g>
</g>
<!-- Node1&#45;&gt;Node2 -->
<g id="edge1" class="edge">
<title>Node1&#45;&gt;Node2</title>
<path fill="none" stroke="midnightblue" d="M89.71,-189.54C128.27,-232.12 246.03,-353.17 374,-395.5 436.03,-416.02 457.11,-409.15 521,-395.5 545.62,-390.24 571.45,-378.77 591.33,-368.47"/>
<polygon fill="midnightblue" stroke="midnightblue" points="593.11,-371.49 600.3,-363.7 589.82,-365.31 593.11,-371.49"/>
</g>
<!-- Node3 -->
<g id="node3" class="node">
<title>Node3</title>
<g id="a_node3"><a xlink:href="classbfl_1_1StateModel.html#a423c1fa86b9d60c8663dedc6cdcae276" target="_top" xlink:title=" ">
<polygon fill="white" stroke="black" points="192.5,-159.5 192.5,-189.5 332.5,-189.5 332.5,-159.5 192.5,-159.5"/>
<text text-anchor="start" x="200.5" y="-177.5" font-family="Helvetica,sans-Serif" font-size="10.00">bfl::StateModel::getNoise</text>
<text text-anchor="middle" x="262.5" y="-166.5" font-family="Helvetica,sans-Serif" font-size="10.00">CovarianceMatrix</text>
</a>
</g>
</g>
<!-- Node1&#45;&gt;Node3 -->
<g id="edge2" class="edge">
<title>Node1&#45;&gt;Node3</title>
<path fill="none" stroke="midnightblue" d="M151.21,-174.5C161.44,-174.5 171.97,-174.5 182.28,-174.5"/>
<polygon fill="midnightblue" stroke="midnightblue" points="182.49,-178 192.49,-174.5 182.49,-171 182.49,-178"/>
</g>
<!-- Node4 -->
<g id="node4" class="node">
<title>Node4</title>
<g id="a_node4"><a xlink:href="classbfl_1_1StateProcess.html#a9c58e7fa4a7faa13c3b86eafc15bde7a" target="_top" xlink:title="Returns the vector description of the output of the state equation.">
<polygon fill="white" stroke="black" points="206,-110.5 206,-140.5 319,-140.5 319,-110.5 206,-110.5"/>
<text text-anchor="start" x="214" y="-128.5" font-family="Helvetica,sans-Serif" font-size="10.00">bfl::StateProcess::</text>
<text text-anchor="middle" x="262.5" y="-117.5" font-family="Helvetica,sans-Serif" font-size="10.00">getStateDescription</text>
</a>
</g>
</g>
<!-- Node1&#45;&gt;Node4 -->
<g id="edge3" class="edge">
<title>Node1&#45;&gt;Node4</title>
<path fill="none" stroke="midnightblue" d="M133.26,-159.47C153.07,-154.22 175.46,-148.29 195.93,-142.87"/>
<polygon fill="midnightblue" stroke="midnightblue" points="197.03,-146.2 205.8,-140.25 195.23,-139.43 197.03,-146.2"/>
</g>
<!-- Node5 -->
<g id="node5" class="node">
<title>Node5</title>
<g id="a_node5"><a xlink:href="classbfl_1_1StateProcess.html#ac8cf052b2a6d2d6c25eebf3f1c331053" target="_top" xlink:title=" ">
<polygon fill="white" stroke="black" points="210.5,-61.5 210.5,-91.5 314.5,-91.5 314.5,-61.5 210.5,-61.5"/>
<text text-anchor="start" x="218.5" y="-79.5" font-family="Helvetica,sans-Serif" font-size="10.00">bfl::StateProcess::</text>
<text text-anchor="middle" x="262.5" y="-68.5" font-family="Helvetica,sans-Serif" font-size="10.00">propagate</text>
</a>
</g>
</g>
<!-- Node1&#45;&gt;Node5 -->
<g id="edge4" class="edge">
<title>Node1&#45;&gt;Node5</title>
<path fill="none" stroke="midnightblue" d="M95.46,-159.39C116.72,-143.04 152.71,-117.1 187,-100.5 191.36,-98.39 195.94,-96.4 200.61,-94.55"/>
<polygon fill="midnightblue" stroke="midnightblue" points="202.14,-97.71 210.26,-90.92 199.67,-91.16 202.14,-97.71"/>
</g>
<!-- Node6 -->
<g id="node6" class="node">
<title>Node6</title>
<g id="a_node6"><a xlink:href="namespacebfl_1_1sigma__point.html#afe170453152d4f96db4dad71bd9be9a3" target="_top" xlink:title=" ">
<polygon fill="white" stroke="black" points="187,-208.5 187,-238.5 338,-238.5 338,-208.5 187,-208.5"/>
<text text-anchor="start" x="195" y="-226.5" font-family="Helvetica,sans-Serif" font-size="10.00">bfl::sigma_point::unscented</text>
<text text-anchor="middle" x="262.5" y="-215.5" font-family="Helvetica,sans-Serif" font-size="10.00">_transform</text>
</a>
</g>
</g>
<!-- Node1&#45;&gt;Node6 -->
<g id="edge5" class="edge">
<title>Node1&#45;&gt;Node6</title>
<path fill="none" stroke="midnightblue" d="M133.26,-189.53C152.8,-194.71 174.84,-200.55 195.08,-205.91"/>
<polygon fill="midnightblue" stroke="midnightblue" points="194.28,-209.32 204.84,-208.49 196.07,-202.55 194.28,-209.32"/>
</g>
<!-- Node6&#45;&gt;Node2 -->
<g id="edge7" class="edge">
<title>Node6&#45;&gt;Node2</title>
<path fill="none" stroke="midnightblue" d="M275.56,-238.62C294.1,-260.65 331.91,-300.96 374,-319.5 432.56,-345.3 505.84,-351.15 558.25,-351.39"/>
<polygon fill="midnightblue" stroke="midnightblue" points="558.45,-354.89 568.45,-351.37 558.44,-347.89 558.45,-354.89"/>
</g>
<!-- Node7 -->
<g id="node7" class="node">
<title>Node7</title>
<g id="a_node7"><a xlink:href="classbfl_1_1VectorDescription.html#a08a52559af5e67e1f225466a77d852ff" target="_top" xlink:title=" ">
<polygon fill="white" stroke="black" points="385.5,-230.5 385.5,-260.5 509.5,-260.5 509.5,-230.5 385.5,-230.5"/>
<text text-anchor="start" x="393.5" y="-248.5" font-family="Helvetica,sans-Serif" font-size="10.00">bfl::VectorDescription</text>
<text text-anchor="middle" x="447.5" y="-237.5" font-family="Helvetica,sans-Serif" font-size="10.00">::circular_components</text>
</a>
</g>
</g>
<!-- Node6&#45;&gt;Node7 -->
<g id="edge6" class="edge">
<title>Node6&#45;&gt;Node7</title>
<path fill="none" stroke="midnightblue" d="M338.2,-232.48C350.47,-233.96 363.17,-235.48 375.36,-236.95"/>
<polygon fill="midnightblue" stroke="midnightblue" points="375.11,-240.44 385.45,-238.16 375.94,-233.49 375.11,-240.44"/>
</g>
<!-- Node8 -->
<g id="node8" class="node">
<title>Node8</title>
<g id="a_node8"><a xlink:href="namespacebfl_1_1utils.html#a26bbb191de2e28c267c505a1e9ef0951" target="_top" xlink:title="Evaluate the colwise difference between a set of unit quaternions &#160;and a unit quaternion .">
<polygon fill="white" stroke="black" points="380,-6 380,-25 515,-25 515,-6 380,-6"/>
<text text-anchor="middle" x="447.5" y="-13" font-family="Helvetica,sans-Serif" font-size="10.00">bfl::utils::diff_quaternion</text>
</a>
</g>
</g>
<!-- Node6&#45;&gt;Node8 -->
<g id="edge8" class="edge">
<title>Node6&#45;&gt;Node8</title>
<path fill="none" stroke="midnightblue" d="M326.03,-208.38C330.46,-205.62 334.54,-202.36 338,-198.5 387.85,-142.97 322.3,-88.32 374,-34.5 375.27,-33.18 376.62,-31.94 378.04,-30.79"/>
<polygon fill="midnightblue" stroke="midnightblue" points="380.35,-33.46 386.8,-25.05 376.52,-27.6 380.35,-33.46"/>
</g>
<!-- Node10 -->
<g id="node10" class="node">
<title>Node10</title>
<g id="a_node10"><a xlink:href="namespacebfl_1_1directional__statistics.html#ad8758aac208bc2baa75aad514a3f53e6" target="_top" xlink:title=" ">
<polygon fill="white" stroke="black" points="379.5,-142.5 379.5,-172.5 515.5,-172.5 515.5,-142.5 379.5,-142.5"/>
<text text-anchor="start" x="387.5" y="-160.5" font-family="Helvetica,sans-Serif" font-size="10.00">bfl::directional_statistics</text>
<text text-anchor="middle" x="447.5" y="-149.5" font-family="Helvetica,sans-Serif" font-size="10.00">::directional_mean</text>
</a>
</g>
</g>
<!-- Node6&#45;&gt;Node10 -->
<g id="edge10" class="edge">
<title>Node6&#45;&gt;Node10</title>
<path fill="none" stroke="midnightblue" d="M309.3,-208.43C318.81,-205.22 328.75,-201.8 338,-198.5 357.79,-191.44 379.46,-183.33 398.2,-176.19"/>
<polygon fill="midnightblue" stroke="midnightblue" points="399.62,-179.4 407.71,-172.56 397.12,-172.86 399.62,-179.4"/>
</g>
<!-- Node11 -->
<g id="node11" class="node">
<title>Node11</title>
<g id="a_node11"><a xlink:href="namespacebfl_1_1directional__statistics.html#a18bffca88c7ea5f4ea11d2ad910736fe" target="_top" xlink:title=" ">
<polygon fill="white" stroke="black" points="379.5,-93.5 379.5,-123.5 515.5,-123.5 515.5,-93.5 379.5,-93.5"/>
<text text-anchor="start" x="387.5" y="-111.5" font-family="Helvetica,sans-Serif" font-size="10.00">bfl::directional_statistics</text>
<text text-anchor="middle" x="447.5" y="-100.5" font-family="Helvetica,sans-Serif" font-size="10.00">::directional_sub</text>
</a>
</g>
</g>
<!-- Node6&#45;&gt;Node11 -->
<g id="edge11" class="edge">
<title>Node6&#45;&gt;Node11</title>
<path fill="none" stroke="midnightblue" d="M322.69,-208.4C328.18,-205.63 333.4,-202.36 338,-198.5 363.61,-177.04 348.35,-153.91 374,-132.5 375.53,-131.23 377.12,-130.02 378.78,-128.87"/>
<polygon fill="midnightblue" stroke="midnightblue" points="380.68,-131.81 387.45,-123.67 377.08,-125.81 380.68,-131.81"/>
</g>
<!-- Node12 -->
<g id="node12" class="node">
<title>Node12</title>
<g id="a_node12"><a xlink:href="classbfl_1_1VectorDescription.html#ac5cd5eaafcfc8f8428dc3e6dccef09e3" target="_top" xlink:title=" ">
<polygon fill="white" stroke="black" points="387,-44.5 387,-74.5 508,-74.5 508,-44.5 387,-44.5"/>
<text text-anchor="start" x="395" y="-62.5" font-family="Helvetica,sans-Serif" font-size="10.00">bfl::VectorDescription</text>
<text text-anchor="middle" x="447.5" y="-51.5" font-family="Helvetica,sans-Serif" font-size="10.00">::linear_components</text>
</a>
</g>
</g>
<!-- Node6&#45;&gt;Node12 -->
<g id="edge12" class="edge">
<title>Node6&#45;&gt;Node12</title>
<path fill="none" stroke="midnightblue" d="M324.95,-208.47C329.74,-205.69 334.18,-202.4 338,-198.5 375.48,-160.25 336.44,-121.68 374,-83.5 375.39,-82.08 376.88,-80.75 378.43,-79.49"/>
<polygon fill="midnightblue" stroke="midnightblue" points="380.41,-82.38 386.7,-73.85 376.47,-76.59 380.41,-82.38"/>
</g>
<!-- Node13 -->
<g id="node13" class="node">
<title>Node13</title>
<g id="a_node13"><a xlink:href="classbfl_1_1GaussianMixture.html#a7b33a3796b65b8a8b44f9569f226b4cf" target="_top" xlink:title=" ">
<polygon fill="white" stroke="black" points="568.5,-186.5 568.5,-216.5 685.5,-216.5 685.5,-186.5 568.5,-186.5"/>
<text text-anchor="start" x="576.5" y="-204.5" font-family="Helvetica,sans-Serif" font-size="10.00">bfl::GaussianMixture</text>
<text text-anchor="middle" x="627" y="-193.5" font-family="Helvetica,sans-Serif" font-size="10.00">::mean</text>
</a>
</g>
</g>
<!-- Node6&#45;&gt;Node13 -->
<g id="edge13" class="edge">
<title>Node6&#45;&gt;Node13</title>
<path fill="none" stroke="midnightblue" d="M338.17,-218.97C402.86,-215.04 495.65,-209.41 558.23,-205.61"/>
<polygon fill="midnightblue" stroke="midnightblue" points="558.62,-209.1 568.39,-205 558.2,-202.11 558.62,-209.1"/>
</g>
<!-- Node14 -->
<g id="node14" class="node">
<title>Node14</title>
<g id="a_node14"><a xlink:href="namespacebfl_1_1utils.html#ae8f8bf6fbbee917d1ff3e2bf6578ea19" target="_top" xlink:title="Evaluate the weighted mean of a set of unit quaternions &#160;given a set of weights .">
<polygon fill="white" stroke="black" points="374,-367 374,-386 521,-386 521,-367 374,-367"/>
<text text-anchor="middle" x="447.5" y="-374" font-family="Helvetica,sans-Serif" font-size="10.00">bfl::utils::mean_quaternion</text>
</a>
</g>
</g>
<!-- Node6&#45;&gt;Node14 -->
<g id="edge14" class="edge">
<title>Node6&#45;&gt;Node14</title>
<path fill="none" stroke="midnightblue" d="M272.47,-238.58C289.14,-265.34 327.48,-321.28 374,-352.5 380.5,-356.86 387.86,-360.49 395.34,-363.49"/>
<polygon fill="midnightblue" stroke="midnightblue" points="394.22,-366.81 404.82,-366.96 396.63,-360.24 394.22,-366.81"/>
</g>
<!-- Node15 -->
<g id="node15" class="node">
<title>Node15</title>
<g id="a_node15"><a xlink:href="namespacebfl_1_1sigma__point.html#ab919aca5fccc30ee2acd5cd966cd9dc9" target="_top" xlink:title=" ">
<polygon fill="white" stroke="black" points="382,-279.5 382,-309.5 513,-309.5 513,-279.5 382,-279.5"/>
<text text-anchor="start" x="390" y="-297.5" font-family="Helvetica,sans-Serif" font-size="10.00">bfl::sigma_point::sigma</text>
<text text-anchor="middle" x="447.5" y="-286.5" font-family="Helvetica,sans-Serif" font-size="10.00">_point</text>
</a>
</g>
</g>
<!-- Node6&#45;&gt;Node15 -->
<g id="edge15" class="edge">
<title>Node6&#45;&gt;Node15</title>
<path fill="none" stroke="midnightblue" d="M298.11,-238.56C319.78,-247.83 348.36,-259.75 374,-269.5 379.8,-271.7 385.89,-273.93 391.97,-276.11"/>
<polygon fill="midnightblue" stroke="midnightblue" points="390.89,-279.44 401.48,-279.46 393.22,-272.84 390.89,-279.44"/>
</g>
<!-- Node9 -->
<g id="node9" class="node">
<title>Node9</title>
<g id="a_node9"><a xlink:href="namespacebfl_1_1utils.html#a294bdf526be6ef1c5bad59e737f2af63" target="_top" xlink:title="Convert a matrix of unit quaternions &#160;to their rotation vector representation &#160;in the tangent space a...">
<polygon fill="white" stroke="black" points="570,-0.5 570,-30.5 684,-30.5 684,-0.5 570,-0.5"/>
<text text-anchor="start" x="578" y="-18.5" font-family="Helvetica,sans-Serif" font-size="10.00">bfl::utils::quaternion</text>
<text text-anchor="middle" x="627" y="-7.5" font-family="Helvetica,sans-Serif" font-size="10.00">_to_rotation_vector</text>
</a>
</g>
</g>
<!-- Node8&#45;&gt;Node9 -->
<g id="edge9" class="edge">
<title>Node8&#45;&gt;Node9</title>
<path fill="none" stroke="midnightblue" d="M515.1,-15.5C529.59,-15.5 544.91,-15.5 559.4,-15.5"/>
<polygon fill="midnightblue" stroke="midnightblue" points="559.77,-19 569.77,-15.5 559.77,-12 559.77,-19"/>
</g>
<!-- Node15&#45;&gt;Node2 -->
<g id="edge16" class="edge">
<title>Node15&#45;&gt;Node2</title>
<path fill="none" stroke="midnightblue" d="M497.94,-309.54C519.3,-316.04 544.46,-323.69 566.8,-330.49"/>
<polygon fill="midnightblue" stroke="midnightblue" points="565.93,-333.88 576.51,-333.45 567.97,-327.19 565.93,-333.88"/>
</g>
<!-- Node15&#45;&gt;Node13 -->
<g id="edge18" class="edge">
<title>Node15&#45;&gt;Node13</title>
<path fill="none" stroke="midnightblue" d="M503.17,-279.38C509.44,-276.58 515.54,-273.31 521,-269.5 541.73,-255.06 536.29,-239.97 557,-225.5 559.14,-224.01 561.38,-222.6 563.69,-221.27"/>
<polygon fill="midnightblue" stroke="midnightblue" points="565.6,-224.22 572.89,-216.54 562.4,-218 565.6,-224.22"/>
</g>
<!-- Node16 -->
<g id="node16" class="node">
<title>Node16</title>
<g id="a_node16"><a xlink:href="namespacebfl_1_1directional__statistics.html#af9984a4df2b3f6f0bc0c264783181123" target="_top" xlink:title=" ">
<polygon fill="white" stroke="black" points="559,-235.5 559,-265.5 695,-265.5 695,-235.5 559,-235.5"/>
<text text-anchor="start" x="567" y="-253.5" font-family="Helvetica,sans-Serif" font-size="10.00">bfl::directional_statistics</text>
<text text-anchor="middle" x="627" y="-242.5" font-family="Helvetica,sans-Serif" font-size="10.00">::directional_add</text>
</a>
</g>
</g>
<!-- Node15&#45;&gt;Node16 -->
<g id="edge17" class="edge">
<title>Node15&#45;&gt;Node16</title>
<path fill="none" stroke="midnightblue" d="M509.09,-279.48C524,-275.78 540.1,-271.79 555.43,-267.99"/>
<polygon fill="midnightblue" stroke="midnightblue" points="556.52,-271.33 565.38,-265.53 554.83,-264.54 556.52,-271.33"/>
</g>
<!-- Node17 -->
<g id="node17" class="node">
<title>Node17</title>
<g id="a_node17"><a xlink:href="namespacebfl_1_1utils.html#ab1ca09c6f5d699242615c8dbc89fa2e0" target="_top" xlink:title="Evaluate the colwise sum between a unit quaternion &#160;and a set of rotation vectors &#160;in the tangent spa...">
<polygon fill="white" stroke="black" points="557,-284.5 557,-314.5 697,-314.5 697,-284.5 557,-284.5"/>
<text text-anchor="start" x="565" y="-302.5" font-family="Helvetica,sans-Serif" font-size="10.00">bfl::utils::sum_quaternion</text>
<text text-anchor="middle" x="627" y="-291.5" font-family="Helvetica,sans-Serif" font-size="10.00">_rotation_vector</text>
</a>
</g>
</g>
<!-- Node15&#45;&gt;Node17 -->
<g id="edge19" class="edge">
<title>Node15&#45;&gt;Node17</title>
<path fill="none" stroke="midnightblue" d="M513.08,-296.32C524.01,-296.63 535.47,-296.95 546.72,-297.27"/>
<polygon fill="midnightblue" stroke="midnightblue" points="546.88,-300.77 556.98,-297.56 547.08,-293.78 546.88,-300.77"/>
</g>
<!-- Node18 -->
<g id="node18" class="node">
<title>Node18</title>
<g id="a_node18"><a xlink:href="namespacebfl_1_1utils.html#af901548c98d811c2b176e1d9b02aabb3" target="_top" xlink:title="Convert a matrix of rotation vectors &#160;in the tangent space at the identity to their unitary quaternio...">
<polygon fill="white" stroke="black" points="733,-284.5 733,-314.5 858,-314.5 858,-284.5 733,-284.5"/>
<text text-anchor="start" x="741" y="-302.5" font-family="Helvetica,sans-Serif" font-size="10.00">bfl::utils::rotation</text>
<text text-anchor="middle" x="795.5" y="-291.5" font-family="Helvetica,sans-Serif" font-size="10.00">_vector_to_quaternion</text>
</a>
</g>
</g>
<!-- Node17&#45;&gt;Node18 -->
<g id="edge20" class="edge">
<title>Node17&#45;&gt;Node18</title>
<path fill="none" stroke="midnightblue" d="M697.16,-299.5C705.61,-299.5 714.26,-299.5 722.75,-299.5"/>
<polygon fill="midnightblue" stroke="midnightblue" points="722.99,-303 732.99,-299.5 722.99,-296 722.99,-303"/>
</g>
</g>
</svg>
        <g id="navigator" transform="translate(0 0)" fill="#404254">
                <rect fill="#f2f5e9" fill-opacity="0.5" stroke="#606060" stroke-width=".5" x="0" y="0" width="60" height="60"/>
                <use id="zoomplus" xlink:href="#zoomPlus" x="17" y="9" onmousedown="handleZoom(evt,'in')"/>
                <use id="zoomminus" xlink:href="#zoomMin" x="42" y="9" onmousedown="handleZoom(evt,'out')"/>
                <use id="reset" xlink:href="#resetDef" x="30" y="36" onmousedown="handleReset()"/>
                <g id="arrowUp" xlink:href="#dirArrow" transform="translate(30 24)" onmousedown="handlePan(0,-1)">
                  <use xlink:href="#rim" fill="#404040">
                        <set attributeName="fill" to="#808080" begin="arrowUp.mouseover" end="arrowUp.mouseout"/>
                  </use>
                  <path fill="none" stroke="white" stroke-width="1.5" d="M0,-3.0v7 M-2.5,-0.5L0,-3.0L2.5,-0.5"/>
                </g>
                <g id="arrowRight" xlink:href="#dirArrow" transform="rotate(90) translate(36 -43)" onmousedown="handlePan(1,0)">
                  <use xlink:href="#rim" fill="#404040">
                        <set attributeName="fill" to="#808080" begin="arrowRight.mouseover" end="arrowRight.mouseout"/>
                  </use>
                  <path fill="none" stroke="white" stroke-width="1.5" d="M0,-3.0v7 M-2.5,-0.5L0,-3.0L2.5,-0.5"/>
                </g>
                <g id="arrowDown" xlink:href="#dirArrow" transform="rotate(180) translate(-30 -48)" onmousedown="handlePan(0,1)">
                  <use xlink:href="#rim" fill="#404040">
                        <set attributeName="fill" to="#808080" begin="arrowDown.mouseover" end="arrowDown.mouseout"/>
                  </use>
                  <path fill="none" stroke="white" stroke-width="1.5" d="M0,-3.0v7 M-2.5,-0.5L0,-3.0L2.5,-0.5"/>
                </g>
                <g id="arrowLeft" xlink:href="#dirArrow" transform="rotate(270) translate(-36 17)" onmousedown="handlePan(-1,0)">
                  <use xlink:href="#rim" fill="#404040">
                        <set attributeName="fill" to="#808080" begin="arrowLeft.mouseover" end="arrowLeft.mouseout"/>
                  </use>
                  <path fill="none" stroke="white" stroke-width="1.5" d="M0,-3.0v7 M-2.5,-0.5L0,-3.0L2.5,-0.5"/>
                </g>
        </g>
        <svg viewBox="0 0 15 15" width="100%" height="30px" preserveAspectRatio="xMaxYMin meet">
         <g id="arrow_out" transform="scale(0.3 0.3)">
          <a xlink:href="namespacebfl_1_1sigma__point_ab1a8018531dbd8a28c08dd3418d1976d_cgraph_org.svg" target="_base">
           <rect id="button" ry="5" rx="5" y="6" x="6" height="38" width="38"
                fill="#f2f5e9" fill-opacity="0.5" stroke="#606060" stroke-width="1.0"/>
           <path id="arrow"
             d="M 11.500037,31.436501 C 11.940474,20.09759 22.043105,11.32322 32.158766,21.979434 L 37.068811,17.246167 C 37.068811,17.246167 37.088388,32 37.088388,32 L 22.160133,31.978069 C 22.160133,31.978069 26.997745,27.140456 26.997745,27.140456 C 18.528582,18.264221 13.291696,25.230495 11.500037,31.436501 z"
             style="fill:#404040;"/>
          </a>
         </g>
        </svg>
</svg>
