<?xml version="1.0" encoding="UTF-8" standalone="no"?>
<!DOCTYPE svg PUBLIC "-//W3C//DTD SVG 1.1//EN"
 "http://www.w3.org/Graphics/SVG/1.1/DTD/svg11.dtd">
<!-- Generated by graphviz version 2.47.2 (0)
 -->
<!-- Title: bfl::utils::sum_quaternion_rotation_vector Pages: 1 -->
<svg width="283pt" height="39pt"
 viewBox="0.00 0.00 283.00 39.00" xmlns="http://www.w3.org/2000/svg" xmlns:xlink="http://www.w3.org/1999/xlink">
<g id="graph0" class="graph" transform="scale(1 1) rotate(0) translate(4 35)">
<title>bfl::utils::sum_quaternion_rotation_vector</title>
<polygon fill="white" stroke="transparent" points="-4,4 -4,-35 279,-35 279,4 -4,4"/>
<!-- Node1 -->
<g id="node1" class="node">
<title>Node1</title>
<g id="a_node1"><a xlink:title="Evaluate the colwise sum between a unit quaternion (in the form (w, x, y, z) = (w,...">
<polygon fill="#bfbfbf" stroke="black" points="0,-0.5 0,-30.5 126,-30.5 126,-0.5 0,-0.5"/>
<text text-anchor="start" x="8" y="-18.5" font-family="Helvetica,sans-Serif" font-size="10.00">bfl::utils::sum_quaternion</text>
<text text-anchor="middle" x="63" y="-7.5" font-family="Helvetica,sans-Serif" font-size="10.00">_rotation_vector</text>
</a>
</g>
</g>
<!-- Node2 -->
<g id="node2" class="node">
<title>Node2</title>
<g id="a_node2"><a xlink:href="namespacebfl_1_1utils.html#af901548c98d811c2b176e1d9b02aabb3" target="_top" xlink:title="Convert a matrix of rotation vectors in the tangent space (in the form (rx, ry, rz)) to their unitary...">
<polygon fill="white" stroke="black" points="162,-0.5 162,-30.5 275,-30.5 275,-0.5 162,-0.5"/>
<text text-anchor="start" x="170" y="-18.5" font-family="Helvetica,sans-Serif" font-size="10.00">bfl::utils::rotation</text>
<text text-anchor="middle" x="218.5" y="-7.5" font-family="Helvetica,sans-Serif" font-size="10.00">_vector_to_quaternion</text>
</a>
</g>
</g>
<!-- Node1&#45;&gt;Node2 -->
<g id="edge1" class="edge">
<title>Node1&#45;&gt;Node2</title>
<path fill="none" stroke="midnightblue" d="M126.43,-15.5C134.7,-15.5 143.19,-15.5 151.51,-15.5"/>
<polygon fill="midnightblue" stroke="midnightblue" points="151.54,-19 161.54,-15.5 151.54,-12 151.54,-19"/>
</g>
</g>
</svg>
