<?xml version="1.0" encoding="UTF-8" standalone="no"?>
<!DOCTYPE svg PUBLIC "-//W3C//DTD SVG 1.1//EN"
 "http://www.w3.org/Graphics/SVG/1.1/DTD/svg11.dtd">
<!-- Generated by graphviz version 2.47.2 (0)
 -->
<!-- Title: bfl::sigma_point::unscented_transform Pages: 1 -->
<!--zoomable 252 -->
<svg id="main" version="1.1" xmlns="http://www.w3.org/2000/svg" xmlns:xlink="http://www.w3.org/1999/xlink" xml:space="preserve" onload="init(evt)">
<style type="text/css"><![CDATA[
.edge:hover path { stroke: red; }
.edge:hover polygon { stroke: red; fill: red; }
]]></style>
<script type="text/javascript"><![CDATA[
var edges = document.getElementsByTagName('g');
if (edges && edges.length) {
  for (var i=0;i<edges.length;i++) {
    if (edges[i].id.substr(0,4)=='edge') {
      edges[i].setAttribute('class','edge');
    }
  }
}
]]></script>
        <defs>
                <circle id="rim" cx="0" cy="0" r="7"/>
                <circle id="rim2" cx="0" cy="0" r="3.5"/>
                <g id="zoomPlus">
                        <use xlink:href="#rim" fill="#404040">
                                <set attributeName="fill" to="#808080" begin="zoomplus.mouseover" end="zoomplus.mouseout"/>
                        </use>
                        <path d="M-4,0h8M0,-4v8" fill="none" stroke="white" stroke-width="1.5" pointer-events="none"/>
                </g>
                <g id="zoomMin">
                        <use xlink:href="#rim" fill="#404040">
                                <set attributeName="fill" to="#808080" begin="zoomminus.mouseover" end="zoomminus.mouseout"/>
                        </use>
                        <path d="M-4,0h8" fill="none" stroke="white" stroke-width="1.5" pointer-events="none"/>
                </g>
                <g id="dirArrow">
                        <path fill="none" stroke="white" stroke-width="1.5" d="M0,-3.0v7 M-2.5,-0.5L0,-3.0L2.5,-0.5"/>
                </g>
               <g id="resetDef">
                       <use xlink:href="#rim2" fill="#404040">
                               <set attributeName="fill" to="#808080" begin="reset.mouseover" end="reset.mouseout"/>
                       </use>
               </g>
        </defs>

<script type="text/javascript">
var viewWidth = 634;
var viewHeight = 252;
var sectionId = 'dynsection-3';
</script>
<script xlink:href="svgpan.js"/>
<svg id="graph" class="graph">
<g id="viewport">
<title>bfl::sigma_point::unscented_transform</title>
<polygon fill="white" stroke="transparent" points="-4,4 -4,-248.05 630,-248.05 630,4 -4,4"/>
<!-- Node1 -->
<g id="node1" class="node">
<title>Node1</title>
<g id="a_node1"><a xlink:title=" ">
<polygon fill="#bfbfbf" stroke="black" points="0,-139.52 0,-169.52 137,-169.52 137,-139.52 0,-139.52"/>
<text text-anchor="start" x="8" y="-157.52" font-family="Helvetica,sans-Serif" font-size="10.00">bfl::sigma_point::unscented</text>
<text text-anchor="middle" x="68.5" y="-146.52" font-family="Helvetica,sans-Serif" font-size="10.00">_transform</text>
</a>
</g>
</g>
<!-- Node2 -->
<g id="node2" class="node">
<title>Node2</title>
<g id="a_node2"><a xlink:href="classbfl_1_1GaussianMixture.html#a65a60ef46d16ac33196a09963bbccdee" target="_top" xlink:title=" ">
<polygon fill="white" stroke="black" points="511.5,-162.52 511.5,-192.52 618.5,-192.52 618.5,-162.52 511.5,-162.52"/>
<text text-anchor="start" x="519.5" y="-180.52" font-family="Helvetica,sans-Serif" font-size="10.00">bfl::GaussianMixture</text>
<text text-anchor="middle" x="565" y="-169.52" font-family="Helvetica,sans-Serif" font-size="10.00">::covariance</text>
</a>
</g>
</g>
<!-- Node1&#45;&gt;Node2 -->
<g id="edge1" class="edge">
<title>Node1&#45;&gt;Node2</title>
<path fill="none" stroke="midnightblue" d="M84.26,-169.76C102.94,-187.84 137.03,-216.98 173,-228.52 293.4,-267.13 443.61,-223.48 517.93,-196.17"/>
<polygon fill="midnightblue" stroke="midnightblue" points="519.33,-199.38 527.47,-192.59 516.88,-192.82 519.33,-199.38"/>
</g>
<!-- Node3 -->
<g id="node3" class="node">
<title>Node3</title>
<g id="a_node3"><a xlink:href="classbfl_1_1StateModel.html#a423c1fa86b9d60c8663dedc6cdcae276" target="_top" xlink:title=" ">
<polygon fill="white" stroke="black" points="177.5,-188.52 177.5,-218.52 305.5,-218.52 305.5,-188.52 177.5,-188.52"/>
<text text-anchor="start" x="185.5" y="-206.52" font-family="Helvetica,sans-Serif" font-size="10.00">bfl::StateModel::getNoise</text>
<text text-anchor="middle" x="241.5" y="-195.52" font-family="Helvetica,sans-Serif" font-size="10.00">CovarianceMatrix</text>
</a>
</g>
</g>
<!-- Node1&#45;&gt;Node3 -->
<g id="edge2" class="edge">
<title>Node1&#45;&gt;Node3</title>
<path fill="none" stroke="midnightblue" d="M122.2,-169.62C139.92,-174.7 159.85,-180.41 178.23,-185.68"/>
<polygon fill="midnightblue" stroke="midnightblue" points="177.4,-189.08 187.97,-188.47 179.32,-182.35 177.4,-189.08"/>
</g>
<!-- Node4 -->
<g id="node4" class="node">
<title>Node4</title>
<g id="a_node4"><a xlink:href="classbfl_1_1StateProcess.html#ad1d669b1ceb6ff91b3a305a0360d4bb3" target="_top" xlink:title="Returns the linear and circular size of the output of the state equation.">
<polygon fill="white" stroke="black" points="192.5,-139.52 192.5,-169.52 290.5,-169.52 290.5,-139.52 192.5,-139.52"/>
<text text-anchor="start" x="200.5" y="-157.52" font-family="Helvetica,sans-Serif" font-size="10.00">bfl::StateProcess::</text>
<text text-anchor="middle" x="241.5" y="-146.52" font-family="Helvetica,sans-Serif" font-size="10.00">getOutputSize</text>
</a>
</g>
</g>
<!-- Node1&#45;&gt;Node4 -->
<g id="edge3" class="edge">
<title>Node1&#45;&gt;Node4</title>
<path fill="none" stroke="midnightblue" d="M137.08,-154.52C151.96,-154.52 167.59,-154.52 182.07,-154.52"/>
<polygon fill="midnightblue" stroke="midnightblue" points="182.38,-158.02 192.38,-154.52 182.38,-151.02 182.38,-158.02"/>
</g>
<!-- Node5 -->
<g id="node5" class="node">
<title>Node5</title>
<g id="a_node5"><a xlink:href="classbfl_1_1StateProcess.html#ac8cf052b2a6d2d6c25eebf3f1c331053" target="_top" xlink:title=" ">
<polygon fill="white" stroke="black" points="192.5,-90.52 192.5,-120.52 290.5,-120.52 290.5,-90.52 192.5,-90.52"/>
<text text-anchor="start" x="200.5" y="-108.52" font-family="Helvetica,sans-Serif" font-size="10.00">bfl::StateProcess::</text>
<text text-anchor="middle" x="241.5" y="-97.52" font-family="Helvetica,sans-Serif" font-size="10.00">propagate</text>
</a>
</g>
</g>
<!-- Node1&#45;&gt;Node5 -->
<g id="edge4" class="edge">
<title>Node1&#45;&gt;Node5</title>
<path fill="none" stroke="midnightblue" d="M122.2,-139.42C141.34,-133.93 163.07,-127.71 182.63,-122.1"/>
<polygon fill="midnightblue" stroke="midnightblue" points="183.69,-125.44 192.34,-119.32 181.76,-118.71 183.69,-125.44"/>
</g>
<!-- Node6 -->
<g id="node6" class="node">
<title>Node6</title>
<g id="a_node6"><a xlink:href="namespacebfl_1_1sigma__point.html#afe170453152d4f96db4dad71bd9be9a3" target="_top" xlink:title=" ">
<polygon fill="white" stroke="black" points="173,-41.52 173,-71.52 310,-71.52 310,-41.52 173,-41.52"/>
<text text-anchor="start" x="181" y="-59.52" font-family="Helvetica,sans-Serif" font-size="10.00">bfl::sigma_point::unscented</text>
<text text-anchor="middle" x="241.5" y="-48.52" font-family="Helvetica,sans-Serif" font-size="10.00">_transform</text>
</a>
</g>
</g>
<!-- Node1&#45;&gt;Node6 -->
<g id="edge5" class="edge">
<title>Node1&#45;&gt;Node6</title>
<path fill="none" stroke="midnightblue" d="M88,-139.22C108,-123.24 141.28,-98.21 173,-81.52 176.96,-79.43 181.14,-77.44 185.39,-75.56"/>
<polygon fill="midnightblue" stroke="midnightblue" points="186.91,-78.71 194.77,-71.61 184.2,-72.26 186.91,-78.71"/>
</g>
<!-- Node6&#45;&gt;Node2 -->
<g id="edge6" class="edge">
<title>Node6&#45;&gt;Node2</title>
<path fill="none" stroke="midnightblue" d="M295.65,-71.59C300.83,-74.38 305.74,-77.66 310,-81.52 337.1,-106.08 316.01,-134.59 346,-155.52 390.9,-186.85 454.23,-189.91 501.06,-186.57"/>
<polygon fill="midnightblue" stroke="midnightblue" points="501.42,-190.06 511.09,-185.75 500.84,-183.08 501.42,-190.06"/>
</g>
<!-- Node7 -->
<g id="node7" class="node">
<title>Node7</title>
<g id="a_node7"><a xlink:href="namespacebfl_1_1directional__statistics.html#ad8758aac208bc2baa75aad514a3f53e6" target="_top" xlink:title=" ">
<polygon fill="white" stroke="black" points="346,-66.52 346,-96.52 468,-96.52 468,-66.52 346,-66.52"/>
<text text-anchor="start" x="354" y="-84.52" font-family="Helvetica,sans-Serif" font-size="10.00">bfl::directional_statistics</text>
<text text-anchor="middle" x="407" y="-73.52" font-family="Helvetica,sans-Serif" font-size="10.00">::directional_mean</text>
</a>
</g>
</g>
<!-- Node6&#45;&gt;Node7 -->
<g id="edge7" class="edge">
<title>Node6&#45;&gt;Node7</title>
<path fill="none" stroke="midnightblue" d="M310.42,-66.9C318.78,-68.18 327.33,-69.49 335.73,-70.77"/>
<polygon fill="midnightblue" stroke="midnightblue" points="335.44,-74.27 345.86,-72.32 336.5,-67.35 335.44,-74.27"/>
</g>
<!-- Node8 -->
<g id="node8" class="node">
<title>Node8</title>
<g id="a_node8"><a xlink:href="namespacebfl_1_1directional__statistics.html#a18bffca88c7ea5f4ea11d2ad910736fe" target="_top" xlink:title=" ">
<polygon fill="white" stroke="black" points="346,-17.52 346,-47.52 468,-47.52 468,-17.52 346,-17.52"/>
<text text-anchor="start" x="354" y="-35.52" font-family="Helvetica,sans-Serif" font-size="10.00">bfl::directional_statistics</text>
<text text-anchor="middle" x="407" y="-24.52" font-family="Helvetica,sans-Serif" font-size="10.00">::directional_sub</text>
</a>
</g>
</g>
<!-- Node6&#45;&gt;Node8 -->
<g id="edge8" class="edge">
<title>Node6&#45;&gt;Node8</title>
<path fill="none" stroke="midnightblue" d="M310.42,-46.55C318.78,-45.32 327.33,-44.06 335.73,-42.83"/>
<polygon fill="midnightblue" stroke="midnightblue" points="336.47,-46.26 345.86,-41.35 335.45,-39.34 336.47,-46.26"/>
</g>
<!-- Node9 -->
<g id="node9" class="node">
<title>Node9</title>
<g id="a_node9"><a xlink:href="classbfl_1_1GaussianMixture.html#af4fd865a97ac27c72510cfbf9429bd97" target="_top" xlink:title=" ">
<polygon fill="white" stroke="black" points="511.5,-19.52 511.5,-49.52 618.5,-49.52 618.5,-19.52 511.5,-19.52"/>
<text text-anchor="start" x="519.5" y="-37.52" font-family="Helvetica,sans-Serif" font-size="10.00">bfl::GaussianMixture</text>
<text text-anchor="middle" x="565" y="-26.52" font-family="Helvetica,sans-Serif" font-size="10.00">::mean</text>
</a>
</g>
</g>
<!-- Node6&#45;&gt;Node9 -->
<g id="edge9" class="edge">
<title>Node6&#45;&gt;Node9</title>
<path fill="none" stroke="midnightblue" d="M266.48,-41.4C286.78,-29.55 317.1,-14.01 346,-7.52 398.9,4.37 414.29,-0.11 468,-7.52 481.94,-9.44 496.7,-12.86 510.36,-16.64"/>
<polygon fill="midnightblue" stroke="midnightblue" points="509.51,-20.04 520.09,-19.44 511.45,-13.31 509.51,-20.04"/>
</g>
<!-- Node10 -->
<g id="node10" class="node">
<title>Node10</title>
<g id="a_node10"><a xlink:href="namespacebfl_1_1sigma__point.html#ab919aca5fccc30ee2acd5cd966cd9dc9" target="_top" xlink:title=" ">
<polygon fill="white" stroke="black" points="348,-115.52 348,-145.52 466,-145.52 466,-115.52 348,-115.52"/>
<text text-anchor="start" x="356" y="-133.52" font-family="Helvetica,sans-Serif" font-size="10.00">bfl::sigma_point::sigma</text>
<text text-anchor="middle" x="407" y="-122.52" font-family="Helvetica,sans-Serif" font-size="10.00">_point</text>
</a>
</g>
</g>
<!-- Node6&#45;&gt;Node10 -->
<g id="edge10" class="edge">
<title>Node6&#45;&gt;Node10</title>
<path fill="none" stroke="midnightblue" d="M288.21,-71.65C295.63,-74.62 303.13,-77.93 310,-81.52 327.27,-90.53 328.85,-97.29 346,-106.52 349.06,-108.16 352.25,-109.76 355.5,-111.3"/>
<polygon fill="midnightblue" stroke="midnightblue" points="354.21,-114.55 364.77,-115.46 357.08,-108.17 354.21,-114.55"/>
</g>
<!-- Node10&#45;&gt;Node2 -->
<g id="edge11" class="edge">
<title>Node10&#45;&gt;Node2</title>
<path fill="none" stroke="midnightblue" d="M457.79,-145.52C472.56,-149.97 488.9,-154.89 504.24,-159.51"/>
<polygon fill="midnightblue" stroke="midnightblue" points="503.57,-162.96 514.15,-162.5 505.58,-156.26 503.57,-162.96"/>
</g>
<!-- Node10&#45;&gt;Node9 -->
<g id="edge13" class="edge">
<title>Node10&#45;&gt;Node9</title>
<path fill="none" stroke="midnightblue" d="M449.66,-115.52C455.93,-112.78 462.23,-109.76 468,-106.52 493.79,-92.03 520.5,-71.46 539.18,-56.02"/>
<polygon fill="midnightblue" stroke="midnightblue" points="541.5,-58.64 546.92,-49.53 537.01,-53.27 541.5,-58.64"/>
</g>
<!-- Node11 -->
<g id="node11" class="node">
<title>Node11</title>
<g id="a_node11"><a xlink:href="namespacebfl_1_1directional__statistics.html#af9984a4df2b3f6f0bc0c264783181123" target="_top" xlink:title=" ">
<polygon fill="white" stroke="black" points="504,-113.52 504,-143.52 626,-143.52 626,-113.52 504,-113.52"/>
<text text-anchor="start" x="512" y="-131.52" font-family="Helvetica,sans-Serif" font-size="10.00">bfl::directional_statistics</text>
<text text-anchor="middle" x="565" y="-120.52" font-family="Helvetica,sans-Serif" font-size="10.00">::directional_add</text>
</a>
</g>
</g>
<!-- Node10&#45;&gt;Node11 -->
<g id="edge12" class="edge">
<title>Node10&#45;&gt;Node11</title>
<path fill="none" stroke="midnightblue" d="M466.09,-129.77C475.03,-129.66 484.34,-129.54 493.51,-129.42"/>
<polygon fill="midnightblue" stroke="midnightblue" points="493.82,-132.92 503.78,-129.29 493.73,-125.92 493.82,-132.92"/>
</g>
</g>
</svg>
        <g id="navigator" transform="translate(0 0)" fill="#404254">
                <rect fill="#f2f5e9" fill-opacity="0.5" stroke="#606060" stroke-width=".5" x="0" y="0" width="60" height="60"/>
                <use id="zoomplus" xlink:href="#zoomPlus" x="17" y="9" onmousedown="handleZoom(evt,'in')"/>
                <use id="zoomminus" xlink:href="#zoomMin" x="42" y="9" onmousedown="handleZoom(evt,'out')"/>
                <use id="reset" xlink:href="#resetDef" x="30" y="36" onmousedown="handleReset()"/>
                <g id="arrowUp" xlink:href="#dirArrow" transform="translate(30 24)" onmousedown="handlePan(0,-1)">
                  <use xlink:href="#rim" fill="#404040">
                        <set attributeName="fill" to="#808080" begin="arrowUp.mouseover" end="arrowUp.mouseout"/>
                  </use>
                  <path fill="none" stroke="white" stroke-width="1.5" d="M0,-3.0v7 M-2.5,-0.5L0,-3.0L2.5,-0.5"/>
                </g>
                <g id="arrowRight" xlink:href="#dirArrow" transform="rotate(90) translate(36 -43)" onmousedown="handlePan(1,0)">
                  <use xlink:href="#rim" fill="#404040">
                        <set attributeName="fill" to="#808080" begin="arrowRight.mouseover" end="arrowRight.mouseout"/>
                  </use>
                  <path fill="none" stroke="white" stroke-width="1.5" d="M0,-3.0v7 M-2.5,-0.5L0,-3.0L2.5,-0.5"/>
                </g>
                <g id="arrowDown" xlink:href="#dirArrow" transform="rotate(180) translate(-30 -48)" onmousedown="handlePan(0,1)">
                  <use xlink:href="#rim" fill="#404040">
                        <set attributeName="fill" to="#808080" begin="arrowDown.mouseover" end="arrowDown.mouseout"/>
                  </use>
                  <path fill="none" stroke="white" stroke-width="1.5" d="M0,-3.0v7 M-2.5,-0.5L0,-3.0L2.5,-0.5"/>
                </g>
                <g id="arrowLeft" xlink:href="#dirArrow" transform="rotate(270) translate(-36 17)" onmousedown="handlePan(-1,0)">
                  <use xlink:href="#rim" fill="#404040">
                        <set attributeName="fill" to="#808080" begin="arrowLeft.mouseover" end="arrowLeft.mouseout"/>
                  </use>
                  <path fill="none" stroke="white" stroke-width="1.5" d="M0,-3.0v7 M-2.5,-0.5L0,-3.0L2.5,-0.5"/>
                </g>
        </g>
        <svg viewBox="0 0 15 15" width="100%" height="30px" preserveAspectRatio="xMaxYMin meet">
         <g id="arrow_out" transform="scale(0.3 0.3)">
          <a xlink:href="namespacebfl_1_1sigma__point_ab1a8018531dbd8a28c08dd3418d1976d_cgraph_org.svg" target="_base">
           <rect id="button" ry="5" rx="5" y="6" x="6" height="38" width="38"
                fill="#f2f5e9" fill-opacity="0.5" stroke="#606060" stroke-width="1.0"/>
           <path id="arrow"
             d="M 11.500037,31.436501 C 11.940474,20.09759 22.043105,11.32322 32.158766,21.979434 L 37.068811,17.246167 C 37.068811,17.246167 37.088388,32 37.088388,32 L 22.160133,31.978069 C 22.160133,31.978069 26.997745,27.140456 26.997745,27.140456 C 18.528582,18.264221 13.291696,25.230495 11.500037,31.436501 z"
             style="fill:#404040;"/>
          </a>
         </g>
        </svg>
</svg>
