<?xml version="1.0" encoding="UTF-8" standalone="no"?>
<!DOCTYPE svg PUBLIC "-//W3C//DTD SVG 1.1//EN"
 "http://www.w3.org/Graphics/SVG/1.1/DTD/svg11.dtd">
<!-- Generated by graphviz version 2.43.0 (0)
 -->
<!-- Title: bfl::sigma_point::unscented_transform Pages: 1 -->
<!--zoomable 560 -->
<svg id="main" version="1.1" xmlns="http://www.w3.org/2000/svg" xmlns:xlink="http://www.w3.org/1999/xlink" xml:space="preserve" onload="init(evt)">
<style type="text/css"><![CDATA[
.edge:hover path { stroke: red; }
.edge:hover polygon { stroke: red; fill: red; }
]]></style>
<script type="text/javascript"><![CDATA[
var edges = document.getElementsByTagName('g');
if (edges && edges.length) {
  for (var i=0;i<edges.length;i++) {
    if (edges[i].id.substr(0,4)=='edge') {
      edges[i].setAttribute('class','edge');
    }
  }
}
]]></script>
        <defs>
                <circle id="rim" cx="0" cy="0" r="7"/>
                <circle id="rim2" cx="0" cy="0" r="3.5"/>
                <g id="zoomPlus">
                        <use xlink:href="#rim" fill="#404040">
                                <set attributeName="fill" to="#808080" begin="zoomplus.mouseover" end="zoomplus.mouseout"/>
                        </use>
                        <path d="M-4,0h8M0,-4v8" fill="none" stroke="white" stroke-width="1.5" pointer-events="none"/>
                </g>
                <g id="zoomMin">
                        <use xlink:href="#rim" fill="#404040">
                                <set attributeName="fill" to="#808080" begin="zoomminus.mouseover" end="zoomminus.mouseout"/>
                        </use>
                        <path d="M-4,0h8" fill="none" stroke="white" stroke-width="1.5" pointer-events="none"/>
                </g>
                <g id="dirArrow">
                        <path fill="none" stroke="white" stroke-width="1.5" d="M0,-3.0v7 M-2.5,-0.5L0,-3.0L2.5,-0.5"/>
                </g>
               <g id="resetDef">
                       <use xlink:href="#rim2" fill="#404040">
                               <set attributeName="fill" to="#808080" begin="reset.mouseover" end="reset.mouseout"/>
                       </use>
               </g>
        </defs>

<script type="text/javascript">
var viewWidth = 866;
var viewHeight = 560;
var sectionId = 'dynsection-5';
</script>
<script xlink:href="svgpan.js"/>
<svg id="graph" class="graph">
<g id="viewport">
<title>bfl::sigma_point::unscented_transform</title>
<polygon fill="white" stroke="transparent" points="-4,4 -4,-556 862,-556 862,4 -4,4"/>
<!-- Node1 -->
<g id="node1" class="node">
<title>Node1</title>
<g id="a_node1"><a xlink:title=" ">
<polygon fill="#bfbfbf" stroke="black" points="0,-447.5 0,-477.5 151,-477.5 151,-447.5 0,-447.5"/>
<text text-anchor="start" x="8" y="-465.5" font-family="Helvetica,sans-Serif" font-size="10.00">bfl::sigma_point::unscented</text>
<text text-anchor="middle" x="75.5" y="-454.5" font-family="Helvetica,sans-Serif" font-size="10.00">_transform</text>
</a>
</g>
</g>
<!-- Node2 -->
<g id="node2" class="node">
<title>Node2</title>
<g id="a_node2"><a xlink:href="classbfl_1_1StateProcess.html#a9c58e7fa4a7faa13c3b86eafc15bde7a" target="_top" xlink:title="Returns the vector description of the output of the state equation.">
<polygon fill="white" stroke="black" points="206,-521.5 206,-551.5 319,-551.5 319,-521.5 206,-521.5"/>
<text text-anchor="start" x="214" y="-539.5" font-family="Helvetica,sans-Serif" font-size="10.00">bfl::StateProcess::</text>
<text text-anchor="middle" x="262.5" y="-528.5" font-family="Helvetica,sans-Serif" font-size="10.00">getStateDescription</text>
</a>
</g>
</g>
<!-- Node1&#45;&gt;Node2 -->
<g id="edge1" class="edge">
<title>Node1&#45;&gt;Node2</title>
<path fill="none" stroke="midnightblue" d="M107.53,-477.68C129.46,-488.13 159.69,-501.96 187,-512.5 191.99,-514.43 197.21,-516.33 202.47,-518.17"/>
<polygon fill="midnightblue" stroke="midnightblue" points="201.34,-521.48 211.93,-521.4 203.6,-514.86 201.34,-521.48"/>
</g>
<!-- Node3 -->
<g id="node3" class="node">
<title>Node3</title>
<g id="a_node3"><a xlink:href="classbfl_1_1StateProcess.html#ac28929ad52b7860758179cf8921cb7d2" target="_top" xlink:title=" ">
<polygon fill="white" stroke="black" points="210.5,-472.5 210.5,-502.5 314.5,-502.5 314.5,-472.5 210.5,-472.5"/>
<text text-anchor="start" x="218.5" y="-490.5" font-family="Helvetica,sans-Serif" font-size="10.00">bfl::StateProcess::</text>
<text text-anchor="middle" x="262.5" y="-479.5" font-family="Helvetica,sans-Serif" font-size="10.00">motion</text>
</a>
</g>
</g>
<!-- Node1&#45;&gt;Node3 -->
<g id="edge2" class="edge">
<title>Node1&#45;&gt;Node3</title>
<path fill="none" stroke="midnightblue" d="M151.21,-472.6C167.5,-474.8 184.55,-477.1 200.25,-479.22"/>
<polygon fill="midnightblue" stroke="midnightblue" points="199.96,-482.72 210.34,-480.59 200.9,-475.78 199.96,-482.72"/>
</g>
<!-- Node4 -->
<g id="node4" class="node">
<title>Node4</title>
<g id="a_node4"><a xlink:href="classbfl_1_1VectorDescription.html#a1c3807b9dc0336dacd3fe2a723c77cbd" target="_top" xlink:title=" ">
<polygon fill="white" stroke="black" points="202,-423.5 202,-453.5 323,-453.5 323,-423.5 202,-423.5"/>
<text text-anchor="start" x="210" y="-441.5" font-family="Helvetica,sans-Serif" font-size="10.00">bfl::VectorDescription</text>
<text text-anchor="middle" x="262.5" y="-430.5" font-family="Helvetica,sans-Serif" font-size="10.00">::total_size</text>
</a>
</g>
</g>
<!-- Node1&#45;&gt;Node4 -->
<g id="edge3" class="edge">
<title>Node1&#45;&gt;Node4</title>
<path fill="none" stroke="midnightblue" d="M151.21,-452.81C164.64,-451.07 178.58,-449.26 191.86,-447.53"/>
<polygon fill="midnightblue" stroke="midnightblue" points="192.39,-450.99 201.86,-446.24 191.49,-444.05 192.39,-450.99"/>
</g>
<!-- Node8 -->
<g id="node8" class="node">
<title>Node8</title>
<g id="a_node8"><a xlink:href="namespacebfl_1_1sigma__point.html#afe170453152d4f96db4dad71bd9be9a3" target="_top" xlink:title=" ">
<polygon fill="white" stroke="black" points="187,-202.5 187,-232.5 338,-232.5 338,-202.5 187,-202.5"/>
<text text-anchor="start" x="195" y="-220.5" font-family="Helvetica,sans-Serif" font-size="10.00">bfl::sigma_point::unscented</text>
<text text-anchor="middle" x="262.5" y="-209.5" font-family="Helvetica,sans-Serif" font-size="10.00">_transform</text>
</a>
</g>
</g>
<!-- Node1&#45;&gt;Node8 -->
<g id="edge7" class="edge">
<title>Node1&#45;&gt;Node8</title>
<path fill="none" stroke="midnightblue" d="M88.07,-447.17C119.49,-405.57 206.52,-290.31 243.98,-240.7"/>
<polygon fill="midnightblue" stroke="midnightblue" points="246.94,-242.6 250.17,-232.51 241.35,-238.38 246.94,-242.6"/>
</g>
<!-- Node5 -->
<g id="node5" class="node">
<title>Node5</title>
<g id="a_node5"><a xlink:href="classbfl_1_1VectorDescription.html#a02aa208e08cb3130f6f2c1393dc9aa1a" target="_top" xlink:title=" ">
<polygon fill="white" stroke="black" points="387,-497.5 387,-527.5 508,-527.5 508,-497.5 387,-497.5"/>
<text text-anchor="start" x="395" y="-515.5" font-family="Helvetica,sans-Serif" font-size="10.00">bfl::VectorDescription</text>
<text text-anchor="middle" x="447.5" y="-504.5" font-family="Helvetica,sans-Serif" font-size="10.00">::circular_size</text>
</a>
</g>
</g>
<!-- Node4&#45;&gt;Node5 -->
<g id="edge4" class="edge">
<title>Node4&#45;&gt;Node5</title>
<path fill="none" stroke="midnightblue" d="M314.78,-453.56C322.71,-456.5 330.68,-459.83 338,-463.5 355.41,-472.24 356.57,-479.79 374,-488.5 377.57,-490.28 381.3,-491.98 385.1,-493.58"/>
<polygon fill="midnightblue" stroke="midnightblue" points="384.08,-496.94 394.67,-497.37 386.66,-490.43 384.08,-496.94"/>
</g>
<!-- Node6 -->
<g id="node6" class="node">
<title>Node6</title>
<g id="a_node6"><a xlink:href="classbfl_1_1VectorDescription.html#a6f6e3b3a084ca449ff1ac4c7b82aec6f" target="_top" xlink:title=" ">
<polygon fill="white" stroke="black" points="387,-448.5 387,-478.5 508,-478.5 508,-448.5 387,-448.5"/>
<text text-anchor="start" x="395" y="-466.5" font-family="Helvetica,sans-Serif" font-size="10.00">bfl::VectorDescription</text>
<text text-anchor="middle" x="447.5" y="-455.5" font-family="Helvetica,sans-Serif" font-size="10.00">::linear_size</text>
</a>
</g>
</g>
<!-- Node4&#45;&gt;Node6 -->
<g id="edge5" class="edge">
<title>Node4&#45;&gt;Node6</title>
<path fill="none" stroke="midnightblue" d="M323.17,-446.65C340.26,-448.99 359.04,-451.55 376.68,-453.96"/>
<polygon fill="midnightblue" stroke="midnightblue" points="376.53,-457.47 386.91,-455.36 377.48,-450.54 376.53,-457.47"/>
</g>
<!-- Node7 -->
<g id="node7" class="node">
<title>Node7</title>
<g id="a_node7"><a xlink:href="classbfl_1_1VectorDescription.html#a45e0d5245f401ede3601dd7e653a6b4e" target="_top" xlink:title=" ">
<polygon fill="white" stroke="black" points="387,-399.5 387,-429.5 508,-429.5 508,-399.5 387,-399.5"/>
<text text-anchor="start" x="395" y="-417.5" font-family="Helvetica,sans-Serif" font-size="10.00">bfl::VectorDescription</text>
<text text-anchor="middle" x="447.5" y="-406.5" font-family="Helvetica,sans-Serif" font-size="10.00">::noise_size</text>
</a>
</g>
</g>
<!-- Node4&#45;&gt;Node7 -->
<g id="edge6" class="edge">
<title>Node4&#45;&gt;Node7</title>
<path fill="none" stroke="midnightblue" d="M323.17,-430.67C340.26,-428.43 359.04,-425.97 376.68,-423.66"/>
<polygon fill="midnightblue" stroke="midnightblue" points="377.45,-427.09 386.91,-422.31 376.54,-420.14 377.45,-427.09"/>
</g>
<!-- Node9 -->
<g id="node9" class="node">
<title>Node9</title>
<g id="a_node9"><a xlink:href="classbfl_1_1VectorDescription.html#a08a52559af5e67e1f225466a77d852ff" target="_top" xlink:title=" ">
<polygon fill="white" stroke="black" points="385.5,-224.5 385.5,-254.5 509.5,-254.5 509.5,-224.5 385.5,-224.5"/>
<text text-anchor="start" x="393.5" y="-242.5" font-family="Helvetica,sans-Serif" font-size="10.00">bfl::VectorDescription</text>
<text text-anchor="middle" x="447.5" y="-231.5" font-family="Helvetica,sans-Serif" font-size="10.00">::circular_components</text>
</a>
</g>
</g>
<!-- Node8&#45;&gt;Node9 -->
<g id="edge8" class="edge">
<title>Node8&#45;&gt;Node9</title>
<path fill="none" stroke="midnightblue" d="M338.2,-226.48C350.47,-227.96 363.17,-229.48 375.36,-230.95"/>
<polygon fill="midnightblue" stroke="midnightblue" points="375.11,-234.44 385.45,-232.16 375.94,-227.49 375.11,-234.44"/>
</g>
<!-- Node10 -->
<g id="node10" class="node">
<title>Node10</title>
<g id="a_node10"><a xlink:href="classbfl_1_1GaussianMixture.html#a63afff5b5e09399a51ac4dbe50de568b" target="_top" xlink:title=" ">
<polygon fill="white" stroke="black" points="568.5,-199.5 568.5,-229.5 685.5,-229.5 685.5,-199.5 568.5,-199.5"/>
<text text-anchor="start" x="576.5" y="-217.5" font-family="Helvetica,sans-Serif" font-size="10.00">bfl::GaussianMixture</text>
<text text-anchor="middle" x="627" y="-206.5" font-family="Helvetica,sans-Serif" font-size="10.00">::covariance</text>
</a>
</g>
</g>
<!-- Node8&#45;&gt;Node10 -->
<g id="edge9" class="edge">
<title>Node8&#45;&gt;Node10</title>
<path fill="none" stroke="midnightblue" d="M338.09,-215.2C350.1,-214.91 362.39,-214.66 374,-214.5 436.41,-213.65 507.53,-213.75 558.26,-214"/>
<polygon fill="midnightblue" stroke="midnightblue" points="558.43,-217.5 568.45,-214.06 558.47,-210.5 558.43,-217.5"/>
</g>
<!-- Node11 -->
<g id="node11" class="node">
<title>Node11</title>
<g id="a_node11"><a xlink:href="namespacebfl_1_1utils.html#a26bbb191de2e28c267c505a1e9ef0951" target="_top" xlink:title="Evaluate the colwise difference between a set of unit quaternions &#160;and a unit quaternion .">
<polygon fill="white" stroke="black" points="380,-148 380,-167 515,-167 515,-148 380,-148"/>
<text text-anchor="middle" x="447.5" y="-155" font-family="Helvetica,sans-Serif" font-size="10.00">bfl::utils::diff_quaternion</text>
</a>
</g>
</g>
<!-- Node8&#45;&gt;Node11 -->
<g id="edge10" class="edge">
<title>Node8&#45;&gt;Node11</title>
<path fill="none" stroke="midnightblue" d="M309.68,-202.36C339.99,-192.42 379.17,-179.57 407.84,-170.18"/>
<polygon fill="midnightblue" stroke="midnightblue" points="409.09,-173.45 417.5,-167.01 406.91,-166.8 409.09,-173.45"/>
</g>
<!-- Node13 -->
<g id="node13" class="node">
<title>Node13</title>
<g id="a_node13"><a xlink:href="namespacebfl_1_1directional__statistics.html#ad8758aac208bc2baa75aad514a3f53e6" target="_top" xlink:title=" ">
<polygon fill="white" stroke="black" points="379.5,-98.5 379.5,-128.5 515.5,-128.5 515.5,-98.5 379.5,-98.5"/>
<text text-anchor="start" x="387.5" y="-116.5" font-family="Helvetica,sans-Serif" font-size="10.00">bfl::directional_statistics</text>
<text text-anchor="middle" x="447.5" y="-105.5" font-family="Helvetica,sans-Serif" font-size="10.00">::directional_mean</text>
</a>
</g>
</g>
<!-- Node8&#45;&gt;Node13 -->
<g id="edge12" class="edge">
<title>Node8&#45;&gt;Node13</title>
<path fill="none" stroke="midnightblue" d="M281.21,-202.35C302.21,-185.01 338.79,-156.67 374,-138.5 378.22,-136.33 382.66,-134.27 387.19,-132.35"/>
<polygon fill="midnightblue" stroke="midnightblue" points="388.59,-135.56 396.56,-128.58 385.98,-129.06 388.59,-135.56"/>
</g>
<!-- Node14 -->
<g id="node14" class="node">
<title>Node14</title>
<g id="a_node14"><a xlink:href="namespacebfl_1_1directional__statistics.html#a18bffca88c7ea5f4ea11d2ad910736fe" target="_top" xlink:title=" ">
<polygon fill="white" stroke="black" points="379.5,-49.5 379.5,-79.5 515.5,-79.5 515.5,-49.5 379.5,-49.5"/>
<text text-anchor="start" x="387.5" y="-67.5" font-family="Helvetica,sans-Serif" font-size="10.00">bfl::directional_statistics</text>
<text text-anchor="middle" x="447.5" y="-56.5" font-family="Helvetica,sans-Serif" font-size="10.00">::directional_sub</text>
</a>
</g>
</g>
<!-- Node8&#45;&gt;Node14 -->
<g id="edge13" class="edge">
<title>Node8&#45;&gt;Node14</title>
<path fill="none" stroke="midnightblue" d="M272.47,-202.42C289.14,-175.66 327.48,-119.72 374,-88.5 376.37,-86.91 378.86,-85.41 381.43,-84.01"/>
<polygon fill="midnightblue" stroke="midnightblue" points="382.98,-87.15 390.4,-79.59 379.89,-80.87 382.98,-87.15"/>
</g>
<!-- Node15 -->
<g id="node15" class="node">
<title>Node15</title>
<g id="a_node15"><a xlink:href="classbfl_1_1VectorDescription.html#ac5cd5eaafcfc8f8428dc3e6dccef09e3" target="_top" xlink:title=" ">
<polygon fill="white" stroke="black" points="387,-0.5 387,-30.5 508,-30.5 508,-0.5 387,-0.5"/>
<text text-anchor="start" x="395" y="-18.5" font-family="Helvetica,sans-Serif" font-size="10.00">bfl::VectorDescription</text>
<text text-anchor="middle" x="447.5" y="-7.5" font-family="Helvetica,sans-Serif" font-size="10.00">::linear_components</text>
</a>
</g>
</g>
<!-- Node8&#45;&gt;Node15 -->
<g id="edge14" class="edge">
<title>Node8&#45;&gt;Node15</title>
<path fill="none" stroke="midnightblue" d="M268.75,-202.39C281.38,-168.26 316.72,-84.64 374,-39.5 375.78,-38.1 377.64,-36.78 379.57,-35.53"/>
<polygon fill="midnightblue" stroke="midnightblue" points="381.4,-38.52 388.38,-30.55 377.96,-32.43 381.4,-38.52"/>
</g>
<!-- Node16 -->
<g id="node16" class="node">
<title>Node16</title>
<g id="a_node16"><a xlink:href="classbfl_1_1GaussianMixture.html#a7b33a3796b65b8a8b44f9569f226b4cf" target="_top" xlink:title=" ">
<polygon fill="white" stroke="black" points="568.5,-352.5 568.5,-382.5 685.5,-382.5 685.5,-352.5 568.5,-352.5"/>
<text text-anchor="start" x="576.5" y="-370.5" font-family="Helvetica,sans-Serif" font-size="10.00">bfl::GaussianMixture</text>
<text text-anchor="middle" x="627" y="-359.5" font-family="Helvetica,sans-Serif" font-size="10.00">::mean</text>
</a>
</g>
</g>
<!-- Node8&#45;&gt;Node16 -->
<g id="edge15" class="edge">
<title>Node8&#45;&gt;Node16</title>
<path fill="none" stroke="midnightblue" d="M270.64,-232.59C285.31,-261.66 321.91,-324.89 374,-351.5 431.12,-380.68 505.27,-381.73 558.32,-377.28"/>
<polygon fill="midnightblue" stroke="midnightblue" points="558.67,-380.76 568.31,-376.35 558.03,-373.79 558.67,-380.76"/>
</g>
<!-- Node17 -->
<g id="node17" class="node">
<title>Node17</title>
<g id="a_node17"><a xlink:href="namespacebfl_1_1utils.html#ae8f8bf6fbbee917d1ff3e2bf6578ea19" target="_top" xlink:title="Evaluate the weighted mean of a set of unit quaternions &#160;given a set of weights .">
<polygon fill="white" stroke="black" points="374,-323 374,-342 521,-342 521,-323 374,-323"/>
<text text-anchor="middle" x="447.5" y="-330" font-family="Helvetica,sans-Serif" font-size="10.00">bfl::utils::mean_quaternion</text>
</a>
</g>
</g>
<!-- Node8&#45;&gt;Node17 -->
<g id="edge16" class="edge">
<title>Node8&#45;&gt;Node17</title>
<path fill="none" stroke="midnightblue" d="M276.96,-232.69C296.36,-253.67 334.26,-291.32 374,-312.5 379.17,-315.25 384.75,-317.66 390.44,-319.75"/>
<polygon fill="midnightblue" stroke="midnightblue" points="389.48,-323.11 400.07,-322.98 391.7,-316.48 389.48,-323.11"/>
</g>
<!-- Node18 -->
<g id="node18" class="node">
<title>Node18</title>
<g id="a_node18"><a xlink:href="namespacebfl_1_1sigma__point.html#ab919aca5fccc30ee2acd5cd966cd9dc9" target="_top" xlink:title=" ">
<polygon fill="white" stroke="black" points="382,-273.5 382,-303.5 513,-303.5 513,-273.5 382,-273.5"/>
<text text-anchor="start" x="390" y="-291.5" font-family="Helvetica,sans-Serif" font-size="10.00">bfl::sigma_point::sigma</text>
<text text-anchor="middle" x="447.5" y="-280.5" font-family="Helvetica,sans-Serif" font-size="10.00">_point</text>
</a>
</g>
</g>
<!-- Node8&#45;&gt;Node18 -->
<g id="edge17" class="edge">
<title>Node8&#45;&gt;Node18</title>
<path fill="none" stroke="midnightblue" d="M298.11,-232.56C319.78,-241.83 348.36,-253.75 374,-263.5 379.8,-265.7 385.89,-267.93 391.97,-270.11"/>
<polygon fill="midnightblue" stroke="midnightblue" points="390.89,-273.44 401.48,-273.46 393.22,-266.84 390.89,-273.44"/>
</g>
<!-- Node12 -->
<g id="node12" class="node">
<title>Node12</title>
<g id="a_node12"><a xlink:href="namespacebfl_1_1utils.html#a294bdf526be6ef1c5bad59e737f2af63" target="_top" xlink:title="Convert a matrix of unit quaternions &#160;to their rotation vector representation &#160;in the tangent space a...">
<polygon fill="white" stroke="black" points="570,-142.5 570,-172.5 684,-172.5 684,-142.5 570,-142.5"/>
<text text-anchor="start" x="578" y="-160.5" font-family="Helvetica,sans-Serif" font-size="10.00">bfl::utils::quaternion</text>
<text text-anchor="middle" x="627" y="-149.5" font-family="Helvetica,sans-Serif" font-size="10.00">_to_rotation_vector</text>
</a>
</g>
</g>
<!-- Node11&#45;&gt;Node12 -->
<g id="edge11" class="edge">
<title>Node11&#45;&gt;Node12</title>
<path fill="none" stroke="midnightblue" d="M515.1,-157.5C529.59,-157.5 544.91,-157.5 559.4,-157.5"/>
<polygon fill="midnightblue" stroke="midnightblue" points="559.77,-161 569.77,-157.5 559.77,-154 559.77,-161"/>
</g>
<!-- Node18&#45;&gt;Node10 -->
<g id="edge18" class="edge">
<title>Node18&#45;&gt;Node10</title>
<path fill="none" stroke="midnightblue" d="M496.6,-273.4C504.85,-270.39 513.25,-267.05 521,-263.5 537.84,-255.78 540.38,-250.67 557,-242.5 563.24,-239.44 569.9,-236.42 576.53,-233.58"/>
<polygon fill="midnightblue" stroke="midnightblue" points="578.29,-236.63 586.16,-229.54 575.59,-230.17 578.29,-236.63"/>
</g>
<!-- Node18&#45;&gt;Node16 -->
<g id="edge20" class="edge">
<title>Node18&#45;&gt;Node16</title>
<path fill="none" stroke="midnightblue" d="M499.34,-303.63C506.78,-306.53 514.21,-309.82 521,-313.5 538.82,-323.16 539.32,-331.59 557,-341.5 561.42,-343.98 566.13,-346.31 570.93,-348.49"/>
<polygon fill="midnightblue" stroke="midnightblue" points="569.64,-351.74 580.21,-352.47 572.4,-345.31 569.64,-351.74"/>
</g>
<!-- Node19 -->
<g id="node19" class="node">
<title>Node19</title>
<g id="a_node19"><a xlink:href="namespacebfl_1_1directional__statistics.html#af9984a4df2b3f6f0bc0c264783181123" target="_top" xlink:title=" ">
<polygon fill="white" stroke="black" points="559,-252.5 559,-282.5 695,-282.5 695,-252.5 559,-252.5"/>
<text text-anchor="start" x="567" y="-270.5" font-family="Helvetica,sans-Serif" font-size="10.00">bfl::directional_statistics</text>
<text text-anchor="middle" x="627" y="-259.5" font-family="Helvetica,sans-Serif" font-size="10.00">::directional_add</text>
</a>
</g>
</g>
<!-- Node18&#45;&gt;Node19 -->
<g id="edge19" class="edge">
<title>Node18&#45;&gt;Node19</title>
<path fill="none" stroke="midnightblue" d="M513.08,-280.86C524.7,-279.48 536.91,-278.04 548.84,-276.63"/>
<polygon fill="midnightblue" stroke="midnightblue" points="549.26,-280.1 558.78,-275.45 548.44,-273.15 549.26,-280.1"/>
</g>
<!-- Node20 -->
<g id="node20" class="node">
<title>Node20</title>
<g id="a_node20"><a xlink:href="namespacebfl_1_1utils.html#ab1ca09c6f5d699242615c8dbc89fa2e0" target="_top" xlink:title="Evaluate the colwise sum between a unit quaternion &#160;and a set of rotation vectors &#160;in the tangent spa...">
<polygon fill="white" stroke="black" points="557,-301.5 557,-331.5 697,-331.5 697,-301.5 557,-301.5"/>
<text text-anchor="start" x="565" y="-319.5" font-family="Helvetica,sans-Serif" font-size="10.00">bfl::utils::sum_quaternion</text>
<text text-anchor="middle" x="627" y="-308.5" font-family="Helvetica,sans-Serif" font-size="10.00">_rotation_vector</text>
</a>
</g>
</g>
<!-- Node18&#45;&gt;Node20 -->
<g id="edge21" class="edge">
<title>Node18&#45;&gt;Node20</title>
<path fill="none" stroke="midnightblue" d="M513.08,-298.69C524.12,-300.43 535.7,-302.26 547.07,-304.05"/>
<polygon fill="midnightblue" stroke="midnightblue" points="546.55,-307.51 556.98,-305.61 547.64,-300.6 546.55,-307.51"/>
</g>
<!-- Node21 -->
<g id="node21" class="node">
<title>Node21</title>
<g id="a_node21"><a xlink:href="namespacebfl_1_1utils.html#af901548c98d811c2b176e1d9b02aabb3" target="_top" xlink:title="Convert a matrix of rotation vectors &#160;in the tangent space at the identity to their unitary quaternio...">
<polygon fill="white" stroke="black" points="733,-301.5 733,-331.5 858,-331.5 858,-301.5 733,-301.5"/>
<text text-anchor="start" x="741" y="-319.5" font-family="Helvetica,sans-Serif" font-size="10.00">bfl::utils::rotation</text>
<text text-anchor="middle" x="795.5" y="-308.5" font-family="Helvetica,sans-Serif" font-size="10.00">_vector_to_quaternion</text>
</a>
</g>
</g>
<!-- Node20&#45;&gt;Node21 -->
<g id="edge22" class="edge">
<title>Node20&#45;&gt;Node21</title>
<path fill="none" stroke="midnightblue" d="M697.16,-316.5C705.61,-316.5 714.26,-316.5 722.75,-316.5"/>
<polygon fill="midnightblue" stroke="midnightblue" points="722.99,-320 732.99,-316.5 722.99,-313 722.99,-320"/>
</g>
</g>
</svg>
        <g id="navigator" transform="translate(0 0)" fill="#404254">
                <rect fill="#f2f5e9" fill-opacity="0.5" stroke="#606060" stroke-width=".5" x="0" y="0" width="60" height="60"/>
                <use id="zoomplus" xlink:href="#zoomPlus" x="17" y="9" onmousedown="handleZoom(evt,'in')"/>
                <use id="zoomminus" xlink:href="#zoomMin" x="42" y="9" onmousedown="handleZoom(evt,'out')"/>
                <use id="reset" xlink:href="#resetDef" x="30" y="36" onmousedown="handleReset()"/>
                <g id="arrowUp" xlink:href="#dirArrow" transform="translate(30 24)" onmousedown="handlePan(0,-1)">
                  <use xlink:href="#rim" fill="#404040">
                        <set attributeName="fill" to="#808080" begin="arrowUp.mouseover" end="arrowUp.mouseout"/>
                  </use>
                  <path fill="none" stroke="white" stroke-width="1.5" d="M0,-3.0v7 M-2.5,-0.5L0,-3.0L2.5,-0.5"/>
                </g>
                <g id="arrowRight" xlink:href="#dirArrow" transform="rotate(90) translate(36 -43)" onmousedown="handlePan(1,0)">
                  <use xlink:href="#rim" fill="#404040">
                        <set attributeName="fill" to="#808080" begin="arrowRight.mouseover" end="arrowRight.mouseout"/>
                  </use>
                  <path fill="none" stroke="white" stroke-width="1.5" d="M0,-3.0v7 M-2.5,-0.5L0,-3.0L2.5,-0.5"/>
                </g>
                <g id="arrowDown" xlink:href="#dirArrow" transform="rotate(180) translate(-30 -48)" onmousedown="handlePan(0,1)">
                  <use xlink:href="#rim" fill="#404040">
                        <set attributeName="fill" to="#808080" begin="arrowDown.mouseover" end="arrowDown.mouseout"/>
                  </use>
                  <path fill="none" stroke="white" stroke-width="1.5" d="M0,-3.0v7 M-2.5,-0.5L0,-3.0L2.5,-0.5"/>
                </g>
                <g id="arrowLeft" xlink:href="#dirArrow" transform="rotate(270) translate(-36 17)" onmousedown="handlePan(-1,0)">
                  <use xlink:href="#rim" fill="#404040">
                        <set attributeName="fill" to="#808080" begin="arrowLeft.mouseover" end="arrowLeft.mouseout"/>
                  </use>
                  <path fill="none" stroke="white" stroke-width="1.5" d="M0,-3.0v7 M-2.5,-0.5L0,-3.0L2.5,-0.5"/>
                </g>
        </g>
        <svg viewBox="0 0 15 15" width="100%" height="30px" preserveAspectRatio="xMaxYMin meet">
         <g id="arrow_out" transform="scale(0.3 0.3)">
          <a xlink:href="namespacebfl_1_1sigma__point_a49b40777ee901dfbe3752e8f165fb439_cgraph_org.svg" target="_base">
           <rect id="button" ry="5" rx="5" y="6" x="6" height="38" width="38"
                fill="#f2f5e9" fill-opacity="0.5" stroke="#606060" stroke-width="1.0"/>
           <path id="arrow"
             d="M 11.500037,31.436501 C 11.940474,20.09759 22.043105,11.32322 32.158766,21.979434 L 37.068811,17.246167 C 37.068811,17.246167 37.088388,32 37.088388,32 L 22.160133,31.978069 C 22.160133,31.978069 26.997745,27.140456 26.997745,27.140456 C 18.528582,18.264221 13.291696,25.230495 11.500037,31.436501 z"
             style="fill:#404040;"/>
          </a>
         </g>
        </svg>
</svg>
