<?xml version="1.0" encoding="UTF-8" standalone="no"?>
<!DOCTYPE svg PUBLIC "-//W3C//DTD SVG 1.1//EN"
 "http://www.w3.org/Graphics/SVG/1.1/DTD/svg11.dtd">
<!-- Generated by graphviz version 2.47.2 (0)
 -->
<!-- Title: bfl::sigma_point::unscented_transform Pages: 1 -->
<svg width="634pt" height="230pt"
 viewBox="0.00 0.00 634.00 230.00" xmlns="http://www.w3.org/2000/svg" xmlns:xlink="http://www.w3.org/1999/xlink">
<g id="graph0" class="graph" transform="scale(1 1) rotate(0) translate(4 226)">
<title>bfl::sigma_point::unscented_transform</title>
<polygon fill="white" stroke="transparent" points="-4,4 -4,-226 630,-226 630,4 -4,4"/>
<!-- Node1 -->
<g id="node1" class="node">
<title>Node1</title>
<g id="a_node1"><a xlink:title=" ">
<polygon fill="#bfbfbf" stroke="black" points="0,-142.5 0,-172.5 137,-172.5 137,-142.5 0,-142.5"/>
<text text-anchor="start" x="8" y="-160.5" font-family="Helvetica,sans-Serif" font-size="10.00">bfl::sigma_point::unscented</text>
<text text-anchor="middle" x="68.5" y="-149.5" font-family="Helvetica,sans-Serif" font-size="10.00">_transform</text>
</a>
</g>
</g>
<!-- Node2 -->
<g id="node2" class="node">
<title>Node2</title>
<g id="a_node2"><a xlink:href="classbfl_1_1MeasurementModel.html#a6cca2022b576c9dbb61e73b83a10c6ee" target="_top" xlink:title=" ">
<polygon fill="white" stroke="black" points="182,-191.5 182,-221.5 301,-221.5 301,-191.5 182,-191.5"/>
<text text-anchor="start" x="190" y="-209.5" font-family="Helvetica,sans-Serif" font-size="10.00">bfl::MeasurementModel</text>
<text text-anchor="middle" x="241.5" y="-198.5" font-family="Helvetica,sans-Serif" font-size="10.00">::getOutputSize</text>
</a>
</g>
</g>
<!-- Node1&#45;&gt;Node2 -->
<g id="edge1" class="edge">
<title>Node1&#45;&gt;Node2</title>
<path fill="none" stroke="midnightblue" d="M122.2,-172.6C139.92,-177.68 159.85,-183.39 178.23,-188.66"/>
<polygon fill="midnightblue" stroke="midnightblue" points="177.4,-192.06 187.97,-191.45 179.32,-185.33 177.4,-192.06"/>
</g>
<!-- Node3 -->
<g id="node3" class="node">
<title>Node3</title>
<g id="a_node3"><a xlink:href="classbfl_1_1MeasurementModel.html#abd47546b1038cc28b6d7375667427504" target="_top" xlink:title=" ">
<polygon fill="white" stroke="black" points="182,-142.5 182,-172.5 301,-172.5 301,-142.5 182,-142.5"/>
<text text-anchor="start" x="190" y="-160.5" font-family="Helvetica,sans-Serif" font-size="10.00">bfl::MeasurementModel</text>
<text text-anchor="middle" x="241.5" y="-149.5" font-family="Helvetica,sans-Serif" font-size="10.00">::predictedMeasure</text>
</a>
</g>
</g>
<!-- Node1&#45;&gt;Node3 -->
<g id="edge2" class="edge">
<title>Node1&#45;&gt;Node3</title>
<path fill="none" stroke="midnightblue" d="M137.08,-157.5C148.45,-157.5 160.25,-157.5 171.65,-157.5"/>
<polygon fill="midnightblue" stroke="midnightblue" points="171.98,-161 181.98,-157.5 171.98,-154 171.98,-161"/>
</g>
<!-- Node4 -->
<g id="node4" class="node">
<title>Node4</title>
<g id="a_node4"><a xlink:href="namespacebfl_1_1sigma__point.html#afe170453152d4f96db4dad71bd9be9a3" target="_top" xlink:title=" ">
<polygon fill="white" stroke="black" points="173,-93.5 173,-123.5 310,-123.5 310,-93.5 173,-93.5"/>
<text text-anchor="start" x="181" y="-111.5" font-family="Helvetica,sans-Serif" font-size="10.00">bfl::sigma_point::unscented</text>
<text text-anchor="middle" x="241.5" y="-100.5" font-family="Helvetica,sans-Serif" font-size="10.00">_transform</text>
</a>
</g>
</g>
<!-- Node1&#45;&gt;Node4 -->
<g id="edge3" class="edge">
<title>Node1&#45;&gt;Node4</title>
<path fill="none" stroke="midnightblue" d="M122.2,-142.4C139.92,-137.32 159.85,-131.61 178.23,-126.34"/>
<polygon fill="midnightblue" stroke="midnightblue" points="179.32,-129.67 187.97,-123.55 177.4,-122.94 179.32,-129.67"/>
</g>
<!-- Node5 -->
<g id="node5" class="node">
<title>Node5</title>
<g id="a_node5"><a xlink:href="classbfl_1_1GaussianMixture.html#a65a60ef46d16ac33196a09963bbccdee" target="_top" xlink:title=" ">
<polygon fill="white" stroke="black" points="511.5,-142.5 511.5,-172.5 618.5,-172.5 618.5,-142.5 511.5,-142.5"/>
<text text-anchor="start" x="519.5" y="-160.5" font-family="Helvetica,sans-Serif" font-size="10.00">bfl::GaussianMixture</text>
<text text-anchor="middle" x="565" y="-149.5" font-family="Helvetica,sans-Serif" font-size="10.00">::covariance</text>
</a>
</g>
</g>
<!-- Node4&#45;&gt;Node5 -->
<g id="edge4" class="edge">
<title>Node4&#45;&gt;Node5</title>
<path fill="none" stroke="midnightblue" d="M293.24,-123.54C299.17,-126.36 304.91,-129.66 310,-133.5 331.58,-149.77 321.89,-170.3 346,-182.5 401.37,-210.53 474.55,-192.76 520.45,-176.13"/>
<polygon fill="midnightblue" stroke="midnightblue" points="521.68,-179.41 529.82,-172.62 519.23,-172.85 521.68,-179.41"/>
</g>
<!-- Node6 -->
<g id="node6" class="node">
<title>Node6</title>
<g id="a_node6"><a xlink:href="namespacebfl_1_1directional__statistics.html#ad8758aac208bc2baa75aad514a3f53e6" target="_top" xlink:title=" ">
<polygon fill="white" stroke="black" points="346,-142.5 346,-172.5 468,-172.5 468,-142.5 346,-142.5"/>
<text text-anchor="start" x="354" y="-160.5" font-family="Helvetica,sans-Serif" font-size="10.00">bfl::directional_statistics</text>
<text text-anchor="middle" x="407" y="-149.5" font-family="Helvetica,sans-Serif" font-size="10.00">::directional_mean</text>
</a>
</g>
</g>
<!-- Node4&#45;&gt;Node6 -->
<g id="edge5" class="edge">
<title>Node4&#45;&gt;Node6</title>
<path fill="none" stroke="midnightblue" d="M292.89,-123.6C309.6,-128.61 328.36,-134.23 345.74,-139.44"/>
<polygon fill="midnightblue" stroke="midnightblue" points="345.19,-142.93 355.78,-142.45 347.2,-136.22 345.19,-142.93"/>
</g>
<!-- Node7 -->
<g id="node7" class="node">
<title>Node7</title>
<g id="a_node7"><a xlink:href="namespacebfl_1_1directional__statistics.html#a18bffca88c7ea5f4ea11d2ad910736fe" target="_top" xlink:title=" ">
<polygon fill="white" stroke="black" points="346,-93.5 346,-123.5 468,-123.5 468,-93.5 346,-93.5"/>
<text text-anchor="start" x="354" y="-111.5" font-family="Helvetica,sans-Serif" font-size="10.00">bfl::directional_statistics</text>
<text text-anchor="middle" x="407" y="-100.5" font-family="Helvetica,sans-Serif" font-size="10.00">::directional_sub</text>
</a>
</g>
</g>
<!-- Node4&#45;&gt;Node7 -->
<g id="edge6" class="edge">
<title>Node4&#45;&gt;Node7</title>
<path fill="none" stroke="midnightblue" d="M310.42,-108.5C318.78,-108.5 327.33,-108.5 335.73,-108.5"/>
<polygon fill="midnightblue" stroke="midnightblue" points="335.86,-112 345.86,-108.5 335.86,-105 335.86,-112"/>
</g>
<!-- Node8 -->
<g id="node8" class="node">
<title>Node8</title>
<g id="a_node8"><a xlink:href="classbfl_1_1GaussianMixture.html#af4fd865a97ac27c72510cfbf9429bd97" target="_top" xlink:title=" ">
<polygon fill="white" stroke="black" points="511.5,-0.5 511.5,-30.5 618.5,-30.5 618.5,-0.5 511.5,-0.5"/>
<text text-anchor="start" x="519.5" y="-18.5" font-family="Helvetica,sans-Serif" font-size="10.00">bfl::GaussianMixture</text>
<text text-anchor="middle" x="565" y="-7.5" font-family="Helvetica,sans-Serif" font-size="10.00">::mean</text>
</a>
</g>
</g>
<!-- Node4&#45;&gt;Node8 -->
<g id="edge7" class="edge">
<title>Node4&#45;&gt;Node8</title>
<path fill="none" stroke="midnightblue" d="M257.77,-93.46C276.69,-75.87 310.77,-47.51 346,-34.5 395.92,-16.06 456.49,-12.11 501.1,-12.32"/>
<polygon fill="midnightblue" stroke="midnightblue" points="501.18,-15.82 511.22,-12.44 501.26,-8.82 501.18,-15.82"/>
</g>
<!-- Node9 -->
<g id="node9" class="node">
<title>Node9</title>
<g id="a_node9"><a xlink:href="namespacebfl_1_1sigma__point.html#ab919aca5fccc30ee2acd5cd966cd9dc9" target="_top" xlink:title=" ">
<polygon fill="white" stroke="black" points="348,-44.5 348,-74.5 466,-74.5 466,-44.5 348,-44.5"/>
<text text-anchor="start" x="356" y="-62.5" font-family="Helvetica,sans-Serif" font-size="10.00">bfl::sigma_point::sigma</text>
<text text-anchor="middle" x="407" y="-51.5" font-family="Helvetica,sans-Serif" font-size="10.00">_point</text>
</a>
</g>
</g>
<!-- Node4&#45;&gt;Node9 -->
<g id="edge8" class="edge">
<title>Node4&#45;&gt;Node9</title>
<path fill="none" stroke="midnightblue" d="M292.89,-93.4C309.6,-88.39 328.36,-82.77 345.74,-77.56"/>
<polygon fill="midnightblue" stroke="midnightblue" points="347.2,-80.78 355.78,-74.55 345.19,-74.07 347.2,-80.78"/>
</g>
<!-- Node9&#45;&gt;Node5 -->
<g id="edge9" class="edge">
<title>Node9&#45;&gt;Node5</title>
<path fill="none" stroke="midnightblue" d="M448.06,-74.51C454.86,-77.53 461.74,-80.9 468,-84.5 493.76,-99.34 520.48,-120.17 539.17,-135.79"/>
<polygon fill="midnightblue" stroke="midnightblue" points="537.01,-138.55 546.91,-142.34 541.54,-133.21 537.01,-138.55"/>
</g>
<!-- Node9&#45;&gt;Node8 -->
<g id="edge11" class="edge">
<title>Node9&#45;&gt;Node8</title>
<path fill="none" stroke="midnightblue" d="M461.25,-44.48C474.12,-40.85 488,-36.94 501.26,-33.2"/>
<polygon fill="midnightblue" stroke="midnightblue" points="502.58,-36.46 511.25,-30.38 500.68,-29.72 502.58,-36.46"/>
</g>
<!-- Node10 -->
<g id="node10" class="node">
<title>Node10</title>
<g id="a_node10"><a xlink:href="namespacebfl_1_1directional__statistics.html#af9984a4df2b3f6f0bc0c264783181123" target="_top" xlink:title=" ">
<polygon fill="white" stroke="black" points="504,-49.5 504,-79.5 626,-79.5 626,-49.5 504,-49.5"/>
<text text-anchor="start" x="512" y="-67.5" font-family="Helvetica,sans-Serif" font-size="10.00">bfl::directional_statistics</text>
<text text-anchor="middle" x="565" y="-56.5" font-family="Helvetica,sans-Serif" font-size="10.00">::directional_add</text>
</a>
</g>
</g>
<!-- Node9&#45;&gt;Node10 -->
<g id="edge10" class="edge">
<title>Node9&#45;&gt;Node10</title>
<path fill="none" stroke="midnightblue" d="M466.09,-61.36C475.03,-61.65 484.34,-61.95 493.51,-62.24"/>
<polygon fill="midnightblue" stroke="midnightblue" points="493.67,-65.75 503.78,-62.57 493.89,-58.75 493.67,-65.75"/>
</g>
</g>
</svg>
