<?xml version="1.0" encoding="UTF-8" standalone="no"?>
<!DOCTYPE svg PUBLIC "-//W3C//DTD SVG 1.1//EN"
 "http://www.w3.org/Graphics/SVG/1.1/DTD/svg11.dtd">
<!-- Generated by graphviz version 2.43.0 (0)
 -->
<!-- Title: bfl::any::swap Pages: 1 -->
<svg width="234pt" height="28pt"
 viewBox="0.00 0.00 234.00 28.00" xmlns="http://www.w3.org/2000/svg" xmlns:xlink="http://www.w3.org/1999/xlink">
<g id="graph0" class="graph" transform="scale(1 1) rotate(0) translate(4 24)">
<title>bfl::any::swap</title>
<polygon fill="white" stroke="transparent" points="-4,4 -4,-24 230,-24 230,4 -4,4"/>
<!-- Node1 -->
<g id="node1" class="node">
<title>Node1</title>
<g id="a_node1"><a xlink:title="Overloads the std::swap algorithm for std::any.">
<polygon fill="#bfbfbf" stroke="black" points="0,-0.5 0,-19.5 83,-19.5 83,-0.5 0,-0.5"/>
<text text-anchor="middle" x="41.5" y="-7.5" font-family="Helvetica,sans-Serif" font-size="10.00">bfl::any::swap</text>
</a>
</g>
</g>
<!-- Node2 -->
<g id="node2" class="node">
<title>Node2</title>
<g id="a_node2"><a xlink:href="classbfl_1_1any_1_1any.html#a0441e5816aa5ef4721f134868b7ca402" target="_top" xlink:title="Swaps the content of two any objects.">
<polygon fill="white" stroke="black" points="119,-0.5 119,-19.5 226,-19.5 226,-0.5 119,-0.5"/>
<text text-anchor="middle" x="172.5" y="-7.5" font-family="Helvetica,sans-Serif" font-size="10.00">bfl::any::any::swap</text>
</a>
</g>
</g>
<!-- Node1&#45;&gt;Node2 -->
<g id="edge1" class="edge">
<title>Node1&#45;&gt;Node2</title>
<path fill="none" stroke="midnightblue" d="M83.32,-3.67C91.38,-3.37 100.02,-3.23 108.62,-3.25"/>
<polygon fill="midnightblue" stroke="midnightblue" points="108.63,-6.75 118.66,-3.35 108.69,0.25 108.63,-6.75"/>
</g>
<!-- Node2&#45;&gt;Node1 -->
<g id="edge2" class="edge">
<title>Node2&#45;&gt;Node1</title>
<path fill="none" stroke="midnightblue" d="M118.66,-16.65C110.37,-16.79 101.81,-16.78 93.56,-16.62"/>
<polygon fill="midnightblue" stroke="midnightblue" points="93.41,-13.11 83.32,-16.33 93.21,-20.11 93.41,-13.11"/>
</g>
</g>
</svg>
