<?xml version="1.0" encoding="UTF-8" standalone="no"?>
<!DOCTYPE svg PUBLIC "-//W3C//DTD SVG 1.1//EN"
 "http://www.w3.org/Graphics/SVG/1.1/DTD/svg11.dtd">
<!-- Generated by graphviz version 2.47.2 (0)
 -->
<!-- Title: bfl::sigma_point::unscented_transform Pages: 1 -->
<svg width="635pt" height="252pt"
 viewBox="0.00 0.00 635.00 252.08" xmlns="http://www.w3.org/2000/svg" xmlns:xlink="http://www.w3.org/1999/xlink">
<g id="graph0" class="graph" transform="scale(1 1) rotate(0) translate(4 248.08)">
<title>bfl::sigma_point::unscented_transform</title>
<polygon fill="white" stroke="transparent" points="-4,4 -4,-248.08 631,-248.08 631,4 -4,4"/>
<!-- Node1 -->
<g id="node1" class="node">
<title>Node1</title>
<g id="a_node1"><a xlink:title=" ">
<polygon fill="#bfbfbf" stroke="black" points="0,-139.5 0,-169.5 137,-169.5 137,-139.5 0,-139.5"/>
<text text-anchor="start" x="8" y="-157.5" font-family="Helvetica,sans-Serif" font-size="10.00">bfl::sigma_point::unscented</text>
<text text-anchor="middle" x="68.5" y="-146.5" font-family="Helvetica,sans-Serif" font-size="10.00">_transform</text>
</a>
</g>
</g>
<!-- Node2 -->
<g id="node2" class="node">
<title>Node2</title>
<g id="a_node2"><a xlink:href="classbfl_1_1GaussianMixture.html#a65a60ef46d16ac33196a09963bbccdee" target="_top" xlink:title=" ">
<polygon fill="white" stroke="black" points="512.5,-162.5 512.5,-192.5 619.5,-192.5 619.5,-162.5 512.5,-162.5"/>
<text text-anchor="start" x="520.5" y="-180.5" font-family="Helvetica,sans-Serif" font-size="10.00">bfl::GaussianMixture</text>
<text text-anchor="middle" x="566" y="-169.5" font-family="Helvetica,sans-Serif" font-size="10.00">::covariance</text>
</a>
</g>
</g>
<!-- Node1&#45;&gt;Node2 -->
<g id="edge1" class="edge">
<title>Node1&#45;&gt;Node2</title>
<path fill="none" stroke="midnightblue" d="M84.26,-169.74C102.94,-187.82 137.03,-216.96 173,-228.5 293.71,-267.21 444.3,-223.51 518.81,-196.17"/>
<polygon fill="midnightblue" stroke="midnightblue" points="520.24,-199.37 528.38,-192.59 517.79,-192.81 520.24,-199.37"/>
</g>
<!-- Node3 -->
<g id="node3" class="node">
<title>Node3</title>
<g id="a_node3"><a xlink:href="classbfl_1_1MeasurementModel.html#af25f42076b69e0c6cab47d36d796536f" target="_top" xlink:title=" ">
<polygon fill="white" stroke="black" points="173,-188.5 173,-218.5 311,-218.5 311,-188.5 173,-188.5"/>
<text text-anchor="start" x="181" y="-206.5" font-family="Helvetica,sans-Serif" font-size="10.00">bfl::MeasurementModel</text>
<text text-anchor="middle" x="242" y="-195.5" font-family="Helvetica,sans-Serif" font-size="10.00">::getNoiseCovarianceMatrix</text>
</a>
</g>
</g>
<!-- Node1&#45;&gt;Node3 -->
<g id="edge2" class="edge">
<title>Node1&#45;&gt;Node3</title>
<path fill="none" stroke="midnightblue" d="M122.36,-169.6C140.12,-174.67 160.12,-180.39 178.55,-185.65"/>
<polygon fill="midnightblue" stroke="midnightblue" points="177.74,-189.06 188.32,-188.44 179.67,-182.33 177.74,-189.06"/>
</g>
<!-- Node4 -->
<g id="node4" class="node">
<title>Node4</title>
<g id="a_node4"><a xlink:href="classbfl_1_1MeasurementModel.html#a6cca2022b576c9dbb61e73b83a10c6ee" target="_top" xlink:title=" ">
<polygon fill="white" stroke="black" points="182.5,-139.5 182.5,-169.5 301.5,-169.5 301.5,-139.5 182.5,-139.5"/>
<text text-anchor="start" x="190.5" y="-157.5" font-family="Helvetica,sans-Serif" font-size="10.00">bfl::MeasurementModel</text>
<text text-anchor="middle" x="242" y="-146.5" font-family="Helvetica,sans-Serif" font-size="10.00">::getOutputSize</text>
</a>
</g>
</g>
<!-- Node1&#45;&gt;Node4 -->
<g id="edge3" class="edge">
<title>Node1&#45;&gt;Node4</title>
<path fill="none" stroke="midnightblue" d="M137.28,-154.5C148.8,-154.5 160.76,-154.5 172.3,-154.5"/>
<polygon fill="midnightblue" stroke="midnightblue" points="172.31,-158 182.31,-154.5 172.31,-151 172.31,-158"/>
</g>
<!-- Node5 -->
<g id="node5" class="node">
<title>Node5</title>
<g id="a_node5"><a xlink:href="classbfl_1_1MeasurementModel.html#abd47546b1038cc28b6d7375667427504" target="_top" xlink:title=" ">
<polygon fill="white" stroke="black" points="182.5,-90.5 182.5,-120.5 301.5,-120.5 301.5,-90.5 182.5,-90.5"/>
<text text-anchor="start" x="190.5" y="-108.5" font-family="Helvetica,sans-Serif" font-size="10.00">bfl::MeasurementModel</text>
<text text-anchor="middle" x="242" y="-97.5" font-family="Helvetica,sans-Serif" font-size="10.00">::predictedMeasure</text>
</a>
</g>
</g>
<!-- Node1&#45;&gt;Node5 -->
<g id="edge4" class="edge">
<title>Node1&#45;&gt;Node5</title>
<path fill="none" stroke="midnightblue" d="M122.36,-139.39C140.12,-134.32 160.12,-128.61 178.55,-123.34"/>
<polygon fill="midnightblue" stroke="midnightblue" points="179.67,-126.66 188.32,-120.55 177.74,-119.93 179.67,-126.66"/>
</g>
<!-- Node6 -->
<g id="node6" class="node">
<title>Node6</title>
<g id="a_node6"><a xlink:href="namespacebfl_1_1sigma__point.html#afe170453152d4f96db4dad71bd9be9a3" target="_top" xlink:title=" ">
<polygon fill="white" stroke="black" points="173.5,-41.5 173.5,-71.5 310.5,-71.5 310.5,-41.5 173.5,-41.5"/>
<text text-anchor="start" x="181.5" y="-59.5" font-family="Helvetica,sans-Serif" font-size="10.00">bfl::sigma_point::unscented</text>
<text text-anchor="middle" x="242" y="-48.5" font-family="Helvetica,sans-Serif" font-size="10.00">_transform</text>
</a>
</g>
</g>
<!-- Node1&#45;&gt;Node6 -->
<g id="edge5" class="edge">
<title>Node1&#45;&gt;Node6</title>
<path fill="none" stroke="midnightblue" d="M87.62,-139.48C107.57,-123.5 141.07,-98.25 173,-81.5 176.99,-79.4 181.2,-77.4 185.48,-75.51"/>
<polygon fill="midnightblue" stroke="midnightblue" points="187.05,-78.65 194.93,-71.56 184.35,-72.19 187.05,-78.65"/>
</g>
<!-- Node6&#45;&gt;Node2 -->
<g id="edge6" class="edge">
<title>Node6&#45;&gt;Node2</title>
<path fill="none" stroke="midnightblue" d="M296.54,-71.53C301.76,-74.32 306.71,-77.62 311,-81.5 338.13,-106.03 317.01,-134.56 347,-155.5 391.9,-186.83 455.23,-189.88 502.06,-186.55"/>
<polygon fill="midnightblue" stroke="midnightblue" points="502.42,-190.04 512.09,-185.73 501.84,-183.06 502.42,-190.04"/>
</g>
<!-- Node7 -->
<g id="node7" class="node">
<title>Node7</title>
<g id="a_node7"><a xlink:href="namespacebfl_1_1directional__statistics.html#ad8758aac208bc2baa75aad514a3f53e6" target="_top" xlink:title=" ">
<polygon fill="white" stroke="black" points="347,-66.5 347,-96.5 469,-96.5 469,-66.5 347,-66.5"/>
<text text-anchor="start" x="355" y="-84.5" font-family="Helvetica,sans-Serif" font-size="10.00">bfl::directional_statistics</text>
<text text-anchor="middle" x="408" y="-73.5" font-family="Helvetica,sans-Serif" font-size="10.00">::directional_mean</text>
</a>
</g>
</g>
<!-- Node6&#45;&gt;Node7 -->
<g id="edge7" class="edge">
<title>Node6&#45;&gt;Node7</title>
<path fill="none" stroke="midnightblue" d="M310.65,-66.81C319.28,-68.12 328.12,-69.47 336.78,-70.79"/>
<polygon fill="midnightblue" stroke="midnightblue" points="336.44,-74.28 346.85,-72.33 337.49,-67.36 336.44,-74.28"/>
</g>
<!-- Node8 -->
<g id="node8" class="node">
<title>Node8</title>
<g id="a_node8"><a xlink:href="namespacebfl_1_1directional__statistics.html#a18bffca88c7ea5f4ea11d2ad910736fe" target="_top" xlink:title=" ">
<polygon fill="white" stroke="black" points="347,-17.5 347,-47.5 469,-47.5 469,-17.5 347,-17.5"/>
<text text-anchor="start" x="355" y="-35.5" font-family="Helvetica,sans-Serif" font-size="10.00">bfl::directional_statistics</text>
<text text-anchor="middle" x="408" y="-24.5" font-family="Helvetica,sans-Serif" font-size="10.00">::directional_sub</text>
</a>
</g>
</g>
<!-- Node6&#45;&gt;Node8 -->
<g id="edge8" class="edge">
<title>Node6&#45;&gt;Node8</title>
<path fill="none" stroke="midnightblue" d="M310.65,-46.6C319.28,-45.33 328.12,-44.04 336.78,-42.77"/>
<polygon fill="midnightblue" stroke="midnightblue" points="337.46,-46.21 346.85,-41.3 336.45,-39.28 337.46,-46.21"/>
</g>
<!-- Node9 -->
<g id="node9" class="node">
<title>Node9</title>
<g id="a_node9"><a xlink:href="classbfl_1_1GaussianMixture.html#af4fd865a97ac27c72510cfbf9429bd97" target="_top" xlink:title=" ">
<polygon fill="white" stroke="black" points="512.5,-19.5 512.5,-49.5 619.5,-49.5 619.5,-19.5 512.5,-19.5"/>
<text text-anchor="start" x="520.5" y="-37.5" font-family="Helvetica,sans-Serif" font-size="10.00">bfl::GaussianMixture</text>
<text text-anchor="middle" x="566" y="-26.5" font-family="Helvetica,sans-Serif" font-size="10.00">::mean</text>
</a>
</g>
</g>
<!-- Node6&#45;&gt;Node9 -->
<g id="edge9" class="edge">
<title>Node6&#45;&gt;Node9</title>
<path fill="none" stroke="midnightblue" d="M267.11,-41.37C287.51,-29.52 317.98,-13.99 347,-7.5 399.91,4.35 415.29,-0.09 469,-7.5 482.94,-9.42 497.7,-12.84 511.36,-16.62"/>
<polygon fill="midnightblue" stroke="midnightblue" points="510.51,-20.02 521.09,-19.42 512.45,-13.29 510.51,-20.02"/>
</g>
<!-- Node10 -->
<g id="node10" class="node">
<title>Node10</title>
<g id="a_node10"><a xlink:href="namespacebfl_1_1sigma__point.html#ab919aca5fccc30ee2acd5cd966cd9dc9" target="_top" xlink:title=" ">
<polygon fill="white" stroke="black" points="349,-115.5 349,-145.5 467,-145.5 467,-115.5 349,-115.5"/>
<text text-anchor="start" x="357" y="-133.5" font-family="Helvetica,sans-Serif" font-size="10.00">bfl::sigma_point::sigma</text>
<text text-anchor="middle" x="408" y="-122.5" font-family="Helvetica,sans-Serif" font-size="10.00">_point</text>
</a>
</g>
</g>
<!-- Node6&#45;&gt;Node10 -->
<g id="edge10" class="edge">
<title>Node6&#45;&gt;Node10</title>
<path fill="none" stroke="midnightblue" d="M289.05,-71.61C296.53,-74.58 304.08,-77.9 311,-81.5 328.28,-90.49 329.85,-97.26 347,-106.5 350.06,-108.14 353.25,-109.74 356.5,-111.28"/>
<polygon fill="midnightblue" stroke="midnightblue" points="355.21,-114.53 365.77,-115.44 358.08,-108.15 355.21,-114.53"/>
</g>
<!-- Node10&#45;&gt;Node2 -->
<g id="edge11" class="edge">
<title>Node10&#45;&gt;Node2</title>
<path fill="none" stroke="midnightblue" d="M458.79,-145.5C473.56,-149.95 489.9,-154.87 505.24,-159.49"/>
<polygon fill="midnightblue" stroke="midnightblue" points="504.57,-162.94 515.15,-162.48 506.58,-156.24 504.57,-162.94"/>
</g>
<!-- Node10&#45;&gt;Node9 -->
<g id="edge13" class="edge">
<title>Node10&#45;&gt;Node9</title>
<path fill="none" stroke="midnightblue" d="M450.66,-115.49C456.93,-112.76 463.23,-109.74 469,-106.5 494.79,-92 521.5,-71.44 540.18,-55.99"/>
<polygon fill="midnightblue" stroke="midnightblue" points="542.5,-58.62 547.92,-49.51 538.01,-53.25 542.5,-58.62"/>
</g>
<!-- Node11 -->
<g id="node11" class="node">
<title>Node11</title>
<g id="a_node11"><a xlink:href="namespacebfl_1_1directional__statistics.html#af9984a4df2b3f6f0bc0c264783181123" target="_top" xlink:title=" ">
<polygon fill="white" stroke="black" points="505,-113.5 505,-143.5 627,-143.5 627,-113.5 505,-113.5"/>
<text text-anchor="start" x="513" y="-131.5" font-family="Helvetica,sans-Serif" font-size="10.00">bfl::directional_statistics</text>
<text text-anchor="middle" x="566" y="-120.5" font-family="Helvetica,sans-Serif" font-size="10.00">::directional_add</text>
</a>
</g>
</g>
<!-- Node10&#45;&gt;Node11 -->
<g id="edge12" class="edge">
<title>Node10&#45;&gt;Node11</title>
<path fill="none" stroke="midnightblue" d="M467.09,-129.75C476.03,-129.64 485.34,-129.52 494.51,-129.4"/>
<polygon fill="midnightblue" stroke="midnightblue" points="494.82,-132.9 504.78,-129.27 494.73,-125.9 494.82,-132.9"/>
</g>
</g>
</svg>
