<?xml version="1.0" encoding="UTF-8" standalone="no"?>
<!DOCTYPE svg PUBLIC "-//W3C//DTD SVG 1.1//EN"
 "http://www.w3.org/Graphics/SVG/1.1/DTD/svg11.dtd">
<!-- Generated by graphviz version 2.47.2 (0)
 -->
<!-- Title: /home/xenvre/robot&#45;code/bfl_robotology/src/BayesFilters/src/ParticleSet.cpp Pages: 1 -->
<svg width="205pt" height="229pt"
 viewBox="0.00 0.00 204.50 229.00" xmlns="http://www.w3.org/2000/svg" xmlns:xlink="http://www.w3.org/1999/xlink">
<g id="graph0" class="graph" transform="scale(1 1) rotate(0) translate(4 225)">
<title>/home/xenvre/robot&#45;code/bfl_robotology/src/BayesFilters/src/ParticleSet.cpp</title>
<polygon fill="white" stroke="transparent" points="-4,4 -4,-225 200.5,-225 200.5,4 -4,4"/>
<!-- Node1 -->
<g id="node1" class="node">
<title>Node1</title>
<g id="a_node1"><a xlink:title=" ">
<polygon fill="#bfbfbf" stroke="black" points="12,-168.5 12,-220.5 119,-220.5 119,-168.5 12,-168.5"/>
<text text-anchor="start" x="20" y="-208.5" font-family="Helvetica,sans-Serif" font-size="10.00">/home/xenvre/robot</text>
<text text-anchor="start" x="20" y="-197.5" font-family="Helvetica,sans-Serif" font-size="10.00">&#45;code/bfl_robotology</text>
<text text-anchor="start" x="20" y="-186.5" font-family="Helvetica,sans-Serif" font-size="10.00">/src/BayesFilters/src</text>
<text text-anchor="middle" x="65.5" y="-175.5" font-family="Helvetica,sans-Serif" font-size="10.00">/ParticleSet.cpp</text>
</a>
</g>
</g>
<!-- Node2 -->
<g id="node2" class="node">
<title>Node2</title>
<g id="a_node2"><a xlink:href="ParticleSet_8h.html" target="_top" xlink:title=" ">
<polygon fill="white" stroke="black" points="0,-112.5 0,-131.5 131,-131.5 131,-112.5 0,-112.5"/>
<text text-anchor="middle" x="65.5" y="-119.5" font-family="Helvetica,sans-Serif" font-size="10.00">BayesFilters/ParticleSet.h</text>
</a>
</g>
</g>
<!-- Node1&#45;&gt;Node2 -->
<g id="edge1" class="edge">
<title>Node1&#45;&gt;Node2</title>
<path fill="none" stroke="midnightblue" d="M65.5,-168.45C65.5,-159.73 65.5,-150.1 65.5,-141.96"/>
<polygon fill="midnightblue" stroke="midnightblue" points="69,-141.7 65.5,-131.7 62,-141.7 69,-141.7"/>
</g>
<!-- Node3 -->
<g id="node3" class="node">
<title>Node3</title>
<g id="a_node3"><a xlink:href="GaussianMixture_8h.html" target="_top" xlink:title=" ">
<polygon fill="white" stroke="black" points="40.5,-56.5 40.5,-75.5 196.5,-75.5 196.5,-56.5 40.5,-56.5"/>
<text text-anchor="middle" x="118.5" y="-63.5" font-family="Helvetica,sans-Serif" font-size="10.00">BayesFilters/GaussianMixture.h</text>
</a>
</g>
</g>
<!-- Node2&#45;&gt;Node3 -->
<g id="edge2" class="edge">
<title>Node2&#45;&gt;Node3</title>
<path fill="none" stroke="midnightblue" d="M74.25,-112.08C81.97,-104.22 93.4,-92.57 102.72,-83.08"/>
<polygon fill="midnightblue" stroke="midnightblue" points="105.4,-85.34 109.91,-75.75 100.41,-80.44 105.4,-85.34"/>
</g>
<!-- Node4 -->
<g id="node4" class="node">
<title>Node4</title>
<g id="a_node4"><a xlink:title=" ">
<polygon fill="white" stroke="#bfbfbf" points="5.5,-0.5 5.5,-19.5 49.5,-19.5 49.5,-0.5 5.5,-0.5"/>
<text text-anchor="middle" x="27.5" y="-7.5" font-family="Helvetica,sans-Serif" font-size="10.00">vector</text>
</a>
</g>
</g>
<!-- Node2&#45;&gt;Node4 -->
<g id="edge5" class="edge">
<title>Node2&#45;&gt;Node4</title>
<path fill="none" stroke="midnightblue" d="M56.41,-112.32C48.27,-103.9 36.8,-90.33 31.5,-76 26.04,-61.24 25.34,-43.31 25.83,-30.02"/>
<polygon fill="midnightblue" stroke="midnightblue" points="29.34,-29.94 26.48,-19.74 22.36,-29.5 29.34,-29.94"/>
</g>
<!-- Node3&#45;&gt;Node4 -->
<g id="edge3" class="edge">
<title>Node3&#45;&gt;Node4</title>
<path fill="none" stroke="midnightblue" d="M103.88,-56.32C89.55,-47.82 67.49,-34.73 50.75,-24.8"/>
<polygon fill="midnightblue" stroke="midnightblue" points="52.47,-21.75 42.08,-19.65 48.9,-27.77 52.47,-21.75"/>
</g>
<!-- Node5 -->
<g id="node5" class="node">
<title>Node5</title>
<g id="a_node5"><a xlink:title=" ">
<polygon fill="white" stroke="#bfbfbf" points="82,-0.5 82,-19.5 155,-19.5 155,-0.5 82,-0.5"/>
<text text-anchor="middle" x="118.5" y="-7.5" font-family="Helvetica,sans-Serif" font-size="10.00">Eigen/Dense</text>
</a>
</g>
</g>
<!-- Node3&#45;&gt;Node5 -->
<g id="edge4" class="edge">
<title>Node3&#45;&gt;Node5</title>
<path fill="none" stroke="midnightblue" d="M118.5,-56.08C118.5,-49.01 118.5,-38.86 118.5,-29.99"/>
<polygon fill="midnightblue" stroke="midnightblue" points="122,-29.75 118.5,-19.75 115,-29.75 122,-29.75"/>
</g>
</g>
</svg>
