<?xml version="1.0" encoding="UTF-8" standalone="no"?>
<!DOCTYPE svg PUBLIC "-//W3C//DTD SVG 1.1//EN"
 "http://www.w3.org/Graphics/SVG/1.1/DTD/svg11.dtd">
<!-- Generated by graphviz version 2.43.0 (0)
 -->
<!-- Title: /home/user/bayes&#45;filters&#45;lib/src/BayesFilters/include/BayesFilters/ParticleSet.h Pages: 1 -->
<!--zoomable 362 -->
<svg id="main" version="1.1" xmlns="http://www.w3.org/2000/svg" xmlns:xlink="http://www.w3.org/1999/xlink" xml:space="preserve" onload="init(evt)">
<style type="text/css"><![CDATA[
.edge:hover path { stroke: red; }
.edge:hover polygon { stroke: red; fill: red; }
]]></style>
<script type="text/javascript"><![CDATA[
var edges = document.getElementsByTagName('g');
if (edges && edges.length) {
  for (var i=0;i<edges.length;i++) {
    if (edges[i].id.substr(0,4)=='edge') {
      edges[i].setAttribute('class','edge');
    }
  }
}
]]></script>
        <defs>
                <circle id="rim" cx="0" cy="0" r="7"/>
                <circle id="rim2" cx="0" cy="0" r="3.5"/>
                <g id="zoomPlus">
                        <use xlink:href="#rim" fill="#404040">
                                <set attributeName="fill" to="#808080" begin="zoomplus.mouseover" end="zoomplus.mouseout"/>
                        </use>
                        <path d="M-4,0h8M0,-4v8" fill="none" stroke="white" stroke-width="1.5" pointer-events="none"/>
                </g>
                <g id="zoomMin">
                        <use xlink:href="#rim" fill="#404040">
                                <set attributeName="fill" to="#808080" begin="zoomminus.mouseover" end="zoomminus.mouseout"/>
                        </use>
                        <path d="M-4,0h8" fill="none" stroke="white" stroke-width="1.5" pointer-events="none"/>
                </g>
                <g id="dirArrow">
                        <path fill="none" stroke="white" stroke-width="1.5" d="M0,-3.0v7 M-2.5,-0.5L0,-3.0L2.5,-0.5"/>
                </g>
               <g id="resetDef">
                       <use xlink:href="#rim2" fill="#404040">
                               <set attributeName="fill" to="#808080" begin="reset.mouseover" end="reset.mouseout"/>
                       </use>
               </g>
        </defs>

<script type="text/javascript">
var viewWidth = 1954;
var viewHeight = 362;
var sectionId = 'dynsection-1';
</script>
<script xlink:href="svgpan.js"/>
<svg id="graph" class="graph">
<g id="viewport">
<title>/home/user/bayes&#45;filters&#45;lib/src/BayesFilters/include/BayesFilters/ParticleSet.h</title>
<polygon fill="white" stroke="transparent" points="-4,4 -4,-358 1949.5,-358 1949.5,4 -4,4"/>
<!-- Node1 -->
<g id="node1" class="node">
<title>Node1</title>
<g id="a_node1"><a xlink:title=" ">
<polygon fill="#bfbfbf" stroke="black" points="920,-312.5 920,-353.5 1071,-353.5 1071,-312.5 920,-312.5"/>
<text text-anchor="start" x="928" y="-341.5" font-family="Helvetica,sans-Serif" font-size="10.00">/home/user/bayes&#45;filters</text>
<text text-anchor="start" x="928" y="-330.5" font-family="Helvetica,sans-Serif" font-size="10.00">&#45;lib/src/BayesFilters/include</text>
<text text-anchor="middle" x="995.5" y="-319.5" font-family="Helvetica,sans-Serif" font-size="10.00">/BayesFilters/ParticleSet.h</text>
</a>
</g>
</g>
<!-- Node2 -->
<g id="node2" class="node">
<title>Node2</title>
<g id="a_node2"><a xlink:href="BootstrapCorrection_8h.html" target="_top" xlink:title=" ">
<polygon fill="white" stroke="black" points="0,-156.5 0,-197.5 189,-197.5 189,-156.5 0,-156.5"/>
<text text-anchor="start" x="8" y="-185.5" font-family="Helvetica,sans-Serif" font-size="10.00">/home/user/bayes&#45;filters</text>
<text text-anchor="start" x="8" y="-174.5" font-family="Helvetica,sans-Serif" font-size="10.00">&#45;lib/src/BayesFilters/include</text>
<text text-anchor="middle" x="94.5" y="-163.5" font-family="Helvetica,sans-Serif" font-size="10.00">/BayesFilters/BootstrapCorrection.h</text>
</a>
</g>
</g>
<!-- Node1&#45;&gt;Node2 -->
<g id="edge1" class="edge">
<title>Node1&#45;&gt;Node2</title>
<path fill="none" stroke="midnightblue" d="M909.57,-332.15C784.66,-330.67 546.35,-321.4 349.5,-276 270.94,-257.88 184.27,-220.61 134.9,-197.61"/>
<polygon fill="midnightblue" stroke="midnightblue" points="909.8,-335.65 919.83,-332.26 909.87,-328.66 909.8,-335.65"/>
</g>
<!-- Node4 -->
<g id="node4" class="node">
<title>Node4</title>
<g id="a_node4"><a xlink:href="DrawParticles_8h.html" target="_top" xlink:title=" ">
<polygon fill="white" stroke="black" points="577.5,-156.5 577.5,-197.5 735.5,-197.5 735.5,-156.5 577.5,-156.5"/>
<text text-anchor="start" x="585.5" y="-185.5" font-family="Helvetica,sans-Serif" font-size="10.00">/home/user/bayes&#45;filters</text>
<text text-anchor="start" x="585.5" y="-174.5" font-family="Helvetica,sans-Serif" font-size="10.00">&#45;lib/src/BayesFilters/include</text>
<text text-anchor="middle" x="656.5" y="-163.5" font-family="Helvetica,sans-Serif" font-size="10.00">/BayesFilters/DrawParticles.h</text>
</a>
</g>
</g>
<!-- Node1&#45;&gt;Node4 -->
<g id="edge3" class="edge">
<title>Node1&#45;&gt;Node4</title>
<path fill="none" stroke="midnightblue" d="M909.78,-324.91C860.33,-317.88 798.46,-303.88 749.5,-276 715.26,-256.5 685.91,-220.39 669.77,-197.87"/>
<polygon fill="midnightblue" stroke="midnightblue" points="909.43,-328.4 919.81,-326.27 910.37,-321.46 909.43,-328.4"/>
</g>
<!-- Node6 -->
<g id="node6" class="node">
<title>Node6</title>
<g id="a_node6"><a xlink:href="GPFCorrection_8h.html" target="_top" xlink:title=" ">
<polygon fill="white" stroke="black" points="207,-156.5 207,-197.5 368,-197.5 368,-156.5 207,-156.5"/>
<text text-anchor="start" x="215" y="-185.5" font-family="Helvetica,sans-Serif" font-size="10.00">/home/user/bayes&#45;filters</text>
<text text-anchor="start" x="215" y="-174.5" font-family="Helvetica,sans-Serif" font-size="10.00">&#45;lib/src/BayesFilters/include</text>
<text text-anchor="middle" x="287.5" y="-163.5" font-family="Helvetica,sans-Serif" font-size="10.00">/BayesFilters/GPFCorrection.h</text>
</a>
</g>
</g>
<!-- Node1&#45;&gt;Node6 -->
<g id="edge5" class="edge">
<title>Node1&#45;&gt;Node6</title>
<path fill="none" stroke="midnightblue" d="M909.89,-329.02C772.93,-323.35 511.15,-308.55 424.5,-276 377.96,-258.52 332.82,-221.04 307.74,-197.83"/>
<polygon fill="midnightblue" stroke="midnightblue" points="909.8,-332.52 919.93,-329.43 910.08,-325.53 909.8,-332.52"/>
</g>
<!-- Node8 -->
<g id="node8" class="node">
<title>Node8</title>
<g id="a_node8"><a xlink:href="GPFPrediction_8h.html" target="_top" xlink:title=" ">
<polygon fill="white" stroke="black" points="983.5,-156.5 983.5,-197.5 1143.5,-197.5 1143.5,-156.5 983.5,-156.5"/>
<text text-anchor="start" x="991.5" y="-185.5" font-family="Helvetica,sans-Serif" font-size="10.00">/home/user/bayes&#45;filters</text>
<text text-anchor="start" x="991.5" y="-174.5" font-family="Helvetica,sans-Serif" font-size="10.00">&#45;lib/src/BayesFilters/include</text>
<text text-anchor="middle" x="1063.5" y="-163.5" font-family="Helvetica,sans-Serif" font-size="10.00">/BayesFilters/GPFPrediction.h</text>
</a>
</g>
</g>
<!-- Node1&#45;&gt;Node8 -->
<g id="edge7" class="edge">
<title>Node1&#45;&gt;Node8</title>
<path fill="none" stroke="midnightblue" d="M1008.23,-303.17C1021.8,-272.43 1042.93,-224.59 1054.74,-197.83"/>
<polygon fill="midnightblue" stroke="midnightblue" points="1004.95,-301.93 1004.11,-312.5 1011.35,-304.76 1004.95,-301.93"/>
</g>
<!-- Node10 -->
<g id="node10" class="node">
<title>Node10</title>
<g id="a_node10"><a xlink:href="InitSurveillanceAreaGrid_8h.html" target="_top" xlink:title=" ">
<polygon fill="white" stroke="black" points="1735.5,-156.5 1735.5,-197.5 1945.5,-197.5 1945.5,-156.5 1735.5,-156.5"/>
<text text-anchor="start" x="1743.5" y="-185.5" font-family="Helvetica,sans-Serif" font-size="10.00">/home/user/bayes&#45;filters</text>
<text text-anchor="start" x="1743.5" y="-174.5" font-family="Helvetica,sans-Serif" font-size="10.00">&#45;lib/src/BayesFilters/include</text>
<text text-anchor="middle" x="1840.5" y="-163.5" font-family="Helvetica,sans-Serif" font-size="10.00">/BayesFilters/InitSurveillanceAreaGrid.h</text>
</a>
</g>
</g>
<!-- Node1&#45;&gt;Node10 -->
<g id="edge9" class="edge">
<title>Node1&#45;&gt;Node10</title>
<path fill="none" stroke="midnightblue" d="M1081.21,-330.58C1218.57,-327.14 1481.06,-315.46 1564.5,-276 1588.36,-264.71 1583.46,-246.89 1606.5,-234 1629.01,-221.4 1684.26,-207.93 1735.42,-197.35"/>
<polygon fill="midnightblue" stroke="midnightblue" points="1081.05,-327.08 1071.14,-330.82 1081.22,-334.08 1081.05,-327.08"/>
</g>
<!-- Node12 -->
<g id="node12" class="node">
<title>Node12</title>
<g id="a_node12"><a xlink:href="ParticleSetInitialization_8h.html" target="_top" xlink:title=" ">
<polygon fill="white" stroke="black" points="1317.5,-234.5 1317.5,-275.5 1521.5,-275.5 1521.5,-234.5 1317.5,-234.5"/>
<text text-anchor="start" x="1325.5" y="-263.5" font-family="Helvetica,sans-Serif" font-size="10.00">/home/user/bayes&#45;filters</text>
<text text-anchor="start" x="1325.5" y="-252.5" font-family="Helvetica,sans-Serif" font-size="10.00">&#45;lib/src/BayesFilters/include</text>
<text text-anchor="middle" x="1419.5" y="-241.5" font-family="Helvetica,sans-Serif" font-size="10.00">/BayesFilters/ParticleSetInitialization.h</text>
</a>
</g>
</g>
<!-- Node1&#45;&gt;Node12 -->
<g id="edge11" class="edge">
<title>Node1&#45;&gt;Node12</title>
<path fill="none" stroke="midnightblue" d="M1081.16,-316.65C1149.37,-304.42 1245.05,-287.27 1317.27,-274.32"/>
<polygon fill="midnightblue" stroke="midnightblue" points="1080.53,-313.2 1071.3,-318.41 1081.76,-320.09 1080.53,-313.2"/>
</g>
<!-- Node14 -->
<g id="node14" class="node">
<title>Node14</title>
<g id="a_node14"><a xlink:href="SIS_8h.html" target="_top" xlink:title=" ">
<polygon fill="white" stroke="black" points="734,-78.5 734,-119.5 885,-119.5 885,-78.5 734,-78.5"/>
<text text-anchor="start" x="742" y="-107.5" font-family="Helvetica,sans-Serif" font-size="10.00">/home/user/bayes&#45;filters</text>
<text text-anchor="start" x="742" y="-96.5" font-family="Helvetica,sans-Serif" font-size="10.00">&#45;lib/src/BayesFilters/include</text>
<text text-anchor="middle" x="809.5" y="-85.5" font-family="Helvetica,sans-Serif" font-size="10.00">/BayesFilters/SIS.h</text>
</a>
</g>
</g>
<!-- Node1&#45;&gt;Node14 -->
<g id="edge37" class="edge">
<title>Node1&#45;&gt;Node14</title>
<path fill="none" stroke="midnightblue" d="M910.03,-319.93C880.52,-311.87 849.41,-298.42 827.5,-276 786.29,-233.82 796.77,-155.91 804.59,-119.59"/>
<polygon fill="midnightblue" stroke="midnightblue" points="909.4,-323.38 919.96,-322.46 911.13,-316.6 909.4,-323.38"/>
</g>
<!-- Node17 -->
<g id="node17" class="node">
<title>Node17</title>
<g id="a_node17"><a xlink:href="ResamplingWithPrior_8h.html" target="_top" xlink:title=" ">
<polygon fill="white" stroke="black" points="1523.5,-156.5 1523.5,-197.5 1717.5,-197.5 1717.5,-156.5 1523.5,-156.5"/>
<text text-anchor="start" x="1531.5" y="-185.5" font-family="Helvetica,sans-Serif" font-size="10.00">/home/user/bayes&#45;filters</text>
<text text-anchor="start" x="1531.5" y="-174.5" font-family="Helvetica,sans-Serif" font-size="10.00">&#45;lib/src/BayesFilters/include</text>
<text text-anchor="middle" x="1620.5" y="-163.5" font-family="Helvetica,sans-Serif" font-size="10.00">/BayesFilters/ResamplingWithPrior.h</text>
</a>
</g>
</g>
<!-- Node1&#45;&gt;Node17 -->
<g id="edge36" class="edge">
<title>Node1&#45;&gt;Node17</title>
<path fill="none" stroke="midnightblue" d="M1081.44,-330.34C1212.18,-326.59 1453.94,-314.51 1530.5,-276 1539.79,-271.33 1580.51,-224.78 1603.87,-197.55"/>
<polygon fill="midnightblue" stroke="midnightblue" points="1080.97,-326.85 1071.07,-330.62 1081.16,-333.85 1080.97,-326.85"/>
</g>
<!-- Node19 -->
<g id="node19" class="node">
<title>Node19</title>
<g id="a_node19"><a xlink:href="PFCorrection_8h.html" target="_top" xlink:title=" ">
<polygon fill="white" stroke="black" points="433.5,-234.5 433.5,-275.5 587.5,-275.5 587.5,-234.5 433.5,-234.5"/>
<text text-anchor="start" x="441.5" y="-263.5" font-family="Helvetica,sans-Serif" font-size="10.00">/home/user/bayes&#45;filters</text>
<text text-anchor="start" x="441.5" y="-252.5" font-family="Helvetica,sans-Serif" font-size="10.00">&#45;lib/src/BayesFilters/include</text>
<text text-anchor="middle" x="510.5" y="-241.5" font-family="Helvetica,sans-Serif" font-size="10.00">/BayesFilters/PFCorrection.h</text>
</a>
</g>
</g>
<!-- Node1&#45;&gt;Node19 -->
<g id="edge19" class="edge">
<title>Node1&#45;&gt;Node19</title>
<path fill="none" stroke="midnightblue" d="M909.96,-318.6C818.79,-304.31 675.74,-281.89 587.84,-268.12"/>
<polygon fill="midnightblue" stroke="midnightblue" points="909.56,-322.08 919.98,-320.17 910.65,-315.16 909.56,-322.08"/>
</g>
<!-- Node21 -->
<g id="node21" class="node">
<title>Node21</title>
<g id="a_node21"><a xlink:href="PFPrediction_8h.html" target="_top" xlink:title=" ">
<polygon fill="white" stroke="black" points="836.5,-234.5 836.5,-275.5 988.5,-275.5 988.5,-234.5 836.5,-234.5"/>
<text text-anchor="start" x="844.5" y="-263.5" font-family="Helvetica,sans-Serif" font-size="10.00">/home/user/bayes&#45;filters</text>
<text text-anchor="start" x="844.5" y="-252.5" font-family="Helvetica,sans-Serif" font-size="10.00">&#45;lib/src/BayesFilters/include</text>
<text text-anchor="middle" x="912.5" y="-241.5" font-family="Helvetica,sans-Serif" font-size="10.00">/BayesFilters/PFPrediction.h</text>
</a>
</g>
</g>
<!-- Node1&#45;&gt;Node21 -->
<g id="edge25" class="edge">
<title>Node1&#45;&gt;Node21</title>
<path fill="none" stroke="midnightblue" d="M966.55,-305.49C955.78,-295.63 943.76,-284.63 933.8,-275.51"/>
<polygon fill="midnightblue" stroke="midnightblue" points="964.39,-308.26 974.13,-312.43 969.11,-303.09 964.39,-308.26"/>
</g>
<!-- Node23 -->
<g id="node23" class="node">
<title>Node23</title>
<g id="a_node23"><a xlink:href="Resampling_8h.html" target="_top" xlink:title=" ">
<polygon fill="white" stroke="black" points="1148,-234.5 1148,-275.5 1299,-275.5 1299,-234.5 1148,-234.5"/>
<text text-anchor="start" x="1156" y="-263.5" font-family="Helvetica,sans-Serif" font-size="10.00">/home/user/bayes&#45;filters</text>
<text text-anchor="start" x="1156" y="-252.5" font-family="Helvetica,sans-Serif" font-size="10.00">&#45;lib/src/BayesFilters/include</text>
<text text-anchor="middle" x="1223.5" y="-241.5" font-family="Helvetica,sans-Serif" font-size="10.00">/BayesFilters/Resampling.h</text>
</a>
</g>
</g>
<!-- Node1&#45;&gt;Node23 -->
<g id="edge31" class="edge">
<title>Node1&#45;&gt;Node23</title>
<path fill="none" stroke="midnightblue" d="M1064,-309.17C1096.19,-298.44 1134.16,-285.78 1164.98,-275.51"/>
<polygon fill="midnightblue" stroke="midnightblue" points="1062.6,-305.95 1054.22,-312.43 1064.81,-312.59 1062.6,-305.95"/>
</g>
<!-- Node25 -->
<g id="node25" class="node">
<title>Node25</title>
<g id="a_node25"><a xlink:href="ParticleSet_8cpp.html" target="_top" xlink:title=" ">
<polygon fill="white" stroke="black" points="1616,-234.5 1616,-275.5 1751,-275.5 1751,-234.5 1616,-234.5"/>
<text text-anchor="start" x="1624" y="-263.5" font-family="Helvetica,sans-Serif" font-size="10.00">/home/user/bayes&#45;filters</text>
<text text-anchor="start" x="1624" y="-252.5" font-family="Helvetica,sans-Serif" font-size="10.00">&#45;lib/src/BayesFilters/src</text>
<text text-anchor="middle" x="1683.5" y="-241.5" font-family="Helvetica,sans-Serif" font-size="10.00">/ParticleSet.cpp</text>
</a>
</g>
</g>
<!-- Node1&#45;&gt;Node25 -->
<g id="edge38" class="edge">
<title>Node1&#45;&gt;Node25</title>
<path fill="none" stroke="midnightblue" d="M1081.11,-328.06C1198.95,-321.74 1417.46,-306.78 1601.5,-276 1606.12,-275.23 1610.87,-274.33 1615.65,-273.36"/>
<polygon fill="midnightblue" stroke="midnightblue" points="1080.87,-324.57 1071.06,-328.59 1081.24,-331.56 1080.87,-324.57"/>
</g>
<!-- Node3 -->
<g id="node3" class="node">
<title>Node3</title>
<g id="a_node3"><a xlink:href="BootstrapCorrection_8cpp.html" target="_top" xlink:title=" ">
<polygon fill="white" stroke="black" points="26,-78.5 26,-119.5 163,-119.5 163,-78.5 26,-78.5"/>
<text text-anchor="start" x="34" y="-107.5" font-family="Helvetica,sans-Serif" font-size="10.00">/home/user/bayes&#45;filters</text>
<text text-anchor="start" x="34" y="-96.5" font-family="Helvetica,sans-Serif" font-size="10.00">&#45;lib/src/BayesFilters/src</text>
<text text-anchor="middle" x="94.5" y="-85.5" font-family="Helvetica,sans-Serif" font-size="10.00">/BootstrapCorrection.cpp</text>
</a>
</g>
</g>
<!-- Node2&#45;&gt;Node3 -->
<g id="edge2" class="edge">
<title>Node2&#45;&gt;Node3</title>
<path fill="none" stroke="midnightblue" d="M94.5,-146.3C94.5,-137.3 94.5,-127.65 94.5,-119.51"/>
<polygon fill="midnightblue" stroke="midnightblue" points="91,-146.43 94.5,-156.43 98,-146.43 91,-146.43"/>
</g>
<!-- Node5 -->
<g id="node5" class="node">
<title>Node5</title>
<g id="a_node5"><a xlink:href="DrawParticles_8cpp.html" target="_top" xlink:title=" ">
<polygon fill="white" stroke="black" points="581,-78.5 581,-119.5 716,-119.5 716,-78.5 581,-78.5"/>
<text text-anchor="start" x="589" y="-107.5" font-family="Helvetica,sans-Serif" font-size="10.00">/home/user/bayes&#45;filters</text>
<text text-anchor="start" x="589" y="-96.5" font-family="Helvetica,sans-Serif" font-size="10.00">&#45;lib/src/BayesFilters/src</text>
<text text-anchor="middle" x="648.5" y="-85.5" font-family="Helvetica,sans-Serif" font-size="10.00">/DrawParticles.cpp</text>
</a>
</g>
</g>
<!-- Node4&#45;&gt;Node5 -->
<g id="edge4" class="edge">
<title>Node4&#45;&gt;Node5</title>
<path fill="none" stroke="midnightblue" d="M653.37,-146.3C652.43,-137.3 651.41,-127.65 650.55,-119.51"/>
<polygon fill="midnightblue" stroke="midnightblue" points="649.91,-146.85 654.44,-156.43 656.87,-146.12 649.91,-146.85"/>
</g>
<!-- Node7 -->
<g id="node7" class="node">
<title>Node7</title>
<g id="a_node7"><a xlink:href="GPFCorrection_8cpp.html" target="_top" xlink:title=" ">
<polygon fill="white" stroke="black" points="220,-78.5 220,-119.5 355,-119.5 355,-78.5 220,-78.5"/>
<text text-anchor="start" x="228" y="-107.5" font-family="Helvetica,sans-Serif" font-size="10.00">/home/user/bayes&#45;filters</text>
<text text-anchor="start" x="228" y="-96.5" font-family="Helvetica,sans-Serif" font-size="10.00">&#45;lib/src/BayesFilters/src</text>
<text text-anchor="middle" x="287.5" y="-85.5" font-family="Helvetica,sans-Serif" font-size="10.00">/GPFCorrection.cpp</text>
</a>
</g>
</g>
<!-- Node6&#45;&gt;Node7 -->
<g id="edge6" class="edge">
<title>Node6&#45;&gt;Node7</title>
<path fill="none" stroke="midnightblue" d="M287.5,-146.3C287.5,-137.3 287.5,-127.65 287.5,-119.51"/>
<polygon fill="midnightblue" stroke="midnightblue" points="284,-146.43 287.5,-156.43 291,-146.43 284,-146.43"/>
</g>
<!-- Node9 -->
<g id="node9" class="node">
<title>Node9</title>
<g id="a_node9"><a xlink:href="GPFPrediction_8cpp.html" target="_top" xlink:title=" ">
<polygon fill="white" stroke="black" points="996,-78.5 996,-119.5 1131,-119.5 1131,-78.5 996,-78.5"/>
<text text-anchor="start" x="1004" y="-107.5" font-family="Helvetica,sans-Serif" font-size="10.00">/home/user/bayes&#45;filters</text>
<text text-anchor="start" x="1004" y="-96.5" font-family="Helvetica,sans-Serif" font-size="10.00">&#45;lib/src/BayesFilters/src</text>
<text text-anchor="middle" x="1063.5" y="-85.5" font-family="Helvetica,sans-Serif" font-size="10.00">/GPFPrediction.cpp</text>
</a>
</g>
</g>
<!-- Node8&#45;&gt;Node9 -->
<g id="edge8" class="edge">
<title>Node8&#45;&gt;Node9</title>
<path fill="none" stroke="midnightblue" d="M1063.5,-146.3C1063.5,-137.3 1063.5,-127.65 1063.5,-119.51"/>
<polygon fill="midnightblue" stroke="midnightblue" points="1060,-146.43 1063.5,-156.43 1067,-146.43 1060,-146.43"/>
</g>
<!-- Node11 -->
<g id="node11" class="node">
<title>Node11</title>
<g id="a_node11"><a xlink:href="InitSurveillanceAreaGrid_8cpp.html" target="_top" xlink:title=" ">
<polygon fill="white" stroke="black" points="1761.5,-78.5 1761.5,-119.5 1919.5,-119.5 1919.5,-78.5 1761.5,-78.5"/>
<text text-anchor="start" x="1769.5" y="-107.5" font-family="Helvetica,sans-Serif" font-size="10.00">/home/user/bayes&#45;filters</text>
<text text-anchor="start" x="1769.5" y="-96.5" font-family="Helvetica,sans-Serif" font-size="10.00">&#45;lib/src/BayesFilters/src</text>
<text text-anchor="middle" x="1840.5" y="-85.5" font-family="Helvetica,sans-Serif" font-size="10.00">/InitSurveillanceAreaGrid.cpp</text>
</a>
</g>
</g>
<!-- Node10&#45;&gt;Node11 -->
<g id="edge10" class="edge">
<title>Node10&#45;&gt;Node11</title>
<path fill="none" stroke="midnightblue" d="M1840.5,-146.3C1840.5,-137.3 1840.5,-127.65 1840.5,-119.51"/>
<polygon fill="midnightblue" stroke="midnightblue" points="1837,-146.43 1840.5,-156.43 1844,-146.43 1837,-146.43"/>
</g>
<!-- Node12&#45;&gt;Node10 -->
<g id="edge12" class="edge">
<title>Node12&#45;&gt;Node10</title>
<path fill="none" stroke="midnightblue" d="M1531.68,-233.75C1594.85,-222.34 1673.26,-208.19 1735.26,-197"/>
<polygon fill="midnightblue" stroke="midnightblue" points="1530.9,-230.33 1521.68,-235.55 1532.14,-237.22 1530.9,-230.33"/>
</g>
<!-- Node13 -->
<g id="node13" class="node">
<title>Node13</title>
<g id="a_node13"><a xlink:href="ParticleFilter_8h.html" target="_top" xlink:title=" ">
<polygon fill="white" stroke="black" points="1199.5,-156.5 1199.5,-197.5 1351.5,-197.5 1351.5,-156.5 1199.5,-156.5"/>
<text text-anchor="start" x="1207.5" y="-185.5" font-family="Helvetica,sans-Serif" font-size="10.00">/home/user/bayes&#45;filters</text>
<text text-anchor="start" x="1207.5" y="-174.5" font-family="Helvetica,sans-Serif" font-size="10.00">&#45;lib/src/BayesFilters/include</text>
<text text-anchor="middle" x="1275.5" y="-163.5" font-family="Helvetica,sans-Serif" font-size="10.00">/BayesFilters/ParticleFilter.h</text>
</a>
</g>
</g>
<!-- Node12&#45;&gt;Node13 -->
<g id="edge13" class="edge">
<title>Node12&#45;&gt;Node13</title>
<path fill="none" stroke="midnightblue" d="M1373.32,-229.63C1353.64,-219.24 1331,-207.29 1312.46,-197.51"/>
<polygon fill="midnightblue" stroke="midnightblue" points="1371.94,-232.86 1382.42,-234.43 1375.21,-226.67 1371.94,-232.86"/>
</g>
<!-- Node12&#45;&gt;Node17 -->
<g id="edge17" class="edge">
<title>Node12&#45;&gt;Node17</title>
<path fill="none" stroke="midnightblue" d="M1480.63,-230.89C1508.84,-220.22 1541.98,-207.69 1568.91,-197.51"/>
<polygon fill="midnightblue" stroke="midnightblue" points="1479.38,-227.62 1471.26,-234.43 1481.85,-234.17 1479.38,-227.62"/>
</g>
<!-- Node13&#45;&gt;Node14 -->
<g id="edge14" class="edge">
<title>Node13&#45;&gt;Node14</title>
<path fill="none" stroke="midnightblue" d="M1189.38,-156.73C1188.08,-156.48 1186.78,-156.24 1185.5,-156 1081.83,-136.79 961.13,-119.75 885.02,-109.65"/>
<polygon fill="midnightblue" stroke="midnightblue" points="1188.98,-160.22 1199.47,-158.71 1190.33,-153.35 1188.98,-160.22"/>
</g>
<!-- Node16 -->
<g id="node16" class="node">
<title>Node16</title>
<g id="a_node16"><a xlink:href="ParticleFilter_8cpp.html" target="_top" xlink:title=" ">
<polygon fill="white" stroke="black" points="1208,-78.5 1208,-119.5 1343,-119.5 1343,-78.5 1208,-78.5"/>
<text text-anchor="start" x="1216" y="-107.5" font-family="Helvetica,sans-Serif" font-size="10.00">/home/user/bayes&#45;filters</text>
<text text-anchor="start" x="1216" y="-96.5" font-family="Helvetica,sans-Serif" font-size="10.00">&#45;lib/src/BayesFilters/src</text>
<text text-anchor="middle" x="1275.5" y="-85.5" font-family="Helvetica,sans-Serif" font-size="10.00">/ParticleFilter.cpp</text>
</a>
</g>
</g>
<!-- Node13&#45;&gt;Node16 -->
<g id="edge16" class="edge">
<title>Node13&#45;&gt;Node16</title>
<path fill="none" stroke="midnightblue" d="M1275.5,-146.3C1275.5,-137.3 1275.5,-127.65 1275.5,-119.51"/>
<polygon fill="midnightblue" stroke="midnightblue" points="1272,-146.43 1275.5,-156.43 1279,-146.43 1272,-146.43"/>
</g>
<!-- Node15 -->
<g id="node15" class="node">
<title>Node15</title>
<g id="a_node15"><a xlink:href="SIS_8cpp.html" target="_top" xlink:title=" ">
<polygon fill="white" stroke="black" points="742,-0.5 742,-41.5 877,-41.5 877,-0.5 742,-0.5"/>
<text text-anchor="start" x="750" y="-29.5" font-family="Helvetica,sans-Serif" font-size="10.00">/home/user/bayes&#45;filters</text>
<text text-anchor="start" x="750" y="-18.5" font-family="Helvetica,sans-Serif" font-size="10.00">&#45;lib/src/BayesFilters/src</text>
<text text-anchor="middle" x="809.5" y="-7.5" font-family="Helvetica,sans-Serif" font-size="10.00">/SIS.cpp</text>
</a>
</g>
</g>
<!-- Node14&#45;&gt;Node15 -->
<g id="edge15" class="edge">
<title>Node14&#45;&gt;Node15</title>
<path fill="none" stroke="midnightblue" d="M809.5,-68.3C809.5,-59.3 809.5,-49.65 809.5,-41.51"/>
<polygon fill="midnightblue" stroke="midnightblue" points="806,-68.43 809.5,-78.43 813,-68.43 806,-68.43"/>
</g>
<!-- Node18 -->
<g id="node18" class="node">
<title>Node18</title>
<g id="a_node18"><a xlink:href="ResamplingWithPrior_8cpp.html" target="_top" xlink:title=" ">
<polygon fill="white" stroke="black" points="1549.5,-78.5 1549.5,-119.5 1691.5,-119.5 1691.5,-78.5 1549.5,-78.5"/>
<text text-anchor="start" x="1557.5" y="-107.5" font-family="Helvetica,sans-Serif" font-size="10.00">/home/user/bayes&#45;filters</text>
<text text-anchor="start" x="1557.5" y="-96.5" font-family="Helvetica,sans-Serif" font-size="10.00">&#45;lib/src/BayesFilters/src</text>
<text text-anchor="middle" x="1620.5" y="-85.5" font-family="Helvetica,sans-Serif" font-size="10.00">/ResamplingWithPrior.cpp</text>
</a>
</g>
</g>
<!-- Node17&#45;&gt;Node18 -->
<g id="edge18" class="edge">
<title>Node17&#45;&gt;Node18</title>
<path fill="none" stroke="midnightblue" d="M1620.5,-146.3C1620.5,-137.3 1620.5,-127.65 1620.5,-119.51"/>
<polygon fill="midnightblue" stroke="midnightblue" points="1617,-146.43 1620.5,-156.43 1624,-146.43 1617,-146.43"/>
</g>
<!-- Node19&#45;&gt;Node2 -->
<g id="edge20" class="edge">
<title>Node19&#45;&gt;Node2</title>
<path fill="none" stroke="midnightblue" d="M423.39,-238.77C360.56,-227.7 273.74,-212.22 197.5,-198 194.72,-197.48 191.91,-196.95 189.06,-196.42"/>
<polygon fill="midnightblue" stroke="midnightblue" points="422.81,-242.22 433.26,-240.51 424.02,-235.33 422.81,-242.22"/>
</g>
<!-- Node19&#45;&gt;Node6 -->
<g id="edge21" class="edge">
<title>Node19&#45;&gt;Node6</title>
<path fill="none" stroke="midnightblue" d="M443.5,-231.17C412.02,-220.44 374.88,-207.78 344.73,-197.51"/>
<polygon fill="midnightblue" stroke="midnightblue" points="442.48,-234.52 453.07,-234.43 444.74,-227.89 442.48,-234.52"/>
</g>
<!-- Node19&#45;&gt;Node13 -->
<g id="edge22" class="edge">
<title>Node19&#45;&gt;Node13</title>
<path fill="none" stroke="midnightblue" d="M597.95,-248.44C721.71,-240.09 954.89,-222.65 1152.5,-198 1167.64,-196.11 1183.76,-193.75 1199.19,-191.31"/>
<polygon fill="midnightblue" stroke="midnightblue" points="597.52,-244.96 587.78,-249.12 597.99,-251.94 597.52,-244.96"/>
</g>
<!-- Node19&#45;&gt;Node14 -->
<g id="edge23" class="edge">
<title>Node19&#45;&gt;Node14</title>
<path fill="none" stroke="midnightblue" d="M520.58,-224.57C529.68,-202.4 545.25,-173.01 568.5,-156 625.93,-113.99 655.2,-136.15 724.5,-120 727.6,-119.28 730.76,-118.54 733.96,-117.79"/>
<polygon fill="midnightblue" stroke="midnightblue" points="517.2,-223.58 516.85,-234.17 523.73,-226.12 517.2,-223.58"/>
</g>
<!-- Node20 -->
<g id="node20" class="node">
<title>Node20</title>
<g id="a_node20"><a xlink:href="PFCorrection_8cpp.html" target="_top" xlink:title=" ">
<polygon fill="white" stroke="black" points="386,-156.5 386,-197.5 521,-197.5 521,-156.5 386,-156.5"/>
<text text-anchor="start" x="394" y="-185.5" font-family="Helvetica,sans-Serif" font-size="10.00">/home/user/bayes&#45;filters</text>
<text text-anchor="start" x="394" y="-174.5" font-family="Helvetica,sans-Serif" font-size="10.00">&#45;lib/src/BayesFilters/src</text>
<text text-anchor="middle" x="453.5" y="-163.5" font-family="Helvetica,sans-Serif" font-size="10.00">/PFCorrection.cpp</text>
</a>
</g>
</g>
<!-- Node19&#45;&gt;Node20 -->
<g id="edge24" class="edge">
<title>Node19&#45;&gt;Node20</title>
<path fill="none" stroke="midnightblue" d="M489.75,-226.34C482.58,-216.78 474.7,-206.27 468.13,-197.51"/>
<polygon fill="midnightblue" stroke="midnightblue" points="487.02,-228.53 495.82,-234.43 492.62,-224.33 487.02,-228.53"/>
</g>
<!-- Node21&#45;&gt;Node4 -->
<g id="edge26" class="edge">
<title>Node21&#45;&gt;Node4</title>
<path fill="none" stroke="midnightblue" d="M836.98,-231.58C800.55,-220.76 757.25,-207.91 722.2,-197.51"/>
<polygon fill="midnightblue" stroke="midnightblue" points="835.99,-234.94 846.57,-234.43 837.98,-228.23 835.99,-234.94"/>
</g>
<!-- Node21&#45;&gt;Node8 -->
<g id="edge27" class="edge">
<title>Node21&#45;&gt;Node8</title>
<path fill="none" stroke="midnightblue" d="M960.37,-229.91C981.13,-219.46 1005.13,-207.38 1024.75,-197.51"/>
<polygon fill="midnightblue" stroke="midnightblue" points="958.75,-226.81 951.39,-234.43 961.89,-233.06 958.75,-226.81"/>
</g>
<!-- Node21&#45;&gt;Node13 -->
<g id="edge28" class="edge">
<title>Node21&#45;&gt;Node13</title>
<path fill="none" stroke="midnightblue" d="M998.58,-235.98C1059.54,-223.22 1140.55,-206.25 1199.19,-193.98"/>
<polygon fill="midnightblue" stroke="midnightblue" points="997.67,-232.59 988.6,-238.07 999.1,-239.44 997.67,-232.59"/>
</g>
<!-- Node21&#45;&gt;Node14 -->
<g id="edge29" class="edge">
<title>Node21&#45;&gt;Node14</title>
<path fill="none" stroke="midnightblue" d="M853.45,-229C840.68,-220.92 828.59,-210.68 820.5,-198 805.4,-174.33 805.13,-140.77 806.89,-119.7"/>
<polygon fill="midnightblue" stroke="midnightblue" points="851.98,-232.19 862.37,-234.26 855.53,-226.16 851.98,-232.19"/>
</g>
<!-- Node22 -->
<g id="node22" class="node">
<title>Node22</title>
<g id="a_node22"><a xlink:href="PFPrediction_8cpp.html" target="_top" xlink:title=" ">
<polygon fill="white" stroke="black" points="830,-156.5 830,-197.5 965,-197.5 965,-156.5 830,-156.5"/>
<text text-anchor="start" x="838" y="-185.5" font-family="Helvetica,sans-Serif" font-size="10.00">/home/user/bayes&#45;filters</text>
<text text-anchor="start" x="838" y="-174.5" font-family="Helvetica,sans-Serif" font-size="10.00">&#45;lib/src/BayesFilters/src</text>
<text text-anchor="middle" x="897.5" y="-163.5" font-family="Helvetica,sans-Serif" font-size="10.00">/PFPrediction.cpp</text>
</a>
</g>
</g>
<!-- Node21&#45;&gt;Node22 -->
<g id="edge30" class="edge">
<title>Node21&#45;&gt;Node22</title>
<path fill="none" stroke="midnightblue" d="M906.7,-224.59C904.9,-215.51 902.98,-205.74 901.35,-197.51"/>
<polygon fill="midnightblue" stroke="midnightblue" points="903.27,-225.3 908.64,-234.43 910.13,-223.94 903.27,-225.3"/>
</g>
<!-- Node23&#45;&gt;Node13 -->
<g id="edge32" class="edge">
<title>Node23&#45;&gt;Node13</title>
<path fill="none" stroke="midnightblue" d="M1242.63,-226.05C1249.11,-216.57 1256.22,-206.18 1262.15,-197.51"/>
<polygon fill="midnightblue" stroke="midnightblue" points="1239.65,-224.2 1236.89,-234.43 1245.43,-228.15 1239.65,-224.2"/>
</g>
<!-- Node23&#45;&gt;Node14 -->
<g id="edge34" class="edge">
<title>Node23&#45;&gt;Node14</title>
<path fill="none" stroke="midnightblue" d="M1206.29,-225.47C1190.19,-199.75 1166.58,-164.68 1152.5,-156 1130.13,-142.2 979.3,-121.24 885.25,-109.26"/>
<polygon fill="midnightblue" stroke="midnightblue" points="1203.4,-227.45 1211.64,-234.11 1209.36,-223.77 1203.4,-227.45"/>
</g>
<!-- Node23&#45;&gt;Node17 -->
<g id="edge33" class="edge">
<title>Node23&#45;&gt;Node17</title>
<path fill="none" stroke="midnightblue" d="M1309.41,-233.87C1400.79,-215.32 1425.59,-213.93 1513.5,-198 1516.75,-197.41 1520.06,-196.81 1523.41,-196.2"/>
<polygon fill="midnightblue" stroke="midnightblue" points="1308.55,-230.47 1299.45,-235.9 1309.95,-237.33 1308.55,-230.47"/>
</g>
<!-- Node24 -->
<g id="node24" class="node">
<title>Node24</title>
<g id="a_node24"><a xlink:href="Resampling_8cpp.html" target="_top" xlink:title=" ">
<polygon fill="white" stroke="black" points="1370,-156.5 1370,-197.5 1505,-197.5 1505,-156.5 1370,-156.5"/>
<text text-anchor="start" x="1378" y="-185.5" font-family="Helvetica,sans-Serif" font-size="10.00">/home/user/bayes&#45;filters</text>
<text text-anchor="start" x="1378" y="-174.5" font-family="Helvetica,sans-Serif" font-size="10.00">&#45;lib/src/BayesFilters/src</text>
<text text-anchor="middle" x="1437.5" y="-163.5" font-family="Helvetica,sans-Serif" font-size="10.00">/Resampling.cpp</text>
</a>
</g>
</g>
<!-- Node23&#45;&gt;Node24 -->
<g id="edge35" class="edge">
<title>Node23&#45;&gt;Node24</title>
<path fill="none" stroke="midnightblue" d="M1288.19,-231.03C1318.31,-220.33 1353.77,-207.73 1382.58,-197.51"/>
<polygon fill="midnightblue" stroke="midnightblue" points="1286.86,-227.78 1278.61,-234.43 1289.21,-234.38 1286.86,-227.78"/>
</g>
</g>
</svg>
        <g id="navigator" transform="translate(0 0)" fill="#404254">
                <rect fill="#f2f5e9" fill-opacity="0.5" stroke="#606060" stroke-width=".5" x="0" y="0" width="60" height="60"/>
                <use id="zoomplus" xlink:href="#zoomPlus" x="17" y="9" onmousedown="handleZoom(evt,'in')"/>
                <use id="zoomminus" xlink:href="#zoomMin" x="42" y="9" onmousedown="handleZoom(evt,'out')"/>
                <use id="reset" xlink:href="#resetDef" x="30" y="36" onmousedown="handleReset()"/>
                <g id="arrowUp" xlink:href="#dirArrow" transform="translate(30 24)" onmousedown="handlePan(0,-1)">
                  <use xlink:href="#rim" fill="#404040">
                        <set attributeName="fill" to="#808080" begin="arrowUp.mouseover" end="arrowUp.mouseout"/>
                  </use>
                  <path fill="none" stroke="white" stroke-width="1.5" d="M0,-3.0v7 M-2.5,-0.5L0,-3.0L2.5,-0.5"/>
                </g>
                <g id="arrowRight" xlink:href="#dirArrow" transform="rotate(90) translate(36 -43)" onmousedown="handlePan(1,0)">
                  <use xlink:href="#rim" fill="#404040">
                        <set attributeName="fill" to="#808080" begin="arrowRight.mouseover" end="arrowRight.mouseout"/>
                  </use>
                  <path fill="none" stroke="white" stroke-width="1.5" d="M0,-3.0v7 M-2.5,-0.5L0,-3.0L2.5,-0.5"/>
                </g>
                <g id="arrowDown" xlink:href="#dirArrow" transform="rotate(180) translate(-30 -48)" onmousedown="handlePan(0,1)">
                  <use xlink:href="#rim" fill="#404040">
                        <set attributeName="fill" to="#808080" begin="arrowDown.mouseover" end="arrowDown.mouseout"/>
                  </use>
                  <path fill="none" stroke="white" stroke-width="1.5" d="M0,-3.0v7 M-2.5,-0.5L0,-3.0L2.5,-0.5"/>
                </g>
                <g id="arrowLeft" xlink:href="#dirArrow" transform="rotate(270) translate(-36 17)" onmousedown="handlePan(-1,0)">
                  <use xlink:href="#rim" fill="#404040">
                        <set attributeName="fill" to="#808080" begin="arrowLeft.mouseover" end="arrowLeft.mouseout"/>
                  </use>
                  <path fill="none" stroke="white" stroke-width="1.5" d="M0,-3.0v7 M-2.5,-0.5L0,-3.0L2.5,-0.5"/>
                </g>
        </g>
        <svg viewBox="0 0 15 15" width="100%" height="30px" preserveAspectRatio="xMaxYMin meet">
         <g id="arrow_out" transform="scale(0.3 0.3)">
          <a xlink:href="ParticleSet_8h__dep__incl_org.svg" target="_base">
           <rect id="button" ry="5" rx="5" y="6" x="6" height="38" width="38"
                fill="#f2f5e9" fill-opacity="0.5" stroke="#606060" stroke-width="1.0"/>
           <path id="arrow"
             d="M 11.500037,31.436501 C 11.940474,20.09759 22.043105,11.32322 32.158766,21.979434 L 37.068811,17.246167 C 37.068811,17.246167 37.088388,32 37.088388,32 L 22.160133,31.978069 C 22.160133,31.978069 26.997745,27.140456 26.997745,27.140456 C 18.528582,18.264221 13.291696,25.230495 11.500037,31.436501 z"
             style="fill:#404040;"/>
          </a>
         </g>
        </svg>
</svg>
