<?xml version="1.0" encoding="UTF-8" standalone="no"?>
<!DOCTYPE svg PUBLIC "-//W3C//DTD SVG 1.1//EN"
 "http://www.w3.org/Graphics/SVG/1.1/DTD/svg11.dtd">
<!-- Generated by graphviz version 2.47.2 (0)
 -->
<!-- Title: /home/xenvre/robot&#45;code/bfl_robotology/src/BayesFilters/src/ParticleFilter.cpp Pages: 1 -->
<svg width="1723pt" height="531pt"
 viewBox="0.00 0.00 1723.00 531.00" xmlns="http://www.w3.org/2000/svg" xmlns:xlink="http://www.w3.org/1999/xlink">
<g id="graph0" class="graph" transform="scale(1 1) rotate(0) translate(4 527)">
<title>/home/xenvre/robot&#45;code/bfl_robotology/src/BayesFilters/src/ParticleFilter.cpp</title>
<polygon fill="white" stroke="transparent" points="-4,4 -4,-527 1719,-527 1719,4 -4,4"/>
<!-- Node1 -->
<g id="node1" class="node">
<title>Node1</title>
<g id="a_node1"><a xlink:title=" ">
<polygon fill="#bfbfbf" stroke="black" points="1301.5,-470.5 1301.5,-522.5 1408.5,-522.5 1408.5,-470.5 1301.5,-470.5"/>
<text text-anchor="start" x="1309.5" y="-510.5" font-family="Helvetica,sans-Serif" font-size="10.00">/home/xenvre/robot</text>
<text text-anchor="start" x="1309.5" y="-499.5" font-family="Helvetica,sans-Serif" font-size="10.00">&#45;code/bfl_robotology</text>
<text text-anchor="start" x="1309.5" y="-488.5" font-family="Helvetica,sans-Serif" font-size="10.00">/src/BayesFilters/src</text>
<text text-anchor="middle" x="1355" y="-477.5" font-family="Helvetica,sans-Serif" font-size="10.00">/ParticleFilter.cpp</text>
</a>
</g>
</g>
<!-- Node2 -->
<g id="node2" class="node">
<title>Node2</title>
<g id="a_node2"><a xlink:href="ParticleFilter_8h.html" target="_top" xlink:title=" ">
<polygon fill="white" stroke="black" points="1286.5,-414.5 1286.5,-433.5 1423.5,-433.5 1423.5,-414.5 1286.5,-414.5"/>
<text text-anchor="middle" x="1355" y="-421.5" font-family="Helvetica,sans-Serif" font-size="10.00">BayesFilters/ParticleFilter.h</text>
</a>
</g>
</g>
<!-- Node1&#45;&gt;Node2 -->
<g id="edge1" class="edge">
<title>Node1&#45;&gt;Node2</title>
<path fill="none" stroke="midnightblue" d="M1355,-470.45C1355,-461.73 1355,-452.1 1355,-443.96"/>
<polygon fill="midnightblue" stroke="midnightblue" points="1358.5,-443.7 1355,-433.7 1351.5,-443.7 1358.5,-443.7"/>
</g>
<!-- Node3 -->
<g id="node3" class="node">
<title>Node3</title>
<g id="a_node3"><a xlink:href="FilteringAlgorithm_8h.html" target="_top" xlink:title=" ">
<polygon fill="white" stroke="black" points="286,-174 286,-193 444,-193 444,-174 286,-174"/>
<text text-anchor="middle" x="365" y="-181" font-family="Helvetica,sans-Serif" font-size="10.00">BayesFilters/FilteringAlgorithm.h</text>
</a>
</g>
</g>
<!-- Node2&#45;&gt;Node3 -->
<g id="edge2" class="edge">
<title>Node2&#45;&gt;Node3</title>
<path fill="none" stroke="midnightblue" d="M1286.13,-416.69C1162.38,-404.48 894.72,-374.15 674,-322 576.18,-298.89 547.4,-300.94 458,-255 428.89,-240.04 399.48,-215.88 381.74,-200.1"/>
<polygon fill="midnightblue" stroke="midnightblue" points="383.79,-197.22 374.03,-193.09 379.08,-202.41 383.79,-197.22"/>
</g>
<!-- Node15 -->
<g id="node15" class="node">
<title>Node15</title>
<g id="a_node15"><a xlink:href="ParticleSetInitialization_8h.html" target="_top" xlink:title=" ">
<polygon fill="white" stroke="black" points="1527,-291.5 1527,-321.5 1649,-321.5 1649,-291.5 1527,-291.5"/>
<text text-anchor="start" x="1535" y="-309.5" font-family="Helvetica,sans-Serif" font-size="10.00">BayesFilters/ParticleSet</text>
<text text-anchor="middle" x="1588" y="-298.5" font-family="Helvetica,sans-Serif" font-size="10.00">Initialization.h</text>
</a>
</g>
</g>
<!-- Node2&#45;&gt;Node15 -->
<g id="edge16" class="edge">
<title>Node2&#45;&gt;Node15</title>
<path fill="none" stroke="midnightblue" d="M1372.51,-414.32C1410.17,-395.65 1499.58,-351.33 1550.61,-326.04"/>
<polygon fill="midnightblue" stroke="midnightblue" points="1552.26,-329.12 1559.67,-321.55 1549.15,-322.85 1552.26,-329.12"/>
</g>
<!-- Node19 -->
<g id="node19" class="node">
<title>Node19</title>
<g id="a_node19"><a xlink:href="PFCorrection_8h.html" target="_top" xlink:title=" ">
<polygon fill="white" stroke="black" points="683,-297 683,-316 823,-316 823,-297 683,-297"/>
<text text-anchor="middle" x="753" y="-304" font-family="Helvetica,sans-Serif" font-size="10.00">BayesFilters/PFCorrection.h</text>
</a>
</g>
</g>
<!-- Node2&#45;&gt;Node19 -->
<g id="edge23" class="edge">
<title>Node2&#45;&gt;Node19</title>
<path fill="none" stroke="midnightblue" d="M1310.24,-414.41C1201.82,-393.61 925.36,-340.57 807.53,-317.96"/>
<polygon fill="midnightblue" stroke="midnightblue" points="808.12,-314.51 797.64,-316.06 806.8,-321.39 808.12,-314.51"/>
</g>
<!-- Node25 -->
<g id="node25" class="node">
<title>Node25</title>
<g id="a_node25"><a xlink:title=" ">
<polygon fill="white" stroke="#bfbfbf" points="1343,-0.5 1343,-19.5 1395,-19.5 1395,-0.5 1343,-0.5"/>
<text text-anchor="middle" x="1369" y="-7.5" font-family="Helvetica,sans-Serif" font-size="10.00">memory</text>
</a>
</g>
</g>
<!-- Node2&#45;&gt;Node25 -->
<g id="edge64" class="edge">
<title>Node2&#45;&gt;Node25</title>
<path fill="none" stroke="midnightblue" d="M1423.56,-415.17C1528.01,-401.32 1715,-368.05 1715,-307.5 1715,-307.5 1715,-307.5 1715,-121 1715,-56.49 1493.82,-24.82 1405.14,-14.71"/>
<polygon fill="midnightblue" stroke="midnightblue" points="1405.33,-11.21 1395.01,-13.59 1404.56,-18.17 1405.33,-11.21"/>
</g>
<!-- Node31 -->
<g id="node31" class="node">
<title>Node31</title>
<g id="a_node31"><a xlink:href="PFPrediction_8h.html" target="_top" xlink:title=" ">
<polygon fill="white" stroke="black" points="1236.5,-358.5 1236.5,-377.5 1375.5,-377.5 1375.5,-358.5 1236.5,-358.5"/>
<text text-anchor="middle" x="1306" y="-365.5" font-family="Helvetica,sans-Serif" font-size="10.00">BayesFilters/PFPrediction.h</text>
</a>
</g>
</g>
<!-- Node2&#45;&gt;Node31 -->
<g id="edge44" class="edge">
<title>Node2&#45;&gt;Node31</title>
<path fill="none" stroke="midnightblue" d="M1346.91,-414.08C1339.84,-406.3 1329.41,-394.8 1320.85,-385.37"/>
<polygon fill="midnightblue" stroke="midnightblue" points="1323.25,-382.8 1313.94,-377.75 1318.07,-387.51 1323.25,-382.8"/>
</g>
<!-- Node37 -->
<g id="node37" class="node">
<title>Node37</title>
<g id="a_node37"><a xlink:href="Resampling_8h.html" target="_top" xlink:title=" ">
<polygon fill="white" stroke="black" points="1337,-297 1337,-316 1471,-316 1471,-297 1337,-297"/>
<text text-anchor="middle" x="1404" y="-304" font-family="Helvetica,sans-Serif" font-size="10.00">BayesFilters/Resampling.h</text>
</a>
</g>
</g>
<!-- Node2&#45;&gt;Node37 -->
<g id="edge60" class="edge">
<title>Node2&#45;&gt;Node37</title>
<path fill="none" stroke="midnightblue" d="M1361.59,-414.48C1368.08,-405.74 1377.88,-391.55 1384,-378 1391.61,-361.17 1397.02,-340.75 1400.28,-326.23"/>
<polygon fill="midnightblue" stroke="midnightblue" points="1403.79,-326.54 1402.43,-316.03 1396.94,-325.09 1403.79,-326.54"/>
</g>
<!-- Node4 -->
<g id="node4" class="node">
<title>Node4</title>
<g id="a_node4"><a xlink:href="Filter_8h.html" target="_top" xlink:title=" ">
<polygon fill="white" stroke="black" points="0,-112.5 0,-131.5 104,-131.5 104,-112.5 0,-112.5"/>
<text text-anchor="middle" x="52" y="-119.5" font-family="Helvetica,sans-Serif" font-size="10.00">BayesFilters/Filter.h</text>
</a>
</g>
</g>
<!-- Node3&#45;&gt;Node4 -->
<g id="edge3" class="edge">
<title>Node3&#45;&gt;Node4</title>
<path fill="none" stroke="midnightblue" d="M320.15,-173.98C263.91,-163.28 167.51,-144.96 106.91,-133.44"/>
<polygon fill="midnightblue" stroke="midnightblue" points="107.24,-129.94 96.76,-131.51 105.93,-136.82 107.24,-129.94"/>
</g>
<!-- Node5 -->
<g id="node5" class="node">
<title>Node5</title>
<g id="a_node5"><a xlink:href="Logger_8h.html" target="_top" xlink:title=" ">
<polygon fill="white" stroke="black" points="622.5,-112.5 622.5,-131.5 733.5,-131.5 733.5,-112.5 622.5,-112.5"/>
<text text-anchor="middle" x="678" y="-119.5" font-family="Helvetica,sans-Serif" font-size="10.00">BayesFilters/Logger.h</text>
</a>
</g>
</g>
<!-- Node3&#45;&gt;Node5 -->
<g id="edge4" class="edge">
<title>Node3&#45;&gt;Node5</title>
<path fill="none" stroke="midnightblue" d="M409.85,-173.98C466.09,-163.28 562.49,-144.96 623.09,-133.44"/>
<polygon fill="midnightblue" stroke="midnightblue" points="624.07,-136.82 633.24,-131.51 622.76,-129.94 624.07,-136.82"/>
</g>
<!-- Node8 -->
<g id="node8" class="node">
<title>Node8</title>
<g id="a_node8"><a xlink:title=" ">
<polygon fill="white" stroke="#bfbfbf" points="885.5,-56.5 885.5,-75.5 926.5,-75.5 926.5,-56.5 885.5,-56.5"/>
<text text-anchor="middle" x="906" y="-63.5" font-family="Helvetica,sans-Serif" font-size="10.00">string</text>
</a>
</g>
</g>
<!-- Node3&#45;&gt;Node8 -->
<g id="edge13" class="edge">
<title>Node3&#45;&gt;Node8</title>
<path fill="none" stroke="midnightblue" d="M444.27,-175.08C538.01,-165.74 688.12,-148.87 742,-132 760.59,-126.18 763.13,-119.76 781,-112 812.75,-98.21 850.23,-85.12 875.82,-76.65"/>
<polygon fill="midnightblue" stroke="midnightblue" points="876.92,-79.98 885.33,-73.54 874.74,-73.32 876.92,-79.98"/>
</g>
<!-- Node10 -->
<g id="node10" class="node">
<title>Node10</title>
<g id="a_node10"><a xlink:href="Skipper_8h.html" target="_top" xlink:title=" ">
<polygon fill="white" stroke="black" points="848.5,-112.5 848.5,-131.5 963.5,-131.5 963.5,-112.5 848.5,-112.5"/>
<text text-anchor="middle" x="906" y="-119.5" font-family="Helvetica,sans-Serif" font-size="10.00">BayesFilters/Skipper.h</text>
</a>
</g>
</g>
<!-- Node3&#45;&gt;Node10 -->
<g id="edge9" class="edge">
<title>Node3&#45;&gt;Node10</title>
<path fill="none" stroke="midnightblue" d="M444.33,-174.72C536.41,-165.53 693.11,-149.44 838.28,-132.06"/>
<polygon fill="midnightblue" stroke="midnightblue" points="838.76,-135.53 848.27,-130.86 837.92,-128.58 838.76,-135.53"/>
</g>
<!-- Node11 -->
<g id="node11" class="node">
<title>Node11</title>
<g id="a_node11"><a xlink:title=" ">
<polygon fill="white" stroke="#bfbfbf" points="122.5,-112.5 122.5,-131.5 217.5,-131.5 217.5,-112.5 122.5,-112.5"/>
<text text-anchor="middle" x="170" y="-119.5" font-family="Helvetica,sans-Serif" font-size="10.00">condition_variable</text>
</a>
</g>
</g>
<!-- Node3&#45;&gt;Node11 -->
<g id="edge11" class="edge">
<title>Node3&#45;&gt;Node11</title>
<path fill="none" stroke="midnightblue" d="M337.06,-173.98C303.03,-163.59 245.42,-146.01 207.54,-134.45"/>
<polygon fill="midnightblue" stroke="midnightblue" points="208.47,-131.08 197.89,-131.51 206.43,-137.78 208.47,-131.08"/>
</g>
<!-- Node12 -->
<g id="node12" class="node">
<title>Node12</title>
<g id="a_node12"><a xlink:title=" ">
<polygon fill="white" stroke="#bfbfbf" points="236,-112.5 236,-131.5 280,-131.5 280,-112.5 236,-112.5"/>
<text text-anchor="middle" x="258" y="-119.5" font-family="Helvetica,sans-Serif" font-size="10.00">mutex</text>
</a>
</g>
</g>
<!-- Node3&#45;&gt;Node12 -->
<g id="edge12" class="edge">
<title>Node3&#45;&gt;Node12</title>
<path fill="none" stroke="midnightblue" d="M349.67,-173.98C332.03,-164.17 302.84,-147.93 282.14,-136.42"/>
<polygon fill="midnightblue" stroke="midnightblue" points="283.74,-133.31 273.3,-131.51 280.34,-139.43 283.74,-133.31"/>
</g>
<!-- Node13 -->
<g id="node13" class="node">
<title>Node13</title>
<g id="a_node13"><a xlink:title=" ">
<polygon fill="white" stroke="#bfbfbf" points="298,-112.5 298,-131.5 342,-131.5 342,-112.5 298,-112.5"/>
<text text-anchor="middle" x="320" y="-119.5" font-family="Helvetica,sans-Serif" font-size="10.00">thread</text>
</a>
</g>
</g>
<!-- Node3&#45;&gt;Node13 -->
<g id="edge14" class="edge">
<title>Node3&#45;&gt;Node13</title>
<path fill="none" stroke="midnightblue" d="M358.55,-173.98C351.8,-165.05 341.03,-150.81 332.59,-139.64"/>
<polygon fill="midnightblue" stroke="midnightblue" points="335.26,-137.37 326.44,-131.51 329.68,-141.6 335.26,-137.37"/>
</g>
<!-- Node14 -->
<g id="node14" class="node">
<title>Node14</title>
<g id="a_node14"><a xlink:title=" ">
<polygon fill="white" stroke="#bfbfbf" points="360.5,-112.5 360.5,-131.5 443.5,-131.5 443.5,-112.5 360.5,-112.5"/>
<text text-anchor="middle" x="402" y="-119.5" font-family="Helvetica,sans-Serif" font-size="10.00">unordered_map</text>
</a>
</g>
</g>
<!-- Node3&#45;&gt;Node14 -->
<g id="edge15" class="edge">
<title>Node3&#45;&gt;Node14</title>
<path fill="none" stroke="midnightblue" d="M370.3,-173.98C375.74,-165.23 384.36,-151.37 391.24,-140.31"/>
<polygon fill="midnightblue" stroke="midnightblue" points="394.4,-141.85 396.71,-131.51 388.46,-138.15 394.4,-141.85"/>
</g>
<!-- Node6 -->
<g id="node6" class="node">
<title>Node6</title>
<g id="a_node6"><a xlink:title=" ">
<polygon fill="white" stroke="#bfbfbf" points="618,-56.5 618,-75.5 668,-75.5 668,-56.5 618,-56.5"/>
<text text-anchor="middle" x="643" y="-63.5" font-family="Helvetica,sans-Serif" font-size="10.00">fstream</text>
</a>
</g>
</g>
<!-- Node5&#45;&gt;Node6 -->
<g id="edge5" class="edge">
<title>Node5&#45;&gt;Node6</title>
<path fill="none" stroke="midnightblue" d="M672.22,-112.08C667.33,-104.53 660.17,-93.49 654.17,-84.23"/>
<polygon fill="midnightblue" stroke="midnightblue" points="657.05,-82.24 648.67,-75.75 651.17,-86.05 657.05,-82.24"/>
</g>
<!-- Node7 -->
<g id="node7" class="node">
<title>Node7</title>
<g id="a_node7"><a xlink:title=" ">
<polygon fill="white" stroke="#bfbfbf" points="686,-56.5 686,-75.5 740,-75.5 740,-56.5 686,-56.5"/>
<text text-anchor="middle" x="713" y="-63.5" font-family="Helvetica,sans-Serif" font-size="10.00">iostream</text>
</a>
</g>
</g>
<!-- Node5&#45;&gt;Node7 -->
<g id="edge6" class="edge">
<title>Node5&#45;&gt;Node7</title>
<path fill="none" stroke="midnightblue" d="M683.78,-112.08C688.67,-104.53 695.83,-93.49 701.83,-84.23"/>
<polygon fill="midnightblue" stroke="midnightblue" points="704.83,-86.05 707.33,-75.75 698.95,-82.24 704.83,-86.05"/>
</g>
<!-- Node5&#45;&gt;Node8 -->
<g id="edge7" class="edge">
<title>Node5&#45;&gt;Node8</title>
<path fill="none" stroke="midnightblue" d="M714.13,-112.44C758.69,-101.89 833.67,-84.13 875.49,-74.23"/>
<polygon fill="midnightblue" stroke="midnightblue" points="876.44,-77.6 885.36,-71.89 874.83,-70.79 876.44,-77.6"/>
</g>
<!-- Node9 -->
<g id="node9" class="node">
<title>Node9</title>
<g id="a_node9"><a xlink:title=" ">
<polygon fill="white" stroke="#bfbfbf" points="1421,-56.5 1421,-75.5 1465,-75.5 1465,-56.5 1421,-56.5"/>
<text text-anchor="middle" x="1443" y="-63.5" font-family="Helvetica,sans-Serif" font-size="10.00">vector</text>
</a>
</g>
</g>
<!-- Node5&#45;&gt;Node9 -->
<g id="edge8" class="edge">
<title>Node5&#45;&gt;Node9</title>
<path fill="none" stroke="midnightblue" d="M733.58,-115.95C748.94,-114.6 765.61,-113.2 781,-112 1022.91,-93.21 1314.9,-74.88 1410.79,-68.97"/>
<polygon fill="midnightblue" stroke="midnightblue" points="1411.22,-72.45 1420.99,-68.34 1410.79,-65.46 1411.22,-72.45"/>
</g>
<!-- Node10&#45;&gt;Node8 -->
<g id="edge10" class="edge">
<title>Node10&#45;&gt;Node8</title>
<path fill="none" stroke="midnightblue" d="M906,-112.08C906,-105.01 906,-94.86 906,-85.99"/>
<polygon fill="midnightblue" stroke="midnightblue" points="909.5,-85.75 906,-75.75 902.5,-85.75 909.5,-85.75"/>
</g>
<!-- Node16 -->
<g id="node16" class="node">
<title>Node16</title>
<g id="a_node16"><a xlink:href="ParticleSet_8h.html" target="_top" xlink:title=" ">
<polygon fill="white" stroke="black" points="1479.5,-235.5 1479.5,-254.5 1610.5,-254.5 1610.5,-235.5 1479.5,-235.5"/>
<text text-anchor="middle" x="1545" y="-242.5" font-family="Helvetica,sans-Serif" font-size="10.00">BayesFilters/ParticleSet.h</text>
</a>
</g>
</g>
<!-- Node15&#45;&gt;Node16 -->
<g id="edge17" class="edge">
<title>Node15&#45;&gt;Node16</title>
<path fill="none" stroke="midnightblue" d="M1577.81,-291.4C1571.63,-282.84 1563.7,-271.87 1557.18,-262.86"/>
<polygon fill="midnightblue" stroke="midnightblue" points="1559.95,-260.71 1551.26,-254.66 1554.28,-264.81 1559.95,-260.71"/>
</g>
<!-- Node18 -->
<g id="node18" class="node">
<title>Node18</title>
<g id="a_node18"><a xlink:title=" ">
<polygon fill="white" stroke="#bfbfbf" points="1243.5,-112.5 1243.5,-131.5 1316.5,-131.5 1316.5,-112.5 1243.5,-112.5"/>
<text text-anchor="middle" x="1280" y="-119.5" font-family="Helvetica,sans-Serif" font-size="10.00">Eigen/Dense</text>
</a>
</g>
</g>
<!-- Node15&#45;&gt;Node18 -->
<g id="edge22" class="edge">
<title>Node15&#45;&gt;Node18</title>
<path fill="none" stroke="midnightblue" d="M1602.2,-291.3C1614.74,-276.95 1629.65,-254.22 1620,-235 1597.62,-190.44 1575.75,-187.83 1530,-168 1463.19,-139.04 1378.55,-128.72 1326.89,-125.04"/>
<polygon fill="midnightblue" stroke="midnightblue" points="1326.9,-121.53 1316.69,-124.37 1326.44,-128.52 1326.9,-121.53"/>
</g>
<!-- Node16&#45;&gt;Node9 -->
<g id="edge21" class="edge">
<title>Node16&#45;&gt;Node9</title>
<path fill="none" stroke="midnightblue" d="M1544.7,-235.11C1543.91,-220.42 1540.95,-190.49 1530,-168 1513,-133.07 1480.88,-100.52 1460.79,-82.25"/>
<polygon fill="midnightblue" stroke="midnightblue" points="1463.04,-79.56 1453.24,-75.54 1458.39,-84.8 1463.04,-79.56"/>
</g>
<!-- Node17 -->
<g id="node17" class="node">
<title>Node17</title>
<g id="a_node17"><a xlink:href="GaussianMixture_8h.html" target="_top" xlink:title=" ">
<polygon fill="white" stroke="black" points="1365,-174 1365,-193 1521,-193 1521,-174 1365,-174"/>
<text text-anchor="middle" x="1443" y="-181" font-family="Helvetica,sans-Serif" font-size="10.00">BayesFilters/GaussianMixture.h</text>
</a>
</g>
</g>
<!-- Node16&#45;&gt;Node17 -->
<g id="edge18" class="edge">
<title>Node16&#45;&gt;Node17</title>
<path fill="none" stroke="midnightblue" d="M1530.39,-235.48C1513.65,-225.71 1486,-209.58 1466.28,-198.08"/>
<polygon fill="midnightblue" stroke="midnightblue" points="1467.99,-195.02 1457.59,-193.01 1464.46,-201.07 1467.99,-195.02"/>
</g>
<!-- Node17&#45;&gt;Node9 -->
<g id="edge19" class="edge">
<title>Node17&#45;&gt;Node9</title>
<path fill="none" stroke="midnightblue" d="M1443,-173.82C1443,-155.26 1443,-111.34 1443,-85.97"/>
<polygon fill="midnightblue" stroke="midnightblue" points="1446.5,-85.78 1443,-75.78 1439.5,-85.78 1446.5,-85.78"/>
</g>
<!-- Node17&#45;&gt;Node18 -->
<g id="edge20" class="edge">
<title>Node17&#45;&gt;Node18</title>
<path fill="none" stroke="midnightblue" d="M1419.65,-173.98C1391.69,-163.77 1344.67,-146.61 1313.01,-135.05"/>
<polygon fill="midnightblue" stroke="midnightblue" points="1313.9,-131.65 1303.31,-131.51 1311.5,-138.23 1313.9,-131.65"/>
</g>
<!-- Node19&#45;&gt;Node16 -->
<g id="edge40" class="edge">
<title>Node19&#45;&gt;Node16</title>
<path fill="none" stroke="midnightblue" d="M823.28,-300.37C946.42,-291.35 1209.16,-272.02 1431,-255 1443.34,-254.05 1456.43,-253.03 1469.17,-252.03"/>
<polygon fill="midnightblue" stroke="midnightblue" points="1469.6,-255.51 1479.3,-251.24 1469.05,-248.53 1469.6,-255.51"/>
</g>
<!-- Node19&#45;&gt;Node18 -->
<g id="edge43" class="edge">
<title>Node19&#45;&gt;Node18</title>
<path fill="none" stroke="midnightblue" d="M770.99,-296.94C788.97,-287.91 816.9,-272.58 838,-255 877.45,-222.14 868.64,-192.05 914,-168 941.67,-153.33 1140.94,-134.79 1233.26,-126.87"/>
<polygon fill="midnightblue" stroke="midnightblue" points="1233.78,-130.34 1243.45,-126 1233.18,-123.36 1233.78,-130.34"/>
</g>
<!-- Node20 -->
<g id="node20" class="node">
<title>Node20</title>
<g id="a_node20"><a xlink:href="LikelihoodModel_8h.html" target="_top" xlink:title=" ">
<polygon fill="white" stroke="black" points="677,-235.5 677,-254.5 829,-254.5 829,-235.5 677,-235.5"/>
<text text-anchor="middle" x="753" y="-242.5" font-family="Helvetica,sans-Serif" font-size="10.00">BayesFilters/LikelihoodModel.h</text>
</a>
</g>
</g>
<!-- Node19&#45;&gt;Node20 -->
<g id="edge24" class="edge">
<title>Node19&#45;&gt;Node20</title>
<path fill="none" stroke="midnightblue" d="M753,-296.98C753,-288.58 753,-275.48 753,-264.66"/>
<polygon fill="midnightblue" stroke="midnightblue" points="756.5,-264.51 753,-254.51 749.5,-264.51 756.5,-264.51"/>
</g>
<!-- Node21 -->
<g id="node21" class="node">
<title>Node21</title>
<g id="a_node21"><a xlink:href="MeasurementModel_8h.html" target="_top" xlink:title=" ">
<polygon fill="white" stroke="black" points="611,-168.5 611,-198.5 745,-198.5 745,-168.5 611,-168.5"/>
<text text-anchor="start" x="619" y="-186.5" font-family="Helvetica,sans-Serif" font-size="10.00">BayesFilters/Measurement</text>
<text text-anchor="middle" x="678" y="-175.5" font-family="Helvetica,sans-Serif" font-size="10.00">Model.h</text>
</a>
</g>
</g>
<!-- Node19&#45;&gt;Node21 -->
<g id="edge39" class="edge">
<title>Node19&#45;&gt;Node21</title>
<path fill="none" stroke="midnightblue" d="M724.62,-296.98C704.89,-289.41 680.06,-276.18 668,-255 659.98,-240.91 662.8,-222.75 667.46,-208.39"/>
<polygon fill="midnightblue" stroke="midnightblue" points="670.86,-209.31 671.05,-198.72 664.29,-206.88 670.86,-209.31"/>
</g>
<!-- Node19&#45;&gt;Node25 -->
<g id="edge41" class="edge">
<title>Node19&#45;&gt;Node25</title>
<path fill="none" stroke="midnightblue" d="M712.74,-296.98C635.04,-279.39 472,-236.29 472,-184.5 472,-184.5 472,-184.5 472,-121 472,-53.61 543.72,-72.74 609,-56 748.32,-20.27 1200.02,-12.77 1332.29,-11.32"/>
<polygon fill="midnightblue" stroke="midnightblue" points="1332.71,-14.82 1342.67,-11.21 1332.64,-7.82 1332.71,-14.82"/>
</g>
<!-- Node29 -->
<g id="node29" class="node">
<title>Node29</title>
<g id="a_node29"><a xlink:title=" ">
<polygon fill="white" stroke="#bfbfbf" points="790,-112.5 790,-131.5 830,-131.5 830,-112.5 790,-112.5"/>
<text text-anchor="middle" x="810" y="-119.5" font-family="Helvetica,sans-Serif" font-size="10.00">utility</text>
</a>
</g>
</g>
<!-- Node19&#45;&gt;Node29 -->
<g id="edge42" class="edge">
<title>Node19&#45;&gt;Node29</title>
<path fill="none" stroke="midnightblue" d="M729.25,-296.99C676.34,-276.77 556.89,-223.4 602,-168 651.86,-106.76 699.13,-150.11 776,-132 777.27,-131.7 778.57,-131.39 779.87,-131.07"/>
<polygon fill="midnightblue" stroke="midnightblue" points="781.08,-134.37 789.91,-128.51 779.36,-127.59 781.08,-134.37"/>
</g>
<!-- Node20&#45;&gt;Node21 -->
<g id="edge25" class="edge">
<title>Node20&#45;&gt;Node21</title>
<path fill="none" stroke="midnightblue" d="M742.25,-235.48C732.19,-227.49 716.77,-215.25 703.55,-204.77"/>
<polygon fill="midnightblue" stroke="midnightblue" points="705.69,-202 695.68,-198.52 701.33,-207.48 705.69,-202"/>
</g>
<!-- Node30 -->
<g id="node30" class="node">
<title>Node30</title>
<g id="a_node30"><a xlink:title=" ">
<polygon fill="white" stroke="#bfbfbf" points="763.5,-174 763.5,-193 828.5,-193 828.5,-174 763.5,-174"/>
<text text-anchor="middle" x="796" y="-181" font-family="Helvetica,sans-Serif" font-size="10.00">Eigen/Core</text>
</a>
</g>
</g>
<!-- Node20&#45;&gt;Node30 -->
<g id="edge38" class="edge">
<title>Node20&#45;&gt;Node30</title>
<path fill="none" stroke="midnightblue" d="M759.16,-235.48C765.61,-226.55 775.9,-212.31 783.97,-201.14"/>
<polygon fill="midnightblue" stroke="midnightblue" points="786.83,-203.16 789.85,-193.01 781.16,-199.06 786.83,-203.16"/>
</g>
<!-- Node21&#45;&gt;Node5 -->
<g id="edge33" class="edge">
<title>Node21&#45;&gt;Node5</title>
<path fill="none" stroke="midnightblue" d="M678,-168.4C678,-160.47 678,-150.46 678,-141.86"/>
<polygon fill="midnightblue" stroke="midnightblue" points="681.5,-141.66 678,-131.66 674.5,-141.66 681.5,-141.66"/>
</g>
<!-- Node21&#45;&gt;Node8 -->
<g id="edge35" class="edge">
<title>Node21&#45;&gt;Node8</title>
<path fill="none" stroke="midnightblue" d="M745.12,-169.6C748.12,-169.05 751.09,-168.52 754,-168 802.34,-159.4 940.23,-169.44 972,-132 988.33,-112.75 959.83,-92.67 935.33,-80.02"/>
<polygon fill="midnightblue" stroke="midnightblue" points="936.76,-76.82 926.24,-75.55 933.67,-83.1 936.76,-76.82"/>
</g>
<!-- Node21&#45;&gt;Node18 -->
<g id="edge37" class="edge">
<title>Node21&#45;&gt;Node18</title>
<path fill="none" stroke="midnightblue" d="M745.07,-169.31C748.09,-168.84 751.07,-168.4 754,-168 800.81,-161.55 1113.59,-136.29 1233.41,-126.71"/>
<polygon fill="midnightblue" stroke="midnightblue" points="1233.7,-130.2 1243.38,-125.91 1233.14,-123.22 1233.7,-130.2"/>
</g>
<!-- Node22 -->
<g id="node22" class="node">
<title>Node22</title>
<g id="a_node22"><a xlink:href="Data_8h.html" target="_top" xlink:title=" ">
<polygon fill="white" stroke="black" points="500,-112.5 500,-131.5 604,-131.5 604,-112.5 500,-112.5"/>
<text text-anchor="middle" x="552" y="-119.5" font-family="Helvetica,sans-Serif" font-size="10.00">BayesFilters/Data.h</text>
</a>
</g>
</g>
<!-- Node21&#45;&gt;Node22 -->
<g id="edge26" class="edge">
<title>Node21&#45;&gt;Node22</title>
<path fill="none" stroke="midnightblue" d="M648.14,-168.4C627.38,-158.59 599.9,-145.62 579.64,-136.05"/>
<polygon fill="midnightblue" stroke="midnightblue" points="580.87,-132.76 570.33,-131.66 577.88,-139.09 580.87,-132.76"/>
</g>
<!-- Node21&#45;&gt;Node25 -->
<g id="edge34" class="edge">
<title>Node21&#45;&gt;Node25</title>
<path fill="none" stroke="midnightblue" d="M745.11,-169.56C748.11,-169.02 751.09,-168.5 754,-168 858.13,-150.1 886.12,-156.1 989,-132 1120.17,-101.27 1271.49,-47.34 1336.54,-23.24"/>
<polygon fill="midnightblue" stroke="midnightblue" points="1338.07,-26.41 1346.22,-19.64 1335.63,-19.85 1338.07,-26.41"/>
</g>
<!-- Node21&#45;&gt;Node29 -->
<g id="edge36" class="edge">
<title>Node21&#45;&gt;Node29</title>
<path fill="none" stroke="midnightblue" d="M709.28,-168.4C731.23,-158.51 760.34,-145.38 781.62,-135.79"/>
<polygon fill="midnightblue" stroke="midnightblue" points="783.11,-138.96 790.79,-131.66 780.24,-132.58 783.11,-138.96"/>
</g>
<!-- Node23 -->
<g id="node23" class="node">
<title>Node23</title>
<g id="a_node23"><a xlink:href="any_8h.html" target="_top" xlink:title=" ">
<polygon fill="white" stroke="black" points="346.5,-56.5 346.5,-75.5 443.5,-75.5 443.5,-56.5 346.5,-56.5"/>
<text text-anchor="middle" x="395" y="-63.5" font-family="Helvetica,sans-Serif" font-size="10.00">BayesFilters/any.h</text>
</a>
</g>
</g>
<!-- Node22&#45;&gt;Node23 -->
<g id="edge27" class="edge">
<title>Node22&#45;&gt;Node23</title>
<path fill="none" stroke="midnightblue" d="M527.12,-112.44C500.71,-103.36 458.78,-88.94 429.26,-78.78"/>
<polygon fill="midnightblue" stroke="midnightblue" points="430.36,-75.46 419.76,-75.52 428.08,-82.08 430.36,-75.46"/>
</g>
<!-- Node24 -->
<g id="node24" class="node">
<title>Node24</title>
<g id="a_node24"><a xlink:title=" ">
<polygon fill="white" stroke="#bfbfbf" points="406,-0.5 406,-19.5 462,-19.5 462,-0.5 406,-0.5"/>
<text text-anchor="middle" x="434" y="-7.5" font-family="Helvetica,sans-Serif" font-size="10.00">algorithm</text>
</a>
</g>
</g>
<!-- Node23&#45;&gt;Node24 -->
<g id="edge28" class="edge">
<title>Node23&#45;&gt;Node24</title>
<path fill="none" stroke="midnightblue" d="M401.44,-56.08C406.95,-48.46 415.03,-37.26 421.76,-27.94"/>
<polygon fill="midnightblue" stroke="midnightblue" points="424.66,-29.91 427.68,-19.75 418.99,-25.81 424.66,-29.91"/>
</g>
<!-- Node23&#45;&gt;Node25 -->
<g id="edge29" class="edge">
<title>Node23&#45;&gt;Node25</title>
<path fill="none" stroke="midnightblue" d="M443.79,-57.58C448.58,-56.98 453.38,-56.44 458,-56 796.92,-23.49 1209.16,-13.85 1332.48,-11.59"/>
<polygon fill="midnightblue" stroke="midnightblue" points="1332.91,-15.08 1342.85,-11.41 1332.79,-8.09 1332.91,-15.08"/>
</g>
<!-- Node26 -->
<g id="node26" class="node">
<title>Node26</title>
<g id="a_node26"><a xlink:title=" ">
<polygon fill="white" stroke="#bfbfbf" points="480.5,-0.5 480.5,-19.5 539.5,-19.5 539.5,-0.5 480.5,-0.5"/>
<text text-anchor="middle" x="510" y="-7.5" font-family="Helvetica,sans-Serif" font-size="10.00">stdexcept</text>
</a>
</g>
</g>
<!-- Node23&#45;&gt;Node26 -->
<g id="edge30" class="edge">
<title>Node23&#45;&gt;Node26</title>
<path fill="none" stroke="midnightblue" d="M413.22,-56.44C431.9,-47.68 461.16,-33.94 482.62,-23.86"/>
<polygon fill="midnightblue" stroke="midnightblue" points="484.3,-26.93 491.86,-19.52 481.32,-20.6 484.3,-26.93"/>
</g>
<!-- Node27 -->
<g id="node27" class="node">
<title>Node27</title>
<g id="a_node27"><a xlink:title=" ">
<polygon fill="white" stroke="#bfbfbf" points="256.5,-0.5 256.5,-19.5 307.5,-19.5 307.5,-0.5 256.5,-0.5"/>
<text text-anchor="middle" x="282" y="-7.5" font-family="Helvetica,sans-Serif" font-size="10.00">typeinfo</text>
</a>
</g>
</g>
<!-- Node23&#45;&gt;Node27 -->
<g id="edge31" class="edge">
<title>Node23&#45;&gt;Node27</title>
<path fill="none" stroke="midnightblue" d="M377.09,-56.44C358.75,-47.68 329.99,-33.94 308.91,-23.86"/>
<polygon fill="midnightblue" stroke="midnightblue" points="310.35,-20.67 299.82,-19.52 307.33,-26.99 310.35,-20.67"/>
</g>
<!-- Node28 -->
<g id="node28" class="node">
<title>Node28</title>
<g id="a_node28"><a xlink:title=" ">
<polygon fill="white" stroke="#bfbfbf" points="326,-0.5 326,-19.5 388,-19.5 388,-0.5 326,-0.5"/>
<text text-anchor="middle" x="357" y="-7.5" font-family="Helvetica,sans-Serif" font-size="10.00">type_traits</text>
</a>
</g>
</g>
<!-- Node23&#45;&gt;Node28 -->
<g id="edge32" class="edge">
<title>Node23&#45;&gt;Node28</title>
<path fill="none" stroke="midnightblue" d="M388.73,-56.08C383.36,-48.46 375.48,-37.26 368.92,-27.94"/>
<polygon fill="midnightblue" stroke="midnightblue" points="371.78,-25.91 363.16,-19.75 366.05,-29.94 371.78,-25.91"/>
</g>
<!-- Node31&#45;&gt;Node8 -->
<g id="edge59" class="edge">
<title>Node31&#45;&gt;Node8</title>
<path fill="none" stroke="midnightblue" d="M1236.21,-363.71C1155.43,-356.23 1023.24,-332.12 943,-255 913.61,-226.76 892.29,-202.5 914,-168 933.69,-136.71 969.31,-163.29 989,-132 993.73,-124.48 993.55,-119.64 989,-112 977.63,-92.9 955.01,-81.41 936.25,-74.82"/>
<polygon fill="midnightblue" stroke="midnightblue" points="937.19,-71.45 926.6,-71.73 935.06,-78.11 937.19,-71.45"/>
</g>
<!-- Node31&#45;&gt;Node16 -->
<g id="edge50" class="edge">
<title>Node31&#45;&gt;Node16</title>
<path fill="none" stroke="midnightblue" d="M1375.52,-358.95C1409.03,-352.68 1448.64,-341.58 1480,-322 1503.86,-307.1 1523.55,-280.63 1534.79,-263.19"/>
<polygon fill="midnightblue" stroke="midnightblue" points="1537.85,-264.91 1540.15,-254.56 1531.9,-261.22 1537.85,-264.91"/>
</g>
<!-- Node31&#45;&gt;Node18 -->
<g id="edge57" class="edge">
<title>Node31&#45;&gt;Node18</title>
<path fill="none" stroke="midnightblue" d="M1305.07,-358.32C1301.33,-323.18 1287.26,-191.12 1282,-141.76"/>
<polygon fill="midnightblue" stroke="midnightblue" points="1285.45,-141.15 1280.91,-131.58 1278.49,-141.89 1285.45,-141.15"/>
</g>
<!-- Node31&#45;&gt;Node25 -->
<g id="edge58" class="edge">
<title>Node31&#45;&gt;Node25</title>
<path fill="none" stroke="midnightblue" d="M1375.77,-367.11C1466.3,-365.78 1617.47,-358.01 1658,-322 1684.03,-298.87 1677,-280.82 1677,-246 1677,-246 1677,-246 1677,-121 1677,-63.94 1487.17,-28.68 1405.57,-16.15"/>
<polygon fill="midnightblue" stroke="midnightblue" points="1405.67,-12.63 1395.26,-14.6 1404.63,-19.55 1405.67,-12.63"/>
</g>
<!-- Node32 -->
<g id="node32" class="node">
<title>Node32</title>
<g id="a_node32"><a xlink:href="ExogenousModel_8h.html" target="_top" xlink:title=" ">
<polygon fill="white" stroke="black" points="961,-235.5 961,-254.5 1119,-254.5 1119,-235.5 961,-235.5"/>
<text text-anchor="middle" x="1040" y="-242.5" font-family="Helvetica,sans-Serif" font-size="10.00">BayesFilters/ExogenousModel.h</text>
</a>
</g>
</g>
<!-- Node31&#45;&gt;Node32 -->
<g id="edge45" class="edge">
<title>Node31&#45;&gt;Node32</title>
<path fill="none" stroke="midnightblue" d="M1248.47,-358.46C1213.7,-351.76 1169.25,-340.41 1133,-322 1102.21,-306.36 1072.33,-279.15 1055.07,-261.88"/>
<polygon fill="midnightblue" stroke="midnightblue" points="1057.57,-259.43 1048.07,-254.72 1052.56,-264.32 1057.57,-259.43"/>
</g>
<!-- Node35 -->
<g id="node35" class="node">
<title>Node35</title>
<g id="a_node35"><a xlink:href="StateModel_8h.html" target="_top" xlink:title=" ">
<polygon fill="white" stroke="black" points="1142,-297 1142,-316 1274,-316 1274,-297 1142,-297"/>
<text text-anchor="middle" x="1208" y="-304" font-family="Helvetica,sans-Serif" font-size="10.00">BayesFilters/StateModel.h</text>
</a>
</g>
</g>
<!-- Node31&#45;&gt;Node35 -->
<g id="edge51" class="edge">
<title>Node31&#45;&gt;Node35</title>
<path fill="none" stroke="midnightblue" d="M1291.96,-358.48C1275.95,-348.75 1249.55,-332.73 1230.63,-321.24"/>
<polygon fill="midnightblue" stroke="midnightblue" points="1232.38,-318.21 1222.01,-316.01 1228.75,-324.19 1232.38,-318.21"/>
</g>
<!-- Node33 -->
<g id="node33" class="node">
<title>Node33</title>
<g id="a_node33"><a xlink:href="ExogenousProcess_8h.html" target="_top" xlink:title=" ">
<polygon fill="white" stroke="black" points="1066.5,-174 1066.5,-193 1233.5,-193 1233.5,-174 1066.5,-174"/>
<text text-anchor="middle" x="1150" y="-181" font-family="Helvetica,sans-Serif" font-size="10.00">BayesFilters/ExogenousProcess.h</text>
</a>
</g>
</g>
<!-- Node32&#45;&gt;Node33 -->
<g id="edge46" class="edge">
<title>Node32&#45;&gt;Node33</title>
<path fill="none" stroke="midnightblue" d="M1055.76,-235.48C1073.98,-225.62 1104.17,-209.29 1125.47,-197.77"/>
<polygon fill="midnightblue" stroke="midnightblue" points="1127.14,-200.85 1134.27,-193.01 1123.81,-194.69 1127.14,-200.85"/>
</g>
<!-- Node34 -->
<g id="node34" class="node">
<title>Node34</title>
<g id="a_node34"><a xlink:href="Skippable_8h.html" target="_top" xlink:title=" ">
<polygon fill="white" stroke="black" points="923.5,-174 923.5,-193 1048.5,-193 1048.5,-174 923.5,-174"/>
<text text-anchor="middle" x="986" y="-181" font-family="Helvetica,sans-Serif" font-size="10.00">BayesFilters/Skippable.h</text>
</a>
</g>
</g>
<!-- Node32&#45;&gt;Node34 -->
<g id="edge48" class="edge">
<title>Node32&#45;&gt;Node34</title>
<path fill="none" stroke="midnightblue" d="M1032.26,-235.48C1024,-226.37 1010.72,-211.74 1000.51,-200.48"/>
<polygon fill="midnightblue" stroke="midnightblue" points="1003.03,-198.06 993.72,-193.01 997.85,-202.77 1003.03,-198.06"/>
</g>
<!-- Node33&#45;&gt;Node18 -->
<g id="edge47" class="edge">
<title>Node33&#45;&gt;Node18</title>
<path fill="none" stroke="midnightblue" d="M1168.63,-173.98C1190.44,-163.99 1226.8,-147.35 1252.02,-135.81"/>
<polygon fill="midnightblue" stroke="midnightblue" points="1253.77,-138.85 1261.41,-131.51 1250.86,-132.49 1253.77,-138.85"/>
</g>
<!-- Node34&#45;&gt;Node10 -->
<g id="edge49" class="edge">
<title>Node34&#45;&gt;Node10</title>
<path fill="none" stroke="midnightblue" d="M974.54,-173.98C961.83,-164.52 941.09,-149.1 925.75,-137.69"/>
<polygon fill="midnightblue" stroke="midnightblue" points="927.55,-134.67 917.44,-131.51 923.38,-140.29 927.55,-134.67"/>
</g>
<!-- Node35&#45;&gt;Node25 -->
<g id="edge56" class="edge">
<title>Node35&#45;&gt;Node25</title>
<path fill="none" stroke="midnightblue" d="M1223.94,-296.93C1251.68,-282.33 1310.94,-252.52 1364,-235 1435.68,-211.32 1482.61,-257.77 1530,-199 1564.74,-155.92 1533.49,-112.09 1474,-56 1454.73,-37.83 1426.99,-26.37 1404.86,-19.57"/>
<polygon fill="midnightblue" stroke="midnightblue" points="1405.72,-16.17 1395.14,-16.76 1403.78,-22.9 1405.72,-16.17"/>
</g>
<!-- Node35&#45;&gt;Node32 -->
<g id="edge52" class="edge">
<title>Node35&#45;&gt;Node32</title>
<path fill="none" stroke="midnightblue" d="M1183.93,-296.98C1154.99,-286.72 1106.24,-269.46 1073.6,-257.9"/>
<polygon fill="midnightblue" stroke="midnightblue" points="1074.62,-254.55 1064.03,-254.51 1072.28,-261.15 1074.62,-254.55"/>
</g>
<!-- Node35&#45;&gt;Node34 -->
<g id="edge53" class="edge">
<title>Node35&#45;&gt;Node34</title>
<path fill="none" stroke="midnightblue" d="M1141.72,-301.74C1074.02,-296.35 975.59,-283.7 952,-255 938.33,-238.37 954.59,-215.33 968.98,-200.18"/>
<polygon fill="midnightblue" stroke="midnightblue" points="971.53,-202.58 976.16,-193.05 966.6,-197.61 971.53,-202.58"/>
</g>
<!-- Node36 -->
<g id="node36" class="node">
<title>Node36</title>
<g id="a_node36"><a xlink:href="StateProcess_8h.html" target="_top" xlink:title=" ">
<polygon fill="white" stroke="black" points="1137,-235.5 1137,-254.5 1279,-254.5 1279,-235.5 1137,-235.5"/>
<text text-anchor="middle" x="1208" y="-242.5" font-family="Helvetica,sans-Serif" font-size="10.00">BayesFilters/StateProcess.h</text>
</a>
</g>
</g>
<!-- Node35&#45;&gt;Node36 -->
<g id="edge54" class="edge">
<title>Node35&#45;&gt;Node36</title>
<path fill="none" stroke="midnightblue" d="M1208,-296.98C1208,-288.58 1208,-275.48 1208,-264.66"/>
<polygon fill="midnightblue" stroke="midnightblue" points="1211.5,-264.51 1208,-254.51 1204.5,-264.51 1211.5,-264.51"/>
</g>
<!-- Node36&#45;&gt;Node18 -->
<g id="edge55" class="edge">
<title>Node36&#45;&gt;Node18</title>
<path fill="none" stroke="midnightblue" d="M1215.27,-235.38C1222.52,-226.56 1233.74,-212.31 1242,-199 1253.75,-180.06 1264.87,-156.99 1272.01,-141.28"/>
<polygon fill="midnightblue" stroke="midnightblue" points="1275.4,-142.27 1276.28,-131.71 1269.01,-139.42 1275.4,-142.27"/>
</g>
<!-- Node37&#45;&gt;Node16 -->
<g id="edge62" class="edge">
<title>Node37&#45;&gt;Node16</title>
<path fill="none" stroke="midnightblue" d="M1424.2,-296.98C1448.07,-286.9 1488,-270.05 1515.37,-258.5"/>
<polygon fill="midnightblue" stroke="midnightblue" points="1516.98,-261.62 1524.84,-254.51 1514.26,-255.17 1516.98,-261.62"/>
</g>
<!-- Node37&#45;&gt;Node18 -->
<g id="edge63" class="edge">
<title>Node37&#45;&gt;Node18</title>
<path fill="none" stroke="midnightblue" d="M1412.25,-296.75C1424.28,-282.9 1443.84,-255.41 1431,-235 1411.31,-203.71 1386.17,-220.38 1356,-199 1331.63,-181.73 1308.01,-156.34 1293.74,-139.74"/>
<polygon fill="midnightblue" stroke="midnightblue" points="1296.3,-137.34 1287.18,-131.95 1290.95,-141.85 1296.3,-137.34"/>
</g>
<!-- Node38 -->
<g id="node38" class="node">
<title>Node38</title>
<g id="a_node38"><a xlink:title=" ">
<polygon fill="white" stroke="#bfbfbf" points="1373.5,-235.5 1373.5,-254.5 1422.5,-254.5 1422.5,-235.5 1373.5,-235.5"/>
<text text-anchor="middle" x="1398" y="-242.5" font-family="Helvetica,sans-Serif" font-size="10.00">random</text>
</a>
</g>
</g>
<!-- Node37&#45;&gt;Node38 -->
<g id="edge61" class="edge">
<title>Node37&#45;&gt;Node38</title>
<path fill="none" stroke="midnightblue" d="M1403.14,-296.98C1402.29,-288.58 1400.97,-275.48 1399.88,-264.66"/>
<polygon fill="midnightblue" stroke="midnightblue" points="1403.34,-264.11 1398.86,-254.51 1396.38,-264.81 1403.34,-264.11"/>
</g>
</g>
</svg>
