<?xml version="1.0" encoding="UTF-8" standalone="no"?>
<!DOCTYPE svg PUBLIC "-//W3C//DTD SVG 1.1//EN"
 "http://www.w3.org/Graphics/SVG/1.1/DTD/svg11.dtd">
<!-- Generated by graphviz version 2.47.2 (0)
 -->
<!-- Title: /home/xenvre/robot&#45;code/bfl_robotology/src/BayesFilters/include/BayesFilters/ParticleSetInitialization.h Pages: 1 -->
<svg width="244pt" height="229pt"
 viewBox="0.00 0.00 244.07 229.00" xmlns="http://www.w3.org/2000/svg" xmlns:xlink="http://www.w3.org/1999/xlink">
<g id="graph0" class="graph" transform="scale(1 1) rotate(0) translate(4 225)">
<title>/home/xenvre/robot&#45;code/bfl_robotology/src/BayesFilters/include/BayesFilters/ParticleSetInitialization.h</title>
<polygon fill="white" stroke="transparent" points="-4,4 -4,-225 240.07,-225 240.07,4 -4,4"/>
<!-- Node1 -->
<g id="node1" class="node">
<title>Node1</title>
<g id="a_node1"><a xlink:title=" ">
<polygon fill="#bfbfbf" stroke="black" points="51.07,-168.5 51.07,-220.5 236.07,-220.5 236.07,-168.5 51.07,-168.5"/>
<text text-anchor="start" x="59.07" y="-208.5" font-family="Helvetica,sans-Serif" font-size="10.00">/home/xenvre/robot</text>
<text text-anchor="start" x="59.07" y="-197.5" font-family="Helvetica,sans-Serif" font-size="10.00">&#45;code/bfl_robotology</text>
<text text-anchor="start" x="59.07" y="-186.5" font-family="Helvetica,sans-Serif" font-size="10.00">/src/BayesFilters/include</text>
<text text-anchor="middle" x="143.57" y="-175.5" font-family="Helvetica,sans-Serif" font-size="10.00">/BayesFilters/ParticleSetInitialization.h</text>
</a>
</g>
</g>
<!-- Node2 -->
<g id="node2" class="node">
<title>Node2</title>
<g id="a_node2"><a xlink:href="ParticleSet_8h.html" target="_top" xlink:title=" ">
<polygon fill="white" stroke="black" points="25.07,-112.5 25.07,-131.5 156.07,-131.5 156.07,-112.5 25.07,-112.5"/>
<text text-anchor="middle" x="90.57" y="-119.5" font-family="Helvetica,sans-Serif" font-size="10.00">BayesFilters/ParticleSet.h</text>
</a>
</g>
</g>
<!-- Node1&#45;&gt;Node2 -->
<g id="edge1" class="edge">
<title>Node1&#45;&gt;Node2</title>
<path fill="none" stroke="midnightblue" d="M124.74,-168.45C117.58,-158.93 109.61,-148.33 103.17,-139.76"/>
<polygon fill="midnightblue" stroke="midnightblue" points="105.92,-137.59 97.11,-131.7 100.32,-141.79 105.92,-137.59"/>
</g>
<!-- Node5 -->
<g id="node5" class="node">
<title>Node5</title>
<g id="a_node5"><a xlink:title=" ">
<polygon fill="white" stroke="#bfbfbf" points="99.07,-0.5 99.07,-19.5 172.07,-19.5 172.07,-0.5 99.07,-0.5"/>
<text text-anchor="middle" x="135.57" y="-7.5" font-family="Helvetica,sans-Serif" font-size="10.00">Eigen/Dense</text>
</a>
</g>
</g>
<!-- Node1&#45;&gt;Node5 -->
<g id="edge6" class="edge">
<title>Node1&#45;&gt;Node5</title>
<path fill="none" stroke="midnightblue" d="M158.91,-168.29C173.92,-140.24 192.5,-93.86 177.57,-56 173.06,-44.55 164.1,-34.29 155.62,-26.47"/>
<polygon fill="midnightblue" stroke="midnightblue" points="157.66,-23.61 147.79,-19.76 153.11,-28.93 157.66,-23.61"/>
</g>
<!-- Node3 -->
<g id="node3" class="node">
<title>Node3</title>
<g id="a_node3"><a xlink:href="GaussianMixture_8h.html" target="_top" xlink:title=" ">
<polygon fill="white" stroke="black" points="12.57,-56.5 12.57,-75.5 168.57,-75.5 168.57,-56.5 12.57,-56.5"/>
<text text-anchor="middle" x="90.57" y="-63.5" font-family="Helvetica,sans-Serif" font-size="10.00">BayesFilters/GaussianMixture.h</text>
</a>
</g>
</g>
<!-- Node2&#45;&gt;Node3 -->
<g id="edge2" class="edge">
<title>Node2&#45;&gt;Node3</title>
<path fill="none" stroke="midnightblue" d="M90.57,-112.08C90.57,-105.01 90.57,-94.86 90.57,-85.99"/>
<polygon fill="midnightblue" stroke="midnightblue" points="94.07,-85.75 90.57,-75.75 87.07,-85.75 94.07,-85.75"/>
</g>
<!-- Node4 -->
<g id="node4" class="node">
<title>Node4</title>
<g id="a_node4"><a xlink:title=" ">
<polygon fill="white" stroke="#bfbfbf" points="22.57,-0.5 22.57,-19.5 66.57,-19.5 66.57,-0.5 22.57,-0.5"/>
<text text-anchor="middle" x="44.57" y="-7.5" font-family="Helvetica,sans-Serif" font-size="10.00">vector</text>
</a>
</g>
</g>
<!-- Node2&#45;&gt;Node4 -->
<g id="edge5" class="edge">
<title>Node2&#45;&gt;Node4</title>
<path fill="none" stroke="midnightblue" d="M55.56,-112.45C36.64,-105.84 14.89,-94.59 3.57,-76 -6.9,-58.79 9.25,-39.26 24.26,-26.14"/>
<polygon fill="midnightblue" stroke="midnightblue" points="26.78,-28.6 32.31,-19.57 22.35,-23.18 26.78,-28.6"/>
</g>
<!-- Node3&#45;&gt;Node4 -->
<g id="edge3" class="edge">
<title>Node3&#45;&gt;Node4</title>
<path fill="none" stroke="midnightblue" d="M82.98,-56.08C76.35,-48.3 66.55,-36.8 58.52,-27.37"/>
<polygon fill="midnightblue" stroke="midnightblue" points="61.18,-25.09 52.03,-19.75 55.85,-29.63 61.18,-25.09"/>
</g>
<!-- Node3&#45;&gt;Node5 -->
<g id="edge4" class="edge">
<title>Node3&#45;&gt;Node5</title>
<path fill="none" stroke="midnightblue" d="M98,-56.08C104.43,-48.38 113.88,-37.03 121.7,-27.65"/>
<polygon fill="midnightblue" stroke="midnightblue" points="124.57,-29.67 128.28,-19.75 119.19,-25.19 124.57,-29.67"/>
</g>
</g>
</svg>
