<?xml version="1.0" encoding="UTF-8" standalone="no"?>
<!DOCTYPE svg PUBLIC "-//W3C//DTD SVG 1.1//EN"
 "http://www.w3.org/Graphics/SVG/1.1/DTD/svg11.dtd">
<!-- Generated by graphviz version 2.43.0 (0)
 -->
<!-- Title: /home/user/bayes&#45;filters&#45;lib/src/BayesFilters/src/ParticleFilter.cpp Pages: 1 -->
<svg width="2100pt" height="520pt"
 viewBox="0.00 0.00 2099.50 520.00" xmlns="http://www.w3.org/2000/svg" xmlns:xlink="http://www.w3.org/1999/xlink">
<g id="graph0" class="graph" transform="scale(1 1) rotate(0) translate(4 516)">
<title>/home/user/bayes&#45;filters&#45;lib/src/BayesFilters/src/ParticleFilter.cpp</title>
<polygon fill="white" stroke="transparent" points="-4,4 -4,-516 2095.5,-516 2095.5,4 -4,4"/>
<!-- Node1 -->
<g id="node1" class="node">
<title>Node1</title>
<g id="a_node1"><a xlink:title=" ">
<polygon fill="#bfbfbf" stroke="black" points="1135,-470.5 1135,-511.5 1270,-511.5 1270,-470.5 1135,-470.5"/>
<text text-anchor="start" x="1143" y="-499.5" font-family="Helvetica,sans-Serif" font-size="10.00">/home/user/bayes&#45;filters</text>
<text text-anchor="start" x="1143" y="-488.5" font-family="Helvetica,sans-Serif" font-size="10.00">&#45;lib/src/BayesFilters/src</text>
<text text-anchor="middle" x="1202.5" y="-477.5" font-family="Helvetica,sans-Serif" font-size="10.00">/ParticleFilter.cpp</text>
</a>
</g>
</g>
<!-- Node2 -->
<g id="node2" class="node">
<title>Node2</title>
<g id="a_node2"><a xlink:href="ParticleFilter_8h.html" target="_top" xlink:title=" ">
<polygon fill="white" stroke="black" points="1128,-414.5 1128,-433.5 1277,-433.5 1277,-414.5 1128,-414.5"/>
<text text-anchor="middle" x="1202.5" y="-421.5" font-family="Helvetica,sans-Serif" font-size="10.00">BayesFilters/ParticleFilter.h</text>
</a>
</g>
</g>
<!-- Node1&#45;&gt;Node2 -->
<g id="edge1" class="edge">
<title>Node1&#45;&gt;Node2</title>
<path fill="none" stroke="midnightblue" d="M1202.5,-470.5C1202.5,-462.07 1202.5,-452.24 1202.5,-443.87"/>
<polygon fill="midnightblue" stroke="midnightblue" points="1206,-443.65 1202.5,-433.65 1199,-443.65 1206,-443.65"/>
</g>
<!-- Node3 -->
<g id="node3" class="node">
<title>Node3</title>
<g id="a_node3"><a xlink:href="FilteringAlgorithm_8h.html" target="_top" xlink:title=" ">
<polygon fill="white" stroke="black" points="343.5,-174 343.5,-193 519.5,-193 519.5,-174 343.5,-174"/>
<text text-anchor="middle" x="431.5" y="-181" font-family="Helvetica,sans-Serif" font-size="10.00">BayesFilters/FilteringAlgorithm.h</text>
</a>
</g>
</g>
<!-- Node2&#45;&gt;Node3 -->
<g id="edge2" class="edge">
<title>Node2&#45;&gt;Node3</title>
<path fill="none" stroke="midnightblue" d="M1127.78,-422.04C963.65,-419.36 582.33,-409.74 533.5,-378 470.19,-336.84 443.69,-242.88 435.02,-202.98"/>
<polygon fill="midnightblue" stroke="midnightblue" points="438.42,-202.14 432.99,-193.04 431.56,-203.54 438.42,-202.14"/>
</g>
<!-- Node15 -->
<g id="node15" class="node">
<title>Node15</title>
<g id="a_node15"><a xlink:href="ParticleSetInitialization_8h.html" target="_top" xlink:title=" ">
<polygon fill="white" stroke="black" points="1796,-291.5 1796,-321.5 1927,-321.5 1927,-291.5 1796,-291.5"/>
<text text-anchor="start" x="1804" y="-309.5" font-family="Helvetica,sans-Serif" font-size="10.00">BayesFilters/ParticleSet</text>
<text text-anchor="middle" x="1861.5" y="-298.5" font-family="Helvetica,sans-Serif" font-size="10.00">Initialization.h</text>
</a>
</g>
</g>
<!-- Node2&#45;&gt;Node15 -->
<g id="edge16" class="edge">
<title>Node2&#45;&gt;Node15</title>
<path fill="none" stroke="midnightblue" d="M1252.09,-414.46C1352.2,-397.21 1585.6,-356.84 1781.5,-322 1782.79,-321.77 1784.09,-321.54 1785.4,-321.31"/>
<polygon fill="midnightblue" stroke="midnightblue" points="1786.36,-324.69 1795.59,-319.48 1785.12,-317.8 1786.36,-324.69"/>
</g>
<!-- Node19 -->
<g id="node19" class="node">
<title>Node19</title>
<g id="a_node19"><a xlink:href="PFCorrection_8h.html" target="_top" xlink:title=" ">
<polygon fill="white" stroke="black" points="1545,-297 1545,-316 1696,-316 1696,-297 1545,-297"/>
<text text-anchor="middle" x="1620.5" y="-304" font-family="Helvetica,sans-Serif" font-size="10.00">BayesFilters/PFCorrection.h</text>
</a>
</g>
</g>
<!-- Node2&#45;&gt;Node19 -->
<g id="edge23" class="edge">
<title>Node2&#45;&gt;Node19</title>
<path fill="none" stroke="midnightblue" d="M1233.58,-414.41C1307.95,-393.86 1496.21,-341.84 1579.63,-318.79"/>
<polygon fill="midnightblue" stroke="midnightblue" points="1580.8,-322.1 1589.5,-316.06 1578.93,-315.35 1580.8,-322.1"/>
</g>
<!-- Node25 -->
<g id="node25" class="node">
<title>Node25</title>
<g id="a_node25"><a xlink:title=" ">
<polygon fill="white" stroke="#bfbfbf" points="973.5,-0.5 973.5,-19.5 1031.5,-19.5 1031.5,-0.5 973.5,-0.5"/>
<text text-anchor="middle" x="1002.5" y="-7.5" font-family="Helvetica,sans-Serif" font-size="10.00">memory</text>
</a>
</g>
</g>
<!-- Node2&#45;&gt;Node25 -->
<g id="edge68" class="edge">
<title>Node2&#45;&gt;Node25</title>
<path fill="none" stroke="midnightblue" d="M1127.68,-417.56C955.82,-404.06 547.5,-365.85 547.5,-307.5 547.5,-307.5 547.5,-307.5 547.5,-121 547.5,-35.78 852.9,-16.36 963.29,-12.13"/>
<polygon fill="midnightblue" stroke="midnightblue" points="963.48,-15.62 973.35,-11.77 963.23,-8.63 963.48,-15.62"/>
</g>
<!-- Node33 -->
<g id="node33" class="node">
<title>Node33</title>
<g id="a_node33"><a xlink:href="PFPrediction_8h.html" target="_top" xlink:title=" ">
<polygon fill="white" stroke="black" points="1077,-358.5 1077,-377.5 1226,-377.5 1226,-358.5 1077,-358.5"/>
<text text-anchor="middle" x="1151.5" y="-365.5" font-family="Helvetica,sans-Serif" font-size="10.00">BayesFilters/PFPrediction.h</text>
</a>
</g>
</g>
<!-- Node2&#45;&gt;Node33 -->
<g id="edge46" class="edge">
<title>Node2&#45;&gt;Node33</title>
<path fill="none" stroke="midnightblue" d="M1194.08,-414.08C1186.65,-406.22 1175.65,-394.57 1166.69,-385.08"/>
<polygon fill="midnightblue" stroke="midnightblue" points="1169.18,-382.62 1159.76,-377.75 1164.09,-387.42 1169.18,-382.62"/>
</g>
<!-- Node39 -->
<g id="node39" class="node">
<title>Node39</title>
<g id="a_node39"><a xlink:href="Resampling_8h.html" target="_top" xlink:title=" ">
<polygon fill="white" stroke="black" points="1945.5,-297 1945.5,-316 2091.5,-316 2091.5,-297 1945.5,-297"/>
<text text-anchor="middle" x="2018.5" y="-304" font-family="Helvetica,sans-Serif" font-size="10.00">BayesFilters/Resampling.h</text>
</a>
</g>
</g>
<!-- Node2&#45;&gt;Node39 -->
<g id="edge64" class="edge">
<title>Node2&#45;&gt;Node39</title>
<path fill="none" stroke="midnightblue" d="M1271.19,-414.49C1401.28,-398.16 1692.4,-360.61 1936.5,-322 1944.71,-320.7 1953.37,-319.25 1961.86,-317.79"/>
<polygon fill="midnightblue" stroke="midnightblue" points="1962.47,-321.24 1971.72,-316.07 1961.26,-314.34 1962.47,-321.24"/>
</g>
<!-- Node4 -->
<g id="node4" class="node">
<title>Node4</title>
<g id="a_node4"><a xlink:href="Filter_8h.html" target="_top" xlink:title=" ">
<polygon fill="white" stroke="black" points="111,-112.5 111,-131.5 224,-131.5 224,-112.5 111,-112.5"/>
<text text-anchor="middle" x="167.5" y="-119.5" font-family="Helvetica,sans-Serif" font-size="10.00">BayesFilters/Filter.h</text>
</a>
</g>
</g>
<!-- Node3&#45;&gt;Node4 -->
<g id="edge3" class="edge">
<title>Node3&#45;&gt;Node4</title>
<path fill="none" stroke="midnightblue" d="M393.68,-173.98C346.63,-163.37 266.27,-145.26 215.08,-133.72"/>
<polygon fill="midnightblue" stroke="midnightblue" points="215.78,-130.29 205.25,-131.51 214.24,-137.12 215.78,-130.29"/>
</g>
<!-- Node5 -->
<g id="node5" class="node">
<title>Node5</title>
<g id="a_node5"><a xlink:href="Logger_8h.html" target="_top" xlink:title=" ">
<polygon fill="white" stroke="black" points="796,-112.5 796,-131.5 917,-131.5 917,-112.5 796,-112.5"/>
<text text-anchor="middle" x="856.5" y="-119.5" font-family="Helvetica,sans-Serif" font-size="10.00">BayesFilters/Logger.h</text>
</a>
</g>
</g>
<!-- Node3&#45;&gt;Node5 -->
<g id="edge4" class="edge">
<title>Node3&#45;&gt;Node5</title>
<path fill="none" stroke="midnightblue" d="M492.39,-173.98C569.95,-163.12 703.73,-144.39 785.74,-132.91"/>
<polygon fill="midnightblue" stroke="midnightblue" points="786.3,-136.36 795.72,-131.51 785.33,-129.43 786.3,-136.36"/>
</g>
<!-- Node8 -->
<g id="node8" class="node">
<title>Node8</title>
<g id="a_node8"><a xlink:title=" ">
<polygon fill="white" stroke="#bfbfbf" points="707.5,-56.5 707.5,-75.5 751.5,-75.5 751.5,-56.5 707.5,-56.5"/>
<text text-anchor="middle" x="729.5" y="-63.5" font-family="Helvetica,sans-Serif" font-size="10.00">string</text>
</a>
</g>
</g>
<!-- Node3&#45;&gt;Node8 -->
<g id="edge13" class="edge">
<title>Node3&#45;&gt;Node8</title>
<path fill="none" stroke="midnightblue" d="M445.61,-173.85C469.67,-159.39 520.5,-130.12 566.5,-112 610.62,-94.62 663.95,-81.26 697.31,-73.76"/>
<polygon fill="midnightblue" stroke="midnightblue" points="698.39,-77.11 707.4,-71.54 696.88,-70.27 698.39,-77.11"/>
</g>
<!-- Node10 -->
<g id="node10" class="node">
<title>Node10</title>
<g id="a_node10"><a xlink:href="Skipper_8h.html" target="_top" xlink:title=" ">
<polygon fill="white" stroke="black" points="576,-112.5 576,-131.5 701,-131.5 701,-112.5 576,-112.5"/>
<text text-anchor="middle" x="638.5" y="-119.5" font-family="Helvetica,sans-Serif" font-size="10.00">BayesFilters/Skipper.h</text>
</a>
</g>
</g>
<!-- Node3&#45;&gt;Node10 -->
<g id="edge9" class="edge">
<title>Node3&#45;&gt;Node10</title>
<path fill="none" stroke="midnightblue" d="M461.16,-173.98C497.43,-163.55 558.96,-145.86 599.16,-134.31"/>
<polygon fill="midnightblue" stroke="midnightblue" points="600.25,-137.64 608.9,-131.51 598.32,-130.91 600.25,-137.64"/>
</g>
<!-- Node11 -->
<g id="node11" class="node">
<title>Node11</title>
<g id="a_node11"><a xlink:title=" ">
<polygon fill="white" stroke="#bfbfbf" points="242,-112.5 242,-131.5 349,-131.5 349,-112.5 242,-112.5"/>
<text text-anchor="middle" x="295.5" y="-119.5" font-family="Helvetica,sans-Serif" font-size="10.00">condition_variable</text>
</a>
</g>
</g>
<!-- Node3&#45;&gt;Node11 -->
<g id="edge11" class="edge">
<title>Node3&#45;&gt;Node11</title>
<path fill="none" stroke="midnightblue" d="M412.01,-173.98C389.09,-163.95 350.81,-147.2 324.42,-135.65"/>
<polygon fill="midnightblue" stroke="midnightblue" points="325.51,-132.31 314.95,-131.51 322.71,-138.72 325.51,-132.31"/>
</g>
<!-- Node12 -->
<g id="node12" class="node">
<title>Node12</title>
<g id="a_node12"><a xlink:title=" ">
<polygon fill="white" stroke="#bfbfbf" points="367.5,-112.5 367.5,-131.5 415.5,-131.5 415.5,-112.5 367.5,-112.5"/>
<text text-anchor="middle" x="391.5" y="-119.5" font-family="Helvetica,sans-Serif" font-size="10.00">mutex</text>
</a>
</g>
</g>
<!-- Node3&#45;&gt;Node12 -->
<g id="edge12" class="edge">
<title>Node3&#45;&gt;Node12</title>
<path fill="none" stroke="midnightblue" d="M425.77,-173.98C419.83,-165.14 410.38,-151.09 402.91,-139.98"/>
<polygon fill="midnightblue" stroke="midnightblue" points="405.7,-137.86 397.22,-131.51 399.89,-141.76 405.7,-137.86"/>
</g>
<!-- Node13 -->
<g id="node13" class="node">
<title>Node13</title>
<g id="a_node13"><a xlink:title=" ">
<polygon fill="white" stroke="#bfbfbf" points="433.5,-112.5 433.5,-131.5 481.5,-131.5 481.5,-112.5 433.5,-112.5"/>
<text text-anchor="middle" x="457.5" y="-119.5" font-family="Helvetica,sans-Serif" font-size="10.00">thread</text>
</a>
</g>
</g>
<!-- Node3&#45;&gt;Node13 -->
<g id="edge14" class="edge">
<title>Node3&#45;&gt;Node13</title>
<path fill="none" stroke="midnightblue" d="M435.23,-173.98C438.97,-165.4 444.86,-151.93 449.64,-140.98"/>
<polygon fill="midnightblue" stroke="midnightblue" points="452.98,-142.07 453.78,-131.51 446.57,-139.27 452.98,-142.07"/>
</g>
<!-- Node14 -->
<g id="node14" class="node">
<title>Node14</title>
<g id="a_node14"><a xlink:title=" ">
<polygon fill="white" stroke="#bfbfbf" points="0,-112.5 0,-131.5 93,-131.5 93,-112.5 0,-112.5"/>
<text text-anchor="middle" x="46.5" y="-119.5" font-family="Helvetica,sans-Serif" font-size="10.00">unordered_map</text>
</a>
</g>
</g>
<!-- Node3&#45;&gt;Node14 -->
<g id="edge15" class="edge">
<title>Node3&#45;&gt;Node14</title>
<path fill="none" stroke="midnightblue" d="M374.54,-173.97C310.86,-164.38 204.38,-148.24 103.1,-132.24"/>
<polygon fill="midnightblue" stroke="midnightblue" points="103.43,-128.75 93.01,-130.64 102.34,-135.66 103.43,-128.75"/>
</g>
<!-- Node6 -->
<g id="node6" class="node">
<title>Node6</title>
<g id="a_node6"><a xlink:title=" ">
<polygon fill="white" stroke="#bfbfbf" points="777,-56.5 777,-75.5 832,-75.5 832,-56.5 777,-56.5"/>
<text text-anchor="middle" x="804.5" y="-63.5" font-family="Helvetica,sans-Serif" font-size="10.00">fstream</text>
</a>
</g>
</g>
<!-- Node5&#45;&gt;Node6 -->
<g id="edge5" class="edge">
<title>Node5&#45;&gt;Node6</title>
<path fill="none" stroke="midnightblue" d="M847.91,-112.08C840.34,-104.22 829.12,-92.57 819.99,-83.08"/>
<polygon fill="midnightblue" stroke="midnightblue" points="822.38,-80.53 812.93,-75.75 817.34,-85.38 822.38,-80.53"/>
</g>
<!-- Node7 -->
<g id="node7" class="node">
<title>Node7</title>
<g id="a_node7"><a xlink:title=" ">
<polygon fill="white" stroke="#bfbfbf" points="850.5,-56.5 850.5,-75.5 910.5,-75.5 910.5,-56.5 850.5,-56.5"/>
<text text-anchor="middle" x="880.5" y="-63.5" font-family="Helvetica,sans-Serif" font-size="10.00">iostream</text>
</a>
</g>
</g>
<!-- Node5&#45;&gt;Node7 -->
<g id="edge6" class="edge">
<title>Node5&#45;&gt;Node7</title>
<path fill="none" stroke="midnightblue" d="M860.46,-112.08C863.71,-104.77 868.42,-94.18 872.45,-85.1"/>
<polygon fill="midnightblue" stroke="midnightblue" points="875.75,-86.31 876.61,-75.75 869.35,-83.47 875.75,-86.31"/>
</g>
<!-- Node5&#45;&gt;Node8 -->
<g id="edge7" class="edge">
<title>Node5&#45;&gt;Node8</title>
<path fill="none" stroke="midnightblue" d="M836.38,-112.44C815.48,-103.56 782.57,-89.56 758.78,-79.45"/>
<polygon fill="midnightblue" stroke="midnightblue" points="760.1,-76.21 749.53,-75.52 757.36,-82.65 760.1,-76.21"/>
</g>
<!-- Node9 -->
<g id="node9" class="node">
<title>Node9</title>
<g id="a_node9"><a xlink:title=" ">
<polygon fill="white" stroke="#bfbfbf" points="1863,-56.5 1863,-75.5 1910,-75.5 1910,-56.5 1863,-56.5"/>
<text text-anchor="middle" x="1886.5" y="-63.5" font-family="Helvetica,sans-Serif" font-size="10.00">vector</text>
</a>
</g>
</g>
<!-- Node5&#45;&gt;Node9 -->
<g id="edge8" class="edge">
<title>Node5&#45;&gt;Node9</title>
<path fill="none" stroke="midnightblue" d="M917.41,-118C953.25,-116.23 999.45,-113.97 1040.5,-112 1378.71,-95.73 1463.89,-101.84 1801.5,-76 1818.33,-74.71 1836.99,-72.79 1852.52,-71.06"/>
<polygon fill="midnightblue" stroke="midnightblue" points="1853.18,-74.5 1862.72,-69.89 1852.39,-67.55 1853.18,-74.5"/>
</g>
<!-- Node10&#45;&gt;Node8 -->
<g id="edge10" class="edge">
<title>Node10&#45;&gt;Node8</title>
<path fill="none" stroke="midnightblue" d="M653.12,-112.32C667.45,-103.82 689.51,-90.73 706.25,-80.8"/>
<polygon fill="midnightblue" stroke="midnightblue" points="708.1,-83.77 714.92,-75.65 704.53,-77.75 708.1,-83.77"/>
</g>
<!-- Node16 -->
<g id="node16" class="node">
<title>Node16</title>
<g id="a_node16"><a xlink:href="ParticleSet_8h.html" target="_top" xlink:title=" ">
<polygon fill="white" stroke="black" points="1808.5,-235.5 1808.5,-254.5 1948.5,-254.5 1948.5,-235.5 1808.5,-235.5"/>
<text text-anchor="middle" x="1878.5" y="-242.5" font-family="Helvetica,sans-Serif" font-size="10.00">BayesFilters/ParticleSet.h</text>
</a>
</g>
</g>
<!-- Node15&#45;&gt;Node16 -->
<g id="edge17" class="edge">
<title>Node15&#45;&gt;Node16</title>
<path fill="none" stroke="midnightblue" d="M1865.53,-291.4C1867.85,-283.29 1870.78,-273.01 1873.28,-264.28"/>
<polygon fill="midnightblue" stroke="midnightblue" points="1876.64,-265.23 1876.03,-254.66 1869.91,-263.31 1876.64,-265.23"/>
</g>
<!-- Node18 -->
<g id="node18" class="node">
<title>Node18</title>
<g id="a_node18"><a xlink:title=" ">
<polygon fill="white" stroke="#bfbfbf" points="1692,-112.5 1692,-131.5 1769,-131.5 1769,-112.5 1692,-112.5"/>
<text text-anchor="middle" x="1730.5" y="-119.5" font-family="Helvetica,sans-Serif" font-size="10.00">Eigen/Dense</text>
</a>
</g>
</g>
<!-- Node15&#45;&gt;Node18 -->
<g id="edge22" class="edge">
<title>Node15&#45;&gt;Node18</title>
<path fill="none" stroke="midnightblue" d="M1840.11,-291.43C1827.21,-282.18 1811.09,-269.2 1799.5,-255 1770.04,-218.9 1747.87,-168.23 1737.32,-141.38"/>
<polygon fill="midnightblue" stroke="midnightblue" points="1740.48,-139.83 1733.63,-131.74 1733.94,-142.33 1740.48,-139.83"/>
</g>
<!-- Node16&#45;&gt;Node9 -->
<g id="edge21" class="edge">
<title>Node16&#45;&gt;Node9</title>
<path fill="none" stroke="midnightblue" d="M1925.83,-235.42C1946.6,-229.05 1969.05,-218.02 1981.5,-199 2010.36,-154.9 1946.61,-104.92 1909.97,-81.09"/>
<polygon fill="midnightblue" stroke="midnightblue" points="1911.64,-78 1901.31,-75.62 1907.9,-83.92 1911.64,-78"/>
</g>
<!-- Node17 -->
<g id="node17" class="node">
<title>Node17</title>
<g id="a_node17"><a xlink:href="GaussianMixture_8h.html" target="_top" xlink:title=" ">
<polygon fill="white" stroke="black" points="1801,-174 1801,-193 1972,-193 1972,-174 1801,-174"/>
<text text-anchor="middle" x="1886.5" y="-181" font-family="Helvetica,sans-Serif" font-size="10.00">BayesFilters/GaussianMixture.h</text>
</a>
</g>
</g>
<!-- Node16&#45;&gt;Node17 -->
<g id="edge18" class="edge">
<title>Node16&#45;&gt;Node17</title>
<path fill="none" stroke="midnightblue" d="M1879.65,-235.48C1880.77,-227.08 1882.54,-213.98 1883.99,-203.16"/>
<polygon fill="midnightblue" stroke="midnightblue" points="1887.49,-203.39 1885.36,-193.01 1880.55,-202.45 1887.49,-203.39"/>
</g>
<!-- Node17&#45;&gt;Node9 -->
<g id="edge19" class="edge">
<title>Node17&#45;&gt;Node9</title>
<path fill="none" stroke="midnightblue" d="M1886.5,-173.82C1886.5,-155.26 1886.5,-111.34 1886.5,-85.97"/>
<polygon fill="midnightblue" stroke="midnightblue" points="1890,-85.78 1886.5,-75.78 1883,-85.78 1890,-85.78"/>
</g>
<!-- Node17&#45;&gt;Node18 -->
<g id="edge20" class="edge">
<title>Node17&#45;&gt;Node18</title>
<path fill="none" stroke="midnightblue" d="M1864.15,-173.98C1837.51,-163.81 1792.79,-146.76 1762.49,-135.2"/>
<polygon fill="midnightblue" stroke="midnightblue" points="1763.4,-131.8 1752.81,-131.51 1760.91,-138.34 1763.4,-131.8"/>
</g>
<!-- Node19&#45;&gt;Node16 -->
<g id="edge42" class="edge">
<title>Node19&#45;&gt;Node16</title>
<path fill="none" stroke="midnightblue" d="M1657.47,-296.98C1703.35,-286.39 1781.65,-268.34 1831.68,-256.8"/>
<polygon fill="midnightblue" stroke="midnightblue" points="1832.65,-260.17 1841.6,-254.51 1831.07,-253.35 1832.65,-260.17"/>
</g>
<!-- Node19&#45;&gt;Node18 -->
<g id="edge45" class="edge">
<title>Node19&#45;&gt;Node18</title>
<path fill="none" stroke="midnightblue" d="M1631.68,-296.85C1643.14,-287.52 1660.87,-271.74 1672.5,-255 1698.11,-218.12 1716.31,-168.12 1724.91,-141.49"/>
<polygon fill="midnightblue" stroke="midnightblue" points="1728.35,-142.2 1728,-131.61 1721.67,-140.11 1728.35,-142.2"/>
</g>
<!-- Node20 -->
<g id="node20" class="node">
<title>Node20</title>
<g id="a_node20"><a xlink:href="LikelihoodModel_8h.html" target="_top" xlink:title=" ">
<polygon fill="white" stroke="black" points="1424.5,-235.5 1424.5,-254.5 1592.5,-254.5 1592.5,-235.5 1424.5,-235.5"/>
<text text-anchor="middle" x="1508.5" y="-242.5" font-family="Helvetica,sans-Serif" font-size="10.00">BayesFilters/LikelihoodModel.h</text>
</a>
</g>
</g>
<!-- Node19&#45;&gt;Node20 -->
<g id="edge24" class="edge">
<title>Node19&#45;&gt;Node20</title>
<path fill="none" stroke="midnightblue" d="M1604.45,-296.98C1585.91,-287.12 1555.16,-270.79 1533.48,-259.27"/>
<polygon fill="midnightblue" stroke="midnightblue" points="1534.99,-256.11 1524.52,-254.51 1531.71,-262.29 1534.99,-256.11"/>
</g>
<!-- Node21 -->
<g id="node21" class="node">
<title>Node21</title>
<g id="a_node21"><a xlink:href="MeasurementModel_8h.html" target="_top" xlink:title=" ">
<polygon fill="white" stroke="black" points="990,-168.5 990,-198.5 1137,-198.5 1137,-168.5 990,-168.5"/>
<text text-anchor="start" x="998" y="-186.5" font-family="Helvetica,sans-Serif" font-size="10.00">BayesFilters/Measurement</text>
<text text-anchor="middle" x="1063.5" y="-175.5" font-family="Helvetica,sans-Serif" font-size="10.00">Model.h</text>
</a>
</g>
</g>
<!-- Node19&#45;&gt;Node21 -->
<g id="edge41" class="edge">
<title>Node19&#45;&gt;Node21</title>
<path fill="none" stroke="midnightblue" d="M1581.33,-296.99C1489.21,-276.98 1257.54,-226.65 1137.78,-200.64"/>
<polygon fill="midnightblue" stroke="midnightblue" points="1138.46,-197.2 1127.95,-198.5 1136.98,-204.04 1138.46,-197.2"/>
</g>
<!-- Node19&#45;&gt;Node25 -->
<g id="edge43" class="edge">
<title>Node19&#45;&gt;Node25</title>
<path fill="none" stroke="midnightblue" d="M1625.16,-296.98C1635.31,-277.62 1658.5,-228.54 1658.5,-184.5 1658.5,-184.5 1658.5,-184.5 1658.5,-121 1658.5,-58.11 1183.56,-22.61 1041.91,-13.41"/>
<polygon fill="midnightblue" stroke="midnightblue" points="1041.74,-9.9 1031.53,-12.75 1041.29,-16.88 1041.74,-9.9"/>
</g>
<!-- Node31 -->
<g id="node31" class="node">
<title>Node31</title>
<g id="a_node31"><a xlink:title=" ">
<polygon fill="white" stroke="#bfbfbf" points="1479,-112.5 1479,-131.5 1524,-131.5 1524,-112.5 1479,-112.5"/>
<text text-anchor="middle" x="1501.5" y="-119.5" font-family="Helvetica,sans-Serif" font-size="10.00">utility</text>
</a>
</g>
</g>
<!-- Node19&#45;&gt;Node31 -->
<g id="edge44" class="edge">
<title>Node19&#45;&gt;Node31</title>
<path fill="none" stroke="midnightblue" d="M1621.88,-296.7C1625.06,-273.18 1630.49,-207.92 1600.5,-168 1584.57,-146.79 1556.31,-135.31 1534.05,-129.27"/>
<polygon fill="midnightblue" stroke="midnightblue" points="1534.86,-125.86 1524.31,-126.86 1533.18,-132.66 1534.86,-125.86"/>
</g>
<!-- Node20&#45;&gt;Node21 -->
<g id="edge25" class="edge">
<title>Node20&#45;&gt;Node21</title>
<path fill="none" stroke="midnightblue" d="M1430.1,-235.47C1358.77,-227.43 1250.34,-214.54 1147.19,-199.21"/>
<polygon fill="midnightblue" stroke="midnightblue" points="1147.64,-195.74 1137.23,-197.72 1146.6,-202.66 1147.64,-195.74"/>
</g>
<!-- Node32 -->
<g id="node32" class="node">
<title>Node32</title>
<g id="a_node32"><a xlink:title=" ">
<polygon fill="white" stroke="#bfbfbf" points="1523,-174 1523,-193 1592,-193 1592,-174 1523,-174"/>
<text text-anchor="middle" x="1557.5" y="-181" font-family="Helvetica,sans-Serif" font-size="10.00">Eigen/Core</text>
</a>
</g>
</g>
<!-- Node20&#45;&gt;Node32 -->
<g id="edge40" class="edge">
<title>Node20&#45;&gt;Node32</title>
<path fill="none" stroke="midnightblue" d="M1515.52,-235.48C1522.94,-226.46 1534.83,-212.02 1544.07,-200.81"/>
<polygon fill="midnightblue" stroke="midnightblue" points="1546.84,-202.95 1550.49,-193.01 1541.43,-198.5 1546.84,-202.95"/>
</g>
<!-- Node21&#45;&gt;Node5 -->
<g id="edge33" class="edge">
<title>Node21&#45;&gt;Node5</title>
<path fill="none" stroke="midnightblue" d="M1014.71,-168.47C978.53,-158.08 929.83,-144.08 896.06,-134.37"/>
<polygon fill="midnightblue" stroke="midnightblue" points="896.67,-130.91 886.09,-131.51 894.74,-137.63 896.67,-130.91"/>
</g>
<!-- Node21&#45;&gt;Node8 -->
<g id="edge37" class="edge">
<title>Node21&#45;&gt;Node8</title>
<path fill="none" stroke="midnightblue" d="M989.88,-174.62C919.91,-166.14 820.47,-151.25 786.5,-132 766.39,-120.6 749.84,-99.39 739.85,-84.3"/>
<polygon fill="midnightblue" stroke="midnightblue" points="742.81,-82.42 734.51,-75.83 736.89,-86.16 742.81,-82.42"/>
</g>
<!-- Node21&#45;&gt;Node18 -->
<g id="edge39" class="edge">
<title>Node21&#45;&gt;Node18</title>
<path fill="none" stroke="midnightblue" d="M1137.21,-169.11C1140,-168.72 1142.77,-168.34 1145.5,-168 1343.39,-142.95 1580.83,-129.89 1681.52,-125.14"/>
<polygon fill="midnightblue" stroke="midnightblue" points="1681.86,-128.63 1691.69,-124.67 1681.54,-121.63 1681.86,-128.63"/>
</g>
<!-- Node22 -->
<g id="node22" class="node">
<title>Node22</title>
<g id="a_node22"><a xlink:href="Data_8h.html" target="_top" xlink:title=" ">
<polygon fill="white" stroke="black" points="1049.5,-112.5 1049.5,-131.5 1161.5,-131.5 1161.5,-112.5 1049.5,-112.5"/>
<text text-anchor="middle" x="1105.5" y="-119.5" font-family="Helvetica,sans-Serif" font-size="10.00">BayesFilters/Data.h</text>
</a>
</g>
</g>
<!-- Node21&#45;&gt;Node22 -->
<g id="edge26" class="edge">
<title>Node21&#45;&gt;Node22</title>
<path fill="none" stroke="midnightblue" d="M1073.45,-168.4C1079.49,-159.84 1087.24,-148.87 1093.6,-139.86"/>
<polygon fill="midnightblue" stroke="midnightblue" points="1096.48,-141.85 1099.39,-131.66 1090.76,-137.81 1096.48,-141.85"/>
</g>
<!-- Node21&#45;&gt;Node25 -->
<g id="edge36" class="edge">
<title>Node21&#45;&gt;Node25</title>
<path fill="none" stroke="midnightblue" d="M1056.38,-168.12C1051.57,-158.12 1045.26,-144.41 1040.5,-132 1026.83,-96.32 1014.23,-53.42 1007.54,-29.48"/>
<polygon fill="midnightblue" stroke="midnightblue" points="1010.85,-28.34 1004.82,-19.63 1004.11,-30.2 1010.85,-28.34"/>
</g>
<!-- Node29 -->
<g id="node29" class="node">
<title>Node29</title>
<g id="a_node29"><a xlink:href="VectorDescription_8h.html" target="_top" xlink:title=" ">
<polygon fill="white" stroke="black" points="1180,-112.5 1180,-131.5 1355,-131.5 1355,-112.5 1180,-112.5"/>
<text text-anchor="middle" x="1267.5" y="-119.5" font-family="Helvetica,sans-Serif" font-size="10.00">BayesFilters/VectorDescription.h</text>
</a>
</g>
</g>
<!-- Node21&#45;&gt;Node29 -->
<g id="edge34" class="edge">
<title>Node21&#45;&gt;Node29</title>
<path fill="none" stroke="midnightblue" d="M1111.59,-168.47C1147.24,-158.08 1195.23,-144.08 1228.51,-134.37"/>
<polygon fill="midnightblue" stroke="midnightblue" points="1229.72,-137.67 1238.34,-131.51 1227.76,-130.95 1229.72,-137.67"/>
</g>
<!-- Node21&#45;&gt;Node31 -->
<g id="edge38" class="edge">
<title>Node21&#45;&gt;Node31</title>
<path fill="none" stroke="midnightblue" d="M1137.23,-169.29C1140.02,-168.84 1142.78,-168.41 1145.5,-168 1264.28,-150 1406.12,-133.58 1468.88,-126.58"/>
<polygon fill="midnightblue" stroke="midnightblue" points="1469.4,-130.04 1478.95,-125.46 1468.63,-123.08 1469.4,-130.04"/>
</g>
<!-- Node23 -->
<g id="node23" class="node">
<title>Node23</title>
<g id="a_node23"><a xlink:href="any_8h.html" target="_top" xlink:title=" ">
<polygon fill="white" stroke="black" points="1687,-56.5 1687,-75.5 1792,-75.5 1792,-56.5 1687,-56.5"/>
<text text-anchor="middle" x="1739.5" y="-63.5" font-family="Helvetica,sans-Serif" font-size="10.00">BayesFilters/any.h</text>
</a>
</g>
</g>
<!-- Node22&#45;&gt;Node23 -->
<g id="edge27" class="edge">
<title>Node22&#45;&gt;Node23</title>
<path fill="none" stroke="midnightblue" d="M1161.85,-112.99C1164.77,-112.64 1167.67,-112.31 1170.5,-112 1354.03,-92.05 1571.77,-77.31 1676.74,-70.76"/>
<polygon fill="midnightblue" stroke="midnightblue" points="1677.08,-74.24 1686.84,-70.13 1676.65,-67.25 1677.08,-74.24"/>
</g>
<!-- Node24 -->
<g id="node24" class="node">
<title>Node24</title>
<g id="a_node24"><a xlink:title=" ">
<polygon fill="white" stroke="#bfbfbf" points="1749.5,-0.5 1749.5,-19.5 1813.5,-19.5 1813.5,-0.5 1749.5,-0.5"/>
<text text-anchor="middle" x="1781.5" y="-7.5" font-family="Helvetica,sans-Serif" font-size="10.00">algorithm</text>
</a>
</g>
</g>
<!-- Node23&#45;&gt;Node24 -->
<g id="edge28" class="edge">
<title>Node23&#45;&gt;Node24</title>
<path fill="none" stroke="midnightblue" d="M1746.44,-56.08C1752.43,-48.38 1761.25,-37.03 1768.55,-27.65"/>
<polygon fill="midnightblue" stroke="midnightblue" points="1771.32,-29.79 1774.69,-19.75 1765.79,-25.5 1771.32,-29.79"/>
</g>
<!-- Node23&#45;&gt;Node25 -->
<g id="edge29" class="edge">
<title>Node23&#45;&gt;Node25</title>
<path fill="none" stroke="midnightblue" d="M1686.87,-57.59C1682.02,-57.01 1677.17,-56.47 1672.5,-56 1433.59,-31.96 1145.43,-17.47 1041.9,-12.73"/>
<polygon fill="midnightblue" stroke="midnightblue" points="1041.77,-9.22 1031.62,-12.26 1041.45,-16.21 1041.77,-9.22"/>
</g>
<!-- Node26 -->
<g id="node26" class="node">
<title>Node26</title>
<g id="a_node26"><a xlink:title=" ">
<polygon fill="white" stroke="#bfbfbf" points="1832,-0.5 1832,-19.5 1897,-19.5 1897,-0.5 1832,-0.5"/>
<text text-anchor="middle" x="1864.5" y="-7.5" font-family="Helvetica,sans-Serif" font-size="10.00">stdexcept</text>
</a>
</g>
</g>
<!-- Node23&#45;&gt;Node26 -->
<g id="edge30" class="edge">
<title>Node23&#45;&gt;Node26</title>
<path fill="none" stroke="midnightblue" d="M1759.31,-56.44C1779.79,-47.6 1811.98,-33.69 1835.36,-23.59"/>
<polygon fill="midnightblue" stroke="midnightblue" points="1836.99,-26.7 1844.79,-19.52 1834.22,-20.27 1836.99,-26.7"/>
</g>
<!-- Node27 -->
<g id="node27" class="node">
<title>Node27</title>
<g id="a_node27"><a xlink:title=" ">
<polygon fill="white" stroke="#bfbfbf" points="1587,-0.5 1587,-19.5 1644,-19.5 1644,-0.5 1587,-0.5"/>
<text text-anchor="middle" x="1615.5" y="-7.5" font-family="Helvetica,sans-Serif" font-size="10.00">typeinfo</text>
</a>
</g>
</g>
<!-- Node23&#45;&gt;Node27 -->
<g id="edge31" class="edge">
<title>Node23&#45;&gt;Node27</title>
<path fill="none" stroke="midnightblue" d="M1719.85,-56.44C1699.54,-47.6 1667.6,-33.69 1644.4,-23.59"/>
<polygon fill="midnightblue" stroke="midnightblue" points="1645.62,-20.3 1635.06,-19.52 1642.83,-26.72 1645.62,-20.3"/>
</g>
<!-- Node28 -->
<g id="node28" class="node">
<title>Node28</title>
<g id="a_node28"><a xlink:title=" ">
<polygon fill="white" stroke="#bfbfbf" points="1662,-0.5 1662,-19.5 1731,-19.5 1731,-0.5 1662,-0.5"/>
<text text-anchor="middle" x="1696.5" y="-7.5" font-family="Helvetica,sans-Serif" font-size="10.00">type_traits</text>
</a>
</g>
</g>
<!-- Node23&#45;&gt;Node28 -->
<g id="edge32" class="edge">
<title>Node23&#45;&gt;Node28</title>
<path fill="none" stroke="midnightblue" d="M1732.4,-56.08C1726.26,-48.38 1717.23,-37.03 1709.76,-27.65"/>
<polygon fill="midnightblue" stroke="midnightblue" points="1712.44,-25.39 1703.47,-19.75 1706.96,-29.75 1712.44,-25.39"/>
</g>
<!-- Node30 -->
<g id="node30" class="node">
<title>Node30</title>
<g id="a_node30"><a xlink:title=" ">
<polygon fill="white" stroke="#bfbfbf" points="1241,-56.5 1241,-75.5 1294,-75.5 1294,-56.5 1241,-56.5"/>
<text text-anchor="middle" x="1267.5" y="-63.5" font-family="Helvetica,sans-Serif" font-size="10.00">cstddef</text>
</a>
</g>
</g>
<!-- Node29&#45;&gt;Node30 -->
<g id="edge35" class="edge">
<title>Node29&#45;&gt;Node30</title>
<path fill="none" stroke="midnightblue" d="M1267.5,-112.08C1267.5,-105.01 1267.5,-94.86 1267.5,-85.99"/>
<polygon fill="midnightblue" stroke="midnightblue" points="1271,-85.75 1267.5,-75.75 1264,-85.75 1271,-85.75"/>
</g>
<!-- Node33&#45;&gt;Node8 -->
<g id="edge63" class="edge">
<title>Node33&#45;&gt;Node8</title>
<path fill="none" stroke="midnightblue" d="M1076.54,-360.95C955.28,-349.06 729.5,-317.36 729.5,-246 729.5,-246 729.5,-246 729.5,-182.5 729.5,-148.36 729.5,-108.55 729.5,-85.71"/>
<polygon fill="midnightblue" stroke="midnightblue" points="733,-85.69 729.5,-75.69 726,-85.69 733,-85.69"/>
</g>
<!-- Node33&#45;&gt;Node16 -->
<g id="edge53" class="edge">
<title>Node33&#45;&gt;Node16</title>
<path fill="none" stroke="midnightblue" d="M1226.27,-363.54C1374.61,-356.36 1696,-339.06 1743.5,-322 1766.01,-313.91 1766.94,-303.23 1787.5,-291 1807.66,-279.01 1831.45,-267.33 1849.65,-258.87"/>
<polygon fill="midnightblue" stroke="midnightblue" points="1851.24,-261.99 1858.87,-254.64 1848.32,-255.63 1851.24,-261.99"/>
</g>
<!-- Node33&#45;&gt;Node18 -->
<g id="edge61" class="edge">
<title>Node33&#45;&gt;Node18</title>
<path fill="none" stroke="midnightblue" d="M1226.19,-366.07C1369.42,-363.56 1671.6,-354.44 1705.5,-322 1755.29,-274.35 1743.03,-181.43 1734.91,-141.72"/>
<polygon fill="midnightblue" stroke="midnightblue" points="1738.3,-140.83 1732.74,-131.81 1731.46,-142.33 1738.3,-140.83"/>
</g>
<!-- Node33&#45;&gt;Node25 -->
<g id="edge62" class="edge">
<title>Node33&#45;&gt;Node25</title>
<path fill="none" stroke="midnightblue" d="M1153.15,-358.22C1157.01,-334.82 1163.98,-270.32 1131.5,-235 1084.8,-184.22 1023.26,-253.15 980.5,-199 940.65,-148.53 974.58,-65.37 992.78,-28.99"/>
<polygon fill="midnightblue" stroke="midnightblue" points="996.12,-30.14 997.62,-19.66 989.91,-26.92 996.12,-30.14"/>
</g>
<!-- Node34 -->
<g id="node34" class="node">
<title>Node34</title>
<g id="a_node34"><a xlink:href="ExogenousModel_8h.html" target="_top" xlink:title=" ">
<polygon fill="white" stroke="black" points="952,-235.5 952,-254.5 1123,-254.5 1123,-235.5 952,-235.5"/>
<text text-anchor="middle" x="1037.5" y="-242.5" font-family="Helvetica,sans-Serif" font-size="10.00">BayesFilters/ExogenousModel.h</text>
</a>
</g>
</g>
<!-- Node33&#45;&gt;Node34 -->
<g id="edge47" class="edge">
<title>Node33&#45;&gt;Node34</title>
<path fill="none" stroke="midnightblue" d="M1146.15,-358.46C1136.74,-343.78 1116.15,-313.2 1094.5,-291 1083.66,-279.89 1070.07,-269.06 1058.87,-260.81"/>
<polygon fill="midnightblue" stroke="midnightblue" points="1060.67,-257.79 1050.51,-254.79 1056.58,-263.47 1060.67,-257.79"/>
</g>
<!-- Node37 -->
<g id="node37" class="node">
<title>Node37</title>
<g id="a_node37"><a xlink:href="StateModel_8h.html" target="_top" xlink:title=" ">
<polygon fill="white" stroke="black" points="941.5,-297 941.5,-316 1085.5,-316 1085.5,-297 941.5,-297"/>
<text text-anchor="middle" x="1013.5" y="-304" font-family="Helvetica,sans-Serif" font-size="10.00">BayesFilters/StateModel.h</text>
</a>
</g>
</g>
<!-- Node33&#45;&gt;Node37 -->
<g id="edge54" class="edge">
<title>Node33&#45;&gt;Node37</title>
<path fill="none" stroke="midnightblue" d="M1131.73,-358.48C1108.36,-348.4 1069.29,-331.55 1042.5,-320"/>
<polygon fill="midnightblue" stroke="midnightblue" points="1043.8,-316.75 1033.24,-316.01 1041.03,-323.18 1043.8,-316.75"/>
</g>
<!-- Node35 -->
<g id="node35" class="node">
<title>Node35</title>
<g id="a_node35"><a xlink:href="ExogenousProcess_8h.html" target="_top" xlink:title=" ">
<polygon fill="white" stroke="black" points="1155,-174 1155,-193 1334,-193 1334,-174 1155,-174"/>
<text text-anchor="middle" x="1244.5" y="-181" font-family="Helvetica,sans-Serif" font-size="10.00">BayesFilters/ExogenousProcess.h</text>
</a>
</g>
</g>
<!-- Node34&#45;&gt;Node35 -->
<g id="edge48" class="edge">
<title>Node34&#45;&gt;Node35</title>
<path fill="none" stroke="midnightblue" d="M1067.16,-235.48C1103.43,-225.05 1164.96,-207.36 1205.16,-195.81"/>
<polygon fill="midnightblue" stroke="midnightblue" points="1206.25,-199.14 1214.9,-193.01 1204.32,-192.41 1206.25,-199.14"/>
</g>
<!-- Node36 -->
<g id="node36" class="node">
<title>Node36</title>
<g id="a_node36"><a xlink:href="Skippable_8h.html" target="_top" xlink:title=" ">
<polygon fill="white" stroke="black" points="758,-174 758,-193 895,-193 895,-174 758,-174"/>
<text text-anchor="middle" x="826.5" y="-181" font-family="Helvetica,sans-Serif" font-size="10.00">BayesFilters/Skippable.h</text>
</a>
</g>
</g>
<!-- Node34&#45;&gt;Node36 -->
<g id="edge51" class="edge">
<title>Node34&#45;&gt;Node36</title>
<path fill="none" stroke="midnightblue" d="M1007.27,-235.48C970.21,-225.03 907.31,-207.29 866.34,-195.73"/>
<polygon fill="midnightblue" stroke="midnightblue" points="867.25,-192.35 856.68,-193.01 865.35,-199.09 867.25,-192.35"/>
</g>
<!-- Node35&#45;&gt;Node18 -->
<g id="edge50" class="edge">
<title>Node35&#45;&gt;Node18</title>
<path fill="none" stroke="midnightblue" d="M1300.74,-173.97C1314.7,-171.93 1329.64,-169.82 1343.5,-168 1464.79,-152.07 1607.85,-136.19 1681.39,-128.24"/>
<polygon fill="midnightblue" stroke="midnightblue" points="1682.16,-131.68 1691.73,-127.12 1681.41,-124.72 1682.16,-131.68"/>
</g>
<!-- Node35&#45;&gt;Node29 -->
<g id="edge49" class="edge">
<title>Node35&#45;&gt;Node29</title>
<path fill="none" stroke="midnightblue" d="M1247.8,-173.98C1251.11,-165.4 1256.32,-151.93 1260.55,-140.98"/>
<polygon fill="midnightblue" stroke="midnightblue" points="1263.87,-142.1 1264.21,-131.51 1257.34,-139.57 1263.87,-142.1"/>
</g>
<!-- Node36&#45;&gt;Node10 -->
<g id="edge52" class="edge">
<title>Node36&#45;&gt;Node10</title>
<path fill="none" stroke="midnightblue" d="M799.56,-173.98C766.9,-163.64 711.68,-146.16 675.16,-134.6"/>
<polygon fill="midnightblue" stroke="midnightblue" points="675.98,-131.19 665.39,-131.51 673.86,-137.86 675.98,-131.19"/>
</g>
<!-- Node37&#45;&gt;Node25 -->
<g id="edge60" class="edge">
<title>Node37&#45;&gt;Node25</title>
<path fill="none" stroke="midnightblue" d="M992.07,-296.91C975.19,-288.85 952.83,-275.03 942.5,-255 901.58,-175.68 933.65,-137.74 969.5,-56 974.02,-45.71 981.22,-35.5 987.74,-27.41"/>
<polygon fill="midnightblue" stroke="midnightblue" points="990.6,-29.46 994.4,-19.57 985.26,-24.93 990.6,-29.46"/>
</g>
<!-- Node37&#45;&gt;Node34 -->
<g id="edge55" class="edge">
<title>Node37&#45;&gt;Node34</title>
<path fill="none" stroke="midnightblue" d="M1016.94,-296.98C1020.4,-288.4 1025.83,-274.93 1030.25,-263.98"/>
<polygon fill="midnightblue" stroke="midnightblue" points="1033.57,-265.09 1034.07,-254.51 1027.08,-262.47 1033.57,-265.09"/>
</g>
<!-- Node37&#45;&gt;Node36 -->
<g id="edge56" class="edge">
<title>Node37&#45;&gt;Node36</title>
<path fill="none" stroke="midnightblue" d="M991.94,-296.92C970.3,-287.89 936.4,-272.55 909.5,-255 884.42,-238.64 858.6,-215.53 842.56,-200.3"/>
<polygon fill="midnightblue" stroke="midnightblue" points="844.75,-197.54 835.12,-193.12 839.89,-202.58 844.75,-197.54"/>
</g>
<!-- Node38 -->
<g id="node38" class="node">
<title>Node38</title>
<g id="a_node38"><a xlink:href="StateProcess_8h.html" target="_top" xlink:title=" ">
<polygon fill="white" stroke="black" points="1352.5,-174 1352.5,-193 1504.5,-193 1504.5,-174 1352.5,-174"/>
<text text-anchor="middle" x="1428.5" y="-181" font-family="Helvetica,sans-Serif" font-size="10.00">BayesFilters/StateProcess.h</text>
</a>
</g>
</g>
<!-- Node37&#45;&gt;Node38 -->
<g id="edge57" class="edge">
<title>Node37&#45;&gt;Node38</title>
<path fill="none" stroke="midnightblue" d="M1042.68,-296.99C1115.74,-275.69 1306.57,-220.05 1389.3,-195.93"/>
<polygon fill="midnightblue" stroke="midnightblue" points="1390.45,-199.24 1399.07,-193.08 1388.49,-192.52 1390.45,-199.24"/>
</g>
<!-- Node38&#45;&gt;Node18 -->
<g id="edge59" class="edge">
<title>Node38&#45;&gt;Node18</title>
<path fill="none" stroke="midnightblue" d="M1471.77,-173.98C1527.31,-163.03 1623.43,-144.09 1681.58,-132.64"/>
<polygon fill="midnightblue" stroke="midnightblue" points="1682.49,-136.03 1691.62,-130.66 1681.14,-129.16 1682.49,-136.03"/>
</g>
<!-- Node38&#45;&gt;Node29 -->
<g id="edge58" class="edge">
<title>Node38&#45;&gt;Node29</title>
<path fill="none" stroke="midnightblue" d="M1405.43,-173.98C1377.82,-163.77 1331.38,-146.61 1300.1,-135.05"/>
<polygon fill="midnightblue" stroke="midnightblue" points="1301.12,-131.69 1290.52,-131.51 1298.69,-138.26 1301.12,-131.69"/>
</g>
<!-- Node39&#45;&gt;Node16 -->
<g id="edge66" class="edge">
<title>Node39&#45;&gt;Node16</title>
<path fill="none" stroke="midnightblue" d="M1998.44,-296.98C1974.74,-286.9 1935.09,-270.05 1907.92,-258.5"/>
<polygon fill="midnightblue" stroke="midnightblue" points="1909.09,-255.2 1898.52,-254.51 1906.36,-261.64 1909.09,-255.2"/>
</g>
<!-- Node39&#45;&gt;Node18 -->
<g id="edge67" class="edge">
<title>Node39&#45;&gt;Node18</title>
<path fill="none" stroke="midnightblue" d="M2019.07,-296.83C2020.14,-272.48 2019.56,-202.94 1981.5,-168 1952.69,-141.55 1844.11,-130.18 1779.58,-125.67"/>
<polygon fill="midnightblue" stroke="midnightblue" points="1779.44,-122.15 1769.23,-124.98 1778.97,-129.13 1779.44,-122.15"/>
</g>
<!-- Node40 -->
<g id="node40" class="node">
<title>Node40</title>
<g id="a_node40"><a xlink:title=" ">
<polygon fill="white" stroke="#bfbfbf" points="2028.5,-235.5 2028.5,-254.5 2082.5,-254.5 2082.5,-235.5 2028.5,-235.5"/>
<text text-anchor="middle" x="2055.5" y="-242.5" font-family="Helvetica,sans-Serif" font-size="10.00">random</text>
</a>
</g>
</g>
<!-- Node39&#45;&gt;Node40 -->
<g id="edge65" class="edge">
<title>Node39&#45;&gt;Node40</title>
<path fill="none" stroke="midnightblue" d="M2023.8,-296.98C2029.24,-288.23 2037.86,-274.37 2044.74,-263.31"/>
<polygon fill="midnightblue" stroke="midnightblue" points="2047.9,-264.85 2050.21,-254.51 2041.96,-261.15 2047.9,-264.85"/>
</g>
</g>
</svg>
