<?xml version="1.0" encoding="UTF-8" standalone="no"?>
<!DOCTYPE svg PUBLIC "-//W3C//DTD SVG 1.1//EN"
 "http://www.w3.org/Graphics/SVG/1.1/DTD/svg11.dtd">
<!-- Generated by graphviz version 2.47.2 (0)
 -->
<!-- Title: /home/xenvre/robot&#45;code/bfl_robotology/src/BayesFilters/include/BayesFilters/ParticleSet.h Pages: 1 -->
<!--zoomable 428 -->
<svg id="main" version="1.1" xmlns="http://www.w3.org/2000/svg" xmlns:xlink="http://www.w3.org/1999/xlink" xml:space="preserve" onload="init(evt)">
<style type="text/css"><![CDATA[
.edge:hover path { stroke: red; }
.edge:hover polygon { stroke: red; fill: red; }
]]></style>
<script type="text/javascript"><![CDATA[
var edges = document.getElementsByTagName('g');
if (edges && edges.length) {
  for (var i=0;i<edges.length;i++) {
    if (edges[i].id.substr(0,4)=='edge') {
      edges[i].setAttribute('class','edge');
    }
  }
}
]]></script>
        <defs>
                <circle id="rim" cx="0" cy="0" r="7"/>
                <circle id="rim2" cx="0" cy="0" r="3.5"/>
                <g id="zoomPlus">
                        <use xlink:href="#rim" fill="#404040">
                                <set attributeName="fill" to="#808080" begin="zoomplus.mouseover" end="zoomplus.mouseout"/>
                        </use>
                        <path d="M-4,0h8M0,-4v8" fill="none" stroke="white" stroke-width="1.5" pointer-events="none"/>
                </g>
                <g id="zoomMin">
                        <use xlink:href="#rim" fill="#404040">
                                <set attributeName="fill" to="#808080" begin="zoomminus.mouseover" end="zoomminus.mouseout"/>
                        </use>
                        <path d="M-4,0h8" fill="none" stroke="white" stroke-width="1.5" pointer-events="none"/>
                </g>
                <g id="dirArrow">
                        <path fill="none" stroke="white" stroke-width="1.5" d="M0,-3.0v7 M-2.5,-0.5L0,-3.0L2.5,-0.5"/>
                </g>
               <g id="resetDef">
                       <use xlink:href="#rim2" fill="#404040">
                               <set attributeName="fill" to="#808080" begin="reset.mouseover" end="reset.mouseout"/>
                       </use>
               </g>
        </defs>

<script type="text/javascript">
var viewWidth = 1747;
var viewHeight = 428;
var sectionId = 'dynsection-1';
</script>
<script xlink:href="svgpan.js"/>
<svg id="graph" class="graph">
<g id="viewport">
<title>/home/xenvre/robot&#45;code/bfl_robotology/src/BayesFilters/include/BayesFilters/ParticleSet.h</title>
<polygon fill="white" stroke="transparent" points="-4,4 -4,-424 1742.5,-424 1742.5,4 -4,4"/>
<!-- Node1 -->
<g id="node1" class="node">
<title>Node1</title>
<g id="a_node1"><a xlink:title=" ">
<polygon fill="#bfbfbf" stroke="black" points="837.5,-367.5 837.5,-419.5 971.5,-419.5 971.5,-367.5 837.5,-367.5"/>
<text text-anchor="start" x="845.5" y="-407.5" font-family="Helvetica,sans-Serif" font-size="10.00">/home/xenvre/robot</text>
<text text-anchor="start" x="845.5" y="-396.5" font-family="Helvetica,sans-Serif" font-size="10.00">&#45;code/bfl_robotology</text>
<text text-anchor="start" x="845.5" y="-385.5" font-family="Helvetica,sans-Serif" font-size="10.00">/src/BayesFilters/include</text>
<text text-anchor="middle" x="904.5" y="-374.5" font-family="Helvetica,sans-Serif" font-size="10.00">/BayesFilters/ParticleSet.h</text>
</a>
</g>
</g>
<!-- Node2 -->
<g id="node2" class="node">
<title>Node2</title>
<g id="a_node2"><a xlink:href="BootstrapCorrection_8h.html" target="_top" xlink:title=" ">
<polygon fill="white" stroke="black" points="0,-184 0,-236 173,-236 173,-184 0,-184"/>
<text text-anchor="start" x="8" y="-224" font-family="Helvetica,sans-Serif" font-size="10.00">/home/xenvre/robot</text>
<text text-anchor="start" x="8" y="-213" font-family="Helvetica,sans-Serif" font-size="10.00">&#45;code/bfl_robotology</text>
<text text-anchor="start" x="8" y="-202" font-family="Helvetica,sans-Serif" font-size="10.00">/src/BayesFilters/include</text>
<text text-anchor="middle" x="86.5" y="-191" font-family="Helvetica,sans-Serif" font-size="10.00">/BayesFilters/BootstrapCorrection.h</text>
</a>
</g>
</g>
<!-- Node1&#45;&gt;Node2 -->
<g id="edge1" class="edge">
<title>Node1&#45;&gt;Node2</title>
<path fill="none" stroke="midnightblue" d="M827.46,-388.07C690.3,-379.59 409.36,-359.35 315.5,-331 243.32,-309.19 167.25,-264.33 123.49,-236.06"/>
<polygon fill="midnightblue" stroke="midnightblue" points="827.28,-391.57 837.48,-388.69 827.71,-384.58 827.28,-391.57"/>
</g>
<!-- Node4 -->
<g id="node4" class="node">
<title>Node4</title>
<g id="a_node4"><a xlink:href="DrawParticles_8h.html" target="_top" xlink:title=" ">
<polygon fill="white" stroke="black" points="524,-184 524,-236 671,-236 671,-184 524,-184"/>
<text text-anchor="start" x="532" y="-224" font-family="Helvetica,sans-Serif" font-size="10.00">/home/xenvre/robot</text>
<text text-anchor="start" x="532" y="-213" font-family="Helvetica,sans-Serif" font-size="10.00">&#45;code/bfl_robotology</text>
<text text-anchor="start" x="532" y="-202" font-family="Helvetica,sans-Serif" font-size="10.00">/src/BayesFilters/include</text>
<text text-anchor="middle" x="597.5" y="-191" font-family="Helvetica,sans-Serif" font-size="10.00">/BayesFilters/DrawParticles.h</text>
</a>
</g>
</g>
<!-- Node1&#45;&gt;Node4 -->
<g id="edge3" class="edge">
<title>Node1&#45;&gt;Node4</title>
<path fill="none" stroke="midnightblue" d="M827.44,-383.57C782.85,-375.46 727.45,-360.06 685.5,-331 650.25,-306.58 623.71,-263.37 609.41,-236.01"/>
<polygon fill="midnightblue" stroke="midnightblue" points="826.9,-387.03 837.36,-385.29 828.1,-380.14 826.9,-387.03"/>
</g>
<!-- Node6 -->
<g id="node6" class="node">
<title>Node6</title>
<g id="a_node6"><a xlink:href="GPFCorrection_8h.html" target="_top" xlink:title=" ">
<polygon fill="white" stroke="black" points="191,-184 191,-236 342,-236 342,-184 191,-184"/>
<text text-anchor="start" x="199" y="-224" font-family="Helvetica,sans-Serif" font-size="10.00">/home/xenvre/robot</text>
<text text-anchor="start" x="199" y="-213" font-family="Helvetica,sans-Serif" font-size="10.00">&#45;code/bfl_robotology</text>
<text text-anchor="start" x="199" y="-202" font-family="Helvetica,sans-Serif" font-size="10.00">/src/BayesFilters/include</text>
<text text-anchor="middle" x="266.5" y="-191" font-family="Helvetica,sans-Serif" font-size="10.00">/BayesFilters/GPFCorrection.h</text>
</a>
</g>
</g>
<!-- Node1&#45;&gt;Node6 -->
<g id="edge5" class="edge">
<title>Node1&#45;&gt;Node6</title>
<path fill="none" stroke="midnightblue" d="M826.84,-389.71C700.97,-384.14 458.76,-368.76 382.5,-331 338.88,-309.4 302.55,-264.47 282.73,-236.13"/>
<polygon fill="midnightblue" stroke="midnightblue" points="827.04,-393.22 837.18,-390.16 827.34,-386.23 827.04,-393.22"/>
</g>
<!-- Node8 -->
<g id="node8" class="node">
<title>Node8</title>
<g id="a_node8"><a xlink:href="GPFPrediction_8h.html" target="_top" xlink:title=" ">
<polygon fill="white" stroke="black" points="891,-184 891,-236 1040,-236 1040,-184 891,-184"/>
<text text-anchor="start" x="899" y="-224" font-family="Helvetica,sans-Serif" font-size="10.00">/home/xenvre/robot</text>
<text text-anchor="start" x="899" y="-213" font-family="Helvetica,sans-Serif" font-size="10.00">&#45;code/bfl_robotology</text>
<text text-anchor="start" x="899" y="-202" font-family="Helvetica,sans-Serif" font-size="10.00">/src/BayesFilters/include</text>
<text text-anchor="middle" x="965.5" y="-191" font-family="Helvetica,sans-Serif" font-size="10.00">/BayesFilters/GPFPrediction.h</text>
</a>
</g>
</g>
<!-- Node1&#45;&gt;Node8 -->
<g id="edge7" class="edge">
<title>Node1&#45;&gt;Node8</title>
<path fill="none" stroke="midnightblue" d="M916.18,-357.75C928.15,-322.13 946.47,-267.62 957.09,-236.02"/>
<polygon fill="midnightblue" stroke="midnightblue" points="912.85,-356.67 912.98,-367.26 919.49,-358.9 912.85,-356.67"/>
</g>
<!-- Node10 -->
<g id="node10" class="node">
<title>Node10</title>
<g id="a_node10"><a xlink:href="InitSurveillanceAreaGrid_8h.html" target="_top" xlink:title=" ">
<polygon fill="white" stroke="black" points="1574.5,-178.5 1574.5,-241.5 1738.5,-241.5 1738.5,-178.5 1574.5,-178.5"/>
<text text-anchor="start" x="1582.5" y="-229.5" font-family="Helvetica,sans-Serif" font-size="10.00">/home/xenvre/robot</text>
<text text-anchor="start" x="1582.5" y="-218.5" font-family="Helvetica,sans-Serif" font-size="10.00">&#45;code/bfl_robotology</text>
<text text-anchor="start" x="1582.5" y="-207.5" font-family="Helvetica,sans-Serif" font-size="10.00">/src/BayesFilters/include</text>
<text text-anchor="start" x="1582.5" y="-196.5" font-family="Helvetica,sans-Serif" font-size="10.00">/BayesFilters/InitSurveillanceArea</text>
<text text-anchor="middle" x="1656.5" y="-185.5" font-family="Helvetica,sans-Serif" font-size="10.00">Grid.h</text>
</a>
</g>
</g>
<!-- Node1&#45;&gt;Node10 -->
<g id="edge9" class="edge">
<title>Node1&#45;&gt;Node10</title>
<path fill="none" stroke="midnightblue" d="M981.75,-390.55C1108.75,-386.17 1355.1,-372.46 1430.5,-331 1457.08,-316.38 1448.81,-295.63 1473.5,-278 1482.5,-271.57 1530.04,-254.23 1574.41,-238.81"/>
<polygon fill="midnightblue" stroke="midnightblue" points="981.58,-387.05 971.7,-390.88 981.81,-394.05 981.58,-387.05"/>
</g>
<!-- Node12 -->
<g id="node12" class="node">
<title>Node12</title>
<g id="a_node12"><a xlink:href="ParticleSetInitialization_8h.html" target="_top" xlink:title=" ">
<polygon fill="white" stroke="black" points="1203,-278.5 1203,-330.5 1388,-330.5 1388,-278.5 1203,-278.5"/>
<text text-anchor="start" x="1211" y="-318.5" font-family="Helvetica,sans-Serif" font-size="10.00">/home/xenvre/robot</text>
<text text-anchor="start" x="1211" y="-307.5" font-family="Helvetica,sans-Serif" font-size="10.00">&#45;code/bfl_robotology</text>
<text text-anchor="start" x="1211" y="-296.5" font-family="Helvetica,sans-Serif" font-size="10.00">/src/BayesFilters/include</text>
<text text-anchor="middle" x="1295.5" y="-285.5" font-family="Helvetica,sans-Serif" font-size="10.00">/BayesFilters/ParticleSetInitialization.h</text>
</a>
</g>
</g>
<!-- Node1&#45;&gt;Node12 -->
<g id="edge11" class="edge">
<title>Node1&#45;&gt;Node12</title>
<path fill="none" stroke="midnightblue" d="M981.39,-376.91C1039.72,-364.89 1121.81,-347.58 1193.5,-331 1196.61,-330.28 1199.78,-329.54 1202.97,-328.78"/>
<polygon fill="midnightblue" stroke="midnightblue" points="980.6,-373.5 971.51,-378.94 982.01,-380.35 980.6,-373.5"/>
</g>
<!-- Node14 -->
<g id="node14" class="node">
<title>Node14</title>
<g id="a_node14"><a xlink:href="SIS_8h.html" target="_top" xlink:title=" ">
<polygon fill="white" stroke="black" points="675,-89.5 675,-141.5 800,-141.5 800,-89.5 675,-89.5"/>
<text text-anchor="start" x="683" y="-129.5" font-family="Helvetica,sans-Serif" font-size="10.00">/home/xenvre/robot</text>
<text text-anchor="start" x="683" y="-118.5" font-family="Helvetica,sans-Serif" font-size="10.00">&#45;code/bfl_robotology</text>
<text text-anchor="start" x="683" y="-107.5" font-family="Helvetica,sans-Serif" font-size="10.00">/src/BayesFilters/include</text>
<text text-anchor="middle" x="737.5" y="-96.5" font-family="Helvetica,sans-Serif" font-size="10.00">/BayesFilters/SIS.h</text>
</a>
</g>
</g>
<!-- Node1&#45;&gt;Node14 -->
<g id="edge37" class="edge">
<title>Node1&#45;&gt;Node14</title>
<path fill="none" stroke="midnightblue" d="M827.63,-377.8C799.83,-368.75 770.62,-354.23 751.5,-331 706.68,-276.54 720.41,-185.58 730.66,-141.7"/>
<polygon fill="midnightblue" stroke="midnightblue" points="826.79,-381.21 837.38,-380.78 828.84,-374.51 826.79,-381.21"/>
</g>
<!-- Node17 -->
<g id="node17" class="node">
<title>Node17</title>
<g id="a_node17"><a xlink:href="ResamplingWithPrior_8h.html" target="_top" xlink:title=" ">
<polygon fill="white" stroke="black" points="1379,-184 1379,-236 1556,-236 1556,-184 1379,-184"/>
<text text-anchor="start" x="1387" y="-224" font-family="Helvetica,sans-Serif" font-size="10.00">/home/xenvre/robot</text>
<text text-anchor="start" x="1387" y="-213" font-family="Helvetica,sans-Serif" font-size="10.00">&#45;code/bfl_robotology</text>
<text text-anchor="start" x="1387" y="-202" font-family="Helvetica,sans-Serif" font-size="10.00">/src/BayesFilters/include</text>
<text text-anchor="middle" x="1467.5" y="-191" font-family="Helvetica,sans-Serif" font-size="10.00">/BayesFilters/ResamplingWithPrior.h</text>
</a>
</g>
</g>
<!-- Node1&#45;&gt;Node17 -->
<g id="edge36" class="edge">
<title>Node1&#45;&gt;Node17</title>
<path fill="none" stroke="midnightblue" d="M981.95,-391C1102.97,-387.32 1329.97,-374.63 1396.5,-331 1414.16,-319.42 1440.73,-267.87 1455.86,-236.22"/>
<polygon fill="midnightblue" stroke="midnightblue" points="981.54,-387.51 971.64,-391.3 981.74,-394.51 981.54,-387.51"/>
</g>
<!-- Node19 -->
<g id="node19" class="node">
<title>Node19</title>
<g id="a_node19"><a xlink:href="PFCorrection_8h.html" target="_top" xlink:title=" ">
<polygon fill="white" stroke="black" points="392,-278.5 392,-330.5 535,-330.5 535,-278.5 392,-278.5"/>
<text text-anchor="start" x="400" y="-318.5" font-family="Helvetica,sans-Serif" font-size="10.00">/home/xenvre/robot</text>
<text text-anchor="start" x="400" y="-307.5" font-family="Helvetica,sans-Serif" font-size="10.00">&#45;code/bfl_robotology</text>
<text text-anchor="start" x="400" y="-296.5" font-family="Helvetica,sans-Serif" font-size="10.00">/src/BayesFilters/include</text>
<text text-anchor="middle" x="463.5" y="-285.5" font-family="Helvetica,sans-Serif" font-size="10.00">/BayesFilters/PFCorrection.h</text>
</a>
</g>
</g>
<!-- Node1&#45;&gt;Node19 -->
<g id="edge19" class="edge">
<title>Node1&#45;&gt;Node19</title>
<path fill="none" stroke="midnightblue" d="M826.99,-377.21C744.63,-360.96 615.48,-335.48 535.35,-319.67"/>
<polygon fill="midnightblue" stroke="midnightblue" points="826.55,-380.69 837.04,-379.19 827.91,-373.82 826.55,-380.69"/>
</g>
<!-- Node21 -->
<g id="node21" class="node">
<title>Node21</title>
<g id="a_node21"><a xlink:href="PFPrediction_8h.html" target="_top" xlink:title=" ">
<polygon fill="white" stroke="black" points="760.5,-278.5 760.5,-330.5 902.5,-330.5 902.5,-278.5 760.5,-278.5"/>
<text text-anchor="start" x="768.5" y="-318.5" font-family="Helvetica,sans-Serif" font-size="10.00">/home/xenvre/robot</text>
<text text-anchor="start" x="768.5" y="-307.5" font-family="Helvetica,sans-Serif" font-size="10.00">&#45;code/bfl_robotology</text>
<text text-anchor="start" x="768.5" y="-296.5" font-family="Helvetica,sans-Serif" font-size="10.00">/src/BayesFilters/include</text>
<text text-anchor="middle" x="831.5" y="-285.5" font-family="Helvetica,sans-Serif" font-size="10.00">/BayesFilters/PFPrediction.h</text>
</a>
</g>
</g>
<!-- Node1&#45;&gt;Node21 -->
<g id="edge25" class="edge">
<title>Node1&#45;&gt;Node21</title>
<path fill="none" stroke="midnightblue" d="M876.81,-359.5C868.77,-349.92 860.13,-339.62 852.57,-330.61"/>
<polygon fill="midnightblue" stroke="midnightblue" points="874.28,-361.93 883.39,-367.34 879.64,-357.43 874.28,-361.93"/>
</g>
<!-- Node23 -->
<g id="node23" class="node">
<title>Node23</title>
<g id="a_node23"><a xlink:href="Resampling_8h.html" target="_top" xlink:title=" ">
<polygon fill="white" stroke="black" points="1048,-278.5 1048,-330.5 1185,-330.5 1185,-278.5 1048,-278.5"/>
<text text-anchor="start" x="1056" y="-318.5" font-family="Helvetica,sans-Serif" font-size="10.00">/home/xenvre/robot</text>
<text text-anchor="start" x="1056" y="-307.5" font-family="Helvetica,sans-Serif" font-size="10.00">&#45;code/bfl_robotology</text>
<text text-anchor="start" x="1056" y="-296.5" font-family="Helvetica,sans-Serif" font-size="10.00">/src/BayesFilters/include</text>
<text text-anchor="middle" x="1116.5" y="-285.5" font-family="Helvetica,sans-Serif" font-size="10.00">/BayesFilters/Resampling.h</text>
</a>
</g>
</g>
<!-- Node1&#45;&gt;Node23 -->
<g id="edge31" class="edge">
<title>Node1&#45;&gt;Node23</title>
<path fill="none" stroke="midnightblue" d="M974.98,-363.58C1001.05,-352.88 1030.37,-340.85 1055.53,-330.52"/>
<polygon fill="midnightblue" stroke="midnightblue" points="973.46,-360.42 965.53,-367.45 976.11,-366.89 973.46,-360.42"/>
</g>
<!-- Node25 -->
<g id="node25" class="node">
<title>Node25</title>
<g id="a_node25"><a xlink:href="ParticleSet_8cpp.html" target="_top" xlink:title=" ">
<polygon fill="white" stroke="black" points="1482,-278.5 1482,-330.5 1589,-330.5 1589,-278.5 1482,-278.5"/>
<text text-anchor="start" x="1490" y="-318.5" font-family="Helvetica,sans-Serif" font-size="10.00">/home/xenvre/robot</text>
<text text-anchor="start" x="1490" y="-307.5" font-family="Helvetica,sans-Serif" font-size="10.00">&#45;code/bfl_robotology</text>
<text text-anchor="start" x="1490" y="-296.5" font-family="Helvetica,sans-Serif" font-size="10.00">/src/BayesFilters/src</text>
<text text-anchor="middle" x="1535.5" y="-285.5" font-family="Helvetica,sans-Serif" font-size="10.00">/ParticleSet.cpp</text>
</a>
</g>
</g>
<!-- Node1&#45;&gt;Node25 -->
<g id="edge38" class="edge">
<title>Node1&#45;&gt;Node25</title>
<path fill="none" stroke="midnightblue" d="M982.02,-390.14C1091.54,-385.44 1297.24,-371.55 1467.5,-331 1472.16,-329.89 1476.94,-328.55 1481.69,-327.07"/>
<polygon fill="midnightblue" stroke="midnightblue" points="981.57,-386.66 971.72,-390.57 981.86,-393.65 981.57,-386.66"/>
</g>
<!-- Node3 -->
<g id="node3" class="node">
<title>Node3</title>
<g id="a_node3"><a xlink:href="BootstrapCorrection_8cpp.html" target="_top" xlink:title=" ">
<polygon fill="white" stroke="black" points="24,-89.5 24,-141.5 149,-141.5 149,-89.5 24,-89.5"/>
<text text-anchor="start" x="32" y="-129.5" font-family="Helvetica,sans-Serif" font-size="10.00">/home/xenvre/robot</text>
<text text-anchor="start" x="32" y="-118.5" font-family="Helvetica,sans-Serif" font-size="10.00">&#45;code/bfl_robotology</text>
<text text-anchor="start" x="32" y="-107.5" font-family="Helvetica,sans-Serif" font-size="10.00">/src/BayesFilters/src</text>
<text text-anchor="middle" x="86.5" y="-96.5" font-family="Helvetica,sans-Serif" font-size="10.00">/BootstrapCorrection.cpp</text>
</a>
</g>
</g>
<!-- Node2&#45;&gt;Node3 -->
<g id="edge2" class="edge">
<title>Node2&#45;&gt;Node3</title>
<path fill="none" stroke="midnightblue" d="M86.5,-173.49C86.5,-162.91 86.5,-151.53 86.5,-141.75"/>
<polygon fill="midnightblue" stroke="midnightblue" points="83,-173.72 86.5,-183.72 90,-173.72 83,-173.72"/>
</g>
<!-- Node5 -->
<g id="node5" class="node">
<title>Node5</title>
<g id="a_node5"><a xlink:href="DrawParticles_8cpp.html" target="_top" xlink:title=" ">
<polygon fill="white" stroke="black" points="544,-89.5 544,-141.5 651,-141.5 651,-89.5 544,-89.5"/>
<text text-anchor="start" x="552" y="-129.5" font-family="Helvetica,sans-Serif" font-size="10.00">/home/xenvre/robot</text>
<text text-anchor="start" x="552" y="-118.5" font-family="Helvetica,sans-Serif" font-size="10.00">&#45;code/bfl_robotology</text>
<text text-anchor="start" x="552" y="-107.5" font-family="Helvetica,sans-Serif" font-size="10.00">/src/BayesFilters/src</text>
<text text-anchor="middle" x="597.5" y="-96.5" font-family="Helvetica,sans-Serif" font-size="10.00">/DrawParticles.cpp</text>
</a>
</g>
</g>
<!-- Node4&#45;&gt;Node5 -->
<g id="edge4" class="edge">
<title>Node4&#45;&gt;Node5</title>
<path fill="none" stroke="midnightblue" d="M597.5,-173.49C597.5,-162.91 597.5,-151.53 597.5,-141.75"/>
<polygon fill="midnightblue" stroke="midnightblue" points="594,-173.72 597.5,-183.72 601,-173.72 594,-173.72"/>
</g>
<!-- Node7 -->
<g id="node7" class="node">
<title>Node7</title>
<g id="a_node7"><a xlink:href="GPFCorrection_8cpp.html" target="_top" xlink:title=" ">
<polygon fill="white" stroke="black" points="213,-89.5 213,-141.5 320,-141.5 320,-89.5 213,-89.5"/>
<text text-anchor="start" x="221" y="-129.5" font-family="Helvetica,sans-Serif" font-size="10.00">/home/xenvre/robot</text>
<text text-anchor="start" x="221" y="-118.5" font-family="Helvetica,sans-Serif" font-size="10.00">&#45;code/bfl_robotology</text>
<text text-anchor="start" x="221" y="-107.5" font-family="Helvetica,sans-Serif" font-size="10.00">/src/BayesFilters/src</text>
<text text-anchor="middle" x="266.5" y="-96.5" font-family="Helvetica,sans-Serif" font-size="10.00">/GPFCorrection.cpp</text>
</a>
</g>
</g>
<!-- Node6&#45;&gt;Node7 -->
<g id="edge6" class="edge">
<title>Node6&#45;&gt;Node7</title>
<path fill="none" stroke="midnightblue" d="M266.5,-173.49C266.5,-162.91 266.5,-151.53 266.5,-141.75"/>
<polygon fill="midnightblue" stroke="midnightblue" points="263,-173.72 266.5,-183.72 270,-173.72 263,-173.72"/>
</g>
<!-- Node9 -->
<g id="node9" class="node">
<title>Node9</title>
<g id="a_node9"><a xlink:href="GPFPrediction_8cpp.html" target="_top" xlink:title=" ">
<polygon fill="white" stroke="black" points="912,-89.5 912,-141.5 1019,-141.5 1019,-89.5 912,-89.5"/>
<text text-anchor="start" x="920" y="-129.5" font-family="Helvetica,sans-Serif" font-size="10.00">/home/xenvre/robot</text>
<text text-anchor="start" x="920" y="-118.5" font-family="Helvetica,sans-Serif" font-size="10.00">&#45;code/bfl_robotology</text>
<text text-anchor="start" x="920" y="-107.5" font-family="Helvetica,sans-Serif" font-size="10.00">/src/BayesFilters/src</text>
<text text-anchor="middle" x="965.5" y="-96.5" font-family="Helvetica,sans-Serif" font-size="10.00">/GPFPrediction.cpp</text>
</a>
</g>
</g>
<!-- Node8&#45;&gt;Node9 -->
<g id="edge8" class="edge">
<title>Node8&#45;&gt;Node9</title>
<path fill="none" stroke="midnightblue" d="M965.5,-173.49C965.5,-162.91 965.5,-151.53 965.5,-141.75"/>
<polygon fill="midnightblue" stroke="midnightblue" points="962,-173.72 965.5,-183.72 969,-173.72 962,-173.72"/>
</g>
<!-- Node11 -->
<g id="node11" class="node">
<title>Node11</title>
<g id="a_node11"><a xlink:href="InitSurveillanceAreaGrid_8cpp.html" target="_top" xlink:title=" ">
<polygon fill="white" stroke="black" points="1585,-89.5 1585,-141.5 1728,-141.5 1728,-89.5 1585,-89.5"/>
<text text-anchor="start" x="1593" y="-129.5" font-family="Helvetica,sans-Serif" font-size="10.00">/home/xenvre/robot</text>
<text text-anchor="start" x="1593" y="-118.5" font-family="Helvetica,sans-Serif" font-size="10.00">&#45;code/bfl_robotology</text>
<text text-anchor="start" x="1593" y="-107.5" font-family="Helvetica,sans-Serif" font-size="10.00">/src/BayesFilters/src</text>
<text text-anchor="middle" x="1656.5" y="-96.5" font-family="Helvetica,sans-Serif" font-size="10.00">/InitSurveillanceAreaGrid.cpp</text>
</a>
</g>
</g>
<!-- Node10&#45;&gt;Node11 -->
<g id="edge10" class="edge">
<title>Node10&#45;&gt;Node11</title>
<path fill="none" stroke="midnightblue" d="M1656.5,-168.42C1656.5,-159.36 1656.5,-150 1656.5,-141.77"/>
<polygon fill="midnightblue" stroke="midnightblue" points="1653,-168.46 1656.5,-178.46 1660,-168.46 1653,-168.46"/>
</g>
<!-- Node12&#45;&gt;Node10 -->
<g id="edge12" class="edge">
<title>Node12&#45;&gt;Node10</title>
<path fill="none" stroke="midnightblue" d="M1398.14,-282.57C1448.56,-271.64 1510.04,-257.36 1564.5,-242 1567.74,-241.09 1571.04,-240.12 1574.37,-239.13"/>
<polygon fill="midnightblue" stroke="midnightblue" points="1397.25,-279.18 1388.21,-284.7 1398.72,-286.02 1397.25,-279.18"/>
</g>
<!-- Node13 -->
<g id="node13" class="node">
<title>Node13</title>
<g id="a_node13"><a xlink:href="ParticleFilter_8h.html" target="_top" xlink:title=" ">
<polygon fill="white" stroke="black" points="1095.5,-184 1095.5,-236 1235.5,-236 1235.5,-184 1095.5,-184"/>
<text text-anchor="start" x="1103.5" y="-224" font-family="Helvetica,sans-Serif" font-size="10.00">/home/xenvre/robot</text>
<text text-anchor="start" x="1103.5" y="-213" font-family="Helvetica,sans-Serif" font-size="10.00">&#45;code/bfl_robotology</text>
<text text-anchor="start" x="1103.5" y="-202" font-family="Helvetica,sans-Serif" font-size="10.00">/src/BayesFilters/include</text>
<text text-anchor="middle" x="1165.5" y="-191" font-family="Helvetica,sans-Serif" font-size="10.00">/BayesFilters/ParticleFilter.h</text>
</a>
</g>
</g>
<!-- Node12&#45;&gt;Node13 -->
<g id="edge13" class="edge">
<title>Node12&#45;&gt;Node13</title>
<path fill="none" stroke="midnightblue" d="M1251.84,-272.43C1235.2,-260.59 1216.46,-247.26 1200.71,-236.05"/>
<polygon fill="midnightblue" stroke="midnightblue" points="1250.14,-275.52 1260.32,-278.47 1254.2,-269.82 1250.14,-275.52"/>
</g>
<!-- Node12&#45;&gt;Node17 -->
<g id="edge17" class="edge">
<title>Node12&#45;&gt;Node17</title>
<path fill="none" stroke="midnightblue" d="M1350.86,-273.73C1373.46,-261.58 1399.31,-247.67 1420.92,-236.05"/>
<polygon fill="midnightblue" stroke="midnightblue" points="1349.2,-270.65 1342.05,-278.47 1352.51,-276.81 1349.2,-270.65"/>
</g>
<!-- Node13&#45;&gt;Node14 -->
<g id="edge14" class="edge">
<title>Node13&#45;&gt;Node14</title>
<path fill="none" stroke="midnightblue" d="M1091.61,-180.92C1088.21,-179.88 1084.83,-178.9 1081.5,-178 1029.54,-163.89 884.26,-139.78 800.04,-126.32"/>
<polygon fill="midnightblue" stroke="midnightblue" points="1090.62,-184.28 1101.21,-183.97 1092.74,-177.61 1090.62,-184.28"/>
</g>
<!-- Node16 -->
<g id="node16" class="node">
<title>Node16</title>
<g id="a_node16"><a xlink:href="ParticleFilter_8cpp.html" target="_top" xlink:title=" ">
<polygon fill="white" stroke="black" points="1112,-89.5 1112,-141.5 1219,-141.5 1219,-89.5 1112,-89.5"/>
<text text-anchor="start" x="1120" y="-129.5" font-family="Helvetica,sans-Serif" font-size="10.00">/home/xenvre/robot</text>
<text text-anchor="start" x="1120" y="-118.5" font-family="Helvetica,sans-Serif" font-size="10.00">&#45;code/bfl_robotology</text>
<text text-anchor="start" x="1120" y="-107.5" font-family="Helvetica,sans-Serif" font-size="10.00">/src/BayesFilters/src</text>
<text text-anchor="middle" x="1165.5" y="-96.5" font-family="Helvetica,sans-Serif" font-size="10.00">/ParticleFilter.cpp</text>
</a>
</g>
</g>
<!-- Node13&#45;&gt;Node16 -->
<g id="edge16" class="edge">
<title>Node13&#45;&gt;Node16</title>
<path fill="none" stroke="midnightblue" d="M1165.5,-173.49C1165.5,-162.91 1165.5,-151.53 1165.5,-141.75"/>
<polygon fill="midnightblue" stroke="midnightblue" points="1162,-173.72 1165.5,-183.72 1169,-173.72 1162,-173.72"/>
</g>
<!-- Node15 -->
<g id="node15" class="node">
<title>Node15</title>
<g id="a_node15"><a xlink:href="SIS_8cpp.html" target="_top" xlink:title=" ">
<polygon fill="white" stroke="black" points="684,-0.5 684,-52.5 791,-52.5 791,-0.5 684,-0.5"/>
<text text-anchor="start" x="692" y="-40.5" font-family="Helvetica,sans-Serif" font-size="10.00">/home/xenvre/robot</text>
<text text-anchor="start" x="692" y="-29.5" font-family="Helvetica,sans-Serif" font-size="10.00">&#45;code/bfl_robotology</text>
<text text-anchor="start" x="692" y="-18.5" font-family="Helvetica,sans-Serif" font-size="10.00">/src/BayesFilters/src</text>
<text text-anchor="middle" x="737.5" y="-7.5" font-family="Helvetica,sans-Serif" font-size="10.00">/SIS.cpp</text>
</a>
</g>
</g>
<!-- Node14&#45;&gt;Node15 -->
<g id="edge15" class="edge">
<title>Node14&#45;&gt;Node15</title>
<path fill="none" stroke="midnightblue" d="M737.5,-79.19C737.5,-70.28 737.5,-60.9 737.5,-52.61"/>
<polygon fill="midnightblue" stroke="midnightblue" points="734,-79.34 737.5,-89.34 741,-79.34 734,-79.34"/>
</g>
<!-- Node18 -->
<g id="node18" class="node">
<title>Node18</title>
<g id="a_node18"><a xlink:href="ResamplingWithPrior_8cpp.html" target="_top" xlink:title=" ">
<polygon fill="white" stroke="black" points="1402.5,-89.5 1402.5,-141.5 1532.5,-141.5 1532.5,-89.5 1402.5,-89.5"/>
<text text-anchor="start" x="1410.5" y="-129.5" font-family="Helvetica,sans-Serif" font-size="10.00">/home/xenvre/robot</text>
<text text-anchor="start" x="1410.5" y="-118.5" font-family="Helvetica,sans-Serif" font-size="10.00">&#45;code/bfl_robotology</text>
<text text-anchor="start" x="1410.5" y="-107.5" font-family="Helvetica,sans-Serif" font-size="10.00">/src/BayesFilters/src</text>
<text text-anchor="middle" x="1467.5" y="-96.5" font-family="Helvetica,sans-Serif" font-size="10.00">/ResamplingWithPrior.cpp</text>
</a>
</g>
</g>
<!-- Node17&#45;&gt;Node18 -->
<g id="edge18" class="edge">
<title>Node17&#45;&gt;Node18</title>
<path fill="none" stroke="midnightblue" d="M1467.5,-173.49C1467.5,-162.91 1467.5,-151.53 1467.5,-141.75"/>
<polygon fill="midnightblue" stroke="midnightblue" points="1464,-173.72 1467.5,-183.72 1471,-173.72 1464,-173.72"/>
</g>
<!-- Node19&#45;&gt;Node2 -->
<g id="edge20" class="edge">
<title>Node19&#45;&gt;Node2</title>
<path fill="none" stroke="midnightblue" d="M381.77,-287.94C325.19,-276.62 248.33,-260.14 181.5,-242 174.72,-240.16 167.71,-238.13 160.7,-236"/>
<polygon fill="midnightblue" stroke="midnightblue" points="381.25,-291.41 391.74,-289.93 382.62,-284.54 381.25,-291.41"/>
</g>
<!-- Node19&#45;&gt;Node6 -->
<g id="edge21" class="edge">
<title>Node19&#45;&gt;Node6</title>
<path fill="none" stroke="midnightblue" d="M401.13,-274.21C375,-261.94 344.93,-247.83 319.85,-236.05"/>
<polygon fill="midnightblue" stroke="midnightblue" points="399.65,-277.39 410.19,-278.47 402.62,-271.05 399.65,-277.39"/>
</g>
<!-- Node19&#45;&gt;Node13 -->
<g id="edge22" class="edge">
<title>Node19&#45;&gt;Node13</title>
<path fill="none" stroke="midnightblue" d="M545.32,-296.47C682.72,-284.4 954.07,-259.37 1048.5,-242 1063.79,-239.19 1080.02,-235.41 1095.37,-231.46"/>
<polygon fill="midnightblue" stroke="midnightblue" points="544.92,-292.99 535.26,-297.35 545.53,-299.97 544.92,-292.99"/>
</g>
<!-- Node19&#45;&gt;Node14 -->
<g id="edge23" class="edge">
<title>Node19&#45;&gt;Node14</title>
<path fill="none" stroke="midnightblue" d="M468.82,-268.44C474.98,-240.02 487.91,-201.05 514.5,-178 564.68,-134.51 595.68,-160.33 659.5,-142 664.43,-140.58 669.52,-139.06 674.62,-137.49"/>
<polygon fill="midnightblue" stroke="midnightblue" points="465.37,-267.89 466.85,-278.38 472.23,-269.25 465.37,-267.89"/>
</g>
<!-- Node20 -->
<g id="node20" class="node">
<title>Node20</title>
<g id="a_node20"><a xlink:href="PFCorrection_8cpp.html" target="_top" xlink:title=" ">
<polygon fill="white" stroke="black" points="360,-184 360,-236 467,-236 467,-184 360,-184"/>
<text text-anchor="start" x="368" y="-224" font-family="Helvetica,sans-Serif" font-size="10.00">/home/xenvre/robot</text>
<text text-anchor="start" x="368" y="-213" font-family="Helvetica,sans-Serif" font-size="10.00">&#45;code/bfl_robotology</text>
<text text-anchor="start" x="368" y="-202" font-family="Helvetica,sans-Serif" font-size="10.00">/src/BayesFilters/src</text>
<text text-anchor="middle" x="413.5" y="-191" font-family="Helvetica,sans-Serif" font-size="10.00">/PFCorrection.cpp</text>
</a>
</g>
</g>
<!-- Node19&#45;&gt;Node20 -->
<g id="edge24" class="edge">
<title>Node19&#45;&gt;Node20</title>
<path fill="none" stroke="midnightblue" d="M445.02,-269.31C439.1,-258.36 432.66,-246.44 427.15,-236.25"/>
<polygon fill="midnightblue" stroke="midnightblue" points="442,-271.09 449.84,-278.22 448.16,-267.76 442,-271.09"/>
</g>
<!-- Node21&#45;&gt;Node4 -->
<g id="edge26" class="edge">
<title>Node21&#45;&gt;Node4</title>
<path fill="none" stroke="midnightblue" d="M758.63,-274.69C727.31,-262.32 691.06,-247.98 660.87,-236.05"/>
<polygon fill="midnightblue" stroke="midnightblue" points="757.59,-278.05 768.18,-278.47 760.16,-271.54 757.59,-278.05"/>
</g>
<!-- Node21&#45;&gt;Node8 -->
<g id="edge27" class="edge">
<title>Node21&#45;&gt;Node8</title>
<path fill="none" stroke="midnightblue" d="M876.03,-272.76C893.3,-260.84 912.82,-247.37 929.21,-236.05"/>
<polygon fill="midnightblue" stroke="midnightblue" points="874,-269.91 867.76,-278.47 877.98,-275.67 874,-269.91"/>
</g>
<!-- Node21&#45;&gt;Node13 -->
<g id="edge28" class="edge">
<title>Node21&#45;&gt;Node13</title>
<path fill="none" stroke="midnightblue" d="M912.6,-281.04C968.44,-265.58 1041.88,-245.24 1095.23,-230.46"/>
<polygon fill="midnightblue" stroke="midnightblue" points="911.44,-277.73 902.74,-283.77 913.31,-284.47 911.44,-277.73"/>
</g>
<!-- Node21&#45;&gt;Node14 -->
<g id="edge29" class="edge">
<title>Node21&#45;&gt;Node14</title>
<path fill="none" stroke="midnightblue" d="M782,-271.72C772.14,-263.2 762.87,-253.2 756.5,-242 738.74,-210.78 735.9,-168.44 736.17,-141.79"/>
<polygon fill="midnightblue" stroke="midnightblue" points="780.02,-274.63 789.99,-278.23 784.44,-269.2 780.02,-274.63"/>
</g>
<!-- Node22 -->
<g id="node22" class="node">
<title>Node22</title>
<g id="a_node22"><a xlink:href="PFPrediction_8cpp.html" target="_top" xlink:title=" ">
<polygon fill="white" stroke="black" points="766,-184 766,-236 873,-236 873,-184 766,-184"/>
<text text-anchor="start" x="774" y="-224" font-family="Helvetica,sans-Serif" font-size="10.00">/home/xenvre/robot</text>
<text text-anchor="start" x="774" y="-213" font-family="Helvetica,sans-Serif" font-size="10.00">&#45;code/bfl_robotology</text>
<text text-anchor="start" x="774" y="-202" font-family="Helvetica,sans-Serif" font-size="10.00">/src/BayesFilters/src</text>
<text text-anchor="middle" x="819.5" y="-191" font-family="Helvetica,sans-Serif" font-size="10.00">/PFPrediction.cpp</text>
</a>
</g>
</g>
<!-- Node21&#45;&gt;Node22 -->
<g id="edge30" class="edge">
<title>Node21&#45;&gt;Node22</title>
<path fill="none" stroke="midnightblue" d="M826.89,-267.99C825.52,-257.41 824.04,-246.03 822.78,-236.25"/>
<polygon fill="midnightblue" stroke="midnightblue" points="823.46,-268.76 828.22,-278.22 830.41,-267.86 823.46,-268.76"/>
</g>
<!-- Node23&#45;&gt;Node13 -->
<g id="edge32" class="edge">
<title>Node23&#45;&gt;Node13</title>
<path fill="none" stroke="midnightblue" d="M1134.61,-269.31C1140.41,-258.36 1146.73,-246.44 1152.13,-236.25"/>
<polygon fill="midnightblue" stroke="midnightblue" points="1131.48,-267.75 1129.89,-278.22 1137.66,-271.03 1131.48,-267.75"/>
</g>
<!-- Node23&#45;&gt;Node14 -->
<g id="edge34" class="edge">
<title>Node23&#45;&gt;Node14</title>
<path fill="none" stroke="midnightblue" d="M1099.88,-269.35C1082.53,-234.31 1056.72,-184.05 1048.5,-178 1028.72,-163.44 885.32,-139.28 800.31,-125.99"/>
<polygon fill="midnightblue" stroke="midnightblue" points="1096.75,-270.92 1104.31,-278.34 1103.03,-267.83 1096.75,-270.92"/>
</g>
<!-- Node23&#45;&gt;Node17 -->
<g id="edge33" class="edge">
<title>Node23&#45;&gt;Node17</title>
<path fill="none" stroke="midnightblue" d="M1194.95,-277.74C1272.41,-257.74 1295.24,-261.28 1369.5,-242 1376.5,-240.18 1383.73,-238.17 1390.95,-236.06"/>
<polygon fill="midnightblue" stroke="midnightblue" points="1194.01,-274.36 1185.23,-280.29 1195.79,-281.13 1194.01,-274.36"/>
</g>
<!-- Node24 -->
<g id="node24" class="node">
<title>Node24</title>
<g id="a_node24"><a xlink:href="Resampling_8cpp.html" target="_top" xlink:title=" ">
<polygon fill="white" stroke="black" points="1254,-184 1254,-236 1361,-236 1361,-184 1254,-184"/>
<text text-anchor="start" x="1262" y="-224" font-family="Helvetica,sans-Serif" font-size="10.00">/home/xenvre/robot</text>
<text text-anchor="start" x="1262" y="-213" font-family="Helvetica,sans-Serif" font-size="10.00">&#45;code/bfl_robotology</text>
<text text-anchor="start" x="1262" y="-202" font-family="Helvetica,sans-Serif" font-size="10.00">/src/BayesFilters/src</text>
<text text-anchor="middle" x="1307.5" y="-191" font-family="Helvetica,sans-Serif" font-size="10.00">/Resampling.cpp</text>
</a>
</g>
</g>
<!-- Node23&#45;&gt;Node24 -->
<g id="edge35" class="edge">
<title>Node23&#45;&gt;Node24</title>
<path fill="none" stroke="midnightblue" d="M1178.04,-274.08C1199.13,-263.95 1222.87,-252.52 1244.5,-242 1248.45,-240.08 1252.53,-238.09 1256.63,-236.08"/>
<polygon fill="midnightblue" stroke="midnightblue" points="1176.37,-271 1168.87,-278.48 1179.4,-277.31 1176.37,-271"/>
</g>
</g>
</svg>
        <g id="navigator" transform="translate(0 0)" fill="#404254">
                <rect fill="#f2f5e9" fill-opacity="0.5" stroke="#606060" stroke-width=".5" x="0" y="0" width="60" height="60"/>
                <use id="zoomplus" xlink:href="#zoomPlus" x="17" y="9" onmousedown="handleZoom(evt,'in')"/>
                <use id="zoomminus" xlink:href="#zoomMin" x="42" y="9" onmousedown="handleZoom(evt,'out')"/>
                <use id="reset" xlink:href="#resetDef" x="30" y="36" onmousedown="handleReset()"/>
                <g id="arrowUp" xlink:href="#dirArrow" transform="translate(30 24)" onmousedown="handlePan(0,-1)">
                  <use xlink:href="#rim" fill="#404040">
                        <set attributeName="fill" to="#808080" begin="arrowUp.mouseover" end="arrowUp.mouseout"/>
                  </use>
                  <path fill="none" stroke="white" stroke-width="1.5" d="M0,-3.0v7 M-2.5,-0.5L0,-3.0L2.5,-0.5"/>
                </g>
                <g id="arrowRight" xlink:href="#dirArrow" transform="rotate(90) translate(36 -43)" onmousedown="handlePan(1,0)">
                  <use xlink:href="#rim" fill="#404040">
                        <set attributeName="fill" to="#808080" begin="arrowRight.mouseover" end="arrowRight.mouseout"/>
                  </use>
                  <path fill="none" stroke="white" stroke-width="1.5" d="M0,-3.0v7 M-2.5,-0.5L0,-3.0L2.5,-0.5"/>
                </g>
                <g id="arrowDown" xlink:href="#dirArrow" transform="rotate(180) translate(-30 -48)" onmousedown="handlePan(0,1)">
                  <use xlink:href="#rim" fill="#404040">
                        <set attributeName="fill" to="#808080" begin="arrowDown.mouseover" end="arrowDown.mouseout"/>
                  </use>
                  <path fill="none" stroke="white" stroke-width="1.5" d="M0,-3.0v7 M-2.5,-0.5L0,-3.0L2.5,-0.5"/>
                </g>
                <g id="arrowLeft" xlink:href="#dirArrow" transform="rotate(270) translate(-36 17)" onmousedown="handlePan(-1,0)">
                  <use xlink:href="#rim" fill="#404040">
                        <set attributeName="fill" to="#808080" begin="arrowLeft.mouseover" end="arrowLeft.mouseout"/>
                  </use>
                  <path fill="none" stroke="white" stroke-width="1.5" d="M0,-3.0v7 M-2.5,-0.5L0,-3.0L2.5,-0.5"/>
                </g>
        </g>
        <svg viewBox="0 0 15 15" width="100%" height="30px" preserveAspectRatio="xMaxYMin meet">
         <g id="arrow_out" transform="scale(0.3 0.3)">
          <a xlink:href="ParticleSet_8h__dep__incl_org.svg" target="_base">
           <rect id="button" ry="5" rx="5" y="6" x="6" height="38" width="38"
                fill="#f2f5e9" fill-opacity="0.5" stroke="#606060" stroke-width="1.0"/>
           <path id="arrow"
             d="M 11.500037,31.436501 C 11.940474,20.09759 22.043105,11.32322 32.158766,21.979434 L 37.068811,17.246167 C 37.068811,17.246167 37.088388,32 37.088388,32 L 22.160133,31.978069 C 22.160133,31.978069 26.997745,27.140456 26.997745,27.140456 C 18.528582,18.264221 13.291696,25.230495 11.500037,31.436501 z"
             style="fill:#404040;"/>
          </a>
         </g>
        </svg>
</svg>
