<?xml version="1.0" encoding="UTF-8" standalone="no"?>
<!DOCTYPE svg PUBLIC "-//W3C//DTD SVG 1.1//EN"
 "http://www.w3.org/Graphics/SVG/1.1/DTD/svg11.dtd">
<!-- Generated by graphviz version 2.43.0 (0)
 -->
<!-- Title: /home/user/bayes&#45;filters&#45;lib/src/BayesFilters/include/BayesFilters/PFCorrection.h Pages: 1 -->
<svg width="783pt" height="341pt"
 viewBox="0.00 0.00 782.95 341.00" xmlns="http://www.w3.org/2000/svg" xmlns:xlink="http://www.w3.org/1999/xlink">
<g id="graph0" class="graph" transform="scale(1 1) rotate(0) translate(4 337)">
<title>/home/user/bayes&#45;filters&#45;lib/src/BayesFilters/include/BayesFilters/PFCorrection.h</title>
<polygon fill="white" stroke="transparent" points="-4,4 -4,-337 778.95,-337 778.95,4 -4,4"/>
<!-- Node1 -->
<g id="node1" class="node">
<title>Node1</title>
<g id="a_node1"><a xlink:title=" ">
<polygon fill="#bfbfbf" stroke="black" points="422,-291.5 422,-332.5 576,-332.5 576,-291.5 422,-291.5"/>
<text text-anchor="start" x="430" y="-320.5" font-family="Helvetica,sans-Serif" font-size="10.00">/home/user/bayes&#45;filters</text>
<text text-anchor="start" x="430" y="-309.5" font-family="Helvetica,sans-Serif" font-size="10.00">&#45;lib/src/BayesFilters/include</text>
<text text-anchor="middle" x="499" y="-298.5" font-family="Helvetica,sans-Serif" font-size="10.00">/BayesFilters/PFCorrection.h</text>
</a>
</g>
</g>
<!-- Node2 -->
<g id="node2" class="node">
<title>Node2</title>
<g id="a_node2"><a xlink:href="LikelihoodModel_8h.html" target="_top" xlink:title=" ">
<polygon fill="white" stroke="black" points="284,-235.5 284,-254.5 452,-254.5 452,-235.5 284,-235.5"/>
<text text-anchor="middle" x="368" y="-242.5" font-family="Helvetica,sans-Serif" font-size="10.00">BayesFilters/LikelihoodModel.h</text>
</a>
</g>
</g>
<!-- Node1&#45;&gt;Node2 -->
<g id="edge1" class="edge">
<title>Node1&#45;&gt;Node2</title>
<path fill="none" stroke="midnightblue" d="M459.7,-291.5C438.65,-281.05 413.27,-268.46 394.56,-259.18"/>
<polygon fill="midnightblue" stroke="midnightblue" points="395.95,-255.96 385.44,-254.65 392.84,-262.23 395.95,-255.96"/>
</g>
<!-- Node3 -->
<g id="node3" class="node">
<title>Node3</title>
<g id="a_node3"><a xlink:href="MeasurementModel_8h.html" target="_top" xlink:title=" ">
<polygon fill="white" stroke="black" points="318.5,-168.5 318.5,-198.5 465.5,-198.5 465.5,-168.5 318.5,-168.5"/>
<text text-anchor="start" x="326.5" y="-186.5" font-family="Helvetica,sans-Serif" font-size="10.00">BayesFilters/Measurement</text>
<text text-anchor="middle" x="392" y="-175.5" font-family="Helvetica,sans-Serif" font-size="10.00">Model.h</text>
</a>
</g>
</g>
<!-- Node1&#45;&gt;Node3 -->
<g id="edge22" class="edge">
<title>Node1&#45;&gt;Node3</title>
<path fill="none" stroke="midnightblue" d="M492.19,-291.4C485.87,-275.09 475.28,-251.91 461,-235 451.06,-223.23 437.83,-212.7 425.62,-204.34"/>
<polygon fill="midnightblue" stroke="midnightblue" points="427.25,-201.22 416.97,-198.65 423.4,-207.07 427.25,-201.22"/>
</g>
<!-- Node7 -->
<g id="node7" class="node">
<title>Node7</title>
<g id="a_node7"><a xlink:title=" ">
<polygon fill="white" stroke="#bfbfbf" points="9,-0.5 9,-19.5 67,-19.5 67,-0.5 9,-0.5"/>
<text text-anchor="middle" x="38" y="-7.5" font-family="Helvetica,sans-Serif" font-size="10.00">memory</text>
</a>
</g>
</g>
<!-- Node1&#45;&gt;Node7 -->
<g id="edge28" class="edge">
<title>Node1&#45;&gt;Node7</title>
<path fill="none" stroke="midnightblue" d="M421.85,-307.37C281.79,-298.67 0,-270.47 0,-184.5 0,-184.5 0,-184.5 0,-121 0,-86.81 16.6,-49.76 27.86,-28.57"/>
<polygon fill="midnightblue" stroke="midnightblue" points="30.95,-30.22 32.72,-19.77 24.82,-26.83 30.95,-30.22"/>
</g>
<!-- Node18 -->
<g id="node18" class="node">
<title>Node18</title>
<g id="a_node18"><a xlink:title=" ">
<polygon fill="white" stroke="#bfbfbf" points="568.5,-112.5 568.5,-131.5 613.5,-131.5 613.5,-112.5 568.5,-112.5"/>
<text text-anchor="middle" x="591" y="-119.5" font-family="Helvetica,sans-Serif" font-size="10.00">utility</text>
</a>
</g>
</g>
<!-- Node1&#45;&gt;Node18 -->
<g id="edge29" class="edge">
<title>Node1&#45;&gt;Node18</title>
<path fill="none" stroke="midnightblue" d="M501.57,-291.13C506.02,-262.17 517.21,-207.54 542,-168 549.31,-156.34 560.42,-145.79 570.22,-137.84"/>
<polygon fill="midnightblue" stroke="midnightblue" points="572.58,-140.44 578.36,-131.56 568.31,-134.9 572.58,-140.44"/>
</g>
<!-- Node19 -->
<g id="node19" class="node">
<title>Node19</title>
<g id="a_node19"><a xlink:title=" ">
<polygon fill="white" stroke="#bfbfbf" points="631.5,-112.5 631.5,-131.5 708.5,-131.5 708.5,-112.5 631.5,-112.5"/>
<text text-anchor="middle" x="670" y="-119.5" font-family="Helvetica,sans-Serif" font-size="10.00">Eigen/Dense</text>
</a>
</g>
</g>
<!-- Node1&#45;&gt;Node19 -->
<g id="edge30" class="edge">
<title>Node1&#45;&gt;Node19</title>
<path fill="none" stroke="midnightblue" d="M508.76,-291.27C527.19,-254.3 566.13,-177.41 576,-168 591.54,-153.18 612.87,-142.43 631.29,-135.16"/>
<polygon fill="midnightblue" stroke="midnightblue" points="632.74,-138.36 640.88,-131.58 630.29,-131.8 632.74,-138.36"/>
</g>
<!-- Node21 -->
<g id="node21" class="node">
<title>Node21</title>
<g id="a_node21"><a xlink:href="ParticleSet_8h.html" target="_top" xlink:title=" ">
<polygon fill="white" stroke="black" points="600,-235.5 600,-254.5 740,-254.5 740,-235.5 600,-235.5"/>
<text text-anchor="middle" x="670" y="-242.5" font-family="Helvetica,sans-Serif" font-size="10.00">BayesFilters/ParticleSet.h</text>
</a>
</g>
</g>
<!-- Node1&#45;&gt;Node21 -->
<g id="edge23" class="edge">
<title>Node1&#45;&gt;Node21</title>
<path fill="none" stroke="midnightblue" d="M550.31,-291.5C578.67,-280.72 613.04,-267.65 637.66,-258.29"/>
<polygon fill="midnightblue" stroke="midnightblue" points="639.13,-261.48 647.24,-254.65 636.65,-254.93 639.13,-261.48"/>
</g>
<!-- Node2&#45;&gt;Node3 -->
<g id="edge2" class="edge">
<title>Node2&#45;&gt;Node3</title>
<path fill="none" stroke="midnightblue" d="M371.44,-235.48C374.32,-228.32 378.59,-217.75 382.49,-208.08"/>
<polygon fill="midnightblue" stroke="midnightblue" points="385.85,-209.11 386.34,-198.52 379.36,-206.49 385.85,-209.11"/>
</g>
<!-- Node20 -->
<g id="node20" class="node">
<title>Node20</title>
<g id="a_node20"><a xlink:title=" ">
<polygon fill="white" stroke="#bfbfbf" points="231.5,-174 231.5,-193 300.5,-193 300.5,-174 231.5,-174"/>
<text text-anchor="middle" x="266" y="-181" font-family="Helvetica,sans-Serif" font-size="10.00">Eigen/Core</text>
</a>
</g>
</g>
<!-- Node2&#45;&gt;Node20 -->
<g id="edge21" class="edge">
<title>Node2&#45;&gt;Node20</title>
<path fill="none" stroke="midnightblue" d="M353.39,-235.48C336.65,-225.71 309,-209.58 289.28,-198.08"/>
<polygon fill="midnightblue" stroke="midnightblue" points="290.99,-195.02 280.59,-193.01 287.46,-201.07 290.99,-195.02"/>
</g>
<!-- Node4 -->
<g id="node4" class="node">
<title>Node4</title>
<g id="a_node4"><a xlink:href="Data_8h.html" target="_top" xlink:title=" ">
<polygon fill="white" stroke="black" points="438,-112.5 438,-131.5 550,-131.5 550,-112.5 438,-112.5"/>
<text text-anchor="middle" x="494" y="-119.5" font-family="Helvetica,sans-Serif" font-size="10.00">BayesFilters/Data.h</text>
</a>
</g>
</g>
<!-- Node3&#45;&gt;Node4 -->
<g id="edge3" class="edge">
<title>Node3&#45;&gt;Node4</title>
<path fill="none" stroke="midnightblue" d="M416.17,-168.4C432.52,-158.86 454.01,-146.32 470.27,-136.84"/>
<polygon fill="midnightblue" stroke="midnightblue" points="472.28,-139.72 479.16,-131.66 468.76,-133.67 472.28,-139.72"/>
</g>
<!-- Node3&#45;&gt;Node7 -->
<g id="edge17" class="edge">
<title>Node3&#45;&gt;Node7</title>
<path fill="none" stroke="midnightblue" d="M318.25,-169.49C315.13,-168.98 312.03,-168.48 309,-168 253.13,-159.13 97.28,-171.72 57,-132 29.71,-105.09 31.43,-56.09 34.84,-29.44"/>
<polygon fill="midnightblue" stroke="midnightblue" points="38.3,-29.93 36.32,-19.52 31.38,-28.9 38.3,-29.93"/>
</g>
<!-- Node11 -->
<g id="node11" class="node">
<title>Node11</title>
<g id="a_node11"><a xlink:href="Logger_8h.html" target="_top" xlink:title=" ">
<polygon fill="white" stroke="black" points="66.5,-112.5 66.5,-131.5 187.5,-131.5 187.5,-112.5 66.5,-112.5"/>
<text text-anchor="middle" x="127" y="-119.5" font-family="Helvetica,sans-Serif" font-size="10.00">BayesFilters/Logger.h</text>
</a>
</g>
</g>
<!-- Node3&#45;&gt;Node11 -->
<g id="edge10" class="edge">
<title>Node3&#45;&gt;Node11</title>
<path fill="none" stroke="midnightblue" d="M329.53,-168.47C282.22,-157.85 218.18,-143.47 174.88,-133.75"/>
<polygon fill="midnightblue" stroke="midnightblue" points="175.41,-130.28 164.89,-131.51 173.88,-137.11 175.41,-130.28"/>
</g>
<!-- Node14 -->
<g id="node14" class="node">
<title>Node14</title>
<g id="a_node14"><a xlink:title=" ">
<polygon fill="white" stroke="#bfbfbf" points="218,-56.5 218,-75.5 262,-75.5 262,-56.5 218,-56.5"/>
<text text-anchor="middle" x="240" y="-63.5" font-family="Helvetica,sans-Serif" font-size="10.00">string</text>
</a>
</g>
</g>
<!-- Node3&#45;&gt;Node14 -->
<g id="edge18" class="edge">
<title>Node3&#45;&gt;Node14</title>
<path fill="none" stroke="midnightblue" d="M322.02,-168.46C285.35,-159.53 245.84,-146.87 235,-132 225.23,-118.59 228.29,-99.22 232.69,-85.11"/>
<polygon fill="midnightblue" stroke="midnightblue" points="236.04,-86.13 236.13,-75.54 229.45,-83.77 236.04,-86.13"/>
</g>
<!-- Node16 -->
<g id="node16" class="node">
<title>Node16</title>
<g id="a_node16"><a xlink:href="VectorDescription_8h.html" target="_top" xlink:title=" ">
<polygon fill="white" stroke="black" points="244.5,-112.5 244.5,-131.5 419.5,-131.5 419.5,-112.5 244.5,-112.5"/>
<text text-anchor="middle" x="332" y="-119.5" font-family="Helvetica,sans-Serif" font-size="10.00">BayesFilters/VectorDescription.h</text>
</a>
</g>
</g>
<!-- Node3&#45;&gt;Node16 -->
<g id="edge15" class="edge">
<title>Node3&#45;&gt;Node16</title>
<path fill="none" stroke="midnightblue" d="M377.78,-168.4C368.79,-159.49 357.16,-147.95 347.87,-138.74"/>
<polygon fill="midnightblue" stroke="midnightblue" points="350.3,-136.21 340.73,-131.66 345.37,-141.18 350.3,-136.21"/>
</g>
<!-- Node3&#45;&gt;Node18 -->
<g id="edge19" class="edge">
<title>Node3&#45;&gt;Node18</title>
<path fill="none" stroke="midnightblue" d="M438.91,-168.47C475.72,-157.47 526,-142.43 558.49,-132.72"/>
<polygon fill="midnightblue" stroke="midnightblue" points="559.8,-135.98 568.37,-129.76 557.79,-129.28 559.8,-135.98"/>
</g>
<!-- Node3&#45;&gt;Node19 -->
<g id="edge20" class="edge">
<title>Node3&#45;&gt;Node19</title>
<path fill="none" stroke="midnightblue" d="M457.53,-168.47C507.82,-157.71 576.12,-143.09 621.56,-133.37"/>
<polygon fill="midnightblue" stroke="midnightblue" points="622.42,-136.76 631.46,-131.25 620.95,-129.92 622.42,-136.76"/>
</g>
<!-- Node5 -->
<g id="node5" class="node">
<title>Node5</title>
<g id="a_node5"><a xlink:href="any_8h.html" target="_top" xlink:title=" ">
<polygon fill="white" stroke="black" points="409.5,-56.5 409.5,-75.5 514.5,-75.5 514.5,-56.5 409.5,-56.5"/>
<text text-anchor="middle" x="462" y="-63.5" font-family="Helvetica,sans-Serif" font-size="10.00">BayesFilters/any.h</text>
</a>
</g>
</g>
<!-- Node4&#45;&gt;Node5 -->
<g id="edge4" class="edge">
<title>Node4&#45;&gt;Node5</title>
<path fill="none" stroke="midnightblue" d="M488.72,-112.08C484.29,-104.61 477.84,-93.72 472.38,-84.52"/>
<polygon fill="midnightblue" stroke="midnightblue" points="475.29,-82.57 467.19,-75.75 469.27,-86.14 475.29,-82.57"/>
</g>
<!-- Node6 -->
<g id="node6" class="node">
<title>Node6</title>
<g id="a_node6"><a xlink:title=" ">
<polygon fill="white" stroke="#bfbfbf" points="472,-0.5 472,-19.5 536,-19.5 536,-0.5 472,-0.5"/>
<text text-anchor="middle" x="504" y="-7.5" font-family="Helvetica,sans-Serif" font-size="10.00">algorithm</text>
</a>
</g>
</g>
<!-- Node5&#45;&gt;Node6 -->
<g id="edge5" class="edge">
<title>Node5&#45;&gt;Node6</title>
<path fill="none" stroke="midnightblue" d="M468.94,-56.08C474.93,-48.38 483.75,-37.03 491.05,-27.65"/>
<polygon fill="midnightblue" stroke="midnightblue" points="493.82,-29.79 497.19,-19.75 488.29,-25.5 493.82,-29.79"/>
</g>
<!-- Node5&#45;&gt;Node7 -->
<g id="edge6" class="edge">
<title>Node5&#45;&gt;Node7</title>
<path fill="none" stroke="midnightblue" d="M409.16,-58.27C322.86,-47.28 153.66,-25.73 77.19,-15.99"/>
<polygon fill="midnightblue" stroke="midnightblue" points="77.39,-12.49 67.03,-14.7 76.5,-19.43 77.39,-12.49"/>
</g>
<!-- Node8 -->
<g id="node8" class="node">
<title>Node8</title>
<g id="a_node8"><a xlink:title=" ">
<polygon fill="white" stroke="#bfbfbf" points="554.5,-0.5 554.5,-19.5 619.5,-19.5 619.5,-0.5 554.5,-0.5"/>
<text text-anchor="middle" x="587" y="-7.5" font-family="Helvetica,sans-Serif" font-size="10.00">stdexcept</text>
</a>
</g>
</g>
<!-- Node5&#45;&gt;Node8 -->
<g id="edge7" class="edge">
<title>Node5&#45;&gt;Node8</title>
<path fill="none" stroke="midnightblue" d="M481.81,-56.44C502.29,-47.6 534.48,-33.69 557.86,-23.59"/>
<polygon fill="midnightblue" stroke="midnightblue" points="559.49,-26.7 567.29,-19.52 556.72,-20.27 559.49,-26.7"/>
</g>
<!-- Node9 -->
<g id="node9" class="node">
<title>Node9</title>
<g id="a_node9"><a xlink:title=" ">
<polygon fill="white" stroke="#bfbfbf" points="309.5,-0.5 309.5,-19.5 366.5,-19.5 366.5,-0.5 309.5,-0.5"/>
<text text-anchor="middle" x="338" y="-7.5" font-family="Helvetica,sans-Serif" font-size="10.00">typeinfo</text>
</a>
</g>
</g>
<!-- Node5&#45;&gt;Node9 -->
<g id="edge8" class="edge">
<title>Node5&#45;&gt;Node9</title>
<path fill="none" stroke="midnightblue" d="M442.35,-56.44C422.04,-47.6 390.1,-33.69 366.9,-23.59"/>
<polygon fill="midnightblue" stroke="midnightblue" points="368.12,-20.3 357.56,-19.52 365.33,-26.72 368.12,-20.3"/>
</g>
<!-- Node10 -->
<g id="node10" class="node">
<title>Node10</title>
<g id="a_node10"><a xlink:title=" ">
<polygon fill="white" stroke="#bfbfbf" points="384.5,-0.5 384.5,-19.5 453.5,-19.5 453.5,-0.5 384.5,-0.5"/>
<text text-anchor="middle" x="419" y="-7.5" font-family="Helvetica,sans-Serif" font-size="10.00">type_traits</text>
</a>
</g>
</g>
<!-- Node5&#45;&gt;Node10 -->
<g id="edge9" class="edge">
<title>Node5&#45;&gt;Node10</title>
<path fill="none" stroke="midnightblue" d="M454.9,-56.08C448.76,-48.38 439.73,-37.03 432.26,-27.65"/>
<polygon fill="midnightblue" stroke="midnightblue" points="434.94,-25.39 425.97,-19.75 429.46,-29.75 434.94,-25.39"/>
</g>
<!-- Node12 -->
<g id="node12" class="node">
<title>Node12</title>
<g id="a_node12"><a xlink:title=" ">
<polygon fill="white" stroke="#bfbfbf" points="66.5,-56.5 66.5,-75.5 121.5,-75.5 121.5,-56.5 66.5,-56.5"/>
<text text-anchor="middle" x="94" y="-63.5" font-family="Helvetica,sans-Serif" font-size="10.00">fstream</text>
</a>
</g>
</g>
<!-- Node11&#45;&gt;Node12 -->
<g id="edge11" class="edge">
<title>Node11&#45;&gt;Node12</title>
<path fill="none" stroke="midnightblue" d="M121.55,-112.08C116.99,-104.61 110.33,-93.72 104.71,-84.52"/>
<polygon fill="midnightblue" stroke="midnightblue" points="107.55,-82.46 99.35,-75.75 101.58,-86.11 107.55,-82.46"/>
</g>
<!-- Node13 -->
<g id="node13" class="node">
<title>Node13</title>
<g id="a_node13"><a xlink:title=" ">
<polygon fill="white" stroke="#bfbfbf" points="140,-56.5 140,-75.5 200,-75.5 200,-56.5 140,-56.5"/>
<text text-anchor="middle" x="170" y="-63.5" font-family="Helvetica,sans-Serif" font-size="10.00">iostream</text>
</a>
</g>
</g>
<!-- Node11&#45;&gt;Node13 -->
<g id="edge12" class="edge">
<title>Node11&#45;&gt;Node13</title>
<path fill="none" stroke="midnightblue" d="M134.1,-112.08C140.24,-104.38 149.27,-93.03 156.74,-83.65"/>
<polygon fill="midnightblue" stroke="midnightblue" points="159.54,-85.75 163.03,-75.75 154.06,-81.39 159.54,-85.75"/>
</g>
<!-- Node11&#45;&gt;Node14 -->
<g id="edge13" class="edge">
<title>Node11&#45;&gt;Node14</title>
<path fill="none" stroke="midnightblue" d="M144.91,-112.44C163.25,-103.68 192.01,-89.94 213.09,-79.86"/>
<polygon fill="midnightblue" stroke="midnightblue" points="214.67,-82.99 222.18,-75.52 211.65,-76.67 214.67,-82.99"/>
</g>
<!-- Node15 -->
<g id="node15" class="node">
<title>Node15</title>
<g id="a_node15"><a xlink:title=" ">
<polygon fill="white" stroke="#bfbfbf" points="713.5,-56.5 713.5,-75.5 760.5,-75.5 760.5,-56.5 713.5,-56.5"/>
<text text-anchor="middle" x="737" y="-63.5" font-family="Helvetica,sans-Serif" font-size="10.00">vector</text>
</a>
</g>
</g>
<!-- Node11&#45;&gt;Node15 -->
<g id="edge14" class="edge">
<title>Node11&#45;&gt;Node15</title>
<path fill="none" stroke="midnightblue" d="M187.72,-115.62C314.64,-104.39 604.41,-78.74 703.25,-69.99"/>
<polygon fill="midnightblue" stroke="midnightblue" points="703.62,-73.47 713.27,-69.1 703,-66.5 703.62,-73.47"/>
</g>
<!-- Node17 -->
<g id="node17" class="node">
<title>Node17</title>
<g id="a_node17"><a xlink:title=" ">
<polygon fill="white" stroke="#bfbfbf" points="305.5,-56.5 305.5,-75.5 358.5,-75.5 358.5,-56.5 305.5,-56.5"/>
<text text-anchor="middle" x="332" y="-63.5" font-family="Helvetica,sans-Serif" font-size="10.00">cstddef</text>
</a>
</g>
</g>
<!-- Node16&#45;&gt;Node17 -->
<g id="edge16" class="edge">
<title>Node16&#45;&gt;Node17</title>
<path fill="none" stroke="midnightblue" d="M332,-112.08C332,-105.01 332,-94.86 332,-85.99"/>
<polygon fill="midnightblue" stroke="midnightblue" points="335.5,-85.75 332,-75.75 328.5,-85.75 335.5,-85.75"/>
</g>
<!-- Node21&#45;&gt;Node15 -->
<g id="edge27" class="edge">
<title>Node21&#45;&gt;Node15</title>
<path fill="none" stroke="midnightblue" d="M711.05,-235.38C730.96,-228.92 753.09,-217.81 765,-199 787.87,-162.86 763.88,-111.13 748.23,-84.43"/>
<polygon fill="midnightblue" stroke="midnightblue" points="751.16,-82.5 742.95,-75.8 745.19,-86.15 751.16,-82.5"/>
</g>
<!-- Node22 -->
<g id="node22" class="node">
<title>Node22</title>
<g id="a_node22"><a xlink:href="GaussianMixture_8h.html" target="_top" xlink:title=" ">
<polygon fill="white" stroke="black" points="584.5,-174 584.5,-193 755.5,-193 755.5,-174 584.5,-174"/>
<text text-anchor="middle" x="670" y="-181" font-family="Helvetica,sans-Serif" font-size="10.00">BayesFilters/GaussianMixture.h</text>
</a>
</g>
</g>
<!-- Node21&#45;&gt;Node22 -->
<g id="edge24" class="edge">
<title>Node21&#45;&gt;Node22</title>
<path fill="none" stroke="midnightblue" d="M670,-235.48C670,-227.08 670,-213.98 670,-203.16"/>
<polygon fill="midnightblue" stroke="midnightblue" points="673.5,-203.01 670,-193.01 666.5,-203.01 673.5,-203.01"/>
</g>
<!-- Node22&#45;&gt;Node15 -->
<g id="edge25" class="edge">
<title>Node22&#45;&gt;Node15</title>
<path fill="none" stroke="midnightblue" d="M680.71,-173.94C691.6,-164.7 708.23,-148.98 718,-132 726.34,-117.51 731.28,-99.07 734.02,-85.53"/>
<polygon fill="midnightblue" stroke="midnightblue" points="737.49,-85.97 735.83,-75.5 730.61,-84.72 737.49,-85.97"/>
</g>
<!-- Node22&#45;&gt;Node19 -->
<g id="edge26" class="edge">
<title>Node22&#45;&gt;Node19</title>
<path fill="none" stroke="midnightblue" d="M670,-173.98C670,-165.58 670,-152.48 670,-141.66"/>
<polygon fill="midnightblue" stroke="midnightblue" points="673.5,-141.51 670,-131.51 666.5,-141.51 673.5,-141.51"/>
</g>
</g>
</svg>
