<?xml version="1.0" encoding="UTF-8" standalone="no"?>
<!DOCTYPE svg PUBLIC "-//W3C//DTD SVG 1.1//EN"
 "http://www.w3.org/Graphics/SVG/1.1/DTD/svg11.dtd">
<!-- Generated by graphviz version 2.43.0 (0)
 -->
<!-- Title: /home/user/bayes&#45;filters&#45;lib/src/BayesFilters/include/BayesFilters/PFCorrection.h Pages: 1 -->
<svg width="738pt" height="284pt"
 viewBox="0.00 0.00 738.00 284.00" xmlns="http://www.w3.org/2000/svg" xmlns:xlink="http://www.w3.org/1999/xlink">
<g id="graph0" class="graph" transform="scale(1 1) rotate(0) translate(4 280)">
<title>/home/user/bayes&#45;filters&#45;lib/src/BayesFilters/include/BayesFilters/PFCorrection.h</title>
<polygon fill="white" stroke="transparent" points="-4,4 -4,-280 734,-280 734,4 -4,4"/>
<!-- Node1 -->
<g id="node1" class="node">
<title>Node1</title>
<g id="a_node1"><a xlink:title=" ">
<polygon fill="#bfbfbf" stroke="black" points="319.5,-234.5 319.5,-275.5 473.5,-275.5 473.5,-234.5 319.5,-234.5"/>
<text text-anchor="start" x="327.5" y="-263.5" font-family="Helvetica,sans-Serif" font-size="10.00">/home/user/bayes&#45;filters</text>
<text text-anchor="start" x="327.5" y="-252.5" font-family="Helvetica,sans-Serif" font-size="10.00">&#45;lib/src/BayesFilters/include</text>
<text text-anchor="middle" x="396.5" y="-241.5" font-family="Helvetica,sans-Serif" font-size="10.00">/BayesFilters/PFCorrection.h</text>
</a>
</g>
</g>
<!-- Node2 -->
<g id="node2" class="node">
<title>Node2</title>
<g id="a_node2"><a xlink:href="BootstrapCorrection_8h.html" target="_top" xlink:title=" ">
<polygon fill="white" stroke="black" points="0,-156.5 0,-197.5 189,-197.5 189,-156.5 0,-156.5"/>
<text text-anchor="start" x="8" y="-185.5" font-family="Helvetica,sans-Serif" font-size="10.00">/home/user/bayes&#45;filters</text>
<text text-anchor="start" x="8" y="-174.5" font-family="Helvetica,sans-Serif" font-size="10.00">&#45;lib/src/BayesFilters/include</text>
<text text-anchor="middle" x="94.5" y="-163.5" font-family="Helvetica,sans-Serif" font-size="10.00">/BayesFilters/BootstrapCorrection.h</text>
</a>
</g>
</g>
<!-- Node1&#45;&gt;Node2 -->
<g id="edge1" class="edge">
<title>Node1&#45;&gt;Node2</title>
<path fill="none" stroke="midnightblue" d="M309.17,-232.02C265.9,-221.13 214.09,-208.09 172.2,-197.55"/>
<polygon fill="midnightblue" stroke="midnightblue" points="308.57,-235.48 319.12,-234.53 310.28,-228.69 308.57,-235.48"/>
</g>
<!-- Node4 -->
<g id="node4" class="node">
<title>Node4</title>
<g id="a_node4"><a xlink:href="GPFCorrection_8h.html" target="_top" xlink:title=" ">
<polygon fill="white" stroke="black" points="207,-156.5 207,-197.5 368,-197.5 368,-156.5 207,-156.5"/>
<text text-anchor="start" x="215" y="-185.5" font-family="Helvetica,sans-Serif" font-size="10.00">/home/user/bayes&#45;filters</text>
<text text-anchor="start" x="215" y="-174.5" font-family="Helvetica,sans-Serif" font-size="10.00">&#45;lib/src/BayesFilters/include</text>
<text text-anchor="middle" x="287.5" y="-163.5" font-family="Helvetica,sans-Serif" font-size="10.00">/BayesFilters/GPFCorrection.h</text>
</a>
</g>
</g>
<!-- Node1&#45;&gt;Node4 -->
<g id="edge3" class="edge">
<title>Node1&#45;&gt;Node4</title>
<path fill="none" stroke="midnightblue" d="M360.12,-228.64C345.57,-218.49 329.07,-206.98 315.48,-197.51"/>
<polygon fill="midnightblue" stroke="midnightblue" points="358.23,-231.58 368.43,-234.43 362.23,-225.84 358.23,-231.58"/>
</g>
<!-- Node6 -->
<g id="node6" class="node">
<title>Node6</title>
<g id="a_node6"><a xlink:href="ParticleFilter_8h.html" target="_top" xlink:title=" ">
<polygon fill="white" stroke="black" points="424.5,-156.5 424.5,-197.5 576.5,-197.5 576.5,-156.5 424.5,-156.5"/>
<text text-anchor="start" x="432.5" y="-185.5" font-family="Helvetica,sans-Serif" font-size="10.00">/home/user/bayes&#45;filters</text>
<text text-anchor="start" x="432.5" y="-174.5" font-family="Helvetica,sans-Serif" font-size="10.00">&#45;lib/src/BayesFilters/include</text>
<text text-anchor="middle" x="500.5" y="-163.5" font-family="Helvetica,sans-Serif" font-size="10.00">/BayesFilters/ParticleFilter.h</text>
</a>
</g>
</g>
<!-- Node1&#45;&gt;Node6 -->
<g id="edge5" class="edge">
<title>Node1&#45;&gt;Node6</title>
<path fill="none" stroke="midnightblue" d="M431.6,-228.35C445.39,-218.27 460.96,-206.89 473.81,-197.51"/>
<polygon fill="midnightblue" stroke="midnightblue" points="429.29,-225.7 423.28,-234.43 433.42,-231.35 429.29,-225.7"/>
</g>
<!-- Node7 -->
<g id="node7" class="node">
<title>Node7</title>
<g id="a_node7"><a xlink:href="SIS_8h.html" target="_top" xlink:title=" ">
<polygon fill="white" stroke="black" points="353,-78.5 353,-119.5 504,-119.5 504,-78.5 353,-78.5"/>
<text text-anchor="start" x="361" y="-107.5" font-family="Helvetica,sans-Serif" font-size="10.00">/home/user/bayes&#45;filters</text>
<text text-anchor="start" x="361" y="-96.5" font-family="Helvetica,sans-Serif" font-size="10.00">&#45;lib/src/BayesFilters/include</text>
<text text-anchor="middle" x="428.5" y="-85.5" font-family="Helvetica,sans-Serif" font-size="10.00">/BayesFilters/SIS.h</text>
</a>
</g>
</g>
<!-- Node1&#45;&gt;Node7 -->
<g id="edge9" class="edge">
<title>Node1&#45;&gt;Node7</title>
<path fill="none" stroke="midnightblue" d="M401.96,-224.35C405.61,-204.88 410.63,-178.88 415.5,-156 418.08,-143.9 421.21,-130.38 423.75,-119.66"/>
<polygon fill="midnightblue" stroke="midnightblue" points="398.47,-223.96 400.08,-234.43 405.35,-225.25 398.47,-223.96"/>
</g>
<!-- Node10 -->
<g id="node10" class="node">
<title>Node10</title>
<g id="a_node10"><a xlink:href="PFCorrection_8cpp.html" target="_top" xlink:title=" ">
<polygon fill="white" stroke="black" points="595,-156.5 595,-197.5 730,-197.5 730,-156.5 595,-156.5"/>
<text text-anchor="start" x="603" y="-185.5" font-family="Helvetica,sans-Serif" font-size="10.00">/home/user/bayes&#45;filters</text>
<text text-anchor="start" x="603" y="-174.5" font-family="Helvetica,sans-Serif" font-size="10.00">&#45;lib/src/BayesFilters/src</text>
<text text-anchor="middle" x="662.5" y="-163.5" font-family="Helvetica,sans-Serif" font-size="10.00">/PFCorrection.cpp</text>
</a>
</g>
</g>
<!-- Node1&#45;&gt;Node10 -->
<g id="edge10" class="edge">
<title>Node1&#45;&gt;Node10</title>
<path fill="none" stroke="midnightblue" d="M475.01,-231.57C513.02,-220.71 558.2,-207.8 594.69,-197.37"/>
<polygon fill="midnightblue" stroke="midnightblue" points="473.66,-228.32 465,-234.43 475.58,-235.05 473.66,-228.32"/>
</g>
<!-- Node3 -->
<g id="node3" class="node">
<title>Node3</title>
<g id="a_node3"><a xlink:href="BootstrapCorrection_8cpp.html" target="_top" xlink:title=" ">
<polygon fill="white" stroke="black" points="26,-78.5 26,-119.5 163,-119.5 163,-78.5 26,-78.5"/>
<text text-anchor="start" x="34" y="-107.5" font-family="Helvetica,sans-Serif" font-size="10.00">/home/user/bayes&#45;filters</text>
<text text-anchor="start" x="34" y="-96.5" font-family="Helvetica,sans-Serif" font-size="10.00">&#45;lib/src/BayesFilters/src</text>
<text text-anchor="middle" x="94.5" y="-85.5" font-family="Helvetica,sans-Serif" font-size="10.00">/BootstrapCorrection.cpp</text>
</a>
</g>
</g>
<!-- Node2&#45;&gt;Node3 -->
<g id="edge2" class="edge">
<title>Node2&#45;&gt;Node3</title>
<path fill="none" stroke="midnightblue" d="M94.5,-146.3C94.5,-137.3 94.5,-127.65 94.5,-119.51"/>
<polygon fill="midnightblue" stroke="midnightblue" points="91,-146.43 94.5,-156.43 98,-146.43 91,-146.43"/>
</g>
<!-- Node5 -->
<g id="node5" class="node">
<title>Node5</title>
<g id="a_node5"><a xlink:href="GPFCorrection_8cpp.html" target="_top" xlink:title=" ">
<polygon fill="white" stroke="black" points="200,-78.5 200,-119.5 335,-119.5 335,-78.5 200,-78.5"/>
<text text-anchor="start" x="208" y="-107.5" font-family="Helvetica,sans-Serif" font-size="10.00">/home/user/bayes&#45;filters</text>
<text text-anchor="start" x="208" y="-96.5" font-family="Helvetica,sans-Serif" font-size="10.00">&#45;lib/src/BayesFilters/src</text>
<text text-anchor="middle" x="267.5" y="-85.5" font-family="Helvetica,sans-Serif" font-size="10.00">/GPFCorrection.cpp</text>
</a>
</g>
</g>
<!-- Node4&#45;&gt;Node5 -->
<g id="edge4" class="edge">
<title>Node4&#45;&gt;Node5</title>
<path fill="none" stroke="midnightblue" d="M279.76,-146.59C277.37,-137.51 274.8,-127.74 272.63,-119.51"/>
<polygon fill="midnightblue" stroke="midnightblue" points="276.42,-147.65 282.35,-156.43 283.19,-145.87 276.42,-147.65"/>
</g>
<!-- Node6&#45;&gt;Node7 -->
<g id="edge6" class="edge">
<title>Node6&#45;&gt;Node7</title>
<path fill="none" stroke="midnightblue" d="M474.84,-148.92C465.64,-139.2 455.45,-128.45 446.98,-119.51"/>
<polygon fill="midnightblue" stroke="midnightblue" points="472.54,-151.58 481.96,-156.43 477.62,-146.76 472.54,-151.58"/>
</g>
<!-- Node9 -->
<g id="node9" class="node">
<title>Node9</title>
<g id="a_node9"><a xlink:href="ParticleFilter_8cpp.html" target="_top" xlink:title=" ">
<polygon fill="white" stroke="black" points="522,-78.5 522,-119.5 657,-119.5 657,-78.5 522,-78.5"/>
<text text-anchor="start" x="530" y="-107.5" font-family="Helvetica,sans-Serif" font-size="10.00">/home/user/bayes&#45;filters</text>
<text text-anchor="start" x="530" y="-96.5" font-family="Helvetica,sans-Serif" font-size="10.00">&#45;lib/src/BayesFilters/src</text>
<text text-anchor="middle" x="589.5" y="-85.5" font-family="Helvetica,sans-Serif" font-size="10.00">/ParticleFilter.cpp</text>
</a>
</g>
</g>
<!-- Node6&#45;&gt;Node9 -->
<g id="edge8" class="edge">
<title>Node6&#45;&gt;Node9</title>
<path fill="none" stroke="midnightblue" d="M531.21,-149.78C542.84,-139.84 555.87,-128.72 566.66,-119.51"/>
<polygon fill="midnightblue" stroke="midnightblue" points="528.75,-147.27 523.42,-156.43 533.3,-152.6 528.75,-147.27"/>
</g>
<!-- Node8 -->
<g id="node8" class="node">
<title>Node8</title>
<g id="a_node8"><a xlink:href="SIS_8cpp.html" target="_top" xlink:title=" ">
<polygon fill="white" stroke="black" points="361,-0.5 361,-41.5 496,-41.5 496,-0.5 361,-0.5"/>
<text text-anchor="start" x="369" y="-29.5" font-family="Helvetica,sans-Serif" font-size="10.00">/home/user/bayes&#45;filters</text>
<text text-anchor="start" x="369" y="-18.5" font-family="Helvetica,sans-Serif" font-size="10.00">&#45;lib/src/BayesFilters/src</text>
<text text-anchor="middle" x="428.5" y="-7.5" font-family="Helvetica,sans-Serif" font-size="10.00">/SIS.cpp</text>
</a>
</g>
</g>
<!-- Node7&#45;&gt;Node8 -->
<g id="edge7" class="edge">
<title>Node7&#45;&gt;Node8</title>
<path fill="none" stroke="midnightblue" d="M428.5,-68.3C428.5,-59.3 428.5,-49.65 428.5,-41.51"/>
<polygon fill="midnightblue" stroke="midnightblue" points="425,-68.43 428.5,-78.43 432,-68.43 425,-68.43"/>
</g>
</g>
</svg>
