<?xml version="1.0" encoding="UTF-8" standalone="no"?>
<!DOCTYPE svg PUBLIC "-//W3C//DTD SVG 1.1//EN"
 "http://www.w3.org/Graphics/SVG/1.1/DTD/svg11.dtd">
<!-- Generated by graphviz version 2.47.2 (0)
 -->
<!-- Title: /home/xenvre/robot&#45;code/bfl_robotology/src/BayesFilters/include/BayesFilters/PFCorrection.h Pages: 1 -->
<svg width="643pt" height="352pt"
 viewBox="0.00 0.00 643.10 352.00" xmlns="http://www.w3.org/2000/svg" xmlns:xlink="http://www.w3.org/1999/xlink">
<g id="graph0" class="graph" transform="scale(1 1) rotate(0) translate(4 348)">
<title>/home/xenvre/robot&#45;code/bfl_robotology/src/BayesFilters/include/BayesFilters/PFCorrection.h</title>
<polygon fill="white" stroke="transparent" points="-4,4 -4,-348 639.1,-348 639.1,4 -4,4"/>
<!-- Node1 -->
<g id="node1" class="node">
<title>Node1</title>
<g id="a_node1"><a xlink:title=" ">
<polygon fill="#bfbfbf" stroke="black" points="273.5,-291.5 273.5,-343.5 416.5,-343.5 416.5,-291.5 273.5,-291.5"/>
<text text-anchor="start" x="281.5" y="-331.5" font-family="Helvetica,sans-Serif" font-size="10.00">/home/xenvre/robot</text>
<text text-anchor="start" x="281.5" y="-320.5" font-family="Helvetica,sans-Serif" font-size="10.00">&#45;code/bfl_robotology</text>
<text text-anchor="start" x="281.5" y="-309.5" font-family="Helvetica,sans-Serif" font-size="10.00">/src/BayesFilters/include</text>
<text text-anchor="middle" x="345" y="-298.5" font-family="Helvetica,sans-Serif" font-size="10.00">/BayesFilters/PFCorrection.h</text>
</a>
</g>
</g>
<!-- Node2 -->
<g id="node2" class="node">
<title>Node2</title>
<g id="a_node2"><a xlink:href="LikelihoodModel_8h.html" target="_top" xlink:title=" ">
<polygon fill="white" stroke="black" points="217,-235.5 217,-254.5 369,-254.5 369,-235.5 217,-235.5"/>
<text text-anchor="middle" x="293" y="-242.5" font-family="Helvetica,sans-Serif" font-size="10.00">BayesFilters/LikelihoodModel.h</text>
</a>
</g>
</g>
<!-- Node1&#45;&gt;Node2 -->
<g id="edge1" class="edge">
<title>Node1&#45;&gt;Node2</title>
<path fill="none" stroke="midnightblue" d="M326.52,-291.45C319.5,-281.93 311.68,-271.33 305.36,-262.76"/>
<polygon fill="midnightblue" stroke="midnightblue" points="308.17,-260.67 299.41,-254.7 302.53,-264.82 308.17,-260.67"/>
</g>
<!-- Node3 -->
<g id="node3" class="node">
<title>Node3</title>
<g id="a_node3"><a xlink:href="MeasurementModel_8h.html" target="_top" xlink:title=" ">
<polygon fill="white" stroke="black" points="151,-168.5 151,-198.5 285,-198.5 285,-168.5 151,-168.5"/>
<text text-anchor="start" x="159" y="-186.5" font-family="Helvetica,sans-Serif" font-size="10.00">BayesFilters/Measurement</text>
<text text-anchor="middle" x="218" y="-175.5" font-family="Helvetica,sans-Serif" font-size="10.00">Model.h</text>
</a>
</g>
</g>
<!-- Node1&#45;&gt;Node3 -->
<g id="edge20" class="edge">
<title>Node1&#45;&gt;Node3</title>
<path fill="none" stroke="midnightblue" d="M273.4,-301.41C248.35,-292.32 222.8,-277.87 208,-255 199.05,-241.17 202.13,-222.64 207.13,-208.04"/>
<polygon fill="midnightblue" stroke="midnightblue" points="210.41,-209.26 210.79,-198.68 203.89,-206.72 210.41,-209.26"/>
</g>
<!-- Node7 -->
<g id="node7" class="node">
<title>Node7</title>
<g id="a_node7"><a xlink:title=" ">
<polygon fill="white" stroke="#bfbfbf" points="12,-0.5 12,-19.5 64,-19.5 64,-0.5 12,-0.5"/>
<text text-anchor="middle" x="38" y="-7.5" font-family="Helvetica,sans-Serif" font-size="10.00">memory</text>
</a>
</g>
</g>
<!-- Node1&#45;&gt;Node7 -->
<g id="edge26" class="edge">
<title>Node1&#45;&gt;Node7</title>
<path fill="none" stroke="midnightblue" d="M273.1,-304.01C171.99,-284.38 0,-242.46 0,-184.5 0,-184.5 0,-184.5 0,-121 0,-86.81 16.6,-49.76 27.86,-28.57"/>
<polygon fill="midnightblue" stroke="midnightblue" points="30.95,-30.22 32.72,-19.77 24.82,-26.83 30.95,-30.22"/>
</g>
<!-- Node16 -->
<g id="node16" class="node">
<title>Node16</title>
<g id="a_node16"><a xlink:title=" ">
<polygon fill="white" stroke="#bfbfbf" points="377,-112.5 377,-131.5 417,-131.5 417,-112.5 377,-112.5"/>
<text text-anchor="middle" x="397" y="-119.5" font-family="Helvetica,sans-Serif" font-size="10.00">utility</text>
</a>
</g>
</g>
<!-- Node1&#45;&gt;Node16 -->
<g id="edge27" class="edge">
<title>Node1&#45;&gt;Node16</title>
<path fill="none" stroke="midnightblue" d="M361.07,-291.36C367.28,-280.56 373.87,-267.55 378,-255 390.8,-216.09 394.98,-167.92 396.34,-141.87"/>
<polygon fill="midnightblue" stroke="midnightblue" points="399.85,-141.72 396.79,-131.57 392.86,-141.41 399.85,-141.72"/>
</g>
<!-- Node17 -->
<g id="node17" class="node">
<title>Node17</title>
<g id="a_node17"><a xlink:title=" ">
<polygon fill="white" stroke="#bfbfbf" points="435.5,-112.5 435.5,-131.5 508.5,-131.5 508.5,-112.5 435.5,-112.5"/>
<text text-anchor="middle" x="472" y="-119.5" font-family="Helvetica,sans-Serif" font-size="10.00">Eigen/Dense</text>
</a>
</g>
</g>
<!-- Node1&#45;&gt;Node17 -->
<g id="edge28" class="edge">
<title>Node1&#45;&gt;Node17</title>
<path fill="none" stroke="midnightblue" d="M366.83,-291.45C375.94,-280.55 386.39,-267.45 395,-255 422.19,-215.71 449.23,-166.37 462.88,-140.57"/>
<polygon fill="midnightblue" stroke="midnightblue" points="466.03,-142.1 467.57,-131.62 459.83,-138.85 466.03,-142.1"/>
</g>
<!-- Node19 -->
<g id="node19" class="node">
<title>Node19</title>
<g id="a_node19"><a xlink:href="ParticleSet_8h.html" target="_top" xlink:title=" ">
<polygon fill="white" stroke="black" points="475.5,-235.5 475.5,-254.5 606.5,-254.5 606.5,-235.5 475.5,-235.5"/>
<text text-anchor="middle" x="541" y="-242.5" font-family="Helvetica,sans-Serif" font-size="10.00">BayesFilters/ParticleSet.h</text>
</a>
</g>
</g>
<!-- Node1&#45;&gt;Node19 -->
<g id="edge21" class="edge">
<title>Node1&#45;&gt;Node19</title>
<path fill="none" stroke="midnightblue" d="M414.65,-291.45C446.32,-280.06 482.31,-267.11 507.75,-257.96"/>
<polygon fill="midnightblue" stroke="midnightblue" points="509.07,-261.21 517.29,-254.53 506.7,-254.62 509.07,-261.21"/>
</g>
<!-- Node2&#45;&gt;Node3 -->
<g id="edge2" class="edge">
<title>Node2&#45;&gt;Node3</title>
<path fill="none" stroke="midnightblue" d="M282.25,-235.48C272.19,-227.49 256.77,-215.25 243.55,-204.77"/>
<polygon fill="midnightblue" stroke="midnightblue" points="245.69,-202 235.68,-198.52 241.33,-207.48 245.69,-202"/>
</g>
<!-- Node18 -->
<g id="node18" class="node">
<title>Node18</title>
<g id="a_node18"><a xlink:title=" ">
<polygon fill="white" stroke="#bfbfbf" points="303.5,-174 303.5,-193 368.5,-193 368.5,-174 303.5,-174"/>
<text text-anchor="middle" x="336" y="-181" font-family="Helvetica,sans-Serif" font-size="10.00">Eigen/Core</text>
</a>
</g>
</g>
<!-- Node2&#45;&gt;Node18 -->
<g id="edge19" class="edge">
<title>Node2&#45;&gt;Node18</title>
<path fill="none" stroke="midnightblue" d="M299.16,-235.48C305.61,-226.55 315.9,-212.31 323.97,-201.14"/>
<polygon fill="midnightblue" stroke="midnightblue" points="326.83,-203.16 329.85,-193.01 321.16,-199.06 326.83,-203.16"/>
</g>
<!-- Node4 -->
<g id="node4" class="node">
<title>Node4</title>
<g id="a_node4"><a xlink:href="Data_8h.html" target="_top" xlink:title=" ">
<polygon fill="white" stroke="black" points="255,-112.5 255,-131.5 359,-131.5 359,-112.5 255,-112.5"/>
<text text-anchor="middle" x="307" y="-119.5" font-family="Helvetica,sans-Serif" font-size="10.00">BayesFilters/Data.h</text>
</a>
</g>
</g>
<!-- Node3&#45;&gt;Node4 -->
<g id="edge3" class="edge">
<title>Node3&#45;&gt;Node4</title>
<path fill="none" stroke="midnightblue" d="M239.09,-168.4C253.09,-159.04 271.41,-146.79 285.49,-137.38"/>
<polygon fill="midnightblue" stroke="midnightblue" points="287.68,-140.13 294.05,-131.66 283.79,-134.31 287.68,-140.13"/>
</g>
<!-- Node3&#45;&gt;Node7 -->
<g id="edge15" class="edge">
<title>Node3&#45;&gt;Node7</title>
<path fill="none" stroke="midnightblue" d="M150.92,-170.83C125.36,-163.44 97.67,-151.43 78,-132 49.89,-104.24 41.53,-56.33 39.05,-29.89"/>
<polygon fill="midnightblue" stroke="midnightblue" points="42.52,-29.41 38.29,-19.7 35.54,-29.93 42.52,-29.41"/>
</g>
<!-- Node11 -->
<g id="node11" class="node">
<title>Node11</title>
<g id="a_node11"><a xlink:href="Logger_8h.html" target="_top" xlink:title=" ">
<polygon fill="white" stroke="black" points="87.5,-112.5 87.5,-131.5 198.5,-131.5 198.5,-112.5 87.5,-112.5"/>
<text text-anchor="middle" x="143" y="-119.5" font-family="Helvetica,sans-Serif" font-size="10.00">BayesFilters/Logger.h</text>
</a>
</g>
</g>
<!-- Node3&#45;&gt;Node11 -->
<g id="edge10" class="edge">
<title>Node3&#45;&gt;Node11</title>
<path fill="none" stroke="midnightblue" d="M200.23,-168.4C188.65,-159.22 173.58,-147.26 161.8,-137.92"/>
<polygon fill="midnightblue" stroke="midnightblue" points="163.92,-135.13 153.91,-131.66 159.57,-140.61 163.92,-135.13"/>
</g>
<!-- Node14 -->
<g id="node14" class="node">
<title>Node14</title>
<g id="a_node14"><a xlink:title=" ">
<polygon fill="white" stroke="#bfbfbf" points="206.5,-56.5 206.5,-75.5 247.5,-75.5 247.5,-56.5 206.5,-56.5"/>
<text text-anchor="middle" x="227" y="-63.5" font-family="Helvetica,sans-Serif" font-size="10.00">string</text>
</a>
</g>
</g>
<!-- Node3&#45;&gt;Node14 -->
<g id="edge16" class="edge">
<title>Node3&#45;&gt;Node14</title>
<path fill="none" stroke="midnightblue" d="M219.1,-168.34C220.72,-147.62 223.73,-109.02 225.53,-85.9"/>
<polygon fill="midnightblue" stroke="midnightblue" points="229.04,-85.91 226.32,-75.67 222.06,-85.37 229.04,-85.91"/>
</g>
<!-- Node3&#45;&gt;Node16 -->
<g id="edge17" class="edge">
<title>Node3&#45;&gt;Node16</title>
<path fill="none" stroke="midnightblue" d="M260.42,-168.4C293.34,-157.46 338.15,-142.56 367.32,-132.87"/>
<polygon fill="midnightblue" stroke="midnightblue" points="368.55,-136.14 376.94,-129.67 366.35,-129.5 368.55,-136.14"/>
</g>
<!-- Node3&#45;&gt;Node17 -->
<g id="edge18" class="edge">
<title>Node3&#45;&gt;Node17</title>
<path fill="none" stroke="midnightblue" d="M277.87,-168.47C323.13,-157.87 384.34,-143.53 425.84,-133.81"/>
<polygon fill="midnightblue" stroke="midnightblue" points="426.75,-137.19 435.69,-131.51 425.15,-130.38 426.75,-137.19"/>
</g>
<!-- Node5 -->
<g id="node5" class="node">
<title>Node5</title>
<g id="a_node5"><a xlink:href="any_8h.html" target="_top" xlink:title=" ">
<polygon fill="white" stroke="black" points="265.5,-56.5 265.5,-75.5 362.5,-75.5 362.5,-56.5 265.5,-56.5"/>
<text text-anchor="middle" x="314" y="-63.5" font-family="Helvetica,sans-Serif" font-size="10.00">BayesFilters/any.h</text>
</a>
</g>
</g>
<!-- Node4&#45;&gt;Node5 -->
<g id="edge4" class="edge">
<title>Node4&#45;&gt;Node5</title>
<path fill="none" stroke="midnightblue" d="M308.16,-112.08C309.08,-104.93 310.42,-94.64 311.58,-85.69"/>
<polygon fill="midnightblue" stroke="midnightblue" points="315.05,-86.12 312.87,-75.75 308.11,-85.22 315.05,-86.12"/>
</g>
<!-- Node6 -->
<g id="node6" class="node">
<title>Node6</title>
<g id="a_node6"><a xlink:title=" ">
<polygon fill="white" stroke="#bfbfbf" points="173,-0.5 173,-19.5 229,-19.5 229,-0.5 173,-0.5"/>
<text text-anchor="middle" x="201" y="-7.5" font-family="Helvetica,sans-Serif" font-size="10.00">algorithm</text>
</a>
</g>
</g>
<!-- Node5&#45;&gt;Node6 -->
<g id="edge5" class="edge">
<title>Node5&#45;&gt;Node6</title>
<path fill="none" stroke="midnightblue" d="M296.09,-56.44C277.75,-47.68 248.99,-33.94 227.91,-23.86"/>
<polygon fill="midnightblue" stroke="midnightblue" points="229.35,-20.67 218.82,-19.52 226.33,-26.99 229.35,-20.67"/>
</g>
<!-- Node5&#45;&gt;Node7 -->
<g id="edge6" class="edge">
<title>Node5&#45;&gt;Node7</title>
<path fill="none" stroke="midnightblue" d="M270.27,-56.44C216.06,-45.84 124.68,-27.96 74.21,-18.08"/>
<polygon fill="midnightblue" stroke="midnightblue" points="74.57,-14.59 64.09,-16.1 73.23,-21.46 74.57,-14.59"/>
</g>
<!-- Node8 -->
<g id="node8" class="node">
<title>Node8</title>
<g id="a_node8"><a xlink:title=" ">
<polygon fill="white" stroke="#bfbfbf" points="247.5,-0.5 247.5,-19.5 306.5,-19.5 306.5,-0.5 247.5,-0.5"/>
<text text-anchor="middle" x="277" y="-7.5" font-family="Helvetica,sans-Serif" font-size="10.00">stdexcept</text>
</a>
</g>
</g>
<!-- Node5&#45;&gt;Node8 -->
<g id="edge7" class="edge">
<title>Node5&#45;&gt;Node8</title>
<path fill="none" stroke="midnightblue" d="M307.89,-56.08C302.72,-48.53 295.15,-37.49 288.81,-28.23"/>
<polygon fill="midnightblue" stroke="midnightblue" points="291.54,-26.02 283,-19.75 285.76,-29.98 291.54,-26.02"/>
</g>
<!-- Node9 -->
<g id="node9" class="node">
<title>Node9</title>
<g id="a_node9"><a xlink:title=" ">
<polygon fill="white" stroke="#bfbfbf" points="324.5,-0.5 324.5,-19.5 375.5,-19.5 375.5,-0.5 324.5,-0.5"/>
<text text-anchor="middle" x="350" y="-7.5" font-family="Helvetica,sans-Serif" font-size="10.00">typeinfo</text>
</a>
</g>
</g>
<!-- Node5&#45;&gt;Node9 -->
<g id="edge8" class="edge">
<title>Node5&#45;&gt;Node9</title>
<path fill="none" stroke="midnightblue" d="M319.94,-56.08C324.98,-48.53 332.34,-37.49 338.51,-28.23"/>
<polygon fill="midnightblue" stroke="midnightblue" points="341.53,-30.01 344.17,-19.75 335.71,-26.13 341.53,-30.01"/>
</g>
<!-- Node10 -->
<g id="node10" class="node">
<title>Node10</title>
<g id="a_node10"><a xlink:title=" ">
<polygon fill="white" stroke="#bfbfbf" points="394,-0.5 394,-19.5 456,-19.5 456,-0.5 394,-0.5"/>
<text text-anchor="middle" x="425" y="-7.5" font-family="Helvetica,sans-Serif" font-size="10.00">type_traits</text>
</a>
</g>
</g>
<!-- Node5&#45;&gt;Node10 -->
<g id="edge9" class="edge">
<title>Node5&#45;&gt;Node10</title>
<path fill="none" stroke="midnightblue" d="M331.83,-56.32C349.72,-47.62 377.48,-34.12 398.05,-24.11"/>
<polygon fill="midnightblue" stroke="midnightblue" points="399.75,-27.18 407.21,-19.65 396.69,-20.88 399.75,-27.18"/>
</g>
<!-- Node12 -->
<g id="node12" class="node">
<title>Node12</title>
<g id="a_node12"><a xlink:title=" ">
<polygon fill="white" stroke="#bfbfbf" points="66,-56.5 66,-75.5 116,-75.5 116,-56.5 66,-56.5"/>
<text text-anchor="middle" x="91" y="-63.5" font-family="Helvetica,sans-Serif" font-size="10.00">fstream</text>
</a>
</g>
</g>
<!-- Node11&#45;&gt;Node12 -->
<g id="edge11" class="edge">
<title>Node11&#45;&gt;Node12</title>
<path fill="none" stroke="midnightblue" d="M134.41,-112.08C126.84,-104.22 115.62,-92.57 106.49,-83.08"/>
<polygon fill="midnightblue" stroke="midnightblue" points="108.88,-80.53 99.43,-75.75 103.84,-85.38 108.88,-80.53"/>
</g>
<!-- Node13 -->
<g id="node13" class="node">
<title>Node13</title>
<g id="a_node13"><a xlink:title=" ">
<polygon fill="white" stroke="#bfbfbf" points="134,-56.5 134,-75.5 188,-75.5 188,-56.5 134,-56.5"/>
<text text-anchor="middle" x="161" y="-63.5" font-family="Helvetica,sans-Serif" font-size="10.00">iostream</text>
</a>
</g>
</g>
<!-- Node11&#45;&gt;Node13 -->
<g id="edge12" class="edge">
<title>Node11&#45;&gt;Node13</title>
<path fill="none" stroke="midnightblue" d="M145.97,-112.08C148.38,-104.85 151.86,-94.41 154.87,-85.4"/>
<polygon fill="midnightblue" stroke="midnightblue" points="158.24,-86.34 158.08,-75.75 151.6,-84.13 158.24,-86.34"/>
</g>
<!-- Node11&#45;&gt;Node14 -->
<g id="edge13" class="edge">
<title>Node11&#45;&gt;Node14</title>
<path fill="none" stroke="midnightblue" d="M156.5,-112.32C169.6,-103.9 189.71,-90.97 205.11,-81.07"/>
<polygon fill="midnightblue" stroke="midnightblue" points="207.02,-84.01 213.54,-75.65 203.23,-78.12 207.02,-84.01"/>
</g>
<!-- Node15 -->
<g id="node15" class="node">
<title>Node15</title>
<g id="a_node15"><a xlink:title=" ">
<polygon fill="white" stroke="#bfbfbf" points="519,-56.5 519,-75.5 563,-75.5 563,-56.5 519,-56.5"/>
<text text-anchor="middle" x="541" y="-63.5" font-family="Helvetica,sans-Serif" font-size="10.00">vector</text>
</a>
</g>
</g>
<!-- Node11&#45;&gt;Node15 -->
<g id="edge14" class="edge">
<title>Node11&#45;&gt;Node15</title>
<path fill="none" stroke="midnightblue" d="M198.76,-113.43C283.24,-101.97 440.98,-80.57 508.73,-71.38"/>
<polygon fill="midnightblue" stroke="midnightblue" points="509.36,-74.82 518.8,-70.01 508.42,-67.89 509.36,-74.82"/>
</g>
<!-- Node19&#45;&gt;Node15 -->
<g id="edge25" class="edge">
<title>Node19&#45;&gt;Node15</title>
<path fill="none" stroke="midnightblue" d="M576.01,-235.45C594.93,-228.84 616.68,-217.59 628,-199 654.59,-155.31 596.37,-105.28 562.72,-81.29"/>
<polygon fill="midnightblue" stroke="midnightblue" points="564.58,-78.33 554.37,-75.51 560.6,-84.08 564.58,-78.33"/>
</g>
<!-- Node20 -->
<g id="node20" class="node">
<title>Node20</title>
<g id="a_node20"><a xlink:href="GaussianMixture_8h.html" target="_top" xlink:title=" ">
<polygon fill="white" stroke="black" points="463,-174 463,-193 619,-193 619,-174 463,-174"/>
<text text-anchor="middle" x="541" y="-181" font-family="Helvetica,sans-Serif" font-size="10.00">BayesFilters/GaussianMixture.h</text>
</a>
</g>
</g>
<!-- Node19&#45;&gt;Node20 -->
<g id="edge22" class="edge">
<title>Node19&#45;&gt;Node20</title>
<path fill="none" stroke="midnightblue" d="M541,-235.48C541,-227.08 541,-213.98 541,-203.16"/>
<polygon fill="midnightblue" stroke="midnightblue" points="544.5,-203.01 541,-193.01 537.5,-203.01 544.5,-203.01"/>
</g>
<!-- Node20&#45;&gt;Node15 -->
<g id="edge23" class="edge">
<title>Node20&#45;&gt;Node15</title>
<path fill="none" stroke="midnightblue" d="M541,-173.82C541,-155.26 541,-111.34 541,-85.97"/>
<polygon fill="midnightblue" stroke="midnightblue" points="544.5,-85.78 541,-75.78 537.5,-85.78 544.5,-85.78"/>
</g>
<!-- Node20&#45;&gt;Node17 -->
<g id="edge24" class="edge">
<title>Node20&#45;&gt;Node17</title>
<path fill="none" stroke="midnightblue" d="M531.11,-173.98C520.35,-164.7 502.93,-149.67 489.78,-138.33"/>
<polygon fill="midnightblue" stroke="midnightblue" points="491.73,-135.39 481.87,-131.51 487.16,-140.69 491.73,-135.39"/>
</g>
</g>
</svg>
