<?xml version="1.0" encoding="UTF-8" standalone="no"?>
<!DOCTYPE svg PUBLIC "-//W3C//DTD SVG 1.1//EN"
 "http://www.w3.org/Graphics/SVG/1.1/DTD/svg11.dtd">
<!-- Generated by graphviz version 2.43.0 (0)
 -->
<!-- Title: /home/user/bayes&#45;filters&#45;lib/src/BayesFilters/include/BayesFilters/PFPrediction.h Pages: 1 -->
<svg width="782pt" height="330pt"
 viewBox="0.00 0.00 781.75 330.00" xmlns="http://www.w3.org/2000/svg" xmlns:xlink="http://www.w3.org/1999/xlink">
<g id="graph0" class="graph" transform="scale(1 1) rotate(0) translate(4 326)">
<title>/home/user/bayes&#45;filters&#45;lib/src/BayesFilters/include/BayesFilters/PFPrediction.h</title>
<polygon fill="white" stroke="transparent" points="-4,4 -4,-326 777.75,-326 777.75,4 -4,4"/>
<!-- Node1 -->
<g id="node1" class="node">
<title>Node1</title>
<g id="a_node1"><a xlink:title=" ">
<polygon fill="#bfbfbf" stroke="black" points="361,-280.5 361,-321.5 513,-321.5 513,-280.5 361,-280.5"/>
<text text-anchor="start" x="369" y="-309.5" font-family="Helvetica,sans-Serif" font-size="10.00">/home/user/bayes&#45;filters</text>
<text text-anchor="start" x="369" y="-298.5" font-family="Helvetica,sans-Serif" font-size="10.00">&#45;lib/src/BayesFilters/include</text>
<text text-anchor="middle" x="437" y="-287.5" font-family="Helvetica,sans-Serif" font-size="10.00">/BayesFilters/PFPrediction.h</text>
</a>
</g>
</g>
<!-- Node2 -->
<g id="node2" class="node">
<title>Node2</title>
<g id="a_node2"><a xlink:href="ExogenousModel_8h.html" target="_top" xlink:title=" ">
<polygon fill="white" stroke="black" points="187.5,-168.5 187.5,-187.5 358.5,-187.5 358.5,-168.5 187.5,-168.5"/>
<text text-anchor="middle" x="273" y="-175.5" font-family="Helvetica,sans-Serif" font-size="10.00">BayesFilters/ExogenousModel.h</text>
</a>
</g>
</g>
<!-- Node1&#45;&gt;Node2 -->
<g id="edge1" class="edge">
<title>Node1&#45;&gt;Node2</title>
<path fill="none" stroke="midnightblue" d="M367.08,-280.47C345.61,-271.91 323.15,-260.06 306,-244 292.45,-231.32 283.6,-211.84 278.51,-197.51"/>
<polygon fill="midnightblue" stroke="midnightblue" points="281.75,-196.18 275.33,-187.76 275.1,-198.35 281.75,-196.18"/>
</g>
<!-- Node6 -->
<g id="node6" class="node">
<title>Node6</title>
<g id="a_node6"><a xlink:title=" ">
<polygon fill="white" stroke="#bfbfbf" points="470.5,-56.5 470.5,-75.5 547.5,-75.5 547.5,-56.5 470.5,-56.5"/>
<text text-anchor="middle" x="509" y="-63.5" font-family="Helvetica,sans-Serif" font-size="10.00">Eigen/Dense</text>
</a>
</g>
</g>
<!-- Node1&#45;&gt;Node6 -->
<g id="edge21" class="edge">
<title>Node1&#45;&gt;Node6</title>
<path fill="none" stroke="midnightblue" d="M454.6,-280.45C463.91,-269.87 475.36,-256.46 485,-244 519.18,-199.82 533.35,-187.18 542,-132 543.38,-123.22 544.77,-120.45 542,-112 538.51,-101.34 531.43,-91.12 524.71,-83.12"/>
<polygon fill="midnightblue" stroke="midnightblue" points="527.3,-80.76 518.02,-75.66 522.1,-85.44 527.3,-80.76"/>
</g>
<!-- Node9 -->
<g id="node9" class="node">
<title>Node9</title>
<g id="a_node9"><a xlink:title=" ">
<polygon fill="white" stroke="#bfbfbf" points="24,-0.5 24,-19.5 68,-19.5 68,-0.5 24,-0.5"/>
<text text-anchor="middle" x="46" y="-7.5" font-family="Helvetica,sans-Serif" font-size="10.00">string</text>
</a>
</g>
</g>
<!-- Node1&#45;&gt;Node9 -->
<g id="edge23" class="edge">
<title>Node1&#45;&gt;Node9</title>
<path fill="none" stroke="midnightblue" d="M360.88,-294.59C235.68,-283.57 0,-253 0,-179 0,-179 0,-179 0,-121 0,-85.82 20.28,-48.86 33.91,-28"/>
<polygon fill="midnightblue" stroke="midnightblue" points="36.88,-29.85 39.6,-19.61 31.09,-25.92 36.88,-29.85"/>
</g>
<!-- Node10 -->
<g id="node10" class="node">
<title>Node10</title>
<g id="a_node10"><a xlink:href="ParticleSet_8h.html" target="_top" xlink:title=" ">
<polygon fill="white" stroke="black" points="605,-224.5 605,-243.5 745,-243.5 745,-224.5 605,-224.5"/>
<text text-anchor="middle" x="675" y="-231.5" font-family="Helvetica,sans-Serif" font-size="10.00">BayesFilters/ParticleSet.h</text>
</a>
</g>
</g>
<!-- Node1&#45;&gt;Node10 -->
<g id="edge9" class="edge">
<title>Node1&#45;&gt;Node10</title>
<path fill="none" stroke="midnightblue" d="M508.41,-280.5C549.41,-269.3 599.43,-255.64 633.9,-246.22"/>
<polygon fill="midnightblue" stroke="midnightblue" points="634.91,-249.58 643.63,-243.57 633.06,-242.83 634.91,-249.58"/>
</g>
<!-- Node13 -->
<g id="node13" class="node">
<title>Node13</title>
<g id="a_node13"><a xlink:href="StateModel_8h.html" target="_top" xlink:title=" ">
<polygon fill="white" stroke="black" points="315,-224.5 315,-243.5 459,-243.5 459,-224.5 315,-224.5"/>
<text text-anchor="middle" x="387" y="-231.5" font-family="Helvetica,sans-Serif" font-size="10.00">BayesFilters/StateModel.h</text>
</a>
</g>
</g>
<!-- Node1&#45;&gt;Node13 -->
<g id="edge14" class="edge">
<title>Node1&#45;&gt;Node13</title>
<path fill="none" stroke="midnightblue" d="M422,-280.5C414.92,-271.3 406.57,-260.44 399.79,-251.63"/>
<polygon fill="midnightblue" stroke="midnightblue" points="402.53,-249.44 393.66,-243.65 396.98,-253.71 402.53,-249.44"/>
</g>
<!-- Node15 -->
<g id="node15" class="node">
<title>Node15</title>
<g id="a_node15"><a xlink:title=" ">
<polygon fill="white" stroke="#bfbfbf" points="457,-168.5 457,-187.5 515,-187.5 515,-168.5 457,-168.5"/>
<text text-anchor="middle" x="486" y="-175.5" font-family="Helvetica,sans-Serif" font-size="10.00">memory</text>
</a>
</g>
</g>
<!-- Node1&#45;&gt;Node15 -->
<g id="edge22" class="edge">
<title>Node1&#45;&gt;Node15</title>
<path fill="none" stroke="midnightblue" d="M449.37,-280.35C455.59,-269.86 462.87,-256.55 468,-244 474.23,-228.76 479.05,-210.65 482.12,-197.42"/>
<polygon fill="midnightblue" stroke="midnightblue" points="485.55,-198.15 484.29,-187.63 478.71,-196.63 485.55,-198.15"/>
</g>
<!-- Node3 -->
<g id="node3" class="node">
<title>Node3</title>
<g id="a_node3"><a xlink:href="ExogenousProcess_8h.html" target="_top" xlink:title=" ">
<polygon fill="white" stroke="black" points="183.5,-112.5 183.5,-131.5 362.5,-131.5 362.5,-112.5 183.5,-112.5"/>
<text text-anchor="middle" x="273" y="-119.5" font-family="Helvetica,sans-Serif" font-size="10.00">BayesFilters/ExogenousProcess.h</text>
</a>
</g>
</g>
<!-- Node2&#45;&gt;Node3 -->
<g id="edge2" class="edge">
<title>Node2&#45;&gt;Node3</title>
<path fill="none" stroke="midnightblue" d="M273,-168.08C273,-161.01 273,-150.86 273,-141.99"/>
<polygon fill="midnightblue" stroke="midnightblue" points="276.5,-141.75 273,-131.75 269.5,-141.75 276.5,-141.75"/>
</g>
<!-- Node7 -->
<g id="node7" class="node">
<title>Node7</title>
<g id="a_node7"><a xlink:href="Skippable_8h.html" target="_top" xlink:title=" ">
<polygon fill="white" stroke="black" points="28.5,-112.5 28.5,-131.5 165.5,-131.5 165.5,-112.5 28.5,-112.5"/>
<text text-anchor="middle" x="97" y="-119.5" font-family="Helvetica,sans-Serif" font-size="10.00">BayesFilters/Skippable.h</text>
</a>
</g>
</g>
<!-- Node2&#45;&gt;Node7 -->
<g id="edge6" class="edge">
<title>Node2&#45;&gt;Node7</title>
<path fill="none" stroke="midnightblue" d="M245.11,-168.44C215.25,-159.28 167.69,-144.69 134.54,-134.52"/>
<polygon fill="midnightblue" stroke="midnightblue" points="135.34,-131.1 124.76,-131.52 133.29,-137.8 135.34,-131.1"/>
</g>
<!-- Node4 -->
<g id="node4" class="node">
<title>Node4</title>
<g id="a_node4"><a xlink:href="VectorDescription_8h.html" target="_top" xlink:title=" ">
<polygon fill="white" stroke="black" points="205.5,-56.5 205.5,-75.5 380.5,-75.5 380.5,-56.5 205.5,-56.5"/>
<text text-anchor="middle" x="293" y="-63.5" font-family="Helvetica,sans-Serif" font-size="10.00">BayesFilters/VectorDescription.h</text>
</a>
</g>
</g>
<!-- Node3&#45;&gt;Node4 -->
<g id="edge3" class="edge">
<title>Node3&#45;&gt;Node4</title>
<path fill="none" stroke="midnightblue" d="M276.3,-112.08C278.98,-104.85 282.85,-94.41 286.19,-85.4"/>
<polygon fill="midnightblue" stroke="midnightblue" points="289.57,-86.34 289.76,-75.75 283,-83.91 289.57,-86.34"/>
</g>
<!-- Node3&#45;&gt;Node6 -->
<g id="edge5" class="edge">
<title>Node3&#45;&gt;Node6</title>
<path fill="none" stroke="midnightblue" d="M310.39,-112.44C351.39,-103.06 417.25,-87.99 461.78,-77.8"/>
<polygon fill="midnightblue" stroke="midnightblue" points="462.81,-81.16 471.78,-75.52 461.25,-74.34 462.81,-81.16"/>
</g>
<!-- Node5 -->
<g id="node5" class="node">
<title>Node5</title>
<g id="a_node5"><a xlink:title=" ">
<polygon fill="white" stroke="#bfbfbf" points="266.5,-0.5 266.5,-19.5 319.5,-19.5 319.5,-0.5 266.5,-0.5"/>
<text text-anchor="middle" x="293" y="-7.5" font-family="Helvetica,sans-Serif" font-size="10.00">cstddef</text>
</a>
</g>
</g>
<!-- Node4&#45;&gt;Node5 -->
<g id="edge4" class="edge">
<title>Node4&#45;&gt;Node5</title>
<path fill="none" stroke="midnightblue" d="M293,-56.08C293,-49.01 293,-38.86 293,-29.99"/>
<polygon fill="midnightblue" stroke="midnightblue" points="296.5,-29.75 293,-19.75 289.5,-29.75 296.5,-29.75"/>
</g>
<!-- Node8 -->
<g id="node8" class="node">
<title>Node8</title>
<g id="a_node8"><a xlink:href="Skipper_8h.html" target="_top" xlink:title=" ">
<polygon fill="white" stroke="black" points="31.5,-56.5 31.5,-75.5 156.5,-75.5 156.5,-56.5 31.5,-56.5"/>
<text text-anchor="middle" x="94" y="-63.5" font-family="Helvetica,sans-Serif" font-size="10.00">BayesFilters/Skipper.h</text>
</a>
</g>
</g>
<!-- Node7&#45;&gt;Node8 -->
<g id="edge7" class="edge">
<title>Node7&#45;&gt;Node8</title>
<path fill="none" stroke="midnightblue" d="M96.5,-112.08C96.11,-105.01 95.55,-94.86 95.05,-85.99"/>
<polygon fill="midnightblue" stroke="midnightblue" points="98.54,-85.54 94.49,-75.75 91.55,-85.93 98.54,-85.54"/>
</g>
<!-- Node8&#45;&gt;Node9 -->
<g id="edge8" class="edge">
<title>Node8&#45;&gt;Node9</title>
<path fill="none" stroke="midnightblue" d="M86.07,-56.08C79.15,-48.3 68.93,-36.8 60.55,-27.37"/>
<polygon fill="midnightblue" stroke="midnightblue" points="63.04,-24.9 53.78,-19.75 57.81,-29.55 63.04,-24.9"/>
</g>
<!-- Node11 -->
<g id="node11" class="node">
<title>Node11</title>
<g id="a_node11"><a xlink:href="GaussianMixture_8h.html" target="_top" xlink:title=" ">
<polygon fill="white" stroke="black" points="589.5,-168.5 589.5,-187.5 760.5,-187.5 760.5,-168.5 589.5,-168.5"/>
<text text-anchor="middle" x="675" y="-175.5" font-family="Helvetica,sans-Serif" font-size="10.00">BayesFilters/GaussianMixture.h</text>
</a>
</g>
</g>
<!-- Node10&#45;&gt;Node11 -->
<g id="edge10" class="edge">
<title>Node10&#45;&gt;Node11</title>
<path fill="none" stroke="midnightblue" d="M675,-224.08C675,-217.01 675,-206.86 675,-197.99"/>
<polygon fill="midnightblue" stroke="midnightblue" points="678.5,-197.75 675,-187.75 671.5,-197.75 678.5,-197.75"/>
</g>
<!-- Node12 -->
<g id="node12" class="node">
<title>Node12</title>
<g id="a_node12"><a xlink:title=" ">
<polygon fill="white" stroke="#bfbfbf" points="715.5,-112.5 715.5,-131.5 762.5,-131.5 762.5,-112.5 715.5,-112.5"/>
<text text-anchor="middle" x="739" y="-119.5" font-family="Helvetica,sans-Serif" font-size="10.00">vector</text>
</a>
</g>
</g>
<!-- Node10&#45;&gt;Node12 -->
<g id="edge13" class="edge">
<title>Node10&#45;&gt;Node12</title>
<path fill="none" stroke="midnightblue" d="M716.05,-224.38C735.96,-217.92 758.09,-206.81 770,-188 779.97,-172.25 767.82,-152.81 755.93,-139.31"/>
<polygon fill="midnightblue" stroke="midnightblue" points="758.18,-136.6 748.76,-131.76 753.1,-141.42 758.18,-136.6"/>
</g>
<!-- Node11&#45;&gt;Node6 -->
<g id="edge12" class="edge">
<title>Node11&#45;&gt;Node6</title>
<path fill="none" stroke="midnightblue" d="M661.97,-168.37C633.49,-149.49 565.42,-104.38 530.48,-81.24"/>
<polygon fill="midnightblue" stroke="midnightblue" points="532.23,-78.2 521.97,-75.59 528.37,-84.03 532.23,-78.2"/>
</g>
<!-- Node11&#45;&gt;Node12 -->
<g id="edge11" class="edge">
<title>Node11&#45;&gt;Node12</title>
<path fill="none" stroke="midnightblue" d="M685.28,-168.32C694.84,-160.26 709.28,-148.08 720.78,-138.37"/>
<polygon fill="midnightblue" stroke="midnightblue" points="723.14,-140.96 728.53,-131.83 718.63,-135.61 723.14,-140.96"/>
</g>
<!-- Node13&#45;&gt;Node2 -->
<g id="edge15" class="edge">
<title>Node13&#45;&gt;Node2</title>
<path fill="none" stroke="midnightblue" d="M368.94,-224.44C350.43,-215.68 321.42,-201.94 300.14,-191.86"/>
<polygon fill="midnightblue" stroke="midnightblue" points="301.51,-188.63 290.98,-187.52 298.52,-194.96 301.51,-188.63"/>
</g>
<!-- Node13&#45;&gt;Node7 -->
<g id="edge16" class="edge">
<title>Node13&#45;&gt;Node7</title>
<path fill="none" stroke="midnightblue" d="M387.18,-224.33C386.98,-210.25 384.36,-182.51 368,-168 360.52,-161.37 246.52,-144.11 168.78,-133"/>
<polygon fill="midnightblue" stroke="midnightblue" points="168.94,-129.48 158.55,-131.54 167.95,-136.41 168.94,-129.48"/>
</g>
<!-- Node14 -->
<g id="node14" class="node">
<title>Node14</title>
<g id="a_node14"><a xlink:href="StateProcess_8h.html" target="_top" xlink:title=" ">
<polygon fill="white" stroke="black" points="381,-112.5 381,-131.5 533,-131.5 533,-112.5 381,-112.5"/>
<text text-anchor="middle" x="457" y="-119.5" font-family="Helvetica,sans-Serif" font-size="10.00">BayesFilters/StateProcess.h</text>
</a>
</g>
</g>
<!-- Node13&#45;&gt;Node14 -->
<g id="edge17" class="edge">
<title>Node13&#45;&gt;Node14</title>
<path fill="none" stroke="midnightblue" d="M392.49,-224.37C403.99,-206.3 430.8,-164.18 445.99,-140.31"/>
<polygon fill="midnightblue" stroke="midnightblue" points="449.12,-141.91 451.53,-131.59 443.21,-138.15 449.12,-141.91"/>
</g>
<!-- Node13&#45;&gt;Node15 -->
<g id="edge20" class="edge">
<title>Node13&#45;&gt;Node15</title>
<path fill="none" stroke="midnightblue" d="M402.91,-224.32C418.64,-215.74 442.94,-202.49 461.21,-192.52"/>
<polygon fill="midnightblue" stroke="midnightblue" points="463.03,-195.52 470.13,-187.65 459.68,-189.37 463.03,-195.52"/>
</g>
<!-- Node14&#45;&gt;Node4 -->
<g id="edge18" class="edge">
<title>Node14&#45;&gt;Node4</title>
<path fill="none" stroke="midnightblue" d="M431.01,-112.44C403.3,-103.32 359.25,-88.81 328.38,-78.65"/>
<polygon fill="midnightblue" stroke="midnightblue" points="329.46,-75.32 318.86,-75.52 327.27,-81.97 329.46,-75.32"/>
</g>
<!-- Node14&#45;&gt;Node6 -->
<g id="edge19" class="edge">
<title>Node14&#45;&gt;Node6</title>
<path fill="none" stroke="midnightblue" d="M465.59,-112.08C473.16,-104.22 484.38,-92.57 493.51,-83.08"/>
<polygon fill="midnightblue" stroke="midnightblue" points="496.16,-85.38 500.57,-75.75 491.12,-80.53 496.16,-85.38"/>
</g>
</g>
</svg>
