<?xml version="1.0" encoding="UTF-8" standalone="no"?>
<!DOCTYPE svg PUBLIC "-//W3C//DTD SVG 1.1//EN"
 "http://www.w3.org/Graphics/SVG/1.1/DTD/svg11.dtd">
<!-- Generated by graphviz version 2.47.2 (0)
 -->
<!-- Title: /home/xenvre/robot&#45;code/bfl_robotology/src/BayesFilters/include/BayesFilters/PFPrediction.h Pages: 1 -->
<svg width="663pt" height="341pt"
 viewBox="0.00 0.00 662.50 341.00" xmlns="http://www.w3.org/2000/svg" xmlns:xlink="http://www.w3.org/1999/xlink">
<g id="graph0" class="graph" transform="scale(1 1) rotate(0) translate(4 337)">
<title>/home/xenvre/robot&#45;code/bfl_robotology/src/BayesFilters/include/BayesFilters/PFPrediction.h</title>
<polygon fill="white" stroke="transparent" points="-4,4 -4,-337 658.5,-337 658.5,4 -4,4"/>
<!-- Node1 -->
<g id="node1" class="node">
<title>Node1</title>
<g id="a_node1"><a xlink:title=" ">
<polygon fill="#bfbfbf" stroke="black" points="347.5,-280.5 347.5,-332.5 489.5,-332.5 489.5,-280.5 347.5,-280.5"/>
<text text-anchor="start" x="355.5" y="-320.5" font-family="Helvetica,sans-Serif" font-size="10.00">/home/xenvre/robot</text>
<text text-anchor="start" x="355.5" y="-309.5" font-family="Helvetica,sans-Serif" font-size="10.00">&#45;code/bfl_robotology</text>
<text text-anchor="start" x="355.5" y="-298.5" font-family="Helvetica,sans-Serif" font-size="10.00">/src/BayesFilters/include</text>
<text text-anchor="middle" x="418.5" y="-287.5" font-family="Helvetica,sans-Serif" font-size="10.00">/BayesFilters/PFPrediction.h</text>
</a>
</g>
</g>
<!-- Node2 -->
<g id="node2" class="node">
<title>Node2</title>
<g id="a_node2"><a xlink:href="ExogenousModel_8h.html" target="_top" xlink:title=" ">
<polygon fill="white" stroke="black" points="72.5,-168.5 72.5,-187.5 230.5,-187.5 230.5,-168.5 72.5,-168.5"/>
<text text-anchor="middle" x="151.5" y="-175.5" font-family="Helvetica,sans-Serif" font-size="10.00">BayesFilters/ExogenousModel.h</text>
</a>
</g>
</g>
<!-- Node1&#45;&gt;Node2 -->
<g id="edge1" class="edge">
<title>Node1&#45;&gt;Node2</title>
<path fill="none" stroke="midnightblue" d="M347.39,-296.71C302.81,-288.56 245.79,-273.08 202.5,-244 184.33,-231.8 169.7,-211.05 160.85,-196.28"/>
<polygon fill="midnightblue" stroke="midnightblue" points="163.88,-194.53 155.89,-187.59 157.81,-198.01 163.88,-194.53"/>
</g>
<!-- Node4 -->
<g id="node4" class="node">
<title>Node4</title>
<g id="a_node4"><a xlink:title=" ">
<polygon fill="white" stroke="#bfbfbf" points="443,-56.5 443,-75.5 516,-75.5 516,-56.5 443,-56.5"/>
<text text-anchor="middle" x="479.5" y="-63.5" font-family="Helvetica,sans-Serif" font-size="10.00">Eigen/Dense</text>
</a>
</g>
</g>
<!-- Node1&#45;&gt;Node4 -->
<g id="edge18" class="edge">
<title>Node1&#45;&gt;Node4</title>
<path fill="none" stroke="midnightblue" d="M489.84,-281.5C530.98,-263.22 578.25,-233.34 597.5,-188 618.14,-139.39 551.43,-99.32 510,-79.81"/>
<polygon fill="midnightblue" stroke="midnightblue" points="511.38,-76.6 500.83,-75.63 508.47,-82.97 511.38,-76.6"/>
</g>
<!-- Node7 -->
<g id="node7" class="node">
<title>Node7</title>
<g id="a_node7"><a xlink:title=" ">
<polygon fill="white" stroke="#bfbfbf" points="510,-0.5 510,-19.5 551,-19.5 551,-0.5 510,-0.5"/>
<text text-anchor="middle" x="530.5" y="-7.5" font-family="Helvetica,sans-Serif" font-size="10.00">string</text>
</a>
</g>
</g>
<!-- Node1&#45;&gt;Node7 -->
<g id="edge20" class="edge">
<title>Node1&#45;&gt;Node7</title>
<path fill="none" stroke="midnightblue" d="M489.63,-297.49C559.12,-285.25 654.5,-254.66 654.5,-179 654.5,-179 654.5,-179 654.5,-121 654.5,-70.94 597.24,-38.12 560.55,-22.23"/>
<polygon fill="midnightblue" stroke="midnightblue" points="561.83,-18.97 551.25,-18.37 559.15,-25.44 561.83,-18.97"/>
</g>
<!-- Node8 -->
<g id="node8" class="node">
<title>Node8</title>
<g id="a_node8"><a xlink:href="ParticleSet_8h.html" target="_top" xlink:title=" ">
<polygon fill="white" stroke="black" points="400,-224.5 400,-243.5 531,-243.5 531,-224.5 400,-224.5"/>
<text text-anchor="middle" x="465.5" y="-231.5" font-family="Helvetica,sans-Serif" font-size="10.00">BayesFilters/ParticleSet.h</text>
</a>
</g>
</g>
<!-- Node1&#45;&gt;Node8 -->
<g id="edge7" class="edge">
<title>Node1&#45;&gt;Node8</title>
<path fill="none" stroke="midnightblue" d="M435.2,-280.45C441.48,-271.03 448.47,-260.55 454.15,-252.03"/>
<polygon fill="midnightblue" stroke="midnightblue" points="457.07,-253.96 459.7,-243.7 451.24,-250.07 457.07,-253.96"/>
</g>
<!-- Node11 -->
<g id="node11" class="node">
<title>Node11</title>
<g id="a_node11"><a xlink:href="StateModel_8h.html" target="_top" xlink:title=" ">
<polygon fill="white" stroke="black" points="211.5,-224.5 211.5,-243.5 343.5,-243.5 343.5,-224.5 211.5,-224.5"/>
<text text-anchor="middle" x="277.5" y="-231.5" font-family="Helvetica,sans-Serif" font-size="10.00">BayesFilters/StateModel.h</text>
</a>
</g>
</g>
<!-- Node1&#45;&gt;Node11 -->
<g id="edge12" class="edge">
<title>Node1&#45;&gt;Node11</title>
<path fill="none" stroke="midnightblue" d="M368.39,-280.45C346.62,-269.56 322.01,-257.25 303.89,-248.2"/>
<polygon fill="midnightblue" stroke="midnightblue" points="305.06,-244.87 294.55,-243.53 301.93,-251.13 305.06,-244.87"/>
</g>
<!-- Node13 -->
<g id="node13" class="node">
<title>Node13</title>
<g id="a_node13"><a xlink:title=" ">
<polygon fill="white" stroke="#bfbfbf" points="324.5,-168.5 324.5,-187.5 376.5,-187.5 376.5,-168.5 324.5,-168.5"/>
<text text-anchor="middle" x="350.5" y="-175.5" font-family="Helvetica,sans-Serif" font-size="10.00">memory</text>
</a>
</g>
</g>
<!-- Node1&#45;&gt;Node13 -->
<g id="edge19" class="edge">
<title>Node1&#45;&gt;Node13</title>
<path fill="none" stroke="midnightblue" d="M404.9,-280.2C391.59,-255.43 371.64,-218.33 359.96,-196.61"/>
<polygon fill="midnightblue" stroke="midnightblue" points="362.91,-194.7 355.1,-187.55 356.75,-198.01 362.91,-194.7"/>
</g>
<!-- Node3 -->
<g id="node3" class="node">
<title>Node3</title>
<g id="a_node3"><a xlink:href="ExogenousProcess_8h.html" target="_top" xlink:title=" ">
<polygon fill="white" stroke="black" points="0,-112.5 0,-131.5 167,-131.5 167,-112.5 0,-112.5"/>
<text text-anchor="middle" x="83.5" y="-119.5" font-family="Helvetica,sans-Serif" font-size="10.00">BayesFilters/ExogenousProcess.h</text>
</a>
</g>
</g>
<!-- Node2&#45;&gt;Node3 -->
<g id="edge2" class="edge">
<title>Node2&#45;&gt;Node3</title>
<path fill="none" stroke="midnightblue" d="M140.57,-168.32C130.33,-160.18 114.78,-147.84 102.5,-138.09"/>
<polygon fill="midnightblue" stroke="midnightblue" points="104.63,-135.31 94.62,-131.83 100.28,-140.79 104.63,-135.31"/>
</g>
<!-- Node5 -->
<g id="node5" class="node">
<title>Node5</title>
<g id="a_node5"><a xlink:href="Skippable_8h.html" target="_top" xlink:title=" ">
<polygon fill="white" stroke="black" points="185,-112.5 185,-131.5 310,-131.5 310,-112.5 185,-112.5"/>
<text text-anchor="middle" x="247.5" y="-119.5" font-family="Helvetica,sans-Serif" font-size="10.00">BayesFilters/Skippable.h</text>
</a>
</g>
</g>
<!-- Node2&#45;&gt;Node5 -->
<g id="edge4" class="edge">
<title>Node2&#45;&gt;Node5</title>
<path fill="none" stroke="midnightblue" d="M166.92,-168.32C182.04,-159.82 205.32,-146.73 222.97,-136.8"/>
<polygon fill="midnightblue" stroke="midnightblue" points="225.11,-139.61 232.11,-131.65 221.68,-133.51 225.11,-139.61"/>
</g>
<!-- Node3&#45;&gt;Node4 -->
<g id="edge3" class="edge">
<title>Node3&#45;&gt;Node4</title>
<path fill="none" stroke="midnightblue" d="M146.25,-112.44C225.96,-101.57 361.71,-83.06 432.85,-73.36"/>
<polygon fill="midnightblue" stroke="midnightblue" points="433.43,-76.81 442.87,-72 432.49,-69.88 433.43,-76.81"/>
</g>
<!-- Node6 -->
<g id="node6" class="node">
<title>Node6</title>
<g id="a_node6"><a xlink:href="Skipper_8h.html" target="_top" xlink:title=" ">
<polygon fill="white" stroke="black" points="290,-56.5 290,-75.5 405,-75.5 405,-56.5 290,-56.5"/>
<text text-anchor="middle" x="347.5" y="-63.5" font-family="Helvetica,sans-Serif" font-size="10.00">BayesFilters/Skipper.h</text>
</a>
</g>
</g>
<!-- Node5&#45;&gt;Node6 -->
<g id="edge5" class="edge">
<title>Node5&#45;&gt;Node6</title>
<path fill="none" stroke="midnightblue" d="M263.57,-112.32C279.46,-103.74 304.01,-90.49 322.46,-80.52"/>
<polygon fill="midnightblue" stroke="midnightblue" points="324.34,-83.49 331.47,-75.65 321.01,-77.33 324.34,-83.49"/>
</g>
<!-- Node6&#45;&gt;Node7 -->
<g id="edge6" class="edge">
<title>Node6&#45;&gt;Node7</title>
<path fill="none" stroke="midnightblue" d="M376.5,-56.44C410.2,-46.5 465.57,-30.16 499.93,-20.02"/>
<polygon fill="midnightblue" stroke="midnightblue" points="501.27,-23.27 509.87,-17.09 499.29,-16.56 501.27,-23.27"/>
</g>
<!-- Node9 -->
<g id="node9" class="node">
<title>Node9</title>
<g id="a_node9"><a xlink:href="GaussianMixture_8h.html" target="_top" xlink:title=" ">
<polygon fill="white" stroke="black" points="432.5,-168.5 432.5,-187.5 588.5,-187.5 588.5,-168.5 432.5,-168.5"/>
<text text-anchor="middle" x="510.5" y="-175.5" font-family="Helvetica,sans-Serif" font-size="10.00">BayesFilters/GaussianMixture.h</text>
</a>
</g>
</g>
<!-- Node8&#45;&gt;Node9 -->
<g id="edge8" class="edge">
<title>Node8&#45;&gt;Node9</title>
<path fill="none" stroke="midnightblue" d="M472.93,-224.08C479.35,-216.38 488.81,-205.03 496.62,-195.65"/>
<polygon fill="midnightblue" stroke="midnightblue" points="499.49,-197.67 503.21,-187.75 494.12,-193.19 499.49,-197.67"/>
</g>
<!-- Node10 -->
<g id="node10" class="node">
<title>Node10</title>
<g id="a_node10"><a xlink:title=" ">
<polygon fill="white" stroke="#bfbfbf" points="488.5,-112.5 488.5,-131.5 532.5,-131.5 532.5,-112.5 488.5,-112.5"/>
<text text-anchor="middle" x="510.5" y="-119.5" font-family="Helvetica,sans-Serif" font-size="10.00">vector</text>
</a>
</g>
</g>
<!-- Node8&#45;&gt;Node10 -->
<g id="edge11" class="edge">
<title>Node8&#45;&gt;Node10</title>
<path fill="none" stroke="midnightblue" d="M452.99,-224.47C436.51,-212.14 411,-188.54 423.5,-168 429.85,-157.56 456.5,-144.66 478.64,-135.35"/>
<polygon fill="midnightblue" stroke="midnightblue" points="480.18,-138.5 488.1,-131.47 477.52,-132.03 480.18,-138.5"/>
</g>
<!-- Node9&#45;&gt;Node4 -->
<g id="edge10" class="edge">
<title>Node9&#45;&gt;Node4</title>
<path fill="none" stroke="midnightblue" d="M520.2,-168.1C532.67,-155.51 551.61,-131.83 541.5,-112 534.5,-98.27 521.13,-87.75 508.6,-80.35"/>
<polygon fill="midnightblue" stroke="midnightblue" points="510.18,-77.22 499.72,-75.51 506.83,-83.37 510.18,-77.22"/>
</g>
<!-- Node9&#45;&gt;Node10 -->
<g id="edge9" class="edge">
<title>Node9&#45;&gt;Node10</title>
<path fill="none" stroke="midnightblue" d="M510.5,-168.08C510.5,-161.01 510.5,-150.86 510.5,-141.99"/>
<polygon fill="midnightblue" stroke="midnightblue" points="514,-141.75 510.5,-131.75 507,-141.75 514,-141.75"/>
</g>
<!-- Node11&#45;&gt;Node2 -->
<g id="edge13" class="edge">
<title>Node11&#45;&gt;Node2</title>
<path fill="none" stroke="midnightblue" d="M257.53,-224.44C236.89,-215.6 204.44,-201.69 180.87,-191.59"/>
<polygon fill="midnightblue" stroke="midnightblue" points="181.94,-188.24 171.37,-187.52 179.18,-194.67 181.94,-188.24"/>
</g>
<!-- Node11&#45;&gt;Node5 -->
<g id="edge14" class="edge">
<title>Node11&#45;&gt;Node5</title>
<path fill="none" stroke="midnightblue" d="M275.15,-224.37C270.28,-206.54 259.04,-165.3 252.48,-141.27"/>
<polygon fill="midnightblue" stroke="midnightblue" points="255.85,-140.32 249.84,-131.59 249.1,-142.16 255.85,-140.32"/>
</g>
<!-- Node12 -->
<g id="node12" class="node">
<title>Node12</title>
<g id="a_node12"><a xlink:href="StateProcess_8h.html" target="_top" xlink:title=" ">
<polygon fill="white" stroke="black" points="328.5,-112.5 328.5,-131.5 470.5,-131.5 470.5,-112.5 328.5,-112.5"/>
<text text-anchor="middle" x="399.5" y="-119.5" font-family="Helvetica,sans-Serif" font-size="10.00">BayesFilters/StateProcess.h</text>
</a>
</g>
</g>
<!-- Node11&#45;&gt;Node12 -->
<g id="edge15" class="edge">
<title>Node11&#45;&gt;Node12</title>
<path fill="none" stroke="midnightblue" d="M280.72,-224.43C286.13,-210.97 298.18,-184.69 315.5,-168 330.04,-153.99 349.81,-143.11 366.52,-135.56"/>
<polygon fill="midnightblue" stroke="midnightblue" points="368.14,-138.67 375.94,-131.5 365.37,-132.25 368.14,-138.67"/>
</g>
<!-- Node11&#45;&gt;Node13 -->
<g id="edge17" class="edge">
<title>Node11&#45;&gt;Node13</title>
<path fill="none" stroke="midnightblue" d="M289.23,-224.32C300.34,-216.11 317.24,-203.6 330.48,-193.81"/>
<polygon fill="midnightblue" stroke="midnightblue" points="332.6,-196.59 338.56,-187.83 328.44,-190.97 332.6,-196.59"/>
</g>
<!-- Node12&#45;&gt;Node4 -->
<g id="edge16" class="edge">
<title>Node12&#45;&gt;Node4</title>
<path fill="none" stroke="midnightblue" d="M412.35,-112.32C424.72,-103.98 443.63,-91.21 458.24,-81.35"/>
<polygon fill="midnightblue" stroke="midnightblue" points="460.35,-84.15 466.68,-75.65 456.43,-78.35 460.35,-84.15"/>
</g>
</g>
</svg>
