<?xml version="1.0" encoding="UTF-8" standalone="no"?>
<!DOCTYPE svg PUBLIC "-//W3C//DTD SVG 1.1//EN"
 "http://www.w3.org/Graphics/SVG/1.1/DTD/svg11.dtd">
<!-- Generated by graphviz version 2.47.2 (0)
 -->
<!-- Title: /home/xenvre/robot&#45;code/bfl_robotology/src/BayesFilters/include/BayesFilters/PFPrediction.h Pages: 1 -->
<svg width="643pt" height="328pt"
 viewBox="0.00 0.00 643.00 328.00" xmlns="http://www.w3.org/2000/svg" xmlns:xlink="http://www.w3.org/1999/xlink">
<g id="graph0" class="graph" transform="scale(1 1) rotate(0) translate(4 324)">
<title>/home/xenvre/robot&#45;code/bfl_robotology/src/BayesFilters/include/BayesFilters/PFPrediction.h</title>
<polygon fill="white" stroke="transparent" points="-4,4 -4,-324 639,-324 639,4 -4,4"/>
<!-- Node1 -->
<g id="node1" class="node">
<title>Node1</title>
<g id="a_node1"><a xlink:title=" ">
<polygon fill="#bfbfbf" stroke="black" points="270.5,-267.5 270.5,-319.5 412.5,-319.5 412.5,-267.5 270.5,-267.5"/>
<text text-anchor="start" x="278.5" y="-307.5" font-family="Helvetica,sans-Serif" font-size="10.00">/home/xenvre/robot</text>
<text text-anchor="start" x="278.5" y="-296.5" font-family="Helvetica,sans-Serif" font-size="10.00">&#45;code/bfl_robotology</text>
<text text-anchor="start" x="278.5" y="-285.5" font-family="Helvetica,sans-Serif" font-size="10.00">/src/BayesFilters/include</text>
<text text-anchor="middle" x="341.5" y="-274.5" font-family="Helvetica,sans-Serif" font-size="10.00">/BayesFilters/PFPrediction.h</text>
</a>
</g>
</g>
<!-- Node2 -->
<g id="node2" class="node">
<title>Node2</title>
<g id="a_node2"><a xlink:href="DrawParticles_8h.html" target="_top" xlink:title=" ">
<polygon fill="white" stroke="black" points="0,-178.5 0,-230.5 147,-230.5 147,-178.5 0,-178.5"/>
<text text-anchor="start" x="8" y="-218.5" font-family="Helvetica,sans-Serif" font-size="10.00">/home/xenvre/robot</text>
<text text-anchor="start" x="8" y="-207.5" font-family="Helvetica,sans-Serif" font-size="10.00">&#45;code/bfl_robotology</text>
<text text-anchor="start" x="8" y="-196.5" font-family="Helvetica,sans-Serif" font-size="10.00">/src/BayesFilters/include</text>
<text text-anchor="middle" x="73.5" y="-185.5" font-family="Helvetica,sans-Serif" font-size="10.00">/BayesFilters/DrawParticles.h</text>
</a>
</g>
</g>
<!-- Node1&#45;&gt;Node2 -->
<g id="edge1" class="edge">
<title>Node1&#45;&gt;Node2</title>
<path fill="none" stroke="midnightblue" d="M260.87,-266.32C224.78,-254.61 182.53,-240.89 147.29,-229.45"/>
<polygon fill="midnightblue" stroke="midnightblue" points="259.79,-269.66 270.38,-269.41 261.95,-263 259.79,-269.66"/>
</g>
<!-- Node4 -->
<g id="node4" class="node">
<title>Node4</title>
<g id="a_node4"><a xlink:href="GPFPrediction_8h.html" target="_top" xlink:title=" ">
<polygon fill="white" stroke="black" points="165,-178.5 165,-230.5 314,-230.5 314,-178.5 165,-178.5"/>
<text text-anchor="start" x="173" y="-218.5" font-family="Helvetica,sans-Serif" font-size="10.00">/home/xenvre/robot</text>
<text text-anchor="start" x="173" y="-207.5" font-family="Helvetica,sans-Serif" font-size="10.00">&#45;code/bfl_robotology</text>
<text text-anchor="start" x="173" y="-196.5" font-family="Helvetica,sans-Serif" font-size="10.00">/src/BayesFilters/include</text>
<text text-anchor="middle" x="239.5" y="-185.5" font-family="Helvetica,sans-Serif" font-size="10.00">/BayesFilters/GPFPrediction.h</text>
</a>
</g>
</g>
<!-- Node1&#45;&gt;Node4 -->
<g id="edge3" class="edge">
<title>Node1&#45;&gt;Node4</title>
<path fill="none" stroke="midnightblue" d="M304.16,-260.65C292.55,-250.75 279.92,-239.98 268.94,-230.61"/>
<polygon fill="midnightblue" stroke="midnightblue" points="302.12,-263.51 312,-267.34 306.66,-258.18 302.12,-263.51"/>
</g>
<!-- Node6 -->
<g id="node6" class="node">
<title>Node6</title>
<g id="a_node6"><a xlink:href="ParticleFilter_8h.html" target="_top" xlink:title=" ">
<polygon fill="white" stroke="black" points="369.5,-178.5 369.5,-230.5 509.5,-230.5 509.5,-178.5 369.5,-178.5"/>
<text text-anchor="start" x="377.5" y="-218.5" font-family="Helvetica,sans-Serif" font-size="10.00">/home/xenvre/robot</text>
<text text-anchor="start" x="377.5" y="-207.5" font-family="Helvetica,sans-Serif" font-size="10.00">&#45;code/bfl_robotology</text>
<text text-anchor="start" x="377.5" y="-196.5" font-family="Helvetica,sans-Serif" font-size="10.00">/src/BayesFilters/include</text>
<text text-anchor="middle" x="439.5" y="-185.5" font-family="Helvetica,sans-Serif" font-size="10.00">/BayesFilters/ParticleFilter.h</text>
</a>
</g>
</g>
<!-- Node1&#45;&gt;Node6 -->
<g id="edge5" class="edge">
<title>Node1&#45;&gt;Node6</title>
<path fill="none" stroke="midnightblue" d="M377.38,-260.65C388.53,-250.75 400.66,-239.98 411.22,-230.61"/>
<polygon fill="midnightblue" stroke="midnightblue" points="375,-258.08 369.85,-267.34 379.65,-263.31 375,-258.08"/>
</g>
<!-- Node7 -->
<g id="node7" class="node">
<title>Node7</title>
<g id="a_node7"><a xlink:href="SIS_8h.html" target="_top" xlink:title=" ">
<polygon fill="white" stroke="black" points="295,-89.5 295,-141.5 420,-141.5 420,-89.5 295,-89.5"/>
<text text-anchor="start" x="303" y="-129.5" font-family="Helvetica,sans-Serif" font-size="10.00">/home/xenvre/robot</text>
<text text-anchor="start" x="303" y="-118.5" font-family="Helvetica,sans-Serif" font-size="10.00">&#45;code/bfl_robotology</text>
<text text-anchor="start" x="303" y="-107.5" font-family="Helvetica,sans-Serif" font-size="10.00">/src/BayesFilters/include</text>
<text text-anchor="middle" x="357.5" y="-96.5" font-family="Helvetica,sans-Serif" font-size="10.00">/BayesFilters/SIS.h</text>
</a>
</g>
</g>
<!-- Node1&#45;&gt;Node7 -->
<g id="edge9" class="edge">
<title>Node1&#45;&gt;Node7</title>
<path fill="none" stroke="midnightblue" d="M344.7,-257.25C347.81,-223.04 352.46,-171.97 355.21,-141.67"/>
<polygon fill="midnightblue" stroke="midnightblue" points="341.21,-257.01 343.79,-267.28 348.18,-257.64 341.21,-257.01"/>
</g>
<!-- Node10 -->
<g id="node10" class="node">
<title>Node10</title>
<g id="a_node10"><a xlink:href="PFPrediction_8cpp.html" target="_top" xlink:title=" ">
<polygon fill="white" stroke="black" points="528,-178.5 528,-230.5 635,-230.5 635,-178.5 528,-178.5"/>
<text text-anchor="start" x="536" y="-218.5" font-family="Helvetica,sans-Serif" font-size="10.00">/home/xenvre/robot</text>
<text text-anchor="start" x="536" y="-207.5" font-family="Helvetica,sans-Serif" font-size="10.00">&#45;code/bfl_robotology</text>
<text text-anchor="start" x="536" y="-196.5" font-family="Helvetica,sans-Serif" font-size="10.00">/src/BayesFilters/src</text>
<text text-anchor="middle" x="581.5" y="-185.5" font-family="Helvetica,sans-Serif" font-size="10.00">/PFPrediction.cpp</text>
</a>
</g>
</g>
<!-- Node1&#45;&gt;Node10 -->
<g id="edge10" class="edge">
<title>Node1&#45;&gt;Node10</title>
<path fill="none" stroke="midnightblue" d="M422.5,-265.31C452.75,-254.91 487.31,-242.72 518.5,-231 521.59,-229.84 524.76,-228.62 527.96,-227.39"/>
<polygon fill="midnightblue" stroke="midnightblue" points="421.17,-262.07 412.85,-268.62 423.44,-268.69 421.17,-262.07"/>
</g>
<!-- Node3 -->
<g id="node3" class="node">
<title>Node3</title>
<g id="a_node3"><a xlink:href="DrawParticles_8cpp.html" target="_top" xlink:title=" ">
<polygon fill="white" stroke="black" points="20,-89.5 20,-141.5 127,-141.5 127,-89.5 20,-89.5"/>
<text text-anchor="start" x="28" y="-129.5" font-family="Helvetica,sans-Serif" font-size="10.00">/home/xenvre/robot</text>
<text text-anchor="start" x="28" y="-118.5" font-family="Helvetica,sans-Serif" font-size="10.00">&#45;code/bfl_robotology</text>
<text text-anchor="start" x="28" y="-107.5" font-family="Helvetica,sans-Serif" font-size="10.00">/src/BayesFilters/src</text>
<text text-anchor="middle" x="73.5" y="-96.5" font-family="Helvetica,sans-Serif" font-size="10.00">/DrawParticles.cpp</text>
</a>
</g>
</g>
<!-- Node2&#45;&gt;Node3 -->
<g id="edge2" class="edge">
<title>Node2&#45;&gt;Node3</title>
<path fill="none" stroke="midnightblue" d="M73.5,-168.19C73.5,-159.28 73.5,-149.9 73.5,-141.61"/>
<polygon fill="midnightblue" stroke="midnightblue" points="70,-168.34 73.5,-178.34 77,-168.34 70,-168.34"/>
</g>
<!-- Node5 -->
<g id="node5" class="node">
<title>Node5</title>
<g id="a_node5"><a xlink:href="GPFPrediction_8cpp.html" target="_top" xlink:title=" ">
<polygon fill="white" stroke="black" points="170,-89.5 170,-141.5 277,-141.5 277,-89.5 170,-89.5"/>
<text text-anchor="start" x="178" y="-129.5" font-family="Helvetica,sans-Serif" font-size="10.00">/home/xenvre/robot</text>
<text text-anchor="start" x="178" y="-118.5" font-family="Helvetica,sans-Serif" font-size="10.00">&#45;code/bfl_robotology</text>
<text text-anchor="start" x="178" y="-107.5" font-family="Helvetica,sans-Serif" font-size="10.00">/src/BayesFilters/src</text>
<text text-anchor="middle" x="223.5" y="-96.5" font-family="Helvetica,sans-Serif" font-size="10.00">/GPFPrediction.cpp</text>
</a>
</g>
</g>
<!-- Node4&#45;&gt;Node5 -->
<g id="edge4" class="edge">
<title>Node4&#45;&gt;Node5</title>
<path fill="none" stroke="midnightblue" d="M233.06,-168.48C231.41,-159.49 229.66,-149.99 228.12,-141.61"/>
<polygon fill="midnightblue" stroke="midnightblue" points="229.62,-169.13 234.87,-178.34 236.51,-167.87 229.62,-169.13"/>
</g>
<!-- Node6&#45;&gt;Node7 -->
<g id="edge6" class="edge">
<title>Node6&#45;&gt;Node7</title>
<path fill="none" stroke="midnightblue" d="M408.67,-170.79C399.56,-161.13 389.74,-150.71 381.16,-141.61"/>
<polygon fill="midnightblue" stroke="midnightblue" points="406.38,-173.46 415.78,-178.34 411.47,-168.66 406.38,-173.46"/>
</g>
<!-- Node9 -->
<g id="node9" class="node">
<title>Node9</title>
<g id="a_node9"><a xlink:href="ParticleFilter_8cpp.html" target="_top" xlink:title=" ">
<polygon fill="white" stroke="black" points="438,-89.5 438,-141.5 545,-141.5 545,-89.5 438,-89.5"/>
<text text-anchor="start" x="446" y="-129.5" font-family="Helvetica,sans-Serif" font-size="10.00">/home/xenvre/robot</text>
<text text-anchor="start" x="446" y="-118.5" font-family="Helvetica,sans-Serif" font-size="10.00">&#45;code/bfl_robotology</text>
<text text-anchor="start" x="446" y="-107.5" font-family="Helvetica,sans-Serif" font-size="10.00">/src/BayesFilters/src</text>
<text text-anchor="middle" x="491.5" y="-96.5" font-family="Helvetica,sans-Serif" font-size="10.00">/ParticleFilter.cpp</text>
</a>
</g>
</g>
<!-- Node6&#45;&gt;Node9 -->
<g id="edge8" class="edge">
<title>Node6&#45;&gt;Node9</title>
<path fill="none" stroke="midnightblue" d="M459.74,-169.64C465.32,-160.31 471.27,-150.35 476.49,-141.61"/>
<polygon fill="midnightblue" stroke="midnightblue" points="456.67,-167.96 454.54,-178.34 462.68,-171.55 456.67,-167.96"/>
</g>
<!-- Node8 -->
<g id="node8" class="node">
<title>Node8</title>
<g id="a_node8"><a xlink:href="SIS_8cpp.html" target="_top" xlink:title=" ">
<polygon fill="white" stroke="black" points="304,-0.5 304,-52.5 411,-52.5 411,-0.5 304,-0.5"/>
<text text-anchor="start" x="312" y="-40.5" font-family="Helvetica,sans-Serif" font-size="10.00">/home/xenvre/robot</text>
<text text-anchor="start" x="312" y="-29.5" font-family="Helvetica,sans-Serif" font-size="10.00">&#45;code/bfl_robotology</text>
<text text-anchor="start" x="312" y="-18.5" font-family="Helvetica,sans-Serif" font-size="10.00">/src/BayesFilters/src</text>
<text text-anchor="middle" x="357.5" y="-7.5" font-family="Helvetica,sans-Serif" font-size="10.00">/SIS.cpp</text>
</a>
</g>
</g>
<!-- Node7&#45;&gt;Node8 -->
<g id="edge7" class="edge">
<title>Node7&#45;&gt;Node8</title>
<path fill="none" stroke="midnightblue" d="M357.5,-79.19C357.5,-70.28 357.5,-60.9 357.5,-52.61"/>
<polygon fill="midnightblue" stroke="midnightblue" points="354,-79.34 357.5,-89.34 361,-79.34 354,-79.34"/>
</g>
</g>
</svg>
