<?xml version="1.0" encoding="UTF-8" standalone="no"?>
<!DOCTYPE svg PUBLIC "-//W3C//DTD SVG 1.1//EN"
 "http://www.w3.org/Graphics/SVG/1.1/DTD/svg11.dtd">
<!-- Generated by graphviz version 2.47.2 (0)
 -->
<!-- Title: /home/xenvre/robot&#45;code/bfl_robotology/src/BayesFilters/src/Resampling.cpp Pages: 1 -->
<svg width="266pt" height="285pt"
 viewBox="0.00 0.00 265.50 285.00" xmlns="http://www.w3.org/2000/svg" xmlns:xlink="http://www.w3.org/1999/xlink">
<g id="graph0" class="graph" transform="scale(1 1) rotate(0) translate(4 281)">
<title>/home/xenvre/robot&#45;code/bfl_robotology/src/BayesFilters/src/Resampling.cpp</title>
<polygon fill="white" stroke="transparent" points="-4,4 -4,-281 261.5,-281 261.5,4 -4,4"/>
<!-- Node1 -->
<g id="node1" class="node">
<title>Node1</title>
<g id="a_node1"><a xlink:title=" ">
<polygon fill="#bfbfbf" stroke="black" points="131,-224.5 131,-276.5 238,-276.5 238,-224.5 131,-224.5"/>
<text text-anchor="start" x="139" y="-264.5" font-family="Helvetica,sans-Serif" font-size="10.00">/home/xenvre/robot</text>
<text text-anchor="start" x="139" y="-253.5" font-family="Helvetica,sans-Serif" font-size="10.00">&#45;code/bfl_robotology</text>
<text text-anchor="start" x="139" y="-242.5" font-family="Helvetica,sans-Serif" font-size="10.00">/src/BayesFilters/src</text>
<text text-anchor="middle" x="184.5" y="-231.5" font-family="Helvetica,sans-Serif" font-size="10.00">/Resampling.cpp</text>
</a>
</g>
</g>
<!-- Node2 -->
<g id="node2" class="node">
<title>Node2</title>
<g id="a_node2"><a xlink:href="Resampling_8h.html" target="_top" xlink:title=" ">
<polygon fill="white" stroke="black" points="65.5,-168.5 65.5,-187.5 199.5,-187.5 199.5,-168.5 65.5,-168.5"/>
<text text-anchor="middle" x="132.5" y="-175.5" font-family="Helvetica,sans-Serif" font-size="10.00">BayesFilters/Resampling.h</text>
</a>
</g>
</g>
<!-- Node1&#45;&gt;Node2 -->
<g id="edge1" class="edge">
<title>Node1&#45;&gt;Node2</title>
<path fill="none" stroke="midnightblue" d="M166.02,-224.45C159,-214.93 151.18,-204.33 144.86,-195.76"/>
<polygon fill="midnightblue" stroke="midnightblue" points="147.67,-193.67 138.91,-187.7 142.03,-197.82 147.67,-193.67"/>
</g>
<!-- Node8 -->
<g id="node8" class="node">
<title>Node8</title>
<g id="a_node8"><a xlink:title=" ">
<polygon fill="white" stroke="#bfbfbf" points="217.5,-168.5 217.5,-187.5 257.5,-187.5 257.5,-168.5 217.5,-168.5"/>
<text text-anchor="middle" x="237.5" y="-175.5" font-family="Helvetica,sans-Serif" font-size="10.00">utility</text>
</a>
</g>
</g>
<!-- Node1&#45;&gt;Node8 -->
<g id="edge9" class="edge">
<title>Node1&#45;&gt;Node8</title>
<path fill="none" stroke="midnightblue" d="M203.34,-224.45C210.49,-214.93 218.46,-204.33 224.9,-195.76"/>
<polygon fill="midnightblue" stroke="midnightblue" points="227.75,-197.79 230.96,-187.7 222.16,-193.59 227.75,-197.79"/>
</g>
<!-- Node3 -->
<g id="node3" class="node">
<title>Node3</title>
<g id="a_node3"><a xlink:title=" ">
<polygon fill="white" stroke="#bfbfbf" points="0,-112.5 0,-131.5 49,-131.5 49,-112.5 0,-112.5"/>
<text text-anchor="middle" x="24.5" y="-119.5" font-family="Helvetica,sans-Serif" font-size="10.00">random</text>
</a>
</g>
</g>
<!-- Node2&#45;&gt;Node3 -->
<g id="edge2" class="edge">
<title>Node2&#45;&gt;Node3</title>
<path fill="none" stroke="midnightblue" d="M115.15,-168.32C97.83,-159.66 70.98,-146.24 51,-136.25"/>
<polygon fill="midnightblue" stroke="midnightblue" points="52.32,-133 41.81,-131.65 49.19,-139.26 52.32,-133"/>
</g>
<!-- Node4 -->
<g id="node4" class="node">
<title>Node4</title>
<g id="a_node4"><a xlink:href="ParticleSet_8h.html" target="_top" xlink:title=" ">
<polygon fill="white" stroke="black" points="67,-112.5 67,-131.5 198,-131.5 198,-112.5 67,-112.5"/>
<text text-anchor="middle" x="132.5" y="-119.5" font-family="Helvetica,sans-Serif" font-size="10.00">BayesFilters/ParticleSet.h</text>
</a>
</g>
</g>
<!-- Node2&#45;&gt;Node4 -->
<g id="edge3" class="edge">
<title>Node2&#45;&gt;Node4</title>
<path fill="none" stroke="midnightblue" d="M132.5,-168.08C132.5,-161.01 132.5,-150.86 132.5,-141.99"/>
<polygon fill="midnightblue" stroke="midnightblue" points="136,-141.75 132.5,-131.75 129,-141.75 136,-141.75"/>
</g>
<!-- Node7 -->
<g id="node7" class="node">
<title>Node7</title>
<g id="a_node7"><a xlink:title=" ">
<polygon fill="white" stroke="#bfbfbf" points="141,-0.5 141,-19.5 214,-19.5 214,-0.5 141,-0.5"/>
<text text-anchor="middle" x="177.5" y="-7.5" font-family="Helvetica,sans-Serif" font-size="10.00">Eigen/Dense</text>
</a>
</g>
</g>
<!-- Node2&#45;&gt;Node7 -->
<g id="edge8" class="edge">
<title>Node2&#45;&gt;Node7</title>
<path fill="none" stroke="midnightblue" d="M156.77,-168.46C173.56,-161.3 195.05,-149.42 207.5,-132 227.39,-104.18 232.04,-87.81 219.5,-56 214.99,-44.55 206.03,-34.29 197.55,-26.47"/>
<polygon fill="midnightblue" stroke="midnightblue" points="199.59,-23.61 189.71,-19.76 195.03,-28.93 199.59,-23.61"/>
</g>
<!-- Node5 -->
<g id="node5" class="node">
<title>Node5</title>
<g id="a_node5"><a xlink:href="GaussianMixture_8h.html" target="_top" xlink:title=" ">
<polygon fill="white" stroke="black" points="54.5,-56.5 54.5,-75.5 210.5,-75.5 210.5,-56.5 54.5,-56.5"/>
<text text-anchor="middle" x="132.5" y="-63.5" font-family="Helvetica,sans-Serif" font-size="10.00">BayesFilters/GaussianMixture.h</text>
</a>
</g>
</g>
<!-- Node4&#45;&gt;Node5 -->
<g id="edge4" class="edge">
<title>Node4&#45;&gt;Node5</title>
<path fill="none" stroke="midnightblue" d="M132.5,-112.08C132.5,-105.01 132.5,-94.86 132.5,-85.99"/>
<polygon fill="midnightblue" stroke="midnightblue" points="136,-85.75 132.5,-75.75 129,-85.75 136,-85.75"/>
</g>
<!-- Node6 -->
<g id="node6" class="node">
<title>Node6</title>
<g id="a_node6"><a xlink:title=" ">
<polygon fill="white" stroke="#bfbfbf" points="64.5,-0.5 64.5,-19.5 108.5,-19.5 108.5,-0.5 64.5,-0.5"/>
<text text-anchor="middle" x="86.5" y="-7.5" font-family="Helvetica,sans-Serif" font-size="10.00">vector</text>
</a>
</g>
</g>
<!-- Node4&#45;&gt;Node6 -->
<g id="edge7" class="edge">
<title>Node4&#45;&gt;Node6</title>
<path fill="none" stroke="midnightblue" d="M97.49,-112.45C78.57,-105.84 56.82,-94.59 45.5,-76 35.02,-58.79 51.18,-39.26 66.19,-26.14"/>
<polygon fill="midnightblue" stroke="midnightblue" points="68.71,-28.6 74.23,-19.57 64.28,-23.18 68.71,-28.6"/>
</g>
<!-- Node5&#45;&gt;Node6 -->
<g id="edge5" class="edge">
<title>Node5&#45;&gt;Node6</title>
<path fill="none" stroke="midnightblue" d="M124.9,-56.08C118.27,-48.3 108.48,-36.8 100.44,-27.37"/>
<polygon fill="midnightblue" stroke="midnightblue" points="103.1,-25.09 93.95,-19.75 97.77,-29.63 103.1,-25.09"/>
</g>
<!-- Node5&#45;&gt;Node7 -->
<g id="edge6" class="edge">
<title>Node5&#45;&gt;Node7</title>
<path fill="none" stroke="midnightblue" d="M139.93,-56.08C146.35,-48.38 155.81,-37.03 163.62,-27.65"/>
<polygon fill="midnightblue" stroke="midnightblue" points="166.49,-29.67 170.21,-19.75 161.12,-25.19 166.49,-29.67"/>
</g>
</g>
</svg>
