<?xml version="1.0" encoding="UTF-8" standalone="no"?>
<!DOCTYPE svg PUBLIC "-//W3C//DTD SVG 1.1//EN"
 "http://www.w3.org/Graphics/SVG/1.1/DTD/svg11.dtd">
<!-- Generated by graphviz version 2.43.0 (0)
 -->
<!-- Title: /home/user/bayes&#45;filters&#45;lib/src/BayesFilters/src/ResamplingWithPrior.cpp Pages: 1 -->
<!--zoomable 352 -->
<svg id="main" version="1.1" xmlns="http://www.w3.org/2000/svg" xmlns:xlink="http://www.w3.org/1999/xlink" xml:space="preserve" onload="init(evt)">
<style type="text/css"><![CDATA[
.edge:hover path { stroke: red; }
.edge:hover polygon { stroke: red; fill: red; }
]]></style>
<script type="text/javascript"><![CDATA[
var edges = document.getElementsByTagName('g');
if (edges && edges.length) {
  for (var i=0;i<edges.length;i++) {
    if (edges[i].id.substr(0,4)=='edge') {
      edges[i].setAttribute('class','edge');
    }
  }
}
]]></script>
        <defs>
                <circle id="rim" cx="0" cy="0" r="7"/>
                <circle id="rim2" cx="0" cy="0" r="3.5"/>
                <g id="zoomPlus">
                        <use xlink:href="#rim" fill="#404040">
                                <set attributeName="fill" to="#808080" begin="zoomplus.mouseover" end="zoomplus.mouseout"/>
                        </use>
                        <path d="M-4,0h8M0,-4v8" fill="none" stroke="white" stroke-width="1.5" pointer-events="none"/>
                </g>
                <g id="zoomMin">
                        <use xlink:href="#rim" fill="#404040">
                                <set attributeName="fill" to="#808080" begin="zoomminus.mouseover" end="zoomminus.mouseout"/>
                        </use>
                        <path d="M-4,0h8" fill="none" stroke="white" stroke-width="1.5" pointer-events="none"/>
                </g>
                <g id="dirArrow">
                        <path fill="none" stroke="white" stroke-width="1.5" d="M0,-3.0v7 M-2.5,-0.5L0,-3.0L2.5,-0.5"/>
                </g>
               <g id="resetDef">
                       <use xlink:href="#rim2" fill="#404040">
                               <set attributeName="fill" to="#808080" begin="reset.mouseover" end="reset.mouseout"/>
                       </use>
               </g>
        </defs>

<script type="text/javascript">
var viewWidth = 786;
var viewHeight = 352;
var sectionId = 'dynsection-0';
</script>
<script xlink:href="svgpan.js"/>
<svg id="graph" class="graph">
<g id="viewport">
<title>/home/user/bayes&#45;filters&#45;lib/src/BayesFilters/src/ResamplingWithPrior.cpp</title>
<polygon fill="white" stroke="transparent" points="-4,4 -4,-348 782,-348 782,4 -4,4"/>
<!-- Node1 -->
<g id="node1" class="node">
<title>Node1</title>
<g id="a_node1"><a xlink:title=" ">
<polygon fill="#bfbfbf" stroke="black" points="496,-302.5 496,-343.5 638,-343.5 638,-302.5 496,-302.5"/>
<text text-anchor="start" x="504" y="-331.5" font-family="Helvetica,sans-Serif" font-size="10.00">/home/user/bayes&#45;filters</text>
<text text-anchor="start" x="504" y="-320.5" font-family="Helvetica,sans-Serif" font-size="10.00">&#45;lib/src/BayesFilters/src</text>
<text text-anchor="middle" x="567" y="-309.5" font-family="Helvetica,sans-Serif" font-size="10.00">/ResamplingWithPrior.cpp</text>
</a>
</g>
</g>
<!-- Node2 -->
<g id="node2" class="node">
<title>Node2</title>
<g id="a_node2"><a xlink:href="ResamplingWithPrior_8h.html" target="_top" xlink:title=" ">
<polygon fill="white" stroke="black" points="257,-235.5 257,-265.5 417,-265.5 417,-235.5 257,-235.5"/>
<text text-anchor="start" x="265" y="-253.5" font-family="Helvetica,sans-Serif" font-size="10.00">BayesFilters/ResamplingWith</text>
<text text-anchor="middle" x="337" y="-242.5" font-family="Helvetica,sans-Serif" font-size="10.00">Prior.h</text>
</a>
</g>
</g>
<!-- Node1&#45;&gt;Node2 -->
<g id="edge1" class="edge">
<title>Node1&#45;&gt;Node2</title>
<path fill="none" stroke="midnightblue" d="M503.24,-302.46C468.51,-291.81 425.95,-278.76 392.58,-268.54"/>
<polygon fill="midnightblue" stroke="midnightblue" points="393.58,-265.18 382.99,-265.6 391.52,-271.87 393.58,-265.18"/>
</g>
<!-- Node5 -->
<g id="node5" class="node">
<title>Node5</title>
<g id="a_node5"><a xlink:title=" ">
<polygon fill="white" stroke="#bfbfbf" points="33.5,-0.5 33.5,-19.5 80.5,-19.5 80.5,-0.5 33.5,-0.5"/>
<text text-anchor="middle" x="57" y="-7.5" font-family="Helvetica,sans-Serif" font-size="10.00">vector</text>
</a>
</g>
</g>
<!-- Node1&#45;&gt;Node5 -->
<g id="edge25" class="edge">
<title>Node1&#45;&gt;Node5</title>
<path fill="none" stroke="midnightblue" d="M495.76,-319.6C343.48,-312.53 0,-285.41 0,-184.5 0,-184.5 0,-184.5 0,-121 0,-84.3 25.32,-47.66 42.21,-27.3"/>
<polygon fill="midnightblue" stroke="midnightblue" points="44.95,-29.48 48.83,-19.62 39.65,-24.9 44.95,-29.48"/>
</g>
<!-- Node11 -->
<g id="node11" class="node">
<title>Node11</title>
<g id="a_node11"><a xlink:href="utils_8h.html" target="_top" xlink:title=" ">
<polygon fill="white" stroke="black" points="512,-241 512,-260 622,-260 622,-241 512,-241"/>
<text text-anchor="middle" x="567" y="-248" font-family="Helvetica,sans-Serif" font-size="10.00">BayesFilters/utils.h</text>
</a>
</g>
</g>
<!-- Node1&#45;&gt;Node11 -->
<g id="edge17" class="edge">
<title>Node1&#45;&gt;Node11</title>
<path fill="none" stroke="midnightblue" d="M567,-302.36C567,-292.3 567,-280.1 567,-270.18"/>
<polygon fill="midnightblue" stroke="midnightblue" points="570.5,-270.17 567,-260.17 563.5,-270.17 570.5,-270.17"/>
</g>
<!-- Node15 -->
<g id="node15" class="node">
<title>Node15</title>
<g id="a_node15"><a xlink:title=" ">
<polygon fill="white" stroke="#bfbfbf" points="640,-241 640,-260 704,-260 704,-241 640,-241"/>
<text text-anchor="middle" x="672" y="-248" font-family="Helvetica,sans-Serif" font-size="10.00">algorithm</text>
</a>
</g>
</g>
<!-- Node1&#45;&gt;Node15 -->
<g id="edge23" class="edge">
<title>Node1&#45;&gt;Node15</title>
<path fill="none" stroke="midnightblue" d="M596.25,-302.36C613.5,-290.78 634.94,-276.39 650.6,-265.87"/>
<polygon fill="midnightblue" stroke="midnightblue" points="652.73,-268.65 659.08,-260.17 648.83,-262.84 652.73,-268.65"/>
</g>
<!-- Node16 -->
<g id="node16" class="node">
<title>Node16</title>
<g id="a_node16"><a xlink:title=" ">
<polygon fill="white" stroke="#bfbfbf" points="722,-241 722,-260 778,-260 778,-241 722,-241"/>
<text text-anchor="middle" x="750" y="-248" font-family="Helvetica,sans-Serif" font-size="10.00">numeric</text>
</a>
</g>
</g>
<!-- Node1&#45;&gt;Node16 -->
<g id="edge24" class="edge">
<title>Node1&#45;&gt;Node16</title>
<path fill="none" stroke="midnightblue" d="M618.39,-302.39C646.38,-291.69 681.61,-278.17 713,-266 714.83,-265.29 716.72,-264.56 718.62,-263.82"/>
<polygon fill="midnightblue" stroke="midnightblue" points="720.06,-267.01 728.1,-260.11 717.51,-260.49 720.06,-267.01"/>
</g>
<!-- Node3 -->
<g id="node3" class="node">
<title>Node3</title>
<g id="a_node3"><a xlink:href="ParticleSet_8h.html" target="_top" xlink:title=" ">
<polygon fill="white" stroke="black" points="110,-112.5 110,-131.5 250,-131.5 250,-112.5 110,-112.5"/>
<text text-anchor="middle" x="180" y="-119.5" font-family="Helvetica,sans-Serif" font-size="10.00">BayesFilters/ParticleSet.h</text>
</a>
</g>
</g>
<!-- Node2&#45;&gt;Node3 -->
<g id="edge2" class="edge">
<title>Node2&#45;&gt;Node3</title>
<path fill="none" stroke="midnightblue" d="M256.98,-242.66C197.68,-235.74 124.01,-222.59 105,-199 96.36,-188.27 98.21,-179.99 105,-168 113.35,-153.26 128.66,-142.82 143.29,-135.73"/>
<polygon fill="midnightblue" stroke="midnightblue" points="145,-138.8 152.72,-131.55 142.16,-132.4 145,-138.8"/>
</g>
<!-- Node2&#45;&gt;Node5 -->
<g id="edge15" class="edge">
<title>Node2&#45;&gt;Node5</title>
<path fill="none" stroke="midnightblue" d="M256.75,-242.11C195.66,-234.82 118.38,-221.43 96,-199 49.91,-152.81 51.5,-67.34 54.8,-29.66"/>
<polygon fill="midnightblue" stroke="midnightblue" points="58.3,-29.91 55.83,-19.6 51.33,-29.19 58.3,-29.91"/>
</g>
<!-- Node6 -->
<g id="node6" class="node">
<title>Node6</title>
<g id="a_node6"><a xlink:title=" ">
<polygon fill="white" stroke="#bfbfbf" points="361.5,-0.5 361.5,-19.5 438.5,-19.5 438.5,-0.5 361.5,-0.5"/>
<text text-anchor="middle" x="400" y="-7.5" font-family="Helvetica,sans-Serif" font-size="10.00">Eigen/Dense</text>
</a>
</g>
</g>
<!-- Node2&#45;&gt;Node6 -->
<g id="edge16" class="edge">
<title>Node2&#45;&gt;Node6</title>
<path fill="none" stroke="midnightblue" d="M376.12,-235.48C392.43,-227.47 409.71,-215.64 419,-199 450.03,-143.46 423.14,-64.17 408.28,-29"/>
<polygon fill="midnightblue" stroke="midnightblue" points="411.36,-27.31 404.13,-19.57 404.96,-30.13 411.36,-27.31"/>
</g>
<!-- Node7 -->
<g id="node7" class="node">
<title>Node7</title>
<g id="a_node7"><a xlink:href="ParticleSetInitialization_8h.html" target="_top" xlink:title=" ">
<polygon fill="white" stroke="black" points="114.5,-168.5 114.5,-198.5 245.5,-198.5 245.5,-168.5 114.5,-168.5"/>
<text text-anchor="start" x="122.5" y="-186.5" font-family="Helvetica,sans-Serif" font-size="10.00">BayesFilters/ParticleSet</text>
<text text-anchor="middle" x="180" y="-175.5" font-family="Helvetica,sans-Serif" font-size="10.00">Initialization.h</text>
</a>
</g>
</g>
<!-- Node2&#45;&gt;Node7 -->
<g id="edge7" class="edge">
<title>Node2&#45;&gt;Node7</title>
<path fill="none" stroke="midnightblue" d="M302.93,-235.4C279.58,-225.73 248.41,-212.82 223.3,-202.43"/>
<polygon fill="midnightblue" stroke="midnightblue" points="224.58,-199.17 214,-198.58 221.9,-205.64 224.58,-199.17"/>
</g>
<!-- Node8 -->
<g id="node8" class="node">
<title>Node8</title>
<g id="a_node8"><a xlink:href="Resampling_8h.html" target="_top" xlink:title=" ">
<polygon fill="white" stroke="black" points="264,-174 264,-193 410,-193 410,-174 264,-174"/>
<text text-anchor="middle" x="337" y="-181" font-family="Helvetica,sans-Serif" font-size="10.00">BayesFilters/Resampling.h</text>
</a>
</g>
</g>
<!-- Node2&#45;&gt;Node8 -->
<g id="edge10" class="edge">
<title>Node2&#45;&gt;Node8</title>
<path fill="none" stroke="midnightblue" d="M337,-235.4C337,-226.06 337,-213.71 337,-203.52"/>
<polygon fill="midnightblue" stroke="midnightblue" points="340.5,-203.19 337,-193.19 333.5,-203.19 340.5,-203.19"/>
</g>
<!-- Node10 -->
<g id="node10" class="node">
<title>Node10</title>
<g id="a_node10"><a xlink:title=" ">
<polygon fill="white" stroke="#bfbfbf" points="466,-174 466,-193 524,-193 524,-174 466,-174"/>
<text text-anchor="middle" x="495" y="-181" font-family="Helvetica,sans-Serif" font-size="10.00">memory</text>
</a>
</g>
</g>
<!-- Node2&#45;&gt;Node10 -->
<g id="edge14" class="edge">
<title>Node2&#45;&gt;Node10</title>
<path fill="none" stroke="midnightblue" d="M371.28,-235.4C399.13,-223.94 438.03,-207.94 464.73,-196.95"/>
<polygon fill="midnightblue" stroke="midnightblue" points="466.41,-200.05 474.32,-193.01 463.74,-193.57 466.41,-200.05"/>
</g>
<!-- Node4 -->
<g id="node4" class="node">
<title>Node4</title>
<g id="a_node4"><a xlink:href="GaussianMixture_8h.html" target="_top" xlink:title=" ">
<polygon fill="white" stroke="black" points="104.5,-56.5 104.5,-75.5 275.5,-75.5 275.5,-56.5 104.5,-56.5"/>
<text text-anchor="middle" x="190" y="-63.5" font-family="Helvetica,sans-Serif" font-size="10.00">BayesFilters/GaussianMixture.h</text>
</a>
</g>
</g>
<!-- Node3&#45;&gt;Node4 -->
<g id="edge3" class="edge">
<title>Node3&#45;&gt;Node4</title>
<path fill="none" stroke="midnightblue" d="M181.65,-112.08C182.98,-104.93 184.88,-94.64 186.54,-85.69"/>
<polygon fill="midnightblue" stroke="midnightblue" points="190,-86.22 188.38,-75.75 183.12,-84.95 190,-86.22"/>
</g>
<!-- Node3&#45;&gt;Node5 -->
<g id="edge6" class="edge">
<title>Node3&#45;&gt;Node5</title>
<path fill="none" stroke="midnightblue" d="M155.77,-112.41C137.42,-104.97 112.48,-92.76 95,-76 81.16,-62.74 70.71,-43.34 64.31,-29.19"/>
<polygon fill="midnightblue" stroke="midnightblue" points="67.35,-27.41 60.21,-19.58 60.91,-30.15 67.35,-27.41"/>
</g>
<!-- Node4&#45;&gt;Node5 -->
<g id="edge4" class="edge">
<title>Node4&#45;&gt;Node5</title>
<path fill="none" stroke="midnightblue" d="M168.93,-56.44C146.94,-47.52 112.27,-33.44 87.34,-23.32"/>
<polygon fill="midnightblue" stroke="midnightblue" points="88.56,-20.04 77.98,-19.52 85.92,-26.52 88.56,-20.04"/>
</g>
<!-- Node4&#45;&gt;Node6 -->
<g id="edge5" class="edge">
<title>Node4&#45;&gt;Node6</title>
<path fill="none" stroke="midnightblue" d="M223.28,-56.44C259.45,-47.14 317.38,-32.25 356.98,-22.06"/>
<polygon fill="midnightblue" stroke="midnightblue" points="358.07,-25.4 366.88,-19.52 356.32,-18.62 358.07,-25.4"/>
</g>
<!-- Node7&#45;&gt;Node3 -->
<g id="edge8" class="edge">
<title>Node7&#45;&gt;Node3</title>
<path fill="none" stroke="midnightblue" d="M180,-168.4C180,-160.47 180,-150.46 180,-141.86"/>
<polygon fill="midnightblue" stroke="midnightblue" points="183.5,-141.66 180,-131.66 176.5,-141.66 183.5,-141.66"/>
</g>
<!-- Node7&#45;&gt;Node6 -->
<g id="edge9" class="edge">
<title>Node7&#45;&gt;Node6</title>
<path fill="none" stroke="midnightblue" d="M204.09,-168.32C220.04,-158.63 241.23,-145.2 259,-132 306.2,-96.93 357.66,-50.46 383.4,-26.6"/>
<polygon fill="midnightblue" stroke="midnightblue" points="385.88,-29.07 390.81,-19.69 381.11,-23.95 385.88,-29.07"/>
</g>
<!-- Node8&#45;&gt;Node3 -->
<g id="edge12" class="edge">
<title>Node8&#45;&gt;Node3</title>
<path fill="none" stroke="midnightblue" d="M314.51,-173.98C287.69,-163.81 242.68,-146.76 212.19,-135.2"/>
<polygon fill="midnightblue" stroke="midnightblue" points="213.04,-131.78 202.45,-131.51 210.56,-138.33 213.04,-131.78"/>
</g>
<!-- Node8&#45;&gt;Node6 -->
<g id="edge13" class="edge">
<title>Node8&#45;&gt;Node6</title>
<path fill="none" stroke="midnightblue" d="M347.22,-173.98C357.53,-164.76 373.04,-149.07 381,-132 396.67,-98.39 399.81,-54.42 400.22,-29.81"/>
<polygon fill="midnightblue" stroke="midnightblue" points="403.72,-29.69 400.24,-19.68 396.72,-29.67 403.72,-29.69"/>
</g>
<!-- Node9 -->
<g id="node9" class="node">
<title>Node9</title>
<g id="a_node9"><a xlink:title=" ">
<polygon fill="white" stroke="#bfbfbf" points="318,-112.5 318,-131.5 372,-131.5 372,-112.5 318,-112.5"/>
<text text-anchor="middle" x="345" y="-119.5" font-family="Helvetica,sans-Serif" font-size="10.00">random</text>
</a>
</g>
</g>
<!-- Node8&#45;&gt;Node9 -->
<g id="edge11" class="edge">
<title>Node8&#45;&gt;Node9</title>
<path fill="none" stroke="midnightblue" d="M338.15,-173.98C339.27,-165.58 341.04,-152.48 342.49,-141.66"/>
<polygon fill="midnightblue" stroke="midnightblue" points="345.99,-141.89 343.86,-131.51 339.05,-140.95 345.99,-141.89"/>
</g>
<!-- Node11&#45;&gt;Node6 -->
<g id="edge18" class="edge">
<title>Node11&#45;&gt;Node6</title>
<path fill="none" stroke="midnightblue" d="M601.94,-240.94C647.21,-229.51 721.3,-209.47 729,-199 737.16,-187.9 736.35,-179.65 729,-168 666.92,-69.59 524.32,-31.55 448.87,-17.93"/>
<polygon fill="midnightblue" stroke="midnightblue" points="449.14,-14.43 438.69,-16.17 447.94,-21.32 449.14,-14.43"/>
</g>
<!-- Node11&#45;&gt;Node10 -->
<g id="edge21" class="edge">
<title>Node11&#45;&gt;Node10</title>
<path fill="none" stroke="midnightblue" d="M557.29,-240.73C545.74,-230.31 526.25,-212.71 512.14,-199.97"/>
<polygon fill="midnightblue" stroke="midnightblue" points="514.32,-197.23 504.56,-193.13 509.63,-202.43 514.32,-197.23"/>
</g>
<!-- Node12 -->
<g id="node12" class="node">
<title>Node12</title>
<g id="a_node12"><a xlink:title=" ">
<polygon fill="white" stroke="#bfbfbf" points="542,-174 542,-193 592,-193 592,-174 542,-174"/>
<text text-anchor="middle" x="567" y="-181" font-family="Helvetica,sans-Serif" font-size="10.00">chrono</text>
</a>
</g>
</g>
<!-- Node11&#45;&gt;Node12 -->
<g id="edge19" class="edge">
<title>Node11&#45;&gt;Node12</title>
<path fill="none" stroke="midnightblue" d="M567,-240.73C567,-231.18 567,-215.62 567,-203.28"/>
<polygon fill="midnightblue" stroke="midnightblue" points="570.5,-203.13 567,-193.13 563.5,-203.13 570.5,-203.13"/>
</g>
<!-- Node13 -->
<g id="node13" class="node">
<title>Node13</title>
<g id="a_node13"><a xlink:title=" ">
<polygon fill="white" stroke="#bfbfbf" points="610.5,-174 610.5,-193 657.5,-193 657.5,-174 610.5,-174"/>
<text text-anchor="middle" x="634" y="-181" font-family="Helvetica,sans-Serif" font-size="10.00">cmath</text>
</a>
</g>
</g>
<!-- Node11&#45;&gt;Node13 -->
<g id="edge20" class="edge">
<title>Node11&#45;&gt;Node13</title>
<path fill="none" stroke="midnightblue" d="M576.04,-240.73C586.68,-230.4 604.58,-213.04 617.68,-200.33"/>
<polygon fill="midnightblue" stroke="midnightblue" points="620.37,-202.6 625.11,-193.13 615.49,-197.58 620.37,-202.6"/>
</g>
<!-- Node14 -->
<g id="node14" class="node">
<title>Node14</title>
<g id="a_node14"><a xlink:title=" ">
<polygon fill="white" stroke="#bfbfbf" points="676,-174 676,-193 720,-193 720,-174 676,-174"/>
<text text-anchor="middle" x="698" y="-181" font-family="Helvetica,sans-Serif" font-size="10.00">string</text>
</a>
</g>
</g>
<!-- Node11&#45;&gt;Node14 -->
<g id="edge22" class="edge">
<title>Node11&#45;&gt;Node14</title>
<path fill="none" stroke="midnightblue" d="M584.4,-240.87C606.61,-229.84 645.29,-210.66 671.26,-197.77"/>
<polygon fill="midnightblue" stroke="midnightblue" points="673.13,-200.75 680.53,-193.17 670.02,-194.48 673.13,-200.75"/>
</g>
</g>
</svg>
        <g id="navigator" transform="translate(0 0)" fill="#404254">
                <rect fill="#f2f5e9" fill-opacity="0.5" stroke="#606060" stroke-width=".5" x="0" y="0" width="60" height="60"/>
                <use id="zoomplus" xlink:href="#zoomPlus" x="17" y="9" onmousedown="handleZoom(evt,'in')"/>
                <use id="zoomminus" xlink:href="#zoomMin" x="42" y="9" onmousedown="handleZoom(evt,'out')"/>
                <use id="reset" xlink:href="#resetDef" x="30" y="36" onmousedown="handleReset()"/>
                <g id="arrowUp" xlink:href="#dirArrow" transform="translate(30 24)" onmousedown="handlePan(0,-1)">
                  <use xlink:href="#rim" fill="#404040">
                        <set attributeName="fill" to="#808080" begin="arrowUp.mouseover" end="arrowUp.mouseout"/>
                  </use>
                  <path fill="none" stroke="white" stroke-width="1.5" d="M0,-3.0v7 M-2.5,-0.5L0,-3.0L2.5,-0.5"/>
                </g>
                <g id="arrowRight" xlink:href="#dirArrow" transform="rotate(90) translate(36 -43)" onmousedown="handlePan(1,0)">
                  <use xlink:href="#rim" fill="#404040">
                        <set attributeName="fill" to="#808080" begin="arrowRight.mouseover" end="arrowRight.mouseout"/>
                  </use>
                  <path fill="none" stroke="white" stroke-width="1.5" d="M0,-3.0v7 M-2.5,-0.5L0,-3.0L2.5,-0.5"/>
                </g>
                <g id="arrowDown" xlink:href="#dirArrow" transform="rotate(180) translate(-30 -48)" onmousedown="handlePan(0,1)">
                  <use xlink:href="#rim" fill="#404040">
                        <set attributeName="fill" to="#808080" begin="arrowDown.mouseover" end="arrowDown.mouseout"/>
                  </use>
                  <path fill="none" stroke="white" stroke-width="1.5" d="M0,-3.0v7 M-2.5,-0.5L0,-3.0L2.5,-0.5"/>
                </g>
                <g id="arrowLeft" xlink:href="#dirArrow" transform="rotate(270) translate(-36 17)" onmousedown="handlePan(-1,0)">
                  <use xlink:href="#rim" fill="#404040">
                        <set attributeName="fill" to="#808080" begin="arrowLeft.mouseover" end="arrowLeft.mouseout"/>
                  </use>
                  <path fill="none" stroke="white" stroke-width="1.5" d="M0,-3.0v7 M-2.5,-0.5L0,-3.0L2.5,-0.5"/>
                </g>
        </g>
        <svg viewBox="0 0 15 15" width="100%" height="30px" preserveAspectRatio="xMaxYMin meet">
         <g id="arrow_out" transform="scale(0.3 0.3)">
          <a xlink:href="ResamplingWithPrior_8cpp__incl_org.svg" target="_base">
           <rect id="button" ry="5" rx="5" y="6" x="6" height="38" width="38"
                fill="#f2f5e9" fill-opacity="0.5" stroke="#606060" stroke-width="1.0"/>
           <path id="arrow"
             d="M 11.500037,31.436501 C 11.940474,20.09759 22.043105,11.32322 32.158766,21.979434 L 37.068811,17.246167 C 37.068811,17.246167 37.088388,32 37.088388,32 L 22.160133,31.978069 C 22.160133,31.978069 26.997745,27.140456 26.997745,27.140456 C 18.528582,18.264221 13.291696,25.230495 11.500037,31.436501 z"
             style="fill:#404040;"/>
          </a>
         </g>
        </svg>
</svg>
