<?xml version="1.0" encoding="UTF-8" standalone="no"?>
<!DOCTYPE svg PUBLIC "-//W3C//DTD SVG 1.1//EN"
 "http://www.w3.org/Graphics/SVG/1.1/DTD/svg11.dtd">
<!-- Generated by graphviz version 2.47.2 (0)
 -->
<!-- Title: /home/xenvre/robot&#45;code/bfl_robotology/src/BayesFilters/src/ResamplingWithPrior.cpp Pages: 1 -->
<svg width="738pt" height="363pt"
 viewBox="0.00 0.00 737.50 363.00" xmlns="http://www.w3.org/2000/svg" xmlns:xlink="http://www.w3.org/1999/xlink">
<g id="graph0" class="graph" transform="scale(1 1) rotate(0) translate(4 359)">
<title>/home/xenvre/robot&#45;code/bfl_robotology/src/BayesFilters/src/ResamplingWithPrior.cpp</title>
<polygon fill="white" stroke="transparent" points="-4,4 -4,-359 733.5,-359 733.5,4 -4,4"/>
<!-- Node1 -->
<g id="node1" class="node">
<title>Node1</title>
<g id="a_node1"><a xlink:title=" ">
<polygon fill="#bfbfbf" stroke="black" points="470,-302.5 470,-354.5 600,-354.5 600,-302.5 470,-302.5"/>
<text text-anchor="start" x="478" y="-342.5" font-family="Helvetica,sans-Serif" font-size="10.00">/home/xenvre/robot</text>
<text text-anchor="start" x="478" y="-331.5" font-family="Helvetica,sans-Serif" font-size="10.00">&#45;code/bfl_robotology</text>
<text text-anchor="start" x="478" y="-320.5" font-family="Helvetica,sans-Serif" font-size="10.00">/src/BayesFilters/src</text>
<text text-anchor="middle" x="535" y="-309.5" font-family="Helvetica,sans-Serif" font-size="10.00">/ResamplingWithPrior.cpp</text>
</a>
</g>
</g>
<!-- Node2 -->
<g id="node2" class="node">
<title>Node2</title>
<g id="a_node2"><a xlink:href="ResamplingWithPrior_8h.html" target="_top" xlink:title=" ">
<polygon fill="white" stroke="black" points="246,-235.5 246,-265.5 392,-265.5 392,-235.5 246,-235.5"/>
<text text-anchor="start" x="254" y="-253.5" font-family="Helvetica,sans-Serif" font-size="10.00">BayesFilters/ResamplingWith</text>
<text text-anchor="middle" x="319" y="-242.5" font-family="Helvetica,sans-Serif" font-size="10.00">Prior.h</text>
</a>
</g>
</g>
<!-- Node1&#45;&gt;Node2 -->
<g id="edge1" class="edge">
<title>Node1&#45;&gt;Node2</title>
<path fill="none" stroke="midnightblue" d="M469.9,-304.59C437.28,-293.12 398.43,-279.45 368.32,-268.85"/>
<polygon fill="midnightblue" stroke="midnightblue" points="369.46,-265.55 358.87,-265.53 367.14,-272.15 369.46,-265.55"/>
</g>
<!-- Node5 -->
<g id="node5" class="node">
<title>Node5</title>
<g id="a_node5"><a xlink:title=" ">
<polygon fill="white" stroke="#bfbfbf" points="35,-0.5 35,-19.5 79,-19.5 79,-0.5 35,-0.5"/>
<text text-anchor="middle" x="57" y="-7.5" font-family="Helvetica,sans-Serif" font-size="10.00">vector</text>
</a>
</g>
</g>
<!-- Node1&#45;&gt;Node5 -->
<g id="edge25" class="edge">
<title>Node1&#45;&gt;Node5</title>
<path fill="none" stroke="midnightblue" d="M469.93,-323.8C327.35,-313.93 0,-280.76 0,-184.5 0,-184.5 0,-184.5 0,-121 0,-84.3 25.32,-47.66 42.21,-27.3"/>
<polygon fill="midnightblue" stroke="midnightblue" points="44.95,-29.48 48.83,-19.62 39.65,-24.9 44.95,-29.48"/>
</g>
<!-- Node11 -->
<g id="node11" class="node">
<title>Node11</title>
<g id="a_node11"><a xlink:href="utils_8h.html" target="_top" xlink:title=" ">
<polygon fill="white" stroke="black" points="484.5,-241 484.5,-260 585.5,-260 585.5,-241 484.5,-241"/>
<text text-anchor="middle" x="535" y="-248" font-family="Helvetica,sans-Serif" font-size="10.00">BayesFilters/utils.h</text>
</a>
</g>
</g>
<!-- Node1&#45;&gt;Node11 -->
<g id="edge17" class="edge">
<title>Node1&#45;&gt;Node11</title>
<path fill="none" stroke="midnightblue" d="M535,-302.19C535,-291.76 535,-279.9 535,-270.27"/>
<polygon fill="midnightblue" stroke="midnightblue" points="538.5,-270.21 535,-260.21 531.5,-270.21 538.5,-270.21"/>
</g>
<!-- Node15 -->
<g id="node15" class="node">
<title>Node15</title>
<g id="a_node15"><a xlink:title=" ">
<polygon fill="white" stroke="#bfbfbf" points="604,-241 604,-260 660,-260 660,-241 604,-241"/>
<text text-anchor="middle" x="632" y="-248" font-family="Helvetica,sans-Serif" font-size="10.00">algorithm</text>
</a>
</g>
</g>
<!-- Node1&#45;&gt;Node15 -->
<g id="edge23" class="edge">
<title>Node1&#45;&gt;Node15</title>
<path fill="none" stroke="midnightblue" d="M567.03,-302.4C582.1,-290.6 599.57,-276.91 612.59,-266.7"/>
<polygon fill="midnightblue" stroke="midnightblue" points="615.11,-269.18 620.82,-260.26 610.79,-263.67 615.11,-269.18"/>
</g>
<!-- Node16 -->
<g id="node16" class="node">
<title>Node16</title>
<g id="a_node16"><a xlink:title=" ">
<polygon fill="white" stroke="#bfbfbf" points="678.5,-241 678.5,-260 729.5,-260 729.5,-241 678.5,-241"/>
<text text-anchor="middle" x="704" y="-248" font-family="Helvetica,sans-Serif" font-size="10.00">numeric</text>
</a>
</g>
</g>
<!-- Node1&#45;&gt;Node16 -->
<g id="edge24" class="edge">
<title>Node1&#45;&gt;Node16</title>
<path fill="none" stroke="midnightblue" d="M590.81,-302.4C619.24,-289.62 652.59,-274.62 675.7,-264.23"/>
<polygon fill="midnightblue" stroke="midnightblue" points="677.24,-267.37 684.93,-260.08 674.37,-260.99 677.24,-267.37"/>
</g>
<!-- Node3 -->
<g id="node3" class="node">
<title>Node3</title>
<g id="a_node3"><a xlink:href="ParticleSet_8h.html" target="_top" xlink:title=" ">
<polygon fill="white" stroke="black" points="107.5,-112.5 107.5,-131.5 238.5,-131.5 238.5,-112.5 107.5,-112.5"/>
<text text-anchor="middle" x="173" y="-119.5" font-family="Helvetica,sans-Serif" font-size="10.00">BayesFilters/ParticleSet.h</text>
</a>
</g>
</g>
<!-- Node2&#45;&gt;Node3 -->
<g id="edge2" class="edge">
<title>Node2&#45;&gt;Node3</title>
<path fill="none" stroke="midnightblue" d="M245.84,-242.08C190.37,-234.76 120.74,-221.37 103,-199 94.44,-188.21 96.4,-180.09 103,-168 110.82,-153.68 125.36,-143.24 139.18,-136.04"/>
<polygon fill="midnightblue" stroke="midnightblue" points="141.02,-139.03 148.53,-131.56 138,-132.72 141.02,-139.03"/>
</g>
<!-- Node2&#45;&gt;Node5 -->
<g id="edge15" class="edge">
<title>Node2&#45;&gt;Node5</title>
<path fill="none" stroke="midnightblue" d="M245.99,-241.76C188.6,-234.15 114.95,-220.51 94,-199 48.57,-152.35 50.98,-67.12 54.63,-29.59"/>
<polygon fill="midnightblue" stroke="midnightblue" points="58.12,-29.89 55.76,-19.57 51.17,-29.11 58.12,-29.89"/>
</g>
<!-- Node6 -->
<g id="node6" class="node">
<title>Node6</title>
<g id="a_node6"><a xlink:title=" ">
<polygon fill="white" stroke="#bfbfbf" points="339.5,-0.5 339.5,-19.5 412.5,-19.5 412.5,-0.5 339.5,-0.5"/>
<text text-anchor="middle" x="376" y="-7.5" font-family="Helvetica,sans-Serif" font-size="10.00">Eigen/Dense</text>
</a>
</g>
</g>
<!-- Node2&#45;&gt;Node6 -->
<g id="edge16" class="edge">
<title>Node2&#45;&gt;Node6</title>
<path fill="none" stroke="midnightblue" d="M354.14,-235.45C369.61,-227.29 386.24,-215.34 395,-199 425.06,-142.93 398.67,-63.92 384.11,-28.9"/>
<polygon fill="midnightblue" stroke="midnightblue" points="387.23,-27.31 380.05,-19.52 380.81,-30.09 387.23,-27.31"/>
</g>
<!-- Node7 -->
<g id="node7" class="node">
<title>Node7</title>
<g id="a_node7"><a xlink:href="ParticleSetInitialization_8h.html" target="_top" xlink:title=" ">
<polygon fill="white" stroke="black" points="112,-168.5 112,-198.5 234,-198.5 234,-168.5 112,-168.5"/>
<text text-anchor="start" x="120" y="-186.5" font-family="Helvetica,sans-Serif" font-size="10.00">BayesFilters/ParticleSet</text>
<text text-anchor="middle" x="173" y="-175.5" font-family="Helvetica,sans-Serif" font-size="10.00">Initialization.h</text>
</a>
</g>
</g>
<!-- Node2&#45;&gt;Node7 -->
<g id="edge7" class="edge">
<title>Node2&#45;&gt;Node7</title>
<path fill="none" stroke="midnightblue" d="M287.32,-235.4C265.8,-225.81 237.13,-213.05 213.88,-202.7"/>
<polygon fill="midnightblue" stroke="midnightblue" points="215.18,-199.45 204.62,-198.58 212.33,-205.84 215.18,-199.45"/>
</g>
<!-- Node8 -->
<g id="node8" class="node">
<title>Node8</title>
<g id="a_node8"><a xlink:href="Resampling_8h.html" target="_top" xlink:title=" ">
<polygon fill="white" stroke="black" points="252,-174 252,-193 386,-193 386,-174 252,-174"/>
<text text-anchor="middle" x="319" y="-181" font-family="Helvetica,sans-Serif" font-size="10.00">BayesFilters/Resampling.h</text>
</a>
</g>
</g>
<!-- Node2&#45;&gt;Node8 -->
<g id="edge10" class="edge">
<title>Node2&#45;&gt;Node8</title>
<path fill="none" stroke="midnightblue" d="M319,-235.4C319,-226.06 319,-213.71 319,-203.52"/>
<polygon fill="midnightblue" stroke="midnightblue" points="322.5,-203.19 319,-193.19 315.5,-203.19 322.5,-203.19"/>
</g>
<!-- Node10 -->
<g id="node10" class="node">
<title>Node10</title>
<g id="a_node10"><a xlink:title=" ">
<polygon fill="white" stroke="#bfbfbf" points="442,-174 442,-193 494,-193 494,-174 442,-174"/>
<text text-anchor="middle" x="468" y="-181" font-family="Helvetica,sans-Serif" font-size="10.00">memory</text>
</a>
</g>
</g>
<!-- Node2&#45;&gt;Node10 -->
<g id="edge14" class="edge">
<title>Node2&#45;&gt;Node10</title>
<path fill="none" stroke="midnightblue" d="M351.33,-235.4C377.47,-223.99 413.95,-208.08 439.12,-197.1"/>
<polygon fill="midnightblue" stroke="midnightblue" points="440.73,-200.21 448.5,-193.01 437.93,-193.8 440.73,-200.21"/>
</g>
<!-- Node4 -->
<g id="node4" class="node">
<title>Node4</title>
<g id="a_node4"><a xlink:href="GaussianMixture_8h.html" target="_top" xlink:title=" ">
<polygon fill="white" stroke="black" points="104,-56.5 104,-75.5 260,-75.5 260,-56.5 104,-56.5"/>
<text text-anchor="middle" x="182" y="-63.5" font-family="Helvetica,sans-Serif" font-size="10.00">BayesFilters/GaussianMixture.h</text>
</a>
</g>
</g>
<!-- Node3&#45;&gt;Node4 -->
<g id="edge3" class="edge">
<title>Node3&#45;&gt;Node4</title>
<path fill="none" stroke="midnightblue" d="M174.49,-112.08C175.68,-104.93 177.39,-94.64 178.88,-85.69"/>
<polygon fill="midnightblue" stroke="midnightblue" points="182.35,-86.19 180.54,-75.75 175.45,-85.04 182.35,-86.19"/>
</g>
<!-- Node3&#45;&gt;Node5 -->
<g id="edge6" class="edge">
<title>Node3&#45;&gt;Node5</title>
<path fill="none" stroke="midnightblue" d="M151.83,-112.44C134.91,-104.81 111.41,-92.31 95,-76 81.41,-62.49 70.92,-43.13 64.44,-29.06"/>
<polygon fill="midnightblue" stroke="midnightblue" points="67.48,-27.28 60.28,-19.51 61.07,-30.07 67.48,-27.28"/>
</g>
<!-- Node4&#45;&gt;Node5 -->
<g id="edge4" class="edge">
<title>Node4&#45;&gt;Node5</title>
<path fill="none" stroke="midnightblue" d="M162.19,-56.44C141.71,-47.6 109.52,-33.69 86.14,-23.59"/>
<polygon fill="midnightblue" stroke="midnightblue" points="87.28,-20.27 76.71,-19.52 84.51,-26.7 87.28,-20.27"/>
</g>
<!-- Node4&#45;&gt;Node6 -->
<g id="edge5" class="edge">
<title>Node4&#45;&gt;Node6</title>
<path fill="none" stroke="midnightblue" d="M212.74,-56.44C245.94,-47.2 298.99,-32.44 335.56,-22.26"/>
<polygon fill="midnightblue" stroke="midnightblue" points="336.71,-25.57 345.4,-19.52 334.83,-18.83 336.71,-25.57"/>
</g>
<!-- Node7&#45;&gt;Node3 -->
<g id="edge8" class="edge">
<title>Node7&#45;&gt;Node3</title>
<path fill="none" stroke="midnightblue" d="M173,-168.4C173,-160.47 173,-150.46 173,-141.86"/>
<polygon fill="midnightblue" stroke="midnightblue" points="176.5,-141.66 173,-131.66 169.5,-141.66 176.5,-141.66"/>
</g>
<!-- Node7&#45;&gt;Node6 -->
<g id="edge9" class="edge">
<title>Node7&#45;&gt;Node6</title>
<path fill="none" stroke="midnightblue" d="M195.66,-168.34C210.65,-158.66 230.5,-145.24 247,-132 290.47,-97.13 337.14,-50.89 360.62,-26.92"/>
<polygon fill="midnightblue" stroke="midnightblue" points="363.19,-29.3 367.66,-19.7 358.18,-24.42 363.19,-29.3"/>
</g>
<!-- Node8&#45;&gt;Node3 -->
<g id="edge12" class="edge">
<title>Node8&#45;&gt;Node3</title>
<path fill="none" stroke="midnightblue" d="M298.08,-173.98C273.25,-163.86 231.66,-146.9 203.31,-135.35"/>
<polygon fill="midnightblue" stroke="midnightblue" points="204.46,-132.04 193.88,-131.51 201.82,-138.52 204.46,-132.04"/>
</g>
<!-- Node8&#45;&gt;Node6 -->
<g id="edge13" class="edge">
<title>Node8&#45;&gt;Node6</title>
<path fill="none" stroke="midnightblue" d="M327.22,-173.99C335.85,-164.54 349.09,-148.43 356,-132 370.39,-97.77 374.46,-54.03 375.59,-29.62"/>
<polygon fill="midnightblue" stroke="midnightblue" points="379.09,-29.7 375.93,-19.59 372.09,-29.46 379.09,-29.7"/>
</g>
<!-- Node9 -->
<g id="node9" class="node">
<title>Node9</title>
<g id="a_node9"><a xlink:title=" ">
<polygon fill="white" stroke="#bfbfbf" points="298.5,-112.5 298.5,-131.5 347.5,-131.5 347.5,-112.5 298.5,-112.5"/>
<text text-anchor="middle" x="323" y="-119.5" font-family="Helvetica,sans-Serif" font-size="10.00">random</text>
</a>
</g>
</g>
<!-- Node8&#45;&gt;Node9 -->
<g id="edge11" class="edge">
<title>Node8&#45;&gt;Node9</title>
<path fill="none" stroke="midnightblue" d="M319.57,-173.98C320.14,-165.58 321.02,-152.48 321.75,-141.66"/>
<polygon fill="midnightblue" stroke="midnightblue" points="325.25,-141.72 322.43,-131.51 318.26,-141.25 325.25,-141.72"/>
</g>
<!-- Node11&#45;&gt;Node6 -->
<g id="edge18" class="edge">
<title>Node11&#45;&gt;Node6</title>
<path fill="none" stroke="midnightblue" d="M567.86,-240.92C610.87,-229.36 681.7,-209.08 689,-199 697.08,-187.84 696.24,-179.72 689,-168 630.34,-72.96 494.68,-33.47 422.74,-18.75"/>
<polygon fill="midnightblue" stroke="midnightblue" points="423.1,-15.25 412.61,-16.75 421.74,-22.12 423.1,-15.25"/>
</g>
<!-- Node11&#45;&gt;Node10 -->
<g id="edge21" class="edge">
<title>Node11&#45;&gt;Node10</title>
<path fill="none" stroke="midnightblue" d="M525.96,-240.73C515.32,-230.4 497.42,-213.04 484.32,-200.33"/>
<polygon fill="midnightblue" stroke="midnightblue" points="486.51,-197.58 476.89,-193.13 481.63,-202.6 486.51,-197.58"/>
</g>
<!-- Node12 -->
<g id="node12" class="node">
<title>Node12</title>
<g id="a_node12"><a xlink:title=" ">
<polygon fill="white" stroke="#bfbfbf" points="512,-174 512,-193 558,-193 558,-174 512,-174"/>
<text text-anchor="middle" x="535" y="-181" font-family="Helvetica,sans-Serif" font-size="10.00">chrono</text>
</a>
</g>
</g>
<!-- Node11&#45;&gt;Node12 -->
<g id="edge19" class="edge">
<title>Node11&#45;&gt;Node12</title>
<path fill="none" stroke="midnightblue" d="M535,-240.73C535,-231.18 535,-215.62 535,-203.28"/>
<polygon fill="midnightblue" stroke="midnightblue" points="538.5,-203.13 535,-193.13 531.5,-203.13 538.5,-203.13"/>
</g>
<!-- Node13 -->
<g id="node13" class="node">
<title>Node13</title>
<g id="a_node13"><a xlink:title=" ">
<polygon fill="white" stroke="#bfbfbf" points="576,-174 576,-193 620,-193 620,-174 576,-174"/>
<text text-anchor="middle" x="598" y="-181" font-family="Helvetica,sans-Serif" font-size="10.00">cmath</text>
</a>
</g>
</g>
<!-- Node11&#45;&gt;Node13 -->
<g id="edge20" class="edge">
<title>Node11&#45;&gt;Node13</title>
<path fill="none" stroke="midnightblue" d="M543.5,-240.73C553.51,-230.4 570.34,-213.04 582.66,-200.33"/>
<polygon fill="midnightblue" stroke="midnightblue" points="585.19,-202.74 589.64,-193.13 580.17,-197.87 585.19,-202.74"/>
</g>
<!-- Node14 -->
<g id="node14" class="node">
<title>Node14</title>
<g id="a_node14"><a xlink:title=" ">
<polygon fill="white" stroke="#bfbfbf" points="638.5,-174 638.5,-193 679.5,-193 679.5,-174 638.5,-174"/>
<text text-anchor="middle" x="659" y="-181" font-family="Helvetica,sans-Serif" font-size="10.00">string</text>
</a>
</g>
</g>
<!-- Node11&#45;&gt;Node14 -->
<g id="edge22" class="edge">
<title>Node11&#45;&gt;Node14</title>
<path fill="none" stroke="midnightblue" d="M551.47,-240.87C572.4,-229.89 608.78,-210.82 633.36,-197.94"/>
<polygon fill="midnightblue" stroke="midnightblue" points="635.23,-200.91 642.47,-193.17 631.98,-194.71 635.23,-200.91"/>
</g>
</g>
</svg>
