<?xml version="1.0" encoding="UTF-8" standalone="no"?>
<!DOCTYPE svg PUBLIC "-//W3C//DTD SVG 1.1//EN"
 "http://www.w3.org/Graphics/SVG/1.1/DTD/svg11.dtd">
<!-- Generated by graphviz version 2.47.2 (0)
 -->
<!-- Title: /home/xenvre/robot&#45;code/bfl_robotology/src/BayesFilters/include/BayesFilters/ResamplingWithPrior.h Pages: 1 -->
<svg width="512pt" height="296pt"
 viewBox="0.00 0.00 512.00 296.00" xmlns="http://www.w3.org/2000/svg" xmlns:xlink="http://www.w3.org/1999/xlink">
<g id="graph0" class="graph" transform="scale(1 1) rotate(0) translate(4 292)">
<title>/home/xenvre/robot&#45;code/bfl_robotology/src/BayesFilters/include/BayesFilters/ResamplingWithPrior.h</title>
<polygon fill="white" stroke="transparent" points="-4,4 -4,-292 508,-292 508,4 -4,4"/>
<!-- Node1 -->
<g id="node1" class="node">
<title>Node1</title>
<g id="a_node1"><a xlink:title=" ">
<polygon fill="#bfbfbf" stroke="black" points="138.5,-235.5 138.5,-287.5 315.5,-287.5 315.5,-235.5 138.5,-235.5"/>
<text text-anchor="start" x="146.5" y="-275.5" font-family="Helvetica,sans-Serif" font-size="10.00">/home/xenvre/robot</text>
<text text-anchor="start" x="146.5" y="-264.5" font-family="Helvetica,sans-Serif" font-size="10.00">&#45;code/bfl_robotology</text>
<text text-anchor="start" x="146.5" y="-253.5" font-family="Helvetica,sans-Serif" font-size="10.00">/src/BayesFilters/include</text>
<text text-anchor="middle" x="227" y="-242.5" font-family="Helvetica,sans-Serif" font-size="10.00">/BayesFilters/ResamplingWithPrior.h</text>
</a>
</g>
</g>
<!-- Node2 -->
<g id="node2" class="node">
<title>Node2</title>
<g id="a_node2"><a xlink:href="ParticleSet_8h.html" target="_top" xlink:title=" ">
<polygon fill="white" stroke="black" points="62.5,-112.5 62.5,-131.5 193.5,-131.5 193.5,-112.5 62.5,-112.5"/>
<text text-anchor="middle" x="128" y="-119.5" font-family="Helvetica,sans-Serif" font-size="10.00">BayesFilters/ParticleSet.h</text>
</a>
</g>
</g>
<!-- Node1&#45;&gt;Node2 -->
<g id="edge1" class="edge">
<title>Node1&#45;&gt;Node2</title>
<path fill="none" stroke="midnightblue" d="M152.81,-235.34C136.99,-226.4 122.28,-214.55 113,-199 102.27,-181.02 110.14,-156.8 117.95,-140.58"/>
<polygon fill="midnightblue" stroke="midnightblue" points="121.1,-142.12 122.64,-131.64 114.9,-138.87 121.1,-142.12"/>
</g>
<!-- Node4 -->
<g id="node4" class="node">
<title>Node4</title>
<g id="a_node4"><a xlink:title=" ">
<polygon fill="white" stroke="#bfbfbf" points="0,-0.5 0,-19.5 44,-19.5 44,-0.5 0,-0.5"/>
<text text-anchor="middle" x="22" y="-7.5" font-family="Helvetica,sans-Serif" font-size="10.00">vector</text>
</a>
</g>
</g>
<!-- Node1&#45;&gt;Node4 -->
<g id="edge14" class="edge">
<title>Node1&#45;&gt;Node4</title>
<path fill="none" stroke="midnightblue" d="M163.28,-235.44C143.13,-225.8 121.56,-213.55 104,-199 54.34,-157.85 43.31,-138.4 27,-76 23.01,-60.76 21.89,-42.87 21.68,-29.72"/>
<polygon fill="midnightblue" stroke="midnightblue" points="25.18,-29.58 21.7,-19.57 18.18,-29.57 25.18,-29.58"/>
</g>
<!-- Node5 -->
<g id="node5" class="node">
<title>Node5</title>
<g id="a_node5"><a xlink:title=" ">
<polygon fill="white" stroke="#bfbfbf" points="216.5,-0.5 216.5,-19.5 289.5,-19.5 289.5,-0.5 216.5,-0.5"/>
<text text-anchor="middle" x="253" y="-7.5" font-family="Helvetica,sans-Serif" font-size="10.00">Eigen/Dense</text>
</a>
</g>
</g>
<!-- Node1&#45;&gt;Node5 -->
<g id="edge15" class="edge">
<title>Node1&#45;&gt;Node5</title>
<path fill="none" stroke="midnightblue" d="M240.39,-235.2C245.4,-224.37 250.49,-211.38 253,-199 265.35,-138.07 259.32,-63.74 255.43,-29.67"/>
<polygon fill="midnightblue" stroke="midnightblue" points="258.9,-29.25 254.22,-19.74 251.95,-30.09 258.9,-29.25"/>
</g>
<!-- Node6 -->
<g id="node6" class="node">
<title>Node6</title>
<g id="a_node6"><a xlink:href="ParticleSetInitialization_8h.html" target="_top" xlink:title=" ">
<polygon fill="white" stroke="black" points="122,-168.5 122,-198.5 244,-198.5 244,-168.5 122,-168.5"/>
<text text-anchor="start" x="130" y="-186.5" font-family="Helvetica,sans-Serif" font-size="10.00">BayesFilters/ParticleSet</text>
<text text-anchor="middle" x="183" y="-175.5" font-family="Helvetica,sans-Serif" font-size="10.00">Initialization.h</text>
</a>
</g>
</g>
<!-- Node1&#45;&gt;Node6 -->
<g id="edge6" class="edge">
<title>Node1&#45;&gt;Node6</title>
<path fill="none" stroke="midnightblue" d="M212.35,-235.19C207.21,-226.31 201.46,-216.39 196.43,-207.69"/>
<polygon fill="midnightblue" stroke="midnightblue" points="199.34,-205.75 191.31,-198.85 193.29,-209.25 199.34,-205.75"/>
</g>
<!-- Node7 -->
<g id="node7" class="node">
<title>Node7</title>
<g id="a_node7"><a xlink:href="Resampling_8h.html" target="_top" xlink:title=" ">
<polygon fill="white" stroke="black" points="300,-174 300,-193 434,-193 434,-174 300,-174"/>
<text text-anchor="middle" x="367" y="-181" font-family="Helvetica,sans-Serif" font-size="10.00">BayesFilters/Resampling.h</text>
</a>
</g>
</g>
<!-- Node1&#45;&gt;Node7 -->
<g id="edge9" class="edge">
<title>Node1&#45;&gt;Node7</title>
<path fill="none" stroke="midnightblue" d="M273.23,-235.4C296.26,-222.9 323.18,-208.29 342.26,-197.93"/>
<polygon fill="midnightblue" stroke="midnightblue" points="344.08,-200.92 351.2,-193.08 340.74,-194.77 344.08,-200.92"/>
</g>
<!-- Node9 -->
<g id="node9" class="node">
<title>Node9</title>
<g id="a_node9"><a xlink:title=" ">
<polygon fill="white" stroke="#bfbfbf" points="452,-174 452,-193 504,-193 504,-174 452,-174"/>
<text text-anchor="middle" x="478" y="-181" font-family="Helvetica,sans-Serif" font-size="10.00">memory</text>
</a>
</g>
</g>
<!-- Node1&#45;&gt;Node9 -->
<g id="edge13" class="edge">
<title>Node1&#45;&gt;Node9</title>
<path fill="none" stroke="midnightblue" d="M315.74,-237.72C355.05,-226.99 401.67,-213.39 443,-199 444.91,-198.33 446.87,-197.62 448.83,-196.88"/>
<polygon fill="midnightblue" stroke="midnightblue" points="450.53,-199.97 458.53,-193.03 447.95,-193.46 450.53,-199.97"/>
</g>
<!-- Node3 -->
<g id="node3" class="node">
<title>Node3</title>
<g id="a_node3"><a xlink:href="GaussianMixture_8h.html" target="_top" xlink:title=" ">
<polygon fill="white" stroke="black" points="50,-56.5 50,-75.5 206,-75.5 206,-56.5 50,-56.5"/>
<text text-anchor="middle" x="128" y="-63.5" font-family="Helvetica,sans-Serif" font-size="10.00">BayesFilters/GaussianMixture.h</text>
</a>
</g>
</g>
<!-- Node2&#45;&gt;Node3 -->
<g id="edge2" class="edge">
<title>Node2&#45;&gt;Node3</title>
<path fill="none" stroke="midnightblue" d="M128,-112.08C128,-105.01 128,-94.86 128,-85.99"/>
<polygon fill="midnightblue" stroke="midnightblue" points="131.5,-85.75 128,-75.75 124.5,-85.75 131.5,-85.75"/>
</g>
<!-- Node2&#45;&gt;Node4 -->
<g id="edge5" class="edge">
<title>Node2&#45;&gt;Node4</title>
<path fill="none" stroke="midnightblue" d="M98.26,-112.37C79.34,-105.44 55.7,-93.85 41,-76 30.15,-62.82 25.49,-43.69 23.5,-29.59"/>
<polygon fill="midnightblue" stroke="midnightblue" points="26.97,-29.13 22.4,-19.57 20.01,-29.89 26.97,-29.13"/>
</g>
<!-- Node3&#45;&gt;Node4 -->
<g id="edge3" class="edge">
<title>Node3&#45;&gt;Node4</title>
<path fill="none" stroke="midnightblue" d="M110.97,-56.32C93.97,-47.66 67.62,-34.24 48.01,-24.25"/>
<polygon fill="midnightblue" stroke="midnightblue" points="49.49,-21.08 38.99,-19.65 46.31,-27.31 49.49,-21.08"/>
</g>
<!-- Node3&#45;&gt;Node5 -->
<g id="edge4" class="edge">
<title>Node3&#45;&gt;Node5</title>
<path fill="none" stroke="midnightblue" d="M147.81,-56.44C168.29,-47.6 200.48,-33.69 223.86,-23.59"/>
<polygon fill="midnightblue" stroke="midnightblue" points="225.49,-26.7 233.29,-19.52 222.72,-20.27 225.49,-26.7"/>
</g>
<!-- Node6&#45;&gt;Node2 -->
<g id="edge7" class="edge">
<title>Node6&#45;&gt;Node2</title>
<path fill="none" stroke="midnightblue" d="M169.97,-168.4C161.81,-159.58 151.28,-148.18 142.81,-139.02"/>
<polygon fill="midnightblue" stroke="midnightblue" points="145.36,-136.63 136,-131.66 140.22,-141.38 145.36,-136.63"/>
</g>
<!-- Node6&#45;&gt;Node5 -->
<g id="edge8" class="edge">
<title>Node6&#45;&gt;Node5</title>
<path fill="none" stroke="midnightblue" d="M188.73,-168.47C201.34,-137.57 231.49,-63.69 245.55,-29.25"/>
<polygon fill="midnightblue" stroke="midnightblue" points="248.97,-30.14 249.51,-19.56 242.49,-27.5 248.97,-30.14"/>
</g>
<!-- Node7&#45;&gt;Node2 -->
<g id="edge11" class="edge">
<title>Node7&#45;&gt;Node2</title>
<path fill="none" stroke="midnightblue" d="M332.76,-173.98C290.43,-163.44 218.32,-145.49 171.95,-133.94"/>
<polygon fill="midnightblue" stroke="midnightblue" points="172.73,-130.53 162.18,-131.51 171.04,-137.32 172.73,-130.53"/>
</g>
<!-- Node7&#45;&gt;Node5 -->
<g id="edge12" class="edge">
<title>Node7&#45;&gt;Node5</title>
<path fill="none" stroke="midnightblue" d="M361.35,-173.95C354.75,-163.93 343.51,-146.8 334,-132 312.41,-98.39 308.49,-89.02 286,-56 279.59,-46.59 272.11,-36.34 265.9,-28"/>
<polygon fill="midnightblue" stroke="midnightblue" points="268.57,-25.73 259.76,-19.83 262.97,-29.93 268.57,-25.73"/>
</g>
<!-- Node8 -->
<g id="node8" class="node">
<title>Node8</title>
<g id="a_node8"><a xlink:title=" ">
<polygon fill="white" stroke="#bfbfbf" points="342.5,-112.5 342.5,-131.5 391.5,-131.5 391.5,-112.5 342.5,-112.5"/>
<text text-anchor="middle" x="367" y="-119.5" font-family="Helvetica,sans-Serif" font-size="10.00">random</text>
</a>
</g>
</g>
<!-- Node7&#45;&gt;Node8 -->
<g id="edge10" class="edge">
<title>Node7&#45;&gt;Node8</title>
<path fill="none" stroke="midnightblue" d="M367,-173.98C367,-165.58 367,-152.48 367,-141.66"/>
<polygon fill="midnightblue" stroke="midnightblue" points="370.5,-141.51 367,-131.51 363.5,-141.51 370.5,-141.51"/>
</g>
</g>
</svg>
