<?xml version="1.0" encoding="UTF-8" standalone="no"?>
<!DOCTYPE svg PUBLIC "-//W3C//DTD SVG 1.1//EN"
 "http://www.w3.org/Graphics/SVG/1.1/DTD/svg11.dtd">
<!-- Generated by graphviz version 2.43.0 (0)
 -->
<!-- Title: /home/user/bayes&#45;filters&#45;lib/src/BayesFilters/include/BayesFilters/ResamplingWithPrior.h Pages: 1 -->
<svg width="548pt" height="285pt"
 viewBox="0.00 0.00 547.50 285.00" xmlns="http://www.w3.org/2000/svg" xmlns:xlink="http://www.w3.org/1999/xlink">
<g id="graph0" class="graph" transform="scale(1 1) rotate(0) translate(4 281)">
<title>/home/user/bayes&#45;filters&#45;lib/src/BayesFilters/include/BayesFilters/ResamplingWithPrior.h</title>
<polygon fill="white" stroke="transparent" points="-4,4 -4,-281 543.5,-281 543.5,4 -4,4"/>
<!-- Node1 -->
<g id="node1" class="node">
<title>Node1</title>
<g id="a_node1"><a xlink:title=" ">
<polygon fill="#bfbfbf" stroke="black" points="145.5,-235.5 145.5,-276.5 339.5,-276.5 339.5,-235.5 145.5,-235.5"/>
<text text-anchor="start" x="153.5" y="-264.5" font-family="Helvetica,sans-Serif" font-size="10.00">/home/user/bayes&#45;filters</text>
<text text-anchor="start" x="153.5" y="-253.5" font-family="Helvetica,sans-Serif" font-size="10.00">&#45;lib/src/BayesFilters/include</text>
<text text-anchor="middle" x="242.5" y="-242.5" font-family="Helvetica,sans-Serif" font-size="10.00">/BayesFilters/ResamplingWithPrior.h</text>
</a>
</g>
</g>
<!-- Node2 -->
<g id="node2" class="node">
<title>Node2</title>
<g id="a_node2"><a xlink:href="ParticleSet_8h.html" target="_top" xlink:title=" ">
<polygon fill="white" stroke="black" points="67.5,-112.5 67.5,-131.5 207.5,-131.5 207.5,-112.5 67.5,-112.5"/>
<text text-anchor="middle" x="137.5" y="-119.5" font-family="Helvetica,sans-Serif" font-size="10.00">BayesFilters/ParticleSet.h</text>
</a>
</g>
</g>
<!-- Node1&#45;&gt;Node2 -->
<g id="edge1" class="edge">
<title>Node1&#45;&gt;Node2</title>
<path fill="none" stroke="midnightblue" d="M165.6,-235.45C147.84,-227.17 131.07,-215.48 120.5,-199 109.14,-181.28 117.88,-157 126.48,-140.7"/>
<polygon fill="midnightblue" stroke="midnightblue" points="129.7,-142.13 131.63,-131.71 123.62,-138.64 129.7,-142.13"/>
</g>
<!-- Node4 -->
<g id="node4" class="node">
<title>Node4</title>
<g id="a_node4"><a xlink:title=" ">
<polygon fill="white" stroke="#bfbfbf" points="0,-0.5 0,-19.5 47,-19.5 47,-0.5 0,-0.5"/>
<text text-anchor="middle" x="23.5" y="-7.5" font-family="Helvetica,sans-Serif" font-size="10.00">vector</text>
</a>
</g>
</g>
<!-- Node1&#45;&gt;Node4 -->
<g id="edge14" class="edge">
<title>Node1&#45;&gt;Node4</title>
<path fill="none" stroke="midnightblue" d="M179.74,-235.48C156.9,-226.56 131.74,-214.47 111.5,-199 59.11,-158.94 47,-139.3 28.5,-76 24.08,-60.88 22.99,-42.98 22.91,-29.8"/>
<polygon fill="midnightblue" stroke="midnightblue" points="26.42,-29.66 23.05,-19.61 19.42,-29.57 26.42,-29.66"/>
</g>
<!-- Node5 -->
<g id="node5" class="node">
<title>Node5</title>
<g id="a_node5"><a xlink:title=" ">
<polygon fill="white" stroke="#bfbfbf" points="232,-0.5 232,-19.5 309,-19.5 309,-0.5 232,-0.5"/>
<text text-anchor="middle" x="270.5" y="-7.5" font-family="Helvetica,sans-Serif" font-size="10.00">Eigen/Dense</text>
</a>
</g>
</g>
<!-- Node1&#45;&gt;Node5 -->
<g id="edge15" class="edge">
<title>Node1&#45;&gt;Node5</title>
<path fill="none" stroke="midnightblue" d="M254.65,-235.32C260.36,-224.93 266.56,-211.72 269.5,-199 283.51,-138.43 277.23,-63.92 273.09,-29.74"/>
<polygon fill="midnightblue" stroke="midnightblue" points="276.56,-29.25 271.8,-19.78 269.61,-30.14 276.56,-29.25"/>
</g>
<!-- Node6 -->
<g id="node6" class="node">
<title>Node6</title>
<g id="a_node6"><a xlink:href="ParticleSetInitialization_8h.html" target="_top" xlink:title=" ">
<polygon fill="white" stroke="black" points="130,-168.5 130,-198.5 261,-198.5 261,-168.5 130,-168.5"/>
<text text-anchor="start" x="138" y="-186.5" font-family="Helvetica,sans-Serif" font-size="10.00">BayesFilters/ParticleSet</text>
<text text-anchor="middle" x="195.5" y="-175.5" font-family="Helvetica,sans-Serif" font-size="10.00">Initialization.h</text>
</a>
</g>
</g>
<!-- Node1&#45;&gt;Node6 -->
<g id="edge6" class="edge">
<title>Node1&#45;&gt;Node6</title>
<path fill="none" stroke="midnightblue" d="M229.41,-235.36C223.62,-226.68 216.78,-216.42 210.77,-207.4"/>
<polygon fill="midnightblue" stroke="midnightblue" points="213.55,-205.27 205.09,-198.89 207.73,-209.15 213.55,-205.27"/>
</g>
<!-- Node7 -->
<g id="node7" class="node">
<title>Node7</title>
<g id="a_node7"><a xlink:href="Resampling_8h.html" target="_top" xlink:title=" ">
<polygon fill="white" stroke="black" points="317.5,-174 317.5,-193 463.5,-193 463.5,-174 317.5,-174"/>
<text text-anchor="middle" x="390.5" y="-181" font-family="Helvetica,sans-Serif" font-size="10.00">BayesFilters/Resampling.h</text>
</a>
</g>
</g>
<!-- Node1&#45;&gt;Node7 -->
<g id="edge9" class="edge">
<title>Node1&#45;&gt;Node7</title>
<path fill="none" stroke="midnightblue" d="M283.73,-235.36C309.06,-223.29 340.81,-208.17 363.08,-197.56"/>
<polygon fill="midnightblue" stroke="midnightblue" points="364.77,-200.63 372.29,-193.17 361.76,-194.31 364.77,-200.63"/>
</g>
<!-- Node9 -->
<g id="node9" class="node">
<title>Node9</title>
<g id="a_node9"><a xlink:title=" ">
<polygon fill="white" stroke="#bfbfbf" points="481.5,-174 481.5,-193 539.5,-193 539.5,-174 481.5,-174"/>
<text text-anchor="middle" x="510.5" y="-181" font-family="Helvetica,sans-Serif" font-size="10.00">memory</text>
</a>
</g>
</g>
<!-- Node1&#45;&gt;Node9 -->
<g id="edge13" class="edge">
<title>Node1&#45;&gt;Node9</title>
<path fill="none" stroke="midnightblue" d="M334.17,-235.47C376.6,-225.71 427.47,-213.01 472.5,-199 474.92,-198.25 477.41,-197.42 479.89,-196.56"/>
<polygon fill="midnightblue" stroke="midnightblue" points="481.16,-199.82 489.36,-193.11 478.77,-193.24 481.16,-199.82"/>
</g>
<!-- Node3 -->
<g id="node3" class="node">
<title>Node3</title>
<g id="a_node3"><a xlink:href="GaussianMixture_8h.html" target="_top" xlink:title=" ">
<polygon fill="white" stroke="black" points="52,-56.5 52,-75.5 223,-75.5 223,-56.5 52,-56.5"/>
<text text-anchor="middle" x="137.5" y="-63.5" font-family="Helvetica,sans-Serif" font-size="10.00">BayesFilters/GaussianMixture.h</text>
</a>
</g>
</g>
<!-- Node2&#45;&gt;Node3 -->
<g id="edge2" class="edge">
<title>Node2&#45;&gt;Node3</title>
<path fill="none" stroke="midnightblue" d="M137.5,-112.08C137.5,-105.01 137.5,-94.86 137.5,-85.99"/>
<polygon fill="midnightblue" stroke="midnightblue" points="141,-85.75 137.5,-75.75 134,-85.75 141,-85.75"/>
</g>
<!-- Node2&#45;&gt;Node4 -->
<g id="edge5" class="edge">
<title>Node2&#45;&gt;Node4</title>
<path fill="none" stroke="midnightblue" d="M103.23,-112.45C82.91,-105.72 58.14,-94.33 42.5,-76 31.42,-63.02 26.8,-43.85 24.87,-29.69"/>
<polygon fill="midnightblue" stroke="midnightblue" points="28.34,-29.22 23.83,-19.63 21.38,-29.93 28.34,-29.22"/>
</g>
<!-- Node3&#45;&gt;Node4 -->
<g id="edge3" class="edge">
<title>Node3&#45;&gt;Node4</title>
<path fill="none" stroke="midnightblue" d="M119.44,-56.44C100.93,-47.68 71.92,-33.94 50.64,-23.86"/>
<polygon fill="midnightblue" stroke="midnightblue" points="52.01,-20.63 41.48,-19.52 49.02,-26.96 52.01,-20.63"/>
</g>
<!-- Node3&#45;&gt;Node5 -->
<g id="edge4" class="edge">
<title>Node3&#45;&gt;Node5</title>
<path fill="none" stroke="midnightblue" d="M158.57,-56.44C180.56,-47.52 215.23,-33.44 240.16,-23.32"/>
<polygon fill="midnightblue" stroke="midnightblue" points="241.58,-26.52 249.52,-19.52 238.94,-20.04 241.58,-26.52"/>
</g>
<!-- Node6&#45;&gt;Node2 -->
<g id="edge7" class="edge">
<title>Node6&#45;&gt;Node2</title>
<path fill="none" stroke="midnightblue" d="M181.75,-168.4C173.15,-159.58 162.05,-148.18 153.11,-139.02"/>
<polygon fill="midnightblue" stroke="midnightblue" points="155.43,-136.38 145.94,-131.66 150.41,-141.26 155.43,-136.38"/>
</g>
<!-- Node6&#45;&gt;Node5 -->
<g id="edge8" class="edge">
<title>Node6&#45;&gt;Node5</title>
<path fill="none" stroke="midnightblue" d="M201.64,-168.47C215.21,-137.44 247.74,-63.05 262.71,-28.81"/>
<polygon fill="midnightblue" stroke="midnightblue" points="265.96,-30.12 266.76,-19.56 259.54,-27.32 265.96,-30.12"/>
</g>
<!-- Node7&#45;&gt;Node2 -->
<g id="edge11" class="edge">
<title>Node7&#45;&gt;Node2</title>
<path fill="none" stroke="midnightblue" d="M354.25,-173.98C309.35,-163.42 232.79,-145.41 183.72,-133.87"/>
<polygon fill="midnightblue" stroke="midnightblue" points="184.22,-130.39 173.68,-131.51 182.61,-137.21 184.22,-130.39"/>
</g>
<!-- Node7&#45;&gt;Node5 -->
<g id="edge12" class="edge">
<title>Node7&#45;&gt;Node5</title>
<path fill="none" stroke="midnightblue" d="M384.31,-173.97C377.08,-163.98 364.79,-146.88 354.5,-132 331.36,-98.55 326.87,-89.3 303.5,-56 296.88,-46.57 289.29,-36.18 283.05,-27.77"/>
<polygon fill="midnightblue" stroke="midnightblue" points="285.71,-25.48 276.93,-19.55 280.1,-29.66 285.71,-25.48"/>
</g>
<!-- Node8 -->
<g id="node8" class="node">
<title>Node8</title>
<g id="a_node8"><a xlink:title=" ">
<polygon fill="white" stroke="#bfbfbf" points="363.5,-112.5 363.5,-131.5 417.5,-131.5 417.5,-112.5 363.5,-112.5"/>
<text text-anchor="middle" x="390.5" y="-119.5" font-family="Helvetica,sans-Serif" font-size="10.00">random</text>
</a>
</g>
</g>
<!-- Node7&#45;&gt;Node8 -->
<g id="edge10" class="edge">
<title>Node7&#45;&gt;Node8</title>
<path fill="none" stroke="midnightblue" d="M390.5,-173.98C390.5,-165.58 390.5,-152.48 390.5,-141.66"/>
<polygon fill="midnightblue" stroke="midnightblue" points="394,-141.51 390.5,-131.51 387,-141.51 394,-141.51"/>
</g>
</g>
</svg>
