<?xml version="1.0" encoding="UTF-8" standalone="no"?>
<!DOCTYPE svg PUBLIC "-//W3C//DTD SVG 1.1//EN"
 "http://www.w3.org/Graphics/SVG/1.1/DTD/svg11.dtd">
<!-- Generated by graphviz version 2.43.0 (0)
 -->
<!-- Title: /home/user/bayes&#45;filters&#45;lib/src/BayesFilters/include/BayesFilters/Resampling.h Pages: 1 -->
<svg width="247pt" height="218pt"
 viewBox="0.00 0.00 247.05 218.00" xmlns="http://www.w3.org/2000/svg" xmlns:xlink="http://www.w3.org/1999/xlink">
<g id="graph0" class="graph" transform="scale(1 1) rotate(0) translate(4 214)">
<title>/home/user/bayes&#45;filters&#45;lib/src/BayesFilters/include/BayesFilters/Resampling.h</title>
<polygon fill="white" stroke="transparent" points="-4,4 -4,-214 243.05,-214 243.05,4 -4,4"/>
<!-- Node1 -->
<g id="node1" class="node">
<title>Node1</title>
<g id="a_node1"><a xlink:title=" ">
<polygon fill="#bfbfbf" stroke="black" points="66.5,-168.5 66.5,-209.5 217.5,-209.5 217.5,-168.5 66.5,-168.5"/>
<text text-anchor="start" x="74.5" y="-197.5" font-family="Helvetica,sans-Serif" font-size="10.00">/home/user/bayes&#45;filters</text>
<text text-anchor="start" x="74.5" y="-186.5" font-family="Helvetica,sans-Serif" font-size="10.00">&#45;lib/src/BayesFilters/include</text>
<text text-anchor="middle" x="142" y="-175.5" font-family="Helvetica,sans-Serif" font-size="10.00">/BayesFilters/Resampling.h</text>
</a>
</g>
</g>
<!-- Node2 -->
<g id="node2" class="node">
<title>Node2</title>
<g id="a_node2"><a xlink:title=" ">
<polygon fill="white" stroke="#bfbfbf" points="0,-112.5 0,-131.5 54,-131.5 54,-112.5 0,-112.5"/>
<text text-anchor="middle" x="27" y="-119.5" font-family="Helvetica,sans-Serif" font-size="10.00">random</text>
</a>
</g>
</g>
<!-- Node1&#45;&gt;Node2 -->
<g id="edge1" class="edge">
<title>Node1&#45;&gt;Node2</title>
<path fill="none" stroke="midnightblue" d="M107.5,-168.5C89.36,-158.24 67.56,-145.93 51.23,-136.69"/>
<polygon fill="midnightblue" stroke="midnightblue" points="52.74,-133.53 42.31,-131.65 49.29,-139.62 52.74,-133.53"/>
</g>
<!-- Node3 -->
<g id="node3" class="node">
<title>Node3</title>
<g id="a_node3"><a xlink:href="ParticleSet_8h.html" target="_top" xlink:title=" ">
<polygon fill="white" stroke="black" points="72,-112.5 72,-131.5 212,-131.5 212,-112.5 72,-112.5"/>
<text text-anchor="middle" x="142" y="-119.5" font-family="Helvetica,sans-Serif" font-size="10.00">BayesFilters/ParticleSet.h</text>
</a>
</g>
</g>
<!-- Node1&#45;&gt;Node3 -->
<g id="edge2" class="edge">
<title>Node1&#45;&gt;Node3</title>
<path fill="none" stroke="midnightblue" d="M142,-168.5C142,-160.07 142,-150.24 142,-141.87"/>
<polygon fill="midnightblue" stroke="midnightblue" points="145.5,-141.65 142,-131.65 138.5,-141.65 145.5,-141.65"/>
</g>
<!-- Node6 -->
<g id="node6" class="node">
<title>Node6</title>
<g id="a_node6"><a xlink:title=" ">
<polygon fill="white" stroke="#bfbfbf" points="151.5,-0.5 151.5,-19.5 228.5,-19.5 228.5,-0.5 151.5,-0.5"/>
<text text-anchor="middle" x="190" y="-7.5" font-family="Helvetica,sans-Serif" font-size="10.00">Eigen/Dense</text>
</a>
</g>
</g>
<!-- Node1&#45;&gt;Node6 -->
<g id="edge7" class="edge">
<title>Node1&#45;&gt;Node6</title>
<path fill="none" stroke="midnightblue" d="M180.16,-168.35C194.81,-159.1 210.51,-146.82 221,-132 235.96,-110.88 233.41,-101.63 237,-76 238.23,-67.2 240.49,-64.17 237,-56 231.85,-43.95 221.72,-33.58 212.17,-25.84"/>
<polygon fill="midnightblue" stroke="midnightblue" points="214.17,-22.96 204.08,-19.74 209.96,-28.55 214.17,-22.96"/>
</g>
<!-- Node4 -->
<g id="node4" class="node">
<title>Node4</title>
<g id="a_node4"><a xlink:href="GaussianMixture_8h.html" target="_top" xlink:title=" ">
<polygon fill="white" stroke="black" points="56.5,-56.5 56.5,-75.5 227.5,-75.5 227.5,-56.5 56.5,-56.5"/>
<text text-anchor="middle" x="142" y="-63.5" font-family="Helvetica,sans-Serif" font-size="10.00">BayesFilters/GaussianMixture.h</text>
</a>
</g>
</g>
<!-- Node3&#45;&gt;Node4 -->
<g id="edge3" class="edge">
<title>Node3&#45;&gt;Node4</title>
<path fill="none" stroke="midnightblue" d="M142,-112.08C142,-105.01 142,-94.86 142,-85.99"/>
<polygon fill="midnightblue" stroke="midnightblue" points="145.5,-85.75 142,-75.75 138.5,-85.75 145.5,-85.75"/>
</g>
<!-- Node5 -->
<g id="node5" class="node">
<title>Node5</title>
<g id="a_node5"><a xlink:title=" ">
<polygon fill="white" stroke="#bfbfbf" points="69.5,-0.5 69.5,-19.5 116.5,-19.5 116.5,-0.5 69.5,-0.5"/>
<text text-anchor="middle" x="93" y="-7.5" font-family="Helvetica,sans-Serif" font-size="10.00">vector</text>
</a>
</g>
</g>
<!-- Node3&#45;&gt;Node5 -->
<g id="edge6" class="edge">
<title>Node3&#45;&gt;Node5</title>
<path fill="none" stroke="midnightblue" d="M100.95,-112.38C81.04,-105.92 58.91,-94.81 47,-76 35.79,-58.29 53.99,-38.77 70.69,-25.78"/>
<polygon fill="midnightblue" stroke="midnightblue" points="73.11,-28.35 79.13,-19.63 68.98,-22.7 73.11,-28.35"/>
</g>
<!-- Node4&#45;&gt;Node5 -->
<g id="edge4" class="edge">
<title>Node4&#45;&gt;Node5</title>
<path fill="none" stroke="midnightblue" d="M133.91,-56.08C126.84,-48.3 116.41,-36.8 107.85,-27.37"/>
<polygon fill="midnightblue" stroke="midnightblue" points="110.25,-24.8 100.94,-19.75 105.07,-29.51 110.25,-24.8"/>
</g>
<!-- Node4&#45;&gt;Node6 -->
<g id="edge5" class="edge">
<title>Node4&#45;&gt;Node6</title>
<path fill="none" stroke="midnightblue" d="M149.93,-56.08C156.85,-48.3 167.07,-36.8 175.45,-27.37"/>
<polygon fill="midnightblue" stroke="midnightblue" points="178.19,-29.55 182.22,-19.75 172.96,-24.9 178.19,-29.55"/>
</g>
</g>
</svg>
