<?xml version="1.0" encoding="UTF-8" standalone="no"?>
<!DOCTYPE svg PUBLIC "-//W3C//DTD SVG 1.1//EN"
 "http://www.w3.org/Graphics/SVG/1.1/DTD/svg11.dtd">
<!-- Generated by graphviz version 2.47.2 (0)
 -->
<!-- Title: /home/xenvre/robot&#45;code/bfl_robotology/src/BayesFilters/include/BayesFilters/Resampling.h Pages: 1 -->
<svg width="559pt" height="328pt"
 viewBox="0.00 0.00 559.00 328.00" xmlns="http://www.w3.org/2000/svg" xmlns:xlink="http://www.w3.org/1999/xlink">
<g id="graph0" class="graph" transform="scale(1 1) rotate(0) translate(4 324)">
<title>/home/xenvre/robot&#45;code/bfl_robotology/src/BayesFilters/include/BayesFilters/Resampling.h</title>
<polygon fill="white" stroke="transparent" points="-4,4 -4,-324 555,-324 555,4 -4,4"/>
<!-- Node1 -->
<g id="node1" class="node">
<title>Node1</title>
<g id="a_node1"><a xlink:title=" ">
<polygon fill="#bfbfbf" stroke="black" points="180,-267.5 180,-319.5 317,-319.5 317,-267.5 180,-267.5"/>
<text text-anchor="start" x="188" y="-307.5" font-family="Helvetica,sans-Serif" font-size="10.00">/home/xenvre/robot</text>
<text text-anchor="start" x="188" y="-296.5" font-family="Helvetica,sans-Serif" font-size="10.00">&#45;code/bfl_robotology</text>
<text text-anchor="start" x="188" y="-285.5" font-family="Helvetica,sans-Serif" font-size="10.00">/src/BayesFilters/include</text>
<text text-anchor="middle" x="248.5" y="-274.5" font-family="Helvetica,sans-Serif" font-size="10.00">/BayesFilters/Resampling.h</text>
</a>
</g>
</g>
<!-- Node2 -->
<g id="node2" class="node">
<title>Node2</title>
<g id="a_node2"><a xlink:href="ParticleFilter_8h.html" target="_top" xlink:title=" ">
<polygon fill="white" stroke="black" points="90.5,-178.5 90.5,-230.5 230.5,-230.5 230.5,-178.5 90.5,-178.5"/>
<text text-anchor="start" x="98.5" y="-218.5" font-family="Helvetica,sans-Serif" font-size="10.00">/home/xenvre/robot</text>
<text text-anchor="start" x="98.5" y="-207.5" font-family="Helvetica,sans-Serif" font-size="10.00">&#45;code/bfl_robotology</text>
<text text-anchor="start" x="98.5" y="-196.5" font-family="Helvetica,sans-Serif" font-size="10.00">/src/BayesFilters/include</text>
<text text-anchor="middle" x="160.5" y="-185.5" font-family="Helvetica,sans-Serif" font-size="10.00">/BayesFilters/ParticleFilter.h</text>
</a>
</g>
</g>
<!-- Node1&#45;&gt;Node2 -->
<g id="edge1" class="edge">
<title>Node1&#45;&gt;Node2</title>
<path fill="none" stroke="midnightblue" d="M215.7,-260.08C205.85,-250.34 195.19,-239.8 185.9,-230.61"/>
<polygon fill="midnightblue" stroke="midnightblue" points="213.47,-262.79 223.05,-267.34 218.4,-257.82 213.47,-262.79"/>
</g>
<!-- Node3 -->
<g id="node3" class="node">
<title>Node3</title>
<g id="a_node3"><a xlink:href="SIS_8h.html" target="_top" xlink:title=" ">
<polygon fill="white" stroke="black" points="0,-89.5 0,-141.5 125,-141.5 125,-89.5 0,-89.5"/>
<text text-anchor="start" x="8" y="-129.5" font-family="Helvetica,sans-Serif" font-size="10.00">/home/xenvre/robot</text>
<text text-anchor="start" x="8" y="-118.5" font-family="Helvetica,sans-Serif" font-size="10.00">&#45;code/bfl_robotology</text>
<text text-anchor="start" x="8" y="-107.5" font-family="Helvetica,sans-Serif" font-size="10.00">/src/BayesFilters/include</text>
<text text-anchor="middle" x="62.5" y="-96.5" font-family="Helvetica,sans-Serif" font-size="10.00">/BayesFilters/SIS.h</text>
</a>
</g>
</g>
<!-- Node1&#45;&gt;Node3 -->
<g id="edge7" class="edge">
<title>Node1&#45;&gt;Node3</title>
<path fill="none" stroke="midnightblue" d="M169.91,-281.2C137.95,-272.62 103.45,-257.54 81.5,-231 60.82,-206 58.64,-167.16 59.86,-141.77"/>
<polygon fill="midnightblue" stroke="midnightblue" points="169.18,-284.63 179.73,-283.66 170.88,-277.83 169.18,-284.63"/>
</g>
<!-- Node6 -->
<g id="node6" class="node">
<title>Node6</title>
<g id="a_node6"><a xlink:href="ResamplingWithPrior_8h.html" target="_top" xlink:title=" ">
<polygon fill="white" stroke="black" points="249,-178.5 249,-230.5 426,-230.5 426,-178.5 249,-178.5"/>
<text text-anchor="start" x="257" y="-218.5" font-family="Helvetica,sans-Serif" font-size="10.00">/home/xenvre/robot</text>
<text text-anchor="start" x="257" y="-207.5" font-family="Helvetica,sans-Serif" font-size="10.00">&#45;code/bfl_robotology</text>
<text text-anchor="start" x="257" y="-196.5" font-family="Helvetica,sans-Serif" font-size="10.00">/src/BayesFilters/include</text>
<text text-anchor="middle" x="337.5" y="-185.5" font-family="Helvetica,sans-Serif" font-size="10.00">/BayesFilters/ResamplingWithPrior.h</text>
</a>
</g>
</g>
<!-- Node1&#45;&gt;Node6 -->
<g id="edge5" class="edge">
<title>Node1&#45;&gt;Node6</title>
<path fill="none" stroke="midnightblue" d="M281.67,-260.08C291.63,-250.34 302.41,-239.8 311.82,-230.61"/>
<polygon fill="midnightblue" stroke="midnightblue" points="278.95,-257.84 274.24,-267.34 283.84,-262.85 278.95,-257.84"/>
</g>
<!-- Node8 -->
<g id="node8" class="node">
<title>Node8</title>
<g id="a_node8"><a xlink:href="Resampling_8cpp.html" target="_top" xlink:title=" ">
<polygon fill="white" stroke="black" points="444,-178.5 444,-230.5 551,-230.5 551,-178.5 444,-178.5"/>
<text text-anchor="start" x="452" y="-218.5" font-family="Helvetica,sans-Serif" font-size="10.00">/home/xenvre/robot</text>
<text text-anchor="start" x="452" y="-207.5" font-family="Helvetica,sans-Serif" font-size="10.00">&#45;code/bfl_robotology</text>
<text text-anchor="start" x="452" y="-196.5" font-family="Helvetica,sans-Serif" font-size="10.00">/src/BayesFilters/src</text>
<text text-anchor="middle" x="497.5" y="-185.5" font-family="Helvetica,sans-Serif" font-size="10.00">/Resampling.cpp</text>
</a>
</g>
</g>
<!-- Node1&#45;&gt;Node8 -->
<g id="edge8" class="edge">
<title>Node1&#45;&gt;Node8</title>
<path fill="none" stroke="midnightblue" d="M327.07,-268.06C360.66,-257.25 400.2,-244.05 435.5,-231 438.23,-229.99 441.02,-228.94 443.83,-227.85"/>
<polygon fill="midnightblue" stroke="midnightblue" points="325.76,-264.8 317.3,-271.19 327.89,-271.47 325.76,-264.8"/>
</g>
<!-- Node2&#45;&gt;Node3 -->
<g id="edge2" class="edge">
<title>Node2&#45;&gt;Node3</title>
<path fill="none" stroke="midnightblue" d="M124.62,-171.65C113.47,-161.75 101.34,-150.98 90.78,-141.61"/>
<polygon fill="midnightblue" stroke="midnightblue" points="122.35,-174.31 132.15,-178.34 127,-169.08 122.35,-174.31"/>
</g>
<!-- Node5 -->
<g id="node5" class="node">
<title>Node5</title>
<g id="a_node5"><a xlink:href="ParticleFilter_8cpp.html" target="_top" xlink:title=" ">
<polygon fill="white" stroke="black" points="143,-89.5 143,-141.5 250,-141.5 250,-89.5 143,-89.5"/>
<text text-anchor="start" x="151" y="-129.5" font-family="Helvetica,sans-Serif" font-size="10.00">/home/xenvre/robot</text>
<text text-anchor="start" x="151" y="-118.5" font-family="Helvetica,sans-Serif" font-size="10.00">&#45;code/bfl_robotology</text>
<text text-anchor="start" x="151" y="-107.5" font-family="Helvetica,sans-Serif" font-size="10.00">/src/BayesFilters/src</text>
<text text-anchor="middle" x="196.5" y="-96.5" font-family="Helvetica,sans-Serif" font-size="10.00">/ParticleFilter.cpp</text>
</a>
</g>
</g>
<!-- Node2&#45;&gt;Node5 -->
<g id="edge4" class="edge">
<title>Node2&#45;&gt;Node5</title>
<path fill="none" stroke="midnightblue" d="M174.75,-169.06C178.54,-159.9 182.57,-150.17 186.11,-141.61"/>
<polygon fill="midnightblue" stroke="midnightblue" points="171.5,-167.76 170.91,-178.34 177.97,-170.43 171.5,-167.76"/>
</g>
<!-- Node4 -->
<g id="node4" class="node">
<title>Node4</title>
<g id="a_node4"><a xlink:href="SIS_8cpp.html" target="_top" xlink:title=" ">
<polygon fill="white" stroke="black" points="9,-0.5 9,-52.5 116,-52.5 116,-0.5 9,-0.5"/>
<text text-anchor="start" x="17" y="-40.5" font-family="Helvetica,sans-Serif" font-size="10.00">/home/xenvre/robot</text>
<text text-anchor="start" x="17" y="-29.5" font-family="Helvetica,sans-Serif" font-size="10.00">&#45;code/bfl_robotology</text>
<text text-anchor="start" x="17" y="-18.5" font-family="Helvetica,sans-Serif" font-size="10.00">/src/BayesFilters/src</text>
<text text-anchor="middle" x="62.5" y="-7.5" font-family="Helvetica,sans-Serif" font-size="10.00">/SIS.cpp</text>
</a>
</g>
</g>
<!-- Node3&#45;&gt;Node4 -->
<g id="edge3" class="edge">
<title>Node3&#45;&gt;Node4</title>
<path fill="none" stroke="midnightblue" d="M62.5,-79.19C62.5,-70.28 62.5,-60.9 62.5,-52.61"/>
<polygon fill="midnightblue" stroke="midnightblue" points="59,-79.34 62.5,-89.34 66,-79.34 59,-79.34"/>
</g>
<!-- Node7 -->
<g id="node7" class="node">
<title>Node7</title>
<g id="a_node7"><a xlink:href="ResamplingWithPrior_8cpp.html" target="_top" xlink:title=" ">
<polygon fill="white" stroke="black" points="272.5,-89.5 272.5,-141.5 402.5,-141.5 402.5,-89.5 272.5,-89.5"/>
<text text-anchor="start" x="280.5" y="-129.5" font-family="Helvetica,sans-Serif" font-size="10.00">/home/xenvre/robot</text>
<text text-anchor="start" x="280.5" y="-118.5" font-family="Helvetica,sans-Serif" font-size="10.00">&#45;code/bfl_robotology</text>
<text text-anchor="start" x="280.5" y="-107.5" font-family="Helvetica,sans-Serif" font-size="10.00">/src/BayesFilters/src</text>
<text text-anchor="middle" x="337.5" y="-96.5" font-family="Helvetica,sans-Serif" font-size="10.00">/ResamplingWithPrior.cpp</text>
</a>
</g>
</g>
<!-- Node6&#45;&gt;Node7 -->
<g id="edge6" class="edge">
<title>Node6&#45;&gt;Node7</title>
<path fill="none" stroke="midnightblue" d="M337.5,-168.19C337.5,-159.28 337.5,-149.9 337.5,-141.61"/>
<polygon fill="midnightblue" stroke="midnightblue" points="334,-168.34 337.5,-178.34 341,-168.34 334,-168.34"/>
</g>
</g>
</svg>
