<?xml version="1.0" encoding="UTF-8" standalone="no"?>
<!DOCTYPE svg PUBLIC "-//W3C//DTD SVG 1.1//EN"
 "http://www.w3.org/Graphics/SVG/1.1/DTD/svg11.dtd">
<!-- Generated by graphviz version 2.47.2 (0)
 -->
<!-- Title: /home/xenvre/robot&#45;code/bfl_robotology/src/BayesFilters/include/BayesFilters/sigma_point.h Pages: 1 -->
<svg width="628pt" height="239pt"
 viewBox="0.00 0.00 627.50 239.00" xmlns="http://www.w3.org/2000/svg" xmlns:xlink="http://www.w3.org/1999/xlink">
<g id="graph0" class="graph" transform="scale(1 1) rotate(0) translate(4 235)">
<title>/home/xenvre/robot&#45;code/bfl_robotology/src/BayesFilters/include/BayesFilters/sigma_point.h</title>
<polygon fill="white" stroke="transparent" points="-4,4 -4,-235 623.5,-235 623.5,4 -4,4"/>
<!-- Node1 -->
<g id="node1" class="node">
<title>Node1</title>
<g id="a_node1"><a xlink:title=" ">
<polygon fill="#bfbfbf" stroke="black" points="267,-178.5 267,-230.5 405,-230.5 405,-178.5 267,-178.5"/>
<text text-anchor="start" x="275" y="-218.5" font-family="Helvetica,sans-Serif" font-size="10.00">/home/xenvre/robot</text>
<text text-anchor="start" x="275" y="-207.5" font-family="Helvetica,sans-Serif" font-size="10.00">&#45;code/bfl_robotology</text>
<text text-anchor="start" x="275" y="-196.5" font-family="Helvetica,sans-Serif" font-size="10.00">/src/BayesFilters/include</text>
<text text-anchor="middle" x="336" y="-185.5" font-family="Helvetica,sans-Serif" font-size="10.00">/BayesFilters/sigma_point.h</text>
</a>
</g>
</g>
<!-- Node2 -->
<g id="node2" class="node">
<title>Node2</title>
<g id="a_node2"><a xlink:href="SUKFCorrection_8h.html" target="_top" xlink:title=" ">
<polygon fill="white" stroke="black" points="0,-89.5 0,-141.5 158,-141.5 158,-89.5 0,-89.5"/>
<text text-anchor="start" x="8" y="-129.5" font-family="Helvetica,sans-Serif" font-size="10.00">/home/xenvre/robot</text>
<text text-anchor="start" x="8" y="-118.5" font-family="Helvetica,sans-Serif" font-size="10.00">&#45;code/bfl_robotology</text>
<text text-anchor="start" x="8" y="-107.5" font-family="Helvetica,sans-Serif" font-size="10.00">/src/BayesFilters/include</text>
<text text-anchor="middle" x="79" y="-96.5" font-family="Helvetica,sans-Serif" font-size="10.00">/BayesFilters/SUKFCorrection.h</text>
</a>
</g>
</g>
<!-- Node1&#45;&gt;Node2 -->
<g id="edge1" class="edge">
<title>Node1&#45;&gt;Node2</title>
<path fill="none" stroke="midnightblue" d="M257.16,-176.81C224.1,-165.62 185.85,-152.67 153.29,-141.65"/>
<polygon fill="midnightblue" stroke="midnightblue" points="256.2,-180.18 266.79,-180.07 258.44,-173.55 256.2,-180.18"/>
</g>
<!-- Node4 -->
<g id="node4" class="node">
<title>Node4</title>
<g id="a_node4"><a xlink:href="UKFCorrection_8h.html" target="_top" xlink:title=" ">
<polygon fill="white" stroke="black" points="176.5,-89.5 176.5,-141.5 327.5,-141.5 327.5,-89.5 176.5,-89.5"/>
<text text-anchor="start" x="184.5" y="-129.5" font-family="Helvetica,sans-Serif" font-size="10.00">/home/xenvre/robot</text>
<text text-anchor="start" x="184.5" y="-118.5" font-family="Helvetica,sans-Serif" font-size="10.00">&#45;code/bfl_robotology</text>
<text text-anchor="start" x="184.5" y="-107.5" font-family="Helvetica,sans-Serif" font-size="10.00">/src/BayesFilters/include</text>
<text text-anchor="middle" x="252" y="-96.5" font-family="Helvetica,sans-Serif" font-size="10.00">/BayesFilters/UKFCorrection.h</text>
</a>
</g>
</g>
<!-- Node1&#45;&gt;Node4 -->
<g id="edge3" class="edge">
<title>Node1&#45;&gt;Node4</title>
<path fill="none" stroke="midnightblue" d="M304.69,-171.08C295.29,-161.34 285.12,-150.8 276.24,-141.61"/>
<polygon fill="midnightblue" stroke="midnightblue" points="302.24,-173.57 311.7,-178.34 307.28,-168.71 302.24,-173.57"/>
</g>
<!-- Node6 -->
<g id="node6" class="node">
<title>Node6</title>
<g id="a_node6"><a xlink:href="UKFPrediction_8h.html" target="_top" xlink:title=" ">
<polygon fill="white" stroke="black" points="345.5,-89.5 345.5,-141.5 494.5,-141.5 494.5,-89.5 345.5,-89.5"/>
<text text-anchor="start" x="353.5" y="-129.5" font-family="Helvetica,sans-Serif" font-size="10.00">/home/xenvre/robot</text>
<text text-anchor="start" x="353.5" y="-118.5" font-family="Helvetica,sans-Serif" font-size="10.00">&#45;code/bfl_robotology</text>
<text text-anchor="start" x="353.5" y="-107.5" font-family="Helvetica,sans-Serif" font-size="10.00">/src/BayesFilters/include</text>
<text text-anchor="middle" x="420" y="-96.5" font-family="Helvetica,sans-Serif" font-size="10.00">/BayesFilters/UKFPrediction.h</text>
</a>
</g>
</g>
<!-- Node1&#45;&gt;Node6 -->
<g id="edge5" class="edge">
<title>Node1&#45;&gt;Node6</title>
<path fill="none" stroke="midnightblue" d="M367.31,-171.08C376.71,-161.34 386.88,-150.8 395.76,-141.61"/>
<polygon fill="midnightblue" stroke="midnightblue" points="364.72,-168.71 360.3,-178.34 369.76,-173.57 364.72,-168.71"/>
</g>
<!-- Node8 -->
<g id="node8" class="node">
<title>Node8</title>
<g id="a_node8"><a xlink:href="sigma__point_8cpp.html" target="_top" xlink:title=" ">
<polygon fill="white" stroke="black" points="512.5,-89.5 512.5,-141.5 619.5,-141.5 619.5,-89.5 512.5,-89.5"/>
<text text-anchor="start" x="520.5" y="-129.5" font-family="Helvetica,sans-Serif" font-size="10.00">/home/xenvre/robot</text>
<text text-anchor="start" x="520.5" y="-118.5" font-family="Helvetica,sans-Serif" font-size="10.00">&#45;code/bfl_robotology</text>
<text text-anchor="start" x="520.5" y="-107.5" font-family="Helvetica,sans-Serif" font-size="10.00">/src/BayesFilters/src</text>
<text text-anchor="middle" x="566" y="-96.5" font-family="Helvetica,sans-Serif" font-size="10.00">/sigma_point.cpp</text>
</a>
</g>
</g>
<!-- Node1&#45;&gt;Node8 -->
<g id="edge7" class="edge">
<title>Node1&#45;&gt;Node8</title>
<path fill="none" stroke="midnightblue" d="M414.72,-175.41C442.97,-165.13 475,-153.27 504,-142 506.71,-140.95 509.49,-139.86 512.28,-138.74"/>
<polygon fill="midnightblue" stroke="midnightblue" points="413.5,-172.12 405.3,-178.82 415.89,-178.7 413.5,-172.12"/>
</g>
<!-- Node3 -->
<g id="node3" class="node">
<title>Node3</title>
<g id="a_node3"><a xlink:href="SUKFCorrection_8cpp.html" target="_top" xlink:title=" ">
<polygon fill="white" stroke="black" points="24,-0.5 24,-52.5 134,-52.5 134,-0.5 24,-0.5"/>
<text text-anchor="start" x="32" y="-40.5" font-family="Helvetica,sans-Serif" font-size="10.00">/home/xenvre/robot</text>
<text text-anchor="start" x="32" y="-29.5" font-family="Helvetica,sans-Serif" font-size="10.00">&#45;code/bfl_robotology</text>
<text text-anchor="start" x="32" y="-18.5" font-family="Helvetica,sans-Serif" font-size="10.00">/src/BayesFilters/src</text>
<text text-anchor="middle" x="79" y="-7.5" font-family="Helvetica,sans-Serif" font-size="10.00">/SUKFCorrection.cpp</text>
</a>
</g>
</g>
<!-- Node2&#45;&gt;Node3 -->
<g id="edge2" class="edge">
<title>Node2&#45;&gt;Node3</title>
<path fill="none" stroke="midnightblue" d="M79,-79.19C79,-70.28 79,-60.9 79,-52.61"/>
<polygon fill="midnightblue" stroke="midnightblue" points="75.5,-79.34 79,-89.34 82.5,-79.34 75.5,-79.34"/>
</g>
<!-- Node5 -->
<g id="node5" class="node">
<title>Node5</title>
<g id="a_node5"><a xlink:href="UKFCorrection_8cpp.html" target="_top" xlink:title=" ">
<polygon fill="white" stroke="black" points="198.5,-0.5 198.5,-52.5 305.5,-52.5 305.5,-0.5 198.5,-0.5"/>
<text text-anchor="start" x="206.5" y="-40.5" font-family="Helvetica,sans-Serif" font-size="10.00">/home/xenvre/robot</text>
<text text-anchor="start" x="206.5" y="-29.5" font-family="Helvetica,sans-Serif" font-size="10.00">&#45;code/bfl_robotology</text>
<text text-anchor="start" x="206.5" y="-18.5" font-family="Helvetica,sans-Serif" font-size="10.00">/src/BayesFilters/src</text>
<text text-anchor="middle" x="252" y="-7.5" font-family="Helvetica,sans-Serif" font-size="10.00">/UKFCorrection.cpp</text>
</a>
</g>
</g>
<!-- Node4&#45;&gt;Node5 -->
<g id="edge4" class="edge">
<title>Node4&#45;&gt;Node5</title>
<path fill="none" stroke="midnightblue" d="M252,-79.19C252,-70.28 252,-60.9 252,-52.61"/>
<polygon fill="midnightblue" stroke="midnightblue" points="248.5,-79.34 252,-89.34 255.5,-79.34 248.5,-79.34"/>
</g>
<!-- Node7 -->
<g id="node7" class="node">
<title>Node7</title>
<g id="a_node7"><a xlink:href="UKFPrediction_8cpp.html" target="_top" xlink:title=" ">
<polygon fill="white" stroke="black" points="366.5,-0.5 366.5,-52.5 473.5,-52.5 473.5,-0.5 366.5,-0.5"/>
<text text-anchor="start" x="374.5" y="-40.5" font-family="Helvetica,sans-Serif" font-size="10.00">/home/xenvre/robot</text>
<text text-anchor="start" x="374.5" y="-29.5" font-family="Helvetica,sans-Serif" font-size="10.00">&#45;code/bfl_robotology</text>
<text text-anchor="start" x="374.5" y="-18.5" font-family="Helvetica,sans-Serif" font-size="10.00">/src/BayesFilters/src</text>
<text text-anchor="middle" x="420" y="-7.5" font-family="Helvetica,sans-Serif" font-size="10.00">/UKFPrediction.cpp</text>
</a>
</g>
</g>
<!-- Node6&#45;&gt;Node7 -->
<g id="edge6" class="edge">
<title>Node6&#45;&gt;Node7</title>
<path fill="none" stroke="midnightblue" d="M420,-79.19C420,-70.28 420,-60.9 420,-52.61"/>
<polygon fill="midnightblue" stroke="midnightblue" points="416.5,-79.34 420,-89.34 423.5,-79.34 416.5,-79.34"/>
</g>
</g>
</svg>
