<?xml version="1.0" encoding="UTF-8" standalone="no"?>
<!DOCTYPE svg PUBLIC "-//W3C//DTD SVG 1.1//EN"
 "http://www.w3.org/Graphics/SVG/1.1/DTD/svg11.dtd">
<!-- Generated by graphviz version 2.47.2 (0)
 -->
<!-- Title: /home/xenvre/robot&#45;code/bfl_robotology/src/BayesFilters/src/sigma_point.cpp Pages: 1 -->
<svg width="1275pt" height="486pt"
 viewBox="0.00 0.00 1275.00 486.00" xmlns="http://www.w3.org/2000/svg" xmlns:xlink="http://www.w3.org/1999/xlink">
<g id="graph0" class="graph" transform="scale(1 1) rotate(0) translate(4 482)">
<title>/home/xenvre/robot&#45;code/bfl_robotology/src/BayesFilters/src/sigma_point.cpp</title>
<polygon fill="white" stroke="transparent" points="-4,4 -4,-482 1271,-482 1271,4 -4,4"/>
<!-- Node1 -->
<g id="node1" class="node">
<title>Node1</title>
<g id="a_node1"><a xlink:title=" ">
<polygon fill="#bfbfbf" stroke="black" points="408,-425.5 408,-477.5 515,-477.5 515,-425.5 408,-425.5"/>
<text text-anchor="start" x="416" y="-465.5" font-family="Helvetica,sans-Serif" font-size="10.00">/home/xenvre/robot</text>
<text text-anchor="start" x="416" y="-454.5" font-family="Helvetica,sans-Serif" font-size="10.00">&#45;code/bfl_robotology</text>
<text text-anchor="start" x="416" y="-443.5" font-family="Helvetica,sans-Serif" font-size="10.00">/src/BayesFilters/src</text>
<text text-anchor="middle" x="461.5" y="-432.5" font-family="Helvetica,sans-Serif" font-size="10.00">/sigma_point.cpp</text>
</a>
</g>
</g>
<!-- Node2 -->
<g id="node2" class="node">
<title>Node2</title>
<g id="a_node2"><a xlink:href="sigma__point_8h.html" target="_top" xlink:title=" ">
<polygon fill="white" stroke="black" points="411,-358.5 411,-388.5 512,-388.5 512,-358.5 411,-358.5"/>
<text text-anchor="start" x="419" y="-376.5" font-family="Helvetica,sans-Serif" font-size="10.00">BayesFilters/sigma</text>
<text text-anchor="middle" x="461.5" y="-365.5" font-family="Helvetica,sans-Serif" font-size="10.00">_point.h</text>
</a>
</g>
</g>
<!-- Node1&#45;&gt;Node2 -->
<g id="edge1" class="edge">
<title>Node1&#45;&gt;Node2</title>
<path fill="none" stroke="midnightblue" d="M461.5,-425.19C461.5,-416.79 461.5,-407.44 461.5,-399.09"/>
<polygon fill="midnightblue" stroke="midnightblue" points="465,-398.85 461.5,-388.85 458,-398.85 465,-398.85"/>
</g>
<!-- Node28 -->
<g id="node28" class="node">
<title>Node28</title>
<g id="a_node28"><a xlink:href="directional__statistics_8h.html" target="_top" xlink:title=" ">
<polygon fill="white" stroke="black" points="0,-224.5 0,-254.5 119,-254.5 119,-224.5 0,-224.5"/>
<text text-anchor="start" x="8" y="-242.5" font-family="Helvetica,sans-Serif" font-size="10.00">BayesFilters/directional</text>
<text text-anchor="middle" x="59.5" y="-231.5" font-family="Helvetica,sans-Serif" font-size="10.00">_statistics.h</text>
</a>
</g>
</g>
<!-- Node1&#45;&gt;Node28 -->
<g id="edge41" class="edge">
<title>Node1&#45;&gt;Node28</title>
<path fill="none" stroke="midnightblue" d="M409.67,-425.32C357.72,-399.88 275.59,-359.13 205.5,-322 166.5,-301.34 122.32,-276.47 92.88,-259.68"/>
<polygon fill="midnightblue" stroke="midnightblue" points="94.28,-256.45 83.86,-254.53 90.81,-262.53 94.28,-256.45"/>
</g>
<!-- Node29 -->
<g id="node29" class="node">
<title>Node29</title>
<g id="a_node29"><a xlink:title=" ">
<polygon fill="white" stroke="#bfbfbf" points="530,-364 530,-383 595,-383 595,-364 530,-364"/>
<text text-anchor="middle" x="562.5" y="-371" font-family="Helvetica,sans-Serif" font-size="10.00">Eigen/SVD</text>
</a>
</g>
</g>
<!-- Node1&#45;&gt;Node29 -->
<g id="edge43" class="edge">
<title>Node1&#45;&gt;Node29</title>
<path fill="none" stroke="midnightblue" d="M494.85,-425.4C510.69,-413.49 529.08,-399.65 542.68,-389.41"/>
<polygon fill="midnightblue" stroke="midnightblue" points="544.97,-392.07 550.86,-383.26 540.76,-386.48 544.97,-392.07"/>
</g>
<!-- Node3 -->
<g id="node3" class="node">
<title>Node3</title>
<g id="a_node3"><a xlink:href="AdditiveStateModel_8h.html" target="_top" xlink:title=" ">
<polygon fill="white" stroke="black" points="243,-291.5 243,-321.5 376,-321.5 376,-291.5 243,-291.5"/>
<text text-anchor="start" x="251" y="-309.5" font-family="Helvetica,sans-Serif" font-size="10.00">BayesFilters/AdditiveState</text>
<text text-anchor="middle" x="309.5" y="-298.5" font-family="Helvetica,sans-Serif" font-size="10.00">Model.h</text>
</a>
</g>
</g>
<!-- Node2&#45;&gt;Node3 -->
<g id="edge2" class="edge">
<title>Node2&#45;&gt;Node3</title>
<path fill="none" stroke="midnightblue" d="M428.52,-358.4C406.01,-348.77 376,-335.94 351.74,-325.56"/>
<polygon fill="midnightblue" stroke="midnightblue" points="352.99,-322.29 342.42,-321.58 350.24,-328.73 352.99,-322.29"/>
</g>
<!-- Node4 -->
<g id="node4" class="node">
<title>Node4</title>
<g id="a_node4"><a xlink:href="StateModel_8h.html" target="_top" xlink:title=" ">
<polygon fill="white" stroke="black" points="260.5,-230 260.5,-249 392.5,-249 392.5,-230 260.5,-230"/>
<text text-anchor="middle" x="326.5" y="-237" font-family="Helvetica,sans-Serif" font-size="10.00">BayesFilters/StateModel.h</text>
</a>
</g>
</g>
<!-- Node2&#45;&gt;Node4 -->
<g id="edge38" class="edge">
<title>Node2&#45;&gt;Node4</title>
<path fill="none" stroke="midnightblue" d="M449.31,-358.5C434.67,-341.89 409.11,-313.62 385.5,-291 372.5,-278.54 357,-265.33 345.15,-255.55"/>
<polygon fill="midnightblue" stroke="midnightblue" points="347.21,-252.72 337.26,-249.09 342.78,-258.13 347.21,-252.72"/>
</g>
<!-- Node5 -->
<g id="node5" class="node">
<title>Node5</title>
<g id="a_node5"><a xlink:href="ExogenousModel_8h.html" target="_top" xlink:title=" ">
<polygon fill="white" stroke="black" points="96.5,-168.5 96.5,-187.5 254.5,-187.5 254.5,-168.5 96.5,-168.5"/>
<text text-anchor="middle" x="175.5" y="-175.5" font-family="Helvetica,sans-Serif" font-size="10.00">BayesFilters/ExogenousModel.h</text>
</a>
</g>
</g>
<!-- Node2&#45;&gt;Node5 -->
<g id="edge21" class="edge">
<title>Node2&#45;&gt;Node5</title>
<path fill="none" stroke="midnightblue" d="M410.75,-366.71C352.25,-359.11 260.77,-344.09 234.5,-322 196.22,-289.81 182.41,-228.79 177.73,-197.91"/>
<polygon fill="midnightblue" stroke="midnightblue" points="181.15,-197.12 176.35,-187.68 174.22,-198.05 181.15,-197.12"/>
</g>
<!-- Node7 -->
<g id="node7" class="node">
<title>Node7</title>
<g id="a_node7"><a xlink:title=" ">
<polygon fill="white" stroke="#bfbfbf" points="387,-56.5 387,-75.5 460,-75.5 460,-56.5 387,-56.5"/>
<text text-anchor="middle" x="423.5" y="-63.5" font-family="Helvetica,sans-Serif" font-size="10.00">Eigen/Dense</text>
</a>
</g>
</g>
<!-- Node2&#45;&gt;Node7 -->
<g id="edge40" class="edge">
<title>Node2&#45;&gt;Node7</title>
<path fill="none" stroke="midnightblue" d="M458.1,-358.34C452.64,-334.27 442.5,-283.8 442.5,-240.5 442.5,-240.5 442.5,-240.5 442.5,-177 442.5,-144.49 434.34,-107.35 428.72,-85.61"/>
<polygon fill="midnightblue" stroke="midnightblue" points="432.04,-84.5 426.06,-75.75 425.28,-86.32 432.04,-84.5"/>
</g>
<!-- Node13 -->
<g id="node13" class="node">
<title>Node13</title>
<g id="a_node13"><a xlink:href="Data_8h.html" target="_top" xlink:title=" ">
<polygon fill="white" stroke="black" points="984.5,-168.5 984.5,-187.5 1088.5,-187.5 1088.5,-168.5 984.5,-168.5"/>
<text text-anchor="middle" x="1036.5" y="-175.5" font-family="Helvetica,sans-Serif" font-size="10.00">BayesFilters/Data.h</text>
</a>
</g>
</g>
<!-- Node2&#45;&gt;Node13 -->
<g id="edge14" class="edge">
<title>Node2&#45;&gt;Node13</title>
<path fill="none" stroke="midnightblue" d="M512.14,-359.75C515.3,-359.11 518.44,-358.52 521.5,-358 679.14,-331.15 733.45,-387.13 879.5,-322 944.16,-293.16 1000.16,-227.12 1024.11,-195.92"/>
<polygon fill="midnightblue" stroke="midnightblue" points="1027.02,-197.86 1030.24,-187.77 1021.43,-193.65 1027.02,-197.86"/>
</g>
<!-- Node19 -->
<g id="node19" class="node">
<title>Node19</title>
<g id="a_node19"><a xlink:href="GaussianMixture_8h.html" target="_top" xlink:title=" ">
<polygon fill="white" stroke="black" points="470.5,-168.5 470.5,-187.5 626.5,-187.5 626.5,-168.5 470.5,-168.5"/>
<text text-anchor="middle" x="548.5" y="-175.5" font-family="Helvetica,sans-Serif" font-size="10.00">BayesFilters/GaussianMixture.h</text>
</a>
</g>
</g>
<!-- Node2&#45;&gt;Node19 -->
<g id="edge22" class="edge">
<title>Node2&#45;&gt;Node19</title>
<path fill="none" stroke="midnightblue" d="M467.2,-358.28C473.79,-341.95 485.09,-314.39 495.5,-291 510.45,-257.41 529.06,-218.74 539.78,-196.75"/>
<polygon fill="midnightblue" stroke="midnightblue" points="542.99,-198.17 544.24,-187.65 536.7,-195.09 542.99,-198.17"/>
</g>
<!-- Node21 -->
<g id="node21" class="node">
<title>Node21</title>
<g id="a_node21"><a xlink:href="AdditiveMeasurementModel_8h.html" target="_top" xlink:title=" ">
<polygon fill="white" stroke="black" points="701,-291.5 701,-321.5 870,-321.5 870,-291.5 701,-291.5"/>
<text text-anchor="start" x="709" y="-309.5" font-family="Helvetica,sans-Serif" font-size="10.00">BayesFilters/AdditiveMeasurement</text>
<text text-anchor="middle" x="785.5" y="-298.5" font-family="Helvetica,sans-Serif" font-size="10.00">Model.h</text>
</a>
</g>
</g>
<!-- Node2&#45;&gt;Node21 -->
<g id="edge25" class="edge">
<title>Node2&#45;&gt;Node21</title>
<path fill="none" stroke="midnightblue" d="M512.2,-360.07C515.34,-359.35 518.46,-358.66 521.5,-358 579.65,-345.42 645.36,-332.84 696.68,-323.39"/>
<polygon fill="midnightblue" stroke="midnightblue" points="697.54,-326.79 706.75,-321.54 696.28,-319.9 697.54,-326.79"/>
</g>
<!-- Node22 -->
<g id="node22" class="node">
<title>Node22</title>
<g id="a_node22"><a xlink:href="MeasurementModel_8h.html" target="_top" xlink:title=" ">
<polygon fill="white" stroke="black" points="737.5,-224.5 737.5,-254.5 871.5,-254.5 871.5,-224.5 737.5,-224.5"/>
<text text-anchor="start" x="745.5" y="-242.5" font-family="Helvetica,sans-Serif" font-size="10.00">BayesFilters/Measurement</text>
<text text-anchor="middle" x="804.5" y="-231.5" font-family="Helvetica,sans-Serif" font-size="10.00">Model.h</text>
</a>
</g>
</g>
<!-- Node2&#45;&gt;Node22 -->
<g id="edge37" class="edge">
<title>Node2&#45;&gt;Node22</title>
<path fill="none" stroke="midnightblue" d="M470.55,-358.42C483.32,-339.8 508.45,-307.45 538.5,-291 596.73,-259.14 671.65,-247.06 727.14,-242.64"/>
<polygon fill="midnightblue" stroke="midnightblue" points="727.55,-246.12 737.27,-241.9 727.04,-239.13 727.55,-246.12"/>
</g>
<!-- Node27 -->
<g id="node27" class="node">
<title>Node27</title>
<g id="a_node27"><a xlink:title=" ">
<polygon fill="white" stroke="#bfbfbf" points="547,-297 547,-316 606,-316 606,-297 547,-297"/>
<text text-anchor="middle" x="576.5" y="-304" font-family="Helvetica,sans-Serif" font-size="10.00">functional</text>
</a>
</g>
</g>
<!-- Node2&#45;&gt;Node27 -->
<g id="edge39" class="edge">
<title>Node2&#45;&gt;Node27</title>
<path fill="none" stroke="midnightblue" d="M486.45,-358.4C506.1,-347.29 533.29,-331.92 552.65,-320.98"/>
<polygon fill="midnightblue" stroke="midnightblue" points="554.47,-323.97 561.45,-316.01 551.02,-317.88 554.47,-323.97"/>
</g>
<!-- Node3&#45;&gt;Node4 -->
<g id="edge3" class="edge">
<title>Node3&#45;&gt;Node4</title>
<path fill="none" stroke="midnightblue" d="M313.19,-291.4C315.66,-281.96 318.93,-269.45 321.61,-259.19"/>
<polygon fill="midnightblue" stroke="midnightblue" points="325.08,-259.75 324.23,-249.19 318.31,-257.98 325.08,-259.75"/>
</g>
<!-- Node4&#45;&gt;Node5 -->
<g id="edge4" class="edge">
<title>Node4&#45;&gt;Node5</title>
<path fill="none" stroke="midnightblue" d="M304.87,-229.98C279.08,-219.81 235.79,-202.76 206.46,-191.2"/>
<polygon fill="midnightblue" stroke="midnightblue" points="207.68,-187.92 197.09,-187.51 205.12,-194.43 207.68,-187.92"/>
</g>
<!-- Node8 -->
<g id="node8" class="node">
<title>Node8</title>
<g id="a_node8"><a xlink:href="Skippable_8h.html" target="_top" xlink:title=" ">
<polygon fill="white" stroke="black" points="67,-112.5 67,-131.5 192,-131.5 192,-112.5 67,-112.5"/>
<text text-anchor="middle" x="129.5" y="-119.5" font-family="Helvetica,sans-Serif" font-size="10.00">BayesFilters/Skippable.h</text>
</a>
</g>
</g>
<!-- Node4&#45;&gt;Node8 -->
<g id="edge10" class="edge">
<title>Node4&#45;&gt;Node8</title>
<path fill="none" stroke="midnightblue" d="M260.48,-233.7C197.44,-227.57 108.93,-214.44 87.5,-188 74.46,-171.91 92.35,-151.64 108.65,-138.04"/>
<polygon fill="midnightblue" stroke="midnightblue" points="111.15,-140.53 116.85,-131.6 106.83,-135.02 111.15,-140.53"/>
</g>
<!-- Node11 -->
<g id="node11" class="node">
<title>Node11</title>
<g id="a_node11"><a xlink:href="StateProcess_8h.html" target="_top" xlink:title=" ">
<polygon fill="white" stroke="black" points="272.5,-168.5 272.5,-187.5 414.5,-187.5 414.5,-168.5 272.5,-168.5"/>
<text text-anchor="middle" x="343.5" y="-175.5" font-family="Helvetica,sans-Serif" font-size="10.00">BayesFilters/StateProcess.h</text>
</a>
</g>
</g>
<!-- Node4&#45;&gt;Node11 -->
<g id="edge11" class="edge">
<title>Node4&#45;&gt;Node11</title>
<path fill="none" stroke="midnightblue" d="M328.94,-229.98C331.36,-221.49 335.16,-208.2 338.27,-197.32"/>
<polygon fill="midnightblue" stroke="midnightblue" points="341.69,-198.09 341.07,-187.51 334.96,-196.16 341.69,-198.09"/>
</g>
<!-- Node12 -->
<g id="node12" class="node">
<title>Node12</title>
<g id="a_node12"><a xlink:title=" ">
<polygon fill="white" stroke="#bfbfbf" points="876.5,-56.5 876.5,-75.5 928.5,-75.5 928.5,-56.5 876.5,-56.5"/>
<text text-anchor="middle" x="902.5" y="-63.5" font-family="Helvetica,sans-Serif" font-size="10.00">memory</text>
</a>
</g>
</g>
<!-- Node4&#45;&gt;Node12 -->
<g id="edge13" class="edge">
<title>Node4&#45;&gt;Node12</title>
<path fill="none" stroke="midnightblue" d="M392.74,-237.63C506.66,-235.13 734.17,-225.45 803.5,-188 847.33,-164.32 879.2,-112.39 893.73,-84.9"/>
<polygon fill="midnightblue" stroke="midnightblue" points="897.02,-86.17 898.44,-75.67 890.78,-82.99 897.02,-86.17"/>
</g>
<!-- Node6 -->
<g id="node6" class="node">
<title>Node6</title>
<g id="a_node6"><a xlink:href="ExogenousProcess_8h.html" target="_top" xlink:title=" ">
<polygon fill="white" stroke="black" points="210,-112.5 210,-131.5 377,-131.5 377,-112.5 210,-112.5"/>
<text text-anchor="middle" x="293.5" y="-119.5" font-family="Helvetica,sans-Serif" font-size="10.00">BayesFilters/ExogenousProcess.h</text>
</a>
</g>
</g>
<!-- Node5&#45;&gt;Node6 -->
<g id="edge5" class="edge">
<title>Node5&#45;&gt;Node6</title>
<path fill="none" stroke="midnightblue" d="M194.2,-168.44C213.44,-159.64 243.65,-145.81 265.7,-135.72"/>
<polygon fill="midnightblue" stroke="midnightblue" points="267.25,-138.86 274.89,-131.52 264.34,-132.5 267.25,-138.86"/>
</g>
<!-- Node5&#45;&gt;Node8 -->
<g id="edge7" class="edge">
<title>Node5&#45;&gt;Node8</title>
<path fill="none" stroke="midnightblue" d="M167.9,-168.08C161.27,-160.3 151.48,-148.8 143.44,-139.37"/>
<polygon fill="midnightblue" stroke="midnightblue" points="146.1,-137.09 136.95,-131.75 140.77,-141.63 146.1,-137.09"/>
</g>
<!-- Node6&#45;&gt;Node7 -->
<g id="edge6" class="edge">
<title>Node6&#45;&gt;Node7</title>
<path fill="none" stroke="midnightblue" d="M314.1,-112.44C335.49,-103.56 369.18,-89.56 393.52,-79.45"/>
<polygon fill="midnightblue" stroke="midnightblue" points="395.11,-82.58 403,-75.52 392.42,-76.12 395.11,-82.58"/>
</g>
<!-- Node9 -->
<g id="node9" class="node">
<title>Node9</title>
<g id="a_node9"><a xlink:href="Skipper_8h.html" target="_top" xlink:title=" ">
<polygon fill="white" stroke="black" points="154,-56.5 154,-75.5 269,-75.5 269,-56.5 154,-56.5"/>
<text text-anchor="middle" x="211.5" y="-63.5" font-family="Helvetica,sans-Serif" font-size="10.00">BayesFilters/Skipper.h</text>
</a>
</g>
</g>
<!-- Node8&#45;&gt;Node9 -->
<g id="edge8" class="edge">
<title>Node8&#45;&gt;Node9</title>
<path fill="none" stroke="midnightblue" d="M142.67,-112.32C155.35,-103.98 174.73,-91.21 189.71,-81.35"/>
<polygon fill="midnightblue" stroke="midnightblue" points="191.93,-84.08 198.36,-75.65 188.08,-78.23 191.93,-84.08"/>
</g>
<!-- Node10 -->
<g id="node10" class="node">
<title>Node10</title>
<g id="a_node10"><a xlink:title=" ">
<polygon fill="white" stroke="#bfbfbf" points="665,-0.5 665,-19.5 706,-19.5 706,-0.5 665,-0.5"/>
<text text-anchor="middle" x="685.5" y="-7.5" font-family="Helvetica,sans-Serif" font-size="10.00">string</text>
</a>
</g>
</g>
<!-- Node9&#45;&gt;Node10 -->
<g id="edge9" class="edge">
<title>Node9&#45;&gt;Node10</title>
<path fill="none" stroke="midnightblue" d="M269.15,-58.43C370.24,-46.92 576.17,-23.46 654.4,-14.54"/>
<polygon fill="midnightblue" stroke="midnightblue" points="655.03,-17.99 664.57,-13.38 654.24,-11.04 655.03,-17.99"/>
</g>
<!-- Node11&#45;&gt;Node7 -->
<g id="edge12" class="edge">
<title>Node11&#45;&gt;Node7</title>
<path fill="none" stroke="midnightblue" d="M353.1,-168.29C362.31,-159.63 376.3,-145.69 386.5,-132 397.62,-117.06 407.9,-98.46 414.78,-84.98"/>
<polygon fill="midnightblue" stroke="midnightblue" points="418.02,-86.34 419.34,-75.83 411.75,-83.22 418.02,-86.34"/>
</g>
<!-- Node14 -->
<g id="node14" class="node">
<title>Node14</title>
<g id="a_node14"><a xlink:href="any_8h.html" target="_top" xlink:title=" ">
<polygon fill="white" stroke="black" points="1016,-112.5 1016,-131.5 1113,-131.5 1113,-112.5 1016,-112.5"/>
<text text-anchor="middle" x="1064.5" y="-119.5" font-family="Helvetica,sans-Serif" font-size="10.00">BayesFilters/any.h</text>
</a>
</g>
</g>
<!-- Node13&#45;&gt;Node14 -->
<g id="edge15" class="edge">
<title>Node13&#45;&gt;Node14</title>
<path fill="none" stroke="midnightblue" d="M1041.12,-168.08C1044.96,-160.69 1050.52,-149.95 1055.26,-140.81"/>
<polygon fill="midnightblue" stroke="midnightblue" points="1058.47,-142.24 1059.96,-131.75 1052.25,-139.02 1058.47,-142.24"/>
</g>
<!-- Node14&#45;&gt;Node12 -->
<g id="edge17" class="edge">
<title>Node14&#45;&gt;Node12</title>
<path fill="none" stroke="midnightblue" d="M1038.83,-112.44C1011.58,-103.36 968.32,-88.94 937.85,-78.78"/>
<polygon fill="midnightblue" stroke="midnightblue" points="938.64,-75.36 928.05,-75.52 936.43,-82 938.64,-75.36"/>
</g>
<!-- Node15 -->
<g id="node15" class="node">
<title>Node15</title>
<g id="a_node15"><a xlink:title=" ">
<polygon fill="white" stroke="#bfbfbf" points="1064.5,-56.5 1064.5,-75.5 1120.5,-75.5 1120.5,-56.5 1064.5,-56.5"/>
<text text-anchor="middle" x="1092.5" y="-63.5" font-family="Helvetica,sans-Serif" font-size="10.00">algorithm</text>
</a>
</g>
</g>
<!-- Node14&#45;&gt;Node15 -->
<g id="edge16" class="edge">
<title>Node14&#45;&gt;Node15</title>
<path fill="none" stroke="midnightblue" d="M1069.12,-112.08C1072.96,-104.69 1078.52,-93.95 1083.26,-84.81"/>
<polygon fill="midnightblue" stroke="midnightblue" points="1086.47,-86.24 1087.96,-75.75 1080.25,-83.02 1086.47,-86.24"/>
</g>
<!-- Node16 -->
<g id="node16" class="node">
<title>Node16</title>
<g id="a_node16"><a xlink:title=" ">
<polygon fill="white" stroke="#bfbfbf" points="1139,-56.5 1139,-75.5 1198,-75.5 1198,-56.5 1139,-56.5"/>
<text text-anchor="middle" x="1168.5" y="-63.5" font-family="Helvetica,sans-Serif" font-size="10.00">stdexcept</text>
</a>
</g>
</g>
<!-- Node14&#45;&gt;Node16 -->
<g id="edge18" class="edge">
<title>Node14&#45;&gt;Node16</title>
<path fill="none" stroke="midnightblue" d="M1081.21,-112.32C1097.81,-103.7 1123.5,-90.36 1142.72,-80.39"/>
<polygon fill="midnightblue" stroke="midnightblue" points="1144.57,-83.37 1151.83,-75.65 1141.34,-77.16 1144.57,-83.37"/>
</g>
<!-- Node17 -->
<g id="node17" class="node">
<title>Node17</title>
<g id="a_node17"><a xlink:title=" ">
<polygon fill="white" stroke="#bfbfbf" points="1216,-56.5 1216,-75.5 1267,-75.5 1267,-56.5 1216,-56.5"/>
<text text-anchor="middle" x="1241.5" y="-63.5" font-family="Helvetica,sans-Serif" font-size="10.00">typeinfo</text>
</a>
</g>
</g>
<!-- Node14&#45;&gt;Node17 -->
<g id="edge19" class="edge">
<title>Node14&#45;&gt;Node17</title>
<path fill="none" stroke="midnightblue" d="M1092.55,-112.44C1123.29,-103.06 1172.67,-88 1206.07,-77.81"/>
<polygon fill="midnightblue" stroke="midnightblue" points="1207.34,-81.08 1215.88,-74.82 1205.3,-74.39 1207.34,-81.08"/>
</g>
<!-- Node18 -->
<g id="node18" class="node">
<title>Node18</title>
<g id="a_node18"><a xlink:title=" ">
<polygon fill="white" stroke="#bfbfbf" points="984.5,-56.5 984.5,-75.5 1046.5,-75.5 1046.5,-56.5 984.5,-56.5"/>
<text text-anchor="middle" x="1015.5" y="-63.5" font-family="Helvetica,sans-Serif" font-size="10.00">type_traits</text>
</a>
</g>
</g>
<!-- Node14&#45;&gt;Node18 -->
<g id="edge20" class="edge">
<title>Node14&#45;&gt;Node18</title>
<path fill="none" stroke="midnightblue" d="M1056.41,-112.08C1049.34,-104.3 1038.91,-92.8 1030.35,-83.37"/>
<polygon fill="midnightblue" stroke="midnightblue" points="1032.75,-80.8 1023.44,-75.75 1027.57,-85.51 1032.75,-80.8"/>
</g>
<!-- Node19&#45;&gt;Node7 -->
<g id="edge24" class="edge">
<title>Node19&#45;&gt;Node7</title>
<path fill="none" stroke="midnightblue" d="M538.69,-168.37C517.61,-149.81 467.72,-105.91 441.04,-82.44"/>
<polygon fill="midnightblue" stroke="midnightblue" points="443.08,-79.57 433.26,-75.59 438.46,-84.83 443.08,-79.57"/>
</g>
<!-- Node20 -->
<g id="node20" class="node">
<title>Node20</title>
<g id="a_node20"><a xlink:title=" ">
<polygon fill="white" stroke="#bfbfbf" points="550.5,-112.5 550.5,-131.5 594.5,-131.5 594.5,-112.5 550.5,-112.5"/>
<text text-anchor="middle" x="572.5" y="-119.5" font-family="Helvetica,sans-Serif" font-size="10.00">vector</text>
</a>
</g>
</g>
<!-- Node19&#45;&gt;Node20 -->
<g id="edge23" class="edge">
<title>Node19&#45;&gt;Node20</title>
<path fill="none" stroke="midnightblue" d="M552.46,-168.08C555.71,-160.77 560.42,-150.18 564.45,-141.1"/>
<polygon fill="midnightblue" stroke="midnightblue" points="567.75,-142.31 568.61,-131.75 561.35,-139.47 567.75,-142.31"/>
</g>
<!-- Node21&#45;&gt;Node22 -->
<g id="edge26" class="edge">
<title>Node21&#45;&gt;Node22</title>
<path fill="none" stroke="midnightblue" d="M789.62,-291.4C791.94,-283.47 794.89,-273.38 797.55,-264.27"/>
<polygon fill="midnightblue" stroke="midnightblue" points="800.94,-265.16 800.39,-254.58 794.22,-263.19 800.94,-265.16"/>
</g>
<!-- Node22&#45;&gt;Node7 -->
<g id="edge36" class="edge">
<title>Node22&#45;&gt;Node7</title>
<path fill="none" stroke="midnightblue" d="M753.16,-224.47C728.13,-216.2 698.36,-204.15 674.5,-188 636.22,-162.09 643.33,-135.46 603.5,-112 562.4,-87.8 508.62,-76.54 470.58,-71.35"/>
<polygon fill="midnightblue" stroke="midnightblue" points="470.66,-67.83 460.3,-70.04 469.77,-74.77 470.66,-67.83"/>
</g>
<!-- Node22&#45;&gt;Node10 -->
<g id="edge34" class="edge">
<title>Node22&#45;&gt;Node10</title>
<path fill="none" stroke="midnightblue" d="M863.32,-224.41C883.32,-216.79 904,-205.27 917.5,-188 954.05,-141.26 975.59,-101.5 937.5,-56 909.58,-22.65 777.02,-13.99 716.17,-11.76"/>
<polygon fill="midnightblue" stroke="midnightblue" points="716.13,-8.26 706.02,-11.43 715.9,-15.26 716.13,-8.26"/>
</g>
<!-- Node22&#45;&gt;Node12 -->
<g id="edge33" class="edge">
<title>Node22&#45;&gt;Node12</title>
<path fill="none" stroke="midnightblue" d="M852.91,-224.37C870.67,-216.61 888.99,-205 899.5,-188 919.03,-156.39 913.01,-110.72 907.42,-85.49"/>
<polygon fill="midnightblue" stroke="midnightblue" points="910.82,-84.63 905.05,-75.75 904.01,-86.29 910.82,-84.63"/>
</g>
<!-- Node22&#45;&gt;Node13 -->
<g id="edge27" class="edge">
<title>Node22&#45;&gt;Node13</title>
<path fill="none" stroke="midnightblue" d="M859.19,-224.47C900.26,-213.94 955.73,-199.72 993.62,-190"/>
<polygon fill="midnightblue" stroke="midnightblue" points="994.52,-193.38 1003.33,-187.51 992.78,-186.6 994.52,-193.38"/>
</g>
<!-- Node23 -->
<g id="node23" class="node">
<title>Node23</title>
<g id="a_node23"><a xlink:href="Logger_8h.html" target="_top" xlink:title=" ">
<polygon fill="white" stroke="black" points="683,-168.5 683,-187.5 794,-187.5 794,-168.5 683,-168.5"/>
<text text-anchor="middle" x="738.5" y="-175.5" font-family="Helvetica,sans-Serif" font-size="10.00">BayesFilters/Logger.h</text>
</a>
</g>
</g>
<!-- Node22&#45;&gt;Node23 -->
<g id="edge28" class="edge">
<title>Node22&#45;&gt;Node23</title>
<path fill="none" stroke="midnightblue" d="M788.86,-224.4C778.87,-215.4 765.92,-203.72 755.65,-194.47"/>
<polygon fill="midnightblue" stroke="midnightblue" points="757.87,-191.75 748.1,-187.66 753.19,-196.95 757.87,-191.75"/>
</g>
<!-- Node26 -->
<g id="node26" class="node">
<title>Node26</title>
<g id="a_node26"><a xlink:title=" ">
<polygon fill="white" stroke="#bfbfbf" points="850.5,-168.5 850.5,-187.5 890.5,-187.5 890.5,-168.5 850.5,-168.5"/>
<text text-anchor="middle" x="870.5" y="-175.5" font-family="Helvetica,sans-Serif" font-size="10.00">utility</text>
</a>
</g>
</g>
<!-- Node22&#45;&gt;Node26 -->
<g id="edge35" class="edge">
<title>Node22&#45;&gt;Node26</title>
<path fill="none" stroke="midnightblue" d="M820.14,-224.4C830.13,-215.4 843.08,-203.72 853.35,-194.47"/>
<polygon fill="midnightblue" stroke="midnightblue" points="855.81,-196.95 860.9,-187.66 851.13,-191.75 855.81,-196.95"/>
</g>
<!-- Node23&#45;&gt;Node10 -->
<g id="edge31" class="edge">
<title>Node23&#45;&gt;Node10</title>
<path fill="none" stroke="midnightblue" d="M729.72,-168.2C721.79,-159.7 710.47,-146.06 704.5,-132 690.01,-97.87 686.45,-54.09 685.64,-29.65"/>
<polygon fill="midnightblue" stroke="midnightblue" points="689.14,-29.53 685.44,-19.6 682.14,-29.67 689.14,-29.53"/>
</g>
<!-- Node23&#45;&gt;Node20 -->
<g id="edge32" class="edge">
<title>Node23&#45;&gt;Node20</title>
<path fill="none" stroke="midnightblue" d="M712.2,-168.44C682.91,-158.92 635.59,-143.52 604.26,-133.33"/>
<polygon fill="midnightblue" stroke="midnightblue" points="605.29,-129.99 594.7,-130.22 603.12,-136.64 605.29,-129.99"/>
</g>
<!-- Node24 -->
<g id="node24" class="node">
<title>Node24</title>
<g id="a_node24"><a xlink:title=" ">
<polygon fill="white" stroke="#bfbfbf" points="713.5,-112.5 713.5,-131.5 763.5,-131.5 763.5,-112.5 713.5,-112.5"/>
<text text-anchor="middle" x="738.5" y="-119.5" font-family="Helvetica,sans-Serif" font-size="10.00">fstream</text>
</a>
</g>
</g>
<!-- Node23&#45;&gt;Node24 -->
<g id="edge29" class="edge">
<title>Node23&#45;&gt;Node24</title>
<path fill="none" stroke="midnightblue" d="M738.5,-168.08C738.5,-161.01 738.5,-150.86 738.5,-141.99"/>
<polygon fill="midnightblue" stroke="midnightblue" points="742,-141.75 738.5,-131.75 735,-141.75 742,-141.75"/>
</g>
<!-- Node25 -->
<g id="node25" class="node">
<title>Node25</title>
<g id="a_node25"><a xlink:title=" ">
<polygon fill="white" stroke="#bfbfbf" points="781.5,-112.5 781.5,-131.5 835.5,-131.5 835.5,-112.5 781.5,-112.5"/>
<text text-anchor="middle" x="808.5" y="-119.5" font-family="Helvetica,sans-Serif" font-size="10.00">iostream</text>
</a>
</g>
</g>
<!-- Node23&#45;&gt;Node25 -->
<g id="edge30" class="edge">
<title>Node23&#45;&gt;Node25</title>
<path fill="none" stroke="midnightblue" d="M749.75,-168.32C760.3,-160.18 776.3,-147.84 788.94,-138.09"/>
<polygon fill="midnightblue" stroke="midnightblue" points="791.27,-140.71 797.05,-131.83 786.99,-135.17 791.27,-140.71"/>
</g>
<!-- Node28&#45;&gt;Node7 -->
<g id="edge42" class="edge">
<title>Node28&#45;&gt;Node7</title>
<path fill="none" stroke="midnightblue" d="M53.8,-224.25C44.5,-198.37 29.7,-143.42 57.5,-112 67.97,-100.16 280.24,-79.8 376.61,-71.11"/>
<polygon fill="midnightblue" stroke="midnightblue" points="377.03,-74.59 386.67,-70.21 376.4,-67.62 377.03,-74.59"/>
</g>
</g>
</svg>
