<?xml version="1.0" encoding="UTF-8" standalone="no"?>
<!DOCTYPE svg PUBLIC "-//W3C//DTD SVG 1.1//EN"
 "http://www.w3.org/Graphics/SVG/1.1/DTD/svg11.dtd">
<!-- Generated by graphviz version 2.43.0 (0)
 -->
<!-- Title: /home/user/bayes&#45;filters&#45;lib/src/BayesFilters/src/sigma_point.cpp Pages: 1 -->
<svg width="1624pt" height="475pt"
 viewBox="0.00 0.00 1623.50 475.00" xmlns="http://www.w3.org/2000/svg" xmlns:xlink="http://www.w3.org/1999/xlink">
<g id="graph0" class="graph" transform="scale(1 1) rotate(0) translate(4 471)">
<title>/home/user/bayes&#45;filters&#45;lib/src/BayesFilters/src/sigma_point.cpp</title>
<polygon fill="white" stroke="transparent" points="-4,4 -4,-471 1619.5,-471 1619.5,4 -4,4"/>
<!-- Node1 -->
<g id="node1" class="node">
<title>Node1</title>
<g id="a_node1"><a xlink:title=" ">
<polygon fill="#bfbfbf" stroke="black" points="1230.5,-425.5 1230.5,-466.5 1365.5,-466.5 1365.5,-425.5 1230.5,-425.5"/>
<text text-anchor="start" x="1238.5" y="-454.5" font-family="Helvetica,sans-Serif" font-size="10.00">/home/user/bayes&#45;filters</text>
<text text-anchor="start" x="1238.5" y="-443.5" font-family="Helvetica,sans-Serif" font-size="10.00">&#45;lib/src/BayesFilters/src</text>
<text text-anchor="middle" x="1298" y="-432.5" font-family="Helvetica,sans-Serif" font-size="10.00">/sigma_point.cpp</text>
</a>
</g>
</g>
<!-- Node2 -->
<g id="node2" class="node">
<title>Node2</title>
<g id="a_node2"><a xlink:href="sigma__point_8h.html" target="_top" xlink:title=" ">
<polygon fill="white" stroke="black" points="478,-358.5 478,-388.5 588,-388.5 588,-358.5 478,-358.5"/>
<text text-anchor="start" x="486" y="-376.5" font-family="Helvetica,sans-Serif" font-size="10.00">BayesFilters/sigma</text>
<text text-anchor="middle" x="533" y="-365.5" font-family="Helvetica,sans-Serif" font-size="10.00">_point.h</text>
</a>
</g>
</g>
<!-- Node1&#45;&gt;Node2 -->
<g id="edge1" class="edge">
<title>Node1&#45;&gt;Node2</title>
<path fill="none" stroke="midnightblue" d="M1230.45,-438.77C1084.61,-425.33 741.87,-393.75 598.18,-380.51"/>
<polygon fill="midnightblue" stroke="midnightblue" points="598.47,-377.02 588.19,-379.59 597.83,-383.99 598.47,-377.02"/>
</g>
<!-- Node30 -->
<g id="node30" class="node">
<title>Node30</title>
<g id="a_node30"><a xlink:href="directional__statistics_8h.html" target="_top" xlink:title=" ">
<polygon fill="white" stroke="black" points="1185.5,-224.5 1185.5,-254.5 1316.5,-254.5 1316.5,-224.5 1185.5,-224.5"/>
<text text-anchor="start" x="1193.5" y="-242.5" font-family="Helvetica,sans-Serif" font-size="10.00">BayesFilters/directional</text>
<text text-anchor="middle" x="1251" y="-231.5" font-family="Helvetica,sans-Serif" font-size="10.00">_statistics.h</text>
</a>
</g>
</g>
<!-- Node1&#45;&gt;Node30 -->
<g id="edge47" class="edge">
<title>Node1&#45;&gt;Node30</title>
<path fill="none" stroke="midnightblue" d="M1293.49,-425.39C1284.85,-387.77 1265.95,-305.55 1256.55,-264.63"/>
<polygon fill="midnightblue" stroke="midnightblue" points="1259.92,-263.67 1254.27,-254.71 1253.09,-265.24 1259.92,-263.67"/>
</g>
<!-- Node31 -->
<g id="node31" class="node">
<title>Node31</title>
<g id="a_node31"><a xlink:href="utils_8h.html" target="_top" xlink:title=" ">
<polygon fill="white" stroke="black" points="1408,-112.5 1408,-131.5 1518,-131.5 1518,-112.5 1408,-112.5"/>
<text text-anchor="middle" x="1463" y="-119.5" font-family="Helvetica,sans-Serif" font-size="10.00">BayesFilters/utils.h</text>
</a>
</g>
</g>
<!-- Node1&#45;&gt;Node31 -->
<g id="edge49" class="edge">
<title>Node1&#45;&gt;Node31</title>
<path fill="none" stroke="midnightblue" d="M1309.38,-425.23C1323.29,-399.14 1345,-351.4 1345,-307.5 1345,-307.5 1345,-307.5 1345,-238.5 1345,-189.11 1398.45,-153.88 1433.41,-136.13"/>
<polygon fill="midnightblue" stroke="midnightblue" points="1435.26,-139.12 1442.72,-131.58 1432.19,-132.82 1435.26,-139.12"/>
</g>
<!-- Node34 -->
<g id="node34" class="node">
<title>Node34</title>
<g id="a_node34"><a xlink:title=" ">
<polygon fill="white" stroke="#bfbfbf" points="1373.5,-364 1373.5,-383 1440.5,-383 1440.5,-364 1373.5,-364"/>
<text text-anchor="middle" x="1407" y="-371" font-family="Helvetica,sans-Serif" font-size="10.00">Eigen/SVD</text>
</a>
</g>
</g>
<!-- Node1&#45;&gt;Node34 -->
<g id="edge55" class="edge">
<title>Node1&#45;&gt;Node34</title>
<path fill="none" stroke="midnightblue" d="M1328.36,-425.36C1346.27,-413.78 1368.53,-399.39 1384.79,-388.87"/>
<polygon fill="midnightblue" stroke="midnightblue" points="1387.09,-391.54 1393.59,-383.17 1383.29,-385.67 1387.09,-391.54"/>
</g>
<!-- Node3 -->
<g id="node3" class="node">
<title>Node3</title>
<g id="a_node3"><a xlink:href="AdditiveMeasurementModel_8h.html" target="_top" xlink:title=" ">
<polygon fill="white" stroke="black" points="737,-291.5 737,-321.5 925,-321.5 925,-291.5 737,-291.5"/>
<text text-anchor="start" x="745" y="-309.5" font-family="Helvetica,sans-Serif" font-size="10.00">BayesFilters/AdditiveMeasurement</text>
<text text-anchor="middle" x="831" y="-298.5" font-family="Helvetica,sans-Serif" font-size="10.00">Model.h</text>
</a>
</g>
</g>
<!-- Node2&#45;&gt;Node3 -->
<g id="edge2" class="edge">
<title>Node2&#45;&gt;Node3</title>
<path fill="none" stroke="midnightblue" d="M588.01,-360.5C635.48,-350.15 704.48,-335.1 756.83,-323.68"/>
<polygon fill="midnightblue" stroke="midnightblue" points="757.71,-327.07 766.73,-321.52 756.22,-320.23 757.71,-327.07"/>
</g>
<!-- Node4 -->
<g id="node4" class="node">
<title>Node4</title>
<g id="a_node4"><a xlink:href="MeasurementModel_8h.html" target="_top" xlink:title=" ">
<polygon fill="white" stroke="black" points="766.5,-224.5 766.5,-254.5 913.5,-254.5 913.5,-224.5 766.5,-224.5"/>
<text text-anchor="start" x="774.5" y="-242.5" font-family="Helvetica,sans-Serif" font-size="10.00">BayesFilters/Measurement</text>
<text text-anchor="middle" x="840" y="-231.5" font-family="Helvetica,sans-Serif" font-size="10.00">Model.h</text>
</a>
</g>
</g>
<!-- Node2&#45;&gt;Node4 -->
<g id="edge42" class="edge">
<title>Node2&#45;&gt;Node4</title>
<path fill="none" stroke="midnightblue" d="M565.56,-358.5C621.52,-334.44 735.86,-285.28 797.83,-258.63"/>
<polygon fill="midnightblue" stroke="midnightblue" points="799.5,-261.72 807.31,-254.56 796.74,-255.29 799.5,-261.72"/>
</g>
<!-- Node5 -->
<g id="node5" class="node">
<title>Node5</title>
<g id="a_node5"><a xlink:href="Data_8h.html" target="_top" xlink:title=" ">
<polygon fill="white" stroke="black" points="1111,-168.5 1111,-187.5 1223,-187.5 1223,-168.5 1111,-168.5"/>
<text text-anchor="middle" x="1167" y="-175.5" font-family="Helvetica,sans-Serif" font-size="10.00">BayesFilters/Data.h</text>
</a>
</g>
</g>
<!-- Node2&#45;&gt;Node5 -->
<g id="edge37" class="edge">
<title>Node2&#45;&gt;Node5</title>
<path fill="none" stroke="midnightblue" d="M588.18,-372.84C667.08,-371.71 815.67,-363.58 934,-322 1021.47,-291.27 1111.12,-224.18 1148.69,-194.11"/>
<polygon fill="midnightblue" stroke="midnightblue" points="1151.12,-196.64 1156.69,-187.63 1146.72,-191.2 1151.12,-196.64"/>
</g>
<!-- Node17 -->
<g id="node17" class="node">
<title>Node17</title>
<g id="a_node17"><a xlink:href="VectorDescription_8h.html" target="_top" xlink:title=" ">
<polygon fill="white" stroke="black" points="68.5,-56.5 68.5,-75.5 243.5,-75.5 243.5,-56.5 68.5,-56.5"/>
<text text-anchor="middle" x="156" y="-63.5" font-family="Helvetica,sans-Serif" font-size="10.00">BayesFilters/VectorDescription.h</text>
</a>
</g>
</g>
<!-- Node2&#45;&gt;Node17 -->
<g id="edge44" class="edge">
<title>Node2&#45;&gt;Node17</title>
<path fill="none" stroke="midnightblue" d="M477.97,-370.51C341.79,-364.08 0,-338.21 0,-240.5 0,-240.5 0,-240.5 0,-177 0,-122.82 63.63,-92.97 109.62,-78.48"/>
<polygon fill="midnightblue" stroke="midnightblue" points="110.85,-81.77 119.42,-75.54 108.84,-75.06 110.85,-81.77"/>
</g>
<!-- Node20 -->
<g id="node20" class="node">
<title>Node20</title>
<g id="a_node20"><a xlink:title=" ">
<polygon fill="white" stroke="#bfbfbf" points="636.5,-56.5 636.5,-75.5 713.5,-75.5 713.5,-56.5 636.5,-56.5"/>
<text text-anchor="middle" x="675" y="-63.5" font-family="Helvetica,sans-Serif" font-size="10.00">Eigen/Dense</text>
</a>
</g>
</g>
<!-- Node2&#45;&gt;Node20 -->
<g id="edge46" class="edge">
<title>Node2&#45;&gt;Node20</title>
<path fill="none" stroke="midnightblue" d="M532.47,-358.22C532.15,-341.83 532.47,-314.22 537,-291 548.09,-234.16 548.54,-216.62 580,-168 592.64,-148.47 601.87,-148.76 618,-132 633.37,-116.03 649.97,-96.86 661.27,-83.49"/>
<polygon fill="midnightblue" stroke="midnightblue" points="664.11,-85.55 667.86,-75.64 658.75,-81.05 664.11,-85.55"/>
</g>
<!-- Node21 -->
<g id="node21" class="node">
<title>Node21</title>
<g id="a_node21"><a xlink:href="AdditiveStateModel_8h.html" target="_top" xlink:title=" ">
<polygon fill="white" stroke="black" points="273,-291.5 273,-321.5 419,-321.5 419,-291.5 273,-291.5"/>
<text text-anchor="start" x="281" y="-309.5" font-family="Helvetica,sans-Serif" font-size="10.00">BayesFilters/AdditiveState</text>
<text text-anchor="middle" x="346" y="-298.5" font-family="Helvetica,sans-Serif" font-size="10.00">Model.h</text>
</a>
</g>
</g>
<!-- Node2&#45;&gt;Node21 -->
<g id="edge22" class="edge">
<title>Node2&#45;&gt;Node21</title>
<path fill="none" stroke="midnightblue" d="M492.42,-358.4C464.12,-348.56 426.17,-335.37 396,-324.88"/>
<polygon fill="midnightblue" stroke="midnightblue" points="397.09,-321.55 386.5,-321.58 394.79,-328.17 397.09,-321.55"/>
</g>
<!-- Node22 -->
<g id="node22" class="node">
<title>Node22</title>
<g id="a_node22"><a xlink:href="StateModel_8h.html" target="_top" xlink:title=" ">
<polygon fill="white" stroke="black" points="293,-230 293,-249 437,-249 437,-230 293,-230"/>
<text text-anchor="middle" x="365" y="-237" font-family="Helvetica,sans-Serif" font-size="10.00">BayesFilters/StateModel.h</text>
</a>
</g>
</g>
<!-- Node2&#45;&gt;Node22 -->
<g id="edge43" class="edge">
<title>Node2&#45;&gt;Node22</title>
<path fill="none" stroke="midnightblue" d="M515.02,-358.37C483.01,-333.22 416.43,-280.91 383.82,-255.29"/>
<polygon fill="midnightblue" stroke="midnightblue" points="385.97,-252.52 375.94,-249.1 381.64,-258.03 385.97,-252.52"/>
</g>
<!-- Node23 -->
<g id="node23" class="node">
<title>Node23</title>
<g id="a_node23"><a xlink:href="ExogenousModel_8h.html" target="_top" xlink:title=" ">
<polygon fill="white" stroke="black" points="125.5,-168.5 125.5,-187.5 296.5,-187.5 296.5,-168.5 125.5,-168.5"/>
<text text-anchor="middle" x="211" y="-175.5" font-family="Helvetica,sans-Serif" font-size="10.00">BayesFilters/ExogenousModel.h</text>
</a>
</g>
</g>
<!-- Node2&#45;&gt;Node23 -->
<g id="edge38" class="edge">
<title>Node2&#45;&gt;Node23</title>
<path fill="none" stroke="midnightblue" d="M477.91,-368.51C408.84,-362.44 295.64,-348.69 264,-322 226.31,-290.21 215.41,-229.01 212.27,-198"/>
<polygon fill="midnightblue" stroke="midnightblue" points="215.73,-197.39 211.4,-187.72 208.75,-197.98 215.73,-197.39"/>
</g>
<!-- Node28 -->
<g id="node28" class="node">
<title>Node28</title>
<g id="a_node28"><a xlink:href="GaussianMixture_8h.html" target="_top" xlink:title=" ">
<polygon fill="white" stroke="black" points="589.5,-168.5 589.5,-187.5 760.5,-187.5 760.5,-168.5 589.5,-168.5"/>
<text text-anchor="middle" x="675" y="-175.5" font-family="Helvetica,sans-Serif" font-size="10.00">BayesFilters/GaussianMixture.h</text>
</a>
</g>
</g>
<!-- Node2&#45;&gt;Node28 -->
<g id="edge39" class="edge">
<title>Node2&#45;&gt;Node28</title>
<path fill="none" stroke="midnightblue" d="M533.76,-358.3C535.22,-341.25 539.5,-312.3 552,-291 577.21,-248.03 624.29,-212.12 652.33,-193.26"/>
<polygon fill="midnightblue" stroke="midnightblue" points="654.61,-195.95 661.04,-187.53 650.76,-190.1 654.61,-195.95"/>
</g>
<!-- Node29 -->
<g id="node29" class="node">
<title>Node29</title>
<g id="a_node29"><a xlink:title=" ">
<polygon fill="white" stroke="#bfbfbf" points="561.5,-297 561.5,-316 626.5,-316 626.5,-297 561.5,-297"/>
<text text-anchor="middle" x="594" y="-304" font-family="Helvetica,sans-Serif" font-size="10.00">functional</text>
</a>
</g>
</g>
<!-- Node2&#45;&gt;Node29 -->
<g id="edge45" class="edge">
<title>Node2&#45;&gt;Node29</title>
<path fill="none" stroke="midnightblue" d="M546.24,-358.4C555.84,-348.16 568.85,-334.3 578.87,-323.62"/>
<polygon fill="midnightblue" stroke="midnightblue" points="581.55,-325.88 585.84,-316.19 576.45,-321.09 581.55,-325.88"/>
</g>
<!-- Node3&#45;&gt;Node4 -->
<g id="edge3" class="edge">
<title>Node3&#45;&gt;Node4</title>
<path fill="none" stroke="midnightblue" d="M832.95,-291.4C834.04,-283.56 835.42,-273.6 836.67,-264.57"/>
<polygon fill="midnightblue" stroke="midnightblue" points="840.15,-264.96 838.05,-254.58 833.21,-264 840.15,-264.96"/>
</g>
<!-- Node4&#45;&gt;Node5 -->
<g id="edge4" class="edge">
<title>Node4&#45;&gt;Node5</title>
<path fill="none" stroke="midnightblue" d="M913.79,-225.07C973.25,-214.25 1055.64,-199.26 1110.08,-189.36"/>
<polygon fill="midnightblue" stroke="midnightblue" points="1111.03,-192.74 1120.25,-187.51 1109.78,-185.85 1111.03,-192.74"/>
</g>
<!-- Node8 -->
<g id="node8" class="node">
<title>Node8</title>
<g id="a_node8"><a xlink:title=" ">
<polygon fill="white" stroke="#bfbfbf" points="1058,-56.5 1058,-75.5 1116,-75.5 1116,-56.5 1058,-56.5"/>
<text text-anchor="middle" x="1087" y="-63.5" font-family="Helvetica,sans-Serif" font-size="10.00">memory</text>
</a>
</g>
</g>
<!-- Node4&#45;&gt;Node8 -->
<g id="edge18" class="edge">
<title>Node4&#45;&gt;Node8</title>
<path fill="none" stroke="midnightblue" d="M913.7,-229.94C969.04,-222.01 1038.64,-208.34 1059,-188 1086.24,-160.78 1089.1,-112.66 1088.34,-86.04"/>
<polygon fill="midnightblue" stroke="midnightblue" points="1091.82,-85.59 1087.83,-75.77 1084.83,-85.93 1091.82,-85.59"/>
</g>
<!-- Node12 -->
<g id="node12" class="node">
<title>Node12</title>
<g id="a_node12"><a xlink:href="Logger_8h.html" target="_top" xlink:title=" ">
<polygon fill="white" stroke="black" points="880.5,-168.5 880.5,-187.5 1001.5,-187.5 1001.5,-168.5 880.5,-168.5"/>
<text text-anchor="middle" x="941" y="-175.5" font-family="Helvetica,sans-Serif" font-size="10.00">BayesFilters/Logger.h</text>
</a>
</g>
</g>
<!-- Node4&#45;&gt;Node12 -->
<g id="edge11" class="edge">
<title>Node4&#45;&gt;Node12</title>
<path fill="none" stroke="midnightblue" d="M863.94,-224.4C880.13,-214.86 901.41,-202.32 917.5,-192.84"/>
<polygon fill="midnightblue" stroke="midnightblue" points="919.46,-195.75 926.3,-187.66 915.91,-189.72 919.46,-195.75"/>
</g>
<!-- Node15 -->
<g id="node15" class="node">
<title>Node15</title>
<g id="a_node15"><a xlink:title=" ">
<polygon fill="white" stroke="#bfbfbf" points="920,-0.5 920,-19.5 964,-19.5 964,-0.5 920,-0.5"/>
<text text-anchor="middle" x="942" y="-7.5" font-family="Helvetica,sans-Serif" font-size="10.00">string</text>
</a>
</g>
</g>
<!-- Node4&#45;&gt;Node15 -->
<g id="edge19" class="edge">
<title>Node4&#45;&gt;Node15</title>
<path fill="none" stroke="midnightblue" d="M913.7,-233.02C947.5,-226.82 985.61,-214.04 1011,-188 1035.03,-163.35 1037.7,-144.38 1026,-112 1013.05,-76.18 981.25,-44.12 960.71,-26.15"/>
<polygon fill="midnightblue" stroke="midnightblue" points="962.82,-23.35 952.93,-19.55 958.29,-28.69 962.82,-23.35"/>
</g>
<!-- Node4&#45;&gt;Node17 -->
<g id="edge16" class="edge">
<title>Node4&#45;&gt;Node17</title>
<path fill="none" stroke="midnightblue" d="M766.43,-228.42C713.81,-220.2 641.68,-206.84 580,-188 519.05,-169.38 505.72,-159 448,-132 430.36,-123.75 427.46,-118.22 409,-112 357.69,-94.71 298.16,-83.7 249.75,-76.9"/>
<polygon fill="midnightblue" stroke="midnightblue" points="249.97,-73.4 239.59,-75.52 249.03,-80.34 249.97,-73.4"/>
</g>
<!-- Node19 -->
<g id="node19" class="node">
<title>Node19</title>
<g id="a_node19"><a xlink:title=" ">
<polygon fill="white" stroke="#bfbfbf" points="817.5,-168.5 817.5,-187.5 862.5,-187.5 862.5,-168.5 817.5,-168.5"/>
<text text-anchor="middle" x="840" y="-175.5" font-family="Helvetica,sans-Serif" font-size="10.00">utility</text>
</a>
</g>
</g>
<!-- Node4&#45;&gt;Node19 -->
<g id="edge20" class="edge">
<title>Node4&#45;&gt;Node19</title>
<path fill="none" stroke="midnightblue" d="M840,-224.4C840,-216.47 840,-206.46 840,-197.86"/>
<polygon fill="midnightblue" stroke="midnightblue" points="843.5,-197.66 840,-187.66 836.5,-197.66 843.5,-197.66"/>
</g>
<!-- Node4&#45;&gt;Node20 -->
<g id="edge21" class="edge">
<title>Node4&#45;&gt;Node20</title>
<path fill="none" stroke="midnightblue" d="M826.5,-224.47C796.13,-192.9 722.6,-116.47 690.46,-83.07"/>
<polygon fill="midnightblue" stroke="midnightblue" points="692.69,-80.34 683.24,-75.56 687.65,-85.19 692.69,-80.34"/>
</g>
<!-- Node6 -->
<g id="node6" class="node">
<title>Node6</title>
<g id="a_node6"><a xlink:href="any_8h.html" target="_top" xlink:title=" ">
<polygon fill="white" stroke="black" points="1274.5,-112.5 1274.5,-131.5 1379.5,-131.5 1379.5,-112.5 1274.5,-112.5"/>
<text text-anchor="middle" x="1327" y="-119.5" font-family="Helvetica,sans-Serif" font-size="10.00">BayesFilters/any.h</text>
</a>
</g>
</g>
<!-- Node5&#45;&gt;Node6 -->
<g id="edge5" class="edge">
<title>Node5&#45;&gt;Node6</title>
<path fill="none" stroke="midnightblue" d="M1192.35,-168.44C1219.27,-159.36 1262,-144.94 1292.09,-134.78"/>
<polygon fill="midnightblue" stroke="midnightblue" points="1293.41,-138.03 1301.77,-131.52 1291.17,-131.4 1293.41,-138.03"/>
</g>
<!-- Node7 -->
<g id="node7" class="node">
<title>Node7</title>
<g id="a_node7"><a xlink:title=" ">
<polygon fill="white" stroke="#bfbfbf" points="1380,-56.5 1380,-75.5 1444,-75.5 1444,-56.5 1380,-56.5"/>
<text text-anchor="middle" x="1412" y="-63.5" font-family="Helvetica,sans-Serif" font-size="10.00">algorithm</text>
</a>
</g>
</g>
<!-- Node6&#45;&gt;Node7 -->
<g id="edge6" class="edge">
<title>Node6&#45;&gt;Node7</title>
<path fill="none" stroke="midnightblue" d="M1340.66,-112.32C1353.92,-103.9 1374.27,-90.97 1389.85,-81.07"/>
<polygon fill="midnightblue" stroke="midnightblue" points="1391.81,-83.97 1398.38,-75.65 1388.06,-78.06 1391.81,-83.97"/>
</g>
<!-- Node6&#45;&gt;Node8 -->
<g id="edge7" class="edge">
<title>Node6&#45;&gt;Node8</title>
<path fill="none" stroke="midnightblue" d="M1288.45,-112.45C1250.03,-103.91 1189.08,-90.31 1126.45,-76.09"/>
<polygon fill="midnightblue" stroke="midnightblue" points="1126.91,-72.61 1116.38,-73.8 1125.36,-79.43 1126.91,-72.61"/>
</g>
<!-- Node9 -->
<g id="node9" class="node">
<title>Node9</title>
<g id="a_node9"><a xlink:title=" ">
<polygon fill="white" stroke="#bfbfbf" points="1134.5,-56.5 1134.5,-75.5 1199.5,-75.5 1199.5,-56.5 1134.5,-56.5"/>
<text text-anchor="middle" x="1167" y="-63.5" font-family="Helvetica,sans-Serif" font-size="10.00">stdexcept</text>
</a>
</g>
</g>
<!-- Node6&#45;&gt;Node9 -->
<g id="edge8" class="edge">
<title>Node6&#45;&gt;Node9</title>
<path fill="none" stroke="midnightblue" d="M1301.65,-112.44C1274.73,-103.36 1232,-88.94 1201.91,-78.78"/>
<polygon fill="midnightblue" stroke="midnightblue" points="1202.83,-75.4 1192.23,-75.52 1200.59,-82.03 1202.83,-75.4"/>
</g>
<!-- Node10 -->
<g id="node10" class="node">
<title>Node10</title>
<g id="a_node10"><a xlink:title=" ">
<polygon fill="white" stroke="#bfbfbf" points="1217.5,-56.5 1217.5,-75.5 1274.5,-75.5 1274.5,-56.5 1217.5,-56.5"/>
<text text-anchor="middle" x="1246" y="-63.5" font-family="Helvetica,sans-Serif" font-size="10.00">typeinfo</text>
</a>
</g>
</g>
<!-- Node6&#45;&gt;Node10 -->
<g id="edge9" class="edge">
<title>Node6&#45;&gt;Node10</title>
<path fill="none" stroke="midnightblue" d="M1313.99,-112.32C1301.47,-103.98 1282.32,-91.21 1267.53,-81.35"/>
<polygon fill="midnightblue" stroke="midnightblue" points="1269.24,-78.29 1258.98,-75.65 1265.36,-84.11 1269.24,-78.29"/>
</g>
<!-- Node11 -->
<g id="node11" class="node">
<title>Node11</title>
<g id="a_node11"><a xlink:title=" ">
<polygon fill="white" stroke="#bfbfbf" points="1292.5,-56.5 1292.5,-75.5 1361.5,-75.5 1361.5,-56.5 1292.5,-56.5"/>
<text text-anchor="middle" x="1327" y="-63.5" font-family="Helvetica,sans-Serif" font-size="10.00">type_traits</text>
</a>
</g>
</g>
<!-- Node6&#45;&gt;Node11 -->
<g id="edge10" class="edge">
<title>Node6&#45;&gt;Node11</title>
<path fill="none" stroke="midnightblue" d="M1327,-112.08C1327,-105.01 1327,-94.86 1327,-85.99"/>
<polygon fill="midnightblue" stroke="midnightblue" points="1330.5,-85.75 1327,-75.75 1323.5,-85.75 1330.5,-85.75"/>
</g>
<!-- Node13 -->
<g id="node13" class="node">
<title>Node13</title>
<g id="a_node13"><a xlink:title=" ">
<polygon fill="white" stroke="#bfbfbf" points="883.5,-112.5 883.5,-131.5 938.5,-131.5 938.5,-112.5 883.5,-112.5"/>
<text text-anchor="middle" x="911" y="-119.5" font-family="Helvetica,sans-Serif" font-size="10.00">fstream</text>
</a>
</g>
</g>
<!-- Node12&#45;&gt;Node13 -->
<g id="edge12" class="edge">
<title>Node12&#45;&gt;Node13</title>
<path fill="none" stroke="midnightblue" d="M936.05,-168.08C931.9,-160.61 925.85,-149.72 920.73,-140.52"/>
<polygon fill="midnightblue" stroke="midnightblue" points="923.78,-138.79 915.86,-131.75 917.66,-142.19 923.78,-138.79"/>
</g>
<!-- Node14 -->
<g id="node14" class="node">
<title>Node14</title>
<g id="a_node14"><a xlink:title=" ">
<polygon fill="white" stroke="#bfbfbf" points="957,-112.5 957,-131.5 1017,-131.5 1017,-112.5 957,-112.5"/>
<text text-anchor="middle" x="987" y="-119.5" font-family="Helvetica,sans-Serif" font-size="10.00">iostream</text>
</a>
</g>
</g>
<!-- Node12&#45;&gt;Node14 -->
<g id="edge13" class="edge">
<title>Node12&#45;&gt;Node14</title>
<path fill="none" stroke="midnightblue" d="M948.6,-168.08C955.23,-160.3 965.02,-148.8 973.06,-139.37"/>
<polygon fill="midnightblue" stroke="midnightblue" points="975.73,-141.63 979.55,-131.75 970.4,-137.09 975.73,-141.63"/>
</g>
<!-- Node12&#45;&gt;Node15 -->
<g id="edge14" class="edge">
<title>Node12&#45;&gt;Node15</title>
<path fill="none" stroke="midnightblue" d="M918.54,-168.38C903.23,-161.18 884.14,-149.29 875,-132 870.85,-124.14 872.43,-120.51 875,-112 885.11,-78.46 910.41,-45.82 926.87,-27.1"/>
<polygon fill="midnightblue" stroke="midnightblue" points="929.61,-29.29 933.72,-19.53 924.41,-24.6 929.61,-29.29"/>
</g>
<!-- Node16 -->
<g id="node16" class="node">
<title>Node16</title>
<g id="a_node16"><a xlink:title=" ">
<polygon fill="white" stroke="#bfbfbf" points="779.5,-112.5 779.5,-131.5 826.5,-131.5 826.5,-112.5 779.5,-112.5"/>
<text text-anchor="middle" x="803" y="-119.5" font-family="Helvetica,sans-Serif" font-size="10.00">vector</text>
</a>
</g>
</g>
<!-- Node12&#45;&gt;Node16 -->
<g id="edge15" class="edge">
<title>Node12&#45;&gt;Node16</title>
<path fill="none" stroke="midnightblue" d="M919.13,-168.44C896.22,-159.48 860.02,-145.31 834.13,-135.18"/>
<polygon fill="midnightblue" stroke="midnightblue" points="835.35,-131.9 824.76,-131.52 832.8,-138.42 835.35,-131.9"/>
</g>
<!-- Node18 -->
<g id="node18" class="node">
<title>Node18</title>
<g id="a_node18"><a xlink:title=" ">
<polygon fill="white" stroke="#bfbfbf" points="129.5,-0.5 129.5,-19.5 182.5,-19.5 182.5,-0.5 129.5,-0.5"/>
<text text-anchor="middle" x="156" y="-7.5" font-family="Helvetica,sans-Serif" font-size="10.00">cstddef</text>
</a>
</g>
</g>
<!-- Node17&#45;&gt;Node18 -->
<g id="edge17" class="edge">
<title>Node17&#45;&gt;Node18</title>
<path fill="none" stroke="midnightblue" d="M156,-56.08C156,-49.01 156,-38.86 156,-29.99"/>
<polygon fill="midnightblue" stroke="midnightblue" points="159.5,-29.75 156,-19.75 152.5,-29.75 159.5,-29.75"/>
</g>
<!-- Node21&#45;&gt;Node17 -->
<g id="edge36" class="edge">
<title>Node21&#45;&gt;Node17</title>
<path fill="none" stroke="midnightblue" d="M285.27,-291.41C212.85,-270.74 96.61,-224.21 57,-132 45.58,-105.41 76.65,-88.41 106.94,-78.49"/>
<polygon fill="midnightblue" stroke="midnightblue" points="108.14,-81.78 116.69,-75.52 106.1,-75.08 108.14,-81.78"/>
</g>
<!-- Node21&#45;&gt;Node22 -->
<g id="edge23" class="edge">
<title>Node21&#45;&gt;Node22</title>
<path fill="none" stroke="midnightblue" d="M350.12,-291.4C352.91,-281.86 356.62,-269.18 359.63,-258.86"/>
<polygon fill="midnightblue" stroke="midnightblue" points="363.01,-259.77 362.46,-249.19 356.29,-257.81 363.01,-259.77"/>
</g>
<!-- Node22&#45;&gt;Node8 -->
<g id="edge35" class="edge">
<title>Node22&#45;&gt;Node8</title>
<path fill="none" stroke="midnightblue" d="M390.4,-229.89C430.55,-216.36 511.17,-189.42 580,-168 664.06,-141.84 683.97,-130.68 770,-112 868.9,-90.53 987.47,-76.83 1047.7,-70.72"/>
<polygon fill="midnightblue" stroke="midnightblue" points="1048.3,-74.18 1057.9,-69.7 1047.6,-67.21 1048.3,-74.18"/>
</g>
<!-- Node22&#45;&gt;Node23 -->
<g id="edge24" class="edge">
<title>Node22&#45;&gt;Node23</title>
<path fill="none" stroke="midnightblue" d="M342.94,-229.98C316.63,-219.81 272.49,-202.76 242.58,-191.2"/>
<polygon fill="midnightblue" stroke="midnightblue" points="243.61,-187.85 233.02,-187.51 241.09,-194.38 243.61,-187.85"/>
</g>
<!-- Node25 -->
<g id="node25" class="node">
<title>Node25</title>
<g id="a_node25"><a xlink:href="Skippable_8h.html" target="_top" xlink:title=" ">
<polygon fill="white" stroke="black" points="263.5,-112.5 263.5,-131.5 400.5,-131.5 400.5,-112.5 263.5,-112.5"/>
<text text-anchor="middle" x="332" y="-119.5" font-family="Helvetica,sans-Serif" font-size="10.00">BayesFilters/Skippable.h</text>
</a>
</g>
</g>
<!-- Node22&#45;&gt;Node25 -->
<g id="edge31" class="edge">
<title>Node22&#45;&gt;Node25</title>
<path fill="none" stroke="midnightblue" d="M362.52,-229.82C357.19,-211.17 344.56,-166.94 337.32,-141.63"/>
<polygon fill="midnightblue" stroke="midnightblue" points="340.62,-140.44 334.51,-131.78 333.89,-142.36 340.62,-140.44"/>
</g>
<!-- Node27 -->
<g id="node27" class="node">
<title>Node27</title>
<g id="a_node27"><a xlink:href="StateProcess_8h.html" target="_top" xlink:title=" ">
<polygon fill="white" stroke="black" points="457,-112.5 457,-131.5 609,-131.5 609,-112.5 457,-112.5"/>
<text text-anchor="middle" x="533" y="-119.5" font-family="Helvetica,sans-Serif" font-size="10.00">BayesFilters/StateProcess.h</text>
</a>
</g>
</g>
<!-- Node22&#45;&gt;Node27 -->
<g id="edge32" class="edge">
<title>Node22&#45;&gt;Node27</title>
<path fill="none" stroke="midnightblue" d="M377.63,-229.82C406.21,-210.17 476.11,-162.11 511.59,-137.72"/>
<polygon fill="midnightblue" stroke="midnightblue" points="513.97,-140.33 520.23,-131.78 510,-134.56 513.97,-140.33"/>
</g>
<!-- Node24 -->
<g id="node24" class="node">
<title>Node24</title>
<g id="a_node24"><a xlink:href="ExogenousProcess_8h.html" target="_top" xlink:title=" ">
<polygon fill="white" stroke="black" points="66.5,-112.5 66.5,-131.5 245.5,-131.5 245.5,-112.5 66.5,-112.5"/>
<text text-anchor="middle" x="156" y="-119.5" font-family="Helvetica,sans-Serif" font-size="10.00">BayesFilters/ExogenousProcess.h</text>
</a>
</g>
</g>
<!-- Node23&#45;&gt;Node24 -->
<g id="edge25" class="edge">
<title>Node23&#45;&gt;Node24</title>
<path fill="none" stroke="midnightblue" d="M201.92,-168.08C193.83,-160.14 181.8,-148.34 172.09,-138.8"/>
<polygon fill="midnightblue" stroke="midnightblue" points="174.5,-136.26 164.91,-131.75 169.6,-141.25 174.5,-136.26"/>
</g>
<!-- Node23&#45;&gt;Node25 -->
<g id="edge28" class="edge">
<title>Node23&#45;&gt;Node25</title>
<path fill="none" stroke="midnightblue" d="M230.17,-168.44C249.91,-159.64 280.89,-145.81 303.49,-135.72"/>
<polygon fill="midnightblue" stroke="midnightblue" points="305.21,-138.79 312.92,-131.52 302.36,-132.4 305.21,-138.79"/>
</g>
<!-- Node24&#45;&gt;Node17 -->
<g id="edge26" class="edge">
<title>Node24&#45;&gt;Node17</title>
<path fill="none" stroke="midnightblue" d="M156,-112.08C156,-105.01 156,-94.86 156,-85.99"/>
<polygon fill="midnightblue" stroke="midnightblue" points="159.5,-85.75 156,-75.75 152.5,-85.75 159.5,-85.75"/>
</g>
<!-- Node24&#45;&gt;Node20 -->
<g id="edge27" class="edge">
<title>Node24&#45;&gt;Node20</title>
<path fill="none" stroke="midnightblue" d="M237.95,-112.47C347.17,-101.11 537.01,-81.36 626.14,-72.08"/>
<polygon fill="midnightblue" stroke="midnightblue" points="626.66,-75.55 636.24,-71.03 625.93,-68.59 626.66,-75.55"/>
</g>
<!-- Node26 -->
<g id="node26" class="node">
<title>Node26</title>
<g id="a_node26"><a xlink:href="Skipper_8h.html" target="_top" xlink:title=" ">
<polygon fill="white" stroke="black" points="381.5,-56.5 381.5,-75.5 506.5,-75.5 506.5,-56.5 381.5,-56.5"/>
<text text-anchor="middle" x="444" y="-63.5" font-family="Helvetica,sans-Serif" font-size="10.00">BayesFilters/Skipper.h</text>
</a>
</g>
</g>
<!-- Node25&#45;&gt;Node26 -->
<g id="edge29" class="edge">
<title>Node25&#45;&gt;Node26</title>
<path fill="none" stroke="midnightblue" d="M349.99,-112.32C368.04,-103.62 396.05,-90.12 416.8,-80.11"/>
<polygon fill="midnightblue" stroke="midnightblue" points="418.56,-83.15 426.05,-75.65 415.52,-76.84 418.56,-83.15"/>
</g>
<!-- Node26&#45;&gt;Node15 -->
<g id="edge30" class="edge">
<title>Node26&#45;&gt;Node15</title>
<path fill="none" stroke="midnightblue" d="M506.57,-58.22C613.57,-46.61 828.06,-23.36 909.56,-14.52"/>
<polygon fill="midnightblue" stroke="midnightblue" points="910.15,-17.97 919.71,-13.42 909.39,-11.02 910.15,-17.97"/>
</g>
<!-- Node27&#45;&gt;Node17 -->
<g id="edge33" class="edge">
<title>Node27&#45;&gt;Node17</title>
<path fill="none" stroke="midnightblue" d="M473.26,-112.44C405.98,-102.81 296.77,-87.16 225.66,-76.98"/>
<polygon fill="midnightblue" stroke="midnightblue" points="225.85,-73.47 215.46,-75.52 224.86,-80.4 225.85,-73.47"/>
</g>
<!-- Node27&#45;&gt;Node20 -->
<g id="edge34" class="edge">
<title>Node27&#45;&gt;Node20</title>
<path fill="none" stroke="midnightblue" d="M555.5,-112.44C579.08,-103.48 616.32,-89.31 642.96,-79.18"/>
<polygon fill="midnightblue" stroke="midnightblue" points="644.5,-82.34 652.6,-75.52 642.01,-75.8 644.5,-82.34"/>
</g>
<!-- Node28&#45;&gt;Node16 -->
<g id="edge40" class="edge">
<title>Node28&#45;&gt;Node16</title>
<path fill="none" stroke="midnightblue" d="M695.28,-168.44C716.35,-159.56 749.52,-145.56 773.49,-135.45"/>
<polygon fill="midnightblue" stroke="midnightblue" points="774.96,-138.63 782.81,-131.52 772.24,-132.18 774.96,-138.63"/>
</g>
<!-- Node28&#45;&gt;Node20 -->
<g id="edge41" class="edge">
<title>Node28&#45;&gt;Node20</title>
<path fill="none" stroke="midnightblue" d="M675,-168.37C675,-150.62 675,-109.67 675,-85.6"/>
<polygon fill="midnightblue" stroke="midnightblue" points="678.5,-85.59 675,-75.59 671.5,-85.59 678.5,-85.59"/>
</g>
<!-- Node30&#45;&gt;Node20 -->
<g id="edge48" class="edge">
<title>Node30&#45;&gt;Node20</title>
<path fill="none" stroke="midnightblue" d="M1251.13,-224.3C1250.48,-208.42 1246.95,-182.99 1232,-168 1160.84,-96.68 846.4,-74.82 724,-68.94"/>
<polygon fill="midnightblue" stroke="midnightblue" points="723.94,-65.43 713.79,-68.46 723.62,-72.42 723.94,-65.43"/>
</g>
<!-- Node31&#45;&gt;Node8 -->
<g id="edge53" class="edge">
<title>Node31&#45;&gt;Node8</title>
<path fill="none" stroke="midnightblue" d="M1407.72,-114.26C1330.6,-104.75 1193.61,-87.46 1126.48,-75.89"/>
<polygon fill="midnightblue" stroke="midnightblue" points="1126.78,-72.39 1116.33,-74.08 1125.56,-79.28 1126.78,-72.39"/>
</g>
<!-- Node31&#45;&gt;Node15 -->
<g id="edge54" class="edge">
<title>Node31&#45;&gt;Node15</title>
<path fill="none" stroke="midnightblue" d="M1464.64,-112.34C1466.75,-98.25 1468.5,-70.52 1453,-56 1418.05,-23.25 1081.03,-13.76 974.27,-11.57"/>
<polygon fill="midnightblue" stroke="midnightblue" points="974.17,-8.07 964.1,-11.37 974.03,-15.07 974.17,-8.07"/>
</g>
<!-- Node31&#45;&gt;Node20 -->
<g id="edge50" class="edge">
<title>Node31&#45;&gt;Node20</title>
<path fill="none" stroke="midnightblue" d="M1407.68,-113.92C1401.38,-113.22 1395.06,-112.56 1389,-112 1139.54,-88.99 839.93,-74.3 724.07,-69.11"/>
<polygon fill="midnightblue" stroke="midnightblue" points="723.91,-65.6 713.76,-68.65 723.59,-72.59 723.91,-65.6"/>
</g>
<!-- Node32 -->
<g id="node32" class="node">
<title>Node32</title>
<g id="a_node32"><a xlink:title=" ">
<polygon fill="white" stroke="#bfbfbf" points="1500,-56.5 1500,-75.5 1550,-75.5 1550,-56.5 1500,-56.5"/>
<text text-anchor="middle" x="1525" y="-63.5" font-family="Helvetica,sans-Serif" font-size="10.00">chrono</text>
</a>
</g>
</g>
<!-- Node31&#45;&gt;Node32 -->
<g id="edge51" class="edge">
<title>Node31&#45;&gt;Node32</title>
<path fill="none" stroke="midnightblue" d="M1472.96,-112.32C1482.13,-104.34 1495.94,-92.31 1507.03,-82.65"/>
<polygon fill="midnightblue" stroke="midnightblue" points="1509.62,-85.04 1514.86,-75.83 1505.02,-79.76 1509.62,-85.04"/>
</g>
<!-- Node33 -->
<g id="node33" class="node">
<title>Node33</title>
<g id="a_node33"><a xlink:title=" ">
<polygon fill="white" stroke="#bfbfbf" points="1568.5,-56.5 1568.5,-75.5 1615.5,-75.5 1615.5,-56.5 1568.5,-56.5"/>
<text text-anchor="middle" x="1592" y="-63.5" font-family="Helvetica,sans-Serif" font-size="10.00">cmath</text>
</a>
</g>
</g>
<!-- Node31&#45;&gt;Node33 -->
<g id="edge52" class="edge">
<title>Node31&#45;&gt;Node33</title>
<path fill="none" stroke="midnightblue" d="M1483.44,-112.44C1504.67,-103.56 1538.1,-89.56 1562.25,-79.45"/>
<polygon fill="midnightblue" stroke="midnightblue" points="1563.78,-82.61 1571.66,-75.52 1561.08,-76.15 1563.78,-82.61"/>
</g>
</g>
</svg>
