<?xml version="1.0" encoding="UTF-8" standalone="no"?>
<!DOCTYPE svg PUBLIC "-//W3C//DTD SVG 1.1//EN"
 "http://www.w3.org/Graphics/SVG/1.1/DTD/svg11.dtd">
<!-- Generated by graphviz version 2.47.2 (0)
 -->
<!-- Title: /home/xenvre/robot&#45;code/bfl_robotology/src/BayesFilters/include/BayesFilters/sigma_point.h Pages: 1 -->
<svg width="1217pt" height="419pt"
 viewBox="0.00 0.00 1217.00 419.00" xmlns="http://www.w3.org/2000/svg" xmlns:xlink="http://www.w3.org/1999/xlink">
<g id="graph0" class="graph" transform="scale(1 1) rotate(0) translate(4 415)">
<title>/home/xenvre/robot&#45;code/bfl_robotology/src/BayesFilters/include/BayesFilters/sigma_point.h</title>
<polygon fill="white" stroke="transparent" points="-4,4 -4,-415 1213,-415 1213,4 -4,4"/>
<!-- Node1 -->
<g id="node1" class="node">
<title>Node1</title>
<g id="a_node1"><a xlink:title=" ">
<polygon fill="#bfbfbf" stroke="black" points="421,-358.5 421,-410.5 559,-410.5 559,-358.5 421,-358.5"/>
<text text-anchor="start" x="429" y="-398.5" font-family="Helvetica,sans-Serif" font-size="10.00">/home/xenvre/robot</text>
<text text-anchor="start" x="429" y="-387.5" font-family="Helvetica,sans-Serif" font-size="10.00">&#45;code/bfl_robotology</text>
<text text-anchor="start" x="429" y="-376.5" font-family="Helvetica,sans-Serif" font-size="10.00">/src/BayesFilters/include</text>
<text text-anchor="middle" x="490" y="-365.5" font-family="Helvetica,sans-Serif" font-size="10.00">/BayesFilters/sigma_point.h</text>
</a>
</g>
</g>
<!-- Node2 -->
<g id="node2" class="node">
<title>Node2</title>
<g id="a_node2"><a xlink:href="AdditiveStateModel_8h.html" target="_top" xlink:title=" ">
<polygon fill="white" stroke="black" points="222.5,-291.5 222.5,-321.5 355.5,-321.5 355.5,-291.5 222.5,-291.5"/>
<text text-anchor="start" x="230.5" y="-309.5" font-family="Helvetica,sans-Serif" font-size="10.00">BayesFilters/AdditiveState</text>
<text text-anchor="middle" x="289" y="-298.5" font-family="Helvetica,sans-Serif" font-size="10.00">Model.h</text>
</a>
</g>
</g>
<!-- Node1&#45;&gt;Node2 -->
<g id="edge1" class="edge">
<title>Node1&#45;&gt;Node2</title>
<path fill="none" stroke="midnightblue" d="M423.63,-358.4C394.93,-347.55 362.03,-335.11 335.93,-325.24"/>
<polygon fill="midnightblue" stroke="midnightblue" points="336.87,-321.86 326.28,-321.6 334.4,-328.41 336.87,-321.86"/>
</g>
<!-- Node3 -->
<g id="node3" class="node">
<title>Node3</title>
<g id="a_node3"><a xlink:href="StateModel_8h.html" target="_top" xlink:title=" ">
<polygon fill="white" stroke="black" points="187,-230 187,-249 319,-249 319,-230 187,-230"/>
<text text-anchor="middle" x="253" y="-237" font-family="Helvetica,sans-Serif" font-size="10.00">BayesFilters/StateModel.h</text>
</a>
</g>
</g>
<!-- Node1&#45;&gt;Node3 -->
<g id="edge37" class="edge">
<title>Node1&#45;&gt;Node3</title>
<path fill="none" stroke="midnightblue" d="M420.77,-377.79C347.64,-370.16 239.45,-353.74 214,-322 197.75,-301.73 218.85,-273.57 235.78,-256.22"/>
<polygon fill="midnightblue" stroke="midnightblue" points="238.39,-258.56 243.11,-249.07 233.5,-253.55 238.39,-258.56"/>
</g>
<!-- Node4 -->
<g id="node4" class="node">
<title>Node4</title>
<g id="a_node4"><a xlink:href="ExogenousModel_8h.html" target="_top" xlink:title=" ">
<polygon fill="white" stroke="black" points="0,-168.5 0,-187.5 158,-187.5 158,-168.5 0,-168.5"/>
<text text-anchor="middle" x="79" y="-175.5" font-family="Helvetica,sans-Serif" font-size="10.00">BayesFilters/ExogenousModel.h</text>
</a>
</g>
</g>
<!-- Node1&#45;&gt;Node4 -->
<g id="edge20" class="edge">
<title>Node1&#45;&gt;Node4</title>
<path fill="none" stroke="midnightblue" d="M420.88,-380.79C360.04,-375.69 270.96,-361.43 204,-322 150.16,-290.3 107.54,-227.18 89.02,-196.52"/>
<polygon fill="midnightblue" stroke="midnightblue" points="91.97,-194.63 83.88,-187.79 85.94,-198.18 91.97,-194.63"/>
</g>
<!-- Node6 -->
<g id="node6" class="node">
<title>Node6</title>
<g id="a_node6"><a xlink:title=" ">
<polygon fill="white" stroke="#bfbfbf" points="347.5,-56.5 347.5,-75.5 420.5,-75.5 420.5,-56.5 347.5,-56.5"/>
<text text-anchor="middle" x="384" y="-63.5" font-family="Helvetica,sans-Serif" font-size="10.00">Eigen/Dense</text>
</a>
</g>
</g>
<!-- Node1&#45;&gt;Node6 -->
<g id="edge39" class="edge">
<title>Node1&#45;&gt;Node6</title>
<path fill="none" stroke="midnightblue" d="M455.58,-358.39C424.63,-332.63 384,-289.48 384,-240.5 384,-240.5 384,-240.5 384,-177 384,-144.95 384,-107.64 384,-85.75"/>
<polygon fill="midnightblue" stroke="midnightblue" points="387.5,-85.56 384,-75.56 380.5,-85.56 387.5,-85.56"/>
</g>
<!-- Node12 -->
<g id="node12" class="node">
<title>Node12</title>
<g id="a_node12"><a xlink:href="Data_8h.html" target="_top" xlink:title=" ">
<polygon fill="white" stroke="black" points="926,-168.5 926,-187.5 1030,-187.5 1030,-168.5 926,-168.5"/>
<text text-anchor="middle" x="978" y="-175.5" font-family="Helvetica,sans-Serif" font-size="10.00">BayesFilters/Data.h</text>
</a>
</g>
</g>
<!-- Node1&#45;&gt;Node12 -->
<g id="edge13" class="edge">
<title>Node1&#45;&gt;Node12</title>
<path fill="none" stroke="midnightblue" d="M559.24,-369.37C605.17,-358.9 666.29,-342.84 718,-322 811.03,-284.5 912.96,-221.32 956.43,-193.22"/>
<polygon fill="midnightblue" stroke="midnightblue" points="958.55,-196.01 965.02,-187.62 954.73,-190.14 958.55,-196.01"/>
</g>
<!-- Node18 -->
<g id="node18" class="node">
<title>Node18</title>
<g id="a_node18"><a xlink:href="GaussianMixture_8h.html" target="_top" xlink:title=" ">
<polygon fill="white" stroke="black" points="412,-168.5 412,-187.5 568,-187.5 568,-168.5 412,-168.5"/>
<text text-anchor="middle" x="490" y="-175.5" font-family="Helvetica,sans-Serif" font-size="10.00">BayesFilters/GaussianMixture.h</text>
</a>
</g>
</g>
<!-- Node1&#45;&gt;Node18 -->
<g id="edge21" class="edge">
<title>Node1&#45;&gt;Node18</title>
<path fill="none" stroke="midnightblue" d="M490,-358.42C490,-317.04 490,-235.34 490,-198.19"/>
<polygon fill="midnightblue" stroke="midnightblue" points="493.5,-197.8 490,-187.8 486.5,-197.8 493.5,-197.8"/>
</g>
<!-- Node20 -->
<g id="node20" class="node">
<title>Node20</title>
<g id="a_node20"><a xlink:href="AdditiveMeasurementModel_8h.html" target="_top" xlink:title=" ">
<polygon fill="white" stroke="black" points="518.5,-291.5 518.5,-321.5 687.5,-321.5 687.5,-291.5 518.5,-291.5"/>
<text text-anchor="start" x="526.5" y="-309.5" font-family="Helvetica,sans-Serif" font-size="10.00">BayesFilters/AdditiveMeasurement</text>
<text text-anchor="middle" x="603" y="-298.5" font-family="Helvetica,sans-Serif" font-size="10.00">Model.h</text>
</a>
</g>
</g>
<!-- Node1&#45;&gt;Node20 -->
<g id="edge24" class="edge">
<title>Node1&#45;&gt;Node20</title>
<path fill="none" stroke="midnightblue" d="M527.31,-358.4C542.33,-348.31 559.39,-336.83 573.51,-327.33"/>
<polygon fill="midnightblue" stroke="midnightblue" points="575.53,-330.19 581.88,-321.71 571.63,-324.38 575.53,-330.19"/>
</g>
<!-- Node21 -->
<g id="node21" class="node">
<title>Node21</title>
<g id="a_node21"><a xlink:href="MeasurementModel_8h.html" target="_top" xlink:title=" ">
<polygon fill="white" stroke="black" points="651,-224.5 651,-254.5 785,-254.5 785,-224.5 651,-224.5"/>
<text text-anchor="start" x="659" y="-242.5" font-family="Helvetica,sans-Serif" font-size="10.00">BayesFilters/Measurement</text>
<text text-anchor="middle" x="718" y="-231.5" font-family="Helvetica,sans-Serif" font-size="10.00">Model.h</text>
</a>
</g>
</g>
<!-- Node1&#45;&gt;Node21 -->
<g id="edge36" class="edge">
<title>Node1&#45;&gt;Node21</title>
<path fill="none" stroke="midnightblue" d="M559,-380.02C604.16,-374.1 661.22,-359.11 697,-322 711.68,-306.77 716.47,-282.7 717.87,-264.66"/>
<polygon fill="midnightblue" stroke="midnightblue" points="721.37,-264.75 718.35,-254.6 714.37,-264.42 721.37,-264.75"/>
</g>
<!-- Node26 -->
<g id="node26" class="node">
<title>Node26</title>
<g id="a_node26"><a xlink:title=" ">
<polygon fill="white" stroke="#bfbfbf" points="841.5,-297 841.5,-316 900.5,-316 900.5,-297 841.5,-297"/>
<text text-anchor="middle" x="871" y="-304" font-family="Helvetica,sans-Serif" font-size="10.00">functional</text>
</a>
</g>
</g>
<!-- Node1&#45;&gt;Node26 -->
<g id="edge38" class="edge">
<title>Node1&#45;&gt;Node26</title>
<path fill="none" stroke="midnightblue" d="M559.02,-373.76C627.56,-363.41 735.36,-345.34 827,-322 830.38,-321.14 833.87,-320.16 837.34,-319.11"/>
<polygon fill="midnightblue" stroke="midnightblue" points="838.48,-322.43 846.97,-316.08 836.38,-315.75 838.48,-322.43"/>
</g>
<!-- Node2&#45;&gt;Node3 -->
<g id="edge2" class="edge">
<title>Node2&#45;&gt;Node3</title>
<path fill="none" stroke="midnightblue" d="M281.19,-291.4C275.8,-281.66 268.59,-268.65 262.81,-258.21"/>
<polygon fill="midnightblue" stroke="midnightblue" points="265.72,-256.25 257.82,-249.19 259.6,-259.64 265.72,-256.25"/>
</g>
<!-- Node3&#45;&gt;Node4 -->
<g id="edge3" class="edge">
<title>Node3&#45;&gt;Node4</title>
<path fill="none" stroke="midnightblue" d="M228.07,-229.98C197.96,-219.68 147.17,-202.31 113.36,-190.75"/>
<polygon fill="midnightblue" stroke="midnightblue" points="114.48,-187.43 103.88,-187.51 112.21,-194.06 114.48,-187.43"/>
</g>
<!-- Node7 -->
<g id="node7" class="node">
<title>Node7</title>
<g id="a_node7"><a xlink:href="Skippable_8h.html" target="_top" xlink:title=" ">
<polygon fill="white" stroke="black" points="8.5,-112.5 8.5,-131.5 133.5,-131.5 133.5,-112.5 8.5,-112.5"/>
<text text-anchor="middle" x="71" y="-119.5" font-family="Helvetica,sans-Serif" font-size="10.00">BayesFilters/Skippable.h</text>
</a>
</g>
</g>
<!-- Node3&#45;&gt;Node7 -->
<g id="edge9" class="edge">
<title>Node3&#45;&gt;Node7</title>
<path fill="none" stroke="midnightblue" d="M244.04,-229.86C229.01,-215.69 197.38,-187.15 167,-168 146.49,-155.07 121.66,-143.53 102.4,-135.37"/>
<polygon fill="midnightblue" stroke="midnightblue" points="103.73,-132.14 93.16,-131.54 101.05,-138.6 103.73,-132.14"/>
</g>
<!-- Node10 -->
<g id="node10" class="node">
<title>Node10</title>
<g id="a_node10"><a xlink:href="StateProcess_8h.html" target="_top" xlink:title=" ">
<polygon fill="white" stroke="black" points="214,-168.5 214,-187.5 356,-187.5 356,-168.5 214,-168.5"/>
<text text-anchor="middle" x="285" y="-175.5" font-family="Helvetica,sans-Serif" font-size="10.00">BayesFilters/StateProcess.h</text>
</a>
</g>
</g>
<!-- Node3&#45;&gt;Node10 -->
<g id="edge10" class="edge">
<title>Node3&#45;&gt;Node10</title>
<path fill="none" stroke="midnightblue" d="M257.58,-229.98C262.24,-221.32 269.59,-207.65 275.51,-196.65"/>
<polygon fill="midnightblue" stroke="midnightblue" points="278.77,-197.97 280.42,-187.51 272.6,-194.66 278.77,-197.97"/>
</g>
<!-- Node11 -->
<g id="node11" class="node">
<title>Node11</title>
<g id="a_node11"><a xlink:title=" ">
<polygon fill="white" stroke="#bfbfbf" points="818,-56.5 818,-75.5 870,-75.5 870,-56.5 818,-56.5"/>
<text text-anchor="middle" x="844" y="-63.5" font-family="Helvetica,sans-Serif" font-size="10.00">memory</text>
</a>
</g>
</g>
<!-- Node3&#45;&gt;Node11 -->
<g id="edge12" class="edge">
<title>Node3&#45;&gt;Node11</title>
<path fill="none" stroke="midnightblue" d="M319.29,-237.03C386.49,-233.52 492.36,-222.41 577,-188 631.04,-166.03 631.37,-137.16 684,-112 724.29,-92.74 774.34,-80.32 807.62,-73.51"/>
<polygon fill="midnightblue" stroke="midnightblue" points="808.67,-76.87 817.8,-71.5 807.32,-70 808.67,-76.87"/>
</g>
<!-- Node5 -->
<g id="node5" class="node">
<title>Node5</title>
<g id="a_node5"><a xlink:href="ExogenousProcess_8h.html" target="_top" xlink:title=" ">
<polygon fill="white" stroke="black" points="151.5,-112.5 151.5,-131.5 318.5,-131.5 318.5,-112.5 151.5,-112.5"/>
<text text-anchor="middle" x="235" y="-119.5" font-family="Helvetica,sans-Serif" font-size="10.00">BayesFilters/ExogenousProcess.h</text>
</a>
</g>
</g>
<!-- Node4&#45;&gt;Node5 -->
<g id="edge4" class="edge">
<title>Node4&#45;&gt;Node5</title>
<path fill="none" stroke="midnightblue" d="M103.72,-168.44C129.85,-159.4 171.26,-145.06 200.58,-134.92"/>
<polygon fill="midnightblue" stroke="midnightblue" points="202.09,-138.1 210.4,-131.52 199.8,-131.48 202.09,-138.1"/>
</g>
<!-- Node4&#45;&gt;Node7 -->
<g id="edge6" class="edge">
<title>Node4&#45;&gt;Node7</title>
<path fill="none" stroke="midnightblue" d="M77.68,-168.08C76.62,-160.93 75.09,-150.64 73.77,-141.69"/>
<polygon fill="midnightblue" stroke="midnightblue" points="77.22,-141.13 72.3,-131.75 70.3,-142.16 77.22,-141.13"/>
</g>
<!-- Node5&#45;&gt;Node6 -->
<g id="edge5" class="edge">
<title>Node5&#45;&gt;Node6</title>
<path fill="none" stroke="midnightblue" d="M258.61,-112.44C283.46,-103.44 322.77,-89.19 350.75,-79.05"/>
<polygon fill="midnightblue" stroke="midnightblue" points="352.29,-82.21 360.5,-75.52 349.91,-75.63 352.29,-82.21"/>
</g>
<!-- Node8 -->
<g id="node8" class="node">
<title>Node8</title>
<g id="a_node8"><a xlink:href="Skipper_8h.html" target="_top" xlink:title=" ">
<polygon fill="white" stroke="black" points="114.5,-56.5 114.5,-75.5 229.5,-75.5 229.5,-56.5 114.5,-56.5"/>
<text text-anchor="middle" x="172" y="-63.5" font-family="Helvetica,sans-Serif" font-size="10.00">BayesFilters/Skipper.h</text>
</a>
</g>
</g>
<!-- Node7&#45;&gt;Node8 -->
<g id="edge7" class="edge">
<title>Node7&#45;&gt;Node8</title>
<path fill="none" stroke="midnightblue" d="M87.23,-112.32C103.35,-103.7 128.3,-90.36 146.96,-80.39"/>
<polygon fill="midnightblue" stroke="midnightblue" points="148.64,-83.46 155.81,-75.65 145.34,-77.28 148.64,-83.46"/>
</g>
<!-- Node9 -->
<g id="node9" class="node">
<title>Node9</title>
<g id="a_node9"><a xlink:title=" ">
<polygon fill="white" stroke="#bfbfbf" points="606.5,-0.5 606.5,-19.5 647.5,-19.5 647.5,-0.5 606.5,-0.5"/>
<text text-anchor="middle" x="627" y="-7.5" font-family="Helvetica,sans-Serif" font-size="10.00">string</text>
</a>
</g>
</g>
<!-- Node8&#45;&gt;Node9 -->
<g id="edge8" class="edge">
<title>Node8&#45;&gt;Node9</title>
<path fill="none" stroke="midnightblue" d="M229.63,-58.16C326.95,-46.61 520.63,-23.62 595.99,-14.68"/>
<polygon fill="midnightblue" stroke="midnightblue" points="596.71,-18.12 606.22,-13.47 595.88,-11.17 596.71,-18.12"/>
</g>
<!-- Node10&#45;&gt;Node6 -->
<g id="edge11" class="edge">
<title>Node10&#45;&gt;Node6</title>
<path fill="none" stroke="midnightblue" d="M293.38,-168.5C302.14,-159.54 316.24,-144.96 328,-132 342.78,-115.71 359.14,-96.59 370.34,-83.32"/>
<polygon fill="midnightblue" stroke="midnightblue" points="373.13,-85.44 376.89,-75.54 367.77,-80.94 373.13,-85.44"/>
</g>
<!-- Node13 -->
<g id="node13" class="node">
<title>Node13</title>
<g id="a_node13"><a xlink:href="any_8h.html" target="_top" xlink:title=" ">
<polygon fill="white" stroke="black" points="954.5,-112.5 954.5,-131.5 1051.5,-131.5 1051.5,-112.5 954.5,-112.5"/>
<text text-anchor="middle" x="1003" y="-119.5" font-family="Helvetica,sans-Serif" font-size="10.00">BayesFilters/any.h</text>
</a>
</g>
</g>
<!-- Node12&#45;&gt;Node13 -->
<g id="edge14" class="edge">
<title>Node12&#45;&gt;Node13</title>
<path fill="none" stroke="midnightblue" d="M982.13,-168.08C985.51,-160.77 990.42,-150.18 994.62,-141.1"/>
<polygon fill="midnightblue" stroke="midnightblue" points="997.92,-142.3 998.95,-131.75 991.57,-139.36 997.92,-142.3"/>
</g>
<!-- Node13&#45;&gt;Node11 -->
<g id="edge16" class="edge">
<title>Node13&#45;&gt;Node11</title>
<path fill="none" stroke="midnightblue" d="M977.81,-112.44C951.06,-103.36 908.6,-88.94 878.69,-78.78"/>
<polygon fill="midnightblue" stroke="midnightblue" points="879.67,-75.42 869.08,-75.52 877.42,-82.05 879.67,-75.42"/>
</g>
<!-- Node14 -->
<g id="node14" class="node">
<title>Node14</title>
<g id="a_node14"><a xlink:title=" ">
<polygon fill="white" stroke="#bfbfbf" points="1153,-56.5 1153,-75.5 1209,-75.5 1209,-56.5 1153,-56.5"/>
<text text-anchor="middle" x="1181" y="-63.5" font-family="Helvetica,sans-Serif" font-size="10.00">algorithm</text>
</a>
</g>
</g>
<!-- Node13&#45;&gt;Node14 -->
<g id="edge15" class="edge">
<title>Node13&#45;&gt;Node14</title>
<path fill="none" stroke="midnightblue" d="M1031.2,-112.44C1061.41,-103.28 1109.51,-88.69 1143.03,-78.52"/>
<polygon fill="midnightblue" stroke="midnightblue" points="1144.37,-81.77 1152.93,-75.52 1142.34,-75.07 1144.37,-81.77"/>
</g>
<!-- Node15 -->
<g id="node15" class="node">
<title>Node15</title>
<g id="a_node15"><a xlink:title=" ">
<polygon fill="white" stroke="#bfbfbf" points="926.5,-56.5 926.5,-75.5 985.5,-75.5 985.5,-56.5 926.5,-56.5"/>
<text text-anchor="middle" x="956" y="-63.5" font-family="Helvetica,sans-Serif" font-size="10.00">stdexcept</text>
</a>
</g>
</g>
<!-- Node13&#45;&gt;Node15 -->
<g id="edge17" class="edge">
<title>Node13&#45;&gt;Node15</title>
<path fill="none" stroke="midnightblue" d="M995.24,-112.08C988.46,-104.3 978.46,-92.8 970.24,-83.37"/>
<polygon fill="midnightblue" stroke="midnightblue" points="972.82,-81 963.62,-75.75 967.54,-85.59 972.82,-81"/>
</g>
<!-- Node16 -->
<g id="node16" class="node">
<title>Node16</title>
<g id="a_node16"><a xlink:title=" ">
<polygon fill="white" stroke="#bfbfbf" points="1003.5,-56.5 1003.5,-75.5 1054.5,-75.5 1054.5,-56.5 1003.5,-56.5"/>
<text text-anchor="middle" x="1029" y="-63.5" font-family="Helvetica,sans-Serif" font-size="10.00">typeinfo</text>
</a>
</g>
</g>
<!-- Node13&#45;&gt;Node16 -->
<g id="edge18" class="edge">
<title>Node13&#45;&gt;Node16</title>
<path fill="none" stroke="midnightblue" d="M1007.29,-112.08C1010.85,-104.69 1016.02,-93.95 1020.42,-84.81"/>
<polygon fill="midnightblue" stroke="midnightblue" points="1023.6,-86.28 1024.79,-75.75 1017.29,-83.24 1023.6,-86.28"/>
</g>
<!-- Node17 -->
<g id="node17" class="node">
<title>Node17</title>
<g id="a_node17"><a xlink:title=" ">
<polygon fill="white" stroke="#bfbfbf" points="1073,-56.5 1073,-75.5 1135,-75.5 1135,-56.5 1073,-56.5"/>
<text text-anchor="middle" x="1104" y="-63.5" font-family="Helvetica,sans-Serif" font-size="10.00">type_traits</text>
</a>
</g>
</g>
<!-- Node13&#45;&gt;Node17 -->
<g id="edge19" class="edge">
<title>Node13&#45;&gt;Node17</title>
<path fill="none" stroke="midnightblue" d="M1019.23,-112.32C1035.35,-103.7 1060.3,-90.36 1078.96,-80.39"/>
<polygon fill="midnightblue" stroke="midnightblue" points="1080.64,-83.46 1087.81,-75.65 1077.34,-77.28 1080.64,-83.46"/>
</g>
<!-- Node18&#45;&gt;Node6 -->
<g id="edge23" class="edge">
<title>Node18&#45;&gt;Node6</title>
<path fill="none" stroke="midnightblue" d="M481.68,-168.37C463.96,-149.97 422.23,-106.67 399.47,-83.05"/>
<polygon fill="midnightblue" stroke="midnightblue" points="401.74,-80.36 392.28,-75.59 396.7,-85.22 401.74,-80.36"/>
</g>
<!-- Node19 -->
<g id="node19" class="node">
<title>Node19</title>
<g id="a_node19"><a xlink:title=" ">
<polygon fill="white" stroke="#bfbfbf" points="492,-112.5 492,-131.5 536,-131.5 536,-112.5 492,-112.5"/>
<text text-anchor="middle" x="514" y="-119.5" font-family="Helvetica,sans-Serif" font-size="10.00">vector</text>
</a>
</g>
</g>
<!-- Node18&#45;&gt;Node19 -->
<g id="edge22" class="edge">
<title>Node18&#45;&gt;Node19</title>
<path fill="none" stroke="midnightblue" d="M493.96,-168.08C497.21,-160.77 501.92,-150.18 505.95,-141.1"/>
<polygon fill="midnightblue" stroke="midnightblue" points="509.25,-142.31 510.11,-131.75 502.85,-139.47 509.25,-142.31"/>
</g>
<!-- Node20&#45;&gt;Node21 -->
<g id="edge25" class="edge">
<title>Node20&#45;&gt;Node21</title>
<path fill="none" stroke="midnightblue" d="M627.95,-291.4C644.38,-282.11 666.09,-269.84 684.08,-259.67"/>
<polygon fill="midnightblue" stroke="midnightblue" points="686.11,-262.54 693.1,-254.58 682.67,-256.45 686.11,-262.54"/>
</g>
<!-- Node21&#45;&gt;Node6 -->
<g id="edge35" class="edge">
<title>Node21&#45;&gt;Node6</title>
<path fill="none" stroke="midnightblue" d="M700.49,-224.44C663.5,-194.96 578.14,-128.09 545,-112 508.33,-94.2 463.42,-82.38 430.37,-75.34"/>
<polygon fill="midnightblue" stroke="midnightblue" points="431.01,-71.9 420.51,-73.31 429.6,-78.76 431.01,-71.9"/>
</g>
<!-- Node21&#45;&gt;Node9 -->
<g id="edge33" class="edge">
<title>Node21&#45;&gt;Node9</title>
<path fill="none" stroke="midnightblue" d="M785.26,-229.27C811.91,-222.24 840.53,-209.84 859,-188 897.31,-142.69 917.09,-101.5 879,-56 851.08,-22.65 718.52,-13.99 657.67,-11.76"/>
<polygon fill="midnightblue" stroke="midnightblue" points="657.63,-8.26 647.52,-11.43 657.4,-15.26 657.63,-8.26"/>
</g>
<!-- Node21&#45;&gt;Node11 -->
<g id="edge32" class="edge">
<title>Node21&#45;&gt;Node11</title>
<path fill="none" stroke="midnightblue" d="M785.1,-226.17C806.49,-218.76 827.97,-206.92 841,-188 862.18,-157.24 855.4,-110.88 849.27,-85.4"/>
<polygon fill="midnightblue" stroke="midnightblue" points="852.62,-84.36 846.69,-75.58 845.85,-86.14 852.62,-84.36"/>
</g>
<!-- Node21&#45;&gt;Node12 -->
<g id="edge26" class="edge">
<title>Node21&#45;&gt;Node12</title>
<path fill="none" stroke="midnightblue" d="M779.29,-224.47C825.71,-213.85 888.54,-199.47 931.02,-189.75"/>
<polygon fill="midnightblue" stroke="midnightblue" points="931.86,-193.15 940.83,-187.51 930.3,-186.33 931.86,-193.15"/>
</g>
<!-- Node22 -->
<g id="node22" class="node">
<title>Node22</title>
<g id="a_node22"><a xlink:href="Logger_8h.html" target="_top" xlink:title=" ">
<polygon fill="white" stroke="black" points="662.5,-168.5 662.5,-187.5 773.5,-187.5 773.5,-168.5 662.5,-168.5"/>
<text text-anchor="middle" x="718" y="-175.5" font-family="Helvetica,sans-Serif" font-size="10.00">BayesFilters/Logger.h</text>
</a>
</g>
</g>
<!-- Node21&#45;&gt;Node22 -->
<g id="edge27" class="edge">
<title>Node21&#45;&gt;Node22</title>
<path fill="none" stroke="midnightblue" d="M718,-224.4C718,-216.47 718,-206.46 718,-197.86"/>
<polygon fill="midnightblue" stroke="midnightblue" points="721.5,-197.66 718,-187.66 714.5,-197.66 721.5,-197.66"/>
</g>
<!-- Node25 -->
<g id="node25" class="node">
<title>Node25</title>
<g id="a_node25"><a xlink:title=" ">
<polygon fill="white" stroke="#bfbfbf" points="792,-168.5 792,-187.5 832,-187.5 832,-168.5 792,-168.5"/>
<text text-anchor="middle" x="812" y="-175.5" font-family="Helvetica,sans-Serif" font-size="10.00">utility</text>
</a>
</g>
</g>
<!-- Node21&#45;&gt;Node25 -->
<g id="edge34" class="edge">
<title>Node21&#45;&gt;Node25</title>
<path fill="none" stroke="midnightblue" d="M740.28,-224.4C755.2,-214.95 774.78,-202.56 789.71,-193.11"/>
<polygon fill="midnightblue" stroke="midnightblue" points="791.74,-195.96 798.32,-187.66 788,-190.05 791.74,-195.96"/>
</g>
<!-- Node22&#45;&gt;Node9 -->
<g id="edge30" class="edge">
<title>Node22&#45;&gt;Node9</title>
<path fill="none" stroke="midnightblue" d="M710.66,-168.42C703.36,-159.63 692.1,-145.41 684,-132 662.86,-97.03 643.85,-52.97 634.03,-28.83"/>
<polygon fill="midnightblue" stroke="midnightblue" points="637.27,-27.5 630.3,-19.52 630.77,-30.11 637.27,-27.5"/>
</g>
<!-- Node22&#45;&gt;Node19 -->
<g id="edge31" class="edge">
<title>Node22&#45;&gt;Node19</title>
<path fill="none" stroke="midnightblue" d="M685.68,-168.44C647.47,-158.33 584.29,-141.61 546.16,-131.51"/>
<polygon fill="midnightblue" stroke="midnightblue" points="546.68,-128.03 536.11,-128.85 544.88,-134.8 546.68,-128.03"/>
</g>
<!-- Node23 -->
<g id="node23" class="node">
<title>Node23</title>
<g id="a_node23"><a xlink:title=" ">
<polygon fill="white" stroke="#bfbfbf" points="693,-112.5 693,-131.5 743,-131.5 743,-112.5 693,-112.5"/>
<text text-anchor="middle" x="718" y="-119.5" font-family="Helvetica,sans-Serif" font-size="10.00">fstream</text>
</a>
</g>
</g>
<!-- Node22&#45;&gt;Node23 -->
<g id="edge28" class="edge">
<title>Node22&#45;&gt;Node23</title>
<path fill="none" stroke="midnightblue" d="M718,-168.08C718,-161.01 718,-150.86 718,-141.99"/>
<polygon fill="midnightblue" stroke="midnightblue" points="721.5,-141.75 718,-131.75 714.5,-141.75 721.5,-141.75"/>
</g>
<!-- Node24 -->
<g id="node24" class="node">
<title>Node24</title>
<g id="a_node24"><a xlink:title=" ">
<polygon fill="white" stroke="#bfbfbf" points="761,-112.5 761,-131.5 815,-131.5 815,-112.5 761,-112.5"/>
<text text-anchor="middle" x="788" y="-119.5" font-family="Helvetica,sans-Serif" font-size="10.00">iostream</text>
</a>
</g>
</g>
<!-- Node22&#45;&gt;Node24 -->
<g id="edge29" class="edge">
<title>Node22&#45;&gt;Node24</title>
<path fill="none" stroke="midnightblue" d="M729.25,-168.32C739.8,-160.18 755.8,-147.84 768.44,-138.09"/>
<polygon fill="midnightblue" stroke="midnightblue" points="770.77,-140.71 776.55,-131.83 766.49,-135.17 770.77,-140.71"/>
</g>
</g>
</svg>
