<?xml version="1.0" encoding="UTF-8" standalone="no"?>
<!DOCTYPE svg PUBLIC "-//W3C//DTD SVG 1.1//EN"
 "http://www.w3.org/Graphics/SVG/1.1/DTD/svg11.dtd">
<!-- Generated by graphviz version 2.43.0 (0)
 -->
<!-- Title: /home/user/bayes&#45;filters&#45;lib/src/BayesFilters/include/BayesFilters/sigma_point.h Pages: 1 -->
<!--zoomable 408 -->
<svg id="main" version="1.1" xmlns="http://www.w3.org/2000/svg" xmlns:xlink="http://www.w3.org/1999/xlink" xml:space="preserve" onload="init(evt)">
<style type="text/css"><![CDATA[
.edge:hover path { stroke: red; }
.edge:hover polygon { stroke: red; fill: red; }
]]></style>
<script type="text/javascript"><![CDATA[
var edges = document.getElementsByTagName('g');
if (edges && edges.length) {
  for (var i=0;i<edges.length;i++) {
    if (edges[i].id.substr(0,4)=='edge') {
      edges[i].setAttribute('class','edge');
    }
  }
}
]]></script>
        <defs>
                <circle id="rim" cx="0" cy="0" r="7"/>
                <circle id="rim2" cx="0" cy="0" r="3.5"/>
                <g id="zoomPlus">
                        <use xlink:href="#rim" fill="#404040">
                                <set attributeName="fill" to="#808080" begin="zoomplus.mouseover" end="zoomplus.mouseout"/>
                        </use>
                        <path d="M-4,0h8M0,-4v8" fill="none" stroke="white" stroke-width="1.5" pointer-events="none"/>
                </g>
                <g id="zoomMin">
                        <use xlink:href="#rim" fill="#404040">
                                <set attributeName="fill" to="#808080" begin="zoomminus.mouseover" end="zoomminus.mouseout"/>
                        </use>
                        <path d="M-4,0h8" fill="none" stroke="white" stroke-width="1.5" pointer-events="none"/>
                </g>
                <g id="dirArrow">
                        <path fill="none" stroke="white" stroke-width="1.5" d="M0,-3.0v7 M-2.5,-0.5L0,-3.0L2.5,-0.5"/>
                </g>
               <g id="resetDef">
                       <use xlink:href="#rim2" fill="#404040">
                               <set attributeName="fill" to="#808080" begin="reset.mouseover" end="reset.mouseout"/>
                       </use>
               </g>
        </defs>

<script type="text/javascript">
var viewWidth = 1536;
var viewHeight = 408;
var sectionId = 'dynsection-0';
</script>
<script xlink:href="svgpan.js"/>
<svg id="graph" class="graph">
<g id="viewport">
<title>/home/user/bayes&#45;filters&#45;lib/src/BayesFilters/include/BayesFilters/sigma_point.h</title>
<polygon fill="white" stroke="transparent" points="-4,4 -4,-404 1532,-404 1532,4 -4,4"/>
<!-- Node1 -->
<g id="node1" class="node">
<title>Node1</title>
<g id="a_node1"><a xlink:title=" ">
<polygon fill="#bfbfbf" stroke="black" points="759.5,-358.5 759.5,-399.5 911.5,-399.5 911.5,-358.5 759.5,-358.5"/>
<text text-anchor="start" x="767.5" y="-387.5" font-family="Helvetica,sans-Serif" font-size="10.00">/home/user/bayes&#45;filters</text>
<text text-anchor="start" x="767.5" y="-376.5" font-family="Helvetica,sans-Serif" font-size="10.00">&#45;lib/src/BayesFilters/include</text>
<text text-anchor="middle" x="835.5" y="-365.5" font-family="Helvetica,sans-Serif" font-size="10.00">/BayesFilters/sigma_point.h</text>
</a>
</g>
</g>
<!-- Node2 -->
<g id="node2" class="node">
<title>Node2</title>
<g id="a_node2"><a xlink:href="AdditiveMeasurementModel_8h.html" target="_top" xlink:title=" ">
<polygon fill="white" stroke="black" points="477.5,-291.5 477.5,-321.5 665.5,-321.5 665.5,-291.5 477.5,-291.5"/>
<text text-anchor="start" x="485.5" y="-309.5" font-family="Helvetica,sans-Serif" font-size="10.00">BayesFilters/AdditiveMeasurement</text>
<text text-anchor="middle" x="571.5" y="-298.5" font-family="Helvetica,sans-Serif" font-size="10.00">Model.h</text>
</a>
</g>
</g>
<!-- Node1&#45;&gt;Node2 -->
<g id="edge1" class="edge">
<title>Node1&#45;&gt;Node2</title>
<path fill="none" stroke="midnightblue" d="M762.31,-358.46C722.11,-347.72 672.76,-334.54 634.32,-324.28"/>
<polygon fill="midnightblue" stroke="midnightblue" points="634.85,-320.8 624.29,-321.6 633.05,-327.56 634.85,-320.8"/>
</g>
<!-- Node3 -->
<g id="node3" class="node">
<title>Node3</title>
<g id="a_node3"><a xlink:href="MeasurementModel_8h.html" target="_top" xlink:title=" ">
<polygon fill="white" stroke="black" points="430,-224.5 430,-254.5 577,-254.5 577,-224.5 430,-224.5"/>
<text text-anchor="start" x="438" y="-242.5" font-family="Helvetica,sans-Serif" font-size="10.00">BayesFilters/Measurement</text>
<text text-anchor="middle" x="503.5" y="-231.5" font-family="Helvetica,sans-Serif" font-size="10.00">Model.h</text>
</a>
</g>
</g>
<!-- Node1&#45;&gt;Node3 -->
<g id="edge41" class="edge">
<title>Node1&#45;&gt;Node3</title>
<path fill="none" stroke="midnightblue" d="M759.15,-377.57C662.8,-375.21 505.2,-364.72 468.5,-322 453.53,-304.58 467.89,-279.79 482.48,-262.13"/>
<polygon fill="midnightblue" stroke="midnightblue" points="485.14,-264.41 489.09,-254.58 479.87,-259.8 485.14,-264.41"/>
</g>
<!-- Node4 -->
<g id="node4" class="node">
<title>Node4</title>
<g id="a_node4"><a xlink:href="Data_8h.html" target="_top" xlink:title=" ">
<polygon fill="white" stroke="black" points="198.5,-168.5 198.5,-187.5 310.5,-187.5 310.5,-168.5 198.5,-168.5"/>
<text text-anchor="middle" x="254.5" y="-175.5" font-family="Helvetica,sans-Serif" font-size="10.00">BayesFilters/Data.h</text>
</a>
</g>
</g>
<!-- Node1&#45;&gt;Node4 -->
<g id="edge36" class="edge">
<title>Node1&#45;&gt;Node4</title>
<path fill="none" stroke="midnightblue" d="M759.31,-376.99C681,-373.62 556.83,-361.72 457.5,-322 379.97,-291 303.55,-225.05 270.94,-194.78"/>
<polygon fill="midnightblue" stroke="midnightblue" points="272.96,-191.88 263.28,-187.57 268.17,-196.97 272.96,-191.88"/>
</g>
<!-- Node16 -->
<g id="node16" class="node">
<title>Node16</title>
<g id="a_node16"><a xlink:href="VectorDescription_8h.html" target="_top" xlink:title=" ">
<polygon fill="white" stroke="black" points="1191,-56.5 1191,-75.5 1366,-75.5 1366,-56.5 1191,-56.5"/>
<text text-anchor="middle" x="1278.5" y="-63.5" font-family="Helvetica,sans-Serif" font-size="10.00">BayesFilters/VectorDescription.h</text>
</a>
</g>
</g>
<!-- Node1&#45;&gt;Node16 -->
<g id="edge43" class="edge">
<title>Node1&#45;&gt;Node16</title>
<path fill="none" stroke="midnightblue" d="M911.67,-376.36C1073,-370.83 1434.5,-346.6 1434.5,-240.5 1434.5,-240.5 1434.5,-240.5 1434.5,-177 1434.5,-122.82 1370.87,-92.97 1324.88,-78.48"/>
<polygon fill="midnightblue" stroke="midnightblue" points="1325.66,-75.06 1315.08,-75.54 1323.65,-81.77 1325.66,-75.06"/>
</g>
<!-- Node19 -->
<g id="node19" class="node">
<title>Node19</title>
<g id="a_node19"><a xlink:title=" ">
<polygon fill="white" stroke="#bfbfbf" points="759,-56.5 759,-75.5 836,-75.5 836,-56.5 759,-56.5"/>
<text text-anchor="middle" x="797.5" y="-63.5" font-family="Helvetica,sans-Serif" font-size="10.00">Eigen/Dense</text>
</a>
</g>
</g>
<!-- Node1&#45;&gt;Node19 -->
<g id="edge45" class="edge">
<title>Node1&#45;&gt;Node19</title>
<path fill="none" stroke="midnightblue" d="M792.12,-358.48C750.36,-336.39 693.5,-296.09 693.5,-240.5 693.5,-240.5 693.5,-240.5 693.5,-177 693.5,-146.77 694.29,-135.34 713.5,-112 725.63,-97.27 743.88,-86.67 760.28,-79.48"/>
<polygon fill="midnightblue" stroke="midnightblue" points="761.74,-82.67 769.66,-75.63 759.08,-76.19 761.74,-82.67"/>
</g>
<!-- Node20 -->
<g id="node20" class="node">
<title>Node20</title>
<g id="a_node20"><a xlink:href="AdditiveStateModel_8h.html" target="_top" xlink:title=" ">
<polygon fill="white" stroke="black" points="886.5,-291.5 886.5,-321.5 1032.5,-321.5 1032.5,-291.5 886.5,-291.5"/>
<text text-anchor="start" x="894.5" y="-309.5" font-family="Helvetica,sans-Serif" font-size="10.00">BayesFilters/AdditiveState</text>
<text text-anchor="middle" x="959.5" y="-298.5" font-family="Helvetica,sans-Serif" font-size="10.00">Model.h</text>
</a>
</g>
</g>
<!-- Node1&#45;&gt;Node20 -->
<g id="edge21" class="edge">
<title>Node1&#45;&gt;Node20</title>
<path fill="none" stroke="midnightblue" d="M870.04,-358.36C887.33,-348.53 908.2,-336.67 925.43,-326.87"/>
<polygon fill="midnightblue" stroke="midnightblue" points="927.61,-329.66 934.58,-321.67 924.15,-323.57 927.61,-329.66"/>
</g>
<!-- Node21 -->
<g id="node21" class="node">
<title>Node21</title>
<g id="a_node21"><a xlink:href="StateModel_8h.html" target="_top" xlink:title=" ">
<polygon fill="white" stroke="black" points="887.5,-230 887.5,-249 1031.5,-249 1031.5,-230 887.5,-230"/>
<text text-anchor="middle" x="959.5" y="-237" font-family="Helvetica,sans-Serif" font-size="10.00">BayesFilters/StateModel.h</text>
</a>
</g>
</g>
<!-- Node1&#45;&gt;Node21 -->
<g id="edge42" class="edge">
<title>Node1&#45;&gt;Node21</title>
<path fill="none" stroke="midnightblue" d="M841.45,-358.16C847.91,-339.2 859.74,-310.67 877.5,-291 892.06,-274.87 912.96,-262.11 930.02,-253.45"/>
<polygon fill="midnightblue" stroke="midnightblue" points="931.58,-256.58 939.04,-249.06 928.51,-250.29 931.58,-256.58"/>
</g>
<!-- Node22 -->
<g id="node22" class="node">
<title>Node22</title>
<g id="a_node22"><a xlink:href="ExogenousModel_8h.html" target="_top" xlink:title=" ">
<polygon fill="white" stroke="black" points="1026,-168.5 1026,-187.5 1197,-187.5 1197,-168.5 1026,-168.5"/>
<text text-anchor="middle" x="1111.5" y="-175.5" font-family="Helvetica,sans-Serif" font-size="10.00">BayesFilters/ExogenousModel.h</text>
</a>
</g>
</g>
<!-- Node1&#45;&gt;Node22 -->
<g id="edge37" class="edge">
<title>Node1&#45;&gt;Node22</title>
<path fill="none" stroke="midnightblue" d="M911.57,-372.59C953.83,-366.11 1005.07,-352.1 1041.5,-322 1081.36,-289.07 1100.34,-227.93 1107.67,-197.38"/>
<polygon fill="midnightblue" stroke="midnightblue" points="1111.09,-198.13 1109.87,-187.61 1104.26,-196.6 1111.09,-198.13"/>
</g>
<!-- Node27 -->
<g id="node27" class="node">
<title>Node27</title>
<g id="a_node27"><a xlink:href="GaussianMixture_8h.html" target="_top" xlink:title=" ">
<polygon fill="white" stroke="black" points="722,-168.5 722,-187.5 893,-187.5 893,-168.5 722,-168.5"/>
<text text-anchor="middle" x="807.5" y="-175.5" font-family="Helvetica,sans-Serif" font-size="10.00">BayesFilters/GaussianMixture.h</text>
</a>
</g>
</g>
<!-- Node1&#45;&gt;Node27 -->
<g id="edge38" class="edge">
<title>Node1&#45;&gt;Node27</title>
<path fill="none" stroke="midnightblue" d="M832.71,-358.19C827.3,-319.7 815.42,-235.3 810.13,-197.71"/>
<polygon fill="midnightblue" stroke="midnightblue" points="813.58,-197.06 808.72,-187.65 806.64,-198.04 813.58,-197.06"/>
</g>
<!-- Node28 -->
<g id="node28" class="node">
<title>Node28</title>
<g id="a_node28"><a xlink:title=" ">
<polygon fill="white" stroke="#bfbfbf" points="1463,-297 1463,-316 1528,-316 1528,-297 1463,-297"/>
<text text-anchor="middle" x="1495.5" y="-304" font-family="Helvetica,sans-Serif" font-size="10.00">functional</text>
</a>
</g>
</g>
<!-- Node1&#45;&gt;Node28 -->
<g id="edge44" class="edge">
<title>Node1&#45;&gt;Node28</title>
<path fill="none" stroke="midnightblue" d="M911.72,-376.12C1028.36,-372.11 1257.7,-359.72 1448.5,-322 1452.74,-321.16 1457.14,-320.09 1461.48,-318.9"/>
<polygon fill="midnightblue" stroke="midnightblue" points="1462.74,-322.18 1471.35,-316 1460.77,-315.46 1462.74,-322.18"/>
</g>
<!-- Node2&#45;&gt;Node3 -->
<g id="edge2" class="edge">
<title>Node2&#45;&gt;Node3</title>
<path fill="none" stroke="midnightblue" d="M556.75,-291.4C547.66,-282.71 535.83,-271.4 525.63,-261.66"/>
<polygon fill="midnightblue" stroke="midnightblue" points="527.87,-258.96 518.23,-254.58 523.04,-264.02 527.87,-258.96"/>
</g>
<!-- Node3&#45;&gt;Node4 -->
<g id="edge3" class="edge">
<title>Node3&#45;&gt;Node4</title>
<path fill="none" stroke="midnightblue" d="M444.81,-224.47C400.54,-213.9 340.69,-199.59 300.01,-189.87"/>
<polygon fill="midnightblue" stroke="midnightblue" points="300.64,-186.43 290.1,-187.51 299.01,-193.23 300.64,-186.43"/>
</g>
<!-- Node7 -->
<g id="node7" class="node">
<title>Node7</title>
<g id="a_node7"><a xlink:title=" ">
<polygon fill="white" stroke="#bfbfbf" points="366.5,-56.5 366.5,-75.5 424.5,-75.5 424.5,-56.5 366.5,-56.5"/>
<text text-anchor="middle" x="395.5" y="-63.5" font-family="Helvetica,sans-Serif" font-size="10.00">memory</text>
</a>
</g>
</g>
<!-- Node3&#45;&gt;Node7 -->
<g id="edge17" class="edge">
<title>Node3&#45;&gt;Node7</title>
<path fill="none" stroke="midnightblue" d="M449.39,-224.47C430.76,-216.82 411.76,-205.26 400.5,-188 380.08,-156.71 385.6,-110.56 390.89,-85.25"/>
<polygon fill="midnightblue" stroke="midnightblue" points="394.3,-86.03 393.13,-75.5 387.48,-84.46 394.3,-86.03"/>
</g>
<!-- Node11 -->
<g id="node11" class="node">
<title>Node11</title>
<g id="a_node11"><a xlink:href="Logger_8h.html" target="_top" xlink:title=" ">
<polygon fill="white" stroke="black" points="443,-168.5 443,-187.5 564,-187.5 564,-168.5 443,-168.5"/>
<text text-anchor="middle" x="503.5" y="-175.5" font-family="Helvetica,sans-Serif" font-size="10.00">BayesFilters/Logger.h</text>
</a>
</g>
</g>
<!-- Node3&#45;&gt;Node11 -->
<g id="edge10" class="edge">
<title>Node3&#45;&gt;Node11</title>
<path fill="none" stroke="midnightblue" d="M503.5,-224.4C503.5,-216.47 503.5,-206.46 503.5,-197.86"/>
<polygon fill="midnightblue" stroke="midnightblue" points="507,-197.66 503.5,-187.66 500,-197.66 507,-197.66"/>
</g>
<!-- Node14 -->
<g id="node14" class="node">
<title>Node14</title>
<g id="a_node14"><a xlink:title=" ">
<polygon fill="white" stroke="#bfbfbf" points="430.5,-0.5 430.5,-19.5 474.5,-19.5 474.5,-0.5 430.5,-0.5"/>
<text text-anchor="middle" x="452.5" y="-7.5" font-family="Helvetica,sans-Serif" font-size="10.00">string</text>
</a>
</g>
</g>
<!-- Node3&#45;&gt;Node14 -->
<g id="edge18" class="edge">
<title>Node3&#45;&gt;Node14</title>
<path fill="none" stroke="midnightblue" d="M446.01,-224.48C425.31,-216.81 403.41,-205.23 388.5,-188 354.7,-148.95 364.45,-127.18 357.5,-76 356.3,-67.19 352.75,-63.51 357.5,-56 371.23,-34.3 398.57,-22.86 420.41,-16.96"/>
<polygon fill="midnightblue" stroke="midnightblue" points="421.41,-20.32 430.29,-14.55 419.75,-13.51 421.41,-20.32"/>
</g>
<!-- Node3&#45;&gt;Node16 -->
<g id="edge15" class="edge">
<title>Node3&#45;&gt;Node16</title>
<path fill="none" stroke="midnightblue" d="M577.18,-234.37C686.56,-227.47 881.38,-211.96 902.5,-188 928.92,-158.03 827.78,-141.7 854.5,-112 875.91,-88.2 1061.93,-76.02 1180.36,-70.62"/>
<polygon fill="midnightblue" stroke="midnightblue" points="1180.7,-74.11 1190.54,-70.17 1180.39,-67.12 1180.7,-74.11"/>
</g>
<!-- Node18 -->
<g id="node18" class="node">
<title>Node18</title>
<g id="a_node18"><a xlink:title=" ">
<polygon fill="white" stroke="#bfbfbf" points="582,-168.5 582,-187.5 627,-187.5 627,-168.5 582,-168.5"/>
<text text-anchor="middle" x="604.5" y="-175.5" font-family="Helvetica,sans-Serif" font-size="10.00">utility</text>
</a>
</g>
</g>
<!-- Node3&#45;&gt;Node18 -->
<g id="edge19" class="edge">
<title>Node3&#45;&gt;Node18</title>
<path fill="none" stroke="midnightblue" d="M527.44,-224.4C543.63,-214.86 564.91,-202.32 581,-192.84"/>
<polygon fill="midnightblue" stroke="midnightblue" points="582.96,-195.75 589.8,-187.66 579.41,-189.72 582.96,-195.75"/>
</g>
<!-- Node3&#45;&gt;Node19 -->
<g id="edge20" class="edge">
<title>Node3&#45;&gt;Node19</title>
<path fill="none" stroke="midnightblue" d="M566.18,-224.48C590.17,-216.75 616.54,-205.13 636.5,-188 665.95,-162.72 650.07,-137.3 679.5,-112 699.28,-94.99 726.17,-84.07 749.29,-77.26"/>
<polygon fill="midnightblue" stroke="midnightblue" points="750.23,-80.63 758.93,-74.58 748.36,-73.88 750.23,-80.63"/>
</g>
<!-- Node5 -->
<g id="node5" class="node">
<title>Node5</title>
<g id="a_node5"><a xlink:href="any_8h.html" target="_top" xlink:title=" ">
<polygon fill="white" stroke="black" points="176,-112.5 176,-131.5 281,-131.5 281,-112.5 176,-112.5"/>
<text text-anchor="middle" x="228.5" y="-119.5" font-family="Helvetica,sans-Serif" font-size="10.00">BayesFilters/any.h</text>
</a>
</g>
</g>
<!-- Node4&#45;&gt;Node5 -->
<g id="edge4" class="edge">
<title>Node4&#45;&gt;Node5</title>
<path fill="none" stroke="midnightblue" d="M250.21,-168.08C246.65,-160.69 241.48,-149.95 237.08,-140.81"/>
<polygon fill="midnightblue" stroke="midnightblue" points="240.21,-139.24 232.71,-131.75 233.9,-142.28 240.21,-139.24"/>
</g>
<!-- Node6 -->
<g id="node6" class="node">
<title>Node6</title>
<g id="a_node6"><a xlink:title=" ">
<polygon fill="white" stroke="#bfbfbf" points="87.5,-56.5 87.5,-75.5 151.5,-75.5 151.5,-56.5 87.5,-56.5"/>
<text text-anchor="middle" x="119.5" y="-63.5" font-family="Helvetica,sans-Serif" font-size="10.00">algorithm</text>
</a>
</g>
</g>
<!-- Node5&#45;&gt;Node6 -->
<g id="edge5" class="edge">
<title>Node5&#45;&gt;Node6</title>
<path fill="none" stroke="midnightblue" d="M210.99,-112.32C193.43,-103.62 166.17,-90.12 145.97,-80.11"/>
<polygon fill="midnightblue" stroke="midnightblue" points="147.48,-76.96 136.97,-75.65 144.38,-83.23 147.48,-76.96"/>
</g>
<!-- Node5&#45;&gt;Node7 -->
<g id="edge6" class="edge">
<title>Node5&#45;&gt;Node7</title>
<path fill="none" stroke="midnightblue" d="M254.96,-112.44C283.18,-103.32 328.04,-88.81 359.47,-78.65"/>
<polygon fill="midnightblue" stroke="midnightblue" points="360.72,-81.92 369.16,-75.52 358.57,-75.26 360.72,-81.92"/>
</g>
<!-- Node8 -->
<g id="node8" class="node">
<title>Node8</title>
<g id="a_node8"><a xlink:title=" ">
<polygon fill="white" stroke="#bfbfbf" points="170,-56.5 170,-75.5 235,-75.5 235,-56.5 170,-56.5"/>
<text text-anchor="middle" x="202.5" y="-63.5" font-family="Helvetica,sans-Serif" font-size="10.00">stdexcept</text>
</a>
</g>
</g>
<!-- Node5&#45;&gt;Node8 -->
<g id="edge7" class="edge">
<title>Node5&#45;&gt;Node8</title>
<path fill="none" stroke="midnightblue" d="M224.21,-112.08C220.65,-104.69 215.48,-93.95 211.08,-84.81"/>
<polygon fill="midnightblue" stroke="midnightblue" points="214.21,-83.24 206.71,-75.75 207.9,-86.28 214.21,-83.24"/>
</g>
<!-- Node9 -->
<g id="node9" class="node">
<title>Node9</title>
<g id="a_node9"><a xlink:title=" ">
<polygon fill="white" stroke="#bfbfbf" points="253,-56.5 253,-75.5 310,-75.5 310,-56.5 253,-56.5"/>
<text text-anchor="middle" x="281.5" y="-63.5" font-family="Helvetica,sans-Serif" font-size="10.00">typeinfo</text>
</a>
</g>
</g>
<!-- Node5&#45;&gt;Node9 -->
<g id="edge8" class="edge">
<title>Node5&#45;&gt;Node9</title>
<path fill="none" stroke="midnightblue" d="M237.25,-112.08C244.97,-104.22 256.4,-92.57 265.72,-83.08"/>
<polygon fill="midnightblue" stroke="midnightblue" points="268.4,-85.34 272.91,-75.75 263.41,-80.44 268.4,-85.34"/>
</g>
<!-- Node10 -->
<g id="node10" class="node">
<title>Node10</title>
<g id="a_node10"><a xlink:title=" ">
<polygon fill="white" stroke="#bfbfbf" points="0,-56.5 0,-75.5 69,-75.5 69,-56.5 0,-56.5"/>
<text text-anchor="middle" x="34.5" y="-63.5" font-family="Helvetica,sans-Serif" font-size="10.00">type_traits</text>
</a>
</g>
</g>
<!-- Node5&#45;&gt;Node10 -->
<g id="edge9" class="edge">
<title>Node5&#45;&gt;Node10</title>
<path fill="none" stroke="midnightblue" d="M197.76,-112.44C164.56,-103.2 111.51,-88.44 74.94,-78.26"/>
<polygon fill="midnightblue" stroke="midnightblue" points="75.67,-74.83 65.1,-75.52 73.79,-81.57 75.67,-74.83"/>
</g>
<!-- Node12 -->
<g id="node12" class="node">
<title>Node12</title>
<g id="a_node12"><a xlink:title=" ">
<polygon fill="white" stroke="#bfbfbf" points="559,-112.5 559,-131.5 614,-131.5 614,-112.5 559,-112.5"/>
<text text-anchor="middle" x="586.5" y="-119.5" font-family="Helvetica,sans-Serif" font-size="10.00">fstream</text>
</a>
</g>
</g>
<!-- Node11&#45;&gt;Node12 -->
<g id="edge11" class="edge">
<title>Node11&#45;&gt;Node12</title>
<path fill="none" stroke="midnightblue" d="M516.84,-168.32C529.66,-159.98 549.28,-147.21 564.44,-137.35"/>
<polygon fill="midnightblue" stroke="midnightblue" points="566.72,-140.04 573.2,-131.65 562.91,-134.17 566.72,-140.04"/>
</g>
<!-- Node13 -->
<g id="node13" class="node">
<title>Node13</title>
<g id="a_node13"><a xlink:title=" ">
<polygon fill="white" stroke="#bfbfbf" points="480.5,-112.5 480.5,-131.5 540.5,-131.5 540.5,-112.5 480.5,-112.5"/>
<text text-anchor="middle" x="510.5" y="-119.5" font-family="Helvetica,sans-Serif" font-size="10.00">iostream</text>
</a>
</g>
</g>
<!-- Node11&#45;&gt;Node13 -->
<g id="edge12" class="edge">
<title>Node11&#45;&gt;Node13</title>
<path fill="none" stroke="midnightblue" d="M504.66,-168.08C505.58,-160.93 506.92,-150.64 508.08,-141.69"/>
<polygon fill="midnightblue" stroke="midnightblue" points="511.55,-142.12 509.37,-131.75 504.61,-141.22 511.55,-142.12"/>
</g>
<!-- Node11&#45;&gt;Node14 -->
<g id="edge13" class="edge">
<title>Node11&#45;&gt;Node14</title>
<path fill="none" stroke="midnightblue" d="M495.53,-168.43C488.07,-159.88 477.22,-146.03 471.5,-132 457.51,-97.66 453.76,-53.96 452.8,-29.58"/>
<polygon fill="midnightblue" stroke="midnightblue" points="456.29,-29.47 452.52,-19.57 449.3,-29.66 456.29,-29.47"/>
</g>
<!-- Node15 -->
<g id="node15" class="node">
<title>Node15</title>
<g id="a_node15"><a xlink:title=" ">
<polygon fill="white" stroke="#bfbfbf" points="722,-112.5 722,-131.5 769,-131.5 769,-112.5 722,-112.5"/>
<text text-anchor="middle" x="745.5" y="-119.5" font-family="Helvetica,sans-Serif" font-size="10.00">vector</text>
</a>
</g>
</g>
<!-- Node11&#45;&gt;Node15 -->
<g id="edge14" class="edge">
<title>Node11&#45;&gt;Node15</title>
<path fill="none" stroke="midnightblue" d="M541.85,-168.44C588.73,-157.98 667.33,-140.44 711.93,-130.49"/>
<polygon fill="midnightblue" stroke="midnightblue" points="712.97,-133.84 721.97,-128.25 711.45,-127.01 712.97,-133.84"/>
</g>
<!-- Node17 -->
<g id="node17" class="node">
<title>Node17</title>
<g id="a_node17"><a xlink:title=" ">
<polygon fill="white" stroke="#bfbfbf" points="1252,-0.5 1252,-19.5 1305,-19.5 1305,-0.5 1252,-0.5"/>
<text text-anchor="middle" x="1278.5" y="-7.5" font-family="Helvetica,sans-Serif" font-size="10.00">cstddef</text>
</a>
</g>
</g>
<!-- Node16&#45;&gt;Node17 -->
<g id="edge16" class="edge">
<title>Node16&#45;&gt;Node17</title>
<path fill="none" stroke="midnightblue" d="M1278.5,-56.08C1278.5,-49.01 1278.5,-38.86 1278.5,-29.99"/>
<polygon fill="midnightblue" stroke="midnightblue" points="1282,-29.75 1278.5,-19.75 1275,-29.75 1282,-29.75"/>
</g>
<!-- Node20&#45;&gt;Node16 -->
<g id="edge35" class="edge">
<title>Node20&#45;&gt;Node16</title>
<path fill="none" stroke="midnightblue" d="M1032.7,-299.12C1130.5,-286.22 1300.39,-247.5 1377.5,-132 1394.39,-106.71 1358.72,-88.95 1325.58,-78.45"/>
<polygon fill="midnightblue" stroke="midnightblue" points="1326.48,-75.07 1315.9,-75.56 1324.48,-81.78 1326.48,-75.07"/>
</g>
<!-- Node20&#45;&gt;Node21 -->
<g id="edge22" class="edge">
<title>Node20&#45;&gt;Node21</title>
<path fill="none" stroke="midnightblue" d="M959.5,-291.4C959.5,-282.06 959.5,-269.71 959.5,-259.52"/>
<polygon fill="midnightblue" stroke="midnightblue" points="963,-259.19 959.5,-249.19 956,-259.19 963,-259.19"/>
</g>
<!-- Node21&#45;&gt;Node7 -->
<g id="edge34" class="edge">
<title>Node21&#45;&gt;Node7</title>
<path fill="none" stroke="midnightblue" d="M887.34,-235.91C751.66,-230.43 469.04,-215.78 434.5,-188 418.41,-175.06 405.01,-116.4 398.96,-85.77"/>
<polygon fill="midnightblue" stroke="midnightblue" points="402.32,-84.72 397.01,-75.55 395.45,-86.03 402.32,-84.72"/>
</g>
<!-- Node21&#45;&gt;Node22 -->
<g id="edge23" class="edge">
<title>Node21&#45;&gt;Node22</title>
<path fill="none" stroke="midnightblue" d="M981.28,-229.98C1007.24,-219.81 1050.81,-202.76 1080.33,-191.2"/>
<polygon fill="midnightblue" stroke="midnightblue" points="1081.73,-194.41 1089.76,-187.51 1079.17,-187.9 1081.73,-194.41"/>
</g>
<!-- Node24 -->
<g id="node24" class="node">
<title>Node24</title>
<g id="a_node24"><a xlink:href="Skippable_8h.html" target="_top" xlink:title=" ">
<polygon fill="white" stroke="black" points="1034,-112.5 1034,-131.5 1171,-131.5 1171,-112.5 1034,-112.5"/>
<text text-anchor="middle" x="1102.5" y="-119.5" font-family="Helvetica,sans-Serif" font-size="10.00">BayesFilters/Skippable.h</text>
</a>
</g>
</g>
<!-- Node21&#45;&gt;Node24 -->
<g id="edge30" class="edge">
<title>Node21&#45;&gt;Node24</title>
<path fill="none" stroke="midnightblue" d="M965.02,-229.75C974.39,-215.41 994.66,-186.64 1017.5,-168 1033.72,-154.76 1054.44,-143.69 1071.37,-135.85"/>
<polygon fill="midnightblue" stroke="midnightblue" points="1073.13,-138.89 1080.83,-131.61 1070.27,-132.5 1073.13,-138.89"/>
</g>
<!-- Node26 -->
<g id="node26" class="node">
<title>Node26</title>
<g id="a_node26"><a xlink:href="StateProcess_8h.html" target="_top" xlink:title=" ">
<polygon fill="white" stroke="black" points="863.5,-112.5 863.5,-131.5 1015.5,-131.5 1015.5,-112.5 863.5,-112.5"/>
<text text-anchor="middle" x="939.5" y="-119.5" font-family="Helvetica,sans-Serif" font-size="10.00">BayesFilters/StateProcess.h</text>
</a>
</g>
</g>
<!-- Node21&#45;&gt;Node26 -->
<g id="edge31" class="edge">
<title>Node21&#45;&gt;Node26</title>
<path fill="none" stroke="midnightblue" d="M958,-229.82C954.78,-211.26 947.18,-167.34 942.79,-141.97"/>
<polygon fill="midnightblue" stroke="midnightblue" points="946.18,-141.04 941.02,-131.78 939.28,-142.23 946.18,-141.04"/>
</g>
<!-- Node23 -->
<g id="node23" class="node">
<title>Node23</title>
<g id="a_node23"><a xlink:href="ExogenousProcess_8h.html" target="_top" xlink:title=" ">
<polygon fill="white" stroke="black" points="1189,-112.5 1189,-131.5 1368,-131.5 1368,-112.5 1189,-112.5"/>
<text text-anchor="middle" x="1278.5" y="-119.5" font-family="Helvetica,sans-Serif" font-size="10.00">BayesFilters/ExogenousProcess.h</text>
</a>
</g>
</g>
<!-- Node22&#45;&gt;Node23 -->
<g id="edge24" class="edge">
<title>Node22&#45;&gt;Node23</title>
<path fill="none" stroke="midnightblue" d="M1137.96,-168.44C1166.18,-159.32 1211.04,-144.81 1242.47,-134.65"/>
<polygon fill="midnightblue" stroke="midnightblue" points="1243.72,-137.92 1252.16,-131.52 1241.57,-131.26 1243.72,-137.92"/>
</g>
<!-- Node22&#45;&gt;Node24 -->
<g id="edge27" class="edge">
<title>Node22&#45;&gt;Node24</title>
<path fill="none" stroke="midnightblue" d="M1110.01,-168.08C1108.82,-160.93 1107.11,-150.64 1105.62,-141.69"/>
<polygon fill="midnightblue" stroke="midnightblue" points="1109.05,-141.04 1103.96,-131.75 1102.15,-142.19 1109.05,-141.04"/>
</g>
<!-- Node23&#45;&gt;Node16 -->
<g id="edge25" class="edge">
<title>Node23&#45;&gt;Node16</title>
<path fill="none" stroke="midnightblue" d="M1278.5,-112.08C1278.5,-105.01 1278.5,-94.86 1278.5,-85.99"/>
<polygon fill="midnightblue" stroke="midnightblue" points="1282,-85.75 1278.5,-75.75 1275,-85.75 1282,-85.75"/>
</g>
<!-- Node23&#45;&gt;Node19 -->
<g id="edge26" class="edge">
<title>Node23&#45;&gt;Node19</title>
<path fill="none" stroke="midnightblue" d="M1202.55,-112.47C1102.68,-101.26 930.07,-81.88 846.14,-72.46"/>
<polygon fill="midnightblue" stroke="midnightblue" points="846.44,-68.97 836.11,-71.33 845.66,-75.93 846.44,-68.97"/>
</g>
<!-- Node25 -->
<g id="node25" class="node">
<title>Node25</title>
<g id="a_node25"><a xlink:href="Skipper_8h.html" target="_top" xlink:title=" ">
<polygon fill="white" stroke="black" points="947,-56.5 947,-75.5 1072,-75.5 1072,-56.5 947,-56.5"/>
<text text-anchor="middle" x="1009.5" y="-63.5" font-family="Helvetica,sans-Serif" font-size="10.00">BayesFilters/Skipper.h</text>
</a>
</g>
</g>
<!-- Node24&#45;&gt;Node25 -->
<g id="edge28" class="edge">
<title>Node24&#45;&gt;Node25</title>
<path fill="none" stroke="midnightblue" d="M1087.56,-112.32C1072.91,-103.82 1050.37,-90.73 1033.26,-80.8"/>
<polygon fill="midnightblue" stroke="midnightblue" points="1034.81,-77.65 1024.4,-75.65 1031.3,-83.7 1034.81,-77.65"/>
</g>
<!-- Node25&#45;&gt;Node14 -->
<g id="edge29" class="edge">
<title>Node25&#45;&gt;Node14</title>
<path fill="none" stroke="midnightblue" d="M946.96,-58.94C828.3,-47.43 574.35,-22.81 484.67,-14.12"/>
<polygon fill="midnightblue" stroke="midnightblue" points="484.86,-10.62 474.57,-13.14 484.19,-17.59 484.86,-10.62"/>
</g>
<!-- Node26&#45;&gt;Node16 -->
<g id="edge32" class="edge">
<title>Node26&#45;&gt;Node16</title>
<path fill="none" stroke="midnightblue" d="M993.22,-112.44C1053.47,-102.85 1151.11,-87.29 1215.07,-77.1"/>
<polygon fill="midnightblue" stroke="midnightblue" points="1215.71,-80.55 1225.04,-75.52 1214.61,-73.63 1215.71,-80.55"/>
</g>
<!-- Node26&#45;&gt;Node19 -->
<g id="edge33" class="edge">
<title>Node26&#45;&gt;Node19</title>
<path fill="none" stroke="midnightblue" d="M917,-112.44C893.42,-103.48 856.18,-89.31 829.54,-79.18"/>
<polygon fill="midnightblue" stroke="midnightblue" points="830.49,-75.8 819.9,-75.52 828,-82.34 830.49,-75.8"/>
</g>
<!-- Node27&#45;&gt;Node15 -->
<g id="edge39" class="edge">
<title>Node27&#45;&gt;Node15</title>
<path fill="none" stroke="midnightblue" d="M797.54,-168.32C788.37,-160.34 774.56,-148.31 763.47,-138.65"/>
<polygon fill="midnightblue" stroke="midnightblue" points="765.48,-135.76 755.64,-131.83 760.88,-141.04 765.48,-135.76"/>
</g>
<!-- Node27&#45;&gt;Node19 -->
<g id="edge40" class="edge">
<title>Node27&#45;&gt;Node19</title>
<path fill="none" stroke="midnightblue" d="M806.72,-168.37C805.1,-150.62 801.38,-109.67 799.19,-85.6"/>
<polygon fill="midnightblue" stroke="midnightblue" points="802.67,-85.23 798.28,-75.59 795.7,-85.87 802.67,-85.23"/>
</g>
</g>
</svg>
        <g id="navigator" transform="translate(0 0)" fill="#404254">
                <rect fill="#f2f5e9" fill-opacity="0.5" stroke="#606060" stroke-width=".5" x="0" y="0" width="60" height="60"/>
                <use id="zoomplus" xlink:href="#zoomPlus" x="17" y="9" onmousedown="handleZoom(evt,'in')"/>
                <use id="zoomminus" xlink:href="#zoomMin" x="42" y="9" onmousedown="handleZoom(evt,'out')"/>
                <use id="reset" xlink:href="#resetDef" x="30" y="36" onmousedown="handleReset()"/>
                <g id="arrowUp" xlink:href="#dirArrow" transform="translate(30 24)" onmousedown="handlePan(0,-1)">
                  <use xlink:href="#rim" fill="#404040">
                        <set attributeName="fill" to="#808080" begin="arrowUp.mouseover" end="arrowUp.mouseout"/>
                  </use>
                  <path fill="none" stroke="white" stroke-width="1.5" d="M0,-3.0v7 M-2.5,-0.5L0,-3.0L2.5,-0.5"/>
                </g>
                <g id="arrowRight" xlink:href="#dirArrow" transform="rotate(90) translate(36 -43)" onmousedown="handlePan(1,0)">
                  <use xlink:href="#rim" fill="#404040">
                        <set attributeName="fill" to="#808080" begin="arrowRight.mouseover" end="arrowRight.mouseout"/>
                  </use>
                  <path fill="none" stroke="white" stroke-width="1.5" d="M0,-3.0v7 M-2.5,-0.5L0,-3.0L2.5,-0.5"/>
                </g>
                <g id="arrowDown" xlink:href="#dirArrow" transform="rotate(180) translate(-30 -48)" onmousedown="handlePan(0,1)">
                  <use xlink:href="#rim" fill="#404040">
                        <set attributeName="fill" to="#808080" begin="arrowDown.mouseover" end="arrowDown.mouseout"/>
                  </use>
                  <path fill="none" stroke="white" stroke-width="1.5" d="M0,-3.0v7 M-2.5,-0.5L0,-3.0L2.5,-0.5"/>
                </g>
                <g id="arrowLeft" xlink:href="#dirArrow" transform="rotate(270) translate(-36 17)" onmousedown="handlePan(-1,0)">
                  <use xlink:href="#rim" fill="#404040">
                        <set attributeName="fill" to="#808080" begin="arrowLeft.mouseover" end="arrowLeft.mouseout"/>
                  </use>
                  <path fill="none" stroke="white" stroke-width="1.5" d="M0,-3.0v7 M-2.5,-0.5L0,-3.0L2.5,-0.5"/>
                </g>
        </g>
        <svg viewBox="0 0 15 15" width="100%" height="30px" preserveAspectRatio="xMaxYMin meet">
         <g id="arrow_out" transform="scale(0.3 0.3)">
          <a xlink:href="sigma__point_8h__incl_org.svg" target="_base">
           <rect id="button" ry="5" rx="5" y="6" x="6" height="38" width="38"
                fill="#f2f5e9" fill-opacity="0.5" stroke="#606060" stroke-width="1.0"/>
           <path id="arrow"
             d="M 11.500037,31.436501 C 11.940474,20.09759 22.043105,11.32322 32.158766,21.979434 L 37.068811,17.246167 C 37.068811,17.246167 37.088388,32 37.088388,32 L 22.160133,31.978069 C 22.160133,31.978069 26.997745,27.140456 26.997745,27.140456 C 18.528582,18.264221 13.291696,25.230495 11.500037,31.436501 z"
             style="fill:#404040;"/>
          </a>
         </g>
        </svg>
</svg>
