<?xml version="1.0" encoding="UTF-8" standalone="no"?>
<!DOCTYPE svg PUBLIC "-//W3C//DTD SVG 1.1//EN"
 "http://www.w3.org/Graphics/SVG/1.1/DTD/svg11.dtd">
<!-- Generated by graphviz version 2.47.2 (0)
 -->
<!-- Title: /home/xenvre/robot&#45;code/bfl_robotology/src/BayesFilters/include/BayesFilters/SimulatedLinearSensor.h Pages: 1 -->
<svg width="971pt" height="553pt"
 viewBox="0.00 0.00 971.00 553.00" xmlns="http://www.w3.org/2000/svg" xmlns:xlink="http://www.w3.org/1999/xlink">
<g id="graph0" class="graph" transform="scale(1 1) rotate(0) translate(4 549)">
<title>/home/xenvre/robot&#45;code/bfl_robotology/src/BayesFilters/include/BayesFilters/SimulatedLinearSensor.h</title>
<polygon fill="white" stroke="transparent" points="-4,4 -4,-549 967,-549 967,4 -4,4"/>
<!-- Node1 -->
<g id="node1" class="node">
<title>Node1</title>
<g id="a_node1"><a xlink:title=" ">
<polygon fill="#bfbfbf" stroke="black" points="309.5,-492.5 309.5,-544.5 494.5,-544.5 494.5,-492.5 309.5,-492.5"/>
<text text-anchor="start" x="317.5" y="-532.5" font-family="Helvetica,sans-Serif" font-size="10.00">/home/xenvre/robot</text>
<text text-anchor="start" x="317.5" y="-521.5" font-family="Helvetica,sans-Serif" font-size="10.00">&#45;code/bfl_robotology</text>
<text text-anchor="start" x="317.5" y="-510.5" font-family="Helvetica,sans-Serif" font-size="10.00">/src/BayesFilters/include</text>
<text text-anchor="middle" x="402" y="-499.5" font-family="Helvetica,sans-Serif" font-size="10.00">/BayesFilters/SimulatedLinearSensor.h</text>
</a>
</g>
</g>
<!-- Node2 -->
<g id="node2" class="node">
<title>Node2</title>
<g id="a_node2"><a xlink:href="LinearModel_8h.html" target="_top" xlink:title=" ">
<polygon fill="white" stroke="black" points="710.5,-436.5 710.5,-455.5 845.5,-455.5 845.5,-436.5 710.5,-436.5"/>
<text text-anchor="middle" x="778" y="-443.5" font-family="Helvetica,sans-Serif" font-size="10.00">BayesFilters/LinearModel.h</text>
</a>
</g>
</g>
<!-- Node1&#45;&gt;Node2 -->
<g id="edge1" class="edge">
<title>Node1&#45;&gt;Node2</title>
<path fill="none" stroke="midnightblue" d="M494.94,-500.07C566.38,-486.68 662.67,-468.62 722.51,-457.4"/>
<polygon fill="midnightblue" stroke="midnightblue" points="723.34,-460.81 732.52,-455.53 722.05,-453.93 723.34,-460.81"/>
</g>
<!-- Node10 -->
<g id="node10" class="node">
<title>Node10</title>
<g id="a_node10"><a xlink:title=" ">
<polygon fill="white" stroke="#bfbfbf" points="211,-0.5 211,-19.5 263,-19.5 263,-0.5 211,-0.5"/>
<text text-anchor="middle" x="237" y="-7.5" font-family="Helvetica,sans-Serif" font-size="10.00">memory</text>
</a>
</g>
</g>
<!-- Node1&#45;&gt;Node10 -->
<g id="edge48" class="edge">
<title>Node1&#45;&gt;Node10</title>
<path fill="none" stroke="midnightblue" d="M309.27,-505.9C190.55,-488.4 0,-450.23 0,-385.5 0,-385.5 0,-385.5 0,-121 0,-33.59 134.27,-15.45 200.69,-11.82"/>
<polygon fill="midnightblue" stroke="midnightblue" points="200.9,-15.31 210.73,-11.35 200.58,-8.32 200.9,-15.31"/>
</g>
<!-- Node24 -->
<g id="node24" class="node">
<title>Node24</title>
<g id="a_node24"><a xlink:href="SimulatedStateModel_8h.html" target="_top" xlink:title=" ">
<polygon fill="white" stroke="black" points="331.5,-369.5 331.5,-399.5 472.5,-399.5 472.5,-369.5 331.5,-369.5"/>
<text text-anchor="start" x="339.5" y="-387.5" font-family="Helvetica,sans-Serif" font-size="10.00">BayesFilters/SimulatedState</text>
<text text-anchor="middle" x="402" y="-376.5" font-family="Helvetica,sans-Serif" font-size="10.00">Model.h</text>
</a>
</g>
</g>
<!-- Node1&#45;&gt;Node24 -->
<g id="edge28" class="edge">
<title>Node1&#45;&gt;Node24</title>
<path fill="none" stroke="midnightblue" d="M402,-492.36C402,-468.6 402,-433.18 402,-409.72"/>
<polygon fill="midnightblue" stroke="midnightblue" points="405.5,-409.57 402,-399.57 398.5,-409.57 405.5,-409.57"/>
</g>
<!-- Node3 -->
<g id="node3" class="node">
<title>Node3</title>
<g id="a_node3"><a xlink:href="LTIMeasurementModel_8h.html" target="_top" xlink:title=" ">
<polygon fill="white" stroke="black" points="491,-369.5 491,-399.5 639,-399.5 639,-369.5 491,-369.5"/>
<text text-anchor="start" x="499" y="-387.5" font-family="Helvetica,sans-Serif" font-size="10.00">BayesFilters/LTIMeasurement</text>
<text text-anchor="middle" x="565" y="-376.5" font-family="Helvetica,sans-Serif" font-size="10.00">Model.h</text>
</a>
</g>
</g>
<!-- Node2&#45;&gt;Node3 -->
<g id="edge2" class="edge">
<title>Node2&#45;&gt;Node3</title>
<path fill="none" stroke="midnightblue" d="M747.48,-436.48C715.6,-427.57 664.77,-413.37 624.84,-402.22"/>
<polygon fill="midnightblue" stroke="midnightblue" points="625.77,-398.84 615.2,-399.52 623.89,-405.58 625.77,-398.84"/>
</g>
<!-- Node15 -->
<g id="node15" class="node">
<title>Node15</title>
<g id="a_node15"><a xlink:title=" ">
<polygon fill="white" stroke="#bfbfbf" points="900,-56.5 900,-75.5 950,-75.5 950,-56.5 900,-56.5"/>
<text text-anchor="middle" x="925" y="-63.5" font-family="Helvetica,sans-Serif" font-size="10.00">fstream</text>
</a>
</g>
</g>
<!-- Node2&#45;&gt;Node15 -->
<g id="edge24" class="edge">
<title>Node2&#45;&gt;Node15</title>
<path fill="none" stroke="midnightblue" d="M818.14,-436.45C872.55,-422.24 963,-388.15 963,-318.5 963,-318.5 963,-318.5 963,-182.5 963,-146.25 945.91,-106.67 934.65,-84.53"/>
<polygon fill="midnightblue" stroke="midnightblue" points="937.73,-82.87 929.97,-75.66 931.54,-86.14 937.73,-82.87"/>
</g>
<!-- Node17 -->
<g id="node17" class="node">
<title>Node17</title>
<g id="a_node17"><a xlink:title=" ">
<polygon fill="white" stroke="#bfbfbf" points="673.5,-56.5 673.5,-75.5 714.5,-75.5 714.5,-56.5 673.5,-56.5"/>
<text text-anchor="middle" x="694" y="-63.5" font-family="Helvetica,sans-Serif" font-size="10.00">string</text>
</a>
</g>
</g>
<!-- Node2&#45;&gt;Node17 -->
<g id="edge27" class="edge">
<title>Node2&#45;&gt;Node17</title>
<path fill="none" stroke="midnightblue" d="M827.77,-436.45C848.83,-430.1 871.37,-419.09 884,-400 891.6,-388.51 887.13,-382.42 884,-369 854.2,-241.06 826.21,-209.35 738,-112 729.01,-102.08 718.55,-91.35 710.08,-82.86"/>
<polygon fill="midnightblue" stroke="midnightblue" points="712.53,-80.35 702.97,-75.77 707.59,-85.31 712.53,-80.35"/>
</g>
<!-- Node21 -->
<g id="node21" class="node">
<title>Node21</title>
<g id="a_node21"><a xlink:title=" ">
<polygon fill="white" stroke="#bfbfbf" points="657.5,-375 657.5,-394 730.5,-394 730.5,-375 657.5,-375"/>
<text text-anchor="middle" x="694" y="-382" font-family="Helvetica,sans-Serif" font-size="10.00">initializer_list</text>
</a>
</g>
</g>
<!-- Node2&#45;&gt;Node21 -->
<g id="edge23" class="edge">
<title>Node2&#45;&gt;Node21</title>
<path fill="none" stroke="midnightblue" d="M765.96,-436.48C752.49,-426.93 730.43,-411.31 714.28,-399.87"/>
<polygon fill="midnightblue" stroke="midnightblue" points="716.2,-396.93 706.01,-394.01 712.15,-402.65 716.2,-396.93"/>
</g>
<!-- Node22 -->
<g id="node22" class="node">
<title>Node22</title>
<g id="a_node22"><a xlink:title=" ">
<polygon fill="white" stroke="#bfbfbf" points="748.5,-375 748.5,-394 807.5,-394 807.5,-375 748.5,-375"/>
<text text-anchor="middle" x="778" y="-382" font-family="Helvetica,sans-Serif" font-size="10.00">functional</text>
</a>
</g>
</g>
<!-- Node2&#45;&gt;Node22 -->
<g id="edge25" class="edge">
<title>Node2&#45;&gt;Node22</title>
<path fill="none" stroke="midnightblue" d="M778,-436.48C778,-428.08 778,-414.98 778,-404.16"/>
<polygon fill="midnightblue" stroke="midnightblue" points="781.5,-404.01 778,-394.01 774.5,-404.01 781.5,-404.01"/>
</g>
<!-- Node23 -->
<g id="node23" class="node">
<title>Node23</title>
<g id="a_node23"><a xlink:title=" ">
<polygon fill="white" stroke="#bfbfbf" points="825.5,-375 825.5,-394 874.5,-394 874.5,-375 825.5,-375"/>
<text text-anchor="middle" x="850" y="-382" font-family="Helvetica,sans-Serif" font-size="10.00">random</text>
</a>
</g>
</g>
<!-- Node2&#45;&gt;Node23 -->
<g id="edge26" class="edge">
<title>Node2&#45;&gt;Node23</title>
<path fill="none" stroke="midnightblue" d="M788.32,-436.48C799.65,-427.11 818.07,-411.88 831.84,-400.51"/>
<polygon fill="midnightblue" stroke="midnightblue" points="834.22,-403.08 839.7,-394.01 829.77,-397.68 834.22,-403.08"/>
</g>
<!-- Node4 -->
<g id="node4" class="node">
<title>Node4</title>
<g id="a_node4"><a xlink:href="LinearMeasurementModel_8h.html" target="_top" xlink:title=" ">
<polygon fill="white" stroke="black" points="551,-302.5 551,-332.5 711,-332.5 711,-302.5 551,-302.5"/>
<text text-anchor="start" x="559" y="-320.5" font-family="Helvetica,sans-Serif" font-size="10.00">BayesFilters/LinearMeasurement</text>
<text text-anchor="middle" x="631" y="-309.5" font-family="Helvetica,sans-Serif" font-size="10.00">Model.h</text>
</a>
</g>
</g>
<!-- Node3&#45;&gt;Node4 -->
<g id="edge3" class="edge">
<title>Node3&#45;&gt;Node4</title>
<path fill="none" stroke="midnightblue" d="M579.32,-369.4C588.14,-360.71 599.62,-349.4 609.52,-339.66"/>
<polygon fill="midnightblue" stroke="midnightblue" points="612.04,-342.09 616.71,-332.58 607.13,-337.1 612.04,-342.09"/>
</g>
<!-- Node20 -->
<g id="node20" class="node">
<title>Node20</title>
<g id="a_node20"><a xlink:title=" ">
<polygon fill="white" stroke="#bfbfbf" points="323.5,-112.5 323.5,-131.5 396.5,-131.5 396.5,-112.5 323.5,-112.5"/>
<text text-anchor="middle" x="360" y="-119.5" font-family="Helvetica,sans-Serif" font-size="10.00">Eigen/Dense</text>
</a>
</g>
</g>
<!-- Node3&#45;&gt;Node20 -->
<g id="edge22" class="edge">
<title>Node3&#45;&gt;Node20</title>
<path fill="none" stroke="midnightblue" d="M558.51,-369.37C553.88,-359.25 547.52,-345.3 542,-333 509.16,-259.84 526.41,-223.99 469,-168 451.86,-151.28 427.62,-140.44 406.36,-133.61"/>
<polygon fill="midnightblue" stroke="midnightblue" points="407.1,-130.17 396.52,-130.65 405.09,-136.88 407.1,-130.17"/>
</g>
<!-- Node5 -->
<g id="node5" class="node">
<title>Node5</title>
<g id="a_node5"><a xlink:href="AdditiveMeasurementModel_8h.html" target="_top" xlink:title=" ">
<polygon fill="white" stroke="black" points="581.5,-235.5 581.5,-265.5 750.5,-265.5 750.5,-235.5 581.5,-235.5"/>
<text text-anchor="start" x="589.5" y="-253.5" font-family="Helvetica,sans-Serif" font-size="10.00">BayesFilters/AdditiveMeasurement</text>
<text text-anchor="middle" x="666" y="-242.5" font-family="Helvetica,sans-Serif" font-size="10.00">Model.h</text>
</a>
</g>
</g>
<!-- Node4&#45;&gt;Node5 -->
<g id="edge4" class="edge">
<title>Node4&#45;&gt;Node5</title>
<path fill="none" stroke="midnightblue" d="M638.59,-302.4C643,-294.22 648.65,-283.73 653.67,-274.39"/>
<polygon fill="midnightblue" stroke="midnightblue" points="656.76,-276.04 658.42,-265.58 650.6,-272.72 656.76,-276.04"/>
</g>
<!-- Node6 -->
<g id="node6" class="node">
<title>Node6</title>
<g id="a_node6"><a xlink:href="MeasurementModel_8h.html" target="_top" xlink:title=" ">
<polygon fill="white" stroke="black" points="642,-168.5 642,-198.5 776,-198.5 776,-168.5 642,-168.5"/>
<text text-anchor="start" x="650" y="-186.5" font-family="Helvetica,sans-Serif" font-size="10.00">BayesFilters/Measurement</text>
<text text-anchor="middle" x="709" y="-175.5" font-family="Helvetica,sans-Serif" font-size="10.00">Model.h</text>
</a>
</g>
</g>
<!-- Node5&#45;&gt;Node6 -->
<g id="edge5" class="edge">
<title>Node5&#45;&gt;Node6</title>
<path fill="none" stroke="midnightblue" d="M675.33,-235.4C680.8,-227.13 687.83,-216.51 694.05,-207.1"/>
<polygon fill="midnightblue" stroke="midnightblue" points="697.09,-208.85 699.69,-198.58 691.25,-204.99 697.09,-208.85"/>
</g>
<!-- Node7 -->
<g id="node7" class="node">
<title>Node7</title>
<g id="a_node7"><a xlink:href="Data_8h.html" target="_top" xlink:title=" ">
<polygon fill="white" stroke="black" points="453,-112.5 453,-131.5 557,-131.5 557,-112.5 453,-112.5"/>
<text text-anchor="middle" x="505" y="-119.5" font-family="Helvetica,sans-Serif" font-size="10.00">BayesFilters/Data.h</text>
</a>
</g>
</g>
<!-- Node6&#45;&gt;Node7 -->
<g id="edge6" class="edge">
<title>Node6&#45;&gt;Node7</title>
<path fill="none" stroke="midnightblue" d="M660.91,-168.47C625.26,-158.08 577.27,-144.08 543.99,-134.37"/>
<polygon fill="midnightblue" stroke="midnightblue" points="544.74,-130.95 534.16,-131.51 542.78,-137.67 544.74,-130.95"/>
</g>
<!-- Node6&#45;&gt;Node10 -->
<g id="edge18" class="edge">
<title>Node6&#45;&gt;Node10</title>
<path fill="none" stroke="midnightblue" d="M683.73,-168.5C655.58,-153.27 608.45,-128.85 566,-112 462.06,-70.73 334.24,-35.82 273.02,-20.03"/>
<polygon fill="midnightblue" stroke="midnightblue" points="273.63,-16.57 263.08,-17.48 271.9,-23.35 273.63,-16.57"/>
</g>
<!-- Node14 -->
<g id="node14" class="node">
<title>Node14</title>
<g id="a_node14"><a xlink:href="Logger_8h.html" target="_top" xlink:title=" ">
<polygon fill="white" stroke="black" points="785.5,-112.5 785.5,-131.5 896.5,-131.5 896.5,-112.5 785.5,-112.5"/>
<text text-anchor="middle" x="841" y="-119.5" font-family="Helvetica,sans-Serif" font-size="10.00">BayesFilters/Logger.h</text>
</a>
</g>
</g>
<!-- Node6&#45;&gt;Node14 -->
<g id="edge13" class="edge">
<title>Node6&#45;&gt;Node14</title>
<path fill="none" stroke="midnightblue" d="M740.28,-168.4C762.23,-158.51 791.34,-145.38 812.62,-135.79"/>
<polygon fill="midnightblue" stroke="midnightblue" points="814.11,-138.96 821.79,-131.66 811.24,-132.58 814.11,-138.96"/>
</g>
<!-- Node6&#45;&gt;Node17 -->
<g id="edge19" class="edge">
<title>Node6&#45;&gt;Node17</title>
<path fill="none" stroke="midnightblue" d="M698.19,-168.37C691.51,-158.71 683.54,-145.29 680,-132 675.82,-116.33 680.44,-98.29 685.46,-85.2"/>
<polygon fill="midnightblue" stroke="midnightblue" points="688.73,-86.47 689.42,-75.9 682.29,-83.73 688.73,-86.47"/>
</g>
<!-- Node19 -->
<g id="node19" class="node">
<title>Node19</title>
<g id="a_node19"><a xlink:title=" ">
<polygon fill="white" stroke="#bfbfbf" points="689,-112.5 689,-131.5 729,-131.5 729,-112.5 689,-112.5"/>
<text text-anchor="middle" x="709" y="-119.5" font-family="Helvetica,sans-Serif" font-size="10.00">utility</text>
</a>
</g>
</g>
<!-- Node6&#45;&gt;Node19 -->
<g id="edge20" class="edge">
<title>Node6&#45;&gt;Node19</title>
<path fill="none" stroke="midnightblue" d="M709,-168.4C709,-160.47 709,-150.46 709,-141.86"/>
<polygon fill="midnightblue" stroke="midnightblue" points="712.5,-141.66 709,-131.66 705.5,-141.66 712.5,-141.66"/>
</g>
<!-- Node6&#45;&gt;Node20 -->
<g id="edge21" class="edge">
<title>Node6&#45;&gt;Node20</title>
<path fill="none" stroke="midnightblue" d="M641.88,-169.6C638.88,-169.05 635.91,-168.52 633,-168 553.69,-153.9 461.14,-138.96 406.73,-130.34"/>
<polygon fill="midnightblue" stroke="midnightblue" points="407.12,-126.86 396.7,-128.75 406.03,-133.77 407.12,-126.86"/>
</g>
<!-- Node8 -->
<g id="node8" class="node">
<title>Node8</title>
<g id="a_node8"><a xlink:href="any_8h.html" target="_top" xlink:title=" ">
<polygon fill="white" stroke="black" points="558.5,-56.5 558.5,-75.5 655.5,-75.5 655.5,-56.5 558.5,-56.5"/>
<text text-anchor="middle" x="607" y="-63.5" font-family="Helvetica,sans-Serif" font-size="10.00">BayesFilters/any.h</text>
</a>
</g>
</g>
<!-- Node7&#45;&gt;Node8 -->
<g id="edge7" class="edge">
<title>Node7&#45;&gt;Node8</title>
<path fill="none" stroke="midnightblue" d="M521.39,-112.32C537.67,-103.7 562.87,-90.36 581.72,-80.39"/>
<polygon fill="midnightblue" stroke="midnightblue" points="583.45,-83.43 590.65,-75.65 580.18,-77.24 583.45,-83.43"/>
</g>
<!-- Node9 -->
<g id="node9" class="node">
<title>Node9</title>
<g id="a_node9"><a xlink:title=" ">
<polygon fill="white" stroke="#bfbfbf" points="693,-0.5 693,-19.5 749,-19.5 749,-0.5 693,-0.5"/>
<text text-anchor="middle" x="721" y="-7.5" font-family="Helvetica,sans-Serif" font-size="10.00">algorithm</text>
</a>
</g>
</g>
<!-- Node8&#45;&gt;Node9 -->
<g id="edge8" class="edge">
<title>Node8&#45;&gt;Node9</title>
<path fill="none" stroke="midnightblue" d="M625.06,-56.44C643.57,-47.68 672.58,-33.94 693.86,-23.86"/>
<polygon fill="midnightblue" stroke="midnightblue" points="695.48,-26.96 703.02,-19.52 692.49,-20.63 695.48,-26.96"/>
</g>
<!-- Node8&#45;&gt;Node10 -->
<g id="edge9" class="edge">
<title>Node8&#45;&gt;Node10</title>
<path fill="none" stroke="midnightblue" d="M558.25,-57.88C483,-46.9 340.25,-26.07 273.34,-16.3"/>
<polygon fill="midnightblue" stroke="midnightblue" points="273.67,-12.81 263.27,-14.83 272.66,-19.74 273.67,-12.81"/>
</g>
<!-- Node11 -->
<g id="node11" class="node">
<title>Node11</title>
<g id="a_node11"><a xlink:title=" ">
<polygon fill="white" stroke="#bfbfbf" points="466.5,-0.5 466.5,-19.5 525.5,-19.5 525.5,-0.5 466.5,-0.5"/>
<text text-anchor="middle" x="496" y="-7.5" font-family="Helvetica,sans-Serif" font-size="10.00">stdexcept</text>
</a>
</g>
</g>
<!-- Node8&#45;&gt;Node11 -->
<g id="edge10" class="edge">
<title>Node8&#45;&gt;Node11</title>
<path fill="none" stroke="midnightblue" d="M589.17,-56.32C571.28,-47.62 543.52,-34.12 522.95,-24.11"/>
<polygon fill="midnightblue" stroke="midnightblue" points="524.31,-20.88 513.79,-19.65 521.25,-27.18 524.31,-20.88"/>
</g>
<!-- Node12 -->
<g id="node12" class="node">
<title>Node12</title>
<g id="a_node12"><a xlink:title=" ">
<polygon fill="white" stroke="#bfbfbf" points="543.5,-0.5 543.5,-19.5 594.5,-19.5 594.5,-0.5 543.5,-0.5"/>
<text text-anchor="middle" x="569" y="-7.5" font-family="Helvetica,sans-Serif" font-size="10.00">typeinfo</text>
</a>
</g>
</g>
<!-- Node8&#45;&gt;Node12 -->
<g id="edge11" class="edge">
<title>Node8&#45;&gt;Node12</title>
<path fill="none" stroke="midnightblue" d="M600.73,-56.08C595.36,-48.46 587.48,-37.26 580.92,-27.94"/>
<polygon fill="midnightblue" stroke="midnightblue" points="583.78,-25.91 575.16,-19.75 578.05,-29.94 583.78,-25.91"/>
</g>
<!-- Node13 -->
<g id="node13" class="node">
<title>Node13</title>
<g id="a_node13"><a xlink:title=" ">
<polygon fill="white" stroke="#bfbfbf" points="613,-0.5 613,-19.5 675,-19.5 675,-0.5 613,-0.5"/>
<text text-anchor="middle" x="644" y="-7.5" font-family="Helvetica,sans-Serif" font-size="10.00">type_traits</text>
</a>
</g>
</g>
<!-- Node8&#45;&gt;Node13 -->
<g id="edge12" class="edge">
<title>Node8&#45;&gt;Node13</title>
<path fill="none" stroke="midnightblue" d="M613.11,-56.08C618.28,-48.53 625.85,-37.49 632.19,-28.23"/>
<polygon fill="midnightblue" stroke="midnightblue" points="635.24,-29.98 638,-19.75 629.46,-26.02 635.24,-29.98"/>
</g>
<!-- Node14&#45;&gt;Node15 -->
<g id="edge14" class="edge">
<title>Node14&#45;&gt;Node15</title>
<path fill="none" stroke="midnightblue" d="M854.5,-112.32C867.6,-103.9 887.71,-90.97 903.11,-81.07"/>
<polygon fill="midnightblue" stroke="midnightblue" points="905.02,-84.01 911.54,-75.65 901.23,-78.12 905.02,-84.01"/>
</g>
<!-- Node16 -->
<g id="node16" class="node">
<title>Node16</title>
<g id="a_node16"><a xlink:title=" ">
<polygon fill="white" stroke="#bfbfbf" points="756,-56.5 756,-75.5 810,-75.5 810,-56.5 756,-56.5"/>
<text text-anchor="middle" x="783" y="-63.5" font-family="Helvetica,sans-Serif" font-size="10.00">iostream</text>
</a>
</g>
</g>
<!-- Node14&#45;&gt;Node16 -->
<g id="edge15" class="edge">
<title>Node14&#45;&gt;Node16</title>
<path fill="none" stroke="midnightblue" d="M831.68,-112.32C823.11,-104.34 810.19,-92.31 799.81,-82.65"/>
<polygon fill="midnightblue" stroke="midnightblue" points="802.19,-80.09 792.49,-75.83 797.42,-85.21 802.19,-80.09"/>
</g>
<!-- Node14&#45;&gt;Node17 -->
<g id="edge16" class="edge">
<title>Node14&#45;&gt;Node17</title>
<path fill="none" stroke="midnightblue" d="M817.71,-112.44C792.47,-103.17 752.11,-88.35 724.39,-78.17"/>
<polygon fill="midnightblue" stroke="midnightblue" points="725.4,-74.81 714.81,-74.64 722.99,-81.38 725.4,-74.81"/>
</g>
<!-- Node18 -->
<g id="node18" class="node">
<title>Node18</title>
<g id="a_node18"><a xlink:title=" ">
<polygon fill="white" stroke="#bfbfbf" points="828,-56.5 828,-75.5 872,-75.5 872,-56.5 828,-56.5"/>
<text text-anchor="middle" x="850" y="-63.5" font-family="Helvetica,sans-Serif" font-size="10.00">vector</text>
</a>
</g>
</g>
<!-- Node14&#45;&gt;Node18 -->
<g id="edge17" class="edge">
<title>Node14&#45;&gt;Node18</title>
<path fill="none" stroke="midnightblue" d="M842.49,-112.08C843.68,-104.93 845.39,-94.64 846.88,-85.69"/>
<polygon fill="midnightblue" stroke="midnightblue" points="850.35,-86.19 848.54,-75.75 843.45,-85.04 850.35,-86.19"/>
</g>
<!-- Node24&#45;&gt;Node10 -->
<g id="edge46" class="edge">
<title>Node24&#45;&gt;Node10</title>
<path fill="none" stroke="midnightblue" d="M331.39,-372.65C225.53,-354.37 38,-313.26 38,-251.5 38,-251.5 38,-251.5 38,-121 38,-47.42 143.5,-22.67 200.87,-14.65"/>
<polygon fill="midnightblue" stroke="midnightblue" points="201.52,-18.1 210.98,-13.34 200.62,-11.16 201.52,-18.1"/>
</g>
<!-- Node24&#45;&gt;Node14 -->
<g id="edge34" class="edge">
<title>Node24&#45;&gt;Node14</title>
<path fill="none" stroke="midnightblue" d="M472.65,-370.58C475.81,-370.04 478.94,-369.51 482,-369 587.53,-351.46 631.19,-392.64 720,-333 790.23,-285.84 824.77,-183.25 836.37,-141.36"/>
<polygon fill="midnightblue" stroke="midnightblue" points="839.76,-142.24 838.94,-131.67 833,-140.44 839.76,-142.24"/>
</g>
<!-- Node24&#45;&gt;Node15 -->
<g id="edge47" class="edge">
<title>Node24&#45;&gt;Node15</title>
<path fill="none" stroke="midnightblue" d="M472.64,-370.51C475.8,-369.99 478.93,-369.48 482,-369 601.15,-350.24 645.89,-392.17 751,-333 775.81,-319.03 880.42,-182.98 906,-132 913.42,-117.22 918.42,-99.07 921.42,-85.7"/>
<polygon fill="midnightblue" stroke="midnightblue" points="924.87,-86.29 923.48,-75.78 918.02,-84.86 924.87,-86.29"/>
</g>
<!-- Node25 -->
<g id="node25" class="node">
<title>Node25</title>
<g id="a_node25"><a xlink:href="Agent_8h.html" target="_top" xlink:title=" ">
<polygon fill="white" stroke="black" points="516,-174 516,-193 624,-193 624,-174 516,-174"/>
<text text-anchor="middle" x="570" y="-181" font-family="Helvetica,sans-Serif" font-size="10.00">BayesFilters/Agent.h</text>
</a>
</g>
</g>
<!-- Node24&#45;&gt;Node25 -->
<g id="edge29" class="edge">
<title>Node24&#45;&gt;Node25</title>
<path fill="none" stroke="midnightblue" d="M414.08,-369.19C444.44,-333.23 523.78,-239.25 556.05,-201.03"/>
<polygon fill="midnightblue" stroke="midnightblue" points="558.74,-203.26 562.52,-193.36 553.39,-198.74 558.74,-203.26"/>
</g>
<!-- Node26 -->
<g id="node26" class="node">
<title>Node26</title>
<g id="a_node26"><a xlink:href="StateModel_8h.html" target="_top" xlink:title=" ">
<polygon fill="white" stroke="black" points="208,-308 208,-327 340,-327 340,-308 208,-308"/>
<text text-anchor="middle" x="274" y="-315" font-family="Helvetica,sans-Serif" font-size="10.00">BayesFilters/StateModel.h</text>
</a>
</g>
</g>
<!-- Node24&#45;&gt;Node26 -->
<g id="edge35" class="edge">
<title>Node24&#45;&gt;Node26</title>
<path fill="none" stroke="midnightblue" d="M374.23,-369.4C352.06,-358.14 321.26,-342.5 299.67,-331.54"/>
<polygon fill="midnightblue" stroke="midnightblue" points="301.25,-328.41 290.75,-327.01 298.08,-334.66 301.25,-328.41"/>
</g>
<!-- Node25&#45;&gt;Node7 -->
<g id="edge30" class="edge">
<title>Node25&#45;&gt;Node7</title>
<path fill="none" stroke="midnightblue" d="M560.69,-173.98C550.55,-164.7 534.14,-149.67 521.75,-138.33"/>
<polygon fill="midnightblue" stroke="midnightblue" points="524.04,-135.68 514.3,-131.51 519.31,-140.84 524.04,-135.68"/>
</g>
<!-- Node25&#45;&gt;Node10 -->
<g id="edge31" class="edge">
<title>Node25&#45;&gt;Node10</title>
<path fill="none" stroke="midnightblue" d="M545.38,-173.86C519.64,-164.55 478.29,-148.78 444,-132 374.03,-97.76 295.74,-48.92 258.69,-25.12"/>
<polygon fill="midnightblue" stroke="midnightblue" points="260.48,-22.12 250.18,-19.64 256.69,-28 260.48,-22.12"/>
</g>
<!-- Node25&#45;&gt;Node17 -->
<g id="edge32" class="edge">
<title>Node25&#45;&gt;Node17</title>
<path fill="none" stroke="midnightblue" d="M579.32,-173.82C600.15,-154.42 650.7,-107.33 677.18,-82.66"/>
<polygon fill="midnightblue" stroke="midnightblue" points="679.64,-85.16 684.57,-75.78 674.87,-80.04 679.64,-85.16"/>
</g>
<!-- Node25&#45;&gt;Node20 -->
<g id="edge33" class="edge">
<title>Node25&#45;&gt;Node20</title>
<path fill="none" stroke="midnightblue" d="M539.91,-173.98C503.11,-163.55 440.69,-145.86 399.91,-134.31"/>
<polygon fill="midnightblue" stroke="midnightblue" points="400.61,-130.87 390.03,-131.51 398.7,-137.6 400.61,-130.87"/>
</g>
<!-- Node26&#45;&gt;Node10 -->
<g id="edge45" class="edge">
<title>Node26&#45;&gt;Node10</title>
<path fill="none" stroke="midnightblue" d="M207.67,-313.9C169.7,-308.9 123.99,-296.36 95,-266 69.31,-239.1 76,-221.69 76,-184.5 76,-184.5 76,-184.5 76,-121 76,-60.92 153.38,-31.27 200.85,-18.74"/>
<polygon fill="midnightblue" stroke="midnightblue" points="201.93,-22.08 210.77,-16.25 200.22,-15.29 201.93,-22.08"/>
</g>
<!-- Node27 -->
<g id="node27" class="node">
<title>Node27</title>
<g id="a_node27"><a xlink:href="ExogenousModel_8h.html" target="_top" xlink:title=" ">
<polygon fill="white" stroke="black" points="302,-241 302,-260 460,-260 460,-241 302,-241"/>
<text text-anchor="middle" x="381" y="-248" font-family="Helvetica,sans-Serif" font-size="10.00">BayesFilters/ExogenousModel.h</text>
</a>
</g>
</g>
<!-- Node26&#45;&gt;Node27 -->
<g id="edge36" class="edge">
<title>Node26&#45;&gt;Node27</title>
<path fill="none" stroke="midnightblue" d="M288.43,-307.73C306.32,-296.87 337.02,-278.22 358.13,-265.39"/>
<polygon fill="midnightblue" stroke="midnightblue" points="360.07,-268.31 366.8,-260.13 356.43,-262.33 360.07,-268.31"/>
</g>
<!-- Node29 -->
<g id="node29" class="node">
<title>Node29</title>
<g id="a_node29"><a xlink:href="Skippable_8h.html" target="_top" xlink:title=" ">
<polygon fill="white" stroke="black" points="150.5,-174 150.5,-193 275.5,-193 275.5,-174 150.5,-174"/>
<text text-anchor="middle" x="213" y="-181" font-family="Helvetica,sans-Serif" font-size="10.00">BayesFilters/Skippable.h</text>
</a>
</g>
</g>
<!-- Node26&#45;&gt;Node29 -->
<g id="edge42" class="edge">
<title>Node26&#45;&gt;Node29</title>
<path fill="none" stroke="midnightblue" d="M273.31,-307.97C271.8,-292.64 267.29,-259.72 255,-235 248.64,-222.21 238.44,-209.84 229.69,-200.54"/>
<polygon fill="midnightblue" stroke="midnightblue" points="232.01,-197.91 222.5,-193.24 227.02,-202.82 232.01,-197.91"/>
</g>
<!-- Node31 -->
<g id="node31" class="node">
<title>Node31</title>
<g id="a_node31"><a xlink:href="StateProcess_8h.html" target="_top" xlink:title=" ">
<polygon fill="white" stroke="black" points="104,-241 104,-260 246,-260 246,-241 104,-241"/>
<text text-anchor="middle" x="175" y="-248" font-family="Helvetica,sans-Serif" font-size="10.00">BayesFilters/StateProcess.h</text>
</a>
</g>
</g>
<!-- Node26&#45;&gt;Node31 -->
<g id="edge43" class="edge">
<title>Node26&#45;&gt;Node31</title>
<path fill="none" stroke="midnightblue" d="M260.65,-307.73C244.25,-296.96 216.2,-278.55 196.69,-265.74"/>
<polygon fill="midnightblue" stroke="midnightblue" points="198.42,-262.69 188.14,-260.13 194.58,-268.54 198.42,-262.69"/>
</g>
<!-- Node28 -->
<g id="node28" class="node">
<title>Node28</title>
<g id="a_node28"><a xlink:href="ExogenousProcess_8h.html" target="_top" xlink:title=" ">
<polygon fill="white" stroke="black" points="293.5,-174 293.5,-193 460.5,-193 460.5,-174 293.5,-174"/>
<text text-anchor="middle" x="377" y="-181" font-family="Helvetica,sans-Serif" font-size="10.00">BayesFilters/ExogenousProcess.h</text>
</a>
</g>
</g>
<!-- Node27&#45;&gt;Node28 -->
<g id="edge37" class="edge">
<title>Node27&#45;&gt;Node28</title>
<path fill="none" stroke="midnightblue" d="M380.46,-240.73C379.87,-231.18 378.91,-215.62 378.16,-203.28"/>
<polygon fill="midnightblue" stroke="midnightblue" points="381.64,-202.89 377.53,-193.13 374.65,-203.32 381.64,-202.89"/>
</g>
<!-- Node27&#45;&gt;Node29 -->
<g id="edge39" class="edge">
<title>Node27&#45;&gt;Node29</title>
<path fill="none" stroke="midnightblue" d="M358.69,-240.87C329.49,-229.57 278.12,-209.7 244.84,-196.82"/>
<polygon fill="midnightblue" stroke="midnightblue" points="245.72,-193.41 235.13,-193.06 243.2,-199.94 245.72,-193.41"/>
</g>
<!-- Node28&#45;&gt;Node20 -->
<g id="edge38" class="edge">
<title>Node28&#45;&gt;Node20</title>
<path fill="none" stroke="midnightblue" d="M374.56,-173.98C372.14,-165.49 368.34,-152.2 365.23,-141.32"/>
<polygon fill="midnightblue" stroke="midnightblue" points="368.54,-140.16 362.43,-131.51 361.81,-142.09 368.54,-140.16"/>
</g>
<!-- Node30 -->
<g id="node30" class="node">
<title>Node30</title>
<g id="a_node30"><a xlink:href="Skipper_8h.html" target="_top" xlink:title=" ">
<polygon fill="white" stroke="black" points="173.5,-112.5 173.5,-131.5 288.5,-131.5 288.5,-112.5 173.5,-112.5"/>
<text text-anchor="middle" x="231" y="-119.5" font-family="Helvetica,sans-Serif" font-size="10.00">BayesFilters/Skipper.h</text>
</a>
</g>
</g>
<!-- Node29&#45;&gt;Node30 -->
<g id="edge40" class="edge">
<title>Node29&#45;&gt;Node30</title>
<path fill="none" stroke="midnightblue" d="M215.58,-173.98C218.15,-165.49 222.17,-152.2 225.46,-141.32"/>
<polygon fill="midnightblue" stroke="midnightblue" points="228.88,-142.09 228.43,-131.51 222.18,-140.07 228.88,-142.09"/>
</g>
<!-- Node30&#45;&gt;Node17 -->
<g id="edge41" class="edge">
<title>Node30&#45;&gt;Node17</title>
<path fill="none" stroke="midnightblue" d="M288.59,-114.71C297.11,-113.79 305.78,-112.87 314,-112 466.75,-95.88 509.61,-106.92 663.41,-75.99"/>
<polygon fill="midnightblue" stroke="midnightblue" points="664.12,-79.42 673.22,-73.99 662.72,-72.56 664.12,-79.42"/>
</g>
<!-- Node31&#45;&gt;Node20 -->
<g id="edge44" class="edge">
<title>Node31&#45;&gt;Node20</title>
<path fill="none" stroke="midnightblue" d="M165.96,-240.79C150.53,-224.89 122.49,-190.69 141,-168 146.46,-161.3 250.3,-142.15 313.01,-131.11"/>
<polygon fill="midnightblue" stroke="midnightblue" points="313.83,-134.52 323.07,-129.34 312.62,-127.62 313.83,-134.52"/>
</g>
</g>
</svg>
