<?xml version="1.0" encoding="UTF-8" standalone="no"?>
<!DOCTYPE svg PUBLIC "-//W3C//DTD SVG 1.1//EN"
 "http://www.w3.org/Graphics/SVG/1.1/DTD/svg11.dtd">
<!-- Generated by graphviz version 2.47.2 (0)
 -->
<!-- Title: /home/xenvre/robot&#45;code/bfl_robotology/src/BayesFilters/include/BayesFilters/SimulatedStateModel.h Pages: 1 -->
<svg width="1142pt" height="341pt"
 viewBox="0.00 0.00 1141.50 341.00" xmlns="http://www.w3.org/2000/svg" xmlns:xlink="http://www.w3.org/1999/xlink">
<g id="graph0" class="graph" transform="scale(1 1) rotate(0) translate(4 337)">
<title>/home/xenvre/robot&#45;code/bfl_robotology/src/BayesFilters/include/BayesFilters/SimulatedStateModel.h</title>
<polygon fill="white" stroke="transparent" points="-4,4 -4,-337 1137.5,-337 1137.5,4 -4,4"/>
<!-- Node1 -->
<g id="node1" class="node">
<title>Node1</title>
<g id="a_node1"><a xlink:title=" ">
<polygon fill="#bfbfbf" stroke="black" points="565,-280.5 565,-332.5 744,-332.5 744,-280.5 565,-280.5"/>
<text text-anchor="start" x="573" y="-320.5" font-family="Helvetica,sans-Serif" font-size="10.00">/home/xenvre/robot</text>
<text text-anchor="start" x="573" y="-309.5" font-family="Helvetica,sans-Serif" font-size="10.00">&#45;code/bfl_robotology</text>
<text text-anchor="start" x="573" y="-298.5" font-family="Helvetica,sans-Serif" font-size="10.00">/src/BayesFilters/include</text>
<text text-anchor="middle" x="654.5" y="-287.5" font-family="Helvetica,sans-Serif" font-size="10.00">/BayesFilters/SimulatedStateModel.h</text>
</a>
</g>
</g>
<!-- Node2 -->
<g id="node2" class="node">
<title>Node2</title>
<g id="a_node2"><a xlink:href="Agent_8h.html" target="_top" xlink:title=" ">
<polygon fill="white" stroke="black" points="253.5,-224.5 253.5,-243.5 361.5,-243.5 361.5,-224.5 253.5,-224.5"/>
<text text-anchor="middle" x="307.5" y="-231.5" font-family="Helvetica,sans-Serif" font-size="10.00">BayesFilters/Agent.h</text>
</a>
</g>
</g>
<!-- Node1&#45;&gt;Node2 -->
<g id="edge1" class="edge">
<title>Node1&#45;&gt;Node2</title>
<path fill="none" stroke="midnightblue" d="M564.69,-287.25C499.6,-274.03 413.86,-256.61 359.69,-245.6"/>
<polygon fill="midnightblue" stroke="midnightblue" points="360.12,-242.12 349.62,-243.56 358.73,-248.98 360.12,-242.12"/>
</g>
<!-- Node6 -->
<g id="node6" class="node">
<title>Node6</title>
<g id="a_node6"><a xlink:title=" ">
<polygon fill="white" stroke="#bfbfbf" points="349.5,-56.5 349.5,-75.5 401.5,-75.5 401.5,-56.5 349.5,-56.5"/>
<text text-anchor="middle" x="375.5" y="-63.5" font-family="Helvetica,sans-Serif" font-size="10.00">memory</text>
</a>
</g>
</g>
<!-- Node1&#45;&gt;Node6 -->
<g id="edge28" class="edge">
<title>Node1&#45;&gt;Node6</title>
<path fill="none" stroke="midnightblue" d="M623.43,-280.41C582.4,-247.09 508.16,-186.14 446.5,-132 427.61,-115.41 406.39,-95.86 392.12,-82.57"/>
<polygon fill="midnightblue" stroke="midnightblue" points="394.28,-79.8 384.58,-75.54 389.5,-84.92 394.28,-79.8"/>
</g>
<!-- Node12 -->
<g id="node12" class="node">
<title>Node12</title>
<g id="a_node12"><a xlink:href="Logger_8h.html" target="_top" xlink:title=" ">
<polygon fill="white" stroke="black" points="934,-224.5 934,-243.5 1045,-243.5 1045,-224.5 934,-224.5"/>
<text text-anchor="middle" x="989.5" y="-231.5" font-family="Helvetica,sans-Serif" font-size="10.00">BayesFilters/Logger.h</text>
</a>
</g>
</g>
<!-- Node1&#45;&gt;Node12 -->
<g id="edge12" class="edge">
<title>Node1&#45;&gt;Node12</title>
<path fill="none" stroke="midnightblue" d="M744.27,-286.61C806.6,-273.49 887.36,-256.49 938.83,-245.66"/>
<polygon fill="midnightblue" stroke="midnightblue" points="939.65,-249.07 948.71,-243.58 938.21,-242.22 939.65,-249.07"/>
</g>
<!-- Node13 -->
<g id="node13" class="node">
<title>Node13</title>
<g id="a_node13"><a xlink:title=" ">
<polygon fill="white" stroke="#bfbfbf" points="901.5,-168.5 901.5,-187.5 951.5,-187.5 951.5,-168.5 901.5,-168.5"/>
<text text-anchor="middle" x="926.5" y="-175.5" font-family="Helvetica,sans-Serif" font-size="10.00">fstream</text>
</a>
</g>
</g>
<!-- Node1&#45;&gt;Node13 -->
<g id="edge29" class="edge">
<title>Node1&#45;&gt;Node13</title>
<path fill="none" stroke="midnightblue" d="M708.56,-280.36C765.89,-253.7 854.18,-212.63 898.74,-191.91"/>
<polygon fill="midnightblue" stroke="midnightblue" points="900.48,-194.96 908.07,-187.57 897.53,-188.62 900.48,-194.96"/>
</g>
<!-- Node16 -->
<g id="node16" class="node">
<title>Node16</title>
<g id="a_node16"><a xlink:href="StateModel_8h.html" target="_top" xlink:title=" ">
<polygon fill="white" stroke="black" points="588.5,-224.5 588.5,-243.5 720.5,-243.5 720.5,-224.5 588.5,-224.5"/>
<text text-anchor="middle" x="654.5" y="-231.5" font-family="Helvetica,sans-Serif" font-size="10.00">BayesFilters/StateModel.h</text>
</a>
</g>
</g>
<!-- Node1&#45;&gt;Node16 -->
<g id="edge17" class="edge">
<title>Node1&#45;&gt;Node16</title>
<path fill="none" stroke="midnightblue" d="M654.5,-280.45C654.5,-271.73 654.5,-262.1 654.5,-253.96"/>
<polygon fill="midnightblue" stroke="midnightblue" points="658,-253.7 654.5,-243.7 651,-253.7 658,-253.7"/>
</g>
<!-- Node3 -->
<g id="node3" class="node">
<title>Node3</title>
<g id="a_node3"><a xlink:href="Data_8h.html" target="_top" xlink:title=" ">
<polygon fill="white" stroke="black" points="165.5,-168.5 165.5,-187.5 269.5,-187.5 269.5,-168.5 165.5,-168.5"/>
<text text-anchor="middle" x="217.5" y="-175.5" font-family="Helvetica,sans-Serif" font-size="10.00">BayesFilters/Data.h</text>
</a>
</g>
</g>
<!-- Node2&#45;&gt;Node3 -->
<g id="edge2" class="edge">
<title>Node2&#45;&gt;Node3</title>
<path fill="none" stroke="midnightblue" d="M293.04,-224.32C279,-215.9 257.45,-202.97 240.96,-193.07"/>
<polygon fill="midnightblue" stroke="midnightblue" points="242.3,-189.8 231.92,-187.65 238.7,-195.8 242.3,-189.8"/>
</g>
<!-- Node2&#45;&gt;Node6 -->
<g id="edge9" class="edge">
<title>Node2&#45;&gt;Node6</title>
<path fill="none" stroke="midnightblue" d="M311.16,-224.08C321.91,-197.83 353.57,-120.55 368.08,-85.12"/>
<polygon fill="midnightblue" stroke="midnightblue" points="371.44,-86.15 371.99,-75.57 364.96,-83.5 371.44,-86.15"/>
</g>
<!-- Node10 -->
<g id="node10" class="node">
<title>Node10</title>
<g id="a_node10"><a xlink:title=" ">
<polygon fill="white" stroke="#bfbfbf" points="878,-0.5 878,-19.5 919,-19.5 919,-0.5 878,-0.5"/>
<text text-anchor="middle" x="898.5" y="-7.5" font-family="Helvetica,sans-Serif" font-size="10.00">string</text>
</a>
</g>
</g>
<!-- Node2&#45;&gt;Node10 -->
<g id="edge10" class="edge">
<title>Node2&#45;&gt;Node10</title>
<path fill="none" stroke="midnightblue" d="M305.93,-224.3C301.23,-195.26 290.58,-100.99 340.5,-56 379.8,-20.58 755.95,-12.86 867.48,-11.34"/>
<polygon fill="midnightblue" stroke="midnightblue" points="867.77,-14.84 877.72,-11.21 867.68,-7.84 867.77,-14.84"/>
</g>
<!-- Node11 -->
<g id="node11" class="node">
<title>Node11</title>
<g id="a_node11"><a xlink:title=" ">
<polygon fill="white" stroke="#bfbfbf" points="525,-56.5 525,-75.5 598,-75.5 598,-56.5 525,-56.5"/>
<text text-anchor="middle" x="561.5" y="-63.5" font-family="Helvetica,sans-Serif" font-size="10.00">Eigen/Dense</text>
</a>
</g>
</g>
<!-- Node2&#45;&gt;Node11 -->
<g id="edge11" class="edge">
<title>Node2&#45;&gt;Node11</title>
<path fill="none" stroke="midnightblue" d="M319.05,-224.39C346.6,-203.99 418.53,-151.48 481.5,-112 499.39,-100.78 520.19,-89.12 536.1,-80.48"/>
<polygon fill="midnightblue" stroke="midnightblue" points="538.16,-83.35 545.3,-75.52 534.84,-77.19 538.16,-83.35"/>
</g>
<!-- Node4 -->
<g id="node4" class="node">
<title>Node4</title>
<g id="a_node4"><a xlink:href="any_8h.html" target="_top" xlink:title=" ">
<polygon fill="white" stroke="black" points="143,-112.5 143,-131.5 240,-131.5 240,-112.5 143,-112.5"/>
<text text-anchor="middle" x="191.5" y="-119.5" font-family="Helvetica,sans-Serif" font-size="10.00">BayesFilters/any.h</text>
</a>
</g>
</g>
<!-- Node3&#45;&gt;Node4 -->
<g id="edge3" class="edge">
<title>Node3&#45;&gt;Node4</title>
<path fill="none" stroke="midnightblue" d="M213.21,-168.08C209.65,-160.69 204.48,-149.95 200.08,-140.81"/>
<polygon fill="midnightblue" stroke="midnightblue" points="203.21,-139.24 195.71,-131.75 196.9,-142.28 203.21,-139.24"/>
</g>
<!-- Node5 -->
<g id="node5" class="node">
<title>Node5</title>
<g id="a_node5"><a xlink:title=" ">
<polygon fill="white" stroke="#bfbfbf" points="226.5,-56.5 226.5,-75.5 282.5,-75.5 282.5,-56.5 226.5,-56.5"/>
<text text-anchor="middle" x="254.5" y="-63.5" font-family="Helvetica,sans-Serif" font-size="10.00">algorithm</text>
</a>
</g>
</g>
<!-- Node4&#45;&gt;Node5 -->
<g id="edge4" class="edge">
<title>Node4&#45;&gt;Node5</title>
<path fill="none" stroke="midnightblue" d="M201.62,-112.32C211.03,-104.26 225.24,-92.08 236.57,-82.37"/>
<polygon fill="midnightblue" stroke="midnightblue" points="238.88,-85 244.19,-75.83 234.32,-79.68 238.88,-85"/>
</g>
<!-- Node4&#45;&gt;Node6 -->
<g id="edge5" class="edge">
<title>Node4&#45;&gt;Node6</title>
<path fill="none" stroke="midnightblue" d="M220.66,-112.44C252.94,-102.97 304.99,-87.69 339.71,-77.5"/>
<polygon fill="midnightblue" stroke="midnightblue" points="340.85,-80.82 349.46,-74.64 338.88,-74.1 340.85,-80.82"/>
</g>
<!-- Node7 -->
<g id="node7" class="node">
<title>Node7</title>
<g id="a_node7"><a xlink:title=" ">
<polygon fill="white" stroke="#bfbfbf" points="0,-56.5 0,-75.5 59,-75.5 59,-56.5 0,-56.5"/>
<text text-anchor="middle" x="29.5" y="-63.5" font-family="Helvetica,sans-Serif" font-size="10.00">stdexcept</text>
</a>
</g>
</g>
<!-- Node4&#45;&gt;Node7 -->
<g id="edge6" class="edge">
<title>Node4&#45;&gt;Node7</title>
<path fill="none" stroke="midnightblue" d="M165.83,-112.44C138.58,-103.36 95.32,-88.94 64.85,-78.78"/>
<polygon fill="midnightblue" stroke="midnightblue" points="65.64,-75.36 55.05,-75.52 63.43,-82 65.64,-75.36"/>
</g>
<!-- Node8 -->
<g id="node8" class="node">
<title>Node8</title>
<g id="a_node8"><a xlink:title=" ">
<polygon fill="white" stroke="#bfbfbf" points="77,-56.5 77,-75.5 128,-75.5 128,-56.5 77,-56.5"/>
<text text-anchor="middle" x="102.5" y="-63.5" font-family="Helvetica,sans-Serif" font-size="10.00">typeinfo</text>
</a>
</g>
</g>
<!-- Node4&#45;&gt;Node8 -->
<g id="edge7" class="edge">
<title>Node4&#45;&gt;Node8</title>
<path fill="none" stroke="midnightblue" d="M177.2,-112.32C163.32,-103.9 142.01,-90.97 125.7,-81.07"/>
<polygon fill="midnightblue" stroke="midnightblue" points="127.13,-77.85 116.76,-75.65 123.5,-83.83 127.13,-77.85"/>
</g>
<!-- Node9 -->
<g id="node9" class="node">
<title>Node9</title>
<g id="a_node9"><a xlink:title=" ">
<polygon fill="white" stroke="#bfbfbf" points="146.5,-56.5 146.5,-75.5 208.5,-75.5 208.5,-56.5 146.5,-56.5"/>
<text text-anchor="middle" x="177.5" y="-63.5" font-family="Helvetica,sans-Serif" font-size="10.00">type_traits</text>
</a>
</g>
</g>
<!-- Node4&#45;&gt;Node9 -->
<g id="edge8" class="edge">
<title>Node4&#45;&gt;Node9</title>
<path fill="none" stroke="midnightblue" d="M189.19,-112.08C187.33,-104.93 184.66,-94.64 182.35,-85.69"/>
<polygon fill="midnightblue" stroke="midnightblue" points="185.67,-84.55 179.77,-75.75 178.89,-86.31 185.67,-84.55"/>
</g>
<!-- Node12&#45;&gt;Node10 -->
<g id="edge15" class="edge">
<title>Node12&#45;&gt;Node10</title>
<path fill="none" stroke="midnightblue" d="M990.65,-224.44C993.85,-197.37 1000.42,-112.07 965.5,-56 956.77,-41.99 941.89,-31.34 928.36,-23.93"/>
<polygon fill="midnightblue" stroke="midnightblue" points="929.81,-20.74 919.31,-19.32 926.63,-26.98 929.81,-20.74"/>
</g>
<!-- Node12&#45;&gt;Node13 -->
<g id="edge13" class="edge">
<title>Node12&#45;&gt;Node13</title>
<path fill="none" stroke="midnightblue" d="M979.38,-224.32C969.97,-216.26 955.76,-204.08 944.43,-194.37"/>
<polygon fill="midnightblue" stroke="midnightblue" points="946.68,-191.68 936.81,-187.83 942.12,-197 946.68,-191.68"/>
</g>
<!-- Node14 -->
<g id="node14" class="node">
<title>Node14</title>
<g id="a_node14"><a xlink:title=" ">
<polygon fill="white" stroke="#bfbfbf" points="1017.5,-168.5 1017.5,-187.5 1071.5,-187.5 1071.5,-168.5 1017.5,-168.5"/>
<text text-anchor="middle" x="1044.5" y="-175.5" font-family="Helvetica,sans-Serif" font-size="10.00">iostream</text>
</a>
</g>
</g>
<!-- Node12&#45;&gt;Node14 -->
<g id="edge14" class="edge">
<title>Node12&#45;&gt;Node14</title>
<path fill="none" stroke="midnightblue" d="M998.58,-224.08C1006.67,-216.14 1018.7,-204.34 1028.41,-194.8"/>
<polygon fill="midnightblue" stroke="midnightblue" points="1030.9,-197.25 1035.59,-187.75 1026,-192.26 1030.9,-197.25"/>
</g>
<!-- Node15 -->
<g id="node15" class="node">
<title>Node15</title>
<g id="a_node15"><a xlink:title=" ">
<polygon fill="white" stroke="#bfbfbf" points="1089.5,-168.5 1089.5,-187.5 1133.5,-187.5 1133.5,-168.5 1089.5,-168.5"/>
<text text-anchor="middle" x="1111.5" y="-175.5" font-family="Helvetica,sans-Serif" font-size="10.00">vector</text>
</a>
</g>
</g>
<!-- Node12&#45;&gt;Node15 -->
<g id="edge16" class="edge">
<title>Node12&#45;&gt;Node15</title>
<path fill="none" stroke="midnightblue" d="M1008.83,-224.44C1028.82,-215.6 1060.24,-201.69 1083.06,-191.59"/>
<polygon fill="midnightblue" stroke="midnightblue" points="1084.53,-194.76 1092.26,-187.52 1081.7,-188.36 1084.53,-194.76"/>
</g>
<!-- Node16&#45;&gt;Node6 -->
<g id="edge27" class="edge">
<title>Node16&#45;&gt;Node6</title>
<path fill="none" stroke="midnightblue" d="M639.63,-224.46C609.61,-207.2 539.69,-166.82 481.5,-132 452.46,-114.62 419.22,-94.15 397.83,-80.89"/>
<polygon fill="midnightblue" stroke="midnightblue" points="399.51,-77.81 389.16,-75.51 395.82,-83.76 399.51,-77.81"/>
</g>
<!-- Node17 -->
<g id="node17" class="node">
<title>Node17</title>
<g id="a_node17"><a xlink:href="ExogenousModel_8h.html" target="_top" xlink:title=" ">
<polygon fill="white" stroke="black" points="655.5,-168.5 655.5,-187.5 813.5,-187.5 813.5,-168.5 655.5,-168.5"/>
<text text-anchor="middle" x="734.5" y="-175.5" font-family="Helvetica,sans-Serif" font-size="10.00">BayesFilters/ExogenousModel.h</text>
</a>
</g>
</g>
<!-- Node16&#45;&gt;Node17 -->
<g id="edge18" class="edge">
<title>Node16&#45;&gt;Node17</title>
<path fill="none" stroke="midnightblue" d="M667.35,-224.32C679.72,-215.98 698.63,-203.21 713.24,-193.35"/>
<polygon fill="midnightblue" stroke="midnightblue" points="715.35,-196.15 721.68,-187.65 711.43,-190.35 715.35,-196.15"/>
</g>
<!-- Node19 -->
<g id="node19" class="node">
<title>Node19</title>
<g id="a_node19"><a xlink:href="Skippable_8h.html" target="_top" xlink:title=" ">
<polygon fill="white" stroke="black" points="836,-112.5 836,-131.5 961,-131.5 961,-112.5 836,-112.5"/>
<text text-anchor="middle" x="898.5" y="-119.5" font-family="Helvetica,sans-Serif" font-size="10.00">BayesFilters/Skippable.h</text>
</a>
</g>
</g>
<!-- Node16&#45;&gt;Node19 -->
<g id="edge24" class="edge">
<title>Node16&#45;&gt;Node19</title>
<path fill="none" stroke="midnightblue" d="M710.51,-224.47C744.33,-217.78 787.5,-206.43 822.5,-188 846.61,-175.31 869.72,-153.75 884,-138.96"/>
<polygon fill="midnightblue" stroke="midnightblue" points="886.67,-141.23 890.97,-131.55 881.57,-136.44 886.67,-141.23"/>
</g>
<!-- Node21 -->
<g id="node21" class="node">
<title>Node21</title>
<g id="a_node21"><a xlink:href="StateProcess_8h.html" target="_top" xlink:title=" ">
<polygon fill="white" stroke="black" points="490.5,-112.5 490.5,-131.5 632.5,-131.5 632.5,-112.5 490.5,-112.5"/>
<text text-anchor="middle" x="561.5" y="-119.5" font-family="Helvetica,sans-Serif" font-size="10.00">BayesFilters/StateProcess.h</text>
</a>
</g>
</g>
<!-- Node16&#45;&gt;Node21 -->
<g id="edge25" class="edge">
<title>Node16&#45;&gt;Node21</title>
<path fill="none" stroke="midnightblue" d="M647.2,-224.37C631.72,-206.05 595.36,-163.05 575.33,-139.36"/>
<polygon fill="midnightblue" stroke="midnightblue" points="577.89,-136.97 568.76,-131.59 572.55,-141.49 577.89,-136.97"/>
</g>
<!-- Node18 -->
<g id="node18" class="node">
<title>Node18</title>
<g id="a_node18"><a xlink:href="ExogenousProcess_8h.html" target="_top" xlink:title=" ">
<polygon fill="white" stroke="black" points="651,-112.5 651,-131.5 818,-131.5 818,-112.5 651,-112.5"/>
<text text-anchor="middle" x="734.5" y="-119.5" font-family="Helvetica,sans-Serif" font-size="10.00">BayesFilters/ExogenousProcess.h</text>
</a>
</g>
</g>
<!-- Node17&#45;&gt;Node18 -->
<g id="edge19" class="edge">
<title>Node17&#45;&gt;Node18</title>
<path fill="none" stroke="midnightblue" d="M734.5,-168.08C734.5,-161.01 734.5,-150.86 734.5,-141.99"/>
<polygon fill="midnightblue" stroke="midnightblue" points="738,-141.75 734.5,-131.75 731,-141.75 738,-141.75"/>
</g>
<!-- Node17&#45;&gt;Node19 -->
<g id="edge21" class="edge">
<title>Node17&#45;&gt;Node19</title>
<path fill="none" stroke="midnightblue" d="M760.49,-168.44C788.2,-159.32 832.25,-144.81 863.12,-134.65"/>
<polygon fill="midnightblue" stroke="midnightblue" points="864.23,-137.97 872.64,-131.52 862.04,-131.32 864.23,-137.97"/>
</g>
<!-- Node18&#45;&gt;Node11 -->
<g id="edge20" class="edge">
<title>Node18&#45;&gt;Node11</title>
<path fill="none" stroke="midnightblue" d="M707.09,-112.44C677.73,-103.28 630.98,-88.69 598.4,-78.52"/>
<polygon fill="midnightblue" stroke="midnightblue" points="599.37,-75.16 588.78,-75.52 597.29,-81.84 599.37,-75.16"/>
</g>
<!-- Node20 -->
<g id="node20" class="node">
<title>Node20</title>
<g id="a_node20"><a xlink:href="Skipper_8h.html" target="_top" xlink:title=" ">
<polygon fill="white" stroke="black" points="841,-56.5 841,-75.5 956,-75.5 956,-56.5 841,-56.5"/>
<text text-anchor="middle" x="898.5" y="-63.5" font-family="Helvetica,sans-Serif" font-size="10.00">BayesFilters/Skipper.h</text>
</a>
</g>
</g>
<!-- Node19&#45;&gt;Node20 -->
<g id="edge22" class="edge">
<title>Node19&#45;&gt;Node20</title>
<path fill="none" stroke="midnightblue" d="M898.5,-112.08C898.5,-105.01 898.5,-94.86 898.5,-85.99"/>
<polygon fill="midnightblue" stroke="midnightblue" points="902,-85.75 898.5,-75.75 895,-85.75 902,-85.75"/>
</g>
<!-- Node20&#45;&gt;Node10 -->
<g id="edge23" class="edge">
<title>Node20&#45;&gt;Node10</title>
<path fill="none" stroke="midnightblue" d="M898.5,-56.08C898.5,-49.01 898.5,-38.86 898.5,-29.99"/>
<polygon fill="midnightblue" stroke="midnightblue" points="902,-29.75 898.5,-19.75 895,-29.75 902,-29.75"/>
</g>
<!-- Node21&#45;&gt;Node11 -->
<g id="edge26" class="edge">
<title>Node21&#45;&gt;Node11</title>
<path fill="none" stroke="midnightblue" d="M561.5,-112.08C561.5,-105.01 561.5,-94.86 561.5,-85.99"/>
<polygon fill="midnightblue" stroke="midnightblue" points="565,-85.75 561.5,-75.75 558,-85.75 565,-85.75"/>
</g>
</g>
</svg>
