<?xml version="1.0" encoding="UTF-8" standalone="no"?>
<!DOCTYPE svg PUBLIC "-//W3C//DTD SVG 1.1//EN"
 "http://www.w3.org/Graphics/SVG/1.1/DTD/svg11.dtd">
<!-- Generated by graphviz version 2.47.2 (0)
 -->
<!-- Title: /home/xenvre/robot&#45;code/bfl_robotology/src/BayesFilters/src/SimulatedStateModel.cpp Pages: 1 -->
<svg width="1118pt" height="408pt"
 viewBox="0.00 0.00 1118.47 408.00" xmlns="http://www.w3.org/2000/svg" xmlns:xlink="http://www.w3.org/1999/xlink">
<g id="graph0" class="graph" transform="scale(1 1) rotate(0) translate(4 404)">
<title>/home/xenvre/robot&#45;code/bfl_robotology/src/BayesFilters/src/SimulatedStateModel.cpp</title>
<polygon fill="white" stroke="transparent" points="-4,4 -4,-404 1114.47,-404 1114.47,4 -4,4"/>
<!-- Node1 -->
<g id="node1" class="node">
<title>Node1</title>
<g id="a_node1"><a xlink:title=" ">
<polygon fill="#bfbfbf" stroke="black" points="38.5,-347.5 38.5,-399.5 169.5,-399.5 169.5,-347.5 38.5,-347.5"/>
<text text-anchor="start" x="46.5" y="-387.5" font-family="Helvetica,sans-Serif" font-size="10.00">/home/xenvre/robot</text>
<text text-anchor="start" x="46.5" y="-376.5" font-family="Helvetica,sans-Serif" font-size="10.00">&#45;code/bfl_robotology</text>
<text text-anchor="start" x="46.5" y="-365.5" font-family="Helvetica,sans-Serif" font-size="10.00">/src/BayesFilters/src</text>
<text text-anchor="middle" x="104" y="-354.5" font-family="Helvetica,sans-Serif" font-size="10.00">/SimulatedStateModel.cpp</text>
</a>
</g>
</g>
<!-- Node2 -->
<g id="node2" class="node">
<title>Node2</title>
<g id="a_node2"><a xlink:href="SimulatedStateModel_8h.html" target="_top" xlink:title=" ">
<polygon fill="white" stroke="black" points="253.5,-280.5 253.5,-310.5 394.5,-310.5 394.5,-280.5 253.5,-280.5"/>
<text text-anchor="start" x="261.5" y="-298.5" font-family="Helvetica,sans-Serif" font-size="10.00">BayesFilters/SimulatedState</text>
<text text-anchor="middle" x="324" y="-287.5" font-family="Helvetica,sans-Serif" font-size="10.00">Model.h</text>
</a>
</g>
</g>
<!-- Node1&#45;&gt;Node2 -->
<g id="edge1" class="edge">
<title>Node1&#45;&gt;Node2</title>
<path fill="none" stroke="midnightblue" d="M169.71,-349.8C202.96,-338.32 242.68,-324.59 273.5,-313.95"/>
<polygon fill="midnightblue" stroke="midnightblue" points="274.86,-317.18 283.17,-310.6 272.58,-310.56 274.86,-317.18"/>
</g>
<!-- Node15 -->
<g id="node15" class="node">
<title>Node15</title>
<g id="a_node15"><a xlink:title=" ">
<polygon fill="white" stroke="#bfbfbf" points="0,-168.5 0,-187.5 54,-187.5 54,-168.5 0,-168.5"/>
<text text-anchor="middle" x="27" y="-175.5" font-family="Helvetica,sans-Serif" font-size="10.00">iostream</text>
</a>
</g>
</g>
<!-- Node1&#45;&gt;Node15 -->
<g id="edge31" class="edge">
<title>Node1&#45;&gt;Node15</title>
<path fill="none" stroke="midnightblue" d="M93.93,-347.2C78.12,-307.47 47.85,-231.4 34.11,-196.86"/>
<polygon fill="midnightblue" stroke="midnightblue" points="37.35,-195.55 30.4,-187.56 30.85,-198.14 37.35,-195.55"/>
</g>
<!-- Node3 -->
<g id="node3" class="node">
<title>Node3</title>
<g id="a_node3"><a xlink:href="Agent_8h.html" target="_top" xlink:title=" ">
<polygon fill="white" stroke="black" points="799,-224.5 799,-243.5 907,-243.5 907,-224.5 799,-224.5"/>
<text text-anchor="middle" x="853" y="-231.5" font-family="Helvetica,sans-Serif" font-size="10.00">BayesFilters/Agent.h</text>
</a>
</g>
</g>
<!-- Node2&#45;&gt;Node3 -->
<g id="edge2" class="edge">
<title>Node2&#45;&gt;Node3</title>
<path fill="none" stroke="midnightblue" d="M394.52,-286.57C497.9,-274.94 689.07,-253.44 788.75,-242.23"/>
<polygon fill="midnightblue" stroke="midnightblue" points="789.44,-245.67 798.99,-241.08 788.66,-238.72 789.44,-245.67"/>
</g>
<!-- Node7 -->
<g id="node7" class="node">
<title>Node7</title>
<g id="a_node7"><a xlink:title=" ">
<polygon fill="white" stroke="#bfbfbf" points="732,-56.5 732,-75.5 784,-75.5 784,-56.5 732,-56.5"/>
<text text-anchor="middle" x="758" y="-63.5" font-family="Helvetica,sans-Serif" font-size="10.00">memory</text>
</a>
</g>
</g>
<!-- Node2&#45;&gt;Node7 -->
<g id="edge29" class="edge">
<title>Node2&#45;&gt;Node7</title>
<path fill="none" stroke="midnightblue" d="M394.96,-282.13C434.92,-273.88 485.23,-261.35 528,-244 619.55,-206.86 650.11,-201.82 720,-132 733.41,-118.6 743.82,-99.52 750.33,-85.5"/>
<polygon fill="midnightblue" stroke="midnightblue" points="753.71,-86.5 754.53,-75.94 747.3,-83.69 753.71,-86.5"/>
</g>
<!-- Node13 -->
<g id="node13" class="node">
<title>Node13</title>
<g id="a_node13"><a xlink:href="Logger_8h.html" target="_top" xlink:title=" ">
<polygon fill="white" stroke="black" points="125.5,-224.5 125.5,-243.5 236.5,-243.5 236.5,-224.5 125.5,-224.5"/>
<text text-anchor="middle" x="181" y="-231.5" font-family="Helvetica,sans-Serif" font-size="10.00">BayesFilters/Logger.h</text>
</a>
</g>
</g>
<!-- Node2&#45;&gt;Node13 -->
<g id="edge13" class="edge">
<title>Node2&#45;&gt;Node13</title>
<path fill="none" stroke="midnightblue" d="M290.11,-280.4C266.12,-270.42 234.23,-257.15 211.12,-247.53"/>
<polygon fill="midnightblue" stroke="midnightblue" points="212.39,-244.27 201.81,-243.66 209.7,-250.73 212.39,-244.27"/>
</g>
<!-- Node14 -->
<g id="node14" class="node">
<title>Node14</title>
<g id="a_node14"><a xlink:title=" ">
<polygon fill="white" stroke="#bfbfbf" points="72,-168.5 72,-187.5 122,-187.5 122,-168.5 72,-168.5"/>
<text text-anchor="middle" x="97" y="-175.5" font-family="Helvetica,sans-Serif" font-size="10.00">fstream</text>
</a>
</g>
</g>
<!-- Node2&#45;&gt;Node14 -->
<g id="edge30" class="edge">
<title>Node2&#45;&gt;Node14</title>
<path fill="none" stroke="midnightblue" d="M253.46,-285.05C201.18,-276.67 135.72,-262.83 116,-244 103.52,-232.08 99.1,-212.47 97.61,-197.9"/>
<polygon fill="midnightblue" stroke="midnightblue" points="101.08,-197.29 96.94,-187.53 94.09,-197.74 101.08,-197.29"/>
</g>
<!-- Node17 -->
<g id="node17" class="node">
<title>Node17</title>
<g id="a_node17"><a xlink:href="StateModel_8h.html" target="_top" xlink:title=" ">
<polygon fill="white" stroke="black" points="387,-224.5 387,-243.5 519,-243.5 519,-224.5 387,-224.5"/>
<text text-anchor="middle" x="453" y="-231.5" font-family="Helvetica,sans-Serif" font-size="10.00">BayesFilters/StateModel.h</text>
</a>
</g>
</g>
<!-- Node2&#45;&gt;Node17 -->
<g id="edge18" class="edge">
<title>Node2&#45;&gt;Node17</title>
<path fill="none" stroke="midnightblue" d="M354.57,-280.4C375.93,-270.55 404.22,-257.5 424.98,-247.92"/>
<polygon fill="midnightblue" stroke="midnightblue" points="426.61,-251.02 434.23,-243.66 423.68,-244.67 426.61,-251.02"/>
</g>
<!-- Node4 -->
<g id="node4" class="node">
<title>Node4</title>
<g id="a_node4"><a xlink:href="Data_8h.html" target="_top" xlink:title=" ">
<polygon fill="white" stroke="black" points="881,-168.5 881,-187.5 985,-187.5 985,-168.5 881,-168.5"/>
<text text-anchor="middle" x="933" y="-175.5" font-family="Helvetica,sans-Serif" font-size="10.00">BayesFilters/Data.h</text>
</a>
</g>
</g>
<!-- Node3&#45;&gt;Node4 -->
<g id="edge3" class="edge">
<title>Node3&#45;&gt;Node4</title>
<path fill="none" stroke="midnightblue" d="M865.85,-224.32C878.22,-215.98 897.13,-203.21 911.74,-193.35"/>
<polygon fill="midnightblue" stroke="midnightblue" points="913.85,-196.15 920.18,-187.65 909.93,-190.35 913.85,-196.15"/>
</g>
<!-- Node3&#45;&gt;Node7 -->
<g id="edge10" class="edge">
<title>Node3&#45;&gt;Node7</title>
<path fill="none" stroke="midnightblue" d="M853.5,-224.2C854.27,-202.93 853.58,-147.86 829,-112 819.32,-97.88 803.61,-87.25 789.42,-79.88"/>
<polygon fill="midnightblue" stroke="midnightblue" points="790.92,-76.72 780.39,-75.5 787.86,-83.01 790.92,-76.72"/>
</g>
<!-- Node11 -->
<g id="node11" class="node">
<title>Node11</title>
<g id="a_node11"><a xlink:title=" ">
<polygon fill="white" stroke="#bfbfbf" points="282.5,-0.5 282.5,-19.5 323.5,-19.5 323.5,-0.5 282.5,-0.5"/>
<text text-anchor="middle" x="303" y="-7.5" font-family="Helvetica,sans-Serif" font-size="10.00">string</text>
</a>
</g>
</g>
<!-- Node3&#45;&gt;Node11 -->
<g id="edge11" class="edge">
<title>Node3&#45;&gt;Node11</title>
<path fill="none" stroke="midnightblue" d="M900.14,-224.5C928.9,-217.78 965.5,-206.39 994,-188 1056.07,-147.95 1145.73,-109.7 1095,-56 1068.41,-27.86 477.33,-14.43 334.07,-11.59"/>
<polygon fill="midnightblue" stroke="midnightblue" points="333.87,-8.08 323.8,-11.38 333.73,-15.08 333.87,-8.08"/>
</g>
<!-- Node12 -->
<g id="node12" class="node">
<title>Node12</title>
<g id="a_node12"><a xlink:title=" ">
<polygon fill="white" stroke="#bfbfbf" points="603.5,-56.5 603.5,-75.5 676.5,-75.5 676.5,-56.5 603.5,-56.5"/>
<text text-anchor="middle" x="640" y="-63.5" font-family="Helvetica,sans-Serif" font-size="10.00">Eigen/Dense</text>
</a>
</g>
</g>
<!-- Node3&#45;&gt;Node12 -->
<g id="edge12" class="edge">
<title>Node3&#45;&gt;Node12</title>
<path fill="none" stroke="midnightblue" d="M844.87,-224.36C824.9,-203.44 771.38,-149.09 720,-112 703.31,-99.95 683.09,-88.6 667.16,-80.32"/>
<polygon fill="midnightblue" stroke="midnightblue" points="668.36,-77 657.86,-75.57 665.18,-83.24 668.36,-77"/>
</g>
<!-- Node5 -->
<g id="node5" class="node">
<title>Node5</title>
<g id="a_node5"><a xlink:href="any_8h.html" target="_top" xlink:title=" ">
<polygon fill="white" stroke="black" points="883.5,-112.5 883.5,-131.5 980.5,-131.5 980.5,-112.5 883.5,-112.5"/>
<text text-anchor="middle" x="932" y="-119.5" font-family="Helvetica,sans-Serif" font-size="10.00">BayesFilters/any.h</text>
</a>
</g>
</g>
<!-- Node4&#45;&gt;Node5 -->
<g id="edge4" class="edge">
<title>Node4&#45;&gt;Node5</title>
<path fill="none" stroke="midnightblue" d="M932.83,-168.08C932.7,-161.01 932.52,-150.86 932.35,-141.99"/>
<polygon fill="midnightblue" stroke="midnightblue" points="935.85,-141.68 932.16,-131.75 928.85,-141.81 935.85,-141.68"/>
</g>
<!-- Node6 -->
<g id="node6" class="node">
<title>Node6</title>
<g id="a_node6"><a xlink:title=" ">
<polygon fill="white" stroke="#bfbfbf" points="952,-56.5 952,-75.5 1008,-75.5 1008,-56.5 952,-56.5"/>
<text text-anchor="middle" x="980" y="-63.5" font-family="Helvetica,sans-Serif" font-size="10.00">algorithm</text>
</a>
</g>
</g>
<!-- Node5&#45;&gt;Node6 -->
<g id="edge5" class="edge">
<title>Node5&#45;&gt;Node6</title>
<path fill="none" stroke="midnightblue" d="M939.93,-112.08C946.85,-104.3 957.07,-92.8 965.45,-83.37"/>
<polygon fill="midnightblue" stroke="midnightblue" points="968.19,-85.55 972.22,-75.75 962.96,-80.9 968.19,-85.55"/>
</g>
<!-- Node5&#45;&gt;Node7 -->
<g id="edge6" class="edge">
<title>Node5&#45;&gt;Node7</title>
<path fill="none" stroke="midnightblue" d="M904.43,-112.44C874.47,-103.15 826.5,-88.26 793.68,-78.07"/>
<polygon fill="midnightblue" stroke="midnightblue" points="794.61,-74.7 784.02,-75.08 792.53,-81.38 794.61,-74.7"/>
</g>
<!-- Node8 -->
<g id="node8" class="node">
<title>Node8</title>
<g id="a_node8"><a xlink:title=" ">
<polygon fill="white" stroke="#bfbfbf" points="1026.5,-56.5 1026.5,-75.5 1085.5,-75.5 1085.5,-56.5 1026.5,-56.5"/>
<text text-anchor="middle" x="1056" y="-63.5" font-family="Helvetica,sans-Serif" font-size="10.00">stdexcept</text>
</a>
</g>
</g>
<!-- Node5&#45;&gt;Node8 -->
<g id="edge7" class="edge">
<title>Node5&#45;&gt;Node8</title>
<path fill="none" stroke="midnightblue" d="M951.65,-112.44C971.96,-103.6 1003.9,-89.69 1027.1,-79.59"/>
<polygon fill="midnightblue" stroke="midnightblue" points="1028.67,-82.72 1036.44,-75.52 1025.88,-76.3 1028.67,-82.72"/>
</g>
<!-- Node9 -->
<g id="node9" class="node">
<title>Node9</title>
<g id="a_node9"><a xlink:title=" ">
<polygon fill="white" stroke="#bfbfbf" points="802.5,-56.5 802.5,-75.5 853.5,-75.5 853.5,-56.5 802.5,-56.5"/>
<text text-anchor="middle" x="828" y="-63.5" font-family="Helvetica,sans-Serif" font-size="10.00">typeinfo</text>
</a>
</g>
</g>
<!-- Node5&#45;&gt;Node9 -->
<g id="edge8" class="edge">
<title>Node5&#45;&gt;Node9</title>
<path fill="none" stroke="midnightblue" d="M915.29,-112.32C898.69,-103.7 873,-90.36 853.78,-80.39"/>
<polygon fill="midnightblue" stroke="midnightblue" points="855.16,-77.16 844.67,-75.65 851.93,-83.37 855.16,-77.16"/>
</g>
<!-- Node10 -->
<g id="node10" class="node">
<title>Node10</title>
<g id="a_node10"><a xlink:title=" ">
<polygon fill="white" stroke="#bfbfbf" points="872,-56.5 872,-75.5 934,-75.5 934,-56.5 872,-56.5"/>
<text text-anchor="middle" x="903" y="-63.5" font-family="Helvetica,sans-Serif" font-size="10.00">type_traits</text>
</a>
</g>
</g>
<!-- Node5&#45;&gt;Node10 -->
<g id="edge9" class="edge">
<title>Node5&#45;&gt;Node10</title>
<path fill="none" stroke="midnightblue" d="M927.21,-112.08C923.24,-104.69 917.47,-93.95 912.57,-84.81"/>
<polygon fill="midnightblue" stroke="midnightblue" points="915.51,-82.91 907.7,-75.75 909.35,-86.22 915.51,-82.91"/>
</g>
<!-- Node13&#45;&gt;Node11 -->
<g id="edge16" class="edge">
<title>Node13&#45;&gt;Node11</title>
<path fill="none" stroke="midnightblue" d="M183.38,-224.33C192.67,-190.72 226.42,-70.22 237,-56 246.79,-42.84 261.62,-32.23 274.75,-24.63"/>
<polygon fill="midnightblue" stroke="midnightblue" points="276.81,-27.49 283.91,-19.63 273.45,-21.35 276.81,-27.49"/>
</g>
<!-- Node13&#45;&gt;Node14 -->
<g id="edge14" class="edge">
<title>Node13&#45;&gt;Node14</title>
<path fill="none" stroke="midnightblue" d="M167.5,-224.32C154.4,-215.9 134.29,-202.97 118.89,-193.07"/>
<polygon fill="midnightblue" stroke="midnightblue" points="120.77,-190.12 110.46,-187.65 116.98,-196.01 120.77,-190.12"/>
</g>
<!-- Node13&#45;&gt;Node15 -->
<g id="edge15" class="edge">
<title>Node13&#45;&gt;Node15</title>
<path fill="none" stroke="midnightblue" d="M156.6,-224.44C130.8,-215.4 89.92,-201.06 60.98,-190.92"/>
<polygon fill="midnightblue" stroke="midnightblue" points="61.88,-187.52 51.29,-187.52 59.57,-194.13 61.88,-187.52"/>
</g>
<!-- Node16 -->
<g id="node16" class="node">
<title>Node16</title>
<g id="a_node16"><a xlink:title=" ">
<polygon fill="white" stroke="#bfbfbf" points="140,-168.5 140,-187.5 184,-187.5 184,-168.5 140,-168.5"/>
<text text-anchor="middle" x="162" y="-175.5" font-family="Helvetica,sans-Serif" font-size="10.00">vector</text>
</a>
</g>
</g>
<!-- Node13&#45;&gt;Node16 -->
<g id="edge17" class="edge">
<title>Node13&#45;&gt;Node16</title>
<path fill="none" stroke="midnightblue" d="M177.86,-224.08C175.32,-216.85 171.64,-206.41 168.47,-197.4"/>
<polygon fill="midnightblue" stroke="midnightblue" points="171.7,-196.02 165.08,-187.75 165.1,-198.35 171.7,-196.02"/>
</g>
<!-- Node17&#45;&gt;Node7 -->
<g id="edge28" class="edge">
<title>Node17&#45;&gt;Node7</title>
<path fill="none" stroke="midnightblue" d="M503.42,-224.45C561.29,-212.45 656.41,-185.75 720,-132 734.78,-119.51 745.18,-99.72 751.31,-85.26"/>
<polygon fill="midnightblue" stroke="midnightblue" points="754.61,-86.43 755.03,-75.85 748.1,-83.86 754.61,-86.43"/>
</g>
<!-- Node18 -->
<g id="node18" class="node">
<title>Node18</title>
<g id="a_node18"><a xlink:href="ExogenousModel_8h.html" target="_top" xlink:title=" ">
<polygon fill="white" stroke="black" points="374,-168.5 374,-187.5 532,-187.5 532,-168.5 374,-168.5"/>
<text text-anchor="middle" x="453" y="-175.5" font-family="Helvetica,sans-Serif" font-size="10.00">BayesFilters/ExogenousModel.h</text>
</a>
</g>
</g>
<!-- Node17&#45;&gt;Node18 -->
<g id="edge19" class="edge">
<title>Node17&#45;&gt;Node18</title>
<path fill="none" stroke="midnightblue" d="M453,-224.08C453,-217.01 453,-206.86 453,-197.99"/>
<polygon fill="midnightblue" stroke="midnightblue" points="456.5,-197.75 453,-187.75 449.5,-197.75 456.5,-197.75"/>
</g>
<!-- Node20 -->
<g id="node20" class="node">
<title>Node20</title>
<g id="a_node20"><a xlink:href="Skippable_8h.html" target="_top" xlink:title=" ">
<polygon fill="white" stroke="black" points="240.5,-112.5 240.5,-131.5 365.5,-131.5 365.5,-112.5 240.5,-112.5"/>
<text text-anchor="middle" x="303" y="-119.5" font-family="Helvetica,sans-Serif" font-size="10.00">BayesFilters/Skippable.h</text>
</a>
</g>
</g>
<!-- Node17&#45;&gt;Node20 -->
<g id="edge25" class="edge">
<title>Node17&#45;&gt;Node20</title>
<path fill="none" stroke="midnightblue" d="M431.58,-224.47C413.01,-216.53 385.91,-203.59 365,-188 346.16,-173.95 328.01,-153.91 316.27,-139.81"/>
<polygon fill="midnightblue" stroke="midnightblue" points="318.87,-137.45 309.84,-131.9 313.44,-141.87 318.87,-137.45"/>
</g>
<!-- Node22 -->
<g id="node22" class="node">
<title>Node22</title>
<g id="a_node22"><a xlink:href="StateProcess_8h.html" target="_top" xlink:title=" ">
<polygon fill="white" stroke="black" points="569,-112.5 569,-131.5 711,-131.5 711,-112.5 569,-112.5"/>
<text text-anchor="middle" x="640" y="-119.5" font-family="Helvetica,sans-Serif" font-size="10.00">BayesFilters/StateProcess.h</text>
</a>
</g>
</g>
<!-- Node17&#45;&gt;Node22 -->
<g id="edge26" class="edge">
<title>Node17&#45;&gt;Node22</title>
<path fill="none" stroke="midnightblue" d="M471.17,-224.42C489.18,-215.75 517.42,-201.72 541,-188 568.9,-171.77 599.8,-151.01 619.54,-137.37"/>
<polygon fill="midnightblue" stroke="midnightblue" points="621.56,-140.23 627.77,-131.65 617.56,-134.48 621.56,-140.23"/>
</g>
<!-- Node19 -->
<g id="node19" class="node">
<title>Node19</title>
<g id="a_node19"><a xlink:href="ExogenousProcess_8h.html" target="_top" xlink:title=" ">
<polygon fill="white" stroke="black" points="383.5,-112.5 383.5,-131.5 550.5,-131.5 550.5,-112.5 383.5,-112.5"/>
<text text-anchor="middle" x="467" y="-119.5" font-family="Helvetica,sans-Serif" font-size="10.00">BayesFilters/ExogenousProcess.h</text>
</a>
</g>
</g>
<!-- Node18&#45;&gt;Node19 -->
<g id="edge20" class="edge">
<title>Node18&#45;&gt;Node19</title>
<path fill="none" stroke="midnightblue" d="M455.31,-168.08C457.17,-160.93 459.84,-150.64 462.15,-141.69"/>
<polygon fill="midnightblue" stroke="midnightblue" points="465.61,-142.31 464.73,-131.75 458.83,-140.55 465.61,-142.31"/>
</g>
<!-- Node18&#45;&gt;Node20 -->
<g id="edge22" class="edge">
<title>Node18&#45;&gt;Node20</title>
<path fill="none" stroke="midnightblue" d="M429.23,-168.44C404.11,-159.4 364.29,-145.06 336.1,-134.92"/>
<polygon fill="midnightblue" stroke="midnightblue" points="337.25,-131.61 326.66,-131.52 334.88,-138.2 337.25,-131.61"/>
</g>
<!-- Node19&#45;&gt;Node12 -->
<g id="edge21" class="edge">
<title>Node19&#45;&gt;Node12</title>
<path fill="none" stroke="midnightblue" d="M494.41,-112.44C523.77,-103.28 570.52,-88.69 603.1,-78.52"/>
<polygon fill="midnightblue" stroke="midnightblue" points="604.21,-81.84 612.72,-75.52 602.13,-75.16 604.21,-81.84"/>
</g>
<!-- Node21 -->
<g id="node21" class="node">
<title>Node21</title>
<g id="a_node21"><a xlink:href="Skipper_8h.html" target="_top" xlink:title=" ">
<polygon fill="white" stroke="black" points="245.5,-56.5 245.5,-75.5 360.5,-75.5 360.5,-56.5 245.5,-56.5"/>
<text text-anchor="middle" x="303" y="-63.5" font-family="Helvetica,sans-Serif" font-size="10.00">BayesFilters/Skipper.h</text>
</a>
</g>
</g>
<!-- Node20&#45;&gt;Node21 -->
<g id="edge23" class="edge">
<title>Node20&#45;&gt;Node21</title>
<path fill="none" stroke="midnightblue" d="M303,-112.08C303,-105.01 303,-94.86 303,-85.99"/>
<polygon fill="midnightblue" stroke="midnightblue" points="306.5,-85.75 303,-75.75 299.5,-85.75 306.5,-85.75"/>
</g>
<!-- Node21&#45;&gt;Node11 -->
<g id="edge24" class="edge">
<title>Node21&#45;&gt;Node11</title>
<path fill="none" stroke="midnightblue" d="M303,-56.08C303,-49.01 303,-38.86 303,-29.99"/>
<polygon fill="midnightblue" stroke="midnightblue" points="306.5,-29.75 303,-19.75 299.5,-29.75 306.5,-29.75"/>
</g>
<!-- Node22&#45;&gt;Node12 -->
<g id="edge27" class="edge">
<title>Node22&#45;&gt;Node12</title>
<path fill="none" stroke="midnightblue" d="M640,-112.08C640,-105.01 640,-94.86 640,-85.99"/>
<polygon fill="midnightblue" stroke="midnightblue" points="643.5,-85.75 640,-75.75 636.5,-85.75 643.5,-85.75"/>
</g>
</g>
</svg>
