<?xml version="1.0" encoding="UTF-8" standalone="no"?>
<!DOCTYPE svg PUBLIC "-//W3C//DTD SVG 1.1//EN"
 "http://www.w3.org/Graphics/SVG/1.1/DTD/svg11.dtd">
<!-- Generated by graphviz version 2.43.0 (0)
 -->
<!-- Title: /home/user/bayes&#45;filters&#45;lib/src/BayesFilters/include/BayesFilters/SimulatedStateModel.h Pages: 1 -->
<svg width="1224pt" height="330pt"
 viewBox="0.00 0.00 1223.50 330.00" xmlns="http://www.w3.org/2000/svg" xmlns:xlink="http://www.w3.org/1999/xlink">
<g id="graph0" class="graph" transform="scale(1 1) rotate(0) translate(4 326)">
<title>/home/user/bayes&#45;filters&#45;lib/src/BayesFilters/include/BayesFilters/SimulatedStateModel.h</title>
<polygon fill="white" stroke="transparent" points="-4,4 -4,-326 1219.5,-326 1219.5,4 -4,4"/>
<!-- Node1 -->
<g id="node1" class="node">
<title>Node1</title>
<g id="a_node1"><a xlink:title=" ">
<polygon fill="#bfbfbf" stroke="black" points="384,-280.5 384,-321.5 581,-321.5 581,-280.5 384,-280.5"/>
<text text-anchor="start" x="392" y="-309.5" font-family="Helvetica,sans-Serif" font-size="10.00">/home/user/bayes&#45;filters</text>
<text text-anchor="start" x="392" y="-298.5" font-family="Helvetica,sans-Serif" font-size="10.00">&#45;lib/src/BayesFilters/include</text>
<text text-anchor="middle" x="482.5" y="-287.5" font-family="Helvetica,sans-Serif" font-size="10.00">/BayesFilters/SimulatedStateModel.h</text>
</a>
</g>
</g>
<!-- Node2 -->
<g id="node2" class="node">
<title>Node2</title>
<g id="a_node2"><a xlink:href="Agent_8h.html" target="_top" xlink:title=" ">
<polygon fill="white" stroke="black" points="424,-224.5 424,-243.5 541,-243.5 541,-224.5 424,-224.5"/>
<text text-anchor="middle" x="482.5" y="-231.5" font-family="Helvetica,sans-Serif" font-size="10.00">BayesFilters/Agent.h</text>
</a>
</g>
</g>
<!-- Node1&#45;&gt;Node2 -->
<g id="edge1" class="edge">
<title>Node1&#45;&gt;Node2</title>
<path fill="none" stroke="midnightblue" d="M482.5,-280.5C482.5,-272.07 482.5,-262.24 482.5,-253.87"/>
<polygon fill="midnightblue" stroke="midnightblue" points="486,-253.65 482.5,-243.65 479,-253.65 486,-253.65"/>
</g>
<!-- Node6 -->
<g id="node6" class="node">
<title>Node6</title>
<g id="a_node6"><a xlink:title=" ">
<polygon fill="white" stroke="#bfbfbf" points="622.5,-56.5 622.5,-75.5 680.5,-75.5 680.5,-56.5 622.5,-56.5"/>
<text text-anchor="middle" x="651.5" y="-63.5" font-family="Helvetica,sans-Serif" font-size="10.00">memory</text>
</a>
</g>
</g>
<!-- Node1&#45;&gt;Node6 -->
<g id="edge31" class="edge">
<title>Node1&#45;&gt;Node6</title>
<path fill="none" stroke="midnightblue" d="M511.01,-280.25C524.03,-270.34 539.07,-257.57 550.5,-244 594.11,-192.24 628.94,-119 643.76,-85.29"/>
<polygon fill="midnightblue" stroke="midnightblue" points="647.11,-86.37 647.86,-75.81 640.68,-83.6 647.11,-86.37"/>
</g>
<!-- Node12 -->
<g id="node12" class="node">
<title>Node12</title>
<g id="a_node12"><a xlink:href="Logger_8h.html" target="_top" xlink:title=" ">
<polygon fill="white" stroke="black" points="115,-224.5 115,-243.5 236,-243.5 236,-224.5 115,-224.5"/>
<text text-anchor="middle" x="175.5" y="-231.5" font-family="Helvetica,sans-Serif" font-size="10.00">BayesFilters/Logger.h</text>
</a>
</g>
</g>
<!-- Node1&#45;&gt;Node12 -->
<g id="edge12" class="edge">
<title>Node1&#45;&gt;Node12</title>
<path fill="none" stroke="midnightblue" d="M390.39,-280.5C336.48,-269.08 270.48,-255.11 225.96,-245.68"/>
<polygon fill="midnightblue" stroke="midnightblue" points="226.47,-242.21 215.96,-243.57 225.02,-249.06 226.47,-242.21"/>
</g>
<!-- Node13 -->
<g id="node13" class="node">
<title>Node13</title>
<g id="a_node13"><a xlink:title=" ">
<polygon fill="white" stroke="#bfbfbf" points="0,-168.5 0,-187.5 55,-187.5 55,-168.5 0,-168.5"/>
<text text-anchor="middle" x="27.5" y="-175.5" font-family="Helvetica,sans-Serif" font-size="10.00">fstream</text>
</a>
</g>
</g>
<!-- Node1&#45;&gt;Node13 -->
<g id="edge32" class="edge">
<title>Node1&#45;&gt;Node13</title>
<path fill="none" stroke="midnightblue" d="M383.6,-291.41C289,-282.1 153.81,-265.64 105.5,-244 80.25,-232.69 56.65,-210.82 42.16,-195.59"/>
<polygon fill="midnightblue" stroke="midnightblue" points="44.44,-192.9 35.09,-187.92 39.29,-197.64 44.44,-192.9"/>
</g>
<!-- Node16 -->
<g id="node16" class="node">
<title>Node16</title>
<g id="a_node16"><a xlink:href="StateModel_8h.html" target="_top" xlink:title=" ">
<polygon fill="white" stroke="black" points="670.5,-224.5 670.5,-243.5 814.5,-243.5 814.5,-224.5 670.5,-224.5"/>
<text text-anchor="middle" x="742.5" y="-231.5" font-family="Helvetica,sans-Serif" font-size="10.00">BayesFilters/StateModel.h</text>
</a>
</g>
</g>
<!-- Node1&#45;&gt;Node16 -->
<g id="edge17" class="edge">
<title>Node1&#45;&gt;Node16</title>
<path fill="none" stroke="midnightblue" d="M560.51,-280.5C605.49,-269.25 660.42,-255.52 698.09,-246.1"/>
<polygon fill="midnightblue" stroke="midnightblue" points="699.38,-249.39 708.23,-243.57 697.68,-242.6 699.38,-249.39"/>
</g>
<!-- Node3 -->
<g id="node3" class="node">
<title>Node3</title>
<g id="a_node3"><a xlink:href="Data_8h.html" target="_top" xlink:title=" ">
<polygon fill="white" stroke="black" points="390.5,-168.5 390.5,-187.5 502.5,-187.5 502.5,-168.5 390.5,-168.5"/>
<text text-anchor="middle" x="446.5" y="-175.5" font-family="Helvetica,sans-Serif" font-size="10.00">BayesFilters/Data.h</text>
</a>
</g>
</g>
<!-- Node2&#45;&gt;Node3 -->
<g id="edge2" class="edge">
<title>Node2&#45;&gt;Node3</title>
<path fill="none" stroke="midnightblue" d="M476.56,-224.08C471.52,-216.53 464.16,-205.49 457.99,-196.23"/>
<polygon fill="midnightblue" stroke="midnightblue" points="460.79,-194.13 452.33,-187.75 454.97,-198.01 460.79,-194.13"/>
</g>
<!-- Node2&#45;&gt;Node6 -->
<g id="edge9" class="edge">
<title>Node2&#45;&gt;Node6</title>
<path fill="none" stroke="midnightblue" d="M489.48,-224.29C506.18,-203.69 550.24,-150.77 592.5,-112 604.45,-101.04 618.92,-89.97 630.54,-81.56"/>
<polygon fill="midnightblue" stroke="midnightblue" points="632.66,-84.34 638.78,-75.69 628.6,-78.64 632.66,-84.34"/>
</g>
<!-- Node10 -->
<g id="node10" class="node">
<title>Node10</title>
<g id="a_node10"><a xlink:title=" ">
<polygon fill="white" stroke="#bfbfbf" points="243.5,-0.5 243.5,-19.5 287.5,-19.5 287.5,-0.5 243.5,-0.5"/>
<text text-anchor="middle" x="265.5" y="-7.5" font-family="Helvetica,sans-Serif" font-size="10.00">string</text>
</a>
</g>
</g>
<!-- Node2&#45;&gt;Node10 -->
<g id="edge10" class="edge">
<title>Node2&#45;&gt;Node10</title>
<path fill="none" stroke="midnightblue" d="M455.05,-224.46C433.7,-216.98 404.01,-204.69 381.5,-188 328.61,-148.77 316.02,-133.82 284.5,-76 276.59,-61.48 271.63,-43.3 268.78,-29.86"/>
<polygon fill="midnightblue" stroke="midnightblue" points="272.18,-29.03 266.85,-19.87 265.31,-30.35 272.18,-29.03"/>
</g>
<!-- Node11 -->
<g id="node11" class="node">
<title>Node11</title>
<g id="a_node11"><a xlink:title=" ">
<polygon fill="white" stroke="#bfbfbf" points="917,-56.5 917,-75.5 994,-75.5 994,-56.5 917,-56.5"/>
<text text-anchor="middle" x="955.5" y="-63.5" font-family="Helvetica,sans-Serif" font-size="10.00">Eigen/Dense</text>
</a>
</g>
</g>
<!-- Node2&#45;&gt;Node11 -->
<g id="edge11" class="edge">
<title>Node2&#45;&gt;Node11</title>
<path fill="none" stroke="midnightblue" d="M494.71,-224.38C526.97,-202.03 617.83,-141.9 702.5,-112 770.98,-87.82 854.67,-76.2 906.53,-70.94"/>
<polygon fill="midnightblue" stroke="midnightblue" points="907.17,-74.39 916.79,-69.94 906.49,-67.42 907.17,-74.39"/>
</g>
<!-- Node4 -->
<g id="node4" class="node">
<title>Node4</title>
<g id="a_node4"><a xlink:href="any_8h.html" target="_top" xlink:title=" ">
<polygon fill="white" stroke="black" points="395,-112.5 395,-131.5 500,-131.5 500,-112.5 395,-112.5"/>
<text text-anchor="middle" x="447.5" y="-119.5" font-family="Helvetica,sans-Serif" font-size="10.00">BayesFilters/any.h</text>
</a>
</g>
</g>
<!-- Node3&#45;&gt;Node4 -->
<g id="edge3" class="edge">
<title>Node3&#45;&gt;Node4</title>
<path fill="none" stroke="midnightblue" d="M446.67,-168.08C446.8,-161.01 446.98,-150.86 447.15,-141.99"/>
<polygon fill="midnightblue" stroke="midnightblue" points="450.65,-141.81 447.34,-131.75 443.65,-141.68 450.65,-141.81"/>
</g>
<!-- Node5 -->
<g id="node5" class="node">
<title>Node5</title>
<g id="a_node5"><a xlink:title=" ">
<polygon fill="white" stroke="#bfbfbf" points="381.5,-56.5 381.5,-75.5 445.5,-75.5 445.5,-56.5 381.5,-56.5"/>
<text text-anchor="middle" x="413.5" y="-63.5" font-family="Helvetica,sans-Serif" font-size="10.00">algorithm</text>
</a>
</g>
</g>
<!-- Node4&#45;&gt;Node5 -->
<g id="edge4" class="edge">
<title>Node4&#45;&gt;Node5</title>
<path fill="none" stroke="midnightblue" d="M441.89,-112.08C437.13,-104.53 430.18,-93.49 424.35,-84.23"/>
<polygon fill="midnightblue" stroke="midnightblue" points="427.3,-82.35 419.01,-75.75 421.38,-86.08 427.3,-82.35"/>
</g>
<!-- Node4&#45;&gt;Node6 -->
<g id="edge5" class="edge">
<title>Node4&#45;&gt;Node6</title>
<path fill="none" stroke="midnightblue" d="M479.82,-112.44C515.82,-102.92 573.98,-87.52 612.48,-77.33"/>
<polygon fill="midnightblue" stroke="midnightblue" points="613.53,-80.67 622.3,-74.73 611.74,-73.9 613.53,-80.67"/>
</g>
<!-- Node7 -->
<g id="node7" class="node">
<title>Node7</title>
<g id="a_node7"><a xlink:title=" ">
<polygon fill="white" stroke="#bfbfbf" points="464,-56.5 464,-75.5 529,-75.5 529,-56.5 464,-56.5"/>
<text text-anchor="middle" x="496.5" y="-63.5" font-family="Helvetica,sans-Serif" font-size="10.00">stdexcept</text>
</a>
</g>
</g>
<!-- Node4&#45;&gt;Node7 -->
<g id="edge6" class="edge">
<title>Node4&#45;&gt;Node7</title>
<path fill="none" stroke="midnightblue" d="M455.59,-112.08C462.66,-104.3 473.09,-92.8 481.65,-83.37"/>
<polygon fill="midnightblue" stroke="midnightblue" points="484.43,-85.51 488.56,-75.75 479.25,-80.8 484.43,-85.51"/>
</g>
<!-- Node8 -->
<g id="node8" class="node">
<title>Node8</title>
<g id="a_node8"><a xlink:title=" ">
<polygon fill="white" stroke="#bfbfbf" points="547,-56.5 547,-75.5 604,-75.5 604,-56.5 547,-56.5"/>
<text text-anchor="middle" x="575.5" y="-63.5" font-family="Helvetica,sans-Serif" font-size="10.00">typeinfo</text>
</a>
</g>
</g>
<!-- Node4&#45;&gt;Node8 -->
<g id="edge7" class="edge">
<title>Node4&#45;&gt;Node8</title>
<path fill="none" stroke="midnightblue" d="M467.78,-112.44C488.85,-103.56 522.02,-89.56 545.99,-79.45"/>
<polygon fill="midnightblue" stroke="midnightblue" points="547.46,-82.63 555.31,-75.52 544.74,-76.18 547.46,-82.63"/>
</g>
<!-- Node9 -->
<g id="node9" class="node">
<title>Node9</title>
<g id="a_node9"><a xlink:title=" ">
<polygon fill="white" stroke="#bfbfbf" points="294,-56.5 294,-75.5 363,-75.5 363,-56.5 294,-56.5"/>
<text text-anchor="middle" x="328.5" y="-63.5" font-family="Helvetica,sans-Serif" font-size="10.00">type_traits</text>
</a>
</g>
</g>
<!-- Node4&#45;&gt;Node9 -->
<g id="edge8" class="edge">
<title>Node4&#45;&gt;Node9</title>
<path fill="none" stroke="midnightblue" d="M428.64,-112.44C409.23,-103.64 378.77,-89.81 356.54,-79.72"/>
<polygon fill="midnightblue" stroke="midnightblue" points="357.82,-76.46 347.27,-75.52 354.93,-82.84 357.82,-76.46"/>
</g>
<!-- Node12&#45;&gt;Node10 -->
<g id="edge15" class="edge">
<title>Node12&#45;&gt;Node10</title>
<path fill="none" stroke="midnightblue" d="M182.98,-224.21C190.09,-215.49 200.68,-201.52 207.5,-188 211.21,-180.65 245.75,-72.89 259.7,-29.2"/>
<polygon fill="midnightblue" stroke="midnightblue" points="263.06,-30.16 262.77,-19.57 256.4,-28.04 263.06,-30.16"/>
</g>
<!-- Node12&#45;&gt;Node13 -->
<g id="edge13" class="edge">
<title>Node12&#45;&gt;Node13</title>
<path fill="none" stroke="midnightblue" d="M152.05,-224.44C127.37,-215.44 88.31,-201.19 60.52,-191.05"/>
<polygon fill="midnightblue" stroke="midnightblue" points="61.44,-187.66 50.84,-187.52 59.04,-194.23 61.44,-187.66"/>
</g>
<!-- Node14 -->
<g id="node14" class="node">
<title>Node14</title>
<g id="a_node14"><a xlink:title=" ">
<polygon fill="white" stroke="#bfbfbf" points="73.5,-168.5 73.5,-187.5 133.5,-187.5 133.5,-168.5 73.5,-168.5"/>
<text text-anchor="middle" x="103.5" y="-175.5" font-family="Helvetica,sans-Serif" font-size="10.00">iostream</text>
</a>
</g>
</g>
<!-- Node12&#45;&gt;Node14 -->
<g id="edge14" class="edge">
<title>Node12&#45;&gt;Node14</title>
<path fill="none" stroke="midnightblue" d="M163.93,-224.32C153.08,-216.18 136.62,-203.84 123.62,-194.09"/>
<polygon fill="midnightblue" stroke="midnightblue" points="125.38,-191.03 115.28,-187.83 121.18,-196.63 125.38,-191.03"/>
</g>
<!-- Node15 -->
<g id="node15" class="node">
<title>Node15</title>
<g id="a_node15"><a xlink:title=" ">
<polygon fill="white" stroke="#bfbfbf" points="152,-168.5 152,-187.5 199,-187.5 199,-168.5 152,-168.5"/>
<text text-anchor="middle" x="175.5" y="-175.5" font-family="Helvetica,sans-Serif" font-size="10.00">vector</text>
</a>
</g>
</g>
<!-- Node12&#45;&gt;Node15 -->
<g id="edge16" class="edge">
<title>Node12&#45;&gt;Node15</title>
<path fill="none" stroke="midnightblue" d="M175.5,-224.08C175.5,-217.01 175.5,-206.86 175.5,-197.99"/>
<polygon fill="midnightblue" stroke="midnightblue" points="179,-197.75 175.5,-187.75 172,-197.75 179,-197.75"/>
</g>
<!-- Node16&#45;&gt;Node6 -->
<g id="edge30" class="edge">
<title>Node16&#45;&gt;Node6</title>
<path fill="none" stroke="midnightblue" d="M737.61,-224.08C723.16,-197.72 680.49,-119.88 661.18,-84.66"/>
<polygon fill="midnightblue" stroke="midnightblue" points="664.07,-82.65 656.2,-75.57 657.93,-86.02 664.07,-82.65"/>
</g>
<!-- Node17 -->
<g id="node17" class="node">
<title>Node17</title>
<g id="a_node17"><a xlink:href="ExogenousModel_8h.html" target="_top" xlink:title=" ">
<polygon fill="white" stroke="black" points="771,-168.5 771,-187.5 942,-187.5 942,-168.5 771,-168.5"/>
<text text-anchor="middle" x="856.5" y="-175.5" font-family="Helvetica,sans-Serif" font-size="10.00">BayesFilters/ExogenousModel.h</text>
</a>
</g>
</g>
<!-- Node16&#45;&gt;Node17 -->
<g id="edge18" class="edge">
<title>Node16&#45;&gt;Node17</title>
<path fill="none" stroke="midnightblue" d="M760.56,-224.44C779.07,-215.68 808.08,-201.94 829.36,-191.86"/>
<polygon fill="midnightblue" stroke="midnightblue" points="830.98,-194.96 838.52,-187.52 827.99,-188.63 830.98,-194.96"/>
</g>
<!-- Node21 -->
<g id="node21" class="node">
<title>Node21</title>
<g id="a_node21"><a xlink:href="Skippable_8h.html" target="_top" xlink:title=" ">
<polygon fill="white" stroke="black" points="711,-112.5 711,-131.5 848,-131.5 848,-112.5 711,-112.5"/>
<text text-anchor="middle" x="779.5" y="-119.5" font-family="Helvetica,sans-Serif" font-size="10.00">BayesFilters/Skippable.h</text>
</a>
</g>
</g>
<!-- Node16&#45;&gt;Node21 -->
<g id="edge26" class="edge">
<title>Node16&#45;&gt;Node21</title>
<path fill="none" stroke="midnightblue" d="M745.04,-224.11C748.68,-211.54 755.69,-187.88 762.5,-168 765.55,-159.1 769.2,-149.32 772.34,-141.16"/>
<polygon fill="midnightblue" stroke="midnightblue" points="775.71,-142.16 776.08,-131.57 769.19,-139.62 775.71,-142.16"/>
</g>
<!-- Node23 -->
<g id="node23" class="node">
<title>Node23</title>
<g id="a_node23"><a xlink:href="StateProcess_8h.html" target="_top" xlink:title=" ">
<polygon fill="white" stroke="black" points="1063.5,-112.5 1063.5,-131.5 1215.5,-131.5 1215.5,-112.5 1063.5,-112.5"/>
<text text-anchor="middle" x="1139.5" y="-119.5" font-family="Helvetica,sans-Serif" font-size="10.00">BayesFilters/StateProcess.h</text>
</a>
</g>
</g>
<!-- Node16&#45;&gt;Node23 -->
<g id="edge27" class="edge">
<title>Node16&#45;&gt;Node23</title>
<path fill="none" stroke="midnightblue" d="M790.21,-224.43C832.84,-216.37 896.81,-203.28 951.5,-188 1007.29,-172.41 1070.68,-149.35 1107.76,-135.29"/>
<polygon fill="midnightblue" stroke="midnightblue" points="1109.39,-138.42 1117.49,-131.58 1106.9,-131.88 1109.39,-138.42"/>
</g>
<!-- Node18 -->
<g id="node18" class="node">
<title>Node18</title>
<g id="a_node18"><a xlink:href="ExogenousProcess_8h.html" target="_top" xlink:title=" ">
<polygon fill="white" stroke="black" points="866,-112.5 866,-131.5 1045,-131.5 1045,-112.5 866,-112.5"/>
<text text-anchor="middle" x="955.5" y="-119.5" font-family="Helvetica,sans-Serif" font-size="10.00">BayesFilters/ExogenousProcess.h</text>
</a>
</g>
</g>
<!-- Node17&#45;&gt;Node18 -->
<g id="edge19" class="edge">
<title>Node17&#45;&gt;Node18</title>
<path fill="none" stroke="midnightblue" d="M872.41,-168.32C888.14,-159.74 912.44,-146.49 930.71,-136.52"/>
<polygon fill="midnightblue" stroke="midnightblue" points="932.53,-139.52 939.63,-131.65 929.18,-133.37 932.53,-139.52"/>
</g>
<!-- Node17&#45;&gt;Node21 -->
<g id="edge23" class="edge">
<title>Node17&#45;&gt;Node21</title>
<path fill="none" stroke="midnightblue" d="M844.13,-168.32C832.34,-160.06 814.37,-147.45 800.36,-137.63"/>
<polygon fill="midnightblue" stroke="midnightblue" points="802.04,-134.53 791.84,-131.65 798.02,-140.26 802.04,-134.53"/>
</g>
<!-- Node18&#45;&gt;Node11 -->
<g id="edge22" class="edge">
<title>Node18&#45;&gt;Node11</title>
<path fill="none" stroke="midnightblue" d="M955.5,-112.08C955.5,-105.01 955.5,-94.86 955.5,-85.99"/>
<polygon fill="midnightblue" stroke="midnightblue" points="959,-85.75 955.5,-75.75 952,-85.75 959,-85.75"/>
</g>
<!-- Node19 -->
<g id="node19" class="node">
<title>Node19</title>
<g id="a_node19"><a xlink:href="VectorDescription_8h.html" target="_top" xlink:title=" ">
<polygon fill="white" stroke="black" points="1032,-56.5 1032,-75.5 1207,-75.5 1207,-56.5 1032,-56.5"/>
<text text-anchor="middle" x="1119.5" y="-63.5" font-family="Helvetica,sans-Serif" font-size="10.00">BayesFilters/VectorDescription.h</text>
</a>
</g>
</g>
<!-- Node18&#45;&gt;Node19 -->
<g id="edge20" class="edge">
<title>Node18&#45;&gt;Node19</title>
<path fill="none" stroke="midnightblue" d="M981.49,-112.44C1009.2,-103.32 1053.25,-88.81 1084.12,-78.65"/>
<polygon fill="midnightblue" stroke="midnightblue" points="1085.23,-81.97 1093.64,-75.52 1083.04,-75.32 1085.23,-81.97"/>
</g>
<!-- Node20 -->
<g id="node20" class="node">
<title>Node20</title>
<g id="a_node20"><a xlink:title=" ">
<polygon fill="white" stroke="#bfbfbf" points="1093,-0.5 1093,-19.5 1146,-19.5 1146,-0.5 1093,-0.5"/>
<text text-anchor="middle" x="1119.5" y="-7.5" font-family="Helvetica,sans-Serif" font-size="10.00">cstddef</text>
</a>
</g>
</g>
<!-- Node19&#45;&gt;Node20 -->
<g id="edge21" class="edge">
<title>Node19&#45;&gt;Node20</title>
<path fill="none" stroke="midnightblue" d="M1119.5,-56.08C1119.5,-49.01 1119.5,-38.86 1119.5,-29.99"/>
<polygon fill="midnightblue" stroke="midnightblue" points="1123,-29.75 1119.5,-19.75 1116,-29.75 1123,-29.75"/>
</g>
<!-- Node22 -->
<g id="node22" class="node">
<title>Node22</title>
<g id="a_node22"><a xlink:href="Skipper_8h.html" target="_top" xlink:title=" ">
<polygon fill="white" stroke="black" points="711,-56.5 711,-75.5 836,-75.5 836,-56.5 711,-56.5"/>
<text text-anchor="middle" x="773.5" y="-63.5" font-family="Helvetica,sans-Serif" font-size="10.00">BayesFilters/Skipper.h</text>
</a>
</g>
</g>
<!-- Node21&#45;&gt;Node22 -->
<g id="edge24" class="edge">
<title>Node21&#45;&gt;Node22</title>
<path fill="none" stroke="midnightblue" d="M778.51,-112.08C777.71,-104.93 776.57,-94.64 775.58,-85.69"/>
<polygon fill="midnightblue" stroke="midnightblue" points="779.06,-85.3 774.47,-75.75 772.1,-86.08 779.06,-85.3"/>
</g>
<!-- Node22&#45;&gt;Node10 -->
<g id="edge25" class="edge">
<title>Node22&#45;&gt;Node10</title>
<path fill="none" stroke="midnightblue" d="M710.66,-58.26C703.52,-57.5 696.35,-56.73 689.5,-56 543.17,-40.4 368.42,-21.89 297.63,-14.4"/>
<polygon fill="midnightblue" stroke="midnightblue" points="297.88,-10.91 287.57,-13.33 297.15,-17.87 297.88,-10.91"/>
</g>
<!-- Node23&#45;&gt;Node11 -->
<g id="edge29" class="edge">
<title>Node23&#45;&gt;Node11</title>
<path fill="none" stroke="midnightblue" d="M1110.34,-112.44C1078.99,-103.24 1028.97,-88.56 994.3,-78.39"/>
<polygon fill="midnightblue" stroke="midnightblue" points="995.1,-74.97 984.52,-75.52 993.13,-81.69 995.1,-74.97"/>
</g>
<!-- Node23&#45;&gt;Node19 -->
<g id="edge28" class="edge">
<title>Node23&#45;&gt;Node19</title>
<path fill="none" stroke="midnightblue" d="M1136.2,-112.08C1133.52,-104.85 1129.65,-94.41 1126.31,-85.4"/>
<polygon fill="midnightblue" stroke="midnightblue" points="1129.5,-83.91 1122.74,-75.75 1122.93,-86.34 1129.5,-83.91"/>
</g>
</g>
</svg>
