<?xml version="1.0" encoding="UTF-8" standalone="no"?>
<!DOCTYPE svg PUBLIC "-//W3C//DTD SVG 1.1//EN"
 "http://www.w3.org/Graphics/SVG/1.1/DTD/svg11.dtd">
<!-- Generated by graphviz version 2.43.0 (0)
 -->
<!-- Title: /home/user/bayes&#45;filters&#45;lib/src/BayesFilters/src/SimulatedLinearSensor.cpp Pages: 1 -->
<svg width="1423pt" height="609pt"
 viewBox="0.00 0.00 1423.00 609.00" xmlns="http://www.w3.org/2000/svg" xmlns:xlink="http://www.w3.org/1999/xlink">
<g id="graph0" class="graph" transform="scale(1 1) rotate(0) translate(4 605)">
<title>/home/user/bayes&#45;filters&#45;lib/src/BayesFilters/src/SimulatedLinearSensor.cpp</title>
<polygon fill="white" stroke="transparent" points="-4,4 -4,-605 1419,-605 1419,4 -4,4"/>
<!-- Node1 -->
<g id="node1" class="node">
<title>Node1</title>
<g id="a_node1"><a xlink:title=" ">
<polygon fill="#bfbfbf" stroke="black" points="412,-559.5 412,-600.5 564,-600.5 564,-559.5 412,-559.5"/>
<text text-anchor="start" x="420" y="-588.5" font-family="Helvetica,sans-Serif" font-size="10.00">/home/user/bayes&#45;filters</text>
<text text-anchor="start" x="420" y="-577.5" font-family="Helvetica,sans-Serif" font-size="10.00">&#45;lib/src/BayesFilters/src</text>
<text text-anchor="middle" x="488" y="-566.5" font-family="Helvetica,sans-Serif" font-size="10.00">/SimulatedLinearSensor.cpp</text>
</a>
</g>
</g>
<!-- Node2 -->
<g id="node2" class="node">
<title>Node2</title>
<g id="a_node2"><a xlink:href="SimulatedLinearSensor_8h.html" target="_top" xlink:title=" ">
<polygon fill="white" stroke="black" points="896.5,-492.5 896.5,-522.5 1055.5,-522.5 1055.5,-492.5 896.5,-492.5"/>
<text text-anchor="start" x="904.5" y="-510.5" font-family="Helvetica,sans-Serif" font-size="10.00">BayesFilters/SimulatedLinear</text>
<text text-anchor="middle" x="976" y="-499.5" font-family="Helvetica,sans-Serif" font-size="10.00">Sensor.h</text>
</a>
</g>
</g>
<!-- Node1&#45;&gt;Node2 -->
<g id="edge1" class="edge">
<title>Node1&#45;&gt;Node2</title>
<path fill="none" stroke="midnightblue" d="M564.25,-567.98C651.32,-555.41 793.64,-534.85 886.06,-521.49"/>
<polygon fill="midnightblue" stroke="midnightblue" points="886.84,-524.92 896.24,-520.02 885.84,-517.99 886.84,-524.92"/>
</g>
<!-- Node20 -->
<g id="node20" class="node">
<title>Node20</title>
<g id="a_node20"><a xlink:href="VectorDescription_8h.html" target="_top" xlink:title=" ">
<polygon fill="white" stroke="black" points="92.5,-112.5 92.5,-131.5 267.5,-131.5 267.5,-112.5 92.5,-112.5"/>
<text text-anchor="middle" x="180" y="-119.5" font-family="Helvetica,sans-Serif" font-size="10.00">BayesFilters/VectorDescription.h</text>
</a>
</g>
</g>
<!-- Node1&#45;&gt;Node20 -->
<g id="edge55" class="edge">
<title>Node1&#45;&gt;Node20</title>
<path fill="none" stroke="midnightblue" d="M411.75,-574.17C274.5,-563.38 0,-531.26 0,-447 0,-447 0,-447 0,-249.5 0,-206.77 17.6,-194.66 51,-168 71.61,-151.55 98.65,-140.9 122.65,-134.11"/>
<polygon fill="midnightblue" stroke="midnightblue" points="123.61,-137.48 132.37,-131.53 121.8,-130.72 123.61,-137.48"/>
</g>
<!-- Node3 -->
<g id="node3" class="node">
<title>Node3</title>
<g id="a_node3"><a xlink:href="LinearModel_8h.html" target="_top" xlink:title=" ">
<polygon fill="white" stroke="black" points="1077.5,-436.5 1077.5,-455.5 1226.5,-455.5 1226.5,-436.5 1077.5,-436.5"/>
<text text-anchor="middle" x="1152" y="-443.5" font-family="Helvetica,sans-Serif" font-size="10.00">BayesFilters/LinearModel.h</text>
</a>
</g>
</g>
<!-- Node2&#45;&gt;Node3 -->
<g id="edge2" class="edge">
<title>Node2&#45;&gt;Node3</title>
<path fill="none" stroke="midnightblue" d="M1017.71,-492.4C1047.99,-482.16 1088.49,-468.47 1117.07,-458.81"/>
<polygon fill="midnightblue" stroke="midnightblue" points="1118.3,-462.09 1126.65,-455.57 1116.05,-455.46 1118.3,-462.09"/>
</g>
<!-- Node11 -->
<g id="node11" class="node">
<title>Node11</title>
<g id="a_node11"><a xlink:title=" ">
<polygon fill="white" stroke="#bfbfbf" points="810,-0.5 810,-19.5 868,-19.5 868,-0.5 810,-0.5"/>
<text text-anchor="middle" x="839" y="-7.5" font-family="Helvetica,sans-Serif" font-size="10.00">memory</text>
</a>
</g>
</g>
<!-- Node2&#45;&gt;Node11 -->
<g id="edge54" class="edge">
<title>Node2&#45;&gt;Node11</title>
<path fill="none" stroke="midnightblue" d="M1055.75,-500.87C1182.32,-489.71 1415,-459.17 1415,-385.5 1415,-385.5 1415,-385.5 1415,-121 1415,-34.69 1316.08,-75.48 1232,-56 1105.05,-26.59 950.37,-16.05 878.82,-12.57"/>
<polygon fill="midnightblue" stroke="midnightblue" points="878.63,-9.06 868.47,-12.09 878.3,-16.05 878.63,-9.06"/>
</g>
<!-- Node2&#45;&gt;Node20 -->
<g id="edge53" class="edge">
<title>Node2&#45;&gt;Node20</title>
<path fill="none" stroke="midnightblue" d="M896.43,-504.55C669.94,-497.93 38,-471.75 38,-385.5 38,-385.5 38,-385.5 38,-249.5 38,-207.69 54.26,-196.35 85,-168 101.11,-153.14 123,-142.32 141.72,-135.02"/>
<polygon fill="midnightblue" stroke="midnightblue" points="143,-138.28 151.16,-131.52 140.57,-131.71 143,-138.28"/>
</g>
<!-- Node27 -->
<g id="node27" class="node">
<title>Node27</title>
<g id="a_node27"><a xlink:href="SimulatedStateModel_8h.html" target="_top" xlink:title=" ">
<polygon fill="white" stroke="black" points="898.5,-369.5 898.5,-399.5 1053.5,-399.5 1053.5,-369.5 898.5,-369.5"/>
<text text-anchor="start" x="906.5" y="-387.5" font-family="Helvetica,sans-Serif" font-size="10.00">BayesFilters/SimulatedState</text>
<text text-anchor="middle" x="976" y="-376.5" font-family="Helvetica,sans-Serif" font-size="10.00">Model.h</text>
</a>
</g>
</g>
<!-- Node2&#45;&gt;Node27 -->
<g id="edge31" class="edge">
<title>Node2&#45;&gt;Node27</title>
<path fill="none" stroke="midnightblue" d="M976,-492.14C976,-471.86 976,-434.53 976,-409.86"/>
<polygon fill="midnightblue" stroke="midnightblue" points="979.5,-409.84 976,-399.84 972.5,-409.84 979.5,-409.84"/>
</g>
<!-- Node4 -->
<g id="node4" class="node">
<title>Node4</title>
<g id="a_node4"><a xlink:href="LTIMeasurementModel_8h.html" target="_top" xlink:title=" ">
<polygon fill="white" stroke="black" points="719.5,-369.5 719.5,-399.5 880.5,-399.5 880.5,-369.5 719.5,-369.5"/>
<text text-anchor="start" x="727.5" y="-387.5" font-family="Helvetica,sans-Serif" font-size="10.00">BayesFilters/LTIMeasurement</text>
<text text-anchor="middle" x="800" y="-376.5" font-family="Helvetica,sans-Serif" font-size="10.00">Model.h</text>
</a>
</g>
</g>
<!-- Node3&#45;&gt;Node4 -->
<g id="edge3" class="edge">
<title>Node3&#45;&gt;Node4</title>
<path fill="none" stroke="midnightblue" d="M1101.57,-436.48C1046.69,-427.2 957.83,-412.18 890.75,-400.84"/>
<polygon fill="midnightblue" stroke="midnightblue" points="891.04,-397.34 880.6,-399.12 889.87,-404.24 891.04,-397.34"/>
</g>
<!-- Node16 -->
<g id="node16" class="node">
<title>Node16</title>
<g id="a_node16"><a xlink:title=" ">
<polygon fill="white" stroke="#bfbfbf" points="1167.5,-56.5 1167.5,-75.5 1222.5,-75.5 1222.5,-56.5 1167.5,-56.5"/>
<text text-anchor="middle" x="1195" y="-63.5" font-family="Helvetica,sans-Serif" font-size="10.00">fstream</text>
</a>
</g>
</g>
<!-- Node3&#45;&gt;Node16 -->
<g id="edge27" class="edge">
<title>Node3&#45;&gt;Node16</title>
<path fill="none" stroke="midnightblue" d="M1226.62,-437.11C1277.7,-430.18 1339.43,-418.31 1358,-400 1384.48,-373.88 1377,-355.69 1377,-318.5 1377,-318.5 1377,-318.5 1377,-182.5 1377,-114.79 1286.08,-85.09 1232.77,-73.5"/>
<polygon fill="midnightblue" stroke="midnightblue" points="1233.14,-70.01 1222.64,-71.42 1231.73,-76.86 1233.14,-70.01"/>
</g>
<!-- Node18 -->
<g id="node18" class="node">
<title>Node18</title>
<g id="a_node18"><a xlink:title=" ">
<polygon fill="white" stroke="#bfbfbf" points="799,-56.5 799,-75.5 843,-75.5 843,-56.5 799,-56.5"/>
<text text-anchor="middle" x="821" y="-63.5" font-family="Helvetica,sans-Serif" font-size="10.00">string</text>
</a>
</g>
</g>
<!-- Node3&#45;&gt;Node18 -->
<g id="edge30" class="edge">
<title>Node3&#45;&gt;Node18</title>
<path fill="none" stroke="midnightblue" d="M1140.85,-436.47C1130.15,-427.95 1113.88,-414.11 1102,-400 1001.79,-280.99 1026.16,-207.07 903,-112 886.56,-99.31 866.08,-88.07 849.7,-79.99"/>
<polygon fill="midnightblue" stroke="midnightblue" points="851.12,-76.79 840.59,-75.62 848.09,-83.1 851.12,-76.79"/>
</g>
<!-- Node24 -->
<g id="node24" class="node">
<title>Node24</title>
<g id="a_node24"><a xlink:title=" ">
<polygon fill="white" stroke="#bfbfbf" points="1110.5,-375 1110.5,-394 1193.5,-394 1193.5,-375 1110.5,-375"/>
<text text-anchor="middle" x="1152" y="-382" font-family="Helvetica,sans-Serif" font-size="10.00">initializer_list</text>
</a>
</g>
</g>
<!-- Node3&#45;&gt;Node24 -->
<g id="edge26" class="edge">
<title>Node3&#45;&gt;Node24</title>
<path fill="none" stroke="midnightblue" d="M1152,-436.48C1152,-428.08 1152,-414.98 1152,-404.16"/>
<polygon fill="midnightblue" stroke="midnightblue" points="1155.5,-404.01 1152,-394.01 1148.5,-404.01 1155.5,-404.01"/>
</g>
<!-- Node25 -->
<g id="node25" class="node">
<title>Node25</title>
<g id="a_node25"><a xlink:title=" ">
<polygon fill="white" stroke="#bfbfbf" points="1211.5,-375 1211.5,-394 1276.5,-394 1276.5,-375 1211.5,-375"/>
<text text-anchor="middle" x="1244" y="-382" font-family="Helvetica,sans-Serif" font-size="10.00">functional</text>
</a>
</g>
</g>
<!-- Node3&#45;&gt;Node25 -->
<g id="edge28" class="edge">
<title>Node3&#45;&gt;Node25</title>
<path fill="none" stroke="midnightblue" d="M1165.18,-436.48C1180.07,-426.84 1204.54,-411.02 1222.27,-399.55"/>
<polygon fill="midnightblue" stroke="midnightblue" points="1224.35,-402.38 1230.84,-394.01 1220.55,-396.5 1224.35,-402.38"/>
</g>
<!-- Node26 -->
<g id="node26" class="node">
<title>Node26</title>
<g id="a_node26"><a xlink:title=" ">
<polygon fill="white" stroke="#bfbfbf" points="1295,-375 1295,-394 1349,-394 1349,-375 1295,-375"/>
<text text-anchor="middle" x="1322" y="-382" font-family="Helvetica,sans-Serif" font-size="10.00">random</text>
</a>
</g>
</g>
<!-- Node3&#45;&gt;Node26 -->
<g id="edge29" class="edge">
<title>Node3&#45;&gt;Node26</title>
<path fill="none" stroke="midnightblue" d="M1178.86,-436.5C1206.03,-427.77 1249.16,-413.59 1286,-400 1287.85,-399.32 1289.75,-398.6 1291.65,-397.87"/>
<polygon fill="midnightblue" stroke="midnightblue" points="1293.11,-401.06 1301.14,-394.14 1290.55,-394.54 1293.11,-401.06"/>
</g>
<!-- Node5 -->
<g id="node5" class="node">
<title>Node5</title>
<g id="a_node5"><a xlink:href="LinearMeasurementModel_8h.html" target="_top" xlink:title=" ">
<polygon fill="white" stroke="black" points="734.5,-302.5 734.5,-332.5 911.5,-332.5 911.5,-302.5 734.5,-302.5"/>
<text text-anchor="start" x="742.5" y="-320.5" font-family="Helvetica,sans-Serif" font-size="10.00">BayesFilters/LinearMeasurement</text>
<text text-anchor="middle" x="823" y="-309.5" font-family="Helvetica,sans-Serif" font-size="10.00">Model.h</text>
</a>
</g>
</g>
<!-- Node4&#45;&gt;Node5 -->
<g id="edge4" class="edge">
<title>Node4&#45;&gt;Node5</title>
<path fill="none" stroke="midnightblue" d="M804.99,-369.4C807.79,-361.47 811.37,-351.38 814.59,-342.27"/>
<polygon fill="midnightblue" stroke="midnightblue" points="817.98,-343.17 818.02,-332.58 811.38,-340.84 817.98,-343.17"/>
</g>
<!-- Node23 -->
<g id="node23" class="node">
<title>Node23</title>
<g id="a_node23"><a xlink:title=" ">
<polygon fill="white" stroke="#bfbfbf" points="325.5,-112.5 325.5,-131.5 402.5,-131.5 402.5,-112.5 325.5,-112.5"/>
<text text-anchor="middle" x="364" y="-119.5" font-family="Helvetica,sans-Serif" font-size="10.00">Eigen/Dense</text>
</a>
</g>
</g>
<!-- Node4&#45;&gt;Node23 -->
<g id="edge25" class="edge">
<title>Node4&#45;&gt;Node23</title>
<path fill="none" stroke="midnightblue" d="M719.35,-375.39C549.69,-356.39 165.68,-302.6 95,-199 87.24,-187.62 86.1,-178.52 95,-168 109.06,-151.39 241.67,-135.43 315.3,-127.75"/>
<polygon fill="midnightblue" stroke="midnightblue" points="315.69,-131.23 325.28,-126.72 314.97,-124.27 315.69,-131.23"/>
</g>
<!-- Node6 -->
<g id="node6" class="node">
<title>Node6</title>
<g id="a_node6"><a xlink:href="AdditiveMeasurementModel_8h.html" target="_top" xlink:title=" ">
<polygon fill="white" stroke="black" points="751,-235.5 751,-265.5 939,-265.5 939,-235.5 751,-235.5"/>
<text text-anchor="start" x="759" y="-253.5" font-family="Helvetica,sans-Serif" font-size="10.00">BayesFilters/AdditiveMeasurement</text>
<text text-anchor="middle" x="845" y="-242.5" font-family="Helvetica,sans-Serif" font-size="10.00">Model.h</text>
</a>
</g>
</g>
<!-- Node5&#45;&gt;Node6 -->
<g id="edge5" class="edge">
<title>Node5&#45;&gt;Node6</title>
<path fill="none" stroke="midnightblue" d="M827.77,-302.4C830.45,-294.47 833.87,-284.38 836.95,-275.27"/>
<polygon fill="midnightblue" stroke="midnightblue" points="840.34,-276.17 840.24,-265.58 833.71,-273.93 840.34,-276.17"/>
</g>
<!-- Node7 -->
<g id="node7" class="node">
<title>Node7</title>
<g id="a_node7"><a xlink:href="MeasurementModel_8h.html" target="_top" xlink:title=" ">
<polygon fill="white" stroke="black" points="800.5,-168.5 800.5,-198.5 947.5,-198.5 947.5,-168.5 800.5,-168.5"/>
<text text-anchor="start" x="808.5" y="-186.5" font-family="Helvetica,sans-Serif" font-size="10.00">BayesFilters/Measurement</text>
<text text-anchor="middle" x="874" y="-175.5" font-family="Helvetica,sans-Serif" font-size="10.00">Model.h</text>
</a>
</g>
</g>
<!-- Node6&#45;&gt;Node7 -->
<g id="edge6" class="edge">
<title>Node6&#45;&gt;Node7</title>
<path fill="none" stroke="midnightblue" d="M851.29,-235.4C854.86,-227.39 859.43,-217.16 863.53,-207.98"/>
<polygon fill="midnightblue" stroke="midnightblue" points="866.84,-209.13 867.72,-198.58 860.45,-206.28 866.84,-209.13"/>
</g>
<!-- Node8 -->
<g id="node8" class="node">
<title>Node8</title>
<g id="a_node8"><a xlink:href="Data_8h.html" target="_top" xlink:title=" ">
<polygon fill="white" stroke="black" points="422,-112.5 422,-131.5 534,-131.5 534,-112.5 422,-112.5"/>
<text text-anchor="middle" x="478" y="-119.5" font-family="Helvetica,sans-Serif" font-size="10.00">BayesFilters/Data.h</text>
</a>
</g>
</g>
<!-- Node7&#45;&gt;Node8 -->
<g id="edge7" class="edge">
<title>Node7&#45;&gt;Node8</title>
<path fill="none" stroke="midnightblue" d="M800.25,-169.5C797.13,-168.98 794.03,-168.48 791,-168 706,-154.47 607.73,-140.63 544.31,-131.94"/>
<polygon fill="midnightblue" stroke="midnightblue" points="544.43,-128.43 534.05,-130.54 543.49,-135.36 544.43,-128.43"/>
</g>
<!-- Node7&#45;&gt;Node11 -->
<g id="edge21" class="edge">
<title>Node7&#45;&gt;Node11</title>
<path fill="none" stroke="midnightblue" d="M947.76,-177.44C1012.14,-171.3 1098.54,-158.31 1120,-132 1141.35,-105.82 1141.91,-81.7 1120,-56 1089.43,-20.15 948.46,-12.74 878.55,-11.29"/>
<polygon fill="midnightblue" stroke="midnightblue" points="878.42,-7.79 868.36,-11.11 878.3,-14.79 878.42,-7.79"/>
</g>
<!-- Node15 -->
<g id="node15" class="node">
<title>Node15</title>
<g id="a_node15"><a xlink:href="Logger_8h.html" target="_top" xlink:title=" ">
<polygon fill="white" stroke="black" points="989.5,-112.5 989.5,-131.5 1110.5,-131.5 1110.5,-112.5 989.5,-112.5"/>
<text text-anchor="middle" x="1050" y="-119.5" font-family="Helvetica,sans-Serif" font-size="10.00">BayesFilters/Logger.h</text>
</a>
</g>
</g>
<!-- Node7&#45;&gt;Node15 -->
<g id="edge14" class="edge">
<title>Node7&#45;&gt;Node15</title>
<path fill="none" stroke="midnightblue" d="M915.71,-168.4C945.99,-158.16 986.49,-144.47 1015.07,-134.81"/>
<polygon fill="midnightblue" stroke="midnightblue" points="1016.3,-138.09 1024.65,-131.57 1014.05,-131.46 1016.3,-138.09"/>
</g>
<!-- Node7&#45;&gt;Node18 -->
<g id="edge22" class="edge">
<title>Node7&#45;&gt;Node18</title>
<path fill="none" stroke="midnightblue" d="M862.61,-168.19C855.32,-158.45 846.1,-145.01 840,-132 832.98,-117.03 827.94,-98.89 824.82,-85.59"/>
<polygon fill="midnightblue" stroke="midnightblue" points="828.22,-84.73 822.65,-75.72 821.38,-86.24 828.22,-84.73"/>
</g>
<!-- Node7&#45;&gt;Node20 -->
<g id="edge19" class="edge">
<title>Node7&#45;&gt;Node20</title>
<path fill="none" stroke="midnightblue" d="M800.29,-169.23C797.16,-168.79 794.05,-168.38 791,-168 741.61,-161.88 437.92,-140.66 278.12,-129.69"/>
<polygon fill="midnightblue" stroke="midnightblue" points="278.02,-126.17 267.8,-128.98 277.54,-133.16 278.02,-126.17"/>
</g>
<!-- Node22 -->
<g id="node22" class="node">
<title>Node22</title>
<g id="a_node22"><a xlink:title=" ">
<polygon fill="white" stroke="#bfbfbf" points="849.5,-112.5 849.5,-131.5 894.5,-131.5 894.5,-112.5 849.5,-112.5"/>
<text text-anchor="middle" x="872" y="-119.5" font-family="Helvetica,sans-Serif" font-size="10.00">utility</text>
</a>
</g>
</g>
<!-- Node7&#45;&gt;Node22 -->
<g id="edge23" class="edge">
<title>Node7&#45;&gt;Node22</title>
<path fill="none" stroke="midnightblue" d="M873.53,-168.4C873.26,-160.47 872.92,-150.46 872.63,-141.86"/>
<polygon fill="midnightblue" stroke="midnightblue" points="876.13,-141.53 872.29,-131.66 869.13,-141.77 876.13,-141.53"/>
</g>
<!-- Node7&#45;&gt;Node23 -->
<g id="edge24" class="edge">
<title>Node7&#45;&gt;Node23</title>
<path fill="none" stroke="midnightblue" d="M800.28,-169.31C797.15,-168.85 794.04,-168.41 791,-168 623.75,-145.46 580.15,-155.27 413,-132 412.9,-131.99 412.79,-131.97 412.69,-131.96"/>
<polygon fill="midnightblue" stroke="midnightblue" points="413.15,-128.49 402.73,-130.43 412.09,-135.41 413.15,-128.49"/>
</g>
<!-- Node9 -->
<g id="node9" class="node">
<title>Node9</title>
<g id="a_node9"><a xlink:href="any_8h.html" target="_top" xlink:title=" ">
<polygon fill="white" stroke="black" points="427.5,-56.5 427.5,-75.5 532.5,-75.5 532.5,-56.5 427.5,-56.5"/>
<text text-anchor="middle" x="480" y="-63.5" font-family="Helvetica,sans-Serif" font-size="10.00">BayesFilters/any.h</text>
</a>
</g>
</g>
<!-- Node8&#45;&gt;Node9 -->
<g id="edge8" class="edge">
<title>Node8&#45;&gt;Node9</title>
<path fill="none" stroke="midnightblue" d="M478.33,-112.08C478.59,-105.01 478.97,-94.86 479.3,-85.99"/>
<polygon fill="midnightblue" stroke="midnightblue" points="482.8,-85.87 479.68,-75.75 475.81,-85.61 482.8,-85.87"/>
</g>
<!-- Node10 -->
<g id="node10" class="node">
<title>Node10</title>
<g id="a_node10"><a xlink:title=" ">
<polygon fill="white" stroke="#bfbfbf" points="325,-0.5 325,-19.5 389,-19.5 389,-0.5 325,-0.5"/>
<text text-anchor="middle" x="357" y="-7.5" font-family="Helvetica,sans-Serif" font-size="10.00">algorithm</text>
</a>
</g>
</g>
<!-- Node9&#45;&gt;Node10 -->
<g id="edge9" class="edge">
<title>Node9&#45;&gt;Node10</title>
<path fill="none" stroke="midnightblue" d="M460.51,-56.44C440.36,-47.6 408.68,-33.69 385.67,-23.59"/>
<polygon fill="midnightblue" stroke="midnightblue" points="386.96,-20.33 376.4,-19.52 384.15,-26.74 386.96,-20.33"/>
</g>
<!-- Node9&#45;&gt;Node11 -->
<g id="edge10" class="edge">
<title>Node9&#45;&gt;Node11</title>
<path fill="none" stroke="midnightblue" d="M532.59,-57.09C605.27,-46.16 734.81,-26.67 799.69,-16.91"/>
<polygon fill="midnightblue" stroke="midnightblue" points="800.53,-20.33 809.9,-15.38 799.49,-13.4 800.53,-20.33"/>
</g>
<!-- Node12 -->
<g id="node12" class="node">
<title>Node12</title>
<g id="a_node12"><a xlink:title=" ">
<polygon fill="white" stroke="#bfbfbf" points="407.5,-0.5 407.5,-19.5 472.5,-19.5 472.5,-0.5 407.5,-0.5"/>
<text text-anchor="middle" x="440" y="-7.5" font-family="Helvetica,sans-Serif" font-size="10.00">stdexcept</text>
</a>
</g>
</g>
<!-- Node9&#45;&gt;Node12 -->
<g id="edge11" class="edge">
<title>Node9&#45;&gt;Node12</title>
<path fill="none" stroke="midnightblue" d="M473.39,-56.08C467.74,-48.46 459.46,-37.26 452.55,-27.94"/>
<polygon fill="midnightblue" stroke="midnightblue" points="455.25,-25.7 446.48,-19.75 449.62,-29.87 455.25,-25.7"/>
</g>
<!-- Node13 -->
<g id="node13" class="node">
<title>Node13</title>
<g id="a_node13"><a xlink:title=" ">
<polygon fill="white" stroke="#bfbfbf" points="490.5,-0.5 490.5,-19.5 547.5,-19.5 547.5,-0.5 490.5,-0.5"/>
<text text-anchor="middle" x="519" y="-7.5" font-family="Helvetica,sans-Serif" font-size="10.00">typeinfo</text>
</a>
</g>
</g>
<!-- Node9&#45;&gt;Node13 -->
<g id="edge12" class="edge">
<title>Node9&#45;&gt;Node13</title>
<path fill="none" stroke="midnightblue" d="M486.44,-56.08C491.95,-48.46 500.03,-37.26 506.76,-27.94"/>
<polygon fill="midnightblue" stroke="midnightblue" points="509.66,-29.91 512.68,-19.75 503.99,-25.81 509.66,-29.91"/>
</g>
<!-- Node14 -->
<g id="node14" class="node">
<title>Node14</title>
<g id="a_node14"><a xlink:title=" ">
<polygon fill="white" stroke="#bfbfbf" points="565.5,-0.5 565.5,-19.5 634.5,-19.5 634.5,-0.5 565.5,-0.5"/>
<text text-anchor="middle" x="600" y="-7.5" font-family="Helvetica,sans-Serif" font-size="10.00">type_traits</text>
</a>
</g>
</g>
<!-- Node9&#45;&gt;Node14 -->
<g id="edge13" class="edge">
<title>Node9&#45;&gt;Node14</title>
<path fill="none" stroke="midnightblue" d="M499.01,-56.44C518.59,-47.64 549.31,-33.81 571.73,-23.72"/>
<polygon fill="midnightblue" stroke="midnightblue" points="573.39,-26.81 581.07,-19.52 570.52,-20.43 573.39,-26.81"/>
</g>
<!-- Node15&#45;&gt;Node16 -->
<g id="edge15" class="edge">
<title>Node15&#45;&gt;Node16</title>
<path fill="none" stroke="midnightblue" d="M1072.98,-112.44C1097.16,-103.44 1135.42,-89.19 1162.65,-79.05"/>
<polygon fill="midnightblue" stroke="midnightblue" points="1163.98,-82.29 1172.13,-75.52 1161.54,-75.73 1163.98,-82.29"/>
</g>
<!-- Node17 -->
<g id="node17" class="node">
<title>Node17</title>
<g id="a_node17"><a xlink:title=" ">
<polygon fill="white" stroke="#bfbfbf" points="1051,-56.5 1051,-75.5 1111,-75.5 1111,-56.5 1051,-56.5"/>
<text text-anchor="middle" x="1081" y="-63.5" font-family="Helvetica,sans-Serif" font-size="10.00">iostream</text>
</a>
</g>
</g>
<!-- Node15&#45;&gt;Node17 -->
<g id="edge16" class="edge">
<title>Node15&#45;&gt;Node17</title>
<path fill="none" stroke="midnightblue" d="M1055.12,-112.08C1059.41,-104.61 1065.66,-93.72 1070.94,-84.52"/>
<polygon fill="midnightblue" stroke="midnightblue" points="1074.03,-86.17 1075.98,-75.75 1067.96,-82.68 1074.03,-86.17"/>
</g>
<!-- Node15&#45;&gt;Node18 -->
<g id="edge17" class="edge">
<title>Node15&#45;&gt;Node18</title>
<path fill="none" stroke="midnightblue" d="M1013.71,-112.44C969.44,-102 895.28,-84.52 853.03,-74.55"/>
<polygon fill="midnightblue" stroke="midnightblue" points="853.8,-71.14 843.27,-72.25 852.2,-77.95 853.8,-71.14"/>
</g>
<!-- Node19 -->
<g id="node19" class="node">
<title>Node19</title>
<g id="a_node19"><a xlink:title=" ">
<polygon fill="white" stroke="#bfbfbf" points="985.5,-56.5 985.5,-75.5 1032.5,-75.5 1032.5,-56.5 985.5,-56.5"/>
<text text-anchor="middle" x="1009" y="-63.5" font-family="Helvetica,sans-Serif" font-size="10.00">vector</text>
</a>
</g>
</g>
<!-- Node15&#45;&gt;Node19 -->
<g id="edge18" class="edge">
<title>Node15&#45;&gt;Node19</title>
<path fill="none" stroke="midnightblue" d="M1043.23,-112.08C1037.44,-104.46 1028.94,-93.26 1021.86,-83.94"/>
<polygon fill="midnightblue" stroke="midnightblue" points="1024.48,-81.6 1015.64,-75.75 1018.9,-85.83 1024.48,-81.6"/>
</g>
<!-- Node21 -->
<g id="node21" class="node">
<title>Node21</title>
<g id="a_node21"><a xlink:title=" ">
<polygon fill="white" stroke="#bfbfbf" points="153.5,-56.5 153.5,-75.5 206.5,-75.5 206.5,-56.5 153.5,-56.5"/>
<text text-anchor="middle" x="180" y="-63.5" font-family="Helvetica,sans-Serif" font-size="10.00">cstddef</text>
</a>
</g>
</g>
<!-- Node20&#45;&gt;Node21 -->
<g id="edge20" class="edge">
<title>Node20&#45;&gt;Node21</title>
<path fill="none" stroke="midnightblue" d="M180,-112.08C180,-105.01 180,-94.86 180,-85.99"/>
<polygon fill="midnightblue" stroke="midnightblue" points="183.5,-85.75 180,-75.75 176.5,-85.75 183.5,-85.75"/>
</g>
<!-- Node27&#45;&gt;Node11 -->
<g id="edge51" class="edge">
<title>Node27&#45;&gt;Node11</title>
<path fill="none" stroke="midnightblue" d="M977.26,-369.3C979.86,-333.92 983.47,-239.56 956,-168 933.48,-109.33 882.47,-53.52 855.86,-27.04"/>
<polygon fill="midnightblue" stroke="midnightblue" points="858.04,-24.28 848.45,-19.79 853.15,-29.28 858.04,-24.28"/>
</g>
<!-- Node27&#45;&gt;Node15 -->
<g id="edge37" class="edge">
<title>Node27&#45;&gt;Node15</title>
<path fill="none" stroke="midnightblue" d="M979.98,-369.49C992.45,-325.58 1030.81,-190.56 1044.81,-141.26"/>
<polygon fill="midnightblue" stroke="midnightblue" points="1048.18,-142.2 1047.55,-131.63 1041.45,-140.29 1048.18,-142.2"/>
</g>
<!-- Node27&#45;&gt;Node16 -->
<g id="edge52" class="edge">
<title>Node27&#45;&gt;Node16</title>
<path fill="none" stroke="midnightblue" d="M985.69,-369.49C1021.22,-318.15 1144.25,-140.34 1183.13,-84.16"/>
<polygon fill="midnightblue" stroke="midnightblue" points="1186.19,-85.89 1189,-75.67 1180.43,-81.91 1186.19,-85.89"/>
</g>
<!-- Node28 -->
<g id="node28" class="node">
<title>Node28</title>
<g id="a_node28"><a xlink:href="Agent_8h.html" target="_top" xlink:title=" ">
<polygon fill="white" stroke="black" points="471.5,-174 471.5,-193 588.5,-193 588.5,-174 471.5,-174"/>
<text text-anchor="middle" x="530" y="-181" font-family="Helvetica,sans-Serif" font-size="10.00">BayesFilters/Agent.h</text>
</a>
</g>
</g>
<!-- Node27&#45;&gt;Node28 -->
<g id="edge32" class="edge">
<title>Node27&#45;&gt;Node28</title>
<path fill="none" stroke="midnightblue" d="M898.25,-370.29C895.13,-369.84 892.04,-369.41 889,-369 732.7,-348.03 687.03,-378.39 536,-333 474.51,-314.52 441.25,-320.93 408,-266 400.87,-254.21 400.34,-246.45 408,-235 417.51,-220.77 457.44,-205.96 489.07,-196.08"/>
<polygon fill="midnightblue" stroke="midnightblue" points="490.45,-199.32 498.99,-193.06 488.41,-192.63 490.45,-199.32"/>
</g>
<!-- Node29 -->
<g id="node29" class="node">
<title>Node29</title>
<g id="a_node29"><a xlink:href="StateModel_8h.html" target="_top" xlink:title=" ">
<polygon fill="white" stroke="black" points="545,-308 545,-327 689,-327 689,-308 545,-308"/>
<text text-anchor="middle" x="617" y="-315" font-family="Helvetica,sans-Serif" font-size="10.00">BayesFilters/StateModel.h</text>
</a>
</g>
</g>
<!-- Node27&#45;&gt;Node29 -->
<g id="edge38" class="edge">
<title>Node27&#45;&gt;Node29</title>
<path fill="none" stroke="midnightblue" d="M898.54,-369.48C831.13,-357.27 734.95,-339.86 674.27,-328.87"/>
<polygon fill="midnightblue" stroke="midnightblue" points="674.57,-325.37 664.1,-327.03 673.32,-332.25 674.57,-325.37"/>
</g>
<!-- Node28&#45;&gt;Node8 -->
<g id="edge33" class="edge">
<title>Node28&#45;&gt;Node8</title>
<path fill="none" stroke="midnightblue" d="M522.55,-173.98C514.67,-164.96 502.06,-150.52 492.26,-139.31"/>
<polygon fill="midnightblue" stroke="midnightblue" points="494.65,-136.74 485.44,-131.51 489.38,-141.34 494.65,-136.74"/>
</g>
<!-- Node28&#45;&gt;Node11 -->
<g id="edge34" class="edge">
<title>Node28&#45;&gt;Node11</title>
<path fill="none" stroke="midnightblue" d="M533.77,-173.72C544.28,-150.39 576.29,-86.52 624,-56 678.09,-21.4 754.04,-12.85 799.7,-11.05"/>
<polygon fill="midnightblue" stroke="midnightblue" points="799.9,-14.54 809.79,-10.74 799.69,-7.55 799.9,-14.54"/>
</g>
<!-- Node28&#45;&gt;Node18 -->
<g id="edge35" class="edge">
<title>Node28&#45;&gt;Node18</title>
<path fill="none" stroke="midnightblue" d="M543.31,-173.79C566.01,-159.26 614.06,-129.88 658,-112 701.92,-94.13 755.31,-80.9 788.73,-73.56"/>
<polygon fill="midnightblue" stroke="midnightblue" points="789.8,-76.91 798.84,-71.39 788.33,-70.07 789.8,-76.91"/>
</g>
<!-- Node28&#45;&gt;Node23 -->
<g id="edge36" class="edge">
<title>Node28&#45;&gt;Node23</title>
<path fill="none" stroke="midnightblue" d="M506.22,-173.98C477.62,-163.72 429.45,-146.46 397.2,-134.9"/>
<polygon fill="midnightblue" stroke="midnightblue" points="398.33,-131.59 387.74,-131.51 395.97,-138.18 398.33,-131.59"/>
</g>
<!-- Node29&#45;&gt;Node11 -->
<g id="edge50" class="edge">
<title>Node29&#45;&gt;Node11</title>
<path fill="none" stroke="midnightblue" d="M615.97,-307.83C612.79,-276.97 606.3,-171.17 658,-112 697.37,-66.94 761.96,-37.8 802.4,-22.91"/>
<polygon fill="midnightblue" stroke="midnightblue" points="803.65,-26.19 811.88,-19.52 801.29,-19.6 803.65,-26.19"/>
</g>
<!-- Node30 -->
<g id="node30" class="node">
<title>Node30</title>
<g id="a_node30"><a xlink:href="ExogenousModel_8h.html" target="_top" xlink:title=" ">
<polygon fill="white" stroke="black" points="417.5,-241 417.5,-260 588.5,-260 588.5,-241 417.5,-241"/>
<text text-anchor="middle" x="503" y="-248" font-family="Helvetica,sans-Serif" font-size="10.00">BayesFilters/ExogenousModel.h</text>
</a>
</g>
</g>
<!-- Node29&#45;&gt;Node30 -->
<g id="edge39" class="edge">
<title>Node29&#45;&gt;Node30</title>
<path fill="none" stroke="midnightblue" d="M601.63,-307.73C582.48,-296.82 549.56,-278.05 527.06,-265.22"/>
<polygon fill="midnightblue" stroke="midnightblue" points="528.55,-262.04 518.13,-260.13 525.08,-268.12 528.55,-262.04"/>
</g>
<!-- Node32 -->
<g id="node32" class="node">
<title>Node32</title>
<g id="a_node32"><a xlink:href="Skippable_8h.html" target="_top" xlink:title=" ">
<polygon fill="white" stroke="black" points="645.5,-174 645.5,-193 782.5,-193 782.5,-174 645.5,-174"/>
<text text-anchor="middle" x="714" y="-181" font-family="Helvetica,sans-Serif" font-size="10.00">BayesFilters/Skippable.h</text>
</a>
</g>
</g>
<!-- Node29&#45;&gt;Node32 -->
<g id="edge46" class="edge">
<title>Node29&#45;&gt;Node32</title>
<path fill="none" stroke="midnightblue" d="M623.36,-307.84C639.26,-286.21 680.92,-229.51 701.76,-201.15"/>
<polygon fill="midnightblue" stroke="midnightblue" points="704.64,-203.15 707.74,-193.02 699,-199.01 704.64,-203.15"/>
</g>
<!-- Node34 -->
<g id="node34" class="node">
<title>Node34</title>
<g id="a_node34"><a xlink:href="StateProcess_8h.html" target="_top" xlink:title=" ">
<polygon fill="white" stroke="black" points="104,-174 104,-193 256,-193 256,-174 104,-174"/>
<text text-anchor="middle" x="180" y="-181" font-family="Helvetica,sans-Serif" font-size="10.00">BayesFilters/StateProcess.h</text>
</a>
</g>
</g>
<!-- Node29&#45;&gt;Node34 -->
<g id="edge47" class="edge">
<title>Node29&#45;&gt;Node34</title>
<path fill="none" stroke="midnightblue" d="M576.2,-307.99C533.83,-298.83 465.77,-283.25 408,-266 336.44,-244.63 254.39,-213.67 210.88,-196.72"/>
<polygon fill="midnightblue" stroke="midnightblue" points="212.03,-193.41 201.44,-193.03 209.48,-199.93 212.03,-193.41"/>
</g>
<!-- Node31 -->
<g id="node31" class="node">
<title>Node31</title>
<g id="a_node31"><a xlink:href="ExogenousProcess_8h.html" target="_top" xlink:title=" ">
<polygon fill="white" stroke="black" points="274.5,-174 274.5,-193 453.5,-193 453.5,-174 274.5,-174"/>
<text text-anchor="middle" x="364" y="-181" font-family="Helvetica,sans-Serif" font-size="10.00">BayesFilters/ExogenousProcess.h</text>
</a>
</g>
</g>
<!-- Node30&#45;&gt;Node31 -->
<g id="edge40" class="edge">
<title>Node30&#45;&gt;Node31</title>
<path fill="none" stroke="midnightblue" d="M484.54,-240.87C460.76,-229.75 419.21,-210.32 391.65,-197.43"/>
<polygon fill="midnightblue" stroke="midnightblue" points="393.08,-194.23 382.53,-193.17 390.11,-200.57 393.08,-194.23"/>
</g>
<!-- Node30&#45;&gt;Node32 -->
<g id="edge43" class="edge">
<title>Node30&#45;&gt;Node32</title>
<path fill="none" stroke="midnightblue" d="M531.02,-240.87C568.41,-229.35 634.72,-208.92 676.42,-196.08"/>
<polygon fill="midnightblue" stroke="midnightblue" points="677.67,-199.35 686.2,-193.06 675.61,-192.66 677.67,-199.35"/>
</g>
<!-- Node31&#45;&gt;Node20 -->
<g id="edge41" class="edge">
<title>Node31&#45;&gt;Node20</title>
<path fill="none" stroke="midnightblue" d="M337.64,-173.98C305.66,-163.64 251.62,-146.16 215.88,-134.6"/>
<polygon fill="midnightblue" stroke="midnightblue" points="216.91,-131.26 206.31,-131.51 214.75,-137.92 216.91,-131.26"/>
</g>
<!-- Node31&#45;&gt;Node23 -->
<g id="edge42" class="edge">
<title>Node31&#45;&gt;Node23</title>
<path fill="none" stroke="midnightblue" d="M364,-173.98C364,-165.58 364,-152.48 364,-141.66"/>
<polygon fill="midnightblue" stroke="midnightblue" points="367.5,-141.51 364,-131.51 360.5,-141.51 367.5,-141.51"/>
</g>
<!-- Node33 -->
<g id="node33" class="node">
<title>Node33</title>
<g id="a_node33"><a xlink:href="Skipper_8h.html" target="_top" xlink:title=" ">
<polygon fill="white" stroke="black" points="667.5,-112.5 667.5,-131.5 792.5,-131.5 792.5,-112.5 667.5,-112.5"/>
<text text-anchor="middle" x="730" y="-119.5" font-family="Helvetica,sans-Serif" font-size="10.00">BayesFilters/Skipper.h</text>
</a>
</g>
</g>
<!-- Node32&#45;&gt;Node33 -->
<g id="edge44" class="edge">
<title>Node32&#45;&gt;Node33</title>
<path fill="none" stroke="midnightblue" d="M716.29,-173.98C718.57,-165.49 722.15,-152.2 725.07,-141.32"/>
<polygon fill="midnightblue" stroke="midnightblue" points="728.49,-142.07 727.71,-131.51 721.74,-140.26 728.49,-142.07"/>
</g>
<!-- Node33&#45;&gt;Node18 -->
<g id="edge45" class="edge">
<title>Node33&#45;&gt;Node18</title>
<path fill="none" stroke="midnightblue" d="M744.62,-112.32C758.95,-103.82 781.01,-90.73 797.75,-80.8"/>
<polygon fill="midnightblue" stroke="midnightblue" points="799.6,-83.77 806.42,-75.65 796.03,-77.75 799.6,-83.77"/>
</g>
<!-- Node34&#45;&gt;Node20 -->
<g id="edge48" class="edge">
<title>Node34&#45;&gt;Node20</title>
<path fill="none" stroke="midnightblue" d="M180,-173.98C180,-165.58 180,-152.48 180,-141.66"/>
<polygon fill="midnightblue" stroke="midnightblue" points="183.5,-141.51 180,-131.51 176.5,-141.51 183.5,-141.51"/>
</g>
<!-- Node34&#45;&gt;Node23 -->
<g id="edge49" class="edge">
<title>Node34&#45;&gt;Node23</title>
<path fill="none" stroke="midnightblue" d="M206.36,-173.98C238.34,-163.64 292.38,-146.16 328.12,-134.6"/>
<polygon fill="midnightblue" stroke="midnightblue" points="329.25,-137.92 337.69,-131.51 327.09,-131.26 329.25,-137.92"/>
</g>
</g>
</svg>
