<?xml version="1.0" encoding="UTF-8" standalone="no"?>
<!DOCTYPE svg PUBLIC "-//W3C//DTD SVG 1.1//EN"
 "http://www.w3.org/Graphics/SVG/1.1/DTD/svg11.dtd">
<!-- Generated by graphviz version 2.43.0 (0)
 -->
<!-- Title: /home/user/bayes&#45;filters&#45;lib/src/BayesFilters/include/BayesFilters/SimulatedLinearSensor.h Pages: 1 -->
<svg width="1226pt" height="542pt"
 viewBox="0.00 0.00 1225.50 542.00" xmlns="http://www.w3.org/2000/svg" xmlns:xlink="http://www.w3.org/1999/xlink">
<g id="graph0" class="graph" transform="scale(1 1) rotate(0) translate(4 538)">
<title>/home/user/bayes&#45;filters&#45;lib/src/BayesFilters/include/BayesFilters/SimulatedLinearSensor.h</title>
<polygon fill="white" stroke="transparent" points="-4,4 -4,-538 1221.5,-538 1221.5,4 -4,4"/>
<!-- Node1 -->
<g id="node1" class="node">
<title>Node1</title>
<g id="a_node1"><a xlink:title=" ">
<polygon fill="#bfbfbf" stroke="black" points="930,-492.5 930,-533.5 1133,-533.5 1133,-492.5 930,-492.5"/>
<text text-anchor="start" x="938" y="-521.5" font-family="Helvetica,sans-Serif" font-size="10.00">/home/user/bayes&#45;filters</text>
<text text-anchor="start" x="938" y="-510.5" font-family="Helvetica,sans-Serif" font-size="10.00">&#45;lib/src/BayesFilters/include</text>
<text text-anchor="middle" x="1031.5" y="-499.5" font-family="Helvetica,sans-Serif" font-size="10.00">/BayesFilters/SimulatedLinearSensor.h</text>
</a>
</g>
</g>
<!-- Node2 -->
<g id="node2" class="node">
<title>Node2</title>
<g id="a_node2"><a xlink:href="LinearModel_8h.html" target="_top" xlink:title=" ">
<polygon fill="white" stroke="black" points="128,-436.5 128,-455.5 277,-455.5 277,-436.5 128,-436.5"/>
<text text-anchor="middle" x="202.5" y="-443.5" font-family="Helvetica,sans-Serif" font-size="10.00">BayesFilters/LinearModel.h</text>
</a>
</g>
</g>
<!-- Node1&#45;&gt;Node2 -->
<g id="edge1" class="edge">
<title>Node1&#45;&gt;Node2</title>
<path fill="none" stroke="midnightblue" d="M929.85,-504.03C764.7,-491.08 441.14,-465.71 287.45,-453.66"/>
<polygon fill="midnightblue" stroke="midnightblue" points="287.37,-450.14 277.13,-452.85 286.83,-457.12 287.37,-450.14"/>
</g>
<!-- Node10 -->
<g id="node10" class="node">
<title>Node10</title>
<g id="a_node10"><a xlink:title=" ">
<polygon fill="white" stroke="#bfbfbf" points="826.5,-0.5 826.5,-19.5 884.5,-19.5 884.5,-0.5 826.5,-0.5"/>
<text text-anchor="middle" x="855.5" y="-7.5" font-family="Helvetica,sans-Serif" font-size="10.00">memory</text>
</a>
</g>
</g>
<!-- Node1&#45;&gt;Node10 -->
<g id="edge53" class="edge">
<title>Node1&#45;&gt;Node10</title>
<path fill="none" stroke="midnightblue" d="M1108.23,-492.46C1159.46,-474.27 1217.5,-441.34 1217.5,-385.5 1217.5,-385.5 1217.5,-385.5 1217.5,-121 1217.5,-73.09 1175.55,-74.85 1131.5,-56 1052.04,-21.99 949.62,-13.52 894.6,-11.52"/>
<polygon fill="midnightblue" stroke="midnightblue" points="894.68,-8.02 884.57,-11.2 894.46,-15.01 894.68,-8.02"/>
</g>
<!-- Node19 -->
<g id="node19" class="node">
<title>Node19</title>
<g id="a_node19"><a xlink:href="VectorDescription_8h.html" target="_top" xlink:title=" ">
<polygon fill="white" stroke="black" points="874,-112.5 874,-131.5 1049,-131.5 1049,-112.5 874,-112.5"/>
<text text-anchor="middle" x="961.5" y="-119.5" font-family="Helvetica,sans-Serif" font-size="10.00">BayesFilters/VectorDescription.h</text>
</a>
</g>
</g>
<!-- Node1&#45;&gt;Node19 -->
<g id="edge52" class="edge">
<title>Node1&#45;&gt;Node19</title>
<path fill="none" stroke="midnightblue" d="M1051.17,-492.48C1072.49,-469.17 1103.5,-427.95 1103.5,-385.5 1103.5,-385.5 1103.5,-385.5 1103.5,-249.5 1103.5,-212.31 1109.15,-195.85 1084.5,-168 1069.86,-151.46 1048.63,-141 1027.91,-134.38"/>
<polygon fill="midnightblue" stroke="midnightblue" points="1028.71,-130.97 1018.13,-131.51 1026.75,-137.68 1028.71,-130.97"/>
</g>
<!-- Node26 -->
<g id="node26" class="node">
<title>Node26</title>
<g id="a_node26"><a xlink:href="SimulatedStateModel_8h.html" target="_top" xlink:title=" ">
<polygon fill="white" stroke="black" points="626,-369.5 626,-399.5 781,-399.5 781,-369.5 626,-369.5"/>
<text text-anchor="start" x="634" y="-387.5" font-family="Helvetica,sans-Serif" font-size="10.00">BayesFilters/SimulatedState</text>
<text text-anchor="middle" x="703.5" y="-376.5" font-family="Helvetica,sans-Serif" font-size="10.00">Model.h</text>
</a>
</g>
</g>
<!-- Node1&#45;&gt;Node26 -->
<g id="edge30" class="edge">
<title>Node1&#45;&gt;Node26</title>
<path fill="none" stroke="midnightblue" d="M980.61,-492.37C917.41,-468 810.53,-426.78 749.62,-403.29"/>
<polygon fill="midnightblue" stroke="midnightblue" points="750.85,-400.01 740.26,-399.68 748.33,-406.54 750.85,-400.01"/>
</g>
<!-- Node3 -->
<g id="node3" class="node">
<title>Node3</title>
<g id="a_node3"><a xlink:href="LTIMeasurementModel_8h.html" target="_top" xlink:title=" ">
<polygon fill="white" stroke="black" points="234,-369.5 234,-399.5 395,-399.5 395,-369.5 234,-369.5"/>
<text text-anchor="start" x="242" y="-387.5" font-family="Helvetica,sans-Serif" font-size="10.00">BayesFilters/LTIMeasurement</text>
<text text-anchor="middle" x="314.5" y="-376.5" font-family="Helvetica,sans-Serif" font-size="10.00">Model.h</text>
</a>
</g>
</g>
<!-- Node2&#45;&gt;Node3 -->
<g id="edge2" class="edge">
<title>Node2&#45;&gt;Node3</title>
<path fill="none" stroke="midnightblue" d="M218.55,-436.48C234.28,-428.12 258.8,-415.09 279.11,-404.3"/>
<polygon fill="midnightblue" stroke="midnightblue" points="280.91,-407.31 288.1,-399.52 277.63,-401.12 280.91,-407.31"/>
</g>
<!-- Node15 -->
<g id="node15" class="node">
<title>Node15</title>
<g id="a_node15"><a xlink:title=" ">
<polygon fill="white" stroke="#bfbfbf" points="0,-56.5 0,-75.5 55,-75.5 55,-56.5 0,-56.5"/>
<text text-anchor="middle" x="27.5" y="-63.5" font-family="Helvetica,sans-Serif" font-size="10.00">fstream</text>
</a>
</g>
</g>
<!-- Node2&#45;&gt;Node15 -->
<g id="edge26" class="edge">
<title>Node2&#45;&gt;Node15</title>
<path fill="none" stroke="midnightblue" d="M143.11,-436.44C98.93,-428.88 43.62,-416.49 27.5,-400 1.5,-373.4 8.5,-355.69 8.5,-318.5 8.5,-318.5 8.5,-318.5 8.5,-182.5 8.5,-147.9 16.9,-108.24 22.53,-85.55"/>
<polygon fill="midnightblue" stroke="midnightblue" points="25.99,-86.17 25.09,-75.61 19.21,-84.42 25.99,-86.17"/>
</g>
<!-- Node17 -->
<g id="node17" class="node">
<title>Node17</title>
<g id="a_node17"><a xlink:title=" ">
<polygon fill="white" stroke="#bfbfbf" points="471.5,-56.5 471.5,-75.5 515.5,-75.5 515.5,-56.5 471.5,-56.5"/>
<text text-anchor="middle" x="493.5" y="-63.5" font-family="Helvetica,sans-Serif" font-size="10.00">string</text>
</a>
</g>
</g>
<!-- Node2&#45;&gt;Node17 -->
<g id="edge29" class="edge">
<title>Node2&#45;&gt;Node17</title>
<path fill="none" stroke="midnightblue" d="M200.16,-436.12C192.4,-404.52 170.79,-296.14 221.5,-235 258.95,-189.84 296.3,-225.77 348.5,-199 368.2,-188.89 368.42,-179.23 387.5,-168 423.56,-146.77 446.55,-163.14 474.5,-132 485.9,-119.3 490.48,-100.1 492.31,-85.85"/>
<polygon fill="midnightblue" stroke="midnightblue" points="495.81,-86 493.27,-75.71 488.84,-85.34 495.81,-86"/>
</g>
<!-- Node23 -->
<g id="node23" class="node">
<title>Node23</title>
<g id="a_node23"><a xlink:title=" ">
<polygon fill="white" stroke="#bfbfbf" points="413,-375 413,-394 496,-394 496,-375 413,-375"/>
<text text-anchor="middle" x="454.5" y="-382" font-family="Helvetica,sans-Serif" font-size="10.00">initializer_list</text>
</a>
</g>
</g>
<!-- Node2&#45;&gt;Node23 -->
<g id="edge25" class="edge">
<title>Node2&#45;&gt;Node23</title>
<path fill="none" stroke="midnightblue" d="M243.85,-436.46C284.6,-427.87 348.56,-413.95 403.5,-400 407.4,-399.01 411.46,-397.93 415.51,-396.83"/>
<polygon fill="midnightblue" stroke="midnightblue" points="416.75,-400.12 425.45,-394.07 414.88,-393.37 416.75,-400.12"/>
</g>
<!-- Node24 -->
<g id="node24" class="node">
<title>Node24</title>
<g id="a_node24"><a xlink:title=" ">
<polygon fill="white" stroke="#bfbfbf" points="37,-375 37,-394 102,-394 102,-375 37,-375"/>
<text text-anchor="middle" x="69.5" y="-382" font-family="Helvetica,sans-Serif" font-size="10.00">functional</text>
</a>
</g>
</g>
<!-- Node2&#45;&gt;Node24 -->
<g id="edge27" class="edge">
<title>Node2&#45;&gt;Node24</title>
<path fill="none" stroke="midnightblue" d="M183.44,-436.48C161.03,-426.45 123.59,-409.7 97.79,-398.15"/>
<polygon fill="midnightblue" stroke="midnightblue" points="99.08,-394.9 88.52,-394.01 96.22,-401.29 99.08,-394.9"/>
</g>
<!-- Node25 -->
<g id="node25" class="node">
<title>Node25</title>
<g id="a_node25"><a xlink:title=" ">
<polygon fill="white" stroke="#bfbfbf" points="120.5,-375 120.5,-394 174.5,-394 174.5,-375 120.5,-375"/>
<text text-anchor="middle" x="147.5" y="-382" font-family="Helvetica,sans-Serif" font-size="10.00">random</text>
</a>
</g>
</g>
<!-- Node2&#45;&gt;Node25 -->
<g id="edge28" class="edge">
<title>Node2&#45;&gt;Node25</title>
<path fill="none" stroke="midnightblue" d="M194.62,-436.48C186.21,-427.37 172.68,-412.74 162.27,-401.48"/>
<polygon fill="midnightblue" stroke="midnightblue" points="164.72,-398.98 155.37,-394.01 159.58,-403.73 164.72,-398.98"/>
</g>
<!-- Node4 -->
<g id="node4" class="node">
<title>Node4</title>
<g id="a_node4"><a xlink:href="LinearMeasurementModel_8h.html" target="_top" xlink:title=" ">
<polygon fill="white" stroke="black" points="230,-302.5 230,-332.5 407,-332.5 407,-302.5 230,-302.5"/>
<text text-anchor="start" x="238" y="-320.5" font-family="Helvetica,sans-Serif" font-size="10.00">BayesFilters/LinearMeasurement</text>
<text text-anchor="middle" x="318.5" y="-309.5" font-family="Helvetica,sans-Serif" font-size="10.00">Model.h</text>
</a>
</g>
</g>
<!-- Node3&#45;&gt;Node4 -->
<g id="edge3" class="edge">
<title>Node3&#45;&gt;Node4</title>
<path fill="none" stroke="midnightblue" d="M315.37,-369.4C315.85,-361.56 316.46,-351.6 317.02,-342.57"/>
<polygon fill="midnightblue" stroke="midnightblue" points="320.51,-342.77 317.63,-332.58 313.53,-342.34 320.51,-342.77"/>
</g>
<!-- Node22 -->
<g id="node22" class="node">
<title>Node22</title>
<g id="a_node22"><a xlink:title=" ">
<polygon fill="white" stroke="#bfbfbf" points="598,-112.5 598,-131.5 675,-131.5 675,-112.5 598,-112.5"/>
<text text-anchor="middle" x="636.5" y="-119.5" font-family="Helvetica,sans-Serif" font-size="10.00">Eigen/Dense</text>
</a>
</g>
</g>
<!-- Node3&#45;&gt;Node22 -->
<g id="edge24" class="edge">
<title>Node3&#45;&gt;Node22</title>
<path fill="none" stroke="midnightblue" d="M351.03,-369.3C371.14,-360.52 395.91,-348.05 415.5,-333 493.15,-273.35 486.19,-230.59 561.5,-168 576.25,-155.74 594.71,-144.62 609.62,-136.5"/>
<polygon fill="midnightblue" stroke="midnightblue" points="611.64,-139.4 618.83,-131.62 608.36,-133.21 611.64,-139.4"/>
</g>
<!-- Node5 -->
<g id="node5" class="node">
<title>Node5</title>
<g id="a_node5"><a xlink:href="AdditiveMeasurementModel_8h.html" target="_top" xlink:title=" ">
<polygon fill="white" stroke="black" points="230.5,-235.5 230.5,-265.5 418.5,-265.5 418.5,-235.5 230.5,-235.5"/>
<text text-anchor="start" x="238.5" y="-253.5" font-family="Helvetica,sans-Serif" font-size="10.00">BayesFilters/AdditiveMeasurement</text>
<text text-anchor="middle" x="324.5" y="-242.5" font-family="Helvetica,sans-Serif" font-size="10.00">Model.h</text>
</a>
</g>
</g>
<!-- Node4&#45;&gt;Node5 -->
<g id="edge4" class="edge">
<title>Node4&#45;&gt;Node5</title>
<path fill="none" stroke="midnightblue" d="M319.8,-302.4C320.53,-294.56 321.45,-284.6 322.28,-275.57"/>
<polygon fill="midnightblue" stroke="midnightblue" points="325.77,-275.86 323.2,-265.58 318.8,-275.21 325.77,-275.86"/>
</g>
<!-- Node6 -->
<g id="node6" class="node">
<title>Node6</title>
<g id="a_node6"><a xlink:href="MeasurementModel_8h.html" target="_top" xlink:title=" ">
<polygon fill="white" stroke="black" points="193,-168.5 193,-198.5 340,-198.5 340,-168.5 193,-168.5"/>
<text text-anchor="start" x="201" y="-186.5" font-family="Helvetica,sans-Serif" font-size="10.00">BayesFilters/Measurement</text>
<text text-anchor="middle" x="266.5" y="-175.5" font-family="Helvetica,sans-Serif" font-size="10.00">Model.h</text>
</a>
</g>
</g>
<!-- Node5&#45;&gt;Node6 -->
<g id="edge5" class="edge">
<title>Node5&#45;&gt;Node6</title>
<path fill="none" stroke="midnightblue" d="M311.91,-235.4C304.31,-226.88 294.47,-215.85 285.89,-206.23"/>
<polygon fill="midnightblue" stroke="midnightblue" points="288.33,-203.71 279.06,-198.58 283.11,-208.37 288.33,-203.71"/>
</g>
<!-- Node7 -->
<g id="node7" class="node">
<title>Node7</title>
<g id="a_node7"><a xlink:href="Data_8h.html" target="_top" xlink:title=" ">
<polygon fill="white" stroke="black" points="353.5,-112.5 353.5,-131.5 465.5,-131.5 465.5,-112.5 353.5,-112.5"/>
<text text-anchor="middle" x="409.5" y="-119.5" font-family="Helvetica,sans-Serif" font-size="10.00">BayesFilters/Data.h</text>
</a>
</g>
</g>
<!-- Node6&#45;&gt;Node7 -->
<g id="edge6" class="edge">
<title>Node6&#45;&gt;Node7</title>
<path fill="none" stroke="midnightblue" d="M300.39,-168.4C324.38,-158.42 356.27,-145.15 379.38,-135.53"/>
<polygon fill="midnightblue" stroke="midnightblue" points="380.8,-138.73 388.69,-131.66 378.11,-132.27 380.8,-138.73"/>
</g>
<!-- Node6&#45;&gt;Node10 -->
<g id="edge20" class="edge">
<title>Node6&#45;&gt;Node10</title>
<path fill="none" stroke="midnightblue" d="M272.4,-168.39C279.68,-152.61 293.45,-127.25 312.5,-112 368.06,-67.53 393.31,-72.61 462.5,-56 589.53,-25.5 744.78,-15.48 816.17,-12.34"/>
<polygon fill="midnightblue" stroke="midnightblue" points="816.64,-15.83 826.48,-11.91 816.35,-8.83 816.64,-15.83"/>
</g>
<!-- Node14 -->
<g id="node14" class="node">
<title>Node14</title>
<g id="a_node14"><a xlink:href="Logger_8h.html" target="_top" xlink:title=" ">
<polygon fill="white" stroke="black" points="75,-112.5 75,-131.5 196,-131.5 196,-112.5 75,-112.5"/>
<text text-anchor="middle" x="135.5" y="-119.5" font-family="Helvetica,sans-Serif" font-size="10.00">BayesFilters/Logger.h</text>
</a>
</g>
</g>
<!-- Node6&#45;&gt;Node14 -->
<g id="edge13" class="edge">
<title>Node6&#45;&gt;Node14</title>
<path fill="none" stroke="midnightblue" d="M235.45,-168.4C213.77,-158.55 185.04,-145.5 163.95,-135.92"/>
<polygon fill="midnightblue" stroke="midnightblue" points="165.11,-132.61 154.56,-131.66 162.22,-138.98 165.11,-132.61"/>
</g>
<!-- Node6&#45;&gt;Node17 -->
<g id="edge21" class="edge">
<title>Node6&#45;&gt;Node17</title>
<path fill="none" stroke="midnightblue" d="M278.6,-168.3C292.85,-152.42 317.96,-126.99 344.5,-112 381.81,-90.93 430.07,-78.69 461.4,-72.44"/>
<polygon fill="midnightblue" stroke="midnightblue" points="462.17,-75.85 471.33,-70.54 460.85,-68.98 462.17,-75.85"/>
</g>
<!-- Node6&#45;&gt;Node19 -->
<g id="edge18" class="edge">
<title>Node6&#45;&gt;Node19</title>
<path fill="none" stroke="midnightblue" d="M340.03,-173.2C355.69,-171.36 372.13,-169.52 387.5,-168 554.54,-151.45 749.43,-137.25 863.75,-129.44"/>
<polygon fill="midnightblue" stroke="midnightblue" points="864.14,-132.92 873.88,-128.75 863.67,-125.93 864.14,-132.92"/>
</g>
<!-- Node21 -->
<g id="node21" class="node">
<title>Node21</title>
<g id="a_node21"><a xlink:title=" ">
<polygon fill="white" stroke="#bfbfbf" points="214,-112.5 214,-131.5 259,-131.5 259,-112.5 214,-112.5"/>
<text text-anchor="middle" x="236.5" y="-119.5" font-family="Helvetica,sans-Serif" font-size="10.00">utility</text>
</a>
</g>
</g>
<!-- Node6&#45;&gt;Node21 -->
<g id="edge22" class="edge">
<title>Node6&#45;&gt;Node21</title>
<path fill="none" stroke="midnightblue" d="M259.39,-168.4C255.21,-160.11 249.89,-149.55 245.43,-140.71"/>
<polygon fill="midnightblue" stroke="midnightblue" points="248.49,-139.01 240.87,-131.66 242.24,-142.16 248.49,-139.01"/>
</g>
<!-- Node6&#45;&gt;Node22 -->
<g id="edge23" class="edge">
<title>Node6&#45;&gt;Node22</title>
<path fill="none" stroke="midnightblue" d="M340.04,-170.67C413.51,-158.86 524.36,-141.03 587.63,-130.86"/>
<polygon fill="midnightblue" stroke="midnightblue" points="588.43,-134.28 597.74,-129.23 587.32,-127.36 588.43,-134.28"/>
</g>
<!-- Node8 -->
<g id="node8" class="node">
<title>Node8</title>
<g id="a_node8"><a xlink:href="any_8h.html" target="_top" xlink:title=" ">
<polygon fill="white" stroke="black" points="217,-56.5 217,-75.5 322,-75.5 322,-56.5 217,-56.5"/>
<text text-anchor="middle" x="269.5" y="-63.5" font-family="Helvetica,sans-Serif" font-size="10.00">BayesFilters/any.h</text>
</a>
</g>
</g>
<!-- Node7&#45;&gt;Node8 -->
<g id="edge7" class="edge">
<title>Node7&#45;&gt;Node8</title>
<path fill="none" stroke="midnightblue" d="M387.32,-112.44C364.07,-103.48 327.35,-89.31 301.08,-79.18"/>
<polygon fill="midnightblue" stroke="midnightblue" points="302.17,-75.85 291.58,-75.52 299.65,-82.38 302.17,-75.85"/>
</g>
<!-- Node9 -->
<g id="node9" class="node">
<title>Node9</title>
<g id="a_node9"><a xlink:title=" ">
<polygon fill="white" stroke="#bfbfbf" points="195.5,-0.5 195.5,-19.5 259.5,-19.5 259.5,-0.5 195.5,-0.5"/>
<text text-anchor="middle" x="227.5" y="-7.5" font-family="Helvetica,sans-Serif" font-size="10.00">algorithm</text>
</a>
</g>
</g>
<!-- Node8&#45;&gt;Node9 -->
<g id="edge8" class="edge">
<title>Node8&#45;&gt;Node9</title>
<path fill="none" stroke="midnightblue" d="M262.56,-56.08C256.57,-48.38 247.75,-37.03 240.45,-27.65"/>
<polygon fill="midnightblue" stroke="midnightblue" points="243.21,-25.5 234.31,-19.75 237.68,-29.79 243.21,-25.5"/>
</g>
<!-- Node8&#45;&gt;Node10 -->
<g id="edge9" class="edge">
<title>Node8&#45;&gt;Node10</title>
<path fill="none" stroke="midnightblue" d="M322.14,-57.69C326.99,-57.09 331.83,-56.52 336.5,-56 515.35,-36.25 729.67,-20.02 816.31,-13.77"/>
<polygon fill="midnightblue" stroke="midnightblue" points="816.75,-17.24 826.47,-13.04 816.25,-10.26 816.75,-17.24"/>
</g>
<!-- Node11 -->
<g id="node11" class="node">
<title>Node11</title>
<g id="a_node11"><a xlink:title=" ">
<polygon fill="white" stroke="#bfbfbf" points="278,-0.5 278,-19.5 343,-19.5 343,-0.5 278,-0.5"/>
<text text-anchor="middle" x="310.5" y="-7.5" font-family="Helvetica,sans-Serif" font-size="10.00">stdexcept</text>
</a>
</g>
</g>
<!-- Node8&#45;&gt;Node11 -->
<g id="edge10" class="edge">
<title>Node8&#45;&gt;Node11</title>
<path fill="none" stroke="midnightblue" d="M276.27,-56.08C282.06,-48.46 290.56,-37.26 297.64,-27.94"/>
<polygon fill="midnightblue" stroke="midnightblue" points="300.6,-29.83 303.86,-19.75 295.02,-25.6 300.6,-29.83"/>
</g>
<!-- Node12 -->
<g id="node12" class="node">
<title>Node12</title>
<g id="a_node12"><a xlink:title=" ">
<polygon fill="white" stroke="#bfbfbf" points="361,-0.5 361,-19.5 418,-19.5 418,-0.5 361,-0.5"/>
<text text-anchor="middle" x="389.5" y="-7.5" font-family="Helvetica,sans-Serif" font-size="10.00">typeinfo</text>
</a>
</g>
</g>
<!-- Node8&#45;&gt;Node12 -->
<g id="edge11" class="edge">
<title>Node8&#45;&gt;Node12</title>
<path fill="none" stroke="midnightblue" d="M288.51,-56.44C308.09,-47.64 338.81,-33.81 361.23,-23.72"/>
<polygon fill="midnightblue" stroke="midnightblue" points="362.89,-26.81 370.57,-19.52 360.02,-20.43 362.89,-26.81"/>
</g>
<!-- Node13 -->
<g id="node13" class="node">
<title>Node13</title>
<g id="a_node13"><a xlink:title=" ">
<polygon fill="white" stroke="#bfbfbf" points="108,-0.5 108,-19.5 177,-19.5 177,-0.5 108,-0.5"/>
<text text-anchor="middle" x="142.5" y="-7.5" font-family="Helvetica,sans-Serif" font-size="10.00">type_traits</text>
</a>
</g>
</g>
<!-- Node8&#45;&gt;Node13 -->
<g id="edge12" class="edge">
<title>Node8&#45;&gt;Node13</title>
<path fill="none" stroke="midnightblue" d="M249.38,-56.44C228.48,-47.56 195.57,-33.56 171.78,-23.45"/>
<polygon fill="midnightblue" stroke="midnightblue" points="173.1,-20.21 162.53,-19.52 170.36,-26.65 173.1,-20.21"/>
</g>
<!-- Node14&#45;&gt;Node15 -->
<g id="edge14" class="edge">
<title>Node14&#45;&gt;Node15</title>
<path fill="none" stroke="midnightblue" d="M118.15,-112.32C100.83,-103.66 73.98,-90.24 54,-80.25"/>
<polygon fill="midnightblue" stroke="midnightblue" points="55.32,-77 44.81,-75.65 52.19,-83.26 55.32,-77"/>
</g>
<!-- Node16 -->
<g id="node16" class="node">
<title>Node16</title>
<g id="a_node16"><a xlink:title=" ">
<polygon fill="white" stroke="#bfbfbf" points="73.5,-56.5 73.5,-75.5 133.5,-75.5 133.5,-56.5 73.5,-56.5"/>
<text text-anchor="middle" x="103.5" y="-63.5" font-family="Helvetica,sans-Serif" font-size="10.00">iostream</text>
</a>
</g>
</g>
<!-- Node14&#45;&gt;Node16 -->
<g id="edge15" class="edge">
<title>Node14&#45;&gt;Node16</title>
<path fill="none" stroke="midnightblue" d="M130.22,-112.08C125.79,-104.61 119.34,-93.72 113.88,-84.52"/>
<polygon fill="midnightblue" stroke="midnightblue" points="116.79,-82.57 108.69,-75.75 110.77,-86.14 116.79,-82.57"/>
</g>
<!-- Node14&#45;&gt;Node17 -->
<g id="edge16" class="edge">
<title>Node14&#45;&gt;Node17</title>
<path fill="none" stroke="midnightblue" d="M192.23,-112.44C268.11,-101 400.16,-81.08 461.05,-71.9"/>
<polygon fill="midnightblue" stroke="midnightblue" points="461.85,-75.31 471.22,-70.36 460.81,-68.39 461.85,-75.31"/>
</g>
<!-- Node18 -->
<g id="node18" class="node">
<title>Node18</title>
<g id="a_node18"><a xlink:title=" ">
<polygon fill="white" stroke="#bfbfbf" points="152,-56.5 152,-75.5 199,-75.5 199,-56.5 152,-56.5"/>
<text text-anchor="middle" x="175.5" y="-63.5" font-family="Helvetica,sans-Serif" font-size="10.00">vector</text>
</a>
</g>
</g>
<!-- Node14&#45;&gt;Node18 -->
<g id="edge17" class="edge">
<title>Node14&#45;&gt;Node18</title>
<path fill="none" stroke="midnightblue" d="M142.11,-112.08C147.76,-104.46 156.04,-93.26 162.95,-83.94"/>
<polygon fill="midnightblue" stroke="midnightblue" points="165.88,-85.87 169.02,-75.75 160.25,-81.7 165.88,-85.87"/>
</g>
<!-- Node20 -->
<g id="node20" class="node">
<title>Node20</title>
<g id="a_node20"><a xlink:title=" ">
<polygon fill="white" stroke="#bfbfbf" points="935,-56.5 935,-75.5 988,-75.5 988,-56.5 935,-56.5"/>
<text text-anchor="middle" x="961.5" y="-63.5" font-family="Helvetica,sans-Serif" font-size="10.00">cstddef</text>
</a>
</g>
</g>
<!-- Node19&#45;&gt;Node20 -->
<g id="edge19" class="edge">
<title>Node19&#45;&gt;Node20</title>
<path fill="none" stroke="midnightblue" d="M961.5,-112.08C961.5,-105.01 961.5,-94.86 961.5,-85.99"/>
<polygon fill="midnightblue" stroke="midnightblue" points="965,-85.75 961.5,-75.75 958,-85.75 965,-85.75"/>
</g>
<!-- Node26&#45;&gt;Node10 -->
<g id="edge50" class="edge">
<title>Node26&#45;&gt;Node10</title>
<path fill="none" stroke="midnightblue" d="M781.04,-378.04C915.92,-366.39 1179.5,-333.18 1179.5,-251.5 1179.5,-251.5 1179.5,-251.5 1179.5,-121 1179.5,-71.3 1134.17,-75.61 1088.5,-56 1024.09,-28.35 942.38,-17.58 894.82,-13.46"/>
<polygon fill="midnightblue" stroke="midnightblue" points="894.88,-9.95 884.63,-12.64 894.32,-16.93 894.88,-9.95"/>
</g>
<!-- Node26&#45;&gt;Node14 -->
<g id="edge36" class="edge">
<title>Node26&#45;&gt;Node14</title>
<path fill="none" stroke="midnightblue" d="M665.56,-369.37C616.19,-351.45 526.95,-320.64 448.5,-302 349.12,-278.38 306.19,-323.11 221.5,-266 176.17,-235.43 150.93,-172.2 140.8,-141.09"/>
<polygon fill="midnightblue" stroke="midnightblue" points="144.14,-140.05 137.84,-131.53 137.46,-142.12 144.14,-140.05"/>
</g>
<!-- Node26&#45;&gt;Node15 -->
<g id="edge51" class="edge">
<title>Node26&#45;&gt;Node15</title>
<path fill="none" stroke="midnightblue" d="M625.93,-379.32C573.41,-373.88 503.79,-361.42 448.5,-333 430.6,-323.8 433.58,-310.84 415.5,-302 322.55,-256.56 276.41,-315.41 185.5,-266 107.77,-223.75 54.86,-125.58 35.59,-85.02"/>
<polygon fill="midnightblue" stroke="midnightblue" points="38.7,-83.42 31.33,-75.82 32.35,-86.36 38.7,-83.42"/>
</g>
<!-- Node27 -->
<g id="node27" class="node">
<title>Node27</title>
<g id="a_node27"><a xlink:href="Agent_8h.html" target="_top" xlink:title=" ">
<polygon fill="white" stroke="black" points="397,-174 397,-193 514,-193 514,-174 397,-174"/>
<text text-anchor="middle" x="455.5" y="-181" font-family="Helvetica,sans-Serif" font-size="10.00">BayesFilters/Agent.h</text>
</a>
</g>
</g>
<!-- Node26&#45;&gt;Node27 -->
<g id="edge31" class="edge">
<title>Node26&#45;&gt;Node27</title>
<path fill="none" stroke="midnightblue" d="M685.66,-369.19C640.28,-332.77 520.71,-236.83 474.3,-199.58"/>
<polygon fill="midnightblue" stroke="midnightblue" points="476.26,-196.67 466.27,-193.14 471.88,-202.13 476.26,-196.67"/>
</g>
<!-- Node28 -->
<g id="node28" class="node">
<title>Node28</title>
<g id="a_node28"><a xlink:href="StateModel_8h.html" target="_top" xlink:title=" ">
<polygon fill="white" stroke="black" points="728.5,-308 728.5,-327 872.5,-327 872.5,-308 728.5,-308"/>
<text text-anchor="middle" x="800.5" y="-315" font-family="Helvetica,sans-Serif" font-size="10.00">BayesFilters/StateModel.h</text>
</a>
</g>
</g>
<!-- Node26&#45;&gt;Node28 -->
<g id="edge37" class="edge">
<title>Node26&#45;&gt;Node28</title>
<path fill="none" stroke="midnightblue" d="M724.55,-369.4C740.81,-358.5 763.22,-343.48 779.48,-332.58"/>
<polygon fill="midnightblue" stroke="midnightblue" points="781.45,-335.48 787.8,-327.01 777.55,-329.67 781.45,-335.48"/>
</g>
<!-- Node27&#45;&gt;Node7 -->
<g id="edge32" class="edge">
<title>Node27&#45;&gt;Node7</title>
<path fill="none" stroke="midnightblue" d="M448.91,-173.98C442.01,-165.05 431,-150.81 422.37,-139.64"/>
<polygon fill="midnightblue" stroke="midnightblue" points="424.96,-137.28 416.08,-131.51 419.43,-141.56 424.96,-137.28"/>
</g>
<!-- Node27&#45;&gt;Node10 -->
<g id="edge33" class="edge">
<title>Node27&#45;&gt;Node10</title>
<path fill="none" stroke="midnightblue" d="M470.35,-173.83C494.61,-159.86 544.44,-131.91 588.5,-112 669.58,-75.35 768.25,-40.43 819.97,-22.84"/>
<polygon fill="midnightblue" stroke="midnightblue" points="821.31,-26.08 829.66,-19.56 819.07,-19.45 821.31,-26.08"/>
</g>
<!-- Node27&#45;&gt;Node17 -->
<g id="edge34" class="edge">
<title>Node27&#45;&gt;Node17</title>
<path fill="none" stroke="midnightblue" d="M469.61,-173.68C482.22,-164.88 499.85,-150.08 507.5,-132 513.95,-116.75 508.78,-98.18 502.98,-84.8"/>
<polygon fill="midnightblue" stroke="midnightblue" points="506.1,-83.22 498.61,-75.72 499.79,-86.25 506.1,-83.22"/>
</g>
<!-- Node27&#45;&gt;Node22 -->
<g id="edge35" class="edge">
<title>Node27&#45;&gt;Node22</title>
<path fill="none" stroke="midnightblue" d="M481.43,-173.98C512.75,-163.68 565.59,-146.31 600.76,-134.75"/>
<polygon fill="midnightblue" stroke="midnightblue" points="602.21,-137.96 610.62,-131.51 600.02,-131.31 602.21,-137.96"/>
</g>
<!-- Node28&#45;&gt;Node10 -->
<g id="edge49" class="edge">
<title>Node28&#45;&gt;Node10</title>
<path fill="none" stroke="midnightblue" d="M850.08,-307.99C944.66,-290.36 1141.5,-246.24 1141.5,-184.5 1141.5,-184.5 1141.5,-184.5 1141.5,-121 1141.5,-68.75 973.11,-31.92 894.75,-17.61"/>
<polygon fill="midnightblue" stroke="midnightblue" points="895.22,-14.14 884.76,-15.82 893.99,-21.03 895.22,-14.14"/>
</g>
<!-- Node29 -->
<g id="node29" class="node">
<title>Node29</title>
<g id="a_node29"><a xlink:href="ExogenousModel_8h.html" target="_top" xlink:title=" ">
<polygon fill="white" stroke="black" points="715,-241 715,-260 886,-260 886,-241 715,-241"/>
<text text-anchor="middle" x="800.5" y="-248" font-family="Helvetica,sans-Serif" font-size="10.00">BayesFilters/ExogenousModel.h</text>
</a>
</g>
</g>
<!-- Node28&#45;&gt;Node29 -->
<g id="edge38" class="edge">
<title>Node28&#45;&gt;Node29</title>
<path fill="none" stroke="midnightblue" d="M800.5,-307.73C800.5,-298.18 800.5,-282.62 800.5,-270.28"/>
<polygon fill="midnightblue" stroke="midnightblue" points="804,-270.13 800.5,-260.13 797,-270.13 804,-270.13"/>
</g>
<!-- Node31 -->
<g id="node31" class="node">
<title>Node31</title>
<g id="a_node31"><a xlink:href="Skippable_8h.html" target="_top" xlink:title=" ">
<polygon fill="white" stroke="black" points="571,-174 571,-193 708,-193 708,-174 571,-174"/>
<text text-anchor="middle" x="639.5" y="-181" font-family="Helvetica,sans-Serif" font-size="10.00">BayesFilters/Skippable.h</text>
</a>
</g>
</g>
<!-- Node28&#45;&gt;Node31 -->
<g id="edge45" class="edge">
<title>Node28&#45;&gt;Node31</title>
<path fill="none" stroke="midnightblue" d="M778.63,-307.89C758.34,-299.23 727.99,-284.53 705.5,-266 682.74,-247.24 662.36,-219.59 650.45,-201.81"/>
<polygon fill="midnightblue" stroke="midnightblue" points="653.15,-199.53 644.75,-193.07 647.28,-203.35 653.15,-199.53"/>
</g>
<!-- Node33 -->
<g id="node33" class="node">
<title>Node33</title>
<g id="a_node33"><a xlink:href="StateProcess_8h.html" target="_top" xlink:title=" ">
<polygon fill="white" stroke="black" points="923.5,-174 923.5,-193 1075.5,-193 1075.5,-174 923.5,-174"/>
<text text-anchor="middle" x="999.5" y="-181" font-family="Helvetica,sans-Serif" font-size="10.00">BayesFilters/StateProcess.h</text>
</a>
</g>
</g>
<!-- Node28&#45;&gt;Node33 -->
<g id="edge46" class="edge">
<title>Node28&#45;&gt;Node33</title>
<path fill="none" stroke="midnightblue" d="M818.68,-307.87C838,-298.43 869.18,-282.46 894.5,-266 926.66,-245.09 961.33,-216.96 981.69,-199.82"/>
<polygon fill="midnightblue" stroke="midnightblue" points="984.13,-202.33 989.49,-193.19 979.6,-197 984.13,-202.33"/>
</g>
<!-- Node30 -->
<g id="node30" class="node">
<title>Node30</title>
<g id="a_node30"><a xlink:href="ExogenousProcess_8h.html" target="_top" xlink:title=" ">
<polygon fill="white" stroke="black" points="726,-174 726,-193 905,-193 905,-174 726,-174"/>
<text text-anchor="middle" x="815.5" y="-181" font-family="Helvetica,sans-Serif" font-size="10.00">BayesFilters/ExogenousProcess.h</text>
</a>
</g>
</g>
<!-- Node29&#45;&gt;Node30 -->
<g id="edge39" class="edge">
<title>Node29&#45;&gt;Node30</title>
<path fill="none" stroke="midnightblue" d="M802.52,-240.73C804.75,-231.09 808.39,-215.3 811.25,-202.91"/>
<polygon fill="midnightblue" stroke="midnightblue" points="814.67,-203.66 813.51,-193.13 807.85,-202.08 814.67,-203.66"/>
</g>
<!-- Node29&#45;&gt;Node31 -->
<g id="edge42" class="edge">
<title>Node29&#45;&gt;Node31</title>
<path fill="none" stroke="midnightblue" d="M779.12,-240.87C751.14,-229.57 701.91,-209.7 670.01,-196.82"/>
<polygon fill="midnightblue" stroke="midnightblue" points="671.29,-193.56 660.71,-193.06 668.67,-200.05 671.29,-193.56"/>
</g>
<!-- Node30&#45;&gt;Node19 -->
<g id="edge40" class="edge">
<title>Node30&#45;&gt;Node19</title>
<path fill="none" stroke="midnightblue" d="M836.42,-173.98C861.25,-163.86 902.84,-146.9 931.19,-135.35"/>
<polygon fill="midnightblue" stroke="midnightblue" points="932.68,-138.52 940.62,-131.51 930.04,-132.04 932.68,-138.52"/>
</g>
<!-- Node30&#45;&gt;Node22 -->
<g id="edge41" class="edge">
<title>Node30&#45;&gt;Node22</title>
<path fill="none" stroke="midnightblue" d="M789.85,-173.98C758.88,-163.68 706.63,-146.31 671.85,-134.75"/>
<polygon fill="midnightblue" stroke="midnightblue" points="672.69,-131.34 662.1,-131.51 670.48,-137.98 672.69,-131.34"/>
</g>
<!-- Node32 -->
<g id="node32" class="node">
<title>Node32</title>
<g id="a_node32"><a xlink:href="Skipper_8h.html" target="_top" xlink:title=" ">
<polygon fill="white" stroke="black" points="693,-112.5 693,-131.5 818,-131.5 818,-112.5 693,-112.5"/>
<text text-anchor="middle" x="755.5" y="-119.5" font-family="Helvetica,sans-Serif" font-size="10.00">BayesFilters/Skipper.h</text>
</a>
</g>
</g>
<!-- Node31&#45;&gt;Node32 -->
<g id="edge43" class="edge">
<title>Node31&#45;&gt;Node32</title>
<path fill="none" stroke="midnightblue" d="M656.12,-173.98C675.42,-164.08 707.46,-147.64 729.93,-136.12"/>
<polygon fill="midnightblue" stroke="midnightblue" points="731.61,-139.19 738.91,-131.51 728.42,-132.96 731.61,-139.19"/>
</g>
<!-- Node32&#45;&gt;Node17 -->
<g id="edge44" class="edge">
<title>Node32&#45;&gt;Node17</title>
<path fill="none" stroke="midnightblue" d="M713.99,-112.44C661.67,-101.66 572.88,-83.36 525.51,-73.6"/>
<polygon fill="midnightblue" stroke="midnightblue" points="526.01,-70.13 515.5,-71.54 524.59,-76.98 526.01,-70.13"/>
</g>
<!-- Node33&#45;&gt;Node19 -->
<g id="edge47" class="edge">
<title>Node33&#45;&gt;Node19</title>
<path fill="none" stroke="midnightblue" d="M994.06,-173.98C988.41,-165.14 979.44,-151.09 972.34,-139.98"/>
<polygon fill="midnightblue" stroke="midnightblue" points="975.27,-138.05 966.93,-131.51 969.37,-141.82 975.27,-138.05"/>
</g>
<!-- Node33&#45;&gt;Node22 -->
<g id="edge48" class="edge">
<title>Node33&#45;&gt;Node22</title>
<path fill="none" stroke="midnightblue" d="M949.49,-173.97C937.69,-171.98 925.16,-169.89 913.5,-168 814.57,-151.92 787.13,-149.85 685.3,-132.27"/>
<polygon fill="midnightblue" stroke="midnightblue" points="685.66,-128.78 675.21,-130.52 684.46,-135.68 685.66,-128.78"/>
</g>
</g>
</svg>
