<?xml version="1.0" encoding="UTF-8" standalone="no"?>
<!DOCTYPE svg PUBLIC "-//W3C//DTD SVG 1.1//EN"
 "http://www.w3.org/Graphics/SVG/1.1/DTD/svg11.dtd">
<!-- Generated by graphviz version 2.43.0 (0)
 -->
<!-- Title: /home/user/bayes&#45;filters&#45;lib/src/BayesFilters/src/SimulatedStateModel.cpp Pages: 1 -->
<svg width="1118pt" height="397pt"
 viewBox="0.00 0.00 1117.50 397.00" xmlns="http://www.w3.org/2000/svg" xmlns:xlink="http://www.w3.org/1999/xlink">
<g id="graph0" class="graph" transform="scale(1 1) rotate(0) translate(4 393)">
<title>/home/user/bayes&#45;filters&#45;lib/src/BayesFilters/src/SimulatedStateModel.cpp</title>
<polygon fill="white" stroke="transparent" points="-4,4 -4,-393 1113.5,-393 1113.5,4 -4,4"/>
<!-- Node1 -->
<g id="node1" class="node">
<title>Node1</title>
<g id="a_node1"><a xlink:title=" ">
<polygon fill="#bfbfbf" stroke="black" points="737,-347.5 737,-388.5 882,-388.5 882,-347.5 737,-347.5"/>
<text text-anchor="start" x="745" y="-376.5" font-family="Helvetica,sans-Serif" font-size="10.00">/home/user/bayes&#45;filters</text>
<text text-anchor="start" x="745" y="-365.5" font-family="Helvetica,sans-Serif" font-size="10.00">&#45;lib/src/BayesFilters/src</text>
<text text-anchor="middle" x="809.5" y="-354.5" font-family="Helvetica,sans-Serif" font-size="10.00">/SimulatedStateModel.cpp</text>
</a>
</g>
</g>
<!-- Node2 -->
<g id="node2" class="node">
<title>Node2</title>
<g id="a_node2"><a xlink:href="SimulatedStateModel_8h.html" target="_top" xlink:title=" ">
<polygon fill="white" stroke="black" points="643,-280.5 643,-310.5 798,-310.5 798,-280.5 643,-280.5"/>
<text text-anchor="start" x="651" y="-298.5" font-family="Helvetica,sans-Serif" font-size="10.00">BayesFilters/SimulatedState</text>
<text text-anchor="middle" x="720.5" y="-287.5" font-family="Helvetica,sans-Serif" font-size="10.00">Model.h</text>
</a>
</g>
</g>
<!-- Node1&#45;&gt;Node2 -->
<g id="edge1" class="edge">
<title>Node1&#45;&gt;Node2</title>
<path fill="none" stroke="midnightblue" d="M784.71,-347.36C772.76,-337.89 758.43,-326.54 746.34,-316.97"/>
<polygon fill="midnightblue" stroke="midnightblue" points="748.4,-314.14 738.39,-310.67 744.05,-319.62 748.4,-314.14"/>
</g>
<!-- Node15 -->
<g id="node15" class="node">
<title>Node15</title>
<g id="a_node15"><a xlink:title=" ">
<polygon fill="white" stroke="#bfbfbf" points="1049.5,-168.5 1049.5,-187.5 1109.5,-187.5 1109.5,-168.5 1049.5,-168.5"/>
<text text-anchor="middle" x="1079.5" y="-175.5" font-family="Helvetica,sans-Serif" font-size="10.00">iostream</text>
</a>
</g>
</g>
<!-- Node1&#45;&gt;Node15 -->
<g id="edge34" class="edge">
<title>Node1&#45;&gt;Node15</title>
<path fill="none" stroke="midnightblue" d="M860.99,-347.39C909.87,-326.95 983.41,-291.29 1035.5,-244 1050.44,-230.44 1062.82,-210.82 1070.6,-196.69"/>
<polygon fill="midnightblue" stroke="midnightblue" points="1073.86,-198.01 1075.42,-187.53 1067.66,-194.75 1073.86,-198.01"/>
</g>
<!-- Node3 -->
<g id="node3" class="node">
<title>Node3</title>
<g id="a_node3"><a xlink:href="Agent_8h.html" target="_top" xlink:title=" ">
<polygon fill="white" stroke="black" points="364,-224.5 364,-243.5 481,-243.5 481,-224.5 364,-224.5"/>
<text text-anchor="middle" x="422.5" y="-231.5" font-family="Helvetica,sans-Serif" font-size="10.00">BayesFilters/Agent.h</text>
</a>
</g>
</g>
<!-- Node2&#45;&gt;Node3 -->
<g id="edge2" class="edge">
<title>Node2&#45;&gt;Node3</title>
<path fill="none" stroke="midnightblue" d="M650.26,-280.47C596.6,-269.76 523.82,-255.23 475.12,-245.51"/>
<polygon fill="midnightblue" stroke="midnightblue" points="475.6,-242.03 465.1,-243.51 474.22,-248.9 475.6,-242.03"/>
</g>
<!-- Node7 -->
<g id="node7" class="node">
<title>Node7</title>
<g id="a_node7"><a xlink:title=" ">
<polygon fill="white" stroke="#bfbfbf" points="327.5,-56.5 327.5,-75.5 385.5,-75.5 385.5,-56.5 327.5,-56.5"/>
<text text-anchor="middle" x="356.5" y="-63.5" font-family="Helvetica,sans-Serif" font-size="10.00">memory</text>
</a>
</g>
</g>
<!-- Node2&#45;&gt;Node7 -->
<g id="edge32" class="edge">
<title>Node2&#45;&gt;Node7</title>
<path fill="none" stroke="midnightblue" d="M642.77,-295.22C546.62,-294.26 391.11,-286.01 354.5,-244 315.34,-199.07 336.66,-120.63 349.3,-85.24"/>
<polygon fill="midnightblue" stroke="midnightblue" points="352.63,-86.32 352.87,-75.73 346.08,-83.86 352.63,-86.32"/>
</g>
<!-- Node13 -->
<g id="node13" class="node">
<title>Node13</title>
<g id="a_node13"><a xlink:href="Logger_8h.html" target="_top" xlink:title=" ">
<polygon fill="white" stroke="black" points="905,-224.5 905,-243.5 1026,-243.5 1026,-224.5 905,-224.5"/>
<text text-anchor="middle" x="965.5" y="-231.5" font-family="Helvetica,sans-Serif" font-size="10.00">BayesFilters/Logger.h</text>
</a>
</g>
</g>
<!-- Node2&#45;&gt;Node13 -->
<g id="edge13" class="edge">
<title>Node2&#45;&gt;Node13</title>
<path fill="none" stroke="midnightblue" d="M778.25,-280.47C821.81,-269.9 880.7,-255.59 920.72,-245.87"/>
<polygon fill="midnightblue" stroke="midnightblue" points="921.58,-249.27 930.47,-243.51 919.93,-242.47 921.58,-249.27"/>
</g>
<!-- Node14 -->
<g id="node14" class="node">
<title>Node14</title>
<g id="a_node14"><a xlink:title=" ">
<polygon fill="white" stroke="#bfbfbf" points="861,-168.5 861,-187.5 916,-187.5 916,-168.5 861,-168.5"/>
<text text-anchor="middle" x="888.5" y="-175.5" font-family="Helvetica,sans-Serif" font-size="10.00">fstream</text>
</a>
</g>
</g>
<!-- Node2&#45;&gt;Node14 -->
<g id="edge33" class="edge">
<title>Node2&#45;&gt;Node14</title>
<path fill="none" stroke="midnightblue" d="M741.1,-280.34C773.3,-258.2 835.2,-215.64 867.59,-193.38"/>
<polygon fill="midnightblue" stroke="midnightblue" points="869.63,-196.22 875.89,-187.67 865.67,-190.45 869.63,-196.22"/>
</g>
<!-- Node17 -->
<g id="node17" class="node">
<title>Node17</title>
<g id="a_node17"><a xlink:href="StateModel_8h.html" target="_top" xlink:title=" ">
<polygon fill="white" stroke="black" points="627.5,-224.5 627.5,-243.5 771.5,-243.5 771.5,-224.5 627.5,-224.5"/>
<text text-anchor="middle" x="699.5" y="-231.5" font-family="Helvetica,sans-Serif" font-size="10.00">BayesFilters/StateModel.h</text>
</a>
</g>
</g>
<!-- Node2&#45;&gt;Node17 -->
<g id="edge18" class="edge">
<title>Node2&#45;&gt;Node17</title>
<path fill="none" stroke="midnightblue" d="M715.52,-280.4C712.66,-272.29 709.03,-262.01 705.95,-253.28"/>
<polygon fill="midnightblue" stroke="midnightblue" points="709.18,-251.92 702.56,-243.66 702.58,-254.25 709.18,-251.92"/>
</g>
<!-- Node4 -->
<g id="node4" class="node">
<title>Node4</title>
<g id="a_node4"><a xlink:href="Data_8h.html" target="_top" xlink:title=" ">
<polygon fill="white" stroke="black" points="162.5,-168.5 162.5,-187.5 274.5,-187.5 274.5,-168.5 162.5,-168.5"/>
<text text-anchor="middle" x="218.5" y="-175.5" font-family="Helvetica,sans-Serif" font-size="10.00">BayesFilters/Data.h</text>
</a>
</g>
</g>
<!-- Node3&#45;&gt;Node4 -->
<g id="edge3" class="edge">
<title>Node3&#45;&gt;Node4</title>
<path fill="none" stroke="midnightblue" d="M390.18,-224.44C355.11,-215.16 299,-200.31 260.54,-190.13"/>
<polygon fill="midnightblue" stroke="midnightblue" points="261.24,-186.69 250.67,-187.52 259.44,-193.46 261.24,-186.69"/>
</g>
<!-- Node3&#45;&gt;Node7 -->
<g id="edge10" class="edge">
<title>Node3&#45;&gt;Node7</title>
<path fill="none" stroke="midnightblue" d="M417.1,-224.44C406.61,-207.45 383.4,-168.02 370.5,-132 365.08,-116.87 361.42,-98.97 359.2,-85.79"/>
<polygon fill="midnightblue" stroke="midnightblue" points="362.61,-84.96 357.62,-75.61 355.7,-86.03 362.61,-84.96"/>
</g>
<!-- Node11 -->
<g id="node11" class="node">
<title>Node11</title>
<g id="a_node11"><a xlink:title=" ">
<polygon fill="white" stroke="#bfbfbf" points="535.5,-0.5 535.5,-19.5 579.5,-19.5 579.5,-0.5 535.5,-0.5"/>
<text text-anchor="middle" x="557.5" y="-7.5" font-family="Helvetica,sans-Serif" font-size="10.00">string</text>
</a>
</g>
</g>
<!-- Node3&#45;&gt;Node11 -->
<g id="edge11" class="edge">
<title>Node3&#45;&gt;Node11</title>
<path fill="none" stroke="midnightblue" d="M423.42,-224.12C426.77,-196.11 440.59,-108.31 486.5,-56 498.19,-42.68 514.76,-31.88 528.95,-24.19"/>
<polygon fill="midnightblue" stroke="midnightblue" points="530.57,-27.29 537.86,-19.6 527.37,-21.07 530.57,-27.29"/>
</g>
<!-- Node12 -->
<g id="node12" class="node">
<title>Node12</title>
<g id="a_node12"><a xlink:title=" ">
<polygon fill="white" stroke="#bfbfbf" points="695,-56.5 695,-75.5 772,-75.5 772,-56.5 695,-56.5"/>
<text text-anchor="middle" x="733.5" y="-63.5" font-family="Helvetica,sans-Serif" font-size="10.00">Eigen/Dense</text>
</a>
</g>
</g>
<!-- Node3&#45;&gt;Node12 -->
<g id="edge12" class="edge">
<title>Node3&#45;&gt;Node12</title>
<path fill="none" stroke="midnightblue" d="M425.43,-224.48C434.22,-199.43 460.93,-126.87 480.5,-112 496.53,-99.82 615.71,-82.45 684.63,-73.26"/>
<polygon fill="midnightblue" stroke="midnightblue" points="685.37,-76.69 694.82,-71.91 684.45,-69.75 685.37,-76.69"/>
</g>
<!-- Node5 -->
<g id="node5" class="node">
<title>Node5</title>
<g id="a_node5"><a xlink:href="any_8h.html" target="_top" xlink:title=" ">
<polygon fill="white" stroke="black" points="155,-112.5 155,-131.5 260,-131.5 260,-112.5 155,-112.5"/>
<text text-anchor="middle" x="207.5" y="-119.5" font-family="Helvetica,sans-Serif" font-size="10.00">BayesFilters/any.h</text>
</a>
</g>
</g>
<!-- Node4&#45;&gt;Node5 -->
<g id="edge4" class="edge">
<title>Node4&#45;&gt;Node5</title>
<path fill="none" stroke="midnightblue" d="M216.68,-168.08C215.23,-160.93 213.13,-150.64 211.31,-141.69"/>
<polygon fill="midnightblue" stroke="midnightblue" points="214.71,-140.85 209.28,-131.75 207.85,-142.25 214.71,-140.85"/>
</g>
<!-- Node6 -->
<g id="node6" class="node">
<title>Node6</title>
<g id="a_node6"><a xlink:title=" ">
<polygon fill="white" stroke="#bfbfbf" points="245.5,-56.5 245.5,-75.5 309.5,-75.5 309.5,-56.5 245.5,-56.5"/>
<text text-anchor="middle" x="277.5" y="-63.5" font-family="Helvetica,sans-Serif" font-size="10.00">algorithm</text>
</a>
</g>
</g>
<!-- Node5&#45;&gt;Node6 -->
<g id="edge5" class="edge">
<title>Node5&#45;&gt;Node6</title>
<path fill="none" stroke="midnightblue" d="M218.75,-112.32C229.3,-104.18 245.3,-91.84 257.94,-82.09"/>
<polygon fill="midnightblue" stroke="midnightblue" points="260.27,-84.71 266.05,-75.83 255.99,-79.17 260.27,-84.71"/>
</g>
<!-- Node5&#45;&gt;Node7 -->
<g id="edge6" class="edge">
<title>Node5&#45;&gt;Node7</title>
<path fill="none" stroke="midnightblue" d="M231.11,-112.44C255.96,-103.44 295.27,-89.19 323.25,-79.05"/>
<polygon fill="midnightblue" stroke="midnightblue" points="324.79,-82.21 333,-75.52 322.41,-75.63 324.79,-82.21"/>
</g>
<!-- Node8 -->
<g id="node8" class="node">
<title>Node8</title>
<g id="a_node8"><a xlink:title=" ">
<polygon fill="white" stroke="#bfbfbf" points="0,-56.5 0,-75.5 65,-75.5 65,-56.5 0,-56.5"/>
<text text-anchor="middle" x="32.5" y="-63.5" font-family="Helvetica,sans-Serif" font-size="10.00">stdexcept</text>
</a>
</g>
</g>
<!-- Node5&#45;&gt;Node8 -->
<g id="edge7" class="edge">
<title>Node5&#45;&gt;Node8</title>
<path fill="none" stroke="midnightblue" d="M179.77,-112.44C150.07,-103.28 102.78,-88.69 69.83,-78.52"/>
<polygon fill="midnightblue" stroke="midnightblue" points="70.69,-75.12 60.1,-75.52 68.62,-81.81 70.69,-75.12"/>
</g>
<!-- Node9 -->
<g id="node9" class="node">
<title>Node9</title>
<g id="a_node9"><a xlink:title=" ">
<polygon fill="white" stroke="#bfbfbf" points="83,-56.5 83,-75.5 140,-75.5 140,-56.5 83,-56.5"/>
<text text-anchor="middle" x="111.5" y="-63.5" font-family="Helvetica,sans-Serif" font-size="10.00">typeinfo</text>
</a>
</g>
</g>
<!-- Node5&#45;&gt;Node9 -->
<g id="edge8" class="edge">
<title>Node5&#45;&gt;Node9</title>
<path fill="none" stroke="midnightblue" d="M192.08,-112.32C176.96,-103.82 153.68,-90.73 136.03,-80.8"/>
<polygon fill="midnightblue" stroke="midnightblue" points="137.32,-77.51 126.89,-75.65 133.89,-83.61 137.32,-77.51"/>
</g>
<!-- Node10 -->
<g id="node10" class="node">
<title>Node10</title>
<g id="a_node10"><a xlink:title=" ">
<polygon fill="white" stroke="#bfbfbf" points="158,-56.5 158,-75.5 227,-75.5 227,-56.5 158,-56.5"/>
<text text-anchor="middle" x="192.5" y="-63.5" font-family="Helvetica,sans-Serif" font-size="10.00">type_traits</text>
</a>
</g>
</g>
<!-- Node5&#45;&gt;Node10 -->
<g id="edge9" class="edge">
<title>Node5&#45;&gt;Node10</title>
<path fill="none" stroke="midnightblue" d="M205.02,-112.08C203.01,-104.85 200.11,-94.41 197.61,-85.4"/>
<polygon fill="midnightblue" stroke="midnightblue" points="200.98,-84.45 194.93,-75.75 194.24,-86.32 200.98,-84.45"/>
</g>
<!-- Node13&#45;&gt;Node11 -->
<g id="edge16" class="edge">
<title>Node13&#45;&gt;Node11</title>
<path fill="none" stroke="midnightblue" d="M974.29,-224.26C982.17,-215.79 993.29,-202.19 998.5,-188 1018.79,-132.77 1032.93,-94.57 988.5,-56 958.52,-29.97 684.88,-16.27 589.84,-12.26"/>
<polygon fill="midnightblue" stroke="midnightblue" points="589.81,-8.76 579.67,-11.84 589.52,-15.75 589.81,-8.76"/>
</g>
<!-- Node13&#45;&gt;Node14 -->
<g id="edge14" class="edge">
<title>Node13&#45;&gt;Node14</title>
<path fill="none" stroke="midnightblue" d="M953.13,-224.32C941.34,-216.06 923.37,-203.45 909.36,-193.63"/>
<polygon fill="midnightblue" stroke="midnightblue" points="911.04,-190.53 900.84,-187.65 907.02,-196.26 911.04,-190.53"/>
</g>
<!-- Node13&#45;&gt;Node15 -->
<g id="edge15" class="edge">
<title>Node13&#45;&gt;Node15</title>
<path fill="none" stroke="midnightblue" d="M983.56,-224.44C1002.07,-215.68 1031.08,-201.94 1052.36,-191.86"/>
<polygon fill="midnightblue" stroke="midnightblue" points="1053.98,-194.96 1061.52,-187.52 1050.99,-188.63 1053.98,-194.96"/>
</g>
<!-- Node16 -->
<g id="node16" class="node">
<title>Node16</title>
<g id="a_node16"><a xlink:title=" ">
<polygon fill="white" stroke="#bfbfbf" points="942,-168.5 942,-187.5 989,-187.5 989,-168.5 942,-168.5"/>
<text text-anchor="middle" x="965.5" y="-175.5" font-family="Helvetica,sans-Serif" font-size="10.00">vector</text>
</a>
</g>
</g>
<!-- Node13&#45;&gt;Node16 -->
<g id="edge17" class="edge">
<title>Node13&#45;&gt;Node16</title>
<path fill="none" stroke="midnightblue" d="M965.5,-224.08C965.5,-217.01 965.5,-206.86 965.5,-197.99"/>
<polygon fill="midnightblue" stroke="midnightblue" points="969,-197.75 965.5,-187.75 962,-197.75 969,-197.75"/>
</g>
<!-- Node17&#45;&gt;Node7 -->
<g id="edge31" class="edge">
<title>Node17&#45;&gt;Node7</title>
<path fill="none" stroke="midnightblue" d="M674.48,-224.4C650.53,-215.93 613.57,-202.22 582.5,-188 506.45,-153.18 420.26,-104.27 379.81,-80.73"/>
<polygon fill="midnightblue" stroke="midnightblue" points="381.39,-77.6 370.99,-75.58 377.85,-83.64 381.39,-77.6"/>
</g>
<!-- Node18 -->
<g id="node18" class="node">
<title>Node18</title>
<g id="a_node18"><a xlink:href="ExogenousModel_8h.html" target="_top" xlink:title=" ">
<polygon fill="white" stroke="black" points="614,-168.5 614,-187.5 785,-187.5 785,-168.5 614,-168.5"/>
<text text-anchor="middle" x="699.5" y="-175.5" font-family="Helvetica,sans-Serif" font-size="10.00">BayesFilters/ExogenousModel.h</text>
</a>
</g>
</g>
<!-- Node17&#45;&gt;Node18 -->
<g id="edge19" class="edge">
<title>Node17&#45;&gt;Node18</title>
<path fill="none" stroke="midnightblue" d="M699.5,-224.08C699.5,-217.01 699.5,-206.86 699.5,-197.99"/>
<polygon fill="midnightblue" stroke="midnightblue" points="703,-197.75 699.5,-187.75 696,-197.75 703,-197.75"/>
</g>
<!-- Node22 -->
<g id="node22" class="node">
<title>Node22</title>
<g id="a_node22"><a xlink:href="Skippable_8h.html" target="_top" xlink:title=" ">
<polygon fill="white" stroke="black" points="489,-112.5 489,-131.5 626,-131.5 626,-112.5 489,-112.5"/>
<text text-anchor="middle" x="557.5" y="-119.5" font-family="Helvetica,sans-Serif" font-size="10.00">BayesFilters/Skippable.h</text>
</a>
</g>
</g>
<!-- Node17&#45;&gt;Node22 -->
<g id="edge27" class="edge">
<title>Node17&#45;&gt;Node22</title>
<path fill="none" stroke="midnightblue" d="M673.21,-224.38C653.19,-216.93 625.72,-204.71 605.5,-188 589.33,-174.64 575.68,-154.72 567.12,-140.45"/>
<polygon fill="midnightblue" stroke="midnightblue" points="570.06,-138.55 562.03,-131.63 563.99,-142.04 570.06,-138.55"/>
</g>
<!-- Node24 -->
<g id="node24" class="node">
<title>Node24</title>
<g id="a_node24"><a xlink:href="StateProcess_8h.html" target="_top" xlink:title=" ">
<polygon fill="white" stroke="black" points="841.5,-112.5 841.5,-131.5 993.5,-131.5 993.5,-112.5 841.5,-112.5"/>
<text text-anchor="middle" x="917.5" y="-119.5" font-family="Helvetica,sans-Serif" font-size="10.00">BayesFilters/StateProcess.h</text>
</a>
</g>
</g>
<!-- Node17&#45;&gt;Node24 -->
<g id="edge28" class="edge">
<title>Node17&#45;&gt;Node24</title>
<path fill="none" stroke="midnightblue" d="M718.18,-224.44C737.43,-215.56 768.23,-201.16 794.5,-188 828.82,-170.81 867.92,-149.92 892.65,-136.54"/>
<polygon fill="midnightblue" stroke="midnightblue" points="894.57,-139.48 901.69,-131.64 891.23,-133.33 894.57,-139.48"/>
</g>
<!-- Node19 -->
<g id="node19" class="node">
<title>Node19</title>
<g id="a_node19"><a xlink:href="ExogenousProcess_8h.html" target="_top" xlink:title=" ">
<polygon fill="white" stroke="black" points="644,-112.5 644,-131.5 823,-131.5 823,-112.5 644,-112.5"/>
<text text-anchor="middle" x="733.5" y="-119.5" font-family="Helvetica,sans-Serif" font-size="10.00">BayesFilters/ExogenousProcess.h</text>
</a>
</g>
</g>
<!-- Node18&#45;&gt;Node19 -->
<g id="edge20" class="edge">
<title>Node18&#45;&gt;Node19</title>
<path fill="none" stroke="midnightblue" d="M705.11,-168.08C709.87,-160.53 716.82,-149.49 722.65,-140.23"/>
<polygon fill="midnightblue" stroke="midnightblue" points="725.62,-142.08 727.99,-131.75 719.7,-138.35 725.62,-142.08"/>
</g>
<!-- Node18&#45;&gt;Node22 -->
<g id="edge24" class="edge">
<title>Node18&#45;&gt;Node22</title>
<path fill="none" stroke="midnightblue" d="M677,-168.44C653.42,-159.48 616.18,-145.31 589.54,-135.18"/>
<polygon fill="midnightblue" stroke="midnightblue" points="590.49,-131.8 579.9,-131.52 588,-138.34 590.49,-131.8"/>
</g>
<!-- Node19&#45;&gt;Node12 -->
<g id="edge23" class="edge">
<title>Node19&#45;&gt;Node12</title>
<path fill="none" stroke="midnightblue" d="M733.5,-112.08C733.5,-105.01 733.5,-94.86 733.5,-85.99"/>
<polygon fill="midnightblue" stroke="midnightblue" points="737,-85.75 733.5,-75.75 730,-85.75 737,-85.75"/>
</g>
<!-- Node20 -->
<g id="node20" class="node">
<title>Node20</title>
<g id="a_node20"><a xlink:href="VectorDescription_8h.html" target="_top" xlink:title=" ">
<polygon fill="white" stroke="black" points="804,-56.5 804,-75.5 979,-75.5 979,-56.5 804,-56.5"/>
<text text-anchor="middle" x="891.5" y="-63.5" font-family="Helvetica,sans-Serif" font-size="10.00">BayesFilters/VectorDescription.h</text>
</a>
</g>
</g>
<!-- Node19&#45;&gt;Node20 -->
<g id="edge21" class="edge">
<title>Node19&#45;&gt;Node20</title>
<path fill="none" stroke="midnightblue" d="M758.54,-112.44C785.12,-103.36 827.31,-88.94 857.02,-78.78"/>
<polygon fill="midnightblue" stroke="midnightblue" points="858.25,-82.06 866.58,-75.52 855.99,-75.44 858.25,-82.06"/>
</g>
<!-- Node21 -->
<g id="node21" class="node">
<title>Node21</title>
<g id="a_node21"><a xlink:title=" ">
<polygon fill="white" stroke="#bfbfbf" points="865,-0.5 865,-19.5 918,-19.5 918,-0.5 865,-0.5"/>
<text text-anchor="middle" x="891.5" y="-7.5" font-family="Helvetica,sans-Serif" font-size="10.00">cstddef</text>
</a>
</g>
</g>
<!-- Node20&#45;&gt;Node21 -->
<g id="edge22" class="edge">
<title>Node20&#45;&gt;Node21</title>
<path fill="none" stroke="midnightblue" d="M891.5,-56.08C891.5,-49.01 891.5,-38.86 891.5,-29.99"/>
<polygon fill="midnightblue" stroke="midnightblue" points="895,-29.75 891.5,-19.75 888,-29.75 895,-29.75"/>
</g>
<!-- Node23 -->
<g id="node23" class="node">
<title>Node23</title>
<g id="a_node23"><a xlink:href="Skipper_8h.html" target="_top" xlink:title=" ">
<polygon fill="white" stroke="black" points="495,-56.5 495,-75.5 620,-75.5 620,-56.5 495,-56.5"/>
<text text-anchor="middle" x="557.5" y="-63.5" font-family="Helvetica,sans-Serif" font-size="10.00">BayesFilters/Skipper.h</text>
</a>
</g>
</g>
<!-- Node22&#45;&gt;Node23 -->
<g id="edge25" class="edge">
<title>Node22&#45;&gt;Node23</title>
<path fill="none" stroke="midnightblue" d="M557.5,-112.08C557.5,-105.01 557.5,-94.86 557.5,-85.99"/>
<polygon fill="midnightblue" stroke="midnightblue" points="561,-85.75 557.5,-75.75 554,-85.75 561,-85.75"/>
</g>
<!-- Node23&#45;&gt;Node11 -->
<g id="edge26" class="edge">
<title>Node23&#45;&gt;Node11</title>
<path fill="none" stroke="midnightblue" d="M557.5,-56.08C557.5,-49.01 557.5,-38.86 557.5,-29.99"/>
<polygon fill="midnightblue" stroke="midnightblue" points="561,-29.75 557.5,-19.75 554,-29.75 561,-29.75"/>
</g>
<!-- Node24&#45;&gt;Node12 -->
<g id="edge30" class="edge">
<title>Node24&#45;&gt;Node12</title>
<path fill="none" stroke="midnightblue" d="M888.34,-112.44C856.99,-103.24 806.97,-88.56 772.3,-78.39"/>
<polygon fill="midnightblue" stroke="midnightblue" points="773.1,-74.97 762.52,-75.52 771.13,-81.69 773.1,-74.97"/>
</g>
<!-- Node24&#45;&gt;Node20 -->
<g id="edge29" class="edge">
<title>Node24&#45;&gt;Node20</title>
<path fill="none" stroke="midnightblue" d="M913.21,-112.08C909.65,-104.69 904.48,-93.95 900.08,-84.81"/>
<polygon fill="midnightblue" stroke="midnightblue" points="903.21,-83.24 895.71,-75.75 896.9,-86.28 903.21,-83.24"/>
</g>
</g>
</svg>
