<?xml version="1.0" encoding="UTF-8" standalone="no"?>
<!DOCTYPE svg PUBLIC "-//W3C//DTD SVG 1.1//EN"
 "http://www.w3.org/Graphics/SVG/1.1/DTD/svg11.dtd">
<!-- Generated by graphviz version 2.47.2 (0)
 -->
<!-- Title: /home/xenvre/robot&#45;code/bfl_robotology/src/BayesFilters/src/SIS.cpp Pages: 1 -->
<svg width="2471pt" height="531pt"
 viewBox="0.00 0.00 2471.00 531.00" xmlns="http://www.w3.org/2000/svg" xmlns:xlink="http://www.w3.org/1999/xlink">
<g id="graph0" class="graph" transform="scale(1 1) rotate(0) translate(4 527)">
<title>/home/xenvre/robot&#45;code/bfl_robotology/src/BayesFilters/src/SIS.cpp</title>
<polygon fill="white" stroke="transparent" points="-4,4 -4,-527 2467,-527 2467,4 -4,4"/>
<!-- Node1 -->
<g id="node1" class="node">
<title>Node1</title>
<g id="a_node1"><a xlink:title=" ">
<polygon fill="#bfbfbf" stroke="black" points="545.5,-470.5 545.5,-522.5 652.5,-522.5 652.5,-470.5 545.5,-470.5"/>
<text text-anchor="start" x="553.5" y="-510.5" font-family="Helvetica,sans-Serif" font-size="10.00">/home/xenvre/robot</text>
<text text-anchor="start" x="553.5" y="-499.5" font-family="Helvetica,sans-Serif" font-size="10.00">&#45;code/bfl_robotology</text>
<text text-anchor="start" x="553.5" y="-488.5" font-family="Helvetica,sans-Serif" font-size="10.00">/src/BayesFilters/src</text>
<text text-anchor="middle" x="599" y="-477.5" font-family="Helvetica,sans-Serif" font-size="10.00">/SIS.cpp</text>
</a>
</g>
</g>
<!-- Node2 -->
<g id="node2" class="node">
<title>Node2</title>
<g id="a_node2"><a xlink:href="SIS_8h.html" target="_top" xlink:title=" ">
<polygon fill="white" stroke="black" points="813.5,-414.5 813.5,-433.5 912.5,-433.5 912.5,-414.5 813.5,-414.5"/>
<text text-anchor="middle" x="863" y="-421.5" font-family="Helvetica,sans-Serif" font-size="10.00">BayesFilters/SIS.h</text>
</a>
</g>
</g>
<!-- Node1&#45;&gt;Node2 -->
<g id="edge1" class="edge">
<title>Node1&#45;&gt;Node2</title>
<path fill="none" stroke="midnightblue" d="M652.74,-481.15C702.5,-467.86 775.48,-448.37 821.06,-436.2"/>
<polygon fill="midnightblue" stroke="midnightblue" points="822.15,-439.53 830.91,-433.57 820.35,-432.77 822.15,-439.53"/>
</g>
<!-- Node7 -->
<g id="node7" class="node">
<title>Node7</title>
<g id="a_node7"><a xlink:title=" ">
<polygon fill="white" stroke="#bfbfbf" points="687,-56.5 687,-75.5 737,-75.5 737,-56.5 687,-56.5"/>
<text text-anchor="middle" x="712" y="-63.5" font-family="Helvetica,sans-Serif" font-size="10.00">fstream</text>
</a>
</g>
</g>
<!-- Node1&#45;&gt;Node7 -->
<g id="edge78" class="edge">
<title>Node1&#45;&gt;Node7</title>
<path fill="none" stroke="midnightblue" d="M545.41,-493.43C467.2,-487.21 331,-462.9 331,-369 331,-369 331,-369 331,-182.5 331,-150.05 325.36,-133.11 350,-112 403.51,-66.15 590.49,-87.57 676.83,-75.72"/>
<polygon fill="midnightblue" stroke="midnightblue" points="677.53,-79.16 686.84,-74.11 676.41,-72.24 677.53,-79.16"/>
</g>
<!-- Node8 -->
<g id="node8" class="node">
<title>Node8</title>
<g id="a_node8"><a xlink:title=" ">
<polygon fill="white" stroke="#bfbfbf" points="615,-56.5 615,-75.5 669,-75.5 669,-56.5 615,-56.5"/>
<text text-anchor="middle" x="642" y="-63.5" font-family="Helvetica,sans-Serif" font-size="10.00">iostream</text>
</a>
</g>
</g>
<!-- Node1&#45;&gt;Node8 -->
<g id="edge79" class="edge">
<title>Node1&#45;&gt;Node8</title>
<path fill="none" stroke="midnightblue" d="M545.3,-493.11C485.98,-488.42 389.3,-474.62 317,-434 282.19,-414.45 255,-408.92 255,-369 255,-369 255,-369 255,-182.5 255,-140.77 280.25,-131.77 317,-112 366.07,-85.61 529.93,-73.27 604.49,-68.92"/>
<polygon fill="midnightblue" stroke="midnightblue" points="605.03,-72.4 614.82,-68.34 604.63,-65.41 605.03,-72.4"/>
</g>
<!-- Node19 -->
<g id="node19" class="node">
<title>Node19</title>
<g id="a_node19"><a xlink:title=" ">
<polygon fill="white" stroke="#bfbfbf" points="1332.5,-56.5 1332.5,-75.5 1405.5,-75.5 1405.5,-56.5 1332.5,-56.5"/>
<text text-anchor="middle" x="1369" y="-63.5" font-family="Helvetica,sans-Serif" font-size="10.00">Eigen/Dense</text>
</a>
</g>
</g>
<!-- Node1&#45;&gt;Node19 -->
<g id="edge81" class="edge">
<title>Node1&#45;&gt;Node19</title>
<path fill="none" stroke="midnightblue" d="M652.7,-494.17C932.75,-486.86 2213,-449.1 2213,-369 2213,-369 2213,-369 2213,-182.5 2213,-150.05 2219.21,-132.43 2194,-112 2163.61,-87.37 1585.77,-72.04 1415.7,-68.04"/>
<polygon fill="midnightblue" stroke="midnightblue" points="1415.65,-64.54 1405.57,-67.81 1415.48,-71.54 1415.65,-64.54"/>
</g>
<!-- Node30 -->
<g id="node30" class="node">
<title>Node30</title>
<g id="a_node30"><a xlink:title=" ">
<polygon fill="white" stroke="#bfbfbf" points="359,-112.5 359,-131.5 399,-131.5 399,-112.5 359,-112.5"/>
<text text-anchor="middle" x="379" y="-119.5" font-family="Helvetica,sans-Serif" font-size="10.00">utility</text>
</a>
</g>
</g>
<!-- Node1&#45;&gt;Node30 -->
<g id="edge80" class="edge">
<title>Node1&#45;&gt;Node30</title>
<path fill="none" stroke="midnightblue" d="M545.37,-489.61C477.4,-478.84 369,-449.09 369,-369 369,-369 369,-369 369,-244 369,-207.77 373.51,-165.65 376.47,-141.87"/>
<polygon fill="midnightblue" stroke="midnightblue" points="379.96,-142.15 377.77,-131.79 373.02,-141.25 379.96,-142.15"/>
</g>
<!-- Node40 -->
<g id="node40" class="node">
<title>Node40</title>
<g id="a_node40"><a xlink:href="utils_8h.html" target="_top" xlink:title=" ">
<polygon fill="white" stroke="black" points="2279.5,-112.5 2279.5,-131.5 2380.5,-131.5 2380.5,-112.5 2279.5,-112.5"/>
<text text-anchor="middle" x="2330" y="-119.5" font-family="Helvetica,sans-Serif" font-size="10.00">BayesFilters/utils.h</text>
</a>
</g>
</g>
<!-- Node1&#45;&gt;Node40 -->
<g id="edge72" class="edge">
<title>Node1&#45;&gt;Node40</title>
<path fill="none" stroke="midnightblue" d="M652.89,-495.45C917.96,-494.94 2076.77,-489.52 2227,-434 2270.62,-417.88 2309,-415.51 2309,-369 2309,-369 2309,-369 2309,-244 2309,-207.19 2318.55,-164.99 2324.77,-141.42"/>
<polygon fill="midnightblue" stroke="midnightblue" points="2328.16,-142.28 2327.42,-131.72 2321.41,-140.44 2328.16,-142.28"/>
</g>
<!-- Node3 -->
<g id="node3" class="node">
<title>Node3</title>
<g id="a_node3"><a xlink:href="ParticleFilter_8h.html" target="_top" xlink:title=" ">
<polygon fill="white" stroke="black" points="1048.5,-358.5 1048.5,-377.5 1185.5,-377.5 1185.5,-358.5 1048.5,-358.5"/>
<text text-anchor="middle" x="1117" y="-365.5" font-family="Helvetica,sans-Serif" font-size="10.00">BayesFilters/ParticleFilter.h</text>
</a>
</g>
</g>
<!-- Node2&#45;&gt;Node3 -->
<g id="edge2" class="edge">
<title>Node2&#45;&gt;Node3</title>
<path fill="none" stroke="midnightblue" d="M903.25,-414.44C947.65,-405 1019.15,-389.8 1067.09,-379.61"/>
<polygon fill="midnightblue" stroke="midnightblue" points="1067.89,-383.02 1076.94,-377.52 1066.43,-376.17 1067.89,-383.02"/>
</g>
<!-- Node2&#45;&gt;Node7 -->
<g id="edge70" class="edge">
<title>Node2&#45;&gt;Node7</title>
<path fill="none" stroke="midnightblue" d="M885.33,-414.41C917.77,-400.57 976.69,-369.92 1001,-322 1007.01,-310.15 1006.7,-244.88 999,-235 948.5,-170.21 693.33,-197.68 644,-132 628.78,-111.74 657,-92.16 681.58,-79.88"/>
<polygon fill="midnightblue" stroke="midnightblue" points="683.19,-82.99 690.73,-75.54 680.19,-76.66 683.19,-82.99"/>
</g>
<!-- Node17 -->
<g id="node17" class="node">
<title>Node17</title>
<g id="a_node17"><a xlink:href="ParticleSet_8h.html" target="_top" xlink:title=" ">
<polygon fill="white" stroke="black" points="859.5,-235.5 859.5,-254.5 990.5,-254.5 990.5,-235.5 859.5,-235.5"/>
<text text-anchor="middle" x="925" y="-242.5" font-family="Helvetica,sans-Serif" font-size="10.00">BayesFilters/ParticleSet.h</text>
</a>
</g>
</g>
<!-- Node2&#45;&gt;Node17 -->
<g id="edge66" class="edge">
<title>Node2&#45;&gt;Node17</title>
<path fill="none" stroke="midnightblue" d="M858.77,-414.26C848.66,-392 825.6,-332.04 849,-291 857.41,-276.25 872.77,-265.84 887.48,-258.77"/>
<polygon fill="midnightblue" stroke="midnightblue" points="889.24,-261.83 896.98,-254.6 886.42,-255.42 889.24,-261.83"/>
</g>
<!-- Node20 -->
<g id="node20" class="node">
<title>Node20</title>
<g id="a_node20"><a xlink:href="PFCorrection_8h.html" target="_top" xlink:title=" ">
<polygon fill="white" stroke="black" points="659,-297 659,-316 799,-316 799,-297 659,-297"/>
<text text-anchor="middle" x="729" y="-304" font-family="Helvetica,sans-Serif" font-size="10.00">BayesFilters/PFCorrection.h</text>
</a>
</g>
</g>
<!-- Node2&#45;&gt;Node20 -->
<g id="edge67" class="edge">
<title>Node2&#45;&gt;Node20</title>
<path fill="none" stroke="midnightblue" d="M852.93,-414.32C830.33,-394.84 775.32,-347.42 746.8,-322.84"/>
<polygon fill="midnightblue" stroke="midnightblue" points="749.05,-320.16 739.19,-316.28 744.48,-325.46 749.05,-320.16"/>
</g>
<!-- Node26 -->
<g id="node26" class="node">
<title>Node26</title>
<g id="a_node26"><a xlink:title=" ">
<polygon fill="white" stroke="#bfbfbf" points="808,-0.5 808,-19.5 860,-19.5 860,-0.5 808,-0.5"/>
<text text-anchor="middle" x="834" y="-7.5" font-family="Helvetica,sans-Serif" font-size="10.00">memory</text>
</a>
</g>
</g>
<!-- Node2&#45;&gt;Node26 -->
<g id="edge71" class="edge">
<title>Node2&#45;&gt;Node26</title>
<path fill="none" stroke="midnightblue" d="M813.38,-419.37C662.11,-407.65 217,-368.03 217,-307.5 217,-307.5 217,-307.5 217,-121 217,-115.1 169.33,-107.88 404,-56 547.55,-24.26 723.16,-14.75 797.73,-12.03"/>
<polygon fill="midnightblue" stroke="midnightblue" points="798.11,-15.52 807.99,-11.67 797.87,-8.52 798.11,-15.52"/>
</g>
<!-- Node32 -->
<g id="node32" class="node">
<title>Node32</title>
<g id="a_node32"><a xlink:href="PFPrediction_8h.html" target="_top" xlink:title=" ">
<polygon fill="white" stroke="black" points="1718.5,-297 1718.5,-316 1857.5,-316 1857.5,-297 1718.5,-297"/>
<text text-anchor="middle" x="1788" y="-304" font-family="Helvetica,sans-Serif" font-size="10.00">BayesFilters/PFPrediction.h</text>
</a>
</g>
</g>
<!-- Node2&#45;&gt;Node32 -->
<g id="edge68" class="edge">
<title>Node2&#45;&gt;Node32</title>
<path fill="none" stroke="midnightblue" d="M912.73,-416.79C1064.84,-397.8 1524.68,-340.38 1709.67,-317.28"/>
<polygon fill="midnightblue" stroke="midnightblue" points="1710.38,-320.72 1719.87,-316.01 1709.51,-313.77 1710.38,-320.72"/>
</g>
<!-- Node38 -->
<g id="node38" class="node">
<title>Node38</title>
<g id="a_node38"><a xlink:href="Resampling_8h.html" target="_top" xlink:title=" ">
<polygon fill="white" stroke="black" points="858,-297 858,-316 992,-316 992,-297 858,-297"/>
<text text-anchor="middle" x="925" y="-304" font-family="Helvetica,sans-Serif" font-size="10.00">BayesFilters/Resampling.h</text>
</a>
</g>
</g>
<!-- Node2&#45;&gt;Node38 -->
<g id="edge69" class="edge">
<title>Node2&#45;&gt;Node38</title>
<path fill="none" stroke="midnightblue" d="M867.66,-414.32C877.8,-395.42 902.05,-350.25 915.54,-325.12"/>
<polygon fill="midnightblue" stroke="midnightblue" points="918.64,-326.75 920.29,-316.28 912.47,-323.44 918.64,-326.75"/>
</g>
<!-- Node4 -->
<g id="node4" class="node">
<title>Node4</title>
<g id="a_node4"><a xlink:href="FilteringAlgorithm_8h.html" target="_top" xlink:title=" ">
<polygon fill="white" stroke="black" points="1272,-174 1272,-193 1430,-193 1430,-174 1272,-174"/>
<text text-anchor="middle" x="1351" y="-181" font-family="Helvetica,sans-Serif" font-size="10.00">BayesFilters/FilteringAlgorithm.h</text>
</a>
</g>
</g>
<!-- Node3&#45;&gt;Node4 -->
<g id="edge3" class="edge">
<title>Node3&#45;&gt;Node4</title>
<path fill="none" stroke="midnightblue" d="M1140.44,-358.48C1160.43,-350.63 1189.43,-337.81 1212,-322 1263.93,-285.62 1314.08,-229.13 1337.4,-201.24"/>
<polygon fill="midnightblue" stroke="midnightblue" points="1340.33,-203.19 1344,-193.25 1334.93,-198.73 1340.33,-203.19"/>
</g>
<!-- Node16 -->
<g id="node16" class="node">
<title>Node16</title>
<g id="a_node16"><a xlink:href="ParticleSetInitialization_8h.html" target="_top" xlink:title=" ">
<polygon fill="white" stroke="black" points="1048,-291.5 1048,-321.5 1170,-321.5 1170,-291.5 1048,-291.5"/>
<text text-anchor="start" x="1056" y="-309.5" font-family="Helvetica,sans-Serif" font-size="10.00">BayesFilters/ParticleSet</text>
<text text-anchor="middle" x="1109" y="-298.5" font-family="Helvetica,sans-Serif" font-size="10.00">Initialization.h</text>
</a>
</g>
</g>
<!-- Node3&#45;&gt;Node16 -->
<g id="edge17" class="edge">
<title>Node3&#45;&gt;Node16</title>
<path fill="none" stroke="midnightblue" d="M1115.85,-358.48C1114.91,-351.47 1113.53,-341.19 1112.25,-331.7"/>
<polygon fill="midnightblue" stroke="midnightblue" points="1115.69,-330.97 1110.89,-321.52 1108.75,-331.9 1115.69,-330.97"/>
</g>
<!-- Node3&#45;&gt;Node20 -->
<g id="edge24" class="edge">
<title>Node3&#45;&gt;Node20</title>
<path fill="none" stroke="midnightblue" d="M1061.41,-358.48C990.96,-347.67 869.71,-329.08 794.75,-317.58"/>
<polygon fill="midnightblue" stroke="midnightblue" points="794.9,-314.07 784.49,-316.01 793.84,-320.98 794.9,-314.07"/>
</g>
<!-- Node3&#45;&gt;Node26 -->
<g id="edge65" class="edge">
<title>Node3&#45;&gt;Node26</title>
<path fill="none" stroke="midnightblue" d="M1137.22,-358.49C1151.77,-351.17 1170.3,-339.06 1179,-322 1185.26,-309.73 1182.93,-304.2 1179,-291 1151.87,-199.91 1134.42,-173.55 1062,-112 1003.95,-62.66 917.96,-33.43 869.89,-19.97"/>
<polygon fill="midnightblue" stroke="midnightblue" points="870.79,-16.59 860.23,-17.34 868.95,-23.35 870.79,-16.59"/>
</g>
<!-- Node3&#45;&gt;Node32 -->
<g id="edge45" class="edge">
<title>Node3&#45;&gt;Node32</title>
<path fill="none" stroke="midnightblue" d="M1185.66,-360.91C1310.82,-349.81 1575.44,-326.35 1708.32,-314.57"/>
<polygon fill="midnightblue" stroke="midnightblue" points="1708.79,-318.04 1718.44,-313.67 1708.17,-311.07 1708.79,-318.04"/>
</g>
<!-- Node3&#45;&gt;Node38 -->
<g id="edge61" class="edge">
<title>Node3&#45;&gt;Node38</title>
<path fill="none" stroke="midnightblue" d="M1089.49,-358.48C1056.13,-348.14 999.74,-330.66 962.44,-319.1"/>
<polygon fill="midnightblue" stroke="midnightblue" points="963.05,-315.63 952.46,-316.01 960.97,-322.31 963.05,-315.63"/>
</g>
<!-- Node5 -->
<g id="node5" class="node">
<title>Node5</title>
<g id="a_node5"><a xlink:href="Filter_8h.html" target="_top" xlink:title=" ">
<polygon fill="white" stroke="black" points="1411,-112.5 1411,-131.5 1515,-131.5 1515,-112.5 1411,-112.5"/>
<text text-anchor="middle" x="1463" y="-119.5" font-family="Helvetica,sans-Serif" font-size="10.00">BayesFilters/Filter.h</text>
</a>
</g>
</g>
<!-- Node4&#45;&gt;Node5 -->
<g id="edge4" class="edge">
<title>Node4&#45;&gt;Node5</title>
<path fill="none" stroke="midnightblue" d="M1367.05,-173.98C1385.59,-164.12 1416.34,-147.79 1438.02,-136.27"/>
<polygon fill="midnightblue" stroke="midnightblue" points="1439.79,-139.29 1446.98,-131.51 1436.51,-133.11 1439.79,-139.29"/>
</g>
<!-- Node6 -->
<g id="node6" class="node">
<title>Node6</title>
<g id="a_node6"><a xlink:href="Logger_8h.html" target="_top" xlink:title=" ">
<polygon fill="white" stroke="black" points="653.5,-112.5 653.5,-131.5 764.5,-131.5 764.5,-112.5 653.5,-112.5"/>
<text text-anchor="middle" x="709" y="-119.5" font-family="Helvetica,sans-Serif" font-size="10.00">BayesFilters/Logger.h</text>
</a>
</g>
</g>
<!-- Node4&#45;&gt;Node6 -->
<g id="edge5" class="edge">
<title>Node4&#45;&gt;Node6</title>
<path fill="none" stroke="midnightblue" d="M1271.96,-175.17C1143.97,-163.31 893.74,-140.12 774.81,-129.1"/>
<polygon fill="midnightblue" stroke="midnightblue" points="775.03,-125.6 764.75,-128.17 774.38,-132.57 775.03,-125.6"/>
</g>
<!-- Node9 -->
<g id="node9" class="node">
<title>Node9</title>
<g id="a_node9"><a xlink:title=" ">
<polygon fill="white" stroke="#bfbfbf" points="1981.5,-0.5 1981.5,-19.5 2022.5,-19.5 2022.5,-0.5 1981.5,-0.5"/>
<text text-anchor="middle" x="2002" y="-7.5" font-family="Helvetica,sans-Serif" font-size="10.00">string</text>
</a>
</g>
</g>
<!-- Node4&#45;&gt;Node9 -->
<g id="edge14" class="edge">
<title>Node4&#45;&gt;Node9</title>
<path fill="none" stroke="midnightblue" d="M1430.12,-176.51C1488.95,-170.18 1570.4,-157.41 1638,-132 1654.05,-125.97 1655.34,-119 1671,-112 1777.07,-64.57 1911.77,-31.16 1971.32,-17.66"/>
<polygon fill="midnightblue" stroke="midnightblue" points="1972.22,-21.04 1981.21,-15.44 1970.69,-14.21 1972.22,-21.04"/>
</g>
<!-- Node11 -->
<g id="node11" class="node">
<title>Node11</title>
<g id="a_node11"><a xlink:href="Skipper_8h.html" target="_top" xlink:title=" ">
<polygon fill="white" stroke="black" points="2059.5,-56.5 2059.5,-75.5 2174.5,-75.5 2174.5,-56.5 2059.5,-56.5"/>
<text text-anchor="middle" x="2117" y="-63.5" font-family="Helvetica,sans-Serif" font-size="10.00">BayesFilters/Skipper.h</text>
</a>
</g>
</g>
<!-- Node4&#45;&gt;Node11 -->
<g id="edge10" class="edge">
<title>Node4&#45;&gt;Node11</title>
<path fill="none" stroke="midnightblue" d="M1405.95,-174C1469.72,-164.09 1578.02,-147.15 1671,-132 1723.93,-123.38 1736.98,-120.1 1790,-112 1879.4,-98.34 1982.84,-84.42 2049.04,-75.75"/>
<polygon fill="midnightblue" stroke="midnightblue" points="2049.87,-79.17 2059.33,-74.41 2048.96,-72.23 2049.87,-79.17"/>
</g>
<!-- Node12 -->
<g id="node12" class="node">
<title>Node12</title>
<g id="a_node12"><a xlink:title=" ">
<polygon fill="white" stroke="#bfbfbf" points="1533.5,-112.5 1533.5,-131.5 1628.5,-131.5 1628.5,-112.5 1533.5,-112.5"/>
<text text-anchor="middle" x="1581" y="-119.5" font-family="Helvetica,sans-Serif" font-size="10.00">condition_variable</text>
</a>
</g>
</g>
<!-- Node4&#45;&gt;Node12 -->
<g id="edge12" class="edge">
<title>Node4&#45;&gt;Node12</title>
<path fill="none" stroke="midnightblue" d="M1383.95,-173.98C1424.6,-163.46 1493.79,-145.56 1538.42,-134.01"/>
<polygon fill="midnightblue" stroke="midnightblue" points="1539.3,-137.4 1548.11,-131.51 1537.55,-130.63 1539.3,-137.4"/>
</g>
<!-- Node13 -->
<g id="node13" class="node">
<title>Node13</title>
<g id="a_node13"><a xlink:title=" ">
<polygon fill="white" stroke="#bfbfbf" points="1185,-112.5 1185,-131.5 1229,-131.5 1229,-112.5 1185,-112.5"/>
<text text-anchor="middle" x="1207" y="-119.5" font-family="Helvetica,sans-Serif" font-size="10.00">mutex</text>
</a>
</g>
</g>
<!-- Node4&#45;&gt;Node13 -->
<g id="edge13" class="edge">
<title>Node4&#45;&gt;Node13</title>
<path fill="none" stroke="midnightblue" d="M1330.37,-173.98C1305.88,-163.86 1264.85,-146.9 1236.89,-135.35"/>
<polygon fill="midnightblue" stroke="midnightblue" points="1238.17,-132.09 1227.59,-131.51 1235.5,-138.56 1238.17,-132.09"/>
</g>
<!-- Node14 -->
<g id="node14" class="node">
<title>Node14</title>
<g id="a_node14"><a xlink:title=" ">
<polygon fill="white" stroke="#bfbfbf" points="1247,-112.5 1247,-131.5 1291,-131.5 1291,-112.5 1247,-112.5"/>
<text text-anchor="middle" x="1269" y="-119.5" font-family="Helvetica,sans-Serif" font-size="10.00">thread</text>
</a>
</g>
</g>
<!-- Node4&#45;&gt;Node14 -->
<g id="edge15" class="edge">
<title>Node4&#45;&gt;Node14</title>
<path fill="none" stroke="midnightblue" d="M1339.25,-173.98C1326.22,-164.52 1304.96,-149.1 1289.24,-137.69"/>
<polygon fill="midnightblue" stroke="midnightblue" points="1290.88,-134.55 1280.73,-131.51 1286.77,-140.21 1290.88,-134.55"/>
</g>
<!-- Node15 -->
<g id="node15" class="node">
<title>Node15</title>
<g id="a_node15"><a xlink:title=" ">
<polygon fill="white" stroke="#bfbfbf" points="1309.5,-112.5 1309.5,-131.5 1392.5,-131.5 1392.5,-112.5 1309.5,-112.5"/>
<text text-anchor="middle" x="1351" y="-119.5" font-family="Helvetica,sans-Serif" font-size="10.00">unordered_map</text>
</a>
</g>
</g>
<!-- Node4&#45;&gt;Node15 -->
<g id="edge16" class="edge">
<title>Node4&#45;&gt;Node15</title>
<path fill="none" stroke="midnightblue" d="M1351,-173.98C1351,-165.58 1351,-152.48 1351,-141.66"/>
<polygon fill="midnightblue" stroke="midnightblue" points="1354.5,-141.51 1351,-131.51 1347.5,-141.51 1354.5,-141.51"/>
</g>
<!-- Node6&#45;&gt;Node7 -->
<g id="edge6" class="edge">
<title>Node6&#45;&gt;Node7</title>
<path fill="none" stroke="midnightblue" d="M709.5,-112.08C709.89,-105.01 710.45,-94.86 710.95,-85.99"/>
<polygon fill="midnightblue" stroke="midnightblue" points="714.45,-85.93 711.51,-75.75 707.46,-85.54 714.45,-85.93"/>
</g>
<!-- Node6&#45;&gt;Node8 -->
<g id="edge7" class="edge">
<title>Node6&#45;&gt;Node8</title>
<path fill="none" stroke="midnightblue" d="M698.24,-112.32C688.23,-104.26 673.11,-92.08 661.07,-82.37"/>
<polygon fill="midnightblue" stroke="midnightblue" points="662.94,-79.38 652.96,-75.83 658.55,-84.83 662.94,-79.38"/>
</g>
<!-- Node6&#45;&gt;Node9 -->
<g id="edge8" class="edge">
<title>Node6&#45;&gt;Node9</title>
<path fill="none" stroke="midnightblue" d="M717.54,-112.17C732.57,-97.32 765.46,-67.79 800,-56 913.73,-17.19 1794.71,-11.79 1971.26,-11.1"/>
<polygon fill="midnightblue" stroke="midnightblue" points="1971.42,-14.6 1981.41,-11.06 1971.39,-7.6 1971.42,-14.6"/>
</g>
<!-- Node10 -->
<g id="node10" class="node">
<title>Node10</title>
<g id="a_node10"><a xlink:title=" ">
<polygon fill="white" stroke="#bfbfbf" points="809,-56.5 809,-75.5 853,-75.5 853,-56.5 809,-56.5"/>
<text text-anchor="middle" x="831" y="-63.5" font-family="Helvetica,sans-Serif" font-size="10.00">vector</text>
</a>
</g>
</g>
<!-- Node6&#45;&gt;Node10 -->
<g id="edge9" class="edge">
<title>Node6&#45;&gt;Node10</title>
<path fill="none" stroke="midnightblue" d="M728.33,-112.44C748.32,-103.6 779.74,-89.69 802.56,-79.59"/>
<polygon fill="midnightblue" stroke="midnightblue" points="804.03,-82.76 811.76,-75.52 801.2,-76.36 804.03,-82.76"/>
</g>
<!-- Node11&#45;&gt;Node9 -->
<g id="edge11" class="edge">
<title>Node11&#45;&gt;Node9</title>
<path fill="none" stroke="midnightblue" d="M2098.78,-56.44C2080.1,-47.68 2050.84,-33.94 2029.38,-23.86"/>
<polygon fill="midnightblue" stroke="midnightblue" points="2030.68,-20.6 2020.14,-19.52 2027.7,-26.93 2030.68,-20.6"/>
</g>
<!-- Node16&#45;&gt;Node17 -->
<g id="edge18" class="edge">
<title>Node16&#45;&gt;Node17</title>
<path fill="none" stroke="midnightblue" d="M1065.39,-291.4C1033.6,-281.12 991.03,-267.35 961.13,-257.68"/>
<polygon fill="midnightblue" stroke="midnightblue" points="962.1,-254.32 951.51,-254.57 959.94,-260.98 962.1,-254.32"/>
</g>
<!-- Node16&#45;&gt;Node19 -->
<g id="edge23" class="edge">
<title>Node16&#45;&gt;Node19</title>
<path fill="none" stroke="midnightblue" d="M1109.47,-291.33C1111.46,-255.52 1121.85,-160.78 1176,-112 1197.23,-92.88 1272.12,-79.63 1322.13,-72.68"/>
<polygon fill="midnightblue" stroke="midnightblue" points="1322.65,-76.14 1332.09,-71.33 1321.71,-69.21 1322.65,-76.14"/>
</g>
<!-- Node17&#45;&gt;Node10 -->
<g id="edge22" class="edge">
<title>Node17&#45;&gt;Node10</title>
<path fill="none" stroke="midnightblue" d="M920.47,-235.46C905.98,-208.19 860.63,-122.78 840.63,-85.13"/>
<polygon fill="midnightblue" stroke="midnightblue" points="843.49,-83.06 835.71,-75.87 837.31,-86.34 843.49,-83.06"/>
</g>
<!-- Node18 -->
<g id="node18" class="node">
<title>Node18</title>
<g id="a_node18"><a xlink:href="GaussianMixture_8h.html" target="_top" xlink:title=" ">
<polygon fill="white" stroke="black" points="897,-112.5 897,-131.5 1053,-131.5 1053,-112.5 897,-112.5"/>
<text text-anchor="middle" x="975" y="-119.5" font-family="Helvetica,sans-Serif" font-size="10.00">BayesFilters/GaussianMixture.h</text>
</a>
</g>
</g>
<!-- Node17&#45;&gt;Node18 -->
<g id="edge19" class="edge">
<title>Node17&#45;&gt;Node18</title>
<path fill="none" stroke="midnightblue" d="M928.6,-235.3C936.7,-215.68 956.55,-167.64 967.48,-141.19"/>
<polygon fill="midnightblue" stroke="midnightblue" points="970.85,-142.2 971.44,-131.62 964.38,-139.53 970.85,-142.2"/>
</g>
<!-- Node18&#45;&gt;Node10 -->
<g id="edge20" class="edge">
<title>Node18&#45;&gt;Node10</title>
<path fill="none" stroke="midnightblue" d="M952.18,-112.44C928.03,-103.39 889.72,-89.02 862.65,-78.87"/>
<polygon fill="midnightblue" stroke="midnightblue" points="863.83,-75.57 853.24,-75.34 861.37,-82.13 863.83,-75.57"/>
</g>
<!-- Node18&#45;&gt;Node19 -->
<g id="edge21" class="edge">
<title>Node18&#45;&gt;Node19</title>
<path fill="none" stroke="midnightblue" d="M1037.43,-112.44C1116.64,-101.59 1251.45,-83.11 1322.31,-73.4"/>
<polygon fill="midnightblue" stroke="midnightblue" points="1322.86,-76.86 1332.29,-72.03 1321.91,-69.92 1322.86,-76.86"/>
</g>
<!-- Node20&#45;&gt;Node17 -->
<g id="edge41" class="edge">
<title>Node20&#45;&gt;Node17</title>
<path fill="none" stroke="midnightblue" d="M757.08,-296.98C791.29,-286.59 849.2,-269.01 887.27,-257.45"/>
<polygon fill="midnightblue" stroke="midnightblue" points="888.42,-260.76 896.97,-254.51 886.38,-254.06 888.42,-260.76"/>
</g>
<!-- Node20&#45;&gt;Node19 -->
<g id="edge44" class="edge">
<title>Node20&#45;&gt;Node19</title>
<path fill="none" stroke="midnightblue" d="M732.91,-296.86C747.72,-265.28 803.87,-155.66 888,-112 962.84,-73.16 1216.81,-67.57 1322.38,-66.96"/>
<polygon fill="midnightblue" stroke="midnightblue" points="1322.44,-70.46 1332.42,-66.92 1322.41,-63.46 1322.44,-70.46"/>
</g>
<!-- Node21 -->
<g id="node21" class="node">
<title>Node21</title>
<g id="a_node21"><a xlink:href="LikelihoodModel_8h.html" target="_top" xlink:title=" ">
<polygon fill="white" stroke="black" points="546,-235.5 546,-254.5 698,-254.5 698,-235.5 546,-235.5"/>
<text text-anchor="middle" x="622" y="-242.5" font-family="Helvetica,sans-Serif" font-size="10.00">BayesFilters/LikelihoodModel.h</text>
</a>
</g>
</g>
<!-- Node20&#45;&gt;Node21 -->
<g id="edge25" class="edge">
<title>Node20&#45;&gt;Node21</title>
<path fill="none" stroke="midnightblue" d="M713.67,-296.98C696.03,-287.17 666.84,-270.93 646.14,-259.42"/>
<polygon fill="midnightblue" stroke="midnightblue" points="647.74,-256.31 637.3,-254.51 644.34,-262.43 647.74,-256.31"/>
</g>
<!-- Node22 -->
<g id="node22" class="node">
<title>Node22</title>
<g id="a_node22"><a xlink:href="MeasurementModel_8h.html" target="_top" xlink:title=" ">
<polygon fill="white" stroke="black" points="557,-168.5 557,-198.5 691,-198.5 691,-168.5 557,-168.5"/>
<text text-anchor="start" x="565" y="-186.5" font-family="Helvetica,sans-Serif" font-size="10.00">BayesFilters/Measurement</text>
<text text-anchor="middle" x="624" y="-175.5" font-family="Helvetica,sans-Serif" font-size="10.00">Model.h</text>
</a>
</g>
</g>
<!-- Node20&#45;&gt;Node22 -->
<g id="edge40" class="edge">
<title>Node20&#45;&gt;Node22</title>
<path fill="none" stroke="midnightblue" d="M728.26,-296.78C726.64,-282.49 721.68,-253.79 707,-235 696.78,-221.92 682.14,-211.43 668,-203.47"/>
<polygon fill="midnightblue" stroke="midnightblue" points="669.31,-200.2 658.83,-198.61 666.03,-206.39 669.31,-200.2"/>
</g>
<!-- Node20&#45;&gt;Node26 -->
<g id="edge42" class="edge">
<title>Node20&#45;&gt;Node26</title>
<path fill="none" stroke="midnightblue" d="M658.76,-297.11C526.78,-278.49 262.59,-226.05 350,-112 404.78,-40.52 694.91,-18.36 797.79,-12.7"/>
<polygon fill="midnightblue" stroke="midnightblue" points="798.19,-16.18 807.99,-12.15 797.82,-9.19 798.19,-16.18"/>
</g>
<!-- Node20&#45;&gt;Node30 -->
<g id="edge43" class="edge">
<title>Node20&#45;&gt;Node30</title>
<path fill="none" stroke="midnightblue" d="M673.57,-296.95C634.07,-289.45 580.48,-276.32 537,-255 500.28,-237 495.49,-225.09 464,-199 439.64,-178.81 412.56,-154.2 395.66,-138.57"/>
<polygon fill="midnightblue" stroke="midnightblue" points="397.94,-135.91 388.23,-131.67 393.18,-141.04 397.94,-135.91"/>
</g>
<!-- Node21&#45;&gt;Node22 -->
<g id="edge26" class="edge">
<title>Node21&#45;&gt;Node22</title>
<path fill="none" stroke="midnightblue" d="M622.29,-235.48C622.52,-228.47 622.87,-218.19 623.19,-208.7"/>
<polygon fill="midnightblue" stroke="midnightblue" points="626.69,-208.63 623.53,-198.52 619.69,-208.4 626.69,-208.63"/>
</g>
<!-- Node31 -->
<g id="node31" class="node">
<title>Node31</title>
<g id="a_node31"><a xlink:title=" ">
<polygon fill="white" stroke="#bfbfbf" points="473.5,-174 473.5,-193 538.5,-193 538.5,-174 473.5,-174"/>
<text text-anchor="middle" x="506" y="-181" font-family="Helvetica,sans-Serif" font-size="10.00">Eigen/Core</text>
</a>
</g>
</g>
<!-- Node21&#45;&gt;Node31 -->
<g id="edge39" class="edge">
<title>Node21&#45;&gt;Node31</title>
<path fill="none" stroke="midnightblue" d="M605.38,-235.48C586.08,-225.58 554.04,-209.14 531.57,-197.62"/>
<polygon fill="midnightblue" stroke="midnightblue" points="533.08,-194.46 522.59,-193.01 529.89,-200.69 533.08,-194.46"/>
</g>
<!-- Node22&#45;&gt;Node6 -->
<g id="edge34" class="edge">
<title>Node22&#45;&gt;Node6</title>
<path fill="none" stroke="midnightblue" d="M644.14,-168.4C657.39,-159.13 674.68,-147.03 688.08,-137.65"/>
<polygon fill="midnightblue" stroke="midnightblue" points="690.45,-140.26 696.63,-131.66 686.43,-134.53 690.45,-140.26"/>
</g>
<!-- Node22&#45;&gt;Node9 -->
<g id="edge36" class="edge">
<title>Node22&#45;&gt;Node9</title>
<path fill="none" stroke="midnightblue" d="M615.63,-168.47C601.31,-142.46 576.37,-86.6 606,-56 655.12,-5.27 1770.9,-9.6 1971.32,-10.8"/>
<polygon fill="midnightblue" stroke="midnightblue" points="1971.41,-14.3 1981.44,-10.86 1971.46,-7.3 1971.41,-14.3"/>
</g>
<!-- Node22&#45;&gt;Node19 -->
<g id="edge38" class="edge">
<title>Node22&#45;&gt;Node19</title>
<path fill="none" stroke="midnightblue" d="M661.4,-168.43C706.58,-152.06 785.23,-125.55 855,-112 1025.02,-78.99 1231.41,-70.17 1322.26,-67.84"/>
<polygon fill="midnightblue" stroke="midnightblue" points="1322.58,-71.33 1332.49,-67.59 1322.41,-64.33 1322.58,-71.33"/>
</g>
<!-- Node23 -->
<g id="node23" class="node">
<title>Node23</title>
<g id="a_node23"><a xlink:href="Data_8h.html" target="_top" xlink:title=" ">
<polygon fill="white" stroke="black" points="417,-112.5 417,-131.5 521,-131.5 521,-112.5 417,-112.5"/>
<text text-anchor="middle" x="469" y="-119.5" font-family="Helvetica,sans-Serif" font-size="10.00">BayesFilters/Data.h</text>
</a>
</g>
</g>
<!-- Node22&#45;&gt;Node23 -->
<g id="edge27" class="edge">
<title>Node22&#45;&gt;Node23</title>
<path fill="none" stroke="midnightblue" d="M587.27,-168.4C561.03,-158.33 526.07,-144.91 500.98,-135.28"/>
<polygon fill="midnightblue" stroke="midnightblue" points="502.14,-131.97 491.55,-131.66 499.64,-138.51 502.14,-131.97"/>
</g>
<!-- Node22&#45;&gt;Node26 -->
<g id="edge35" class="edge">
<title>Node22&#45;&gt;Node26</title>
<path fill="none" stroke="midnightblue" d="M603.37,-168.5C592.09,-159.54 579.19,-146.84 573,-132 560,-100.83 551.24,-81.83 573,-56 601.27,-22.44 732.48,-13.91 797.41,-11.74"/>
<polygon fill="midnightblue" stroke="midnightblue" points="797.72,-15.23 807.61,-11.43 797.51,-8.23 797.72,-15.23"/>
</g>
<!-- Node22&#45;&gt;Node30 -->
<g id="edge37" class="edge">
<title>Node22&#45;&gt;Node30</title>
<path fill="none" stroke="midnightblue" d="M558.48,-168.46C517.85,-159.45 464.4,-147.07 408.88,-132.1"/>
<polygon fill="midnightblue" stroke="midnightblue" points="409.8,-128.72 399.23,-129.48 407.96,-135.48 409.8,-128.72"/>
</g>
<!-- Node24 -->
<g id="node24" class="node">
<title>Node24</title>
<g id="a_node24"><a xlink:href="any_8h.html" target="_top" xlink:title=" ">
<polygon fill="white" stroke="black" points="91.5,-56.5 91.5,-75.5 188.5,-75.5 188.5,-56.5 91.5,-56.5"/>
<text text-anchor="middle" x="140" y="-63.5" font-family="Helvetica,sans-Serif" font-size="10.00">BayesFilters/any.h</text>
</a>
</g>
</g>
<!-- Node23&#45;&gt;Node24 -->
<g id="edge28" class="edge">
<title>Node23&#45;&gt;Node24</title>
<path fill="none" stroke="midnightblue" d="M416.87,-112.44C357.48,-102.7 260.67,-86.81 198.69,-76.63"/>
<polygon fill="midnightblue" stroke="midnightblue" points="199.1,-73.15 188.67,-74.99 197.97,-80.06 199.1,-73.15"/>
</g>
<!-- Node25 -->
<g id="node25" class="node">
<title>Node25</title>
<g id="a_node25"><a xlink:title=" ">
<polygon fill="white" stroke="#bfbfbf" points="0,-0.5 0,-19.5 56,-19.5 56,-0.5 0,-0.5"/>
<text text-anchor="middle" x="28" y="-7.5" font-family="Helvetica,sans-Serif" font-size="10.00">algorithm</text>
</a>
</g>
</g>
<!-- Node24&#45;&gt;Node25 -->
<g id="edge29" class="edge">
<title>Node24&#45;&gt;Node25</title>
<path fill="none" stroke="midnightblue" d="M122.01,-56.32C103.96,-47.62 75.95,-34.12 55.2,-24.11"/>
<polygon fill="midnightblue" stroke="midnightblue" points="56.48,-20.84 45.95,-19.65 53.44,-27.15 56.48,-20.84"/>
</g>
<!-- Node24&#45;&gt;Node26 -->
<g id="edge30" class="edge">
<title>Node24&#45;&gt;Node26</title>
<path fill="none" stroke="midnightblue" d="M188.8,-57.68C193.59,-57.07 198.39,-56.49 203,-56 428.52,-31.88 700.8,-17.39 797.65,-12.69"/>
<polygon fill="midnightblue" stroke="midnightblue" points="797.97,-16.18 807.79,-12.2 797.64,-9.19 797.97,-16.18"/>
</g>
<!-- Node27 -->
<g id="node27" class="node">
<title>Node27</title>
<g id="a_node27"><a xlink:title=" ">
<polygon fill="white" stroke="#bfbfbf" points="74.5,-0.5 74.5,-19.5 133.5,-19.5 133.5,-0.5 74.5,-0.5"/>
<text text-anchor="middle" x="104" y="-7.5" font-family="Helvetica,sans-Serif" font-size="10.00">stdexcept</text>
</a>
</g>
</g>
<!-- Node24&#45;&gt;Node27 -->
<g id="edge31" class="edge">
<title>Node24&#45;&gt;Node27</title>
<path fill="none" stroke="midnightblue" d="M134.06,-56.08C129.02,-48.53 121.66,-37.49 115.49,-28.23"/>
<polygon fill="midnightblue" stroke="midnightblue" points="118.29,-26.13 109.83,-19.75 112.47,-30.01 118.29,-26.13"/>
</g>
<!-- Node28 -->
<g id="node28" class="node">
<title>Node28</title>
<g id="a_node28"><a xlink:title=" ">
<polygon fill="white" stroke="#bfbfbf" points="151.5,-0.5 151.5,-19.5 202.5,-19.5 202.5,-0.5 151.5,-0.5"/>
<text text-anchor="middle" x="177" y="-7.5" font-family="Helvetica,sans-Serif" font-size="10.00">typeinfo</text>
</a>
</g>
</g>
<!-- Node24&#45;&gt;Node28 -->
<g id="edge32" class="edge">
<title>Node24&#45;&gt;Node28</title>
<path fill="none" stroke="midnightblue" d="M146.11,-56.08C151.28,-48.53 158.85,-37.49 165.19,-28.23"/>
<polygon fill="midnightblue" stroke="midnightblue" points="168.24,-29.98 171,-19.75 162.46,-26.02 168.24,-29.98"/>
</g>
<!-- Node29 -->
<g id="node29" class="node">
<title>Node29</title>
<g id="a_node29"><a xlink:title=" ">
<polygon fill="white" stroke="#bfbfbf" points="221,-0.5 221,-19.5 283,-19.5 283,-0.5 221,-0.5"/>
<text text-anchor="middle" x="252" y="-7.5" font-family="Helvetica,sans-Serif" font-size="10.00">type_traits</text>
</a>
</g>
</g>
<!-- Node24&#45;&gt;Node29 -->
<g id="edge33" class="edge">
<title>Node24&#45;&gt;Node29</title>
<path fill="none" stroke="midnightblue" d="M157.99,-56.32C176.04,-47.62 204.05,-34.12 224.8,-24.11"/>
<polygon fill="midnightblue" stroke="midnightblue" points="226.56,-27.15 234.05,-19.65 223.52,-20.84 226.56,-27.15"/>
</g>
<!-- Node32&#45;&gt;Node9 -->
<g id="edge60" class="edge">
<title>Node32&#45;&gt;Node9</title>
<path fill="none" stroke="midnightblue" d="M1857.62,-301.59C1919.18,-296.29 2010.52,-283.9 2085,-255 2127.87,-238.36 2143.88,-235.38 2172,-199 2211.01,-148.54 2227.59,-102.56 2184,-56 2163.62,-34.23 2079.18,-20.57 2032.82,-14.57"/>
<polygon fill="midnightblue" stroke="midnightblue" points="2033.08,-11.07 2022.73,-13.3 2032.21,-18.02 2033.08,-11.07"/>
</g>
<!-- Node32&#45;&gt;Node17 -->
<g id="edge51" class="edge">
<title>Node32&#45;&gt;Node17</title>
<path fill="none" stroke="midnightblue" d="M1718.47,-300.71C1558.66,-289.69 1166.24,-262.63 1000.66,-251.22"/>
<polygon fill="midnightblue" stroke="midnightblue" points="1000.78,-247.72 990.56,-250.52 1000.3,-254.7 1000.78,-247.72"/>
</g>
<!-- Node32&#45;&gt;Node19 -->
<g id="edge58" class="edge">
<title>Node32&#45;&gt;Node19</title>
<path fill="none" stroke="midnightblue" d="M1782.62,-296.99C1760.81,-262.79 1678.32,-136.09 1638,-112 1601.35,-90.1 1482.83,-76.72 1415.98,-70.73"/>
<polygon fill="midnightblue" stroke="midnightblue" points="1415.99,-67.22 1405.72,-69.83 1415.38,-74.19 1415.99,-67.22"/>
</g>
<!-- Node32&#45;&gt;Node26 -->
<g id="edge59" class="edge">
<title>Node32&#45;&gt;Node26</title>
<path fill="none" stroke="midnightblue" d="M1800.74,-296.92C1848.07,-264.57 2009.33,-149.93 1975,-112 1955.95,-90.95 1062.41,-27.05 870.18,-13.53"/>
<polygon fill="midnightblue" stroke="midnightblue" points="870.26,-10.03 860.04,-12.82 869.77,-17.01 870.26,-10.03"/>
</g>
<!-- Node33 -->
<g id="node33" class="node">
<title>Node33</title>
<g id="a_node33"><a xlink:href="ExogenousModel_8h.html" target="_top" xlink:title=" ">
<polygon fill="white" stroke="black" points="1989,-174 1989,-193 2147,-193 2147,-174 1989,-174"/>
<text text-anchor="middle" x="2068" y="-181" font-family="Helvetica,sans-Serif" font-size="10.00">BayesFilters/ExogenousModel.h</text>
</a>
</g>
</g>
<!-- Node32&#45;&gt;Node33 -->
<g id="edge46" class="edge">
<title>Node32&#45;&gt;Node33</title>
<path fill="none" stroke="midnightblue" d="M1857.74,-302.7C1931.45,-298.11 2040.63,-286.12 2067,-255 2078.97,-240.87 2077.14,-218.82 2073.64,-203.15"/>
<polygon fill="midnightblue" stroke="midnightblue" points="2076.92,-201.83 2070.97,-193.06 2070.15,-203.63 2076.92,-201.83"/>
</g>
<!-- Node36 -->
<g id="node36" class="node">
<title>Node36</title>
<g id="a_node36"><a xlink:href="StateModel_8h.html" target="_top" xlink:title=" ">
<polygon fill="white" stroke="black" points="1926,-235.5 1926,-254.5 2058,-254.5 2058,-235.5 1926,-235.5"/>
<text text-anchor="middle" x="1992" y="-242.5" font-family="Helvetica,sans-Serif" font-size="10.00">BayesFilters/StateModel.h</text>
</a>
</g>
</g>
<!-- Node32&#45;&gt;Node36 -->
<g id="edge52" class="edge">
<title>Node32&#45;&gt;Node36</title>
<path fill="none" stroke="midnightblue" d="M1817.23,-296.98C1852.9,-286.57 1913.36,-268.94 1952.98,-257.38"/>
<polygon fill="midnightblue" stroke="midnightblue" points="1954.21,-260.67 1962.83,-254.51 1952.25,-253.95 1954.21,-260.67"/>
</g>
<!-- Node34 -->
<g id="node34" class="node">
<title>Node34</title>
<g id="a_node34"><a xlink:href="ExogenousProcess_8h.html" target="_top" xlink:title=" ">
<polygon fill="white" stroke="black" points="1798.5,-112.5 1798.5,-131.5 1965.5,-131.5 1965.5,-112.5 1798.5,-112.5"/>
<text text-anchor="middle" x="1882" y="-119.5" font-family="Helvetica,sans-Serif" font-size="10.00">BayesFilters/ExogenousProcess.h</text>
</a>
</g>
</g>
<!-- Node33&#45;&gt;Node34 -->
<g id="edge47" class="edge">
<title>Node33&#45;&gt;Node34</title>
<path fill="none" stroke="midnightblue" d="M2041.35,-173.98C2009.03,-163.64 1954.4,-146.16 1918.27,-134.6"/>
<polygon fill="midnightblue" stroke="midnightblue" points="1919.19,-131.22 1908.6,-131.51 1917.06,-137.89 1919.19,-131.22"/>
</g>
<!-- Node35 -->
<g id="node35" class="node">
<title>Node35</title>
<g id="a_node35"><a xlink:href="Skippable_8h.html" target="_top" xlink:title=" ">
<polygon fill="white" stroke="black" points="2059.5,-112.5 2059.5,-131.5 2184.5,-131.5 2184.5,-112.5 2059.5,-112.5"/>
<text text-anchor="middle" x="2122" y="-119.5" font-family="Helvetica,sans-Serif" font-size="10.00">BayesFilters/Skippable.h</text>
</a>
</g>
</g>
<!-- Node33&#45;&gt;Node35 -->
<g id="edge49" class="edge">
<title>Node33&#45;&gt;Node35</title>
<path fill="none" stroke="midnightblue" d="M2075.74,-173.98C2084,-164.87 2097.28,-150.24 2107.49,-138.98"/>
<polygon fill="midnightblue" stroke="midnightblue" points="2110.15,-141.27 2114.28,-131.51 2104.97,-136.56 2110.15,-141.27"/>
</g>
<!-- Node34&#45;&gt;Node19 -->
<g id="edge48" class="edge">
<title>Node34&#45;&gt;Node19</title>
<path fill="none" stroke="midnightblue" d="M1801,-112.47C1692.47,-101.05 1503.42,-81.15 1415.91,-71.94"/>
<polygon fill="midnightblue" stroke="midnightblue" points="1416.07,-68.44 1405.76,-70.87 1415.34,-75.4 1416.07,-68.44"/>
</g>
<!-- Node35&#45;&gt;Node11 -->
<g id="edge50" class="edge">
<title>Node35&#45;&gt;Node11</title>
<path fill="none" stroke="midnightblue" d="M2121.17,-112.08C2120.52,-105.01 2119.58,-94.86 2118.76,-85.99"/>
<polygon fill="midnightblue" stroke="midnightblue" points="2122.22,-85.39 2117.81,-75.75 2115.25,-86.03 2122.22,-85.39"/>
</g>
<!-- Node36&#45;&gt;Node26 -->
<g id="edge57" class="edge">
<title>Node36&#45;&gt;Node26</title>
<path fill="none" stroke="midnightblue" d="M1988.04,-235.35C1982.04,-221.01 1972.14,-191.57 1980,-168 1988.74,-141.79 2024.35,-133.5 2007,-112 1933.04,-20.35 1864.76,-71.39 1748,-56 1409,-11.31 993.97,-9.96 870.37,-10.66"/>
<polygon fill="midnightblue" stroke="midnightblue" points="870.29,-7.16 860.32,-10.73 870.34,-14.16 870.29,-7.16"/>
</g>
<!-- Node36&#45;&gt;Node33 -->
<g id="edge53" class="edge">
<title>Node36&#45;&gt;Node33</title>
<path fill="none" stroke="midnightblue" d="M2002.89,-235.48C2014.97,-226.02 2034.67,-210.6 2049.24,-199.19"/>
<polygon fill="midnightblue" stroke="midnightblue" points="2051.41,-201.93 2057.13,-193.01 2047.1,-196.42 2051.41,-201.93"/>
</g>
<!-- Node36&#45;&gt;Node35 -->
<g id="edge54" class="edge">
<title>Node36&#45;&gt;Node35</title>
<path fill="none" stroke="midnightblue" d="M2050.87,-235.48C2092.48,-228.11 2143.07,-215.96 2156,-199 2170.03,-180.6 2153.22,-155.49 2138.65,-139.26"/>
<polygon fill="midnightblue" stroke="midnightblue" points="2140.84,-136.49 2131.41,-131.66 2135.78,-141.32 2140.84,-136.49"/>
</g>
<!-- Node37 -->
<g id="node37" class="node">
<title>Node37</title>
<g id="a_node37"><a xlink:href="StateProcess_8h.html" target="_top" xlink:title=" ">
<polygon fill="white" stroke="black" points="1731,-174 1731,-193 1873,-193 1873,-174 1731,-174"/>
<text text-anchor="middle" x="1802" y="-181" font-family="Helvetica,sans-Serif" font-size="10.00">BayesFilters/StateProcess.h</text>
</a>
</g>
</g>
<!-- Node36&#45;&gt;Node37 -->
<g id="edge55" class="edge">
<title>Node36&#45;&gt;Node37</title>
<path fill="none" stroke="midnightblue" d="M1964.78,-235.48C1931.76,-225.14 1875.96,-207.66 1839.05,-196.1"/>
<polygon fill="midnightblue" stroke="midnightblue" points="1839.76,-192.66 1829.17,-193.01 1837.67,-199.34 1839.76,-192.66"/>
</g>
<!-- Node37&#45;&gt;Node19 -->
<g id="edge56" class="edge">
<title>Node37&#45;&gt;Node19</title>
<path fill="none" stroke="midnightblue" d="M1793.74,-173.78C1778.59,-158.38 1744.6,-126.64 1709,-112 1656.96,-90.6 1496.42,-76.27 1415.97,-70.24"/>
<polygon fill="midnightblue" stroke="midnightblue" points="1415.86,-66.72 1405.63,-69.47 1415.35,-73.7 1415.86,-66.72"/>
</g>
<!-- Node38&#45;&gt;Node17 -->
<g id="edge63" class="edge">
<title>Node38&#45;&gt;Node17</title>
<path fill="none" stroke="midnightblue" d="M925,-296.98C925,-288.58 925,-275.48 925,-264.66"/>
<polygon fill="midnightblue" stroke="midnightblue" points="928.5,-264.51 925,-254.51 921.5,-264.51 928.5,-264.51"/>
</g>
<!-- Node38&#45;&gt;Node19 -->
<g id="edge64" class="edge">
<title>Node38&#45;&gt;Node19</title>
<path fill="none" stroke="midnightblue" d="M938.77,-296.93C953.94,-287.29 978.87,-270.91 999,-255 1073.05,-196.48 1072,-155.04 1156,-112 1209.05,-84.82 1277.58,-74.05 1322.38,-69.79"/>
<polygon fill="midnightblue" stroke="midnightblue" points="1322.74,-73.27 1332.4,-68.9 1322.13,-66.29 1322.74,-73.27"/>
</g>
<!-- Node39 -->
<g id="node39" class="node">
<title>Node39</title>
<g id="a_node39"><a xlink:title=" ">
<polygon fill="white" stroke="#bfbfbf" points="792.5,-235.5 792.5,-254.5 841.5,-254.5 841.5,-235.5 792.5,-235.5"/>
<text text-anchor="middle" x="817" y="-242.5" font-family="Helvetica,sans-Serif" font-size="10.00">random</text>
</a>
</g>
</g>
<!-- Node38&#45;&gt;Node39 -->
<g id="edge62" class="edge">
<title>Node38&#45;&gt;Node39</title>
<path fill="none" stroke="midnightblue" d="M909.53,-296.98C891.72,-287.17 862.26,-270.93 841.37,-259.42"/>
<polygon fill="midnightblue" stroke="midnightblue" points="842.89,-256.27 832.45,-254.51 839.51,-262.4 842.89,-256.27"/>
</g>
<!-- Node40&#45;&gt;Node9 -->
<g id="edge77" class="edge">
<title>Node40&#45;&gt;Node9</title>
<path fill="none" stroke="midnightblue" d="M2329.07,-112.21C2327.05,-97.96 2320.92,-69.98 2303,-56 2261.29,-23.44 2100.6,-14.28 2032.64,-11.84"/>
<polygon fill="midnightblue" stroke="midnightblue" points="2032.67,-8.34 2022.56,-11.5 2032.44,-15.34 2032.67,-8.34"/>
</g>
<!-- Node40&#45;&gt;Node19 -->
<g id="edge73" class="edge">
<title>Node40&#45;&gt;Node19</title>
<path fill="none" stroke="midnightblue" d="M2279.47,-116.23C2262.78,-114.75 2244.1,-113.2 2227,-112 1918,-90.4 1545.73,-74.23 1416.17,-68.9"/>
<polygon fill="midnightblue" stroke="midnightblue" points="1415.96,-65.39 1405.82,-68.47 1415.67,-72.38 1415.96,-65.39"/>
</g>
<!-- Node40&#45;&gt;Node26 -->
<g id="edge76" class="edge">
<title>Node40&#45;&gt;Node26</title>
<path fill="none" stroke="midnightblue" d="M2315.73,-112.39C2290.33,-97.58 2235.1,-67.76 2184,-56 2052.87,-25.84 1071.72,-13.59 870.14,-11.38"/>
<polygon fill="midnightblue" stroke="midnightblue" points="870.11,-7.88 860.08,-11.27 870.04,-14.88 870.11,-7.88"/>
</g>
<!-- Node41 -->
<g id="node41" class="node">
<title>Node41</title>
<g id="a_node41"><a xlink:title=" ">
<polygon fill="white" stroke="#bfbfbf" points="2355,-56.5 2355,-75.5 2401,-75.5 2401,-56.5 2355,-56.5"/>
<text text-anchor="middle" x="2378" y="-63.5" font-family="Helvetica,sans-Serif" font-size="10.00">chrono</text>
</a>
</g>
</g>
<!-- Node40&#45;&gt;Node41 -->
<g id="edge74" class="edge">
<title>Node40&#45;&gt;Node41</title>
<path fill="none" stroke="midnightblue" d="M2337.93,-112.08C2344.85,-104.3 2355.07,-92.8 2363.45,-83.37"/>
<polygon fill="midnightblue" stroke="midnightblue" points="2366.19,-85.55 2370.22,-75.75 2360.96,-80.9 2366.19,-85.55"/>
</g>
<!-- Node42 -->
<g id="node42" class="node">
<title>Node42</title>
<g id="a_node42"><a xlink:title=" ">
<polygon fill="white" stroke="#bfbfbf" points="2419,-56.5 2419,-75.5 2463,-75.5 2463,-56.5 2419,-56.5"/>
<text text-anchor="middle" x="2441" y="-63.5" font-family="Helvetica,sans-Serif" font-size="10.00">cmath</text>
</a>
</g>
</g>
<!-- Node40&#45;&gt;Node42 -->
<g id="edge75" class="edge">
<title>Node40&#45;&gt;Node42</title>
<path fill="none" stroke="midnightblue" d="M2347.83,-112.32C2365.72,-103.62 2393.48,-90.12 2414.05,-80.11"/>
<polygon fill="midnightblue" stroke="midnightblue" points="2415.75,-83.18 2423.21,-75.65 2412.69,-76.88 2415.75,-83.18"/>
</g>
</g>
</svg>
