<?xml version="1.0" encoding="UTF-8" standalone="no"?>
<!DOCTYPE svg PUBLIC "-//W3C//DTD SVG 1.1//EN"
 "http://www.w3.org/Graphics/SVG/1.1/DTD/svg11.dtd">
<!-- Generated by graphviz version 2.43.0 (0)
 -->
<!-- Title: /home/user/bayes&#45;filters&#45;lib/src/BayesFilters/include/BayesFilters/SIS.h Pages: 1 -->
<!--zoomable 464 -->
<svg id="main" version="1.1" xmlns="http://www.w3.org/2000/svg" xmlns:xlink="http://www.w3.org/1999/xlink" xml:space="preserve" onload="init(evt)">
<style type="text/css"><![CDATA[
.edge:hover path { stroke: red; }
.edge:hover polygon { stroke: red; fill: red; }
]]></style>
<script type="text/javascript"><![CDATA[
var edges = document.getElementsByTagName('g');
if (edges && edges.length) {
  for (var i=0;i<edges.length;i++) {
    if (edges[i].id.substr(0,4)=='edge') {
      edges[i].setAttribute('class','edge');
    }
  }
}
]]></script>
        <defs>
                <circle id="rim" cx="0" cy="0" r="7"/>
                <circle id="rim2" cx="0" cy="0" r="3.5"/>
                <g id="zoomPlus">
                        <use xlink:href="#rim" fill="#404040">
                                <set attributeName="fill" to="#808080" begin="zoomplus.mouseover" end="zoomplus.mouseout"/>
                        </use>
                        <path d="M-4,0h8M0,-4v8" fill="none" stroke="white" stroke-width="1.5" pointer-events="none"/>
                </g>
                <g id="zoomMin">
                        <use xlink:href="#rim" fill="#404040">
                                <set attributeName="fill" to="#808080" begin="zoomminus.mouseover" end="zoomminus.mouseout"/>
                        </use>
                        <path d="M-4,0h8" fill="none" stroke="white" stroke-width="1.5" pointer-events="none"/>
                </g>
                <g id="dirArrow">
                        <path fill="none" stroke="white" stroke-width="1.5" d="M0,-3.0v7 M-2.5,-0.5L0,-3.0L2.5,-0.5"/>
                </g>
               <g id="resetDef">
                       <use xlink:href="#rim2" fill="#404040">
                               <set attributeName="fill" to="#808080" begin="reset.mouseover" end="reset.mouseout"/>
                       </use>
               </g>
        </defs>

<script type="text/javascript">
var viewWidth = 2499;
var viewHeight = 464;
var sectionId = 'dynsection-0';
</script>
<script xlink:href="svgpan.js"/>
<svg id="graph" class="graph">
<g id="viewport">
<title>/home/user/bayes&#45;filters&#45;lib/src/BayesFilters/include/BayesFilters/SIS.h</title>
<polygon fill="white" stroke="transparent" points="-4,4 -4,-460 2494.71,-460 2494.71,4 -4,4"/>
<!-- Node1 -->
<g id="node1" class="node">
<title>Node1</title>
<g id="a_node1"><a xlink:title=" ">
<polygon fill="#bfbfbf" stroke="black" points="891,-414.5 891,-455.5 1042,-455.5 1042,-414.5 891,-414.5"/>
<text text-anchor="start" x="899" y="-443.5" font-family="Helvetica,sans-Serif" font-size="10.00">/home/user/bayes&#45;filters</text>
<text text-anchor="start" x="899" y="-432.5" font-family="Helvetica,sans-Serif" font-size="10.00">&#45;lib/src/BayesFilters/include</text>
<text text-anchor="middle" x="966.5" y="-421.5" font-family="Helvetica,sans-Serif" font-size="10.00">/BayesFilters/SIS.h</text>
</a>
</g>
</g>
<!-- Node2 -->
<g id="node2" class="node">
<title>Node2</title>
<g id="a_node2"><a xlink:href="ParticleFilter_8h.html" target="_top" xlink:title=" ">
<polygon fill="white" stroke="black" points="994,-358.5 994,-377.5 1143,-377.5 1143,-358.5 994,-358.5"/>
<text text-anchor="middle" x="1068.5" y="-365.5" font-family="Helvetica,sans-Serif" font-size="10.00">BayesFilters/ParticleFilter.h</text>
</a>
</g>
</g>
<!-- Node1&#45;&gt;Node2 -->
<g id="edge1" class="edge">
<title>Node1&#45;&gt;Node2</title>
<path fill="none" stroke="midnightblue" d="M997.1,-414.5C1012.89,-404.44 1031.8,-392.38 1046.2,-383.21"/>
<polygon fill="midnightblue" stroke="midnightblue" points="1048.37,-385.98 1054.92,-377.65 1044.61,-380.08 1048.37,-385.98"/>
</g>
<!-- Node6 -->
<g id="node6" class="node">
<title>Node6</title>
<g id="a_node6"><a xlink:title=" ">
<polygon fill="white" stroke="#bfbfbf" points="397,-56.5 397,-75.5 452,-75.5 452,-56.5 397,-56.5"/>
<text text-anchor="middle" x="424.5" y="-63.5" font-family="Helvetica,sans-Serif" font-size="10.00">fstream</text>
</a>
</g>
</g>
<!-- Node1&#45;&gt;Node6 -->
<g id="edge73" class="edge">
<title>Node1&#45;&gt;Node6</title>
<path fill="none" stroke="midnightblue" d="M890.69,-428.1C710.3,-413.06 270.5,-369.98 270.5,-307.5 270.5,-307.5 270.5,-307.5 270.5,-182.5 270.5,-124.28 341.82,-91.81 387.39,-77.01"/>
<polygon fill="midnightblue" stroke="midnightblue" points="388.46,-80.34 396.97,-74.03 386.38,-73.65 388.46,-80.34"/>
</g>
<!-- Node16 -->
<g id="node16" class="node">
<title>Node16</title>
<g id="a_node16"><a xlink:href="ParticleSet_8h.html" target="_top" xlink:title=" ">
<polygon fill="white" stroke="black" points="914.5,-235.5 914.5,-254.5 1054.5,-254.5 1054.5,-235.5 914.5,-235.5"/>
<text text-anchor="middle" x="984.5" y="-242.5" font-family="Helvetica,sans-Serif" font-size="10.00">BayesFilters/ParticleSet.h</text>
</a>
</g>
</g>
<!-- Node1&#45;&gt;Node16 -->
<g id="edge69" class="edge">
<title>Node1&#45;&gt;Node16</title>
<path fill="none" stroke="midnightblue" d="M968.39,-414.24C971.88,-377.83 979.27,-300.62 982.69,-264.88"/>
<polygon fill="midnightblue" stroke="midnightblue" points="986.18,-265.13 983.65,-254.84 979.22,-264.46 986.18,-265.13"/>
</g>
<!-- Node19 -->
<g id="node19" class="node">
<title>Node19</title>
<g id="a_node19"><a xlink:href="PFCorrection_8h.html" target="_top" xlink:title=" ">
<polygon fill="white" stroke="black" points="691,-297 691,-316 842,-316 842,-297 691,-297"/>
<text text-anchor="middle" x="766.5" y="-304" font-family="Helvetica,sans-Serif" font-size="10.00">BayesFilters/PFCorrection.h</text>
</a>
</g>
</g>
<!-- Node1&#45;&gt;Node19 -->
<g id="edge70" class="edge">
<title>Node1&#45;&gt;Node19</title>
<path fill="none" stroke="midnightblue" d="M935.25,-414.23C894.71,-388.59 824.95,-344.47 789.14,-321.82"/>
<polygon fill="midnightblue" stroke="midnightblue" points="790.73,-318.68 780.4,-316.29 786.99,-324.6 790.73,-318.68"/>
</g>
<!-- Node25 -->
<g id="node25" class="node">
<title>Node25</title>
<g id="a_node25"><a xlink:title=" ">
<polygon fill="white" stroke="#bfbfbf" points="511.5,-0.5 511.5,-19.5 569.5,-19.5 569.5,-0.5 511.5,-0.5"/>
<text text-anchor="middle" x="540.5" y="-7.5" font-family="Helvetica,sans-Serif" font-size="10.00">memory</text>
</a>
</g>
</g>
<!-- Node1&#45;&gt;Node25 -->
<g id="edge74" class="edge">
<title>Node1&#45;&gt;Node25</title>
<path fill="none" stroke="midnightblue" d="M890.8,-430.53C752.52,-423.59 464.48,-406.2 368.5,-378 303.18,-358.81 232.5,-375.58 232.5,-307.5 232.5,-307.5 232.5,-307.5 232.5,-121 232.5,-72.38 276.08,-75.78 320.5,-56 380.14,-29.44 455.89,-18.37 501.15,-13.89"/>
<polygon fill="midnightblue" stroke="midnightblue" points="501.52,-17.38 511.15,-12.96 500.87,-10.41 501.52,-17.38"/>
</g>
<!-- Node33 -->
<g id="node33" class="node">
<title>Node33</title>
<g id="a_node33"><a xlink:href="PFPrediction_8h.html" target="_top" xlink:title=" ">
<polygon fill="white" stroke="black" points="1696,-297 1696,-316 1845,-316 1845,-297 1696,-297"/>
<text text-anchor="middle" x="1770.5" y="-304" font-family="Helvetica,sans-Serif" font-size="10.00">BayesFilters/PFPrediction.h</text>
</a>
</g>
</g>
<!-- Node1&#45;&gt;Node33 -->
<g id="edge71" class="edge">
<title>Node1&#45;&gt;Node33</title>
<path fill="none" stroke="midnightblue" d="M1042.14,-422.1C1199.42,-397.35 1559.29,-340.73 1706.22,-317.61"/>
<polygon fill="midnightblue" stroke="midnightblue" points="1707.1,-321.02 1716.43,-316.01 1706.01,-314.1 1707.1,-321.02"/>
</g>
<!-- Node39 -->
<g id="node39" class="node">
<title>Node39</title>
<g id="a_node39"><a xlink:href="Resampling_8h.html" target="_top" xlink:title=" ">
<polygon fill="white" stroke="black" points="1186.5,-297 1186.5,-316 1332.5,-316 1332.5,-297 1186.5,-297"/>
<text text-anchor="middle" x="1259.5" y="-304" font-family="Helvetica,sans-Serif" font-size="10.00">BayesFilters/Resampling.h</text>
</a>
</g>
</g>
<!-- Node1&#45;&gt;Node39 -->
<g id="edge72" class="edge">
<title>Node1&#45;&gt;Node39</title>
<path fill="none" stroke="midnightblue" d="M1042.11,-416.34C1076.35,-407.03 1116.83,-394.16 1151.5,-378 1184.89,-362.44 1219.96,-337.77 1240.77,-322.12"/>
<polygon fill="midnightblue" stroke="midnightblue" points="1242.94,-324.86 1248.76,-316.02 1238.69,-319.3 1242.94,-324.86"/>
</g>
<!-- Node3 -->
<g id="node3" class="node">
<title>Node3</title>
<g id="a_node3"><a xlink:href="FilteringAlgorithm_8h.html" target="_top" xlink:title=" ">
<polygon fill="white" stroke="black" points="1264.5,-174 1264.5,-193 1440.5,-193 1440.5,-174 1264.5,-174"/>
<text text-anchor="middle" x="1352.5" y="-181" font-family="Helvetica,sans-Serif" font-size="10.00">BayesFilters/FilteringAlgorithm.h</text>
</a>
</g>
</g>
<!-- Node2&#45;&gt;Node3 -->
<g id="edge2" class="edge">
<title>Node2&#45;&gt;Node3</title>
<path fill="none" stroke="midnightblue" d="M1082.72,-358.44C1097.06,-349.67 1119.71,-335.46 1138.5,-322 1156.5,-309.11 1159.34,-303.67 1177.5,-291 1229.22,-254.91 1293.26,-217.72 1327.73,-198.27"/>
<polygon fill="midnightblue" stroke="midnightblue" points="1329.63,-201.22 1336.64,-193.27 1326.2,-195.11 1329.63,-201.22"/>
</g>
<!-- Node15 -->
<g id="node15" class="node">
<title>Node15</title>
<g id="a_node15"><a xlink:href="ParticleSetInitialization_8h.html" target="_top" xlink:title=" ">
<polygon fill="white" stroke="black" points="999,-291.5 999,-321.5 1130,-321.5 1130,-291.5 999,-291.5"/>
<text text-anchor="start" x="1007" y="-309.5" font-family="Helvetica,sans-Serif" font-size="10.00">BayesFilters/ParticleSet</text>
<text text-anchor="middle" x="1064.5" y="-298.5" font-family="Helvetica,sans-Serif" font-size="10.00">Initialization.h</text>
</a>
</g>
</g>
<!-- Node2&#45;&gt;Node15 -->
<g id="edge16" class="edge">
<title>Node2&#45;&gt;Node15</title>
<path fill="none" stroke="midnightblue" d="M1067.93,-358.48C1067.46,-351.47 1066.77,-341.19 1066.13,-331.7"/>
<polygon fill="midnightblue" stroke="midnightblue" points="1069.61,-331.27 1065.44,-321.52 1062.62,-331.74 1069.61,-331.27"/>
</g>
<!-- Node2&#45;&gt;Node19 -->
<g id="edge23" class="edge">
<title>Node2&#45;&gt;Node19</title>
<path fill="none" stroke="midnightblue" d="M1025.23,-358.48C971.07,-347.8 878.33,-329.53 819.84,-318.01"/>
<polygon fill="midnightblue" stroke="midnightblue" points="820.18,-314.51 809.69,-316.01 818.82,-321.38 820.18,-314.51"/>
</g>
<!-- Node2&#45;&gt;Node25 -->
<g id="edge68" class="edge">
<title>Node2&#45;&gt;Node25</title>
<path fill="none" stroke="midnightblue" d="M1052.93,-358.42C1036.91,-349.52 1011.28,-335.09 989.5,-322 879.92,-256.12 862.22,-222.37 746.5,-168 699.56,-145.95 678.03,-161.69 635.5,-132 595.69,-104.21 564.52,-54.88 549.79,-28.61"/>
<polygon fill="midnightblue" stroke="midnightblue" points="552.82,-26.87 544.96,-19.76 546.68,-30.22 552.82,-26.87"/>
</g>
<!-- Node2&#45;&gt;Node33 -->
<g id="edge46" class="edge">
<title>Node2&#45;&gt;Node33</title>
<path fill="none" stroke="midnightblue" d="M1143.29,-360.66C1274.95,-349.5 1547.25,-326.42 1685.69,-314.69"/>
<polygon fill="midnightblue" stroke="midnightblue" points="1686.16,-318.16 1695.83,-313.83 1685.57,-311.19 1686.16,-318.16"/>
</g>
<!-- Node2&#45;&gt;Node39 -->
<g id="edge64" class="edge">
<title>Node2&#45;&gt;Node39</title>
<path fill="none" stroke="midnightblue" d="M1095.87,-358.48C1129.05,-348.14 1185.15,-330.66 1222.26,-319.1"/>
<polygon fill="midnightblue" stroke="midnightblue" points="1223.68,-322.32 1232.19,-316.01 1221.6,-315.64 1223.68,-322.32"/>
</g>
<!-- Node4 -->
<g id="node4" class="node">
<title>Node4</title>
<g id="a_node4"><a xlink:href="Filter_8h.html" target="_top" xlink:title=" ">
<polygon fill="white" stroke="black" points="1572,-112.5 1572,-131.5 1685,-131.5 1685,-112.5 1572,-112.5"/>
<text text-anchor="middle" x="1628.5" y="-119.5" font-family="Helvetica,sans-Serif" font-size="10.00">BayesFilters/Filter.h</text>
</a>
</g>
</g>
<!-- Node3&#45;&gt;Node4 -->
<g id="edge3" class="edge">
<title>Node3&#45;&gt;Node4</title>
<path fill="none" stroke="midnightblue" d="M1392.04,-173.98C1441.33,-163.35 1525.59,-145.18 1579.09,-133.65"/>
<polygon fill="midnightblue" stroke="midnightblue" points="1579.99,-137.04 1589.03,-131.51 1578.52,-130.2 1579.99,-137.04"/>
</g>
<!-- Node5 -->
<g id="node5" class="node">
<title>Node5</title>
<g id="a_node5"><a xlink:href="Logger_8h.html" target="_top" xlink:title=" ">
<polygon fill="white" stroke="black" points="645,-112.5 645,-131.5 766,-131.5 766,-112.5 645,-112.5"/>
<text text-anchor="middle" x="705.5" y="-119.5" font-family="Helvetica,sans-Serif" font-size="10.00">BayesFilters/Logger.h</text>
</a>
</g>
</g>
<!-- Node3&#45;&gt;Node5 -->
<g id="edge4" class="edge">
<title>Node3&#45;&gt;Node5</title>
<path fill="none" stroke="midnightblue" d="M1264.23,-174.38C1134.53,-162.46 895.02,-140.43 776.19,-129.5"/>
<polygon fill="midnightblue" stroke="midnightblue" points="776.39,-126 766.11,-128.57 775.75,-132.97 776.39,-126"/>
</g>
<!-- Node8 -->
<g id="node8" class="node">
<title>Node8</title>
<g id="a_node8"><a xlink:title=" ">
<polygon fill="white" stroke="#bfbfbf" points="1181.5,-0.5 1181.5,-19.5 1225.5,-19.5 1225.5,-0.5 1181.5,-0.5"/>
<text text-anchor="middle" x="1203.5" y="-7.5" font-family="Helvetica,sans-Serif" font-size="10.00">string</text>
</a>
</g>
</g>
<!-- Node3&#45;&gt;Node8 -->
<g id="edge13" class="edge">
<title>Node3&#45;&gt;Node8</title>
<path fill="none" stroke="midnightblue" d="M1264.3,-174.61C1237.21,-167.55 1210.17,-154.79 1193.5,-132 1171.18,-101.5 1185.03,-54.37 1195.33,-28.86"/>
<polygon fill="midnightblue" stroke="midnightblue" points="1198.56,-30.22 1199.29,-19.65 1192.13,-27.46 1198.56,-30.22"/>
</g>
<!-- Node10 -->
<g id="node10" class="node">
<title>Node10</title>
<g id="a_node10"><a xlink:href="Skipper_8h.html" target="_top" xlink:title=" ">
<polygon fill="white" stroke="black" points="1856,-56.5 1856,-75.5 1981,-75.5 1981,-56.5 1856,-56.5"/>
<text text-anchor="middle" x="1918.5" y="-63.5" font-family="Helvetica,sans-Serif" font-size="10.00">BayesFilters/Skipper.h</text>
</a>
</g>
</g>
<!-- Node3&#45;&gt;Node10 -->
<g id="edge9" class="edge">
<title>Node3&#45;&gt;Node10</title>
<path fill="none" stroke="midnightblue" d="M1431.15,-173.97C1500.82,-165.67 1605.07,-151.48 1694.5,-132 1762.41,-117.21 1839.94,-93.03 1883.67,-78.71"/>
<polygon fill="midnightblue" stroke="midnightblue" points="1884.86,-82 1893.26,-75.55 1882.66,-75.35 1884.86,-82"/>
</g>
<!-- Node11 -->
<g id="node11" class="node">
<title>Node11</title>
<g id="a_node11"><a xlink:title=" ">
<polygon fill="white" stroke="#bfbfbf" points="1203,-112.5 1203,-131.5 1310,-131.5 1310,-112.5 1203,-112.5"/>
<text text-anchor="middle" x="1256.5" y="-119.5" font-family="Helvetica,sans-Serif" font-size="10.00">condition_variable</text>
</a>
</g>
</g>
<!-- Node3&#45;&gt;Node11 -->
<g id="edge11" class="edge">
<title>Node3&#45;&gt;Node11</title>
<path fill="none" stroke="midnightblue" d="M1338.75,-173.98C1323.13,-164.3 1297.44,-148.37 1278.92,-136.89"/>
<polygon fill="midnightblue" stroke="midnightblue" points="1280.57,-133.8 1270.23,-131.51 1276.88,-139.75 1280.57,-133.8"/>
</g>
<!-- Node12 -->
<g id="node12" class="node">
<title>Node12</title>
<g id="a_node12"><a xlink:title=" ">
<polygon fill="white" stroke="#bfbfbf" points="1328.5,-112.5 1328.5,-131.5 1376.5,-131.5 1376.5,-112.5 1328.5,-112.5"/>
<text text-anchor="middle" x="1352.5" y="-119.5" font-family="Helvetica,sans-Serif" font-size="10.00">mutex</text>
</a>
</g>
</g>
<!-- Node3&#45;&gt;Node12 -->
<g id="edge12" class="edge">
<title>Node3&#45;&gt;Node12</title>
<path fill="none" stroke="midnightblue" d="M1352.5,-173.98C1352.5,-165.58 1352.5,-152.48 1352.5,-141.66"/>
<polygon fill="midnightblue" stroke="midnightblue" points="1356,-141.51 1352.5,-131.51 1349,-141.51 1356,-141.51"/>
</g>
<!-- Node13 -->
<g id="node13" class="node">
<title>Node13</title>
<g id="a_node13"><a xlink:title=" ">
<polygon fill="white" stroke="#bfbfbf" points="1394.5,-112.5 1394.5,-131.5 1442.5,-131.5 1442.5,-112.5 1394.5,-112.5"/>
<text text-anchor="middle" x="1418.5" y="-119.5" font-family="Helvetica,sans-Serif" font-size="10.00">thread</text>
</a>
</g>
</g>
<!-- Node3&#45;&gt;Node13 -->
<g id="edge14" class="edge">
<title>Node3&#45;&gt;Node13</title>
<path fill="none" stroke="midnightblue" d="M1361.96,-173.98C1372.25,-164.7 1388.92,-149.67 1401.49,-138.33"/>
<polygon fill="midnightblue" stroke="midnightblue" points="1403.98,-140.8 1409.06,-131.51 1399.29,-135.61 1403.98,-140.8"/>
</g>
<!-- Node14 -->
<g id="node14" class="node">
<title>Node14</title>
<g id="a_node14"><a xlink:title=" ">
<polygon fill="white" stroke="#bfbfbf" points="1461,-112.5 1461,-131.5 1554,-131.5 1554,-112.5 1461,-112.5"/>
<text text-anchor="middle" x="1507.5" y="-119.5" font-family="Helvetica,sans-Serif" font-size="10.00">unordered_map</text>
</a>
</g>
</g>
<!-- Node3&#45;&gt;Node14 -->
<g id="edge15" class="edge">
<title>Node3&#45;&gt;Node14</title>
<path fill="none" stroke="midnightblue" d="M1374.71,-173.98C1401.18,-163.81 1445.61,-146.76 1475.72,-135.2"/>
<polygon fill="midnightblue" stroke="midnightblue" points="1477.25,-138.36 1485.33,-131.51 1474.74,-131.83 1477.25,-138.36"/>
</g>
<!-- Node5&#45;&gt;Node6 -->
<g id="edge5" class="edge">
<title>Node5&#45;&gt;Node6</title>
<path fill="none" stroke="midnightblue" d="M660.97,-112.44C606.1,-101.9 513.82,-84.16 462.26,-74.26"/>
<polygon fill="midnightblue" stroke="midnightblue" points="462.69,-70.77 452.21,-72.32 461.37,-77.65 462.69,-70.77"/>
</g>
<!-- Node7 -->
<g id="node7" class="node">
<title>Node7</title>
<g id="a_node7"><a xlink:title=" ">
<polygon fill="white" stroke="#bfbfbf" points="675.5,-56.5 675.5,-75.5 735.5,-75.5 735.5,-56.5 675.5,-56.5"/>
<text text-anchor="middle" x="705.5" y="-63.5" font-family="Helvetica,sans-Serif" font-size="10.00">iostream</text>
</a>
</g>
</g>
<!-- Node5&#45;&gt;Node7 -->
<g id="edge6" class="edge">
<title>Node5&#45;&gt;Node7</title>
<path fill="none" stroke="midnightblue" d="M705.5,-112.08C705.5,-105.01 705.5,-94.86 705.5,-85.99"/>
<polygon fill="midnightblue" stroke="midnightblue" points="709,-85.75 705.5,-75.75 702,-85.75 709,-85.75"/>
</g>
<!-- Node5&#45;&gt;Node8 -->
<g id="edge7" class="edge">
<title>Node5&#45;&gt;Node8</title>
<path fill="none" stroke="midnightblue" d="M719.12,-112.36C742.39,-98.05 791.73,-69.66 837.5,-56 956.92,-20.37 1106.35,-12.91 1171.1,-11.38"/>
<polygon fill="midnightblue" stroke="midnightblue" points="1171.18,-14.87 1181.11,-11.17 1171.04,-7.88 1171.18,-14.87"/>
</g>
<!-- Node9 -->
<g id="node9" class="node">
<title>Node9</title>
<g id="a_node9"><a xlink:title=" ">
<polygon fill="white" stroke="#bfbfbf" points="847,-56.5 847,-75.5 894,-75.5 894,-56.5 847,-56.5"/>
<text text-anchor="middle" x="870.5" y="-63.5" font-family="Helvetica,sans-Serif" font-size="10.00">vector</text>
</a>
</g>
</g>
<!-- Node5&#45;&gt;Node9 -->
<g id="edge8" class="edge">
<title>Node5&#45;&gt;Node9</title>
<path fill="none" stroke="midnightblue" d="M731.64,-112.44C760.26,-103.08 806.21,-88.04 837.34,-77.85"/>
<polygon fill="midnightblue" stroke="midnightblue" points="838.47,-81.17 846.88,-74.73 836.29,-74.51 838.47,-81.17"/>
</g>
<!-- Node10&#45;&gt;Node8 -->
<g id="edge10" class="edge">
<title>Node10&#45;&gt;Node8</title>
<path fill="none" stroke="midnightblue" d="M1855.91,-57.44C1851.04,-56.93 1846.19,-56.44 1841.5,-56 1609.67,-34.29 1329.56,-17.95 1235.81,-12.75"/>
<polygon fill="midnightblue" stroke="midnightblue" points="1235.75,-9.24 1225.57,-12.19 1235.36,-16.23 1235.75,-9.24"/>
</g>
<!-- Node15&#45;&gt;Node16 -->
<g id="edge17" class="edge">
<title>Node15&#45;&gt;Node16</title>
<path fill="none" stroke="midnightblue" d="M1045.54,-291.4C1033.08,-282.13 1016.8,-270.03 1004.19,-260.65"/>
<polygon fill="midnightblue" stroke="midnightblue" points="1006.25,-257.82 996.14,-254.66 1002.08,-263.43 1006.25,-257.82"/>
</g>
<!-- Node18 -->
<g id="node18" class="node">
<title>Node18</title>
<g id="a_node18"><a xlink:title=" ">
<polygon fill="white" stroke="#bfbfbf" points="1060,-56.5 1060,-75.5 1137,-75.5 1137,-56.5 1060,-56.5"/>
<text text-anchor="middle" x="1098.5" y="-63.5" font-family="Helvetica,sans-Serif" font-size="10.00">Eigen/Dense</text>
</a>
</g>
</g>
<!-- Node15&#45;&gt;Node18 -->
<g id="edge22" class="edge">
<title>Node15&#45;&gt;Node18</title>
<path fill="none" stroke="midnightblue" d="M1066.53,-291.29C1072.35,-250.43 1089.16,-132.55 1095.77,-86.12"/>
<polygon fill="midnightblue" stroke="midnightblue" points="1099.28,-86.34 1097.22,-75.95 1092.35,-85.35 1099.28,-86.34"/>
</g>
<!-- Node16&#45;&gt;Node9 -->
<g id="edge21" class="edge">
<title>Node16&#45;&gt;Node9</title>
<path fill="none" stroke="midnightblue" d="M974.9,-235.41C955.85,-217.85 913.07,-175.78 889.5,-132 881.66,-117.44 876.7,-99.26 873.82,-85.84"/>
<polygon fill="midnightblue" stroke="midnightblue" points="877.23,-85 871.88,-75.86 870.36,-86.34 877.23,-85"/>
</g>
<!-- Node17 -->
<g id="node17" class="node">
<title>Node17</title>
<g id="a_node17"><a xlink:href="GaussianMixture_8h.html" target="_top" xlink:title=" ">
<polygon fill="white" stroke="black" points="899,-112.5 899,-131.5 1070,-131.5 1070,-112.5 899,-112.5"/>
<text text-anchor="middle" x="984.5" y="-119.5" font-family="Helvetica,sans-Serif" font-size="10.00">BayesFilters/GaussianMixture.h</text>
</a>
</g>
</g>
<!-- Node16&#45;&gt;Node17 -->
<g id="edge18" class="edge">
<title>Node16&#45;&gt;Node17</title>
<path fill="none" stroke="midnightblue" d="M984.5,-235.3C984.5,-215.85 984.5,-168.49 984.5,-141.9"/>
<polygon fill="midnightblue" stroke="midnightblue" points="988,-141.62 984.5,-131.62 981,-141.62 988,-141.62"/>
</g>
<!-- Node17&#45;&gt;Node9 -->
<g id="edge19" class="edge">
<title>Node17&#45;&gt;Node9</title>
<path fill="none" stroke="midnightblue" d="M966.44,-112.44C947.93,-103.68 918.92,-89.94 897.64,-79.86"/>
<polygon fill="midnightblue" stroke="midnightblue" points="899.01,-76.63 888.48,-75.52 896.02,-82.96 899.01,-76.63"/>
</g>
<!-- Node17&#45;&gt;Node18 -->
<g id="edge20" class="edge">
<title>Node17&#45;&gt;Node18</title>
<path fill="none" stroke="midnightblue" d="M1002.56,-112.44C1021.07,-103.68 1050.08,-89.94 1071.36,-79.86"/>
<polygon fill="midnightblue" stroke="midnightblue" points="1072.98,-82.96 1080.52,-75.52 1069.99,-76.63 1072.98,-82.96"/>
</g>
<!-- Node19&#45;&gt;Node16 -->
<g id="edge42" class="edge">
<title>Node19&#45;&gt;Node16</title>
<path fill="none" stroke="midnightblue" d="M797.73,-296.98C836.1,-286.5 901.29,-268.71 943.61,-257.16"/>
<polygon fill="midnightblue" stroke="midnightblue" points="944.6,-260.52 953.32,-254.51 942.76,-253.77 944.6,-260.52"/>
</g>
<!-- Node19&#45;&gt;Node18 -->
<g id="edge45" class="edge">
<title>Node19&#45;&gt;Node18</title>
<path fill="none" stroke="midnightblue" d="M769.26,-296.83C779.52,-266.07 818.62,-161.37 889.5,-112 937.11,-78.84 1004.51,-69.4 1049.77,-67.07"/>
<polygon fill="midnightblue" stroke="midnightblue" points="1050.08,-70.56 1059.93,-66.65 1049.79,-63.57 1050.08,-70.56"/>
</g>
<!-- Node20 -->
<g id="node20" class="node">
<title>Node20</title>
<g id="a_node20"><a xlink:href="LikelihoodModel_8h.html" target="_top" xlink:title=" ">
<polygon fill="white" stroke="black" points="570.5,-235.5 570.5,-254.5 738.5,-254.5 738.5,-235.5 570.5,-235.5"/>
<text text-anchor="middle" x="654.5" y="-242.5" font-family="Helvetica,sans-Serif" font-size="10.00">BayesFilters/LikelihoodModel.h</text>
</a>
</g>
</g>
<!-- Node19&#45;&gt;Node20 -->
<g id="edge24" class="edge">
<title>Node19&#45;&gt;Node20</title>
<path fill="none" stroke="midnightblue" d="M750.45,-296.98C731.91,-287.12 701.16,-270.79 679.48,-259.27"/>
<polygon fill="midnightblue" stroke="midnightblue" points="680.99,-256.11 670.52,-254.51 677.71,-262.29 680.99,-256.11"/>
</g>
<!-- Node21 -->
<g id="node21" class="node">
<title>Node21</title>
<g id="a_node21"><a xlink:href="MeasurementModel_8h.html" target="_top" xlink:title=" ">
<polygon fill="white" stroke="black" points="591,-168.5 591,-198.5 738,-198.5 738,-168.5 591,-168.5"/>
<text text-anchor="start" x="599" y="-186.5" font-family="Helvetica,sans-Serif" font-size="10.00">BayesFilters/Measurement</text>
<text text-anchor="middle" x="664.5" y="-175.5" font-family="Helvetica,sans-Serif" font-size="10.00">Model.h</text>
</a>
</g>
</g>
<!-- Node19&#45;&gt;Node21 -->
<g id="edge41" class="edge">
<title>Node19&#45;&gt;Node21</title>
<path fill="none" stroke="midnightblue" d="M766.19,-296.8C765.27,-282.53 761.65,-253.86 747.5,-235 737.62,-221.83 723.2,-211.36 709.15,-203.45"/>
<polygon fill="midnightblue" stroke="midnightblue" points="710.49,-200.2 700.02,-198.61 707.22,-206.39 710.49,-200.2"/>
</g>
<!-- Node19&#45;&gt;Node25 -->
<g id="edge43" class="edge">
<title>Node19&#45;&gt;Node25</title>
<path fill="none" stroke="midnightblue" d="M690.87,-301.1C560.79,-291.44 308.5,-262.63 308.5,-184.5 308.5,-184.5 308.5,-184.5 308.5,-121 308.5,-36.8 434.81,-16.97 501.03,-12.36"/>
<polygon fill="midnightblue" stroke="midnightblue" points="501.35,-15.84 511.12,-11.74 500.92,-8.86 501.35,-15.84"/>
</g>
<!-- Node31 -->
<g id="node31" class="node">
<title>Node31</title>
<g id="a_node31"><a xlink:title=" ">
<polygon fill="white" stroke="#bfbfbf" points="337,-112.5 337,-131.5 382,-131.5 382,-112.5 337,-112.5"/>
<text text-anchor="middle" x="359.5" y="-119.5" font-family="Helvetica,sans-Serif" font-size="10.00">utility</text>
</a>
</g>
</g>
<!-- Node19&#45;&gt;Node31 -->
<g id="edge44" class="edge">
<title>Node19&#45;&gt;Node31</title>
<path fill="none" stroke="midnightblue" d="M710.47,-296.97C668.31,-289.3 609.74,-275.97 561.5,-255 488.15,-223.1 411.84,-165.36 377.8,-138.06"/>
<polygon fill="midnightblue" stroke="midnightblue" points="379.69,-135.09 369.71,-131.52 375.28,-140.53 379.69,-135.09"/>
</g>
<!-- Node20&#45;&gt;Node21 -->
<g id="edge25" class="edge">
<title>Node20&#45;&gt;Node21</title>
<path fill="none" stroke="midnightblue" d="M655.93,-235.48C657.12,-228.4 658.87,-217.97 660.48,-208.39"/>
<polygon fill="midnightblue" stroke="midnightblue" points="663.94,-208.96 662.14,-198.52 657.03,-207.8 663.94,-208.96"/>
</g>
<!-- Node32 -->
<g id="node32" class="node">
<title>Node32</title>
<g id="a_node32"><a xlink:title=" ">
<polygon fill="white" stroke="#bfbfbf" points="504,-174 504,-193 573,-193 573,-174 504,-174"/>
<text text-anchor="middle" x="538.5" y="-181" font-family="Helvetica,sans-Serif" font-size="10.00">Eigen/Core</text>
</a>
</g>
</g>
<!-- Node20&#45;&gt;Node32 -->
<g id="edge40" class="edge">
<title>Node20&#45;&gt;Node32</title>
<path fill="none" stroke="midnightblue" d="M637.88,-235.48C618.58,-225.58 586.54,-209.14 564.07,-197.62"/>
<polygon fill="midnightblue" stroke="midnightblue" points="565.58,-194.46 555.09,-193.01 562.39,-200.69 565.58,-194.46"/>
</g>
<!-- Node21&#45;&gt;Node5 -->
<g id="edge33" class="edge">
<title>Node21&#45;&gt;Node5</title>
<path fill="none" stroke="midnightblue" d="M674.22,-168.4C680.05,-159.93 687.52,-149.1 693.69,-140.14"/>
<polygon fill="midnightblue" stroke="midnightblue" points="696.74,-141.88 699.53,-131.66 690.98,-137.91 696.74,-141.88"/>
</g>
<!-- Node21&#45;&gt;Node8 -->
<g id="edge37" class="edge">
<title>Node21&#45;&gt;Node8</title>
<path fill="none" stroke="midnightblue" d="M653.69,-168.37C647.01,-158.71 639.04,-145.29 635.5,-132 626.1,-96.75 635.87,-75.82 666.5,-56 708.88,-28.57 1061.44,-15.41 1171.09,-11.95"/>
<polygon fill="midnightblue" stroke="midnightblue" points="1171.33,-15.45 1181.21,-11.64 1171.11,-8.45 1171.33,-15.45"/>
</g>
<!-- Node21&#45;&gt;Node18 -->
<g id="edge39" class="edge">
<title>Node21&#45;&gt;Node18</title>
<path fill="none" stroke="midnightblue" d="M695.26,-168.35C739.74,-147.91 816.9,-112.49 818.5,-112 897.46,-88.07 993.02,-76.18 1049.61,-70.83"/>
<polygon fill="midnightblue" stroke="midnightblue" points="1050.08,-74.3 1059.72,-69.91 1049.44,-67.33 1050.08,-74.3"/>
</g>
<!-- Node22 -->
<g id="node22" class="node">
<title>Node22</title>
<g id="a_node22"><a xlink:href="Data_8h.html" target="_top" xlink:title=" ">
<polygon fill="white" stroke="black" points="400.5,-112.5 400.5,-131.5 512.5,-131.5 512.5,-112.5 400.5,-112.5"/>
<text text-anchor="middle" x="456.5" y="-119.5" font-family="Helvetica,sans-Serif" font-size="10.00">BayesFilters/Data.h</text>
</a>
</g>
</g>
<!-- Node21&#45;&gt;Node22 -->
<g id="edge26" class="edge">
<title>Node21&#45;&gt;Node22</title>
<path fill="none" stroke="midnightblue" d="M615.47,-168.47C579.12,-158.08 530.19,-144.08 496.25,-134.37"/>
<polygon fill="midnightblue" stroke="midnightblue" points="496.81,-130.89 486.24,-131.51 494.89,-137.62 496.81,-130.89"/>
</g>
<!-- Node21&#45;&gt;Node25 -->
<g id="edge36" class="edge">
<title>Node21&#45;&gt;Node25</title>
<path fill="none" stroke="midnightblue" d="M616.39,-168.48C597.54,-160.65 577.38,-148.96 564.5,-132 541.59,-101.83 538.88,-55.57 539.4,-29.87"/>
<polygon fill="midnightblue" stroke="midnightblue" points="542.9,-29.77 539.8,-19.64 535.91,-29.5 542.9,-29.77"/>
</g>
<!-- Node29 -->
<g id="node29" class="node">
<title>Node29</title>
<g id="a_node29"><a xlink:href="VectorDescription_8h.html" target="_top" xlink:title=" ">
<polygon fill="white" stroke="black" points="1999,-56.5 1999,-75.5 2174,-75.5 2174,-56.5 1999,-56.5"/>
<text text-anchor="middle" x="2086.5" y="-63.5" font-family="Helvetica,sans-Serif" font-size="10.00">BayesFilters/VectorDescription.h</text>
</a>
</g>
</g>
<!-- Node21&#45;&gt;Node29 -->
<g id="edge34" class="edge">
<title>Node21&#45;&gt;Node29</title>
<path fill="none" stroke="midnightblue" d="M738.31,-174.64C821.24,-165.55 959.77,-149.55 1078.5,-132 1129.82,-124.41 1141.93,-117.63 1193.5,-112 1542.72,-73.9 1635.06,-100.06 1988.87,-76.08"/>
<polygon fill="midnightblue" stroke="midnightblue" points="1989.14,-79.57 1998.88,-75.39 1988.66,-72.58 1989.14,-79.57"/>
</g>
<!-- Node21&#45;&gt;Node31 -->
<g id="edge38" class="edge">
<title>Node21&#45;&gt;Node31</title>
<path fill="none" stroke="midnightblue" d="M590.77,-169.64C527.77,-158.52 440.94,-142.85 392.01,-131.91"/>
<polygon fill="midnightblue" stroke="midnightblue" points="392.69,-128.47 382.16,-129.65 391.12,-135.3 392.69,-128.47"/>
</g>
<!-- Node23 -->
<g id="node23" class="node">
<title>Node23</title>
<g id="a_node23"><a xlink:href="any_8h.html" target="_top" xlink:title=" ">
<polygon fill="white" stroke="black" points="99,-56.5 99,-75.5 204,-75.5 204,-56.5 99,-56.5"/>
<text text-anchor="middle" x="151.5" y="-63.5" font-family="Helvetica,sans-Serif" font-size="10.00">BayesFilters/any.h</text>
</a>
</g>
</g>
<!-- Node22&#45;&gt;Node23 -->
<g id="edge27" class="edge">
<title>Node22&#45;&gt;Node23</title>
<path fill="none" stroke="midnightblue" d="M408.17,-112.44C354.3,-102.9 267.19,-87.48 209.64,-77.29"/>
<polygon fill="midnightblue" stroke="midnightblue" points="210.06,-73.81 199.6,-75.52 208.84,-80.71 210.06,-73.81"/>
</g>
<!-- Node24 -->
<g id="node24" class="node">
<title>Node24</title>
<g id="a_node24"><a xlink:title=" ">
<polygon fill="white" stroke="#bfbfbf" points="162.5,-0.5 162.5,-19.5 226.5,-19.5 226.5,-0.5 162.5,-0.5"/>
<text text-anchor="middle" x="194.5" y="-7.5" font-family="Helvetica,sans-Serif" font-size="10.00">algorithm</text>
</a>
</g>
</g>
<!-- Node23&#45;&gt;Node24 -->
<g id="edge28" class="edge">
<title>Node23&#45;&gt;Node24</title>
<path fill="none" stroke="midnightblue" d="M158.6,-56.08C164.74,-48.38 173.77,-37.03 181.24,-27.65"/>
<polygon fill="midnightblue" stroke="midnightblue" points="184.04,-29.75 187.53,-19.75 178.56,-25.39 184.04,-29.75"/>
</g>
<!-- Node23&#45;&gt;Node25 -->
<g id="edge29" class="edge">
<title>Node23&#45;&gt;Node25</title>
<path fill="none" stroke="midnightblue" d="M204.37,-57.66C283.4,-46.69 430.59,-26.26 501,-16.48"/>
<polygon fill="midnightblue" stroke="midnightblue" points="501.79,-19.91 511.21,-15.07 500.83,-12.97 501.79,-19.91"/>
</g>
<!-- Node26 -->
<g id="node26" class="node">
<title>Node26</title>
<g id="a_node26"><a xlink:title=" ">
<polygon fill="white" stroke="#bfbfbf" points="245,-0.5 245,-19.5 310,-19.5 310,-0.5 245,-0.5"/>
<text text-anchor="middle" x="277.5" y="-7.5" font-family="Helvetica,sans-Serif" font-size="10.00">stdexcept</text>
</a>
</g>
</g>
<!-- Node23&#45;&gt;Node26 -->
<g id="edge30" class="edge">
<title>Node23&#45;&gt;Node26</title>
<path fill="none" stroke="midnightblue" d="M171.47,-56.44C192.11,-47.6 224.56,-33.69 248.13,-23.59"/>
<polygon fill="midnightblue" stroke="midnightblue" points="249.82,-26.67 257.63,-19.52 247.06,-20.24 249.82,-26.67"/>
</g>
<!-- Node27 -->
<g id="node27" class="node">
<title>Node27</title>
<g id="a_node27"><a xlink:title=" ">
<polygon fill="white" stroke="#bfbfbf" points="0,-0.5 0,-19.5 57,-19.5 57,-0.5 0,-0.5"/>
<text text-anchor="middle" x="28.5" y="-7.5" font-family="Helvetica,sans-Serif" font-size="10.00">typeinfo</text>
</a>
</g>
</g>
<!-- Node23&#45;&gt;Node27 -->
<g id="edge31" class="edge">
<title>Node23&#45;&gt;Node27</title>
<path fill="none" stroke="midnightblue" d="M132.01,-56.44C111.86,-47.6 80.18,-33.69 57.17,-23.59"/>
<polygon fill="midnightblue" stroke="midnightblue" points="58.46,-20.33 47.9,-19.52 55.65,-26.74 58.46,-20.33"/>
</g>
<!-- Node28 -->
<g id="node28" class="node">
<title>Node28</title>
<g id="a_node28"><a xlink:title=" ">
<polygon fill="white" stroke="#bfbfbf" points="75,-0.5 75,-19.5 144,-19.5 144,-0.5 75,-0.5"/>
<text text-anchor="middle" x="109.5" y="-7.5" font-family="Helvetica,sans-Serif" font-size="10.00">type_traits</text>
</a>
</g>
</g>
<!-- Node23&#45;&gt;Node28 -->
<g id="edge32" class="edge">
<title>Node23&#45;&gt;Node28</title>
<path fill="none" stroke="midnightblue" d="M144.56,-56.08C138.57,-48.38 129.75,-37.03 122.45,-27.65"/>
<polygon fill="midnightblue" stroke="midnightblue" points="125.21,-25.5 116.31,-19.75 119.68,-29.79 125.21,-25.5"/>
</g>
<!-- Node30 -->
<g id="node30" class="node">
<title>Node30</title>
<g id="a_node30"><a xlink:title=" ">
<polygon fill="white" stroke="#bfbfbf" points="2060,-0.5 2060,-19.5 2113,-19.5 2113,-0.5 2060,-0.5"/>
<text text-anchor="middle" x="2086.5" y="-7.5" font-family="Helvetica,sans-Serif" font-size="10.00">cstddef</text>
</a>
</g>
</g>
<!-- Node29&#45;&gt;Node30 -->
<g id="edge35" class="edge">
<title>Node29&#45;&gt;Node30</title>
<path fill="none" stroke="midnightblue" d="M2086.5,-56.08C2086.5,-49.01 2086.5,-38.86 2086.5,-29.99"/>
<polygon fill="midnightblue" stroke="midnightblue" points="2090,-29.75 2086.5,-19.75 2083,-29.75 2090,-29.75"/>
</g>
<!-- Node33&#45;&gt;Node8 -->
<g id="edge63" class="edge">
<title>Node33&#45;&gt;Node8</title>
<path fill="none" stroke="midnightblue" d="M1845.11,-299.48C2017.05,-284.61 2426.5,-243.06 2426.5,-184.5 2426.5,-184.5 2426.5,-184.5 2426.5,-121 2426.5,-103.13 2678.01,-128.43 2183.5,-56 1994.43,-28.31 1383.91,-14.59 1236,-11.62"/>
<polygon fill="midnightblue" stroke="midnightblue" points="1235.84,-8.12 1225.78,-11.42 1235.7,-15.12 1235.84,-8.12"/>
</g>
<!-- Node33&#45;&gt;Node16 -->
<g id="edge53" class="edge">
<title>Node33&#45;&gt;Node16</title>
<path fill="none" stroke="midnightblue" d="M1695.85,-299.85C1547.69,-288.63 1217.68,-263.65 1064.93,-252.09"/>
<polygon fill="midnightblue" stroke="midnightblue" points="1064.92,-248.58 1054.69,-251.31 1064.39,-255.56 1064.92,-248.58"/>
</g>
<!-- Node33&#45;&gt;Node18 -->
<g id="edge61" class="edge">
<title>Node33&#45;&gt;Node18</title>
<path fill="none" stroke="midnightblue" d="M1771.17,-296.71C1772.99,-265.53 1774.49,-159.58 1715.5,-112 1666.63,-72.57 1213.87,-83.27 1151.5,-76 1150.2,-75.85 1148.88,-75.69 1147.54,-75.51"/>
<polygon fill="midnightblue" stroke="midnightblue" points="1147.61,-71.99 1137.22,-74.06 1146.63,-78.92 1147.61,-71.99"/>
</g>
<!-- Node33&#45;&gt;Node25 -->
<g id="edge62" class="edge">
<title>Node33&#45;&gt;Node25</title>
<path fill="none" stroke="midnightblue" d="M1772.75,-296.58C1780.38,-264.02 1801.4,-151.41 1738.5,-112 1688.19,-80.48 780.77,-25.19 579.73,-13.3"/>
<polygon fill="midnightblue" stroke="midnightblue" points="579.81,-9.8 569.62,-12.7 579.4,-16.78 579.81,-9.8"/>
</g>
<!-- Node34 -->
<g id="node34" class="node">
<title>Node34</title>
<g id="a_node34"><a xlink:href="ExogenousModel_8h.html" target="_top" xlink:title=" ">
<polygon fill="white" stroke="black" points="2042,-174 2042,-193 2213,-193 2213,-174 2042,-174"/>
<text text-anchor="middle" x="2127.5" y="-181" font-family="Helvetica,sans-Serif" font-size="10.00">BayesFilters/ExogenousModel.h</text>
</a>
</g>
</g>
<!-- Node33&#45;&gt;Node34 -->
<g id="edge47" class="edge">
<title>Node33&#45;&gt;Node34</title>
<path fill="none" stroke="midnightblue" d="M1845.07,-303.29C1903.61,-298.97 1985.77,-287.06 2050.5,-255 2076.78,-241.98 2100.6,-217.26 2114.57,-200.83"/>
<polygon fill="midnightblue" stroke="midnightblue" points="2117.28,-203.04 2120.94,-193.09 2111.88,-198.59 2117.28,-203.04"/>
</g>
<!-- Node37 -->
<g id="node37" class="node">
<title>Node37</title>
<g id="a_node37"><a xlink:href="StateModel_8h.html" target="_top" xlink:title=" ">
<polygon fill="white" stroke="black" points="1897.5,-235.5 1897.5,-254.5 2041.5,-254.5 2041.5,-235.5 1897.5,-235.5"/>
<text text-anchor="middle" x="1969.5" y="-242.5" font-family="Helvetica,sans-Serif" font-size="10.00">BayesFilters/StateModel.h</text>
</a>
</g>
</g>
<!-- Node33&#45;&gt;Node37 -->
<g id="edge54" class="edge">
<title>Node33&#45;&gt;Node37</title>
<path fill="none" stroke="midnightblue" d="M1799.01,-296.98C1833.74,-286.59 1892.54,-269.01 1931.19,-257.45"/>
<polygon fill="midnightblue" stroke="midnightblue" points="1932.46,-260.73 1941.04,-254.51 1930.46,-254.02 1932.46,-260.73"/>
</g>
<!-- Node35 -->
<g id="node35" class="node">
<title>Node35</title>
<g id="a_node35"><a xlink:href="ExogenousProcess_8h.html" target="_top" xlink:title=" ">
<polygon fill="white" stroke="black" points="2219,-112.5 2219,-131.5 2398,-131.5 2398,-112.5 2219,-112.5"/>
<text text-anchor="middle" x="2308.5" y="-119.5" font-family="Helvetica,sans-Serif" font-size="10.00">BayesFilters/ExogenousProcess.h</text>
</a>
</g>
</g>
<!-- Node34&#45;&gt;Node35 -->
<g id="edge48" class="edge">
<title>Node34&#45;&gt;Node35</title>
<path fill="none" stroke="midnightblue" d="M2153.43,-173.98C2184.75,-163.68 2237.59,-146.31 2272.76,-134.75"/>
<polygon fill="midnightblue" stroke="midnightblue" points="2274.21,-137.96 2282.62,-131.51 2272.02,-131.31 2274.21,-137.96"/>
</g>
<!-- Node36 -->
<g id="node36" class="node">
<title>Node36</title>
<g id="a_node36"><a xlink:href="Skippable_8h.html" target="_top" xlink:title=" ">
<polygon fill="white" stroke="black" points="2064,-112.5 2064,-131.5 2201,-131.5 2201,-112.5 2064,-112.5"/>
<text text-anchor="middle" x="2132.5" y="-119.5" font-family="Helvetica,sans-Serif" font-size="10.00">BayesFilters/Skippable.h</text>
</a>
</g>
</g>
<!-- Node34&#45;&gt;Node36 -->
<g id="edge51" class="edge">
<title>Node34&#45;&gt;Node36</title>
<path fill="none" stroke="midnightblue" d="M2128.22,-173.98C2128.92,-165.58 2130.02,-152.48 2130.93,-141.66"/>
<polygon fill="midnightblue" stroke="midnightblue" points="2134.44,-141.77 2131.78,-131.51 2127.46,-141.18 2134.44,-141.77"/>
</g>
<!-- Node35&#45;&gt;Node18 -->
<g id="edge50" class="edge">
<title>Node35&#45;&gt;Node18</title>
<path fill="none" stroke="midnightblue" d="M2218.79,-112.58C2216,-112.37 2213.23,-112.18 2210.5,-112 1800.12,-84.87 1303.39,-71.75 1147.63,-68.09"/>
<polygon fill="midnightblue" stroke="midnightblue" points="1147.52,-64.59 1137.44,-67.85 1147.36,-71.59 1147.52,-64.59"/>
</g>
<!-- Node35&#45;&gt;Node29 -->
<g id="edge49" class="edge">
<title>Node35&#45;&gt;Node29</title>
<path fill="none" stroke="midnightblue" d="M2273.32,-112.44C2234.92,-103.1 2173.32,-88.12 2131.44,-77.93"/>
<polygon fill="midnightblue" stroke="midnightblue" points="2132.06,-74.48 2121.51,-75.52 2130.4,-81.28 2132.06,-74.48"/>
</g>
<!-- Node36&#45;&gt;Node10 -->
<g id="edge52" class="edge">
<title>Node36&#45;&gt;Node10</title>
<path fill="none" stroke="midnightblue" d="M2098.59,-112.44C2061.65,-103.12 2002.45,-88.18 1962.08,-78"/>
<polygon fill="midnightblue" stroke="midnightblue" points="1962.8,-74.57 1952.25,-75.52 1961.09,-81.36 1962.8,-74.57"/>
</g>
<!-- Node37&#45;&gt;Node25 -->
<g id="edge60" class="edge">
<title>Node37&#45;&gt;Node25</title>
<path fill="none" stroke="midnightblue" d="M1961.99,-235.18C1940.38,-210.48 1874.95,-140.59 1803.5,-112 1573.11,-19.81 767.8,-11.67 579.91,-11.03"/>
<polygon fill="midnightblue" stroke="midnightblue" points="579.68,-7.53 569.67,-11.01 579.66,-14.53 579.68,-7.53"/>
</g>
<!-- Node37&#45;&gt;Node34 -->
<g id="edge55" class="edge">
<title>Node37&#45;&gt;Node34</title>
<path fill="none" stroke="midnightblue" d="M1992.14,-235.48C2019.24,-225.27 2064.81,-208.11 2095.5,-196.55"/>
<polygon fill="midnightblue" stroke="midnightblue" points="2096.78,-199.81 2104.9,-193.01 2094.31,-193.26 2096.78,-199.81"/>
</g>
<!-- Node37&#45;&gt;Node36 -->
<g id="edge56" class="edge">
<title>Node37&#45;&gt;Node36</title>
<path fill="none" stroke="midnightblue" d="M1974.86,-235.4C1984.78,-220.07 2007.38,-187.8 2033.5,-168 2052.29,-153.75 2076.31,-142.7 2095.98,-135.11"/>
<polygon fill="midnightblue" stroke="midnightblue" points="2097.38,-138.32 2105.54,-131.56 2094.95,-131.76 2097.38,-138.32"/>
</g>
<!-- Node38 -->
<g id="node38" class="node">
<title>Node38</title>
<g id="a_node38"><a xlink:href="StateProcess_8h.html" target="_top" xlink:title=" ">
<polygon fill="white" stroke="black" points="1893.5,-112.5 1893.5,-131.5 2045.5,-131.5 2045.5,-112.5 1893.5,-112.5"/>
<text text-anchor="middle" x="1969.5" y="-119.5" font-family="Helvetica,sans-Serif" font-size="10.00">BayesFilters/StateProcess.h</text>
</a>
</g>
</g>
<!-- Node37&#45;&gt;Node38 -->
<g id="edge57" class="edge">
<title>Node37&#45;&gt;Node38</title>
<path fill="none" stroke="midnightblue" d="M1969.5,-235.3C1969.5,-215.85 1969.5,-168.49 1969.5,-141.9"/>
<polygon fill="midnightblue" stroke="midnightblue" points="1973,-141.62 1969.5,-131.62 1966,-141.62 1973,-141.62"/>
</g>
<!-- Node38&#45;&gt;Node18 -->
<g id="edge59" class="edge">
<title>Node38&#45;&gt;Node18</title>
<path fill="none" stroke="midnightblue" d="M1893.35,-116.28C1718.45,-105.44 1292,-79 1147.39,-70.03"/>
<polygon fill="midnightblue" stroke="midnightblue" points="1147.27,-66.52 1137.07,-69.39 1146.84,-73.5 1147.27,-66.52"/>
</g>
<!-- Node38&#45;&gt;Node29 -->
<g id="edge58" class="edge">
<title>Node38&#45;&gt;Node29</title>
<path fill="none" stroke="midnightblue" d="M1988.04,-112.44C2007.12,-103.64 2037.07,-89.81 2058.94,-79.72"/>
<polygon fill="midnightblue" stroke="midnightblue" points="2060.43,-82.88 2068.05,-75.52 2057.5,-76.53 2060.43,-82.88"/>
</g>
<!-- Node39&#45;&gt;Node16 -->
<g id="edge66" class="edge">
<title>Node39&#45;&gt;Node16</title>
<path fill="none" stroke="midnightblue" d="M1220.1,-296.98C1170.99,-286.35 1087.03,-268.18 1033.73,-256.65"/>
<polygon fill="midnightblue" stroke="midnightblue" points="1034.34,-253.2 1023.83,-254.51 1032.86,-260.04 1034.34,-253.2"/>
</g>
<!-- Node39&#45;&gt;Node18 -->
<g id="edge67" class="edge">
<title>Node39&#45;&gt;Node18</title>
<path fill="none" stroke="midnightblue" d="M1332.73,-298.7C1483.73,-282.09 1806.54,-231.72 1694.5,-112 1653.18,-67.85 1211.55,-83.07 1151.5,-76 1150.2,-75.85 1148.88,-75.68 1147.55,-75.51"/>
<polygon fill="midnightblue" stroke="midnightblue" points="1147.61,-71.99 1137.22,-74.04 1146.63,-78.92 1147.61,-71.99"/>
</g>
<!-- Node40 -->
<g id="node40" class="node">
<title>Node40</title>
<g id="a_node40"><a xlink:title=" ">
<polygon fill="white" stroke="#bfbfbf" points="1669.5,-235.5 1669.5,-254.5 1723.5,-254.5 1723.5,-235.5 1669.5,-235.5"/>
<text text-anchor="middle" x="1696.5" y="-242.5" font-family="Helvetica,sans-Serif" font-size="10.00">random</text>
</a>
</g>
</g>
<!-- Node39&#45;&gt;Node40 -->
<g id="edge65" class="edge">
<title>Node39&#45;&gt;Node40</title>
<path fill="none" stroke="midnightblue" d="M1332.78,-298.14C1412.48,-289.66 1543.5,-274.39 1655.5,-255 1656.75,-254.78 1658.02,-254.55 1659.31,-254.32"/>
<polygon fill="midnightblue" stroke="midnightblue" points="1660.09,-257.73 1669.22,-252.34 1658.73,-250.86 1660.09,-257.73"/>
</g>
</g>
</svg>
        <g id="navigator" transform="translate(0 0)" fill="#404254">
                <rect fill="#f2f5e9" fill-opacity="0.5" stroke="#606060" stroke-width=".5" x="0" y="0" width="60" height="60"/>
                <use id="zoomplus" xlink:href="#zoomPlus" x="17" y="9" onmousedown="handleZoom(evt,'in')"/>
                <use id="zoomminus" xlink:href="#zoomMin" x="42" y="9" onmousedown="handleZoom(evt,'out')"/>
                <use id="reset" xlink:href="#resetDef" x="30" y="36" onmousedown="handleReset()"/>
                <g id="arrowUp" xlink:href="#dirArrow" transform="translate(30 24)" onmousedown="handlePan(0,-1)">
                  <use xlink:href="#rim" fill="#404040">
                        <set attributeName="fill" to="#808080" begin="arrowUp.mouseover" end="arrowUp.mouseout"/>
                  </use>
                  <path fill="none" stroke="white" stroke-width="1.5" d="M0,-3.0v7 M-2.5,-0.5L0,-3.0L2.5,-0.5"/>
                </g>
                <g id="arrowRight" xlink:href="#dirArrow" transform="rotate(90) translate(36 -43)" onmousedown="handlePan(1,0)">
                  <use xlink:href="#rim" fill="#404040">
                        <set attributeName="fill" to="#808080" begin="arrowRight.mouseover" end="arrowRight.mouseout"/>
                  </use>
                  <path fill="none" stroke="white" stroke-width="1.5" d="M0,-3.0v7 M-2.5,-0.5L0,-3.0L2.5,-0.5"/>
                </g>
                <g id="arrowDown" xlink:href="#dirArrow" transform="rotate(180) translate(-30 -48)" onmousedown="handlePan(0,1)">
                  <use xlink:href="#rim" fill="#404040">
                        <set attributeName="fill" to="#808080" begin="arrowDown.mouseover" end="arrowDown.mouseout"/>
                  </use>
                  <path fill="none" stroke="white" stroke-width="1.5" d="M0,-3.0v7 M-2.5,-0.5L0,-3.0L2.5,-0.5"/>
                </g>
                <g id="arrowLeft" xlink:href="#dirArrow" transform="rotate(270) translate(-36 17)" onmousedown="handlePan(-1,0)">
                  <use xlink:href="#rim" fill="#404040">
                        <set attributeName="fill" to="#808080" begin="arrowLeft.mouseover" end="arrowLeft.mouseout"/>
                  </use>
                  <path fill="none" stroke="white" stroke-width="1.5" d="M0,-3.0v7 M-2.5,-0.5L0,-3.0L2.5,-0.5"/>
                </g>
        </g>
        <svg viewBox="0 0 15 15" width="100%" height="30px" preserveAspectRatio="xMaxYMin meet">
         <g id="arrow_out" transform="scale(0.3 0.3)">
          <a xlink:href="SIS_8h__incl_org.svg" target="_base">
           <rect id="button" ry="5" rx="5" y="6" x="6" height="38" width="38"
                fill="#f2f5e9" fill-opacity="0.5" stroke="#606060" stroke-width="1.0"/>
           <path id="arrow"
             d="M 11.500037,31.436501 C 11.940474,20.09759 22.043105,11.32322 32.158766,21.979434 L 37.068811,17.246167 C 37.068811,17.246167 37.088388,32 37.088388,32 L 22.160133,31.978069 C 22.160133,31.978069 26.997745,27.140456 26.997745,27.140456 C 18.528582,18.264221 13.291696,25.230495 11.500037,31.436501 z"
             style="fill:#404040;"/>
          </a>
         </g>
        </svg>
</svg>
