<?xml version="1.0" encoding="UTF-8" standalone="no"?>
<!DOCTYPE svg PUBLIC "-//W3C//DTD SVG 1.1//EN"
 "http://www.w3.org/Graphics/SVG/1.1/DTD/svg11.dtd">
<!-- Generated by graphviz version 2.47.2 (0)
 -->
<!-- Title: /home/xenvre/robot&#45;code/bfl_robotology/src/BayesFilters/include/BayesFilters/SIS.h Pages: 1 -->
<svg width="2151pt" height="475pt"
 viewBox="0.00 0.00 2151.00 475.00" xmlns="http://www.w3.org/2000/svg" xmlns:xlink="http://www.w3.org/1999/xlink">
<g id="graph0" class="graph" transform="scale(1 1) rotate(0) translate(4 471)">
<title>/home/xenvre/robot&#45;code/bfl_robotology/src/BayesFilters/include/BayesFilters/SIS.h</title>
<polygon fill="white" stroke="transparent" points="-4,4 -4,-471 2147,-471 2147,4 -4,4"/>
<!-- Node1 -->
<g id="node1" class="node">
<title>Node1</title>
<g id="a_node1"><a xlink:title=" ">
<polygon fill="#bfbfbf" stroke="black" points="842.5,-414.5 842.5,-466.5 967.5,-466.5 967.5,-414.5 842.5,-414.5"/>
<text text-anchor="start" x="850.5" y="-454.5" font-family="Helvetica,sans-Serif" font-size="10.00">/home/xenvre/robot</text>
<text text-anchor="start" x="850.5" y="-443.5" font-family="Helvetica,sans-Serif" font-size="10.00">&#45;code/bfl_robotology</text>
<text text-anchor="start" x="850.5" y="-432.5" font-family="Helvetica,sans-Serif" font-size="10.00">/src/BayesFilters/include</text>
<text text-anchor="middle" x="905" y="-421.5" font-family="Helvetica,sans-Serif" font-size="10.00">/BayesFilters/SIS.h</text>
</a>
</g>
</g>
<!-- Node2 -->
<g id="node2" class="node">
<title>Node2</title>
<g id="a_node2"><a xlink:href="ParticleFilter_8h.html" target="_top" xlink:title=" ">
<polygon fill="white" stroke="black" points="933.5,-358.5 933.5,-377.5 1070.5,-377.5 1070.5,-358.5 933.5,-358.5"/>
<text text-anchor="middle" x="1002" y="-365.5" font-family="Helvetica,sans-Serif" font-size="10.00">BayesFilters/ParticleFilter.h</text>
</a>
</g>
</g>
<!-- Node1&#45;&gt;Node2 -->
<g id="edge1" class="edge">
<title>Node1&#45;&gt;Node2</title>
<path fill="none" stroke="midnightblue" d="M939.47,-414.45C953.67,-404.13 969.62,-392.53 981.86,-383.64"/>
<polygon fill="midnightblue" stroke="midnightblue" points="984,-386.41 990.04,-377.7 979.89,-380.74 984,-386.41"/>
</g>
<!-- Node6 -->
<g id="node6" class="node">
<title>Node6</title>
<g id="a_node6"><a xlink:title=" ">
<polygon fill="white" stroke="#bfbfbf" points="477,-56.5 477,-75.5 527,-75.5 527,-56.5 477,-56.5"/>
<text text-anchor="middle" x="502" y="-63.5" font-family="Helvetica,sans-Serif" font-size="10.00">fstream</text>
</a>
</g>
</g>
<!-- Node1&#45;&gt;Node6 -->
<g id="edge69" class="edge">
<title>Node1&#45;&gt;Node6</title>
<path fill="none" stroke="midnightblue" d="M842.43,-439.01C687.6,-436.12 299,-417.87 299,-307.5 299,-307.5 299,-307.5 299,-182.5 299,-150.05 294.79,-134.68 318,-112 338.89,-91.6 419.33,-77.85 466.65,-71.34"/>
<polygon fill="midnightblue" stroke="midnightblue" points="467.33,-74.78 476.78,-69.99 466.41,-67.84 467.33,-74.78"/>
</g>
<!-- Node16 -->
<g id="node16" class="node">
<title>Node16</title>
<g id="a_node16"><a xlink:href="ParticleSet_8h.html" target="_top" xlink:title=" ">
<polygon fill="white" stroke="black" points="877.5,-235.5 877.5,-254.5 1008.5,-254.5 1008.5,-235.5 877.5,-235.5"/>
<text text-anchor="middle" x="943" y="-242.5" font-family="Helvetica,sans-Serif" font-size="10.00">BayesFilters/ParticleSet.h</text>
</a>
</g>
</g>
<!-- Node1&#45;&gt;Node16 -->
<g id="edge65" class="edge">
<title>Node1&#45;&gt;Node16</title>
<path fill="none" stroke="midnightblue" d="M907.6,-414.29C910.96,-384.54 917.65,-333.72 928,-291 930.18,-281.98 933.35,-272.19 936.21,-264.05"/>
<polygon fill="midnightblue" stroke="midnightblue" points="939.56,-265.1 939.69,-254.5 932.98,-262.7 939.56,-265.1"/>
</g>
<!-- Node19 -->
<g id="node19" class="node">
<title>Node19</title>
<g id="a_node19"><a xlink:href="PFCorrection_8h.html" target="_top" xlink:title=" ">
<polygon fill="white" stroke="black" points="468,-297 468,-316 608,-316 608,-297 468,-297"/>
<text text-anchor="middle" x="538" y="-304" font-family="Helvetica,sans-Serif" font-size="10.00">BayesFilters/PFCorrection.h</text>
</a>
</g>
</g>
<!-- Node1&#45;&gt;Node19 -->
<g id="edge66" class="edge">
<title>Node1&#45;&gt;Node19</title>
<path fill="none" stroke="midnightblue" d="M842.33,-416.96C763.98,-388.78 632.73,-341.57 571.44,-319.53"/>
<polygon fill="midnightblue" stroke="midnightblue" points="572.46,-316.18 561.87,-316.09 570.1,-322.76 572.46,-316.18"/>
</g>
<!-- Node25 -->
<g id="node25" class="node">
<title>Node25</title>
<g id="a_node25"><a xlink:title=" ">
<polygon fill="white" stroke="#bfbfbf" points="423,-0.5 423,-19.5 475,-19.5 475,-0.5 423,-0.5"/>
<text text-anchor="middle" x="449" y="-7.5" font-family="Helvetica,sans-Serif" font-size="10.00">memory</text>
</a>
</g>
</g>
<!-- Node1&#45;&gt;Node25 -->
<g id="edge70" class="edge">
<title>Node1&#45;&gt;Node25</title>
<path fill="none" stroke="midnightblue" d="M842.37,-429.88C673.77,-402.24 223,-316.04 223,-184.5 223,-184.5 223,-184.5 223,-121 223,-37.71 348.64,-17.47 412.56,-12.56"/>
<polygon fill="midnightblue" stroke="midnightblue" points="412.89,-16.05 422.63,-11.88 412.42,-9.07 412.89,-16.05"/>
</g>
<!-- Node31 -->
<g id="node31" class="node">
<title>Node31</title>
<g id="a_node31"><a xlink:href="PFPrediction_8h.html" target="_top" xlink:title=" ">
<polygon fill="white" stroke="black" points="1729.5,-297 1729.5,-316 1868.5,-316 1868.5,-297 1729.5,-297"/>
<text text-anchor="middle" x="1799" y="-304" font-family="Helvetica,sans-Serif" font-size="10.00">BayesFilters/PFPrediction.h</text>
</a>
</g>
</g>
<!-- Node1&#45;&gt;Node31 -->
<g id="edge67" class="edge">
<title>Node1&#45;&gt;Node31</title>
<path fill="none" stroke="midnightblue" d="M967.51,-430.27C1129.82,-406.3 1563.69,-342.24 1731.46,-317.47"/>
<polygon fill="midnightblue" stroke="midnightblue" points="1732.02,-320.93 1741.41,-316 1731,-314 1732.02,-320.93"/>
</g>
<!-- Node37 -->
<g id="node37" class="node">
<title>Node37</title>
<g id="a_node37"><a xlink:href="Resampling_8h.html" target="_top" xlink:title=" ">
<polygon fill="white" stroke="black" points="1115,-297 1115,-316 1249,-316 1249,-297 1115,-297"/>
<text text-anchor="middle" x="1182" y="-304" font-family="Helvetica,sans-Serif" font-size="10.00">BayesFilters/Resampling.h</text>
</a>
</g>
</g>
<!-- Node1&#45;&gt;Node37 -->
<g id="edge68" class="edge">
<title>Node1&#45;&gt;Node37</title>
<path fill="none" stroke="midnightblue" d="M967.82,-421.66C1001.65,-410.98 1043.58,-395.99 1079,-378 1110.47,-362.01 1143.6,-337.83 1163.53,-322.35"/>
<polygon fill="midnightblue" stroke="midnightblue" points="1165.77,-325.04 1171.46,-316.1 1161.44,-319.54 1165.77,-325.04"/>
</g>
<!-- Node3 -->
<g id="node3" class="node">
<title>Node3</title>
<g id="a_node3"><a xlink:href="FilteringAlgorithm_8h.html" target="_top" xlink:title=" ">
<polygon fill="white" stroke="black" points="1164,-174 1164,-193 1322,-193 1322,-174 1164,-174"/>
<text text-anchor="middle" x="1243" y="-181" font-family="Helvetica,sans-Serif" font-size="10.00">BayesFilters/FilteringAlgorithm.h</text>
</a>
</g>
</g>
<!-- Node2&#45;&gt;Node3 -->
<g id="edge2" class="edge">
<title>Node2&#45;&gt;Node3</title>
<path fill="none" stroke="midnightblue" d="M1016.59,-358.4C1030.44,-349.94 1051.53,-336.24 1068,-322 1107.74,-287.65 1106.44,-267.12 1148,-235 1167.98,-219.56 1193.34,-206.35 1212.84,-197.31"/>
<polygon fill="midnightblue" stroke="midnightblue" points="1214.49,-200.41 1222.16,-193.1 1211.61,-194.03 1214.49,-200.41"/>
</g>
<!-- Node15 -->
<g id="node15" class="node">
<title>Node15</title>
<g id="a_node15"><a xlink:href="ParticleSetInitialization_8h.html" target="_top" xlink:title=" ">
<polygon fill="white" stroke="black" points="937,-291.5 937,-321.5 1059,-321.5 1059,-291.5 937,-291.5"/>
<text text-anchor="start" x="945" y="-309.5" font-family="Helvetica,sans-Serif" font-size="10.00">BayesFilters/ParticleSet</text>
<text text-anchor="middle" x="998" y="-298.5" font-family="Helvetica,sans-Serif" font-size="10.00">Initialization.h</text>
</a>
</g>
</g>
<!-- Node2&#45;&gt;Node15 -->
<g id="edge16" class="edge">
<title>Node2&#45;&gt;Node15</title>
<path fill="none" stroke="midnightblue" d="M1001.43,-358.48C1000.96,-351.47 1000.27,-341.19 999.63,-331.7"/>
<polygon fill="midnightblue" stroke="midnightblue" points="1003.11,-331.27 998.94,-321.52 996.12,-331.74 1003.11,-331.27"/>
</g>
<!-- Node2&#45;&gt;Node19 -->
<g id="edge23" class="edge">
<title>Node2&#45;&gt;Node19</title>
<path fill="none" stroke="midnightblue" d="M933.21,-359.96C856.98,-351.91 730.47,-337.77 622,-322 613.27,-320.73 604.06,-319.27 595.06,-317.77"/>
<polygon fill="midnightblue" stroke="midnightblue" points="595.47,-314.29 585.02,-316.07 594.3,-321.19 595.47,-314.29"/>
</g>
<!-- Node2&#45;&gt;Node25 -->
<g id="edge64" class="edge">
<title>Node2&#45;&gt;Node25</title>
<path fill="none" stroke="midnightblue" d="M984.31,-358.32C927.39,-329.98 744.93,-235.99 612,-132 574.38,-102.57 574.56,-84.2 536,-56 518.28,-43.04 496.31,-31.71 478.88,-23.66"/>
<polygon fill="midnightblue" stroke="midnightblue" points="480.27,-20.45 469.72,-19.53 477.4,-26.83 480.27,-20.45"/>
</g>
<!-- Node2&#45;&gt;Node31 -->
<g id="edge44" class="edge">
<title>Node2&#45;&gt;Node31</title>
<path fill="none" stroke="midnightblue" d="M1070.64,-361.88C1217.78,-350.89 1562.88,-325.13 1719.36,-313.45"/>
<polygon fill="midnightblue" stroke="midnightblue" points="1719.68,-316.93 1729.39,-312.7 1719.16,-309.95 1719.68,-316.93"/>
</g>
<!-- Node2&#45;&gt;Node37 -->
<g id="edge60" class="edge">
<title>Node2&#45;&gt;Node37</title>
<path fill="none" stroke="midnightblue" d="M1027.79,-358.48C1058.93,-348.18 1111.48,-330.81 1146.45,-319.25"/>
<polygon fill="midnightblue" stroke="midnightblue" points="1147.86,-322.47 1156.26,-316.01 1145.66,-315.82 1147.86,-322.47"/>
</g>
<!-- Node4 -->
<g id="node4" class="node">
<title>Node4</title>
<g id="a_node4"><a xlink:href="Filter_8h.html" target="_top" xlink:title=" ">
<polygon fill="white" stroke="black" points="1303,-112.5 1303,-131.5 1407,-131.5 1407,-112.5 1303,-112.5"/>
<text text-anchor="middle" x="1355" y="-119.5" font-family="Helvetica,sans-Serif" font-size="10.00">BayesFilters/Filter.h</text>
</a>
</g>
</g>
<!-- Node3&#45;&gt;Node4 -->
<g id="edge3" class="edge">
<title>Node3&#45;&gt;Node4</title>
<path fill="none" stroke="midnightblue" d="M1259.05,-173.98C1277.59,-164.12 1308.34,-147.79 1330.02,-136.27"/>
<polygon fill="midnightblue" stroke="midnightblue" points="1331.79,-139.29 1338.98,-131.51 1328.51,-133.11 1331.79,-139.29"/>
</g>
<!-- Node5 -->
<g id="node5" class="node">
<title>Node5</title>
<g id="a_node5"><a xlink:href="Logger_8h.html" target="_top" xlink:title=" ">
<polygon fill="white" stroke="black" points="621.5,-112.5 621.5,-131.5 732.5,-131.5 732.5,-112.5 621.5,-112.5"/>
<text text-anchor="middle" x="677" y="-119.5" font-family="Helvetica,sans-Serif" font-size="10.00">BayesFilters/Logger.h</text>
</a>
</g>
</g>
<!-- Node3&#45;&gt;Node5 -->
<g id="edge4" class="edge">
<title>Node3&#45;&gt;Node5</title>
<path fill="none" stroke="midnightblue" d="M1163.7,-174.16C1051.23,-162.34 847.43,-140.92 742.83,-129.92"/>
<polygon fill="midnightblue" stroke="midnightblue" points="743.03,-126.42 732.72,-128.86 742.3,-133.38 743.03,-126.42"/>
</g>
<!-- Node8 -->
<g id="node8" class="node">
<title>Node8</title>
<g id="a_node8"><a xlink:title=" ">
<polygon fill="white" stroke="#bfbfbf" points="1566.5,-0.5 1566.5,-19.5 1607.5,-19.5 1607.5,-0.5 1566.5,-0.5"/>
<text text-anchor="middle" x="1587" y="-7.5" font-family="Helvetica,sans-Serif" font-size="10.00">string</text>
</a>
</g>
</g>
<!-- Node3&#45;&gt;Node8 -->
<g id="edge13" class="edge">
<title>Node3&#45;&gt;Node8</title>
<path fill="none" stroke="midnightblue" d="M1322.32,-176.7C1395.71,-169.9 1498.14,-156.34 1530,-132 1563.26,-106.59 1577.94,-56.98 1583.72,-29.84"/>
<polygon fill="midnightblue" stroke="midnightblue" points="1587.21,-30.2 1585.68,-19.72 1580.34,-28.87 1587.21,-30.2"/>
</g>
<!-- Node10 -->
<g id="node10" class="node">
<title>Node10</title>
<g id="a_node10"><a xlink:href="Skipper_8h.html" target="_top" xlink:title=" ">
<polygon fill="white" stroke="black" points="1913.5,-56.5 1913.5,-75.5 2028.5,-75.5 2028.5,-56.5 1913.5,-56.5"/>
<text text-anchor="middle" x="1971" y="-63.5" font-family="Helvetica,sans-Serif" font-size="10.00">BayesFilters/Skipper.h</text>
</a>
</g>
</g>
<!-- Node3&#45;&gt;Node10 -->
<g id="edge9" class="edge">
<title>Node3&#45;&gt;Node10</title>
<path fill="none" stroke="midnightblue" d="M1322.03,-178.2C1478.39,-169.39 1816.51,-148.72 1867,-132 1900.1,-121.04 1933.41,-97.5 1953.12,-81.97"/>
<polygon fill="midnightblue" stroke="midnightblue" points="1955.35,-84.66 1960.93,-75.66 1950.95,-79.22 1955.35,-84.66"/>
</g>
<!-- Node11 -->
<g id="node11" class="node">
<title>Node11</title>
<g id="a_node11"><a xlink:title=" ">
<polygon fill="white" stroke="#bfbfbf" points="1425.5,-112.5 1425.5,-131.5 1520.5,-131.5 1520.5,-112.5 1425.5,-112.5"/>
<text text-anchor="middle" x="1473" y="-119.5" font-family="Helvetica,sans-Serif" font-size="10.00">condition_variable</text>
</a>
</g>
</g>
<!-- Node3&#45;&gt;Node11 -->
<g id="edge11" class="edge">
<title>Node3&#45;&gt;Node11</title>
<path fill="none" stroke="midnightblue" d="M1275.95,-173.98C1316.6,-163.46 1385.79,-145.56 1430.42,-134.01"/>
<polygon fill="midnightblue" stroke="midnightblue" points="1431.3,-137.4 1440.11,-131.51 1429.55,-130.63 1431.3,-137.4"/>
</g>
<!-- Node12 -->
<g id="node12" class="node">
<title>Node12</title>
<g id="a_node12"><a xlink:title=" ">
<polygon fill="white" stroke="#bfbfbf" points="1077,-112.5 1077,-131.5 1121,-131.5 1121,-112.5 1077,-112.5"/>
<text text-anchor="middle" x="1099" y="-119.5" font-family="Helvetica,sans-Serif" font-size="10.00">mutex</text>
</a>
</g>
</g>
<!-- Node3&#45;&gt;Node12 -->
<g id="edge12" class="edge">
<title>Node3&#45;&gt;Node12</title>
<path fill="none" stroke="midnightblue" d="M1222.37,-173.98C1197.88,-163.86 1156.85,-146.9 1128.89,-135.35"/>
<polygon fill="midnightblue" stroke="midnightblue" points="1130.17,-132.09 1119.59,-131.51 1127.5,-138.56 1130.17,-132.09"/>
</g>
<!-- Node13 -->
<g id="node13" class="node">
<title>Node13</title>
<g id="a_node13"><a xlink:title=" ">
<polygon fill="white" stroke="#bfbfbf" points="1139,-112.5 1139,-131.5 1183,-131.5 1183,-112.5 1139,-112.5"/>
<text text-anchor="middle" x="1161" y="-119.5" font-family="Helvetica,sans-Serif" font-size="10.00">thread</text>
</a>
</g>
</g>
<!-- Node3&#45;&gt;Node13 -->
<g id="edge14" class="edge">
<title>Node3&#45;&gt;Node13</title>
<path fill="none" stroke="midnightblue" d="M1231.25,-173.98C1218.22,-164.52 1196.96,-149.1 1181.24,-137.69"/>
<polygon fill="midnightblue" stroke="midnightblue" points="1182.88,-134.55 1172.73,-131.51 1178.77,-140.21 1182.88,-134.55"/>
</g>
<!-- Node14 -->
<g id="node14" class="node">
<title>Node14</title>
<g id="a_node14"><a xlink:title=" ">
<polygon fill="white" stroke="#bfbfbf" points="1201.5,-112.5 1201.5,-131.5 1284.5,-131.5 1284.5,-112.5 1201.5,-112.5"/>
<text text-anchor="middle" x="1243" y="-119.5" font-family="Helvetica,sans-Serif" font-size="10.00">unordered_map</text>
</a>
</g>
</g>
<!-- Node3&#45;&gt;Node14 -->
<g id="edge15" class="edge">
<title>Node3&#45;&gt;Node14</title>
<path fill="none" stroke="midnightblue" d="M1243,-173.98C1243,-165.58 1243,-152.48 1243,-141.66"/>
<polygon fill="midnightblue" stroke="midnightblue" points="1246.5,-141.51 1243,-131.51 1239.5,-141.51 1246.5,-141.51"/>
</g>
<!-- Node5&#45;&gt;Node6 -->
<g id="edge5" class="edge">
<title>Node5&#45;&gt;Node6</title>
<path fill="none" stroke="midnightblue" d="M649.27,-112.44C618.79,-103.04 569.77,-87.91 536.74,-77.72"/>
<polygon fill="midnightblue" stroke="midnightblue" points="537.64,-74.33 527.05,-74.73 535.57,-81.02 537.64,-74.33"/>
</g>
<!-- Node7 -->
<g id="node7" class="node">
<title>Node7</title>
<g id="a_node7"><a xlink:title=" ">
<polygon fill="white" stroke="#bfbfbf" points="639,-56.5 639,-75.5 693,-75.5 693,-56.5 639,-56.5"/>
<text text-anchor="middle" x="666" y="-63.5" font-family="Helvetica,sans-Serif" font-size="10.00">iostream</text>
</a>
</g>
</g>
<!-- Node5&#45;&gt;Node7 -->
<g id="edge6" class="edge">
<title>Node5&#45;&gt;Node7</title>
<path fill="none" stroke="midnightblue" d="M675.18,-112.08C673.73,-104.93 671.63,-94.64 669.81,-85.69"/>
<polygon fill="midnightblue" stroke="midnightblue" points="673.21,-84.85 667.78,-75.75 666.35,-86.25 673.21,-84.85"/>
</g>
<!-- Node5&#45;&gt;Node8 -->
<g id="edge7" class="edge">
<title>Node5&#45;&gt;Node8</title>
<path fill="none" stroke="midnightblue" d="M682.28,-112.27C691.74,-97.56 713.11,-68.24 740,-56 815.36,-21.71 1411.97,-12.94 1555.86,-11.31"/>
<polygon fill="midnightblue" stroke="midnightblue" points="1556.2,-14.81 1566.16,-11.2 1556.12,-7.81 1556.2,-14.81"/>
</g>
<!-- Node9 -->
<g id="node9" class="node">
<title>Node9</title>
<g id="a_node9"><a xlink:title=" ">
<polygon fill="white" stroke="#bfbfbf" points="749,-56.5 749,-75.5 793,-75.5 793,-56.5 749,-56.5"/>
<text text-anchor="middle" x="771" y="-63.5" font-family="Helvetica,sans-Serif" font-size="10.00">vector</text>
</a>
</g>
</g>
<!-- Node5&#45;&gt;Node9 -->
<g id="edge8" class="edge">
<title>Node5&#45;&gt;Node9</title>
<path fill="none" stroke="midnightblue" d="M692.1,-112.32C706.9,-103.82 729.69,-90.73 746.98,-80.8"/>
<polygon fill="midnightblue" stroke="midnightblue" points="749.01,-83.67 755.93,-75.65 745.52,-77.6 749.01,-83.67"/>
</g>
<!-- Node10&#45;&gt;Node8 -->
<g id="edge10" class="edge">
<title>Node10&#45;&gt;Node8</title>
<path fill="none" stroke="midnightblue" d="M1913.1,-56.86C1830.7,-45.27 1682.5,-24.43 1618.19,-15.39"/>
<polygon fill="midnightblue" stroke="midnightblue" points="1618.29,-11.87 1607.9,-13.94 1617.32,-18.8 1618.29,-11.87"/>
</g>
<!-- Node15&#45;&gt;Node16 -->
<g id="edge17" class="edge">
<title>Node15&#45;&gt;Node16</title>
<path fill="none" stroke="midnightblue" d="M984.97,-291.4C976.81,-282.58 966.28,-271.18 957.81,-262.02"/>
<polygon fill="midnightblue" stroke="midnightblue" points="960.36,-259.63 951,-254.66 955.22,-264.38 960.36,-259.63"/>
</g>
<!-- Node18 -->
<g id="node18" class="node">
<title>Node18</title>
<g id="a_node18"><a xlink:title=" ">
<polygon fill="white" stroke="#bfbfbf" points="1229.5,-56.5 1229.5,-75.5 1302.5,-75.5 1302.5,-56.5 1229.5,-56.5"/>
<text text-anchor="middle" x="1266" y="-63.5" font-family="Helvetica,sans-Serif" font-size="10.00">Eigen/Dense</text>
</a>
</g>
</g>
<!-- Node15&#45;&gt;Node18 -->
<g id="edge22" class="edge">
<title>Node15&#45;&gt;Node18</title>
<path fill="none" stroke="midnightblue" d="M1003.39,-291.38C1007.23,-281.26 1012.49,-267.31 1017,-255 1040.21,-191.64 1017.53,-156.79 1068,-112 1090.08,-92.41 1168,-79.19 1219.25,-72.39"/>
<polygon fill="midnightblue" stroke="midnightblue" points="1219.97,-75.83 1229.44,-71.08 1219.08,-68.89 1219.97,-75.83"/>
</g>
<!-- Node16&#45;&gt;Node9 -->
<g id="edge21" class="edge">
<title>Node16&#45;&gt;Node9</title>
<path fill="none" stroke="midnightblue" d="M934.7,-235.46C907.75,-207.73 822.35,-119.85 786.79,-83.24"/>
<polygon fill="midnightblue" stroke="midnightblue" points="789.1,-80.6 779.62,-75.87 784.08,-85.48 789.1,-80.6"/>
</g>
<!-- Node17 -->
<g id="node17" class="node">
<title>Node17</title>
<g id="a_node17"><a xlink:href="GaussianMixture_8h.html" target="_top" xlink:title=" ">
<polygon fill="white" stroke="black" points="865,-112.5 865,-131.5 1021,-131.5 1021,-112.5 865,-112.5"/>
<text text-anchor="middle" x="943" y="-119.5" font-family="Helvetica,sans-Serif" font-size="10.00">BayesFilters/GaussianMixture.h</text>
</a>
</g>
</g>
<!-- Node16&#45;&gt;Node17 -->
<g id="edge18" class="edge">
<title>Node16&#45;&gt;Node17</title>
<path fill="none" stroke="midnightblue" d="M943,-235.3C943,-215.85 943,-168.49 943,-141.9"/>
<polygon fill="midnightblue" stroke="midnightblue" points="946.5,-141.62 943,-131.62 939.5,-141.62 946.5,-141.62"/>
</g>
<!-- Node17&#45;&gt;Node9 -->
<g id="edge19" class="edge">
<title>Node17&#45;&gt;Node9</title>
<path fill="none" stroke="midnightblue" d="M915.75,-112.44C885.15,-102.84 835.54,-87.26 803.09,-77.07"/>
<polygon fill="midnightblue" stroke="midnightblue" points="803.79,-73.63 793.2,-73.97 801.7,-80.31 803.79,-73.63"/>
</g>
<!-- Node17&#45;&gt;Node18 -->
<g id="edge20" class="edge">
<title>Node17&#45;&gt;Node18</title>
<path fill="none" stroke="midnightblue" d="M994.18,-112.44C1056.06,-102.1 1159.34,-84.83 1219.19,-74.83"/>
<polygon fill="midnightblue" stroke="midnightblue" points="1219.84,-78.27 1229.12,-73.16 1218.68,-71.36 1219.84,-78.27"/>
</g>
<!-- Node19&#45;&gt;Node16 -->
<g id="edge40" class="edge">
<title>Node19&#45;&gt;Node16</title>
<path fill="none" stroke="midnightblue" d="M596.03,-296.98C669.71,-286.15 796.64,-267.5 874.85,-256.01"/>
<polygon fill="midnightblue" stroke="midnightblue" points="875.7,-259.43 885.08,-254.51 874.68,-252.5 875.7,-259.43"/>
</g>
<!-- Node19&#45;&gt;Node18 -->
<g id="edge43" class="edge">
<title>Node19&#45;&gt;Node18</title>
<path fill="none" stroke="midnightblue" d="M548.12,-296.98C585.8,-265.79 722.63,-157.38 856,-112 922.25,-89.46 1126.36,-75.1 1219.18,-69.58"/>
<polygon fill="midnightblue" stroke="midnightblue" points="1219.63,-73.06 1229.4,-68.98 1219.22,-66.07 1219.63,-73.06"/>
</g>
<!-- Node20 -->
<g id="node20" class="node">
<title>Node20</title>
<g id="a_node20"><a xlink:href="LikelihoodModel_8h.html" target="_top" xlink:title=" ">
<polygon fill="white" stroke="black" points="375,-235.5 375,-254.5 527,-254.5 527,-235.5 375,-235.5"/>
<text text-anchor="middle" x="451" y="-242.5" font-family="Helvetica,sans-Serif" font-size="10.00">BayesFilters/LikelihoodModel.h</text>
</a>
</g>
</g>
<!-- Node19&#45;&gt;Node20 -->
<g id="edge24" class="edge">
<title>Node19&#45;&gt;Node20</title>
<path fill="none" stroke="midnightblue" d="M525.54,-296.98C511.58,-287.43 488.74,-271.81 472.01,-260.37"/>
<polygon fill="midnightblue" stroke="midnightblue" points="473.67,-257.27 463.44,-254.51 469.72,-263.04 473.67,-257.27"/>
</g>
<!-- Node21 -->
<g id="node21" class="node">
<title>Node21</title>
<g id="a_node21"><a xlink:href="MeasurementModel_8h.html" target="_top" xlink:title=" ">
<polygon fill="white" stroke="black" points="474,-168.5 474,-198.5 608,-198.5 608,-168.5 474,-168.5"/>
<text text-anchor="start" x="482" y="-186.5" font-family="Helvetica,sans-Serif" font-size="10.00">BayesFilters/Measurement</text>
<text text-anchor="middle" x="541" y="-175.5" font-family="Helvetica,sans-Serif" font-size="10.00">Model.h</text>
</a>
</g>
</g>
<!-- Node19&#45;&gt;Node21 -->
<g id="edge39" class="edge">
<title>Node19&#45;&gt;Node21</title>
<path fill="none" stroke="midnightblue" d="M538.22,-296.8C538.67,-278.6 539.72,-235.98 540.4,-208.79"/>
<polygon fill="midnightblue" stroke="midnightblue" points="543.9,-208.62 540.65,-198.54 536.91,-208.45 543.9,-208.62"/>
</g>
<!-- Node19&#45;&gt;Node25 -->
<g id="edge41" class="edge">
<title>Node19&#45;&gt;Node25</title>
<path fill="none" stroke="midnightblue" d="M467.74,-304.1C385.68,-298.29 261,-274.63 261,-184.5 261,-184.5 261,-184.5 261,-121 261,-51.37 358.26,-25 412.87,-15.68"/>
<polygon fill="midnightblue" stroke="midnightblue" points="413.54,-19.12 422.86,-14.08 412.43,-12.2 413.54,-19.12"/>
</g>
<!-- Node29 -->
<g id="node29" class="node">
<title>Node29</title>
<g id="a_node29"><a xlink:title=" ">
<polygon fill="white" stroke="#bfbfbf" points="327,-112.5 327,-131.5 367,-131.5 367,-112.5 327,-112.5"/>
<text text-anchor="middle" x="347" y="-119.5" font-family="Helvetica,sans-Serif" font-size="10.00">utility</text>
</a>
</g>
</g>
<!-- Node19&#45;&gt;Node29 -->
<g id="edge42" class="edge">
<title>Node19&#45;&gt;Node29</title>
<path fill="none" stroke="midnightblue" d="M467.7,-302.26C432.09,-296.82 391.17,-284.05 366,-255 338.41,-223.17 340.44,-169.91 343.92,-141.76"/>
<polygon fill="midnightblue" stroke="midnightblue" points="347.41,-142.07 345.37,-131.68 340.49,-141.08 347.41,-142.07"/>
</g>
<!-- Node20&#45;&gt;Node21 -->
<g id="edge25" class="edge">
<title>Node20&#45;&gt;Node21</title>
<path fill="none" stroke="midnightblue" d="M463.89,-235.48C476.2,-227.34 495.18,-214.79 511.23,-204.18"/>
<polygon fill="midnightblue" stroke="midnightblue" points="513.38,-206.96 519.79,-198.52 509.52,-201.12 513.38,-206.96"/>
</g>
<!-- Node30 -->
<g id="node30" class="node">
<title>Node30</title>
<g id="a_node30"><a xlink:title=" ">
<polygon fill="white" stroke="#bfbfbf" points="390.5,-174 390.5,-193 455.5,-193 455.5,-174 390.5,-174"/>
<text text-anchor="middle" x="423" y="-181" font-family="Helvetica,sans-Serif" font-size="10.00">Eigen/Core</text>
</a>
</g>
</g>
<!-- Node20&#45;&gt;Node30 -->
<g id="edge38" class="edge">
<title>Node20&#45;&gt;Node30</title>
<path fill="none" stroke="midnightblue" d="M446.99,-235.48C442.91,-226.82 436.48,-213.15 431.3,-202.15"/>
<polygon fill="midnightblue" stroke="midnightblue" points="434.43,-200.57 427,-193.01 428.1,-203.55 434.43,-200.57"/>
</g>
<!-- Node21&#45;&gt;Node5 -->
<g id="edge33" class="edge">
<title>Node21&#45;&gt;Node5</title>
<path fill="none" stroke="midnightblue" d="M573.23,-168.4C595.84,-158.51 625.84,-145.38 647.76,-135.79"/>
<polygon fill="midnightblue" stroke="midnightblue" points="649.45,-138.87 657.21,-131.66 646.65,-132.46 649.45,-138.87"/>
</g>
<!-- Node21&#45;&gt;Node8 -->
<g id="edge35" class="edge">
<title>Node21&#45;&gt;Node8</title>
<path fill="none" stroke="midnightblue" d="M546.1,-168.25C556.77,-140.8 584.34,-81.08 630,-56 712.75,-10.54 1401.51,-10.32 1556.23,-10.85"/>
<polygon fill="midnightblue" stroke="midnightblue" points="1556.42,-14.35 1566.43,-10.89 1556.44,-7.35 1556.42,-14.35"/>
</g>
<!-- Node21&#45;&gt;Node18 -->
<g id="edge37" class="edge">
<title>Node21&#45;&gt;Node18</title>
<path fill="none" stroke="midnightblue" d="M596.65,-168.48C677.2,-148.2 817.35,-112.99 823,-112 966.02,-86.99 1137.63,-74.46 1218.9,-69.55"/>
<polygon fill="midnightblue" stroke="midnightblue" points="1219.51,-73.02 1229.29,-68.94 1219.1,-66.04 1219.51,-73.02"/>
</g>
<!-- Node22 -->
<g id="node22" class="node">
<title>Node22</title>
<g id="a_node22"><a xlink:href="Data_8h.html" target="_top" xlink:title=" ">
<polygon fill="white" stroke="black" points="385,-112.5 385,-131.5 489,-131.5 489,-112.5 385,-112.5"/>
<text text-anchor="middle" x="437" y="-119.5" font-family="Helvetica,sans-Serif" font-size="10.00">BayesFilters/Data.h</text>
</a>
</g>
</g>
<!-- Node21&#45;&gt;Node22 -->
<g id="edge26" class="edge">
<title>Node21&#45;&gt;Node22</title>
<path fill="none" stroke="midnightblue" d="M516.35,-168.4C499.68,-158.86 477.77,-146.32 461.19,-136.84"/>
<polygon fill="midnightblue" stroke="midnightblue" points="462.55,-133.59 452.13,-131.66 459.07,-139.66 462.55,-133.59"/>
</g>
<!-- Node21&#45;&gt;Node25 -->
<g id="edge34" class="edge">
<title>Node21&#45;&gt;Node25</title>
<path fill="none" stroke="midnightblue" d="M533.18,-168.33C524.98,-153.81 511.43,-130.77 498,-112 485.88,-95.06 477.79,-94.38 468,-76 460.23,-61.41 455.26,-43.23 452.36,-29.82"/>
<polygon fill="midnightblue" stroke="midnightblue" points="455.76,-28.98 450.4,-19.85 448.9,-30.33 455.76,-28.98"/>
</g>
<!-- Node21&#45;&gt;Node29 -->
<g id="edge36" class="edge">
<title>Node21&#45;&gt;Node29</title>
<path fill="none" stroke="midnightblue" d="M494.76,-168.4C463.87,-158.97 422.08,-146.19 376.96,-132.29"/>
<polygon fill="midnightblue" stroke="midnightblue" points="377.87,-128.91 367.28,-129.3 375.8,-135.59 377.87,-128.91"/>
</g>
<!-- Node23 -->
<g id="node23" class="node">
<title>Node23</title>
<g id="a_node23"><a xlink:href="any_8h.html" target="_top" xlink:title=" ">
<polygon fill="white" stroke="black" points="97.5,-56.5 97.5,-75.5 194.5,-75.5 194.5,-56.5 97.5,-56.5"/>
<text text-anchor="middle" x="146" y="-63.5" font-family="Helvetica,sans-Serif" font-size="10.00">BayesFilters/any.h</text>
</a>
</g>
</g>
<!-- Node22&#45;&gt;Node23 -->
<g id="edge27" class="edge">
<title>Node22&#45;&gt;Node23</title>
<path fill="none" stroke="midnightblue" d="M390.89,-112.44C339.59,-102.92 256.73,-87.55 201.81,-77.36"/>
<polygon fill="midnightblue" stroke="midnightblue" points="202.36,-73.9 191.89,-75.52 201.09,-80.78 202.36,-73.9"/>
</g>
<!-- Node24 -->
<g id="node24" class="node">
<title>Node24</title>
<g id="a_node24"><a xlink:title=" ">
<polygon fill="white" stroke="#bfbfbf" points="80,-0.5 80,-19.5 136,-19.5 136,-0.5 80,-0.5"/>
<text text-anchor="middle" x="108" y="-7.5" font-family="Helvetica,sans-Serif" font-size="10.00">algorithm</text>
</a>
</g>
</g>
<!-- Node23&#45;&gt;Node24 -->
<g id="edge28" class="edge">
<title>Node23&#45;&gt;Node24</title>
<path fill="none" stroke="midnightblue" d="M139.73,-56.08C134.36,-48.46 126.48,-37.26 119.92,-27.94"/>
<polygon fill="midnightblue" stroke="midnightblue" points="122.78,-25.91 114.16,-19.75 117.05,-29.94 122.78,-25.91"/>
</g>
<!-- Node23&#45;&gt;Node25 -->
<g id="edge29" class="edge">
<title>Node23&#45;&gt;Node25</title>
<path fill="none" stroke="midnightblue" d="M194.01,-56.44C254.84,-45.6 358.29,-27.17 412.85,-17.44"/>
<polygon fill="midnightblue" stroke="midnightblue" points="413.54,-20.88 422.77,-15.67 412.31,-13.98 413.54,-20.88"/>
</g>
<!-- Node26 -->
<g id="node26" class="node">
<title>Node26</title>
<g id="a_node26"><a xlink:title=" ">
<polygon fill="white" stroke="#bfbfbf" points="154.5,-0.5 154.5,-19.5 213.5,-19.5 213.5,-0.5 154.5,-0.5"/>
<text text-anchor="middle" x="184" y="-7.5" font-family="Helvetica,sans-Serif" font-size="10.00">stdexcept</text>
</a>
</g>
</g>
<!-- Node23&#45;&gt;Node26 -->
<g id="edge30" class="edge">
<title>Node23&#45;&gt;Node26</title>
<path fill="none" stroke="midnightblue" d="M152.27,-56.08C157.64,-48.46 165.52,-37.26 172.08,-27.94"/>
<polygon fill="midnightblue" stroke="midnightblue" points="174.95,-29.94 177.84,-19.75 169.22,-25.91 174.95,-29.94"/>
</g>
<!-- Node27 -->
<g id="node27" class="node">
<title>Node27</title>
<g id="a_node27"><a xlink:title=" ">
<polygon fill="white" stroke="#bfbfbf" points="231.5,-0.5 231.5,-19.5 282.5,-19.5 282.5,-0.5 231.5,-0.5"/>
<text text-anchor="middle" x="257" y="-7.5" font-family="Helvetica,sans-Serif" font-size="10.00">typeinfo</text>
</a>
</g>
</g>
<!-- Node23&#45;&gt;Node27 -->
<g id="edge31" class="edge">
<title>Node23&#45;&gt;Node27</title>
<path fill="none" stroke="midnightblue" d="M163.83,-56.32C181.72,-47.62 209.48,-34.12 230.05,-24.11"/>
<polygon fill="midnightblue" stroke="midnightblue" points="231.75,-27.18 239.21,-19.65 228.69,-20.88 231.75,-27.18"/>
</g>
<!-- Node28 -->
<g id="node28" class="node">
<title>Node28</title>
<g id="a_node28"><a xlink:title=" ">
<polygon fill="white" stroke="#bfbfbf" points="0,-0.5 0,-19.5 62,-19.5 62,-0.5 0,-0.5"/>
<text text-anchor="middle" x="31" y="-7.5" font-family="Helvetica,sans-Serif" font-size="10.00">type_traits</text>
</a>
</g>
</g>
<!-- Node23&#45;&gt;Node28 -->
<g id="edge32" class="edge">
<title>Node23&#45;&gt;Node28</title>
<path fill="none" stroke="midnightblue" d="M127.78,-56.44C109.1,-47.68 79.84,-33.94 58.38,-23.86"/>
<polygon fill="midnightblue" stroke="midnightblue" points="59.68,-20.6 49.14,-19.52 56.7,-26.93 59.68,-20.6"/>
</g>
<!-- Node31&#45;&gt;Node8 -->
<g id="edge59" class="edge">
<title>Node31&#45;&gt;Node8</title>
<path fill="none" stroke="midnightblue" d="M1868.57,-300.64C1921.44,-294.87 1994.9,-282.3 2054,-255 2099.81,-233.84 2143,-234.96 2143,-184.5 2143,-184.5 2143,-184.5 2143,-121 2143,-13.06 1734.61,-9.34 1617.84,-10.48"/>
<polygon fill="midnightblue" stroke="midnightblue" points="1617.74,-6.98 1607.78,-10.6 1617.82,-13.98 1617.74,-6.98"/>
</g>
<!-- Node31&#45;&gt;Node16 -->
<g id="edge50" class="edge">
<title>Node31&#45;&gt;Node16</title>
<path fill="none" stroke="midnightblue" d="M1729.31,-300.66C1570.58,-289.62 1183.2,-262.7 1018.79,-251.27"/>
<polygon fill="midnightblue" stroke="midnightblue" points="1018.98,-247.77 1008.76,-250.57 1018.49,-254.76 1018.98,-247.77"/>
</g>
<!-- Node31&#45;&gt;Node18 -->
<g id="edge57" class="edge">
<title>Node31&#45;&gt;Node18</title>
<path fill="none" stroke="midnightblue" d="M1868.68,-301.84C1937.36,-294.03 2038.67,-270.28 2086,-199 2107.39,-166.79 2112.58,-140.08 2086,-112 2059.27,-83.76 1482.48,-70.97 1312.65,-67.81"/>
<polygon fill="midnightblue" stroke="midnightblue" points="1312.59,-64.31 1302.52,-67.62 1312.46,-71.3 1312.59,-64.31"/>
</g>
<!-- Node31&#45;&gt;Node25 -->
<g id="edge58" class="edge">
<title>Node31&#45;&gt;Node25</title>
<path fill="none" stroke="midnightblue" d="M1795.93,-296.86C1787.1,-273.16 1759.49,-206.37 1716,-168 1670.05,-127.46 1648.4,-130.59 1590,-112 1469.48,-73.64 1436.48,-71.78 1311,-56 992.75,-15.97 604.09,-11.42 485.23,-11"/>
<polygon fill="midnightblue" stroke="midnightblue" points="485.23,-7.5 475.22,-10.98 485.21,-14.5 485.23,-7.5"/>
</g>
<!-- Node32 -->
<g id="node32" class="node">
<title>Node32</title>
<g id="a_node32"><a xlink:href="ExogenousModel_8h.html" target="_top" xlink:title=" ">
<polygon fill="white" stroke="black" points="1919,-174 1919,-193 2077,-193 2077,-174 1919,-174"/>
<text text-anchor="middle" x="1998" y="-181" font-family="Helvetica,sans-Serif" font-size="10.00">BayesFilters/ExogenousModel.h</text>
</a>
</g>
</g>
<!-- Node31&#45;&gt;Node32 -->
<g id="edge45" class="edge">
<title>Node31&#45;&gt;Node32</title>
<path fill="none" stroke="midnightblue" d="M1831.25,-296.96C1858.48,-288.83 1897.74,-274.87 1928,-255 1950.87,-239.98 1972.27,-216.51 1985.25,-200.82"/>
<polygon fill="midnightblue" stroke="midnightblue" points="1987.99,-202.99 1991.54,-193.01 1982.54,-198.6 1987.99,-202.99"/>
</g>
<!-- Node35 -->
<g id="node35" class="node">
<title>Node35</title>
<g id="a_node35"><a xlink:href="StateModel_8h.html" target="_top" xlink:title=" ">
<polygon fill="white" stroke="black" points="1787,-235.5 1787,-254.5 1919,-254.5 1919,-235.5 1787,-235.5"/>
<text text-anchor="middle" x="1853" y="-242.5" font-family="Helvetica,sans-Serif" font-size="10.00">BayesFilters/StateModel.h</text>
</a>
</g>
</g>
<!-- Node31&#45;&gt;Node35 -->
<g id="edge51" class="edge">
<title>Node31&#45;&gt;Node35</title>
<path fill="none" stroke="midnightblue" d="M1806.74,-296.98C1815,-287.87 1828.28,-273.24 1838.49,-261.98"/>
<polygon fill="midnightblue" stroke="midnightblue" points="1841.15,-264.27 1845.28,-254.51 1835.97,-259.56 1841.15,-264.27"/>
</g>
<!-- Node33 -->
<g id="node33" class="node">
<title>Node33</title>
<g id="a_node33"><a xlink:href="ExogenousProcess_8h.html" target="_top" xlink:title=" ">
<polygon fill="white" stroke="black" points="1690.5,-112.5 1690.5,-131.5 1857.5,-131.5 1857.5,-112.5 1690.5,-112.5"/>
<text text-anchor="middle" x="1774" y="-119.5" font-family="Helvetica,sans-Serif" font-size="10.00">BayesFilters/ExogenousProcess.h</text>
</a>
</g>
</g>
<!-- Node32&#45;&gt;Node33 -->
<g id="edge46" class="edge">
<title>Node32&#45;&gt;Node33</title>
<path fill="none" stroke="midnightblue" d="M1965.91,-173.98C1926.4,-163.48 1859.22,-145.64 1815.74,-134.09"/>
<polygon fill="midnightblue" stroke="midnightblue" points="1816.6,-130.69 1806.03,-131.51 1814.8,-137.46 1816.6,-130.69"/>
</g>
<!-- Node34 -->
<g id="node34" class="node">
<title>Node34</title>
<g id="a_node34"><a xlink:href="Skippable_8h.html" target="_top" xlink:title=" ">
<polygon fill="white" stroke="black" points="1951.5,-112.5 1951.5,-131.5 2076.5,-131.5 2076.5,-112.5 1951.5,-112.5"/>
<text text-anchor="middle" x="2014" y="-119.5" font-family="Helvetica,sans-Serif" font-size="10.00">BayesFilters/Skippable.h</text>
</a>
</g>
</g>
<!-- Node32&#45;&gt;Node34 -->
<g id="edge48" class="edge">
<title>Node32&#45;&gt;Node34</title>
<path fill="none" stroke="midnightblue" d="M2000.29,-173.98C2002.57,-165.49 2006.15,-152.2 2009.07,-141.32"/>
<polygon fill="midnightblue" stroke="midnightblue" points="2012.49,-142.07 2011.71,-131.51 2005.74,-140.26 2012.49,-142.07"/>
</g>
<!-- Node33&#45;&gt;Node18 -->
<g id="edge47" class="edge">
<title>Node33&#45;&gt;Node18</title>
<path fill="none" stroke="midnightblue" d="M1693.79,-112.47C1586.45,-101.06 1399.58,-81.2 1312.78,-71.97"/>
<polygon fill="midnightblue" stroke="midnightblue" points="1313.02,-68.48 1302.71,-70.9 1312.28,-75.44 1313.02,-68.48"/>
</g>
<!-- Node34&#45;&gt;Node10 -->
<g id="edge49" class="edge">
<title>Node34&#45;&gt;Node10</title>
<path fill="none" stroke="midnightblue" d="M2006.9,-112.08C2000.76,-104.38 1991.73,-93.03 1984.26,-83.65"/>
<polygon fill="midnightblue" stroke="midnightblue" points="1986.94,-81.39 1977.97,-75.75 1981.46,-85.75 1986.94,-81.39"/>
</g>
<!-- Node35&#45;&gt;Node25 -->
<g id="edge56" class="edge">
<title>Node35&#45;&gt;Node25</title>
<path fill="none" stroke="midnightblue" d="M1855.48,-235.31C1862.77,-208.98 1882.63,-130.77 1867,-112 1779.09,-6.42 1699.53,-71.26 1563,-56 1141.17,-8.87 624.62,-9.46 485.14,-10.6"/>
<polygon fill="midnightblue" stroke="midnightblue" points="484.98,-7.1 475.01,-10.69 485.04,-14.1 484.98,-7.1"/>
</g>
<!-- Node35&#45;&gt;Node32 -->
<g id="edge52" class="edge">
<title>Node35&#45;&gt;Node32</title>
<path fill="none" stroke="midnightblue" d="M1873.77,-235.48C1898.43,-225.36 1939.75,-208.4 1967.9,-196.85"/>
<polygon fill="midnightblue" stroke="midnightblue" points="1969.34,-200.04 1977.26,-193.01 1966.68,-193.57 1969.34,-200.04"/>
</g>
<!-- Node35&#45;&gt;Node34 -->
<g id="edge53" class="edge">
<title>Node35&#45;&gt;Node34</title>
<path fill="none" stroke="midnightblue" d="M1857.51,-235.32C1865.92,-219.87 1885.4,-187.41 1910,-168 1928.85,-153.13 1953.36,-142.21 1973.85,-134.86"/>
<polygon fill="midnightblue" stroke="midnightblue" points="1975.22,-138.09 1983.55,-131.53 1972.95,-131.47 1975.22,-138.09"/>
</g>
<!-- Node36 -->
<g id="node36" class="node">
<title>Node36</title>
<g id="a_node36"><a xlink:href="StateProcess_8h.html" target="_top" xlink:title=" ">
<polygon fill="white" stroke="black" points="1565,-174 1565,-193 1707,-193 1707,-174 1565,-174"/>
<text text-anchor="middle" x="1636" y="-181" font-family="Helvetica,sans-Serif" font-size="10.00">BayesFilters/StateProcess.h</text>
</a>
</g>
</g>
<!-- Node35&#45;&gt;Node36 -->
<g id="edge54" class="edge">
<title>Node35&#45;&gt;Node36</title>
<path fill="none" stroke="midnightblue" d="M1821.91,-235.48C1783.72,-225 1718.83,-207.21 1676.7,-195.66"/>
<polygon fill="midnightblue" stroke="midnightblue" points="1677.6,-192.28 1667.03,-193.01 1675.75,-199.03 1677.6,-192.28"/>
</g>
<!-- Node36&#45;&gt;Node18 -->
<g id="edge55" class="edge">
<title>Node36&#45;&gt;Node18</title>
<path fill="none" stroke="midnightblue" d="M1629.93,-173.82C1618.68,-158.48 1593.01,-126.84 1563,-112 1519.95,-90.71 1385.1,-76.76 1312.83,-70.61"/>
<polygon fill="midnightblue" stroke="midnightblue" points="1312.9,-67.1 1302.64,-69.76 1312.32,-74.08 1312.9,-67.1"/>
</g>
<!-- Node37&#45;&gt;Node16 -->
<g id="edge62" class="edge">
<title>Node37&#45;&gt;Node16</title>
<path fill="none" stroke="midnightblue" d="M1147.76,-296.98C1105.43,-286.44 1033.32,-268.49 986.95,-256.94"/>
<polygon fill="midnightblue" stroke="midnightblue" points="987.73,-253.53 977.18,-254.51 986.04,-260.32 987.73,-253.53"/>
</g>
<!-- Node37&#45;&gt;Node18 -->
<g id="edge63" class="edge">
<title>Node37&#45;&gt;Node18</title>
<path fill="none" stroke="midnightblue" d="M1234.24,-296.98C1314.28,-280.81 1464.81,-237.34 1530,-132 1534.68,-124.44 1535.73,-118.79 1530,-112 1502.72,-79.68 1380.91,-70.57 1312.68,-68.01"/>
<polygon fill="midnightblue" stroke="midnightblue" points="1312.73,-64.5 1302.62,-67.66 1312.49,-71.5 1312.73,-64.5"/>
</g>
<!-- Node38 -->
<g id="node38" class="node">
<title>Node38</title>
<g id="a_node38"><a xlink:title=" ">
<polygon fill="white" stroke="#bfbfbf" points="1157.5,-235.5 1157.5,-254.5 1206.5,-254.5 1206.5,-235.5 1157.5,-235.5"/>
<text text-anchor="middle" x="1182" y="-242.5" font-family="Helvetica,sans-Serif" font-size="10.00">random</text>
</a>
</g>
</g>
<!-- Node37&#45;&gt;Node38 -->
<g id="edge61" class="edge">
<title>Node37&#45;&gt;Node38</title>
<path fill="none" stroke="midnightblue" d="M1182,-296.98C1182,-288.58 1182,-275.48 1182,-264.66"/>
<polygon fill="midnightblue" stroke="midnightblue" points="1185.5,-264.51 1182,-254.51 1178.5,-264.51 1185.5,-264.51"/>
</g>
</g>
</svg>
