<?xml version="1.0" encoding="UTF-8" standalone="no"?>
<!DOCTYPE svg PUBLIC "-//W3C//DTD SVG 1.1//EN"
 "http://www.w3.org/Graphics/SVG/1.1/DTD/svg11.dtd">
<!-- Generated by graphviz version 2.43.0 (0)
 -->
<!-- Title: /home/user/bayes&#45;filters&#45;lib/src/BayesFilters/include/BayesFilters/StateModel.h Pages: 1 -->
<svg width="2715pt" height="362pt"
 viewBox="0.00 0.00 2714.50 362.00" xmlns="http://www.w3.org/2000/svg" xmlns:xlink="http://www.w3.org/1999/xlink">
<g id="graph0" class="graph" transform="scale(1 1) rotate(0) translate(4 358)">
<title>/home/user/bayes&#45;filters&#45;lib/src/BayesFilters/include/BayesFilters/StateModel.h</title>
<polygon fill="white" stroke="transparent" points="-4,4 -4,-358 2710.5,-358 2710.5,4 -4,4"/>
<!-- Node1 -->
<g id="node1" class="node">
<title>Node1</title>
<g id="a_node1"><a xlink:title=" ">
<polygon fill="#bfbfbf" stroke="black" points="1475.5,-312.5 1475.5,-353.5 1626.5,-353.5 1626.5,-312.5 1475.5,-312.5"/>
<text text-anchor="start" x="1483.5" y="-341.5" font-family="Helvetica,sans-Serif" font-size="10.00">/home/user/bayes&#45;filters</text>
<text text-anchor="start" x="1483.5" y="-330.5" font-family="Helvetica,sans-Serif" font-size="10.00">&#45;lib/src/BayesFilters/include</text>
<text text-anchor="middle" x="1551" y="-319.5" font-family="Helvetica,sans-Serif" font-size="10.00">/BayesFilters/StateModel.h</text>
</a>
</g>
</g>
<!-- Node2 -->
<g id="node2" class="node">
<title>Node2</title>
<g id="a_node2"><a xlink:href="AdditiveStateModel_8h.html" target="_top" xlink:title=" ">
<polygon fill="white" stroke="black" points="609,-234.5 609,-275.5 797,-275.5 797,-234.5 609,-234.5"/>
<text text-anchor="start" x="617" y="-263.5" font-family="Helvetica,sans-Serif" font-size="10.00">/home/user/bayes&#45;filters</text>
<text text-anchor="start" x="617" y="-252.5" font-family="Helvetica,sans-Serif" font-size="10.00">&#45;lib/src/BayesFilters/include</text>
<text text-anchor="middle" x="703" y="-241.5" font-family="Helvetica,sans-Serif" font-size="10.00">/BayesFilters/AdditiveStateModel.h</text>
</a>
</g>
</g>
<!-- Node1&#45;&gt;Node2 -->
<g id="edge1" class="edge">
<title>Node1&#45;&gt;Node2</title>
<path fill="none" stroke="midnightblue" d="M1465.38,-327.97C1328.75,-320.97 1053.16,-304.52 821,-276 813.27,-275.05 805.27,-273.95 797.24,-272.76"/>
<polygon fill="midnightblue" stroke="midnightblue" points="1465.21,-331.47 1475.37,-328.48 1465.56,-324.48 1465.21,-331.47"/>
</g>
<!-- Node11 -->
<g id="node11" class="node">
<title>Node11</title>
<g id="a_node11"><a xlink:href="sigma__point_8h.html" target="_top" xlink:title=" ">
<polygon fill="white" stroke="black" points="383,-156.5 383,-197.5 535,-197.5 535,-156.5 383,-156.5"/>
<text text-anchor="start" x="391" y="-185.5" font-family="Helvetica,sans-Serif" font-size="10.00">/home/user/bayes&#45;filters</text>
<text text-anchor="start" x="391" y="-174.5" font-family="Helvetica,sans-Serif" font-size="10.00">&#45;lib/src/BayesFilters/include</text>
<text text-anchor="middle" x="459" y="-163.5" font-family="Helvetica,sans-Serif" font-size="10.00">/BayesFilters/sigma_point.h</text>
</a>
</g>
</g>
<!-- Node1&#45;&gt;Node11 -->
<g id="edge41" class="edge">
<title>Node1&#45;&gt;Node11</title>
<path fill="none" stroke="midnightblue" d="M1465.1,-329.6C1246.45,-323.11 680.44,-303.83 600,-276 551.83,-259.33 505.1,-221.21 479.38,-197.72"/>
<polygon fill="midnightblue" stroke="midnightblue" points="1465.14,-333.1 1475.24,-329.9 1465.35,-326.11 1465.14,-333.1"/>
</g>
<!-- Node16 -->
<g id="node16" class="node">
<title>Node16</title>
<g id="a_node16"><a xlink:href="UKFPrediction_8h.html" target="_top" xlink:title=" ">
<polygon fill="white" stroke="black" points="520.5,-78.5 520.5,-119.5 681.5,-119.5 681.5,-78.5 520.5,-78.5"/>
<text text-anchor="start" x="528.5" y="-107.5" font-family="Helvetica,sans-Serif" font-size="10.00">/home/user/bayes&#45;filters</text>
<text text-anchor="start" x="528.5" y="-96.5" font-family="Helvetica,sans-Serif" font-size="10.00">&#45;lib/src/BayesFilters/include</text>
<text text-anchor="middle" x="601" y="-85.5" font-family="Helvetica,sans-Serif" font-size="10.00">/BayesFilters/UKFPrediction.h</text>
</a>
</g>
</g>
<!-- Node1&#45;&gt;Node16 -->
<g id="edge46" class="edge">
<title>Node1&#45;&gt;Node16</title>
<path fill="none" stroke="midnightblue" d="M1465.12,-318.71C1397.34,-307.96 1300.45,-292.02 1216,-276 1052.17,-244.91 1003.98,-259.56 849,-198 815.63,-184.75 812.71,-170.8 780,-156 747.52,-141.3 710.07,-128.93 677.85,-119.58"/>
<polygon fill="midnightblue" stroke="midnightblue" points="1464.9,-322.21 1475.33,-320.32 1466,-315.3 1464.9,-322.21"/>
</g>
<!-- Node20 -->
<g id="node20" class="node">
<title>Node20</title>
<g id="a_node20"><a xlink:href="GaussianPrediction_8h.html" target="_top" xlink:title=" ">
<polygon fill="white" stroke="black" points="1225.5,-234.5 1225.5,-275.5 1410.5,-275.5 1410.5,-234.5 1225.5,-234.5"/>
<text text-anchor="start" x="1233.5" y="-263.5" font-family="Helvetica,sans-Serif" font-size="10.00">/home/user/bayes&#45;filters</text>
<text text-anchor="start" x="1233.5" y="-252.5" font-family="Helvetica,sans-Serif" font-size="10.00">&#45;lib/src/BayesFilters/include</text>
<text text-anchor="middle" x="1318" y="-241.5" font-family="Helvetica,sans-Serif" font-size="10.00">/BayesFilters/GaussianPrediction.h</text>
</a>
</g>
</g>
<!-- Node1&#45;&gt;Node20 -->
<g id="edge20" class="edge">
<title>Node1&#45;&gt;Node20</title>
<path fill="none" stroke="midnightblue" d="M1481.42,-309.3C1448.44,-298.55 1409.43,-285.82 1377.8,-275.51"/>
<polygon fill="midnightblue" stroke="midnightblue" points="1480.4,-312.65 1491,-312.43 1482.58,-306 1480.4,-312.65"/>
</g>
<!-- Node23 -->
<g id="node23" class="node">
<title>Node23</title>
<g id="a_node23"><a xlink:href="GPFPrediction_8h.html" target="_top" xlink:title=" ">
<polygon fill="white" stroke="black" points="1471,-156.5 1471,-197.5 1631,-197.5 1631,-156.5 1471,-156.5"/>
<text text-anchor="start" x="1479" y="-185.5" font-family="Helvetica,sans-Serif" font-size="10.00">/home/user/bayes&#45;filters</text>
<text text-anchor="start" x="1479" y="-174.5" font-family="Helvetica,sans-Serif" font-size="10.00">&#45;lib/src/BayesFilters/include</text>
<text text-anchor="middle" x="1551" y="-163.5" font-family="Helvetica,sans-Serif" font-size="10.00">/BayesFilters/GPFPrediction.h</text>
</a>
</g>
</g>
<!-- Node1&#45;&gt;Node23 -->
<g id="edge30" class="edge">
<title>Node1&#45;&gt;Node23</title>
<path fill="none" stroke="midnightblue" d="M1551,-302.36C1551,-271.61 1551,-224.36 1551,-197.83"/>
<polygon fill="midnightblue" stroke="midnightblue" points="1547.5,-302.5 1551,-312.5 1554.5,-302.5 1547.5,-302.5"/>
</g>
<!-- Node26 -->
<g id="node26" class="node">
<title>Node26</title>
<g id="a_node26"><a xlink:href="GPFCorrection_8h.html" target="_top" xlink:title=" ">
<polygon fill="white" stroke="black" points="1619.5,-234.5 1619.5,-275.5 1780.5,-275.5 1780.5,-234.5 1619.5,-234.5"/>
<text text-anchor="start" x="1627.5" y="-263.5" font-family="Helvetica,sans-Serif" font-size="10.00">/home/user/bayes&#45;filters</text>
<text text-anchor="start" x="1627.5" y="-252.5" font-family="Helvetica,sans-Serif" font-size="10.00">&#45;lib/src/BayesFilters/include</text>
<text text-anchor="middle" x="1700" y="-241.5" font-family="Helvetica,sans-Serif" font-size="10.00">/BayesFilters/GPFCorrection.h</text>
</a>
</g>
</g>
<!-- Node1&#45;&gt;Node26 -->
<g id="edge28" class="edge">
<title>Node1&#45;&gt;Node26</title>
<path fill="none" stroke="midnightblue" d="M1598.51,-307.77C1618.93,-297.35 1642.49,-285.34 1661.76,-275.51"/>
<polygon fill="midnightblue" stroke="midnightblue" points="1596.69,-304.77 1589.37,-312.43 1599.87,-311 1596.69,-304.77"/>
</g>
<!-- Node28 -->
<g id="node28" class="node">
<title>Node28</title>
<g id="a_node28"><a xlink:href="PFPrediction_8h.html" target="_top" xlink:title=" ">
<polygon fill="white" stroke="black" points="1822,-234.5 1822,-275.5 1974,-275.5 1974,-234.5 1822,-234.5"/>
<text text-anchor="start" x="1830" y="-263.5" font-family="Helvetica,sans-Serif" font-size="10.00">/home/user/bayes&#45;filters</text>
<text text-anchor="start" x="1830" y="-252.5" font-family="Helvetica,sans-Serif" font-size="10.00">&#45;lib/src/BayesFilters/include</text>
<text text-anchor="middle" x="1898" y="-241.5" font-family="Helvetica,sans-Serif" font-size="10.00">/BayesFilters/PFPrediction.h</text>
</a>
</g>
</g>
<!-- Node1&#45;&gt;Node28 -->
<g id="edge31" class="edge">
<title>Node1&#45;&gt;Node28</title>
<path fill="none" stroke="midnightblue" d="M1636.75,-313.22C1693.47,-300.8 1767.18,-284.65 1821.84,-272.68"/>
<polygon fill="midnightblue" stroke="midnightblue" points="1635.74,-309.86 1626.72,-315.42 1637.24,-316.69 1635.74,-309.86"/>
</g>
<!-- Node36 -->
<g id="node36" class="node">
<title>Node36</title>
<g id="a_node36"><a xlink:href="SimulatedStateModel_8h.html" target="_top" xlink:title=" ">
<polygon fill="white" stroke="black" points="2175.5,-234.5 2175.5,-275.5 2372.5,-275.5 2372.5,-234.5 2175.5,-234.5"/>
<text text-anchor="start" x="2183.5" y="-263.5" font-family="Helvetica,sans-Serif" font-size="10.00">/home/user/bayes&#45;filters</text>
<text text-anchor="start" x="2183.5" y="-252.5" font-family="Helvetica,sans-Serif" font-size="10.00">&#45;lib/src/BayesFilters/include</text>
<text text-anchor="middle" x="2274" y="-241.5" font-family="Helvetica,sans-Serif" font-size="10.00">/BayesFilters/SimulatedStateModel.h</text>
</a>
</g>
</g>
<!-- Node1&#45;&gt;Node36 -->
<g id="edge42" class="edge">
<title>Node1&#45;&gt;Node36</title>
<path fill="none" stroke="midnightblue" d="M1636.96,-322.96C1771.98,-308.77 2033.02,-281.33 2175.44,-266.36"/>
<polygon fill="midnightblue" stroke="midnightblue" points="1636.25,-319.52 1626.67,-324.05 1636.98,-326.48 1636.25,-319.52"/>
</g>
<!-- Node40 -->
<g id="node40" class="node">
<title>Node40</title>
<g id="a_node40"><a xlink:href="StateModel_8cpp.html" target="_top" xlink:title=" ">
<polygon fill="white" stroke="black" points="2390.5,-234.5 2390.5,-275.5 2525.5,-275.5 2525.5,-234.5 2390.5,-234.5"/>
<text text-anchor="start" x="2398.5" y="-263.5" font-family="Helvetica,sans-Serif" font-size="10.00">/home/user/bayes&#45;filters</text>
<text text-anchor="start" x="2398.5" y="-252.5" font-family="Helvetica,sans-Serif" font-size="10.00">&#45;lib/src/BayesFilters/src</text>
<text text-anchor="middle" x="2458" y="-241.5" font-family="Helvetica,sans-Serif" font-size="10.00">/StateModel.cpp</text>
</a>
</g>
</g>
<!-- Node1&#45;&gt;Node40 -->
<g id="edge47" class="edge">
<title>Node1&#45;&gt;Node40</title>
<path fill="none" stroke="midnightblue" d="M1636.77,-331.57C1788.2,-329.63 2112.43,-320.14 2382,-276 2384.69,-275.56 2387.43,-275.06 2390.18,-274.53"/>
<polygon fill="midnightblue" stroke="midnightblue" points="1636.56,-328.07 1626.6,-331.69 1636.64,-335.07 1636.56,-328.07"/>
</g>
<!-- Node3 -->
<g id="node3" class="node">
<title>Node3</title>
<g id="a_node3"><a xlink:href="LinearStateModel_8h.html" target="_top" xlink:title=" ">
<polygon fill="white" stroke="black" points="904.5,-156.5 904.5,-197.5 1081.5,-197.5 1081.5,-156.5 904.5,-156.5"/>
<text text-anchor="start" x="912.5" y="-185.5" font-family="Helvetica,sans-Serif" font-size="10.00">/home/user/bayes&#45;filters</text>
<text text-anchor="start" x="912.5" y="-174.5" font-family="Helvetica,sans-Serif" font-size="10.00">&#45;lib/src/BayesFilters/include</text>
<text text-anchor="middle" x="993" y="-163.5" font-family="Helvetica,sans-Serif" font-size="10.00">/BayesFilters/LinearStateModel.h</text>
</a>
</g>
</g>
<!-- Node2&#45;&gt;Node3 -->
<g id="edge2" class="edge">
<title>Node2&#45;&gt;Node3</title>
<path fill="none" stroke="midnightblue" d="M787.5,-231.86C828.98,-220.98 878.53,-208 918.57,-197.51"/>
<polygon fill="midnightblue" stroke="midnightblue" points="786.47,-228.51 777.68,-234.43 788.24,-235.28 786.47,-228.51"/>
</g>
<!-- Node2&#45;&gt;Node11 -->
<g id="edge10" class="edge">
<title>Node2&#45;&gt;Node11</title>
<path fill="none" stroke="midnightblue" d="M630.58,-231.44C595.95,-220.66 554.89,-207.87 521.62,-197.51"/>
<polygon fill="midnightblue" stroke="midnightblue" points="629.58,-234.8 640.16,-234.43 631.66,-228.11 629.58,-234.8"/>
</g>
<!-- Node2&#45;&gt;Node16 -->
<g id="edge18" class="edge">
<title>Node2&#45;&gt;Node16</title>
<path fill="none" stroke="midnightblue" d="M657.15,-228.54C645.52,-220.16 634.06,-209.89 626,-198 609.84,-174.17 604.12,-140.65 602.1,-119.64"/>
<polygon fill="midnightblue" stroke="midnightblue" points="655.36,-231.56 665.6,-234.31 659.31,-225.78 655.36,-231.56"/>
</g>
<!-- Node19 -->
<g id="node19" class="node">
<title>Node19</title>
<g id="a_node19"><a xlink:href="AdditiveStateModel_8cpp.html" target="_top" xlink:title=" ">
<polygon fill="white" stroke="black" points="635,-156.5 635,-197.5 771,-197.5 771,-156.5 635,-156.5"/>
<text text-anchor="start" x="643" y="-185.5" font-family="Helvetica,sans-Serif" font-size="10.00">/home/user/bayes&#45;filters</text>
<text text-anchor="start" x="643" y="-174.5" font-family="Helvetica,sans-Serif" font-size="10.00">&#45;lib/src/BayesFilters/src</text>
<text text-anchor="middle" x="703" y="-163.5" font-family="Helvetica,sans-Serif" font-size="10.00">/AdditiveStateModel.cpp</text>
</a>
</g>
</g>
<!-- Node2&#45;&gt;Node19 -->
<g id="edge19" class="edge">
<title>Node2&#45;&gt;Node19</title>
<path fill="none" stroke="midnightblue" d="M703,-224.3C703,-215.3 703,-205.65 703,-197.51"/>
<polygon fill="midnightblue" stroke="midnightblue" points="699.5,-224.43 703,-234.43 706.5,-224.43 699.5,-224.43"/>
</g>
<!-- Node4 -->
<g id="node4" class="node">
<title>Node4</title>
<g id="a_node4"><a xlink:href="KFPrediction_8h.html" target="_top" xlink:title=" ">
<polygon fill="white" stroke="black" points="1258.5,-78.5 1258.5,-119.5 1411.5,-119.5 1411.5,-78.5 1258.5,-78.5"/>
<text text-anchor="start" x="1266.5" y="-107.5" font-family="Helvetica,sans-Serif" font-size="10.00">/home/user/bayes&#45;filters</text>
<text text-anchor="start" x="1266.5" y="-96.5" font-family="Helvetica,sans-Serif" font-size="10.00">&#45;lib/src/BayesFilters/include</text>
<text text-anchor="middle" x="1335" y="-85.5" font-family="Helvetica,sans-Serif" font-size="10.00">/BayesFilters/KFPrediction.h</text>
</a>
</g>
</g>
<!-- Node3&#45;&gt;Node4 -->
<g id="edge3" class="edge">
<title>Node3&#45;&gt;Node4</title>
<path fill="none" stroke="midnightblue" d="M1091.62,-154.74C1139.21,-144.41 1197.11,-131.71 1249,-120 1251.99,-119.33 1255.04,-118.63 1258.12,-117.93"/>
<polygon fill="midnightblue" stroke="midnightblue" points="1090.65,-151.37 1081.62,-156.91 1092.14,-158.21 1090.65,-151.37"/>
</g>
<!-- Node6 -->
<g id="node6" class="node">
<title>Node6</title>
<g id="a_node6"><a xlink:href="LTIStateModel_8h.html" target="_top" xlink:title=" ">
<polygon fill="white" stroke="black" points="1079.5,-78.5 1079.5,-119.5 1240.5,-119.5 1240.5,-78.5 1079.5,-78.5"/>
<text text-anchor="start" x="1087.5" y="-107.5" font-family="Helvetica,sans-Serif" font-size="10.00">/home/user/bayes&#45;filters</text>
<text text-anchor="start" x="1087.5" y="-96.5" font-family="Helvetica,sans-Serif" font-size="10.00">&#45;lib/src/BayesFilters/include</text>
<text text-anchor="middle" x="1160" y="-85.5" font-family="Helvetica,sans-Serif" font-size="10.00">/BayesFilters/LTIStateModel.h</text>
</a>
</g>
</g>
<!-- Node3&#45;&gt;Node6 -->
<g id="edge5" class="edge">
<title>Node3&#45;&gt;Node6</title>
<path fill="none" stroke="midnightblue" d="M1045.32,-152.19C1068.42,-141.67 1095.25,-129.47 1117.14,-119.51"/>
<polygon fill="midnightblue" stroke="midnightblue" points="1043.66,-149.1 1036.01,-156.43 1046.56,-155.47 1043.66,-149.1"/>
</g>
<!-- Node8 -->
<g id="node8" class="node">
<title>Node8</title>
<g id="a_node8"><a xlink:href="WhiteNoiseAcceleration_8h.html" target="_top" xlink:title=" ">
<polygon fill="white" stroke="black" points="699.5,-78.5 699.5,-119.5 908.5,-119.5 908.5,-78.5 699.5,-78.5"/>
<text text-anchor="start" x="707.5" y="-107.5" font-family="Helvetica,sans-Serif" font-size="10.00">/home/user/bayes&#45;filters</text>
<text text-anchor="start" x="707.5" y="-96.5" font-family="Helvetica,sans-Serif" font-size="10.00">&#45;lib/src/BayesFilters/include</text>
<text text-anchor="middle" x="804" y="-85.5" font-family="Helvetica,sans-Serif" font-size="10.00">/BayesFilters/WhiteNoiseAcceleration.h</text>
</a>
</g>
</g>
<!-- Node3&#45;&gt;Node8 -->
<g id="edge7" class="edge">
<title>Node3&#45;&gt;Node8</title>
<path fill="none" stroke="midnightblue" d="M934.83,-152.61C908.45,-142 877.61,-129.6 852.51,-119.51"/>
<polygon fill="midnightblue" stroke="midnightblue" points="933.74,-155.94 944.33,-156.43 936.36,-149.45 933.74,-155.94"/>
</g>
<!-- Node10 -->
<g id="node10" class="node">
<title>Node10</title>
<g id="a_node10"><a xlink:href="LinearStateModel_8cpp.html" target="_top" xlink:title=" ">
<polygon fill="white" stroke="black" points="926.5,-78.5 926.5,-119.5 1061.5,-119.5 1061.5,-78.5 926.5,-78.5"/>
<text text-anchor="start" x="934.5" y="-107.5" font-family="Helvetica,sans-Serif" font-size="10.00">/home/user/bayes&#45;filters</text>
<text text-anchor="start" x="934.5" y="-96.5" font-family="Helvetica,sans-Serif" font-size="10.00">&#45;lib/src/BayesFilters/src</text>
<text text-anchor="middle" x="994" y="-85.5" font-family="Helvetica,sans-Serif" font-size="10.00">/LinearStateModel.cpp</text>
</a>
</g>
</g>
<!-- Node3&#45;&gt;Node10 -->
<g id="edge9" class="edge">
<title>Node3&#45;&gt;Node10</title>
<path fill="none" stroke="midnightblue" d="M993.39,-146.3C993.51,-137.3 993.64,-127.65 993.74,-119.51"/>
<polygon fill="midnightblue" stroke="midnightblue" points="989.89,-146.38 993.26,-156.43 996.89,-146.48 989.89,-146.38"/>
</g>
<!-- Node5 -->
<g id="node5" class="node">
<title>Node5</title>
<g id="a_node5"><a xlink:href="KFPrediction_8cpp.html" target="_top" xlink:title=" ">
<polygon fill="white" stroke="black" points="1267.5,-0.5 1267.5,-41.5 1402.5,-41.5 1402.5,-0.5 1267.5,-0.5"/>
<text text-anchor="start" x="1275.5" y="-29.5" font-family="Helvetica,sans-Serif" font-size="10.00">/home/user/bayes&#45;filters</text>
<text text-anchor="start" x="1275.5" y="-18.5" font-family="Helvetica,sans-Serif" font-size="10.00">&#45;lib/src/BayesFilters/src</text>
<text text-anchor="middle" x="1335" y="-7.5" font-family="Helvetica,sans-Serif" font-size="10.00">/KFPrediction.cpp</text>
</a>
</g>
</g>
<!-- Node4&#45;&gt;Node5 -->
<g id="edge4" class="edge">
<title>Node4&#45;&gt;Node5</title>
<path fill="none" stroke="midnightblue" d="M1335,-68.3C1335,-59.3 1335,-49.65 1335,-41.51"/>
<polygon fill="midnightblue" stroke="midnightblue" points="1331.5,-68.43 1335,-78.43 1338.5,-68.43 1331.5,-68.43"/>
</g>
<!-- Node7 -->
<g id="node7" class="node">
<title>Node7</title>
<g id="a_node7"><a xlink:href="LTIStateModel_8cpp.html" target="_top" xlink:title=" ">
<polygon fill="white" stroke="black" points="1092.5,-0.5 1092.5,-41.5 1227.5,-41.5 1227.5,-0.5 1092.5,-0.5"/>
<text text-anchor="start" x="1100.5" y="-29.5" font-family="Helvetica,sans-Serif" font-size="10.00">/home/user/bayes&#45;filters</text>
<text text-anchor="start" x="1100.5" y="-18.5" font-family="Helvetica,sans-Serif" font-size="10.00">&#45;lib/src/BayesFilters/src</text>
<text text-anchor="middle" x="1160" y="-7.5" font-family="Helvetica,sans-Serif" font-size="10.00">/LTIStateModel.cpp</text>
</a>
</g>
</g>
<!-- Node6&#45;&gt;Node7 -->
<g id="edge6" class="edge">
<title>Node6&#45;&gt;Node7</title>
<path fill="none" stroke="midnightblue" d="M1160,-68.3C1160,-59.3 1160,-49.65 1160,-41.51"/>
<polygon fill="midnightblue" stroke="midnightblue" points="1156.5,-68.43 1160,-78.43 1163.5,-68.43 1156.5,-68.43"/>
</g>
<!-- Node9 -->
<g id="node9" class="node">
<title>Node9</title>
<g id="a_node9"><a xlink:href="WhiteNoiseAcceleration_8cpp.html" target="_top" xlink:title=" ">
<polygon fill="white" stroke="black" points="725.5,-0.5 725.5,-41.5 882.5,-41.5 882.5,-0.5 725.5,-0.5"/>
<text text-anchor="start" x="733.5" y="-29.5" font-family="Helvetica,sans-Serif" font-size="10.00">/home/user/bayes&#45;filters</text>
<text text-anchor="start" x="733.5" y="-18.5" font-family="Helvetica,sans-Serif" font-size="10.00">&#45;lib/src/BayesFilters/src</text>
<text text-anchor="middle" x="804" y="-7.5" font-family="Helvetica,sans-Serif" font-size="10.00">/WhiteNoiseAcceleration.cpp</text>
</a>
</g>
</g>
<!-- Node8&#45;&gt;Node9 -->
<g id="edge8" class="edge">
<title>Node8&#45;&gt;Node9</title>
<path fill="none" stroke="midnightblue" d="M804,-68.3C804,-59.3 804,-49.65 804,-41.51"/>
<polygon fill="midnightblue" stroke="midnightblue" points="800.5,-68.43 804,-78.43 807.5,-68.43 800.5,-68.43"/>
</g>
<!-- Node12 -->
<g id="node12" class="node">
<title>Node12</title>
<g id="a_node12"><a xlink:href="SUKFCorrection_8h.html" target="_top" xlink:title=" ">
<polygon fill="white" stroke="black" points="334,-78.5 334,-119.5 502,-119.5 502,-78.5 334,-78.5"/>
<text text-anchor="start" x="342" y="-107.5" font-family="Helvetica,sans-Serif" font-size="10.00">/home/user/bayes&#45;filters</text>
<text text-anchor="start" x="342" y="-96.5" font-family="Helvetica,sans-Serif" font-size="10.00">&#45;lib/src/BayesFilters/include</text>
<text text-anchor="middle" x="418" y="-85.5" font-family="Helvetica,sans-Serif" font-size="10.00">/BayesFilters/SUKFCorrection.h</text>
</a>
</g>
</g>
<!-- Node11&#45;&gt;Node12 -->
<g id="edge11" class="edge">
<title>Node11&#45;&gt;Node12</title>
<path fill="none" stroke="midnightblue" d="M443.61,-147.47C438.58,-138.14 433.11,-128.01 428.52,-119.51"/>
<polygon fill="midnightblue" stroke="midnightblue" points="440.61,-149.29 448.44,-156.43 446.77,-145.97 440.61,-149.29"/>
</g>
<!-- Node14 -->
<g id="node14" class="node">
<title>Node14</title>
<g id="a_node14"><a xlink:href="UKFCorrection_8h.html" target="_top" xlink:title=" ">
<polygon fill="white" stroke="black" points="0,-78.5 0,-119.5 162,-119.5 162,-78.5 0,-78.5"/>
<text text-anchor="start" x="8" y="-107.5" font-family="Helvetica,sans-Serif" font-size="10.00">/home/user/bayes&#45;filters</text>
<text text-anchor="start" x="8" y="-96.5" font-family="Helvetica,sans-Serif" font-size="10.00">&#45;lib/src/BayesFilters/include</text>
<text text-anchor="middle" x="81" y="-85.5" font-family="Helvetica,sans-Serif" font-size="10.00">/BayesFilters/UKFCorrection.h</text>
</a>
</g>
</g>
<!-- Node11&#45;&gt;Node14 -->
<g id="edge13" class="edge">
<title>Node11&#45;&gt;Node14</title>
<path fill="none" stroke="midnightblue" d="M372.69,-159.84C315.42,-148.96 238.62,-134.09 171,-120 168.18,-119.41 165.31,-118.81 162.41,-118.19"/>
<polygon fill="midnightblue" stroke="midnightblue" points="372.31,-163.33 382.79,-161.75 373.62,-156.45 372.31,-163.33"/>
</g>
<!-- Node11&#45;&gt;Node16 -->
<g id="edge15" class="edge">
<title>Node11&#45;&gt;Node16</title>
<path fill="none" stroke="midnightblue" d="M504.54,-151.63C523.94,-141.24 546.27,-129.29 564.56,-119.51"/>
<polygon fill="midnightblue" stroke="midnightblue" points="502.73,-148.62 495.57,-156.43 506.04,-154.8 502.73,-148.62"/>
</g>
<!-- Node18 -->
<g id="node18" class="node">
<title>Node18</title>
<g id="a_node18"><a xlink:href="sigma__point_8cpp.html" target="_top" xlink:title=" ">
<polygon fill="white" stroke="black" points="180.5,-78.5 180.5,-119.5 315.5,-119.5 315.5,-78.5 180.5,-78.5"/>
<text text-anchor="start" x="188.5" y="-107.5" font-family="Helvetica,sans-Serif" font-size="10.00">/home/user/bayes&#45;filters</text>
<text text-anchor="start" x="188.5" y="-96.5" font-family="Helvetica,sans-Serif" font-size="10.00">&#45;lib/src/BayesFilters/src</text>
<text text-anchor="middle" x="248" y="-85.5" font-family="Helvetica,sans-Serif" font-size="10.00">/sigma_point.cpp</text>
</a>
</g>
</g>
<!-- Node11&#45;&gt;Node18 -->
<g id="edge17" class="edge">
<title>Node11&#45;&gt;Node18</title>
<path fill="none" stroke="midnightblue" d="M395.22,-153.03C365.51,-142.33 330.55,-129.73 302.15,-119.51"/>
<polygon fill="midnightblue" stroke="midnightblue" points="394.07,-156.33 404.66,-156.43 396.44,-149.75 394.07,-156.33"/>
</g>
<!-- Node13 -->
<g id="node13" class="node">
<title>Node13</title>
<g id="a_node13"><a xlink:href="SUKFCorrection_8cpp.html" target="_top" xlink:title=" ">
<polygon fill="white" stroke="black" points="350.5,-0.5 350.5,-41.5 485.5,-41.5 485.5,-0.5 350.5,-0.5"/>
<text text-anchor="start" x="358.5" y="-29.5" font-family="Helvetica,sans-Serif" font-size="10.00">/home/user/bayes&#45;filters</text>
<text text-anchor="start" x="358.5" y="-18.5" font-family="Helvetica,sans-Serif" font-size="10.00">&#45;lib/src/BayesFilters/src</text>
<text text-anchor="middle" x="418" y="-7.5" font-family="Helvetica,sans-Serif" font-size="10.00">/SUKFCorrection.cpp</text>
</a>
</g>
</g>
<!-- Node12&#45;&gt;Node13 -->
<g id="edge12" class="edge">
<title>Node12&#45;&gt;Node13</title>
<path fill="none" stroke="midnightblue" d="M418,-68.3C418,-59.3 418,-49.65 418,-41.51"/>
<polygon fill="midnightblue" stroke="midnightblue" points="414.5,-68.43 418,-78.43 421.5,-68.43 414.5,-68.43"/>
</g>
<!-- Node15 -->
<g id="node15" class="node">
<title>Node15</title>
<g id="a_node15"><a xlink:href="UKFCorrection_8cpp.html" target="_top" xlink:title=" ">
<polygon fill="white" stroke="black" points="13.5,-0.5 13.5,-41.5 148.5,-41.5 148.5,-0.5 13.5,-0.5"/>
<text text-anchor="start" x="21.5" y="-29.5" font-family="Helvetica,sans-Serif" font-size="10.00">/home/user/bayes&#45;filters</text>
<text text-anchor="start" x="21.5" y="-18.5" font-family="Helvetica,sans-Serif" font-size="10.00">&#45;lib/src/BayesFilters/src</text>
<text text-anchor="middle" x="81" y="-7.5" font-family="Helvetica,sans-Serif" font-size="10.00">/UKFCorrection.cpp</text>
</a>
</g>
</g>
<!-- Node14&#45;&gt;Node15 -->
<g id="edge14" class="edge">
<title>Node14&#45;&gt;Node15</title>
<path fill="none" stroke="midnightblue" d="M81,-68.3C81,-59.3 81,-49.65 81,-41.51"/>
<polygon fill="midnightblue" stroke="midnightblue" points="77.5,-68.43 81,-78.43 84.5,-68.43 77.5,-68.43"/>
</g>
<!-- Node17 -->
<g id="node17" class="node">
<title>Node17</title>
<g id="a_node17"><a xlink:href="UKFPrediction_8cpp.html" target="_top" xlink:title=" ">
<polygon fill="white" stroke="black" points="533.5,-0.5 533.5,-41.5 668.5,-41.5 668.5,-0.5 533.5,-0.5"/>
<text text-anchor="start" x="541.5" y="-29.5" font-family="Helvetica,sans-Serif" font-size="10.00">/home/user/bayes&#45;filters</text>
<text text-anchor="start" x="541.5" y="-18.5" font-family="Helvetica,sans-Serif" font-size="10.00">&#45;lib/src/BayesFilters/src</text>
<text text-anchor="middle" x="601" y="-7.5" font-family="Helvetica,sans-Serif" font-size="10.00">/UKFPrediction.cpp</text>
</a>
</g>
</g>
<!-- Node16&#45;&gt;Node17 -->
<g id="edge16" class="edge">
<title>Node16&#45;&gt;Node17</title>
<path fill="none" stroke="midnightblue" d="M601,-68.3C601,-59.3 601,-49.65 601,-41.51"/>
<polygon fill="midnightblue" stroke="midnightblue" points="597.5,-68.43 601,-78.43 604.5,-68.43 597.5,-68.43"/>
</g>
<!-- Node20&#45;&gt;Node4 -->
<g id="edge25" class="edge">
<title>Node20&#45;&gt;Node4</title>
<path fill="none" stroke="midnightblue" d="M1295.6,-226C1290.05,-217.5 1284.88,-207.79 1282,-198 1276.74,-180.09 1275.09,-173.34 1282,-156 1287.6,-141.95 1298.58,-129.39 1309.1,-119.74"/>
<polygon fill="midnightblue" stroke="midnightblue" points="1292.85,-228.18 1301.43,-234.39 1298.6,-224.18 1292.85,-228.18"/>
</g>
<!-- Node20&#45;&gt;Node16 -->
<g id="edge26" class="edge">
<title>Node20&#45;&gt;Node16</title>
<path fill="none" stroke="midnightblue" d="M1215.11,-247.47C1108.57,-239.45 950.13,-223.67 895,-198 869.9,-186.31 873.54,-168.81 849,-156 848.52,-155.75 753.86,-134.41 681.65,-118.15"/>
<polygon fill="midnightblue" stroke="midnightblue" points="1215.02,-250.97 1225.25,-248.22 1215.53,-243.99 1215.02,-250.97"/>
</g>
<!-- Node21 -->
<g id="node21" class="node">
<title>Node21</title>
<g id="a_node21"><a xlink:href="GaussianFilter_8h.html" target="_top" xlink:title=" ">
<polygon fill="white" stroke="black" points="1291.5,-156.5 1291.5,-197.5 1452.5,-197.5 1452.5,-156.5 1291.5,-156.5"/>
<text text-anchor="start" x="1299.5" y="-185.5" font-family="Helvetica,sans-Serif" font-size="10.00">/home/user/bayes&#45;filters</text>
<text text-anchor="start" x="1299.5" y="-174.5" font-family="Helvetica,sans-Serif" font-size="10.00">&#45;lib/src/BayesFilters/include</text>
<text text-anchor="middle" x="1372" y="-163.5" font-family="Helvetica,sans-Serif" font-size="10.00">/BayesFilters/GaussianFilter.h</text>
</a>
</g>
</g>
<!-- Node20&#45;&gt;Node21 -->
<g id="edge21" class="edge">
<title>Node20&#45;&gt;Node21</title>
<path fill="none" stroke="midnightblue" d="M1337.86,-226.05C1344.6,-216.57 1351.97,-206.18 1358.14,-197.51"/>
<polygon fill="midnightblue" stroke="midnightblue" points="1334.85,-224.25 1331.91,-234.43 1340.55,-228.3 1334.85,-224.25"/>
</g>
<!-- Node20&#45;&gt;Node23 -->
<g id="edge23" class="edge">
<title>Node20&#45;&gt;Node23</title>
<path fill="none" stroke="midnightblue" d="M1387.58,-231.3C1420.56,-220.55 1459.57,-207.82 1491.2,-197.51"/>
<polygon fill="midnightblue" stroke="midnightblue" points="1386.42,-228 1378,-234.43 1388.6,-234.65 1386.42,-228"/>
</g>
<!-- Node25 -->
<g id="node25" class="node">
<title>Node25</title>
<g id="a_node25"><a xlink:href="GaussianPrediction_8cpp.html" target="_top" xlink:title=" ">
<polygon fill="white" stroke="black" points="1099.5,-156.5 1099.5,-197.5 1234.5,-197.5 1234.5,-156.5 1099.5,-156.5"/>
<text text-anchor="start" x="1107.5" y="-185.5" font-family="Helvetica,sans-Serif" font-size="10.00">/home/user/bayes&#45;filters</text>
<text text-anchor="start" x="1107.5" y="-174.5" font-family="Helvetica,sans-Serif" font-size="10.00">&#45;lib/src/BayesFilters/src</text>
<text text-anchor="middle" x="1167" y="-163.5" font-family="Helvetica,sans-Serif" font-size="10.00">/GaussianPrediction.cpp</text>
</a>
</g>
</g>
<!-- Node20&#45;&gt;Node25 -->
<g id="edge27" class="edge">
<title>Node20&#45;&gt;Node25</title>
<path fill="none" stroke="midnightblue" d="M1270.13,-229.91C1249.37,-219.46 1225.37,-207.38 1205.75,-197.51"/>
<polygon fill="midnightblue" stroke="midnightblue" points="1268.61,-233.06 1279.11,-234.43 1271.75,-226.81 1268.61,-233.06"/>
</g>
<!-- Node22 -->
<g id="node22" class="node">
<title>Node22</title>
<g id="a_node22"><a xlink:href="GaussianFilter_8cpp.html" target="_top" xlink:title=" ">
<polygon fill="white" stroke="black" points="1429.5,-78.5 1429.5,-119.5 1564.5,-119.5 1564.5,-78.5 1429.5,-78.5"/>
<text text-anchor="start" x="1437.5" y="-107.5" font-family="Helvetica,sans-Serif" font-size="10.00">/home/user/bayes&#45;filters</text>
<text text-anchor="start" x="1437.5" y="-96.5" font-family="Helvetica,sans-Serif" font-size="10.00">&#45;lib/src/BayesFilters/src</text>
<text text-anchor="middle" x="1497" y="-85.5" font-family="Helvetica,sans-Serif" font-size="10.00">/GaussianFilter.cpp</text>
</a>
</g>
</g>
<!-- Node21&#45;&gt;Node22 -->
<g id="edge22" class="edge">
<title>Node21&#45;&gt;Node22</title>
<path fill="none" stroke="midnightblue" d="M1412.78,-151.2C1429.7,-140.92 1449.04,-129.16 1464.92,-119.51"/>
<polygon fill="midnightblue" stroke="midnightblue" points="1410.92,-148.24 1404.19,-156.43 1414.55,-154.22 1410.92,-148.24"/>
</g>
<!-- Node24 -->
<g id="node24" class="node">
<title>Node24</title>
<g id="a_node24"><a xlink:href="GPFPrediction_8cpp.html" target="_top" xlink:title=" ">
<polygon fill="white" stroke="black" points="1582.5,-78.5 1582.5,-119.5 1717.5,-119.5 1717.5,-78.5 1582.5,-78.5"/>
<text text-anchor="start" x="1590.5" y="-107.5" font-family="Helvetica,sans-Serif" font-size="10.00">/home/user/bayes&#45;filters</text>
<text text-anchor="start" x="1590.5" y="-96.5" font-family="Helvetica,sans-Serif" font-size="10.00">&#45;lib/src/BayesFilters/src</text>
<text text-anchor="middle" x="1650" y="-85.5" font-family="Helvetica,sans-Serif" font-size="10.00">/GPFPrediction.cpp</text>
</a>
</g>
</g>
<!-- Node23&#45;&gt;Node24 -->
<g id="edge24" class="edge">
<title>Node23&#45;&gt;Node24</title>
<path fill="none" stroke="midnightblue" d="M1584.78,-150.06C1597.82,-140.06 1612.48,-128.8 1624.59,-119.51"/>
<polygon fill="midnightblue" stroke="midnightblue" points="1582.3,-147.56 1576.49,-156.43 1586.56,-153.11 1582.3,-147.56"/>
</g>
<!-- Node27 -->
<g id="node27" class="node">
<title>Node27</title>
<g id="a_node27"><a xlink:href="GPFCorrection_8cpp.html" target="_top" xlink:title=" ">
<polygon fill="white" stroke="black" points="1649.5,-156.5 1649.5,-197.5 1784.5,-197.5 1784.5,-156.5 1649.5,-156.5"/>
<text text-anchor="start" x="1657.5" y="-185.5" font-family="Helvetica,sans-Serif" font-size="10.00">/home/user/bayes&#45;filters</text>
<text text-anchor="start" x="1657.5" y="-174.5" font-family="Helvetica,sans-Serif" font-size="10.00">&#45;lib/src/BayesFilters/src</text>
<text text-anchor="middle" x="1717" y="-163.5" font-family="Helvetica,sans-Serif" font-size="10.00">/GPFCorrection.cpp</text>
</a>
</g>
</g>
<!-- Node26&#45;&gt;Node27 -->
<g id="edge29" class="edge">
<title>Node26&#45;&gt;Node27</title>
<path fill="none" stroke="midnightblue" d="M1706.58,-224.59C1708.61,-215.51 1710.79,-205.74 1712.64,-197.51"/>
<polygon fill="midnightblue" stroke="midnightblue" points="1703.15,-223.91 1704.38,-234.43 1709.98,-225.43 1703.15,-223.91"/>
</g>
<!-- Node28&#45;&gt;Node23 -->
<g id="edge34" class="edge">
<title>Node28&#45;&gt;Node23</title>
<path fill="none" stroke="midnightblue" d="M1812,-235.35C1762.07,-224.5 1697.97,-210.54 1641,-198 1637.87,-197.31 1634.69,-196.61 1631.47,-195.9"/>
<polygon fill="midnightblue" stroke="midnightblue" points="1811.28,-238.78 1821.79,-237.48 1812.77,-231.94 1811.28,-238.78"/>
</g>
<!-- Node29 -->
<g id="node29" class="node">
<title>Node29</title>
<g id="a_node29"><a xlink:href="DrawParticles_8h.html" target="_top" xlink:title=" ">
<polygon fill="white" stroke="black" points="1803,-156.5 1803,-197.5 1961,-197.5 1961,-156.5 1803,-156.5"/>
<text text-anchor="start" x="1811" y="-185.5" font-family="Helvetica,sans-Serif" font-size="10.00">/home/user/bayes&#45;filters</text>
<text text-anchor="start" x="1811" y="-174.5" font-family="Helvetica,sans-Serif" font-size="10.00">&#45;lib/src/BayesFilters/include</text>
<text text-anchor="middle" x="1882" y="-163.5" font-family="Helvetica,sans-Serif" font-size="10.00">/BayesFilters/DrawParticles.h</text>
</a>
</g>
</g>
<!-- Node28&#45;&gt;Node29 -->
<g id="edge32" class="edge">
<title>Node28&#45;&gt;Node29</title>
<path fill="none" stroke="midnightblue" d="M1891.81,-224.59C1889.9,-215.51 1887.84,-205.74 1886.11,-197.51"/>
<polygon fill="midnightblue" stroke="midnightblue" points="1888.39,-225.36 1893.88,-234.43 1895.24,-223.92 1888.39,-225.36"/>
</g>
<!-- Node31 -->
<g id="node31" class="node">
<title>Node31</title>
<g id="a_node31"><a xlink:href="ParticleFilter_8h.html" target="_top" xlink:title=" ">
<polygon fill="white" stroke="black" points="2017,-156.5 2017,-197.5 2169,-197.5 2169,-156.5 2017,-156.5"/>
<text text-anchor="start" x="2025" y="-185.5" font-family="Helvetica,sans-Serif" font-size="10.00">/home/user/bayes&#45;filters</text>
<text text-anchor="start" x="2025" y="-174.5" font-family="Helvetica,sans-Serif" font-size="10.00">&#45;lib/src/BayesFilters/include</text>
<text text-anchor="middle" x="2093" y="-163.5" font-family="Helvetica,sans-Serif" font-size="10.00">/BayesFilters/ParticleFilter.h</text>
</a>
</g>
</g>
<!-- Node28&#45;&gt;Node31 -->
<g id="edge35" class="edge">
<title>Node28&#45;&gt;Node31</title>
<path fill="none" stroke="midnightblue" d="M1957.66,-230.75C1984.96,-220.11 2016.94,-207.65 2042.95,-197.51"/>
<polygon fill="midnightblue" stroke="midnightblue" points="1956.26,-227.54 1948.22,-234.43 1958.81,-234.06 1956.26,-227.54"/>
</g>
<!-- Node32 -->
<g id="node32" class="node">
<title>Node32</title>
<g id="a_node32"><a xlink:href="SIS_8h.html" target="_top" xlink:title=" ">
<polygon fill="white" stroke="black" points="1940.5,-78.5 1940.5,-119.5 2091.5,-119.5 2091.5,-78.5 1940.5,-78.5"/>
<text text-anchor="start" x="1948.5" y="-107.5" font-family="Helvetica,sans-Serif" font-size="10.00">/home/user/bayes&#45;filters</text>
<text text-anchor="start" x="1948.5" y="-96.5" font-family="Helvetica,sans-Serif" font-size="10.00">&#45;lib/src/BayesFilters/include</text>
<text text-anchor="middle" x="2016" y="-85.5" font-family="Helvetica,sans-Serif" font-size="10.00">/BayesFilters/SIS.h</text>
</a>
</g>
</g>
<!-- Node28&#45;&gt;Node32 -->
<g id="edge39" class="edge">
<title>Node28&#45;&gt;Node32</title>
<path fill="none" stroke="midnightblue" d="M1937.69,-228.44C1949.12,-219.75 1960.93,-209.35 1970,-198 1989.24,-173.92 2002.71,-140.47 2009.9,-119.54"/>
<polygon fill="midnightblue" stroke="midnightblue" points="1935.48,-225.71 1929.48,-234.44 1939.62,-231.36 1935.48,-225.71"/>
</g>
<!-- Node35 -->
<g id="node35" class="node">
<title>Node35</title>
<g id="a_node35"><a xlink:href="PFPrediction_8cpp.html" target="_top" xlink:title=" ">
<polygon fill="white" stroke="black" points="2187.5,-156.5 2187.5,-197.5 2322.5,-197.5 2322.5,-156.5 2187.5,-156.5"/>
<text text-anchor="start" x="2195.5" y="-185.5" font-family="Helvetica,sans-Serif" font-size="10.00">/home/user/bayes&#45;filters</text>
<text text-anchor="start" x="2195.5" y="-174.5" font-family="Helvetica,sans-Serif" font-size="10.00">&#45;lib/src/BayesFilters/src</text>
<text text-anchor="middle" x="2255" y="-163.5" font-family="Helvetica,sans-Serif" font-size="10.00">/PFPrediction.cpp</text>
</a>
</g>
</g>
<!-- Node28&#45;&gt;Node35 -->
<g id="edge40" class="edge">
<title>Node28&#45;&gt;Node35</title>
<path fill="none" stroke="midnightblue" d="M1984.16,-238.08C2039.67,-227.5 2113.3,-212.86 2178,-198 2181.1,-197.29 2184.26,-196.54 2187.45,-195.78"/>
<polygon fill="midnightblue" stroke="midnightblue" points="1983.18,-234.7 1974.01,-240.01 1984.49,-241.58 1983.18,-234.7"/>
</g>
<!-- Node30 -->
<g id="node30" class="node">
<title>Node30</title>
<g id="a_node30"><a xlink:href="DrawParticles_8cpp.html" target="_top" xlink:title=" ">
<polygon fill="white" stroke="black" points="1787.5,-78.5 1787.5,-119.5 1922.5,-119.5 1922.5,-78.5 1787.5,-78.5"/>
<text text-anchor="start" x="1795.5" y="-107.5" font-family="Helvetica,sans-Serif" font-size="10.00">/home/user/bayes&#45;filters</text>
<text text-anchor="start" x="1795.5" y="-96.5" font-family="Helvetica,sans-Serif" font-size="10.00">&#45;lib/src/BayesFilters/src</text>
<text text-anchor="middle" x="1855" y="-85.5" font-family="Helvetica,sans-Serif" font-size="10.00">/DrawParticles.cpp</text>
</a>
</g>
</g>
<!-- Node29&#45;&gt;Node30 -->
<g id="edge33" class="edge">
<title>Node29&#45;&gt;Node30</title>
<path fill="none" stroke="midnightblue" d="M1871.66,-146.88C1868.4,-137.72 1864.89,-127.83 1861.93,-119.51"/>
<polygon fill="midnightblue" stroke="midnightblue" points="1868.4,-148.18 1875.05,-156.43 1875,-145.83 1868.4,-148.18"/>
</g>
<!-- Node31&#45;&gt;Node32 -->
<g id="edge36" class="edge">
<title>Node31&#45;&gt;Node32</title>
<path fill="none" stroke="midnightblue" d="M2065.85,-149.2C2055.93,-139.42 2044.91,-128.54 2035.76,-119.51"/>
<polygon fill="midnightblue" stroke="midnightblue" points="2063.59,-151.89 2073.17,-156.43 2068.51,-146.91 2063.59,-151.89"/>
</g>
<!-- Node34 -->
<g id="node34" class="node">
<title>Node34</title>
<g id="a_node34"><a xlink:href="ParticleFilter_8cpp.html" target="_top" xlink:title=" ">
<polygon fill="white" stroke="black" points="2109.5,-78.5 2109.5,-119.5 2244.5,-119.5 2244.5,-78.5 2109.5,-78.5"/>
<text text-anchor="start" x="2117.5" y="-107.5" font-family="Helvetica,sans-Serif" font-size="10.00">/home/user/bayes&#45;filters</text>
<text text-anchor="start" x="2117.5" y="-96.5" font-family="Helvetica,sans-Serif" font-size="10.00">&#45;lib/src/BayesFilters/src</text>
<text text-anchor="middle" x="2177" y="-85.5" font-family="Helvetica,sans-Serif" font-size="10.00">/ParticleFilter.cpp</text>
</a>
</g>
</g>
<!-- Node31&#45;&gt;Node34 -->
<g id="edge38" class="edge">
<title>Node31&#45;&gt;Node34</title>
<path fill="none" stroke="midnightblue" d="M2122.3,-149.49C2133.2,-139.63 2145.36,-128.63 2155.44,-119.51"/>
<polygon fill="midnightblue" stroke="midnightblue" points="2119.7,-147.12 2114.63,-156.43 2124.4,-152.31 2119.7,-147.12"/>
</g>
<!-- Node33 -->
<g id="node33" class="node">
<title>Node33</title>
<g id="a_node33"><a xlink:href="SIS_8cpp.html" target="_top" xlink:title=" ">
<polygon fill="white" stroke="black" points="1948.5,-0.5 1948.5,-41.5 2083.5,-41.5 2083.5,-0.5 1948.5,-0.5"/>
<text text-anchor="start" x="1956.5" y="-29.5" font-family="Helvetica,sans-Serif" font-size="10.00">/home/user/bayes&#45;filters</text>
<text text-anchor="start" x="1956.5" y="-18.5" font-family="Helvetica,sans-Serif" font-size="10.00">&#45;lib/src/BayesFilters/src</text>
<text text-anchor="middle" x="2016" y="-7.5" font-family="Helvetica,sans-Serif" font-size="10.00">/SIS.cpp</text>
</a>
</g>
</g>
<!-- Node32&#45;&gt;Node33 -->
<g id="edge37" class="edge">
<title>Node32&#45;&gt;Node33</title>
<path fill="none" stroke="midnightblue" d="M2016,-68.3C2016,-59.3 2016,-49.65 2016,-41.51"/>
<polygon fill="midnightblue" stroke="midnightblue" points="2012.5,-68.43 2016,-78.43 2019.5,-68.43 2012.5,-68.43"/>
</g>
<!-- Node37 -->
<g id="node37" class="node">
<title>Node37</title>
<g id="a_node37"><a xlink:href="SimulatedLinearSensor_8h.html" target="_top" xlink:title=" ">
<polygon fill="white" stroke="black" points="2340.5,-156.5 2340.5,-197.5 2543.5,-197.5 2543.5,-156.5 2340.5,-156.5"/>
<text text-anchor="start" x="2348.5" y="-185.5" font-family="Helvetica,sans-Serif" font-size="10.00">/home/user/bayes&#45;filters</text>
<text text-anchor="start" x="2348.5" y="-174.5" font-family="Helvetica,sans-Serif" font-size="10.00">&#45;lib/src/BayesFilters/include</text>
<text text-anchor="middle" x="2442" y="-163.5" font-family="Helvetica,sans-Serif" font-size="10.00">/BayesFilters/SimulatedLinearSensor.h</text>
</a>
</g>
</g>
<!-- Node36&#45;&gt;Node37 -->
<g id="edge43" class="edge">
<title>Node36&#45;&gt;Node37</title>
<path fill="none" stroke="midnightblue" d="M2326.63,-230.19C2349.88,-219.67 2376.86,-207.47 2398.88,-197.51"/>
<polygon fill="midnightblue" stroke="midnightblue" points="2324.93,-227.12 2317.26,-234.43 2327.82,-233.5 2324.93,-227.12"/>
</g>
<!-- Node39 -->
<g id="node39" class="node">
<title>Node39</title>
<g id="a_node39"><a xlink:href="SimulatedStateModel_8cpp.html" target="_top" xlink:title=" ">
<polygon fill="white" stroke="black" points="2561.5,-156.5 2561.5,-197.5 2706.5,-197.5 2706.5,-156.5 2561.5,-156.5"/>
<text text-anchor="start" x="2569.5" y="-185.5" font-family="Helvetica,sans-Serif" font-size="10.00">/home/user/bayes&#45;filters</text>
<text text-anchor="start" x="2569.5" y="-174.5" font-family="Helvetica,sans-Serif" font-size="10.00">&#45;lib/src/BayesFilters/src</text>
<text text-anchor="middle" x="2634" y="-163.5" font-family="Helvetica,sans-Serif" font-size="10.00">/SimulatedStateModel.cpp</text>
</a>
</g>
</g>
<!-- Node36&#45;&gt;Node39 -->
<g id="edge45" class="edge">
<title>Node36&#45;&gt;Node39</title>
<path fill="none" stroke="midnightblue" d="M2382.54,-233.37C2434.27,-223.24 2496.95,-210.54 2553,-198 2555.69,-197.4 2558.42,-196.78 2561.18,-196.14"/>
<polygon fill="midnightblue" stroke="midnightblue" points="2381.82,-229.94 2372.68,-235.29 2383.16,-236.81 2381.82,-229.94"/>
</g>
<!-- Node38 -->
<g id="node38" class="node">
<title>Node38</title>
<g id="a_node38"><a xlink:href="SimulatedLinearSensor_8cpp.html" target="_top" xlink:title=" ">
<polygon fill="white" stroke="black" points="2366,-78.5 2366,-119.5 2518,-119.5 2518,-78.5 2366,-78.5"/>
<text text-anchor="start" x="2374" y="-107.5" font-family="Helvetica,sans-Serif" font-size="10.00">/home/user/bayes&#45;filters</text>
<text text-anchor="start" x="2374" y="-96.5" font-family="Helvetica,sans-Serif" font-size="10.00">&#45;lib/src/BayesFilters/src</text>
<text text-anchor="middle" x="2442" y="-85.5" font-family="Helvetica,sans-Serif" font-size="10.00">/SimulatedLinearSensor.cpp</text>
</a>
</g>
</g>
<!-- Node37&#45;&gt;Node38 -->
<g id="edge44" class="edge">
<title>Node37&#45;&gt;Node38</title>
<path fill="none" stroke="midnightblue" d="M2442,-146.3C2442,-137.3 2442,-127.65 2442,-119.51"/>
<polygon fill="midnightblue" stroke="midnightblue" points="2438.5,-146.43 2442,-156.43 2445.5,-146.43 2438.5,-146.43"/>
</g>
</g>
</svg>
