<?xml version="1.0" encoding="UTF-8" standalone="no"?>
<!DOCTYPE svg PUBLIC "-//W3C//DTD SVG 1.1//EN"
 "http://www.w3.org/Graphics/SVG/1.1/DTD/svg11.dtd">
<!-- Generated by graphviz version 2.43.0 (0)
 -->
<!-- Title: /home/user/bayes&#45;filters&#45;lib/src/BayesFilters/include/BayesFilters/StateModel.h Pages: 1 -->
<svg width="514pt" height="274pt"
 viewBox="0.00 0.00 514.00 274.00" xmlns="http://www.w3.org/2000/svg" xmlns:xlink="http://www.w3.org/1999/xlink">
<g id="graph0" class="graph" transform="scale(1 1) rotate(0) translate(4 270)">
<title>/home/user/bayes&#45;filters&#45;lib/src/BayesFilters/include/BayesFilters/StateModel.h</title>
<polygon fill="white" stroke="transparent" points="-4,4 -4,-270 510,-270 510,4 -4,4"/>
<!-- Node1 -->
<g id="node1" class="node">
<title>Node1</title>
<g id="a_node1"><a xlink:title=" ">
<polygon fill="#bfbfbf" stroke="black" points="274,-224.5 274,-265.5 425,-265.5 425,-224.5 274,-224.5"/>
<text text-anchor="start" x="282" y="-253.5" font-family="Helvetica,sans-Serif" font-size="10.00">/home/user/bayes&#45;filters</text>
<text text-anchor="start" x="282" y="-242.5" font-family="Helvetica,sans-Serif" font-size="10.00">&#45;lib/src/BayesFilters/include</text>
<text text-anchor="middle" x="349.5" y="-231.5" font-family="Helvetica,sans-Serif" font-size="10.00">/BayesFilters/StateModel.h</text>
</a>
</g>
</g>
<!-- Node2 -->
<g id="node2" class="node">
<title>Node2</title>
<g id="a_node2"><a xlink:href="ExogenousModel_8h.html" target="_top" xlink:title=" ">
<polygon fill="white" stroke="black" points="207,-168.5 207,-187.5 378,-187.5 378,-168.5 207,-168.5"/>
<text text-anchor="middle" x="292.5" y="-175.5" font-family="Helvetica,sans-Serif" font-size="10.00">BayesFilters/ExogenousModel.h</text>
</a>
</g>
</g>
<!-- Node1&#45;&gt;Node2 -->
<g id="edge1" class="edge">
<title>Node1&#45;&gt;Node2</title>
<path fill="none" stroke="midnightblue" d="M332.4,-224.5C324.25,-215.2 314.61,-204.21 306.84,-195.36"/>
<polygon fill="midnightblue" stroke="midnightblue" points="309.31,-192.86 300.09,-187.65 304.05,-197.48 309.31,-192.86"/>
</g>
<!-- Node7 -->
<g id="node7" class="node">
<title>Node7</title>
<g id="a_node7"><a xlink:href="Skippable_8h.html" target="_top" xlink:title=" ">
<polygon fill="white" stroke="black" points="369,-112.5 369,-131.5 506,-131.5 506,-112.5 369,-112.5"/>
<text text-anchor="middle" x="437.5" y="-119.5" font-family="Helvetica,sans-Serif" font-size="10.00">BayesFilters/Skippable.h</text>
</a>
</g>
</g>
<!-- Node1&#45;&gt;Node7 -->
<g id="edge9" class="edge">
<title>Node1&#45;&gt;Node7</title>
<path fill="none" stroke="midnightblue" d="M363.83,-224.29C380.96,-200.75 409.3,-161.78 425.38,-139.67"/>
<polygon fill="midnightblue" stroke="midnightblue" points="428.21,-141.72 431.26,-131.57 422.55,-137.6 428.21,-141.72"/>
</g>
<!-- Node10 -->
<g id="node10" class="node">
<title>Node10</title>
<g id="a_node10"><a xlink:href="StateProcess_8h.html" target="_top" xlink:title=" ">
<polygon fill="white" stroke="black" points="1.5,-112.5 1.5,-131.5 153.5,-131.5 153.5,-112.5 1.5,-112.5"/>
<text text-anchor="middle" x="77.5" y="-119.5" font-family="Helvetica,sans-Serif" font-size="10.00">BayesFilters/StateProcess.h</text>
</a>
</g>
</g>
<!-- Node1&#45;&gt;Node10 -->
<g id="edge10" class="edge">
<title>Node1&#45;&gt;Node10</title>
<path fill="none" stroke="midnightblue" d="M290.24,-224.39C261.81,-214.42 227.48,-201.56 197.5,-188 162.81,-172.31 124.4,-150.71 100.6,-136.8"/>
<polygon fill="midnightblue" stroke="midnightblue" points="102.33,-133.76 91.93,-131.7 98.78,-139.79 102.33,-133.76"/>
</g>
<!-- Node11 -->
<g id="node11" class="node">
<title>Node11</title>
<g id="a_node11"><a xlink:title=" ">
<polygon fill="white" stroke="#bfbfbf" points="434.5,-168.5 434.5,-187.5 492.5,-187.5 492.5,-168.5 434.5,-168.5"/>
<text text-anchor="middle" x="463.5" y="-175.5" font-family="Helvetica,sans-Serif" font-size="10.00">memory</text>
</a>
</g>
</g>
<!-- Node1&#45;&gt;Node11 -->
<g id="edge13" class="edge">
<title>Node1&#45;&gt;Node11</title>
<path fill="none" stroke="midnightblue" d="M383.7,-224.5C401.69,-214.24 423.29,-201.93 439.49,-192.69"/>
<polygon fill="midnightblue" stroke="midnightblue" points="441.37,-195.65 448.32,-187.65 437.9,-189.57 441.37,-195.65"/>
</g>
<!-- Node3 -->
<g id="node3" class="node">
<title>Node3</title>
<g id="a_node3"><a xlink:href="ExogenousProcess_8h.html" target="_top" xlink:title=" ">
<polygon fill="white" stroke="black" points="172,-112.5 172,-131.5 351,-131.5 351,-112.5 172,-112.5"/>
<text text-anchor="middle" x="261.5" y="-119.5" font-family="Helvetica,sans-Serif" font-size="10.00">BayesFilters/ExogenousProcess.h</text>
</a>
</g>
</g>
<!-- Node2&#45;&gt;Node3 -->
<g id="edge2" class="edge">
<title>Node2&#45;&gt;Node3</title>
<path fill="none" stroke="midnightblue" d="M287.38,-168.08C283.09,-160.61 276.84,-149.72 271.56,-140.52"/>
<polygon fill="midnightblue" stroke="midnightblue" points="274.54,-138.68 266.52,-131.75 268.47,-142.17 274.54,-138.68"/>
</g>
<!-- Node2&#45;&gt;Node7 -->
<g id="edge6" class="edge">
<title>Node2&#45;&gt;Node7</title>
<path fill="none" stroke="midnightblue" d="M315.48,-168.44C339.66,-159.44 377.92,-145.19 405.15,-135.05"/>
<polygon fill="midnightblue" stroke="midnightblue" points="406.48,-138.29 414.63,-131.52 404.04,-131.73 406.48,-138.29"/>
</g>
<!-- Node4 -->
<g id="node4" class="node">
<title>Node4</title>
<g id="a_node4"><a xlink:href="VectorDescription_8h.html" target="_top" xlink:title=" ">
<polygon fill="white" stroke="black" points="0,-56.5 0,-75.5 175,-75.5 175,-56.5 0,-56.5"/>
<text text-anchor="middle" x="87.5" y="-63.5" font-family="Helvetica,sans-Serif" font-size="10.00">BayesFilters/VectorDescription.h</text>
</a>
</g>
</g>
<!-- Node3&#45;&gt;Node4 -->
<g id="edge3" class="edge">
<title>Node3&#45;&gt;Node4</title>
<path fill="none" stroke="midnightblue" d="M233.93,-112.44C204.4,-103.28 157.38,-88.69 124.62,-78.52"/>
<polygon fill="midnightblue" stroke="midnightblue" points="125.53,-75.14 114.94,-75.52 123.46,-81.82 125.53,-75.14"/>
</g>
<!-- Node6 -->
<g id="node6" class="node">
<title>Node6</title>
<g id="a_node6"><a xlink:title=" ">
<polygon fill="white" stroke="#bfbfbf" points="203,-56.5 203,-75.5 280,-75.5 280,-56.5 203,-56.5"/>
<text text-anchor="middle" x="241.5" y="-63.5" font-family="Helvetica,sans-Serif" font-size="10.00">Eigen/Dense</text>
</a>
</g>
</g>
<!-- Node3&#45;&gt;Node6 -->
<g id="edge5" class="edge">
<title>Node3&#45;&gt;Node6</title>
<path fill="none" stroke="midnightblue" d="M258.2,-112.08C255.52,-104.85 251.65,-94.41 248.31,-85.4"/>
<polygon fill="midnightblue" stroke="midnightblue" points="251.5,-83.91 244.74,-75.75 244.93,-86.34 251.5,-83.91"/>
</g>
<!-- Node5 -->
<g id="node5" class="node">
<title>Node5</title>
<g id="a_node5"><a xlink:title=" ">
<polygon fill="white" stroke="#bfbfbf" points="61,-0.5 61,-19.5 114,-19.5 114,-0.5 61,-0.5"/>
<text text-anchor="middle" x="87.5" y="-7.5" font-family="Helvetica,sans-Serif" font-size="10.00">cstddef</text>
</a>
</g>
</g>
<!-- Node4&#45;&gt;Node5 -->
<g id="edge4" class="edge">
<title>Node4&#45;&gt;Node5</title>
<path fill="none" stroke="midnightblue" d="M87.5,-56.08C87.5,-49.01 87.5,-38.86 87.5,-29.99"/>
<polygon fill="midnightblue" stroke="midnightblue" points="91,-29.75 87.5,-19.75 84,-29.75 91,-29.75"/>
</g>
<!-- Node8 -->
<g id="node8" class="node">
<title>Node8</title>
<g id="a_node8"><a xlink:href="Skipper_8h.html" target="_top" xlink:title=" ">
<polygon fill="white" stroke="black" points="375,-56.5 375,-75.5 500,-75.5 500,-56.5 375,-56.5"/>
<text text-anchor="middle" x="437.5" y="-63.5" font-family="Helvetica,sans-Serif" font-size="10.00">BayesFilters/Skipper.h</text>
</a>
</g>
</g>
<!-- Node7&#45;&gt;Node8 -->
<g id="edge7" class="edge">
<title>Node7&#45;&gt;Node8</title>
<path fill="none" stroke="midnightblue" d="M437.5,-112.08C437.5,-105.01 437.5,-94.86 437.5,-85.99"/>
<polygon fill="midnightblue" stroke="midnightblue" points="441,-85.75 437.5,-75.75 434,-85.75 441,-85.75"/>
</g>
<!-- Node9 -->
<g id="node9" class="node">
<title>Node9</title>
<g id="a_node9"><a xlink:title=" ">
<polygon fill="white" stroke="#bfbfbf" points="415.5,-0.5 415.5,-19.5 459.5,-19.5 459.5,-0.5 415.5,-0.5"/>
<text text-anchor="middle" x="437.5" y="-7.5" font-family="Helvetica,sans-Serif" font-size="10.00">string</text>
</a>
</g>
</g>
<!-- Node8&#45;&gt;Node9 -->
<g id="edge8" class="edge">
<title>Node8&#45;&gt;Node9</title>
<path fill="none" stroke="midnightblue" d="M437.5,-56.08C437.5,-49.01 437.5,-38.86 437.5,-29.99"/>
<polygon fill="midnightblue" stroke="midnightblue" points="441,-29.75 437.5,-19.75 434,-29.75 441,-29.75"/>
</g>
<!-- Node10&#45;&gt;Node4 -->
<g id="edge11" class="edge">
<title>Node10&#45;&gt;Node4</title>
<path fill="none" stroke="midnightblue" d="M79.15,-112.08C80.48,-104.93 82.38,-94.64 84.04,-85.69"/>
<polygon fill="midnightblue" stroke="midnightblue" points="87.5,-86.22 85.88,-75.75 80.62,-84.95 87.5,-86.22"/>
</g>
<!-- Node10&#45;&gt;Node6 -->
<g id="edge12" class="edge">
<title>Node10&#45;&gt;Node6</title>
<path fill="none" stroke="midnightblue" d="M103.49,-112.44C131.2,-103.32 175.25,-88.81 206.12,-78.65"/>
<polygon fill="midnightblue" stroke="midnightblue" points="207.23,-81.97 215.64,-75.52 205.04,-75.32 207.23,-81.97"/>
</g>
</g>
</svg>
