<?xml version="1.0" encoding="UTF-8" standalone="no"?>
<!DOCTYPE svg PUBLIC "-//W3C//DTD SVG 1.1//EN"
 "http://www.w3.org/Graphics/SVG/1.1/DTD/svg11.dtd">
<!-- Generated by graphviz version 2.43.0 (0)
 -->
<!-- Title: /home/user/bayes&#45;filters&#45;lib/src/BayesFilters/src/StateModel.cpp Pages: 1 -->
<svg width="514pt" height="330pt"
 viewBox="0.00 0.00 514.00 330.00" xmlns="http://www.w3.org/2000/svg" xmlns:xlink="http://www.w3.org/1999/xlink">
<g id="graph0" class="graph" transform="scale(1 1) rotate(0) translate(4 326)">
<title>/home/user/bayes&#45;filters&#45;lib/src/BayesFilters/src/StateModel.cpp</title>
<polygon fill="white" stroke="transparent" points="-4,4 -4,-326 510,-326 510,4 -4,4"/>
<!-- Node1 -->
<g id="node1" class="node">
<title>Node1</title>
<g id="a_node1"><a xlink:title=" ">
<polygon fill="#bfbfbf" stroke="black" points="282,-280.5 282,-321.5 417,-321.5 417,-280.5 282,-280.5"/>
<text text-anchor="start" x="290" y="-309.5" font-family="Helvetica,sans-Serif" font-size="10.00">/home/user/bayes&#45;filters</text>
<text text-anchor="start" x="290" y="-298.5" font-family="Helvetica,sans-Serif" font-size="10.00">&#45;lib/src/BayesFilters/src</text>
<text text-anchor="middle" x="349.5" y="-287.5" font-family="Helvetica,sans-Serif" font-size="10.00">/StateModel.cpp</text>
</a>
</g>
</g>
<!-- Node2 -->
<g id="node2" class="node">
<title>Node2</title>
<g id="a_node2"><a xlink:href="StateModel_8h.html" target="_top" xlink:title=" ">
<polygon fill="white" stroke="black" points="277.5,-224.5 277.5,-243.5 421.5,-243.5 421.5,-224.5 277.5,-224.5"/>
<text text-anchor="middle" x="349.5" y="-231.5" font-family="Helvetica,sans-Serif" font-size="10.00">BayesFilters/StateModel.h</text>
</a>
</g>
</g>
<!-- Node1&#45;&gt;Node2 -->
<g id="edge1" class="edge">
<title>Node1&#45;&gt;Node2</title>
<path fill="none" stroke="midnightblue" d="M349.5,-280.5C349.5,-272.07 349.5,-262.24 349.5,-253.87"/>
<polygon fill="midnightblue" stroke="midnightblue" points="353,-253.65 349.5,-243.65 346,-253.65 353,-253.65"/>
</g>
<!-- Node3 -->
<g id="node3" class="node">
<title>Node3</title>
<g id="a_node3"><a xlink:href="ExogenousModel_8h.html" target="_top" xlink:title=" ">
<polygon fill="white" stroke="black" points="207,-168.5 207,-187.5 378,-187.5 378,-168.5 207,-168.5"/>
<text text-anchor="middle" x="292.5" y="-175.5" font-family="Helvetica,sans-Serif" font-size="10.00">BayesFilters/ExogenousModel.h</text>
</a>
</g>
</g>
<!-- Node2&#45;&gt;Node3 -->
<g id="edge2" class="edge">
<title>Node2&#45;&gt;Node3</title>
<path fill="none" stroke="midnightblue" d="M340.34,-224.32C332,-216.42 319.47,-204.55 309.32,-194.94"/>
<polygon fill="midnightblue" stroke="midnightblue" points="311.49,-192.17 301.82,-187.83 306.68,-197.25 311.49,-192.17"/>
</g>
<!-- Node8 -->
<g id="node8" class="node">
<title>Node8</title>
<g id="a_node8"><a xlink:href="Skippable_8h.html" target="_top" xlink:title=" ">
<polygon fill="white" stroke="black" points="369,-112.5 369,-131.5 506,-131.5 506,-112.5 369,-112.5"/>
<text text-anchor="middle" x="437.5" y="-119.5" font-family="Helvetica,sans-Serif" font-size="10.00">BayesFilters/Skippable.h</text>
</a>
</g>
</g>
<!-- Node2&#45;&gt;Node8 -->
<g id="edge10" class="edge">
<title>Node2&#45;&gt;Node8</title>
<path fill="none" stroke="midnightblue" d="M356.9,-224.47C364.65,-215.49 377.1,-200.9 387.5,-188 400.57,-171.79 415.02,-152.89 425.02,-139.66"/>
<polygon fill="midnightblue" stroke="midnightblue" points="427.93,-141.6 431.15,-131.51 422.34,-137.39 427.93,-141.6"/>
</g>
<!-- Node11 -->
<g id="node11" class="node">
<title>Node11</title>
<g id="a_node11"><a xlink:href="StateProcess_8h.html" target="_top" xlink:title=" ">
<polygon fill="white" stroke="black" points="1.5,-112.5 1.5,-131.5 153.5,-131.5 153.5,-112.5 1.5,-112.5"/>
<text text-anchor="middle" x="77.5" y="-119.5" font-family="Helvetica,sans-Serif" font-size="10.00">BayesFilters/StateProcess.h</text>
</a>
</g>
</g>
<!-- Node2&#45;&gt;Node11 -->
<g id="edge11" class="edge">
<title>Node2&#45;&gt;Node11</title>
<path fill="none" stroke="midnightblue" d="M312.83,-224.44C281.58,-216.6 235.78,-203.83 197.5,-188 161.93,-173.29 123.19,-151.08 99.62,-136.81"/>
<polygon fill="midnightblue" stroke="midnightblue" points="101.43,-133.81 91.08,-131.58 97.78,-139.78 101.43,-133.81"/>
</g>
<!-- Node12 -->
<g id="node12" class="node">
<title>Node12</title>
<g id="a_node12"><a xlink:title=" ">
<polygon fill="white" stroke="#bfbfbf" points="434.5,-168.5 434.5,-187.5 492.5,-187.5 492.5,-168.5 434.5,-168.5"/>
<text text-anchor="middle" x="463.5" y="-175.5" font-family="Helvetica,sans-Serif" font-size="10.00">memory</text>
</a>
</g>
</g>
<!-- Node2&#45;&gt;Node12 -->
<g id="edge14" class="edge">
<title>Node2&#45;&gt;Node12</title>
<path fill="none" stroke="midnightblue" d="M367.56,-224.44C386.07,-215.68 415.08,-201.94 436.36,-191.86"/>
<polygon fill="midnightblue" stroke="midnightblue" points="437.98,-194.96 445.52,-187.52 434.99,-188.63 437.98,-194.96"/>
</g>
<!-- Node4 -->
<g id="node4" class="node">
<title>Node4</title>
<g id="a_node4"><a xlink:href="ExogenousProcess_8h.html" target="_top" xlink:title=" ">
<polygon fill="white" stroke="black" points="172,-112.5 172,-131.5 351,-131.5 351,-112.5 172,-112.5"/>
<text text-anchor="middle" x="261.5" y="-119.5" font-family="Helvetica,sans-Serif" font-size="10.00">BayesFilters/ExogenousProcess.h</text>
</a>
</g>
</g>
<!-- Node3&#45;&gt;Node4 -->
<g id="edge3" class="edge">
<title>Node3&#45;&gt;Node4</title>
<path fill="none" stroke="midnightblue" d="M287.38,-168.08C283.09,-160.61 276.84,-149.72 271.56,-140.52"/>
<polygon fill="midnightblue" stroke="midnightblue" points="274.54,-138.68 266.52,-131.75 268.47,-142.17 274.54,-138.68"/>
</g>
<!-- Node3&#45;&gt;Node8 -->
<g id="edge7" class="edge">
<title>Node3&#45;&gt;Node8</title>
<path fill="none" stroke="midnightblue" d="M315.48,-168.44C339.66,-159.44 377.92,-145.19 405.15,-135.05"/>
<polygon fill="midnightblue" stroke="midnightblue" points="406.48,-138.29 414.63,-131.52 404.04,-131.73 406.48,-138.29"/>
</g>
<!-- Node5 -->
<g id="node5" class="node">
<title>Node5</title>
<g id="a_node5"><a xlink:href="VectorDescription_8h.html" target="_top" xlink:title=" ">
<polygon fill="white" stroke="black" points="0,-56.5 0,-75.5 175,-75.5 175,-56.5 0,-56.5"/>
<text text-anchor="middle" x="87.5" y="-63.5" font-family="Helvetica,sans-Serif" font-size="10.00">BayesFilters/VectorDescription.h</text>
</a>
</g>
</g>
<!-- Node4&#45;&gt;Node5 -->
<g id="edge4" class="edge">
<title>Node4&#45;&gt;Node5</title>
<path fill="none" stroke="midnightblue" d="M233.93,-112.44C204.4,-103.28 157.38,-88.69 124.62,-78.52"/>
<polygon fill="midnightblue" stroke="midnightblue" points="125.53,-75.14 114.94,-75.52 123.46,-81.82 125.53,-75.14"/>
</g>
<!-- Node7 -->
<g id="node7" class="node">
<title>Node7</title>
<g id="a_node7"><a xlink:title=" ">
<polygon fill="white" stroke="#bfbfbf" points="203,-56.5 203,-75.5 280,-75.5 280,-56.5 203,-56.5"/>
<text text-anchor="middle" x="241.5" y="-63.5" font-family="Helvetica,sans-Serif" font-size="10.00">Eigen/Dense</text>
</a>
</g>
</g>
<!-- Node4&#45;&gt;Node7 -->
<g id="edge6" class="edge">
<title>Node4&#45;&gt;Node7</title>
<path fill="none" stroke="midnightblue" d="M258.2,-112.08C255.52,-104.85 251.65,-94.41 248.31,-85.4"/>
<polygon fill="midnightblue" stroke="midnightblue" points="251.5,-83.91 244.74,-75.75 244.93,-86.34 251.5,-83.91"/>
</g>
<!-- Node6 -->
<g id="node6" class="node">
<title>Node6</title>
<g id="a_node6"><a xlink:title=" ">
<polygon fill="white" stroke="#bfbfbf" points="61,-0.5 61,-19.5 114,-19.5 114,-0.5 61,-0.5"/>
<text text-anchor="middle" x="87.5" y="-7.5" font-family="Helvetica,sans-Serif" font-size="10.00">cstddef</text>
</a>
</g>
</g>
<!-- Node5&#45;&gt;Node6 -->
<g id="edge5" class="edge">
<title>Node5&#45;&gt;Node6</title>
<path fill="none" stroke="midnightblue" d="M87.5,-56.08C87.5,-49.01 87.5,-38.86 87.5,-29.99"/>
<polygon fill="midnightblue" stroke="midnightblue" points="91,-29.75 87.5,-19.75 84,-29.75 91,-29.75"/>
</g>
<!-- Node9 -->
<g id="node9" class="node">
<title>Node9</title>
<g id="a_node9"><a xlink:href="Skipper_8h.html" target="_top" xlink:title=" ">
<polygon fill="white" stroke="black" points="375,-56.5 375,-75.5 500,-75.5 500,-56.5 375,-56.5"/>
<text text-anchor="middle" x="437.5" y="-63.5" font-family="Helvetica,sans-Serif" font-size="10.00">BayesFilters/Skipper.h</text>
</a>
</g>
</g>
<!-- Node8&#45;&gt;Node9 -->
<g id="edge8" class="edge">
<title>Node8&#45;&gt;Node9</title>
<path fill="none" stroke="midnightblue" d="M437.5,-112.08C437.5,-105.01 437.5,-94.86 437.5,-85.99"/>
<polygon fill="midnightblue" stroke="midnightblue" points="441,-85.75 437.5,-75.75 434,-85.75 441,-85.75"/>
</g>
<!-- Node10 -->
<g id="node10" class="node">
<title>Node10</title>
<g id="a_node10"><a xlink:title=" ">
<polygon fill="white" stroke="#bfbfbf" points="415.5,-0.5 415.5,-19.5 459.5,-19.5 459.5,-0.5 415.5,-0.5"/>
<text text-anchor="middle" x="437.5" y="-7.5" font-family="Helvetica,sans-Serif" font-size="10.00">string</text>
</a>
</g>
</g>
<!-- Node9&#45;&gt;Node10 -->
<g id="edge9" class="edge">
<title>Node9&#45;&gt;Node10</title>
<path fill="none" stroke="midnightblue" d="M437.5,-56.08C437.5,-49.01 437.5,-38.86 437.5,-29.99"/>
<polygon fill="midnightblue" stroke="midnightblue" points="441,-29.75 437.5,-19.75 434,-29.75 441,-29.75"/>
</g>
<!-- Node11&#45;&gt;Node5 -->
<g id="edge12" class="edge">
<title>Node11&#45;&gt;Node5</title>
<path fill="none" stroke="midnightblue" d="M79.15,-112.08C80.48,-104.93 82.38,-94.64 84.04,-85.69"/>
<polygon fill="midnightblue" stroke="midnightblue" points="87.5,-86.22 85.88,-75.75 80.62,-84.95 87.5,-86.22"/>
</g>
<!-- Node11&#45;&gt;Node7 -->
<g id="edge13" class="edge">
<title>Node11&#45;&gt;Node7</title>
<path fill="none" stroke="midnightblue" d="M103.49,-112.44C131.2,-103.32 175.25,-88.81 206.12,-78.65"/>
<polygon fill="midnightblue" stroke="midnightblue" points="207.23,-81.97 215.64,-75.52 205.04,-75.32 207.23,-81.97"/>
</g>
</g>
</svg>
