<?xml version="1.0" encoding="UTF-8" standalone="no"?>
<!DOCTYPE svg PUBLIC "-//W3C//DTD SVG 1.1//EN"
 "http://www.w3.org/Graphics/SVG/1.1/DTD/svg11.dtd">
<!-- Generated by graphviz version 2.43.0 (0)
 -->
<!-- Title: bfl::sigma_point::UTWeight::UTWeight Pages: 1 -->
<svg width="660pt" height="176pt"
 viewBox="0.00 0.00 660.00 176.00" xmlns="http://www.w3.org/2000/svg" xmlns:xlink="http://www.w3.org/1999/xlink">
<g id="graph0" class="graph" transform="scale(1 1) rotate(0) translate(4 172)">
<title>bfl::sigma_point::UTWeight::UTWeight</title>
<polygon fill="white" stroke="transparent" points="-4,4 -4,-172 656,-172 656,4 -4,4"/>
<!-- Node1 -->
<g id="node1" class="node">
<title>Node1</title>
<g id="a_node1"><a xlink:title="Constructs the weights from a bfl::VectorDescription and UT parameters alpha, beta and kappa.">
<polygon fill="#bfbfbf" stroke="black" points="0,-46.5 0,-76.5 148,-76.5 148,-46.5 0,-46.5"/>
<text text-anchor="start" x="8" y="-64.5" font-family="Helvetica,sans-Serif" font-size="10.00">bfl::sigma_point::UTWeight</text>
<text text-anchor="middle" x="74" y="-53.5" font-family="Helvetica,sans-Serif" font-size="10.00">::UTWeight</text>
</a>
</g>
</g>
<!-- Node2 -->
<g id="node2" class="node">
<title>Node2</title>
<g id="a_node2"><a xlink:href="classbfl_1_1VectorDescription.html#a0522f96ed1f567d3a39fe436a7c01154" target="_top" xlink:title=" ">
<polygon fill="white" stroke="black" points="199,-71.5 199,-101.5 320,-101.5 320,-71.5 199,-71.5"/>
<text text-anchor="start" x="207" y="-89.5" font-family="Helvetica,sans-Serif" font-size="10.00">bfl::VectorDescription</text>
<text text-anchor="middle" x="259.5" y="-78.5" font-family="Helvetica,sans-Serif" font-size="10.00">::dof_size</text>
</a>
</g>
</g>
<!-- Node1&#45;&gt;Node2 -->
<g id="edge1" class="edge">
<title>Node1&#45;&gt;Node2</title>
<path fill="none" stroke="midnightblue" d="M148.05,-71.45C161.51,-73.29 175.53,-75.2 188.89,-77.02"/>
<polygon fill="midnightblue" stroke="midnightblue" points="188.57,-80.5 198.95,-78.39 189.51,-73.57 188.57,-80.5"/>
</g>
<!-- Node8 -->
<g id="node8" class="node">
<title>Node8</title>
<g id="a_node8"><a xlink:href="namespacebfl_1_1sigma__point.html#a2cdca209c158edd6440c2f077b345799" target="_top" xlink:title=" ">
<polygon fill="white" stroke="black" points="184,-22.5 184,-52.5 335,-52.5 335,-22.5 184,-22.5"/>
<text text-anchor="start" x="192" y="-40.5" font-family="Helvetica,sans-Serif" font-size="10.00">bfl::sigma_point::unscented</text>
<text text-anchor="middle" x="259.5" y="-29.5" font-family="Helvetica,sans-Serif" font-size="10.00">_weights</text>
</a>
</g>
</g>
<!-- Node1&#45;&gt;Node8 -->
<g id="edge9" class="edge">
<title>Node1&#45;&gt;Node8</title>
<path fill="none" stroke="midnightblue" d="M148.05,-51.95C156.53,-50.84 165.23,-49.7 173.84,-48.57"/>
<polygon fill="midnightblue" stroke="midnightblue" points="174.44,-52.02 183.9,-47.26 173.53,-45.08 174.44,-52.02"/>
</g>
<!-- Node3 -->
<g id="node3" class="node">
<title>Node3</title>
<g id="a_node3"><a xlink:href="classbfl_1_1VectorDescription.html#a08a52559af5e67e1f225466a77d852ff" target="_top" xlink:title=" ">
<polygon fill="white" stroke="black" points="371,-137.5 371,-167.5 495,-167.5 495,-137.5 371,-137.5"/>
<text text-anchor="start" x="379" y="-155.5" font-family="Helvetica,sans-Serif" font-size="10.00">bfl::VectorDescription</text>
<text text-anchor="middle" x="433" y="-144.5" font-family="Helvetica,sans-Serif" font-size="10.00">::circular_components</text>
</a>
</g>
</g>
<!-- Node2&#45;&gt;Node3 -->
<g id="edge2" class="edge">
<title>Node2&#45;&gt;Node3</title>
<path fill="none" stroke="midnightblue" d="M299.85,-101.64C324.68,-111.2 356.95,-123.62 383.39,-133.79"/>
<polygon fill="midnightblue" stroke="midnightblue" points="382.25,-137.1 392.84,-137.43 384.76,-130.57 382.25,-137.1"/>
</g>
<!-- Node4 -->
<g id="node4" class="node">
<title>Node4</title>
<g id="a_node4"><a xlink:href="classbfl_1_1VectorDescription.html#a6f6e3b3a084ca449ff1ac4c7b82aec6f" target="_top" xlink:title=" ">
<polygon fill="white" stroke="black" points="531,-98.5 531,-128.5 652,-128.5 652,-98.5 531,-98.5"/>
<text text-anchor="start" x="539" y="-116.5" font-family="Helvetica,sans-Serif" font-size="10.00">bfl::VectorDescription</text>
<text text-anchor="middle" x="591.5" y="-105.5" font-family="Helvetica,sans-Serif" font-size="10.00">::linear_size</text>
</a>
</g>
</g>
<!-- Node2&#45;&gt;Node4 -->
<g id="edge3" class="edge">
<title>Node2&#45;&gt;Node4</title>
<path fill="none" stroke="midnightblue" d="M320.26,-91.39C376.71,-96.01 461.36,-102.93 520.85,-107.8"/>
<polygon fill="midnightblue" stroke="midnightblue" points="520.65,-111.3 530.91,-108.62 521.22,-104.32 520.65,-111.3"/>
</g>
<!-- Node5 -->
<g id="node5" class="node">
<title>Node5</title>
<g id="a_node5"><a xlink:href="classbfl_1_1VectorDescription.html#a45e0d5245f401ede3601dd7e653a6b4e" target="_top" xlink:title=" ">
<polygon fill="white" stroke="black" points="531,-0.5 531,-30.5 652,-30.5 652,-0.5 531,-0.5"/>
<text text-anchor="start" x="539" y="-18.5" font-family="Helvetica,sans-Serif" font-size="10.00">bfl::VectorDescription</text>
<text text-anchor="middle" x="591.5" y="-7.5" font-family="Helvetica,sans-Serif" font-size="10.00">::noise_size</text>
</a>
</g>
</g>
<!-- Node2&#45;&gt;Node5 -->
<g id="edge4" class="edge">
<title>Node2&#45;&gt;Node5</title>
<path fill="none" stroke="midnightblue" d="M310.4,-71.49C318.74,-68.49 327.21,-65.13 335,-61.5 352,-53.58 353.25,-45.55 371,-39.5 419.3,-23.02 476.73,-17.19 520.73,-15.39"/>
<polygon fill="midnightblue" stroke="midnightblue" points="520.88,-18.89 530.75,-15.04 520.64,-11.89 520.88,-18.89"/>
</g>
<!-- Node6 -->
<g id="node6" class="node">
<title>Node6</title>
<g id="a_node6"><a xlink:href="classbfl_1_1VectorDescription.html#a1c3807b9dc0336dacd3fe2a723c77cbd" target="_top" xlink:title=" ">
<polygon fill="white" stroke="black" points="372.5,-49.5 372.5,-79.5 493.5,-79.5 493.5,-49.5 372.5,-49.5"/>
<text text-anchor="start" x="380.5" y="-67.5" font-family="Helvetica,sans-Serif" font-size="10.00">bfl::VectorDescription</text>
<text text-anchor="middle" x="433" y="-56.5" font-family="Helvetica,sans-Serif" font-size="10.00">::total_size</text>
</a>
</g>
</g>
<!-- Node2&#45;&gt;Node6 -->
<g id="edge5" class="edge">
<title>Node2&#45;&gt;Node6</title>
<path fill="none" stroke="midnightblue" d="M320,-78.87C333.62,-77.12 348.23,-75.25 362.24,-73.45"/>
<polygon fill="midnightblue" stroke="midnightblue" points="362.84,-76.9 372.31,-72.16 361.95,-69.96 362.84,-76.9"/>
</g>
<!-- Node6&#45;&gt;Node4 -->
<g id="edge7" class="edge">
<title>Node6&#45;&gt;Node4</title>
<path fill="none" stroke="midnightblue" d="M482.23,-79.6C498.22,-84.61 516.19,-90.23 532.82,-95.44"/>
<polygon fill="midnightblue" stroke="midnightblue" points="531.84,-98.8 542.43,-98.45 533.93,-92.12 531.84,-98.8"/>
</g>
<!-- Node6&#45;&gt;Node5 -->
<g id="edge8" class="edge">
<title>Node6&#45;&gt;Node5</title>
<path fill="none" stroke="midnightblue" d="M482.23,-49.4C498.22,-44.39 516.19,-38.77 532.82,-33.56"/>
<polygon fill="midnightblue" stroke="midnightblue" points="533.93,-36.88 542.43,-30.55 531.84,-30.2 533.93,-36.88"/>
</g>
<!-- Node7 -->
<g id="node7" class="node">
<title>Node7</title>
<g id="a_node7"><a xlink:href="classbfl_1_1VectorDescription.html#a02aa208e08cb3130f6f2c1393dc9aa1a" target="_top" xlink:title=" ">
<polygon fill="white" stroke="black" points="531,-49.5 531,-79.5 652,-79.5 652,-49.5 531,-49.5"/>
<text text-anchor="start" x="539" y="-67.5" font-family="Helvetica,sans-Serif" font-size="10.00">bfl::VectorDescription</text>
<text text-anchor="middle" x="591.5" y="-56.5" font-family="Helvetica,sans-Serif" font-size="10.00">::circular_size</text>
</a>
</g>
</g>
<!-- Node6&#45;&gt;Node7 -->
<g id="edge6" class="edge">
<title>Node6&#45;&gt;Node7</title>
<path fill="none" stroke="midnightblue" d="M493.61,-64.5C502.46,-64.5 511.65,-64.5 520.68,-64.5"/>
<polygon fill="midnightblue" stroke="midnightblue" points="520.79,-68 530.79,-64.5 520.79,-61 520.79,-68"/>
</g>
</g>
</svg>
