<?xml version="1.0" encoding="UTF-8" standalone="no"?>
<!DOCTYPE svg PUBLIC "-//W3C//DTD SVG 1.1//EN"
 "http://www.w3.org/Graphics/SVG/1.1/DTD/svg11.dtd">
<!-- Generated by graphviz version 2.43.0 (0)
 -->
<!-- Title: bfl::sigma_point::UTWeight::UTWeight Pages: 1 -->
<!--zoomable 176 -->
<svg id="main" version="1.1" xmlns="http://www.w3.org/2000/svg" xmlns:xlink="http://www.w3.org/1999/xlink" xml:space="preserve" onload="init(evt)">
<style type="text/css"><![CDATA[
.edge:hover path { stroke: red; }
.edge:hover polygon { stroke: red; fill: red; }
]]></style>
<script type="text/javascript"><![CDATA[
var edges = document.getElementsByTagName('g');
if (edges && edges.length) {
  for (var i=0;i<edges.length;i++) {
    if (edges[i].id.substr(0,4)=='edge') {
      edges[i].setAttribute('class','edge');
    }
  }
}
]]></script>
        <defs>
                <circle id="rim" cx="0" cy="0" r="7"/>
                <circle id="rim2" cx="0" cy="0" r="3.5"/>
                <g id="zoomPlus">
                        <use xlink:href="#rim" fill="#404040">
                                <set attributeName="fill" to="#808080" begin="zoomplus.mouseover" end="zoomplus.mouseout"/>
                        </use>
                        <path d="M-4,0h8M0,-4v8" fill="none" stroke="white" stroke-width="1.5" pointer-events="none"/>
                </g>
                <g id="zoomMin">
                        <use xlink:href="#rim" fill="#404040">
                                <set attributeName="fill" to="#808080" begin="zoomminus.mouseover" end="zoomminus.mouseout"/>
                        </use>
                        <path d="M-4,0h8" fill="none" stroke="white" stroke-width="1.5" pointer-events="none"/>
                </g>
                <g id="dirArrow">
                        <path fill="none" stroke="white" stroke-width="1.5" d="M0,-3.0v7 M-2.5,-0.5L0,-3.0L2.5,-0.5"/>
                </g>
               <g id="resetDef">
                       <use xlink:href="#rim2" fill="#404040">
                               <set attributeName="fill" to="#808080" begin="reset.mouseover" end="reset.mouseout"/>
                       </use>
               </g>
        </defs>

<script type="text/javascript">
var viewWidth = 660;
var viewHeight = 176;
var sectionId = 'dynsection-1';
</script>
<script xlink:href="svgpan.js"/>
<svg id="graph" class="graph">
<g id="viewport">
<title>bfl::sigma_point::UTWeight::UTWeight</title>
<polygon fill="white" stroke="transparent" points="-4,4 -4,-172 656,-172 656,4 -4,4"/>
<!-- Node1 -->
<g id="node1" class="node">
<title>Node1</title>
<g id="a_node1"><a xlink:title="Constructs the weights from a bfl::VectorDescription and UT parameters alpha, beta and kappa.">
<polygon fill="#bfbfbf" stroke="black" points="0,-46.5 0,-76.5 148,-76.5 148,-46.5 0,-46.5"/>
<text text-anchor="start" x="8" y="-64.5" font-family="Helvetica,sans-Serif" font-size="10.00">bfl::sigma_point::UTWeight</text>
<text text-anchor="middle" x="74" y="-53.5" font-family="Helvetica,sans-Serif" font-size="10.00">::UTWeight</text>
</a>
</g>
</g>
<!-- Node2 -->
<g id="node2" class="node">
<title>Node2</title>
<g id="a_node2"><a xlink:href="classbfl_1_1VectorDescription.html#a0522f96ed1f567d3a39fe436a7c01154" target="_top" xlink:title=" ">
<polygon fill="white" stroke="black" points="199,-71.5 199,-101.5 320,-101.5 320,-71.5 199,-71.5"/>
<text text-anchor="start" x="207" y="-89.5" font-family="Helvetica,sans-Serif" font-size="10.00">bfl::VectorDescription</text>
<text text-anchor="middle" x="259.5" y="-78.5" font-family="Helvetica,sans-Serif" font-size="10.00">::dof_size</text>
</a>
</g>
</g>
<!-- Node1&#45;&gt;Node2 -->
<g id="edge1" class="edge">
<title>Node1&#45;&gt;Node2</title>
<path fill="none" stroke="midnightblue" d="M148.05,-71.45C161.51,-73.29 175.53,-75.2 188.89,-77.02"/>
<polygon fill="midnightblue" stroke="midnightblue" points="188.57,-80.5 198.95,-78.39 189.51,-73.57 188.57,-80.5"/>
</g>
<!-- Node8 -->
<g id="node8" class="node">
<title>Node8</title>
<g id="a_node8"><a xlink:href="namespacebfl_1_1sigma__point.html#a2cdca209c158edd6440c2f077b345799" target="_top" xlink:title=" ">
<polygon fill="white" stroke="black" points="184,-22.5 184,-52.5 335,-52.5 335,-22.5 184,-22.5"/>
<text text-anchor="start" x="192" y="-40.5" font-family="Helvetica,sans-Serif" font-size="10.00">bfl::sigma_point::unscented</text>
<text text-anchor="middle" x="259.5" y="-29.5" font-family="Helvetica,sans-Serif" font-size="10.00">_weights</text>
</a>
</g>
</g>
<!-- Node1&#45;&gt;Node8 -->
<g id="edge9" class="edge">
<title>Node1&#45;&gt;Node8</title>
<path fill="none" stroke="midnightblue" d="M148.05,-51.95C156.53,-50.84 165.23,-49.7 173.84,-48.57"/>
<polygon fill="midnightblue" stroke="midnightblue" points="174.44,-52.02 183.9,-47.26 173.53,-45.08 174.44,-52.02"/>
</g>
<!-- Node3 -->
<g id="node3" class="node">
<title>Node3</title>
<g id="a_node3"><a xlink:href="classbfl_1_1VectorDescription.html#a08a52559af5e67e1f225466a77d852ff" target="_top" xlink:title=" ">
<polygon fill="white" stroke="black" points="371,-137.5 371,-167.5 495,-167.5 495,-137.5 371,-137.5"/>
<text text-anchor="start" x="379" y="-155.5" font-family="Helvetica,sans-Serif" font-size="10.00">bfl::VectorDescription</text>
<text text-anchor="middle" x="433" y="-144.5" font-family="Helvetica,sans-Serif" font-size="10.00">::circular_components</text>
</a>
</g>
</g>
<!-- Node2&#45;&gt;Node3 -->
<g id="edge2" class="edge">
<title>Node2&#45;&gt;Node3</title>
<path fill="none" stroke="midnightblue" d="M299.85,-101.64C324.68,-111.2 356.95,-123.62 383.39,-133.79"/>
<polygon fill="midnightblue" stroke="midnightblue" points="382.25,-137.1 392.84,-137.43 384.76,-130.57 382.25,-137.1"/>
</g>
<!-- Node4 -->
<g id="node4" class="node">
<title>Node4</title>
<g id="a_node4"><a xlink:href="classbfl_1_1VectorDescription.html#a6f6e3b3a084ca449ff1ac4c7b82aec6f" target="_top" xlink:title=" ">
<polygon fill="white" stroke="black" points="531,-98.5 531,-128.5 652,-128.5 652,-98.5 531,-98.5"/>
<text text-anchor="start" x="539" y="-116.5" font-family="Helvetica,sans-Serif" font-size="10.00">bfl::VectorDescription</text>
<text text-anchor="middle" x="591.5" y="-105.5" font-family="Helvetica,sans-Serif" font-size="10.00">::linear_size</text>
</a>
</g>
</g>
<!-- Node2&#45;&gt;Node4 -->
<g id="edge3" class="edge">
<title>Node2&#45;&gt;Node4</title>
<path fill="none" stroke="midnightblue" d="M320.26,-91.39C376.71,-96.01 461.36,-102.93 520.85,-107.8"/>
<polygon fill="midnightblue" stroke="midnightblue" points="520.65,-111.3 530.91,-108.62 521.22,-104.32 520.65,-111.3"/>
</g>
<!-- Node5 -->
<g id="node5" class="node">
<title>Node5</title>
<g id="a_node5"><a xlink:href="classbfl_1_1VectorDescription.html#a45e0d5245f401ede3601dd7e653a6b4e" target="_top" xlink:title=" ">
<polygon fill="white" stroke="black" points="531,-0.5 531,-30.5 652,-30.5 652,-0.5 531,-0.5"/>
<text text-anchor="start" x="539" y="-18.5" font-family="Helvetica,sans-Serif" font-size="10.00">bfl::VectorDescription</text>
<text text-anchor="middle" x="591.5" y="-7.5" font-family="Helvetica,sans-Serif" font-size="10.00">::noise_size</text>
</a>
</g>
</g>
<!-- Node2&#45;&gt;Node5 -->
<g id="edge4" class="edge">
<title>Node2&#45;&gt;Node5</title>
<path fill="none" stroke="midnightblue" d="M310.4,-71.49C318.74,-68.49 327.21,-65.13 335,-61.5 352,-53.58 353.25,-45.55 371,-39.5 419.3,-23.02 476.73,-17.19 520.73,-15.39"/>
<polygon fill="midnightblue" stroke="midnightblue" points="520.88,-18.89 530.75,-15.04 520.64,-11.89 520.88,-18.89"/>
</g>
<!-- Node6 -->
<g id="node6" class="node">
<title>Node6</title>
<g id="a_node6"><a xlink:href="classbfl_1_1VectorDescription.html#a1c3807b9dc0336dacd3fe2a723c77cbd" target="_top" xlink:title=" ">
<polygon fill="white" stroke="black" points="372.5,-49.5 372.5,-79.5 493.5,-79.5 493.5,-49.5 372.5,-49.5"/>
<text text-anchor="start" x="380.5" y="-67.5" font-family="Helvetica,sans-Serif" font-size="10.00">bfl::VectorDescription</text>
<text text-anchor="middle" x="433" y="-56.5" font-family="Helvetica,sans-Serif" font-size="10.00">::total_size</text>
</a>
</g>
</g>
<!-- Node2&#45;&gt;Node6 -->
<g id="edge5" class="edge">
<title>Node2&#45;&gt;Node6</title>
<path fill="none" stroke="midnightblue" d="M320,-78.87C333.62,-77.12 348.23,-75.25 362.24,-73.45"/>
<polygon fill="midnightblue" stroke="midnightblue" points="362.84,-76.9 372.31,-72.16 361.95,-69.96 362.84,-76.9"/>
</g>
<!-- Node6&#45;&gt;Node4 -->
<g id="edge7" class="edge">
<title>Node6&#45;&gt;Node4</title>
<path fill="none" stroke="midnightblue" d="M482.23,-79.6C498.22,-84.61 516.19,-90.23 532.82,-95.44"/>
<polygon fill="midnightblue" stroke="midnightblue" points="531.84,-98.8 542.43,-98.45 533.93,-92.12 531.84,-98.8"/>
</g>
<!-- Node6&#45;&gt;Node5 -->
<g id="edge8" class="edge">
<title>Node6&#45;&gt;Node5</title>
<path fill="none" stroke="midnightblue" d="M482.23,-49.4C498.22,-44.39 516.19,-38.77 532.82,-33.56"/>
<polygon fill="midnightblue" stroke="midnightblue" points="533.93,-36.88 542.43,-30.55 531.84,-30.2 533.93,-36.88"/>
</g>
<!-- Node7 -->
<g id="node7" class="node">
<title>Node7</title>
<g id="a_node7"><a xlink:href="classbfl_1_1VectorDescription.html#a02aa208e08cb3130f6f2c1393dc9aa1a" target="_top" xlink:title=" ">
<polygon fill="white" stroke="black" points="531,-49.5 531,-79.5 652,-79.5 652,-49.5 531,-49.5"/>
<text text-anchor="start" x="539" y="-67.5" font-family="Helvetica,sans-Serif" font-size="10.00">bfl::VectorDescription</text>
<text text-anchor="middle" x="591.5" y="-56.5" font-family="Helvetica,sans-Serif" font-size="10.00">::circular_size</text>
</a>
</g>
</g>
<!-- Node6&#45;&gt;Node7 -->
<g id="edge6" class="edge">
<title>Node6&#45;&gt;Node7</title>
<path fill="none" stroke="midnightblue" d="M493.61,-64.5C502.46,-64.5 511.65,-64.5 520.68,-64.5"/>
<polygon fill="midnightblue" stroke="midnightblue" points="520.79,-68 530.79,-64.5 520.79,-61 520.79,-68"/>
</g>
</g>
</svg>
        <g id="navigator" transform="translate(0 0)" fill="#404254">
                <rect fill="#f2f5e9" fill-opacity="0.5" stroke="#606060" stroke-width=".5" x="0" y="0" width="60" height="60"/>
                <use id="zoomplus" xlink:href="#zoomPlus" x="17" y="9" onmousedown="handleZoom(evt,'in')"/>
                <use id="zoomminus" xlink:href="#zoomMin" x="42" y="9" onmousedown="handleZoom(evt,'out')"/>
                <use id="reset" xlink:href="#resetDef" x="30" y="36" onmousedown="handleReset()"/>
                <g id="arrowUp" xlink:href="#dirArrow" transform="translate(30 24)" onmousedown="handlePan(0,-1)">
                  <use xlink:href="#rim" fill="#404040">
                        <set attributeName="fill" to="#808080" begin="arrowUp.mouseover" end="arrowUp.mouseout"/>
                  </use>
                  <path fill="none" stroke="white" stroke-width="1.5" d="M0,-3.0v7 M-2.5,-0.5L0,-3.0L2.5,-0.5"/>
                </g>
                <g id="arrowRight" xlink:href="#dirArrow" transform="rotate(90) translate(36 -43)" onmousedown="handlePan(1,0)">
                  <use xlink:href="#rim" fill="#404040">
                        <set attributeName="fill" to="#808080" begin="arrowRight.mouseover" end="arrowRight.mouseout"/>
                  </use>
                  <path fill="none" stroke="white" stroke-width="1.5" d="M0,-3.0v7 M-2.5,-0.5L0,-3.0L2.5,-0.5"/>
                </g>
                <g id="arrowDown" xlink:href="#dirArrow" transform="rotate(180) translate(-30 -48)" onmousedown="handlePan(0,1)">
                  <use xlink:href="#rim" fill="#404040">
                        <set attributeName="fill" to="#808080" begin="arrowDown.mouseover" end="arrowDown.mouseout"/>
                  </use>
                  <path fill="none" stroke="white" stroke-width="1.5" d="M0,-3.0v7 M-2.5,-0.5L0,-3.0L2.5,-0.5"/>
                </g>
                <g id="arrowLeft" xlink:href="#dirArrow" transform="rotate(270) translate(-36 17)" onmousedown="handlePan(-1,0)">
                  <use xlink:href="#rim" fill="#404040">
                        <set attributeName="fill" to="#808080" begin="arrowLeft.mouseover" end="arrowLeft.mouseout"/>
                  </use>
                  <path fill="none" stroke="white" stroke-width="1.5" d="M0,-3.0v7 M-2.5,-0.5L0,-3.0L2.5,-0.5"/>
                </g>
        </g>
        <svg viewBox="0 0 15 15" width="100%" height="30px" preserveAspectRatio="xMaxYMin meet">
         <g id="arrow_out" transform="scale(0.3 0.3)">
          <a xlink:href="structbfl_1_1sigma__point_1_1UTWeight_aa530ecdfb36f1eaffd4caf8a7f663b3b_cgraph_org.svg" target="_base">
           <rect id="button" ry="5" rx="5" y="6" x="6" height="38" width="38"
                fill="#f2f5e9" fill-opacity="0.5" stroke="#606060" stroke-width="1.0"/>
           <path id="arrow"
             d="M 11.500037,31.436501 C 11.940474,20.09759 22.043105,11.32322 32.158766,21.979434 L 37.068811,17.246167 C 37.068811,17.246167 37.088388,32 37.088388,32 L 22.160133,31.978069 C 22.160133,31.978069 26.997745,27.140456 26.997745,27.140456 C 18.528582,18.264221 13.291696,25.230495 11.500037,31.436501 z"
             style="fill:#404040;"/>
          </a>
         </g>
        </svg>
</svg>
