<?xml version="1.0" encoding="UTF-8" standalone="no"?>
<!DOCTYPE svg PUBLIC "-//W3C//DTD SVG 1.1//EN"
 "http://www.w3.org/Graphics/SVG/1.1/DTD/svg11.dtd">
<!-- Generated by graphviz version 2.47.2 (0)
 -->
<!-- Title: /home/xenvre/robot&#45;code/bfl_robotology/src/BayesFilters/src/SUKFCorrection.cpp Pages: 1 -->
<!--zoomable 542 -->
<svg id="main" version="1.1" xmlns="http://www.w3.org/2000/svg" xmlns:xlink="http://www.w3.org/1999/xlink" xml:space="preserve" onload="init(evt)">
<style type="text/css"><![CDATA[
.edge:hover path { stroke: red; }
.edge:hover polygon { stroke: red; fill: red; }
]]></style>
<script type="text/javascript"><![CDATA[
var edges = document.getElementsByTagName('g');
if (edges && edges.length) {
  for (var i=0;i<edges.length;i++) {
    if (edges[i].id.substr(0,4)=='edge') {
      edges[i].setAttribute('class','edge');
    }
  }
}
]]></script>
        <defs>
                <circle id="rim" cx="0" cy="0" r="7"/>
                <circle id="rim2" cx="0" cy="0" r="3.5"/>
                <g id="zoomPlus">
                        <use xlink:href="#rim" fill="#404040">
                                <set attributeName="fill" to="#808080" begin="zoomplus.mouseover" end="zoomplus.mouseout"/>
                        </use>
                        <path d="M-4,0h8M0,-4v8" fill="none" stroke="white" stroke-width="1.5" pointer-events="none"/>
                </g>
                <g id="zoomMin">
                        <use xlink:href="#rim" fill="#404040">
                                <set attributeName="fill" to="#808080" begin="zoomminus.mouseover" end="zoomminus.mouseout"/>
                        </use>
                        <path d="M-4,0h8" fill="none" stroke="white" stroke-width="1.5" pointer-events="none"/>
                </g>
                <g id="dirArrow">
                        <path fill="none" stroke="white" stroke-width="1.5" d="M0,-3.0v7 M-2.5,-0.5L0,-3.0L2.5,-0.5"/>
                </g>
               <g id="resetDef">
                       <use xlink:href="#rim2" fill="#404040">
                               <set attributeName="fill" to="#808080" begin="reset.mouseover" end="reset.mouseout"/>
                       </use>
               </g>
        </defs>

<script type="text/javascript">
var viewWidth = 1362;
var viewHeight = 542;
var sectionId = 'dynsection-0';
</script>
<script xlink:href="svgpan.js"/>
<svg id="graph" class="graph">
<g id="viewport">
<title>/home/xenvre/robot&#45;code/bfl_robotology/src/BayesFilters/src/SUKFCorrection.cpp</title>
<polygon fill="white" stroke="transparent" points="-4,4 -4,-538 1357.5,-538 1357.5,4 -4,4"/>
<!-- Node1 -->
<g id="node1" class="node">
<title>Node1</title>
<g id="a_node1"><a xlink:title=" ">
<polygon fill="#bfbfbf" stroke="black" points="1191.5,-481.5 1191.5,-533.5 1301.5,-533.5 1301.5,-481.5 1191.5,-481.5"/>
<text text-anchor="start" x="1199.5" y="-521.5" font-family="Helvetica,sans-Serif" font-size="10.00">/home/xenvre/robot</text>
<text text-anchor="start" x="1199.5" y="-510.5" font-family="Helvetica,sans-Serif" font-size="10.00">&#45;code/bfl_robotology</text>
<text text-anchor="start" x="1199.5" y="-499.5" font-family="Helvetica,sans-Serif" font-size="10.00">/src/BayesFilters/src</text>
<text text-anchor="middle" x="1246.5" y="-488.5" font-family="Helvetica,sans-Serif" font-size="10.00">/SUKFCorrection.cpp</text>
</a>
</g>
</g>
<!-- Node2 -->
<g id="node2" class="node">
<title>Node2</title>
<g id="a_node2"><a xlink:href="SUKFCorrection_8h.html" target="_top" xlink:title=" ">
<polygon fill="white" stroke="black" points="872,-425.5 872,-444.5 1027,-444.5 1027,-425.5 872,-425.5"/>
<text text-anchor="middle" x="949.5" y="-432.5" font-family="Helvetica,sans-Serif" font-size="10.00">BayesFilters/SUKFCorrection.h</text>
</a>
</g>
</g>
<!-- Node1&#45;&gt;Node2 -->
<g id="edge1" class="edge">
<title>Node1&#45;&gt;Node2</title>
<path fill="none" stroke="midnightblue" d="M1191.33,-493.4C1134.91,-480.01 1048.27,-459.44 995.45,-446.91"/>
<polygon fill="midnightblue" stroke="midnightblue" points="996.21,-443.49 985.67,-444.59 994.6,-450.3 996.21,-443.49"/>
</g>
<!-- Node30 -->
<g id="node30" class="node">
<title>Node30</title>
<g id="a_node30"><a xlink:href="directional__statistics_8h.html" target="_top" xlink:title=" ">
<polygon fill="white" stroke="black" points="1187,-358.5 1187,-388.5 1306,-388.5 1306,-358.5 1187,-358.5"/>
<text text-anchor="start" x="1195" y="-376.5" font-family="Helvetica,sans-Serif" font-size="10.00">BayesFilters/directional</text>
<text text-anchor="middle" x="1246.5" y="-365.5" font-family="Helvetica,sans-Serif" font-size="10.00">_statistics.h</text>
</a>
</g>
</g>
<!-- Node1&#45;&gt;Node30 -->
<g id="edge49" class="edge">
<title>Node1&#45;&gt;Node30</title>
<path fill="none" stroke="midnightblue" d="M1246.5,-481.36C1246.5,-457.6 1246.5,-422.18 1246.5,-398.72"/>
<polygon fill="midnightblue" stroke="midnightblue" points="1250,-398.57 1246.5,-388.57 1243,-398.57 1250,-398.57"/>
</g>
<!-- Node31 -->
<g id="node31" class="node">
<title>Node31</title>
<g id="a_node31"><a xlink:href="utils_8h.html" target="_top" xlink:title=" ">
<polygon fill="white" stroke="black" points="1250,-112.5 1250,-131.5 1351,-131.5 1351,-112.5 1250,-112.5"/>
<text text-anchor="middle" x="1300.5" y="-119.5" font-family="Helvetica,sans-Serif" font-size="10.00">BayesFilters/utils.h</text>
</a>
</g>
</g>
<!-- Node1&#45;&gt;Node31 -->
<g id="edge51" class="edge">
<title>Node1&#45;&gt;Node31</title>
<path fill="none" stroke="midnightblue" d="M1276.29,-481.48C1301.82,-457.08 1334.5,-417.47 1334.5,-374.5 1334.5,-374.5 1334.5,-374.5 1334.5,-238.5 1334.5,-202.77 1319.34,-163.26 1309.27,-140.95"/>
<polygon fill="midnightblue" stroke="midnightblue" points="1312.36,-139.3 1304.94,-131.73 1306.02,-142.27 1312.36,-139.3"/>
</g>
<!-- Node3 -->
<g id="node3" class="node">
<title>Node3</title>
<g id="a_node3"><a xlink:href="AdditiveMeasurementModel_8h.html" target="_top" xlink:title=" ">
<polygon fill="white" stroke="black" points="344,-291.5 344,-321.5 513,-321.5 513,-291.5 344,-291.5"/>
<text text-anchor="start" x="352" y="-309.5" font-family="Helvetica,sans-Serif" font-size="10.00">BayesFilters/AdditiveMeasurement</text>
<text text-anchor="middle" x="428.5" y="-298.5" font-family="Helvetica,sans-Serif" font-size="10.00">Model.h</text>
</a>
</g>
</g>
<!-- Node2&#45;&gt;Node3 -->
<g id="edge2" class="edge">
<title>Node2&#45;&gt;Node3</title>
<path fill="none" stroke="midnightblue" d="M871.85,-428.11C807.25,-421.98 713.29,-410.22 633.5,-389 573.53,-373.05 507.36,-344.65 466.86,-325.94"/>
<polygon fill="midnightblue" stroke="midnightblue" points="468.17,-322.69 457.63,-321.64 465.21,-329.04 468.17,-322.69"/>
</g>
<!-- Node18 -->
<g id="node18" class="node">
<title>Node18</title>
<g id="a_node18"><a xlink:title=" ">
<polygon fill="white" stroke="#bfbfbf" points="1071,-56.5 1071,-75.5 1144,-75.5 1144,-56.5 1071,-56.5"/>
<text text-anchor="middle" x="1107.5" y="-63.5" font-family="Helvetica,sans-Serif" font-size="10.00">Eigen/Dense</text>
</a>
</g>
</g>
<!-- Node2&#45;&gt;Node18 -->
<g id="edge48" class="edge">
<title>Node2&#45;&gt;Node18</title>
<path fill="none" stroke="midnightblue" d="M978.19,-425.41C1040.68,-404.73 1183.5,-345.93 1183.5,-240.5 1183.5,-240.5 1183.5,-240.5 1183.5,-177 1183.5,-137.28 1149.54,-101.5 1127.02,-82.15"/>
<polygon fill="midnightblue" stroke="midnightblue" points="1128.98,-79.24 1119.04,-75.57 1124.52,-84.63 1128.98,-79.24"/>
</g>
<!-- Node19 -->
<g id="node19" class="node">
<title>Node19</title>
<g id="a_node19"><a xlink:href="GaussianCorrection_8h.html" target="_top" xlink:title=" ">
<polygon fill="white" stroke="black" points="949,-297 949,-316 1118,-316 1118,-297 949,-297"/>
<text text-anchor="middle" x="1033.5" y="-304" font-family="Helvetica,sans-Serif" font-size="10.00">BayesFilters/GaussianCorrection.h</text>
</a>
</g>
</g>
<!-- Node2&#45;&gt;Node19 -->
<g id="edge20" class="edge">
<title>Node2&#45;&gt;Node19</title>
<path fill="none" stroke="midnightblue" d="M955.27,-425.31C969,-404.63 1003.8,-352.23 1022,-324.82"/>
<polygon fill="midnightblue" stroke="midnightblue" points="1025.07,-326.52 1027.69,-316.26 1019.24,-322.65 1025.07,-326.52"/>
</g>
<!-- Node20 -->
<g id="node20" class="node">
<title>Node20</title>
<g id="a_node20"><a xlink:href="GaussianMixture_8h.html" target="_top" xlink:title=" ">
<polygon fill="white" stroke="black" points="873.5,-230 873.5,-249 1029.5,-249 1029.5,-230 873.5,-230"/>
<text text-anchor="middle" x="951.5" y="-237" font-family="Helvetica,sans-Serif" font-size="10.00">BayesFilters/GaussianMixture.h</text>
</a>
</g>
</g>
<!-- Node2&#45;&gt;Node20 -->
<g id="edge26" class="edge">
<title>Node2&#45;&gt;Node20</title>
<path fill="none" stroke="midnightblue" d="M947.76,-425.27C943.55,-402.89 933.56,-341.67 939.5,-291 940.75,-280.32 943.44,-268.63 945.96,-259.18"/>
<polygon fill="midnightblue" stroke="midnightblue" points="949.39,-259.9 948.74,-249.33 942.66,-258 949.39,-259.9"/>
</g>
<!-- Node21 -->
<g id="node21" class="node">
<title>Node21</title>
<g id="a_node21"><a xlink:href="sigma__point_8h.html" target="_top" xlink:title=" ">
<polygon fill="white" stroke="black" points="643,-358.5 643,-388.5 744,-388.5 744,-358.5 643,-358.5"/>
<text text-anchor="start" x="651" y="-376.5" font-family="Helvetica,sans-Serif" font-size="10.00">BayesFilters/sigma</text>
<text text-anchor="middle" x="693.5" y="-365.5" font-family="Helvetica,sans-Serif" font-size="10.00">_point.h</text>
</a>
</g>
</g>
<!-- Node2&#45;&gt;Node21 -->
<g id="edge27" class="edge">
<title>Node2&#45;&gt;Node21</title>
<path fill="none" stroke="midnightblue" d="M912.82,-425.48C871.43,-415.86 803.46,-400.06 754.14,-388.59"/>
<polygon fill="midnightblue" stroke="midnightblue" points="754.76,-385.15 744.23,-386.29 753.18,-391.96 754.76,-385.15"/>
</g>
<!-- Node4 -->
<g id="node4" class="node">
<title>Node4</title>
<g id="a_node4"><a xlink:href="MeasurementModel_8h.html" target="_top" xlink:title=" ">
<polygon fill="white" stroke="black" points="368.5,-224.5 368.5,-254.5 502.5,-254.5 502.5,-224.5 368.5,-224.5"/>
<text text-anchor="start" x="376.5" y="-242.5" font-family="Helvetica,sans-Serif" font-size="10.00">BayesFilters/Measurement</text>
<text text-anchor="middle" x="435.5" y="-231.5" font-family="Helvetica,sans-Serif" font-size="10.00">Model.h</text>
</a>
</g>
</g>
<!-- Node3&#45;&gt;Node4 -->
<g id="edge3" class="edge">
<title>Node3&#45;&gt;Node4</title>
<path fill="none" stroke="midnightblue" d="M430.02,-291.4C430.86,-283.56 431.94,-273.6 432.91,-264.57"/>
<polygon fill="midnightblue" stroke="midnightblue" points="436.39,-264.89 433.98,-254.58 429.43,-264.14 436.39,-264.89"/>
</g>
<!-- Node5 -->
<g id="node5" class="node">
<title>Node5</title>
<g id="a_node5"><a xlink:href="Data_8h.html" target="_top" xlink:title=" ">
<polygon fill="white" stroke="black" points="179.5,-168.5 179.5,-187.5 283.5,-187.5 283.5,-168.5 179.5,-168.5"/>
<text text-anchor="middle" x="231.5" y="-175.5" font-family="Helvetica,sans-Serif" font-size="10.00">BayesFilters/Data.h</text>
</a>
</g>
</g>
<!-- Node4&#45;&gt;Node5 -->
<g id="edge4" class="edge">
<title>Node4&#45;&gt;Node5</title>
<path fill="none" stroke="midnightblue" d="M387.41,-224.47C351.76,-214.08 303.77,-200.08 270.49,-190.37"/>
<polygon fill="midnightblue" stroke="midnightblue" points="271.24,-186.95 260.66,-187.51 269.28,-193.67 271.24,-186.95"/>
</g>
<!-- Node8 -->
<g id="node8" class="node">
<title>Node8</title>
<g id="a_node8"><a xlink:title=" ">
<polygon fill="white" stroke="#bfbfbf" points="339.5,-56.5 339.5,-75.5 391.5,-75.5 391.5,-56.5 339.5,-56.5"/>
<text text-anchor="middle" x="365.5" y="-63.5" font-family="Helvetica,sans-Serif" font-size="10.00">memory</text>
</a>
</g>
</g>
<!-- Node4&#45;&gt;Node8 -->
<g id="edge16" class="edge">
<title>Node4&#45;&gt;Node8</title>
<path fill="none" stroke="midnightblue" d="M407.62,-224.42C393.87,-215.89 378.55,-203.62 370.5,-188 353.55,-155.1 357.55,-110.23 361.7,-85.41"/>
<polygon fill="midnightblue" stroke="midnightblue" points="365.15,-86.01 363.54,-75.53 358.27,-84.72 365.15,-86.01"/>
</g>
<!-- Node12 -->
<g id="node12" class="node">
<title>Node12</title>
<g id="a_node12"><a xlink:href="Logger_8h.html" target="_top" xlink:title=" ">
<polygon fill="white" stroke="black" points="380,-168.5 380,-187.5 491,-187.5 491,-168.5 380,-168.5"/>
<text text-anchor="middle" x="435.5" y="-175.5" font-family="Helvetica,sans-Serif" font-size="10.00">BayesFilters/Logger.h</text>
</a>
</g>
</g>
<!-- Node4&#45;&gt;Node12 -->
<g id="edge11" class="edge">
<title>Node4&#45;&gt;Node12</title>
<path fill="none" stroke="midnightblue" d="M435.5,-224.4C435.5,-216.47 435.5,-206.46 435.5,-197.86"/>
<polygon fill="midnightblue" stroke="midnightblue" points="439,-197.66 435.5,-187.66 432,-197.66 439,-197.66"/>
</g>
<!-- Node15 -->
<g id="node15" class="node">
<title>Node15</title>
<g id="a_node15"><a xlink:title=" ">
<polygon fill="white" stroke="#bfbfbf" points="567,-0.5 567,-19.5 608,-19.5 608,-0.5 567,-0.5"/>
<text text-anchor="middle" x="587.5" y="-7.5" font-family="Helvetica,sans-Serif" font-size="10.00">string</text>
</a>
</g>
</g>
<!-- Node4&#45;&gt;Node15 -->
<g id="edge17" class="edge">
<title>Node4&#45;&gt;Node15</title>
<path fill="none" stroke="midnightblue" d="M404.05,-224.42C388.5,-215.95 370.71,-203.74 359.5,-188 324.66,-139.07 291.86,-101.99 330.5,-56 359.09,-21.97 494.84,-13.67 556.68,-11.65"/>
<polygon fill="midnightblue" stroke="midnightblue" points="557.09,-15.14 566.98,-11.35 556.88,-8.14 557.09,-15.14"/>
</g>
<!-- Node17 -->
<g id="node17" class="node">
<title>Node17</title>
<g id="a_node17"><a xlink:title=" ">
<polygon fill="white" stroke="#bfbfbf" points="509.5,-168.5 509.5,-187.5 549.5,-187.5 549.5,-168.5 509.5,-168.5"/>
<text text-anchor="middle" x="529.5" y="-175.5" font-family="Helvetica,sans-Serif" font-size="10.00">utility</text>
</a>
</g>
</g>
<!-- Node4&#45;&gt;Node17 -->
<g id="edge18" class="edge">
<title>Node4&#45;&gt;Node17</title>
<path fill="none" stroke="midnightblue" d="M457.78,-224.4C472.7,-214.95 492.28,-202.56 507.21,-193.11"/>
<polygon fill="midnightblue" stroke="midnightblue" points="509.24,-195.96 515.82,-187.66 505.5,-190.05 509.24,-195.96"/>
</g>
<!-- Node4&#45;&gt;Node18 -->
<g id="edge19" class="edge">
<title>Node4&#45;&gt;Node18</title>
<path fill="none" stroke="midnightblue" d="M473.85,-224.5C498.46,-215.09 530.87,-201.9 558.5,-188 616.92,-158.61 622.51,-132.84 684.5,-112 753.24,-88.89 965.45,-74.75 1060.55,-69.42"/>
<polygon fill="midnightblue" stroke="midnightblue" points="1060.95,-72.91 1070.74,-68.86 1060.56,-65.92 1060.95,-72.91"/>
</g>
<!-- Node6 -->
<g id="node6" class="node">
<title>Node6</title>
<g id="a_node6"><a xlink:href="any_8h.html" target="_top" xlink:title=" ">
<polygon fill="white" stroke="black" points="156,-112.5 156,-131.5 253,-131.5 253,-112.5 156,-112.5"/>
<text text-anchor="middle" x="204.5" y="-119.5" font-family="Helvetica,sans-Serif" font-size="10.00">BayesFilters/any.h</text>
</a>
</g>
</g>
<!-- Node5&#45;&gt;Node6 -->
<g id="edge5" class="edge">
<title>Node5&#45;&gt;Node6</title>
<path fill="none" stroke="midnightblue" d="M227.04,-168.08C223.35,-160.69 217.98,-149.95 213.41,-140.81"/>
<polygon fill="midnightblue" stroke="midnightblue" points="216.48,-139.13 208.88,-131.75 210.22,-142.26 216.48,-139.13"/>
</g>
<!-- Node7 -->
<g id="node7" class="node">
<title>Node7</title>
<g id="a_node7"><a xlink:title=" ">
<polygon fill="white" stroke="#bfbfbf" points="149.5,-56.5 149.5,-75.5 205.5,-75.5 205.5,-56.5 149.5,-56.5"/>
<text text-anchor="middle" x="177.5" y="-63.5" font-family="Helvetica,sans-Serif" font-size="10.00">algorithm</text>
</a>
</g>
</g>
<!-- Node6&#45;&gt;Node7 -->
<g id="edge6" class="edge">
<title>Node6&#45;&gt;Node7</title>
<path fill="none" stroke="midnightblue" d="M200.04,-112.08C196.35,-104.69 190.98,-93.95 186.41,-84.81"/>
<polygon fill="midnightblue" stroke="midnightblue" points="189.48,-83.13 181.88,-75.75 183.22,-86.26 189.48,-83.13"/>
</g>
<!-- Node6&#45;&gt;Node8 -->
<g id="edge7" class="edge">
<title>Node6&#45;&gt;Node8</title>
<path fill="none" stroke="midnightblue" d="M230.01,-112.44C257.1,-103.36 300.09,-88.94 330.37,-78.78"/>
<polygon fill="midnightblue" stroke="midnightblue" points="331.74,-82.01 340.11,-75.52 329.51,-75.38 331.74,-82.01"/>
</g>
<!-- Node9 -->
<g id="node9" class="node">
<title>Node9</title>
<g id="a_node9"><a xlink:title=" ">
<polygon fill="white" stroke="#bfbfbf" points="224,-56.5 224,-75.5 283,-75.5 283,-56.5 224,-56.5"/>
<text text-anchor="middle" x="253.5" y="-63.5" font-family="Helvetica,sans-Serif" font-size="10.00">stdexcept</text>
</a>
</g>
</g>
<!-- Node6&#45;&gt;Node9 -->
<g id="edge8" class="edge">
<title>Node6&#45;&gt;Node9</title>
<path fill="none" stroke="midnightblue" d="M212.59,-112.08C219.66,-104.3 230.09,-92.8 238.65,-83.37"/>
<polygon fill="midnightblue" stroke="midnightblue" points="241.43,-85.51 245.56,-75.75 236.25,-80.8 241.43,-85.51"/>
</g>
<!-- Node10 -->
<g id="node10" class="node">
<title>Node10</title>
<g id="a_node10"><a xlink:title=" ">
<polygon fill="white" stroke="#bfbfbf" points="0,-56.5 0,-75.5 51,-75.5 51,-56.5 0,-56.5"/>
<text text-anchor="middle" x="25.5" y="-63.5" font-family="Helvetica,sans-Serif" font-size="10.00">typeinfo</text>
</a>
</g>
</g>
<!-- Node6&#45;&gt;Node10 -->
<g id="edge9" class="edge">
<title>Node6&#45;&gt;Node10</title>
<path fill="none" stroke="midnightblue" d="M176.14,-112.44C144.96,-103.04 94.82,-87.91 61.04,-77.72"/>
<polygon fill="midnightblue" stroke="midnightblue" points="61.71,-74.27 51.12,-74.73 59.68,-80.97 61.71,-74.27"/>
</g>
<!-- Node11 -->
<g id="node11" class="node">
<title>Node11</title>
<g id="a_node11"><a xlink:title=" ">
<polygon fill="white" stroke="#bfbfbf" points="69.5,-56.5 69.5,-75.5 131.5,-75.5 131.5,-56.5 69.5,-56.5"/>
<text text-anchor="middle" x="100.5" y="-63.5" font-family="Helvetica,sans-Serif" font-size="10.00">type_traits</text>
</a>
</g>
</g>
<!-- Node6&#45;&gt;Node11 -->
<g id="edge10" class="edge">
<title>Node6&#45;&gt;Node11</title>
<path fill="none" stroke="midnightblue" d="M187.79,-112.32C171.19,-103.7 145.5,-90.36 126.28,-80.39"/>
<polygon fill="midnightblue" stroke="midnightblue" points="127.66,-77.16 117.17,-75.65 124.43,-83.37 127.66,-77.16"/>
</g>
<!-- Node13 -->
<g id="node13" class="node">
<title>Node13</title>
<g id="a_node13"><a xlink:title=" ">
<polygon fill="white" stroke="#bfbfbf" points="487.5,-112.5 487.5,-131.5 537.5,-131.5 537.5,-112.5 487.5,-112.5"/>
<text text-anchor="middle" x="512.5" y="-119.5" font-family="Helvetica,sans-Serif" font-size="10.00">fstream</text>
</a>
</g>
</g>
<!-- Node12&#45;&gt;Node13 -->
<g id="edge12" class="edge">
<title>Node12&#45;&gt;Node13</title>
<path fill="none" stroke="midnightblue" d="M447.87,-168.32C459.66,-160.06 477.63,-147.45 491.64,-137.63"/>
<polygon fill="midnightblue" stroke="midnightblue" points="493.98,-140.26 500.16,-131.65 489.96,-134.53 493.98,-140.26"/>
</g>
<!-- Node14 -->
<g id="node14" class="node">
<title>Node14</title>
<g id="a_node14"><a xlink:title=" ">
<polygon fill="white" stroke="#bfbfbf" points="415.5,-112.5 415.5,-131.5 469.5,-131.5 469.5,-112.5 415.5,-112.5"/>
<text text-anchor="middle" x="442.5" y="-119.5" font-family="Helvetica,sans-Serif" font-size="10.00">iostream</text>
</a>
</g>
</g>
<!-- Node12&#45;&gt;Node14 -->
<g id="edge13" class="edge">
<title>Node12&#45;&gt;Node14</title>
<path fill="none" stroke="midnightblue" d="M436.66,-168.08C437.58,-160.93 438.92,-150.64 440.08,-141.69"/>
<polygon fill="midnightblue" stroke="midnightblue" points="443.55,-142.12 441.37,-131.75 436.61,-141.22 443.55,-142.12"/>
</g>
<!-- Node12&#45;&gt;Node15 -->
<g id="edge14" class="edge">
<title>Node12&#45;&gt;Node15</title>
<path fill="none" stroke="midnightblue" d="M426.37,-168.29C414.15,-155.52 395.24,-131.18 406.5,-112 439.07,-56.53 514.41,-29.28 556.91,-17.89"/>
<polygon fill="midnightblue" stroke="midnightblue" points="557.88,-21.25 566.71,-15.38 556.15,-14.47 557.88,-21.25"/>
</g>
<!-- Node16 -->
<g id="node16" class="node">
<title>Node16</title>
<g id="a_node16"><a xlink:title=" ">
<polygon fill="white" stroke="#bfbfbf" points="555.5,-112.5 555.5,-131.5 599.5,-131.5 599.5,-112.5 555.5,-112.5"/>
<text text-anchor="middle" x="577.5" y="-119.5" font-family="Helvetica,sans-Serif" font-size="10.00">vector</text>
</a>
</g>
</g>
<!-- Node12&#45;&gt;Node16 -->
<g id="edge15" class="edge">
<title>Node12&#45;&gt;Node16</title>
<path fill="none" stroke="midnightblue" d="M458,-168.44C481.58,-159.48 518.82,-145.31 545.46,-135.18"/>
<polygon fill="midnightblue" stroke="midnightblue" points="547,-138.34 555.1,-131.52 544.51,-131.8 547,-138.34"/>
</g>
<!-- Node19&#45;&gt;Node4 -->
<g id="edge24" class="edge">
<title>Node19&#45;&gt;Node4</title>
<path fill="none" stroke="midnightblue" d="M955.01,-296.97C839.98,-284.46 626.88,-261.3 512.62,-248.88"/>
<polygon fill="midnightblue" stroke="midnightblue" points="512.87,-245.39 502.55,-247.79 512.11,-252.35 512.87,-245.39"/>
</g>
<!-- Node19&#45;&gt;Node18 -->
<g id="edge25" class="edge">
<title>Node19&#45;&gt;Node18</title>
<path fill="none" stroke="midnightblue" d="M1036.87,-296.95C1046.65,-271.92 1075.48,-196.46 1093.5,-132 1097.78,-116.69 1101.5,-99.05 1104.03,-86.01"/>
<polygon fill="midnightblue" stroke="midnightblue" points="1107.52,-86.39 1105.93,-75.91 1100.65,-85.09 1107.52,-86.39"/>
</g>
<!-- Node19&#45;&gt;Node20 -->
<g id="edge21" class="edge">
<title>Node19&#45;&gt;Node20</title>
<path fill="none" stroke="midnightblue" d="M1022.44,-296.73C1009.16,-286.21 986.67,-268.38 970.57,-255.62"/>
<polygon fill="midnightblue" stroke="midnightblue" points="972.39,-252.6 962.38,-249.13 968.05,-258.08 972.39,-252.6"/>
</g>
<!-- Node20&#45;&gt;Node16 -->
<g id="edge22" class="edge">
<title>Node20&#45;&gt;Node16</title>
<path fill="none" stroke="midnightblue" d="M890.21,-229.96C840.82,-222.07 770.04,-208.43 710.5,-188 670.45,-174.26 626.86,-151.28 600.88,-136.65"/>
<polygon fill="midnightblue" stroke="midnightblue" points="602.56,-133.58 592.14,-131.66 599.09,-139.66 602.56,-133.58"/>
</g>
<!-- Node20&#45;&gt;Node18 -->
<g id="edge23" class="edge">
<title>Node20&#45;&gt;Node18</title>
<path fill="none" stroke="midnightblue" d="M976.8,-230C997.66,-221.92 1026.9,-208.02 1046.5,-188 1075.87,-157.99 1093.94,-111 1102.19,-85.3"/>
<polygon fill="midnightblue" stroke="midnightblue" points="1105.55,-86.29 1105.13,-75.7 1098.85,-84.24 1105.55,-86.29"/>
</g>
<!-- Node21&#45;&gt;Node3 -->
<g id="edge43" class="edge">
<title>Node21&#45;&gt;Node3</title>
<path fill="none" stroke="midnightblue" d="M642.72,-360.04C600.99,-349.81 541.53,-335.23 495.84,-324.02"/>
<polygon fill="midnightblue" stroke="midnightblue" points="496.56,-320.59 486.02,-321.61 494.89,-327.39 496.56,-320.59"/>
</g>
<!-- Node21&#45;&gt;Node4 -->
<g id="edge44" class="edge">
<title>Node21&#45;&gt;Node4</title>
<path fill="none" stroke="midnightblue" d="M663.47,-358.46C642.38,-348.5 613.58,-334.71 588.5,-322 547.5,-301.23 500.98,-276.24 470.1,-259.46"/>
<polygon fill="midnightblue" stroke="midnightblue" points="471.5,-256.23 461.05,-254.52 468.16,-262.38 471.5,-256.23"/>
</g>
<!-- Node21&#45;&gt;Node5 -->
<g id="edge40" class="edge">
<title>Node21&#45;&gt;Node5</title>
<path fill="none" stroke="midnightblue" d="M642.72,-370.23C556.38,-365.58 385.35,-352.7 334.5,-322 284.85,-292.02 252.25,-228.03 238.68,-196.83"/>
<polygon fill="midnightblue" stroke="midnightblue" points="241.9,-195.48 234.81,-187.61 235.45,-198.18 241.9,-195.48"/>
</g>
<!-- Node21&#45;&gt;Node18 -->
<g id="edge47" class="edge">
<title>Node21&#45;&gt;Node18</title>
<path fill="none" stroke="midnightblue" d="M744.16,-369.83C852.35,-363.68 1098.42,-347.08 1126.5,-322 1154.24,-297.23 1145.5,-277.69 1145.5,-240.5 1145.5,-240.5 1145.5,-240.5 1145.5,-177 1145.5,-142.81 1128.9,-105.76 1117.64,-84.57"/>
<polygon fill="midnightblue" stroke="midnightblue" points="1120.68,-82.83 1112.78,-75.77 1114.55,-86.22 1120.68,-82.83"/>
</g>
<!-- Node21&#45;&gt;Node20 -->
<g id="edge42" class="edge">
<title>Node21&#45;&gt;Node20</title>
<path fill="none" stroke="midnightblue" d="M744.04,-363.06C778.15,-355.29 823.35,-342.23 859.5,-322 890.67,-304.56 920.4,-275.09 937.26,-256.77"/>
<polygon fill="midnightblue" stroke="midnightblue" points="939.97,-259 944.06,-249.22 934.76,-254.31 939.97,-259"/>
</g>
<!-- Node22 -->
<g id="node22" class="node">
<title>Node22</title>
<g id="a_node22"><a xlink:href="AdditiveStateModel_8h.html" target="_top" xlink:title=" ">
<polygon fill="white" stroke="black" points="684,-291.5 684,-321.5 817,-321.5 817,-291.5 684,-291.5"/>
<text text-anchor="start" x="692" y="-309.5" font-family="Helvetica,sans-Serif" font-size="10.00">BayesFilters/AdditiveState</text>
<text text-anchor="middle" x="750.5" y="-298.5" font-family="Helvetica,sans-Serif" font-size="10.00">Model.h</text>
</a>
</g>
</g>
<!-- Node21&#45;&gt;Node22 -->
<g id="edge28" class="edge">
<title>Node21&#45;&gt;Node22</title>
<path fill="none" stroke="midnightblue" d="M705.87,-358.4C713.34,-349.88 723.01,-338.85 731.44,-329.23"/>
<polygon fill="midnightblue" stroke="midnightblue" points="734.19,-331.4 738.16,-321.58 728.93,-326.79 734.19,-331.4"/>
</g>
<!-- Node23 -->
<g id="node23" class="node">
<title>Node23</title>
<g id="a_node23"><a xlink:href="StateModel_8h.html" target="_top" xlink:title=" ">
<polygon fill="white" stroke="black" points="654.5,-230 654.5,-249 786.5,-249 786.5,-230 654.5,-230"/>
<text text-anchor="middle" x="720.5" y="-237" font-family="Helvetica,sans-Serif" font-size="10.00">BayesFilters/StateModel.h</text>
</a>
</g>
</g>
<!-- Node21&#45;&gt;Node23 -->
<g id="edge45" class="edge">
<title>Node21&#45;&gt;Node23</title>
<path fill="none" stroke="midnightblue" d="M643.88,-358.4C626.05,-350.68 607.82,-339.09 597.5,-322 590.38,-310.21 589.83,-302.44 597.5,-291 610.66,-271.38 632.96,-259.37 654.98,-252.03"/>
<polygon fill="midnightblue" stroke="midnightblue" points="656.17,-255.33 664.71,-249.07 654.13,-248.63 656.17,-255.33"/>
</g>
<!-- Node24 -->
<g id="node24" class="node">
<title>Node24</title>
<g id="a_node24"><a xlink:href="ExogenousModel_8h.html" target="_top" xlink:title=" ">
<polygon fill="white" stroke="black" points="879.5,-168.5 879.5,-187.5 1037.5,-187.5 1037.5,-168.5 879.5,-168.5"/>
<text text-anchor="middle" x="958.5" y="-175.5" font-family="Helvetica,sans-Serif" font-size="10.00">BayesFilters/ExogenousModel.h</text>
</a>
</g>
</g>
<!-- Node21&#45;&gt;Node24 -->
<g id="edge41" class="edge">
<title>Node21&#45;&gt;Node24</title>
<path fill="none" stroke="midnightblue" d="M744.02,-363.46C771.17,-356.29 803.49,-343.71 825.5,-322 858.87,-289.07 832.49,-258.25 864.5,-224 878.74,-208.76 899.22,-198.12 917.43,-191.03"/>
<polygon fill="midnightblue" stroke="midnightblue" points="918.78,-194.26 926.97,-187.54 916.38,-187.68 918.78,-194.26"/>
</g>
<!-- Node29 -->
<g id="node29" class="node">
<title>Node29</title>
<g id="a_node29"><a xlink:title=" ">
<polygon fill="white" stroke="#bfbfbf" points="607,-297 607,-316 666,-316 666,-297 607,-297"/>
<text text-anchor="middle" x="636.5" y="-304" font-family="Helvetica,sans-Serif" font-size="10.00">functional</text>
</a>
</g>
</g>
<!-- Node21&#45;&gt;Node29 -->
<g id="edge46" class="edge">
<title>Node21&#45;&gt;Node29</title>
<path fill="none" stroke="midnightblue" d="M681.13,-358.4C672.24,-348.26 660.24,-334.57 650.91,-323.94"/>
<polygon fill="midnightblue" stroke="midnightblue" points="653.35,-321.41 644.12,-316.19 648.09,-326.02 653.35,-321.41"/>
</g>
<!-- Node22&#45;&gt;Node23 -->
<g id="edge29" class="edge">
<title>Node22&#45;&gt;Node23</title>
<path fill="none" stroke="midnightblue" d="M743.99,-291.4C739.54,-281.76 733.61,-268.91 728.82,-258.54"/>
<polygon fill="midnightblue" stroke="midnightblue" points="731.88,-256.81 724.51,-249.19 725.53,-259.74 731.88,-256.81"/>
</g>
<!-- Node23&#45;&gt;Node8 -->
<g id="edge39" class="edge">
<title>Node23&#45;&gt;Node8</title>
<path fill="none" stroke="midnightblue" d="M715.77,-229.99C702.35,-206.77 661.61,-142.03 608.5,-112 542.56,-74.72 452,-67.46 402.14,-66.54"/>
<polygon fill="midnightblue" stroke="midnightblue" points="401.88,-63.04 391.85,-66.43 401.81,-70.04 401.88,-63.04"/>
</g>
<!-- Node23&#45;&gt;Node24 -->
<g id="edge30" class="edge">
<title>Node23&#45;&gt;Node24</title>
<path fill="none" stroke="midnightblue" d="M754.6,-229.98C796.75,-219.44 868.55,-201.49 914.73,-189.94"/>
<polygon fill="midnightblue" stroke="midnightblue" points="915.61,-193.33 924.46,-187.51 913.91,-186.54 915.61,-193.33"/>
</g>
<!-- Node26 -->
<g id="node26" class="node">
<title>Node26</title>
<g id="a_node26"><a xlink:href="Skippable_8h.html" target="_top" xlink:title=" ">
<polygon fill="white" stroke="black" points="694,-112.5 694,-131.5 819,-131.5 819,-112.5 694,-112.5"/>
<text text-anchor="middle" x="756.5" y="-119.5" font-family="Helvetica,sans-Serif" font-size="10.00">BayesFilters/Skippable.h</text>
</a>
</g>
</g>
<!-- Node23&#45;&gt;Node26 -->
<g id="edge36" class="edge">
<title>Node23&#45;&gt;Node26</title>
<path fill="none" stroke="midnightblue" d="M716.48,-229.88C710.7,-216.21 701.68,-188.97 710.5,-168 715.53,-156.05 725.44,-145.69 734.79,-137.93"/>
<polygon fill="midnightblue" stroke="midnightblue" points="736.94,-140.69 742.71,-131.81 732.66,-135.15 736.94,-140.69"/>
</g>
<!-- Node28 -->
<g id="node28" class="node">
<title>Node28</title>
<g id="a_node28"><a xlink:href="StateProcess_8h.html" target="_top" xlink:title=" ">
<polygon fill="white" stroke="black" points="719.5,-168.5 719.5,-187.5 861.5,-187.5 861.5,-168.5 719.5,-168.5"/>
<text text-anchor="middle" x="790.5" y="-175.5" font-family="Helvetica,sans-Serif" font-size="10.00">BayesFilters/StateProcess.h</text>
</a>
</g>
</g>
<!-- Node23&#45;&gt;Node28 -->
<g id="edge37" class="edge">
<title>Node23&#45;&gt;Node28</title>
<path fill="none" stroke="midnightblue" d="M730.53,-229.98C741.55,-220.61 759.46,-205.38 772.84,-194.01"/>
<polygon fill="midnightblue" stroke="midnightblue" points="775.14,-196.65 780.49,-187.51 770.6,-191.32 775.14,-196.65"/>
</g>
<!-- Node25 -->
<g id="node25" class="node">
<title>Node25</title>
<g id="a_node25"><a xlink:href="ExogenousProcess_8h.html" target="_top" xlink:title=" ">
<polygon fill="white" stroke="black" points="875,-112.5 875,-131.5 1042,-131.5 1042,-112.5 875,-112.5"/>
<text text-anchor="middle" x="958.5" y="-119.5" font-family="Helvetica,sans-Serif" font-size="10.00">BayesFilters/ExogenousProcess.h</text>
</a>
</g>
</g>
<!-- Node24&#45;&gt;Node25 -->
<g id="edge31" class="edge">
<title>Node24&#45;&gt;Node25</title>
<path fill="none" stroke="midnightblue" d="M958.5,-168.08C958.5,-161.01 958.5,-150.86 958.5,-141.99"/>
<polygon fill="midnightblue" stroke="midnightblue" points="962,-141.75 958.5,-131.75 955,-141.75 962,-141.75"/>
</g>
<!-- Node24&#45;&gt;Node26 -->
<g id="edge33" class="edge">
<title>Node24&#45;&gt;Node26</title>
<path fill="none" stroke="midnightblue" d="M926.49,-168.44C891.77,-159.16 836.21,-144.31 798.12,-134.13"/>
<polygon fill="midnightblue" stroke="midnightblue" points="798.92,-130.72 788.36,-131.52 797.11,-137.48 798.92,-130.72"/>
</g>
<!-- Node25&#45;&gt;Node18 -->
<g id="edge32" class="edge">
<title>Node25&#45;&gt;Node18</title>
<path fill="none" stroke="midnightblue" d="M982.11,-112.44C1006.96,-103.44 1046.27,-89.19 1074.25,-79.05"/>
<polygon fill="midnightblue" stroke="midnightblue" points="1075.79,-82.21 1084,-75.52 1073.41,-75.63 1075.79,-82.21"/>
</g>
<!-- Node27 -->
<g id="node27" class="node">
<title>Node27</title>
<g id="a_node27"><a xlink:href="Skipper_8h.html" target="_top" xlink:title=" ">
<polygon fill="white" stroke="black" points="615,-56.5 615,-75.5 730,-75.5 730,-56.5 615,-56.5"/>
<text text-anchor="middle" x="672.5" y="-63.5" font-family="Helvetica,sans-Serif" font-size="10.00">BayesFilters/Skipper.h</text>
</a>
</g>
</g>
<!-- Node26&#45;&gt;Node27 -->
<g id="edge34" class="edge">
<title>Node26&#45;&gt;Node27</title>
<path fill="none" stroke="midnightblue" d="M743,-112.32C729.9,-103.9 709.79,-90.97 694.39,-81.07"/>
<polygon fill="midnightblue" stroke="midnightblue" points="696.27,-78.12 685.96,-75.65 692.48,-84.01 696.27,-78.12"/>
</g>
<!-- Node27&#45;&gt;Node15 -->
<g id="edge35" class="edge">
<title>Node27&#45;&gt;Node15</title>
<path fill="none" stroke="midnightblue" d="M658.84,-56.32C645.58,-47.9 625.23,-34.97 609.65,-25.07"/>
<polygon fill="midnightblue" stroke="midnightblue" points="611.44,-22.06 601.12,-19.65 607.69,-27.97 611.44,-22.06"/>
</g>
<!-- Node28&#45;&gt;Node18 -->
<g id="edge38" class="edge">
<title>Node28&#45;&gt;Node18</title>
<path fill="none" stroke="midnightblue" d="M797.78,-168.2C810.12,-153.92 836.63,-125.91 865.5,-112 928.58,-81.61 1010.04,-71.69 1060.52,-68.48"/>
<polygon fill="midnightblue" stroke="midnightblue" points="1061.02,-71.96 1070.8,-67.89 1060.62,-64.97 1061.02,-71.96"/>
</g>
<!-- Node30&#45;&gt;Node18 -->
<g id="edge50" class="edge">
<title>Node30&#45;&gt;Node18</title>
<path fill="none" stroke="midnightblue" d="M1242.03,-358.41C1234.84,-334.44 1221.5,-284.12 1221.5,-240.5 1221.5,-240.5 1221.5,-240.5 1221.5,-177 1221.5,-146.2 1218.05,-134.94 1197.5,-112 1184.03,-96.96 1164.37,-86.33 1146.86,-79.19"/>
<polygon fill="midnightblue" stroke="midnightblue" points="1148,-75.87 1137.41,-75.57 1145.5,-82.41 1148,-75.87"/>
</g>
<!-- Node31&#45;&gt;Node8 -->
<g id="edge55" class="edge">
<title>Node31&#45;&gt;Node8</title>
<path fill="none" stroke="midnightblue" d="M1249.9,-118.08C1082.06,-108.38 546.18,-77.43 401.69,-69.09"/>
<polygon fill="midnightblue" stroke="midnightblue" points="401.77,-65.59 391.59,-68.51 401.37,-72.58 401.77,-65.59"/>
</g>
<!-- Node31&#45;&gt;Node15 -->
<g id="edge56" class="edge">
<title>Node31&#45;&gt;Node15</title>
<path fill="none" stroke="midnightblue" d="M1285.55,-112.4C1259.5,-97.9 1203.66,-68.88 1152.5,-56 1049.86,-30.16 720.71,-15.97 618.25,-12.1"/>
<polygon fill="midnightblue" stroke="midnightblue" points="618.36,-8.6 608.24,-11.73 618.1,-15.6 618.36,-8.6"/>
</g>
<!-- Node31&#45;&gt;Node18 -->
<g id="edge52" class="edge">
<title>Node31&#45;&gt;Node18</title>
<path fill="none" stroke="midnightblue" d="M1269.92,-112.44C1236.89,-103.2 1184.11,-88.44 1147.73,-78.26"/>
<polygon fill="midnightblue" stroke="midnightblue" points="1148.51,-74.84 1137.94,-75.52 1146.63,-81.58 1148.51,-74.84"/>
</g>
<!-- Node32 -->
<g id="node32" class="node">
<title>Node32</title>
<g id="a_node32"><a xlink:title=" ">
<polygon fill="white" stroke="#bfbfbf" points="1245.5,-56.5 1245.5,-75.5 1291.5,-75.5 1291.5,-56.5 1245.5,-56.5"/>
<text text-anchor="middle" x="1268.5" y="-63.5" font-family="Helvetica,sans-Serif" font-size="10.00">chrono</text>
</a>
</g>
</g>
<!-- Node31&#45;&gt;Node32 -->
<g id="edge53" class="edge">
<title>Node31&#45;&gt;Node32</title>
<path fill="none" stroke="midnightblue" d="M1295.22,-112.08C1290.79,-104.61 1284.34,-93.72 1278.88,-84.52"/>
<polygon fill="midnightblue" stroke="midnightblue" points="1281.79,-82.57 1273.69,-75.75 1275.77,-86.14 1281.79,-82.57"/>
</g>
<!-- Node33 -->
<g id="node33" class="node">
<title>Node33</title>
<g id="a_node33"><a xlink:title=" ">
<polygon fill="white" stroke="#bfbfbf" points="1309.5,-56.5 1309.5,-75.5 1353.5,-75.5 1353.5,-56.5 1309.5,-56.5"/>
<text text-anchor="middle" x="1331.5" y="-63.5" font-family="Helvetica,sans-Serif" font-size="10.00">cmath</text>
</a>
</g>
</g>
<!-- Node31&#45;&gt;Node33 -->
<g id="edge54" class="edge">
<title>Node31&#45;&gt;Node33</title>
<path fill="none" stroke="midnightblue" d="M1305.62,-112.08C1309.91,-104.61 1316.16,-93.72 1321.44,-84.52"/>
<polygon fill="midnightblue" stroke="midnightblue" points="1324.53,-86.17 1326.48,-75.75 1318.46,-82.68 1324.53,-86.17"/>
</g>
</g>
</svg>
        <g id="navigator" transform="translate(0 0)" fill="#404254">
                <rect fill="#f2f5e9" fill-opacity="0.5" stroke="#606060" stroke-width=".5" x="0" y="0" width="60" height="60"/>
                <use id="zoomplus" xlink:href="#zoomPlus" x="17" y="9" onmousedown="handleZoom(evt,'in')"/>
                <use id="zoomminus" xlink:href="#zoomMin" x="42" y="9" onmousedown="handleZoom(evt,'out')"/>
                <use id="reset" xlink:href="#resetDef" x="30" y="36" onmousedown="handleReset()"/>
                <g id="arrowUp" xlink:href="#dirArrow" transform="translate(30 24)" onmousedown="handlePan(0,-1)">
                  <use xlink:href="#rim" fill="#404040">
                        <set attributeName="fill" to="#808080" begin="arrowUp.mouseover" end="arrowUp.mouseout"/>
                  </use>
                  <path fill="none" stroke="white" stroke-width="1.5" d="M0,-3.0v7 M-2.5,-0.5L0,-3.0L2.5,-0.5"/>
                </g>
                <g id="arrowRight" xlink:href="#dirArrow" transform="rotate(90) translate(36 -43)" onmousedown="handlePan(1,0)">
                  <use xlink:href="#rim" fill="#404040">
                        <set attributeName="fill" to="#808080" begin="arrowRight.mouseover" end="arrowRight.mouseout"/>
                  </use>
                  <path fill="none" stroke="white" stroke-width="1.5" d="M0,-3.0v7 M-2.5,-0.5L0,-3.0L2.5,-0.5"/>
                </g>
                <g id="arrowDown" xlink:href="#dirArrow" transform="rotate(180) translate(-30 -48)" onmousedown="handlePan(0,1)">
                  <use xlink:href="#rim" fill="#404040">
                        <set attributeName="fill" to="#808080" begin="arrowDown.mouseover" end="arrowDown.mouseout"/>
                  </use>
                  <path fill="none" stroke="white" stroke-width="1.5" d="M0,-3.0v7 M-2.5,-0.5L0,-3.0L2.5,-0.5"/>
                </g>
                <g id="arrowLeft" xlink:href="#dirArrow" transform="rotate(270) translate(-36 17)" onmousedown="handlePan(-1,0)">
                  <use xlink:href="#rim" fill="#404040">
                        <set attributeName="fill" to="#808080" begin="arrowLeft.mouseover" end="arrowLeft.mouseout"/>
                  </use>
                  <path fill="none" stroke="white" stroke-width="1.5" d="M0,-3.0v7 M-2.5,-0.5L0,-3.0L2.5,-0.5"/>
                </g>
        </g>
        <svg viewBox="0 0 15 15" width="100%" height="30px" preserveAspectRatio="xMaxYMin meet">
         <g id="arrow_out" transform="scale(0.3 0.3)">
          <a xlink:href="SUKFCorrection_8cpp__incl_org.svg" target="_base">
           <rect id="button" ry="5" rx="5" y="6" x="6" height="38" width="38"
                fill="#f2f5e9" fill-opacity="0.5" stroke="#606060" stroke-width="1.0"/>
           <path id="arrow"
             d="M 11.500037,31.436501 C 11.940474,20.09759 22.043105,11.32322 32.158766,21.979434 L 37.068811,17.246167 C 37.068811,17.246167 37.088388,32 37.088388,32 L 22.160133,31.978069 C 22.160133,31.978069 26.997745,27.140456 26.997745,27.140456 C 18.528582,18.264221 13.291696,25.230495 11.500037,31.436501 z"
             style="fill:#404040;"/>
          </a>
         </g>
        </svg>
</svg>
