<?xml version="1.0" encoding="UTF-8" standalone="no"?>
<!DOCTYPE svg PUBLIC "-//W3C//DTD SVG 1.1//EN"
 "http://www.w3.org/Graphics/SVG/1.1/DTD/svg11.dtd">
<!-- Generated by graphviz version 2.43.0 (0)
 -->
<!-- Title: /home/user/bayes&#45;filters&#45;lib/src/BayesFilters/include/BayesFilters/SUKFCorrection.h Pages: 1 -->
<svg width="1486pt" height="475pt"
 viewBox="0.00 0.00 1485.50 475.00" xmlns="http://www.w3.org/2000/svg" xmlns:xlink="http://www.w3.org/1999/xlink">
<g id="graph0" class="graph" transform="scale(1 1) rotate(0) translate(4 471)">
<title>/home/user/bayes&#45;filters&#45;lib/src/BayesFilters/include/BayesFilters/SUKFCorrection.h</title>
<polygon fill="white" stroke="transparent" points="-4,4 -4,-471 1481.5,-471 1481.5,4 -4,4"/>
<!-- Node1 -->
<g id="node1" class="node">
<title>Node1</title>
<g id="a_node1"><a xlink:title=" ">
<polygon fill="#bfbfbf" stroke="black" points="167,-425.5 167,-466.5 335,-466.5 335,-425.5 167,-425.5"/>
<text text-anchor="start" x="175" y="-454.5" font-family="Helvetica,sans-Serif" font-size="10.00">/home/user/bayes&#45;filters</text>
<text text-anchor="start" x="175" y="-443.5" font-family="Helvetica,sans-Serif" font-size="10.00">&#45;lib/src/BayesFilters/include</text>
<text text-anchor="middle" x="251" y="-432.5" font-family="Helvetica,sans-Serif" font-size="10.00">/BayesFilters/SUKFCorrection.h</text>
</a>
</g>
</g>
<!-- Node2 -->
<g id="node2" class="node">
<title>Node2</title>
<g id="a_node2"><a xlink:href="AdditiveMeasurementModel_8h.html" target="_top" xlink:title=" ">
<polygon fill="white" stroke="black" points="361,-291.5 361,-321.5 549,-321.5 549,-291.5 361,-291.5"/>
<text text-anchor="start" x="369" y="-309.5" font-family="Helvetica,sans-Serif" font-size="10.00">BayesFilters/AdditiveMeasurement</text>
<text text-anchor="middle" x="455" y="-298.5" font-family="Helvetica,sans-Serif" font-size="10.00">Model.h</text>
</a>
</g>
</g>
<!-- Node1&#45;&gt;Node2 -->
<g id="edge1" class="edge">
<title>Node1&#45;&gt;Node2</title>
<path fill="none" stroke="midnightblue" d="M280.23,-425.3C318.88,-399.24 386.64,-353.58 425.45,-327.42"/>
<polygon fill="midnightblue" stroke="midnightblue" points="427.86,-330.01 434.2,-321.52 423.95,-324.21 427.86,-330.01"/>
</g>
<!-- Node19 -->
<g id="node19" class="node">
<title>Node19</title>
<g id="a_node19"><a xlink:title=" ">
<polygon fill="white" stroke="#bfbfbf" points="369.5,-56.5 369.5,-75.5 446.5,-75.5 446.5,-56.5 369.5,-56.5"/>
<text text-anchor="middle" x="408" y="-63.5" font-family="Helvetica,sans-Serif" font-size="10.00">Eigen/Dense</text>
</a>
</g>
</g>
<!-- Node1&#45;&gt;Node19 -->
<g id="edge53" class="edge">
<title>Node1&#45;&gt;Node19</title>
<path fill="none" stroke="midnightblue" d="M166.72,-434.07C93.8,-419.33 0,-385.26 0,-307.5 0,-307.5 0,-307.5 0,-177 0,-130.84 38.6,-130.25 81,-112 129.99,-90.91 280.62,-76.7 359.18,-70.51"/>
<polygon fill="midnightblue" stroke="midnightblue" points="359.61,-73.99 369.31,-69.73 359.07,-67.01 359.61,-73.99"/>
</g>
<!-- Node20 -->
<g id="node20" class="node">
<title>Node20</title>
<g id="a_node20"><a xlink:href="GaussianCorrection_8h.html" target="_top" xlink:title=" ">
<polygon fill="white" stroke="black" points="159,-297 159,-316 343,-316 343,-297 159,-297"/>
<text text-anchor="middle" x="251" y="-304" font-family="Helvetica,sans-Serif" font-size="10.00">BayesFilters/GaussianCorrection.h</text>
</a>
</g>
</g>
<!-- Node1&#45;&gt;Node20 -->
<g id="edge21" class="edge">
<title>Node1&#45;&gt;Node20</title>
<path fill="none" stroke="midnightblue" d="M251,-425.3C251,-398.9 251,-352.36 251,-326.38"/>
<polygon fill="midnightblue" stroke="midnightblue" points="254.5,-326.04 251,-316.04 247.5,-326.04 254.5,-326.04"/>
</g>
<!-- Node21 -->
<g id="node21" class="node">
<title>Node21</title>
<g id="a_node21"><a xlink:href="GaussianMixture_8h.html" target="_top" xlink:title=" ">
<polygon fill="white" stroke="black" points="28.5,-230 28.5,-249 199.5,-249 199.5,-230 28.5,-230"/>
<text text-anchor="middle" x="114" y="-237" font-family="Helvetica,sans-Serif" font-size="10.00">BayesFilters/GaussianMixture.h</text>
</a>
</g>
</g>
<!-- Node1&#45;&gt;Node21 -->
<g id="edge27" class="edge">
<title>Node1&#45;&gt;Node21</title>
<path fill="none" stroke="midnightblue" d="M221.17,-425.43C191.13,-403.95 146.15,-366.52 124,-322 114.2,-302.3 112.58,-276.72 112.84,-259.52"/>
<polygon fill="midnightblue" stroke="midnightblue" points="116.35,-259.25 113.25,-249.12 109.36,-258.98 116.35,-259.25"/>
</g>
<!-- Node22 -->
<g id="node22" class="node">
<title>Node22</title>
<g id="a_node22"><a xlink:href="sigma__point_8h.html" target="_top" xlink:title=" ">
<polygon fill="white" stroke="black" points="668,-358.5 668,-388.5 778,-388.5 778,-358.5 668,-358.5"/>
<text text-anchor="start" x="676" y="-376.5" font-family="Helvetica,sans-Serif" font-size="10.00">BayesFilters/sigma</text>
<text text-anchor="middle" x="723" y="-365.5" font-family="Helvetica,sans-Serif" font-size="10.00">_point.h</text>
</a>
</g>
</g>
<!-- Node1&#45;&gt;Node22 -->
<g id="edge28" class="edge">
<title>Node1&#45;&gt;Node22</title>
<path fill="none" stroke="midnightblue" d="M335.11,-432.44C427.44,-418.65 573.68,-396.8 657.74,-384.25"/>
<polygon fill="midnightblue" stroke="midnightblue" points="658.3,-387.7 667.67,-382.76 657.27,-380.78 658.3,-387.7"/>
</g>
<!-- Node3 -->
<g id="node3" class="node">
<title>Node3</title>
<g id="a_node3"><a xlink:href="MeasurementModel_8h.html" target="_top" xlink:title=" ">
<polygon fill="white" stroke="black" points="381.5,-224.5 381.5,-254.5 528.5,-254.5 528.5,-224.5 381.5,-224.5"/>
<text text-anchor="start" x="389.5" y="-242.5" font-family="Helvetica,sans-Serif" font-size="10.00">BayesFilters/Measurement</text>
<text text-anchor="middle" x="455" y="-231.5" font-family="Helvetica,sans-Serif" font-size="10.00">Model.h</text>
</a>
</g>
</g>
<!-- Node2&#45;&gt;Node3 -->
<g id="edge2" class="edge">
<title>Node2&#45;&gt;Node3</title>
<path fill="none" stroke="midnightblue" d="M455,-291.4C455,-283.64 455,-273.81 455,-264.86"/>
<polygon fill="midnightblue" stroke="midnightblue" points="458.5,-264.58 455,-254.58 451.5,-264.58 458.5,-264.58"/>
</g>
<!-- Node4 -->
<g id="node4" class="node">
<title>Node4</title>
<g id="a_node4"><a xlink:href="Data_8h.html" target="_top" xlink:title=" ">
<polygon fill="white" stroke="black" points="1187,-168.5 1187,-187.5 1299,-187.5 1299,-168.5 1187,-168.5"/>
<text text-anchor="middle" x="1243" y="-175.5" font-family="Helvetica,sans-Serif" font-size="10.00">BayesFilters/Data.h</text>
</a>
</g>
</g>
<!-- Node3&#45;&gt;Node4 -->
<g id="edge3" class="edge">
<title>Node3&#45;&gt;Node4</title>
<path fill="none" stroke="midnightblue" d="M528.78,-232.93C681.6,-221.39 1030.64,-195.04 1176.75,-184"/>
<polygon fill="midnightblue" stroke="midnightblue" points="1177.21,-187.48 1186.91,-183.23 1176.68,-180.5 1177.21,-187.48"/>
</g>
<!-- Node7 -->
<g id="node7" class="node">
<title>Node7</title>
<g id="a_node7"><a xlink:title=" ">
<polygon fill="white" stroke="#bfbfbf" points="1092,-56.5 1092,-75.5 1150,-75.5 1150,-56.5 1092,-56.5"/>
<text text-anchor="middle" x="1121" y="-63.5" font-family="Helvetica,sans-Serif" font-size="10.00">memory</text>
</a>
</g>
</g>
<!-- Node3&#45;&gt;Node7 -->
<g id="edge17" class="edge">
<title>Node3&#45;&gt;Node7</title>
<path fill="none" stroke="midnightblue" d="M482.32,-224.39C515.72,-207.84 574.43,-181.03 628,-168 800.58,-126.03 858.86,-192.09 1026,-132 1056.38,-121.08 1086.25,-98.05 1104.16,-82.55"/>
<polygon fill="midnightblue" stroke="midnightblue" points="1106.79,-84.89 1111.94,-75.63 1102.14,-79.66 1106.79,-84.89"/>
</g>
<!-- Node11 -->
<g id="node11" class="node">
<title>Node11</title>
<g id="a_node11"><a xlink:href="Logger_8h.html" target="_top" xlink:title=" ">
<polygon fill="white" stroke="black" points="180.5,-168.5 180.5,-187.5 301.5,-187.5 301.5,-168.5 180.5,-168.5"/>
<text text-anchor="middle" x="241" y="-175.5" font-family="Helvetica,sans-Serif" font-size="10.00">BayesFilters/Logger.h</text>
</a>
</g>
</g>
<!-- Node3&#45;&gt;Node11 -->
<g id="edge10" class="edge">
<title>Node3&#45;&gt;Node11</title>
<path fill="none" stroke="midnightblue" d="M404.56,-224.47C366.99,-214.03 316.38,-199.96 281.45,-190.25"/>
<polygon fill="midnightblue" stroke="midnightblue" points="282.17,-186.81 271.59,-187.51 280.29,-193.56 282.17,-186.81"/>
</g>
<!-- Node14 -->
<g id="node14" class="node">
<title>Node14</title>
<g id="a_node14"><a xlink:title=" ">
<polygon fill="white" stroke="#bfbfbf" points="158,-0.5 158,-19.5 202,-19.5 202,-0.5 158,-0.5"/>
<text text-anchor="middle" x="180" y="-7.5" font-family="Helvetica,sans-Serif" font-size="10.00">string</text>
</a>
</g>
</g>
<!-- Node3&#45;&gt;Node14 -->
<g id="edge18" class="edge">
<title>Node3&#45;&gt;Node14</title>
<path fill="none" stroke="midnightblue" d="M381.48,-234.65C322.53,-229.42 238.76,-217.09 171,-188 132.45,-171.45 113.92,-169.45 95,-132 73.94,-90.32 125.72,-46.78 157.46,-25.07"/>
<polygon fill="midnightblue" stroke="midnightblue" points="159.4,-27.98 165.81,-19.54 155.54,-22.15 159.4,-27.98"/>
</g>
<!-- Node16 -->
<g id="node16" class="node">
<title>Node16</title>
<g id="a_node16"><a xlink:href="VectorDescription_8h.html" target="_top" xlink:title=" ">
<polygon fill="white" stroke="black" points="853.5,-56.5 853.5,-75.5 1028.5,-75.5 1028.5,-56.5 853.5,-56.5"/>
<text text-anchor="middle" x="941" y="-63.5" font-family="Helvetica,sans-Serif" font-size="10.00">BayesFilters/VectorDescription.h</text>
</a>
</g>
</g>
<!-- Node3&#45;&gt;Node16 -->
<g id="edge15" class="edge">
<title>Node3&#45;&gt;Node16</title>
<path fill="none" stroke="midnightblue" d="M528.63,-236.23C621.06,-232.05 772.97,-220.33 818,-188 848.68,-165.97 829.61,-139.01 856,-112 869.95,-97.72 889.4,-86.97 906.18,-79.56"/>
<polygon fill="midnightblue" stroke="midnightblue" points="907.82,-82.67 915.69,-75.58 905.11,-76.21 907.82,-82.67"/>
</g>
<!-- Node18 -->
<g id="node18" class="node">
<title>Node18</title>
<g id="a_node18"><a xlink:title=" ">
<polygon fill="white" stroke="#bfbfbf" points="381.5,-168.5 381.5,-187.5 426.5,-187.5 426.5,-168.5 381.5,-168.5"/>
<text text-anchor="middle" x="404" y="-175.5" font-family="Helvetica,sans-Serif" font-size="10.00">utility</text>
</a>
</g>
</g>
<!-- Node3&#45;&gt;Node18 -->
<g id="edge19" class="edge">
<title>Node3&#45;&gt;Node18</title>
<path fill="none" stroke="midnightblue" d="M442.91,-224.4C435.43,-215.66 425.78,-204.41 417.97,-195.3"/>
<polygon fill="midnightblue" stroke="midnightblue" points="420.59,-192.97 411.42,-187.66 415.27,-197.53 420.59,-192.97"/>
</g>
<!-- Node3&#45;&gt;Node19 -->
<g id="edge20" class="edge">
<title>Node3&#45;&gt;Node19</title>
<path fill="none" stroke="midnightblue" d="M451.15,-224.47C442.69,-193.57 422.44,-119.69 413,-85.25"/>
<polygon fill="midnightblue" stroke="midnightblue" points="416.36,-84.28 410.35,-75.56 409.61,-86.13 416.36,-84.28"/>
</g>
<!-- Node5 -->
<g id="node5" class="node">
<title>Node5</title>
<g id="a_node5"><a xlink:href="any_8h.html" target="_top" xlink:title=" ">
<polygon fill="white" stroke="black" points="1210.5,-112.5 1210.5,-131.5 1315.5,-131.5 1315.5,-112.5 1210.5,-112.5"/>
<text text-anchor="middle" x="1263" y="-119.5" font-family="Helvetica,sans-Serif" font-size="10.00">BayesFilters/any.h</text>
</a>
</g>
</g>
<!-- Node4&#45;&gt;Node5 -->
<g id="edge4" class="edge">
<title>Node4&#45;&gt;Node5</title>
<path fill="none" stroke="midnightblue" d="M1246.3,-168.08C1248.98,-160.85 1252.85,-150.41 1256.19,-141.4"/>
<polygon fill="midnightblue" stroke="midnightblue" points="1259.57,-142.34 1259.76,-131.75 1253,-139.91 1259.57,-142.34"/>
</g>
<!-- Node6 -->
<g id="node6" class="node">
<title>Node6</title>
<g id="a_node6"><a xlink:title=" ">
<polygon fill="white" stroke="#bfbfbf" points="1168,-56.5 1168,-75.5 1232,-75.5 1232,-56.5 1168,-56.5"/>
<text text-anchor="middle" x="1200" y="-63.5" font-family="Helvetica,sans-Serif" font-size="10.00">algorithm</text>
</a>
</g>
</g>
<!-- Node5&#45;&gt;Node6 -->
<g id="edge5" class="edge">
<title>Node5&#45;&gt;Node6</title>
<path fill="none" stroke="midnightblue" d="M1252.88,-112.32C1243.47,-104.26 1229.26,-92.08 1217.93,-82.37"/>
<polygon fill="midnightblue" stroke="midnightblue" points="1220.18,-79.68 1210.31,-75.83 1215.62,-85 1220.18,-79.68"/>
</g>
<!-- Node5&#45;&gt;Node7 -->
<g id="edge6" class="edge">
<title>Node5&#45;&gt;Node7</title>
<path fill="none" stroke="midnightblue" d="M1240.5,-112.44C1216.92,-103.48 1179.68,-89.31 1153.04,-79.18"/>
<polygon fill="midnightblue" stroke="midnightblue" points="1153.99,-75.8 1143.4,-75.52 1151.5,-82.34 1153.99,-75.8"/>
</g>
<!-- Node8 -->
<g id="node8" class="node">
<title>Node8</title>
<g id="a_node8"><a xlink:title=" ">
<polygon fill="white" stroke="#bfbfbf" points="1250.5,-56.5 1250.5,-75.5 1315.5,-75.5 1315.5,-56.5 1250.5,-56.5"/>
<text text-anchor="middle" x="1283" y="-63.5" font-family="Helvetica,sans-Serif" font-size="10.00">stdexcept</text>
</a>
</g>
</g>
<!-- Node5&#45;&gt;Node8 -->
<g id="edge7" class="edge">
<title>Node5&#45;&gt;Node8</title>
<path fill="none" stroke="midnightblue" d="M1266.3,-112.08C1268.98,-104.85 1272.85,-94.41 1276.19,-85.4"/>
<polygon fill="midnightblue" stroke="midnightblue" points="1279.57,-86.34 1279.76,-75.75 1273,-83.91 1279.57,-86.34"/>
</g>
<!-- Node9 -->
<g id="node9" class="node">
<title>Node9</title>
<g id="a_node9"><a xlink:title=" ">
<polygon fill="white" stroke="#bfbfbf" points="1333.5,-56.5 1333.5,-75.5 1390.5,-75.5 1390.5,-56.5 1333.5,-56.5"/>
<text text-anchor="middle" x="1362" y="-63.5" font-family="Helvetica,sans-Serif" font-size="10.00">typeinfo</text>
</a>
</g>
</g>
<!-- Node5&#45;&gt;Node9 -->
<g id="edge8" class="edge">
<title>Node5&#45;&gt;Node9</title>
<path fill="none" stroke="midnightblue" d="M1278.91,-112.32C1294.64,-103.74 1318.94,-90.49 1337.21,-80.52"/>
<polygon fill="midnightblue" stroke="midnightblue" points="1339.03,-83.52 1346.13,-75.65 1335.68,-77.37 1339.03,-83.52"/>
</g>
<!-- Node10 -->
<g id="node10" class="node">
<title>Node10</title>
<g id="a_node10"><a xlink:title=" ">
<polygon fill="white" stroke="#bfbfbf" points="1408.5,-56.5 1408.5,-75.5 1477.5,-75.5 1477.5,-56.5 1408.5,-56.5"/>
<text text-anchor="middle" x="1443" y="-63.5" font-family="Helvetica,sans-Serif" font-size="10.00">type_traits</text>
</a>
</g>
</g>
<!-- Node5&#45;&gt;Node10 -->
<g id="edge9" class="edge">
<title>Node5&#45;&gt;Node10</title>
<path fill="none" stroke="midnightblue" d="M1291.52,-112.44C1322.07,-103.28 1370.71,-88.69 1404.6,-78.52"/>
<polygon fill="midnightblue" stroke="midnightblue" points="1406.04,-81.74 1414.61,-75.52 1404.03,-75.04 1406.04,-81.74"/>
</g>
<!-- Node12 -->
<g id="node12" class="node">
<title>Node12</title>
<g id="a_node12"><a xlink:title=" ">
<polygon fill="white" stroke="#bfbfbf" points="286.5,-112.5 286.5,-131.5 341.5,-131.5 341.5,-112.5 286.5,-112.5"/>
<text text-anchor="middle" x="314" y="-119.5" font-family="Helvetica,sans-Serif" font-size="10.00">fstream</text>
</a>
</g>
</g>
<!-- Node11&#45;&gt;Node12 -->
<g id="edge11" class="edge">
<title>Node11&#45;&gt;Node12</title>
<path fill="none" stroke="midnightblue" d="M252.73,-168.32C263.84,-160.11 280.74,-147.6 293.98,-137.81"/>
<polygon fill="midnightblue" stroke="midnightblue" points="296.1,-140.59 302.06,-131.83 291.94,-134.97 296.1,-140.59"/>
</g>
<!-- Node13 -->
<g id="node13" class="node">
<title>Node13</title>
<g id="a_node13"><a xlink:title=" ">
<polygon fill="white" stroke="#bfbfbf" points="208,-112.5 208,-131.5 268,-131.5 268,-112.5 208,-112.5"/>
<text text-anchor="middle" x="238" y="-119.5" font-family="Helvetica,sans-Serif" font-size="10.00">iostream</text>
</a>
</g>
</g>
<!-- Node11&#45;&gt;Node13 -->
<g id="edge12" class="edge">
<title>Node11&#45;&gt;Node13</title>
<path fill="none" stroke="midnightblue" d="M240.5,-168.08C240.11,-161.01 239.55,-150.86 239.05,-141.99"/>
<polygon fill="midnightblue" stroke="midnightblue" points="242.54,-141.54 238.49,-131.75 235.55,-141.93 242.54,-141.54"/>
</g>
<!-- Node11&#45;&gt;Node14 -->
<g id="edge13" class="edge">
<title>Node11&#45;&gt;Node14</title>
<path fill="none" stroke="midnightblue" d="M229.74,-168.31C219.94,-160.07 206.21,-146.79 199,-132 182.76,-98.66 179.83,-54.6 179.61,-29.89"/>
<polygon fill="midnightblue" stroke="midnightblue" points="183.11,-29.75 179.67,-19.73 176.11,-29.71 183.11,-29.75"/>
</g>
<!-- Node15 -->
<g id="node15" class="node">
<title>Node15</title>
<g id="a_node15"><a xlink:title=" ">
<polygon fill="white" stroke="#bfbfbf" points="104.5,-112.5 104.5,-131.5 151.5,-131.5 151.5,-112.5 104.5,-112.5"/>
<text text-anchor="middle" x="128" y="-119.5" font-family="Helvetica,sans-Serif" font-size="10.00">vector</text>
</a>
</g>
</g>
<!-- Node11&#45;&gt;Node15 -->
<g id="edge14" class="edge">
<title>Node11&#45;&gt;Node15</title>
<path fill="none" stroke="midnightblue" d="M223.09,-168.44C204.75,-159.68 175.99,-145.94 154.91,-135.86"/>
<polygon fill="midnightblue" stroke="midnightblue" points="156.35,-132.67 145.82,-131.52 153.33,-138.99 156.35,-132.67"/>
</g>
<!-- Node17 -->
<g id="node17" class="node">
<title>Node17</title>
<g id="a_node17"><a xlink:title=" ">
<polygon fill="white" stroke="#bfbfbf" points="914.5,-0.5 914.5,-19.5 967.5,-19.5 967.5,-0.5 914.5,-0.5"/>
<text text-anchor="middle" x="941" y="-7.5" font-family="Helvetica,sans-Serif" font-size="10.00">cstddef</text>
</a>
</g>
</g>
<!-- Node16&#45;&gt;Node17 -->
<g id="edge16" class="edge">
<title>Node16&#45;&gt;Node17</title>
<path fill="none" stroke="midnightblue" d="M941,-56.08C941,-49.01 941,-38.86 941,-29.99"/>
<polygon fill="midnightblue" stroke="midnightblue" points="944.5,-29.75 941,-19.75 937.5,-29.75 944.5,-29.75"/>
</g>
<!-- Node20&#45;&gt;Node3 -->
<g id="edge25" class="edge">
<title>Node20&#45;&gt;Node3</title>
<path fill="none" stroke="midnightblue" d="M278.09,-296.87C309.43,-286.88 361.8,-270.2 401.44,-257.56"/>
<polygon fill="midnightblue" stroke="midnightblue" points="402.51,-260.9 410.97,-254.53 400.38,-254.23 402.51,-260.9"/>
</g>
<!-- Node20&#45;&gt;Node19 -->
<g id="edge26" class="edge">
<title>Node20&#45;&gt;Node19</title>
<path fill="none" stroke="midnightblue" d="M256.77,-296.73C279.86,-261.66 365.75,-131.18 396.75,-84.09"/>
<polygon fill="midnightblue" stroke="midnightblue" points="399.76,-85.88 402.34,-75.6 393.92,-82.03 399.76,-85.88"/>
</g>
<!-- Node20&#45;&gt;Node21 -->
<g id="edge22" class="edge">
<title>Node20&#45;&gt;Node21</title>
<path fill="none" stroke="midnightblue" d="M232.81,-296.87C209.47,-285.8 168.77,-266.49 141.61,-253.6"/>
<polygon fill="midnightblue" stroke="midnightblue" points="142.8,-250.29 132.27,-249.17 139.8,-256.62 142.8,-250.29"/>
</g>
<!-- Node21&#45;&gt;Node15 -->
<g id="edge23" class="edge">
<title>Node21&#45;&gt;Node15</title>
<path fill="none" stroke="midnightblue" d="M115.05,-229.82C117.3,-211.26 122.63,-167.34 125.7,-141.97"/>
<polygon fill="midnightblue" stroke="midnightblue" points="129.21,-142.13 126.94,-131.78 122.26,-141.29 129.21,-142.13"/>
</g>
<!-- Node21&#45;&gt;Node19 -->
<g id="edge24" class="edge">
<title>Node21&#45;&gt;Node19</title>
<path fill="none" stroke="midnightblue" d="M108.68,-229.86C95.6,-207.42 65.04,-146.57 95,-112 128.59,-73.24 279.91,-67.09 359.19,-66.59"/>
<polygon fill="midnightblue" stroke="midnightblue" points="359.43,-70.09 369.42,-66.56 359.4,-63.09 359.43,-70.09"/>
</g>
<!-- Node22&#45;&gt;Node2 -->
<g id="edge29" class="edge">
<title>Node22&#45;&gt;Node2</title>
<path fill="none" stroke="midnightblue" d="M667.8,-359.11C625.77,-348.92 567.71,-334.84 522.85,-323.96"/>
<polygon fill="midnightblue" stroke="midnightblue" points="523.46,-320.5 512.91,-321.55 521.81,-327.3 523.46,-320.5"/>
</g>
<!-- Node22&#45;&gt;Node3 -->
<g id="edge48" class="edge">
<title>Node22&#45;&gt;Node3</title>
<path fill="none" stroke="midnightblue" d="M682.63,-358.49C658.32,-349.4 627.13,-336.57 601,-322 580.42,-310.53 578.2,-303.12 558,-291 538.33,-279.2 515.52,-267.8 496.37,-258.83"/>
<polygon fill="midnightblue" stroke="midnightblue" points="497.83,-255.65 487.29,-254.62 494.89,-262 497.83,-255.65"/>
</g>
<!-- Node22&#45;&gt;Node4 -->
<g id="edge45" class="edge">
<title>Node22&#45;&gt;Node4</title>
<path fill="none" stroke="midnightblue" d="M778.23,-369.31C868.24,-363.41 1042.03,-348.86 1097,-322 1157.95,-292.21 1209.31,-227.14 1231.39,-196.11"/>
<polygon fill="midnightblue" stroke="midnightblue" points="1234.44,-197.86 1237.29,-187.66 1228.7,-193.86 1234.44,-197.86"/>
</g>
<!-- Node22&#45;&gt;Node16 -->
<g id="edge50" class="edge">
<title>Node22&#45;&gt;Node16</title>
<path fill="none" stroke="midnightblue" d="M778.27,-369.25C856.66,-363.71 995.16,-350.17 1036,-322 1070.42,-298.26 1083,-282.31 1083,-240.5 1083,-240.5 1083,-240.5 1083,-177 1083,-125.07 1022.91,-94.15 980.91,-78.89"/>
<polygon fill="midnightblue" stroke="midnightblue" points="982.06,-75.58 971.46,-75.6 979.76,-82.19 982.06,-75.58"/>
</g>
<!-- Node22&#45;&gt;Node19 -->
<g id="edge52" class="edge">
<title>Node22&#45;&gt;Node19</title>
<path fill="none" stroke="midnightblue" d="M706.77,-358.4C665.27,-322.12 552.4,-222.1 465,-132 449.57,-116.09 432.98,-96.91 421.7,-83.53"/>
<polygon fill="midnightblue" stroke="midnightblue" points="424.22,-81.08 415.11,-75.66 418.85,-85.57 424.22,-81.08"/>
</g>
<!-- Node22&#45;&gt;Node21 -->
<g id="edge47" class="edge">
<title>Node22&#45;&gt;Node21</title>
<path fill="none" stroke="midnightblue" d="M667.8,-370.8C532.35,-366.18 191.51,-351.72 150,-322 129.5,-307.32 120.51,-278.29 116.68,-259.14"/>
<polygon fill="midnightblue" stroke="midnightblue" points="120.12,-258.45 114.98,-249.19 113.22,-259.63 120.12,-258.45"/>
</g>
<!-- Node23 -->
<g id="node23" class="node">
<title>Node23</title>
<g id="a_node23"><a xlink:href="AdditiveStateModel_8h.html" target="_top" xlink:title=" ">
<polygon fill="white" stroke="black" points="797,-291.5 797,-321.5 943,-321.5 943,-291.5 797,-291.5"/>
<text text-anchor="start" x="805" y="-309.5" font-family="Helvetica,sans-Serif" font-size="10.00">BayesFilters/AdditiveState</text>
<text text-anchor="middle" x="870" y="-298.5" font-family="Helvetica,sans-Serif" font-size="10.00">Model.h</text>
</a>
</g>
</g>
<!-- Node22&#45;&gt;Node23 -->
<g id="edge30" class="edge">
<title>Node22&#45;&gt;Node23</title>
<path fill="none" stroke="midnightblue" d="M754.9,-358.4C776.57,-348.81 805.43,-336.05 828.84,-325.7"/>
<polygon fill="midnightblue" stroke="midnightblue" points="830.44,-328.82 838.17,-321.58 827.6,-322.42 830.44,-328.82"/>
</g>
<!-- Node24 -->
<g id="node24" class="node">
<title>Node24</title>
<g id="a_node24"><a xlink:href="StateModel_8h.html" target="_top" xlink:title=" ">
<polygon fill="white" stroke="black" points="801,-230 801,-249 945,-249 945,-230 801,-230"/>
<text text-anchor="middle" x="873" y="-237" font-family="Helvetica,sans-Serif" font-size="10.00">BayesFilters/StateModel.h</text>
</a>
</g>
</g>
<!-- Node22&#45;&gt;Node24 -->
<g id="edge49" class="edge">
<title>Node22&#45;&gt;Node24</title>
<path fill="none" stroke="midnightblue" d="M732.02,-358.24C743.5,-340.87 764.67,-311.33 788,-291 805.36,-275.87 827.87,-262.73 845.36,-253.65"/>
<polygon fill="midnightblue" stroke="midnightblue" points="847.15,-256.67 854.5,-249.03 844,-250.42 847.15,-256.67"/>
</g>
<!-- Node25 -->
<g id="node25" class="node">
<title>Node25</title>
<g id="a_node25"><a xlink:href="ExogenousModel_8h.html" target="_top" xlink:title=" ">
<polygon fill="white" stroke="black" points="637.5,-168.5 637.5,-187.5 808.5,-187.5 808.5,-168.5 637.5,-168.5"/>
<text text-anchor="middle" x="723" y="-175.5" font-family="Helvetica,sans-Serif" font-size="10.00">BayesFilters/ExogenousModel.h</text>
</a>
</g>
</g>
<!-- Node22&#45;&gt;Node25 -->
<g id="edge46" class="edge">
<title>Node22&#45;&gt;Node25</title>
<path fill="none" stroke="midnightblue" d="M723,-358.27C723,-323.94 723,-236.57 723,-197.9"/>
<polygon fill="midnightblue" stroke="midnightblue" points="726.5,-197.58 723,-187.58 719.5,-197.58 726.5,-197.58"/>
</g>
<!-- Node30 -->
<g id="node30" class="node">
<title>Node30</title>
<g id="a_node30"><a xlink:title=" ">
<polygon fill="white" stroke="#bfbfbf" points="961.5,-297 961.5,-316 1026.5,-316 1026.5,-297 961.5,-297"/>
<text text-anchor="middle" x="994" y="-304" font-family="Helvetica,sans-Serif" font-size="10.00">functional</text>
</a>
</g>
</g>
<!-- Node22&#45;&gt;Node30 -->
<g id="edge51" class="edge">
<title>Node22&#45;&gt;Node30</title>
<path fill="none" stroke="midnightblue" d="M778.04,-362.22C824.7,-353.06 893.22,-338.57 952,-322 954.95,-321.17 957.99,-320.25 961.03,-319.28"/>
<polygon fill="midnightblue" stroke="midnightblue" points="962.21,-322.58 970.6,-316.11 960.01,-315.93 962.21,-322.58"/>
</g>
<!-- Node23&#45;&gt;Node16 -->
<g id="edge44" class="edge">
<title>Node23&#45;&gt;Node16</title>
<path fill="none" stroke="midnightblue" d="M901.32,-291.46C918.34,-282.72 938.93,-270.25 954,-255 998.53,-209.95 1009.42,-193.14 1026,-132 1028.33,-123.42 1030.58,-119.62 1026,-112 1016.71,-96.57 1000.17,-86.16 984.13,-79.27"/>
<polygon fill="midnightblue" stroke="midnightblue" points="985.39,-76.01 974.8,-75.61 982.83,-82.52 985.39,-76.01"/>
</g>
<!-- Node23&#45;&gt;Node24 -->
<g id="edge31" class="edge">
<title>Node23&#45;&gt;Node24</title>
<path fill="none" stroke="midnightblue" d="M870.65,-291.4C871.09,-281.96 871.66,-269.45 872.14,-259.19"/>
<polygon fill="midnightblue" stroke="midnightblue" points="875.63,-259.35 872.6,-249.19 868.64,-259.02 875.63,-259.35"/>
</g>
<!-- Node24&#45;&gt;Node7 -->
<g id="edge43" class="edge">
<title>Node24&#45;&gt;Node7</title>
<path fill="none" stroke="midnightblue" d="M945.13,-231.02C1007.11,-220.36 1092.92,-194.53 1135,-132 1144.44,-117.97 1138.5,-98.72 1131.68,-84.82"/>
<polygon fill="midnightblue" stroke="midnightblue" points="1134.62,-82.9 1126.77,-75.78 1128.47,-86.24 1134.62,-82.9"/>
</g>
<!-- Node24&#45;&gt;Node25 -->
<g id="edge32" class="edge">
<title>Node24&#45;&gt;Node25</title>
<path fill="none" stroke="midnightblue" d="M851.51,-229.98C825.89,-219.81 782.89,-202.76 753.76,-191.2"/>
<polygon fill="midnightblue" stroke="midnightblue" points="755.04,-187.94 744.45,-187.51 752.46,-194.45 755.04,-187.94"/>
</g>
<!-- Node27 -->
<g id="node27" class="node">
<title>Node27</title>
<g id="a_node27"><a xlink:href="Skippable_8h.html" target="_top" xlink:title=" ">
<polygon fill="white" stroke="black" points="671.5,-112.5 671.5,-131.5 808.5,-131.5 808.5,-112.5 671.5,-112.5"/>
<text text-anchor="middle" x="740" y="-119.5" font-family="Helvetica,sans-Serif" font-size="10.00">BayesFilters/Skippable.h</text>
</a>
</g>
</g>
<!-- Node24&#45;&gt;Node27 -->
<g id="edge39" class="edge">
<title>Node24&#45;&gt;Node27</title>
<path fill="none" stroke="midnightblue" d="M867.8,-229.82C858.95,-215.58 839.79,-186.95 818,-168 803.15,-155.09 784.05,-143.99 768.46,-136.05"/>
<polygon fill="midnightblue" stroke="midnightblue" points="769.8,-132.81 759.28,-131.53 766.7,-139.09 769.8,-132.81"/>
</g>
<!-- Node29 -->
<g id="node29" class="node">
<title>Node29</title>
<g id="a_node29"><a xlink:href="StateProcess_8h.html" target="_top" xlink:title=" ">
<polygon fill="white" stroke="black" points="865,-112.5 865,-131.5 1017,-131.5 1017,-112.5 865,-112.5"/>
<text text-anchor="middle" x="941" y="-119.5" font-family="Helvetica,sans-Serif" font-size="10.00">BayesFilters/StateProcess.h</text>
</a>
</g>
</g>
<!-- Node24&#45;&gt;Node29 -->
<g id="edge40" class="edge">
<title>Node24&#45;&gt;Node29</title>
<path fill="none" stroke="midnightblue" d="M878.11,-229.82C889.24,-210.92 915.83,-165.75 930.63,-140.62"/>
<polygon fill="midnightblue" stroke="midnightblue" points="933.77,-142.18 935.83,-131.78 927.74,-138.62 933.77,-142.18"/>
</g>
<!-- Node26 -->
<g id="node26" class="node">
<title>Node26</title>
<g id="a_node26"><a xlink:href="ExogenousProcess_8h.html" target="_top" xlink:title=" ">
<polygon fill="white" stroke="black" points="474.5,-112.5 474.5,-131.5 653.5,-131.5 653.5,-112.5 474.5,-112.5"/>
<text text-anchor="middle" x="564" y="-119.5" font-family="Helvetica,sans-Serif" font-size="10.00">BayesFilters/ExogenousProcess.h</text>
</a>
</g>
</g>
<!-- Node25&#45;&gt;Node26 -->
<g id="edge33" class="edge">
<title>Node25&#45;&gt;Node26</title>
<path fill="none" stroke="midnightblue" d="M697.81,-168.44C671.06,-159.36 628.6,-144.94 598.69,-134.78"/>
<polygon fill="midnightblue" stroke="midnightblue" points="599.67,-131.42 589.08,-131.52 597.42,-138.05 599.67,-131.42"/>
</g>
<!-- Node25&#45;&gt;Node27 -->
<g id="edge36" class="edge">
<title>Node25&#45;&gt;Node27</title>
<path fill="none" stroke="midnightblue" d="M725.81,-168.08C728.08,-160.85 731.37,-150.41 734.21,-141.4"/>
<polygon fill="midnightblue" stroke="midnightblue" points="737.58,-142.34 737.25,-131.75 730.9,-140.24 737.58,-142.34"/>
</g>
<!-- Node26&#45;&gt;Node16 -->
<g id="edge34" class="edge">
<title>Node26&#45;&gt;Node16</title>
<path fill="none" stroke="midnightblue" d="M623.74,-112.44C691.02,-102.81 800.23,-87.16 871.34,-76.98"/>
<polygon fill="midnightblue" stroke="midnightblue" points="872.14,-80.4 881.54,-75.52 871.15,-73.47 872.14,-80.4"/>
</g>
<!-- Node26&#45;&gt;Node19 -->
<g id="edge35" class="edge">
<title>Node26&#45;&gt;Node19</title>
<path fill="none" stroke="midnightblue" d="M539.28,-112.44C513.15,-103.4 471.74,-89.06 442.42,-78.92"/>
<polygon fill="midnightblue" stroke="midnightblue" points="443.2,-75.48 432.6,-75.52 440.91,-82.1 443.2,-75.48"/>
</g>
<!-- Node28 -->
<g id="node28" class="node">
<title>Node28</title>
<g id="a_node28"><a xlink:href="Skipper_8h.html" target="_top" xlink:title=" ">
<polygon fill="white" stroke="black" points="571.5,-56.5 571.5,-75.5 696.5,-75.5 696.5,-56.5 571.5,-56.5"/>
<text text-anchor="middle" x="634" y="-63.5" font-family="Helvetica,sans-Serif" font-size="10.00">BayesFilters/Skipper.h</text>
</a>
</g>
</g>
<!-- Node27&#45;&gt;Node28 -->
<g id="edge37" class="edge">
<title>Node27&#45;&gt;Node28</title>
<path fill="none" stroke="midnightblue" d="M722.97,-112.32C705.97,-103.66 679.62,-90.24 660.01,-80.25"/>
<polygon fill="midnightblue" stroke="midnightblue" points="661.49,-77.08 650.99,-75.65 658.31,-83.31 661.49,-77.08"/>
</g>
<!-- Node28&#45;&gt;Node14 -->
<g id="edge38" class="edge">
<title>Node28&#45;&gt;Node14</title>
<path fill="none" stroke="midnightblue" d="M571.35,-57.55C473.28,-45.88 286.99,-23.73 212.23,-14.83"/>
<polygon fill="midnightblue" stroke="midnightblue" points="212.38,-11.33 202.04,-13.62 211.55,-18.28 212.38,-11.33"/>
</g>
<!-- Node29&#45;&gt;Node16 -->
<g id="edge41" class="edge">
<title>Node29&#45;&gt;Node16</title>
<path fill="none" stroke="midnightblue" d="M941,-112.08C941,-105.01 941,-94.86 941,-85.99"/>
<polygon fill="midnightblue" stroke="midnightblue" points="944.5,-85.75 941,-75.75 937.5,-85.75 944.5,-85.75"/>
</g>
<!-- Node29&#45;&gt;Node19 -->
<g id="edge42" class="edge">
<title>Node29&#45;&gt;Node19</title>
<path fill="none" stroke="midnightblue" d="M864.92,-113.29C753.61,-102.01 549.53,-81.34 456.51,-71.91"/>
<polygon fill="midnightblue" stroke="midnightblue" points="456.83,-68.43 446.52,-70.9 456.12,-75.39 456.83,-68.43"/>
</g>
</g>
</svg>
