<?xml version="1.0" encoding="UTF-8" standalone="no"?>
<!DOCTYPE svg PUBLIC "-//W3C//DTD SVG 1.1//EN"
 "http://www.w3.org/Graphics/SVG/1.1/DTD/svg11.dtd">
<!-- Generated by graphviz version 2.43.0 (0)
 -->
<!-- Title: /home/user/bayes&#45;filters&#45;lib/src/BayesFilters/src/SUKFCorrection.cpp Pages: 1 -->
<!--zoomable 531 -->
<svg id="main" version="1.1" xmlns="http://www.w3.org/2000/svg" xmlns:xlink="http://www.w3.org/1999/xlink" xml:space="preserve" onload="init(evt)">
<style type="text/css"><![CDATA[
.edge:hover path { stroke: red; }
.edge:hover polygon { stroke: red; fill: red; }
]]></style>
<script type="text/javascript"><![CDATA[
var edges = document.getElementsByTagName('g');
if (edges && edges.length) {
  for (var i=0;i<edges.length;i++) {
    if (edges[i].id.substr(0,4)=='edge') {
      edges[i].setAttribute('class','edge');
    }
  }
}
]]></script>
        <defs>
                <circle id="rim" cx="0" cy="0" r="7"/>
                <circle id="rim2" cx="0" cy="0" r="3.5"/>
                <g id="zoomPlus">
                        <use xlink:href="#rim" fill="#404040">
                                <set attributeName="fill" to="#808080" begin="zoomplus.mouseover" end="zoomplus.mouseout"/>
                        </use>
                        <path d="M-4,0h8M0,-4v8" fill="none" stroke="white" stroke-width="1.5" pointer-events="none"/>
                </g>
                <g id="zoomMin">
                        <use xlink:href="#rim" fill="#404040">
                                <set attributeName="fill" to="#808080" begin="zoomminus.mouseover" end="zoomminus.mouseout"/>
                        </use>
                        <path d="M-4,0h8" fill="none" stroke="white" stroke-width="1.5" pointer-events="none"/>
                </g>
                <g id="dirArrow">
                        <path fill="none" stroke="white" stroke-width="1.5" d="M0,-3.0v7 M-2.5,-0.5L0,-3.0L2.5,-0.5"/>
                </g>
               <g id="resetDef">
                       <use xlink:href="#rim2" fill="#404040">
                               <set attributeName="fill" to="#808080" begin="reset.mouseover" end="reset.mouseout"/>
                       </use>
               </g>
        </defs>

<script type="text/javascript">
var viewWidth = 1534;
var viewHeight = 531;
var sectionId = 'dynsection-0';
</script>
<script xlink:href="svgpan.js"/>
<svg id="graph" class="graph">
<g id="viewport">
<title>/home/user/bayes&#45;filters&#45;lib/src/BayesFilters/src/SUKFCorrection.cpp</title>
<polygon fill="white" stroke="transparent" points="-4,4 -4,-527 1530,-527 1530,4 -4,4"/>
<!-- Node1 -->
<g id="node1" class="node">
<title>Node1</title>
<g id="a_node1"><a xlink:title=" ">
<polygon fill="#bfbfbf" stroke="black" points="265.5,-481.5 265.5,-522.5 400.5,-522.5 400.5,-481.5 265.5,-481.5"/>
<text text-anchor="start" x="273.5" y="-510.5" font-family="Helvetica,sans-Serif" font-size="10.00">/home/user/bayes&#45;filters</text>
<text text-anchor="start" x="273.5" y="-499.5" font-family="Helvetica,sans-Serif" font-size="10.00">&#45;lib/src/BayesFilters/src</text>
<text text-anchor="middle" x="333" y="-488.5" font-family="Helvetica,sans-Serif" font-size="10.00">/SUKFCorrection.cpp</text>
</a>
</g>
</g>
<!-- Node2 -->
<g id="node2" class="node">
<title>Node2</title>
<g id="a_node2"><a xlink:href="SUKFCorrection_8h.html" target="_top" xlink:title=" ">
<polygon fill="white" stroke="black" points="250.5,-425.5 250.5,-444.5 415.5,-444.5 415.5,-425.5 250.5,-425.5"/>
<text text-anchor="middle" x="333" y="-432.5" font-family="Helvetica,sans-Serif" font-size="10.00">BayesFilters/SUKFCorrection.h</text>
</a>
</g>
</g>
<!-- Node1&#45;&gt;Node2 -->
<g id="edge1" class="edge">
<title>Node1&#45;&gt;Node2</title>
<path fill="none" stroke="midnightblue" d="M333,-481.5C333,-473.07 333,-463.24 333,-454.87"/>
<polygon fill="midnightblue" stroke="midnightblue" points="336.5,-454.65 333,-444.65 329.5,-454.65 336.5,-454.65"/>
</g>
<!-- Node32 -->
<g id="node32" class="node">
<title>Node32</title>
<g id="a_node32"><a xlink:href="directional__statistics_8h.html" target="_top" xlink:title=" ">
<polygon fill="white" stroke="black" points="530.5,-358.5 530.5,-388.5 661.5,-388.5 661.5,-358.5 530.5,-358.5"/>
<text text-anchor="start" x="538.5" y="-376.5" font-family="Helvetica,sans-Serif" font-size="10.00">BayesFilters/directional</text>
<text text-anchor="middle" x="596" y="-365.5" font-family="Helvetica,sans-Serif" font-size="10.00">_statistics.h</text>
</a>
</g>
</g>
<!-- Node1&#45;&gt;Node32 -->
<g id="edge55" class="edge">
<title>Node1&#45;&gt;Node32</title>
<path fill="none" stroke="midnightblue" d="M373.81,-481.37C423.96,-457.25 508.42,-416.62 557.5,-393.02"/>
<polygon fill="midnightblue" stroke="midnightblue" points="559.03,-396.17 566.53,-388.68 556,-389.86 559.03,-396.17"/>
</g>
<!-- Node33 -->
<g id="node33" class="node">
<title>Node33</title>
<g id="a_node33"><a xlink:href="utils_8h.html" target="_top" xlink:title=" ">
<polygon fill="white" stroke="black" points="44,-112.5 44,-131.5 154,-131.5 154,-112.5 44,-112.5"/>
<text text-anchor="middle" x="99" y="-119.5" font-family="Helvetica,sans-Serif" font-size="10.00">BayesFilters/utils.h</text>
</a>
</g>
</g>
<!-- Node1&#45;&gt;Node33 -->
<g id="edge57" class="edge">
<title>Node1&#45;&gt;Node33</title>
<path fill="none" stroke="midnightblue" d="M265.32,-493.3C196.21,-481.22 99,-450.7 99,-374.5 99,-374.5 99,-374.5 99,-238.5 99,-204.36 99,-164.55 99,-141.71"/>
<polygon fill="midnightblue" stroke="midnightblue" points="102.5,-141.69 99,-131.69 95.5,-141.69 102.5,-141.69"/>
</g>
<!-- Node3 -->
<g id="node3" class="node">
<title>Node3</title>
<g id="a_node3"><a xlink:href="AdditiveMeasurementModel_8h.html" target="_top" xlink:title=" ">
<polygon fill="white" stroke="black" points="481,-291.5 481,-321.5 669,-321.5 669,-291.5 481,-291.5"/>
<text text-anchor="start" x="489" y="-309.5" font-family="Helvetica,sans-Serif" font-size="10.00">BayesFilters/AdditiveMeasurement</text>
<text text-anchor="middle" x="575" y="-298.5" font-family="Helvetica,sans-Serif" font-size="10.00">Model.h</text>
</a>
</g>
</g>
<!-- Node2&#45;&gt;Node3 -->
<g id="edge2" class="edge">
<title>Node2&#45;&gt;Node3</title>
<path fill="none" stroke="midnightblue" d="M349.63,-425.31C388.42,-405.03 485.58,-354.24 538.78,-326.43"/>
<polygon fill="midnightblue" stroke="midnightblue" points="540.63,-329.42 547.87,-321.68 537.39,-323.21 540.63,-329.42"/>
</g>
<!-- Node20 -->
<g id="node20" class="node">
<title>Node20</title>
<g id="a_node20"><a xlink:title=" ">
<polygon fill="white" stroke="#bfbfbf" points="318.5,-56.5 318.5,-75.5 395.5,-75.5 395.5,-56.5 318.5,-56.5"/>
<text text-anchor="middle" x="357" y="-63.5" font-family="Helvetica,sans-Serif" font-size="10.00">Eigen/Dense</text>
</a>
</g>
</g>
<!-- Node2&#45;&gt;Node20 -->
<g id="edge54" class="edge">
<title>Node2&#45;&gt;Node20</title>
<path fill="none" stroke="midnightblue" d="M305.06,-425.38C284.95,-418.13 258.12,-406.16 239,-389 177.9,-334.17 124.76,-299.91 156,-224 186.9,-148.92 276.66,-100.85 325.1,-79.61"/>
<polygon fill="midnightblue" stroke="midnightblue" points="326.67,-82.75 334.5,-75.6 323.92,-76.31 326.67,-82.75"/>
</g>
<!-- Node21 -->
<g id="node21" class="node">
<title>Node21</title>
<g id="a_node21"><a xlink:href="GaussianCorrection_8h.html" target="_top" xlink:title=" ">
<polygon fill="white" stroke="black" points="241,-297 241,-316 425,-316 425,-297 241,-297"/>
<text text-anchor="middle" x="333" y="-304" font-family="Helvetica,sans-Serif" font-size="10.00">BayesFilters/GaussianCorrection.h</text>
</a>
</g>
</g>
<!-- Node2&#45;&gt;Node21 -->
<g id="edge22" class="edge">
<title>Node2&#45;&gt;Node21</title>
<path fill="none" stroke="midnightblue" d="M333,-425.31C333,-404.99 333,-354.05 333,-326.28"/>
<polygon fill="midnightblue" stroke="midnightblue" points="336.5,-326.26 333,-316.26 329.5,-326.26 336.5,-326.26"/>
</g>
<!-- Node22 -->
<g id="node22" class="node">
<title>Node22</title>
<g id="a_node22"><a xlink:href="GaussianMixture_8h.html" target="_top" xlink:title=" ">
<polygon fill="white" stroke="black" points="165.5,-230 165.5,-249 336.5,-249 336.5,-230 165.5,-230"/>
<text text-anchor="middle" x="251" y="-237" font-family="Helvetica,sans-Serif" font-size="10.00">BayesFilters/GaussianMixture.h</text>
</a>
</g>
</g>
<!-- Node2&#45;&gt;Node22 -->
<g id="edge28" class="edge">
<title>Node2&#45;&gt;Node22</title>
<path fill="none" stroke="midnightblue" d="M318.89,-425.39C293.55,-408.99 241.1,-370.52 221,-322 211.85,-299.9 225.56,-273.9 237.31,-257.31"/>
<polygon fill="midnightblue" stroke="midnightblue" points="240.24,-259.24 243.48,-249.15 234.66,-255.02 240.24,-259.24"/>
</g>
<!-- Node23 -->
<g id="node23" class="node">
<title>Node23</title>
<g id="a_node23"><a xlink:href="sigma__point_8h.html" target="_top" xlink:title=" ">
<polygon fill="white" stroke="black" points="724,-358.5 724,-388.5 834,-388.5 834,-358.5 724,-358.5"/>
<text text-anchor="start" x="732" y="-376.5" font-family="Helvetica,sans-Serif" font-size="10.00">BayesFilters/sigma</text>
<text text-anchor="middle" x="779" y="-365.5" font-family="Helvetica,sans-Serif" font-size="10.00">_point.h</text>
</a>
</g>
</g>
<!-- Node2&#45;&gt;Node23 -->
<g id="edge29" class="edge">
<title>Node2&#45;&gt;Node23</title>
<path fill="none" stroke="midnightblue" d="M396.9,-425.48C481.27,-414.22 629.02,-394.51 713.96,-383.18"/>
<polygon fill="midnightblue" stroke="midnightblue" points="714.55,-386.63 724,-381.84 713.62,-379.69 714.55,-386.63"/>
</g>
<!-- Node4 -->
<g id="node4" class="node">
<title>Node4</title>
<g id="a_node4"><a xlink:href="MeasurementModel_8h.html" target="_top" xlink:title=" ">
<polygon fill="white" stroke="black" points="514.5,-224.5 514.5,-254.5 661.5,-254.5 661.5,-224.5 514.5,-224.5"/>
<text text-anchor="start" x="522.5" y="-242.5" font-family="Helvetica,sans-Serif" font-size="10.00">BayesFilters/Measurement</text>
<text text-anchor="middle" x="588" y="-231.5" font-family="Helvetica,sans-Serif" font-size="10.00">Model.h</text>
</a>
</g>
</g>
<!-- Node3&#45;&gt;Node4 -->
<g id="edge3" class="edge">
<title>Node3&#45;&gt;Node4</title>
<path fill="none" stroke="midnightblue" d="M577.82,-291.4C579.39,-283.56 581.38,-273.6 583.19,-264.57"/>
<polygon fill="midnightblue" stroke="midnightblue" points="586.66,-265.07 585.18,-254.58 579.79,-263.7 586.66,-265.07"/>
</g>
<!-- Node5 -->
<g id="node5" class="node">
<title>Node5</title>
<g id="a_node5"><a xlink:href="Data_8h.html" target="_top" xlink:title=" ">
<polygon fill="white" stroke="black" points="755,-168.5 755,-187.5 867,-187.5 867,-168.5 755,-168.5"/>
<text text-anchor="middle" x="811" y="-175.5" font-family="Helvetica,sans-Serif" font-size="10.00">BayesFilters/Data.h</text>
</a>
</g>
</g>
<!-- Node4&#45;&gt;Node5 -->
<g id="edge4" class="edge">
<title>Node4&#45;&gt;Node5</title>
<path fill="none" stroke="midnightblue" d="M640.57,-224.47C679.88,-213.99 732.91,-199.84 769.32,-190.12"/>
<polygon fill="midnightblue" stroke="midnightblue" points="770.36,-193.47 779.12,-187.51 768.55,-186.7 770.36,-193.47"/>
</g>
<!-- Node8 -->
<g id="node8" class="node">
<title>Node8</title>
<g id="a_node8"><a xlink:title=" ">
<polygon fill="white" stroke="#bfbfbf" points="679,-56.5 679,-75.5 737,-75.5 737,-56.5 679,-56.5"/>
<text text-anchor="middle" x="708" y="-63.5" font-family="Helvetica,sans-Serif" font-size="10.00">memory</text>
</a>
</g>
</g>
<!-- Node4&#45;&gt;Node8 -->
<g id="edge18" class="edge">
<title>Node4&#45;&gt;Node8</title>
<path fill="none" stroke="midnightblue" d="M621.53,-224.37C637.9,-215.96 656.67,-203.81 669,-188 693.02,-157.22 702.47,-111.2 706.01,-85.7"/>
<polygon fill="midnightblue" stroke="midnightblue" points="709.51,-85.91 707.25,-75.56 702.56,-85.05 709.51,-85.91"/>
</g>
<!-- Node12 -->
<g id="node12" class="node">
<title>Node12</title>
<g id="a_node12"><a xlink:href="Logger_8h.html" target="_top" xlink:title=" ">
<polygon fill="white" stroke="black" points="539.5,-168.5 539.5,-187.5 660.5,-187.5 660.5,-168.5 539.5,-168.5"/>
<text text-anchor="middle" x="600" y="-175.5" font-family="Helvetica,sans-Serif" font-size="10.00">BayesFilters/Logger.h</text>
</a>
</g>
</g>
<!-- Node4&#45;&gt;Node12 -->
<g id="edge11" class="edge">
<title>Node4&#45;&gt;Node12</title>
<path fill="none" stroke="midnightblue" d="M590.84,-224.4C592.46,-216.38 594.51,-206.23 596.25,-197.57"/>
<polygon fill="midnightblue" stroke="midnightblue" points="599.71,-198.15 598.25,-187.66 592.85,-196.77 599.71,-198.15"/>
</g>
<!-- Node15 -->
<g id="node15" class="node">
<title>Node15</title>
<g id="a_node15"><a xlink:title=" ">
<polygon fill="white" stroke="#bfbfbf" points="395,-0.5 395,-19.5 439,-19.5 439,-0.5 395,-0.5"/>
<text text-anchor="middle" x="417" y="-7.5" font-family="Helvetica,sans-Serif" font-size="10.00">string</text>
</a>
</g>
</g>
<!-- Node4&#45;&gt;Node15 -->
<g id="edge19" class="edge">
<title>Node4&#45;&gt;Node15</title>
<path fill="none" stroke="midnightblue" d="M525.67,-224.44C456.13,-204.84 348.24,-161.61 309,-76 293.29,-41.72 347.65,-24.14 384.88,-16.31"/>
<polygon fill="midnightblue" stroke="midnightblue" points="385.71,-19.71 394.85,-14.35 384.36,-12.84 385.71,-19.71"/>
</g>
<!-- Node17 -->
<g id="node17" class="node">
<title>Node17</title>
<g id="a_node17"><a xlink:href="VectorDescription_8h.html" target="_top" xlink:title=" ">
<polygon fill="white" stroke="black" points="1296.5,-56.5 1296.5,-75.5 1471.5,-75.5 1471.5,-56.5 1296.5,-56.5"/>
<text text-anchor="middle" x="1384" y="-63.5" font-family="Helvetica,sans-Serif" font-size="10.00">BayesFilters/VectorDescription.h</text>
</a>
</g>
</g>
<!-- Node4&#45;&gt;Node17 -->
<g id="edge16" class="edge">
<title>Node4&#45;&gt;Node17</title>
<path fill="none" stroke="midnightblue" d="M661.72,-238.31C722.55,-235.26 809.38,-224.09 876,-188 916.64,-165.98 905.6,-132.56 947,-112 961.99,-104.55 1161.95,-86.16 1286.12,-75.33"/>
<polygon fill="midnightblue" stroke="midnightblue" points="1286.75,-78.79 1296.41,-74.44 1286.15,-71.82 1286.75,-78.79"/>
</g>
<!-- Node19 -->
<g id="node19" class="node">
<title>Node19</title>
<g id="a_node19"><a xlink:title=" ">
<polygon fill="white" stroke="#bfbfbf" points="476.5,-168.5 476.5,-187.5 521.5,-187.5 521.5,-168.5 476.5,-168.5"/>
<text text-anchor="middle" x="499" y="-175.5" font-family="Helvetica,sans-Serif" font-size="10.00">utility</text>
</a>
</g>
</g>
<!-- Node4&#45;&gt;Node19 -->
<g id="edge20" class="edge">
<title>Node4&#45;&gt;Node19</title>
<path fill="none" stroke="midnightblue" d="M566.91,-224.4C552.91,-215.04 534.59,-202.79 520.51,-193.38"/>
<polygon fill="midnightblue" stroke="midnightblue" points="522.21,-190.31 511.95,-187.66 518.32,-196.13 522.21,-190.31"/>
</g>
<!-- Node4&#45;&gt;Node20 -->
<g id="edge21" class="edge">
<title>Node4&#45;&gt;Node20</title>
<path fill="none" stroke="midnightblue" d="M542.04,-224.44C518.41,-215.98 489.86,-203.78 467,-188 424.34,-158.56 386.58,-109.56 368.43,-83.88"/>
<polygon fill="midnightblue" stroke="midnightblue" points="371.23,-81.78 362.65,-75.56 365.48,-85.77 371.23,-81.78"/>
</g>
<!-- Node6 -->
<g id="node6" class="node">
<title>Node6</title>
<g id="a_node6"><a xlink:href="any_8h.html" target="_top" xlink:title=" ">
<polygon fill="white" stroke="black" points="793.5,-112.5 793.5,-131.5 898.5,-131.5 898.5,-112.5 793.5,-112.5"/>
<text text-anchor="middle" x="846" y="-119.5" font-family="Helvetica,sans-Serif" font-size="10.00">BayesFilters/any.h</text>
</a>
</g>
</g>
<!-- Node5&#45;&gt;Node6 -->
<g id="edge5" class="edge">
<title>Node5&#45;&gt;Node6</title>
<path fill="none" stroke="midnightblue" d="M816.78,-168.08C821.67,-160.53 828.83,-149.49 834.83,-140.23"/>
<polygon fill="midnightblue" stroke="midnightblue" points="837.83,-142.05 840.33,-131.75 831.95,-138.24 837.83,-142.05"/>
</g>
<!-- Node7 -->
<g id="node7" class="node">
<title>Node7</title>
<g id="a_node7"><a xlink:title=" ">
<polygon fill="white" stroke="#bfbfbf" points="918,-56.5 918,-75.5 982,-75.5 982,-56.5 918,-56.5"/>
<text text-anchor="middle" x="950" y="-63.5" font-family="Helvetica,sans-Serif" font-size="10.00">algorithm</text>
</a>
</g>
</g>
<!-- Node6&#45;&gt;Node7 -->
<g id="edge6" class="edge">
<title>Node6&#45;&gt;Node7</title>
<path fill="none" stroke="midnightblue" d="M862.71,-112.32C879.31,-103.7 905,-90.36 924.22,-80.39"/>
<polygon fill="midnightblue" stroke="midnightblue" points="926.07,-83.37 933.33,-75.65 922.84,-77.16 926.07,-83.37"/>
</g>
<!-- Node6&#45;&gt;Node8 -->
<g id="edge7" class="edge">
<title>Node6&#45;&gt;Node8</title>
<path fill="none" stroke="midnightblue" d="M824.13,-112.44C801.22,-103.48 765.02,-89.31 739.13,-79.18"/>
<polygon fill="midnightblue" stroke="midnightblue" points="740.35,-75.9 729.76,-75.52 737.8,-82.42 740.35,-75.9"/>
</g>
<!-- Node9 -->
<g id="node9" class="node">
<title>Node9</title>
<g id="a_node9"><a xlink:title=" ">
<polygon fill="white" stroke="#bfbfbf" points="1000.5,-56.5 1000.5,-75.5 1065.5,-75.5 1065.5,-56.5 1000.5,-56.5"/>
<text text-anchor="middle" x="1033" y="-63.5" font-family="Helvetica,sans-Serif" font-size="10.00">stdexcept</text>
</a>
</g>
</g>
<!-- Node6&#45;&gt;Node9 -->
<g id="edge8" class="edge">
<title>Node6&#45;&gt;Node9</title>
<path fill="none" stroke="midnightblue" d="M875.63,-112.44C907.5,-103.24 958.33,-88.56 993.56,-78.39"/>
<polygon fill="midnightblue" stroke="midnightblue" points="994.87,-81.65 1003.51,-75.52 992.93,-74.93 994.87,-81.65"/>
</g>
<!-- Node10 -->
<g id="node10" class="node">
<title>Node10</title>
<g id="a_node10"><a xlink:title=" ">
<polygon fill="white" stroke="#bfbfbf" points="755.5,-56.5 755.5,-75.5 812.5,-75.5 812.5,-56.5 755.5,-56.5"/>
<text text-anchor="middle" x="784" y="-63.5" font-family="Helvetica,sans-Serif" font-size="10.00">typeinfo</text>
</a>
</g>
</g>
<!-- Node6&#45;&gt;Node10 -->
<g id="edge9" class="edge">
<title>Node6&#45;&gt;Node10</title>
<path fill="none" stroke="midnightblue" d="M836.04,-112.32C826.87,-104.34 813.06,-92.31 801.97,-82.65"/>
<polygon fill="midnightblue" stroke="midnightblue" points="803.98,-79.76 794.14,-75.83 799.38,-85.04 803.98,-79.76"/>
</g>
<!-- Node11 -->
<g id="node11" class="node">
<title>Node11</title>
<g id="a_node11"><a xlink:title=" ">
<polygon fill="white" stroke="#bfbfbf" points="830.5,-56.5 830.5,-75.5 899.5,-75.5 899.5,-56.5 830.5,-56.5"/>
<text text-anchor="middle" x="865" y="-63.5" font-family="Helvetica,sans-Serif" font-size="10.00">type_traits</text>
</a>
</g>
</g>
<!-- Node6&#45;&gt;Node11 -->
<g id="edge10" class="edge">
<title>Node6&#45;&gt;Node11</title>
<path fill="none" stroke="midnightblue" d="M849.14,-112.08C851.68,-104.85 855.36,-94.41 858.53,-85.4"/>
<polygon fill="midnightblue" stroke="midnightblue" points="861.9,-86.35 861.92,-75.75 855.3,-84.02 861.9,-86.35"/>
</g>
<!-- Node13 -->
<g id="node13" class="node">
<title>Node13</title>
<g id="a_node13"><a xlink:title=" ">
<polygon fill="white" stroke="#bfbfbf" points="567.5,-112.5 567.5,-131.5 622.5,-131.5 622.5,-112.5 567.5,-112.5"/>
<text text-anchor="middle" x="595" y="-119.5" font-family="Helvetica,sans-Serif" font-size="10.00">fstream</text>
</a>
</g>
</g>
<!-- Node12&#45;&gt;Node13 -->
<g id="edge12" class="edge">
<title>Node12&#45;&gt;Node13</title>
<path fill="none" stroke="midnightblue" d="M599.17,-168.08C598.52,-161.01 597.58,-150.86 596.76,-141.99"/>
<polygon fill="midnightblue" stroke="midnightblue" points="600.22,-141.39 595.81,-131.75 593.25,-142.03 600.22,-141.39"/>
</g>
<!-- Node14 -->
<g id="node14" class="node">
<title>Node14</title>
<g id="a_node14"><a xlink:title=" ">
<polygon fill="white" stroke="#bfbfbf" points="489,-112.5 489,-131.5 549,-131.5 549,-112.5 489,-112.5"/>
<text text-anchor="middle" x="519" y="-119.5" font-family="Helvetica,sans-Serif" font-size="10.00">iostream</text>
</a>
</g>
</g>
<!-- Node12&#45;&gt;Node14 -->
<g id="edge13" class="edge">
<title>Node12&#45;&gt;Node14</title>
<path fill="none" stroke="midnightblue" d="M586.99,-168.32C574.47,-159.98 555.32,-147.21 540.53,-137.35"/>
<polygon fill="midnightblue" stroke="midnightblue" points="542.24,-134.29 531.98,-131.65 538.36,-140.11 542.24,-134.29"/>
</g>
<!-- Node12&#45;&gt;Node15 -->
<g id="edge14" class="edge">
<title>Node12&#45;&gt;Node15</title>
<path fill="none" stroke="midnightblue" d="M609.76,-168.24C622.83,-155.42 643.05,-131.01 631,-112 590.74,-48.48 498.62,-24.16 449.41,-15.45"/>
<polygon fill="midnightblue" stroke="midnightblue" points="449.74,-11.96 439.3,-13.78 448.6,-18.87 449.74,-11.96"/>
</g>
<!-- Node16 -->
<g id="node16" class="node">
<title>Node16</title>
<g id="a_node16"><a xlink:title=" ">
<polygon fill="white" stroke="#bfbfbf" points="423.5,-112.5 423.5,-131.5 470.5,-131.5 470.5,-112.5 423.5,-112.5"/>
<text text-anchor="middle" x="447" y="-119.5" font-family="Helvetica,sans-Serif" font-size="10.00">vector</text>
</a>
</g>
</g>
<!-- Node12&#45;&gt;Node16 -->
<g id="edge15" class="edge">
<title>Node12&#45;&gt;Node16</title>
<path fill="none" stroke="midnightblue" d="M575.76,-168.44C549.98,-159.35 509.04,-144.9 480.26,-134.74"/>
<polygon fill="midnightblue" stroke="midnightblue" points="481.22,-131.37 470.63,-131.34 478.89,-137.97 481.22,-131.37"/>
</g>
<!-- Node18 -->
<g id="node18" class="node">
<title>Node18</title>
<g id="a_node18"><a xlink:title=" ">
<polygon fill="white" stroke="#bfbfbf" points="1357.5,-0.5 1357.5,-19.5 1410.5,-19.5 1410.5,-0.5 1357.5,-0.5"/>
<text text-anchor="middle" x="1384" y="-7.5" font-family="Helvetica,sans-Serif" font-size="10.00">cstddef</text>
</a>
</g>
</g>
<!-- Node17&#45;&gt;Node18 -->
<g id="edge17" class="edge">
<title>Node17&#45;&gt;Node18</title>
<path fill="none" stroke="midnightblue" d="M1384,-56.08C1384,-49.01 1384,-38.86 1384,-29.99"/>
<polygon fill="midnightblue" stroke="midnightblue" points="1387.5,-29.75 1384,-19.75 1380.5,-29.75 1387.5,-29.75"/>
</g>
<!-- Node21&#45;&gt;Node4 -->
<g id="edge26" class="edge">
<title>Node21&#45;&gt;Node4</title>
<path fill="none" stroke="midnightblue" d="M366.6,-296.94C406.28,-286.82 473.2,-269.76 523.1,-257.04"/>
<polygon fill="midnightblue" stroke="midnightblue" points="524.02,-260.42 532.84,-254.56 522.29,-253.64 524.02,-260.42"/>
</g>
<!-- Node21&#45;&gt;Node20 -->
<g id="edge27" class="edge">
<title>Node21&#45;&gt;Node20</title>
<path fill="none" stroke="midnightblue" d="M335.76,-296.67C338.73,-286.68 343.26,-269.86 345,-255 352.4,-191.87 333.45,-174.84 343,-112 344.37,-103 347.19,-93.33 349.95,-85.26"/>
<polygon fill="midnightblue" stroke="midnightblue" points="353.27,-86.37 353.4,-75.78 346.69,-83.98 353.27,-86.37"/>
</g>
<!-- Node21&#45;&gt;Node22 -->
<g id="edge23" class="edge">
<title>Node21&#45;&gt;Node22</title>
<path fill="none" stroke="midnightblue" d="M321.94,-296.73C308.66,-286.21 286.17,-268.38 270.07,-255.62"/>
<polygon fill="midnightblue" stroke="midnightblue" points="271.89,-252.6 261.88,-249.13 267.55,-258.08 271.89,-252.6"/>
</g>
<!-- Node22&#45;&gt;Node16 -->
<g id="edge24" class="edge">
<title>Node22&#45;&gt;Node16</title>
<path fill="none" stroke="midnightblue" d="M265.73,-229.82C299.51,-209.91 382.78,-160.84 423.63,-136.77"/>
<polygon fill="midnightblue" stroke="midnightblue" points="425.53,-139.72 432.36,-131.62 421.97,-133.69 425.53,-139.72"/>
</g>
<!-- Node22&#45;&gt;Node20 -->
<g id="edge25" class="edge">
<title>Node22&#45;&gt;Node20</title>
<path fill="none" stroke="midnightblue" d="M250.93,-229.88C251.16,-207.98 254.49,-149.31 282,-112 292.42,-97.86 308.74,-87.32 323.49,-80"/>
<polygon fill="midnightblue" stroke="midnightblue" points="325.28,-83.03 332.89,-75.65 322.34,-76.68 325.28,-83.03"/>
</g>
<!-- Node23&#45;&gt;Node3 -->
<g id="edge30" class="edge">
<title>Node23&#45;&gt;Node3</title>
<path fill="none" stroke="midnightblue" d="M734.99,-358.48C703.86,-348.56 661.94,-335.2 628.82,-324.65"/>
<polygon fill="midnightblue" stroke="midnightblue" points="629.88,-321.31 619.29,-321.61 627.75,-327.98 629.88,-321.31"/>
</g>
<!-- Node23&#45;&gt;Node4 -->
<g id="edge49" class="edge">
<title>Node23&#45;&gt;Node4</title>
<path fill="none" stroke="midnightblue" d="M763.2,-358.36C743.85,-341.37 709.72,-312.47 678,-291 661.1,-279.56 641.42,-268.3 624.78,-259.33"/>
<polygon fill="midnightblue" stroke="midnightblue" points="626.36,-256.2 615.89,-254.59 623.07,-262.38 626.36,-256.2"/>
</g>
<!-- Node23&#45;&gt;Node5 -->
<g id="edge46" class="edge">
<title>Node23&#45;&gt;Node5</title>
<path fill="none" stroke="midnightblue" d="M781.35,-358.27C787.03,-323.94 801.48,-236.57 807.87,-197.9"/>
<polygon fill="midnightblue" stroke="midnightblue" points="811.4,-198.01 809.58,-187.58 804.5,-196.87 811.4,-198.01"/>
</g>
<!-- Node23&#45;&gt;Node17 -->
<g id="edge51" class="edge">
<title>Node23&#45;&gt;Node17</title>
<path fill="none" stroke="midnightblue" d="M834.23,-368.58C1007.05,-355.6 1526,-310.75 1526,-240.5 1526,-240.5 1526,-240.5 1526,-177 1526,-125.07 1465.91,-94.15 1423.91,-78.89"/>
<polygon fill="midnightblue" stroke="midnightblue" points="1425.06,-75.58 1414.46,-75.6 1422.76,-82.19 1425.06,-75.58"/>
</g>
<!-- Node23&#45;&gt;Node20 -->
<g id="edge53" class="edge">
<title>Node23&#45;&gt;Node20</title>
<path fill="none" stroke="midnightblue" d="M723.89,-364.81C638.24,-352.65 481.92,-329.61 472,-322 392.81,-261.25 366.65,-133.69 359.41,-85.75"/>
<polygon fill="midnightblue" stroke="midnightblue" points="362.88,-85.24 358.02,-75.83 355.95,-86.22 362.88,-85.24"/>
</g>
<!-- Node23&#45;&gt;Node22 -->
<g id="edge48" class="edge">
<title>Node23&#45;&gt;Node22</title>
<path fill="none" stroke="midnightblue" d="M723.89,-364.62C706.66,-362.3 687.56,-359.89 670,-358 621.45,-352.78 265.08,-357.91 232,-322 215.91,-304.53 228.12,-276.13 239.05,-257.89"/>
<polygon fill="midnightblue" stroke="midnightblue" points="242.05,-259.7 244.49,-249.39 236.15,-255.92 242.05,-259.7"/>
</g>
<!-- Node24 -->
<g id="node24" class="node">
<title>Node24</title>
<g id="a_node24"><a xlink:href="AdditiveStateModel_8h.html" target="_top" xlink:title=" ">
<polygon fill="white" stroke="black" points="974,-291.5 974,-321.5 1120,-321.5 1120,-291.5 974,-291.5"/>
<text text-anchor="start" x="982" y="-309.5" font-family="Helvetica,sans-Serif" font-size="10.00">BayesFilters/AdditiveState</text>
<text text-anchor="middle" x="1047" y="-298.5" font-family="Helvetica,sans-Serif" font-size="10.00">Model.h</text>
</a>
</g>
</g>
<!-- Node23&#45;&gt;Node24 -->
<g id="edge31" class="edge">
<title>Node23&#45;&gt;Node24</title>
<path fill="none" stroke="midnightblue" d="M834.2,-359.11C876.23,-348.92 934.29,-334.84 979.15,-323.96"/>
<polygon fill="midnightblue" stroke="midnightblue" points="980.19,-327.3 989.09,-321.55 978.54,-320.5 980.19,-327.3"/>
</g>
<!-- Node25 -->
<g id="node25" class="node">
<title>Node25</title>
<g id="a_node25"><a xlink:href="StateModel_8h.html" target="_top" xlink:title=" ">
<polygon fill="white" stroke="black" points="975,-230 975,-249 1119,-249 1119,-230 975,-230"/>
<text text-anchor="middle" x="1047" y="-237" font-family="Helvetica,sans-Serif" font-size="10.00">BayesFilters/StateModel.h</text>
</a>
</g>
</g>
<!-- Node23&#45;&gt;Node25 -->
<g id="edge50" class="edge">
<title>Node23&#45;&gt;Node25</title>
<path fill="none" stroke="midnightblue" d="M825.12,-358.48C852.46,-349.48 887.43,-336.73 917,-322 939.73,-310.68 943.52,-304.55 965,-291 984.74,-278.55 1007.34,-264.66 1023.8,-254.6"/>
<polygon fill="midnightblue" stroke="midnightblue" points="1026.01,-257.36 1032.72,-249.17 1022.36,-251.38 1026.01,-257.36"/>
</g>
<!-- Node26 -->
<g id="node26" class="node">
<title>Node26</title>
<g id="a_node26"><a xlink:href="ExogenousModel_8h.html" target="_top" xlink:title=" ">
<polygon fill="white" stroke="black" points="961.5,-168.5 961.5,-187.5 1132.5,-187.5 1132.5,-168.5 961.5,-168.5"/>
<text text-anchor="middle" x="1047" y="-175.5" font-family="Helvetica,sans-Serif" font-size="10.00">BayesFilters/ExogenousModel.h</text>
</a>
</g>
</g>
<!-- Node23&#45;&gt;Node26 -->
<g id="edge47" class="edge">
<title>Node23&#45;&gt;Node26</title>
<path fill="none" stroke="midnightblue" d="M815.96,-358.44C836.28,-349.7 861.3,-337.23 881,-322 926.62,-286.74 921.23,-260.33 966,-224 981.87,-211.12 1001.94,-199.94 1018.13,-191.95"/>
<polygon fill="midnightblue" stroke="midnightblue" points="1019.65,-195.1 1027.16,-187.62 1016.63,-188.79 1019.65,-195.1"/>
</g>
<!-- Node31 -->
<g id="node31" class="node">
<title>Node31</title>
<g id="a_node31"><a xlink:title=" ">
<polygon fill="white" stroke="#bfbfbf" points="807.5,-297 807.5,-316 872.5,-316 872.5,-297 807.5,-297"/>
<text text-anchor="middle" x="840" y="-304" font-family="Helvetica,sans-Serif" font-size="10.00">functional</text>
</a>
</g>
</g>
<!-- Node23&#45;&gt;Node31 -->
<g id="edge52" class="edge">
<title>Node23&#45;&gt;Node31</title>
<path fill="none" stroke="midnightblue" d="M792.24,-358.4C801.84,-348.16 814.85,-334.3 824.87,-323.62"/>
<polygon fill="midnightblue" stroke="midnightblue" points="827.55,-325.88 831.84,-316.19 822.45,-321.09 827.55,-325.88"/>
</g>
<!-- Node24&#45;&gt;Node17 -->
<g id="edge45" class="edge">
<title>Node24&#45;&gt;Node17</title>
<path fill="none" stroke="midnightblue" d="M1120.04,-299.46C1218.61,-286.94 1390.84,-248.64 1469,-132 1484.61,-108.71 1452.26,-90.28 1423.09,-79.09"/>
<polygon fill="midnightblue" stroke="midnightblue" points="1423.98,-75.69 1413.39,-75.57 1421.59,-82.27 1423.98,-75.69"/>
</g>
<!-- Node24&#45;&gt;Node25 -->
<g id="edge32" class="edge">
<title>Node24&#45;&gt;Node25</title>
<path fill="none" stroke="midnightblue" d="M1047,-291.4C1047,-282.06 1047,-269.71 1047,-259.52"/>
<polygon fill="midnightblue" stroke="midnightblue" points="1050.5,-259.19 1047,-249.19 1043.5,-259.19 1050.5,-259.19"/>
</g>
<!-- Node25&#45;&gt;Node8 -->
<g id="edge44" class="edge">
<title>Node25&#45;&gt;Node8</title>
<path fill="none" stroke="midnightblue" d="M1026.52,-229.92C994.48,-216.52 930.53,-189.91 876,-168 835.26,-151.63 821.65,-154.58 784,-132 760.88,-118.14 737.85,-97.18 723.31,-82.84"/>
<polygon fill="midnightblue" stroke="midnightblue" points="725.68,-80.26 716.15,-75.63 720.72,-85.19 725.68,-80.26"/>
</g>
<!-- Node25&#45;&gt;Node26 -->
<g id="edge33" class="edge">
<title>Node25&#45;&gt;Node26</title>
<path fill="none" stroke="midnightblue" d="M1047,-229.98C1047,-221.58 1047,-208.48 1047,-197.66"/>
<polygon fill="midnightblue" stroke="midnightblue" points="1050.5,-197.51 1047,-187.51 1043.5,-197.51 1050.5,-197.51"/>
</g>
<!-- Node28 -->
<g id="node28" class="node">
<title>Node28</title>
<g id="a_node28"><a xlink:href="Skippable_8h.html" target="_top" xlink:title=" ">
<polygon fill="white" stroke="black" points="1152.5,-112.5 1152.5,-131.5 1289.5,-131.5 1289.5,-112.5 1152.5,-112.5"/>
<text text-anchor="middle" x="1221" y="-119.5" font-family="Helvetica,sans-Serif" font-size="10.00">BayesFilters/Skippable.h</text>
</a>
</g>
</g>
<!-- Node25&#45;&gt;Node28 -->
<g id="edge40" class="edge">
<title>Node25&#45;&gt;Node28</title>
<path fill="none" stroke="midnightblue" d="M1065.84,-229.87C1085.47,-220.56 1116.83,-204.8 1142,-188 1164.69,-172.86 1188.58,-152.49 1204.07,-138.62"/>
<polygon fill="midnightblue" stroke="midnightblue" points="1206.7,-140.97 1211.75,-131.66 1201.99,-135.78 1206.7,-140.97"/>
</g>
<!-- Node30 -->
<g id="node30" class="node">
<title>Node30</title>
<g id="a_node30"><a xlink:href="StateProcess_8h.html" target="_top" xlink:title=" ">
<polygon fill="white" stroke="black" points="1308,-112.5 1308,-131.5 1460,-131.5 1460,-112.5 1308,-112.5"/>
<text text-anchor="middle" x="1384" y="-119.5" font-family="Helvetica,sans-Serif" font-size="10.00">BayesFilters/StateProcess.h</text>
</a>
</g>
</g>
<!-- Node25&#45;&gt;Node30 -->
<g id="edge41" class="edge">
<title>Node25&#45;&gt;Node30</title>
<path fill="none" stroke="midnightblue" d="M1072.05,-229.91C1131.4,-209.57 1280.66,-158.42 1348.93,-135.02"/>
<polygon fill="midnightblue" stroke="midnightblue" points="1350.46,-138.2 1358.78,-131.64 1348.19,-131.57 1350.46,-138.2"/>
</g>
<!-- Node27 -->
<g id="node27" class="node">
<title>Node27</title>
<g id="a_node27"><a xlink:href="ExogenousProcess_8h.html" target="_top" xlink:title=" ">
<polygon fill="white" stroke="black" points="955.5,-112.5 955.5,-131.5 1134.5,-131.5 1134.5,-112.5 955.5,-112.5"/>
<text text-anchor="middle" x="1045" y="-119.5" font-family="Helvetica,sans-Serif" font-size="10.00">BayesFilters/ExogenousProcess.h</text>
</a>
</g>
</g>
<!-- Node26&#45;&gt;Node27 -->
<g id="edge34" class="edge">
<title>Node26&#45;&gt;Node27</title>
<path fill="none" stroke="midnightblue" d="M1046.67,-168.08C1046.41,-161.01 1046.03,-150.86 1045.7,-141.99"/>
<polygon fill="midnightblue" stroke="midnightblue" points="1049.19,-141.61 1045.32,-131.75 1042.2,-141.87 1049.19,-141.61"/>
</g>
<!-- Node26&#45;&gt;Node28 -->
<g id="edge37" class="edge">
<title>Node26&#45;&gt;Node28</title>
<path fill="none" stroke="midnightblue" d="M1074.57,-168.44C1104.1,-159.28 1151.12,-144.69 1183.88,-134.52"/>
<polygon fill="midnightblue" stroke="midnightblue" points="1185.04,-137.82 1193.56,-131.52 1182.97,-131.14 1185.04,-137.82"/>
</g>
<!-- Node27&#45;&gt;Node17 -->
<g id="edge35" class="edge">
<title>Node27&#45;&gt;Node17</title>
<path fill="none" stroke="midnightblue" d="M1098.72,-112.44C1158.97,-102.85 1256.61,-87.29 1320.57,-77.1"/>
<polygon fill="midnightblue" stroke="midnightblue" points="1321.21,-80.55 1330.54,-75.52 1320.11,-73.63 1321.21,-80.55"/>
</g>
<!-- Node27&#45;&gt;Node20 -->
<g id="edge36" class="edge">
<title>Node27&#45;&gt;Node20</title>
<path fill="none" stroke="midnightblue" d="M955.41,-113.97C808.43,-102.43 520.96,-79.87 406.11,-70.85"/>
<polygon fill="midnightblue" stroke="midnightblue" points="406.11,-67.34 395.87,-70.05 405.57,-74.32 406.11,-67.34"/>
</g>
<!-- Node29 -->
<g id="node29" class="node">
<title>Node29</title>
<g id="a_node29"><a xlink:href="Skipper_8h.html" target="_top" xlink:title=" ">
<polygon fill="white" stroke="black" points="1118.5,-56.5 1118.5,-75.5 1243.5,-75.5 1243.5,-56.5 1118.5,-56.5"/>
<text text-anchor="middle" x="1181" y="-63.5" font-family="Helvetica,sans-Serif" font-size="10.00">BayesFilters/Skipper.h</text>
</a>
</g>
</g>
<!-- Node28&#45;&gt;Node29 -->
<g id="edge38" class="edge">
<title>Node28&#45;&gt;Node29</title>
<path fill="none" stroke="midnightblue" d="M1214.39,-112.08C1208.74,-104.46 1200.46,-93.26 1193.55,-83.94"/>
<polygon fill="midnightblue" stroke="midnightblue" points="1196.25,-81.7 1187.48,-75.75 1190.62,-85.87 1196.25,-81.7"/>
</g>
<!-- Node29&#45;&gt;Node15 -->
<g id="edge39" class="edge">
<title>Node29&#45;&gt;Node15</title>
<path fill="none" stroke="midnightblue" d="M1118.24,-59.5C1104.02,-58.3 1089,-57.07 1075,-56 834.8,-37.59 544.98,-19.05 449.34,-13.02"/>
<polygon fill="midnightblue" stroke="midnightblue" points="449.36,-9.52 439.16,-12.38 448.92,-16.5 449.36,-9.52"/>
</g>
<!-- Node30&#45;&gt;Node17 -->
<g id="edge42" class="edge">
<title>Node30&#45;&gt;Node17</title>
<path fill="none" stroke="midnightblue" d="M1384,-112.08C1384,-105.01 1384,-94.86 1384,-85.99"/>
<polygon fill="midnightblue" stroke="midnightblue" points="1387.5,-85.75 1384,-75.75 1380.5,-85.75 1387.5,-85.75"/>
</g>
<!-- Node30&#45;&gt;Node20 -->
<g id="edge43" class="edge">
<title>Node30&#45;&gt;Node20</title>
<path fill="none" stroke="midnightblue" d="M1307.56,-112.7C1304.67,-112.45 1301.81,-112.22 1299,-112 957.72,-85.8 545.65,-72.38 405.99,-68.34"/>
<polygon fill="midnightblue" stroke="midnightblue" points="405.73,-64.83 395.63,-68.05 405.53,-71.83 405.73,-64.83"/>
</g>
<!-- Node32&#45;&gt;Node20 -->
<g id="edge56" class="edge">
<title>Node32&#45;&gt;Node20</title>
<path fill="none" stroke="midnightblue" d="M635.12,-358.48C651.43,-350.47 668.71,-338.64 678,-322 724.64,-238.5 711.59,-163.51 631,-112 594.49,-88.67 474.14,-75.91 405.7,-70.39"/>
<polygon fill="midnightblue" stroke="midnightblue" points="405.84,-66.89 395.59,-69.59 405.29,-73.86 405.84,-66.89"/>
</g>
<!-- Node33&#45;&gt;Node8 -->
<g id="edge61" class="edge">
<title>Node33&#45;&gt;Node8</title>
<path fill="none" stroke="midnightblue" d="M154.12,-116.11C275.56,-105.34 563.71,-79.79 668.79,-70.48"/>
<polygon fill="midnightblue" stroke="midnightblue" points="669.3,-73.95 678.95,-69.58 668.68,-66.97 669.3,-73.95"/>
</g>
<!-- Node33&#45;&gt;Node15 -->
<g id="edge62" class="edge">
<title>Node33&#45;&gt;Node15</title>
<path fill="none" stroke="midnightblue" d="M105.53,-112.17C116.63,-97.85 140.67,-69.79 168,-56 239.44,-19.97 335.26,-12.43 384.62,-11.08"/>
<polygon fill="midnightblue" stroke="midnightblue" points="384.77,-14.57 394.7,-10.87 384.63,-7.58 384.77,-14.57"/>
</g>
<!-- Node33&#45;&gt;Node20 -->
<g id="edge58" class="edge">
<title>Node33&#45;&gt;Node20</title>
<path fill="none" stroke="midnightblue" d="M139.88,-112.44C185.65,-102.86 259.75,-87.35 308.43,-77.16"/>
<polygon fill="midnightblue" stroke="midnightblue" points="309.35,-80.55 318.42,-75.08 307.91,-73.7 309.35,-80.55"/>
</g>
<!-- Node34 -->
<g id="node34" class="node">
<title>Node34</title>
<g id="a_node34"><a xlink:title=" ">
<polygon fill="white" stroke="#bfbfbf" points="0,-56.5 0,-75.5 50,-75.5 50,-56.5 0,-56.5"/>
<text text-anchor="middle" x="25" y="-63.5" font-family="Helvetica,sans-Serif" font-size="10.00">chrono</text>
</a>
</g>
</g>
<!-- Node33&#45;&gt;Node34 -->
<g id="edge59" class="edge">
<title>Node33&#45;&gt;Node34</title>
<path fill="none" stroke="midnightblue" d="M87.11,-112.32C75.85,-104.11 58.71,-91.6 45.29,-81.81"/>
<polygon fill="midnightblue" stroke="midnightblue" points="47.25,-78.9 37.11,-75.83 43.12,-84.56 47.25,-78.9"/>
</g>
<!-- Node35 -->
<g id="node35" class="node">
<title>Node35</title>
<g id="a_node35"><a xlink:title=" ">
<polygon fill="white" stroke="#bfbfbf" points="68.5,-56.5 68.5,-75.5 115.5,-75.5 115.5,-56.5 68.5,-56.5"/>
<text text-anchor="middle" x="92" y="-63.5" font-family="Helvetica,sans-Serif" font-size="10.00">cmath</text>
</a>
</g>
</g>
<!-- Node33&#45;&gt;Node35 -->
<g id="edge60" class="edge">
<title>Node33&#45;&gt;Node35</title>
<path fill="none" stroke="midnightblue" d="M97.84,-112.08C96.92,-104.93 95.58,-94.64 94.42,-85.69"/>
<polygon fill="midnightblue" stroke="midnightblue" points="97.89,-85.22 93.13,-75.75 90.95,-86.12 97.89,-85.22"/>
</g>
</g>
</svg>
        <g id="navigator" transform="translate(0 0)" fill="#404254">
                <rect fill="#f2f5e9" fill-opacity="0.5" stroke="#606060" stroke-width=".5" x="0" y="0" width="60" height="60"/>
                <use id="zoomplus" xlink:href="#zoomPlus" x="17" y="9" onmousedown="handleZoom(evt,'in')"/>
                <use id="zoomminus" xlink:href="#zoomMin" x="42" y="9" onmousedown="handleZoom(evt,'out')"/>
                <use id="reset" xlink:href="#resetDef" x="30" y="36" onmousedown="handleReset()"/>
                <g id="arrowUp" xlink:href="#dirArrow" transform="translate(30 24)" onmousedown="handlePan(0,-1)">
                  <use xlink:href="#rim" fill="#404040">
                        <set attributeName="fill" to="#808080" begin="arrowUp.mouseover" end="arrowUp.mouseout"/>
                  </use>
                  <path fill="none" stroke="white" stroke-width="1.5" d="M0,-3.0v7 M-2.5,-0.5L0,-3.0L2.5,-0.5"/>
                </g>
                <g id="arrowRight" xlink:href="#dirArrow" transform="rotate(90) translate(36 -43)" onmousedown="handlePan(1,0)">
                  <use xlink:href="#rim" fill="#404040">
                        <set attributeName="fill" to="#808080" begin="arrowRight.mouseover" end="arrowRight.mouseout"/>
                  </use>
                  <path fill="none" stroke="white" stroke-width="1.5" d="M0,-3.0v7 M-2.5,-0.5L0,-3.0L2.5,-0.5"/>
                </g>
                <g id="arrowDown" xlink:href="#dirArrow" transform="rotate(180) translate(-30 -48)" onmousedown="handlePan(0,1)">
                  <use xlink:href="#rim" fill="#404040">
                        <set attributeName="fill" to="#808080" begin="arrowDown.mouseover" end="arrowDown.mouseout"/>
                  </use>
                  <path fill="none" stroke="white" stroke-width="1.5" d="M0,-3.0v7 M-2.5,-0.5L0,-3.0L2.5,-0.5"/>
                </g>
                <g id="arrowLeft" xlink:href="#dirArrow" transform="rotate(270) translate(-36 17)" onmousedown="handlePan(-1,0)">
                  <use xlink:href="#rim" fill="#404040">
                        <set attributeName="fill" to="#808080" begin="arrowLeft.mouseover" end="arrowLeft.mouseout"/>
                  </use>
                  <path fill="none" stroke="white" stroke-width="1.5" d="M0,-3.0v7 M-2.5,-0.5L0,-3.0L2.5,-0.5"/>
                </g>
        </g>
        <svg viewBox="0 0 15 15" width="100%" height="30px" preserveAspectRatio="xMaxYMin meet">
         <g id="arrow_out" transform="scale(0.3 0.3)">
          <a xlink:href="SUKFCorrection_8cpp__incl_org.svg" target="_base">
           <rect id="button" ry="5" rx="5" y="6" x="6" height="38" width="38"
                fill="#f2f5e9" fill-opacity="0.5" stroke="#606060" stroke-width="1.0"/>
           <path id="arrow"
             d="M 11.500037,31.436501 C 11.940474,20.09759 22.043105,11.32322 32.158766,21.979434 L 37.068811,17.246167 C 37.068811,17.246167 37.088388,32 37.088388,32 L 22.160133,31.978069 C 22.160133,31.978069 26.997745,27.140456 26.997745,27.140456 C 18.528582,18.264221 13.291696,25.230495 11.500037,31.436501 z"
             style="fill:#404040;"/>
          </a>
         </g>
        </svg>
</svg>
