<?xml version="1.0" encoding="UTF-8" standalone="no"?>
<!DOCTYPE svg PUBLIC "-//W3C//DTD SVG 1.1//EN"
 "http://www.w3.org/Graphics/SVG/1.1/DTD/svg11.dtd">
<!-- Generated by graphviz version 2.47.2 (0)
 -->
<!-- Title: /home/xenvre/robot&#45;code/bfl_robotology/src/BayesFilters/include/BayesFilters/SUKFCorrection.h Pages: 1 -->
<!--zoomable 486 -->
<svg id="main" version="1.1" xmlns="http://www.w3.org/2000/svg" xmlns:xlink="http://www.w3.org/1999/xlink" xml:space="preserve" onload="init(evt)">
<style type="text/css"><![CDATA[
.edge:hover path { stroke: red; }
.edge:hover polygon { stroke: red; fill: red; }
]]></style>
<script type="text/javascript"><![CDATA[
var edges = document.getElementsByTagName('g');
if (edges && edges.length) {
  for (var i=0;i<edges.length;i++) {
    if (edges[i].id.substr(0,4)=='edge') {
      edges[i].setAttribute('class','edge');
    }
  }
}
]]></script>
        <defs>
                <circle id="rim" cx="0" cy="0" r="7"/>
                <circle id="rim2" cx="0" cy="0" r="3.5"/>
                <g id="zoomPlus">
                        <use xlink:href="#rim" fill="#404040">
                                <set attributeName="fill" to="#808080" begin="zoomplus.mouseover" end="zoomplus.mouseout"/>
                        </use>
                        <path d="M-4,0h8M0,-4v8" fill="none" stroke="white" stroke-width="1.5" pointer-events="none"/>
                </g>
                <g id="zoomMin">
                        <use xlink:href="#rim" fill="#404040">
                                <set attributeName="fill" to="#808080" begin="zoomminus.mouseover" end="zoomminus.mouseout"/>
                        </use>
                        <path d="M-4,0h8" fill="none" stroke="white" stroke-width="1.5" pointer-events="none"/>
                </g>
                <g id="dirArrow">
                        <path fill="none" stroke="white" stroke-width="1.5" d="M0,-3.0v7 M-2.5,-0.5L0,-3.0L2.5,-0.5"/>
                </g>
               <g id="resetDef">
                       <use xlink:href="#rim2" fill="#404040">
                               <set attributeName="fill" to="#808080" begin="reset.mouseover" end="reset.mouseout"/>
                       </use>
               </g>
        </defs>

<script type="text/javascript">
var viewWidth = 1037;
var viewHeight = 486;
var sectionId = 'dynsection-0';
</script>
<script xlink:href="svgpan.js"/>
<svg id="graph" class="graph">
<g id="viewport">
<title>/home/xenvre/robot&#45;code/bfl_robotology/src/BayesFilters/include/BayesFilters/SUKFCorrection.h</title>
<polygon fill="white" stroke="transparent" points="-4,4 -4,-482 1032.72,-482 1032.72,4 -4,4"/>
<!-- Node1 -->
<g id="node1" class="node">
<title>Node1</title>
<g id="a_node1"><a xlink:title=" ">
<polygon fill="#bfbfbf" stroke="black" points="469.5,-425.5 469.5,-477.5 627.5,-477.5 627.5,-425.5 469.5,-425.5"/>
<text text-anchor="start" x="477.5" y="-465.5" font-family="Helvetica,sans-Serif" font-size="10.00">/home/xenvre/robot</text>
<text text-anchor="start" x="477.5" y="-454.5" font-family="Helvetica,sans-Serif" font-size="10.00">&#45;code/bfl_robotology</text>
<text text-anchor="start" x="477.5" y="-443.5" font-family="Helvetica,sans-Serif" font-size="10.00">/src/BayesFilters/include</text>
<text text-anchor="middle" x="548.5" y="-432.5" font-family="Helvetica,sans-Serif" font-size="10.00">/BayesFilters/SUKFCorrection.h</text>
</a>
</g>
</g>
<!-- Node2 -->
<g id="node2" class="node">
<title>Node2</title>
<g id="a_node2"><a xlink:href="AdditiveMeasurementModel_8h.html" target="_top" xlink:title=" ">
<polygon fill="white" stroke="black" points="128,-291.5 128,-321.5 297,-321.5 297,-291.5 128,-291.5"/>
<text text-anchor="start" x="136" y="-309.5" font-family="Helvetica,sans-Serif" font-size="10.00">BayesFilters/AdditiveMeasurement</text>
<text text-anchor="middle" x="212.5" y="-298.5" font-family="Helvetica,sans-Serif" font-size="10.00">Model.h</text>
</a>
</g>
</g>
<!-- Node1&#45;&gt;Node2 -->
<g id="edge1" class="edge">
<title>Node1&#45;&gt;Node2</title>
<path fill="none" stroke="midnightblue" d="M489.59,-425.43C422.55,-396.9 314.69,-350.99 255.25,-325.69"/>
<polygon fill="midnightblue" stroke="midnightblue" points="256.36,-322.36 245.79,-321.67 253.62,-328.8 256.36,-322.36"/>
</g>
<!-- Node17 -->
<g id="node17" class="node">
<title>Node17</title>
<g id="a_node17"><a xlink:title=" ">
<polygon fill="white" stroke="#bfbfbf" points="568,-56.5 568,-75.5 641,-75.5 641,-56.5 568,-56.5"/>
<text text-anchor="middle" x="604.5" y="-63.5" font-family="Helvetica,sans-Serif" font-size="10.00">Eigen/Dense</text>
</a>
</g>
</g>
<!-- Node1&#45;&gt;Node17 -->
<g id="edge47" class="edge">
<title>Node1&#45;&gt;Node17</title>
<path fill="none" stroke="midnightblue" d="M627.6,-443.33C763.65,-428.78 1027.5,-389.95 1027.5,-307.5 1027.5,-307.5 1027.5,-307.5 1027.5,-177 1027.5,-147.02 1032.37,-131.38 1009.5,-112 951.36,-62.74 744.13,-85.31 668.5,-76 662.93,-75.31 657.1,-74.55 651.31,-73.77"/>
<polygon fill="midnightblue" stroke="midnightblue" points="651.41,-70.25 641.02,-72.36 650.45,-77.19 651.41,-70.25"/>
</g>
<!-- Node18 -->
<g id="node18" class="node">
<title>Node18</title>
<g id="a_node18"><a xlink:href="GaussianCorrection_8h.html" target="_top" xlink:title=" ">
<polygon fill="white" stroke="black" points="352,-297 352,-316 521,-316 521,-297 352,-297"/>
<text text-anchor="middle" x="436.5" y="-304" font-family="Helvetica,sans-Serif" font-size="10.00">BayesFilters/GaussianCorrection.h</text>
</a>
</g>
</g>
<!-- Node1&#45;&gt;Node18 -->
<g id="edge19" class="edge">
<title>Node1&#45;&gt;Node18</title>
<path fill="none" stroke="midnightblue" d="M528.73,-425.26C505.91,-396.13 469.03,-349.03 449.54,-324.14"/>
<polygon fill="midnightblue" stroke="midnightblue" points="452.12,-321.77 443.2,-316.05 446.61,-326.08 452.12,-321.77"/>
</g>
<!-- Node19 -->
<g id="node19" class="node">
<title>Node19</title>
<g id="a_node19"><a xlink:href="GaussianMixture_8h.html" target="_top" xlink:title=" ">
<polygon fill="white" stroke="black" points="440.5,-230 440.5,-249 596.5,-249 596.5,-230 440.5,-230"/>
<text text-anchor="middle" x="518.5" y="-237" font-family="Helvetica,sans-Serif" font-size="10.00">BayesFilters/GaussianMixture.h</text>
</a>
</g>
</g>
<!-- Node1&#45;&gt;Node19 -->
<g id="edge25" class="edge">
<title>Node1&#45;&gt;Node19</title>
<path fill="none" stroke="midnightblue" d="M546.25,-425.25C543.26,-393.72 537.43,-338.16 529.5,-291 527.7,-280.32 525.16,-268.47 522.96,-258.95"/>
<polygon fill="midnightblue" stroke="midnightblue" points="526.33,-257.96 520.62,-249.03 519.51,-259.57 526.33,-257.96"/>
</g>
<!-- Node20 -->
<g id="node20" class="node">
<title>Node20</title>
<g id="a_node20"><a xlink:href="sigma__point_8h.html" target="_top" xlink:title=" ">
<polygon fill="white" stroke="black" points="577,-358.5 577,-388.5 678,-388.5 678,-358.5 577,-358.5"/>
<text text-anchor="start" x="585" y="-376.5" font-family="Helvetica,sans-Serif" font-size="10.00">BayesFilters/sigma</text>
<text text-anchor="middle" x="627.5" y="-365.5" font-family="Helvetica,sans-Serif" font-size="10.00">_point.h</text>
</a>
</g>
</g>
<!-- Node1&#45;&gt;Node20 -->
<g id="edge26" class="edge">
<title>Node1&#45;&gt;Node20</title>
<path fill="none" stroke="midnightblue" d="M574.81,-425.19C584.62,-415.75 595.67,-405.12 605.11,-396.04"/>
<polygon fill="midnightblue" stroke="midnightblue" points="607.81,-398.3 612.59,-388.85 602.96,-393.26 607.81,-398.3"/>
</g>
<!-- Node3 -->
<g id="node3" class="node">
<title>Node3</title>
<g id="a_node3"><a xlink:href="MeasurementModel_8h.html" target="_top" xlink:title=" ">
<polygon fill="white" stroke="black" points="250.5,-224.5 250.5,-254.5 384.5,-254.5 384.5,-224.5 250.5,-224.5"/>
<text text-anchor="start" x="258.5" y="-242.5" font-family="Helvetica,sans-Serif" font-size="10.00">BayesFilters/Measurement</text>
<text text-anchor="middle" x="317.5" y="-231.5" font-family="Helvetica,sans-Serif" font-size="10.00">Model.h</text>
</a>
</g>
</g>
<!-- Node2&#45;&gt;Node3 -->
<g id="edge2" class="edge">
<title>Node2&#45;&gt;Node3</title>
<path fill="none" stroke="midnightblue" d="M235.28,-291.4C250.14,-282.2 269.74,-270.07 286.07,-259.95"/>
<polygon fill="midnightblue" stroke="midnightblue" points="288.1,-262.82 294.76,-254.58 284.42,-256.86 288.1,-262.82"/>
</g>
<!-- Node4 -->
<g id="node4" class="node">
<title>Node4</title>
<g id="a_node4"><a xlink:href="Data_8h.html" target="_top" xlink:title=" ">
<polygon fill="white" stroke="black" points="48.5,-168.5 48.5,-187.5 152.5,-187.5 152.5,-168.5 48.5,-168.5"/>
<text text-anchor="middle" x="100.5" y="-175.5" font-family="Helvetica,sans-Serif" font-size="10.00">BayesFilters/Data.h</text>
</a>
</g>
</g>
<!-- Node3&#45;&gt;Node4 -->
<g id="edge3" class="edge">
<title>Node3&#45;&gt;Node4</title>
<path fill="none" stroke="midnightblue" d="M266.35,-224.47C228.26,-214.03 176.93,-199.96 141.52,-190.25"/>
<polygon fill="midnightblue" stroke="midnightblue" points="142.09,-186.78 131.52,-187.51 140.24,-193.53 142.09,-186.78"/>
</g>
<!-- Node7 -->
<g id="node7" class="node">
<title>Node7</title>
<g id="a_node7"><a xlink:title=" ">
<polygon fill="white" stroke="#bfbfbf" points="350.5,-56.5 350.5,-75.5 402.5,-75.5 402.5,-56.5 350.5,-56.5"/>
<text text-anchor="middle" x="376.5" y="-63.5" font-family="Helvetica,sans-Serif" font-size="10.00">memory</text>
</a>
</g>
</g>
<!-- Node3&#45;&gt;Node7 -->
<g id="edge15" class="edge">
<title>Node3&#45;&gt;Node7</title>
<path fill="none" stroke="midnightblue" d="M330.78,-224.14C338.88,-214.59 348.75,-201.38 354.5,-188 369.21,-153.79 374.09,-110.04 375.7,-85.62"/>
<polygon fill="midnightblue" stroke="midnightblue" points="379.2,-85.77 376.25,-75.59 372.21,-85.39 379.2,-85.77"/>
</g>
<!-- Node11 -->
<g id="node11" class="node">
<title>Node11</title>
<g id="a_node11"><a xlink:href="Logger_8h.html" target="_top" xlink:title=" ">
<polygon fill="white" stroke="black" points="176,-168.5 176,-187.5 287,-187.5 287,-168.5 176,-168.5"/>
<text text-anchor="middle" x="231.5" y="-175.5" font-family="Helvetica,sans-Serif" font-size="10.00">BayesFilters/Logger.h</text>
</a>
</g>
</g>
<!-- Node3&#45;&gt;Node11 -->
<g id="edge10" class="edge">
<title>Node3&#45;&gt;Node11</title>
<path fill="none" stroke="midnightblue" d="M297.12,-224.4C283.59,-215.04 265.89,-202.79 252.28,-193.38"/>
<polygon fill="midnightblue" stroke="midnightblue" points="254.23,-190.47 244.01,-187.66 250.25,-196.23 254.23,-190.47"/>
</g>
<!-- Node14 -->
<g id="node14" class="node">
<title>Node14</title>
<g id="a_node14"><a xlink:title=" ">
<polygon fill="white" stroke="#bfbfbf" points="0,-0.5 0,-19.5 41,-19.5 41,-0.5 0,-0.5"/>
<text text-anchor="middle" x="20.5" y="-7.5" font-family="Helvetica,sans-Serif" font-size="10.00">string</text>
</a>
</g>
</g>
<!-- Node3&#45;&gt;Node14 -->
<g id="edge16" class="edge">
<title>Node3&#45;&gt;Node14</title>
<path fill="none" stroke="midnightblue" d="M250.42,-234.35C178.26,-228.53 69.76,-215.42 39.5,-188 -5.13,-147.57 7.17,-66.15 15.59,-29.56"/>
<polygon fill="midnightblue" stroke="midnightblue" points="19.02,-30.28 18.02,-19.73 12.22,-28.6 19.02,-30.28"/>
</g>
<!-- Node16 -->
<g id="node16" class="node">
<title>Node16</title>
<g id="a_node16"><a xlink:title=" ">
<polygon fill="white" stroke="#bfbfbf" points="305.5,-168.5 305.5,-187.5 345.5,-187.5 345.5,-168.5 305.5,-168.5"/>
<text text-anchor="middle" x="325.5" y="-175.5" font-family="Helvetica,sans-Serif" font-size="10.00">utility</text>
</a>
</g>
</g>
<!-- Node3&#45;&gt;Node16 -->
<g id="edge17" class="edge">
<title>Node3&#45;&gt;Node16</title>
<path fill="none" stroke="midnightblue" d="M319.4,-224.4C320.47,-216.38 321.84,-206.23 323,-197.57"/>
<polygon fill="midnightblue" stroke="midnightblue" points="326.47,-198.04 324.34,-187.66 319.53,-197.1 326.47,-198.04"/>
</g>
<!-- Node3&#45;&gt;Node17 -->
<g id="edge18" class="edge">
<title>Node3&#45;&gt;Node17</title>
<path fill="none" stroke="midnightblue" d="M340.99,-224.47C395.04,-192.17 527.71,-112.88 581.39,-80.81"/>
<polygon fill="midnightblue" stroke="midnightblue" points="583.39,-83.69 590.18,-75.56 579.8,-77.68 583.39,-83.69"/>
</g>
<!-- Node5 -->
<g id="node5" class="node">
<title>Node5</title>
<g id="a_node5"><a xlink:href="any_8h.html" target="_top" xlink:title=" ">
<polygon fill="white" stroke="black" points="49,-112.5 49,-131.5 146,-131.5 146,-112.5 49,-112.5"/>
<text text-anchor="middle" x="97.5" y="-119.5" font-family="Helvetica,sans-Serif" font-size="10.00">BayesFilters/any.h</text>
</a>
</g>
</g>
<!-- Node4&#45;&gt;Node5 -->
<g id="edge4" class="edge">
<title>Node4&#45;&gt;Node5</title>
<path fill="none" stroke="midnightblue" d="M100,-168.08C99.61,-161.01 99.05,-150.86 98.55,-141.99"/>
<polygon fill="midnightblue" stroke="midnightblue" points="102.04,-141.54 97.99,-131.75 95.05,-141.93 102.04,-141.54"/>
</g>
<!-- Node6 -->
<g id="node6" class="node">
<title>Node6</title>
<g id="a_node6"><a xlink:title=" ">
<polygon fill="white" stroke="#bfbfbf" points="128.5,-56.5 128.5,-75.5 184.5,-75.5 184.5,-56.5 128.5,-56.5"/>
<text text-anchor="middle" x="156.5" y="-63.5" font-family="Helvetica,sans-Serif" font-size="10.00">algorithm</text>
</a>
</g>
</g>
<!-- Node5&#45;&gt;Node6 -->
<g id="edge5" class="edge">
<title>Node5&#45;&gt;Node6</title>
<path fill="none" stroke="midnightblue" d="M106.98,-112.32C115.7,-104.34 128.84,-92.31 139.4,-82.65"/>
<polygon fill="midnightblue" stroke="midnightblue" points="141.83,-85.17 146.85,-75.83 137.11,-80 141.83,-85.17"/>
</g>
<!-- Node5&#45;&gt;Node7 -->
<g id="edge6" class="edge">
<title>Node5&#45;&gt;Node7</title>
<path fill="none" stroke="midnightblue" d="M146.33,-112.73C195.31,-104.24 272.85,-90.29 339.5,-76 339.83,-75.93 340.16,-75.86 340.49,-75.79"/>
<polygon fill="midnightblue" stroke="midnightblue" points="341.29,-79.19 350.26,-73.57 339.74,-72.37 341.29,-79.19"/>
</g>
<!-- Node8 -->
<g id="node8" class="node">
<title>Node8</title>
<g id="a_node8"><a xlink:title=" ">
<polygon fill="white" stroke="#bfbfbf" points="203,-56.5 203,-75.5 262,-75.5 262,-56.5 203,-56.5"/>
<text text-anchor="middle" x="232.5" y="-63.5" font-family="Helvetica,sans-Serif" font-size="10.00">stdexcept</text>
</a>
</g>
</g>
<!-- Node5&#45;&gt;Node8 -->
<g id="edge7" class="edge">
<title>Node5&#45;&gt;Node8</title>
<path fill="none" stroke="midnightblue" d="M118.89,-112.44C141.21,-103.52 176.4,-89.44 201.71,-79.32"/>
<polygon fill="midnightblue" stroke="midnightblue" points="203.22,-82.48 211.21,-75.52 200.62,-75.98 203.22,-82.48"/>
</g>
<!-- Node9 -->
<g id="node9" class="node">
<title>Node9</title>
<g id="a_node9"><a xlink:title=" ">
<polygon fill="white" stroke="#bfbfbf" points="280,-56.5 280,-75.5 331,-75.5 331,-56.5 280,-56.5"/>
<text text-anchor="middle" x="305.5" y="-63.5" font-family="Helvetica,sans-Serif" font-size="10.00">typeinfo</text>
</a>
</g>
</g>
<!-- Node5&#45;&gt;Node9 -->
<g id="edge8" class="edge">
<title>Node5&#45;&gt;Node9</title>
<path fill="none" stroke="midnightblue" d="M130.46,-112.44C168.52,-102.56 230.91,-86.36 270.02,-76.21"/>
<polygon fill="midnightblue" stroke="midnightblue" points="271.11,-79.54 279.91,-73.64 269.35,-72.77 271.11,-79.54"/>
</g>
<!-- Node10 -->
<g id="node10" class="node">
<title>Node10</title>
<g id="a_node10"><a xlink:title=" ">
<polygon fill="white" stroke="#bfbfbf" points="48.5,-56.5 48.5,-75.5 110.5,-75.5 110.5,-56.5 48.5,-56.5"/>
<text text-anchor="middle" x="79.5" y="-63.5" font-family="Helvetica,sans-Serif" font-size="10.00">type_traits</text>
</a>
</g>
</g>
<!-- Node5&#45;&gt;Node10 -->
<g id="edge9" class="edge">
<title>Node5&#45;&gt;Node10</title>
<path fill="none" stroke="midnightblue" d="M94.53,-112.08C92.12,-104.85 88.64,-94.41 85.63,-85.4"/>
<polygon fill="midnightblue" stroke="midnightblue" points="88.9,-84.13 82.42,-75.75 82.26,-86.34 88.9,-84.13"/>
</g>
<!-- Node12 -->
<g id="node12" class="node">
<title>Node12</title>
<g id="a_node12"><a xlink:title=" ">
<polygon fill="white" stroke="#bfbfbf" points="236.5,-112.5 236.5,-131.5 286.5,-131.5 286.5,-112.5 236.5,-112.5"/>
<text text-anchor="middle" x="261.5" y="-119.5" font-family="Helvetica,sans-Serif" font-size="10.00">fstream</text>
</a>
</g>
</g>
<!-- Node11&#45;&gt;Node12 -->
<g id="edge11" class="edge">
<title>Node11&#45;&gt;Node12</title>
<path fill="none" stroke="midnightblue" d="M236.45,-168.08C240.6,-160.61 246.65,-149.72 251.77,-140.52"/>
<polygon fill="midnightblue" stroke="midnightblue" points="254.84,-142.19 256.64,-131.75 248.72,-138.79 254.84,-142.19"/>
</g>
<!-- Node13 -->
<g id="node13" class="node">
<title>Node13</title>
<g id="a_node13"><a xlink:title=" ">
<polygon fill="white" stroke="#bfbfbf" points="164.5,-112.5 164.5,-131.5 218.5,-131.5 218.5,-112.5 164.5,-112.5"/>
<text text-anchor="middle" x="191.5" y="-119.5" font-family="Helvetica,sans-Serif" font-size="10.00">iostream</text>
</a>
</g>
</g>
<!-- Node11&#45;&gt;Node13 -->
<g id="edge12" class="edge">
<title>Node11&#45;&gt;Node13</title>
<path fill="none" stroke="midnightblue" d="M224.89,-168.08C219.24,-160.46 210.96,-149.26 204.05,-139.94"/>
<polygon fill="midnightblue" stroke="midnightblue" points="206.75,-137.7 197.98,-131.75 201.12,-141.87 206.75,-137.7"/>
</g>
<!-- Node11&#45;&gt;Node14 -->
<g id="edge13" class="edge">
<title>Node11&#45;&gt;Node14</title>
<path fill="none" stroke="midnightblue" d="M182.5,-168.44C128.91,-158.63 49.28,-142.54 39.5,-132 13.67,-104.17 14.63,-56.29 17.57,-29.87"/>
<polygon fill="midnightblue" stroke="midnightblue" points="21.08,-30.06 18.93,-19.69 14.14,-29.14 21.08,-30.06"/>
</g>
<!-- Node15 -->
<g id="node15" class="node">
<title>Node15</title>
<g id="a_node15"><a xlink:title=" ">
<polygon fill="white" stroke="#bfbfbf" points="304.5,-112.5 304.5,-131.5 348.5,-131.5 348.5,-112.5 304.5,-112.5"/>
<text text-anchor="middle" x="326.5" y="-119.5" font-family="Helvetica,sans-Serif" font-size="10.00">vector</text>
</a>
</g>
</g>
<!-- Node11&#45;&gt;Node15 -->
<g id="edge14" class="edge">
<title>Node11&#45;&gt;Node15</title>
<path fill="none" stroke="midnightblue" d="M246.76,-168.32C261.72,-159.82 284.75,-146.73 302.23,-136.8"/>
<polygon fill="midnightblue" stroke="midnightblue" points="304.31,-139.64 311.27,-131.65 300.85,-133.55 304.31,-139.64"/>
</g>
<!-- Node18&#45;&gt;Node3 -->
<g id="edge23" class="edge">
<title>Node18&#45;&gt;Node3</title>
<path fill="none" stroke="midnightblue" d="M420.45,-296.73C403.05,-287.23 374.76,-271.78 352.23,-259.47"/>
<polygon fill="midnightblue" stroke="midnightblue" points="353.75,-256.31 343.29,-254.59 350.39,-262.45 353.75,-256.31"/>
</g>
<!-- Node18&#45;&gt;Node17 -->
<g id="edge24" class="edge">
<title>Node18&#45;&gt;Node17</title>
<path fill="none" stroke="midnightblue" d="M433.5,-296.95C428.63,-281.59 420.59,-248.63 431.5,-224 461.91,-155.34 538.83,-103.87 579.07,-80.64"/>
<polygon fill="midnightblue" stroke="midnightblue" points="581.01,-83.57 588,-75.6 577.57,-77.47 581.01,-83.57"/>
</g>
<!-- Node18&#45;&gt;Node19 -->
<g id="edge20" class="edge">
<title>Node18&#45;&gt;Node19</title>
<path fill="none" stroke="midnightblue" d="M447.56,-296.73C460.84,-286.21 483.33,-268.38 499.43,-255.62"/>
<polygon fill="midnightblue" stroke="midnightblue" points="501.95,-258.08 507.62,-249.13 497.61,-252.6 501.95,-258.08"/>
</g>
<!-- Node19&#45;&gt;Node15 -->
<g id="edge21" class="edge">
<title>Node19&#45;&gt;Node15</title>
<path fill="none" stroke="midnightblue" d="M504.07,-229.82C471.05,-209.95 389.75,-161.05 349.64,-136.92"/>
<polygon fill="midnightblue" stroke="midnightblue" points="351.21,-133.78 340.84,-131.62 347.6,-139.78 351.21,-133.78"/>
</g>
<!-- Node19&#45;&gt;Node17 -->
<g id="edge22" class="edge">
<title>Node19&#45;&gt;Node17</title>
<path fill="none" stroke="midnightblue" d="M522.88,-229.76C536.34,-202.92 577.26,-121.32 595.53,-84.89"/>
<polygon fill="midnightblue" stroke="midnightblue" points="598.87,-86.03 600.23,-75.52 592.62,-82.89 598.87,-86.03"/>
</g>
<!-- Node20&#45;&gt;Node2 -->
<g id="edge42" class="edge">
<title>Node20&#45;&gt;Node2</title>
<path fill="none" stroke="midnightblue" d="M576.61,-364.53C509.75,-354.06 391,-335.46 307.33,-322.35"/>
<polygon fill="midnightblue" stroke="midnightblue" points="307.73,-318.87 297.31,-320.78 306.65,-325.79 307.73,-318.87"/>
</g>
<!-- Node20&#45;&gt;Node3 -->
<g id="edge43" class="edge">
<title>Node20&#45;&gt;Node3</title>
<path fill="none" stroke="midnightblue" d="M576.92,-369.77C504.57,-364.86 376.51,-352.09 342.5,-322 326.28,-307.65 320.44,-283.09 318.4,-264.67"/>
<polygon fill="midnightblue" stroke="midnightblue" points="321.89,-264.35 317.6,-254.66 314.91,-264.91 321.89,-264.35"/>
</g>
<!-- Node20&#45;&gt;Node4 -->
<g id="edge39" class="edge">
<title>Node20&#45;&gt;Node4</title>
<path fill="none" stroke="midnightblue" d="M576.59,-370.99C454.16,-366.87 150.9,-353.56 118.5,-322 85.12,-289.49 90.78,-228.61 96.34,-197.84"/>
<polygon fill="midnightblue" stroke="midnightblue" points="99.85,-198.13 98.39,-187.64 92.99,-196.76 99.85,-198.13"/>
</g>
<!-- Node20&#45;&gt;Node17 -->
<g id="edge46" class="edge">
<title>Node20&#45;&gt;Node17</title>
<path fill="none" stroke="midnightblue" d="M626.42,-358.17C622.67,-308.28 610.16,-142.15 605.92,-85.85"/>
<polygon fill="midnightblue" stroke="midnightblue" points="609.39,-85.29 605.15,-75.58 602.41,-85.81 609.39,-85.29"/>
</g>
<!-- Node20&#45;&gt;Node19 -->
<g id="edge41" class="edge">
<title>Node20&#45;&gt;Node19</title>
<path fill="none" stroke="midnightblue" d="M616.41,-358.22C603.62,-341.82 581.85,-314.21 562.5,-291 552.94,-279.53 541.9,-266.87 533.27,-257.09"/>
<polygon fill="midnightblue" stroke="midnightblue" points="535.66,-254.5 526.41,-249.34 530.42,-259.14 535.66,-254.5"/>
</g>
<!-- Node21 -->
<g id="node21" class="node">
<title>Node21</title>
<g id="a_node21"><a xlink:href="AdditiveStateModel_8h.html" target="_top" xlink:title=" ">
<polygon fill="white" stroke="black" points="730,-291.5 730,-321.5 863,-321.5 863,-291.5 730,-291.5"/>
<text text-anchor="start" x="738" y="-309.5" font-family="Helvetica,sans-Serif" font-size="10.00">BayesFilters/AdditiveState</text>
<text text-anchor="middle" x="796.5" y="-298.5" font-family="Helvetica,sans-Serif" font-size="10.00">Model.h</text>
</a>
</g>
</g>
<!-- Node20&#45;&gt;Node21 -->
<g id="edge27" class="edge">
<title>Node20&#45;&gt;Node21</title>
<path fill="none" stroke="midnightblue" d="M664.17,-358.4C689.42,-348.69 723.16,-335.71 750.25,-325.29"/>
<polygon fill="midnightblue" stroke="midnightblue" points="751.82,-328.43 759.9,-321.58 749.31,-321.9 751.82,-328.43"/>
</g>
<!-- Node22 -->
<g id="node22" class="node">
<title>Node22</title>
<g id="a_node22"><a xlink:href="StateModel_8h.html" target="_top" xlink:title=" ">
<polygon fill="white" stroke="black" points="737.5,-230 737.5,-249 869.5,-249 869.5,-230 737.5,-230"/>
<text text-anchor="middle" x="803.5" y="-237" font-family="Helvetica,sans-Serif" font-size="10.00">BayesFilters/StateModel.h</text>
</a>
</g>
</g>
<!-- Node20&#45;&gt;Node22 -->
<g id="edge44" class="edge">
<title>Node20&#45;&gt;Node22</title>
<path fill="none" stroke="midnightblue" d="M678.08,-369.4C742.52,-364.28 848.46,-351.5 872.5,-322 892.18,-297.85 856.31,-270.3 829.33,-254.21"/>
<polygon fill="midnightblue" stroke="midnightblue" points="831.03,-251.15 820.61,-249.21 827.54,-257.22 831.03,-251.15"/>
</g>
<!-- Node23 -->
<g id="node23" class="node">
<title>Node23</title>
<g id="a_node23"><a xlink:href="ExogenousModel_8h.html" target="_top" xlink:title=" ">
<polygon fill="white" stroke="black" points="841.5,-168.5 841.5,-187.5 999.5,-187.5 999.5,-168.5 841.5,-168.5"/>
<text text-anchor="middle" x="920.5" y="-175.5" font-family="Helvetica,sans-Serif" font-size="10.00">BayesFilters/ExogenousModel.h</text>
</a>
</g>
</g>
<!-- Node20&#45;&gt;Node23 -->
<g id="edge40" class="edge">
<title>Node20&#45;&gt;Node23</title>
<path fill="none" stroke="midnightblue" d="M678.07,-369.19C745.33,-363.74 859.16,-350.5 888.5,-322 922.48,-288.99 923.96,-228.34 922.24,-197.73"/>
<polygon fill="midnightblue" stroke="midnightblue" points="925.72,-197.3 921.48,-187.59 918.74,-197.82 925.72,-197.3"/>
</g>
<!-- Node28 -->
<g id="node28" class="node">
<title>Node28</title>
<g id="a_node28"><a xlink:title=" ">
<polygon fill="white" stroke="#bfbfbf" points="653,-297 653,-316 712,-316 712,-297 653,-297"/>
<text text-anchor="middle" x="682.5" y="-304" font-family="Helvetica,sans-Serif" font-size="10.00">functional</text>
</a>
</g>
</g>
<!-- Node20&#45;&gt;Node28 -->
<g id="edge45" class="edge">
<title>Node20&#45;&gt;Node28</title>
<path fill="none" stroke="midnightblue" d="M639.43,-358.4C648.01,-348.26 659.6,-334.57 668.59,-323.94"/>
<polygon fill="midnightblue" stroke="midnightblue" points="671.36,-326.09 675.14,-316.19 666.01,-321.57 671.36,-326.09"/>
</g>
<!-- Node21&#45;&gt;Node22 -->
<g id="edge28" class="edge">
<title>Node21&#45;&gt;Node22</title>
<path fill="none" stroke="midnightblue" d="M798.02,-291.4C799.03,-281.96 800.38,-269.45 801.49,-259.19"/>
<polygon fill="midnightblue" stroke="midnightblue" points="804.97,-259.51 802.56,-249.19 798.01,-258.76 804.97,-259.51"/>
</g>
<!-- Node22&#45;&gt;Node7 -->
<g id="edge38" class="edge">
<title>Node22&#45;&gt;Node7</title>
<path fill="none" stroke="midnightblue" d="M769.66,-229.97C735.19,-220.92 680.42,-205.52 634.5,-188 546.68,-154.5 447.11,-104.08 401.6,-80.3"/>
<polygon fill="midnightblue" stroke="midnightblue" points="403.21,-77.2 392.73,-75.65 399.96,-83.4 403.21,-77.2"/>
</g>
<!-- Node22&#45;&gt;Node23 -->
<g id="edge29" class="edge">
<title>Node22&#45;&gt;Node23</title>
<path fill="none" stroke="midnightblue" d="M820.26,-229.98C839.72,-220.08 872.05,-203.64 894.71,-192.12"/>
<polygon fill="midnightblue" stroke="midnightblue" points="896.44,-195.16 903.77,-187.51 893.27,-188.92 896.44,-195.16"/>
</g>
<!-- Node25 -->
<g id="node25" class="node">
<title>Node25</title>
<g id="a_node25"><a xlink:href="Skippable_8h.html" target="_top" xlink:title=" ">
<polygon fill="white" stroke="black" points="690,-112.5 690,-131.5 815,-131.5 815,-112.5 690,-112.5"/>
<text text-anchor="middle" x="752.5" y="-119.5" font-family="Helvetica,sans-Serif" font-size="10.00">BayesFilters/Skippable.h</text>
</a>
</g>
</g>
<!-- Node22&#45;&gt;Node25 -->
<g id="edge35" class="edge">
<title>Node22&#45;&gt;Node25</title>
<path fill="none" stroke="midnightblue" d="M804.05,-229.78C804.58,-215.98 804.15,-188.55 794.5,-168 789.2,-156.71 780,-146.36 771.56,-138.44"/>
<polygon fill="midnightblue" stroke="midnightblue" points="773.67,-135.64 763.86,-131.64 769.04,-140.88 773.67,-135.64"/>
</g>
<!-- Node27 -->
<g id="node27" class="node">
<title>Node27</title>
<g id="a_node27"><a xlink:href="StateProcess_8h.html" target="_top" xlink:title=" ">
<polygon fill="white" stroke="black" points="643.5,-168.5 643.5,-187.5 785.5,-187.5 785.5,-168.5 643.5,-168.5"/>
<text text-anchor="middle" x="714.5" y="-175.5" font-family="Helvetica,sans-Serif" font-size="10.00">BayesFilters/StateProcess.h</text>
</a>
</g>
</g>
<!-- Node22&#45;&gt;Node27 -->
<g id="edge36" class="edge">
<title>Node22&#45;&gt;Node27</title>
<path fill="none" stroke="midnightblue" d="M790.75,-229.98C776.47,-220.43 753.1,-204.81 735.99,-193.37"/>
<polygon fill="midnightblue" stroke="midnightblue" points="737.49,-190.16 727.23,-187.51 733.6,-195.98 737.49,-190.16"/>
</g>
<!-- Node24 -->
<g id="node24" class="node">
<title>Node24</title>
<g id="a_node24"><a xlink:href="ExogenousProcess_8h.html" target="_top" xlink:title=" ">
<polygon fill="white" stroke="black" points="833,-112.5 833,-131.5 1000,-131.5 1000,-112.5 833,-112.5"/>
<text text-anchor="middle" x="916.5" y="-119.5" font-family="Helvetica,sans-Serif" font-size="10.00">BayesFilters/ExogenousProcess.h</text>
</a>
</g>
</g>
<!-- Node23&#45;&gt;Node24 -->
<g id="edge30" class="edge">
<title>Node23&#45;&gt;Node24</title>
<path fill="none" stroke="midnightblue" d="M919.84,-168.08C919.32,-161.01 918.56,-150.86 917.91,-141.99"/>
<polygon fill="midnightblue" stroke="midnightblue" points="921.38,-141.47 917.15,-131.75 914.4,-141.98 921.38,-141.47"/>
</g>
<!-- Node23&#45;&gt;Node25 -->
<g id="edge32" class="edge">
<title>Node23&#45;&gt;Node25</title>
<path fill="none" stroke="midnightblue" d="M893.88,-168.44C865.49,-159.32 820.36,-144.81 788.75,-134.65"/>
<polygon fill="midnightblue" stroke="midnightblue" points="789.59,-131.24 779,-131.52 787.44,-137.91 789.59,-131.24"/>
</g>
<!-- Node24&#45;&gt;Node17 -->
<g id="edge31" class="edge">
<title>Node24&#45;&gt;Node17</title>
<path fill="none" stroke="midnightblue" d="M867.06,-112.44C807.74,-102.18 709.02,-85.09 651.02,-75.05"/>
<polygon fill="midnightblue" stroke="midnightblue" points="651.48,-71.58 641.03,-73.32 650.29,-78.48 651.48,-71.58"/>
</g>
<!-- Node26 -->
<g id="node26" class="node">
<title>Node26</title>
<g id="a_node26"><a xlink:href="Skipper_8h.html" target="_top" xlink:title=" ">
<polygon fill="white" stroke="black" points="677,-56.5 677,-75.5 792,-75.5 792,-56.5 677,-56.5"/>
<text text-anchor="middle" x="734.5" y="-63.5" font-family="Helvetica,sans-Serif" font-size="10.00">BayesFilters/Skipper.h</text>
</a>
</g>
</g>
<!-- Node25&#45;&gt;Node26 -->
<g id="edge33" class="edge">
<title>Node25&#45;&gt;Node26</title>
<path fill="none" stroke="midnightblue" d="M749.53,-112.08C747.12,-104.85 743.64,-94.41 740.63,-85.4"/>
<polygon fill="midnightblue" stroke="midnightblue" points="743.9,-84.13 737.42,-75.75 737.26,-86.34 743.9,-84.13"/>
</g>
<!-- Node26&#45;&gt;Node14 -->
<g id="edge34" class="edge">
<title>Node26&#45;&gt;Node14</title>
<path fill="none" stroke="midnightblue" d="M676.69,-58.53C667.92,-57.63 658.97,-56.76 650.5,-56 420.65,-35.48 142.96,-18.29 51.41,-12.82"/>
<polygon fill="midnightblue" stroke="midnightblue" points="51.38,-9.31 41.19,-12.21 50.96,-16.3 51.38,-9.31"/>
</g>
<!-- Node27&#45;&gt;Node17 -->
<g id="edge37" class="edge">
<title>Node27&#45;&gt;Node17</title>
<path fill="none" stroke="midnightblue" d="M705.87,-168.37C687.39,-149.89 643.79,-106.29 620.24,-82.74"/>
<polygon fill="midnightblue" stroke="midnightblue" points="622.64,-80.19 613.09,-75.59 617.69,-85.14 622.64,-80.19"/>
</g>
</g>
</svg>
        <g id="navigator" transform="translate(0 0)" fill="#404254">
                <rect fill="#f2f5e9" fill-opacity="0.5" stroke="#606060" stroke-width=".5" x="0" y="0" width="60" height="60"/>
                <use id="zoomplus" xlink:href="#zoomPlus" x="17" y="9" onmousedown="handleZoom(evt,'in')"/>
                <use id="zoomminus" xlink:href="#zoomMin" x="42" y="9" onmousedown="handleZoom(evt,'out')"/>
                <use id="reset" xlink:href="#resetDef" x="30" y="36" onmousedown="handleReset()"/>
                <g id="arrowUp" xlink:href="#dirArrow" transform="translate(30 24)" onmousedown="handlePan(0,-1)">
                  <use xlink:href="#rim" fill="#404040">
                        <set attributeName="fill" to="#808080" begin="arrowUp.mouseover" end="arrowUp.mouseout"/>
                  </use>
                  <path fill="none" stroke="white" stroke-width="1.5" d="M0,-3.0v7 M-2.5,-0.5L0,-3.0L2.5,-0.5"/>
                </g>
                <g id="arrowRight" xlink:href="#dirArrow" transform="rotate(90) translate(36 -43)" onmousedown="handlePan(1,0)">
                  <use xlink:href="#rim" fill="#404040">
                        <set attributeName="fill" to="#808080" begin="arrowRight.mouseover" end="arrowRight.mouseout"/>
                  </use>
                  <path fill="none" stroke="white" stroke-width="1.5" d="M0,-3.0v7 M-2.5,-0.5L0,-3.0L2.5,-0.5"/>
                </g>
                <g id="arrowDown" xlink:href="#dirArrow" transform="rotate(180) translate(-30 -48)" onmousedown="handlePan(0,1)">
                  <use xlink:href="#rim" fill="#404040">
                        <set attributeName="fill" to="#808080" begin="arrowDown.mouseover" end="arrowDown.mouseout"/>
                  </use>
                  <path fill="none" stroke="white" stroke-width="1.5" d="M0,-3.0v7 M-2.5,-0.5L0,-3.0L2.5,-0.5"/>
                </g>
                <g id="arrowLeft" xlink:href="#dirArrow" transform="rotate(270) translate(-36 17)" onmousedown="handlePan(-1,0)">
                  <use xlink:href="#rim" fill="#404040">
                        <set attributeName="fill" to="#808080" begin="arrowLeft.mouseover" end="arrowLeft.mouseout"/>
                  </use>
                  <path fill="none" stroke="white" stroke-width="1.5" d="M0,-3.0v7 M-2.5,-0.5L0,-3.0L2.5,-0.5"/>
                </g>
        </g>
        <svg viewBox="0 0 15 15" width="100%" height="30px" preserveAspectRatio="xMaxYMin meet">
         <g id="arrow_out" transform="scale(0.3 0.3)">
          <a xlink:href="SUKFCorrection_8h__incl_org.svg" target="_base">
           <rect id="button" ry="5" rx="5" y="6" x="6" height="38" width="38"
                fill="#f2f5e9" fill-opacity="0.5" stroke="#606060" stroke-width="1.0"/>
           <path id="arrow"
             d="M 11.500037,31.436501 C 11.940474,20.09759 22.043105,11.32322 32.158766,21.979434 L 37.068811,17.246167 C 37.068811,17.246167 37.088388,32 37.088388,32 L 22.160133,31.978069 C 22.160133,31.978069 26.997745,27.140456 26.997745,27.140456 C 18.528582,18.264221 13.291696,25.230495 11.500037,31.436501 z"
             style="fill:#404040;"/>
          </a>
         </g>
        </svg>
</svg>
