<?xml version="1.0" encoding="UTF-8" standalone="no"?>
<!DOCTYPE svg PUBLIC "-//W3C//DTD SVG 1.1//EN"
 "http://www.w3.org/Graphics/SVG/1.1/DTD/svg11.dtd">
<!-- Generated by graphviz version 2.47.2 (0)
 -->
<!-- Title: /home/xenvre/robot&#45;code/bfl_robotology/src/BayesFilters/src/TimeDecreasingDynamics.cpp Pages: 1 -->
<svg width="557pt" height="184pt"
 viewBox="0.00 0.00 557.00 184.00" xmlns="http://www.w3.org/2000/svg" xmlns:xlink="http://www.w3.org/1999/xlink">
<g id="graph0" class="graph" transform="scale(1 1) rotate(0) translate(4 180)">
<title>/home/xenvre/robot&#45;code/bfl_robotology/src/BayesFilters/src/TimeDecreasingDynamics.cpp</title>
<polygon fill="white" stroke="transparent" points="-4,4 -4,-180 553,-180 553,4 -4,4"/>
<!-- Node1 -->
<g id="node1" class="node">
<title>Node1</title>
<g id="a_node1"><a xlink:title=" ">
<polygon fill="#bfbfbf" stroke="black" points="339,-123.5 339,-175.5 493,-175.5 493,-123.5 339,-123.5"/>
<text text-anchor="start" x="347" y="-163.5" font-family="Helvetica,sans-Serif" font-size="10.00">/home/xenvre/robot</text>
<text text-anchor="start" x="347" y="-152.5" font-family="Helvetica,sans-Serif" font-size="10.00">&#45;code/bfl_robotology</text>
<text text-anchor="start" x="347" y="-141.5" font-family="Helvetica,sans-Serif" font-size="10.00">/src/BayesFilters/src</text>
<text text-anchor="middle" x="416" y="-130.5" font-family="Helvetica,sans-Serif" font-size="10.00">/TimeDecreasingDynamics.cpp</text>
</a>
</g>
</g>
<!-- Node2 -->
<g id="node2" class="node">
<title>Node2</title>
<g id="a_node2"><a xlink:href="TimeDecreasingDynamics_8h.html" target="_top" xlink:title=" ">
<polygon fill="white" stroke="black" points="145,-56.5 145,-86.5 291,-86.5 291,-56.5 145,-56.5"/>
<text text-anchor="start" x="153" y="-74.5" font-family="Helvetica,sans-Serif" font-size="10.00">BayesFilters/TimeDecreasing</text>
<text text-anchor="middle" x="218" y="-63.5" font-family="Helvetica,sans-Serif" font-size="10.00">Dynamics.h</text>
</a>
</g>
</g>
<!-- Node1&#45;&gt;Node2 -->
<g id="edge1" class="edge">
<title>Node1&#45;&gt;Node2</title>
<path fill="none" stroke="midnightblue" d="M350.62,-123.4C322.35,-112.55 289.94,-100.11 264.23,-90.24"/>
<polygon fill="midnightblue" stroke="midnightblue" points="265.32,-86.91 254.73,-86.6 262.81,-93.45 265.32,-86.91"/>
</g>
<!-- Node5 -->
<g id="node5" class="node">
<title>Node5</title>
<g id="a_node5"><a xlink:href="utils_8h.html" target="_top" xlink:title=" ">
<polygon fill="white" stroke="black" points="317.5,-62 317.5,-81 418.5,-81 418.5,-62 317.5,-62"/>
<text text-anchor="middle" x="368" y="-69" font-family="Helvetica,sans-Serif" font-size="10.00">BayesFilters/utils.h</text>
</a>
</g>
</g>
<!-- Node1&#45;&gt;Node5 -->
<g id="edge4" class="edge">
<title>Node1&#45;&gt;Node5</title>
<path fill="none" stroke="midnightblue" d="M400.02,-123.19C393.07,-112.2 385.12,-99.6 378.87,-89.72"/>
<polygon fill="midnightblue" stroke="midnightblue" points="381.8,-87.79 373.5,-81.21 375.88,-91.53 381.8,-87.79"/>
</g>
<!-- Node10 -->
<g id="node10" class="node">
<title>Node10</title>
<g id="a_node10"><a xlink:title=" ">
<polygon fill="white" stroke="#bfbfbf" points="437,-62 437,-81 491,-81 491,-62 437,-62"/>
<text text-anchor="middle" x="464" y="-69" font-family="Helvetica,sans-Serif" font-size="10.00">iostream</text>
</a>
</g>
</g>
<!-- Node1&#45;&gt;Node10 -->
<g id="edge10" class="edge">
<title>Node1&#45;&gt;Node10</title>
<path fill="none" stroke="midnightblue" d="M431.98,-123.19C438.93,-112.2 446.88,-99.6 453.13,-89.72"/>
<polygon fill="midnightblue" stroke="midnightblue" points="456.12,-91.53 458.5,-81.21 450.2,-87.79 456.12,-91.53"/>
</g>
<!-- Node11 -->
<g id="node11" class="node">
<title>Node11</title>
<g id="a_node11"><a xlink:title=" ">
<polygon fill="white" stroke="#bfbfbf" points="509,-62 509,-81 549,-81 549,-62 509,-62"/>
<text text-anchor="middle" x="529" y="-69" font-family="Helvetica,sans-Serif" font-size="10.00">limits</text>
</a>
</g>
</g>
<!-- Node1&#45;&gt;Node11 -->
<g id="edge11" class="edge">
<title>Node1&#45;&gt;Node11</title>
<path fill="none" stroke="midnightblue" d="M453.31,-123.4C471.31,-111.3 492.25,-97.22 507.53,-86.94"/>
<polygon fill="midnightblue" stroke="midnightblue" points="509.9,-89.56 516.25,-81.08 505.99,-83.75 509.9,-89.56"/>
</g>
<!-- Node3 -->
<g id="node3" class="node">
<title>Node3</title>
<g id="a_node3"><a xlink:title=" ">
<polygon fill="white" stroke="#bfbfbf" points="0,-0.5 0,-19.5 174,-19.5 174,-0.5 0,-0.5"/>
<text text-anchor="middle" x="87" y="-7.5" font-family="Helvetica,sans-Serif" font-size="10.00">BayesFilters/StateModelDecorator.h</text>
</a>
</g>
</g>
<!-- Node2&#45;&gt;Node3 -->
<g id="edge2" class="edge">
<title>Node2&#45;&gt;Node3</title>
<path fill="none" stroke="midnightblue" d="M186.95,-56.4C165.27,-46.55 136.54,-33.5 115.45,-23.92"/>
<polygon fill="midnightblue" stroke="midnightblue" points="116.61,-20.61 106.06,-19.66 113.72,-26.98 116.61,-20.61"/>
</g>
<!-- Node4 -->
<g id="node4" class="node">
<title>Node4</title>
<g id="a_node4"><a xlink:title=" ">
<polygon fill="white" stroke="#bfbfbf" points="192,-0.5 192,-19.5 244,-19.5 244,-0.5 192,-0.5"/>
<text text-anchor="middle" x="218" y="-7.5" font-family="Helvetica,sans-Serif" font-size="10.00">memory</text>
</a>
</g>
</g>
<!-- Node2&#45;&gt;Node4 -->
<g id="edge3" class="edge">
<title>Node2&#45;&gt;Node4</title>
<path fill="none" stroke="midnightblue" d="M218,-56.4C218,-48.47 218,-38.46 218,-29.86"/>
<polygon fill="midnightblue" stroke="midnightblue" points="221.5,-29.66 218,-19.66 214.5,-29.66 221.5,-29.66"/>
</g>
<!-- Node5&#45;&gt;Node4 -->
<g id="edge8" class="edge">
<title>Node5&#45;&gt;Node4</title>
<path fill="none" stroke="midnightblue" d="M346.51,-61.98C320.89,-51.81 277.89,-34.76 248.76,-23.2"/>
<polygon fill="midnightblue" stroke="midnightblue" points="250.04,-19.94 239.45,-19.51 247.46,-26.45 250.04,-19.94"/>
</g>
<!-- Node6 -->
<g id="node6" class="node">
<title>Node6</title>
<g id="a_node6"><a xlink:title=" ">
<polygon fill="white" stroke="#bfbfbf" points="262.5,-0.5 262.5,-19.5 335.5,-19.5 335.5,-0.5 262.5,-0.5"/>
<text text-anchor="middle" x="299" y="-7.5" font-family="Helvetica,sans-Serif" font-size="10.00">Eigen/Dense</text>
</a>
</g>
</g>
<!-- Node5&#45;&gt;Node6 -->
<g id="edge5" class="edge">
<title>Node5&#45;&gt;Node6</title>
<path fill="none" stroke="midnightblue" d="M358.11,-61.98C347.35,-52.7 329.93,-37.67 316.78,-26.33"/>
<polygon fill="midnightblue" stroke="midnightblue" points="318.73,-23.39 308.87,-19.51 314.16,-28.69 318.73,-23.39"/>
</g>
<!-- Node7 -->
<g id="node7" class="node">
<title>Node7</title>
<g id="a_node7"><a xlink:title=" ">
<polygon fill="white" stroke="#bfbfbf" points="354,-0.5 354,-19.5 400,-19.5 400,-0.5 354,-0.5"/>
<text text-anchor="middle" x="377" y="-7.5" font-family="Helvetica,sans-Serif" font-size="10.00">chrono</text>
</a>
</g>
</g>
<!-- Node5&#45;&gt;Node7 -->
<g id="edge6" class="edge">
<title>Node5&#45;&gt;Node7</title>
<path fill="none" stroke="midnightblue" d="M369.29,-61.98C370.56,-53.58 372.54,-40.48 374.18,-29.66"/>
<polygon fill="midnightblue" stroke="midnightblue" points="377.68,-29.92 375.71,-19.51 370.76,-28.87 377.68,-29.92"/>
</g>
<!-- Node8 -->
<g id="node8" class="node">
<title>Node8</title>
<g id="a_node8"><a xlink:title=" ">
<polygon fill="white" stroke="#bfbfbf" points="418,-0.5 418,-19.5 462,-19.5 462,-0.5 418,-0.5"/>
<text text-anchor="middle" x="440" y="-7.5" font-family="Helvetica,sans-Serif" font-size="10.00">cmath</text>
</a>
</g>
</g>
<!-- Node5&#45;&gt;Node8 -->
<g id="edge7" class="edge">
<title>Node5&#45;&gt;Node8</title>
<path fill="none" stroke="midnightblue" d="M378.32,-61.98C389.65,-52.61 408.07,-37.38 421.84,-26.01"/>
<polygon fill="midnightblue" stroke="midnightblue" points="424.22,-28.58 429.7,-19.51 419.77,-23.18 424.22,-28.58"/>
</g>
<!-- Node9 -->
<g id="node9" class="node">
<title>Node9</title>
<g id="a_node9"><a xlink:title=" ">
<polygon fill="white" stroke="#bfbfbf" points="480.5,-0.5 480.5,-19.5 521.5,-19.5 521.5,-0.5 480.5,-0.5"/>
<text text-anchor="middle" x="501" y="-7.5" font-family="Helvetica,sans-Serif" font-size="10.00">string</text>
</a>
</g>
</g>
<!-- Node5&#45;&gt;Node9 -->
<g id="edge9" class="edge">
<title>Node5&#45;&gt;Node9</title>
<path fill="none" stroke="midnightblue" d="M387.06,-61.98C409.47,-51.95 446.91,-35.2 472.71,-23.65"/>
<polygon fill="midnightblue" stroke="midnightblue" points="474.28,-26.79 481.98,-19.51 471.42,-20.4 474.28,-26.79"/>
</g>
</g>
</svg>
