<?xml version="1.0" encoding="UTF-8" standalone="no"?>
<!DOCTYPE svg PUBLIC "-//W3C//DTD SVG 1.1//EN"
 "http://www.w3.org/Graphics/SVG/1.1/DTD/svg11.dtd">
<!-- Generated by graphviz version 2.43.0 (0)
 -->
<!-- Title: /home/user/bayes&#45;filters&#45;lib/src/BayesFilters/src/TimeDecreasingDynamics.cpp Pages: 1 -->
<svg width="602pt" height="173pt"
 viewBox="0.00 0.00 601.50 173.00" xmlns="http://www.w3.org/2000/svg" xmlns:xlink="http://www.w3.org/1999/xlink">
<g id="graph0" class="graph" transform="scale(1 1) rotate(0) translate(4 169)">
<title>/home/user/bayes&#45;filters&#45;lib/src/BayesFilters/src/TimeDecreasingDynamics.cpp</title>
<polygon fill="white" stroke="transparent" points="-4,4 -4,-169 597.5,-169 597.5,4 -4,4"/>
<!-- Node1 -->
<g id="node1" class="node">
<title>Node1</title>
<g id="a_node1"><a xlink:title=" ">
<polygon fill="#bfbfbf" stroke="black" points="365.5,-123.5 365.5,-164.5 533.5,-164.5 533.5,-123.5 365.5,-123.5"/>
<text text-anchor="start" x="373.5" y="-152.5" font-family="Helvetica,sans-Serif" font-size="10.00">/home/user/bayes&#45;filters</text>
<text text-anchor="start" x="373.5" y="-141.5" font-family="Helvetica,sans-Serif" font-size="10.00">&#45;lib/src/BayesFilters/src</text>
<text text-anchor="middle" x="449.5" y="-130.5" font-family="Helvetica,sans-Serif" font-size="10.00">/TimeDecreasingDynamics.cpp</text>
</a>
</g>
</g>
<!-- Node2 -->
<g id="node2" class="node">
<title>Node2</title>
<g id="a_node2"><a xlink:href="TimeDecreasingDynamics_8h.html" target="_top" xlink:title=" ">
<polygon fill="white" stroke="black" points="159,-56.5 159,-86.5 318,-86.5 318,-56.5 159,-56.5"/>
<text text-anchor="start" x="167" y="-74.5" font-family="Helvetica,sans-Serif" font-size="10.00">BayesFilters/TimeDecreasing</text>
<text text-anchor="middle" x="238.5" y="-63.5" font-family="Helvetica,sans-Serif" font-size="10.00">Dynamics.h</text>
</a>
</g>
</g>
<!-- Node1&#45;&gt;Node2 -->
<g id="edge1" class="edge">
<title>Node1&#45;&gt;Node2</title>
<path fill="none" stroke="midnightblue" d="M391,-123.46C359.42,-112.9 320.77,-99.99 290.28,-89.8"/>
<polygon fill="midnightblue" stroke="midnightblue" points="291.28,-86.45 280.69,-86.6 289.07,-93.09 291.28,-86.45"/>
</g>
<!-- Node5 -->
<g id="node5" class="node">
<title>Node5</title>
<g id="a_node5"><a xlink:href="utils_8h.html" target="_top" xlink:title=" ">
<polygon fill="white" stroke="black" points="343.5,-62 343.5,-81 453.5,-81 453.5,-62 343.5,-62"/>
<text text-anchor="middle" x="398.5" y="-69" font-family="Helvetica,sans-Serif" font-size="10.00">BayesFilters/utils.h</text>
</a>
</g>
</g>
<!-- Node1&#45;&gt;Node5 -->
<g id="edge4" class="edge">
<title>Node1&#45;&gt;Node5</title>
<path fill="none" stroke="midnightblue" d="M435.29,-123.36C427.54,-112.65 418.05,-99.52 410.65,-89.29"/>
<polygon fill="midnightblue" stroke="midnightblue" points="413.47,-87.22 404.77,-81.17 407.8,-91.33 413.47,-87.22"/>
</g>
<!-- Node10 -->
<g id="node10" class="node">
<title>Node10</title>
<g id="a_node10"><a xlink:title=" ">
<polygon fill="white" stroke="#bfbfbf" points="471.5,-62 471.5,-81 531.5,-81 531.5,-62 471.5,-62"/>
<text text-anchor="middle" x="501.5" y="-69" font-family="Helvetica,sans-Serif" font-size="10.00">iostream</text>
</a>
</g>
</g>
<!-- Node1&#45;&gt;Node10 -->
<g id="edge10" class="edge">
<title>Node1&#45;&gt;Node10</title>
<path fill="none" stroke="midnightblue" d="M463.98,-123.36C471.89,-112.65 481.57,-99.52 489.12,-89.29"/>
<polygon fill="midnightblue" stroke="midnightblue" points="491.98,-91.3 495.1,-81.17 486.35,-87.14 491.98,-91.3"/>
</g>
<!-- Node11 -->
<g id="node11" class="node">
<title>Node11</title>
<g id="a_node11"><a xlink:title=" ">
<polygon fill="white" stroke="#bfbfbf" points="549.5,-62 549.5,-81 593.5,-81 593.5,-62 549.5,-62"/>
<text text-anchor="middle" x="571.5" y="-69" font-family="Helvetica,sans-Serif" font-size="10.00">limits</text>
</a>
</g>
</g>
<!-- Node1&#45;&gt;Node11 -->
<g id="edge11" class="edge">
<title>Node1&#45;&gt;Node11</title>
<path fill="none" stroke="midnightblue" d="M483.48,-123.36C503.9,-111.57 529.37,-96.85 547.65,-86.28"/>
<polygon fill="midnightblue" stroke="midnightblue" points="549.58,-89.21 556.49,-81.17 546.08,-83.15 549.58,-89.21"/>
</g>
<!-- Node3 -->
<g id="node3" class="node">
<title>Node3</title>
<g id="a_node3"><a xlink:title=" ">
<polygon fill="white" stroke="#bfbfbf" points="0,-0.5 0,-19.5 191,-19.5 191,-0.5 0,-0.5"/>
<text text-anchor="middle" x="95.5" y="-7.5" font-family="Helvetica,sans-Serif" font-size="10.00">BayesFilters/StateModelDecorator.h</text>
</a>
</g>
</g>
<!-- Node2&#45;&gt;Node3 -->
<g id="edge2" class="edge">
<title>Node2&#45;&gt;Node3</title>
<path fill="none" stroke="midnightblue" d="M204.61,-56.4C180.62,-46.42 148.73,-33.15 125.62,-23.53"/>
<polygon fill="midnightblue" stroke="midnightblue" points="126.89,-20.27 116.31,-19.66 124.2,-26.73 126.89,-20.27"/>
</g>
<!-- Node4 -->
<g id="node4" class="node">
<title>Node4</title>
<g id="a_node4"><a xlink:title=" ">
<polygon fill="white" stroke="#bfbfbf" points="209.5,-0.5 209.5,-19.5 267.5,-19.5 267.5,-0.5 209.5,-0.5"/>
<text text-anchor="middle" x="238.5" y="-7.5" font-family="Helvetica,sans-Serif" font-size="10.00">memory</text>
</a>
</g>
</g>
<!-- Node2&#45;&gt;Node4 -->
<g id="edge3" class="edge">
<title>Node2&#45;&gt;Node4</title>
<path fill="none" stroke="midnightblue" d="M238.5,-56.4C238.5,-48.47 238.5,-38.46 238.5,-29.86"/>
<polygon fill="midnightblue" stroke="midnightblue" points="242,-29.66 238.5,-19.66 235,-29.66 242,-29.66"/>
</g>
<!-- Node5&#45;&gt;Node4 -->
<g id="edge8" class="edge">
<title>Node5&#45;&gt;Node4</title>
<path fill="none" stroke="midnightblue" d="M375.58,-61.98C348.13,-51.77 301.98,-34.61 270.9,-23.05"/>
<polygon fill="midnightblue" stroke="midnightblue" points="271.97,-19.71 261.38,-19.51 269.53,-26.28 271.97,-19.71"/>
</g>
<!-- Node6 -->
<g id="node6" class="node">
<title>Node6</title>
<g id="a_node6"><a xlink:title=" ">
<polygon fill="white" stroke="#bfbfbf" points="286,-0.5 286,-19.5 363,-19.5 363,-0.5 286,-0.5"/>
<text text-anchor="middle" x="324.5" y="-7.5" font-family="Helvetica,sans-Serif" font-size="10.00">Eigen/Dense</text>
</a>
</g>
</g>
<!-- Node5&#45;&gt;Node6 -->
<g id="edge5" class="edge">
<title>Node5&#45;&gt;Node6</title>
<path fill="none" stroke="midnightblue" d="M387.9,-61.98C376.25,-52.61 357.31,-37.38 343.17,-26.01"/>
<polygon fill="midnightblue" stroke="midnightblue" points="345.07,-23.05 335.08,-19.51 340.68,-28.5 345.07,-23.05"/>
</g>
<!-- Node7 -->
<g id="node7" class="node">
<title>Node7</title>
<g id="a_node7"><a xlink:title=" ">
<polygon fill="white" stroke="#bfbfbf" points="381.5,-0.5 381.5,-19.5 431.5,-19.5 431.5,-0.5 381.5,-0.5"/>
<text text-anchor="middle" x="406.5" y="-7.5" font-family="Helvetica,sans-Serif" font-size="10.00">chrono</text>
</a>
</g>
</g>
<!-- Node5&#45;&gt;Node7 -->
<g id="edge6" class="edge">
<title>Node5&#45;&gt;Node7</title>
<path fill="none" stroke="midnightblue" d="M399.65,-61.98C400.77,-53.58 402.54,-40.48 403.99,-29.66"/>
<polygon fill="midnightblue" stroke="midnightblue" points="407.49,-29.89 405.36,-19.51 400.55,-28.95 407.49,-29.89"/>
</g>
<!-- Node8 -->
<g id="node8" class="node">
<title>Node8</title>
<g id="a_node8"><a xlink:title=" ">
<polygon fill="white" stroke="#bfbfbf" points="450,-0.5 450,-19.5 497,-19.5 497,-0.5 450,-0.5"/>
<text text-anchor="middle" x="473.5" y="-7.5" font-family="Helvetica,sans-Serif" font-size="10.00">cmath</text>
</a>
</g>
</g>
<!-- Node5&#45;&gt;Node8 -->
<g id="edge7" class="edge">
<title>Node5&#45;&gt;Node8</title>
<path fill="none" stroke="midnightblue" d="M409.25,-61.98C421.05,-52.61 440.24,-37.38 454.58,-26.01"/>
<polygon fill="midnightblue" stroke="midnightblue" points="457.12,-28.47 462.77,-19.51 452.76,-22.98 457.12,-28.47"/>
</g>
<!-- Node9 -->
<g id="node9" class="node">
<title>Node9</title>
<g id="a_node9"><a xlink:title=" ">
<polygon fill="white" stroke="#bfbfbf" points="515.5,-0.5 515.5,-19.5 559.5,-19.5 559.5,-0.5 515.5,-0.5"/>
<text text-anchor="middle" x="537.5" y="-7.5" font-family="Helvetica,sans-Serif" font-size="10.00">string</text>
</a>
</g>
</g>
<!-- Node5&#45;&gt;Node9 -->
<g id="edge9" class="edge">
<title>Node5&#45;&gt;Node9</title>
<path fill="none" stroke="midnightblue" d="M418.42,-61.98C441.95,-51.9 481.31,-35.05 508.29,-23.5"/>
<polygon fill="midnightblue" stroke="midnightblue" points="509.81,-26.66 517.62,-19.51 507.05,-20.23 509.81,-26.66"/>
</g>
</g>
</svg>
