<?xml version="1.0" encoding="UTF-8" standalone="no"?>
<!DOCTYPE svg PUBLIC "-//W3C//DTD SVG 1.1//EN"
 "http://www.w3.org/Graphics/SVG/1.1/DTD/svg11.dtd">
<!-- Generated by graphviz version 2.43.0 (0)
 -->
<!-- Title: /home/user/bayes&#45;filters&#45;lib/src/BayesFilters/include/BayesFilters/UKFCorrection.h Pages: 1 -->
<!--zoomable 475 -->
<svg id="main" version="1.1" xmlns="http://www.w3.org/2000/svg" xmlns:xlink="http://www.w3.org/1999/xlink" xml:space="preserve" onload="init(evt)">
<style type="text/css"><![CDATA[
.edge:hover path { stroke: red; }
.edge:hover polygon { stroke: red; fill: red; }
]]></style>
<script type="text/javascript"><![CDATA[
var edges = document.getElementsByTagName('g');
if (edges && edges.length) {
  for (var i=0;i<edges.length;i++) {
    if (edges[i].id.substr(0,4)=='edge') {
      edges[i].setAttribute('class','edge');
    }
  }
}
]]></script>
        <defs>
                <circle id="rim" cx="0" cy="0" r="7"/>
                <circle id="rim2" cx="0" cy="0" r="3.5"/>
                <g id="zoomPlus">
                        <use xlink:href="#rim" fill="#404040">
                                <set attributeName="fill" to="#808080" begin="zoomplus.mouseover" end="zoomplus.mouseout"/>
                        </use>
                        <path d="M-4,0h8M0,-4v8" fill="none" stroke="white" stroke-width="1.5" pointer-events="none"/>
                </g>
                <g id="zoomMin">
                        <use xlink:href="#rim" fill="#404040">
                                <set attributeName="fill" to="#808080" begin="zoomminus.mouseover" end="zoomminus.mouseout"/>
                        </use>
                        <path d="M-4,0h8" fill="none" stroke="white" stroke-width="1.5" pointer-events="none"/>
                </g>
                <g id="dirArrow">
                        <path fill="none" stroke="white" stroke-width="1.5" d="M0,-3.0v7 M-2.5,-0.5L0,-3.0L2.5,-0.5"/>
                </g>
               <g id="resetDef">
                       <use xlink:href="#rim2" fill="#404040">
                               <set attributeName="fill" to="#808080" begin="reset.mouseover" end="reset.mouseout"/>
                       </use>
               </g>
        </defs>

<script type="text/javascript">
var viewWidth = 1340;
var viewHeight = 475;
var sectionId = 'dynsection-0';
</script>
<script xlink:href="svgpan.js"/>
<svg id="graph" class="graph">
<g id="viewport">
<title>/home/user/bayes&#45;filters&#45;lib/src/BayesFilters/include/BayesFilters/UKFCorrection.h</title>
<polygon fill="white" stroke="transparent" points="-4,4 -4,-471 1336.47,-471 1336.47,4 -4,4"/>
<!-- Node1 -->
<g id="node1" class="node">
<title>Node1</title>
<g id="a_node1"><a xlink:title=" ">
<polygon fill="#bfbfbf" stroke="black" points="538.47,-425.5 538.47,-466.5 700.47,-466.5 700.47,-425.5 538.47,-425.5"/>
<text text-anchor="start" x="546.47" y="-454.5" font-family="Helvetica,sans-Serif" font-size="10.00">/home/user/bayes&#45;filters</text>
<text text-anchor="start" x="546.47" y="-443.5" font-family="Helvetica,sans-Serif" font-size="10.00">&#45;lib/src/BayesFilters/include</text>
<text text-anchor="middle" x="619.47" y="-432.5" font-family="Helvetica,sans-Serif" font-size="10.00">/BayesFilters/UKFCorrection.h</text>
</a>
</g>
</g>
<!-- Node2 -->
<g id="node2" class="node">
<title>Node2</title>
<g id="a_node2"><a xlink:href="AdditiveMeasurementModel_8h.html" target="_top" xlink:title=" ">
<polygon fill="white" stroke="black" points="155.47,-291.5 155.47,-321.5 343.47,-321.5 343.47,-291.5 155.47,-291.5"/>
<text text-anchor="start" x="163.47" y="-309.5" font-family="Helvetica,sans-Serif" font-size="10.00">BayesFilters/AdditiveMeasurement</text>
<text text-anchor="middle" x="249.47" y="-298.5" font-family="Helvetica,sans-Serif" font-size="10.00">Model.h</text>
</a>
</g>
</g>
<!-- Node1&#45;&gt;Node2 -->
<g id="edge1" class="edge">
<title>Node1&#45;&gt;Node2</title>
<path fill="none" stroke="midnightblue" d="M566.85,-425.45C494.78,-398.66 366.42,-350.96 297.07,-325.19"/>
<polygon fill="midnightblue" stroke="midnightblue" points="297.88,-321.76 287.28,-321.55 295.44,-328.32 297.88,-321.76"/>
</g>
<!-- Node3 -->
<g id="node3" class="node">
<title>Node3</title>
<g id="a_node3"><a xlink:href="MeasurementModel_8h.html" target="_top" xlink:title=" ">
<polygon fill="white" stroke="black" points="175.97,-224.5 175.97,-254.5 322.97,-254.5 322.97,-224.5 175.97,-224.5"/>
<text text-anchor="start" x="183.97" y="-242.5" font-family="Helvetica,sans-Serif" font-size="10.00">BayesFilters/Measurement</text>
<text text-anchor="middle" x="249.47" y="-231.5" font-family="Helvetica,sans-Serif" font-size="10.00">Model.h</text>
</a>
</g>
</g>
<!-- Node1&#45;&gt;Node3 -->
<g id="edge28" class="edge">
<title>Node1&#45;&gt;Node3</title>
<path fill="none" stroke="midnightblue" d="M538.22,-435.88C415.85,-420.27 193.5,-383.97 146.47,-322 138.14,-311.03 139.18,-302.69 146.47,-291 155.41,-276.65 169.75,-266.27 184.92,-258.8"/>
<polygon fill="midnightblue" stroke="midnightblue" points="186.75,-261.81 194.43,-254.51 183.88,-255.43 186.75,-261.81"/>
</g>
<!-- Node19 -->
<g id="node19" class="node">
<title>Node19</title>
<g id="a_node19"><a xlink:title=" ">
<polygon fill="white" stroke="#bfbfbf" points="624.97,-56.5 624.97,-75.5 701.97,-75.5 701.97,-56.5 624.97,-56.5"/>
<text text-anchor="middle" x="663.47" y="-63.5" font-family="Helvetica,sans-Serif" font-size="10.00">Eigen/Dense</text>
</a>
</g>
</g>
<!-- Node1&#45;&gt;Node19 -->
<g id="edge54" class="edge">
<title>Node1&#45;&gt;Node19</title>
<path fill="none" stroke="midnightblue" d="M700.56,-437.79C887.44,-420.09 1332.47,-371.24 1332.47,-307.5 1332.47,-307.5 1332.47,-307.5 1332.47,-238.5 1332.47,-100.36 1167.06,-187.29 1040.47,-132 1022.62,-124.2 1020.06,-117.81 1001.47,-112 948.68,-95.49 792.87,-79.11 712.56,-71.46"/>
<polygon fill="midnightblue" stroke="midnightblue" points="712.5,-67.94 702.22,-70.49 711.84,-74.91 712.5,-67.94"/>
</g>
<!-- Node20 -->
<g id="node20" class="node">
<title>Node20</title>
<g id="a_node20"><a xlink:href="GaussianCorrection_8h.html" target="_top" xlink:title=" ">
<polygon fill="white" stroke="black" points="437.47,-297 437.47,-316 621.47,-316 621.47,-297 437.47,-297"/>
<text text-anchor="middle" x="529.47" y="-304" font-family="Helvetica,sans-Serif" font-size="10.00">BayesFilters/GaussianCorrection.h</text>
</a>
</g>
</g>
<!-- Node1&#45;&gt;Node20 -->
<g id="edge21" class="edge">
<title>Node1&#45;&gt;Node20</title>
<path fill="none" stroke="midnightblue" d="M606.57,-425.3C588.9,-398.3 557.45,-350.25 540.7,-324.66"/>
<polygon fill="midnightblue" stroke="midnightblue" points="543.46,-322.49 535.06,-316.04 537.6,-326.32 543.46,-322.49"/>
</g>
<!-- Node21 -->
<g id="node21" class="node">
<title>Node21</title>
<g id="a_node21"><a xlink:href="GaussianMixture_8h.html" target="_top" xlink:title=" ">
<polygon fill="white" stroke="black" points="525.97,-230 525.97,-249 696.97,-249 696.97,-230 525.97,-230"/>
<text text-anchor="middle" x="611.47" y="-237" font-family="Helvetica,sans-Serif" font-size="10.00">BayesFilters/GaussianMixture.h</text>
</a>
</g>
</g>
<!-- Node1&#45;&gt;Node21 -->
<g id="edge27" class="edge">
<title>Node1&#45;&gt;Node21</title>
<path fill="none" stroke="midnightblue" d="M623.98,-425.38C630.06,-395.95 639.15,-338.73 630.47,-291 628.42,-279.76 624.02,-267.78 619.96,-258.3"/>
<polygon fill="midnightblue" stroke="midnightblue" points="623.14,-256.83 615.83,-249.16 616.76,-259.72 623.14,-256.83"/>
</g>
<!-- Node22 -->
<g id="node22" class="node">
<title>Node22</title>
<g id="a_node22"><a xlink:href="sigma__point_8h.html" target="_top" xlink:title=" ">
<polygon fill="white" stroke="black" points="677.47,-358.5 677.47,-388.5 787.47,-388.5 787.47,-358.5 677.47,-358.5"/>
<text text-anchor="start" x="685.47" y="-376.5" font-family="Helvetica,sans-Serif" font-size="10.00">BayesFilters/sigma</text>
<text text-anchor="middle" x="732.47" y="-365.5" font-family="Helvetica,sans-Serif" font-size="10.00">_point.h</text>
</a>
</g>
</g>
<!-- Node1&#45;&gt;Node22 -->
<g id="edge29" class="edge">
<title>Node1&#45;&gt;Node22</title>
<path fill="none" stroke="midnightblue" d="M650.94,-425.36C666.56,-415.62 685.37,-403.89 700.98,-394.15"/>
<polygon fill="midnightblue" stroke="midnightblue" points="703.12,-396.93 709.76,-388.67 699.42,-390.99 703.12,-396.93"/>
</g>
<!-- Node2&#45;&gt;Node3 -->
<g id="edge2" class="edge">
<title>Node2&#45;&gt;Node3</title>
<path fill="none" stroke="midnightblue" d="M249.47,-291.4C249.47,-283.64 249.47,-273.81 249.47,-264.86"/>
<polygon fill="midnightblue" stroke="midnightblue" points="252.97,-264.58 249.47,-254.58 245.97,-264.58 252.97,-264.58"/>
</g>
<!-- Node4 -->
<g id="node4" class="node">
<title>Node4</title>
<g id="a_node4"><a xlink:href="Data_8h.html" target="_top" xlink:title=" ">
<polygon fill="white" stroke="black" points="266.47,-168.5 266.47,-187.5 378.47,-187.5 378.47,-168.5 266.47,-168.5"/>
<text text-anchor="middle" x="322.47" y="-175.5" font-family="Helvetica,sans-Serif" font-size="10.00">BayesFilters/Data.h</text>
</a>
</g>
</g>
<!-- Node3&#45;&gt;Node4 -->
<g id="edge3" class="edge">
<title>Node3&#45;&gt;Node4</title>
<path fill="none" stroke="midnightblue" d="M266.77,-224.4C277.92,-215.31 292.42,-203.49 303.83,-194.19"/>
<polygon fill="midnightblue" stroke="midnightblue" points="306.31,-196.69 311.85,-187.66 301.88,-191.26 306.31,-196.69"/>
</g>
<!-- Node7 -->
<g id="node7" class="node">
<title>Node7</title>
<g id="a_node7"><a xlink:title=" ">
<polygon fill="white" stroke="#bfbfbf" points="220.47,-56.5 220.47,-75.5 278.47,-75.5 278.47,-56.5 220.47,-56.5"/>
<text text-anchor="middle" x="249.47" y="-63.5" font-family="Helvetica,sans-Serif" font-size="10.00">memory</text>
</a>
</g>
</g>
<!-- Node3&#45;&gt;Node7 -->
<g id="edge17" class="edge">
<title>Node3&#45;&gt;Node7</title>
<path fill="none" stroke="midnightblue" d="M249.47,-224.47C249.47,-193.7 249.47,-120.33 249.47,-85.7"/>
<polygon fill="midnightblue" stroke="midnightblue" points="252.97,-85.56 249.47,-75.56 245.97,-85.56 252.97,-85.56"/>
</g>
<!-- Node11 -->
<g id="node11" class="node">
<title>Node11</title>
<g id="a_node11"><a xlink:href="Logger_8h.html" target="_top" xlink:title=" ">
<polygon fill="white" stroke="black" points="88.97,-168.5 88.97,-187.5 209.97,-187.5 209.97,-168.5 88.97,-168.5"/>
<text text-anchor="middle" x="149.47" y="-175.5" font-family="Helvetica,sans-Serif" font-size="10.00">BayesFilters/Logger.h</text>
</a>
</g>
</g>
<!-- Node3&#45;&gt;Node11 -->
<g id="edge10" class="edge">
<title>Node3&#45;&gt;Node11</title>
<path fill="none" stroke="midnightblue" d="M225.77,-224.4C209.74,-214.86 188.67,-202.32 172.73,-192.84"/>
<polygon fill="midnightblue" stroke="midnightblue" points="174.4,-189.76 164.02,-187.66 170.82,-195.78 174.4,-189.76"/>
</g>
<!-- Node14 -->
<g id="node14" class="node">
<title>Node14</title>
<g id="a_node14"><a xlink:title=" ">
<polygon fill="white" stroke="#bfbfbf" points="26.47,-0.5 26.47,-19.5 70.47,-19.5 70.47,-0.5 26.47,-0.5"/>
<text text-anchor="middle" x="48.47" y="-7.5" font-family="Helvetica,sans-Serif" font-size="10.00">string</text>
</a>
</g>
</g>
<!-- Node3&#45;&gt;Node14 -->
<g id="edge18" class="edge">
<title>Node3&#45;&gt;Node14</title>
<path fill="none" stroke="midnightblue" d="M175.72,-232.46C115.17,-225.78 36.28,-212.57 16.47,-188 -21.71,-140.66 16.73,-62.89 37.3,-28.41"/>
<polygon fill="midnightblue" stroke="midnightblue" points="40.51,-29.88 42.78,-19.53 34.55,-26.2 40.51,-29.88"/>
</g>
<!-- Node16 -->
<g id="node16" class="node">
<title>Node16</title>
<g id="a_node16"><a xlink:href="VectorDescription_8h.html" target="_top" xlink:title=" ">
<polygon fill="white" stroke="black" points="1050.97,-56.5 1050.97,-75.5 1225.97,-75.5 1225.97,-56.5 1050.97,-56.5"/>
<text text-anchor="middle" x="1138.47" y="-63.5" font-family="Helvetica,sans-Serif" font-size="10.00">BayesFilters/VectorDescription.h</text>
</a>
</g>
</g>
<!-- Node3&#45;&gt;Node16 -->
<g id="edge15" class="edge">
<title>Node3&#45;&gt;Node16</title>
<path fill="none" stroke="midnightblue" d="M297.68,-224.42C332.17,-214.32 379.69,-200.38 421.47,-188 534.44,-154.51 559.84,-134.69 675.47,-112 800.1,-87.54 946.34,-76.15 1040.6,-71"/>
<polygon fill="midnightblue" stroke="midnightblue" points="1040.9,-74.49 1050.7,-70.46 1040.52,-67.5 1040.9,-74.49"/>
</g>
<!-- Node18 -->
<g id="node18" class="node">
<title>Node18</title>
<g id="a_node18"><a xlink:title=" ">
<polygon fill="white" stroke="#bfbfbf" points="25.97,-168.5 25.97,-187.5 70.97,-187.5 70.97,-168.5 25.97,-168.5"/>
<text text-anchor="middle" x="48.47" y="-175.5" font-family="Helvetica,sans-Serif" font-size="10.00">utility</text>
</a>
</g>
</g>
<!-- Node3&#45;&gt;Node18 -->
<g id="edge19" class="edge">
<title>Node3&#45;&gt;Node18</title>
<path fill="none" stroke="midnightblue" d="M202.09,-224.47C164.8,-213.44 113.83,-198.35 81.03,-188.64"/>
<polygon fill="midnightblue" stroke="midnightblue" points="81.64,-185.17 71.05,-185.69 79.65,-191.88 81.64,-185.17"/>
</g>
<!-- Node3&#45;&gt;Node19 -->
<g id="edge20" class="edge">
<title>Node3&#45;&gt;Node19</title>
<path fill="none" stroke="midnightblue" d="M292.69,-224.47C320.21,-215.1 356.41,-201.97 387.47,-188 452.4,-158.8 463.12,-140.25 528.47,-112 559.43,-98.61 595.78,-86.7 622.95,-78.5"/>
<polygon fill="midnightblue" stroke="midnightblue" points="624.3,-81.75 632.88,-75.55 622.3,-75.05 624.3,-81.75"/>
</g>
<!-- Node5 -->
<g id="node5" class="node">
<title>Node5</title>
<g id="a_node5"><a xlink:href="any_8h.html" target="_top" xlink:title=" ">
<polygon fill="white" stroke="black" points="370.97,-112.5 370.97,-131.5 475.97,-131.5 475.97,-112.5 370.97,-112.5"/>
<text text-anchor="middle" x="423.47" y="-119.5" font-family="Helvetica,sans-Serif" font-size="10.00">BayesFilters/any.h</text>
</a>
</g>
</g>
<!-- Node4&#45;&gt;Node5 -->
<g id="edge4" class="edge">
<title>Node4&#45;&gt;Node5</title>
<path fill="none" stroke="midnightblue" d="M338.7,-168.32C354.82,-159.7 379.77,-146.36 398.43,-136.39"/>
<polygon fill="midnightblue" stroke="midnightblue" points="400.11,-139.46 407.28,-131.65 396.81,-133.28 400.11,-139.46"/>
</g>
<!-- Node6 -->
<g id="node6" class="node">
<title>Node6</title>
<g id="a_node6"><a xlink:title=" ">
<polygon fill="white" stroke="#bfbfbf" points="384.47,-56.5 384.47,-75.5 448.47,-75.5 448.47,-56.5 384.47,-56.5"/>
<text text-anchor="middle" x="416.47" y="-63.5" font-family="Helvetica,sans-Serif" font-size="10.00">algorithm</text>
</a>
</g>
</g>
<!-- Node5&#45;&gt;Node6 -->
<g id="edge5" class="edge">
<title>Node5&#45;&gt;Node6</title>
<path fill="none" stroke="midnightblue" d="M422.31,-112.08C421.38,-104.93 420.05,-94.64 418.89,-85.69"/>
<polygon fill="midnightblue" stroke="midnightblue" points="422.36,-85.22 417.6,-75.75 415.42,-86.12 422.36,-85.22"/>
</g>
<!-- Node5&#45;&gt;Node7 -->
<g id="edge6" class="edge">
<title>Node5&#45;&gt;Node7</title>
<path fill="none" stroke="midnightblue" d="M395.9,-112.44C366.37,-103.28 319.35,-88.69 286.59,-78.52"/>
<polygon fill="midnightblue" stroke="midnightblue" points="287.5,-75.14 276.91,-75.52 285.42,-81.82 287.5,-75.14"/>
</g>
<!-- Node8 -->
<g id="node8" class="node">
<title>Node8</title>
<g id="a_node8"><a xlink:title=" ">
<polygon fill="white" stroke="#bfbfbf" points="466.97,-56.5 466.97,-75.5 531.97,-75.5 531.97,-56.5 466.97,-56.5"/>
<text text-anchor="middle" x="499.47" y="-63.5" font-family="Helvetica,sans-Serif" font-size="10.00">stdexcept</text>
</a>
</g>
</g>
<!-- Node5&#45;&gt;Node8 -->
<g id="edge7" class="edge">
<title>Node5&#45;&gt;Node8</title>
<path fill="none" stroke="midnightblue" d="M435.68,-112.32C447.24,-104.11 464.84,-91.6 478.63,-81.81"/>
<polygon fill="midnightblue" stroke="midnightblue" points="480.91,-84.48 487.04,-75.83 476.86,-78.77 480.91,-84.48"/>
</g>
<!-- Node9 -->
<g id="node9" class="node">
<title>Node9</title>
<g id="a_node9"><a xlink:title=" ">
<polygon fill="white" stroke="#bfbfbf" points="549.97,-56.5 549.97,-75.5 606.97,-75.5 606.97,-56.5 549.97,-56.5"/>
<text text-anchor="middle" x="578.47" y="-63.5" font-family="Helvetica,sans-Serif" font-size="10.00">typeinfo</text>
</a>
</g>
</g>
<!-- Node5&#45;&gt;Node9 -->
<g id="edge8" class="edge">
<title>Node5&#45;&gt;Node9</title>
<path fill="none" stroke="midnightblue" d="M448.03,-112.44C473.99,-103.4 515.14,-89.06 544.27,-78.92"/>
<polygon fill="midnightblue" stroke="midnightblue" points="545.73,-82.11 554.02,-75.52 543.43,-75.5 545.73,-82.11"/>
</g>
<!-- Node10 -->
<g id="node10" class="node">
<title>Node10</title>
<g id="a_node10"><a xlink:title=" ">
<polygon fill="white" stroke="#bfbfbf" points="296.97,-56.5 296.97,-75.5 365.97,-75.5 365.97,-56.5 296.97,-56.5"/>
<text text-anchor="middle" x="331.47" y="-63.5" font-family="Helvetica,sans-Serif" font-size="10.00">type_traits</text>
</a>
</g>
</g>
<!-- Node5&#45;&gt;Node10 -->
<g id="edge9" class="edge">
<title>Node5&#45;&gt;Node10</title>
<path fill="none" stroke="midnightblue" d="M408.69,-112.32C394.2,-103.82 371.9,-90.73 354.97,-80.8"/>
<polygon fill="midnightblue" stroke="midnightblue" points="356.61,-77.7 346.21,-75.65 353.07,-83.74 356.61,-77.7"/>
</g>
<!-- Node12 -->
<g id="node12" class="node">
<title>Node12</title>
<g id="a_node12"><a xlink:title=" ">
<polygon fill="white" stroke="#bfbfbf" points="76.97,-112.5 76.97,-131.5 131.97,-131.5 131.97,-112.5 76.97,-112.5"/>
<text text-anchor="middle" x="104.47" y="-119.5" font-family="Helvetica,sans-Serif" font-size="10.00">fstream</text>
</a>
</g>
</g>
<!-- Node11&#45;&gt;Node12 -->
<g id="edge11" class="edge">
<title>Node11&#45;&gt;Node12</title>
<path fill="none" stroke="midnightblue" d="M142.04,-168.08C135.62,-160.38 126.16,-149.03 118.35,-139.65"/>
<polygon fill="midnightblue" stroke="midnightblue" points="120.85,-137.19 111.76,-131.75 115.47,-141.67 120.85,-137.19"/>
</g>
<!-- Node13 -->
<g id="node13" class="node">
<title>Node13</title>
<g id="a_node13"><a xlink:title=" ">
<polygon fill="white" stroke="#bfbfbf" points="150.47,-112.5 150.47,-131.5 210.47,-131.5 210.47,-112.5 150.47,-112.5"/>
<text text-anchor="middle" x="180.47" y="-119.5" font-family="Helvetica,sans-Serif" font-size="10.00">iostream</text>
</a>
</g>
</g>
<!-- Node11&#45;&gt;Node13 -->
<g id="edge12" class="edge">
<title>Node11&#45;&gt;Node13</title>
<path fill="none" stroke="midnightblue" d="M154.59,-168.08C158.88,-160.61 165.13,-149.72 170.41,-140.52"/>
<polygon fill="midnightblue" stroke="midnightblue" points="173.5,-142.17 175.44,-131.75 167.43,-138.68 173.5,-142.17"/>
</g>
<!-- Node11&#45;&gt;Node14 -->
<g id="edge13" class="edge">
<title>Node11&#45;&gt;Node14</title>
<path fill="none" stroke="midnightblue" d="M120.27,-168.37C102.18,-161.47 80.07,-149.94 67.47,-132 45.85,-101.22 45.03,-55.2 46.6,-29.7"/>
<polygon fill="midnightblue" stroke="midnightblue" points="50.1,-29.8 47.42,-19.56 43.12,-29.24 50.1,-29.8"/>
</g>
<!-- Node15 -->
<g id="node15" class="node">
<title>Node15</title>
<g id="a_node15"><a xlink:title=" ">
<polygon fill="white" stroke="#bfbfbf" points="266.97,-112.5 266.97,-131.5 313.97,-131.5 313.97,-112.5 266.97,-112.5"/>
<text text-anchor="middle" x="290.47" y="-119.5" font-family="Helvetica,sans-Serif" font-size="10.00">vector</text>
</a>
</g>
</g>
<!-- Node11&#45;&gt;Node15 -->
<g id="edge14" class="edge">
<title>Node11&#45;&gt;Node15</title>
<path fill="none" stroke="midnightblue" d="M171.81,-168.44C195.22,-159.48 232.2,-145.31 258.66,-135.18"/>
<polygon fill="midnightblue" stroke="midnightblue" points="260.14,-138.36 268.23,-131.52 257.64,-131.82 260.14,-138.36"/>
</g>
<!-- Node17 -->
<g id="node17" class="node">
<title>Node17</title>
<g id="a_node17"><a xlink:title=" ">
<polygon fill="white" stroke="#bfbfbf" points="1111.97,-0.5 1111.97,-19.5 1164.97,-19.5 1164.97,-0.5 1111.97,-0.5"/>
<text text-anchor="middle" x="1138.47" y="-7.5" font-family="Helvetica,sans-Serif" font-size="10.00">cstddef</text>
</a>
</g>
</g>
<!-- Node16&#45;&gt;Node17 -->
<g id="edge16" class="edge">
<title>Node16&#45;&gt;Node17</title>
<path fill="none" stroke="midnightblue" d="M1138.47,-56.08C1138.47,-49.01 1138.47,-38.86 1138.47,-29.99"/>
<polygon fill="midnightblue" stroke="midnightblue" points="1141.97,-29.75 1138.47,-19.75 1134.97,-29.75 1141.97,-29.75"/>
</g>
<!-- Node20&#45;&gt;Node3 -->
<g id="edge25" class="edge">
<title>Node20&#45;&gt;Node3</title>
<path fill="none" stroke="midnightblue" d="M492.58,-296.94C448.82,-286.78 374.91,-269.62 320.04,-256.88"/>
<polygon fill="midnightblue" stroke="midnightblue" points="320.56,-253.41 310.03,-254.56 318.98,-260.23 320.56,-253.41"/>
</g>
<!-- Node20&#45;&gt;Node19 -->
<g id="edge26" class="edge">
<title>Node20&#45;&gt;Node19</title>
<path fill="none" stroke="midnightblue" d="M525.11,-296.61C518.22,-281.26 506.57,-249.05 516.47,-224 541.91,-159.6 607.62,-106.13 641.91,-81.53"/>
<polygon fill="midnightblue" stroke="midnightblue" points="644.13,-84.26 650.3,-75.65 640.11,-78.53 644.13,-84.26"/>
</g>
<!-- Node20&#45;&gt;Node21 -->
<g id="edge22" class="edge">
<title>Node20&#45;&gt;Node21</title>
<path fill="none" stroke="midnightblue" d="M540.53,-296.73C553.81,-286.21 576.3,-268.38 592.4,-255.62"/>
<polygon fill="midnightblue" stroke="midnightblue" points="594.92,-258.08 600.58,-249.13 590.57,-252.6 594.92,-258.08"/>
</g>
<!-- Node21&#45;&gt;Node15 -->
<g id="edge23" class="edge">
<title>Node21&#45;&gt;Node15</title>
<path fill="none" stroke="midnightblue" d="M586.9,-229.91C558.38,-219.93 509.97,-202.91 468.47,-188 417.67,-169.75 358.87,-148.2 323.19,-135.07"/>
<polygon fill="midnightblue" stroke="midnightblue" points="324.36,-131.77 313.76,-131.6 321.94,-138.34 324.36,-131.77"/>
</g>
<!-- Node21&#45;&gt;Node19 -->
<g id="edge24" class="edge">
<title>Node21&#45;&gt;Node19</title>
<path fill="none" stroke="midnightblue" d="M613,-229.74C616.77,-208.94 627.3,-155.08 642.47,-112 645.72,-102.75 650.23,-92.84 654.24,-84.67"/>
<polygon fill="midnightblue" stroke="midnightblue" points="657.36,-86.25 658.76,-75.75 651.12,-83.09 657.36,-86.25"/>
</g>
<!-- Node22&#45;&gt;Node2 -->
<g id="edge30" class="edge">
<title>Node22&#45;&gt;Node2</title>
<path fill="none" stroke="midnightblue" d="M677.06,-365.04C598.37,-354.45 452.77,-334.86 353.56,-321.51"/>
<polygon fill="midnightblue" stroke="midnightblue" points="353.88,-318.02 343.5,-320.15 352.95,-324.96 353.88,-318.02"/>
</g>
<!-- Node22&#45;&gt;Node3 -->
<g id="edge49" class="edge">
<title>Node22&#45;&gt;Node3</title>
<path fill="none" stroke="midnightblue" d="M677.27,-372.13C608.75,-369.92 489.44,-360.26 395.47,-322 373.65,-313.12 372.67,-303.12 352.47,-291 332.8,-279.2 309.99,-267.8 290.83,-258.83"/>
<polygon fill="midnightblue" stroke="midnightblue" points="292.3,-255.65 281.76,-254.62 289.36,-262 292.3,-255.65"/>
</g>
<!-- Node22&#45;&gt;Node4 -->
<g id="edge46" class="edge">
<title>Node22&#45;&gt;Node4</title>
<path fill="none" stroke="midnightblue" d="M677.27,-368.29C601.3,-361.67 469.26,-346.94 428.47,-322 378.49,-291.44 344.4,-227.73 330.08,-196.72"/>
<polygon fill="midnightblue" stroke="midnightblue" points="333.26,-195.25 325.99,-187.55 326.87,-198.11 333.26,-195.25"/>
</g>
<!-- Node22&#45;&gt;Node16 -->
<g id="edge51" class="edge">
<title>Node22&#45;&gt;Node16</title>
<path fill="none" stroke="midnightblue" d="M787.64,-371.2C929.23,-366.38 1294.47,-343.92 1294.47,-240.5 1294.47,-240.5 1294.47,-240.5 1294.47,-177 1294.47,-122.82 1230.83,-92.97 1184.85,-78.48"/>
<polygon fill="midnightblue" stroke="midnightblue" points="1185.63,-75.06 1175.04,-75.54 1183.61,-81.77 1185.63,-75.06"/>
</g>
<!-- Node22&#45;&gt;Node19 -->
<g id="edge53" class="edge">
<title>Node22&#45;&gt;Node19</title>
<path fill="none" stroke="midnightblue" d="M730.73,-358.43C727.29,-331.88 718.86,-272.7 706.47,-224 695.83,-182.18 686.3,-173.77 675.47,-132 671.5,-116.71 668.33,-99.06 666.25,-86.02"/>
<polygon fill="midnightblue" stroke="midnightblue" points="669.67,-85.28 664.7,-75.92 662.75,-86.33 669.67,-85.28"/>
</g>
<!-- Node22&#45;&gt;Node21 -->
<g id="edge48" class="edge">
<title>Node22&#45;&gt;Node21</title>
<path fill="none" stroke="midnightblue" d="M721.15,-358.3C707.8,-341.75 684.73,-313.76 663.47,-291 652.22,-278.95 638.87,-266.01 628.51,-256.25"/>
<polygon fill="midnightblue" stroke="midnightblue" points="630.64,-253.45 620.94,-249.18 625.86,-258.56 630.64,-253.45"/>
</g>
<!-- Node23 -->
<g id="node23" class="node">
<title>Node23</title>
<g id="a_node23"><a xlink:href="AdditiveStateModel_8h.html" target="_top" xlink:title=" ">
<polygon fill="white" stroke="black" points="953.47,-291.5 953.47,-321.5 1099.47,-321.5 1099.47,-291.5 953.47,-291.5"/>
<text text-anchor="start" x="961.47" y="-309.5" font-family="Helvetica,sans-Serif" font-size="10.00">BayesFilters/AdditiveState</text>
<text text-anchor="middle" x="1026.47" y="-298.5" font-family="Helvetica,sans-Serif" font-size="10.00">Model.h</text>
</a>
</g>
</g>
<!-- Node22&#45;&gt;Node23 -->
<g id="edge31" class="edge">
<title>Node22&#45;&gt;Node23</title>
<path fill="none" stroke="midnightblue" d="M787.77,-360.27C834.47,-349.95 901.74,-335.08 952.97,-323.75"/>
<polygon fill="midnightblue" stroke="midnightblue" points="953.98,-327.11 962.99,-321.53 952.47,-320.28 953.98,-327.11"/>
</g>
<!-- Node24 -->
<g id="node24" class="node">
<title>Node24</title>
<g id="a_node24"><a xlink:href="StateModel_8h.html" target="_top" xlink:title=" ">
<polygon fill="white" stroke="black" points="753.47,-230 753.47,-249 897.47,-249 897.47,-230 753.47,-230"/>
<text text-anchor="middle" x="825.47" y="-237" font-family="Helvetica,sans-Serif" font-size="10.00">BayesFilters/StateModel.h</text>
</a>
</g>
</g>
<!-- Node22&#45;&gt;Node24 -->
<g id="edge50" class="edge">
<title>Node22&#45;&gt;Node24</title>
<path fill="none" stroke="midnightblue" d="M740.58,-358.28C750.2,-341.72 767.03,-313.72 783.47,-291 792.05,-279.14 802.59,-266.47 810.96,-256.79"/>
<polygon fill="midnightblue" stroke="midnightblue" points="813.7,-258.98 817.66,-249.15 808.44,-254.36 813.7,-258.98"/>
</g>
<!-- Node25 -->
<g id="node25" class="node">
<title>Node25</title>
<g id="a_node25"><a xlink:href="ExogenousModel_8h.html" target="_top" xlink:title=" ">
<polygon fill="white" stroke="black" points="843.97,-168.5 843.97,-187.5 1014.97,-187.5 1014.97,-168.5 843.97,-168.5"/>
<text text-anchor="middle" x="929.47" y="-175.5" font-family="Helvetica,sans-Serif" font-size="10.00">BayesFilters/ExogenousModel.h</text>
</a>
</g>
</g>
<!-- Node22&#45;&gt;Node25 -->
<g id="edge47" class="edge">
<title>Node22&#45;&gt;Node25</title>
<path fill="none" stroke="midnightblue" d="M787.69,-360.7C813.74,-353.02 843.96,-340.82 866.47,-322 905.22,-289.59 920.93,-228.67 926.61,-197.86"/>
<polygon fill="midnightblue" stroke="midnightblue" points="930.12,-198.09 928.33,-187.65 923.22,-196.93 930.12,-198.09"/>
</g>
<!-- Node30 -->
<g id="node30" class="node">
<title>Node30</title>
<g id="a_node30"><a xlink:title=" ">
<polygon fill="white" stroke="#bfbfbf" points="791.97,-297 791.97,-316 856.97,-316 856.97,-297 791.97,-297"/>
<text text-anchor="middle" x="824.47" y="-304" font-family="Helvetica,sans-Serif" font-size="10.00">functional</text>
</a>
</g>
</g>
<!-- Node22&#45;&gt;Node30 -->
<g id="edge52" class="edge">
<title>Node22&#45;&gt;Node30</title>
<path fill="none" stroke="midnightblue" d="M752.43,-358.4C767.72,-347.6 788.72,-332.76 804.1,-321.89"/>
<polygon fill="midnightblue" stroke="midnightblue" points="806.28,-324.64 812.43,-316.01 802.24,-318.92 806.28,-324.64"/>
</g>
<!-- Node23&#45;&gt;Node16 -->
<g id="edge45" class="edge">
<title>Node23&#45;&gt;Node16</title>
<path fill="none" stroke="midnightblue" d="M1057.11,-291.37C1105.98,-266.91 1199.89,-211.55 1237.47,-132 1249.91,-105.66 1218.26,-88.57 1187.51,-78.55"/>
<polygon fill="midnightblue" stroke="midnightblue" points="1188.21,-75.11 1177.62,-75.55 1186.17,-81.8 1188.21,-75.11"/>
</g>
<!-- Node23&#45;&gt;Node24 -->
<g id="edge32" class="edge">
<title>Node23&#45;&gt;Node24</title>
<path fill="none" stroke="midnightblue" d="M982.85,-291.4C946.49,-279.64 895.32,-263.09 861.31,-252.09"/>
<polygon fill="midnightblue" stroke="midnightblue" points="862.37,-248.75 851.77,-249.01 860.21,-255.41 862.37,-248.75"/>
</g>
<!-- Node24&#45;&gt;Node7 -->
<g id="edge44" class="edge">
<title>Node24&#45;&gt;Node7</title>
<path fill="none" stroke="midnightblue" d="M760.99,-229.96C669.67,-216.47 498.51,-186.06 361.47,-132 343.51,-124.92 299.24,-98.08 272.04,-81.18"/>
<polygon fill="midnightblue" stroke="midnightblue" points="273.54,-78 263.2,-75.67 269.84,-83.93 273.54,-78"/>
</g>
<!-- Node24&#45;&gt;Node25 -->
<g id="edge33" class="edge">
<title>Node24&#45;&gt;Node25</title>
<path fill="none" stroke="midnightblue" d="M840.37,-229.98C857.44,-220.21 885.63,-204.08 905.73,-192.58"/>
<polygon fill="midnightblue" stroke="midnightblue" points="907.65,-195.51 914.6,-187.51 904.18,-189.44 907.65,-195.51"/>
</g>
<!-- Node27 -->
<g id="node27" class="node">
<title>Node27</title>
<g id="a_node27"><a xlink:href="Skippable_8h.html" target="_top" xlink:title=" ">
<polygon fill="white" stroke="black" points="854.97,-112.5 854.97,-131.5 991.97,-131.5 991.97,-112.5 854.97,-112.5"/>
<text text-anchor="middle" x="923.47" y="-119.5" font-family="Helvetica,sans-Serif" font-size="10.00">BayesFilters/Skippable.h</text>
</a>
</g>
</g>
<!-- Node24&#45;&gt;Node27 -->
<g id="edge40" class="edge">
<title>Node24&#45;&gt;Node27</title>
<path fill="none" stroke="midnightblue" d="M824.31,-229.77C822.89,-215.45 822.12,-186.72 835.47,-168 846.38,-152.7 864.06,-142.26 880.72,-135.31"/>
<polygon fill="midnightblue" stroke="midnightblue" points="882.27,-138.47 890.35,-131.62 879.76,-131.93 882.27,-138.47"/>
</g>
<!-- Node29 -->
<g id="node29" class="node">
<title>Node29</title>
<g id="a_node29"><a xlink:href="StateProcess_8h.html" target="_top" xlink:title=" ">
<polygon fill="white" stroke="black" points="684.47,-112.5 684.47,-131.5 836.47,-131.5 836.47,-112.5 684.47,-112.5"/>
<text text-anchor="middle" x="760.47" y="-119.5" font-family="Helvetica,sans-Serif" font-size="10.00">BayesFilters/StateProcess.h</text>
</a>
</g>
</g>
<!-- Node24&#45;&gt;Node29 -->
<g id="edge41" class="edge">
<title>Node24&#45;&gt;Node29</title>
<path fill="none" stroke="midnightblue" d="M820.58,-229.82C809.95,-210.92 784.53,-165.75 770.38,-140.62"/>
<polygon fill="midnightblue" stroke="midnightblue" points="773.36,-138.78 765.41,-131.78 767.26,-142.21 773.36,-138.78"/>
</g>
<!-- Node26 -->
<g id="node26" class="node">
<title>Node26</title>
<g id="a_node26"><a xlink:href="ExogenousProcess_8h.html" target="_top" xlink:title=" ">
<polygon fill="white" stroke="black" points="1048.97,-112.5 1048.97,-131.5 1227.97,-131.5 1227.97,-112.5 1048.97,-112.5"/>
<text text-anchor="middle" x="1138.47" y="-119.5" font-family="Helvetica,sans-Serif" font-size="10.00">BayesFilters/ExogenousProcess.h</text>
</a>
</g>
</g>
<!-- Node25&#45;&gt;Node26 -->
<g id="edge34" class="edge">
<title>Node25&#45;&gt;Node26</title>
<path fill="none" stroke="midnightblue" d="M962.58,-168.44C998.59,-159.14 1056.24,-144.25 1095.65,-134.06"/>
<polygon fill="midnightblue" stroke="midnightblue" points="1096.7,-137.41 1105.51,-131.52 1094.95,-130.63 1096.7,-137.41"/>
</g>
<!-- Node25&#45;&gt;Node27 -->
<g id="edge37" class="edge">
<title>Node25&#45;&gt;Node27</title>
<path fill="none" stroke="midnightblue" d="M928.48,-168.08C927.68,-160.93 926.54,-150.64 925.54,-141.69"/>
<polygon fill="midnightblue" stroke="midnightblue" points="929.02,-141.3 924.44,-131.75 922.07,-142.08 929.02,-141.3"/>
</g>
<!-- Node26&#45;&gt;Node16 -->
<g id="edge35" class="edge">
<title>Node26&#45;&gt;Node16</title>
<path fill="none" stroke="midnightblue" d="M1138.47,-112.08C1138.47,-105.01 1138.47,-94.86 1138.47,-85.99"/>
<polygon fill="midnightblue" stroke="midnightblue" points="1141.97,-85.75 1138.47,-75.75 1134.97,-85.75 1141.97,-85.75"/>
</g>
<!-- Node26&#45;&gt;Node19 -->
<g id="edge36" class="edge">
<title>Node26&#45;&gt;Node19</title>
<path fill="none" stroke="midnightblue" d="M1063.47,-112.47C965.19,-101.3 795.59,-82.02 712.39,-72.56"/>
<polygon fill="midnightblue" stroke="midnightblue" points="712.53,-69.05 702.2,-71.4 711.74,-76.01 712.53,-69.05"/>
</g>
<!-- Node28 -->
<g id="node28" class="node">
<title>Node28</title>
<g id="a_node28"><a xlink:href="Skipper_8h.html" target="_top" xlink:title=" ">
<polygon fill="white" stroke="black" points="786.97,-56.5 786.97,-75.5 911.97,-75.5 911.97,-56.5 786.97,-56.5"/>
<text text-anchor="middle" x="849.47" y="-63.5" font-family="Helvetica,sans-Serif" font-size="10.00">BayesFilters/Skipper.h</text>
</a>
</g>
</g>
<!-- Node27&#45;&gt;Node28 -->
<g id="edge38" class="edge">
<title>Node27&#45;&gt;Node28</title>
<path fill="none" stroke="midnightblue" d="M911.58,-112.32C900.32,-104.11 883.18,-91.6 869.76,-81.81"/>
<polygon fill="midnightblue" stroke="midnightblue" points="871.71,-78.9 861.57,-75.83 867.59,-84.56 871.71,-78.9"/>
</g>
<!-- Node28&#45;&gt;Node14 -->
<g id="edge39" class="edge">
<title>Node28&#45;&gt;Node14</title>
<path fill="none" stroke="midnightblue" d="M786.95,-60.79C625.94,-49.93 201.25,-21.3 80.76,-13.18"/>
<polygon fill="midnightblue" stroke="midnightblue" points="80.91,-9.68 70.69,-12.5 80.44,-16.66 80.91,-9.68"/>
</g>
<!-- Node29&#45;&gt;Node16 -->
<g id="edge42" class="edge">
<title>Node29&#45;&gt;Node16</title>
<path fill="none" stroke="midnightblue" d="M820.36,-112.44C887.83,-102.81 997.32,-87.16 1068.62,-76.98"/>
<polygon fill="midnightblue" stroke="midnightblue" points="1069.45,-80.4 1078.85,-75.52 1068.46,-73.47 1069.45,-80.4"/>
</g>
<!-- Node29&#45;&gt;Node19 -->
<g id="edge43" class="edge">
<title>Node29&#45;&gt;Node19</title>
<path fill="none" stroke="midnightblue" d="M744.88,-112.32C729.47,-103.74 705.66,-90.49 687.76,-80.52"/>
<polygon fill="midnightblue" stroke="midnightblue" points="689.45,-77.46 679.01,-75.65 686.05,-83.58 689.45,-77.46"/>
</g>
</g>
</svg>
        <g id="navigator" transform="translate(0 0)" fill="#404254">
                <rect fill="#f2f5e9" fill-opacity="0.5" stroke="#606060" stroke-width=".5" x="0" y="0" width="60" height="60"/>
                <use id="zoomplus" xlink:href="#zoomPlus" x="17" y="9" onmousedown="handleZoom(evt,'in')"/>
                <use id="zoomminus" xlink:href="#zoomMin" x="42" y="9" onmousedown="handleZoom(evt,'out')"/>
                <use id="reset" xlink:href="#resetDef" x="30" y="36" onmousedown="handleReset()"/>
                <g id="arrowUp" xlink:href="#dirArrow" transform="translate(30 24)" onmousedown="handlePan(0,-1)">
                  <use xlink:href="#rim" fill="#404040">
                        <set attributeName="fill" to="#808080" begin="arrowUp.mouseover" end="arrowUp.mouseout"/>
                  </use>
                  <path fill="none" stroke="white" stroke-width="1.5" d="M0,-3.0v7 M-2.5,-0.5L0,-3.0L2.5,-0.5"/>
                </g>
                <g id="arrowRight" xlink:href="#dirArrow" transform="rotate(90) translate(36 -43)" onmousedown="handlePan(1,0)">
                  <use xlink:href="#rim" fill="#404040">
                        <set attributeName="fill" to="#808080" begin="arrowRight.mouseover" end="arrowRight.mouseout"/>
                  </use>
                  <path fill="none" stroke="white" stroke-width="1.5" d="M0,-3.0v7 M-2.5,-0.5L0,-3.0L2.5,-0.5"/>
                </g>
                <g id="arrowDown" xlink:href="#dirArrow" transform="rotate(180) translate(-30 -48)" onmousedown="handlePan(0,1)">
                  <use xlink:href="#rim" fill="#404040">
                        <set attributeName="fill" to="#808080" begin="arrowDown.mouseover" end="arrowDown.mouseout"/>
                  </use>
                  <path fill="none" stroke="white" stroke-width="1.5" d="M0,-3.0v7 M-2.5,-0.5L0,-3.0L2.5,-0.5"/>
                </g>
                <g id="arrowLeft" xlink:href="#dirArrow" transform="rotate(270) translate(-36 17)" onmousedown="handlePan(-1,0)">
                  <use xlink:href="#rim" fill="#404040">
                        <set attributeName="fill" to="#808080" begin="arrowLeft.mouseover" end="arrowLeft.mouseout"/>
                  </use>
                  <path fill="none" stroke="white" stroke-width="1.5" d="M0,-3.0v7 M-2.5,-0.5L0,-3.0L2.5,-0.5"/>
                </g>
        </g>
        <svg viewBox="0 0 15 15" width="100%" height="30px" preserveAspectRatio="xMaxYMin meet">
         <g id="arrow_out" transform="scale(0.3 0.3)">
          <a xlink:href="UKFCorrection_8h__incl_org.svg" target="_base">
           <rect id="button" ry="5" rx="5" y="6" x="6" height="38" width="38"
                fill="#f2f5e9" fill-opacity="0.5" stroke="#606060" stroke-width="1.0"/>
           <path id="arrow"
             d="M 11.500037,31.436501 C 11.940474,20.09759 22.043105,11.32322 32.158766,21.979434 L 37.068811,17.246167 C 37.068811,17.246167 37.088388,32 37.088388,32 L 22.160133,31.978069 C 22.160133,31.978069 26.997745,27.140456 26.997745,27.140456 C 18.528582,18.264221 13.291696,25.230495 11.500037,31.436501 z"
             style="fill:#404040;"/>
          </a>
         </g>
        </svg>
</svg>
