<?xml version="1.0" encoding="UTF-8" standalone="no"?>
<!DOCTYPE svg PUBLIC "-//W3C//DTD SVG 1.1//EN"
 "http://www.w3.org/Graphics/SVG/1.1/DTD/svg11.dtd">
<!-- Generated by graphviz version 2.43.0 (0)
 -->
<!-- Title: /home/user/bayes&#45;filters&#45;lib/src/BayesFilters/src/UKFCorrection.cpp Pages: 1 -->
<!--zoomable 531 -->
<svg id="main" version="1.1" xmlns="http://www.w3.org/2000/svg" xmlns:xlink="http://www.w3.org/1999/xlink" xml:space="preserve" onload="init(evt)">
<style type="text/css"><![CDATA[
.edge:hover path { stroke: red; }
.edge:hover polygon { stroke: red; fill: red; }
]]></style>
<script type="text/javascript"><![CDATA[
var edges = document.getElementsByTagName('g');
if (edges && edges.length) {
  for (var i=0;i<edges.length;i++) {
    if (edges[i].id.substr(0,4)=='edge') {
      edges[i].setAttribute('class','edge');
    }
  }
}
]]></script>
        <defs>
                <circle id="rim" cx="0" cy="0" r="7"/>
                <circle id="rim2" cx="0" cy="0" r="3.5"/>
                <g id="zoomPlus">
                        <use xlink:href="#rim" fill="#404040">
                                <set attributeName="fill" to="#808080" begin="zoomplus.mouseover" end="zoomplus.mouseout"/>
                        </use>
                        <path d="M-4,0h8M0,-4v8" fill="none" stroke="white" stroke-width="1.5" pointer-events="none"/>
                </g>
                <g id="zoomMin">
                        <use xlink:href="#rim" fill="#404040">
                                <set attributeName="fill" to="#808080" begin="zoomminus.mouseover" end="zoomminus.mouseout"/>
                        </use>
                        <path d="M-4,0h8" fill="none" stroke="white" stroke-width="1.5" pointer-events="none"/>
                </g>
                <g id="dirArrow">
                        <path fill="none" stroke="white" stroke-width="1.5" d="M0,-3.0v7 M-2.5,-0.5L0,-3.0L2.5,-0.5"/>
                </g>
               <g id="resetDef">
                       <use xlink:href="#rim2" fill="#404040">
                               <set attributeName="fill" to="#808080" begin="reset.mouseover" end="reset.mouseout"/>
                       </use>
               </g>
        </defs>

<script type="text/javascript">
var viewWidth = 1495;
var viewHeight = 531;
var sectionId = 'dynsection-0';
</script>
<script xlink:href="svgpan.js"/>
<svg id="graph" class="graph">
<g id="viewport">
<title>/home/user/bayes&#45;filters&#45;lib/src/BayesFilters/src/UKFCorrection.cpp</title>
<polygon fill="white" stroke="transparent" points="-4,4 -4,-527 1491.12,-527 1491.12,4 -4,4"/>
<!-- Node1 -->
<g id="node1" class="node">
<title>Node1</title>
<g id="a_node1"><a xlink:title=" ">
<polygon fill="#bfbfbf" stroke="black" points="821.12,-481.5 821.12,-522.5 956.12,-522.5 956.12,-481.5 821.12,-481.5"/>
<text text-anchor="start" x="829.12" y="-510.5" font-family="Helvetica,sans-Serif" font-size="10.00">/home/user/bayes&#45;filters</text>
<text text-anchor="start" x="829.12" y="-499.5" font-family="Helvetica,sans-Serif" font-size="10.00">&#45;lib/src/BayesFilters/src</text>
<text text-anchor="middle" x="888.62" y="-488.5" font-family="Helvetica,sans-Serif" font-size="10.00">/UKFCorrection.cpp</text>
</a>
</g>
</g>
<!-- Node2 -->
<g id="node2" class="node">
<title>Node2</title>
<g id="a_node2"><a xlink:href="UKFCorrection_8h.html" target="_top" xlink:title=" ">
<polygon fill="white" stroke="black" points="313.12,-425.5 313.12,-444.5 472.12,-444.5 472.12,-425.5 313.12,-425.5"/>
<text text-anchor="middle" x="392.62" y="-432.5" font-family="Helvetica,sans-Serif" font-size="10.00">BayesFilters/UKFCorrection.h</text>
</a>
</g>
</g>
<!-- Node1&#45;&gt;Node2 -->
<g id="edge1" class="edge">
<title>Node1&#45;&gt;Node2</title>
<path fill="none" stroke="midnightblue" d="M820.95,-492.13C728.65,-480.04 563.8,-458.43 467.76,-445.85"/>
<polygon fill="midnightblue" stroke="midnightblue" points="468.2,-442.38 457.83,-444.55 467.29,-449.32 468.2,-442.38"/>
</g>
<!-- Node32 -->
<g id="node32" class="node">
<title>Node32</title>
<g id="a_node32"><a xlink:href="utils_8h.html" target="_top" xlink:title=" ">
<polygon fill="white" stroke="black" points="1375.62,-112.5 1375.62,-131.5 1485.62,-131.5 1485.62,-112.5 1375.62,-112.5"/>
<text text-anchor="middle" x="1430.62" y="-119.5" font-family="Helvetica,sans-Serif" font-size="10.00">BayesFilters/utils.h</text>
</a>
</g>
</g>
<!-- Node1&#45;&gt;Node32 -->
<g id="edge56" class="edge">
<title>Node1&#45;&gt;Node32</title>
<path fill="none" stroke="midnightblue" d="M956.2,-498.61C1096.75,-491.81 1407.62,-466.37 1407.62,-374.5 1407.62,-374.5 1407.62,-374.5 1407.62,-238.5 1407.62,-203.53 1417.88,-163.74 1424.69,-141.17"/>
<polygon fill="midnightblue" stroke="midnightblue" points="1428.05,-142.17 1427.7,-131.58 1421.37,-140.07 1428.05,-142.17"/>
</g>
<!-- Node3 -->
<g id="node3" class="node">
<title>Node3</title>
<g id="a_node3"><a xlink:href="AdditiveMeasurementModel_8h.html" target="_top" xlink:title=" ">
<polygon fill="white" stroke="black" points="18.62,-291.5 18.62,-321.5 206.62,-321.5 206.62,-291.5 18.62,-291.5"/>
<text text-anchor="start" x="26.62" y="-309.5" font-family="Helvetica,sans-Serif" font-size="10.00">BayesFilters/AdditiveMeasurement</text>
<text text-anchor="middle" x="112.62" y="-298.5" font-family="Helvetica,sans-Serif" font-size="10.00">Model.h</text>
</a>
</g>
</g>
<!-- Node2&#45;&gt;Node3 -->
<g id="edge2" class="edge">
<title>Node2&#45;&gt;Node3</title>
<path fill="none" stroke="midnightblue" d="M361.94,-425.47C334.38,-417.38 293.06,-404.24 258.62,-389 217.41,-370.77 172.51,-344.69 143.53,-326.98"/>
<polygon fill="midnightblue" stroke="midnightblue" points="145.06,-323.81 134.71,-321.54 141.39,-329.77 145.06,-323.81"/>
</g>
<!-- Node4 -->
<g id="node4" class="node">
<title>Node4</title>
<g id="a_node4"><a xlink:href="MeasurementModel_8h.html" target="_top" xlink:title=" ">
<polygon fill="white" stroke="black" points="190.12,-224.5 190.12,-254.5 337.12,-254.5 337.12,-224.5 190.12,-224.5"/>
<text text-anchor="start" x="198.12" y="-242.5" font-family="Helvetica,sans-Serif" font-size="10.00">BayesFilters/Measurement</text>
<text text-anchor="middle" x="263.62" y="-231.5" font-family="Helvetica,sans-Serif" font-size="10.00">Model.h</text>
</a>
</g>
</g>
<!-- Node2&#45;&gt;Node4 -->
<g id="edge29" class="edge">
<title>Node2&#45;&gt;Node4</title>
<path fill="none" stroke="midnightblue" d="M331.84,-425.48C233.5,-410.27 46.72,-374.99 9.62,-322 -35.2,-257.98 89.43,-242.95 179.59,-240.14"/>
<polygon fill="midnightblue" stroke="midnightblue" points="179.95,-243.63 189.85,-239.87 179.76,-236.63 179.95,-243.63"/>
</g>
<!-- Node20 -->
<g id="node20" class="node">
<title>Node20</title>
<g id="a_node20"><a xlink:title=" ">
<polygon fill="white" stroke="#bfbfbf" points="658.12,-56.5 658.12,-75.5 735.12,-75.5 735.12,-56.5 658.12,-56.5"/>
<text text-anchor="middle" x="696.62" y="-63.5" font-family="Helvetica,sans-Serif" font-size="10.00">Eigen/Dense</text>
</a>
</g>
</g>
<!-- Node2&#45;&gt;Node20 -->
<g id="edge55" class="edge">
<title>Node2&#45;&gt;Node20</title>
<path fill="none" stroke="midnightblue" d="M472.36,-433.63C553.06,-431.36 669.92,-422.22 698.62,-389 775.71,-299.74 724.38,-138.92 703.94,-85.1"/>
<polygon fill="midnightblue" stroke="midnightblue" points="707.11,-83.6 700.2,-75.56 700.59,-86.15 707.11,-83.6"/>
</g>
<!-- Node21 -->
<g id="node21" class="node">
<title>Node21</title>
<g id="a_node21"><a xlink:href="GaussianCorrection_8h.html" target="_top" xlink:title=" ">
<polygon fill="white" stroke="black" points="300.62,-297 300.62,-316 484.62,-316 484.62,-297 300.62,-297"/>
<text text-anchor="middle" x="392.62" y="-304" font-family="Helvetica,sans-Serif" font-size="10.00">BayesFilters/GaussianCorrection.h</text>
</a>
</g>
</g>
<!-- Node2&#45;&gt;Node21 -->
<g id="edge22" class="edge">
<title>Node2&#45;&gt;Node21</title>
<path fill="none" stroke="midnightblue" d="M392.62,-425.31C392.62,-404.99 392.62,-354.05 392.62,-326.28"/>
<polygon fill="midnightblue" stroke="midnightblue" points="396.12,-326.26 392.62,-316.26 389.12,-326.26 396.12,-326.26"/>
</g>
<!-- Node22 -->
<g id="node22" class="node">
<title>Node22</title>
<g id="a_node22"><a xlink:href="GaussianMixture_8h.html" target="_top" xlink:title=" ">
<polygon fill="white" stroke="black" points="435.12,-230 435.12,-249 606.12,-249 606.12,-230 435.12,-230"/>
<text text-anchor="middle" x="520.62" y="-237" font-family="Helvetica,sans-Serif" font-size="10.00">BayesFilters/GaussianMixture.h</text>
</a>
</g>
</g>
<!-- Node2&#45;&gt;Node22 -->
<g id="edge28" class="edge">
<title>Node2&#45;&gt;Node22</title>
<path fill="none" stroke="midnightblue" d="M378.07,-425.35C341.7,-402.66 252.4,-339.81 291.62,-291 308.6,-269.86 369.91,-257.05 424.82,-249.62"/>
<polygon fill="midnightblue" stroke="midnightblue" points="425.53,-253.06 434.99,-248.29 424.62,-246.12 425.53,-253.06"/>
</g>
<!-- Node23 -->
<g id="node23" class="node">
<title>Node23</title>
<g id="a_node23"><a xlink:href="sigma__point_8h.html" target="_top" xlink:title=" ">
<polygon fill="white" stroke="black" points="579.62,-358.5 579.62,-388.5 689.62,-388.5 689.62,-358.5 579.62,-358.5"/>
<text text-anchor="start" x="587.62" y="-376.5" font-family="Helvetica,sans-Serif" font-size="10.00">BayesFilters/sigma</text>
<text text-anchor="middle" x="634.62" y="-365.5" font-family="Helvetica,sans-Serif" font-size="10.00">_point.h</text>
</a>
</g>
</g>
<!-- Node2&#45;&gt;Node23 -->
<g id="edge30" class="edge">
<title>Node2&#45;&gt;Node23</title>
<path fill="none" stroke="midnightblue" d="M427.29,-425.48C464.3,-416.37 523.81,-401.74 569.59,-390.49"/>
<polygon fill="midnightblue" stroke="midnightblue" points="570.56,-393.85 579.44,-388.07 568.89,-387.06 570.56,-393.85"/>
</g>
<!-- Node3&#45;&gt;Node4 -->
<g id="edge3" class="edge">
<title>Node3&#45;&gt;Node4</title>
<path fill="none" stroke="midnightblue" d="M145.38,-291.4C167.74,-281.77 197.56,-268.94 221.65,-258.56"/>
<polygon fill="midnightblue" stroke="midnightblue" points="223.11,-261.75 230.91,-254.58 220.35,-255.32 223.11,-261.75"/>
</g>
<!-- Node5 -->
<g id="node5" class="node">
<title>Node5</title>
<g id="a_node5"><a xlink:href="Data_8h.html" target="_top" xlink:title=" ">
<polygon fill="white" stroke="black" points="380.62,-168.5 380.62,-187.5 492.62,-187.5 492.62,-168.5 380.62,-168.5"/>
<text text-anchor="middle" x="436.62" y="-175.5" font-family="Helvetica,sans-Serif" font-size="10.00">BayesFilters/Data.h</text>
</a>
</g>
</g>
<!-- Node4&#45;&gt;Node5 -->
<g id="edge4" class="edge">
<title>Node4&#45;&gt;Node5</title>
<path fill="none" stroke="midnightblue" d="M304.61,-224.4C334.25,-214.21 373.84,-200.59 401.91,-190.93"/>
<polygon fill="midnightblue" stroke="midnightblue" points="403.38,-194.13 411.7,-187.57 401.1,-187.51 403.38,-194.13"/>
</g>
<!-- Node8 -->
<g id="node8" class="node">
<title>Node8</title>
<g id="a_node8"><a xlink:title=" ">
<polygon fill="white" stroke="#bfbfbf" points="541.62,-56.5 541.62,-75.5 599.62,-75.5 599.62,-56.5 541.62,-56.5"/>
<text text-anchor="middle" x="570.62" y="-63.5" font-family="Helvetica,sans-Serif" font-size="10.00">memory</text>
</a>
</g>
</g>
<!-- Node4&#45;&gt;Node8 -->
<g id="edge18" class="edge">
<title>Node4&#45;&gt;Node8</title>
<path fill="none" stroke="midnightblue" d="M275.68,-224.47C289.58,-208.99 313.73,-184.14 338.62,-168 373.38,-145.45 386.64,-148.58 424.62,-132 444.3,-123.41 449.01,-120.78 468.62,-112 493.21,-100.99 521.22,-88.64 541.66,-79.67"/>
<polygon fill="midnightblue" stroke="midnightblue" points="543.28,-82.78 551.03,-75.56 540.47,-76.37 543.28,-82.78"/>
</g>
<!-- Node12 -->
<g id="node12" class="node">
<title>Node12</title>
<g id="a_node12"><a xlink:href="Logger_8h.html" target="_top" xlink:title=" ">
<polygon fill="white" stroke="black" points="102.12,-168.5 102.12,-187.5 223.12,-187.5 223.12,-168.5 102.12,-168.5"/>
<text text-anchor="middle" x="162.62" y="-175.5" font-family="Helvetica,sans-Serif" font-size="10.00">BayesFilters/Logger.h</text>
</a>
</g>
</g>
<!-- Node4&#45;&gt;Node12 -->
<g id="edge11" class="edge">
<title>Node4&#45;&gt;Node12</title>
<path fill="none" stroke="midnightblue" d="M239.68,-224.4C223.49,-214.86 202.21,-202.32 186.11,-192.84"/>
<polygon fill="midnightblue" stroke="midnightblue" points="187.7,-189.72 177.31,-187.66 184.15,-195.75 187.7,-189.72"/>
</g>
<!-- Node15 -->
<g id="node15" class="node">
<title>Node15</title>
<g id="a_node15"><a xlink:title=" ">
<polygon fill="white" stroke="#bfbfbf" points="438.62,-0.5 438.62,-19.5 482.62,-19.5 482.62,-0.5 438.62,-0.5"/>
<text text-anchor="middle" x="460.62" y="-7.5" font-family="Helvetica,sans-Serif" font-size="10.00">string</text>
</a>
</g>
</g>
<!-- Node4&#45;&gt;Node15 -->
<g id="edge19" class="edge">
<title>Node4&#45;&gt;Node15</title>
<path fill="none" stroke="midnightblue" d="M189.91,-233.02C156.11,-226.82 118.01,-214.04 92.62,-188 51.52,-145.85 56.07,-90.72 103.62,-56 154.93,-18.53 350.13,-12.19 428.13,-11.17"/>
<polygon fill="midnightblue" stroke="midnightblue" points="428.37,-14.67 438.33,-11.06 428.29,-7.67 428.37,-14.67"/>
</g>
<!-- Node17 -->
<g id="node17" class="node">
<title>Node17</title>
<g id="a_node17"><a xlink:href="VectorDescription_8h.html" target="_top" xlink:title=" ">
<polygon fill="white" stroke="black" points="1104.12,-56.5 1104.12,-75.5 1279.12,-75.5 1279.12,-56.5 1104.12,-56.5"/>
<text text-anchor="middle" x="1191.62" y="-63.5" font-family="Helvetica,sans-Serif" font-size="10.00">BayesFilters/VectorDescription.h</text>
</a>
</g>
</g>
<!-- Node4&#45;&gt;Node17 -->
<g id="edge16" class="edge">
<title>Node4&#45;&gt;Node17</title>
<path fill="none" stroke="midnightblue" d="M336.04,-224.49C383.35,-215 446.38,-201.73 501.62,-188 620.94,-158.33 646.92,-135.46 767.62,-112 878.4,-90.46 1007.62,-78.62 1094.02,-72.56"/>
<polygon fill="midnightblue" stroke="midnightblue" points="1094.34,-76.05 1104.07,-71.87 1093.86,-69.06 1094.34,-76.05"/>
</g>
<!-- Node19 -->
<g id="node19" class="node">
<title>Node19</title>
<g id="a_node19"><a xlink:title=" ">
<polygon fill="white" stroke="#bfbfbf" points="241.12,-168.5 241.12,-187.5 286.12,-187.5 286.12,-168.5 241.12,-168.5"/>
<text text-anchor="middle" x="263.62" y="-175.5" font-family="Helvetica,sans-Serif" font-size="10.00">utility</text>
</a>
</g>
</g>
<!-- Node4&#45;&gt;Node19 -->
<g id="edge20" class="edge">
<title>Node4&#45;&gt;Node19</title>
<path fill="none" stroke="midnightblue" d="M263.62,-224.4C263.62,-216.47 263.62,-206.46 263.62,-197.86"/>
<polygon fill="midnightblue" stroke="midnightblue" points="267.12,-197.66 263.62,-187.66 260.12,-197.66 267.12,-197.66"/>
</g>
<!-- Node4&#45;&gt;Node20 -->
<g id="edge21" class="edge">
<title>Node4&#45;&gt;Node20</title>
<path fill="none" stroke="midnightblue" d="M284.59,-224.36C313.36,-205.03 362.55,-172.27 371.62,-168 422.87,-143.88 579.65,-99.24 655.14,-78.34"/>
<polygon fill="midnightblue" stroke="midnightblue" points="656.53,-81.59 665.23,-75.55 654.66,-74.84 656.53,-81.59"/>
</g>
<!-- Node6 -->
<g id="node6" class="node">
<title>Node6</title>
<g id="a_node6"><a xlink:href="any_8h.html" target="_top" xlink:title=" ">
<polygon fill="white" stroke="black" points="246.12,-112.5 246.12,-131.5 351.12,-131.5 351.12,-112.5 246.12,-112.5"/>
<text text-anchor="middle" x="298.62" y="-119.5" font-family="Helvetica,sans-Serif" font-size="10.00">BayesFilters/any.h</text>
</a>
</g>
</g>
<!-- Node5&#45;&gt;Node6 -->
<g id="edge5" class="edge">
<title>Node5&#45;&gt;Node6</title>
<path fill="none" stroke="midnightblue" d="M414.75,-168.44C391.84,-159.48 355.64,-145.31 329.75,-135.18"/>
<polygon fill="midnightblue" stroke="midnightblue" points="330.97,-131.9 320.38,-131.52 328.42,-138.42 330.97,-131.9"/>
</g>
<!-- Node7 -->
<g id="node7" class="node">
<title>Node7</title>
<g id="a_node7"><a xlink:title=" ">
<polygon fill="white" stroke="#bfbfbf" points="392.62,-56.5 392.62,-75.5 456.62,-75.5 456.62,-56.5 392.62,-56.5"/>
<text text-anchor="middle" x="424.62" y="-63.5" font-family="Helvetica,sans-Serif" font-size="10.00">algorithm</text>
</a>
</g>
</g>
<!-- Node6&#45;&gt;Node7 -->
<g id="edge6" class="edge">
<title>Node6&#45;&gt;Node7</title>
<path fill="none" stroke="midnightblue" d="M318.58,-112.44C339.22,-103.6 371.68,-89.69 395.25,-79.59"/>
<polygon fill="midnightblue" stroke="midnightblue" points="396.93,-82.67 404.74,-75.52 394.17,-76.24 396.93,-82.67"/>
</g>
<!-- Node6&#45;&gt;Node8 -->
<g id="edge7" class="edge">
<title>Node6&#45;&gt;Node8</title>
<path fill="none" stroke="midnightblue" d="M341.71,-112.44C393.99,-102.07 481.34,-84.72 531.67,-74.73"/>
<polygon fill="midnightblue" stroke="midnightblue" points="532.39,-78.16 541.52,-72.78 531.03,-71.29 532.39,-78.16"/>
</g>
<!-- Node9 -->
<g id="node9" class="node">
<title>Node9</title>
<g id="a_node9"><a xlink:title=" ">
<polygon fill="white" stroke="#bfbfbf" points="147.12,-56.5 147.12,-75.5 212.12,-75.5 212.12,-56.5 147.12,-56.5"/>
<text text-anchor="middle" x="179.62" y="-63.5" font-family="Helvetica,sans-Serif" font-size="10.00">stdexcept</text>
</a>
</g>
</g>
<!-- Node6&#45;&gt;Node9 -->
<g id="edge8" class="edge">
<title>Node6&#45;&gt;Node9</title>
<path fill="none" stroke="midnightblue" d="M279.76,-112.44C260.35,-103.64 229.89,-89.81 207.65,-79.72"/>
<polygon fill="midnightblue" stroke="midnightblue" points="208.94,-76.46 198.38,-75.52 206.04,-82.84 208.94,-76.46"/>
</g>
<!-- Node10 -->
<g id="node10" class="node">
<title>Node10</title>
<g id="a_node10"><a xlink:title=" ">
<polygon fill="white" stroke="#bfbfbf" points="230.12,-56.5 230.12,-75.5 287.12,-75.5 287.12,-56.5 230.12,-56.5"/>
<text text-anchor="middle" x="258.62" y="-63.5" font-family="Helvetica,sans-Serif" font-size="10.00">typeinfo</text>
</a>
</g>
</g>
<!-- Node6&#45;&gt;Node10 -->
<g id="edge9" class="edge">
<title>Node6&#45;&gt;Node10</title>
<path fill="none" stroke="midnightblue" d="M292.01,-112.08C286.36,-104.46 278.07,-93.26 271.16,-83.94"/>
<polygon fill="midnightblue" stroke="midnightblue" points="273.86,-81.7 265.1,-75.75 268.24,-85.87 273.86,-81.7"/>
</g>
<!-- Node11 -->
<g id="node11" class="node">
<title>Node11</title>
<g id="a_node11"><a xlink:title=" ">
<polygon fill="white" stroke="#bfbfbf" points="305.12,-56.5 305.12,-75.5 374.12,-75.5 374.12,-56.5 305.12,-56.5"/>
<text text-anchor="middle" x="339.62" y="-63.5" font-family="Helvetica,sans-Serif" font-size="10.00">type_traits</text>
</a>
</g>
</g>
<!-- Node6&#45;&gt;Node11 -->
<g id="edge10" class="edge">
<title>Node6&#45;&gt;Node11</title>
<path fill="none" stroke="midnightblue" d="M305.39,-112.08C311.18,-104.46 319.67,-93.26 326.75,-83.94"/>
<polygon fill="midnightblue" stroke="midnightblue" points="329.71,-85.83 332.97,-75.75 324.14,-81.6 329.71,-85.83"/>
</g>
<!-- Node13 -->
<g id="node13" class="node">
<title>Node13</title>
<g id="a_node13"><a xlink:title=" ">
<polygon fill="white" stroke="#bfbfbf" points="173.12,-112.5 173.12,-131.5 228.12,-131.5 228.12,-112.5 173.12,-112.5"/>
<text text-anchor="middle" x="200.62" y="-119.5" font-family="Helvetica,sans-Serif" font-size="10.00">fstream</text>
</a>
</g>
</g>
<!-- Node12&#45;&gt;Node13 -->
<g id="edge12" class="edge">
<title>Node12&#45;&gt;Node13</title>
<path fill="none" stroke="midnightblue" d="M168.89,-168.08C174.26,-160.46 182.13,-149.26 188.69,-139.94"/>
<polygon fill="midnightblue" stroke="midnightblue" points="191.56,-141.94 194.46,-131.75 185.84,-137.91 191.56,-141.94"/>
</g>
<!-- Node14 -->
<g id="node14" class="node">
<title>Node14</title>
<g id="a_node14"><a xlink:title=" ">
<polygon fill="white" stroke="#bfbfbf" points="94.62,-112.5 94.62,-131.5 154.62,-131.5 154.62,-112.5 94.62,-112.5"/>
<text text-anchor="middle" x="124.62" y="-119.5" font-family="Helvetica,sans-Serif" font-size="10.00">iostream</text>
</a>
</g>
</g>
<!-- Node12&#45;&gt;Node14 -->
<g id="edge13" class="edge">
<title>Node12&#45;&gt;Node14</title>
<path fill="none" stroke="midnightblue" d="M156.34,-168.08C150.97,-160.46 143.1,-149.26 136.54,-139.94"/>
<polygon fill="midnightblue" stroke="midnightblue" points="139.39,-137.91 130.77,-131.75 133.67,-141.94 139.39,-137.91"/>
</g>
<!-- Node12&#45;&gt;Node15 -->
<g id="edge14" class="edge">
<title>Node12&#45;&gt;Node15</title>
<path fill="none" stroke="midnightblue" d="M134.24,-168.49C116.86,-161.65 96.02,-150.13 85.62,-132 63.68,-93.77 129.17,-60.4 137.62,-56 187.76,-29.87 356.3,-17.12 427.94,-12.78"/>
<polygon fill="midnightblue" stroke="midnightblue" points="428.41,-16.26 438.18,-12.18 427.99,-9.27 428.41,-16.26"/>
</g>
<!-- Node16 -->
<g id="node16" class="node">
<title>Node16</title>
<g id="a_node16"><a xlink:title=" ">
<polygon fill="white" stroke="#bfbfbf" points="369.12,-112.5 369.12,-131.5 416.12,-131.5 416.12,-112.5 369.12,-112.5"/>
<text text-anchor="middle" x="392.62" y="-119.5" font-family="Helvetica,sans-Serif" font-size="10.00">vector</text>
</a>
</g>
</g>
<!-- Node12&#45;&gt;Node16 -->
<g id="edge15" class="edge">
<title>Node12&#45;&gt;Node16</title>
<path fill="none" stroke="midnightblue" d="M202.35,-168.43C240.12,-160.18 298.74,-147.07 358.81,-132.12"/>
<polygon fill="midnightblue" stroke="midnightblue" points="360,-135.43 368.85,-129.61 358.3,-128.64 360,-135.43"/>
</g>
<!-- Node18 -->
<g id="node18" class="node">
<title>Node18</title>
<g id="a_node18"><a xlink:title=" ">
<polygon fill="white" stroke="#bfbfbf" points="1165.12,-0.5 1165.12,-19.5 1218.12,-19.5 1218.12,-0.5 1165.12,-0.5"/>
<text text-anchor="middle" x="1191.62" y="-7.5" font-family="Helvetica,sans-Serif" font-size="10.00">cstddef</text>
</a>
</g>
</g>
<!-- Node17&#45;&gt;Node18 -->
<g id="edge17" class="edge">
<title>Node17&#45;&gt;Node18</title>
<path fill="none" stroke="midnightblue" d="M1191.62,-56.08C1191.62,-49.01 1191.62,-38.86 1191.62,-29.99"/>
<polygon fill="midnightblue" stroke="midnightblue" points="1195.12,-29.75 1191.62,-19.75 1188.12,-29.75 1195.12,-29.75"/>
</g>
<!-- Node21&#45;&gt;Node4 -->
<g id="edge26" class="edge">
<title>Node21&#45;&gt;Node4</title>
<path fill="none" stroke="midnightblue" d="M375.49,-296.87C356.52,-287.31 325.39,-271.63 300.78,-259.22"/>
<polygon fill="midnightblue" stroke="midnightblue" points="302.21,-256.03 291.7,-254.65 299.06,-262.28 302.21,-256.03"/>
</g>
<!-- Node21&#45;&gt;Node20 -->
<g id="edge27" class="edge">
<title>Node21&#45;&gt;Node20</title>
<path fill="none" stroke="midnightblue" d="M465.59,-296.98C522,-288.97 593.99,-275.17 615.62,-255 664.14,-209.73 626.99,-170.35 658.62,-112 664.32,-101.48 672.74,-91.18 680.21,-83.09"/>
<polygon fill="midnightblue" stroke="midnightblue" points="682.81,-85.44 687.23,-75.82 677.77,-80.58 682.81,-85.44"/>
</g>
<!-- Node21&#45;&gt;Node22 -->
<g id="edge23" class="edge">
<title>Node21&#45;&gt;Node22</title>
<path fill="none" stroke="midnightblue" d="M409.61,-296.87C431.32,-285.84 469.11,-266.66 494.49,-253.77"/>
<polygon fill="midnightblue" stroke="midnightblue" points="496.22,-256.82 503.55,-249.17 493.05,-250.57 496.22,-256.82"/>
</g>
<!-- Node22&#45;&gt;Node16 -->
<g id="edge24" class="edge">
<title>Node22&#45;&gt;Node16</title>
<path fill="none" stroke="midnightblue" d="M520.62,-229.54C520.16,-214.9 517.18,-185.71 501.62,-168 482.22,-145.94 450.32,-134.47 426.03,-128.65"/>
<polygon fill="midnightblue" stroke="midnightblue" points="426.66,-125.21 416.14,-126.49 425.16,-132.04 426.66,-125.21"/>
</g>
<!-- Node22&#45;&gt;Node20 -->
<g id="edge25" class="edge">
<title>Node22&#45;&gt;Node20</title>
<path fill="none" stroke="midnightblue" d="M525.8,-229.94C539.27,-208.17 577.4,-149.77 620.62,-112 635.15,-99.3 653.76,-88.21 668.93,-80.22"/>
<polygon fill="midnightblue" stroke="midnightblue" points="670.55,-83.32 677.87,-75.65 667.37,-77.08 670.55,-83.32"/>
</g>
<!-- Node23&#45;&gt;Node3 -->
<g id="edge31" class="edge">
<title>Node23&#45;&gt;Node3</title>
<path fill="none" stroke="midnightblue" d="M579.34,-365.97C499.94,-356.55 349,-338.45 220.62,-322 219.35,-321.84 218.07,-321.67 216.79,-321.51"/>
<polygon fill="midnightblue" stroke="midnightblue" points="217.22,-318.03 206.85,-320.22 216.32,-324.98 217.22,-318.03"/>
</g>
<!-- Node23&#45;&gt;Node4 -->
<g id="edge50" class="edge">
<title>Node23&#45;&gt;Node4</title>
<path fill="none" stroke="midnightblue" d="M579.29,-371.18C493.64,-368.05 334.33,-357.47 291.62,-322 274.78,-308.02 268.04,-283.4 265.36,-264.87"/>
<polygon fill="midnightblue" stroke="midnightblue" points="268.82,-264.33 264.2,-254.79 261.86,-265.12 268.82,-264.33"/>
</g>
<!-- Node23&#45;&gt;Node5 -->
<g id="edge47" class="edge">
<title>Node23&#45;&gt;Node5</title>
<path fill="none" stroke="midnightblue" d="M601.11,-358.42C580.44,-349.17 553.75,-336.19 531.62,-322 513.27,-310.24 511.78,-303.05 493.62,-291 465.12,-272.1 443.25,-284.3 425.62,-255 415.01,-237.39 421.17,-213.41 427.75,-197.13"/>
<polygon fill="midnightblue" stroke="midnightblue" points="431.09,-198.25 431.96,-187.69 424.69,-195.4 431.09,-198.25"/>
</g>
<!-- Node23&#45;&gt;Node17 -->
<g id="edge52" class="edge">
<title>Node23&#45;&gt;Node17</title>
<path fill="none" stroke="midnightblue" d="M689.9,-371.71C783.08,-369.33 976.8,-359.81 1135.62,-322 1233.82,-298.62 1347.62,-341.44 1347.62,-240.5 1347.62,-240.5 1347.62,-240.5 1347.62,-177 1347.62,-122.82 1283.98,-92.97 1238,-78.48"/>
<polygon fill="midnightblue" stroke="midnightblue" points="1238.77,-75.06 1228.19,-75.54 1236.76,-81.77 1238.77,-75.06"/>
</g>
<!-- Node23&#45;&gt;Node20 -->
<g id="edge54" class="edge">
<title>Node23&#45;&gt;Node20</title>
<path fill="none" stroke="midnightblue" d="M641.59,-358.24C652.56,-334.44 672.62,-284.86 672.62,-240.5 672.62,-240.5 672.62,-240.5 672.62,-177 672.62,-144.06 683.02,-106.82 690.12,-85.21"/>
<polygon fill="midnightblue" stroke="midnightblue" points="693.45,-86.29 693.38,-75.7 686.83,-84.03 693.45,-86.29"/>
</g>
<!-- Node23&#45;&gt;Node22 -->
<g id="edge49" class="edge">
<title>Node23&#45;&gt;Node22</title>
<path fill="none" stroke="midnightblue" d="M634.74,-358.33C634.19,-340.79 630.85,-310.81 615.62,-291 601.78,-273.01 579.69,-260.73 560.28,-252.78"/>
<polygon fill="midnightblue" stroke="midnightblue" points="561.32,-249.43 550.73,-249.12 558.82,-255.97 561.32,-249.43"/>
</g>
<!-- Node24 -->
<g id="node24" class="node">
<title>Node24</title>
<g id="a_node24"><a xlink:href="AdditiveStateModel_8h.html" target="_top" xlink:title=" ">
<polygon fill="white" stroke="black" points="980.62,-291.5 980.62,-321.5 1126.62,-321.5 1126.62,-291.5 980.62,-291.5"/>
<text text-anchor="start" x="988.62" y="-309.5" font-family="Helvetica,sans-Serif" font-size="10.00">BayesFilters/AdditiveState</text>
<text text-anchor="middle" x="1053.62" y="-298.5" font-family="Helvetica,sans-Serif" font-size="10.00">Model.h</text>
</a>
</g>
</g>
<!-- Node23&#45;&gt;Node24 -->
<g id="edge32" class="edge">
<title>Node23&#45;&gt;Node24</title>
<path fill="none" stroke="midnightblue" d="M689.87,-364.34C755.79,-354.55 869.31,-337.51 966.62,-322 967.89,-321.8 969.18,-321.59 970.47,-321.38"/>
<polygon fill="midnightblue" stroke="midnightblue" points="971.21,-324.81 980.53,-319.76 970.1,-317.9 971.21,-324.81"/>
</g>
<!-- Node25 -->
<g id="node25" class="node">
<title>Node25</title>
<g id="a_node25"><a xlink:href="StateModel_8h.html" target="_top" xlink:title=" ">
<polygon fill="white" stroke="black" points="780.62,-230 780.62,-249 924.62,-249 924.62,-230 780.62,-230"/>
<text text-anchor="middle" x="852.62" y="-237" font-family="Helvetica,sans-Serif" font-size="10.00">BayesFilters/StateModel.h</text>
</a>
</g>
</g>
<!-- Node23&#45;&gt;Node25 -->
<g id="edge51" class="edge">
<title>Node23&#45;&gt;Node25</title>
<path fill="none" stroke="midnightblue" d="M657.95,-358.37C700.02,-332.9 788.09,-279.57 829.79,-254.32"/>
<polygon fill="midnightblue" stroke="midnightblue" points="831.68,-257.27 838.42,-249.1 828.05,-251.28 831.68,-257.27"/>
</g>
<!-- Node26 -->
<g id="node26" class="node">
<title>Node26</title>
<g id="a_node26"><a xlink:href="ExogenousModel_8h.html" target="_top" xlink:title=" ">
<polygon fill="white" stroke="black" points="925.12,-168.5 925.12,-187.5 1096.12,-187.5 1096.12,-168.5 925.12,-168.5"/>
<text text-anchor="middle" x="1010.62" y="-175.5" font-family="Helvetica,sans-Serif" font-size="10.00">BayesFilters/ExogenousModel.h</text>
</a>
</g>
</g>
<!-- Node23&#45;&gt;Node26 -->
<g id="edge48" class="edge">
<title>Node23&#45;&gt;Node26</title>
<path fill="none" stroke="midnightblue" d="M688.75,-358.42C751.15,-340.62 855.18,-306.01 933.62,-255 959.09,-238.43 983.12,-212.45 997.36,-195.57"/>
<polygon fill="midnightblue" stroke="midnightblue" points="1000.21,-197.61 1003.87,-187.67 994.81,-193.16 1000.21,-197.61"/>
</g>
<!-- Node31 -->
<g id="node31" class="node">
<title>Node31</title>
<g id="a_node31"><a xlink:title=" ">
<polygon fill="white" stroke="#bfbfbf" points="541.12,-297 541.12,-316 606.12,-316 606.12,-297 541.12,-297"/>
<text text-anchor="middle" x="573.62" y="-304" font-family="Helvetica,sans-Serif" font-size="10.00">functional</text>
</a>
</g>
</g>
<!-- Node23&#45;&gt;Node31 -->
<g id="edge53" class="edge">
<title>Node23&#45;&gt;Node31</title>
<path fill="none" stroke="midnightblue" d="M621.38,-358.4C611.77,-348.16 598.76,-334.3 588.75,-323.62"/>
<polygon fill="midnightblue" stroke="midnightblue" points="591.17,-321.09 581.78,-316.19 586.07,-325.88 591.17,-321.09"/>
</g>
<!-- Node24&#45;&gt;Node17 -->
<g id="edge46" class="edge">
<title>Node24&#45;&gt;Node17</title>
<path fill="none" stroke="midnightblue" d="M1090.6,-291.33C1145.99,-267.83 1248.52,-215 1290.62,-132 1303.93,-105.74 1271.38,-88.52 1240.11,-78.45"/>
<polygon fill="midnightblue" stroke="midnightblue" points="1241.08,-75.08 1230.49,-75.55 1239.06,-81.79 1241.08,-75.08"/>
</g>
<!-- Node24&#45;&gt;Node25 -->
<g id="edge33" class="edge">
<title>Node24&#45;&gt;Node25</title>
<path fill="none" stroke="midnightblue" d="M1010,-291.4C973.64,-279.64 922.47,-263.09 888.46,-252.09"/>
<polygon fill="midnightblue" stroke="midnightblue" points="889.51,-248.75 878.92,-249.01 887.36,-255.41 889.51,-248.75"/>
</g>
<!-- Node25&#45;&gt;Node8 -->
<g id="edge45" class="edge">
<title>Node25&#45;&gt;Node8</title>
<path fill="none" stroke="midnightblue" d="M838.63,-230C793.25,-202.39 649.75,-115.13 593.53,-80.94"/>
<polygon fill="midnightblue" stroke="midnightblue" points="595.05,-77.76 584.68,-75.56 591.41,-83.74 595.05,-77.76"/>
</g>
<!-- Node25&#45;&gt;Node26 -->
<g id="edge34" class="edge">
<title>Node25&#45;&gt;Node26</title>
<path fill="none" stroke="midnightblue" d="M875.25,-229.98C902.36,-219.77 947.93,-202.61 978.62,-191.05"/>
<polygon fill="midnightblue" stroke="midnightblue" points="979.9,-194.31 988.02,-187.51 977.43,-187.76 979.9,-194.31"/>
</g>
<!-- Node28 -->
<g id="node28" class="node">
<title>Node28</title>
<g id="a_node28"><a xlink:href="Skippable_8h.html" target="_top" xlink:title=" ">
<polygon fill="white" stroke="black" points="947.12,-112.5 947.12,-131.5 1084.12,-131.5 1084.12,-112.5 947.12,-112.5"/>
<text text-anchor="middle" x="1015.62" y="-119.5" font-family="Helvetica,sans-Serif" font-size="10.00">BayesFilters/Skippable.h</text>
</a>
</g>
</g>
<!-- Node25&#45;&gt;Node28 -->
<g id="edge41" class="edge">
<title>Node25&#45;&gt;Node28</title>
<path fill="none" stroke="midnightblue" d="M858.78,-229.63C869.25,-215.12 891.77,-186.12 916.62,-168 935.8,-154.01 960.02,-142.91 979.71,-135.23"/>
<polygon fill="midnightblue" stroke="midnightblue" points="981.13,-138.43 989.25,-131.63 978.66,-131.88 981.13,-138.43"/>
</g>
<!-- Node30 -->
<g id="node30" class="node">
<title>Node30</title>
<g id="a_node30"><a xlink:href="StateProcess_8h.html" target="_top" xlink:title=" ">
<polygon fill="white" stroke="black" points="776.62,-112.5 776.62,-131.5 928.62,-131.5 928.62,-112.5 776.62,-112.5"/>
<text text-anchor="middle" x="852.62" y="-119.5" font-family="Helvetica,sans-Serif" font-size="10.00">BayesFilters/StateProcess.h</text>
</a>
</g>
</g>
<!-- Node25&#45;&gt;Node30 -->
<g id="edge42" class="edge">
<title>Node25&#45;&gt;Node30</title>
<path fill="none" stroke="midnightblue" d="M852.62,-229.82C852.62,-211.26 852.62,-167.34 852.62,-141.97"/>
<polygon fill="midnightblue" stroke="midnightblue" points="856.12,-141.78 852.62,-131.78 849.12,-141.78 856.12,-141.78"/>
</g>
<!-- Node27 -->
<g id="node27" class="node">
<title>Node27</title>
<g id="a_node27"><a xlink:href="ExogenousProcess_8h.html" target="_top" xlink:title=" ">
<polygon fill="white" stroke="black" points="1102.12,-112.5 1102.12,-131.5 1281.12,-131.5 1281.12,-112.5 1102.12,-112.5"/>
<text text-anchor="middle" x="1191.62" y="-119.5" font-family="Helvetica,sans-Serif" font-size="10.00">BayesFilters/ExogenousProcess.h</text>
</a>
</g>
</g>
<!-- Node26&#45;&gt;Node27 -->
<g id="edge35" class="edge">
<title>Node26&#45;&gt;Node27</title>
<path fill="none" stroke="midnightblue" d="M1039.3,-168.44C1070.14,-159.24 1119.34,-144.56 1153.44,-134.39"/>
<polygon fill="midnightblue" stroke="midnightblue" points="1154.49,-137.73 1163.07,-131.52 1152.49,-131.02 1154.49,-137.73"/>
</g>
<!-- Node26&#45;&gt;Node28 -->
<g id="edge38" class="edge">
<title>Node26&#45;&gt;Node28</title>
<path fill="none" stroke="midnightblue" d="M1011.44,-168.08C1012.1,-161.01 1013.04,-150.86 1013.86,-141.99"/>
<polygon fill="midnightblue" stroke="midnightblue" points="1017.37,-142.03 1014.81,-131.75 1010.4,-141.39 1017.37,-142.03"/>
</g>
<!-- Node27&#45;&gt;Node17 -->
<g id="edge36" class="edge">
<title>Node27&#45;&gt;Node17</title>
<path fill="none" stroke="midnightblue" d="M1191.62,-112.08C1191.62,-105.01 1191.62,-94.86 1191.62,-85.99"/>
<polygon fill="midnightblue" stroke="midnightblue" points="1195.12,-85.75 1191.62,-75.75 1188.12,-85.75 1195.12,-85.75"/>
</g>
<!-- Node27&#45;&gt;Node20 -->
<g id="edge37" class="edge">
<title>Node27&#45;&gt;Node20</title>
<path fill="none" stroke="midnightblue" d="M1113.45,-112.47C1010.18,-101.21 831.32,-81.7 745.42,-72.32"/>
<polygon fill="midnightblue" stroke="midnightblue" points="745.74,-68.84 735.42,-71.23 744.98,-75.8 745.74,-68.84"/>
</g>
<!-- Node29 -->
<g id="node29" class="node">
<title>Node29</title>
<g id="a_node29"><a xlink:href="Skipper_8h.html" target="_top" xlink:title=" ">
<polygon fill="white" stroke="black" points="853.12,-56.5 853.12,-75.5 978.12,-75.5 978.12,-56.5 853.12,-56.5"/>
<text text-anchor="middle" x="915.62" y="-63.5" font-family="Helvetica,sans-Serif" font-size="10.00">BayesFilters/Skipper.h</text>
</a>
</g>
</g>
<!-- Node28&#45;&gt;Node29 -->
<g id="edge39" class="edge">
<title>Node28&#45;&gt;Node29</title>
<path fill="none" stroke="midnightblue" d="M999.55,-112.32C983.66,-103.74 959.11,-90.49 940.66,-80.52"/>
<polygon fill="midnightblue" stroke="midnightblue" points="942.1,-77.33 931.64,-75.65 938.78,-83.49 942.1,-77.33"/>
</g>
<!-- Node29&#45;&gt;Node15 -->
<g id="edge40" class="edge">
<title>Node29&#45;&gt;Node15</title>
<path fill="none" stroke="midnightblue" d="M852.83,-57.55C754.54,-45.88 567.85,-23.73 492.92,-14.83"/>
<polygon fill="midnightblue" stroke="midnightblue" points="493.04,-11.32 482.7,-13.62 492.22,-18.28 493.04,-11.32"/>
</g>
<!-- Node30&#45;&gt;Node17 -->
<g id="edge43" class="edge">
<title>Node30&#45;&gt;Node17</title>
<path fill="none" stroke="midnightblue" d="M906.33,-112.44C966.58,-102.85 1064.23,-87.29 1128.19,-77.1"/>
<polygon fill="midnightblue" stroke="midnightblue" points="1128.83,-80.55 1138.15,-75.52 1127.73,-73.63 1128.83,-80.55"/>
</g>
<!-- Node30&#45;&gt;Node20 -->
<g id="edge44" class="edge">
<title>Node30&#45;&gt;Node20</title>
<path fill="none" stroke="midnightblue" d="M827.9,-112.44C801.77,-103.4 760.36,-89.06 731.04,-78.92"/>
<polygon fill="midnightblue" stroke="midnightblue" points="731.81,-75.48 721.22,-75.52 729.52,-82.1 731.81,-75.48"/>
</g>
<!-- Node32&#45;&gt;Node8 -->
<g id="edge60" class="edge">
<title>Node32&#45;&gt;Node8</title>
<path fill="none" stroke="midnightblue" d="M1375.43,-117.35C1349.67,-115.67 1318.57,-113.68 1290.62,-112 1005.79,-94.85 933.93,-100.16 649.62,-76 636.72,-74.9 622.68,-73.4 610.05,-71.94"/>
<polygon fill="midnightblue" stroke="midnightblue" points="610.18,-68.43 599.84,-70.73 609.36,-75.39 610.18,-68.43"/>
</g>
<!-- Node32&#45;&gt;Node15 -->
<g id="edge61" class="edge">
<title>Node32&#45;&gt;Node15</title>
<path fill="none" stroke="midnightblue" d="M1416.75,-112.49C1392.06,-97.85 1338.37,-68.27 1288.62,-56 1133.8,-17.82 626.92,-12.02 493.2,-11.15"/>
<polygon fill="midnightblue" stroke="midnightblue" points="492.85,-7.65 482.82,-11.09 492.8,-14.65 492.85,-7.65"/>
</g>
<!-- Node32&#45;&gt;Node20 -->
<g id="edge57" class="edge">
<title>Node32&#45;&gt;Node20</title>
<path fill="none" stroke="midnightblue" d="M1375.45,-116.94C1237,-106.76 876.6,-80.24 745.34,-70.58"/>
<polygon fill="midnightblue" stroke="midnightblue" points="745.42,-67.08 735.19,-69.84 744.9,-74.06 745.42,-67.08"/>
</g>
<!-- Node33 -->
<g id="node33" class="node">
<title>Node33</title>
<g id="a_node33"><a xlink:title=" ">
<polygon fill="white" stroke="#bfbfbf" points="1371.62,-56.5 1371.62,-75.5 1421.62,-75.5 1421.62,-56.5 1371.62,-56.5"/>
<text text-anchor="middle" x="1396.62" y="-63.5" font-family="Helvetica,sans-Serif" font-size="10.00">chrono</text>
</a>
</g>
</g>
<!-- Node32&#45;&gt;Node33 -->
<g id="edge58" class="edge">
<title>Node32&#45;&gt;Node33</title>
<path fill="none" stroke="midnightblue" d="M1425,-112.08C1420.25,-104.53 1413.3,-93.49 1407.46,-84.23"/>
<polygon fill="midnightblue" stroke="midnightblue" points="1410.42,-82.35 1402.13,-75.75 1404.49,-86.08 1410.42,-82.35"/>
</g>
<!-- Node34 -->
<g id="node34" class="node">
<title>Node34</title>
<g id="a_node34"><a xlink:title=" ">
<polygon fill="white" stroke="#bfbfbf" points="1440.12,-56.5 1440.12,-75.5 1487.12,-75.5 1487.12,-56.5 1440.12,-56.5"/>
<text text-anchor="middle" x="1463.62" y="-63.5" font-family="Helvetica,sans-Serif" font-size="10.00">cmath</text>
</a>
</g>
</g>
<!-- Node32&#45;&gt;Node34 -->
<g id="edge59" class="edge">
<title>Node32&#45;&gt;Node34</title>
<path fill="none" stroke="midnightblue" d="M1436.06,-112.08C1440.63,-104.61 1447.28,-93.72 1452.91,-84.52"/>
<polygon fill="midnightblue" stroke="midnightblue" points="1456.04,-86.11 1458.27,-75.75 1450.07,-82.46 1456.04,-86.11"/>
</g>
</g>
</svg>
        <g id="navigator" transform="translate(0 0)" fill="#404254">
                <rect fill="#f2f5e9" fill-opacity="0.5" stroke="#606060" stroke-width=".5" x="0" y="0" width="60" height="60"/>
                <use id="zoomplus" xlink:href="#zoomPlus" x="17" y="9" onmousedown="handleZoom(evt,'in')"/>
                <use id="zoomminus" xlink:href="#zoomMin" x="42" y="9" onmousedown="handleZoom(evt,'out')"/>
                <use id="reset" xlink:href="#resetDef" x="30" y="36" onmousedown="handleReset()"/>
                <g id="arrowUp" xlink:href="#dirArrow" transform="translate(30 24)" onmousedown="handlePan(0,-1)">
                  <use xlink:href="#rim" fill="#404040">
                        <set attributeName="fill" to="#808080" begin="arrowUp.mouseover" end="arrowUp.mouseout"/>
                  </use>
                  <path fill="none" stroke="white" stroke-width="1.5" d="M0,-3.0v7 M-2.5,-0.5L0,-3.0L2.5,-0.5"/>
                </g>
                <g id="arrowRight" xlink:href="#dirArrow" transform="rotate(90) translate(36 -43)" onmousedown="handlePan(1,0)">
                  <use xlink:href="#rim" fill="#404040">
                        <set attributeName="fill" to="#808080" begin="arrowRight.mouseover" end="arrowRight.mouseout"/>
                  </use>
                  <path fill="none" stroke="white" stroke-width="1.5" d="M0,-3.0v7 M-2.5,-0.5L0,-3.0L2.5,-0.5"/>
                </g>
                <g id="arrowDown" xlink:href="#dirArrow" transform="rotate(180) translate(-30 -48)" onmousedown="handlePan(0,1)">
                  <use xlink:href="#rim" fill="#404040">
                        <set attributeName="fill" to="#808080" begin="arrowDown.mouseover" end="arrowDown.mouseout"/>
                  </use>
                  <path fill="none" stroke="white" stroke-width="1.5" d="M0,-3.0v7 M-2.5,-0.5L0,-3.0L2.5,-0.5"/>
                </g>
                <g id="arrowLeft" xlink:href="#dirArrow" transform="rotate(270) translate(-36 17)" onmousedown="handlePan(-1,0)">
                  <use xlink:href="#rim" fill="#404040">
                        <set attributeName="fill" to="#808080" begin="arrowLeft.mouseover" end="arrowLeft.mouseout"/>
                  </use>
                  <path fill="none" stroke="white" stroke-width="1.5" d="M0,-3.0v7 M-2.5,-0.5L0,-3.0L2.5,-0.5"/>
                </g>
        </g>
        <svg viewBox="0 0 15 15" width="100%" height="30px" preserveAspectRatio="xMaxYMin meet">
         <g id="arrow_out" transform="scale(0.3 0.3)">
          <a xlink:href="UKFCorrection_8cpp__incl_org.svg" target="_base">
           <rect id="button" ry="5" rx="5" y="6" x="6" height="38" width="38"
                fill="#f2f5e9" fill-opacity="0.5" stroke="#606060" stroke-width="1.0"/>
           <path id="arrow"
             d="M 11.500037,31.436501 C 11.940474,20.09759 22.043105,11.32322 32.158766,21.979434 L 37.068811,17.246167 C 37.068811,17.246167 37.088388,32 37.088388,32 L 22.160133,31.978069 C 22.160133,31.978069 26.997745,27.140456 26.997745,27.140456 C 18.528582,18.264221 13.291696,25.230495 11.500037,31.436501 z"
             style="fill:#404040;"/>
          </a>
         </g>
        </svg>
</svg>
