<?xml version="1.0" encoding="UTF-8" standalone="no"?>
<!DOCTYPE svg PUBLIC "-//W3C//DTD SVG 1.1//EN"
 "http://www.w3.org/Graphics/SVG/1.1/DTD/svg11.dtd">
<!-- Generated by graphviz version 2.47.2 (0)
 -->
<!-- Title: /home/xenvre/robot&#45;code/bfl_robotology/src/BayesFilters/include/BayesFilters/UKFCorrection.h Pages: 1 -->
<!--zoomable 486 -->
<svg id="main" version="1.1" xmlns="http://www.w3.org/2000/svg" xmlns:xlink="http://www.w3.org/1999/xlink" xml:space="preserve" onload="init(evt)">
<style type="text/css"><![CDATA[
.edge:hover path { stroke: red; }
.edge:hover polygon { stroke: red; fill: red; }
]]></style>
<script type="text/javascript"><![CDATA[
var edges = document.getElementsByTagName('g');
if (edges && edges.length) {
  for (var i=0;i<edges.length;i++) {
    if (edges[i].id.substr(0,4)=='edge') {
      edges[i].setAttribute('class','edge');
    }
  }
}
]]></script>
        <defs>
                <circle id="rim" cx="0" cy="0" r="7"/>
                <circle id="rim2" cx="0" cy="0" r="3.5"/>
                <g id="zoomPlus">
                        <use xlink:href="#rim" fill="#404040">
                                <set attributeName="fill" to="#808080" begin="zoomplus.mouseover" end="zoomplus.mouseout"/>
                        </use>
                        <path d="M-4,0h8M0,-4v8" fill="none" stroke="white" stroke-width="1.5" pointer-events="none"/>
                </g>
                <g id="zoomMin">
                        <use xlink:href="#rim" fill="#404040">
                                <set attributeName="fill" to="#808080" begin="zoomminus.mouseover" end="zoomminus.mouseout"/>
                        </use>
                        <path d="M-4,0h8" fill="none" stroke="white" stroke-width="1.5" pointer-events="none"/>
                </g>
                <g id="dirArrow">
                        <path fill="none" stroke="white" stroke-width="1.5" d="M0,-3.0v7 M-2.5,-0.5L0,-3.0L2.5,-0.5"/>
                </g>
               <g id="resetDef">
                       <use xlink:href="#rim2" fill="#404040">
                               <set attributeName="fill" to="#808080" begin="reset.mouseover" end="reset.mouseout"/>
                       </use>
               </g>
        </defs>

<script type="text/javascript">
var viewWidth = 1130;
var viewHeight = 486;
var sectionId = 'dynsection-0';
</script>
<script xlink:href="svgpan.js"/>
<svg id="graph" class="graph">
<g id="viewport">
<title>/home/xenvre/robot&#45;code/bfl_robotology/src/BayesFilters/include/BayesFilters/UKFCorrection.h</title>
<polygon fill="white" stroke="transparent" points="-4,4 -4,-482 1126,-482 1126,4 -4,4"/>
<!-- Node1 -->
<g id="node1" class="node">
<title>Node1</title>
<g id="a_node1"><a xlink:title=" ">
<polygon fill="#bfbfbf" stroke="black" points="172,-425.5 172,-477.5 323,-477.5 323,-425.5 172,-425.5"/>
<text text-anchor="start" x="180" y="-465.5" font-family="Helvetica,sans-Serif" font-size="10.00">/home/xenvre/robot</text>
<text text-anchor="start" x="180" y="-454.5" font-family="Helvetica,sans-Serif" font-size="10.00">&#45;code/bfl_robotology</text>
<text text-anchor="start" x="180" y="-443.5" font-family="Helvetica,sans-Serif" font-size="10.00">/src/BayesFilters/include</text>
<text text-anchor="middle" x="247.5" y="-432.5" font-family="Helvetica,sans-Serif" font-size="10.00">/BayesFilters/UKFCorrection.h</text>
</a>
</g>
</g>
<!-- Node2 -->
<g id="node2" class="node">
<title>Node2</title>
<g id="a_node2"><a xlink:href="AdditiveMeasurementModel_8h.html" target="_top" xlink:title=" ">
<polygon fill="white" stroke="black" points="234,-291.5 234,-321.5 403,-321.5 403,-291.5 234,-291.5"/>
<text text-anchor="start" x="242" y="-309.5" font-family="Helvetica,sans-Serif" font-size="10.00">BayesFilters/AdditiveMeasurement</text>
<text text-anchor="middle" x="318.5" y="-298.5" font-family="Helvetica,sans-Serif" font-size="10.00">Model.h</text>
</a>
</g>
</g>
<!-- Node1&#45;&gt;Node2 -->
<g id="edge1" class="edge">
<title>Node1&#45;&gt;Node2</title>
<path fill="none" stroke="midnightblue" d="M260.03,-425.26C273.3,-398.53 294.08,-356.68 306.97,-330.73"/>
<polygon fill="midnightblue" stroke="midnightblue" points="310.17,-332.14 311.48,-321.63 303.9,-329.03 310.17,-332.14"/>
</g>
<!-- Node3 -->
<g id="node3" class="node">
<title>Node3</title>
<g id="a_node3"><a xlink:href="MeasurementModel_8h.html" target="_top" xlink:title=" ">
<polygon fill="white" stroke="black" points="183.5,-224.5 183.5,-254.5 317.5,-254.5 317.5,-224.5 183.5,-224.5"/>
<text text-anchor="start" x="191.5" y="-242.5" font-family="Helvetica,sans-Serif" font-size="10.00">BayesFilters/Measurement</text>
<text text-anchor="middle" x="250.5" y="-231.5" font-family="Helvetica,sans-Serif" font-size="10.00">Model.h</text>
</a>
</g>
</g>
<!-- Node1&#45;&gt;Node3 -->
<g id="edge26" class="edge">
<title>Node1&#45;&gt;Node3</title>
<path fill="none" stroke="midnightblue" d="M171.8,-427.64C94.28,-400.32 -8.67,-350.73 38.5,-291 55.3,-269.73 119.69,-256.45 173.15,-248.88"/>
<polygon fill="midnightblue" stroke="midnightblue" points="173.9,-252.31 183.33,-247.49 172.95,-245.37 173.9,-252.31"/>
</g>
<!-- Node17 -->
<g id="node17" class="node">
<title>Node17</title>
<g id="a_node17"><a xlink:title=" ">
<polygon fill="white" stroke="#bfbfbf" points="374,-56.5 374,-75.5 447,-75.5 447,-56.5 374,-56.5"/>
<text text-anchor="middle" x="410.5" y="-63.5" font-family="Helvetica,sans-Serif" font-size="10.00">Eigen/Dense</text>
</a>
</g>
</g>
<!-- Node1&#45;&gt;Node17 -->
<g id="edge48" class="edge">
<title>Node1&#45;&gt;Node17</title>
<path fill="none" stroke="midnightblue" d="M171.9,-445.96C127.96,-439.4 74.7,-424.11 40.5,-389 9.6,-357.28 11.07,-333.78 22.5,-291 46.19,-202.32 49.88,-164.02 125.5,-112 163.28,-86.01 292.81,-74.18 363.52,-69.55"/>
<polygon fill="midnightblue" stroke="midnightblue" points="364.17,-73.01 373.93,-68.89 363.72,-66.03 364.17,-73.01"/>
</g>
<!-- Node18 -->
<g id="node18" class="node">
<title>Node18</title>
<g id="a_node18"><a xlink:href="GaussianCorrection_8h.html" target="_top" xlink:title=" ">
<polygon fill="white" stroke="black" points="47,-297 47,-316 216,-316 216,-297 47,-297"/>
<text text-anchor="middle" x="131.5" y="-304" font-family="Helvetica,sans-Serif" font-size="10.00">BayesFilters/GaussianCorrection.h</text>
</a>
</g>
</g>
<!-- Node1&#45;&gt;Node18 -->
<g id="edge19" class="edge">
<title>Node1&#45;&gt;Node18</title>
<path fill="none" stroke="midnightblue" d="M227.03,-425.26C203.39,-396.13 165.19,-349.03 145,-324.14"/>
<polygon fill="midnightblue" stroke="midnightblue" points="147.46,-321.61 138.44,-316.05 142.02,-326.02 147.46,-321.61"/>
</g>
<!-- Node19 -->
<g id="node19" class="node">
<title>Node19</title>
<g id="a_node19"><a xlink:href="GaussianMixture_8h.html" target="_top" xlink:title=" ">
<polygon fill="white" stroke="black" points="335.5,-230 335.5,-249 491.5,-249 491.5,-230 335.5,-230"/>
<text text-anchor="middle" x="413.5" y="-237" font-family="Helvetica,sans-Serif" font-size="10.00">BayesFilters/GaussianMixture.h</text>
</a>
</g>
</g>
<!-- Node1&#45;&gt;Node19 -->
<g id="edge25" class="edge">
<title>Node1&#45;&gt;Node19</title>
<path fill="none" stroke="midnightblue" d="M300.86,-425.35C339.61,-403.88 389.18,-369 412.5,-322 422.3,-302.24 420.54,-276.33 417.66,-259.09"/>
<polygon fill="midnightblue" stroke="midnightblue" points="421.07,-258.3 415.72,-249.16 414.2,-259.64 421.07,-258.3"/>
</g>
<!-- Node20 -->
<g id="node20" class="node">
<title>Node20</title>
<g id="a_node20"><a xlink:href="sigma__point_8h.html" target="_top" xlink:title=" ">
<polygon fill="white" stroke="black" points="543,-358.5 543,-388.5 644,-388.5 644,-358.5 543,-358.5"/>
<text text-anchor="start" x="551" y="-376.5" font-family="Helvetica,sans-Serif" font-size="10.00">BayesFilters/sigma</text>
<text text-anchor="middle" x="593.5" y="-365.5" font-family="Helvetica,sans-Serif" font-size="10.00">_point.h</text>
</a>
</g>
</g>
<!-- Node1&#45;&gt;Node20 -->
<g id="edge27" class="edge">
<title>Node1&#45;&gt;Node20</title>
<path fill="none" stroke="midnightblue" d="M323,-433.92C385.97,-420.08 474.53,-400.63 532.93,-387.8"/>
<polygon fill="midnightblue" stroke="midnightblue" points="533.74,-391.21 542.75,-385.65 532.23,-384.37 533.74,-391.21"/>
</g>
<!-- Node2&#45;&gt;Node3 -->
<g id="edge2" class="edge">
<title>Node2&#45;&gt;Node3</title>
<path fill="none" stroke="midnightblue" d="M303.75,-291.4C294.66,-282.71 282.83,-271.4 272.63,-261.66"/>
<polygon fill="midnightblue" stroke="midnightblue" points="274.87,-258.96 265.23,-254.58 270.04,-264.02 274.87,-258.96"/>
</g>
<!-- Node4 -->
<g id="node4" class="node">
<title>Node4</title>
<g id="a_node4"><a xlink:href="Data_8h.html" target="_top" xlink:title=" ">
<polygon fill="white" stroke="black" points="514.5,-168.5 514.5,-187.5 618.5,-187.5 618.5,-168.5 514.5,-168.5"/>
<text text-anchor="middle" x="566.5" y="-175.5" font-family="Helvetica,sans-Serif" font-size="10.00">BayesFilters/Data.h</text>
</a>
</g>
</g>
<!-- Node3&#45;&gt;Node4 -->
<g id="edge3" class="edge">
<title>Node3&#45;&gt;Node4</title>
<path fill="none" stroke="midnightblue" d="M317.63,-225.68C320.63,-225.11 323.6,-224.55 326.5,-224 389.69,-212.05 462.27,-198.46 510.92,-189.37"/>
<polygon fill="midnightblue" stroke="midnightblue" points="511.74,-192.78 520.93,-187.5 510.46,-185.9 511.74,-192.78"/>
</g>
<!-- Node7 -->
<g id="node7" class="node">
<title>Node7</title>
<g id="a_node7"><a xlink:title=" ">
<polygon fill="white" stroke="#bfbfbf" points="864.5,-56.5 864.5,-75.5 916.5,-75.5 916.5,-56.5 864.5,-56.5"/>
<text text-anchor="middle" x="890.5" y="-63.5" font-family="Helvetica,sans-Serif" font-size="10.00">memory</text>
</a>
</g>
</g>
<!-- Node3&#45;&gt;Node7 -->
<g id="edge15" class="edge">
<title>Node3&#45;&gt;Node7</title>
<path fill="none" stroke="midnightblue" d="M293.79,-224.38C344.14,-208.47 430.02,-182.88 505.5,-168 637.26,-142.03 681.1,-182.58 805.5,-132 833.05,-120.8 859.39,-98.19 875.25,-82.82"/>
<polygon fill="midnightblue" stroke="midnightblue" points="877.94,-85.08 882.54,-75.54 872.99,-80.13 877.94,-85.08"/>
</g>
<!-- Node11 -->
<g id="node11" class="node">
<title>Node11</title>
<g id="a_node11"><a xlink:href="Logger_8h.html" target="_top" xlink:title=" ">
<polygon fill="white" stroke="black" points="195,-168.5 195,-187.5 306,-187.5 306,-168.5 195,-168.5"/>
<text text-anchor="middle" x="250.5" y="-175.5" font-family="Helvetica,sans-Serif" font-size="10.00">BayesFilters/Logger.h</text>
</a>
</g>
</g>
<!-- Node3&#45;&gt;Node11 -->
<g id="edge10" class="edge">
<title>Node3&#45;&gt;Node11</title>
<path fill="none" stroke="midnightblue" d="M250.5,-224.4C250.5,-216.47 250.5,-206.46 250.5,-197.86"/>
<polygon fill="midnightblue" stroke="midnightblue" points="254,-197.66 250.5,-187.66 247,-197.66 254,-197.66"/>
</g>
<!-- Node14 -->
<g id="node14" class="node">
<title>Node14</title>
<g id="a_node14"><a xlink:title=" ">
<polygon fill="white" stroke="#bfbfbf" points="0,-0.5 0,-19.5 41,-19.5 41,-0.5 0,-0.5"/>
<text text-anchor="middle" x="20.5" y="-7.5" font-family="Helvetica,sans-Serif" font-size="10.00">string</text>
</a>
</g>
</g>
<!-- Node3&#45;&gt;Node14 -->
<g id="edge16" class="edge">
<title>Node3&#45;&gt;Node14</title>
<path fill="none" stroke="midnightblue" d="M196.64,-224.41C173.56,-216.46 147.4,-204.68 127.5,-188 74.13,-143.26 40.22,-64.73 26.91,-29.28"/>
<polygon fill="midnightblue" stroke="midnightblue" points="30.15,-27.94 23.44,-19.74 23.57,-30.34 30.15,-27.94"/>
</g>
<!-- Node16 -->
<g id="node16" class="node">
<title>Node16</title>
<g id="a_node16"><a xlink:title=" ">
<polygon fill="white" stroke="#bfbfbf" points="136.5,-168.5 136.5,-187.5 176.5,-187.5 176.5,-168.5 136.5,-168.5"/>
<text text-anchor="middle" x="156.5" y="-175.5" font-family="Helvetica,sans-Serif" font-size="10.00">utility</text>
</a>
</g>
</g>
<!-- Node3&#45;&gt;Node16 -->
<g id="edge17" class="edge">
<title>Node3&#45;&gt;Node16</title>
<path fill="none" stroke="midnightblue" d="M228.22,-224.4C213.3,-214.95 193.72,-202.56 178.79,-193.11"/>
<polygon fill="midnightblue" stroke="midnightblue" points="180.5,-190.05 170.18,-187.66 176.76,-195.96 180.5,-190.05"/>
</g>
<!-- Node3&#45;&gt;Node17 -->
<g id="edge18" class="edge">
<title>Node3&#45;&gt;Node17</title>
<path fill="none" stroke="midnightblue" d="M271.17,-224.44C284.5,-214.91 301.82,-201.61 315.5,-188 349.26,-154.41 382.09,-108.9 398.9,-84.38"/>
<polygon fill="midnightblue" stroke="midnightblue" points="402,-86.04 404.71,-75.8 396.2,-82.12 402,-86.04"/>
</g>
<!-- Node5 -->
<g id="node5" class="node">
<title>Node5</title>
<g id="a_node5"><a xlink:href="any_8h.html" target="_top" xlink:title=" ">
<polygon fill="white" stroke="black" points="699,-112.5 699,-131.5 796,-131.5 796,-112.5 699,-112.5"/>
<text text-anchor="middle" x="747.5" y="-119.5" font-family="Helvetica,sans-Serif" font-size="10.00">BayesFilters/any.h</text>
</a>
</g>
</g>
<!-- Node4&#45;&gt;Node5 -->
<g id="edge4" class="edge">
<title>Node4&#45;&gt;Node5</title>
<path fill="none" stroke="midnightblue" d="M595.18,-168.44C626.03,-159.24 675.23,-144.56 709.33,-134.39"/>
<polygon fill="midnightblue" stroke="midnightblue" points="710.37,-137.73 718.95,-131.52 708.37,-131.02 710.37,-137.73"/>
</g>
<!-- Node6 -->
<g id="node6" class="node">
<title>Node6</title>
<g id="a_node6"><a xlink:title=" ">
<polygon fill="white" stroke="#bfbfbf" points="643.5,-56.5 643.5,-75.5 699.5,-75.5 699.5,-56.5 643.5,-56.5"/>
<text text-anchor="middle" x="671.5" y="-63.5" font-family="Helvetica,sans-Serif" font-size="10.00">algorithm</text>
</a>
</g>
</g>
<!-- Node5&#45;&gt;Node6 -->
<g id="edge5" class="edge">
<title>Node5&#45;&gt;Node6</title>
<path fill="none" stroke="midnightblue" d="M735.29,-112.32C723.72,-104.11 706.12,-91.6 692.34,-81.81"/>
<polygon fill="midnightblue" stroke="midnightblue" points="694.11,-78.77 683.93,-75.83 690.06,-84.48 694.11,-78.77"/>
</g>
<!-- Node5&#45;&gt;Node7 -->
<g id="edge6" class="edge">
<title>Node5&#45;&gt;Node7</title>
<path fill="none" stroke="midnightblue" d="M770.16,-112.44C793.9,-103.48 831.41,-89.31 858.24,-79.18"/>
<polygon fill="midnightblue" stroke="midnightblue" points="859.83,-82.32 867.95,-75.52 857.36,-75.77 859.83,-82.32"/>
</g>
<!-- Node8 -->
<g id="node8" class="node">
<title>Node8</title>
<g id="a_node8"><a xlink:title=" ">
<polygon fill="white" stroke="#bfbfbf" points="718,-56.5 718,-75.5 777,-75.5 777,-56.5 718,-56.5"/>
<text text-anchor="middle" x="747.5" y="-63.5" font-family="Helvetica,sans-Serif" font-size="10.00">stdexcept</text>
</a>
</g>
</g>
<!-- Node5&#45;&gt;Node8 -->
<g id="edge7" class="edge">
<title>Node5&#45;&gt;Node8</title>
<path fill="none" stroke="midnightblue" d="M747.5,-112.08C747.5,-105.01 747.5,-94.86 747.5,-85.99"/>
<polygon fill="midnightblue" stroke="midnightblue" points="751,-85.75 747.5,-75.75 744,-85.75 751,-85.75"/>
</g>
<!-- Node9 -->
<g id="node9" class="node">
<title>Node9</title>
<g id="a_node9"><a xlink:title=" ">
<polygon fill="white" stroke="#bfbfbf" points="795,-56.5 795,-75.5 846,-75.5 846,-56.5 795,-56.5"/>
<text text-anchor="middle" x="820.5" y="-63.5" font-family="Helvetica,sans-Serif" font-size="10.00">typeinfo</text>
</a>
</g>
</g>
<!-- Node5&#45;&gt;Node9 -->
<g id="edge8" class="edge">
<title>Node5&#45;&gt;Node9</title>
<path fill="none" stroke="midnightblue" d="M759.23,-112.32C770.34,-104.11 787.24,-91.6 800.48,-81.81"/>
<polygon fill="midnightblue" stroke="midnightblue" points="802.6,-84.59 808.56,-75.83 798.44,-78.97 802.6,-84.59"/>
</g>
<!-- Node10 -->
<g id="node10" class="node">
<title>Node10</title>
<g id="a_node10"><a xlink:title=" ">
<polygon fill="white" stroke="#bfbfbf" points="563.5,-56.5 563.5,-75.5 625.5,-75.5 625.5,-56.5 563.5,-56.5"/>
<text text-anchor="middle" x="594.5" y="-63.5" font-family="Helvetica,sans-Serif" font-size="10.00">type_traits</text>
</a>
</g>
</g>
<!-- Node5&#45;&gt;Node10 -->
<g id="edge9" class="edge">
<title>Node5&#45;&gt;Node10</title>
<path fill="none" stroke="midnightblue" d="M723.26,-112.44C697.63,-103.4 657.01,-89.06 628.26,-78.92"/>
<polygon fill="midnightblue" stroke="midnightblue" points="629.22,-75.54 618.63,-75.52 626.89,-82.15 629.22,-75.54"/>
</g>
<!-- Node12 -->
<g id="node12" class="node">
<title>Node12</title>
<g id="a_node12"><a xlink:title=" ">
<polygon fill="white" stroke="#bfbfbf" points="227.5,-112.5 227.5,-131.5 277.5,-131.5 277.5,-112.5 227.5,-112.5"/>
<text text-anchor="middle" x="252.5" y="-119.5" font-family="Helvetica,sans-Serif" font-size="10.00">fstream</text>
</a>
</g>
</g>
<!-- Node11&#45;&gt;Node12 -->
<g id="edge11" class="edge">
<title>Node11&#45;&gt;Node12</title>
<path fill="none" stroke="midnightblue" d="M250.83,-168.08C251.09,-161.01 251.47,-150.86 251.8,-141.99"/>
<polygon fill="midnightblue" stroke="midnightblue" points="255.3,-141.87 252.18,-131.75 248.31,-141.61 255.3,-141.87"/>
</g>
<!-- Node13 -->
<g id="node13" class="node">
<title>Node13</title>
<g id="a_node13"><a xlink:title=" ">
<polygon fill="white" stroke="#bfbfbf" points="155.5,-112.5 155.5,-131.5 209.5,-131.5 209.5,-112.5 155.5,-112.5"/>
<text text-anchor="middle" x="182.5" y="-119.5" font-family="Helvetica,sans-Serif" font-size="10.00">iostream</text>
</a>
</g>
</g>
<!-- Node11&#45;&gt;Node13 -->
<g id="edge12" class="edge">
<title>Node11&#45;&gt;Node13</title>
<path fill="none" stroke="midnightblue" d="M239.57,-168.32C229.33,-160.18 213.78,-147.84 201.5,-138.09"/>
<polygon fill="midnightblue" stroke="midnightblue" points="203.63,-135.31 193.62,-131.83 199.28,-140.79 203.63,-135.31"/>
</g>
<!-- Node11&#45;&gt;Node14 -->
<g id="edge13" class="edge">
<title>Node11&#45;&gt;Node14</title>
<path fill="none" stroke="midnightblue" d="M223.98,-168.49C202.14,-160.81 170.91,-148.23 146.5,-132 100.41,-101.36 56.01,-52.92 34.3,-27.62"/>
<polygon fill="midnightblue" stroke="midnightblue" points="36.74,-25.08 27.61,-19.71 31.39,-29.6 36.74,-25.08"/>
</g>
<!-- Node15 -->
<g id="node15" class="node">
<title>Node15</title>
<g id="a_node15"><a xlink:title=" ">
<polygon fill="white" stroke="#bfbfbf" points="298.5,-112.5 298.5,-131.5 342.5,-131.5 342.5,-112.5 298.5,-112.5"/>
<text text-anchor="middle" x="320.5" y="-119.5" font-family="Helvetica,sans-Serif" font-size="10.00">vector</text>
</a>
</g>
</g>
<!-- Node11&#45;&gt;Node15 -->
<g id="edge14" class="edge">
<title>Node11&#45;&gt;Node15</title>
<path fill="none" stroke="midnightblue" d="M261.75,-168.32C272.3,-160.18 288.3,-147.84 300.94,-138.09"/>
<polygon fill="midnightblue" stroke="midnightblue" points="303.27,-140.71 309.05,-131.83 298.99,-135.17 303.27,-140.71"/>
</g>
<!-- Node18&#45;&gt;Node3 -->
<g id="edge23" class="edge">
<title>Node18&#45;&gt;Node3</title>
<path fill="none" stroke="midnightblue" d="M147.55,-296.73C164.95,-287.23 193.24,-271.78 215.77,-259.47"/>
<polygon fill="midnightblue" stroke="midnightblue" points="217.61,-262.45 224.71,-254.59 214.25,-256.31 217.61,-262.45"/>
</g>
<!-- Node18&#45;&gt;Node17 -->
<g id="edge24" class="edge">
<title>Node18&#45;&gt;Node17</title>
<path fill="none" stroke="midnightblue" d="M128.57,-296.7C118.77,-265.49 90.87,-159.45 146.5,-112 178.44,-84.75 296.69,-73.55 363.59,-69.32"/>
<polygon fill="midnightblue" stroke="midnightblue" points="364.09,-72.8 373.86,-68.7 363.67,-65.81 364.09,-72.8"/>
</g>
<!-- Node18&#45;&gt;Node19 -->
<g id="edge20" class="edge">
<title>Node18&#45;&gt;Node19</title>
<path fill="none" stroke="midnightblue" d="M168.66,-296.94C219.48,-285.22 310.71,-264.19 366.31,-251.38"/>
<polygon fill="midnightblue" stroke="midnightblue" points="367.3,-254.74 376.26,-249.08 365.73,-247.92 367.3,-254.74"/>
</g>
<!-- Node19&#45;&gt;Node15 -->
<g id="edge21" class="edge">
<title>Node19&#45;&gt;Node15</title>
<path fill="none" stroke="midnightblue" d="M406.51,-229.82C391.09,-210.67 353.95,-164.54 333.89,-139.63"/>
<polygon fill="midnightblue" stroke="midnightblue" points="336.57,-137.38 327.57,-131.78 331.12,-141.77 336.57,-137.38"/>
</g>
<!-- Node19&#45;&gt;Node17 -->
<g id="edge22" class="edge">
<title>Node19&#45;&gt;Node17</title>
<path fill="none" stroke="midnightblue" d="M413.35,-229.76C412.88,-203.15 411.47,-122.71 410.83,-85.84"/>
<polygon fill="midnightblue" stroke="midnightblue" points="414.32,-85.46 410.65,-75.52 407.32,-85.58 414.32,-85.46"/>
</g>
<!-- Node20&#45;&gt;Node2 -->
<g id="edge43" class="edge">
<title>Node20&#45;&gt;Node2</title>
<path fill="none" stroke="midnightblue" d="M542.74,-360.5C499.18,-350.21 436,-335.27 387.79,-323.88"/>
<polygon fill="midnightblue" stroke="midnightblue" points="388.59,-320.47 378.05,-321.58 386.98,-327.28 388.59,-320.47"/>
</g>
<!-- Node20&#45;&gt;Node3 -->
<g id="edge44" class="edge">
<title>Node20&#45;&gt;Node3</title>
<path fill="none" stroke="midnightblue" d="M562.38,-358.37C512.64,-335.8 420.01,-293.85 412.5,-291 379.32,-278.41 341.5,-266.49 310.74,-257.39"/>
<polygon fill="midnightblue" stroke="midnightblue" points="311.6,-254 301.02,-254.54 309.63,-260.71 311.6,-254"/>
</g>
<!-- Node20&#45;&gt;Node4 -->
<g id="edge40" class="edge">
<title>Node20&#45;&gt;Node4</title>
<path fill="none" stroke="midnightblue" d="M610.3,-358.47C619.98,-349.24 631.25,-336.26 636.5,-322 641.26,-309.07 640.3,-304.24 636.5,-291 625.71,-253.39 598.21,-216.16 581.06,-195.51"/>
<polygon fill="midnightblue" stroke="midnightblue" points="583.58,-193.07 574.43,-187.73 578.25,-197.61 583.58,-193.07"/>
</g>
<!-- Node20&#45;&gt;Node17 -->
<g id="edge47" class="edge">
<title>Node20&#45;&gt;Node17</title>
<path fill="none" stroke="midnightblue" d="M599.28,-358.41C605.22,-341.72 612.44,-313.37 603.5,-291 580.05,-232.33 546.83,-235.79 505.5,-188 474.5,-152.15 440.83,-107.87 423.09,-84.06"/>
<polygon fill="midnightblue" stroke="midnightblue" points="425.68,-81.68 416.91,-75.73 420.06,-85.85 425.68,-81.68"/>
</g>
<!-- Node20&#45;&gt;Node19 -->
<g id="edge42" class="edge">
<title>Node20&#45;&gt;Node19</title>
<path fill="none" stroke="midnightblue" d="M574.26,-358.36C552.13,-342.1 514.7,-314.6 482.5,-291 466,-278.9 447.27,-265.2 433.49,-255.12"/>
<polygon fill="midnightblue" stroke="midnightblue" points="435.36,-252.15 425.22,-249.07 431.23,-257.8 435.36,-252.15"/>
</g>
<!-- Node21 -->
<g id="node21" class="node">
<title>Node21</title>
<g id="a_node21"><a xlink:href="AdditiveStateModel_8h.html" target="_top" xlink:title=" ">
<polygon fill="white" stroke="black" points="806,-291.5 806,-321.5 939,-321.5 939,-291.5 806,-291.5"/>
<text text-anchor="start" x="814" y="-309.5" font-family="Helvetica,sans-Serif" font-size="10.00">BayesFilters/AdditiveState</text>
<text text-anchor="middle" x="872.5" y="-298.5" font-family="Helvetica,sans-Serif" font-size="10.00">Model.h</text>
</a>
</g>
</g>
<!-- Node20&#45;&gt;Node21 -->
<g id="edge28" class="edge">
<title>Node20&#45;&gt;Node21</title>
<path fill="none" stroke="midnightblue" d="M644.02,-360.73C688.24,-350.43 752.94,-335.36 802.2,-323.88"/>
<polygon fill="midnightblue" stroke="midnightblue" points="803.21,-327.24 812.16,-321.56 801.62,-320.42 803.21,-327.24"/>
</g>
<!-- Node22 -->
<g id="node22" class="node">
<title>Node22</title>
<g id="a_node22"><a xlink:href="StateModel_8h.html" target="_top" xlink:title=" ">
<polygon fill="white" stroke="black" points="811.5,-230 811.5,-249 943.5,-249 943.5,-230 811.5,-230"/>
<text text-anchor="middle" x="877.5" y="-237" font-family="Helvetica,sans-Serif" font-size="10.00">BayesFilters/StateModel.h</text>
</a>
</g>
</g>
<!-- Node20&#45;&gt;Node22 -->
<g id="edge45" class="edge">
<title>Node20&#45;&gt;Node22</title>
<path fill="none" stroke="midnightblue" d="M631.71,-358.46C657.14,-348.83 691.15,-335.41 720.5,-322 768.39,-300.12 822.55,-270.99 853.1,-254.14"/>
<polygon fill="midnightblue" stroke="midnightblue" points="855.11,-257.03 862.16,-249.12 851.71,-250.91 855.11,-257.03"/>
</g>
<!-- Node23 -->
<g id="node23" class="node">
<title>Node23</title>
<g id="a_node23"><a xlink:href="ExogenousModel_8h.html" target="_top" xlink:title=" ">
<polygon fill="white" stroke="black" points="636.5,-168.5 636.5,-187.5 794.5,-187.5 794.5,-168.5 636.5,-168.5"/>
<text text-anchor="middle" x="715.5" y="-175.5" font-family="Helvetica,sans-Serif" font-size="10.00">BayesFilters/ExogenousModel.h</text>
</a>
</g>
</g>
<!-- Node20&#45;&gt;Node23 -->
<g id="edge41" class="edge">
<title>Node20&#45;&gt;Node23</title>
<path fill="none" stroke="midnightblue" d="M613.76,-358.4C625.92,-349.14 641.01,-336.16 651.5,-322 681.09,-282.06 701.05,-226.27 710.05,-197.62"/>
<polygon fill="midnightblue" stroke="midnightblue" points="713.49,-198.32 713.05,-187.74 706.79,-196.29 713.49,-198.32"/>
</g>
<!-- Node28 -->
<g id="node28" class="node">
<title>Node28</title>
<g id="a_node28"><a xlink:title=" ">
<polygon fill="white" stroke="#bfbfbf" points="535,-297 535,-316 594,-316 594,-297 535,-297"/>
<text text-anchor="middle" x="564.5" y="-304" font-family="Helvetica,sans-Serif" font-size="10.00">functional</text>
</a>
</g>
</g>
<!-- Node20&#45;&gt;Node28 -->
<g id="edge46" class="edge">
<title>Node20&#45;&gt;Node28</title>
<path fill="none" stroke="midnightblue" d="M587.21,-358.4C582.91,-348.76 577.18,-335.91 572.55,-325.54"/>
<polygon fill="midnightblue" stroke="midnightblue" points="575.65,-323.9 568.38,-316.19 569.26,-326.75 575.65,-323.9"/>
</g>
<!-- Node21&#45;&gt;Node22 -->
<g id="edge29" class="edge">
<title>Node21&#45;&gt;Node22</title>
<path fill="none" stroke="midnightblue" d="M873.58,-291.4C874.31,-281.96 875.27,-269.45 876.06,-259.19"/>
<polygon fill="midnightblue" stroke="midnightblue" points="879.55,-259.43 876.83,-249.19 872.57,-258.9 879.55,-259.43"/>
</g>
<!-- Node22&#45;&gt;Node7 -->
<g id="edge39" class="edge">
<title>Node22&#45;&gt;Node7</title>
<path fill="none" stroke="midnightblue" d="M906.63,-229.91C926.51,-222.36 951.37,-209.19 963.5,-188 985.59,-149.41 939.81,-104.81 911.19,-82.05"/>
<polygon fill="midnightblue" stroke="midnightblue" points="913.01,-79.04 902.95,-75.72 908.75,-84.59 913.01,-79.04"/>
</g>
<!-- Node22&#45;&gt;Node23 -->
<g id="edge30" class="edge">
<title>Node22&#45;&gt;Node23</title>
<path fill="none" stroke="midnightblue" d="M854.29,-229.98C826.5,-219.77 779.78,-202.61 748.31,-191.05"/>
<polygon fill="midnightblue" stroke="midnightblue" points="749.26,-187.67 738.67,-187.51 746.85,-194.24 749.26,-187.67"/>
</g>
<!-- Node25 -->
<g id="node25" class="node">
<title>Node25</title>
<g id="a_node25"><a xlink:href="Skippable_8h.html" target="_top" xlink:title=" ">
<polygon fill="white" stroke="black" points="997,-112.5 997,-131.5 1122,-131.5 1122,-112.5 997,-112.5"/>
<text text-anchor="middle" x="1059.5" y="-119.5" font-family="Helvetica,sans-Serif" font-size="10.00">BayesFilters/Skippable.h</text>
</a>
</g>
</g>
<!-- Node22&#45;&gt;Node25 -->
<g id="edge36" class="edge">
<title>Node22&#45;&gt;Node25</title>
<path fill="none" stroke="midnightblue" d="M906.04,-229.99C931.21,-221.67 968.18,-207.42 996.5,-188 1016.25,-174.46 1034.81,-154.01 1046.6,-139.67"/>
<polygon fill="midnightblue" stroke="midnightblue" points="1049.5,-141.65 1053.01,-131.65 1044.03,-137.27 1049.5,-141.65"/>
</g>
<!-- Node27 -->
<g id="node27" class="node">
<title>Node27</title>
<g id="a_node27"><a xlink:href="StateProcess_8h.html" target="_top" xlink:title=" ">
<polygon fill="white" stroke="black" points="812.5,-168.5 812.5,-187.5 954.5,-187.5 954.5,-168.5 812.5,-168.5"/>
<text text-anchor="middle" x="883.5" y="-175.5" font-family="Helvetica,sans-Serif" font-size="10.00">BayesFilters/StateProcess.h</text>
</a>
</g>
</g>
<!-- Node22&#45;&gt;Node27 -->
<g id="edge37" class="edge">
<title>Node22&#45;&gt;Node27</title>
<path fill="none" stroke="midnightblue" d="M878.36,-229.98C879.21,-221.58 880.53,-208.48 881.62,-197.66"/>
<polygon fill="midnightblue" stroke="midnightblue" points="885.12,-197.81 882.64,-187.51 878.16,-197.11 885.12,-197.81"/>
</g>
<!-- Node24 -->
<g id="node24" class="node">
<title>Node24</title>
<g id="a_node24"><a xlink:href="ExogenousProcess_8h.html" target="_top" xlink:title=" ">
<polygon fill="white" stroke="black" points="476,-112.5 476,-131.5 643,-131.5 643,-112.5 476,-112.5"/>
<text text-anchor="middle" x="559.5" y="-119.5" font-family="Helvetica,sans-Serif" font-size="10.00">BayesFilters/ExogenousProcess.h</text>
</a>
</g>
</g>
<!-- Node23&#45;&gt;Node24 -->
<g id="edge31" class="edge">
<title>Node23&#45;&gt;Node24</title>
<path fill="none" stroke="midnightblue" d="M690.78,-168.44C664.65,-159.4 623.24,-145.06 593.92,-134.92"/>
<polygon fill="midnightblue" stroke="midnightblue" points="594.7,-131.48 584.1,-131.52 592.41,-138.1 594.7,-131.48"/>
</g>
<!-- Node23&#45;&gt;Node25 -->
<g id="edge33" class="edge">
<title>Node23&#45;&gt;Node25</title>
<path fill="none" stroke="midnightblue" d="M770.01,-168.44C831.15,-158.85 930.24,-143.29 995.14,-133.1"/>
<polygon fill="midnightblue" stroke="midnightblue" points="995.91,-136.52 1005.25,-131.52 994.83,-129.61 995.91,-136.52"/>
</g>
<!-- Node24&#45;&gt;Node17 -->
<g id="edge32" class="edge">
<title>Node24&#45;&gt;Node17</title>
<path fill="none" stroke="midnightblue" d="M535.89,-112.44C511.04,-103.44 471.73,-89.19 443.75,-79.05"/>
<polygon fill="midnightblue" stroke="midnightblue" points="444.59,-75.63 434,-75.52 442.21,-82.21 444.59,-75.63"/>
</g>
<!-- Node26 -->
<g id="node26" class="node">
<title>Node26</title>
<g id="a_node26"><a xlink:href="Skipper_8h.html" target="_top" xlink:title=" ">
<polygon fill="white" stroke="black" points="949,-56.5 949,-75.5 1064,-75.5 1064,-56.5 949,-56.5"/>
<text text-anchor="middle" x="1006.5" y="-63.5" font-family="Helvetica,sans-Serif" font-size="10.00">BayesFilters/Skipper.h</text>
</a>
</g>
</g>
<!-- Node25&#45;&gt;Node26 -->
<g id="edge34" class="edge">
<title>Node25&#45;&gt;Node26</title>
<path fill="none" stroke="midnightblue" d="M1050.75,-112.08C1043.03,-104.22 1031.6,-92.57 1022.28,-83.08"/>
<polygon fill="midnightblue" stroke="midnightblue" points="1024.59,-80.44 1015.09,-75.75 1019.6,-85.34 1024.59,-80.44"/>
</g>
<!-- Node26&#45;&gt;Node14 -->
<g id="edge35" class="edge">
<title>Node26&#45;&gt;Node14</title>
<path fill="none" stroke="midnightblue" d="M948.58,-58.13C940.83,-57.34 932.97,-56.6 925.5,-56 583.33,-28.51 166.94,-15.19 51.47,-11.86"/>
<polygon fill="midnightblue" stroke="midnightblue" points="51.34,-8.35 41.25,-11.56 51.14,-15.35 51.34,-8.35"/>
</g>
<!-- Node27&#45;&gt;Node17 -->
<g id="edge38" class="edge">
<title>Node27&#45;&gt;Node17</title>
<path fill="none" stroke="midnightblue" d="M830.83,-168.48C791.42,-161.21 736.6,-149.18 690.5,-132 672.62,-125.33 670.53,-118.26 652.5,-112 586.73,-89.17 506.67,-77.17 457.14,-71.47"/>
<polygon fill="midnightblue" stroke="midnightblue" points="457.37,-67.97 447.05,-70.34 456.6,-74.93 457.37,-67.97"/>
</g>
</g>
</svg>
        <g id="navigator" transform="translate(0 0)" fill="#404254">
                <rect fill="#f2f5e9" fill-opacity="0.5" stroke="#606060" stroke-width=".5" x="0" y="0" width="60" height="60"/>
                <use id="zoomplus" xlink:href="#zoomPlus" x="17" y="9" onmousedown="handleZoom(evt,'in')"/>
                <use id="zoomminus" xlink:href="#zoomMin" x="42" y="9" onmousedown="handleZoom(evt,'out')"/>
                <use id="reset" xlink:href="#resetDef" x="30" y="36" onmousedown="handleReset()"/>
                <g id="arrowUp" xlink:href="#dirArrow" transform="translate(30 24)" onmousedown="handlePan(0,-1)">
                  <use xlink:href="#rim" fill="#404040">
                        <set attributeName="fill" to="#808080" begin="arrowUp.mouseover" end="arrowUp.mouseout"/>
                  </use>
                  <path fill="none" stroke="white" stroke-width="1.5" d="M0,-3.0v7 M-2.5,-0.5L0,-3.0L2.5,-0.5"/>
                </g>
                <g id="arrowRight" xlink:href="#dirArrow" transform="rotate(90) translate(36 -43)" onmousedown="handlePan(1,0)">
                  <use xlink:href="#rim" fill="#404040">
                        <set attributeName="fill" to="#808080" begin="arrowRight.mouseover" end="arrowRight.mouseout"/>
                  </use>
                  <path fill="none" stroke="white" stroke-width="1.5" d="M0,-3.0v7 M-2.5,-0.5L0,-3.0L2.5,-0.5"/>
                </g>
                <g id="arrowDown" xlink:href="#dirArrow" transform="rotate(180) translate(-30 -48)" onmousedown="handlePan(0,1)">
                  <use xlink:href="#rim" fill="#404040">
                        <set attributeName="fill" to="#808080" begin="arrowDown.mouseover" end="arrowDown.mouseout"/>
                  </use>
                  <path fill="none" stroke="white" stroke-width="1.5" d="M0,-3.0v7 M-2.5,-0.5L0,-3.0L2.5,-0.5"/>
                </g>
                <g id="arrowLeft" xlink:href="#dirArrow" transform="rotate(270) translate(-36 17)" onmousedown="handlePan(-1,0)">
                  <use xlink:href="#rim" fill="#404040">
                        <set attributeName="fill" to="#808080" begin="arrowLeft.mouseover" end="arrowLeft.mouseout"/>
                  </use>
                  <path fill="none" stroke="white" stroke-width="1.5" d="M0,-3.0v7 M-2.5,-0.5L0,-3.0L2.5,-0.5"/>
                </g>
        </g>
        <svg viewBox="0 0 15 15" width="100%" height="30px" preserveAspectRatio="xMaxYMin meet">
         <g id="arrow_out" transform="scale(0.3 0.3)">
          <a xlink:href="UKFCorrection_8h__incl_org.svg" target="_base">
           <rect id="button" ry="5" rx="5" y="6" x="6" height="38" width="38"
                fill="#f2f5e9" fill-opacity="0.5" stroke="#606060" stroke-width="1.0"/>
           <path id="arrow"
             d="M 11.500037,31.436501 C 11.940474,20.09759 22.043105,11.32322 32.158766,21.979434 L 37.068811,17.246167 C 37.068811,17.246167 37.088388,32 37.088388,32 L 22.160133,31.978069 C 22.160133,31.978069 26.997745,27.140456 26.997745,27.140456 C 18.528582,18.264221 13.291696,25.230495 11.500037,31.436501 z"
             style="fill:#404040;"/>
          </a>
         </g>
        </svg>
</svg>
