<?xml version="1.0" encoding="UTF-8" standalone="no"?>
<!DOCTYPE svg PUBLIC "-//W3C//DTD SVG 1.1//EN"
 "http://www.w3.org/Graphics/SVG/1.1/DTD/svg11.dtd">
<!-- Generated by graphviz version 2.47.2 (0)
 -->
<!-- Title: /home/xenvre/robot&#45;code/bfl_robotology/src/BayesFilters/src/UKFCorrection.cpp Pages: 1 -->
<!--zoomable 542 -->
<svg id="main" version="1.1" xmlns="http://www.w3.org/2000/svg" xmlns:xlink="http://www.w3.org/1999/xlink" xml:space="preserve" onload="init(evt)">
<style type="text/css"><![CDATA[
.edge:hover path { stroke: red; }
.edge:hover polygon { stroke: red; fill: red; }
]]></style>
<script type="text/javascript"><![CDATA[
var edges = document.getElementsByTagName('g');
if (edges && edges.length) {
  for (var i=0;i<edges.length;i++) {
    if (edges[i].id.substr(0,4)=='edge') {
      edges[i].setAttribute('class','edge');
    }
  }
}
]]></script>
        <defs>
                <circle id="rim" cx="0" cy="0" r="7"/>
                <circle id="rim2" cx="0" cy="0" r="3.5"/>
                <g id="zoomPlus">
                        <use xlink:href="#rim" fill="#404040">
                                <set attributeName="fill" to="#808080" begin="zoomplus.mouseover" end="zoomplus.mouseout"/>
                        </use>
                        <path d="M-4,0h8M0,-4v8" fill="none" stroke="white" stroke-width="1.5" pointer-events="none"/>
                </g>
                <g id="zoomMin">
                        <use xlink:href="#rim" fill="#404040">
                                <set attributeName="fill" to="#808080" begin="zoomminus.mouseover" end="zoomminus.mouseout"/>
                        </use>
                        <path d="M-4,0h8" fill="none" stroke="white" stroke-width="1.5" pointer-events="none"/>
                </g>
                <g id="dirArrow">
                        <path fill="none" stroke="white" stroke-width="1.5" d="M0,-3.0v7 M-2.5,-0.5L0,-3.0L2.5,-0.5"/>
                </g>
               <g id="resetDef">
                       <use xlink:href="#rim2" fill="#404040">
                               <set attributeName="fill" to="#808080" begin="reset.mouseover" end="reset.mouseout"/>
                       </use>
               </g>
        </defs>

<script type="text/javascript">
var viewWidth = 1130;
var viewHeight = 542;
var sectionId = 'dynsection-0';
</script>
<script xlink:href="svgpan.js"/>
<svg id="graph" class="graph">
<g id="viewport">
<title>/home/xenvre/robot&#45;code/bfl_robotology/src/BayesFilters/src/UKFCorrection.cpp</title>
<polygon fill="white" stroke="transparent" points="-4,4 -4,-538 1125.67,-538 1125.67,4 -4,4"/>
<!-- Node1 -->
<g id="node1" class="node">
<title>Node1</title>
<g id="a_node1"><a xlink:title=" ">
<polygon fill="#bfbfbf" stroke="black" points="681.17,-481.5 681.17,-533.5 788.17,-533.5 788.17,-481.5 681.17,-481.5"/>
<text text-anchor="start" x="689.17" y="-521.5" font-family="Helvetica,sans-Serif" font-size="10.00">/home/xenvre/robot</text>
<text text-anchor="start" x="689.17" y="-510.5" font-family="Helvetica,sans-Serif" font-size="10.00">&#45;code/bfl_robotology</text>
<text text-anchor="start" x="689.17" y="-499.5" font-family="Helvetica,sans-Serif" font-size="10.00">/src/BayesFilters/src</text>
<text text-anchor="middle" x="734.67" y="-488.5" font-family="Helvetica,sans-Serif" font-size="10.00">/UKFCorrection.cpp</text>
</a>
</g>
</g>
<!-- Node2 -->
<g id="node2" class="node">
<title>Node2</title>
<g id="a_node2"><a xlink:href="UKFCorrection_8h.html" target="_top" xlink:title=" ">
<polygon fill="white" stroke="black" points="348.67,-425.5 348.67,-444.5 496.67,-444.5 496.67,-425.5 348.67,-425.5"/>
<text text-anchor="middle" x="422.67" y="-432.5" font-family="Helvetica,sans-Serif" font-size="10.00">BayesFilters/UKFCorrection.h</text>
</a>
</g>
</g>
<!-- Node1&#45;&gt;Node2 -->
<g id="edge1" class="edge">
<title>Node1&#45;&gt;Node2</title>
<path fill="none" stroke="midnightblue" d="M681.04,-494.38C621.71,-480.97 527,-459.57 470.22,-446.74"/>
<polygon fill="midnightblue" stroke="midnightblue" points="470.95,-443.32 460.42,-444.53 469.41,-450.15 470.95,-443.32"/>
</g>
<!-- Node30 -->
<g id="node30" class="node">
<title>Node30</title>
<g id="a_node30"><a xlink:href="utils_8h.html" target="_top" xlink:title=" ">
<polygon fill="white" stroke="black" points="1018.17,-112.5 1018.17,-131.5 1119.17,-131.5 1119.17,-112.5 1018.17,-112.5"/>
<text text-anchor="middle" x="1068.67" y="-119.5" font-family="Helvetica,sans-Serif" font-size="10.00">BayesFilters/utils.h</text>
</a>
</g>
</g>
<!-- Node1&#45;&gt;Node30 -->
<g id="edge50" class="edge">
<title>Node1&#45;&gt;Node30</title>
<path fill="none" stroke="midnightblue" d="M788.48,-506.99C877.97,-504.69 1047.67,-485.67 1047.67,-374.5 1047.67,-374.5 1047.67,-374.5 1047.67,-238.5 1047.67,-203.8 1056.96,-164.18 1063.18,-141.52"/>
<polygon fill="midnightblue" stroke="midnightblue" points="1066.64,-142.17 1066.02,-131.6 1059.91,-140.25 1066.64,-142.17"/>
</g>
<!-- Node3 -->
<g id="node3" class="node">
<title>Node3</title>
<g id="a_node3"><a xlink:href="AdditiveMeasurementModel_8h.html" target="_top" xlink:title=" ">
<polygon fill="white" stroke="black" points="54.17,-291.5 54.17,-321.5 223.17,-321.5 223.17,-291.5 54.17,-291.5"/>
<text text-anchor="start" x="62.17" y="-309.5" font-family="Helvetica,sans-Serif" font-size="10.00">BayesFilters/AdditiveMeasurement</text>
<text text-anchor="middle" x="138.67" y="-298.5" font-family="Helvetica,sans-Serif" font-size="10.00">Model.h</text>
</a>
</g>
</g>
<!-- Node2&#45;&gt;Node3 -->
<g id="edge2" class="edge">
<title>Node2&#45;&gt;Node3</title>
<path fill="none" stroke="midnightblue" d="M385.89,-425.49C355.39,-417.81 311.25,-405.23 274.67,-389 235.57,-371.65 193.81,-345.33 167.04,-327.32"/>
<polygon fill="midnightblue" stroke="midnightblue" points="168.8,-324.28 158.57,-321.56 164.87,-330.07 168.8,-324.28"/>
</g>
<!-- Node4 -->
<g id="node4" class="node">
<title>Node4</title>
<g id="a_node4"><a xlink:href="MeasurementModel_8h.html" target="_top" xlink:title=" ">
<polygon fill="white" stroke="black" points="110.67,-224.5 110.67,-254.5 244.67,-254.5 244.67,-224.5 110.67,-224.5"/>
<text text-anchor="start" x="118.67" y="-242.5" font-family="Helvetica,sans-Serif" font-size="10.00">BayesFilters/Measurement</text>
<text text-anchor="middle" x="177.67" y="-231.5" font-family="Helvetica,sans-Serif" font-size="10.00">Model.h</text>
</a>
</g>
</g>
<!-- Node2&#45;&gt;Node4 -->
<g id="edge27" class="edge">
<title>Node2&#45;&gt;Node4</title>
<path fill="none" stroke="midnightblue" d="M362.54,-425.45C265.26,-410.2 80.59,-374.87 44.67,-322 24.11,-291.72 62.33,-270.7 103,-257.59"/>
<polygon fill="midnightblue" stroke="midnightblue" points="104.27,-260.87 112.8,-254.6 102.22,-254.18 104.27,-260.87"/>
</g>
<!-- Node18 -->
<g id="node18" class="node">
<title>Node18</title>
<g id="a_node18"><a xlink:title=" ">
<polygon fill="white" stroke="#bfbfbf" points="788.17,-56.5 788.17,-75.5 861.17,-75.5 861.17,-56.5 788.17,-56.5"/>
<text text-anchor="middle" x="824.67" y="-63.5" font-family="Helvetica,sans-Serif" font-size="10.00">Eigen/Dense</text>
</a>
</g>
</g>
<!-- Node2&#45;&gt;Node18 -->
<g id="edge49" class="edge">
<title>Node2&#45;&gt;Node18</title>
<path fill="none" stroke="midnightblue" d="M496.8,-432.84C650.49,-428.42 989.67,-407.35 989.67,-307.5 989.67,-307.5 989.67,-307.5 989.67,-177 989.67,-140.28 968.11,-133.95 938.67,-112 918.02,-96.6 891.4,-85.7 869.08,-78.49"/>
<polygon fill="midnightblue" stroke="midnightblue" points="870.08,-75.13 859.49,-75.53 868.01,-81.82 870.08,-75.13"/>
</g>
<!-- Node19 -->
<g id="node19" class="node">
<title>Node19</title>
<g id="a_node19"><a xlink:href="GaussianCorrection_8h.html" target="_top" xlink:title=" ">
<polygon fill="white" stroke="black" points="470.17,-297 470.17,-316 639.17,-316 639.17,-297 470.17,-297"/>
<text text-anchor="middle" x="554.67" y="-304" font-family="Helvetica,sans-Serif" font-size="10.00">BayesFilters/GaussianCorrection.h</text>
</a>
</g>
</g>
<!-- Node2&#45;&gt;Node19 -->
<g id="edge20" class="edge">
<title>Node2&#45;&gt;Node19</title>
<path fill="none" stroke="midnightblue" d="M435.42,-425.34C447.76,-416.72 466.73,-402.81 481.67,-389 504.25,-368.14 527.45,-341.09 541.46,-324.01"/>
<polygon fill="midnightblue" stroke="midnightblue" points="544.32,-326.04 547.91,-316.07 538.89,-321.63 544.32,-326.04"/>
</g>
<!-- Node20 -->
<g id="node20" class="node">
<title>Node20</title>
<g id="a_node20"><a xlink:href="GaussianMixture_8h.html" target="_top" xlink:title=" ">
<polygon fill="white" stroke="black" points="354.67,-230 354.67,-249 510.67,-249 510.67,-230 354.67,-230"/>
<text text-anchor="middle" x="432.67" y="-237" font-family="Helvetica,sans-Serif" font-size="10.00">BayesFilters/GaussianMixture.h</text>
</a>
</g>
</g>
<!-- Node2&#45;&gt;Node20 -->
<g id="edge26" class="edge">
<title>Node2&#45;&gt;Node20</title>
<path fill="none" stroke="midnightblue" d="M403.38,-425.48C389.25,-418.08 371.12,-405.89 362.67,-389 356.51,-376.68 361.26,-371.7 362.67,-358 365.8,-327.74 361.52,-317.38 376.67,-291 384.97,-276.57 398.84,-264.01 410.7,-255.03"/>
<polygon fill="midnightblue" stroke="midnightblue" points="412.8,-257.83 418.87,-249.15 408.71,-252.15 412.8,-257.83"/>
</g>
<!-- Node21 -->
<g id="node21" class="node">
<title>Node21</title>
<g id="a_node21"><a xlink:href="sigma__point_8h.html" target="_top" xlink:title=" ">
<polygon fill="white" stroke="black" points="372.17,-358.5 372.17,-388.5 473.17,-388.5 473.17,-358.5 372.17,-358.5"/>
<text text-anchor="start" x="380.17" y="-376.5" font-family="Helvetica,sans-Serif" font-size="10.00">BayesFilters/sigma</text>
<text text-anchor="middle" x="422.67" y="-365.5" font-family="Helvetica,sans-Serif" font-size="10.00">_point.h</text>
</a>
</g>
</g>
<!-- Node2&#45;&gt;Node21 -->
<g id="edge28" class="edge">
<title>Node2&#45;&gt;Node21</title>
<path fill="none" stroke="midnightblue" d="M422.67,-425.48C422.67,-418.47 422.67,-408.19 422.67,-398.7"/>
<polygon fill="midnightblue" stroke="midnightblue" points="426.17,-398.52 422.67,-388.52 419.17,-398.52 426.17,-398.52"/>
</g>
<!-- Node3&#45;&gt;Node4 -->
<g id="edge3" class="edge">
<title>Node3&#45;&gt;Node4</title>
<path fill="none" stroke="midnightblue" d="M147.14,-291.4C152.04,-283.22 158.34,-272.73 163.94,-263.39"/>
<polygon fill="midnightblue" stroke="midnightblue" points="167.09,-264.95 169.23,-254.58 161.08,-261.35 167.09,-264.95"/>
</g>
<!-- Node5 -->
<g id="node5" class="node">
<title>Node5</title>
<g id="a_node5"><a xlink:href="Data_8h.html" target="_top" xlink:title=" ">
<polygon fill="white" stroke="black" points="255.67,-168.5 255.67,-187.5 359.67,-187.5 359.67,-168.5 255.67,-168.5"/>
<text text-anchor="middle" x="307.67" y="-175.5" font-family="Helvetica,sans-Serif" font-size="10.00">BayesFilters/Data.h</text>
</a>
</g>
</g>
<!-- Node4&#45;&gt;Node5 -->
<g id="edge4" class="edge">
<title>Node4&#45;&gt;Node5</title>
<path fill="none" stroke="midnightblue" d="M208.48,-224.4C230,-214.55 258.51,-201.5 279.44,-191.92"/>
<polygon fill="midnightblue" stroke="midnightblue" points="281.12,-195 288.76,-187.66 278.21,-188.64 281.12,-195"/>
</g>
<!-- Node8 -->
<g id="node8" class="node">
<title>Node8</title>
<g id="a_node8"><a xlink:title=" ">
<polygon fill="white" stroke="#bfbfbf" points="373.67,-56.5 373.67,-75.5 425.67,-75.5 425.67,-56.5 373.67,-56.5"/>
<text text-anchor="middle" x="399.67" y="-63.5" font-family="Helvetica,sans-Serif" font-size="10.00">memory</text>
</a>
</g>
</g>
<!-- Node4&#45;&gt;Node8 -->
<g id="edge16" class="edge">
<title>Node4&#45;&gt;Node8</title>
<path fill="none" stroke="midnightblue" d="M189.85,-224.38C203.06,-209.49 225.14,-185.77 246.67,-168 289.17,-132.94 344.15,-99.12 375.3,-80.89"/>
<polygon fill="midnightblue" stroke="midnightblue" points="377.27,-83.79 384.16,-75.75 373.76,-77.74 377.27,-83.79"/>
</g>
<!-- Node12 -->
<g id="node12" class="node">
<title>Node12</title>
<g id="a_node12"><a xlink:href="Logger_8h.html" target="_top" xlink:title=" ">
<polygon fill="white" stroke="black" points="88.17,-168.5 88.17,-187.5 199.17,-187.5 199.17,-168.5 88.17,-168.5"/>
<text text-anchor="middle" x="143.67" y="-175.5" font-family="Helvetica,sans-Serif" font-size="10.00">BayesFilters/Logger.h</text>
</a>
</g>
</g>
<!-- Node4&#45;&gt;Node12 -->
<g id="edge11" class="edge">
<title>Node4&#45;&gt;Node12</title>
<path fill="none" stroke="midnightblue" d="M169.62,-224.4C164.83,-216.02 158.72,-205.33 153.63,-196.42"/>
<polygon fill="midnightblue" stroke="midnightblue" points="156.62,-194.6 148.62,-187.66 150.54,-198.08 156.62,-194.6"/>
</g>
<!-- Node15 -->
<g id="node15" class="node">
<title>Node15</title>
<g id="a_node15"><a xlink:title=" ">
<polygon fill="white" stroke="#bfbfbf" points="278.17,-0.5 278.17,-19.5 319.17,-19.5 319.17,-0.5 278.17,-0.5"/>
<text text-anchor="middle" x="298.67" y="-7.5" font-family="Helvetica,sans-Serif" font-size="10.00">string</text>
</a>
</g>
</g>
<!-- Node4&#45;&gt;Node15 -->
<g id="edge17" class="edge">
<title>Node4&#45;&gt;Node15</title>
<path fill="none" stroke="midnightblue" d="M110.57,-234.68C77.87,-229.02 41.25,-216.23 20.67,-188 -14.23,-140.1 -2.33,-97.81 39.67,-56 71.33,-24.49 206.01,-14.86 267.65,-12.07"/>
<polygon fill="midnightblue" stroke="midnightblue" points="268.08,-15.55 277.92,-11.64 267.78,-8.56 268.08,-15.55"/>
</g>
<!-- Node17 -->
<g id="node17" class="node">
<title>Node17</title>
<g id="a_node17"><a xlink:title=" ">
<polygon fill="white" stroke="#bfbfbf" points="29.67,-168.5 29.67,-187.5 69.67,-187.5 69.67,-168.5 29.67,-168.5"/>
<text text-anchor="middle" x="49.67" y="-175.5" font-family="Helvetica,sans-Serif" font-size="10.00">utility</text>
</a>
</g>
</g>
<!-- Node4&#45;&gt;Node17 -->
<g id="edge18" class="edge">
<title>Node4&#45;&gt;Node17</title>
<path fill="none" stroke="midnightblue" d="M147.34,-224.4C126.15,-214.55 98.08,-201.5 77.47,-191.92"/>
<polygon fill="midnightblue" stroke="midnightblue" points="78.84,-188.7 68.3,-187.66 75.89,-195.05 78.84,-188.7"/>
</g>
<!-- Node4&#45;&gt;Node18 -->
<g id="edge19" class="edge">
<title>Node4&#45;&gt;Node18</title>
<path fill="none" stroke="midnightblue" d="M244.93,-226.39C282.39,-218.26 329.27,-205.75 368.67,-188 424.2,-162.99 425.67,-133.42 482.67,-112 582.98,-74.31 710.14,-67.32 777.62,-66.53"/>
<polygon fill="midnightblue" stroke="midnightblue" points="777.95,-70.03 787.92,-66.45 777.9,-63.03 777.95,-70.03"/>
</g>
<!-- Node6 -->
<g id="node6" class="node">
<title>Node6</title>
<g id="a_node6"><a xlink:href="any_8h.html" target="_top" xlink:title=" ">
<polygon fill="white" stroke="black" points="187.17,-112.5 187.17,-131.5 284.17,-131.5 284.17,-112.5 187.17,-112.5"/>
<text text-anchor="middle" x="235.67" y="-119.5" font-family="Helvetica,sans-Serif" font-size="10.00">BayesFilters/any.h</text>
</a>
</g>
</g>
<!-- Node5&#45;&gt;Node6 -->
<g id="edge5" class="edge">
<title>Node5&#45;&gt;Node6</title>
<path fill="none" stroke="midnightblue" d="M296.11,-168.32C285.25,-160.18 268.79,-147.84 255.79,-138.09"/>
<polygon fill="midnightblue" stroke="midnightblue" points="257.55,-135.03 247.45,-131.83 253.35,-140.63 257.55,-135.03"/>
</g>
<!-- Node7 -->
<g id="node7" class="node">
<title>Node7</title>
<g id="a_node7"><a xlink:title=" ">
<polygon fill="white" stroke="#bfbfbf" points="65.67,-56.5 65.67,-75.5 121.67,-75.5 121.67,-56.5 65.67,-56.5"/>
<text text-anchor="middle" x="93.67" y="-63.5" font-family="Helvetica,sans-Serif" font-size="10.00">algorithm</text>
</a>
</g>
</g>
<!-- Node6&#45;&gt;Node7 -->
<g id="edge6" class="edge">
<title>Node6&#45;&gt;Node7</title>
<path fill="none" stroke="midnightblue" d="M213.17,-112.44C189.6,-103.48 152.35,-89.31 125.71,-79.18"/>
<polygon fill="midnightblue" stroke="midnightblue" points="126.66,-75.8 116.07,-75.52 124.17,-82.34 126.66,-75.8"/>
</g>
<!-- Node6&#45;&gt;Node8 -->
<g id="edge7" class="edge">
<title>Node6&#45;&gt;Node8</title>
<path fill="none" stroke="midnightblue" d="M261.66,-112.44C289.37,-103.32 333.43,-88.81 364.29,-78.65"/>
<polygon fill="midnightblue" stroke="midnightblue" points="365.41,-81.97 373.81,-75.52 363.22,-75.32 365.41,-81.97"/>
</g>
<!-- Node9 -->
<g id="node9" class="node">
<title>Node9</title>
<g id="a_node9"><a xlink:title=" ">
<polygon fill="white" stroke="#bfbfbf" points="140.17,-56.5 140.17,-75.5 199.17,-75.5 199.17,-56.5 140.17,-56.5"/>
<text text-anchor="middle" x="169.67" y="-63.5" font-family="Helvetica,sans-Serif" font-size="10.00">stdexcept</text>
</a>
</g>
</g>
<!-- Node6&#45;&gt;Node9 -->
<g id="edge8" class="edge">
<title>Node6&#45;&gt;Node9</title>
<path fill="none" stroke="midnightblue" d="M225.07,-112.32C215.22,-104.26 200.32,-92.08 188.46,-82.37"/>
<polygon fill="midnightblue" stroke="midnightblue" points="190.43,-79.46 180.47,-75.83 186,-84.88 190.43,-79.46"/>
</g>
<!-- Node10 -->
<g id="node10" class="node">
<title>Node10</title>
<g id="a_node10"><a xlink:title=" ">
<polygon fill="white" stroke="#bfbfbf" points="217.17,-56.5 217.17,-75.5 268.17,-75.5 268.17,-56.5 217.17,-56.5"/>
<text text-anchor="middle" x="242.67" y="-63.5" font-family="Helvetica,sans-Serif" font-size="10.00">typeinfo</text>
</a>
</g>
</g>
<!-- Node6&#45;&gt;Node10 -->
<g id="edge9" class="edge">
<title>Node6&#45;&gt;Node10</title>
<path fill="none" stroke="midnightblue" d="M236.83,-112.08C237.76,-104.93 239.09,-94.64 240.25,-85.69"/>
<polygon fill="midnightblue" stroke="midnightblue" points="243.73,-86.12 241.54,-75.75 236.78,-85.22 243.73,-86.12"/>
</g>
<!-- Node11 -->
<g id="node11" class="node">
<title>Node11</title>
<g id="a_node11"><a xlink:title=" ">
<polygon fill="white" stroke="#bfbfbf" points="286.67,-56.5 286.67,-75.5 348.67,-75.5 348.67,-56.5 286.67,-56.5"/>
<text text-anchor="middle" x="317.67" y="-63.5" font-family="Helvetica,sans-Serif" font-size="10.00">type_traits</text>
</a>
</g>
</g>
<!-- Node6&#45;&gt;Node11 -->
<g id="edge10" class="edge">
<title>Node6&#45;&gt;Node11</title>
<path fill="none" stroke="midnightblue" d="M248.85,-112.32C261.52,-103.98 280.91,-91.21 295.88,-81.35"/>
<polygon fill="midnightblue" stroke="midnightblue" points="298.11,-84.08 304.53,-75.65 294.26,-78.23 298.11,-84.08"/>
</g>
<!-- Node13 -->
<g id="node13" class="node">
<title>Node13</title>
<g id="a_node13"><a xlink:title=" ">
<polygon fill="white" stroke="#bfbfbf" points="118.67,-112.5 118.67,-131.5 168.67,-131.5 168.67,-112.5 118.67,-112.5"/>
<text text-anchor="middle" x="143.67" y="-119.5" font-family="Helvetica,sans-Serif" font-size="10.00">fstream</text>
</a>
</g>
</g>
<!-- Node12&#45;&gt;Node13 -->
<g id="edge12" class="edge">
<title>Node12&#45;&gt;Node13</title>
<path fill="none" stroke="midnightblue" d="M143.67,-168.08C143.67,-161.01 143.67,-150.86 143.67,-141.99"/>
<polygon fill="midnightblue" stroke="midnightblue" points="147.17,-141.75 143.67,-131.75 140.17,-141.75 147.17,-141.75"/>
</g>
<!-- Node14 -->
<g id="node14" class="node">
<title>Node14</title>
<g id="a_node14"><a xlink:title=" ">
<polygon fill="white" stroke="#bfbfbf" points="46.67,-112.5 46.67,-131.5 100.67,-131.5 100.67,-112.5 46.67,-112.5"/>
<text text-anchor="middle" x="73.67" y="-119.5" font-family="Helvetica,sans-Serif" font-size="10.00">iostream</text>
</a>
</g>
</g>
<!-- Node12&#45;&gt;Node14 -->
<g id="edge13" class="edge">
<title>Node12&#45;&gt;Node14</title>
<path fill="none" stroke="midnightblue" d="M132.43,-168.32C121.88,-160.18 105.87,-147.84 93.23,-138.09"/>
<polygon fill="midnightblue" stroke="midnightblue" points="95.18,-135.17 85.13,-131.83 90.91,-140.71 95.18,-135.17"/>
</g>
<!-- Node12&#45;&gt;Node15 -->
<g id="edge14" class="edge">
<title>Node12&#45;&gt;Node15</title>
<path fill="none" stroke="midnightblue" d="M93.9,-168.45C72.85,-162.1 50.31,-151.09 37.67,-132 23.75,-110.96 43.68,-67.25 56.67,-56 87.92,-28.94 210.14,-17.08 268,-12.9"/>
<polygon fill="midnightblue" stroke="midnightblue" points="268.28,-16.39 278.01,-12.21 267.8,-9.41 268.28,-16.39"/>
</g>
<!-- Node16 -->
<g id="node16" class="node">
<title>Node16</title>
<g id="a_node16"><a xlink:title=" ">
<polygon fill="white" stroke="#bfbfbf" points="340.67,-112.5 340.67,-131.5 384.67,-131.5 384.67,-112.5 340.67,-112.5"/>
<text text-anchor="middle" x="362.67" y="-119.5" font-family="Helvetica,sans-Serif" font-size="10.00">vector</text>
</a>
</g>
</g>
<!-- Node12&#45;&gt;Node16 -->
<g id="edge15" class="edge">
<title>Node12&#45;&gt;Node16</title>
<path fill="none" stroke="midnightblue" d="M178.38,-168.44C220.2,-158.13 289.93,-140.94 330.56,-130.92"/>
<polygon fill="midnightblue" stroke="midnightblue" points="331.61,-134.27 340.48,-128.47 329.93,-127.47 331.61,-134.27"/>
</g>
<!-- Node19&#45;&gt;Node4 -->
<g id="edge24" class="edge">
<title>Node19&#45;&gt;Node4</title>
<path fill="none" stroke="midnightblue" d="M505,-296.94C441.18,-285.93 329.73,-266.72 254.83,-253.8"/>
<polygon fill="midnightblue" stroke="midnightblue" points="255.42,-250.35 244.97,-252.1 254.23,-257.25 255.42,-250.35"/>
</g>
<!-- Node19&#45;&gt;Node18 -->
<g id="edge25" class="edge">
<title>Node19&#45;&gt;Node18</title>
<path fill="none" stroke="midnightblue" d="M600.09,-296.95C685,-279.89 862.2,-238.86 894.67,-188 912.86,-159.53 911.96,-141.6 895.67,-112 887.79,-97.66 873.19,-87.25 859.27,-80.08"/>
<polygon fill="midnightblue" stroke="midnightblue" points="860.37,-76.73 849.84,-75.62 857.38,-83.06 860.37,-76.73"/>
</g>
<!-- Node19&#45;&gt;Node20 -->
<g id="edge21" class="edge">
<title>Node19&#45;&gt;Node20</title>
<path fill="none" stroke="midnightblue" d="M538.47,-296.87C517.87,-285.89 482.08,-266.82 457.9,-253.94"/>
<polygon fill="midnightblue" stroke="midnightblue" points="459.41,-250.78 448.94,-249.17 456.12,-256.96 459.41,-250.78"/>
</g>
<!-- Node20&#45;&gt;Node16 -->
<g id="edge22" class="edge">
<title>Node20&#45;&gt;Node16</title>
<path fill="none" stroke="midnightblue" d="M427.41,-229.82C415.96,-210.92 388.58,-165.75 373.35,-140.62"/>
<polygon fill="midnightblue" stroke="midnightblue" points="376.17,-138.52 368,-131.78 370.19,-142.15 376.17,-138.52"/>
</g>
<!-- Node20&#45;&gt;Node18 -->
<g id="edge23" class="edge">
<title>Node20&#45;&gt;Node18</title>
<path fill="none" stroke="midnightblue" d="M434.94,-229.93C441.6,-206.56 463.5,-141.47 507.67,-112 550.96,-83.13 700.44,-72.42 777.67,-68.75"/>
<polygon fill="midnightblue" stroke="midnightblue" points="778.23,-72.23 788.07,-68.28 777.92,-65.23 778.23,-72.23"/>
</g>
<!-- Node21&#45;&gt;Node3 -->
<g id="edge44" class="edge">
<title>Node21&#45;&gt;Node3</title>
<path fill="none" stroke="midnightblue" d="M371.9,-360.88C326.73,-350.54 260.2,-335.31 209.74,-323.77"/>
<polygon fill="midnightblue" stroke="midnightblue" points="210.41,-320.33 199.88,-321.51 208.85,-327.15 210.41,-320.33"/>
</g>
<!-- Node21&#45;&gt;Node4 -->
<g id="edge45" class="edge">
<title>Node21&#45;&gt;Node4</title>
<path fill="none" stroke="midnightblue" d="M389.47,-358.43C367.4,-348.79 337.93,-335.37 312.67,-322 275.72,-302.44 234.8,-277.21 207.81,-260.04"/>
<polygon fill="midnightblue" stroke="midnightblue" points="209.53,-256.98 199.22,-254.54 205.76,-262.88 209.53,-256.98"/>
</g>
<!-- Node21&#45;&gt;Node5 -->
<g id="edge41" class="edge">
<title>Node21&#45;&gt;Node5</title>
<path fill="none" stroke="midnightblue" d="M407.78,-358.42C398.12,-348.78 385.7,-335.36 376.67,-322 348.47,-280.26 325.38,-225.24 314.46,-197.17"/>
<polygon fill="midnightblue" stroke="midnightblue" points="317.61,-195.61 310.78,-187.51 311.07,-198.11 317.61,-195.61"/>
</g>
<!-- Node21&#45;&gt;Node18 -->
<g id="edge48" class="edge">
<title>Node21&#45;&gt;Node18</title>
<path fill="none" stroke="midnightblue" d="M473.4,-370.61C605.8,-364.31 951.67,-338.47 951.67,-240.5 951.67,-240.5 951.67,-240.5 951.67,-177 951.67,-127.87 896.69,-95.77 859.08,-79.56"/>
<polygon fill="midnightblue" stroke="midnightblue" points="860.04,-76.17 849.46,-75.59 857.37,-82.64 860.04,-76.17"/>
</g>
<!-- Node21&#45;&gt;Node20 -->
<g id="edge43" class="edge">
<title>Node21&#45;&gt;Node20</title>
<path fill="none" stroke="midnightblue" d="M407.41,-358.17C398.62,-348.83 388.4,-335.84 383.67,-322 379.23,-308.96 378.5,-303.77 383.67,-291 389.4,-276.89 401.17,-264.54 411.74,-255.59"/>
<polygon fill="midnightblue" stroke="midnightblue" points="414.17,-258.13 419.82,-249.17 409.81,-252.65 414.17,-258.13"/>
</g>
<!-- Node22 -->
<g id="node22" class="node">
<title>Node22</title>
<g id="a_node22"><a xlink:href="AdditiveStateModel_8h.html" target="_top" xlink:title=" ">
<polygon fill="white" stroke="black" points="657.17,-291.5 657.17,-321.5 790.17,-321.5 790.17,-291.5 657.17,-291.5"/>
<text text-anchor="start" x="665.17" y="-309.5" font-family="Helvetica,sans-Serif" font-size="10.00">BayesFilters/AdditiveState</text>
<text text-anchor="middle" x="723.67" y="-298.5" font-family="Helvetica,sans-Serif" font-size="10.00">Model.h</text>
</a>
</g>
</g>
<!-- Node21&#45;&gt;Node22 -->
<g id="edge29" class="edge">
<title>Node21&#45;&gt;Node22</title>
<path fill="none" stroke="midnightblue" d="M473.4,-361.55C521.42,-351.18 594.13,-335.48 648.82,-323.67"/>
<polygon fill="midnightblue" stroke="midnightblue" points="649.77,-327.04 658.81,-321.51 648.3,-320.2 649.77,-327.04"/>
</g>
<!-- Node23 -->
<g id="node23" class="node">
<title>Node23</title>
<g id="a_node23"><a xlink:href="StateModel_8h.html" target="_top" xlink:title=" ">
<polygon fill="white" stroke="black" points="615.67,-230 615.67,-249 747.67,-249 747.67,-230 615.67,-230"/>
<text text-anchor="middle" x="681.67" y="-237" font-family="Helvetica,sans-Serif" font-size="10.00">BayesFilters/StateModel.h</text>
</a>
</g>
</g>
<!-- Node21&#45;&gt;Node23 -->
<g id="edge46" class="edge">
<title>Node21&#45;&gt;Node23</title>
<path fill="none" stroke="midnightblue" d="M473.46,-369.37C571.36,-362.8 778.5,-346.2 799.67,-322 826.96,-290.82 768.91,-265.74 724.94,-252"/>
<polygon fill="midnightblue" stroke="midnightblue" points="725.83,-248.61 715.24,-249.08 723.81,-255.32 725.83,-248.61"/>
</g>
<!-- Node24 -->
<g id="node24" class="node">
<title>Node24</title>
<g id="a_node24"><a xlink:href="ExogenousModel_8h.html" target="_top" xlink:title=" ">
<polygon fill="white" stroke="black" points="727.67,-168.5 727.67,-187.5 885.67,-187.5 885.67,-168.5 727.67,-168.5"/>
<text text-anchor="middle" x="806.67" y="-175.5" font-family="Helvetica,sans-Serif" font-size="10.00">BayesFilters/ExogenousModel.h</text>
</a>
</g>
</g>
<!-- Node21&#45;&gt;Node24 -->
<g id="edge42" class="edge">
<title>Node21&#45;&gt;Node24</title>
<path fill="none" stroke="midnightblue" d="M473.39,-369.68C574.7,-363.53 794.32,-347.4 816.67,-322 847.41,-287.07 827.92,-226.89 815.17,-196.97"/>
<polygon fill="midnightblue" stroke="midnightblue" points="818.32,-195.44 811.04,-187.74 811.93,-198.3 818.32,-195.44"/>
</g>
<!-- Node29 -->
<g id="node29" class="node">
<title>Node29</title>
<g id="a_node29"><a xlink:title=" ">
<polygon fill="white" stroke="#bfbfbf" points="393.17,-297 393.17,-316 452.17,-316 452.17,-297 393.17,-297"/>
<text text-anchor="middle" x="422.67" y="-304" font-family="Helvetica,sans-Serif" font-size="10.00">functional</text>
</a>
</g>
</g>
<!-- Node21&#45;&gt;Node29 -->
<g id="edge47" class="edge">
<title>Node21&#45;&gt;Node29</title>
<path fill="none" stroke="midnightblue" d="M422.67,-358.4C422.67,-349.06 422.67,-336.71 422.67,-326.52"/>
<polygon fill="midnightblue" stroke="midnightblue" points="426.17,-326.19 422.67,-316.19 419.17,-326.19 426.17,-326.19"/>
</g>
<!-- Node22&#45;&gt;Node23 -->
<g id="edge30" class="edge">
<title>Node22&#45;&gt;Node23</title>
<path fill="none" stroke="midnightblue" d="M714.56,-291.4C708.21,-281.56 699.69,-268.38 692.91,-257.89"/>
<polygon fill="midnightblue" stroke="midnightblue" points="695.66,-255.69 687.29,-249.19 689.78,-259.49 695.66,-255.69"/>
</g>
<!-- Node23&#45;&gt;Node8 -->
<g id="edge40" class="edge">
<title>Node23&#45;&gt;Node8</title>
<path fill="none" stroke="midnightblue" d="M652.15,-230C624.81,-221.46 583.53,-206.89 550.67,-188 496.83,-157.05 442.01,-107.7 415.7,-82.66"/>
<polygon fill="midnightblue" stroke="midnightblue" points="418.11,-80.13 408.48,-75.72 413.26,-85.18 418.11,-80.13"/>
</g>
<!-- Node23&#45;&gt;Node24 -->
<g id="edge31" class="edge">
<title>Node23&#45;&gt;Node24</title>
<path fill="none" stroke="midnightblue" d="M699.58,-229.98C720.56,-219.99 755.52,-203.35 779.77,-191.81"/>
<polygon fill="midnightblue" stroke="midnightblue" points="781.27,-194.97 788.8,-187.51 778.27,-188.65 781.27,-194.97"/>
</g>
<!-- Node26 -->
<g id="node26" class="node">
<title>Node26</title>
<g id="a_node26"><a xlink:href="Skippable_8h.html" target="_top" xlink:title=" ">
<polygon fill="white" stroke="black" points="517.17,-112.5 517.17,-131.5 642.17,-131.5 642.17,-112.5 517.17,-112.5"/>
<text text-anchor="middle" x="579.67" y="-119.5" font-family="Helvetica,sans-Serif" font-size="10.00">BayesFilters/Skippable.h</text>
</a>
</g>
</g>
<!-- Node23&#45;&gt;Node26 -->
<g id="edge37" class="edge">
<title>Node23&#45;&gt;Node26</title>
<path fill="none" stroke="midnightblue" d="M625.89,-229.93C600.93,-223.02 573.78,-210.53 558.67,-188 548.91,-173.43 557.43,-154.01 566.37,-140.2"/>
<polygon fill="midnightblue" stroke="midnightblue" points="569.5,-141.85 572.41,-131.66 563.78,-137.8 569.5,-141.85"/>
</g>
<!-- Node28 -->
<g id="node28" class="node">
<title>Node28</title>
<g id="a_node28"><a xlink:href="StateProcess_8h.html" target="_top" xlink:title=" ">
<polygon fill="white" stroke="black" points="567.67,-168.5 567.67,-187.5 709.67,-187.5 709.67,-168.5 567.67,-168.5"/>
<text text-anchor="middle" x="638.67" y="-175.5" font-family="Helvetica,sans-Serif" font-size="10.00">BayesFilters/StateProcess.h</text>
</a>
</g>
</g>
<!-- Node23&#45;&gt;Node28 -->
<g id="edge38" class="edge">
<title>Node23&#45;&gt;Node28</title>
<path fill="none" stroke="midnightblue" d="M675.51,-229.98C669.06,-221.05 658.77,-206.81 650.7,-195.64"/>
<polygon fill="midnightblue" stroke="midnightblue" points="653.52,-193.56 644.82,-187.51 647.84,-197.66 653.52,-193.56"/>
</g>
<!-- Node25 -->
<g id="node25" class="node">
<title>Node25</title>
<g id="a_node25"><a xlink:href="ExogenousProcess_8h.html" target="_top" xlink:title=" ">
<polygon fill="white" stroke="black" points="719.17,-112.5 719.17,-131.5 886.17,-131.5 886.17,-112.5 719.17,-112.5"/>
<text text-anchor="middle" x="802.67" y="-119.5" font-family="Helvetica,sans-Serif" font-size="10.00">BayesFilters/ExogenousProcess.h</text>
</a>
</g>
</g>
<!-- Node24&#45;&gt;Node25 -->
<g id="edge32" class="edge">
<title>Node24&#45;&gt;Node25</title>
<path fill="none" stroke="midnightblue" d="M806.01,-168.08C805.49,-161.01 804.74,-150.86 804.08,-141.99"/>
<polygon fill="midnightblue" stroke="midnightblue" points="807.55,-141.47 803.32,-131.75 800.57,-141.98 807.55,-141.47"/>
</g>
<!-- Node24&#45;&gt;Node26 -->
<g id="edge34" class="edge">
<title>Node24&#45;&gt;Node26</title>
<path fill="none" stroke="midnightblue" d="M770.71,-168.44C731.36,-159.08 668.19,-144.06 625.36,-133.87"/>
<polygon fill="midnightblue" stroke="midnightblue" points="626.01,-130.43 615.48,-131.52 624.39,-137.24 626.01,-130.43"/>
</g>
<!-- Node25&#45;&gt;Node18 -->
<g id="edge33" class="edge">
<title>Node25&#45;&gt;Node18</title>
<path fill="none" stroke="midnightblue" d="M806.31,-112.08C809.29,-104.77 813.6,-94.18 817.3,-85.1"/>
<polygon fill="midnightblue" stroke="midnightblue" points="820.58,-86.33 821.11,-75.75 814.1,-83.69 820.58,-86.33"/>
</g>
<!-- Node27 -->
<g id="node27" class="node">
<title>Node27</title>
<g id="a_node27"><a xlink:href="Skipper_8h.html" target="_top" xlink:title=" ">
<polygon fill="white" stroke="black" points="483.17,-56.5 483.17,-75.5 598.17,-75.5 598.17,-56.5 483.17,-56.5"/>
<text text-anchor="middle" x="540.67" y="-63.5" font-family="Helvetica,sans-Serif" font-size="10.00">BayesFilters/Skipper.h</text>
</a>
</g>
</g>
<!-- Node26&#45;&gt;Node27 -->
<g id="edge35" class="edge">
<title>Node26&#45;&gt;Node27</title>
<path fill="none" stroke="midnightblue" d="M573.23,-112.08C567.73,-104.46 559.64,-93.26 552.91,-83.94"/>
<polygon fill="midnightblue" stroke="midnightblue" points="555.69,-81.81 547,-75.75 550.01,-85.91 555.69,-81.81"/>
</g>
<!-- Node27&#45;&gt;Node15 -->
<g id="edge36" class="edge">
<title>Node27&#45;&gt;Node15</title>
<path fill="none" stroke="midnightblue" d="M502.33,-56.44C454.33,-45.73 373.1,-27.61 329.13,-17.8"/>
<polygon fill="midnightblue" stroke="midnightblue" points="329.83,-14.37 319.31,-15.6 328.31,-21.2 329.83,-14.37"/>
</g>
<!-- Node28&#45;&gt;Node18 -->
<g id="edge39" class="edge">
<title>Node28&#45;&gt;Node18</title>
<path fill="none" stroke="midnightblue" d="M646.31,-168.34C658.67,-154.77 684.34,-128.33 710.67,-112 733.83,-97.64 762.34,-86.39 785.06,-78.72"/>
<polygon fill="midnightblue" stroke="midnightblue" points="786.31,-82 794.73,-75.56 784.14,-75.34 786.31,-82"/>
</g>
<!-- Node30&#45;&gt;Node8 -->
<g id="edge54" class="edge">
<title>Node30&#45;&gt;Node8</title>
<path fill="none" stroke="midnightblue" d="M1018.06,-117.95C915.32,-111.59 674.97,-95.84 473.67,-76 461.42,-74.79 448.06,-73.24 436.1,-71.76"/>
<polygon fill="midnightblue" stroke="midnightblue" points="436.37,-68.27 426.01,-70.5 435.5,-75.22 436.37,-68.27"/>
</g>
<!-- Node30&#45;&gt;Node15 -->
<g id="edge55" class="edge">
<title>Node30&#45;&gt;Node15</title>
<path fill="none" stroke="midnightblue" d="M1048.02,-112.39C1012.49,-98 937.19,-69.33 870.67,-56 666.96,-15.16 415.49,-11 329.31,-10.86"/>
<polygon fill="midnightblue" stroke="midnightblue" points="329.18,-7.36 319.18,-10.86 329.18,-14.36 329.18,-7.36"/>
</g>
<!-- Node30&#45;&gt;Node18 -->
<g id="edge51" class="edge">
<title>Node30&#45;&gt;Node18</title>
<path fill="none" stroke="midnightblue" d="M1030.01,-112.44C987.04,-102.93 917.63,-87.57 871.58,-77.38"/>
<polygon fill="midnightblue" stroke="midnightblue" points="872.08,-73.91 861.56,-75.16 870.57,-80.74 872.08,-73.91"/>
</g>
<!-- Node31 -->
<g id="node31" class="node">
<title>Node31</title>
<g id="a_node31"><a xlink:title=" ">
<polygon fill="white" stroke="#bfbfbf" points="1013.67,-56.5 1013.67,-75.5 1059.67,-75.5 1059.67,-56.5 1013.67,-56.5"/>
<text text-anchor="middle" x="1036.67" y="-63.5" font-family="Helvetica,sans-Serif" font-size="10.00">chrono</text>
</a>
</g>
</g>
<!-- Node30&#45;&gt;Node31 -->
<g id="edge52" class="edge">
<title>Node30&#45;&gt;Node31</title>
<path fill="none" stroke="midnightblue" d="M1063.39,-112.08C1058.96,-104.61 1052.51,-93.72 1047.06,-84.52"/>
<polygon fill="midnightblue" stroke="midnightblue" points="1049.97,-82.57 1041.86,-75.75 1043.95,-86.14 1049.97,-82.57"/>
</g>
<!-- Node32 -->
<g id="node32" class="node">
<title>Node32</title>
<g id="a_node32"><a xlink:title=" ">
<polygon fill="white" stroke="#bfbfbf" points="1077.67,-56.5 1077.67,-75.5 1121.67,-75.5 1121.67,-56.5 1077.67,-56.5"/>
<text text-anchor="middle" x="1099.67" y="-63.5" font-family="Helvetica,sans-Serif" font-size="10.00">cmath</text>
</a>
</g>
</g>
<!-- Node30&#45;&gt;Node32 -->
<g id="edge53" class="edge">
<title>Node30&#45;&gt;Node32</title>
<path fill="none" stroke="midnightblue" d="M1073.79,-112.08C1078.08,-104.61 1084.33,-93.72 1089.62,-84.52"/>
<polygon fill="midnightblue" stroke="midnightblue" points="1092.71,-86.17 1094.65,-75.75 1086.64,-82.68 1092.71,-86.17"/>
</g>
</g>
</svg>
        <g id="navigator" transform="translate(0 0)" fill="#404254">
                <rect fill="#f2f5e9" fill-opacity="0.5" stroke="#606060" stroke-width=".5" x="0" y="0" width="60" height="60"/>
                <use id="zoomplus" xlink:href="#zoomPlus" x="17" y="9" onmousedown="handleZoom(evt,'in')"/>
                <use id="zoomminus" xlink:href="#zoomMin" x="42" y="9" onmousedown="handleZoom(evt,'out')"/>
                <use id="reset" xlink:href="#resetDef" x="30" y="36" onmousedown="handleReset()"/>
                <g id="arrowUp" xlink:href="#dirArrow" transform="translate(30 24)" onmousedown="handlePan(0,-1)">
                  <use xlink:href="#rim" fill="#404040">
                        <set attributeName="fill" to="#808080" begin="arrowUp.mouseover" end="arrowUp.mouseout"/>
                  </use>
                  <path fill="none" stroke="white" stroke-width="1.5" d="M0,-3.0v7 M-2.5,-0.5L0,-3.0L2.5,-0.5"/>
                </g>
                <g id="arrowRight" xlink:href="#dirArrow" transform="rotate(90) translate(36 -43)" onmousedown="handlePan(1,0)">
                  <use xlink:href="#rim" fill="#404040">
                        <set attributeName="fill" to="#808080" begin="arrowRight.mouseover" end="arrowRight.mouseout"/>
                  </use>
                  <path fill="none" stroke="white" stroke-width="1.5" d="M0,-3.0v7 M-2.5,-0.5L0,-3.0L2.5,-0.5"/>
                </g>
                <g id="arrowDown" xlink:href="#dirArrow" transform="rotate(180) translate(-30 -48)" onmousedown="handlePan(0,1)">
                  <use xlink:href="#rim" fill="#404040">
                        <set attributeName="fill" to="#808080" begin="arrowDown.mouseover" end="arrowDown.mouseout"/>
                  </use>
                  <path fill="none" stroke="white" stroke-width="1.5" d="M0,-3.0v7 M-2.5,-0.5L0,-3.0L2.5,-0.5"/>
                </g>
                <g id="arrowLeft" xlink:href="#dirArrow" transform="rotate(270) translate(-36 17)" onmousedown="handlePan(-1,0)">
                  <use xlink:href="#rim" fill="#404040">
                        <set attributeName="fill" to="#808080" begin="arrowLeft.mouseover" end="arrowLeft.mouseout"/>
                  </use>
                  <path fill="none" stroke="white" stroke-width="1.5" d="M0,-3.0v7 M-2.5,-0.5L0,-3.0L2.5,-0.5"/>
                </g>
        </g>
        <svg viewBox="0 0 15 15" width="100%" height="30px" preserveAspectRatio="xMaxYMin meet">
         <g id="arrow_out" transform="scale(0.3 0.3)">
          <a xlink:href="UKFCorrection_8cpp__incl_org.svg" target="_base">
           <rect id="button" ry="5" rx="5" y="6" x="6" height="38" width="38"
                fill="#f2f5e9" fill-opacity="0.5" stroke="#606060" stroke-width="1.0"/>
           <path id="arrow"
             d="M 11.500037,31.436501 C 11.940474,20.09759 22.043105,11.32322 32.158766,21.979434 L 37.068811,17.246167 C 37.068811,17.246167 37.088388,32 37.088388,32 L 22.160133,31.978069 C 22.160133,31.978069 26.997745,27.140456 26.997745,27.140456 C 18.528582,18.264221 13.291696,25.230495 11.500037,31.436501 z"
             style="fill:#404040;"/>
          </a>
         </g>
        </svg>
</svg>
