<?xml version="1.0" encoding="UTF-8" standalone="no"?>
<!DOCTYPE svg PUBLIC "-//W3C//DTD SVG 1.1//EN"
 "http://www.w3.org/Graphics/SVG/1.1/DTD/svg11.dtd">
<!-- Generated by graphviz version 2.43.0 (0)
 -->
<!-- Title: /home/user/bayes&#45;filters&#45;lib/src/BayesFilters/include/BayesFilters/UKFPrediction.h Pages: 1 -->
<svg width="1594pt" height="475pt"
 viewBox="0.00 0.00 1594.02 475.00" xmlns="http://www.w3.org/2000/svg" xmlns:xlink="http://www.w3.org/1999/xlink">
<g id="graph0" class="graph" transform="scale(1 1) rotate(0) translate(4 471)">
<title>/home/user/bayes&#45;filters&#45;lib/src/BayesFilters/include/BayesFilters/UKFPrediction.h</title>
<polygon fill="white" stroke="transparent" points="-4,4 -4,-471 1590.02,-471 1590.02,4 -4,4"/>
<!-- Node1 -->
<g id="node1" class="node">
<title>Node1</title>
<g id="a_node1"><a xlink:title=" ">
<polygon fill="#bfbfbf" stroke="black" points="372.02,-425.5 372.02,-466.5 533.02,-466.5 533.02,-425.5 372.02,-425.5"/>
<text text-anchor="start" x="380.02" y="-454.5" font-family="Helvetica,sans-Serif" font-size="10.00">/home/user/bayes&#45;filters</text>
<text text-anchor="start" x="380.02" y="-443.5" font-family="Helvetica,sans-Serif" font-size="10.00">&#45;lib/src/BayesFilters/include</text>
<text text-anchor="middle" x="452.52" y="-432.5" font-family="Helvetica,sans-Serif" font-size="10.00">/BayesFilters/UKFPrediction.h</text>
</a>
</g>
</g>
<!-- Node2 -->
<g id="node2" class="node">
<title>Node2</title>
<g id="a_node2"><a xlink:href="AdditiveStateModel_8h.html" target="_top" xlink:title=" ">
<polygon fill="white" stroke="black" points="518.52,-291.5 518.52,-321.5 664.52,-321.5 664.52,-291.5 518.52,-291.5"/>
<text text-anchor="start" x="526.52" y="-309.5" font-family="Helvetica,sans-Serif" font-size="10.00">BayesFilters/AdditiveState</text>
<text text-anchor="middle" x="591.52" y="-298.5" font-family="Helvetica,sans-Serif" font-size="10.00">Model.h</text>
</a>
</g>
</g>
<!-- Node1&#45;&gt;Node2 -->
<g id="edge1" class="edge">
<title>Node1&#45;&gt;Node2</title>
<path fill="none" stroke="midnightblue" d="M472.44,-425.3C498.26,-399.75 543.15,-355.35 569.82,-328.97"/>
<polygon fill="midnightblue" stroke="midnightblue" points="572.5,-331.24 577.15,-321.72 567.58,-326.26 572.5,-331.24"/>
</g>
<!-- Node3 -->
<g id="node3" class="node">
<title>Node3</title>
<g id="a_node3"><a xlink:href="StateModel_8h.html" target="_top" xlink:title=" ">
<polygon fill="white" stroke="black" points="376.52,-230 376.52,-249 520.52,-249 520.52,-230 376.52,-230"/>
<text text-anchor="middle" x="448.52" y="-237" font-family="Helvetica,sans-Serif" font-size="10.00">BayesFilters/StateModel.h</text>
</a>
</g>
</g>
<!-- Node1&#45;&gt;Node3 -->
<g id="edge58" class="edge">
<title>Node1&#45;&gt;Node3</title>
<path fill="none" stroke="midnightblue" d="M446.33,-425.27C443.32,-414.64 440.03,-401.23 438.52,-389 433.2,-345.77 434.27,-334.35 438.52,-291 439.57,-280.26 441.86,-268.42 443.98,-258.9"/>
<polygon fill="midnightblue" stroke="midnightblue" points="447.42,-259.54 446.31,-249 440.61,-257.93 447.42,-259.54"/>
</g>
<!-- Node4 -->
<g id="node4" class="node">
<title>Node4</title>
<g id="a_node4"><a xlink:href="ExogenousModel_8h.html" target="_top" xlink:title=" ">
<polygon fill="white" stroke="black" points="246.02,-168.5 246.02,-187.5 417.02,-187.5 417.02,-168.5 246.02,-168.5"/>
<text text-anchor="middle" x="331.52" y="-175.5" font-family="Helvetica,sans-Serif" font-size="10.00">BayesFilters/ExogenousModel.h</text>
</a>
</g>
</g>
<!-- Node1&#45;&gt;Node4 -->
<g id="edge17" class="edge">
<title>Node1&#45;&gt;Node4</title>
<path fill="none" stroke="midnightblue" d="M443.62,-425.44C420.99,-375.69 361.49,-244.89 339.68,-196.95"/>
<polygon fill="midnightblue" stroke="midnightblue" points="342.74,-195.22 335.42,-187.56 336.37,-198.11 342.74,-195.22"/>
</g>
<!-- Node13 -->
<g id="node13" class="node">
<title>Node13</title>
<g id="a_node13"><a xlink:title=" ">
<polygon fill="white" stroke="#bfbfbf" points="1181.52,-56.5 1181.52,-75.5 1239.52,-75.5 1239.52,-56.5 1181.52,-56.5"/>
<text text-anchor="middle" x="1210.52" y="-63.5" font-family="Helvetica,sans-Serif" font-size="10.00">memory</text>
</a>
</g>
</g>
<!-- Node1&#45;&gt;Node13 -->
<g id="edge59" class="edge">
<title>Node1&#45;&gt;Node13</title>
<path fill="none" stroke="midnightblue" d="M533.29,-440.68C749.22,-428.07 1323.52,-387.06 1323.52,-307.5 1323.52,-307.5 1323.52,-307.5 1323.52,-177 1323.52,-130.4 1273.57,-97.14 1240.09,-80.08"/>
<polygon fill="midnightblue" stroke="midnightblue" points="1241.24,-76.75 1230.72,-75.51 1238.17,-83.04 1241.24,-76.75"/>
</g>
<!-- Node14 -->
<g id="node14" class="node">
<title>Node14</title>
<g id="a_node14"><a xlink:href="GaussianMixture_8h.html" target="_top" xlink:title=" ">
<polygon fill="white" stroke="black" points="512.02,-168.5 512.02,-187.5 683.02,-187.5 683.02,-168.5 512.02,-168.5"/>
<text text-anchor="middle" x="597.52" y="-175.5" font-family="Helvetica,sans-Serif" font-size="10.00">BayesFilters/GaussianMixture.h</text>
</a>
</g>
</g>
<!-- Node1&#45;&gt;Node14 -->
<g id="edge18" class="edge">
<title>Node1&#45;&gt;Node14</title>
<path fill="none" stroke="midnightblue" d="M457.7,-425.19C466.06,-395.01 484.18,-336.28 509.52,-291 530.32,-253.83 562.98,-215.97 582.11,-195.18"/>
<polygon fill="midnightblue" stroke="midnightblue" points="584.92,-197.3 589.19,-187.6 579.8,-192.52 584.92,-197.3"/>
</g>
<!-- Node16 -->
<g id="node16" class="node">
<title>Node16</title>
<g id="a_node16"><a xlink:href="GaussianPrediction_8h.html" target="_top" xlink:title=" ">
<polygon fill="white" stroke="black" points="89.52,-297 89.52,-316 271.52,-316 271.52,-297 89.52,-297"/>
<text text-anchor="middle" x="180.52" y="-304" font-family="Helvetica,sans-Serif" font-size="10.00">BayesFilters/GaussianPrediction.h</text>
</a>
</g>
</g>
<!-- Node1&#45;&gt;Node16 -->
<g id="edge21" class="edge">
<title>Node1&#45;&gt;Node16</title>
<path fill="none" stroke="midnightblue" d="M410.25,-425.49C387.67,-414.92 359.45,-401.51 334.52,-389 288.41,-365.87 235.39,-337.39 205.13,-320.95"/>
<polygon fill="midnightblue" stroke="midnightblue" points="206.6,-317.76 196.14,-316.06 203.25,-323.91 206.6,-317.76"/>
</g>
<!-- Node18 -->
<g id="node18" class="node">
<title>Node18</title>
<g id="a_node18"><a xlink:href="sigma__point_8h.html" target="_top" xlink:title=" ">
<polygon fill="white" stroke="black" points="713.52,-358.5 713.52,-388.5 823.52,-388.5 823.52,-358.5 713.52,-358.5"/>
<text text-anchor="start" x="721.52" y="-376.5" font-family="Helvetica,sans-Serif" font-size="10.00">BayesFilters/sigma</text>
<text text-anchor="middle" x="768.52" y="-365.5" font-family="Helvetica,sans-Serif" font-size="10.00">_point.h</text>
</a>
</g>
</g>
<!-- Node1&#45;&gt;Node18 -->
<g id="edge29" class="edge">
<title>Node1&#45;&gt;Node18</title>
<path fill="none" stroke="midnightblue" d="M533.08,-427.03C585.94,-415.23 654.17,-400.01 703.55,-388.99"/>
<polygon fill="midnightblue" stroke="midnightblue" points="704.48,-392.37 713.48,-386.78 702.96,-385.54 704.48,-392.37"/>
</g>
<!-- Node2&#45;&gt;Node3 -->
<g id="edge2" class="edge">
<title>Node2&#45;&gt;Node3</title>
<path fill="none" stroke="midnightblue" d="M560.49,-291.4C535.51,-280.04 500.7,-264.22 476.56,-253.24"/>
<polygon fill="midnightblue" stroke="midnightblue" points="477.79,-249.96 467.24,-249.01 474.89,-256.33 477.79,-249.96"/>
</g>
<!-- Node6 -->
<g id="node6" class="node">
<title>Node6</title>
<g id="a_node6"><a xlink:href="VectorDescription_8h.html" target="_top" xlink:title=" ">
<polygon fill="white" stroke="black" points="648.02,-56.5 648.02,-75.5 823.02,-75.5 823.02,-56.5 648.02,-56.5"/>
<text text-anchor="middle" x="735.52" y="-63.5" font-family="Helvetica,sans-Serif" font-size="10.00">BayesFilters/VectorDescription.h</text>
</a>
</g>
</g>
<!-- Node2&#45;&gt;Node6 -->
<g id="edge16" class="edge">
<title>Node2&#45;&gt;Node6</title>
<path fill="none" stroke="midnightblue" d="M606.88,-291.31C628.6,-270.5 668.36,-229.65 692.52,-188 712.12,-154.22 725.03,-110.02 731.23,-85.47"/>
<polygon fill="midnightblue" stroke="midnightblue" points="734.65,-86.22 733.6,-75.68 727.84,-84.57 734.65,-86.22"/>
</g>
<!-- Node3&#45;&gt;Node4 -->
<g id="edge3" class="edge">
<title>Node3&#45;&gt;Node4</title>
<path fill="none" stroke="midnightblue" d="M431.76,-229.98C412.3,-220.08 379.98,-203.64 357.31,-192.12"/>
<polygon fill="midnightblue" stroke="midnightblue" points="358.75,-188.92 348.25,-187.51 355.58,-195.16 358.75,-188.92"/>
</g>
<!-- Node9 -->
<g id="node9" class="node">
<title>Node9</title>
<g id="a_node9"><a xlink:href="Skippable_8h.html" target="_top" xlink:title=" ">
<polygon fill="white" stroke="black" points="24.02,-112.5 24.02,-131.5 161.02,-131.5 161.02,-112.5 24.02,-112.5"/>
<text text-anchor="middle" x="92.52" y="-119.5" font-family="Helvetica,sans-Serif" font-size="10.00">BayesFilters/Skippable.h</text>
</a>
</g>
</g>
<!-- Node3&#45;&gt;Node9 -->
<g id="edge11" class="edge">
<title>Node3&#45;&gt;Node9</title>
<path fill="none" stroke="midnightblue" d="M401.48,-229.97C358.03,-221.46 292.02,-206.94 236.52,-188 193.79,-173.42 146.48,-150.72 118.14,-136.36"/>
<polygon fill="midnightblue" stroke="midnightblue" points="119.45,-133.1 108.95,-131.66 116.26,-139.33 119.45,-133.1"/>
</g>
<!-- Node12 -->
<g id="node12" class="node">
<title>Node12</title>
<g id="a_node12"><a xlink:href="StateProcess_8h.html" target="_top" xlink:title=" ">
<polygon fill="white" stroke="black" points="491.52,-112.5 491.52,-131.5 643.52,-131.5 643.52,-112.5 491.52,-112.5"/>
<text text-anchor="middle" x="567.52" y="-119.5" font-family="Helvetica,sans-Serif" font-size="10.00">BayesFilters/StateProcess.h</text>
</a>
</g>
</g>
<!-- Node3&#45;&gt;Node12 -->
<g id="edge12" class="edge">
<title>Node3&#45;&gt;Node12</title>
<path fill="none" stroke="midnightblue" d="M448.88,-229.59C449.92,-215.03 453.95,-185.94 469.52,-168 483.11,-152.35 503.27,-141.82 521.78,-134.91"/>
<polygon fill="midnightblue" stroke="midnightblue" points="522.96,-138.2 531.26,-131.62 520.67,-131.59 522.96,-138.2"/>
</g>
<!-- Node3&#45;&gt;Node13 -->
<g id="edge15" class="edge">
<title>Node3&#45;&gt;Node13</title>
<path fill="none" stroke="midnightblue" d="M452.62,-229.98C460.33,-214.9 478.51,-183.63 503.52,-168 528.95,-152.11 737.89,-116.63 767.52,-112 915.6,-88.84 1093.48,-74.95 1171.08,-69.57"/>
<polygon fill="midnightblue" stroke="midnightblue" points="1171.62,-73.04 1181.36,-68.87 1171.14,-66.06 1171.62,-73.04"/>
</g>
<!-- Node5 -->
<g id="node5" class="node">
<title>Node5</title>
<g id="a_node5"><a xlink:href="ExogenousProcess_8h.html" target="_top" xlink:title=" ">
<polygon fill="white" stroke="black" points="256.02,-112.5 256.02,-131.5 435.02,-131.5 435.02,-112.5 256.02,-112.5"/>
<text text-anchor="middle" x="345.52" y="-119.5" font-family="Helvetica,sans-Serif" font-size="10.00">BayesFilters/ExogenousProcess.h</text>
</a>
</g>
</g>
<!-- Node4&#45;&gt;Node5 -->
<g id="edge4" class="edge">
<title>Node4&#45;&gt;Node5</title>
<path fill="none" stroke="midnightblue" d="M333.83,-168.08C335.69,-160.93 338.36,-150.64 340.67,-141.69"/>
<polygon fill="midnightblue" stroke="midnightblue" points="344.13,-142.31 343.25,-131.75 337.35,-140.55 344.13,-142.31"/>
</g>
<!-- Node4&#45;&gt;Node9 -->
<g id="edge8" class="edge">
<title>Node4&#45;&gt;Node9</title>
<path fill="none" stroke="midnightblue" d="M293.65,-168.44C252.04,-159.04 185.15,-143.93 140.05,-133.74"/>
<polygon fill="midnightblue" stroke="midnightblue" points="140.74,-130.31 130.21,-131.52 139.2,-137.13 140.74,-130.31"/>
</g>
<!-- Node5&#45;&gt;Node6 -->
<g id="edge5" class="edge">
<title>Node5&#45;&gt;Node6</title>
<path fill="none" stroke="midnightblue" d="M407.32,-112.44C477.06,-102.79 590.36,-87.1 663.91,-76.92"/>
<polygon fill="midnightblue" stroke="midnightblue" points="664.59,-80.35 674.01,-75.52 663.63,-73.42 664.59,-80.35"/>
</g>
<!-- Node8 -->
<g id="node8" class="node">
<title>Node8</title>
<g id="a_node8"><a xlink:title=" ">
<polygon fill="white" stroke="#bfbfbf" points="307.02,-56.5 307.02,-75.5 384.02,-75.5 384.02,-56.5 307.02,-56.5"/>
<text text-anchor="middle" x="345.52" y="-63.5" font-family="Helvetica,sans-Serif" font-size="10.00">Eigen/Dense</text>
</a>
</g>
</g>
<!-- Node5&#45;&gt;Node8 -->
<g id="edge7" class="edge">
<title>Node5&#45;&gt;Node8</title>
<path fill="none" stroke="midnightblue" d="M345.52,-112.08C345.52,-105.01 345.52,-94.86 345.52,-85.99"/>
<polygon fill="midnightblue" stroke="midnightblue" points="349.02,-85.75 345.52,-75.75 342.02,-85.75 349.02,-85.75"/>
</g>
<!-- Node7 -->
<g id="node7" class="node">
<title>Node7</title>
<g id="a_node7"><a xlink:title=" ">
<polygon fill="white" stroke="#bfbfbf" points="709.02,-0.5 709.02,-19.5 762.02,-19.5 762.02,-0.5 709.02,-0.5"/>
<text text-anchor="middle" x="735.52" y="-7.5" font-family="Helvetica,sans-Serif" font-size="10.00">cstddef</text>
</a>
</g>
</g>
<!-- Node6&#45;&gt;Node7 -->
<g id="edge6" class="edge">
<title>Node6&#45;&gt;Node7</title>
<path fill="none" stroke="midnightblue" d="M735.52,-56.08C735.52,-49.01 735.52,-38.86 735.52,-29.99"/>
<polygon fill="midnightblue" stroke="midnightblue" points="739.02,-29.75 735.52,-19.75 732.02,-29.75 739.02,-29.75"/>
</g>
<!-- Node10 -->
<g id="node10" class="node">
<title>Node10</title>
<g id="a_node10"><a xlink:href="Skipper_8h.html" target="_top" xlink:title=" ">
<polygon fill="white" stroke="black" points="97.02,-56.5 97.02,-75.5 222.02,-75.5 222.02,-56.5 97.02,-56.5"/>
<text text-anchor="middle" x="159.52" y="-63.5" font-family="Helvetica,sans-Serif" font-size="10.00">BayesFilters/Skipper.h</text>
</a>
</g>
</g>
<!-- Node9&#45;&gt;Node10 -->
<g id="edge9" class="edge">
<title>Node9&#45;&gt;Node10</title>
<path fill="none" stroke="midnightblue" d="M103.29,-112.32C113.29,-104.26 128.41,-92.08 140.45,-82.37"/>
<polygon fill="midnightblue" stroke="midnightblue" points="142.97,-84.83 148.56,-75.83 138.58,-79.38 142.97,-84.83"/>
</g>
<!-- Node11 -->
<g id="node11" class="node">
<title>Node11</title>
<g id="a_node11"><a xlink:title=" ">
<polygon fill="white" stroke="#bfbfbf" points="829.52,-0.5 829.52,-19.5 873.52,-19.5 873.52,-0.5 829.52,-0.5"/>
<text text-anchor="middle" x="851.52" y="-7.5" font-family="Helvetica,sans-Serif" font-size="10.00">string</text>
</a>
</g>
</g>
<!-- Node10&#45;&gt;Node11 -->
<g id="edge10" class="edge">
<title>Node10&#45;&gt;Node11</title>
<path fill="none" stroke="midnightblue" d="M222.09,-60.71C355.88,-51.48 666.17,-29.8 771.52,-20 787.31,-18.53 804.82,-16.6 819.42,-14.9"/>
<polygon fill="midnightblue" stroke="midnightblue" points="819.95,-18.36 829.47,-13.71 819.13,-11.41 819.95,-18.36"/>
</g>
<!-- Node12&#45;&gt;Node6 -->
<g id="edge13" class="edge">
<title>Node12&#45;&gt;Node6</title>
<path fill="none" stroke="midnightblue" d="M594.14,-112.44C622.53,-103.32 667.66,-88.81 699.27,-78.65"/>
<polygon fill="midnightblue" stroke="midnightblue" points="700.58,-81.91 709.02,-75.52 698.43,-75.24 700.58,-81.91"/>
</g>
<!-- Node12&#45;&gt;Node8 -->
<g id="edge14" class="edge">
<title>Node12&#45;&gt;Node8</title>
<path fill="none" stroke="midnightblue" d="M532.34,-112.44C493.94,-103.1 432.34,-88.12 390.47,-77.93"/>
<polygon fill="midnightblue" stroke="midnightblue" points="391.08,-74.48 380.53,-75.52 389.42,-81.28 391.08,-74.48"/>
</g>
<!-- Node14&#45;&gt;Node8 -->
<g id="edge20" class="edge">
<title>Node14&#45;&gt;Node8</title>
<path fill="none" stroke="midnightblue" d="M512,-171.87C413.77,-165.09 263.82,-151.66 246.52,-132 225.66,-108.3 265.45,-89.64 300.63,-78.51"/>
<polygon fill="midnightblue" stroke="midnightblue" points="301.82,-81.81 310.38,-75.57 299.79,-75.1 301.82,-81.81"/>
</g>
<!-- Node15 -->
<g id="node15" class="node">
<title>Node15</title>
<g id="a_node15"><a xlink:title=" ">
<polygon fill="white" stroke="#bfbfbf" points="776.02,-112.5 776.02,-131.5 823.02,-131.5 823.02,-112.5 776.02,-112.5"/>
<text text-anchor="middle" x="799.52" y="-119.5" font-family="Helvetica,sans-Serif" font-size="10.00">vector</text>
</a>
</g>
</g>
<!-- Node14&#45;&gt;Node15 -->
<g id="edge19" class="edge">
<title>Node14&#45;&gt;Node15</title>
<path fill="none" stroke="midnightblue" d="M629.53,-168.44C666.75,-158.49 727.9,-142.15 765.83,-132.01"/>
<polygon fill="midnightblue" stroke="midnightblue" points="767.11,-135.29 775.87,-129.32 765.3,-128.52 767.11,-135.29"/>
</g>
<!-- Node16&#45;&gt;Node3 -->
<g id="edge27" class="edge">
<title>Node16&#45;&gt;Node3</title>
<path fill="none" stroke="midnightblue" d="M215.83,-296.94C264.04,-285.24 350.47,-264.28 403.35,-251.46"/>
<polygon fill="midnightblue" stroke="midnightblue" points="404.24,-254.84 413.13,-249.08 402.59,-248.04 404.24,-254.84"/>
</g>
<!-- Node16&#45;&gt;Node4 -->
<g id="edge22" class="edge">
<title>Node16&#45;&gt;Node4</title>
<path fill="none" stroke="midnightblue" d="M172.09,-296.81C157.73,-280.93 131.7,-246.77 149.52,-224 162.38,-207.57 208.02,-196.31 250.37,-189.16"/>
<polygon fill="midnightblue" stroke="midnightblue" points="251.16,-192.58 260.47,-187.52 250.04,-185.67 251.16,-192.58"/>
</g>
<!-- Node16&#45;&gt;Node8 -->
<g id="edge28" class="edge">
<title>Node16&#45;&gt;Node8</title>
<path fill="none" stroke="midnightblue" d="M162.79,-296.97C108.61,-269.81 -47.49,-183.01 14.52,-112 23.72,-101.47 206.92,-81.26 296.73,-71.94"/>
<polygon fill="midnightblue" stroke="midnightblue" points="297.35,-75.39 306.94,-70.88 296.64,-68.43 297.35,-75.39"/>
</g>
<!-- Node16&#45;&gt;Node9 -->
<g id="edge26" class="edge">
<title>Node16&#45;&gt;Node9</title>
<path fill="none" stroke="midnightblue" d="M171.96,-296.88C162.87,-287.33 148.59,-271.15 139.52,-255 118.25,-217.15 103.79,-167.91 96.99,-141.56"/>
<polygon fill="midnightblue" stroke="midnightblue" points="100.36,-140.63 94.54,-131.77 93.57,-142.32 100.36,-140.63"/>
</g>
<!-- Node17 -->
<g id="node17" class="node">
<title>Node17</title>
<g id="a_node17"><a xlink:href="GaussianMixturePrediction_8h.html" target="_top" xlink:title=" ">
<polygon fill="white" stroke="black" points="158.52,-224.5 158.52,-254.5 320.52,-254.5 320.52,-224.5 158.52,-224.5"/>
<text text-anchor="start" x="166.52" y="-242.5" font-family="Helvetica,sans-Serif" font-size="10.00">BayesFilters/GaussianMixture</text>
<text text-anchor="middle" x="239.52" y="-231.5" font-family="Helvetica,sans-Serif" font-size="10.00">Prediction.h</text>
</a>
</g>
</g>
<!-- Node16&#45;&gt;Node17 -->
<g id="edge23" class="edge">
<title>Node16&#45;&gt;Node17</title>
<path fill="none" stroke="midnightblue" d="M188.48,-296.73C196.45,-287.95 209.04,-274.08 219.72,-262.31"/>
<polygon fill="midnightblue" stroke="midnightblue" points="222.6,-264.35 226.73,-254.59 217.42,-259.64 222.6,-264.35"/>
</g>
<!-- Node17&#45;&gt;Node8 -->
<g id="edge25" class="edge">
<title>Node17&#45;&gt;Node8</title>
<path fill="none" stroke="midnightblue" d="M234.51,-224.49C226.53,-199.48 214.06,-146.52 237.52,-112 250.99,-92.19 274.97,-81.08 296.92,-74.86"/>
<polygon fill="midnightblue" stroke="midnightblue" points="297.99,-78.2 306.81,-72.33 296.26,-71.42 297.99,-78.2"/>
</g>
<!-- Node17&#45;&gt;Node14 -->
<g id="edge24" class="edge">
<title>Node17&#45;&gt;Node14</title>
<path fill="none" stroke="midnightblue" d="M320.76,-225C386.18,-214.12 476.75,-199.07 536.21,-189.19"/>
<polygon fill="midnightblue" stroke="midnightblue" points="536.91,-192.62 546.2,-187.53 535.76,-185.72 536.91,-192.62"/>
</g>
<!-- Node18&#45;&gt;Node2 -->
<g id="edge49" class="edge">
<title>Node18&#45;&gt;Node2</title>
<path fill="none" stroke="midnightblue" d="M730.11,-358.4C703.56,-348.64 668.03,-335.59 639.59,-325.15"/>
<polygon fill="midnightblue" stroke="midnightblue" points="640.45,-321.74 629.85,-321.58 638.03,-328.31 640.45,-321.74"/>
</g>
<!-- Node18&#45;&gt;Node3 -->
<g id="edge54" class="edge">
<title>Node18&#45;&gt;Node3</title>
<path fill="none" stroke="midnightblue" d="M713.28,-372.98C657.79,-371.01 571.8,-361.08 509.52,-322 484.78,-306.47 466.55,-277.02 456.75,-258.1"/>
<polygon fill="midnightblue" stroke="midnightblue" points="459.85,-256.48 452.29,-249.06 453.57,-259.57 459.85,-256.48"/>
</g>
<!-- Node18&#45;&gt;Node4 -->
<g id="edge51" class="edge">
<title>Node18&#45;&gt;Node4</title>
<path fill="none" stroke="midnightblue" d="M750.61,-358.46C738.07,-348.5 721.04,-334.71 706.52,-322 691.38,-308.75 690.19,-302.28 673.52,-291 587.9,-233.07 470.08,-203.24 397.46,-189.38"/>
<polygon fill="midnightblue" stroke="midnightblue" points="397.99,-185.92 387.52,-187.53 396.71,-192.8 397.99,-185.92"/>
</g>
<!-- Node18&#45;&gt;Node6 -->
<g id="edge55" class="edge">
<title>Node18&#45;&gt;Node6</title>
<path fill="none" stroke="midnightblue" d="M823.78,-369.98C976.81,-361 1387.1,-322.27 1266.52,-168 1214.37,-101.28 971.82,-78.44 833.26,-70.76"/>
<polygon fill="midnightblue" stroke="midnightblue" points="833.24,-67.26 823.06,-70.22 832.86,-74.25 833.24,-67.26"/>
</g>
<!-- Node18&#45;&gt;Node8 -->
<g id="edge57" class="edge">
<title>Node18&#45;&gt;Node8</title>
<path fill="none" stroke="midnightblue" d="M767.87,-358.39C765.31,-320.87 752.87,-218.05 692.52,-168 619.63,-107.55 572.35,-161.95 482.52,-132 464.04,-125.84 461.04,-120.51 443.52,-112 420.33,-100.73 393.72,-88.57 374.09,-79.73"/>
<polygon fill="midnightblue" stroke="midnightblue" points="375.35,-76.45 364.79,-75.55 372.48,-82.84 375.35,-76.45"/>
</g>
<!-- Node18&#45;&gt;Node14 -->
<g id="edge52" class="edge">
<title>Node18&#45;&gt;Node14</title>
<path fill="none" stroke="midnightblue" d="M758.49,-358.25C746.62,-341.66 726.01,-313.63 706.52,-291 675.59,-255.09 636.12,-216.04 614.16,-194.85"/>
<polygon fill="midnightblue" stroke="midnightblue" points="616.3,-192.05 606.66,-187.65 611.45,-197.1 616.3,-192.05"/>
</g>
<!-- Node19 -->
<g id="node19" class="node">
<title>Node19</title>
<g id="a_node19"><a xlink:href="AdditiveMeasurementModel_8h.html" target="_top" xlink:title=" ">
<polygon fill="white" stroke="black" points="796.52,-291.5 796.52,-321.5 984.52,-321.5 984.52,-291.5 796.52,-291.5"/>
<text text-anchor="start" x="804.52" y="-309.5" font-family="Helvetica,sans-Serif" font-size="10.00">BayesFilters/AdditiveMeasurement</text>
<text text-anchor="middle" x="890.52" y="-298.5" font-family="Helvetica,sans-Serif" font-size="10.00">Model.h</text>
</a>
</g>
</g>
<!-- Node18&#45;&gt;Node19 -->
<g id="edge30" class="edge">
<title>Node18&#45;&gt;Node19</title>
<path fill="none" stroke="midnightblue" d="M794.99,-358.4C812.58,-349.03 835.87,-336.62 855.06,-326.39"/>
<polygon fill="midnightblue" stroke="midnightblue" points="856.92,-329.37 864.1,-321.58 853.63,-323.19 856.92,-329.37"/>
</g>
<!-- Node20 -->
<g id="node20" class="node">
<title>Node20</title>
<g id="a_node20"><a xlink:href="MeasurementModel_8h.html" target="_top" xlink:title=" ">
<polygon fill="white" stroke="black" points="939.02,-224.5 939.02,-254.5 1086.02,-254.5 1086.02,-224.5 939.02,-224.5"/>
<text text-anchor="start" x="947.02" y="-242.5" font-family="Helvetica,sans-Serif" font-size="10.00">BayesFilters/Measurement</text>
<text text-anchor="middle" x="1012.52" y="-231.5" font-family="Helvetica,sans-Serif" font-size="10.00">Model.h</text>
</a>
</g>
</g>
<!-- Node18&#45;&gt;Node20 -->
<g id="edge53" class="edge">
<title>Node18&#45;&gt;Node20</title>
<path fill="none" stroke="midnightblue" d="M823.65,-366.84C882.33,-359.69 969.93,-345.4 993.52,-322 1008.45,-307.19 1012.57,-283.06 1013.33,-264.9"/>
<polygon fill="midnightblue" stroke="midnightblue" points="1016.84,-264.79 1013.45,-254.75 1009.84,-264.71 1016.84,-264.79"/>
</g>
<!-- Node21 -->
<g id="node21" class="node">
<title>Node21</title>
<g id="a_node21"><a xlink:href="Data_8h.html" target="_top" xlink:title=" ">
<polygon fill="white" stroke="black" points="1145.52,-168.5 1145.52,-187.5 1257.52,-187.5 1257.52,-168.5 1145.52,-168.5"/>
<text text-anchor="middle" x="1201.52" y="-175.5" font-family="Helvetica,sans-Serif" font-size="10.00">BayesFilters/Data.h</text>
</a>
</g>
</g>
<!-- Node18&#45;&gt;Node21 -->
<g id="edge50" class="edge">
<title>Node18&#45;&gt;Node21</title>
<path fill="none" stroke="midnightblue" d="M823.66,-370.16C909.16,-365.6 1068.76,-353.1 1115.52,-322 1161.05,-291.72 1186.19,-228.35 1196.26,-197.15"/>
<polygon fill="midnightblue" stroke="midnightblue" points="1199.61,-198.15 1199.2,-187.56 1192.92,-196.1 1199.61,-198.15"/>
</g>
<!-- Node31 -->
<g id="node31" class="node">
<title>Node31</title>
<g id="a_node31"><a xlink:title=" ">
<polygon fill="white" stroke="#bfbfbf" points="1041.02,-297 1041.02,-316 1106.02,-316 1106.02,-297 1041.02,-297"/>
<text text-anchor="middle" x="1073.52" y="-304" font-family="Helvetica,sans-Serif" font-size="10.00">functional</text>
</a>
</g>
</g>
<!-- Node18&#45;&gt;Node31 -->
<g id="edge56" class="edge">
<title>Node18&#45;&gt;Node31</title>
<path fill="none" stroke="midnightblue" d="M823.75,-363.44C876.25,-354.41 957.25,-339.41 1026.52,-322 1030.13,-321.09 1033.87,-320.08 1037.59,-319.01"/>
<polygon fill="midnightblue" stroke="midnightblue" points="1038.72,-322.33 1047.31,-316.12 1036.73,-315.62 1038.72,-322.33"/>
</g>
<!-- Node19&#45;&gt;Node20 -->
<g id="edge31" class="edge">
<title>Node19&#45;&gt;Node20</title>
<path fill="none" stroke="midnightblue" d="M916.99,-291.4C934.58,-282.03 957.87,-269.62 977.06,-259.39"/>
<polygon fill="midnightblue" stroke="midnightblue" points="978.92,-262.37 986.1,-254.58 975.63,-256.19 978.92,-262.37"/>
</g>
<!-- Node20&#45;&gt;Node6 -->
<g id="edge44" class="edge">
<title>Node20&#45;&gt;Node6</title>
<path fill="none" stroke="midnightblue" d="M1019.42,-224.36C1030.84,-198.65 1049.87,-143.98 1022.52,-112 998.33,-83.72 906.67,-73.09 833.36,-69.16"/>
<polygon fill="midnightblue" stroke="midnightblue" points="833.31,-65.65 823.15,-68.65 832.96,-72.65 833.31,-65.65"/>
</g>
<!-- Node20&#45;&gt;Node8 -->
<g id="edge48" class="edge">
<title>Node20&#45;&gt;Node8</title>
<path fill="none" stroke="midnightblue" d="M948.14,-224.42C910.47,-215.48 862.26,-202.81 820.52,-188 743.29,-160.59 731.16,-135.06 652.52,-112 563.59,-85.93 455.53,-74.57 394.22,-69.93"/>
<polygon fill="midnightblue" stroke="midnightblue" points="394.29,-66.43 384.06,-69.19 393.78,-73.41 394.29,-66.43"/>
</g>
<!-- Node20&#45;&gt;Node11 -->
<g id="edge46" class="edge">
<title>Node20&#45;&gt;Node11</title>
<path fill="none" stroke="midnightblue" d="M1025.88,-224.32C1033.87,-214.84 1043.25,-201.64 1047.52,-188 1053.24,-169.71 1048.67,-122.58 1041.52,-112 1004.33,-56.99 927.19,-29.68 883.5,-18.12"/>
<polygon fill="midnightblue" stroke="midnightblue" points="884.23,-14.7 873.68,-15.64 882.51,-21.48 884.23,-14.7"/>
</g>
<!-- Node20&#45;&gt;Node13 -->
<g id="edge45" class="edge">
<title>Node20&#45;&gt;Node13</title>
<path fill="none" stroke="midnightblue" d="M1038.78,-224.32C1055.19,-214.95 1076.38,-201.86 1093.52,-188 1134.61,-154.79 1176.02,-108.13 1196.8,-83.59"/>
<polygon fill="midnightblue" stroke="midnightblue" points="1199.74,-85.53 1203.48,-75.62 1194.38,-81.03 1199.74,-85.53"/>
</g>
<!-- Node20&#45;&gt;Node21 -->
<g id="edge32" class="edge">
<title>Node20&#45;&gt;Node21</title>
<path fill="none" stroke="midnightblue" d="M1057.31,-224.4C1089.97,-214.12 1133.7,-200.35 1164.41,-190.68"/>
<polygon fill="midnightblue" stroke="midnightblue" points="1165.81,-193.91 1174.3,-187.57 1163.71,-187.24 1165.81,-193.91"/>
</g>
<!-- Node27 -->
<g id="node27" class="node">
<title>Node27</title>
<g id="a_node27"><a xlink:href="Logger_8h.html" target="_top" xlink:title=" ">
<polygon fill="white" stroke="black" points="829.02,-168.5 829.02,-187.5 950.02,-187.5 950.02,-168.5 829.02,-168.5"/>
<text text-anchor="middle" x="889.52" y="-175.5" font-family="Helvetica,sans-Serif" font-size="10.00">BayesFilters/Logger.h</text>
</a>
</g>
</g>
<!-- Node20&#45;&gt;Node27 -->
<g id="edge39" class="edge">
<title>Node20&#45;&gt;Node27</title>
<path fill="none" stroke="midnightblue" d="M983.37,-224.4C963.1,-214.59 936.28,-201.62 916.5,-192.05"/>
<polygon fill="midnightblue" stroke="midnightblue" points="917.94,-188.86 907.42,-187.66 914.9,-195.16 917.94,-188.86"/>
</g>
<!-- Node30 -->
<g id="node30" class="node">
<title>Node30</title>
<g id="a_node30"><a xlink:title=" ">
<polygon fill="white" stroke="#bfbfbf" points="968.02,-168.5 968.02,-187.5 1013.02,-187.5 1013.02,-168.5 968.02,-168.5"/>
<text text-anchor="middle" x="990.52" y="-175.5" font-family="Helvetica,sans-Serif" font-size="10.00">utility</text>
</a>
</g>
</g>
<!-- Node20&#45;&gt;Node30 -->
<g id="edge47" class="edge">
<title>Node20&#45;&gt;Node30</title>
<path fill="none" stroke="midnightblue" d="M1007.31,-224.4C1004.31,-216.29 1000.51,-206.01 997.28,-197.28"/>
<polygon fill="midnightblue" stroke="midnightblue" points="1000.47,-195.82 993.72,-187.66 993.91,-198.25 1000.47,-195.82"/>
</g>
<!-- Node22 -->
<g id="node22" class="node">
<title>Node22</title>
<g id="a_node22"><a xlink:href="any_8h.html" target="_top" xlink:title=" ">
<polygon fill="white" stroke="black" points="1352.02,-112.5 1352.02,-131.5 1457.02,-131.5 1457.02,-112.5 1352.02,-112.5"/>
<text text-anchor="middle" x="1404.52" y="-119.5" font-family="Helvetica,sans-Serif" font-size="10.00">BayesFilters/any.h</text>
</a>
</g>
</g>
<!-- Node21&#45;&gt;Node22 -->
<g id="edge33" class="edge">
<title>Node21&#45;&gt;Node22</title>
<path fill="none" stroke="midnightblue" d="M1233.69,-168.44C1268.58,-159.16 1324.41,-144.31 1362.69,-134.13"/>
<polygon fill="midnightblue" stroke="midnightblue" points="1363.74,-137.47 1372.5,-131.52 1361.94,-130.7 1363.74,-137.47"/>
</g>
<!-- Node22&#45;&gt;Node13 -->
<g id="edge35" class="edge">
<title>Node22&#45;&gt;Node13</title>
<path fill="none" stroke="midnightblue" d="M1373.78,-112.44C1340.09,-103.07 1285.97,-88 1249.36,-77.81"/>
<polygon fill="midnightblue" stroke="midnightblue" points="1250.1,-74.39 1239.53,-75.08 1248.23,-81.13 1250.1,-74.39"/>
</g>
<!-- Node23 -->
<g id="node23" class="node">
<title>Node23</title>
<g id="a_node23"><a xlink:title=" ">
<polygon fill="white" stroke="#bfbfbf" points="1438.52,-56.5 1438.52,-75.5 1502.52,-75.5 1502.52,-56.5 1438.52,-56.5"/>
<text text-anchor="middle" x="1470.52" y="-63.5" font-family="Helvetica,sans-Serif" font-size="10.00">algorithm</text>
</a>
</g>
</g>
<!-- Node22&#45;&gt;Node23 -->
<g id="edge34" class="edge">
<title>Node22&#45;&gt;Node23</title>
<path fill="none" stroke="midnightblue" d="M1415.12,-112.32C1424.98,-104.26 1439.87,-92.08 1451.74,-82.37"/>
<polygon fill="midnightblue" stroke="midnightblue" points="1454.2,-84.88 1459.72,-75.83 1449.77,-79.46 1454.2,-84.88"/>
</g>
<!-- Node24 -->
<g id="node24" class="node">
<title>Node24</title>
<g id="a_node24"><a xlink:title=" ">
<polygon fill="white" stroke="#bfbfbf" points="1521.02,-56.5 1521.02,-75.5 1586.02,-75.5 1586.02,-56.5 1521.02,-56.5"/>
<text text-anchor="middle" x="1553.52" y="-63.5" font-family="Helvetica,sans-Serif" font-size="10.00">stdexcept</text>
</a>
</g>
</g>
<!-- Node22&#45;&gt;Node24 -->
<g id="edge36" class="edge">
<title>Node22&#45;&gt;Node24</title>
<path fill="none" stroke="midnightblue" d="M1428.13,-112.44C1452.98,-103.44 1492.29,-89.19 1520.27,-79.05"/>
<polygon fill="midnightblue" stroke="midnightblue" points="1521.81,-82.21 1530.02,-75.52 1519.43,-75.63 1521.81,-82.21"/>
</g>
<!-- Node25 -->
<g id="node25" class="node">
<title>Node25</title>
<g id="a_node25"><a xlink:title=" ">
<polygon fill="white" stroke="#bfbfbf" points="1276.02,-56.5 1276.02,-75.5 1333.02,-75.5 1333.02,-56.5 1276.02,-56.5"/>
<text text-anchor="middle" x="1304.52" y="-63.5" font-family="Helvetica,sans-Serif" font-size="10.00">typeinfo</text>
</a>
</g>
</g>
<!-- Node22&#45;&gt;Node25 -->
<g id="edge37" class="edge">
<title>Node22&#45;&gt;Node25</title>
<path fill="none" stroke="midnightblue" d="M1388.45,-112.32C1372.56,-103.74 1348.01,-90.49 1329.56,-80.52"/>
<polygon fill="midnightblue" stroke="midnightblue" points="1331.01,-77.33 1320.55,-75.65 1327.68,-83.49 1331.01,-77.33"/>
</g>
<!-- Node26 -->
<g id="node26" class="node">
<title>Node26</title>
<g id="a_node26"><a xlink:title=" ">
<polygon fill="white" stroke="#bfbfbf" points="1351.02,-56.5 1351.02,-75.5 1420.02,-75.5 1420.02,-56.5 1351.02,-56.5"/>
<text text-anchor="middle" x="1385.52" y="-63.5" font-family="Helvetica,sans-Serif" font-size="10.00">type_traits</text>
</a>
</g>
</g>
<!-- Node22&#45;&gt;Node26 -->
<g id="edge38" class="edge">
<title>Node22&#45;&gt;Node26</title>
<path fill="none" stroke="midnightblue" d="M1401.38,-112.08C1398.84,-104.85 1395.16,-94.41 1391.99,-85.4"/>
<polygon fill="midnightblue" stroke="midnightblue" points="1395.22,-84.02 1388.6,-75.75 1388.62,-86.35 1395.22,-84.02"/>
</g>
<!-- Node27&#45;&gt;Node11 -->
<g id="edge42" class="edge">
<title>Node27&#45;&gt;Node11</title>
<path fill="none" stroke="midnightblue" d="M885.35,-168.23C881.27,-159.3 875.14,-144.97 871.52,-132 861.63,-96.58 855.98,-53.87 853.35,-29.83"/>
<polygon fill="midnightblue" stroke="midnightblue" points="856.81,-29.23 852.3,-19.65 849.85,-29.95 856.81,-29.23"/>
</g>
<!-- Node27&#45;&gt;Node15 -->
<g id="edge43" class="edge">
<title>Node27&#45;&gt;Node15</title>
<path fill="none" stroke="midnightblue" d="M875.06,-168.32C861.02,-159.9 839.47,-146.97 822.98,-137.07"/>
<polygon fill="midnightblue" stroke="midnightblue" points="824.32,-133.8 813.94,-131.65 820.72,-139.8 824.32,-133.8"/>
</g>
<!-- Node28 -->
<g id="node28" class="node">
<title>Node28</title>
<g id="a_node28"><a xlink:title=" ">
<polygon fill="white" stroke="#bfbfbf" points="880.02,-112.5 880.02,-131.5 935.02,-131.5 935.02,-112.5 880.02,-112.5"/>
<text text-anchor="middle" x="907.52" y="-119.5" font-family="Helvetica,sans-Serif" font-size="10.00">fstream</text>
</a>
</g>
</g>
<!-- Node27&#45;&gt;Node28 -->
<g id="edge40" class="edge">
<title>Node27&#45;&gt;Node28</title>
<path fill="none" stroke="midnightblue" d="M892.49,-168.08C894.9,-160.85 898.38,-150.41 901.39,-141.4"/>
<polygon fill="midnightblue" stroke="midnightblue" points="904.76,-142.34 904.6,-131.75 898.12,-140.13 904.76,-142.34"/>
</g>
<!-- Node29 -->
<g id="node29" class="node">
<title>Node29</title>
<g id="a_node29"><a xlink:title=" ">
<polygon fill="white" stroke="#bfbfbf" points="953.52,-112.5 953.52,-131.5 1013.52,-131.5 1013.52,-112.5 953.52,-112.5"/>
<text text-anchor="middle" x="983.52" y="-119.5" font-family="Helvetica,sans-Serif" font-size="10.00">iostream</text>
</a>
</g>
</g>
<!-- Node27&#45;&gt;Node29 -->
<g id="edge41" class="edge">
<title>Node27&#45;&gt;Node29</title>
<path fill="none" stroke="midnightblue" d="M904.62,-168.32C919.42,-159.82 942.21,-146.73 959.5,-136.8"/>
<polygon fill="midnightblue" stroke="midnightblue" points="961.53,-139.67 968.46,-131.65 958.04,-133.6 961.53,-139.67"/>
</g>
</g>
</svg>
