<?xml version="1.0" encoding="UTF-8" standalone="no"?>
<!DOCTYPE svg PUBLIC "-//W3C//DTD SVG 1.1//EN"
 "http://www.w3.org/Graphics/SVG/1.1/DTD/svg11.dtd">
<!-- Generated by graphviz version 2.47.2 (0)
 -->
<!-- Title: /home/xenvre/robot&#45;code/bfl_robotology/src/BayesFilters/include/BayesFilters/UKFPrediction.h Pages: 1 -->
<svg width="1392pt" height="486pt"
 viewBox="0.00 0.00 1391.79 486.00" xmlns="http://www.w3.org/2000/svg" xmlns:xlink="http://www.w3.org/1999/xlink">
<g id="graph0" class="graph" transform="scale(1 1) rotate(0) translate(4 482)">
<title>/home/xenvre/robot&#45;code/bfl_robotology/src/BayesFilters/include/BayesFilters/UKFPrediction.h</title>
<polygon fill="white" stroke="transparent" points="-4,4 -4,-482 1387.79,-482 1387.79,4 -4,4"/>
<!-- Node1 -->
<g id="node1" class="node">
<title>Node1</title>
<g id="a_node1"><a xlink:title=" ">
<polygon fill="#bfbfbf" stroke="black" points="335.79,-425.5 335.79,-477.5 484.79,-477.5 484.79,-425.5 335.79,-425.5"/>
<text text-anchor="start" x="343.79" y="-465.5" font-family="Helvetica,sans-Serif" font-size="10.00">/home/xenvre/robot</text>
<text text-anchor="start" x="343.79" y="-454.5" font-family="Helvetica,sans-Serif" font-size="10.00">&#45;code/bfl_robotology</text>
<text text-anchor="start" x="343.79" y="-443.5" font-family="Helvetica,sans-Serif" font-size="10.00">/src/BayesFilters/include</text>
<text text-anchor="middle" x="410.29" y="-432.5" font-family="Helvetica,sans-Serif" font-size="10.00">/BayesFilters/UKFPrediction.h</text>
</a>
</g>
</g>
<!-- Node2 -->
<g id="node2" class="node">
<title>Node2</title>
<g id="a_node2"><a xlink:href="AdditiveStateModel_8h.html" target="_top" xlink:title=" ">
<polygon fill="white" stroke="black" points="343.79,-291.5 343.79,-321.5 476.79,-321.5 476.79,-291.5 343.79,-291.5"/>
<text text-anchor="start" x="351.79" y="-309.5" font-family="Helvetica,sans-Serif" font-size="10.00">BayesFilters/AdditiveState</text>
<text text-anchor="middle" x="410.29" y="-298.5" font-family="Helvetica,sans-Serif" font-size="10.00">Model.h</text>
</a>
</g>
</g>
<!-- Node1&#45;&gt;Node2 -->
<g id="edge1" class="edge">
<title>Node1&#45;&gt;Node2</title>
<path fill="none" stroke="midnightblue" d="M410.29,-425.26C410.29,-398.88 410.29,-357.78 410.29,-331.77"/>
<polygon fill="midnightblue" stroke="midnightblue" points="413.79,-331.63 410.29,-321.63 406.79,-331.63 413.79,-331.63"/>
</g>
<!-- Node3 -->
<g id="node3" class="node">
<title>Node3</title>
<g id="a_node3"><a xlink:href="StateModel_8h.html" target="_top" xlink:title=" ">
<polygon fill="white" stroke="black" points="216.29,-230 216.29,-249 348.29,-249 348.29,-230 216.29,-230"/>
<text text-anchor="middle" x="282.29" y="-237" font-family="Helvetica,sans-Serif" font-size="10.00">BayesFilters/StateModel.h</text>
</a>
</g>
</g>
<!-- Node1&#45;&gt;Node3 -->
<g id="edge52" class="edge">
<title>Node1&#45;&gt;Node3</title>
<path fill="none" stroke="midnightblue" d="M394.85,-425.17C368.48,-381.91 315.43,-294.88 292.85,-257.83"/>
<polygon fill="midnightblue" stroke="midnightblue" points="295.76,-255.88 287.57,-249.17 289.78,-259.53 295.76,-255.88"/>
</g>
<!-- Node4 -->
<g id="node4" class="node">
<title>Node4</title>
<g id="a_node4"><a xlink:href="ExogenousModel_8h.html" target="_top" xlink:title=" ">
<polygon fill="white" stroke="black" points="90.29,-168.5 90.29,-187.5 248.29,-187.5 248.29,-168.5 90.29,-168.5"/>
<text text-anchor="middle" x="169.29" y="-175.5" font-family="Helvetica,sans-Serif" font-size="10.00">BayesFilters/ExogenousModel.h</text>
</a>
</g>
</g>
<!-- Node1&#45;&gt;Node4 -->
<g id="edge13" class="edge">
<title>Node1&#45;&gt;Node4</title>
<path fill="none" stroke="midnightblue" d="M335.68,-445.86C256.12,-436.39 134.17,-407.82 79.29,-322 49.42,-275.3 112.7,-219.62 147.87,-193.67"/>
<polygon fill="midnightblue" stroke="midnightblue" points="150.06,-196.41 156.14,-187.73 145.97,-190.72 150.06,-196.41"/>
</g>
<!-- Node11 -->
<g id="node11" class="node">
<title>Node11</title>
<g id="a_node11"><a xlink:title=" ">
<polygon fill="white" stroke="#bfbfbf" points="1016.29,-56.5 1016.29,-75.5 1068.29,-75.5 1068.29,-56.5 1016.29,-56.5"/>
<text text-anchor="middle" x="1042.29" y="-63.5" font-family="Helvetica,sans-Serif" font-size="10.00">memory</text>
</a>
</g>
</g>
<!-- Node1&#45;&gt;Node11 -->
<g id="edge53" class="edge">
<title>Node1&#45;&gt;Node11</title>
<path fill="none" stroke="midnightblue" d="M485.11,-443.83C672.73,-426.1 1148.29,-374.55 1148.29,-307.5 1148.29,-307.5 1148.29,-307.5 1148.29,-177 1148.29,-131.81 1101.34,-98.05 1069.93,-80.52"/>
<polygon fill="midnightblue" stroke="midnightblue" points="1071.22,-77.24 1060.75,-75.61 1067.92,-83.41 1071.22,-77.24"/>
</g>
<!-- Node12 -->
<g id="node12" class="node">
<title>Node12</title>
<g id="a_node12"><a xlink:href="GaussianMixture_8h.html" target="_top" xlink:title=" ">
<polygon fill="white" stroke="black" points="502.29,-168.5 502.29,-187.5 658.29,-187.5 658.29,-168.5 502.29,-168.5"/>
<text text-anchor="middle" x="580.29" y="-175.5" font-family="Helvetica,sans-Serif" font-size="10.00">BayesFilters/GaussianMixture.h</text>
</a>
</g>
</g>
<!-- Node1&#45;&gt;Node12 -->
<g id="edge14" class="edge">
<title>Node1&#45;&gt;Node12</title>
<path fill="none" stroke="midnightblue" d="M435.38,-425.36C469,-390.24 528.27,-323.11 561.29,-255 570.17,-236.68 575.16,-213.81 577.77,-197.96"/>
<polygon fill="midnightblue" stroke="midnightblue" points="581.27,-198.24 579.28,-187.83 574.34,-197.21 581.27,-198.24"/>
</g>
<!-- Node14 -->
<g id="node14" class="node">
<title>Node14</title>
<g id="a_node14"><a xlink:href="GaussianPrediction_8h.html" target="_top" xlink:title=" ">
<polygon fill="white" stroke="black" points="88.79,-297 88.79,-316 255.79,-316 255.79,-297 88.79,-297"/>
<text text-anchor="middle" x="172.29" y="-304" font-family="Helvetica,sans-Serif" font-size="10.00">BayesFilters/GaussianPrediction.h</text>
</a>
</g>
</g>
<!-- Node1&#45;&gt;Node14 -->
<g id="edge17" class="edge">
<title>Node1&#45;&gt;Node14</title>
<path fill="none" stroke="midnightblue" d="M342.84,-425.38C319.17,-415.4 292.87,-402.96 270.29,-389 238.81,-369.53 206.63,-340.72 188.11,-323.08"/>
<polygon fill="midnightblue" stroke="midnightblue" points="190.45,-320.47 180.82,-316.04 185.59,-325.51 190.45,-320.47"/>
</g>
<!-- Node16 -->
<g id="node16" class="node">
<title>Node16</title>
<g id="a_node16"><a xlink:href="sigma__point_8h.html" target="_top" xlink:title=" ">
<polygon fill="white" stroke="black" points="612.79,-358.5 612.79,-388.5 713.79,-388.5 713.79,-358.5 612.79,-358.5"/>
<text text-anchor="start" x="620.79" y="-376.5" font-family="Helvetica,sans-Serif" font-size="10.00">BayesFilters/sigma</text>
<text text-anchor="middle" x="663.29" y="-365.5" font-family="Helvetica,sans-Serif" font-size="10.00">_point.h</text>
</a>
</g>
</g>
<!-- Node1&#45;&gt;Node16 -->
<g id="edge25" class="edge">
<title>Node1&#45;&gt;Node16</title>
<path fill="none" stroke="midnightblue" d="M484.83,-428.11C523.73,-416.42 570.57,-402.35 606.5,-391.56"/>
<polygon fill="midnightblue" stroke="midnightblue" points="607.76,-394.83 616.33,-388.61 605.75,-388.13 607.76,-394.83"/>
</g>
<!-- Node2&#45;&gt;Node3 -->
<g id="edge2" class="edge">
<title>Node2&#45;&gt;Node3</title>
<path fill="none" stroke="midnightblue" d="M382.51,-291.4C360.35,-280.14 329.55,-264.5 307.96,-253.54"/>
<polygon fill="midnightblue" stroke="midnightblue" points="309.54,-250.41 299.04,-249.01 306.37,-256.66 309.54,-250.41"/>
</g>
<!-- Node3&#45;&gt;Node4 -->
<g id="edge3" class="edge">
<title>Node3&#45;&gt;Node4</title>
<path fill="none" stroke="midnightblue" d="M266.1,-229.98C247.38,-220.12 216.36,-203.79 194.49,-192.27"/>
<polygon fill="midnightblue" stroke="midnightblue" points="195.93,-189.07 185.45,-187.51 192.66,-195.27 195.93,-189.07"/>
</g>
<!-- Node7 -->
<g id="node7" class="node">
<title>Node7</title>
<g id="a_node7"><a xlink:href="Skippable_8h.html" target="_top" xlink:title=" ">
<polygon fill="white" stroke="black" points="25.79,-112.5 25.79,-131.5 150.79,-131.5 150.79,-112.5 25.79,-112.5"/>
<text text-anchor="middle" x="88.29" y="-119.5" font-family="Helvetica,sans-Serif" font-size="10.00">BayesFilters/Skippable.h</text>
</a>
</g>
</g>
<!-- Node3&#45;&gt;Node7 -->
<g id="edge9" class="edge">
<title>Node3&#45;&gt;Node7</title>
<path fill="none" stroke="midnightblue" d="M216.24,-230.68C164.26,-223.01 97.91,-209.32 81.29,-188 71.05,-174.88 74.84,-155.46 79.94,-141.27"/>
<polygon fill="midnightblue" stroke="midnightblue" points="83.34,-142.21 83.89,-131.62 76.86,-139.55 83.34,-142.21"/>
</g>
<!-- Node10 -->
<g id="node10" class="node">
<title>Node10</title>
<g id="a_node10"><a xlink:href="StateProcess_8h.html" target="_top" xlink:title=" ">
<polygon fill="white" stroke="black" points="266.29,-168.5 266.29,-187.5 408.29,-187.5 408.29,-168.5 266.29,-168.5"/>
<text text-anchor="middle" x="337.29" y="-175.5" font-family="Helvetica,sans-Serif" font-size="10.00">BayesFilters/StateProcess.h</text>
</a>
</g>
</g>
<!-- Node3&#45;&gt;Node10 -->
<g id="edge10" class="edge">
<title>Node3&#45;&gt;Node10</title>
<path fill="none" stroke="midnightblue" d="M290.17,-229.98C298.58,-220.87 312.11,-206.24 322.51,-194.98"/>
<polygon fill="midnightblue" stroke="midnightblue" points="325.2,-197.23 329.42,-187.51 320.06,-192.48 325.2,-197.23"/>
</g>
<!-- Node3&#45;&gt;Node11 -->
<g id="edge12" class="edge">
<title>Node3&#45;&gt;Node11</title>
<path fill="none" stroke="midnightblue" d="M305.79,-229.97C332.79,-220.1 378.38,-203.26 417.29,-188 500.04,-155.54 516.07,-133.63 602.29,-112 748.82,-75.23 930.01,-68.4 1006.03,-67.21"/>
<polygon fill="midnightblue" stroke="midnightblue" points="1006.1,-70.71 1016.05,-67.07 1006,-63.71 1006.1,-70.71"/>
</g>
<!-- Node5 -->
<g id="node5" class="node">
<title>Node5</title>
<g id="a_node5"><a xlink:href="ExogenousProcess_8h.html" target="_top" xlink:title=" ">
<polygon fill="white" stroke="black" points="210.79,-112.5 210.79,-131.5 377.79,-131.5 377.79,-112.5 210.79,-112.5"/>
<text text-anchor="middle" x="294.29" y="-119.5" font-family="Helvetica,sans-Serif" font-size="10.00">BayesFilters/ExogenousProcess.h</text>
</a>
</g>
</g>
<!-- Node4&#45;&gt;Node5 -->
<g id="edge4" class="edge">
<title>Node4&#45;&gt;Node5</title>
<path fill="none" stroke="midnightblue" d="M189.09,-168.44C209.57,-159.6 241.77,-145.69 265.15,-135.59"/>
<polygon fill="midnightblue" stroke="midnightblue" points="266.78,-138.7 274.57,-131.52 264.01,-132.27 266.78,-138.7"/>
</g>
<!-- Node4&#45;&gt;Node7 -->
<g id="edge6" class="edge">
<title>Node4&#45;&gt;Node7</title>
<path fill="none" stroke="midnightblue" d="M156.27,-168.32C143.76,-159.98 124.61,-147.21 109.82,-137.35"/>
<polygon fill="midnightblue" stroke="midnightblue" points="111.53,-134.29 101.27,-131.65 107.65,-140.11 111.53,-134.29"/>
</g>
<!-- Node6 -->
<g id="node6" class="node">
<title>Node6</title>
<g id="a_node6"><a xlink:title=" ">
<polygon fill="white" stroke="#bfbfbf" points="437.79,-56.5 437.79,-75.5 510.79,-75.5 510.79,-56.5 437.79,-56.5"/>
<text text-anchor="middle" x="474.29" y="-63.5" font-family="Helvetica,sans-Serif" font-size="10.00">Eigen/Dense</text>
</a>
</g>
</g>
<!-- Node5&#45;&gt;Node6 -->
<g id="edge5" class="edge">
<title>Node5&#45;&gt;Node6</title>
<path fill="none" stroke="midnightblue" d="M322.81,-112.44C353.35,-103.28 402,-88.69 435.89,-78.52"/>
<polygon fill="midnightblue" stroke="midnightblue" points="437.33,-81.74 445.9,-75.52 435.32,-75.04 437.33,-81.74"/>
</g>
<!-- Node8 -->
<g id="node8" class="node">
<title>Node8</title>
<g id="a_node8"><a xlink:href="Skipper_8h.html" target="_top" xlink:title=" ">
<polygon fill="white" stroke="black" points="204.79,-56.5 204.79,-75.5 319.79,-75.5 319.79,-56.5 204.79,-56.5"/>
<text text-anchor="middle" x="262.29" y="-63.5" font-family="Helvetica,sans-Serif" font-size="10.00">BayesFilters/Skipper.h</text>
</a>
</g>
</g>
<!-- Node7&#45;&gt;Node8 -->
<g id="edge7" class="edge">
<title>Node7&#45;&gt;Node8</title>
<path fill="none" stroke="midnightblue" d="M115.86,-112.44C145.38,-103.28 192.41,-88.69 225.17,-78.52"/>
<polygon fill="midnightblue" stroke="midnightblue" points="226.33,-81.82 234.85,-75.52 224.26,-75.14 226.33,-81.82"/>
</g>
<!-- Node9 -->
<g id="node9" class="node">
<title>Node9</title>
<g id="a_node9"><a xlink:title=" ">
<polygon fill="white" stroke="#bfbfbf" points="758.79,-0.5 758.79,-19.5 799.79,-19.5 799.79,-0.5 758.79,-0.5"/>
<text text-anchor="middle" x="779.29" y="-7.5" font-family="Helvetica,sans-Serif" font-size="10.00">string</text>
</a>
</g>
</g>
<!-- Node8&#45;&gt;Node9 -->
<g id="edge8" class="edge">
<title>Node8&#45;&gt;Node9</title>
<path fill="none" stroke="midnightblue" d="M320.09,-58.96C429.77,-47.51 664.62,-22.98 748.63,-14.2"/>
<polygon fill="midnightblue" stroke="midnightblue" points="749.2,-17.66 758.78,-13.14 748.47,-10.7 749.2,-17.66"/>
</g>
<!-- Node10&#45;&gt;Node6 -->
<g id="edge11" class="edge">
<title>Node10&#45;&gt;Node6</title>
<path fill="none" stroke="midnightblue" d="M348.04,-168.37C371.25,-149.73 426.3,-105.53 455.44,-82.13"/>
<polygon fill="midnightblue" stroke="midnightblue" points="457.98,-84.58 463.59,-75.59 453.6,-79.12 457.98,-84.58"/>
</g>
<!-- Node12&#45;&gt;Node6 -->
<g id="edge16" class="edge">
<title>Node12&#45;&gt;Node6</title>
<path fill="none" stroke="midnightblue" d="M571.97,-168.37C554.24,-149.97 512.52,-106.67 489.76,-83.05"/>
<polygon fill="midnightblue" stroke="midnightblue" points="492.03,-80.36 482.57,-75.59 486.98,-85.22 492.03,-80.36"/>
</g>
<!-- Node13 -->
<g id="node13" class="node">
<title>Node13</title>
<g id="a_node13"><a xlink:title=" ">
<polygon fill="white" stroke="#bfbfbf" points="611.29,-112.5 611.29,-131.5 655.29,-131.5 655.29,-112.5 611.29,-112.5"/>
<text text-anchor="middle" x="633.29" y="-119.5" font-family="Helvetica,sans-Serif" font-size="10.00">vector</text>
</a>
</g>
</g>
<!-- Node12&#45;&gt;Node13 -->
<g id="edge15" class="edge">
<title>Node12&#45;&gt;Node13</title>
<path fill="none" stroke="midnightblue" d="M589.04,-168.08C596.76,-160.22 608.19,-148.57 617.5,-139.08"/>
<polygon fill="midnightblue" stroke="midnightblue" points="620.19,-141.34 624.7,-131.75 615.2,-136.44 620.19,-141.34"/>
</g>
<!-- Node14&#45;&gt;Node3 -->
<g id="edge23" class="edge">
<title>Node14&#45;&gt;Node3</title>
<path fill="none" stroke="midnightblue" d="M187.12,-296.73C205.59,-285.82 237.36,-267.05 259.07,-254.22"/>
<polygon fill="midnightblue" stroke="midnightblue" points="260.86,-257.23 267.69,-249.13 257.3,-251.2 260.86,-257.23"/>
</g>
<!-- Node14&#45;&gt;Node4 -->
<g id="edge18" class="edge">
<title>Node14&#45;&gt;Node4</title>
<path fill="none" stroke="midnightblue" d="M172.08,-296.81C171.6,-276.49 170.39,-225.55 169.73,-197.78"/>
<polygon fill="midnightblue" stroke="midnightblue" points="173.23,-197.67 169.49,-187.76 166.23,-197.84 173.23,-197.67"/>
</g>
<!-- Node14&#45;&gt;Node6 -->
<g id="edge24" class="edge">
<title>Node14&#45;&gt;Node6</title>
<path fill="none" stroke="midnightblue" d="M151.76,-296.96C133.2,-288.45 105.98,-273.93 87.29,-255 37.43,-204.51 -31.37,-164.57 16.29,-112 30,-96.88 313.71,-77.22 427.59,-69.91"/>
<polygon fill="midnightblue" stroke="midnightblue" points="427.99,-73.39 437.74,-69.26 427.54,-66.4 427.99,-73.39"/>
</g>
<!-- Node14&#45;&gt;Node7 -->
<g id="edge22" class="edge">
<title>Node14&#45;&gt;Node7</title>
<path fill="none" stroke="midnightblue" d="M160.58,-296.77C138.08,-279.18 89.43,-236.93 71.29,-188 65.47,-172.31 71.51,-153.8 77.94,-140.55"/>
<polygon fill="midnightblue" stroke="midnightblue" points="81.11,-142.05 82.75,-131.58 74.94,-138.74 81.11,-142.05"/>
</g>
<!-- Node15 -->
<g id="node15" class="node">
<title>Node15</title>
<g id="a_node15"><a xlink:href="GaussianMixturePrediction_8h.html" target="_top" xlink:title=" ">
<polygon fill="white" stroke="black" points="404.29,-224.5 404.29,-254.5 552.29,-254.5 552.29,-224.5 404.29,-224.5"/>
<text text-anchor="start" x="412.29" y="-242.5" font-family="Helvetica,sans-Serif" font-size="10.00">BayesFilters/GaussianMixture</text>
<text text-anchor="middle" x="478.29" y="-231.5" font-family="Helvetica,sans-Serif" font-size="10.00">Prediction.h</text>
</a>
</g>
</g>
<!-- Node14&#45;&gt;Node15 -->
<g id="edge19" class="edge">
<title>Node14&#45;&gt;Node15</title>
<path fill="none" stroke="midnightblue" d="M212.61,-296.94C260.72,-286.71 342.21,-269.41 402.28,-256.65"/>
<polygon fill="midnightblue" stroke="midnightblue" points="403.05,-260.06 412.1,-254.56 401.59,-253.21 403.05,-260.06"/>
</g>
<!-- Node15&#45;&gt;Node6 -->
<g id="edge21" class="edge">
<title>Node15&#45;&gt;Node6</title>
<path fill="none" stroke="midnightblue" d="M477.96,-224.47C477.24,-193.7 475.53,-120.33 474.72,-85.7"/>
<polygon fill="midnightblue" stroke="midnightblue" points="478.22,-85.48 474.49,-75.56 471.22,-85.64 478.22,-85.48"/>
</g>
<!-- Node15&#45;&gt;Node12 -->
<g id="edge20" class="edge">
<title>Node15&#45;&gt;Node12</title>
<path fill="none" stroke="midnightblue" d="M502.46,-224.4C518.81,-214.86 540.3,-202.32 556.56,-192.84"/>
<polygon fill="midnightblue" stroke="midnightblue" points="558.57,-195.72 565.45,-187.66 555.04,-189.67 558.57,-195.72"/>
</g>
<!-- Node16&#45;&gt;Node2 -->
<g id="edge26" class="edge">
<title>Node16&#45;&gt;Node2</title>
<path fill="none" stroke="midnightblue" d="M612.7,-359.5C573.1,-349.33 517.75,-335.11 474.94,-324.11"/>
<polygon fill="midnightblue" stroke="midnightblue" points="475.73,-320.7 465.17,-321.6 473.99,-327.48 475.73,-320.7"/>
</g>
<!-- Node16&#45;&gt;Node3 -->
<g id="edge49" class="edge">
<title>Node16&#45;&gt;Node3</title>
<path fill="none" stroke="midnightblue" d="M636.95,-358.46C602.93,-340.77 541.52,-310.36 486.29,-291 436.82,-273.66 378.63,-259.88 337.09,-251.13"/>
<polygon fill="midnightblue" stroke="midnightblue" points="337.67,-247.67 327.17,-249.06 336.24,-254.52 337.67,-247.67"/>
</g>
<!-- Node16&#45;&gt;Node4 -->
<g id="edge34" class="edge">
<title>Node16&#45;&gt;Node4</title>
<path fill="none" stroke="midnightblue" d="M645.58,-358.35C622.12,-340.26 578.84,-309.12 537.29,-291 477.61,-264.97 453.44,-284.27 395.29,-255 375.82,-245.2 376.82,-233.67 357.29,-224 322.79,-206.93 281.48,-196.12 246.37,-189.39"/>
<polygon fill="midnightblue" stroke="midnightblue" points="246.64,-185.88 236.17,-187.52 245.37,-192.77 246.64,-185.88"/>
</g>
<!-- Node16&#45;&gt;Node6 -->
<g id="edge51" class="edge">
<title>Node16&#45;&gt;Node6</title>
<path fill="none" stroke="midnightblue" d="M668.93,-358.28C684.92,-315.33 725.61,-185.41 664.29,-112 646.19,-90.34 571.24,-77.82 521.06,-71.71"/>
<polygon fill="midnightblue" stroke="midnightblue" points="521.41,-68.23 511.07,-70.54 520.59,-75.18 521.41,-68.23"/>
</g>
<!-- Node16&#45;&gt;Node12 -->
<g id="edge35" class="edge">
<title>Node16&#45;&gt;Node12</title>
<path fill="none" stroke="midnightblue" d="M657.18,-358.27C642.33,-323.65 604.33,-235.06 587.97,-196.91"/>
<polygon fill="midnightblue" stroke="midnightblue" points="591.12,-195.39 583.97,-187.58 584.69,-198.15 591.12,-195.39"/>
</g>
<!-- Node17 -->
<g id="node17" class="node">
<title>Node17</title>
<g id="a_node17"><a xlink:href="Data_8h.html" target="_top" xlink:title=" ">
<polygon fill="white" stroke="black" points="1016.29,-168.5 1016.29,-187.5 1120.29,-187.5 1120.29,-168.5 1016.29,-168.5"/>
<text text-anchor="middle" x="1068.29" y="-175.5" font-family="Helvetica,sans-Serif" font-size="10.00">BayesFilters/Data.h</text>
</a>
</g>
</g>
<!-- Node16&#45;&gt;Node17 -->
<g id="edge27" class="edge">
<title>Node16&#45;&gt;Node17</title>
<path fill="none" stroke="midnightblue" d="M713.86,-370.76C796.97,-366.96 957.71,-355.41 1002.29,-322 1043.21,-291.33 1059.57,-229.15 1065.41,-197.87"/>
<polygon fill="midnightblue" stroke="midnightblue" points="1068.88,-198.3 1067.11,-187.86 1061.98,-197.13 1068.88,-198.3"/>
</g>
<!-- Node23 -->
<g id="node23" class="node">
<title>Node23</title>
<g id="a_node23"><a xlink:href="AdditiveMeasurementModel_8h.html" target="_top" xlink:title=" ">
<polygon fill="white" stroke="black" points="823.79,-291.5 823.79,-321.5 992.79,-321.5 992.79,-291.5 823.79,-291.5"/>
<text text-anchor="start" x="831.79" y="-309.5" font-family="Helvetica,sans-Serif" font-size="10.00">BayesFilters/AdditiveMeasurement</text>
<text text-anchor="middle" x="908.29" y="-298.5" font-family="Helvetica,sans-Serif" font-size="10.00">Model.h</text>
</a>
</g>
</g>
<!-- Node16&#45;&gt;Node23 -->
<g id="edge36" class="edge">
<title>Node16&#45;&gt;Node23</title>
<path fill="none" stroke="midnightblue" d="M714.05,-359.03C752.25,-348.9 804.81,-334.95 845.63,-324.12"/>
<polygon fill="midnightblue" stroke="midnightblue" points="846.7,-327.46 855.47,-321.51 844.91,-320.69 846.7,-327.46"/>
</g>
<!-- Node24 -->
<g id="node24" class="node">
<title>Node24</title>
<g id="a_node24"><a xlink:href="MeasurementModel_8h.html" target="_top" xlink:title=" ">
<polygon fill="white" stroke="black" points="795.29,-224.5 795.29,-254.5 929.29,-254.5 929.29,-224.5 795.29,-224.5"/>
<text text-anchor="start" x="803.29" y="-242.5" font-family="Helvetica,sans-Serif" font-size="10.00">BayesFilters/Measurement</text>
<text text-anchor="middle" x="862.29" y="-231.5" font-family="Helvetica,sans-Serif" font-size="10.00">Model.h</text>
</a>
</g>
</g>
<!-- Node16&#45;&gt;Node24 -->
<g id="edge48" class="edge">
<title>Node16&#45;&gt;Node24</title>
<path fill="none" stroke="midnightblue" d="M704.1,-358.41C726.66,-349.66 754.63,-337.19 777.29,-322 790.97,-312.82 821.13,-282.89 841.58,-261.97"/>
<polygon fill="midnightblue" stroke="midnightblue" points="844.16,-264.34 848.63,-254.73 839.15,-259.46 844.16,-264.34"/>
</g>
<!-- Node29 -->
<g id="node29" class="node">
<title>Node29</title>
<g id="a_node29"><a xlink:title=" ">
<polygon fill="white" stroke="#bfbfbf" points="708.79,-297 708.79,-316 767.79,-316 767.79,-297 708.79,-297"/>
<text text-anchor="middle" x="738.29" y="-304" font-family="Helvetica,sans-Serif" font-size="10.00">functional</text>
</a>
</g>
</g>
<!-- Node16&#45;&gt;Node29 -->
<g id="edge50" class="edge">
<title>Node16&#45;&gt;Node29</title>
<path fill="none" stroke="midnightblue" d="M679.56,-358.4C691.6,-347.96 708,-333.75 720.41,-323"/>
<polygon fill="midnightblue" stroke="midnightblue" points="722.99,-325.39 728.26,-316.19 718.41,-320.1 722.99,-325.39"/>
</g>
<!-- Node18 -->
<g id="node18" class="node">
<title>Node18</title>
<g id="a_node18"><a xlink:href="any_8h.html" target="_top" xlink:title=" ">
<polygon fill="white" stroke="black" points="1176.79,-112.5 1176.79,-131.5 1273.79,-131.5 1273.79,-112.5 1176.79,-112.5"/>
<text text-anchor="middle" x="1225.29" y="-119.5" font-family="Helvetica,sans-Serif" font-size="10.00">BayesFilters/any.h</text>
</a>
</g>
</g>
<!-- Node17&#45;&gt;Node18 -->
<g id="edge28" class="edge">
<title>Node17&#45;&gt;Node18</title>
<path fill="none" stroke="midnightblue" d="M1093.16,-168.44C1119.58,-159.36 1161.5,-144.94 1191.03,-134.78"/>
<polygon fill="midnightblue" stroke="midnightblue" points="1192.21,-138.08 1200.53,-131.52 1189.93,-131.46 1192.21,-138.08"/>
</g>
<!-- Node18&#45;&gt;Node11 -->
<g id="edge30" class="edge">
<title>Node18&#45;&gt;Node11</title>
<path fill="none" stroke="midnightblue" d="M1196.29,-112.44C1164.28,-103 1112.71,-87.78 1078.17,-77.59"/>
<polygon fill="midnightblue" stroke="midnightblue" points="1079.06,-74.2 1068.48,-74.73 1077.08,-80.92 1079.06,-74.2"/>
</g>
<!-- Node19 -->
<g id="node19" class="node">
<title>Node19</title>
<g id="a_node19"><a xlink:title=" ">
<polygon fill="white" stroke="#bfbfbf" points="1181.29,-56.5 1181.29,-75.5 1237.29,-75.5 1237.29,-56.5 1181.29,-56.5"/>
<text text-anchor="middle" x="1209.29" y="-63.5" font-family="Helvetica,sans-Serif" font-size="10.00">algorithm</text>
</a>
</g>
</g>
<!-- Node18&#45;&gt;Node19 -->
<g id="edge29" class="edge">
<title>Node18&#45;&gt;Node19</title>
<path fill="none" stroke="midnightblue" d="M1222.65,-112.08C1220.5,-104.85 1217.41,-94.41 1214.74,-85.4"/>
<polygon fill="midnightblue" stroke="midnightblue" points="1218.08,-84.34 1211.88,-75.75 1211.37,-86.33 1218.08,-84.34"/>
</g>
<!-- Node20 -->
<g id="node20" class="node">
<title>Node20</title>
<g id="a_node20"><a xlink:title=" ">
<polygon fill="white" stroke="#bfbfbf" points="1255.79,-56.5 1255.79,-75.5 1314.79,-75.5 1314.79,-56.5 1255.79,-56.5"/>
<text text-anchor="middle" x="1285.29" y="-63.5" font-family="Helvetica,sans-Serif" font-size="10.00">stdexcept</text>
</a>
</g>
</g>
<!-- Node18&#45;&gt;Node20 -->
<g id="edge31" class="edge">
<title>Node18&#45;&gt;Node20</title>
<path fill="none" stroke="midnightblue" d="M1234.93,-112.32C1243.8,-104.34 1257.16,-92.31 1267.9,-82.65"/>
<polygon fill="midnightblue" stroke="midnightblue" points="1270.38,-85.13 1275.47,-75.83 1265.7,-79.92 1270.38,-85.13"/>
</g>
<!-- Node21 -->
<g id="node21" class="node">
<title>Node21</title>
<g id="a_node21"><a xlink:title=" ">
<polygon fill="white" stroke="#bfbfbf" points="1332.79,-56.5 1332.79,-75.5 1383.79,-75.5 1383.79,-56.5 1332.79,-56.5"/>
<text text-anchor="middle" x="1358.29" y="-63.5" font-family="Helvetica,sans-Serif" font-size="10.00">typeinfo</text>
</a>
</g>
</g>
<!-- Node18&#45;&gt;Node21 -->
<g id="edge32" class="edge">
<title>Node18&#45;&gt;Node21</title>
<path fill="none" stroke="midnightblue" d="M1246.36,-112.44C1268.35,-103.52 1303.02,-89.44 1327.95,-79.32"/>
<polygon fill="midnightblue" stroke="midnightblue" points="1329.36,-82.52 1337.31,-75.52 1326.73,-76.04 1329.36,-82.52"/>
</g>
<!-- Node22 -->
<g id="node22" class="node">
<title>Node22</title>
<g id="a_node22"><a xlink:title=" ">
<polygon fill="white" stroke="#bfbfbf" points="1101.29,-56.5 1101.29,-75.5 1163.29,-75.5 1163.29,-56.5 1101.29,-56.5"/>
<text text-anchor="middle" x="1132.29" y="-63.5" font-family="Helvetica,sans-Serif" font-size="10.00">type_traits</text>
</a>
</g>
</g>
<!-- Node18&#45;&gt;Node22 -->
<g id="edge33" class="edge">
<title>Node18&#45;&gt;Node22</title>
<path fill="none" stroke="midnightblue" d="M1210.35,-112.32C1195.7,-103.82 1173.15,-90.73 1156.05,-80.8"/>
<polygon fill="midnightblue" stroke="midnightblue" points="1157.6,-77.65 1147.19,-75.65 1154.08,-83.7 1157.6,-77.65"/>
</g>
<!-- Node23&#45;&gt;Node24 -->
<g id="edge37" class="edge">
<title>Node23&#45;&gt;Node24</title>
<path fill="none" stroke="midnightblue" d="M898.31,-291.4C892.4,-283.05 884.78,-272.29 878.08,-262.81"/>
<polygon fill="midnightblue" stroke="midnightblue" points="880.88,-260.72 872.25,-254.58 875.17,-264.76 880.88,-260.72"/>
</g>
<!-- Node24&#45;&gt;Node6 -->
<g id="edge47" class="edge">
<title>Node24&#45;&gt;Node6</title>
<path fill="none" stroke="midnightblue" d="M809.49,-224.43C787.16,-216.49 762.04,-204.74 743.29,-188 714.33,-162.16 731.73,-134.75 700.29,-112 672.23,-91.71 578.78,-78.28 521.2,-71.72"/>
<polygon fill="midnightblue" stroke="midnightblue" points="521.57,-68.23 511.24,-70.61 520.79,-75.19 521.57,-68.23"/>
</g>
<!-- Node24&#45;&gt;Node9 -->
<g id="edge45" class="edge">
<title>Node24&#45;&gt;Node9</title>
<path fill="none" stroke="midnightblue" d="M851.24,-224.25C836.64,-204.64 811.25,-167.68 798.29,-132 785.69,-97.32 781.44,-54.06 780.01,-29.79"/>
<polygon fill="midnightblue" stroke="midnightblue" points="783.51,-29.61 779.52,-19.79 776.51,-29.95 783.51,-29.61"/>
</g>
<!-- Node24&#45;&gt;Node11 -->
<g id="edge44" class="edge">
<title>Node24&#45;&gt;Node11</title>
<path fill="none" stroke="midnightblue" d="M906.36,-224.46C927.16,-216.24 951.3,-204.24 969.29,-188 1001.94,-158.52 1024.66,-110.98 1035.35,-85.14"/>
<polygon fill="midnightblue" stroke="midnightblue" points="1038.62,-86.38 1039.07,-75.8 1032.12,-83.79 1038.62,-86.38"/>
</g>
<!-- Node24&#45;&gt;Node17 -->
<g id="edge38" class="edge">
<title>Node24&#45;&gt;Node17</title>
<path fill="none" stroke="midnightblue" d="M910.85,-224.47C946.85,-214.08 995.31,-200.08 1028.91,-190.37"/>
<polygon fill="midnightblue" stroke="midnightblue" points="1030.2,-193.64 1038.84,-187.51 1028.26,-186.92 1030.2,-193.64"/>
</g>
<!-- Node25 -->
<g id="node25" class="node">
<title>Node25</title>
<g id="a_node25"><a xlink:href="Logger_8h.html" target="_top" xlink:title=" ">
<polygon fill="white" stroke="black" points="848.79,-168.5 848.79,-187.5 959.79,-187.5 959.79,-168.5 848.79,-168.5"/>
<text text-anchor="middle" x="904.29" y="-175.5" font-family="Helvetica,sans-Serif" font-size="10.00">BayesFilters/Logger.h</text>
</a>
</g>
</g>
<!-- Node24&#45;&gt;Node25 -->
<g id="edge39" class="edge">
<title>Node24&#45;&gt;Node25</title>
<path fill="none" stroke="midnightblue" d="M872.24,-224.4C878.28,-215.84 886.03,-204.87 892.39,-195.86"/>
<polygon fill="midnightblue" stroke="midnightblue" points="895.27,-197.85 898.18,-187.66 889.55,-193.81 895.27,-197.85"/>
</g>
<!-- Node28 -->
<g id="node28" class="node">
<title>Node28</title>
<g id="a_node28"><a xlink:title=" ">
<polygon fill="white" stroke="#bfbfbf" points="752.29,-168.5 752.29,-187.5 792.29,-187.5 792.29,-168.5 752.29,-168.5"/>
<text text-anchor="middle" x="772.29" y="-175.5" font-family="Helvetica,sans-Serif" font-size="10.00">utility</text>
</a>
</g>
</g>
<!-- Node24&#45;&gt;Node28 -->
<g id="edge46" class="edge">
<title>Node24&#45;&gt;Node28</title>
<path fill="none" stroke="midnightblue" d="M840.96,-224.4C826.8,-215.04 808.28,-202.79 794.03,-193.38"/>
<polygon fill="midnightblue" stroke="midnightblue" points="795.66,-190.25 785.38,-187.66 791.79,-196.09 795.66,-190.25"/>
</g>
<!-- Node25&#45;&gt;Node9 -->
<g id="edge42" class="edge">
<title>Node25&#45;&gt;Node9</title>
<path fill="none" stroke="midnightblue" d="M914.87,-168.11C928.5,-155.53 949.2,-131.87 938.29,-112 910.89,-62.14 847.31,-33.41 809.37,-20.11"/>
<polygon fill="midnightblue" stroke="midnightblue" points="810.45,-16.78 799.86,-16.91 808.22,-23.42 810.45,-16.78"/>
</g>
<!-- Node25&#45;&gt;Node13 -->
<g id="edge43" class="edge">
<title>Node25&#45;&gt;Node13</title>
<path fill="none" stroke="midnightblue" d="M861.35,-168.44C806.84,-157.58 714.06,-139.09 665.34,-129.39"/>
<polygon fill="midnightblue" stroke="midnightblue" points="665.85,-125.92 655.36,-127.4 664.48,-132.78 665.85,-125.92"/>
</g>
<!-- Node26 -->
<g id="node26" class="node">
<title>Node26</title>
<g id="a_node26"><a xlink:title=" ">
<polygon fill="white" stroke="#bfbfbf" points="879.29,-112.5 879.29,-131.5 929.29,-131.5 929.29,-112.5 879.29,-112.5"/>
<text text-anchor="middle" x="904.29" y="-119.5" font-family="Helvetica,sans-Serif" font-size="10.00">fstream</text>
</a>
</g>
</g>
<!-- Node25&#45;&gt;Node26 -->
<g id="edge40" class="edge">
<title>Node25&#45;&gt;Node26</title>
<path fill="none" stroke="midnightblue" d="M904.29,-168.08C904.29,-161.01 904.29,-150.86 904.29,-141.99"/>
<polygon fill="midnightblue" stroke="midnightblue" points="907.79,-141.75 904.29,-131.75 900.79,-141.75 907.79,-141.75"/>
</g>
<!-- Node27 -->
<g id="node27" class="node">
<title>Node27</title>
<g id="a_node27"><a xlink:title=" ">
<polygon fill="white" stroke="#bfbfbf" points="807.29,-112.5 807.29,-131.5 861.29,-131.5 861.29,-112.5 807.29,-112.5"/>
<text text-anchor="middle" x="834.29" y="-119.5" font-family="Helvetica,sans-Serif" font-size="10.00">iostream</text>
</a>
</g>
</g>
<!-- Node25&#45;&gt;Node27 -->
<g id="edge41" class="edge">
<title>Node25&#45;&gt;Node27</title>
<path fill="none" stroke="midnightblue" d="M893.04,-168.32C882.49,-160.18 866.49,-147.84 853.84,-138.09"/>
<polygon fill="midnightblue" stroke="midnightblue" points="855.79,-135.17 845.74,-131.83 851.52,-140.71 855.79,-135.17"/>
</g>
</g>
</svg>
