<?xml version="1.0" encoding="UTF-8" standalone="no"?>
<!DOCTYPE svg PUBLIC "-//W3C//DTD SVG 1.1//EN"
 "http://www.w3.org/Graphics/SVG/1.1/DTD/svg11.dtd">
<!-- Generated by graphviz version 2.47.2 (0)
 -->
<!-- Title: /home/xenvre/robot&#45;code/bfl_robotology/src/BayesFilters/include/BayesFilters/utils.h Pages: 1 -->
<!--zoomable 150 -->
<svg id="main" version="1.1" xmlns="http://www.w3.org/2000/svg" xmlns:xlink="http://www.w3.org/1999/xlink" xml:space="preserve" onload="init(evt)">
<style type="text/css"><![CDATA[
.edge:hover path { stroke: red; }
.edge:hover polygon { stroke: red; fill: red; }
]]></style>
<script type="text/javascript"><![CDATA[
var edges = document.getElementsByTagName('g');
if (edges && edges.length) {
  for (var i=0;i<edges.length;i++) {
    if (edges[i].id.substr(0,4)=='edge') {
      edges[i].setAttribute('class','edge');
    }
  }
}
]]></script>
        <defs>
                <circle id="rim" cx="0" cy="0" r="7"/>
                <circle id="rim2" cx="0" cy="0" r="3.5"/>
                <g id="zoomPlus">
                        <use xlink:href="#rim" fill="#404040">
                                <set attributeName="fill" to="#808080" begin="zoomplus.mouseover" end="zoomplus.mouseout"/>
                        </use>
                        <path d="M-4,0h8M0,-4v8" fill="none" stroke="white" stroke-width="1.5" pointer-events="none"/>
                </g>
                <g id="zoomMin">
                        <use xlink:href="#rim" fill="#404040">
                                <set attributeName="fill" to="#808080" begin="zoomminus.mouseover" end="zoomminus.mouseout"/>
                        </use>
                        <path d="M-4,0h8" fill="none" stroke="white" stroke-width="1.5" pointer-events="none"/>
                </g>
                <g id="dirArrow">
                        <path fill="none" stroke="white" stroke-width="1.5" d="M0,-3.0v7 M-2.5,-0.5L0,-3.0L2.5,-0.5"/>
                </g>
               <g id="resetDef">
                       <use xlink:href="#rim2" fill="#404040">
                               <set attributeName="fill" to="#808080" begin="reset.mouseover" end="reset.mouseout"/>
                       </use>
               </g>
        </defs>

<script type="text/javascript">
var viewWidth = 1387;
var viewHeight = 150;
var sectionId = 'dynsection-1';
</script>
<script xlink:href="svgpan.js"/>
<svg id="graph" class="graph">
<g id="viewport">
<title>/home/xenvre/robot&#45;code/bfl_robotology/src/BayesFilters/include/BayesFilters/utils.h</title>
<polygon fill="white" stroke="transparent" points="-4,4 -4,-146 1383,-146 1383,4 -4,4"/>
<!-- Node1 -->
<g id="node1" class="node">
<title>Node1</title>
<g id="a_node1"><a xlink:title=" ">
<polygon fill="#bfbfbf" stroke="black" points="607,-89.5 607,-141.5 732,-141.5 732,-89.5 607,-89.5"/>
<text text-anchor="start" x="615" y="-129.5" font-family="Helvetica,sans-Serif" font-size="10.00">/home/xenvre/robot</text>
<text text-anchor="start" x="615" y="-118.5" font-family="Helvetica,sans-Serif" font-size="10.00">&#45;code/bfl_robotology</text>
<text text-anchor="start" x="615" y="-107.5" font-family="Helvetica,sans-Serif" font-size="10.00">/src/BayesFilters/include</text>
<text text-anchor="middle" x="669.5" y="-96.5" font-family="Helvetica,sans-Serif" font-size="10.00">/BayesFilters/utils.h</text>
</a>
</g>
</g>
<!-- Node2 -->
<g id="node2" class="node">
<title>Node2</title>
<g id="a_node2"><a xlink:href="EstimatesExtraction_8cpp.html" target="_top" xlink:title=" ">
<polygon fill="white" stroke="black" points="0,-0.5 0,-52.5 127,-52.5 127,-0.5 0,-0.5"/>
<text text-anchor="start" x="8" y="-40.5" font-family="Helvetica,sans-Serif" font-size="10.00">/home/xenvre/robot</text>
<text text-anchor="start" x="8" y="-29.5" font-family="Helvetica,sans-Serif" font-size="10.00">&#45;code/bfl_robotology</text>
<text text-anchor="start" x="8" y="-18.5" font-family="Helvetica,sans-Serif" font-size="10.00">/src/BayesFilters/src</text>
<text text-anchor="middle" x="63.5" y="-7.5" font-family="Helvetica,sans-Serif" font-size="10.00">/EstimatesExtraction.cpp</text>
</a>
</g>
</g>
<!-- Node1&#45;&gt;Node2 -->
<g id="edge1" class="edge">
<title>Node1&#45;&gt;Node2</title>
<path fill="none" stroke="midnightblue" d="M596.6,-111.32C492.97,-105.62 297.61,-90.53 135.5,-53 132.79,-52.37 130.03,-51.68 127.27,-50.93"/>
<polygon fill="midnightblue" stroke="midnightblue" points="596.47,-114.81 606.65,-111.85 596.85,-107.82 596.47,-114.81"/>
</g>
<!-- Node3 -->
<g id="node3" class="node">
<title>Node3</title>
<g id="a_node3"><a xlink:href="GaussianLikelihood_8cpp.html" target="_top" xlink:title=" ">
<polygon fill="white" stroke="black" points="145,-0.5 145,-52.5 268,-52.5 268,-0.5 145,-0.5"/>
<text text-anchor="start" x="153" y="-40.5" font-family="Helvetica,sans-Serif" font-size="10.00">/home/xenvre/robot</text>
<text text-anchor="start" x="153" y="-29.5" font-family="Helvetica,sans-Serif" font-size="10.00">&#45;code/bfl_robotology</text>
<text text-anchor="start" x="153" y="-18.5" font-family="Helvetica,sans-Serif" font-size="10.00">/src/BayesFilters/src</text>
<text text-anchor="middle" x="206.5" y="-7.5" font-family="Helvetica,sans-Serif" font-size="10.00">/GaussianLikelihood.cpp</text>
</a>
</g>
</g>
<!-- Node1&#45;&gt;Node3 -->
<g id="edge2" class="edge">
<title>Node1&#45;&gt;Node3</title>
<path fill="none" stroke="midnightblue" d="M596.4,-107.36C516.82,-98.59 386.26,-81.29 276.5,-53 273.74,-52.29 270.95,-51.51 268.13,-50.69"/>
<polygon fill="midnightblue" stroke="midnightblue" points="596.48,-110.88 606.8,-108.49 597.24,-103.93 596.48,-110.88"/>
</g>
<!-- Node4 -->
<g id="node4" class="node">
<title>Node4</title>
<g id="a_node4"><a xlink:href="GPFCorrection_8cpp.html" target="_top" xlink:title=" ">
<polygon fill="white" stroke="black" points="286,-0.5 286,-52.5 393,-52.5 393,-0.5 286,-0.5"/>
<text text-anchor="start" x="294" y="-40.5" font-family="Helvetica,sans-Serif" font-size="10.00">/home/xenvre/robot</text>
<text text-anchor="start" x="294" y="-29.5" font-family="Helvetica,sans-Serif" font-size="10.00">&#45;code/bfl_robotology</text>
<text text-anchor="start" x="294" y="-18.5" font-family="Helvetica,sans-Serif" font-size="10.00">/src/BayesFilters/src</text>
<text text-anchor="middle" x="339.5" y="-7.5" font-family="Helvetica,sans-Serif" font-size="10.00">/GPFCorrection.cpp</text>
</a>
</g>
</g>
<!-- Node1&#45;&gt;Node4 -->
<g id="edge3" class="edge">
<title>Node1&#45;&gt;Node4</title>
<path fill="none" stroke="midnightblue" d="M597.08,-101.24C542.65,-90.47 466.6,-73.7 401.5,-53 398.73,-52.12 395.9,-51.17 393.07,-50.16"/>
<polygon fill="midnightblue" stroke="midnightblue" points="596.5,-104.7 606.98,-103.18 597.84,-97.83 596.5,-104.7"/>
</g>
<!-- Node5 -->
<g id="node5" class="node">
<title>Node5</title>
<g id="a_node5"><a xlink:href="KFCorrection_8cpp.html" target="_top" xlink:title=" ">
<polygon fill="white" stroke="black" points="411,-0.5 411,-52.5 518,-52.5 518,-0.5 411,-0.5"/>
<text text-anchor="start" x="419" y="-40.5" font-family="Helvetica,sans-Serif" font-size="10.00">/home/xenvre/robot</text>
<text text-anchor="start" x="419" y="-29.5" font-family="Helvetica,sans-Serif" font-size="10.00">&#45;code/bfl_robotology</text>
<text text-anchor="start" x="419" y="-18.5" font-family="Helvetica,sans-Serif" font-size="10.00">/src/BayesFilters/src</text>
<text text-anchor="middle" x="464.5" y="-7.5" font-family="Helvetica,sans-Serif" font-size="10.00">/KFCorrection.cpp</text>
</a>
</g>
</g>
<!-- Node1&#45;&gt;Node5 -->
<g id="edge4" class="edge">
<title>Node1&#45;&gt;Node5</title>
<path fill="none" stroke="midnightblue" d="M601.1,-85.47C574.11,-74.02 543.56,-61.05 518.2,-50.29"/>
<polygon fill="midnightblue" stroke="midnightblue" points="599.91,-88.77 610.48,-89.45 602.64,-82.32 599.91,-88.77"/>
</g>
<!-- Node6 -->
<g id="node6" class="node">
<title>Node6</title>
<g id="a_node6"><a xlink:href="ResamplingWithPrior_8cpp.html" target="_top" xlink:title=" ">
<polygon fill="white" stroke="black" points="536.5,-0.5 536.5,-52.5 666.5,-52.5 666.5,-0.5 536.5,-0.5"/>
<text text-anchor="start" x="544.5" y="-40.5" font-family="Helvetica,sans-Serif" font-size="10.00">/home/xenvre/robot</text>
<text text-anchor="start" x="544.5" y="-29.5" font-family="Helvetica,sans-Serif" font-size="10.00">&#45;code/bfl_robotology</text>
<text text-anchor="start" x="544.5" y="-18.5" font-family="Helvetica,sans-Serif" font-size="10.00">/src/BayesFilters/src</text>
<text text-anchor="middle" x="601.5" y="-7.5" font-family="Helvetica,sans-Serif" font-size="10.00">/ResamplingWithPrior.cpp</text>
</a>
</g>
</g>
<!-- Node1&#45;&gt;Node6 -->
<g id="edge5" class="edge">
<title>Node1&#45;&gt;Node6</title>
<path fill="none" stroke="midnightblue" d="M643.48,-81.22C636.06,-71.72 628.1,-61.53 621.12,-52.61"/>
<polygon fill="midnightblue" stroke="midnightblue" points="640.92,-83.61 649.83,-89.34 646.43,-79.3 640.92,-83.61"/>
</g>
<!-- Node7 -->
<g id="node7" class="node">
<title>Node7</title>
<g id="a_node7"><a xlink:href="SIS_8cpp.html" target="_top" xlink:title=" ">
<polygon fill="white" stroke="black" points="685,-0.5 685,-52.5 792,-52.5 792,-0.5 685,-0.5"/>
<text text-anchor="start" x="693" y="-40.5" font-family="Helvetica,sans-Serif" font-size="10.00">/home/xenvre/robot</text>
<text text-anchor="start" x="693" y="-29.5" font-family="Helvetica,sans-Serif" font-size="10.00">&#45;code/bfl_robotology</text>
<text text-anchor="start" x="693" y="-18.5" font-family="Helvetica,sans-Serif" font-size="10.00">/src/BayesFilters/src</text>
<text text-anchor="middle" x="738.5" y="-7.5" font-family="Helvetica,sans-Serif" font-size="10.00">/SIS.cpp</text>
</a>
</g>
</g>
<!-- Node1&#45;&gt;Node7 -->
<g id="edge6" class="edge">
<title>Node1&#45;&gt;Node7</title>
<path fill="none" stroke="midnightblue" d="M695.9,-81.22C703.43,-71.72 711.51,-61.53 718.59,-52.61"/>
<polygon fill="midnightblue" stroke="midnightblue" points="692.93,-79.33 689.46,-89.34 698.41,-83.68 692.93,-79.33"/>
</g>
<!-- Node8 -->
<g id="node8" class="node">
<title>Node8</title>
<g id="a_node8"><a xlink:href="SUKFCorrection_8cpp.html" target="_top" xlink:title=" ">
<polygon fill="white" stroke="black" points="810.5,-0.5 810.5,-52.5 920.5,-52.5 920.5,-0.5 810.5,-0.5"/>
<text text-anchor="start" x="818.5" y="-40.5" font-family="Helvetica,sans-Serif" font-size="10.00">/home/xenvre/robot</text>
<text text-anchor="start" x="818.5" y="-29.5" font-family="Helvetica,sans-Serif" font-size="10.00">&#45;code/bfl_robotology</text>
<text text-anchor="start" x="818.5" y="-18.5" font-family="Helvetica,sans-Serif" font-size="10.00">/src/BayesFilters/src</text>
<text text-anchor="middle" x="865.5" y="-7.5" font-family="Helvetica,sans-Serif" font-size="10.00">/SUKFCorrection.cpp</text>
</a>
</g>
</g>
<!-- Node1&#45;&gt;Node8 -->
<g id="edge7" class="edge">
<title>Node1&#45;&gt;Node8</title>
<path fill="none" stroke="midnightblue" d="M735.14,-85.36C759.59,-74.51 787.08,-62.31 810.48,-51.92"/>
<polygon fill="midnightblue" stroke="midnightblue" points="733.65,-82.2 725.93,-89.45 736.49,-88.59 733.65,-82.2"/>
</g>
<!-- Node9 -->
<g id="node9" class="node">
<title>Node9</title>
<g id="a_node9"><a xlink:href="TimeDecreasingDynamics_8cpp.html" target="_top" xlink:title=" ">
<polygon fill="white" stroke="black" points="938.5,-0.5 938.5,-52.5 1092.5,-52.5 1092.5,-0.5 938.5,-0.5"/>
<text text-anchor="start" x="946.5" y="-40.5" font-family="Helvetica,sans-Serif" font-size="10.00">/home/xenvre/robot</text>
<text text-anchor="start" x="946.5" y="-29.5" font-family="Helvetica,sans-Serif" font-size="10.00">&#45;code/bfl_robotology</text>
<text text-anchor="start" x="946.5" y="-18.5" font-family="Helvetica,sans-Serif" font-size="10.00">/src/BayesFilters/src</text>
<text text-anchor="middle" x="1015.5" y="-7.5" font-family="Helvetica,sans-Serif" font-size="10.00">/TimeDecreasingDynamics.cpp</text>
</a>
</g>
</g>
<!-- Node1&#45;&gt;Node9 -->
<g id="edge8" class="edge">
<title>Node1&#45;&gt;Node9</title>
<path fill="none" stroke="midnightblue" d="M742.12,-98.47C794.41,-86.64 866.55,-69.76 929.5,-53 932.36,-52.24 935.27,-51.45 938.2,-50.64"/>
<polygon fill="midnightblue" stroke="midnightblue" points="741.25,-95.08 732.26,-100.69 742.79,-101.91 741.25,-95.08"/>
</g>
<!-- Node10 -->
<g id="node10" class="node">
<title>Node10</title>
<g id="a_node10"><a xlink:href="UKFCorrection_8cpp.html" target="_top" xlink:title=" ">
<polygon fill="white" stroke="black" points="1111,-0.5 1111,-52.5 1218,-52.5 1218,-0.5 1111,-0.5"/>
<text text-anchor="start" x="1119" y="-40.5" font-family="Helvetica,sans-Serif" font-size="10.00">/home/xenvre/robot</text>
<text text-anchor="start" x="1119" y="-29.5" font-family="Helvetica,sans-Serif" font-size="10.00">&#45;code/bfl_robotology</text>
<text text-anchor="start" x="1119" y="-18.5" font-family="Helvetica,sans-Serif" font-size="10.00">/src/BayesFilters/src</text>
<text text-anchor="middle" x="1164.5" y="-7.5" font-family="Helvetica,sans-Serif" font-size="10.00">/UKFCorrection.cpp</text>
</a>
</g>
</g>
<!-- Node1&#45;&gt;Node10 -->
<g id="edge9" class="edge">
<title>Node1&#45;&gt;Node10</title>
<path fill="none" stroke="midnightblue" d="M742.35,-109.56C829.11,-102.44 977.83,-86.3 1101.5,-53 1104.58,-52.17 1107.7,-51.23 1110.84,-50.22"/>
<polygon fill="midnightblue" stroke="midnightblue" points="742.03,-106.07 732.34,-110.36 742.59,-113.05 742.03,-106.07"/>
</g>
<!-- Node11 -->
<g id="node11" class="node">
<title>Node11</title>
<g id="a_node11"><a xlink:href="WhiteNoiseAcceleration_8cpp.html" target="_top" xlink:title=" ">
<polygon fill="white" stroke="black" points="1236,-0.5 1236,-52.5 1379,-52.5 1379,-0.5 1236,-0.5"/>
<text text-anchor="start" x="1244" y="-40.5" font-family="Helvetica,sans-Serif" font-size="10.00">/home/xenvre/robot</text>
<text text-anchor="start" x="1244" y="-29.5" font-family="Helvetica,sans-Serif" font-size="10.00">&#45;code/bfl_robotology</text>
<text text-anchor="start" x="1244" y="-18.5" font-family="Helvetica,sans-Serif" font-size="10.00">/src/BayesFilters/src</text>
<text text-anchor="middle" x="1307.5" y="-7.5" font-family="Helvetica,sans-Serif" font-size="10.00">/WhiteNoiseAcceleration.cpp</text>
</a>
</g>
</g>
<!-- Node1&#45;&gt;Node11 -->
<g id="edge10" class="edge">
<title>Node1&#45;&gt;Node11</title>
<path fill="none" stroke="midnightblue" d="M742.13,-111.11C849.31,-105.07 1055.71,-89.47 1227.5,-53 1230.21,-52.42 1232.96,-51.79 1235.72,-51.12"/>
<polygon fill="midnightblue" stroke="midnightblue" points="741.86,-107.62 732.07,-111.66 742.25,-114.61 741.86,-107.62"/>
</g>
</g>
</svg>
        <g id="navigator" transform="translate(0 0)" fill="#404254">
                <rect fill="#f2f5e9" fill-opacity="0.5" stroke="#606060" stroke-width=".5" x="0" y="0" width="60" height="60"/>
                <use id="zoomplus" xlink:href="#zoomPlus" x="17" y="9" onmousedown="handleZoom(evt,'in')"/>
                <use id="zoomminus" xlink:href="#zoomMin" x="42" y="9" onmousedown="handleZoom(evt,'out')"/>
                <use id="reset" xlink:href="#resetDef" x="30" y="36" onmousedown="handleReset()"/>
                <g id="arrowUp" xlink:href="#dirArrow" transform="translate(30 24)" onmousedown="handlePan(0,-1)">
                  <use xlink:href="#rim" fill="#404040">
                        <set attributeName="fill" to="#808080" begin="arrowUp.mouseover" end="arrowUp.mouseout"/>
                  </use>
                  <path fill="none" stroke="white" stroke-width="1.5" d="M0,-3.0v7 M-2.5,-0.5L0,-3.0L2.5,-0.5"/>
                </g>
                <g id="arrowRight" xlink:href="#dirArrow" transform="rotate(90) translate(36 -43)" onmousedown="handlePan(1,0)">
                  <use xlink:href="#rim" fill="#404040">
                        <set attributeName="fill" to="#808080" begin="arrowRight.mouseover" end="arrowRight.mouseout"/>
                  </use>
                  <path fill="none" stroke="white" stroke-width="1.5" d="M0,-3.0v7 M-2.5,-0.5L0,-3.0L2.5,-0.5"/>
                </g>
                <g id="arrowDown" xlink:href="#dirArrow" transform="rotate(180) translate(-30 -48)" onmousedown="handlePan(0,1)">
                  <use xlink:href="#rim" fill="#404040">
                        <set attributeName="fill" to="#808080" begin="arrowDown.mouseover" end="arrowDown.mouseout"/>
                  </use>
                  <path fill="none" stroke="white" stroke-width="1.5" d="M0,-3.0v7 M-2.5,-0.5L0,-3.0L2.5,-0.5"/>
                </g>
                <g id="arrowLeft" xlink:href="#dirArrow" transform="rotate(270) translate(-36 17)" onmousedown="handlePan(-1,0)">
                  <use xlink:href="#rim" fill="#404040">
                        <set attributeName="fill" to="#808080" begin="arrowLeft.mouseover" end="arrowLeft.mouseout"/>
                  </use>
                  <path fill="none" stroke="white" stroke-width="1.5" d="M0,-3.0v7 M-2.5,-0.5L0,-3.0L2.5,-0.5"/>
                </g>
        </g>
        <svg viewBox="0 0 15 15" width="100%" height="30px" preserveAspectRatio="xMaxYMin meet">
         <g id="arrow_out" transform="scale(0.3 0.3)">
          <a xlink:href="utils_8h__dep__incl_org.svg" target="_base">
           <rect id="button" ry="5" rx="5" y="6" x="6" height="38" width="38"
                fill="#f2f5e9" fill-opacity="0.5" stroke="#606060" stroke-width="1.0"/>
           <path id="arrow"
             d="M 11.500037,31.436501 C 11.940474,20.09759 22.043105,11.32322 32.158766,21.979434 L 37.068811,17.246167 C 37.068811,17.246167 37.088388,32 37.088388,32 L 22.160133,31.978069 C 22.160133,31.978069 26.997745,27.140456 26.997745,27.140456 C 18.528582,18.264221 13.291696,25.230495 11.500037,31.436501 z"
             style="fill:#404040;"/>
          </a>
         </g>
        </svg>
</svg>
