<?xml version="1.0" encoding="UTF-8" standalone="no"?>
<!DOCTYPE svg PUBLIC "-//W3C//DTD SVG 1.1//EN"
 "http://www.w3.org/Graphics/SVG/1.1/DTD/svg11.dtd">
<!-- Generated by graphviz version 2.43.0 (0)
 -->
<!-- Title: /home/user/bayes&#45;filters&#45;lib/src/BayesFilters/include/BayesFilters/VectorDescription.h Pages: 1 -->
<svg width="186pt" height="106pt"
 viewBox="0.00 0.00 186.00 106.00" xmlns="http://www.w3.org/2000/svg" xmlns:xlink="http://www.w3.org/1999/xlink">
<g id="graph0" class="graph" transform="scale(1 1) rotate(0) translate(4 102)">
<title>/home/user/bayes&#45;filters&#45;lib/src/BayesFilters/include/BayesFilters/VectorDescription.h</title>
<polygon fill="white" stroke="transparent" points="-4,4 -4,-102 182,-102 182,4 -4,4"/>
<!-- Node1 -->
<g id="node1" class="node">
<title>Node1</title>
<g id="a_node1"><a xlink:title=" ">
<polygon fill="#bfbfbf" stroke="black" points="0,-56.5 0,-97.5 178,-97.5 178,-56.5 0,-56.5"/>
<text text-anchor="start" x="8" y="-85.5" font-family="Helvetica,sans-Serif" font-size="10.00">/home/user/bayes&#45;filters</text>
<text text-anchor="start" x="8" y="-74.5" font-family="Helvetica,sans-Serif" font-size="10.00">&#45;lib/src/BayesFilters/include</text>
<text text-anchor="middle" x="89" y="-63.5" font-family="Helvetica,sans-Serif" font-size="10.00">/BayesFilters/VectorDescription.h</text>
</a>
</g>
</g>
<!-- Node2 -->
<g id="node2" class="node">
<title>Node2</title>
<g id="a_node2"><a xlink:title=" ">
<polygon fill="white" stroke="#bfbfbf" points="62.5,-0.5 62.5,-19.5 115.5,-19.5 115.5,-0.5 62.5,-0.5"/>
<text text-anchor="middle" x="89" y="-7.5" font-family="Helvetica,sans-Serif" font-size="10.00">cstddef</text>
</a>
</g>
</g>
<!-- Node1&#45;&gt;Node2 -->
<g id="edge1" class="edge">
<title>Node1&#45;&gt;Node2</title>
<path fill="none" stroke="midnightblue" d="M89,-56.5C89,-48.07 89,-38.24 89,-29.87"/>
<polygon fill="midnightblue" stroke="midnightblue" points="92.5,-29.65 89,-19.65 85.5,-29.65 92.5,-29.65"/>
</g>
</g>
</svg>
