<?xml version="1.0" encoding="UTF-8" standalone="no"?>
<!DOCTYPE svg PUBLIC "-//W3C//DTD SVG 1.1//EN"
 "http://www.w3.org/Graphics/SVG/1.1/DTD/svg11.dtd">
<!-- Generated by graphviz version 2.43.0 (0)
 -->
<!-- Title: /home/user/bayes&#45;filters&#45;lib/src/BayesFilters/include/BayesFilters/WhiteNoiseAcceleration.h Pages: 1 -->
<!--zoomable 464 -->
<svg id="main" version="1.1" xmlns="http://www.w3.org/2000/svg" xmlns:xlink="http://www.w3.org/1999/xlink" xml:space="preserve" onload="init(evt)">
<style type="text/css"><![CDATA[
.edge:hover path { stroke: red; }
.edge:hover polygon { stroke: red; fill: red; }
]]></style>
<script type="text/javascript"><![CDATA[
var edges = document.getElementsByTagName('g');
if (edges && edges.length) {
  for (var i=0;i<edges.length;i++) {
    if (edges[i].id.substr(0,4)=='edge') {
      edges[i].setAttribute('class','edge');
    }
  }
}
]]></script>
        <defs>
                <circle id="rim" cx="0" cy="0" r="7"/>
                <circle id="rim2" cx="0" cy="0" r="3.5"/>
                <g id="zoomPlus">
                        <use xlink:href="#rim" fill="#404040">
                                <set attributeName="fill" to="#808080" begin="zoomplus.mouseover" end="zoomplus.mouseout"/>
                        </use>
                        <path d="M-4,0h8M0,-4v8" fill="none" stroke="white" stroke-width="1.5" pointer-events="none"/>
                </g>
                <g id="zoomMin">
                        <use xlink:href="#rim" fill="#404040">
                                <set attributeName="fill" to="#808080" begin="zoomminus.mouseover" end="zoomminus.mouseout"/>
                        </use>
                        <path d="M-4,0h8" fill="none" stroke="white" stroke-width="1.5" pointer-events="none"/>
                </g>
                <g id="dirArrow">
                        <path fill="none" stroke="white" stroke-width="1.5" d="M0,-3.0v7 M-2.5,-0.5L0,-3.0L2.5,-0.5"/>
                </g>
               <g id="resetDef">
                       <use xlink:href="#rim2" fill="#404040">
                               <set attributeName="fill" to="#808080" begin="reset.mouseover" end="reset.mouseout"/>
                       </use>
               </g>
        </defs>

<script type="text/javascript">
var viewWidth = 579;
var viewHeight = 464;
var sectionId = 'dynsection-0';
</script>
<script xlink:href="svgpan.js"/>
<svg id="graph" class="graph">
<g id="viewport">
<title>/home/user/bayes&#45;filters&#45;lib/src/BayesFilters/include/BayesFilters/WhiteNoiseAcceleration.h</title>
<polygon fill="white" stroke="transparent" points="-4,4 -4,-460 575.39,-460 575.39,4 -4,4"/>
<!-- Node1 -->
<g id="node1" class="node">
<title>Node1</title>
<g id="a_node1"><a xlink:title=" ">
<polygon fill="#bfbfbf" stroke="black" points="53.39,-414.5 53.39,-455.5 262.39,-455.5 262.39,-414.5 53.39,-414.5"/>
<text text-anchor="start" x="61.39" y="-443.5" font-family="Helvetica,sans-Serif" font-size="10.00">/home/user/bayes&#45;filters</text>
<text text-anchor="start" x="61.39" y="-432.5" font-family="Helvetica,sans-Serif" font-size="10.00">&#45;lib/src/BayesFilters/include</text>
<text text-anchor="middle" x="157.89" y="-421.5" font-family="Helvetica,sans-Serif" font-size="10.00">/BayesFilters/WhiteNoiseAcceleration.h</text>
</a>
</g>
</g>
<!-- Node2 -->
<g id="node2" class="node">
<title>Node2</title>
<g id="a_node2"><a xlink:href="LinearStateModel_8h.html" target="_top" xlink:title=" ">
<polygon fill="white" stroke="black" points="31.39,-347.5 31.39,-377.5 166.39,-377.5 166.39,-347.5 31.39,-347.5"/>
<text text-anchor="start" x="39.39" y="-365.5" font-family="Helvetica,sans-Serif" font-size="10.00">BayesFilters/LinearState</text>
<text text-anchor="middle" x="98.89" y="-354.5" font-family="Helvetica,sans-Serif" font-size="10.00">Model.h</text>
</a>
</g>
</g>
<!-- Node1&#45;&gt;Node2 -->
<g id="edge1" class="edge">
<title>Node1&#45;&gt;Node2</title>
<path fill="none" stroke="midnightblue" d="M141.45,-414.36C134.04,-405.5 125.25,-395 117.58,-385.84"/>
<polygon fill="midnightblue" stroke="midnightblue" points="120.04,-383.31 110.93,-377.89 114.67,-387.81 120.04,-383.31"/>
</g>
<!-- Node7 -->
<g id="node7" class="node">
<title>Node7</title>
<g id="a_node7"><a xlink:href="VectorDescription_8h.html" target="_top" xlink:title=" ">
<polygon fill="white" stroke="black" points="3.39,-56.5 3.39,-75.5 178.39,-75.5 178.39,-56.5 3.39,-56.5"/>
<text text-anchor="middle" x="90.89" y="-63.5" font-family="Helvetica,sans-Serif" font-size="10.00">BayesFilters/VectorDescription.h</text>
</a>
</g>
</g>
<!-- Node1&#45;&gt;Node7 -->
<g id="edge18" class="edge">
<title>Node1&#45;&gt;Node7</title>
<path fill="none" stroke="midnightblue" d="M76.34,-414.48C56.15,-406.18 36.22,-394.47 21.89,-378 -2.67,-349.78 0.89,-333.91 0.89,-296.5 0.89,-296.5 0.89,-296.5 0.89,-177 0.89,-134.66 41.33,-99.66 67.99,-81.18"/>
<polygon fill="midnightblue" stroke="midnightblue" points="70.05,-84.02 76.43,-75.56 66.17,-78.19 70.05,-84.02"/>
</g>
<!-- Node15 -->
<g id="node15" class="node">
<title>Node15</title>
<g id="a_node15"><a xlink:title=" ">
<polygon fill="white" stroke="#bfbfbf" points="184.39,-353 184.39,-372 249.39,-372 249.39,-353 184.39,-353"/>
<text text-anchor="middle" x="216.89" y="-360" font-family="Helvetica,sans-Serif" font-size="10.00">functional</text>
</a>
</g>
</g>
<!-- Node1&#45;&gt;Node15 -->
<g id="edge19" class="edge">
<title>Node1&#45;&gt;Node15</title>
<path fill="none" stroke="midnightblue" d="M174.32,-414.36C183.38,-403.54 194.5,-390.26 203.1,-379.98"/>
<polygon fill="midnightblue" stroke="midnightblue" points="205.9,-382.09 209.63,-372.17 200.53,-377.6 205.9,-382.09"/>
</g>
<!-- Node16 -->
<g id="node16" class="node">
<title>Node16</title>
<g id="a_node16"><a xlink:title=" ">
<polygon fill="white" stroke="#bfbfbf" points="267.89,-353 267.89,-372 321.89,-372 321.89,-353 267.89,-353"/>
<text text-anchor="middle" x="294.89" y="-360" font-family="Helvetica,sans-Serif" font-size="10.00">random</text>
</a>
</g>
</g>
<!-- Node1&#45;&gt;Node16 -->
<g id="edge20" class="edge">
<title>Node1&#45;&gt;Node16</title>
<path fill="none" stroke="midnightblue" d="M196.05,-414.36C219.29,-402.4 248.37,-387.44 268.95,-376.85"/>
<polygon fill="midnightblue" stroke="midnightblue" points="270.74,-379.86 278.03,-372.17 267.54,-373.64 270.74,-379.86"/>
</g>
<!-- Node3 -->
<g id="node3" class="node">
<title>Node3</title>
<g id="a_node3"><a xlink:href="AdditiveStateModel_8h.html" target="_top" xlink:title=" ">
<polygon fill="white" stroke="black" points="28.89,-280.5 28.89,-310.5 174.89,-310.5 174.89,-280.5 28.89,-280.5"/>
<text text-anchor="start" x="36.89" y="-298.5" font-family="Helvetica,sans-Serif" font-size="10.00">BayesFilters/AdditiveState</text>
<text text-anchor="middle" x="101.89" y="-287.5" font-family="Helvetica,sans-Serif" font-size="10.00">Model.h</text>
</a>
</g>
</g>
<!-- Node2&#45;&gt;Node3 -->
<g id="edge2" class="edge">
<title>Node2&#45;&gt;Node3</title>
<path fill="none" stroke="midnightblue" d="M99.54,-347.4C99.9,-339.64 100.35,-329.81 100.76,-320.86"/>
<polygon fill="midnightblue" stroke="midnightblue" points="104.27,-320.73 101.24,-310.58 97.28,-320.4 104.27,-320.73"/>
</g>
<!-- Node4 -->
<g id="node4" class="node">
<title>Node4</title>
<g id="a_node4"><a xlink:href="StateModel_8h.html" target="_top" xlink:title=" ">
<polygon fill="white" stroke="black" points="110.89,-224.5 110.89,-243.5 254.89,-243.5 254.89,-224.5 110.89,-224.5"/>
<text text-anchor="middle" x="182.89" y="-231.5" font-family="Helvetica,sans-Serif" font-size="10.00">BayesFilters/StateModel.h</text>
</a>
</g>
</g>
<!-- Node3&#45;&gt;Node4 -->
<g id="edge3" class="edge">
<title>Node3&#45;&gt;Node4</title>
<path fill="none" stroke="midnightblue" d="M121.09,-280.4C133.7,-271.13 150.18,-259.03 162.95,-249.65"/>
<polygon fill="midnightblue" stroke="midnightblue" points="165.12,-252.4 171.1,-243.66 160.97,-246.76 165.12,-252.4"/>
</g>
<!-- Node3&#45;&gt;Node7 -->
<g id="edge17" class="edge">
<title>Node3&#45;&gt;Node7</title>
<path fill="none" stroke="midnightblue" d="M96.71,-280.41C86.78,-252.55 65.36,-188.21 57.89,-132 56.72,-123.19 55.12,-120.45 57.89,-112 61.38,-101.34 68.46,-91.12 75.17,-83.12"/>
<polygon fill="midnightblue" stroke="midnightblue" points="77.79,-85.44 81.87,-75.66 72.58,-80.76 77.79,-85.44"/>
</g>
<!-- Node5 -->
<g id="node5" class="node">
<title>Node5</title>
<g id="a_node5"><a xlink:href="ExogenousModel_8h.html" target="_top" xlink:title=" ">
<polygon fill="white" stroke="black" points="241.39,-168.5 241.39,-187.5 412.39,-187.5 412.39,-168.5 241.39,-168.5"/>
<text text-anchor="middle" x="326.89" y="-175.5" font-family="Helvetica,sans-Serif" font-size="10.00">BayesFilters/ExogenousModel.h</text>
</a>
</g>
</g>
<!-- Node4&#45;&gt;Node5 -->
<g id="edge4" class="edge">
<title>Node4&#45;&gt;Node5</title>
<path fill="none" stroke="midnightblue" d="M205.71,-224.44C229.72,-215.44 267.72,-201.19 294.76,-191.05"/>
<polygon fill="midnightblue" stroke="midnightblue" points="296.04,-194.3 304.18,-187.52 293.59,-187.75 296.04,-194.3"/>
</g>
<!-- Node10 -->
<g id="node10" class="node">
<title>Node10</title>
<g id="a_node10"><a xlink:href="Skippable_8h.html" target="_top" xlink:title=" ">
<polygon fill="white" stroke="black" points="434.39,-112.5 434.39,-131.5 571.39,-131.5 571.39,-112.5 434.39,-112.5"/>
<text text-anchor="middle" x="502.89" y="-119.5" font-family="Helvetica,sans-Serif" font-size="10.00">BayesFilters/Skippable.h</text>
</a>
</g>
</g>
<!-- Node4&#45;&gt;Node10 -->
<g id="edge12" class="edge">
<title>Node4&#45;&gt;Node10</title>
<path fill="none" stroke="midnightblue" d="M254.94,-228.63C303.88,-223.49 369.05,-212.31 421.89,-188 447.83,-176.06 472.68,-154.02 487.86,-138.94"/>
<polygon fill="midnightblue" stroke="midnightblue" points="490.37,-141.37 494.87,-131.78 485.37,-136.48 490.37,-141.37"/>
</g>
<!-- Node13 -->
<g id="node13" class="node">
<title>Node13</title>
<g id="a_node13"><a xlink:href="StateProcess_8h.html" target="_top" xlink:title=" ">
<polygon fill="white" stroke="black" points="66.89,-112.5 66.89,-131.5 218.89,-131.5 218.89,-112.5 66.89,-112.5"/>
<text text-anchor="middle" x="142.89" y="-119.5" font-family="Helvetica,sans-Serif" font-size="10.00">BayesFilters/StateProcess.h</text>
</a>
</g>
</g>
<!-- Node4&#45;&gt;Node13 -->
<g id="edge13" class="edge">
<title>Node4&#45;&gt;Node13</title>
<path fill="none" stroke="midnightblue" d="M180.83,-224.45C177.71,-211.89 171.35,-187.8 163.89,-168 160.47,-158.92 156,-149.14 152.06,-141.01"/>
<polygon fill="midnightblue" stroke="midnightblue" points="155.07,-139.19 147.48,-131.79 148.8,-142.31 155.07,-139.19"/>
</g>
<!-- Node14 -->
<g id="node14" class="node">
<title>Node14</title>
<g id="a_node14"><a xlink:title=" ">
<polygon fill="white" stroke="#bfbfbf" points="96.89,-168.5 96.89,-187.5 154.89,-187.5 154.89,-168.5 96.89,-168.5"/>
<text text-anchor="middle" x="125.89" y="-175.5" font-family="Helvetica,sans-Serif" font-size="10.00">memory</text>
</a>
</g>
</g>
<!-- Node4&#45;&gt;Node14 -->
<g id="edge16" class="edge">
<title>Node4&#45;&gt;Node14</title>
<path fill="none" stroke="midnightblue" d="M173.73,-224.32C165.39,-216.42 152.86,-204.55 142.71,-194.94"/>
<polygon fill="midnightblue" stroke="midnightblue" points="144.88,-192.17 135.21,-187.83 140.07,-197.25 144.88,-192.17"/>
</g>
<!-- Node6 -->
<g id="node6" class="node">
<title>Node6</title>
<g id="a_node6"><a xlink:href="ExogenousProcess_8h.html" target="_top" xlink:title=" ">
<polygon fill="white" stroke="black" points="237.39,-112.5 237.39,-131.5 416.39,-131.5 416.39,-112.5 237.39,-112.5"/>
<text text-anchor="middle" x="326.89" y="-119.5" font-family="Helvetica,sans-Serif" font-size="10.00">BayesFilters/ExogenousProcess.h</text>
</a>
</g>
</g>
<!-- Node5&#45;&gt;Node6 -->
<g id="edge5" class="edge">
<title>Node5&#45;&gt;Node6</title>
<path fill="none" stroke="midnightblue" d="M326.89,-168.08C326.89,-161.01 326.89,-150.86 326.89,-141.99"/>
<polygon fill="midnightblue" stroke="midnightblue" points="330.39,-141.75 326.89,-131.75 323.39,-141.75 330.39,-141.75"/>
</g>
<!-- Node5&#45;&gt;Node10 -->
<g id="edge9" class="edge">
<title>Node5&#45;&gt;Node10</title>
<path fill="none" stroke="midnightblue" d="M354.78,-168.44C384.64,-159.28 432.2,-144.69 465.35,-134.52"/>
<polygon fill="midnightblue" stroke="midnightblue" points="466.6,-137.8 475.13,-131.52 464.55,-131.1 466.6,-137.8"/>
</g>
<!-- Node6&#45;&gt;Node7 -->
<g id="edge6" class="edge">
<title>Node6&#45;&gt;Node7</title>
<path fill="none" stroke="midnightblue" d="M289.49,-112.44C248.5,-103.06 182.63,-87.99 138.1,-77.8"/>
<polygon fill="midnightblue" stroke="midnightblue" points="138.64,-74.34 128.11,-75.52 137.08,-81.16 138.64,-74.34"/>
</g>
<!-- Node9 -->
<g id="node9" class="node">
<title>Node9</title>
<g id="a_node9"><a xlink:title=" ">
<polygon fill="white" stroke="#bfbfbf" points="242.39,-56.5 242.39,-75.5 319.39,-75.5 319.39,-56.5 242.39,-56.5"/>
<text text-anchor="middle" x="280.89" y="-63.5" font-family="Helvetica,sans-Serif" font-size="10.00">Eigen/Dense</text>
</a>
</g>
</g>
<!-- Node6&#45;&gt;Node9 -->
<g id="edge8" class="edge">
<title>Node6&#45;&gt;Node9</title>
<path fill="none" stroke="midnightblue" d="M319.29,-112.08C312.66,-104.3 302.87,-92.8 294.83,-83.37"/>
<polygon fill="midnightblue" stroke="midnightblue" points="297.49,-81.09 288.34,-75.75 292.16,-85.63 297.49,-81.09"/>
</g>
<!-- Node8 -->
<g id="node8" class="node">
<title>Node8</title>
<g id="a_node8"><a xlink:title=" ">
<polygon fill="white" stroke="#bfbfbf" points="64.39,-0.5 64.39,-19.5 117.39,-19.5 117.39,-0.5 64.39,-0.5"/>
<text text-anchor="middle" x="90.89" y="-7.5" font-family="Helvetica,sans-Serif" font-size="10.00">cstddef</text>
</a>
</g>
</g>
<!-- Node7&#45;&gt;Node8 -->
<g id="edge7" class="edge">
<title>Node7&#45;&gt;Node8</title>
<path fill="none" stroke="midnightblue" d="M90.89,-56.08C90.89,-49.01 90.89,-38.86 90.89,-29.99"/>
<polygon fill="midnightblue" stroke="midnightblue" points="94.39,-29.75 90.89,-19.75 87.39,-29.75 94.39,-29.75"/>
</g>
<!-- Node11 -->
<g id="node11" class="node">
<title>Node11</title>
<g id="a_node11"><a xlink:href="Skipper_8h.html" target="_top" xlink:title=" ">
<polygon fill="white" stroke="black" points="440.39,-56.5 440.39,-75.5 565.39,-75.5 565.39,-56.5 440.39,-56.5"/>
<text text-anchor="middle" x="502.89" y="-63.5" font-family="Helvetica,sans-Serif" font-size="10.00">BayesFilters/Skipper.h</text>
</a>
</g>
</g>
<!-- Node10&#45;&gt;Node11 -->
<g id="edge10" class="edge">
<title>Node10&#45;&gt;Node11</title>
<path fill="none" stroke="midnightblue" d="M502.89,-112.08C502.89,-105.01 502.89,-94.86 502.89,-85.99"/>
<polygon fill="midnightblue" stroke="midnightblue" points="506.39,-85.75 502.89,-75.75 499.39,-85.75 506.39,-85.75"/>
</g>
<!-- Node12 -->
<g id="node12" class="node">
<title>Node12</title>
<g id="a_node12"><a xlink:title=" ">
<polygon fill="white" stroke="#bfbfbf" points="480.89,-0.5 480.89,-19.5 524.89,-19.5 524.89,-0.5 480.89,-0.5"/>
<text text-anchor="middle" x="502.89" y="-7.5" font-family="Helvetica,sans-Serif" font-size="10.00">string</text>
</a>
</g>
</g>
<!-- Node11&#45;&gt;Node12 -->
<g id="edge11" class="edge">
<title>Node11&#45;&gt;Node12</title>
<path fill="none" stroke="midnightblue" d="M502.89,-56.08C502.89,-49.01 502.89,-38.86 502.89,-29.99"/>
<polygon fill="midnightblue" stroke="midnightblue" points="506.39,-29.75 502.89,-19.75 499.39,-29.75 506.39,-29.75"/>
</g>
<!-- Node13&#45;&gt;Node7 -->
<g id="edge14" class="edge">
<title>Node13&#45;&gt;Node7</title>
<path fill="none" stroke="midnightblue" d="M134.3,-112.08C126.73,-104.22 115.51,-92.57 106.37,-83.08"/>
<polygon fill="midnightblue" stroke="midnightblue" points="108.77,-80.53 99.32,-75.75 103.73,-85.38 108.77,-80.53"/>
</g>
<!-- Node13&#45;&gt;Node9 -->
<g id="edge15" class="edge">
<title>Node13&#45;&gt;Node9</title>
<path fill="none" stroke="midnightblue" d="M164.76,-112.44C187.67,-103.48 223.86,-89.31 249.76,-79.18"/>
<polygon fill="midnightblue" stroke="midnightblue" points="251.09,-82.42 259.13,-75.52 248.54,-75.9 251.09,-82.42"/>
</g>
</g>
</svg>
        <g id="navigator" transform="translate(0 0)" fill="#404254">
                <rect fill="#f2f5e9" fill-opacity="0.5" stroke="#606060" stroke-width=".5" x="0" y="0" width="60" height="60"/>
                <use id="zoomplus" xlink:href="#zoomPlus" x="17" y="9" onmousedown="handleZoom(evt,'in')"/>
                <use id="zoomminus" xlink:href="#zoomMin" x="42" y="9" onmousedown="handleZoom(evt,'out')"/>
                <use id="reset" xlink:href="#resetDef" x="30" y="36" onmousedown="handleReset()"/>
                <g id="arrowUp" xlink:href="#dirArrow" transform="translate(30 24)" onmousedown="handlePan(0,-1)">
                  <use xlink:href="#rim" fill="#404040">
                        <set attributeName="fill" to="#808080" begin="arrowUp.mouseover" end="arrowUp.mouseout"/>
                  </use>
                  <path fill="none" stroke="white" stroke-width="1.5" d="M0,-3.0v7 M-2.5,-0.5L0,-3.0L2.5,-0.5"/>
                </g>
                <g id="arrowRight" xlink:href="#dirArrow" transform="rotate(90) translate(36 -43)" onmousedown="handlePan(1,0)">
                  <use xlink:href="#rim" fill="#404040">
                        <set attributeName="fill" to="#808080" begin="arrowRight.mouseover" end="arrowRight.mouseout"/>
                  </use>
                  <path fill="none" stroke="white" stroke-width="1.5" d="M0,-3.0v7 M-2.5,-0.5L0,-3.0L2.5,-0.5"/>
                </g>
                <g id="arrowDown" xlink:href="#dirArrow" transform="rotate(180) translate(-30 -48)" onmousedown="handlePan(0,1)">
                  <use xlink:href="#rim" fill="#404040">
                        <set attributeName="fill" to="#808080" begin="arrowDown.mouseover" end="arrowDown.mouseout"/>
                  </use>
                  <path fill="none" stroke="white" stroke-width="1.5" d="M0,-3.0v7 M-2.5,-0.5L0,-3.0L2.5,-0.5"/>
                </g>
                <g id="arrowLeft" xlink:href="#dirArrow" transform="rotate(270) translate(-36 17)" onmousedown="handlePan(-1,0)">
                  <use xlink:href="#rim" fill="#404040">
                        <set attributeName="fill" to="#808080" begin="arrowLeft.mouseover" end="arrowLeft.mouseout"/>
                  </use>
                  <path fill="none" stroke="white" stroke-width="1.5" d="M0,-3.0v7 M-2.5,-0.5L0,-3.0L2.5,-0.5"/>
                </g>
        </g>
        <svg viewBox="0 0 15 15" width="100%" height="30px" preserveAspectRatio="xMaxYMin meet">
         <g id="arrow_out" transform="scale(0.3 0.3)">
          <a xlink:href="WhiteNoiseAcceleration_8h__incl_org.svg" target="_base">
           <rect id="button" ry="5" rx="5" y="6" x="6" height="38" width="38"
                fill="#f2f5e9" fill-opacity="0.5" stroke="#606060" stroke-width="1.0"/>
           <path id="arrow"
             d="M 11.500037,31.436501 C 11.940474,20.09759 22.043105,11.32322 32.158766,21.979434 L 37.068811,17.246167 C 37.068811,17.246167 37.088388,32 37.088388,32 L 22.160133,31.978069 C 22.160133,31.978069 26.997745,27.140456 26.997745,27.140456 C 18.528582,18.264221 13.291696,25.230495 11.500037,31.436501 z"
             style="fill:#404040;"/>
          </a>
         </g>
        </svg>
</svg>
