<?xml version="1.0" encoding="UTF-8" standalone="no"?>
<!DOCTYPE svg PUBLIC "-//W3C//DTD SVG 1.1//EN"
 "http://www.w3.org/Graphics/SVG/1.1/DTD/svg11.dtd">
<!-- Generated by graphviz version 2.43.0 (0)
 -->
<!-- Title: /home/user/bayes&#45;filters&#45;lib/src/BayesFilters/src/WhiteNoiseAcceleration.cpp Pages: 1 -->
<!--zoomable 520 -->
<svg id="main" version="1.1" xmlns="http://www.w3.org/2000/svg" xmlns:xlink="http://www.w3.org/1999/xlink" xml:space="preserve" onload="init(evt)">
<style type="text/css"><![CDATA[
.edge:hover path { stroke: red; }
.edge:hover polygon { stroke: red; fill: red; }
]]></style>
<script type="text/javascript"><![CDATA[
var edges = document.getElementsByTagName('g');
if (edges && edges.length) {
  for (var i=0;i<edges.length;i++) {
    if (edges[i].id.substr(0,4)=='edge') {
      edges[i].setAttribute('class','edge');
    }
  }
}
]]></script>
        <defs>
                <circle id="rim" cx="0" cy="0" r="7"/>
                <circle id="rim2" cx="0" cy="0" r="3.5"/>
                <g id="zoomPlus">
                        <use xlink:href="#rim" fill="#404040">
                                <set attributeName="fill" to="#808080" begin="zoomplus.mouseover" end="zoomplus.mouseout"/>
                        </use>
                        <path d="M-4,0h8M0,-4v8" fill="none" stroke="white" stroke-width="1.5" pointer-events="none"/>
                </g>
                <g id="zoomMin">
                        <use xlink:href="#rim" fill="#404040">
                                <set attributeName="fill" to="#808080" begin="zoomminus.mouseover" end="zoomminus.mouseout"/>
                        </use>
                        <path d="M-4,0h8" fill="none" stroke="white" stroke-width="1.5" pointer-events="none"/>
                </g>
                <g id="dirArrow">
                        <path fill="none" stroke="white" stroke-width="1.5" d="M0,-3.0v7 M-2.5,-0.5L0,-3.0L2.5,-0.5"/>
                </g>
               <g id="resetDef">
                       <use xlink:href="#rim2" fill="#404040">
                               <set attributeName="fill" to="#808080" begin="reset.mouseover" end="reset.mouseout"/>
                       </use>
               </g>
        </defs>

<script type="text/javascript">
var viewWidth = 1091;
var viewHeight = 520;
var sectionId = 'dynsection-0';
</script>
<script xlink:href="svgpan.js"/>
<svg id="graph" class="graph">
<g id="viewport">
<title>/home/user/bayes&#45;filters&#45;lib/src/BayesFilters/src/WhiteNoiseAcceleration.cpp</title>
<polygon fill="white" stroke="transparent" points="-4,4 -4,-516 1087,-516 1087,4 -4,4"/>
<!-- Node1 -->
<g id="node1" class="node">
<title>Node1</title>
<g id="a_node1"><a xlink:title=" ">
<polygon fill="#bfbfbf" stroke="black" points="822,-470.5 822,-511.5 979,-511.5 979,-470.5 822,-470.5"/>
<text text-anchor="start" x="830" y="-499.5" font-family="Helvetica,sans-Serif" font-size="10.00">/home/user/bayes&#45;filters</text>
<text text-anchor="start" x="830" y="-488.5" font-family="Helvetica,sans-Serif" font-size="10.00">&#45;lib/src/BayesFilters/src</text>
<text text-anchor="middle" x="900.5" y="-477.5" font-family="Helvetica,sans-Serif" font-size="10.00">/WhiteNoiseAcceleration.cpp</text>
</a>
</g>
</g>
<!-- Node2 -->
<g id="node2" class="node">
<title>Node2</title>
<g id="a_node2"><a xlink:href="WhiteNoiseAcceleration_8h.html" target="_top" xlink:title=" ">
<polygon fill="white" stroke="black" points="62.5,-414.5 62.5,-433.5 268.5,-433.5 268.5,-414.5 62.5,-414.5"/>
<text text-anchor="middle" x="165.5" y="-421.5" font-family="Helvetica,sans-Serif" font-size="10.00">BayesFilters/WhiteNoiseAcceleration.h</text>
</a>
</g>
</g>
<!-- Node1&#45;&gt;Node2 -->
<g id="edge1" class="edge">
<title>Node1&#45;&gt;Node2</title>
<path fill="none" stroke="midnightblue" d="M821.84,-483.04C689.25,-471.32 421.16,-447.61 271.9,-434.41"/>
<polygon fill="midnightblue" stroke="midnightblue" points="272.08,-430.91 261.81,-433.52 271.46,-437.88 272.08,-430.91"/>
</g>
<!-- Node18 -->
<g id="node18" class="node">
<title>Node18</title>
<g id="a_node18"><a xlink:href="utils_8h.html" target="_top" xlink:title=" ">
<polygon fill="white" stroke="black" points="762.5,-224.5 762.5,-243.5 872.5,-243.5 872.5,-224.5 762.5,-224.5"/>
<text text-anchor="middle" x="817.5" y="-231.5" font-family="Helvetica,sans-Serif" font-size="10.00">BayesFilters/utils.h</text>
</a>
</g>
</g>
<!-- Node1&#45;&gt;Node18 -->
<g id="edge22" class="edge">
<title>Node1&#45;&gt;Node18</title>
<path fill="none" stroke="midnightblue" d="M894.12,-470.41C878.52,-422.48 838.58,-299.78 823.44,-253.26"/>
<polygon fill="midnightblue" stroke="midnightblue" points="826.73,-252.04 820.3,-243.61 820.07,-254.21 826.73,-252.04"/>
</g>
<!-- Node20 -->
<g id="node20" class="node">
<title>Node20</title>
<g id="a_node20"><a xlink:title=" ">
<polygon fill="white" stroke="#bfbfbf" points="899,-168.5 899,-187.5 946,-187.5 946,-168.5 899,-168.5"/>
<text text-anchor="middle" x="922.5" y="-175.5" font-family="Helvetica,sans-Serif" font-size="10.00">cmath</text>
</a>
</g>
</g>
<!-- Node1&#45;&gt;Node20 -->
<g id="edge28" class="edge">
<title>Node1&#45;&gt;Node20</title>
<path fill="none" stroke="midnightblue" d="M900.5,-470.28C900.5,-445.39 900.5,-401.27 900.5,-363.5 900.5,-363.5 900.5,-363.5 900.5,-294.5 900.5,-259.59 910.32,-219.78 916.84,-197.19"/>
<polygon fill="midnightblue" stroke="midnightblue" points="920.2,-198.17 919.71,-187.59 913.49,-196.16 920.2,-198.17"/>
</g>
<!-- Node21 -->
<g id="node21" class="node">
<title>Node21</title>
<g id="a_node21"><a xlink:title=" ">
<polygon fill="white" stroke="#bfbfbf" points="929,-414.5 929,-433.5 974,-433.5 974,-414.5 929,-414.5"/>
<text text-anchor="middle" x="951.5" y="-421.5" font-family="Helvetica,sans-Serif" font-size="10.00">utility</text>
</a>
</g>
</g>
<!-- Node1&#45;&gt;Node21 -->
<g id="edge29" class="edge">
<title>Node1&#45;&gt;Node21</title>
<path fill="none" stroke="midnightblue" d="M915.8,-470.5C923.02,-461.3 931.54,-450.44 938.45,-441.63"/>
<polygon fill="midnightblue" stroke="midnightblue" points="941.29,-443.68 944.71,-433.65 935.78,-439.36 941.29,-443.68"/>
</g>
<!-- Node22 -->
<g id="node22" class="node">
<title>Node22</title>
<g id="a_node22"><a xlink:title=" ">
<polygon fill="white" stroke="#bfbfbf" points="992,-414.5 992,-433.5 1083,-433.5 1083,-414.5 992,-414.5"/>
<text text-anchor="middle" x="1037.5" y="-421.5" font-family="Helvetica,sans-Serif" font-size="10.00">Eigen/Cholesky</text>
</a>
</g>
</g>
<!-- Node1&#45;&gt;Node22 -->
<g id="edge30" class="edge">
<title>Node1&#45;&gt;Node22</title>
<path fill="none" stroke="midnightblue" d="M941.6,-470.5C963.72,-460.01 990.4,-447.35 1009.99,-438.05"/>
<polygon fill="midnightblue" stroke="midnightblue" points="1011.73,-441.1 1019.26,-433.65 1008.73,-434.78 1011.73,-441.1"/>
</g>
<!-- Node3 -->
<g id="node3" class="node">
<title>Node3</title>
<g id="a_node3"><a xlink:href="LinearStateModel_8h.html" target="_top" xlink:title=" ">
<polygon fill="white" stroke="black" points="197,-347.5 197,-377.5 332,-377.5 332,-347.5 197,-347.5"/>
<text text-anchor="start" x="205" y="-365.5" font-family="Helvetica,sans-Serif" font-size="10.00">BayesFilters/LinearState</text>
<text text-anchor="middle" x="264.5" y="-354.5" font-family="Helvetica,sans-Serif" font-size="10.00">Model.h</text>
</a>
</g>
</g>
<!-- Node2&#45;&gt;Node3 -->
<g id="edge2" class="edge">
<title>Node2&#45;&gt;Node3</title>
<path fill="none" stroke="midnightblue" d="M179.68,-414.48C193.34,-406.27 214.49,-393.56 232.25,-382.88"/>
<polygon fill="midnightblue" stroke="midnightblue" points="234.4,-385.67 241.17,-377.52 230.79,-379.67 234.4,-385.67"/>
</g>
<!-- Node8 -->
<g id="node8" class="node">
<title>Node8</title>
<g id="a_node8"><a xlink:href="VectorDescription_8h.html" target="_top" xlink:title=" ">
<polygon fill="white" stroke="black" points="168,-56.5 168,-75.5 343,-75.5 343,-56.5 168,-56.5"/>
<text text-anchor="middle" x="255.5" y="-63.5" font-family="Helvetica,sans-Serif" font-size="10.00">BayesFilters/VectorDescription.h</text>
</a>
</g>
</g>
<!-- Node2&#45;&gt;Node8 -->
<g id="edge19" class="edge">
<title>Node2&#45;&gt;Node8</title>
<path fill="none" stroke="midnightblue" d="M165.5,-414.41C165.5,-393.98 165.5,-340.86 165.5,-296.5 165.5,-296.5 165.5,-296.5 165.5,-177 165.5,-134.66 205.94,-99.66 232.6,-81.18"/>
<polygon fill="midnightblue" stroke="midnightblue" points="234.66,-84.02 241.04,-75.56 230.78,-78.19 234.66,-84.02"/>
</g>
<!-- Node16 -->
<g id="node16" class="node">
<title>Node16</title>
<g id="a_node16"><a xlink:title=" ">
<polygon fill="white" stroke="#bfbfbf" points="0,-353 0,-372 65,-372 65,-353 0,-353"/>
<text text-anchor="middle" x="32.5" y="-360" font-family="Helvetica,sans-Serif" font-size="10.00">functional</text>
</a>
</g>
</g>
<!-- Node2&#45;&gt;Node16 -->
<g id="edge20" class="edge">
<title>Node2&#45;&gt;Node16</title>
<path fill="none" stroke="midnightblue" d="M146.44,-414.48C124.03,-404.45 86.59,-387.7 60.79,-376.15"/>
<polygon fill="midnightblue" stroke="midnightblue" points="62.08,-372.9 51.52,-372.01 59.22,-379.29 62.08,-372.9"/>
</g>
<!-- Node17 -->
<g id="node17" class="node">
<title>Node17</title>
<g id="a_node17"><a xlink:title=" ">
<polygon fill="white" stroke="#bfbfbf" points="83.5,-353 83.5,-372 137.5,-372 137.5,-353 83.5,-353"/>
<text text-anchor="middle" x="110.5" y="-360" font-family="Helvetica,sans-Serif" font-size="10.00">random</text>
</a>
</g>
</g>
<!-- Node2&#45;&gt;Node17 -->
<g id="edge21" class="edge">
<title>Node2&#45;&gt;Node17</title>
<path fill="none" stroke="midnightblue" d="M157.62,-414.48C149.21,-405.37 135.68,-390.74 125.27,-379.48"/>
<polygon fill="midnightblue" stroke="midnightblue" points="127.72,-376.98 118.37,-372.01 122.58,-381.73 127.72,-376.98"/>
</g>
<!-- Node4 -->
<g id="node4" class="node">
<title>Node4</title>
<g id="a_node4"><a xlink:href="AdditiveStateModel_8h.html" target="_top" xlink:title=" ">
<polygon fill="white" stroke="black" points="193.5,-280.5 193.5,-310.5 339.5,-310.5 339.5,-280.5 193.5,-280.5"/>
<text text-anchor="start" x="201.5" y="-298.5" font-family="Helvetica,sans-Serif" font-size="10.00">BayesFilters/AdditiveState</text>
<text text-anchor="middle" x="266.5" y="-287.5" font-family="Helvetica,sans-Serif" font-size="10.00">Model.h</text>
</a>
</g>
</g>
<!-- Node3&#45;&gt;Node4 -->
<g id="edge3" class="edge">
<title>Node3&#45;&gt;Node4</title>
<path fill="none" stroke="midnightblue" d="M264.93,-347.4C265.17,-339.64 265.48,-329.81 265.75,-320.86"/>
<polygon fill="midnightblue" stroke="midnightblue" points="269.26,-320.68 266.07,-310.58 262.26,-320.46 269.26,-320.68"/>
</g>
<!-- Node5 -->
<g id="node5" class="node">
<title>Node5</title>
<g id="a_node5"><a xlink:href="StateModel_8h.html" target="_top" xlink:title=" ">
<polygon fill="white" stroke="black" points="425.5,-224.5 425.5,-243.5 569.5,-243.5 569.5,-224.5 425.5,-224.5"/>
<text text-anchor="middle" x="497.5" y="-231.5" font-family="Helvetica,sans-Serif" font-size="10.00">BayesFilters/StateModel.h</text>
</a>
</g>
</g>
<!-- Node4&#45;&gt;Node5 -->
<g id="edge4" class="edge">
<title>Node4&#45;&gt;Node5</title>
<path fill="none" stroke="midnightblue" d="M320.95,-280.47C361.67,-269.99 416.6,-255.84 454.32,-246.12"/>
<polygon fill="midnightblue" stroke="midnightblue" points="455.66,-249.39 464.48,-243.51 453.92,-242.61 455.66,-249.39"/>
</g>
<!-- Node4&#45;&gt;Node8 -->
<g id="edge18" class="edge">
<title>Node4&#45;&gt;Node8</title>
<path fill="none" stroke="midnightblue" d="M261.32,-280.41C251.39,-252.55 229.97,-188.21 222.5,-132 221.33,-123.19 219.73,-120.45 222.5,-112 225.99,-101.34 233.07,-91.12 239.79,-83.12"/>
<polygon fill="midnightblue" stroke="midnightblue" points="242.4,-85.44 246.48,-75.66 237.2,-80.76 242.4,-85.44"/>
</g>
<!-- Node6 -->
<g id="node6" class="node">
<title>Node6</title>
<g id="a_node6"><a xlink:href="ExogenousModel_8h.html" target="_top" xlink:title=" ">
<polygon fill="white" stroke="black" points="412,-168.5 412,-187.5 583,-187.5 583,-168.5 412,-168.5"/>
<text text-anchor="middle" x="497.5" y="-175.5" font-family="Helvetica,sans-Serif" font-size="10.00">BayesFilters/ExogenousModel.h</text>
</a>
</g>
</g>
<!-- Node5&#45;&gt;Node6 -->
<g id="edge5" class="edge">
<title>Node5&#45;&gt;Node6</title>
<path fill="none" stroke="midnightblue" d="M497.5,-224.08C497.5,-217.01 497.5,-206.86 497.5,-197.99"/>
<polygon fill="midnightblue" stroke="midnightblue" points="501,-197.75 497.5,-187.75 494,-197.75 501,-197.75"/>
</g>
<!-- Node11 -->
<g id="node11" class="node">
<title>Node11</title>
<g id="a_node11"><a xlink:href="Skippable_8h.html" target="_top" xlink:title=" ">
<polygon fill="white" stroke="black" points="599,-112.5 599,-131.5 736,-131.5 736,-112.5 599,-112.5"/>
<text text-anchor="middle" x="667.5" y="-119.5" font-family="Helvetica,sans-Serif" font-size="10.00">BayesFilters/Skippable.h</text>
</a>
</g>
</g>
<!-- Node5&#45;&gt;Node11 -->
<g id="edge13" class="edge">
<title>Node5&#45;&gt;Node11</title>
<path fill="none" stroke="midnightblue" d="M519.91,-224.42C539.75,-216.35 569.12,-203.26 592.5,-188 614.66,-173.54 637.22,-153.04 651.73,-138.95"/>
<polygon fill="midnightblue" stroke="midnightblue" points="654.25,-141.37 658.91,-131.86 649.33,-136.39 654.25,-141.37"/>
</g>
<!-- Node14 -->
<g id="node14" class="node">
<title>Node14</title>
<g id="a_node14"><a xlink:href="StateProcess_8h.html" target="_top" xlink:title=" ">
<polygon fill="white" stroke="black" points="231.5,-112.5 231.5,-131.5 383.5,-131.5 383.5,-112.5 231.5,-112.5"/>
<text text-anchor="middle" x="307.5" y="-119.5" font-family="Helvetica,sans-Serif" font-size="10.00">BayesFilters/StateProcess.h</text>
</a>
</g>
</g>
<!-- Node5&#45;&gt;Node14 -->
<g id="edge14" class="edge">
<title>Node5&#45;&gt;Node14</title>
<path fill="none" stroke="midnightblue" d="M477.25,-224.36C457.91,-215.86 428.14,-202.13 403.5,-188 376.07,-172.26 346.15,-151.36 327.13,-137.56"/>
<polygon fill="midnightblue" stroke="midnightblue" points="329.1,-134.66 318.96,-131.58 324.97,-140.31 329.1,-134.66"/>
</g>
<!-- Node15 -->
<g id="node15" class="node">
<title>Node15</title>
<g id="a_node15"><a xlink:title=" ">
<polygon fill="white" stroke="#bfbfbf" points="667.5,-168.5 667.5,-187.5 725.5,-187.5 725.5,-168.5 667.5,-168.5"/>
<text text-anchor="middle" x="696.5" y="-175.5" font-family="Helvetica,sans-Serif" font-size="10.00">memory</text>
</a>
</g>
</g>
<!-- Node5&#45;&gt;Node15 -->
<g id="edge17" class="edge">
<title>Node5&#45;&gt;Node15</title>
<path fill="none" stroke="midnightblue" d="M529.03,-224.44C563.79,-215.01 619.76,-199.83 657.31,-189.63"/>
<polygon fill="midnightblue" stroke="midnightblue" points="658.65,-192.9 667.38,-186.9 656.81,-186.14 658.65,-192.9"/>
</g>
<!-- Node7 -->
<g id="node7" class="node">
<title>Node7</title>
<g id="a_node7"><a xlink:href="ExogenousProcess_8h.html" target="_top" xlink:title=" ">
<polygon fill="white" stroke="black" points="402,-112.5 402,-131.5 581,-131.5 581,-112.5 402,-112.5"/>
<text text-anchor="middle" x="491.5" y="-119.5" font-family="Helvetica,sans-Serif" font-size="10.00">BayesFilters/ExogenousProcess.h</text>
</a>
</g>
</g>
<!-- Node6&#45;&gt;Node7 -->
<g id="edge6" class="edge">
<title>Node6&#45;&gt;Node7</title>
<path fill="none" stroke="midnightblue" d="M496.51,-168.08C495.71,-160.93 494.57,-150.64 493.58,-141.69"/>
<polygon fill="midnightblue" stroke="midnightblue" points="497.06,-141.3 492.47,-131.75 490.1,-142.08 497.06,-141.3"/>
</g>
<!-- Node6&#45;&gt;Node11 -->
<g id="edge10" class="edge">
<title>Node6&#45;&gt;Node11</title>
<path fill="none" stroke="midnightblue" d="M524.44,-168.44C553.16,-159.32 598.83,-144.81 630.82,-134.65"/>
<polygon fill="midnightblue" stroke="midnightblue" points="632.22,-137.88 640.69,-131.52 630.1,-131.21 632.22,-137.88"/>
</g>
<!-- Node7&#45;&gt;Node8 -->
<g id="edge7" class="edge">
<title>Node7&#45;&gt;Node8</title>
<path fill="none" stroke="midnightblue" d="M454.11,-112.44C413.11,-103.06 347.25,-87.99 302.72,-77.8"/>
<polygon fill="midnightblue" stroke="midnightblue" points="303.25,-74.34 292.72,-75.52 301.69,-81.16 303.25,-74.34"/>
</g>
<!-- Node10 -->
<g id="node10" class="node">
<title>Node10</title>
<g id="a_node10"><a xlink:title=" ">
<polygon fill="white" stroke="#bfbfbf" points="453,-56.5 453,-75.5 530,-75.5 530,-56.5 453,-56.5"/>
<text text-anchor="middle" x="491.5" y="-63.5" font-family="Helvetica,sans-Serif" font-size="10.00">Eigen/Dense</text>
</a>
</g>
</g>
<!-- Node7&#45;&gt;Node10 -->
<g id="edge9" class="edge">
<title>Node7&#45;&gt;Node10</title>
<path fill="none" stroke="midnightblue" d="M491.5,-112.08C491.5,-105.01 491.5,-94.86 491.5,-85.99"/>
<polygon fill="midnightblue" stroke="midnightblue" points="495,-85.75 491.5,-75.75 488,-85.75 495,-85.75"/>
</g>
<!-- Node9 -->
<g id="node9" class="node">
<title>Node9</title>
<g id="a_node9"><a xlink:title=" ">
<polygon fill="white" stroke="#bfbfbf" points="229,-0.5 229,-19.5 282,-19.5 282,-0.5 229,-0.5"/>
<text text-anchor="middle" x="255.5" y="-7.5" font-family="Helvetica,sans-Serif" font-size="10.00">cstddef</text>
</a>
</g>
</g>
<!-- Node8&#45;&gt;Node9 -->
<g id="edge8" class="edge">
<title>Node8&#45;&gt;Node9</title>
<path fill="none" stroke="midnightblue" d="M255.5,-56.08C255.5,-49.01 255.5,-38.86 255.5,-29.99"/>
<polygon fill="midnightblue" stroke="midnightblue" points="259,-29.75 255.5,-19.75 252,-29.75 259,-29.75"/>
</g>
<!-- Node12 -->
<g id="node12" class="node">
<title>Node12</title>
<g id="a_node12"><a xlink:href="Skipper_8h.html" target="_top" xlink:title=" ">
<polygon fill="white" stroke="black" points="656,-56.5 656,-75.5 781,-75.5 781,-56.5 656,-56.5"/>
<text text-anchor="middle" x="718.5" y="-63.5" font-family="Helvetica,sans-Serif" font-size="10.00">BayesFilters/Skipper.h</text>
</a>
</g>
</g>
<!-- Node11&#45;&gt;Node12 -->
<g id="edge11" class="edge">
<title>Node11&#45;&gt;Node12</title>
<path fill="none" stroke="midnightblue" d="M675.92,-112.08C683.35,-104.22 694.35,-92.57 703.31,-83.08"/>
<polygon fill="midnightblue" stroke="midnightblue" points="705.91,-85.42 710.24,-75.75 700.82,-80.62 705.91,-85.42"/>
</g>
<!-- Node13 -->
<g id="node13" class="node">
<title>Node13</title>
<g id="a_node13"><a xlink:title=" ">
<polygon fill="white" stroke="#bfbfbf" points="797.5,-0.5 797.5,-19.5 841.5,-19.5 841.5,-0.5 797.5,-0.5"/>
<text text-anchor="middle" x="819.5" y="-7.5" font-family="Helvetica,sans-Serif" font-size="10.00">string</text>
</a>
</g>
</g>
<!-- Node12&#45;&gt;Node13 -->
<g id="edge12" class="edge">
<title>Node12&#45;&gt;Node13</title>
<path fill="none" stroke="midnightblue" d="M734.73,-56.32C750.85,-47.7 775.8,-34.36 794.46,-24.39"/>
<polygon fill="midnightblue" stroke="midnightblue" points="796.14,-27.46 803.31,-19.65 792.84,-21.28 796.14,-27.46"/>
</g>
<!-- Node14&#45;&gt;Node8 -->
<g id="edge15" class="edge">
<title>Node14&#45;&gt;Node8</title>
<path fill="none" stroke="midnightblue" d="M298.91,-112.08C291.34,-104.22 280.12,-92.57 270.99,-83.08"/>
<polygon fill="midnightblue" stroke="midnightblue" points="273.38,-80.53 263.93,-75.75 268.34,-85.38 273.38,-80.53"/>
</g>
<!-- Node14&#45;&gt;Node10 -->
<g id="edge16" class="edge">
<title>Node14&#45;&gt;Node10</title>
<path fill="none" stroke="midnightblue" d="M336.66,-112.44C368.01,-103.24 418.03,-88.56 452.7,-78.39"/>
<polygon fill="midnightblue" stroke="midnightblue" points="453.87,-81.69 462.48,-75.52 451.9,-74.97 453.87,-81.69"/>
</g>
<!-- Node18&#45;&gt;Node10 -->
<g id="edge23" class="edge">
<title>Node18&#45;&gt;Node10</title>
<path fill="none" stroke="midnightblue" d="M810.23,-224.38C802.98,-215.56 791.76,-201.31 783.5,-188 763.59,-155.91 775.76,-134.59 745.5,-112 713.8,-88.34 604.89,-75.9 540.43,-70.47"/>
<polygon fill="midnightblue" stroke="midnightblue" points="540.35,-66.95 530.1,-69.63 539.78,-73.93 540.35,-66.95"/>
</g>
<!-- Node18&#45;&gt;Node13 -->
<g id="edge27" class="edge">
<title>Node18&#45;&gt;Node13</title>
<path fill="none" stroke="midnightblue" d="M826.79,-224.39C835.08,-216.02 846.64,-202.48 851.5,-188 870.4,-131.63 843.49,-61.2 828.45,-28.81"/>
<polygon fill="midnightblue" stroke="midnightblue" points="831.55,-27.18 824.06,-19.69 825.25,-30.22 831.55,-27.18"/>
</g>
<!-- Node18&#45;&gt;Node15 -->
<g id="edge26" class="edge">
<title>Node18&#45;&gt;Node15</title>
<path fill="none" stroke="midnightblue" d="M798.33,-224.44C778.59,-215.64 747.61,-201.81 725.01,-191.72"/>
<polygon fill="midnightblue" stroke="midnightblue" points="726.14,-188.4 715.58,-187.52 723.29,-194.79 726.14,-188.4"/>
</g>
<!-- Node19 -->
<g id="node19" class="node">
<title>Node19</title>
<g id="a_node19"><a xlink:title=" ">
<polygon fill="white" stroke="#bfbfbf" points="792.5,-168.5 792.5,-187.5 842.5,-187.5 842.5,-168.5 792.5,-168.5"/>
<text text-anchor="middle" x="817.5" y="-175.5" font-family="Helvetica,sans-Serif" font-size="10.00">chrono</text>
</a>
</g>
</g>
<!-- Node18&#45;&gt;Node19 -->
<g id="edge24" class="edge">
<title>Node18&#45;&gt;Node19</title>
<path fill="none" stroke="midnightblue" d="M817.5,-224.08C817.5,-217.01 817.5,-206.86 817.5,-197.99"/>
<polygon fill="midnightblue" stroke="midnightblue" points="821,-197.75 817.5,-187.75 814,-197.75 821,-197.75"/>
</g>
<!-- Node18&#45;&gt;Node20 -->
<g id="edge25" class="edge">
<title>Node18&#45;&gt;Node20</title>
<path fill="none" stroke="midnightblue" d="M834.37,-224.32C851.21,-215.66 877.31,-202.24 896.74,-192.25"/>
<polygon fill="midnightblue" stroke="midnightblue" points="898.38,-195.34 905.67,-187.65 895.18,-189.12 898.38,-195.34"/>
</g>
</g>
</svg>
        <g id="navigator" transform="translate(0 0)" fill="#404254">
                <rect fill="#f2f5e9" fill-opacity="0.5" stroke="#606060" stroke-width=".5" x="0" y="0" width="60" height="60"/>
                <use id="zoomplus" xlink:href="#zoomPlus" x="17" y="9" onmousedown="handleZoom(evt,'in')"/>
                <use id="zoomminus" xlink:href="#zoomMin" x="42" y="9" onmousedown="handleZoom(evt,'out')"/>
                <use id="reset" xlink:href="#resetDef" x="30" y="36" onmousedown="handleReset()"/>
                <g id="arrowUp" xlink:href="#dirArrow" transform="translate(30 24)" onmousedown="handlePan(0,-1)">
                  <use xlink:href="#rim" fill="#404040">
                        <set attributeName="fill" to="#808080" begin="arrowUp.mouseover" end="arrowUp.mouseout"/>
                  </use>
                  <path fill="none" stroke="white" stroke-width="1.5" d="M0,-3.0v7 M-2.5,-0.5L0,-3.0L2.5,-0.5"/>
                </g>
                <g id="arrowRight" xlink:href="#dirArrow" transform="rotate(90) translate(36 -43)" onmousedown="handlePan(1,0)">
                  <use xlink:href="#rim" fill="#404040">
                        <set attributeName="fill" to="#808080" begin="arrowRight.mouseover" end="arrowRight.mouseout"/>
                  </use>
                  <path fill="none" stroke="white" stroke-width="1.5" d="M0,-3.0v7 M-2.5,-0.5L0,-3.0L2.5,-0.5"/>
                </g>
                <g id="arrowDown" xlink:href="#dirArrow" transform="rotate(180) translate(-30 -48)" onmousedown="handlePan(0,1)">
                  <use xlink:href="#rim" fill="#404040">
                        <set attributeName="fill" to="#808080" begin="arrowDown.mouseover" end="arrowDown.mouseout"/>
                  </use>
                  <path fill="none" stroke="white" stroke-width="1.5" d="M0,-3.0v7 M-2.5,-0.5L0,-3.0L2.5,-0.5"/>
                </g>
                <g id="arrowLeft" xlink:href="#dirArrow" transform="rotate(270) translate(-36 17)" onmousedown="handlePan(-1,0)">
                  <use xlink:href="#rim" fill="#404040">
                        <set attributeName="fill" to="#808080" begin="arrowLeft.mouseover" end="arrowLeft.mouseout"/>
                  </use>
                  <path fill="none" stroke="white" stroke-width="1.5" d="M0,-3.0v7 M-2.5,-0.5L0,-3.0L2.5,-0.5"/>
                </g>
        </g>
        <svg viewBox="0 0 15 15" width="100%" height="30px" preserveAspectRatio="xMaxYMin meet">
         <g id="arrow_out" transform="scale(0.3 0.3)">
          <a xlink:href="WhiteNoiseAcceleration_8cpp__incl_org.svg" target="_base">
           <rect id="button" ry="5" rx="5" y="6" x="6" height="38" width="38"
                fill="#f2f5e9" fill-opacity="0.5" stroke="#606060" stroke-width="1.0"/>
           <path id="arrow"
             d="M 11.500037,31.436501 C 11.940474,20.09759 22.043105,11.32322 32.158766,21.979434 L 37.068811,17.246167 C 37.068811,17.246167 37.088388,32 37.088388,32 L 22.160133,31.978069 C 22.160133,31.978069 26.997745,27.140456 26.997745,27.140456 C 18.528582,18.264221 13.291696,25.230495 11.500037,31.436501 z"
             style="fill:#404040;"/>
          </a>
         </g>
        </svg>
</svg>
