<?xml version="1.0" encoding="UTF-8" standalone="no"?>
<!DOCTYPE svg PUBLIC "-//W3C//DTD SVG 1.1//EN"
 "http://www.w3.org/Graphics/SVG/1.1/DTD/svg11.dtd">
<!-- Generated by graphviz version 2.47.2 (0)
 -->
<!-- Title: /home/xenvre/robot&#45;code/bfl_robotology/src/BayesFilters/src/WhiteNoiseAcceleration.cpp Pages: 1 -->
<svg width="681pt" height="531pt"
 viewBox="0.00 0.00 681.00 531.00" xmlns="http://www.w3.org/2000/svg" xmlns:xlink="http://www.w3.org/1999/xlink">
<g id="graph0" class="graph" transform="scale(1 1) rotate(0) translate(4 527)">
<title>/home/xenvre/robot&#45;code/bfl_robotology/src/BayesFilters/src/WhiteNoiseAcceleration.cpp</title>
<polygon fill="white" stroke="transparent" points="-4,4 -4,-527 677,-527 677,4 -4,4"/>
<!-- Node1 -->
<g id="node1" class="node">
<title>Node1</title>
<g id="a_node1"><a xlink:title=" ">
<polygon fill="#bfbfbf" stroke="black" points="177.5,-470.5 177.5,-522.5 320.5,-522.5 320.5,-470.5 177.5,-470.5"/>
<text text-anchor="start" x="185.5" y="-510.5" font-family="Helvetica,sans-Serif" font-size="10.00">/home/xenvre/robot</text>
<text text-anchor="start" x="185.5" y="-499.5" font-family="Helvetica,sans-Serif" font-size="10.00">&#45;code/bfl_robotology</text>
<text text-anchor="start" x="185.5" y="-488.5" font-family="Helvetica,sans-Serif" font-size="10.00">/src/BayesFilters/src</text>
<text text-anchor="middle" x="249" y="-477.5" font-family="Helvetica,sans-Serif" font-size="10.00">/WhiteNoiseAcceleration.cpp</text>
</a>
</g>
</g>
<!-- Node2 -->
<g id="node2" class="node">
<title>Node2</title>
<g id="a_node2"><a xlink:href="WhiteNoiseAcceleration_8h.html" target="_top" xlink:title=" ">
<polygon fill="white" stroke="black" points="155,-414.5 155,-433.5 343,-433.5 343,-414.5 155,-414.5"/>
<text text-anchor="middle" x="249" y="-421.5" font-family="Helvetica,sans-Serif" font-size="10.00">BayesFilters/WhiteNoiseAcceleration.h</text>
</a>
</g>
</g>
<!-- Node1&#45;&gt;Node2 -->
<g id="edge1" class="edge">
<title>Node1&#45;&gt;Node2</title>
<path fill="none" stroke="midnightblue" d="M249,-470.45C249,-461.73 249,-452.1 249,-443.96"/>
<polygon fill="midnightblue" stroke="midnightblue" points="252.5,-443.7 249,-433.7 245.5,-443.7 252.5,-443.7"/>
</g>
<!-- Node16 -->
<g id="node16" class="node">
<title>Node16</title>
<g id="a_node16"><a xlink:href="utils_8h.html" target="_top" xlink:title=" ">
<polygon fill="white" stroke="black" points="79.5,-224.5 79.5,-243.5 180.5,-243.5 180.5,-224.5 79.5,-224.5"/>
<text text-anchor="middle" x="130" y="-231.5" font-family="Helvetica,sans-Serif" font-size="10.00">BayesFilters/utils.h</text>
</a>
</g>
</g>
<!-- Node1&#45;&gt;Node16 -->
<g id="edge17" class="edge">
<title>Node1&#45;&gt;Node16</title>
<path fill="none" stroke="midnightblue" d="M185.84,-470.44C170.36,-461.28 155.51,-449.3 146,-434 110.34,-376.65 119.69,-291.32 126.2,-253.83"/>
<polygon fill="midnightblue" stroke="midnightblue" points="129.67,-254.28 128.07,-243.81 122.79,-252.99 129.67,-254.28"/>
</g>
<!-- Node18 -->
<g id="node18" class="node">
<title>Node18</title>
<g id="a_node18"><a xlink:title=" ">
<polygon fill="white" stroke="#bfbfbf" points="0,-168.5 0,-187.5 44,-187.5 44,-168.5 0,-168.5"/>
<text text-anchor="middle" x="22" y="-175.5" font-family="Helvetica,sans-Serif" font-size="10.00">cmath</text>
</a>
</g>
</g>
<!-- Node1&#45;&gt;Node18 -->
<g id="edge23" class="edge">
<title>Node1&#45;&gt;Node18</title>
<path fill="none" stroke="midnightblue" d="M177.23,-481.77C115.72,-465.36 37,-431.14 37,-363.5 37,-363.5 37,-363.5 37,-294.5 37,-260.08 30.37,-220.36 25.92,-197.61"/>
<polygon fill="midnightblue" stroke="midnightblue" points="29.32,-196.75 23.9,-187.64 22.46,-198.14 29.32,-196.75"/>
</g>
<!-- Node19 -->
<g id="node19" class="node">
<title>Node19</title>
<g id="a_node19"><a xlink:title=" ">
<polygon fill="white" stroke="#bfbfbf" points="361,-414.5 361,-433.5 401,-433.5 401,-414.5 361,-414.5"/>
<text text-anchor="middle" x="381" y="-421.5" font-family="Helvetica,sans-Serif" font-size="10.00">utility</text>
</a>
</g>
</g>
<!-- Node1&#45;&gt;Node19 -->
<g id="edge24" class="edge">
<title>Node1&#45;&gt;Node19</title>
<path fill="none" stroke="midnightblue" d="M295.91,-470.45C316.1,-459.66 338.91,-447.48 355.82,-438.45"/>
<polygon fill="midnightblue" stroke="midnightblue" points="357.86,-441.33 365.03,-433.53 354.56,-435.15 357.86,-441.33"/>
</g>
<!-- Node20 -->
<g id="node20" class="node">
<title>Node20</title>
<g id="a_node20"><a xlink:title=" ">
<polygon fill="white" stroke="#bfbfbf" points="419,-414.5 419,-433.5 505,-433.5 505,-414.5 419,-414.5"/>
<text text-anchor="middle" x="462" y="-421.5" font-family="Helvetica,sans-Serif" font-size="10.00">Eigen/Cholesky</text>
</a>
</g>
</g>
<!-- Node1&#45;&gt;Node20 -->
<g id="edge25" class="edge">
<title>Node1&#45;&gt;Node20</title>
<path fill="none" stroke="midnightblue" d="M320.52,-471.83C356.19,-460.02 397.76,-446.26 426.57,-436.73"/>
<polygon fill="midnightblue" stroke="midnightblue" points="427.8,-440.01 436.2,-433.54 425.6,-433.36 427.8,-440.01"/>
</g>
<!-- Node3 -->
<g id="node3" class="node">
<title>Node3</title>
<g id="a_node3"><a xlink:href="LinearStateModel_8h.html" target="_top" xlink:title=" ">
<polygon fill="white" stroke="black" points="223,-347.5 223,-377.5 347,-377.5 347,-347.5 223,-347.5"/>
<text text-anchor="start" x="231" y="-365.5" font-family="Helvetica,sans-Serif" font-size="10.00">BayesFilters/LinearState</text>
<text text-anchor="middle" x="285" y="-354.5" font-family="Helvetica,sans-Serif" font-size="10.00">Model.h</text>
</a>
</g>
</g>
<!-- Node2&#45;&gt;Node3 -->
<g id="edge2" class="edge">
<title>Node2&#45;&gt;Node3</title>
<path fill="none" stroke="midnightblue" d="M254.16,-414.48C258.62,-407.09 265.29,-396.08 271.28,-386.17"/>
<polygon fill="midnightblue" stroke="midnightblue" points="274.33,-387.89 276.52,-377.52 268.34,-384.27 274.33,-387.89"/>
</g>
<!-- Node14 -->
<g id="node14" class="node">
<title>Node14</title>
<g id="a_node14"><a xlink:title=" ">
<polygon fill="white" stroke="#bfbfbf" points="365.5,-353 365.5,-372 424.5,-372 424.5,-353 365.5,-353"/>
<text text-anchor="middle" x="395" y="-360" font-family="Helvetica,sans-Serif" font-size="10.00">functional</text>
</a>
</g>
</g>
<!-- Node2&#45;&gt;Node14 -->
<g id="edge15" class="edge">
<title>Node2&#45;&gt;Node14</title>
<path fill="none" stroke="midnightblue" d="M269.92,-414.48C294.75,-404.36 336.34,-387.4 364.69,-375.85"/>
<polygon fill="midnightblue" stroke="midnightblue" points="366.18,-379.02 374.12,-372.01 363.54,-372.54 366.18,-379.02"/>
</g>
<!-- Node15 -->
<g id="node15" class="node">
<title>Node15</title>
<g id="a_node15"><a xlink:title=" ">
<polygon fill="white" stroke="#bfbfbf" points="155.5,-353 155.5,-372 204.5,-372 204.5,-353 155.5,-353"/>
<text text-anchor="middle" x="180" y="-360" font-family="Helvetica,sans-Serif" font-size="10.00">random</text>
</a>
</g>
</g>
<!-- Node2&#45;&gt;Node15 -->
<g id="edge16" class="edge">
<title>Node2&#45;&gt;Node15</title>
<path fill="none" stroke="midnightblue" d="M239.11,-414.48C228.35,-405.2 210.93,-390.17 197.78,-378.83"/>
<polygon fill="midnightblue" stroke="midnightblue" points="199.73,-375.89 189.87,-372.01 195.16,-381.19 199.73,-375.89"/>
</g>
<!-- Node4 -->
<g id="node4" class="node">
<title>Node4</title>
<g id="a_node4"><a xlink:href="AdditiveStateModel_8h.html" target="_top" xlink:title=" ">
<polygon fill="white" stroke="black" points="218.5,-280.5 218.5,-310.5 351.5,-310.5 351.5,-280.5 218.5,-280.5"/>
<text text-anchor="start" x="226.5" y="-298.5" font-family="Helvetica,sans-Serif" font-size="10.00">BayesFilters/AdditiveState</text>
<text text-anchor="middle" x="285" y="-287.5" font-family="Helvetica,sans-Serif" font-size="10.00">Model.h</text>
</a>
</g>
</g>
<!-- Node3&#45;&gt;Node4 -->
<g id="edge3" class="edge">
<title>Node3&#45;&gt;Node4</title>
<path fill="none" stroke="midnightblue" d="M285,-347.4C285,-339.64 285,-329.81 285,-320.86"/>
<polygon fill="midnightblue" stroke="midnightblue" points="288.5,-320.58 285,-310.58 281.5,-320.58 288.5,-320.58"/>
</g>
<!-- Node5 -->
<g id="node5" class="node">
<title>Node5</title>
<g id="a_node5"><a xlink:href="StateModel_8h.html" target="_top" xlink:title=" ">
<polygon fill="white" stroke="black" points="219,-224.5 219,-243.5 351,-243.5 351,-224.5 219,-224.5"/>
<text text-anchor="middle" x="285" y="-231.5" font-family="Helvetica,sans-Serif" font-size="10.00">BayesFilters/StateModel.h</text>
</a>
</g>
</g>
<!-- Node4&#45;&gt;Node5 -->
<g id="edge4" class="edge">
<title>Node4&#45;&gt;Node5</title>
<path fill="none" stroke="midnightblue" d="M285,-280.4C285,-272.47 285,-262.46 285,-253.86"/>
<polygon fill="midnightblue" stroke="midnightblue" points="288.5,-253.66 285,-243.66 281.5,-253.66 288.5,-253.66"/>
</g>
<!-- Node6 -->
<g id="node6" class="node">
<title>Node6</title>
<g id="a_node6"><a xlink:href="ExogenousModel_8h.html" target="_top" xlink:title=" ">
<polygon fill="white" stroke="black" points="310,-168.5 310,-187.5 468,-187.5 468,-168.5 310,-168.5"/>
<text text-anchor="middle" x="389" y="-175.5" font-family="Helvetica,sans-Serif" font-size="10.00">BayesFilters/ExogenousModel.h</text>
</a>
</g>
</g>
<!-- Node5&#45;&gt;Node6 -->
<g id="edge5" class="edge">
<title>Node5&#45;&gt;Node6</title>
<path fill="none" stroke="midnightblue" d="M301.71,-224.32C318.31,-215.7 344,-202.36 363.22,-192.39"/>
<polygon fill="midnightblue" stroke="midnightblue" points="365.07,-195.37 372.33,-187.65 361.84,-189.16 365.07,-195.37"/>
</g>
<!-- Node9 -->
<g id="node9" class="node">
<title>Node9</title>
<g id="a_node9"><a xlink:href="Skippable_8h.html" target="_top" xlink:title=" ">
<polygon fill="white" stroke="black" points="202.5,-112.5 202.5,-131.5 327.5,-131.5 327.5,-112.5 202.5,-112.5"/>
<text text-anchor="middle" x="265" y="-119.5" font-family="Helvetica,sans-Serif" font-size="10.00">BayesFilters/Skippable.h</text>
</a>
</g>
</g>
<!-- Node5&#45;&gt;Node9 -->
<g id="edge11" class="edge">
<title>Node5&#45;&gt;Node9</title>
<path fill="none" stroke="midnightblue" d="M283.43,-224.37C280.2,-206.62 272.76,-165.67 268.38,-141.6"/>
<polygon fill="midnightblue" stroke="midnightblue" points="271.79,-140.8 266.56,-131.59 264.91,-142.06 271.79,-140.8"/>
</g>
<!-- Node12 -->
<g id="node12" class="node">
<title>Node12</title>
<g id="a_node12"><a xlink:href="StateProcess_8h.html" target="_top" xlink:title=" ">
<polygon fill="white" stroke="black" points="531,-112.5 531,-131.5 673,-131.5 673,-112.5 531,-112.5"/>
<text text-anchor="middle" x="602" y="-119.5" font-family="Helvetica,sans-Serif" font-size="10.00">BayesFilters/StateProcess.h</text>
</a>
</g>
</g>
<!-- Node5&#45;&gt;Node12 -->
<g id="edge12" class="edge">
<title>Node5&#45;&gt;Node12</title>
<path fill="none" stroke="midnightblue" d="M336.96,-224.46C376.18,-217.14 430.93,-205.07 477,-188 514.46,-174.12 555,-151.49 579.44,-136.93"/>
<polygon fill="midnightblue" stroke="midnightblue" points="581.53,-139.76 588.28,-131.6 577.91,-133.77 581.53,-139.76"/>
</g>
<!-- Node13 -->
<g id="node13" class="node">
<title>Node13</title>
<g id="a_node13"><a xlink:title=" ">
<polygon fill="white" stroke="#bfbfbf" points="202,-168.5 202,-187.5 254,-187.5 254,-168.5 202,-168.5"/>
<text text-anchor="middle" x="228" y="-175.5" font-family="Helvetica,sans-Serif" font-size="10.00">memory</text>
</a>
</g>
</g>
<!-- Node5&#45;&gt;Node13 -->
<g id="edge14" class="edge">
<title>Node5&#45;&gt;Node13</title>
<path fill="none" stroke="midnightblue" d="M275.84,-224.32C267.5,-216.42 254.97,-204.55 244.82,-194.94"/>
<polygon fill="midnightblue" stroke="midnightblue" points="246.99,-192.17 237.32,-187.83 242.18,-197.25 246.99,-192.17"/>
</g>
<!-- Node7 -->
<g id="node7" class="node">
<title>Node7</title>
<g id="a_node7"><a xlink:href="ExogenousProcess_8h.html" target="_top" xlink:title=" ">
<polygon fill="white" stroke="black" points="345.5,-112.5 345.5,-131.5 512.5,-131.5 512.5,-112.5 345.5,-112.5"/>
<text text-anchor="middle" x="429" y="-119.5" font-family="Helvetica,sans-Serif" font-size="10.00">BayesFilters/ExogenousProcess.h</text>
</a>
</g>
</g>
<!-- Node6&#45;&gt;Node7 -->
<g id="edge6" class="edge">
<title>Node6&#45;&gt;Node7</title>
<path fill="none" stroke="midnightblue" d="M395.61,-168.08C401.26,-160.46 409.54,-149.26 416.45,-139.94"/>
<polygon fill="midnightblue" stroke="midnightblue" points="419.38,-141.87 422.52,-131.75 413.75,-137.7 419.38,-141.87"/>
</g>
<!-- Node6&#45;&gt;Node9 -->
<g id="edge8" class="edge">
<title>Node6&#45;&gt;Node9</title>
<path fill="none" stroke="midnightblue" d="M369.35,-168.44C349.04,-159.6 317.1,-145.69 293.9,-135.59"/>
<polygon fill="midnightblue" stroke="midnightblue" points="295.12,-132.3 284.56,-131.52 292.33,-138.72 295.12,-132.3"/>
</g>
<!-- Node8 -->
<g id="node8" class="node">
<title>Node8</title>
<g id="a_node8"><a xlink:title=" ">
<polygon fill="white" stroke="#bfbfbf" points="392.5,-56.5 392.5,-75.5 465.5,-75.5 465.5,-56.5 392.5,-56.5"/>
<text text-anchor="middle" x="429" y="-63.5" font-family="Helvetica,sans-Serif" font-size="10.00">Eigen/Dense</text>
</a>
</g>
</g>
<!-- Node7&#45;&gt;Node8 -->
<g id="edge7" class="edge">
<title>Node7&#45;&gt;Node8</title>
<path fill="none" stroke="midnightblue" d="M429,-112.08C429,-105.01 429,-94.86 429,-85.99"/>
<polygon fill="midnightblue" stroke="midnightblue" points="432.5,-85.75 429,-75.75 425.5,-85.75 432.5,-85.75"/>
</g>
<!-- Node10 -->
<g id="node10" class="node">
<title>Node10</title>
<g id="a_node10"><a xlink:href="Skipper_8h.html" target="_top" xlink:title=" ">
<polygon fill="white" stroke="black" points="186.5,-56.5 186.5,-75.5 301.5,-75.5 301.5,-56.5 186.5,-56.5"/>
<text text-anchor="middle" x="244" y="-63.5" font-family="Helvetica,sans-Serif" font-size="10.00">BayesFilters/Skipper.h</text>
</a>
</g>
</g>
<!-- Node9&#45;&gt;Node10 -->
<g id="edge9" class="edge">
<title>Node9&#45;&gt;Node10</title>
<path fill="none" stroke="midnightblue" d="M261.53,-112.08C258.69,-104.77 254.57,-94.18 251.04,-85.1"/>
<polygon fill="midnightblue" stroke="midnightblue" points="254.29,-83.8 247.4,-75.75 247.77,-86.34 254.29,-83.8"/>
</g>
<!-- Node11 -->
<g id="node11" class="node">
<title>Node11</title>
<g id="a_node11"><a xlink:title=" ">
<polygon fill="white" stroke="#bfbfbf" points="179.5,-0.5 179.5,-19.5 220.5,-19.5 220.5,-0.5 179.5,-0.5"/>
<text text-anchor="middle" x="200" y="-7.5" font-family="Helvetica,sans-Serif" font-size="10.00">string</text>
</a>
</g>
</g>
<!-- Node10&#45;&gt;Node11 -->
<g id="edge10" class="edge">
<title>Node10&#45;&gt;Node11</title>
<path fill="none" stroke="midnightblue" d="M236.73,-56.08C230.46,-48.38 221.21,-37.03 213.57,-27.65"/>
<polygon fill="midnightblue" stroke="midnightblue" points="216.16,-25.29 207.13,-19.75 210.73,-29.71 216.16,-25.29"/>
</g>
<!-- Node12&#45;&gt;Node8 -->
<g id="edge13" class="edge">
<title>Node12&#45;&gt;Node8</title>
<path fill="none" stroke="midnightblue" d="M574.59,-112.44C545.23,-103.28 498.48,-88.69 465.9,-78.52"/>
<polygon fill="midnightblue" stroke="midnightblue" points="466.87,-75.16 456.28,-75.52 464.79,-81.84 466.87,-75.16"/>
</g>
<!-- Node16&#45;&gt;Node8 -->
<g id="edge18" class="edge">
<title>Node16&#45;&gt;Node8</title>
<path fill="none" stroke="midnightblue" d="M134.12,-224.17C146.63,-197.55 183.87,-119.49 194,-112 223.22,-90.39 322.3,-77.3 382.08,-71.17"/>
<polygon fill="midnightblue" stroke="midnightblue" points="382.79,-74.62 392.4,-70.15 382.1,-67.66 382.79,-74.62"/>
</g>
<!-- Node16&#45;&gt;Node11 -->
<g id="edge22" class="edge">
<title>Node16&#45;&gt;Node11</title>
<path fill="none" stroke="midnightblue" d="M131.74,-224.34C137.08,-198.35 154.35,-118.88 178,-56 181.48,-46.74 186.21,-36.83 190.4,-28.67"/>
<polygon fill="midnightblue" stroke="midnightblue" points="193.53,-30.22 195.11,-19.74 187.34,-26.95 193.53,-30.22"/>
</g>
<!-- Node16&#45;&gt;Node13 -->
<g id="edge21" class="edge">
<title>Node16&#45;&gt;Node13</title>
<path fill="none" stroke="midnightblue" d="M145.75,-224.32C161.32,-215.74 185.38,-202.49 203.46,-192.52"/>
<polygon fill="midnightblue" stroke="midnightblue" points="205.22,-195.55 212.29,-187.65 201.85,-189.42 205.22,-195.55"/>
</g>
<!-- Node17 -->
<g id="node17" class="node">
<title>Node17</title>
<g id="a_node17"><a xlink:title=" ">
<polygon fill="white" stroke="#bfbfbf" points="62,-168.5 62,-187.5 108,-187.5 108,-168.5 62,-168.5"/>
<text text-anchor="middle" x="85" y="-175.5" font-family="Helvetica,sans-Serif" font-size="10.00">chrono</text>
</a>
</g>
</g>
<!-- Node16&#45;&gt;Node17 -->
<g id="edge19" class="edge">
<title>Node16&#45;&gt;Node17</title>
<path fill="none" stroke="midnightblue" d="M122.57,-224.08C116.15,-216.38 106.69,-205.03 98.88,-195.65"/>
<polygon fill="midnightblue" stroke="midnightblue" points="101.38,-193.19 92.29,-187.75 96.01,-197.67 101.38,-193.19"/>
</g>
<!-- Node16&#45;&gt;Node18 -->
<g id="edge20" class="edge">
<title>Node16&#45;&gt;Node18</title>
<path fill="none" stroke="midnightblue" d="M112.65,-224.32C95.33,-215.66 68.48,-202.24 48.5,-192.25"/>
<polygon fill="midnightblue" stroke="midnightblue" points="49.82,-189 39.31,-187.65 46.69,-195.26 49.82,-189"/>
</g>
</g>
</svg>
